<?xml version="1.0" encoding="UTF-8"?>
	<svg xmlns:xlink="http://www.w3.org/1999/xlink" 
	xmlns="http://www.w3.org/2000/svg" 
	width="360px" height="180px">
	   <style type="text/css">
		  <![CDATA[     
		  .region 
		  { 
			fill:blue; 
			opacity:0.4; 
			stroke:blue;
		  }
		  ]]>
	   </style>

	<circle id="dot" x="-2" y="-2" r="2" style="stroke:none; stroke-width:0; fill:black; opacity:0.7;"/>


	 <image x="0" y="0" width="360" height="180" xlink:href="map.jpg"/>

 
	 <g transform="translate(180,90) scale(1,-1)">   <use xlink:href="#dot" transform="translate(-67.504292,-16.361842)" />   <use xlink:href="#dot" transform="translate(-67.504341,-16.361854)" />   <use xlink:href="#dot" transform="translate(-67.505275,-16.362203)" />   <use xlink:href="#dot" transform="translate(-67.505047,-16.362204)" />   <use xlink:href="#dot" transform="translate(-68.099722,-16.1275)" />   <use xlink:href="#dot" transform="translate(-65.869167,-17.211944)" />   <use xlink:href="#dot" transform="translate(-65.869167,-17.211944)" />   <use xlink:href="#dot" transform="translate(-65.516667,-17.133333)" />   <use xlink:href="#dot" transform="translate(-68.079444,-16.118611)" />   <use xlink:href="#dot" transform="translate(-68.079444,-16.118611)" />   <use xlink:href="#dot" transform="translate(-65.869167,-17.211944)" />   <use xlink:href="#dot" transform="translate(-65.869167,-17.211944)" />   <use xlink:href="#dot" transform="translate(-65.869167,-17.211944)" />   <use xlink:href="#dot" transform="translate(-65.86778,-17.21194)" />   <use xlink:href="#dot" transform="translate(-65.516667,-17.133333)" />   <use xlink:href="#dot" transform="translate(-68.05,-16.066667)" />   <use xlink:href="#dot" transform="translate(-68.099722,-16.1275)" />   <use xlink:href="#dot" transform="translate(-68.066667,-16.083333)" />   <use xlink:href="#dot" transform="translate(-65.516667,-17.133333)" />   <use xlink:href="#dot" transform="translate(-68.099722,-16.1275)" />   <use xlink:href="#dot" transform="translate(-65.869167,-17.211944)" />   <use xlink:href="#dot" transform="translate(-65.869167,-17.211944)" />   <use xlink:href="#dot" transform="translate(-65.869167,-17.211944)" />   <use xlink:href="#dot" transform="translate(-65.516667,-17.133333)" />   <use xlink:href="#dot" transform="translate(-68.099722,-16.1275)" />   <use xlink:href="#dot" transform="translate(-65.869167,-17.211944)" />   <use xlink:href="#dot" transform="translate(-65.869167,-17.211944)" />   <use xlink:href="#dot" transform="translate(-65.869167,-17.211944)" />   <use xlink:href="#dot" transform="translate(-68.09972,-16.1275)" />   <use xlink:href="#dot" transform="translate(-65.86917,-17.21194)" />   <use xlink:href="#dot" transform="translate(-65.869167,-17.211944)" />   <use xlink:href="#dot" transform="translate(-68.099722,-16.1275)" />   <use xlink:href="#dot" transform="translate(-65.516667,-17.133333)" />   <use xlink:href="#dot" transform="translate(-65.516667,-17.133333)" />   <use xlink:href="#dot" transform="translate(-65.869167,-17.211944)" />   <use xlink:href="#dot" transform="translate(-68.079444,-16.118611)" />   <use xlink:href="#dot" transform="translate(-65.869167,-17.211944)" />   <use xlink:href="#dot" transform="translate(-65.86778,-17.21194)" />   <use xlink:href="#dot" transform="translate(-68.09972,-16.1275)" />   <use xlink:href="#dot" transform="translate(-68.05,-16.066667)" />   <use xlink:href="#dot" transform="translate(-68.05,-16.066667)" />   <use xlink:href="#dot" transform="translate(-68.066667,-16.083333)" />   <use xlink:href="#dot" transform="translate(-65.516667,-17.133333)" />   <use xlink:href="#dot" transform="translate(-65.86778,-17.21194)" />   <use xlink:href="#dot" transform="translate(-68.079444,-16.118611)" />   <use xlink:href="#dot" transform="translate(-68.099722,-16.1275)" />   <use xlink:href="#dot" transform="translate(-65.86778,-17.21194)" />   <use xlink:href="#dot" transform="translate(-65.516667,-17.133333)" />   <use xlink:href="#dot" transform="translate(-68.099722,-16.1275)" />   <use xlink:href="#dot" transform="translate(-65.516667,-17.133333)" />   <use xlink:href="#dot" transform="translate(-68.099722,-16.1275)" />   <use xlink:href="#dot" transform="translate(-65.869167,-17.211944)" />   <use xlink:href="#dot" transform="translate(-65.05,-16.066667)" />   <use xlink:href="#dot" transform="translate(-65.516667,-17.133333)" />   <use xlink:href="#dot" transform="translate(-68.099722,-16.1275)" />   <use xlink:href="#dot" transform="translate(-68.099722,-16.1275)" />   <use xlink:href="#dot" transform="translate(-68.099722,-16.1275)" />   <use xlink:href="#dot" transform="translate(-68.09972,-16.1275)" />   <use xlink:href="#dot" transform="translate(-68.066667,-16.083333)" />   <use xlink:href="#dot" transform="translate(-68.099722,-16.1275)" />   <use xlink:href="#dot" transform="translate(-65.516667,-17.133333)" />   <use xlink:href="#dot" transform="translate(-65.516667,-17.133333)" />   <use xlink:href="#dot" transform="translate(-68.099722,-16.1275)" />   <use xlink:href="#dot" transform="translate(-65.869167,-17.211944)" />   <use xlink:href="#dot" transform="translate(-65.86778,-17.21194)" />   <use xlink:href="#dot" transform="translate(-65.869167,-17.211944)" />   <use xlink:href="#dot" transform="translate(-65.869167,-17.211944)" />   <use xlink:href="#dot" transform="translate(-65.86778,-17.21194)" />   <use xlink:href="#dot" transform="translate(-65.516667,-17.133333)" />   <use xlink:href="#dot" transform="translate(-68.079444,-16.118611)" />   <use xlink:href="#dot" transform="translate(-68.099722,-16.1275)" />   <use xlink:href="#dot" transform="translate(-65.869167,-17.211944)" />   <use xlink:href="#dot" transform="translate(-65.86778,-17.21194)" />   <use xlink:href="#dot" transform="translate(-65.05,-16.066667)" />   <use xlink:href="#dot" transform="translate(-65.516667,-17.133333)" />   <use xlink:href="#dot" transform="translate(-65.869167,-17.211944)" />   <use xlink:href="#dot" transform="translate(-68.079444,-16.118611)" />   <use xlink:href="#dot" transform="translate(-65.869167,-17.211944)" />   <use xlink:href="#dot" transform="translate(-65.869167,-17.211944)" />   <use xlink:href="#dot" transform="translate(-68.05,-16.066667)" />   <use xlink:href="#dot" transform="translate(-65.86778,-17.21194)" />   <use xlink:href="#dot" transform="translate(-65.869167,-17.211944)" />   <use xlink:href="#dot" transform="translate(-65.869167,-17.211944)" />   <use xlink:href="#dot" transform="translate(-65.86778,-17.21194)" />   <use xlink:href="#dot" transform="translate(-65.86778,-17.21194)" />   <use xlink:href="#dot" transform="translate(-65.05,-16.066667)" />   <use xlink:href="#dot" transform="translate(-65.516667,-17.133333)" />   <use xlink:href="#dot" transform="translate(-65.869167,-17.211944)" />   <use xlink:href="#dot" transform="translate(-68.099722,-16.1275)" />   <use xlink:href="#dot" transform="translate(-65.869167,-17.211944)" />   <use xlink:href="#dot" transform="translate(-68.099722,-16.1275)" />   <use xlink:href="#dot" transform="translate(-65.869167,-17.211944)" />   <use xlink:href="#dot" transform="translate(-68.06667,-16.11667)" />   <use xlink:href="#dot" transform="translate(-68.099722,-16.1275)" />   <use xlink:href="#dot" transform="translate(-65.869167,-17.211944)" />   <use xlink:href="#dot" transform="translate(-65.869167,-17.211944)" />   <use xlink:href="#dot" transform="translate(-65.869167,-17.211944)" />   <use xlink:href="#dot" transform="translate(-65.86778,-17.21194)" />   <use xlink:href="#dot" transform="translate(-68.06667,-16.11667)" />   <use xlink:href="#dot" transform="translate(-65.05,-16.066667)" />   <use xlink:href="#dot" transform="translate(-65.516667,-17.133333)" />   <use xlink:href="#dot" transform="translate(-68.099722,-16.1275)" />   <use xlink:href="#dot" transform="translate(-65.516667,-17.133333)" />   <use xlink:href="#dot" transform="translate(-68.099722,-16.1275)" />   <use xlink:href="#dot" transform="translate(-65.869167,-17.211944)" />   <use xlink:href="#dot" transform="translate(-65.86778,-17.21194)" />   <use xlink:href="#dot" transform="translate(-65.86778,-17.21194)" />   <use xlink:href="#dot" transform="translate(-68.09972,-16.1275)" />   <use xlink:href="#dot" transform="translate(-65.516667,-17.133333)" />   <use xlink:href="#dot" transform="translate(-68.06667,-16.11667)" />   <use xlink:href="#dot" transform="translate(-65.86778,-17.21194)" />   <use xlink:href="#dot" transform="translate(-68.06667,-16.11667)" />   <use xlink:href="#dot" transform="translate(-68.066667,-16.083333)" />   <use xlink:href="#dot" transform="translate(-65.516667,-17.133333)" />   <use xlink:href="#dot" transform="translate(-65.869167,-17.211944)" />   <use xlink:href="#dot" transform="translate(-68.099722,-16.1275)" />   <use xlink:href="#dot" transform="translate(-68.066667,-16.083333)" />   <use xlink:href="#dot" transform="translate(-65.869167,-17.211944)" />   <use xlink:href="#dot" transform="translate(-68.079444,-16.118611)" />   <use xlink:href="#dot" transform="translate(-65.869167,-17.211944)" />   <use xlink:href="#dot" transform="translate(-65.86778,-17.21194)" />   <use xlink:href="#dot" transform="translate(-65.516667,-17.133333)" />   <use xlink:href="#dot" transform="translate(-65.516667,-17.133333)" />   <use xlink:href="#dot" transform="translate(-68.099722,-16.1275)" />   <use xlink:href="#dot" transform="translate(-65.869167,-17.211944)" />   <use xlink:href="#dot" transform="translate(-68.09972,-16.1275)" />   <use xlink:href="#dot" transform="translate(-65.516667,-17.133333)" />   <use xlink:href="#dot" transform="translate(-65.869167,-17.211944)" />   <use xlink:href="#dot" transform="translate(-65.86778,-17.21194)" />   <use xlink:href="#dot" transform="translate(-65.869167,-17.211944)" />   <use xlink:href="#dot" transform="translate(-65.516667,-17.133333)" />   <use xlink:href="#dot" transform="translate(-65.516667,-17.133333)" />   <use xlink:href="#dot" transform="translate(-65.869167,-17.211944)" />   <use xlink:href="#dot" transform="translate(-65.86778,-17.21194)" />   <use xlink:href="#dot" transform="translate(-65.516667,-17.133333)" />   <use xlink:href="#dot" transform="translate(-65.869167,-17.211944)" />   <use xlink:href="#dot" transform="translate(-65.86778,-17.21194)" />   <use xlink:href="#dot" transform="translate(-65.869167,-17.211944)" />   <use xlink:href="#dot" transform="translate(-65.516667,-17.133333)" />   <use xlink:href="#dot" transform="translate(-65.957278,-17.13125)" />   <use xlink:href="#dot" transform="translate(-65.869167,-17.211944)" />   <use xlink:href="#dot" transform="translate(-65.869167,-17.211944)" />   <use xlink:href="#dot" transform="translate(-65.516667,-17.133333)" />   <use xlink:href="#dot" transform="translate(-65.583333,-17.066667)" />   <use xlink:href="#dot" transform="translate(-65.869167,-17.211944)" />   <use xlink:href="#dot" transform="translate(-65.516667,-17.133333)" />   <use xlink:href="#dot" transform="translate(-67.533333,-16.133333)" />   <use xlink:href="#dot" transform="translate(-67.533333,-16.133333)" />   <use xlink:href="#dot" transform="translate(-67.533333,-16.116667)" />   <use xlink:href="#dot" transform="translate(-67.533333,-16.116667)" />   <use xlink:href="#dot" transform="translate(-67.533333,-16.116667)" />   <use xlink:href="#dot" transform="translate(-67.533333,-16.133333)" />   <use xlink:href="#dot" transform="translate(-67.533333,-16.133333)" />   <use xlink:href="#dot" transform="translate(-67.88333,-16.31667)" />   <use xlink:href="#dot" transform="translate(-67.533333,-16.183333)" />   <use xlink:href="#dot" transform="translate(-67.516667,-16.166667)" />   <use xlink:href="#dot" transform="translate(-67.516667,-16.166667)" />   <use xlink:href="#dot" transform="translate(-67.883333,-16.316667)" />   <use xlink:href="#dot" transform="translate(-67.88333,-16.31667)" />   <use xlink:href="#dot" transform="translate(-67.85,-16.3)" />   <use xlink:href="#dot" transform="translate(-67.85,-16.3)" />   <use xlink:href="#dot" transform="translate(-67.88333,-16.31667)" />   <use xlink:href="#dot" transform="translate(-67.533333,-16.183333)" />   <use xlink:href="#dot" transform="translate(-67.516667,-16.166667)" />   <use xlink:href="#dot" transform="translate(-67.516667,-16.166667)" />   <use xlink:href="#dot" transform="translate(-67.883333,-16.316667)" />   <use xlink:href="#dot" transform="translate(-67.883333,-16.316667)" />   <use xlink:href="#dot" transform="translate(-67.883333,-16.316667)" />   <use xlink:href="#dot" transform="translate(-67.533333,-16.183333)" />   <use xlink:href="#dot" transform="translate(-67.883333,-16.316667)" />   <use xlink:href="#dot" transform="translate(-67.88333,-16.31667)" />   <use xlink:href="#dot" transform="translate(-67.883333,-16.316667)" />   <use xlink:href="#dot" transform="translate(-67.88333,-16.31667)" />   <use xlink:href="#dot" transform="translate(-67.85,-16.3)" />   <use xlink:href="#dot" transform="translate(-67.883333,-16.316667)" />   <use xlink:href="#dot" transform="translate(-67.533333,-16.183333)" />   <use xlink:href="#dot" transform="translate(-67.883333,-16.316667)" />   <use xlink:href="#dot" transform="translate(-67.883333,-16.316667)" />   <use xlink:href="#dot" transform="translate(-67.533333,-16.183333)" />   <use xlink:href="#dot" transform="translate(-67.533333,-16.183333)" />   <use xlink:href="#dot" transform="translate(-67.516667,-16.166667)" />   <use xlink:href="#dot" transform="translate(-67.533333,-16.183333)" />   <use xlink:href="#dot" transform="translate(-67.533333,-16.183333)" />   <use xlink:href="#dot" transform="translate(-67.88333,-16.31667)" />   <use xlink:href="#dot" transform="translate(-67.883333,-16.316667)" />   <use xlink:href="#dot" transform="translate(-67.883333,-16.316667)" />   <use xlink:href="#dot" transform="translate(-67.516667,-16.166667)" />   <use xlink:href="#dot" transform="translate(-67.883333,-16.316667)" />   <use xlink:href="#dot" transform="translate(-67.88333,-16.31667)" />   <use xlink:href="#dot" transform="translate(-67.533333,-16.183333)" />   <use xlink:href="#dot" transform="translate(-67.883333,-16.316667)" />   <use xlink:href="#dot" transform="translate(-67.88333,-16.31667)" />   <use xlink:href="#dot" transform="translate(-67.88333,-16.31667)" />   <use xlink:href="#dot" transform="translate(-67.533333,-16.183333)" />   <use xlink:href="#dot" transform="translate(-67.85,-16.3)" />   <use xlink:href="#dot" transform="translate(-67.883333,-16.316667)" />   <use xlink:href="#dot" transform="translate(-67.88333,-16.31667)" />   <use xlink:href="#dot" transform="translate(-67.85,-16.3)" />   <use xlink:href="#dot" transform="translate(-67.88333,-16.31667)" />   <use xlink:href="#dot" transform="translate(-67.88333,-16.31667)" />   <use xlink:href="#dot" transform="translate(-67.516667,-16.166667)" />   <use xlink:href="#dot" transform="translate(-67.883333,-16.316667)" />   <use xlink:href="#dot" transform="translate(-67.88333,-16.31667)" />   <use xlink:href="#dot" transform="translate(-67.85,-16.31667)" />   <use xlink:href="#dot" transform="translate(-67.533333,-16.183333)" />   <use xlink:href="#dot" transform="translate(-67.533333,-16.183333)" />   <use xlink:href="#dot" transform="translate(-67.883333,-16.316667)" />   <use xlink:href="#dot" transform="translate(-67.883333,-16.316667)" />   <use xlink:href="#dot" transform="translate(-67.533333,-16.183333)" />   <use xlink:href="#dot" transform="translate(-67.516667,-16.166667)" />   <use xlink:href="#dot" transform="translate(-67.533333,-16.183333)" />   <use xlink:href="#dot" transform="translate(-67.533333,-16.183333)" />   <use xlink:href="#dot" transform="translate(-67.883333,-16.316667)" />   <use xlink:href="#dot" transform="translate(-67.883333,-16.316667)" />   <use xlink:href="#dot" transform="translate(-67.88333,-16.31667)" />   <use xlink:href="#dot" transform="translate(-67.533333,-16.183333)" />   <use xlink:href="#dot" transform="translate(-67.533333,-16.183333)" />   <use xlink:href="#dot" transform="translate(-67.533333,-16.183333)" />   <use xlink:href="#dot" transform="translate(-67.516667,-16.166667)" />   <use xlink:href="#dot" transform="translate(-67.883333,-16.316667)" />   <use xlink:href="#dot" transform="translate(-67.88333,-16.31667)" />   <use xlink:href="#dot" transform="translate(-67.88333,-16.31667)" />   <use xlink:href="#dot" transform="translate(-67.533333,-16.183333)" />   <use xlink:href="#dot" transform="translate(-67.516667,-16.166667)" />   <use xlink:href="#dot" transform="translate(-67.883333,-16.316667)" />   <use xlink:href="#dot" transform="translate(-67.88333,-16.31667)" />   <use xlink:href="#dot" transform="translate(-67.533333,-16.183333)" />   <use xlink:href="#dot" transform="translate(-67.883333,-16.316667)" />   <use xlink:href="#dot" transform="translate(-67.533333,-16.183333)" />   <use xlink:href="#dot" transform="translate(-67.516667,-16.166667)" />   <use xlink:href="#dot" transform="translate(-67.533333,-16.183333)" />   <use xlink:href="#dot" transform="translate(-67.533333,-16.183333)" />   <use xlink:href="#dot" transform="translate(-67.533333,-16.183333)" />   <use xlink:href="#dot" transform="translate(-67.533333,-16.183333)" />   <use xlink:href="#dot" transform="translate(-67.883333,-16.316667)" />   <use xlink:href="#dot" transform="translate(-67.88333,-16.31667)" />   <use xlink:href="#dot" transform="translate(-67.883333,-16.316667)" />   <use xlink:href="#dot" transform="translate(-67.883333,-16.316667)" />   <use xlink:href="#dot" transform="translate(-67.883333,-16.316667)" />   <use xlink:href="#dot" transform="translate(-67.883333,-16.316667)" />   <use xlink:href="#dot" transform="translate(-67.883333,-16.316667)" />   <use xlink:href="#dot" transform="translate(-67.516667,-16.166667)" />   <use xlink:href="#dot" transform="translate(-67.516667,-16.166667)" />   <use xlink:href="#dot" transform="translate(-67.883333,-16.316667)" />   <use xlink:href="#dot" transform="translate(-67.88333,-16.31667)" />   <use xlink:href="#dot" transform="translate(-67.88333,-16.31667)" />   <use xlink:href="#dot" transform="translate(-67.283333,-16.283333)" />   <use xlink:href="#dot" transform="translate(-67.533333,-16.133333)" />   <use xlink:href="#dot" transform="translate(-67.533333,-16.133333)" />   <use xlink:href="#dot" transform="translate(-65.033333,-17.75)" />   <use xlink:href="#dot" transform="translate(-65.033333,-17.75)" />   <use xlink:href="#dot" transform="translate(-64.683333,-17.816667)" />   <use xlink:href="#dot" transform="translate(-64.683333,-17.816667)" />   <use xlink:href="#dot" transform="translate(-65.033333,-17.75)" />   <use xlink:href="#dot" transform="translate(-64.683333,-17.816667)" />   <use xlink:href="#dot" transform="translate(-64.683333,-17.816667)" />   <use xlink:href="#dot" transform="translate(-64.68333,-17.81667)" />   <use xlink:href="#dot" transform="translate(-64.683333,-17.816667)" />   <use xlink:href="#dot" transform="translate(-64.416667,-17.483333)" />   <use xlink:href="#dot" transform="translate(-64.683333,-17.816667)" />   <use xlink:href="#dot" transform="translate(-64.683333,-17.816667)" />   <use xlink:href="#dot" transform="translate(-65.033333,-17.75)" />   <use xlink:href="#dot" transform="translate(-64.683333,-17.816667)" />   <use xlink:href="#dot" transform="translate(-64.683333,-17.816667)" />   <use xlink:href="#dot" transform="translate(-64.683333,-17.816667)" />   <use xlink:href="#dot" transform="translate(-65.033333,-17.75)" />   <use xlink:href="#dot" transform="translate(-69.69128,-14.11182)" />   <use xlink:href="#dot" transform="translate(-69.69128,-14.11182)" />   <use xlink:href="#dot" transform="translate(-69.69128,-14.11182)" />   <use xlink:href="#dot" transform="translate(-69.69128,-14.11182)" />   <use xlink:href="#dot" transform="translate(-69.69128,-14.11182)" />   <use xlink:href="#dot" transform="translate(-69.69128,-14.11182)" />   <use xlink:href="#dot" transform="translate(-69.69128,-14.11182)" />   <use xlink:href="#dot" transform="translate(-69.69128,-14.11182)" />   <use xlink:href="#dot" transform="translate(-69.69128,-14.11182)" />   <use xlink:href="#dot" transform="translate(-69.22136,-14.20604)" />   <use xlink:href="#dot" transform="translate(-69.22136,-14.20604)" />   <use xlink:href="#dot" transform="translate(-64.416667,-17.516667)" />   <use xlink:href="#dot" transform="translate(-64.666667,-17.85)" />   <use xlink:href="#dot" transform="translate(-64.416667,-17.516667)" />   <use xlink:href="#dot" transform="translate(-64.666667,-17.85)" />   <use xlink:href="#dot" transform="translate(-64.666667,-17.85)" />   <use xlink:href="#dot" transform="translate(-64.666667,-17.85)" />   <use xlink:href="#dot" transform="translate(-64.666667,-17.85)" />   <use xlink:href="#dot" transform="translate(-64.666667,-17.85)" />   <use xlink:href="#dot" transform="translate(-64.666667,-17.85)" />   <use xlink:href="#dot" transform="translate(-64.666667,-17.85)" />   <use xlink:href="#dot" transform="translate(-64.416667,-17.516667)" />   <use xlink:href="#dot" transform="translate(-64.416667,-17.516667)" />   <use xlink:href="#dot" transform="translate(-64.666667,-17.85)" />   <use xlink:href="#dot" transform="translate(-64.416667,-17.516667)" />   <use xlink:href="#dot" transform="translate(-64.416667,-17.516667)" />   <use xlink:href="#dot" transform="translate(-64.416667,-17.516667)" />   <use xlink:href="#dot" transform="translate(-64.416667,-17.516667)" />   <use xlink:href="#dot" transform="translate(-64.416667,-17.516667)" />   <use xlink:href="#dot" transform="translate(-64.666667,-17.85)" />   <use xlink:href="#dot" transform="translate(-64.666667,-17.85)" />   <use xlink:href="#dot" transform="translate(-64.666667,-17.85)" />   <use xlink:href="#dot" transform="translate(-64.416667,-17.516667)" />   <use xlink:href="#dot" transform="translate(-67.8,-16.317)" /><polygon class="region" points="-68.099722,-16.1275 -69.69128,-14.11182 -69.22136,-14.20604 -65.05,-16.066667 -64.416667,-17.483333 -64.416667,-17.516667 -64.666667,-17.85 -65.033333,-17.75 -67.88333,-16.31667 -68.099722,-16.1275 " />
		  </g>
		</svg>