<?xml version="1.0" encoding="UTF-8"?>
	<svg xmlns:xlink="http://www.w3.org/1999/xlink" 
	xmlns="http://www.w3.org/2000/svg" 
	width="360px" height="180px">
	   <style type="text/css">
		  <![CDATA[     
		  .region 
		  { 
			fill:blue; 
			opacity:0.4; 
			stroke:blue;
		  }
		  ]]>
	   </style>

	<circle id="dot" x="-2" y="-2" r="2" style="stroke:none; stroke-width:0; fill:black; opacity:0.7;"/>


	 <image x="0" y="0" width="360" height="180" xlink:href="map.jpg"/>

 
	 <g transform="translate(180,90) scale(1,-1)">   <use xlink:href="#dot" transform="translate(149.746774,-37.572865)" />   <use xlink:href="#dot" transform="translate(145.25,-37.15)" />   <use xlink:href="#dot" transform="translate(148.794153,-35.946117)" />   <use xlink:href="#dot" transform="translate(144.251282,-37.857363)" />   <use xlink:href="#dot" transform="translate(145.8458,-37.858700037156)" />   <use xlink:href="#dot" transform="translate(145.8801,-37.799100037096)" />   <use xlink:href="#dot" transform="translate(145.8305,-37.859900037157)" />   <use xlink:href="#dot" transform="translate(145.8966,-37.789900037086)" />   <use xlink:href="#dot" transform="translate(145.9253,-37.832000037129)" />   <use xlink:href="#dot" transform="translate(144.266828,-37.388955)" />   <use xlink:href="#dot" transform="translate(145.9274,-37.824600037122)" />   <use xlink:href="#dot" transform="translate(145.9266,-37.824700037122)" />   <use xlink:href="#dot" transform="translate(145.8788,-37.8032000371)" />   <use xlink:href="#dot" transform="translate(145.9245,-37.814700037111)" />   <use xlink:href="#dot" transform="translate(145.9246,-37.831700037129)" />   <use xlink:href="#dot" transform="translate(145.8938,-37.772100037068)" />   <use xlink:href="#dot" transform="translate(144.266828,-37.388955)" />   <use xlink:href="#dot" transform="translate(145.88,-37.8032000371)" />   <use xlink:href="#dot" transform="translate(145.8793,-37.798300037095)" />   <use xlink:href="#dot" transform="translate(145.8831,-37.867500037165)" />   <use xlink:href="#dot" transform="translate(145.9241,-37.815100037112)" />   <use xlink:href="#dot" transform="translate(145.8959,-37.789800037086)" />   <use xlink:href="#dot" transform="translate(145.8307,-37.85270003715)" />   <use xlink:href="#dot" transform="translate(145.8972,-37.782500037079)" />   <use xlink:href="#dot" transform="translate(146.1496,-37.712000037006)" />   <use xlink:href="#dot" transform="translate(145.7108,-37.632700036924)" />   <use xlink:href="#dot" transform="translate(150.198052,-33.378932031561)" />   <use xlink:href="#dot" transform="translate(150.1818,-33.365771031542)" />   <use xlink:href="#dot" transform="translate(145.9975,-37.611600036902)" />   <use xlink:href="#dot" transform="translate(145.9908,-37.596200036886)" />   <use xlink:href="#dot" transform="translate(145.9924,-37.60020003689)" />   <use xlink:href="#dot" transform="translate(150.198052,-33.378932031561)" />   <use xlink:href="#dot" transform="translate(150.1818,-33.365771031542)" />   <use xlink:href="#dot" transform="translate(150.227202,-33.371960031551)" />   <use xlink:href="#dot" transform="translate(150.191039,-33.414196031612)" />   <use xlink:href="#dot" transform="translate(150.198052,-33.378932031561)" />   <use xlink:href="#dot" transform="translate(146.014,-37.633100036925)" />   <use xlink:href="#dot" transform="translate(150.1818,-33.365771031542)" />   <use xlink:href="#dot" transform="translate(150.202701,-33.374025031554)" />   <use xlink:href="#dot" transform="translate(149.11165,-33.264837031395)" />   <use xlink:href="#dot" transform="translate(150.227202,-33.371960031551)" />   <use xlink:href="#dot" transform="translate(150.191039,-33.414196031612)" />   <use xlink:href="#dot" transform="translate(150.188182,-33.363094031538)" />   <use xlink:href="#dot" transform="translate(145.6946,-37.607900036898)" />   <use xlink:href="#dot" transform="translate(145.7102,-37.633000036925)" />   <use xlink:href="#dot" transform="translate(145.9981,-37.611600036902)" />   <use xlink:href="#dot" transform="translate(150.188182,-33.363094031538)" />   <use xlink:href="#dot" transform="translate(145.9101,-37.489100036774)" />   <use xlink:href="#dot" transform="translate(150.1818,-33.365771031542)" />   <use xlink:href="#dot" transform="translate(146.0827,-37.647200036939)" />   <use xlink:href="#dot" transform="translate(144.266828,-37.388957)" />   <use xlink:href="#dot" transform="translate(150.136932,-33.355296031527)" />   <use xlink:href="#dot" transform="translate(146.1923,-37.73470003703)" />   <use xlink:href="#dot" transform="translate(145.9292,-37.461700036745)" />   <use xlink:href="#dot" transform="translate(146.1948,-37.742800037038)" />   <use xlink:href="#dot" transform="translate(146.1927,-37.733900037029)" />   <use xlink:href="#dot" transform="translate(145.899,-37.422300036703)" />   <use xlink:href="#dot" transform="translate(150.134195,-33.372253031552)" />   <use xlink:href="#dot" transform="translate(145.9297,-37.461800036745)" />   <use xlink:href="#dot" transform="translate(150.127953,-33.37122603155)" />   <use xlink:href="#dot" transform="translate(145.8178,-37.882900037181)" />   <use xlink:href="#dot" transform="translate(145.9387,-37.452400036735)" />   <use xlink:href="#dot" transform="translate(145.7417,-37.900900037199)" />   <use xlink:href="#dot" transform="translate(145.7415,-37.9017000372)" />   <use xlink:href="#dot" transform="translate(145.8921,-37.423600036704)" />   <use xlink:href="#dot" transform="translate(146.1384,-37.698200036992)" />   <use xlink:href="#dot" transform="translate(145.8924,-37.423100036704)" />   <use xlink:href="#dot" transform="translate(150.136932,-33.355296031527)" />   <use xlink:href="#dot" transform="translate(150.132417,-33.365198031541)" />   <use xlink:href="#dot" transform="translate(150.159187,-33.366653031543)" />   <use xlink:href="#dot" transform="translate(146.1617,-37.688800036982)" />   <use xlink:href="#dot" transform="translate(145.7424,-37.901000037199)" />   <use xlink:href="#dot" transform="translate(145.8533,-37.916900037215)" />   <use xlink:href="#dot" transform="translate(146.1652,-37.740800037036)" />   <use xlink:href="#dot" transform="translate(150.136932,-33.355296031527)" />   <use xlink:href="#dot" transform="translate(146.2313,-37.727700037022)" />   <use xlink:href="#dot" transform="translate(145.7259,-37.89200003719)" />   <use xlink:href="#dot" transform="translate(145.8528,-37.916900037215)" />   <use xlink:href="#dot" transform="translate(145.7467,-37.904400037202)" />   <use xlink:href="#dot" transform="translate(150.136932,-33.355296031527)" />   <use xlink:href="#dot" transform="translate(147.2956,-37.899200037197)" />   <use xlink:href="#dot" transform="translate(146.1554,-37.687500036981)" />   <use xlink:href="#dot" transform="translate(150.136932,-33.355296031527)" />   <use xlink:href="#dot" transform="translate(150.132417,-33.365198031541)" />   <use xlink:href="#dot" transform="translate(146.1584,-37.727000037022)" />   <use xlink:href="#dot" transform="translate(150.136932,-33.355296031527)" />   <use xlink:href="#dot" transform="translate(150.132417,-33.365198031541)" />   <use xlink:href="#dot" transform="translate(146.2347,-37.719800037014)" />   <use xlink:href="#dot" transform="translate(150.132417,-33.365198031541)" />   <use xlink:href="#dot" transform="translate(145.9378,-37.451800036734)" />   <use xlink:href="#dot" transform="translate(150.136932,-33.355296031527)" />   <use xlink:href="#dot" transform="translate(145.9374,-37.417000036697)" />   <use xlink:href="#dot" transform="translate(150.134195,-33.372253031552)" />   <use xlink:href="#dot" transform="translate(150.132417,-33.365198031541)" />   <use xlink:href="#dot" transform="translate(145.9142,-37.521800036808)" />   <use xlink:href="#dot" transform="translate(146.093,-37.782500037079)" />   <use xlink:href="#dot" transform="translate(145.936,-37.417500036698)" />   <use xlink:href="#dot" transform="translate(145.8527,-37.917400037215)" />   <use xlink:href="#dot" transform="translate(145.9133,-37.521900036808)" />   <use xlink:href="#dot" transform="translate(146.138,-37.698500036992)" />   <use xlink:href="#dot" transform="translate(150.132417,-33.365198031541)" />   <use xlink:href="#dot" transform="translate(150.127953,-33.37122603155)" />   <use xlink:href="#dot" transform="translate(150.127953,-33.37122603155)" />   <use xlink:href="#dot" transform="translate(144.266828,-37.388957)" />   <use xlink:href="#dot" transform="translate(144.266828,-37.388957)" />   <use xlink:href="#dot" transform="translate(144.266828,-37.388957)" />   <use xlink:href="#dot" transform="translate(149.848811,-37.167501036428)" />   <use xlink:href="#dot" transform="translate(144.266946,-37.389186)" />   <use xlink:href="#dot" transform="translate(149.860412,-37.278166036548)" />   <use xlink:href="#dot" transform="translate(144.049047,-38.025272)" />   <use xlink:href="#dot" transform="translate(145.7315,-37.805500037102)" />   <use xlink:href="#dot" transform="translate(145.7977,-37.841600037139)" />   <use xlink:href="#dot" transform="translate(146.1368,-37.813900037111)" />   <use xlink:href="#dot" transform="translate(146.1043,-37.851900037149)" />   <use xlink:href="#dot" transform="translate(145.6913,-37.808400037105)" />   <use xlink:href="#dot" transform="translate(145.707,-37.789200037086)" />   <use xlink:href="#dot" transform="translate(145.7326,-37.806300037103)" />   <use xlink:href="#dot" transform="translate(146.1081,-37.785800037082)" />   <use xlink:href="#dot" transform="translate(145.8031,-37.841500037139)" />   <use xlink:href="#dot" transform="translate(145.8008,-37.810300037107)" />   <use xlink:href="#dot" transform="translate(146.1112,-37.852000037149)" />   <use xlink:href="#dot" transform="translate(146.1123,-37.814100037111)" />   <use xlink:href="#dot" transform="translate(145.8066,-37.808400037105)" />   <use xlink:href="#dot" transform="translate(145.7174,-37.781700037078)" />   <use xlink:href="#dot" transform="translate(145.8058,-37.808800037105)" />   <use xlink:href="#dot" transform="translate(146.1037,-37.851300037149)" />   <use xlink:href="#dot" transform="translate(146.1132,-37.827200037124)" />   <use xlink:href="#dot" transform="translate(146.1115,-37.828200037125)" />   <use xlink:href="#dot" transform="translate(146.139,-37.808100037105)" />   <use xlink:href="#dot" transform="translate(146.04,-37.81360003711)" />   <use xlink:href="#dot" transform="translate(149.533775,-37.166300036427)" />   <use xlink:href="#dot" transform="translate(146.1307,-37.812300037109)" />   <use xlink:href="#dot" transform="translate(146.0993,-37.829600037127)" />   <use xlink:href="#dot" transform="translate(146.0397,-37.817300037114)" />   <use xlink:href="#dot" transform="translate(146.1195,-37.844600037142)" />   <use xlink:href="#dot" transform="translate(146.1112,-37.827300037124)" />   <use xlink:href="#dot" transform="translate(146.1209,-37.843800037141)" />   <use xlink:href="#dot" transform="translate(144.343,-37.460700036744)" />   <use xlink:href="#dot" transform="translate(146.0391,-37.817800037115)" />   <use xlink:href="#dot" transform="translate(146.0992,-37.828800037126)" />   <use xlink:href="#dot" transform="translate(146.1417,-37.810500037107)" />   <use xlink:href="#dot" transform="translate(146.1322,-37.808700037105)" />   <use xlink:href="#dot" transform="translate(150.072355,-34.504226033144)" />   <use xlink:href="#dot" transform="translate(144.3373,-37.462000036745)" />   <use xlink:href="#dot" transform="translate(145.5808,-37.509300036795)" />   <use xlink:href="#dot" transform="translate(145.5866,-37.529000036816)" />   <use xlink:href="#dot" transform="translate(145.6028,-37.529000036816)" />   <use xlink:href="#dot" transform="translate(145.5624,-37.543700036831)" />   <use xlink:href="#dot" transform="translate(145.5786,-37.50430003679)" />   <use xlink:href="#dot" transform="translate(150.075734,-34.508165033149)" />   <use xlink:href="#dot" transform="translate(145.5622,-37.544600036832)" />   <use xlink:href="#dot" transform="translate(150.075734,-34.508165033149)" />   <use xlink:href="#dot" transform="translate(146.321,-37.8035000371)" />   <use xlink:href="#dot" transform="translate(144.216,-37.390100036669)" />   <use xlink:href="#dot" transform="translate(146.3359,-37.824000037121)" />   <use xlink:href="#dot" transform="translate(146.3253,-37.780800037077)" />   <use xlink:href="#dot" transform="translate(146.1196,-37.822400037119)" />   <use xlink:href="#dot" transform="translate(146.3118,-37.804300037101)" />   <use xlink:href="#dot" transform="translate(145.5112,-37.546600036834)" />   <use xlink:href="#dot" transform="translate(145.5072,-37.516700036803)" />   <use xlink:href="#dot" transform="translate(146.119,-37.821800037119)" />   <use xlink:href="#dot" transform="translate(145.5112,-37.516200036802)" />   <use xlink:href="#dot" transform="translate(146.2968,-37.795400037092)" />   <use xlink:href="#dot" transform="translate(146.1039,-37.807000037104)" />   <use xlink:href="#dot" transform="translate(145.5104,-37.520700036807)" />   <use xlink:href="#dot" transform="translate(146.0648,-37.816200037113)" />   <use xlink:href="#dot" transform="translate(146.2487,-37.747400037043)" />   <use xlink:href="#dot" transform="translate(146.0574,-37.789600037086)" />   <use xlink:href="#dot" transform="translate(146.0728,-37.794900037091)" />   <use xlink:href="#dot" transform="translate(145.5095,-37.510500036796)" />   <use xlink:href="#dot" transform="translate(146.0567,-37.788500037085)" />   <use xlink:href="#dot" transform="translate(146.1318,-37.801100037098)" />   <use xlink:href="#dot" transform="translate(146.1161,-37.786000037082)" />   <use xlink:href="#dot" transform="translate(144.345001,37.213001)" />   <use xlink:href="#dot" transform="translate(146.311,-37.804500037101)" />   <use xlink:href="#dot" transform="translate(146.2414,-37.760300037056)" />   <use xlink:href="#dot" transform="translate(146.3138,-37.781700037078)" />   <use xlink:href="#dot" transform="translate(145.5103,-37.542000036829)" />   <use xlink:href="#dot" transform="translate(145.5127,-37.549000036837)" />   <use xlink:href="#dot" transform="translate(146.3126,-37.77390003707)" />   <use xlink:href="#dot" transform="translate(146.2497,-37.747900037043)" />   <use xlink:href="#dot" transform="translate(145.5128,-37.546200036834)" />   <use xlink:href="#dot" transform="translate(146.2458,-37.745500037041)" />   <use xlink:href="#dot" transform="translate(146.1152,-37.784800037081)" />   <use xlink:href="#dot" transform="translate(146.3354,-37.828000037125)" />   <use xlink:href="#dot" transform="translate(145.5137,-37.548700036837)" />   <use xlink:href="#dot" transform="translate(144.574463,-37.385418)" />   <use xlink:href="#dot" transform="translate(146.3367,-37.824500037121)" />   <use xlink:href="#dot" transform="translate(146.0661,-37.799200037096)" />   <use xlink:href="#dot" transform="translate(146.033,-37.815600037112)" />   <use xlink:href="#dot" transform="translate(145.508,-37.517300036803)" />   <use xlink:href="#dot" transform="translate(150.28294,-33.451910031667)" />   <use xlink:href="#dot" transform="translate(150.28294,-33.451910031667)" />   <use xlink:href="#dot" transform="translate(150.28294,-33.451910031667)" />   <use xlink:href="#dot" transform="translate(150.260458,-33.430165031635)" />   <use xlink:href="#dot" transform="translate(145.496155,-37.835953)" />   <use xlink:href="#dot" transform="translate(150.28294,-33.451910031667)" />   <use xlink:href="#dot" transform="translate(150.231023,-33.448264031662)" />   <use xlink:href="#dot" transform="translate(150.231023,-33.448264031662)" />   <use xlink:href="#dot" transform="translate(144.2405,-37.389200036668)" />   <use xlink:href="#dot" transform="translate(149.93884,-37.430530036712)" />   <use xlink:href="#dot" transform="translate(150.277491,-33.403611031597)" />   <use xlink:href="#dot" transform="translate(144.2429,-37.378200036656)" />   <use xlink:href="#dot" transform="translate(149.836274,-37.176417036438)" />   <use xlink:href="#dot" transform="translate(144.2793,-37.384700036663)" />   <use xlink:href="#dot" transform="translate(145.5191,-37.501500036787)" />   <use xlink:href="#dot" transform="translate(145.9814,-37.883700037181)" />   <use xlink:href="#dot" transform="translate(145.8702,-37.808400037105)" />   <use xlink:href="#dot" transform="translate(145.9812,-37.884100037182)" />   <use xlink:href="#dot" transform="translate(150.28294,-33.451910031667)" />   <use xlink:href="#dot" transform="translate(150.28294,-33.451910031667)" />   <use xlink:href="#dot" transform="translate(146.2689,-37.870500037168)" />   <use xlink:href="#dot" transform="translate(145.7069,-37.595800036886)" />   <use xlink:href="#dot" transform="translate(146.1618,-37.729200037024)" />   <use xlink:href="#dot" transform="translate(150.28294,-33.451910031667)" />   <use xlink:href="#dot" transform="translate(145.9023,-37.342100036617)" />   <use xlink:href="#dot" transform="translate(145.9239,-37.389900036668)" />   <use xlink:href="#dot" transform="translate(146.2548,-37.864100037162)" />   <use xlink:href="#dot" transform="translate(142.381439,-38.19718)" />   <use xlink:href="#dot" transform="translate(146.2998,-37.920700037219)" />   <use xlink:href="#dot" transform="translate(146.3138,-37.769500037065)" />   <use xlink:href="#dot" transform="translate(145.8593,-37.850600037148)" />   <use xlink:href="#dot" transform="translate(145.8033,-37.845100037142)" />   <use xlink:href="#dot" transform="translate(145.815,-37.844000037141)" />   <use xlink:href="#dot" transform="translate(145.8599,-37.850500037148)" />   <use xlink:href="#dot" transform="translate(146.3138,-37.801400037098)" />   <use xlink:href="#dot" transform="translate(146.3385,-37.918900037217)" />   <use xlink:href="#dot" transform="translate(145.8012,-37.838100037135)" />   <use xlink:href="#dot" transform="translate(145.8243,-37.812000037109)" />   <use xlink:href="#dot" transform="translate(145.8078,-37.848800037146)" />   <use xlink:href="#dot" transform="translate(145.852,-37.860400037158)" />   <use xlink:href="#dot" transform="translate(150.290399,-35.394955034321)" />   <use xlink:href="#dot" transform="translate(146.3144,-37.768800037065)" />   <use xlink:href="#dot" transform="translate(145.8245,-37.812700037109)" />   <use xlink:href="#dot" transform="translate(149.921585,-36.77325)" />   <use xlink:href="#dot" transform="translate(150.22076,-33.448701031662)" />   <use xlink:href="#dot" transform="translate(145.2923,-37.65740003695)" />   <use xlink:href="#dot" transform="translate(144.2401,-37.472900036757)" />   <use xlink:href="#dot" transform="translate(145.3019,-37.655300036948)" />   <use xlink:href="#dot" transform="translate(145.2923,-37.652700036945)" />   <use xlink:href="#dot" transform="translate(147.3039,-38.241600037535)" />   <use xlink:href="#dot" transform="translate(147.3043,-38.241700037535)" />   <use xlink:href="#dot" transform="translate(147.3029,-38.240900037534)" />   <use xlink:href="#dot" transform="translate(147.2789,-38.255800037549)" />   <use xlink:href="#dot" transform="translate(144.3455,-37.460000036743)" />   <use xlink:href="#dot" transform="translate(147.3059,-38.240600037534)" />   <use xlink:href="#dot" transform="translate(147.3079,-38.242700037536)" />   <use xlink:href="#dot" transform="translate(147.3136,-38.240000037534)" />   <use xlink:href="#dot" transform="translate(147.3055,-38.241900037535)" />   <use xlink:href="#dot" transform="translate(147.3059,-38.242100037536)" />   <use xlink:href="#dot" transform="translate(150.170247,-33.330348031491)" />   <use xlink:href="#dot" transform="translate(147.3022,-38.241000037535)" />   <use xlink:href="#dot" transform="translate(145.3388,-37.634600036926)" />   <use xlink:href="#dot" transform="translate(150.170247,-33.330348031491)" />   <use xlink:href="#dot" transform="translate(150.176315,-33.351303031521)" />   <use xlink:href="#dot" transform="translate(147.3144,-38.239700037533)" />   <use xlink:href="#dot" transform="translate(145.3381,-37.633700036925)" />   <use xlink:href="#dot" transform="translate(144.2941,-37.494400036779)" />   <use xlink:href="#dot" transform="translate(144.2258,-38.395000037682)" />   <use xlink:href="#dot" transform="translate(145.3516,-37.643100036935)" />   <use xlink:href="#dot" transform="translate(147.2503,-38.237200037531)" />   <use xlink:href="#dot" transform="translate(150.170247,-33.330348031491)" />   <use xlink:href="#dot" transform="translate(145.3028,-37.653200036946)" />   <use xlink:href="#dot" transform="translate(147.2503,-38.23610003753)" />   <use xlink:href="#dot" transform="translate(150.170247,-33.330348031491)" />   <use xlink:href="#dot" transform="translate(148.516872,-36.289785035426)" />   <use xlink:href="#dot" transform="translate(147.3035,-38.239700037533)" />   <use xlink:href="#dot" transform="translate(147.2783,-38.256300037549)" />   <use xlink:href="#dot" transform="translate(147.3065,-38.242300037536)" />   <use xlink:href="#dot" transform="translate(145.3485,-37.612800036904)" />   <use xlink:href="#dot" transform="translate(147.3032,-38.241400037535)" />   <use xlink:href="#dot" transform="translate(147.3051,-38.241800037535)" />   <use xlink:href="#dot" transform="translate(148.459478,-35.998618035075)" />   <use xlink:href="#dot" transform="translate(144.2934,-37.510200036796)" />   <use xlink:href="#dot" transform="translate(149.939829,-37.430165036711)" />   <use xlink:href="#dot" transform="translate(149.876401,-36.941035)" />   <use xlink:href="#dot" transform="translate(144.3057,-37.405500036685)" />   <use xlink:href="#dot" transform="translate(144.2372,-37.81310003711)" />   <use xlink:href="#dot" transform="translate(146.432007,38.344002)" />   <use xlink:href="#dot" transform="translate(149.87756,-36.938702)" />   <use xlink:href="#dot" transform="translate(149.876401,-36.941035)" />   <use xlink:href="#dot" transform="translate(144.2668,-37.388900036667)" />   <use xlink:href="#dot" transform="translate(144.267258,-37.388966)" />   <use xlink:href="#dot" transform="translate(144.26715,-37.389062)" />   <use xlink:href="#dot" transform="translate(144.2331,-37.518000036804)" />   <use xlink:href="#dot" transform="translate(144.2352,-37.458700036742)" />   <use xlink:href="#dot" transform="translate(143.359,-37.4086)" />   <use xlink:href="#dot" transform="translate(144.665336,-37.438627)" />   <use xlink:href="#dot" transform="translate(144.2348,-37.444300036726)" />   <use xlink:href="#dot" transform="translate(144.3092,-37.405000036684)" />   <use xlink:href="#dot" transform="translate(146.3792,-37.855900037153)" />   <use xlink:href="#dot" transform="translate(145.8143,-37.836400037134)" />   <use xlink:href="#dot" transform="translate(144.26715,-37.389062)" />   <use xlink:href="#dot" transform="translate(142.301,-37.339700036615)" />   <use xlink:href="#dot" transform="translate(146.3797,-37.857200037155)" />   <use xlink:href="#dot" transform="translate(144.26683,-37.388954)" />   <use xlink:href="#dot" transform="translate(146.3749,-37.874500037172)" />   <use xlink:href="#dot" transform="translate(145.8008,-37.809200037106)" />   <use xlink:href="#dot" transform="translate(148.6553,-37.238700036506)" />   <use xlink:href="#dot" transform="translate(143.9815,-38.499900037781)" /><polygon class="region" points="142.381439,-38.19718 142.301,-37.339700036615 144.345001,37.213001 146.432007,38.344002 150.28294,-33.451910031667 150.290399,-35.394955034321 149.939829,-37.430165036711 149.746774,-37.572865 147.2783,-38.256300037549 143.9815,-38.499900037781 142.381439,-38.19718 " />
		  </g>
		</svg>