<?xml version="1.0" encoding="UTF-8"?>
	<svg xmlns:xlink="http://www.w3.org/1999/xlink" 
	xmlns="http://www.w3.org/2000/svg" 
	width="360px" height="180px">
	   <style type="text/css">
		  <![CDATA[     
		  .region 
		  { 
			fill:blue; 
			opacity:0.4; 
			stroke:blue;
		  }
		  ]]>
	   </style>

	<circle id="dot" x="-2" y="-2" r="2" style="stroke:none; stroke-width:0; fill:black; opacity:0.7;"/>


	 <image x="0" y="0" width="360" height="180" xlink:href="map.jpg"/>

 
	 <g transform="translate(180,90) scale(1,-1)"><polygon class="region" points="144.41962332,-38.291441667 143.51322937,-38.859481812 142.372817993,-38.350708007 141.723526001,-38.256744385 141.40486145,-38.399204255 140.904385282,-38.052836051 141.099094446,-37.690085653 141.980229035,-37.078869099 145.930330938,-37.104047428 146.326174248,-36.846288994 146.620755315,-35.999368425 148.176511578,-35.032774297 149.128939058,-33.787006652 149.415668158,-33.743541149 149.469408786,-34.805095611 150.328125,-35.63451004 150.138381958,-35.704288483 150.185165405,-35.557037353 150.099441529,-35.697021484 150.234481812,-35.839641571 150.062835693,-35.89938736 150.148574829,-36.26777649 149.877166748,-36.888652802 150.047103881,-37.257373809 149.979766846,-37.504001617 149.681167603,-37.461452484 149.766708374,-37.571994781 149.489990234,-37.773094178 147.651016235,-37.847129822 147.726593018,-37.920032501 147.454208374,-38.084667206 147.93977356,-37.899379731 146.92993164,-38.599048615 146.213623047,-38.696170807 146.297683716,-38.906787873 146.478622437,-38.795539856 146.400756836,-39.138210297 146.164505005,-38.815750122 145.924133301,-38.909999847 145.823577881,-38.647216797 145.375717163,-38.538074494 145.548706055,-38.380722046 145.489593506,-38.238124848 145.255752564,-38.225597382 145.232635498,-38.411113739 144.929397583,-38.498142242 144.653625488,-38.310436249 144.929473877,-38.350299835 145.117507935,-38.151988983 144.930012789,-37.723838238 142.70234221,-37.647894923 142.280434904,-37.816657846 142.297311196,-37.951668184 143.124249516,-38.407328075 144.170579637,-38.171059983 144.41962332,-38.291441667 " />
		  </g>
		</svg>