<?xml version="1.0" encoding="UTF-8"?>
	<svg xmlns:xlink="http://www.w3.org/1999/xlink" 
	xmlns="http://www.w3.org/2000/svg" 
	width="360px" height="180px">
	   <style type="text/css">
		  <![CDATA[     
		  .region 
		  { 
			fill:blue; 
			opacity:0.4; 
			stroke:blue;
		  }
		  ]]>
	   </style>

	<circle id="dot" x="-2" y="-2" r="2" style="stroke:none; stroke-width:0; fill:black; opacity:0.7;"/>


	 <image x="0" y="0" width="360" height="180" xlink:href="map.jpg"/>

 
	 <g transform="translate(180,90) scale(1,-1)">   <use xlink:href="#dot" transform="translate(-109.03394,27.073847)" />   <use xlink:href="#dot" transform="translate(-104.36724318161,23.465586023641)" />   <use xlink:href="#dot" transform="translate(-104.36724318161,23.465586023641)" />   <use xlink:href="#dot" transform="translate(-104.7545675095,23.075684232509)" />   <use xlink:href="#dot" transform="translate(-104.7545675095,23.075684232509)" />   <use xlink:href="#dot" transform="translate(-104.75850063591,23.08316689442)" />   <use xlink:href="#dot" transform="translate(-104.75850063591,23.08316689442)" />   <use xlink:href="#dot" transform="translate(-104.7545675095,23.075684232509)" />   <use xlink:href="#dot" transform="translate(-104.7545675095,23.075684232509)" />   <use xlink:href="#dot" transform="translate(-104.7545675095,23.075684232509)" />   <use xlink:href="#dot" transform="translate(-104.7545675095,23.075684232509)" />   <use xlink:href="#dot" transform="translate(-104.7545675095,23.075684232509)" />   <use xlink:href="#dot" transform="translate(-104.7545675095,23.075684232509)" />   <use xlink:href="#dot" transform="translate(-104.7545675095,23.075684232509)" />   <use xlink:href="#dot" transform="translate(-104.7545675095,23.075684232509)" />   <use xlink:href="#dot" transform="translate(-104.7545675095,23.075684232509)" />   <use xlink:href="#dot" transform="translate(-104.75850063591,23.08316689442)" />   <use xlink:href="#dot" transform="translate(-104.75125043886,23.077267177168)" />   <use xlink:href="#dot" transform="translate(-104.7545675095,23.075684232509)" />   <use xlink:href="#dot" transform="translate(-104.7545675095,23.075684232509)" />   <use xlink:href="#dot" transform="translate(-104.7545675095,23.075684232509)" />   <use xlink:href="#dot" transform="translate(-104.7545675095,23.075684232509)" />   <use xlink:href="#dot" transform="translate(-104.75850063591,23.08316689442)" />   <use xlink:href="#dot" transform="translate(-104.7545675095,23.075684232509)" />   <use xlink:href="#dot" transform="translate(-104.7545675095,23.075684232509)" />   <use xlink:href="#dot" transform="translate(-104.7545675095,23.075684232509)" />   <use xlink:href="#dot" transform="translate(-104.75850063591,23.08316689442)" />   <use xlink:href="#dot" transform="translate(-104.7545675095,23.075684232509)" />   <use xlink:href="#dot" transform="translate(-104.7545675095,23.075684232509)" />   <use xlink:href="#dot" transform="translate(-104.75850063591,23.08316689442)" />   <use xlink:href="#dot" transform="translate(-104.7545675095,23.075684232509)" />   <use xlink:href="#dot" transform="translate(-104.75850063591,23.08316689442)" />   <use xlink:href="#dot" transform="translate(-104.75850063591,23.08316689442)" />   <use xlink:href="#dot" transform="translate(-104.7545675095,23.075684232509)" />   <use xlink:href="#dot" transform="translate(-104.7545675095,23.075684232509)" />   <use xlink:href="#dot" transform="translate(-104.7545675095,23.075684232509)" />   <use xlink:href="#dot" transform="translate(-100.01501,16.97222)" />   <use xlink:href="#dot" transform="translate(-104.54424595148,23.15959843683)" />   <use xlink:href="#dot" transform="translate(-104.54424595148,23.15959843683)" />   <use xlink:href="#dot" transform="translate(-104.54424595148,23.15959843683)" />   <use xlink:href="#dot" transform="translate(-104.54424595148,23.15959843683)" />   <use xlink:href="#dot" transform="translate(-104.54424595148,23.15959843683)" />   <use xlink:href="#dot" transform="translate(-104.54424595148,23.15959843683)" />   <use xlink:href="#dot" transform="translate(-104.54424595148,23.15959843683)" />   <use xlink:href="#dot" transform="translate(-104.54424595148,23.15959843683)" />   <use xlink:href="#dot" transform="translate(-104.54424595148,23.15959843683)" />   <use xlink:href="#dot" transform="translate(-104.54424595148,23.15959843683)" />   <use xlink:href="#dot" transform="translate(-104.54424595148,23.15959843683)" />   <use xlink:href="#dot" transform="translate(-104.54424595148,23.15959843683)" />   <use xlink:href="#dot" transform="translate(-104.54424595148,23.15959843683)" />   <use xlink:href="#dot" transform="translate(-104.54424595148,23.15959843683)" />   <use xlink:href="#dot" transform="translate(-104.54424595148,23.15959843683)" />   <use xlink:href="#dot" transform="translate(-104.54424595148,23.15959843683)" />   <use xlink:href="#dot" transform="translate(-104.54424595148,23.15959843683)" />   <use xlink:href="#dot" transform="translate(-104.54424595148,23.15959843683)" />   <use xlink:href="#dot" transform="translate(-104.54424595148,23.15959843683)" />   <use xlink:href="#dot" transform="translate(-104.54424595148,23.15959843683)" />   <use xlink:href="#dot" transform="translate(-104.54424595148,23.15959843683)" />   <use xlink:href="#dot" transform="translate(-104.54424595148,23.15959843683)" />   <use xlink:href="#dot" transform="translate(-104.54424595148,23.15959843683)" />   <use xlink:href="#dot" transform="translate(-104.54424595148,23.15959843683)" />   <use xlink:href="#dot" transform="translate(-104.54424595148,23.15959843683)" />   <use xlink:href="#dot" transform="translate(-104.54424595148,23.15959843683)" />   <use xlink:href="#dot" transform="translate(-104.54424595148,23.15959843683)" />   <use xlink:href="#dot" transform="translate(-104.54424595148,23.15959843683)" />   <use xlink:href="#dot" transform="translate(-104.54424595148,23.15959843683)" />   <use xlink:href="#dot" transform="translate(-104.54424595148,23.15959843683)" />   <use xlink:href="#dot" transform="translate(-104.54424595148,23.15959843683)" />   <use xlink:href="#dot" transform="translate(-104.54424595148,23.15959843683)" />   <use xlink:href="#dot" transform="translate(-104.90925198531,22.600771257408)" />   <use xlink:href="#dot" transform="translate(-104.2977425267,23.679910189388)" />   <use xlink:href="#dot" transform="translate(-104.2977425267,23.679910189388)" />   <use xlink:href="#dot" transform="translate(-104.2977425267,23.679910189388)" />   <use xlink:href="#dot" transform="translate(-105.979667,24.2905)" />   <use xlink:href="#dot" transform="translate(-102.004183,24.065667)" />   <use xlink:href="#dot" transform="translate(-100.162222,18.191667)" />   <use xlink:href="#dot" transform="translate(-100.162222,18.191667)" />   <use xlink:href="#dot" transform="translate(-104.367,23.465167)" />   <use xlink:href="#dot" transform="translate(-107.698333,27.070167)" />   <use xlink:href="#dot" transform="translate(-102.073611,19.428556)" />   <use xlink:href="#dot" transform="translate(-104.367,23.465167)" />   <use xlink:href="#dot" transform="translate(-104.367,23.465167)" />   <use xlink:href="#dot" transform="translate(-104.367,23.465167)" />   <use xlink:href="#dot" transform="translate(-104.367,23.465167)" />   <use xlink:href="#dot" transform="translate(-107.679167,26.6985)" />   <use xlink:href="#dot" transform="translate(-107.681,26.661667)" />   <use xlink:href="#dot" transform="translate(-107.681,26.661667)" />   <use xlink:href="#dot" transform="translate(-107.679167,26.6985)" />   <use xlink:href="#dot" transform="translate(-107.725717,27.035933)" />   <use xlink:href="#dot" transform="translate(-107.681,26.661667)" />   <use xlink:href="#dot" transform="translate(-107.681,26.661667)" />   <use xlink:href="#dot" transform="translate(-107.681,26.661667)" />   <use xlink:href="#dot" transform="translate(-107.658167,26.681833)" />   <use xlink:href="#dot" transform="translate(-107.681,26.661667)" />   <use xlink:href="#dot" transform="translate(-107.725717,27.035933)" />   <use xlink:href="#dot" transform="translate(-107.68133759288,26.66194196953)" />   <use xlink:href="#dot" transform="translate(-107.725717,27.035933)" />   <use xlink:href="#dot" transform="translate(-102.093611,19.427972)" />   <use xlink:href="#dot" transform="translate(-107.681,26.661667)" />   <use xlink:href="#dot" transform="translate(-104.36757619861,23.467585937108)" />   <use xlink:href="#dot" transform="translate(-104.367333,23.467167)" />   <use xlink:href="#dot" transform="translate(-104.367333,23.467167)" />   <use xlink:href="#dot" transform="translate(-104.367333,23.467167)" />   <use xlink:href="#dot" transform="translate(-104.367333,23.467167)" />   <use xlink:href="#dot" transform="translate(-104.367333,23.467167)" />   <use xlink:href="#dot" transform="translate(-104.367333,23.467167)" />   <use xlink:href="#dot" transform="translate(-104.367333,23.467167)" />   <use xlink:href="#dot" transform="translate(-104.367333,23.467167)" />   <use xlink:href="#dot" transform="translate(-104.36757619861,23.467585937108)" />   <use xlink:href="#dot" transform="translate(-104.36757619861,23.467585937108)" />   <use xlink:href="#dot" transform="translate(-104.367333,23.467167)" />   <use xlink:href="#dot" transform="translate(-104.367333,23.467167)" />   <use xlink:href="#dot" transform="translate(-104.367333,23.467167)" />   <use xlink:href="#dot" transform="translate(-104.367333,23.467167)" />   <use xlink:href="#dot" transform="translate(-104.367333,23.467167)" />   <use xlink:href="#dot" transform="translate(-104.367333,23.467167)" />   <use xlink:href="#dot" transform="translate(-104.367333,23.467167)" />   <use xlink:href="#dot" transform="translate(-104.367333,23.467167)" />   <use xlink:href="#dot" transform="translate(-104.367333,23.467167)" />   <use xlink:href="#dot" transform="translate(-104.367333,23.467167)" />   <use xlink:href="#dot" transform="translate(-104.367333,23.467167)" />   <use xlink:href="#dot" transform="translate(-104.367333,23.467167)" />   <use xlink:href="#dot" transform="translate(-104.36757619861,23.467585937108)" />   <use xlink:href="#dot" transform="translate(-104.367333,23.467167)" />   <use xlink:href="#dot" transform="translate(-104.367333,23.467167)" />   <use xlink:href="#dot" transform="translate(-104.36724318161,23.465586023641)" />   <use xlink:href="#dot" transform="translate(-104.367,23.465167)" />   <use xlink:href="#dot" transform="translate(-104.367,23.465167)" />   <use xlink:href="#dot" transform="translate(-106.414,24.929167)" />   <use xlink:href="#dot" transform="translate(-106.414,24.929167)" />   <use xlink:href="#dot" transform="translate(-106.411472,24.927167)" />   <use xlink:href="#dot" transform="translate(-106.411472,24.927167)" />   <use xlink:href="#dot" transform="translate(-106.411472,24.927167)" />   <use xlink:href="#dot" transform="translate(-106.411472,24.927167)" />   <use xlink:href="#dot" transform="translate(-106.411472,24.927167)" />   <use xlink:href="#dot" transform="translate(-106.411472,24.927167)" />   <use xlink:href="#dot" transform="translate(-106.411472,24.927167)" />   <use xlink:href="#dot" transform="translate(-106.411472,24.927167)" />   <use xlink:href="#dot" transform="translate(-106.411472,24.927167)" />   <use xlink:href="#dot" transform="translate(-106.411472,24.927167)" />   <use xlink:href="#dot" transform="translate(-99.85,17.827778)" />   <use xlink:href="#dot" transform="translate(-99.85,17.827778)" />   <use xlink:href="#dot" transform="translate(-106.411472,24.927167)" />   <use xlink:href="#dot" transform="translate(-106.411472,24.927167)" />   <use xlink:href="#dot" transform="translate(-106.411472,24.927167)" />   <use xlink:href="#dot" transform="translate(-106.411472,24.927167)" />   <use xlink:href="#dot" transform="translate(-106.411472,24.927167)" />   <use xlink:href="#dot" transform="translate(-106.411472,24.927167)" />   <use xlink:href="#dot" transform="translate(-106.411472,24.927167)" />   <use xlink:href="#dot" transform="translate(-106.411472,24.927167)" />   <use xlink:href="#dot" transform="translate(-106.411472,24.927167)" />   <use xlink:href="#dot" transform="translate(-106.411472,24.927167)" />   <use xlink:href="#dot" transform="translate(-106.411472,24.927167)" />   <use xlink:href="#dot" transform="translate(-101.87,19.163889)" />   <use xlink:href="#dot" transform="translate(-101.894722,19.230556)" />   <use xlink:href="#dot" transform="translate(-99.85,17.827778)" />   <use xlink:href="#dot" transform="translate(-99.85,17.827778)" />   <use xlink:href="#dot" transform="translate(-99.85,17.827778)" />   <use xlink:href="#dot" transform="translate(-99.85,17.827778)" />   <use xlink:href="#dot" transform="translate(-109.00037073028,27.030254628712)" />   <use xlink:href="#dot" transform="translate(-104.169037,22.628099)" />   <use xlink:href="#dot" transform="translate(-104.169037,22.628099)" />   <use xlink:href="#dot" transform="translate(-104.050833,22.680556)" />   <use xlink:href="#dot" transform="translate(-104.050833,22.680556)" />   <use xlink:href="#dot" transform="translate(-104.050833,22.680556)" />   <use xlink:href="#dot" transform="translate(-104.050833,22.680556)" />   <use xlink:href="#dot" transform="translate(-104.050833,22.680556)" />   <use xlink:href="#dot" transform="translate(-104.050833,22.680556)" />   <use xlink:href="#dot" transform="translate(-104.050833,22.680556)" />   <use xlink:href="#dot" transform="translate(-104.050833,22.680556)" />   <use xlink:href="#dot" transform="translate(-104.169037,22.628099)" />   <use xlink:href="#dot" transform="translate(-104.050833,22.680556)" />   <use xlink:href="#dot" transform="translate(-104.050833,22.680556)" />   <use xlink:href="#dot" transform="translate(-104.169037,22.628099)" />   <use xlink:href="#dot" transform="translate(-98.707312206662,18.440943907144)" />   <use xlink:href="#dot" transform="translate(-98.707312206662,18.440943907144)" />   <use xlink:href="#dot" transform="translate(-98.707312206662,18.440943907144)" />   <use xlink:href="#dot" transform="translate(-99.522778,17.142778)" />   <use xlink:href="#dot" transform="translate(-99.522778,17.142778)" />   <use xlink:href="#dot" transform="translate(-99.522778,17.142778)" />   <use xlink:href="#dot" transform="translate(-99.522778,17.142778)" />   <use xlink:href="#dot" transform="translate(-99.522778,17.142778)" />   <use xlink:href="#dot" transform="translate(-102.668889,21.845278)" />   <use xlink:href="#dot" transform="translate(-102.668889,21.845278)" />   <use xlink:href="#dot" transform="translate(-100.263333,19.267778)" />   <use xlink:href="#dot" transform="translate(-100.263333,19.267778)" />   <use xlink:href="#dot" transform="translate(-100.263333,19.267778)" />   <use xlink:href="#dot" transform="translate(-100.263333,19.267778)" />   <use xlink:href="#dot" transform="translate(-99.504444,18.948056)" />   <use xlink:href="#dot" transform="translate(-99.805278,18.366944)" />   <use xlink:href="#dot" transform="translate(-99.805278,18.366944)" />   <use xlink:href="#dot" transform="translate(-100.273889,18.366944)" />   <use xlink:href="#dot" transform="translate(-100.273889,18.366944)" />   <use xlink:href="#dot" transform="translate(-100.273889,18.366944)" />   <use xlink:href="#dot" transform="translate(-99.757222,18.363889)" />   <use xlink:href="#dot" transform="translate(-100.263333,19.267778)" />   <use xlink:href="#dot" transform="translate(-100.263333,19.267778)" />   <use xlink:href="#dot" transform="translate(-100.263333,19.267778)" />   <use xlink:href="#dot" transform="translate(-100.263333,19.267778)" />   <use xlink:href="#dot" transform="translate(-106.467222,23.234722)" />   <use xlink:href="#dot" transform="translate(-106.467222,23.234722)" />   <use xlink:href="#dot" transform="translate(-106.467222,23.234722)" />   <use xlink:href="#dot" transform="translate(-106.467222,23.234722)" />   <use xlink:href="#dot" transform="translate(-106.467222,23.234722)" />   <use xlink:href="#dot" transform="translate(-106.467222,23.234722)" />   <use xlink:href="#dot" transform="translate(-111.06801521234,28.027210813326)" />   <use xlink:href="#dot" transform="translate(-111.06801521234,28.027210813326)" />   <use xlink:href="#dot" transform="translate(-111.04574034321,27.973436922241)" />   <use xlink:href="#dot" transform="translate(-111.04574034321,27.973436922241)" />   <use xlink:href="#dot" transform="translate(-99.838333,16.827778)" />   <use xlink:href="#dot" transform="translate(-99.824167,16.833056)" />   <use xlink:href="#dot" transform="translate(-99.838333,16.827778)" />   <use xlink:href="#dot" transform="translate(-100.307778,18.438056)" />   <use xlink:href="#dot" transform="translate(-100.265556,19.072778)" />   <use xlink:href="#dot" transform="translate(-100.265556,19.072778)" />   <use xlink:href="#dot" transform="translate(-101.920286,18.84045)" />   <use xlink:href="#dot" transform="translate(-101.920286,18.84045)" />   <use xlink:href="#dot" transform="translate(-101.920286,18.84045)" />   <use xlink:href="#dot" transform="translate(-101.920286,18.84045)" />   <use xlink:href="#dot" transform="translate(-101.920286,18.84045)" />   <use xlink:href="#dot" transform="translate(-101.920286,18.84045)" />   <use xlink:href="#dot" transform="translate(-101.920286,18.84045)" />   <use xlink:href="#dot" transform="translate(-101.920286,18.84045)" />   <use xlink:href="#dot" transform="translate(-100.307778,18.438056)" />   <use xlink:href="#dot" transform="translate(-99.063056,18.863333)" />   <use xlink:href="#dot" transform="translate(-99.824167,16.833056)" />   <use xlink:href="#dot" transform="translate(-99.333305,16.794444)" />   <use xlink:href="#dot" transform="translate(-101.10685,18.510975)" />   <use xlink:href="#dot" transform="translate(-101.920286,18.84045)" />   <use xlink:href="#dot" transform="translate(-101.438281,19.190014)" />   <use xlink:href="#dot" transform="translate(-101.920286,18.84045)" />   <use xlink:href="#dot" transform="translate(-101.920286,18.84045)" />   <use xlink:href="#dot" transform="translate(-101.10685,18.510975)" />   <use xlink:href="#dot" transform="translate(-101.920286,18.84045)" />   <use xlink:href="#dot" transform="translate(-101.920286,18.84045)" />   <use xlink:href="#dot" transform="translate(-100.924847,18.6527)" />   <use xlink:href="#dot" transform="translate(-101.920286,18.84045)" />   <use xlink:href="#dot" transform="translate(-101.438281,19.190014)" />   <use xlink:href="#dot" transform="translate(-101.920286,18.84045)" />   <use xlink:href="#dot" transform="translate(-101.920286,18.84045)" />   <use xlink:href="#dot" transform="translate(-101.920286,18.84045)" />   <use xlink:href="#dot" transform="translate(-100.924847,18.6527)" />   <use xlink:href="#dot" transform="translate(-101.920286,18.84045)" />   <use xlink:href="#dot" transform="translate(-101.10685,18.510975)" />   <use xlink:href="#dot" transform="translate(-102.909611,19.070722)" />   <use xlink:href="#dot" transform="translate(-102.909611,19.070722)" />   <use xlink:href="#dot" transform="translate(-102.909611,19.070722)" />   <use xlink:href="#dot" transform="translate(-102.909611,19.070722)" />   <use xlink:href="#dot" transform="translate(-99.856389,19.806944)" />   <use xlink:href="#dot" transform="translate(-99.849167,16.815)" />   <use xlink:href="#dot" transform="translate(-99.804722,16.827222)" />   <use xlink:href="#dot" transform="translate(-99.804722,16.827222)" />   <use xlink:href="#dot" transform="translate(-99.849167,16.815)" />   <use xlink:href="#dot" transform="translate(-99.849167,16.815)" />   <use xlink:href="#dot" transform="translate(-99.632778,18.786667)" />   <use xlink:href="#dot" transform="translate(-99.632778,18.786667)" />   <use xlink:href="#dot" transform="translate(-99.632778,18.786667)" />   <use xlink:href="#dot" transform="translate(-99.632778,18.786667)" />   <use xlink:href="#dot" transform="translate(-99.632778,18.786667)" />   <use xlink:href="#dot" transform="translate(-99.632778,18.786667)" />   <use xlink:href="#dot" transform="translate(-99.632778,18.786667)" />   <use xlink:href="#dot" transform="translate(-99.179444,18.741111)" />   <use xlink:href="#dot" transform="translate(-99.632709,18.746021)" />   <use xlink:href="#dot" transform="translate(-99.179444,18.741111)" />   <use xlink:href="#dot" transform="translate(-99.179444,18.741111)" />   <use xlink:href="#dot" transform="translate(-96.941667,17.775)" />   <use xlink:href="#dot" transform="translate(-111.09358945145,27.972906695619)" />   <use xlink:href="#dot" transform="translate(-111.09358945145,27.972906695619)" />   <use xlink:href="#dot" transform="translate(-111.09358945145,27.972906695619)" />   <use xlink:href="#dot" transform="translate(-111.06801521234,28.027210813326)" />   <use xlink:href="#dot" transform="translate(-111.09358945145,27.972906695619)" />   <use xlink:href="#dot" transform="translate(-111.09358945145,27.972906695619)" />   <use xlink:href="#dot" transform="translate(-111.09358945145,27.972906695619)" />   <use xlink:href="#dot" transform="translate(-111.09358945145,27.972906695619)" />   <use xlink:href="#dot" transform="translate(-111.09358945145,27.972906695619)" />   <use xlink:href="#dot" transform="translate(-111.09358945145,27.972906695619)" />   <use xlink:href="#dot" transform="translate(-111.09358945145,27.972906695619)" />   <use xlink:href="#dot" transform="translate(-111.09358945145,27.972906695619)" />   <use xlink:href="#dot" transform="translate(-111.06801521234,28.027210813326)" />   <use xlink:href="#dot" transform="translate(-111.06801521234,28.027210813326)" />   <use xlink:href="#dot" transform="translate(-111.06801521234,28.027210813326)" />   <use xlink:href="#dot" transform="translate(-99.626111,18.741667)" />   <use xlink:href="#dot" transform="translate(-99.626111,18.741667)" />   <use xlink:href="#dot" transform="translate(-99.626114,18.741667)" />   <use xlink:href="#dot" transform="translate(-99.626114,18.741667)" />   <use xlink:href="#dot" transform="translate(-99.626111,18.741667)" />   <use xlink:href="#dot" transform="translate(-99.626111,18.741667)" />   <use xlink:href="#dot" transform="translate(-98.608421245148,18.552327901203)" />   <use xlink:href="#dot" transform="translate(-111.0747240012,27.971070860928)" />   <use xlink:href="#dot" transform="translate(-103.511389,18.459167)" />   <use xlink:href="#dot" transform="translate(-98.694533834712,18.419555965642)" />   <use xlink:href="#dot" transform="translate(-98.694533834712,18.419555965642)" />   <use xlink:href="#dot" transform="translate(-99.543611,17.705)" />   <use xlink:href="#dot" transform="translate(-99.601944,17.940556)" />   <use xlink:href="#dot" transform="translate(-99.543611,17.705)" />   <use xlink:href="#dot" transform="translate(-108.88467151533,26.945381433495)" />   <use xlink:href="#dot" transform="translate(-110.95173979765,28.07144877504)" />   <use xlink:href="#dot" transform="translate(-99.804722,16.827222)" />   <use xlink:href="#dot" transform="translate(-100.978611,18.4825)" />   <use xlink:href="#dot" transform="translate(-99.136667,18.814167)" /><polygon class="region" points="-103.511389,18.459167 -111.09358945145,27.972906695619 -111.06801521234,28.027210813326 -110.95173979765,28.07144877504 -107.698333,27.070167 -102.004183,24.065667 -96.941667,17.775 -99.333305,16.794444 -99.849167,16.815 -103.511389,18.459167 " />
		  </g>
		</svg>