<?xml version="1.0" encoding="UTF-8"?>
	<svg xmlns:xlink="http://www.w3.org/1999/xlink" 
	xmlns="http://www.w3.org/2000/svg" 
	width="360px" height="180px">
	   <style type="text/css">
		  <![CDATA[     
		  .region 
		  { 
			fill:blue; 
			opacity:0.4; 
			stroke:blue;
		  }
		  ]]>
	   </style>

	<circle id="dot" x="-2" y="-2" r="2" style="stroke:none; stroke-width:0; fill:black; opacity:0.7;"/>


	 <image x="0" y="0" width="360" height="180" xlink:href="map.jpg"/>

 
	 <g transform="translate(180,90) scale(1,-1)"><polygon class="region" points="-108.4982,25.287035593 -108.7706,25.381635592 -108.6973,25.527335593 -108.7754,25.441135592 -108.8633,25.577235592 -108.9064,25.562535593 -108.9217,25.460635593 -109.0839,25.520235593 -108.9798,25.539035592 -108.8284,25.800435593 -109.1121,25.583735592 -109.4389,25.792435593 -109.2612,26.301235592 -109.2856,26.155735593 -109.2151,26.341335593 -109.0823,26.283835593 -109.5178,26.767135593 -109.6943,26.679235593 -109.8621,26.836835593 -110.1018,27.977435592 -109.9976,28.658035593 -109.6536,28.672335593 -107.7193,27.243735593 -107.4473,26.827235593 -107.1674,26.756635593 -106.923,25.134835592 -105.9193,24.067235592 -104.9113,22.568435593 -103.7188,19.673835593 -103.3127,19.491435592 -103.1097,19.557735593 -103.016,19.956035592 -102.8442,20.005835593 -102.6412,19.359035593 -102.2976,19.044835593 -101.4074,18.879635592 -100.6421,18.483935593 -99.3903,18.585235593 -98.987,18.361835592 -99.345,16.652035593 -101.0487,17.269035593 -101.9502,17.979635593 -102.181,17.924035593 -103.4502,18.315735592 -104.0047,18.898535593 -104.9927,19.347135593 -105.675,20.373835592 -105.2444,20.576335593 -105.323,20.769935592 -105.5412,20.787535592 -105.2436,21.062535592 -105.1811,21.452435592 -105.6544,21.989935593 -105.7208,22.526535592 -106.9194,23.871035593 -107.7961,24.496035592 -107.4977,24.342135593 -107.5253,24.522435592 -107.9925,24.647435593 -108.0584,25.089035593 -108.4982,25.287035593 " /><polygon class="region" points="-108.0786,24.905435593 -108.0574,24.839135592 -108.1362,25.049835592 -108.0596,24.994035592 -108.0466,24.840435593 -108.0786,24.905435593 " /><polygon class="region" points="-108.1005,24.828535593 -108.148,24.924635593 -108.3217,25.110835593 -108.1293,24.921135593 -108.1005,24.828535593 " /><polygon class="region" points="-108.3547,25.209135593 -108.3095,25.186635592 -108.2986,25.158835592 -108.3589,25.171535592 -108.3547,25.209135593 " /><polygon class="region" points="-108.8883,25.527435593 -108.8814,25.517835593 -108.884,25.513635592 -108.8897,25.516835592 -108.8883,25.527435593 " /><polygon class="region" points="-108.3041,25.114635593 -108.2938,25.119335593 -108.2898,25.114535593 -108.302,25.111135592 -108.3041,25.114635593 " /><polygon class="region" points="-108.1042,24.861235592 -108.0989,24.866535593 -108.0999,24.849235592 -108.1042,24.861235592 " /><polygon class="region" points="-108.0573,24.969035593 -108.0527,24.971035592 -108.0523,24.965135593 -108.056,24.965535592 -108.0573,24.969035593 " /><polygon class="region" points="-108.0079,24.981935593 -108.001,24.975835592 -108.0037,24.973135593 -108.0079,24.981935593 " />
		  </g>
		</svg>