<?xml version="1.0" encoding="UTF-8"?>
	<svg xmlns:xlink="http://www.w3.org/1999/xlink" 
	xmlns="http://www.w3.org/2000/svg" 
	width="360px" height="180px">
	   <style type="text/css">
		  <![CDATA[     
		  .region 
		  { 
			fill:blue; 
			opacity:0.4; 
			stroke:blue;
		  }
		  ]]>
	   </style>

	<circle id="dot" x="-2" y="-2" r="2" style="stroke:none; stroke-width:0; fill:black; opacity:0.7;"/>


	 <image x="0" y="0" width="360" height="180" xlink:href="map.jpg"/>

 
	 <g transform="translate(180,90) scale(1,-1)">   <use xlink:href="#dot" transform="translate(39.900242,6.883503)" />   <use xlink:href="#dot" transform="translate(39.862003,6.856213)" />   <use xlink:href="#dot" transform="translate(38.652649,7.520427)" />   <use xlink:href="#dot" transform="translate(38.20027,13.17393)" />   <use xlink:href="#dot" transform="translate(38.19,13.26)" />   <use xlink:href="#dot" transform="translate(38.19,13.26)" />   <use xlink:href="#dot" transform="translate(38.20027,13.17393)" />   <use xlink:href="#dot" transform="translate(38.19,13.26)" />   <use xlink:href="#dot" transform="translate(38.20027,13.17393)" />   <use xlink:href="#dot" transform="translate(38.19,13.26)" />   <use xlink:href="#dot" transform="translate(38.19,13.26)" />   <use xlink:href="#dot" transform="translate(38.19,13.26)" />   <use xlink:href="#dot" transform="translate(38.19,13.26)" />   <use xlink:href="#dot" transform="translate(38.20027,13.17393)" />   <use xlink:href="#dot" transform="translate(38.20027,13.17393)" />   <use xlink:href="#dot" transform="translate(38.20027,13.17393)" />   <use xlink:href="#dot" transform="translate(38.20027,13.17393)" />   <use xlink:href="#dot" transform="translate(38.20027,13.17393)" />   <use xlink:href="#dot" transform="translate(38.19,13.26)" />   <use xlink:href="#dot" transform="translate(38.19,13.26)" />   <use xlink:href="#dot" transform="translate(38.19,13.26)" />   <use xlink:href="#dot" transform="translate(38.20027,13.17393)" />   <use xlink:href="#dot" transform="translate(38.20027,13.17393)" />   <use xlink:href="#dot" transform="translate(38.19,13.26)" />   <use xlink:href="#dot" transform="translate(38.19,13.26)" />   <use xlink:href="#dot" transform="translate(38.20027,13.17393)" />   <use xlink:href="#dot" transform="translate(38.20027,13.17393)" />   <use xlink:href="#dot" transform="translate(38.20027,13.17393)" />   <use xlink:href="#dot" transform="translate(38.20027,13.17393)" />   <use xlink:href="#dot" transform="translate(38.20027,13.17393)" />   <use xlink:href="#dot" transform="translate(38.20027,13.17393)" />   <use xlink:href="#dot" transform="translate(38.19,13.26)" />   <use xlink:href="#dot" transform="translate(38.19,13.26)" />   <use xlink:href="#dot" transform="translate(38.19,13.26)" />   <use xlink:href="#dot" transform="translate(38.19,13.26)" />   <use xlink:href="#dot" transform="translate(38.19,13.26)" />   <use xlink:href="#dot" transform="translate(38.19,13.26)" />   <use xlink:href="#dot" transform="translate(38.20027,13.17393)" />   <use xlink:href="#dot" transform="translate(38.19,13.26)" />   <use xlink:href="#dot" transform="translate(38.19,13.26)" />   <use xlink:href="#dot" transform="translate(38.19,13.26)" />   <use xlink:href="#dot" transform="translate(38.20027,13.17393)" />   <use xlink:href="#dot" transform="translate(38.19,13.26)" />   <use xlink:href="#dot" transform="translate(38.20027,13.17393)" />   <use xlink:href="#dot" transform="translate(38.20027,13.17393)" />   <use xlink:href="#dot" transform="translate(38.20027,13.17393)" />   <use xlink:href="#dot" transform="translate(38.19,13.26)" />   <use xlink:href="#dot" transform="translate(38.19,13.26)" />   <use xlink:href="#dot" transform="translate(38.19,13.26)" />   <use xlink:href="#dot" transform="translate(38.20027,13.17393)" />   <use xlink:href="#dot" transform="translate(38.20027,13.17393)" />   <use xlink:href="#dot" transform="translate(38.19,13.26)" />   <use xlink:href="#dot" transform="translate(38.19,13.26)" />   <use xlink:href="#dot" transform="translate(38.19,13.26)" />   <use xlink:href="#dot" transform="translate(38.20027,13.17393)" />   <use xlink:href="#dot" transform="translate(38.19,13.26)" />   <use xlink:href="#dot" transform="translate(38.19,13.26)" />   <use xlink:href="#dot" transform="translate(38.19,13.26)" />   <use xlink:href="#dot" transform="translate(38.20027,13.17393)" />   <use xlink:href="#dot" transform="translate(38.19,13.26)" />   <use xlink:href="#dot" transform="translate(38.20027,13.17393)" />   <use xlink:href="#dot" transform="translate(38.20027,13.17393)" />   <use xlink:href="#dot" transform="translate(38.20027,13.17393)" />   <use xlink:href="#dot" transform="translate(38.20027,13.17393)" />   <use xlink:href="#dot" transform="translate(38.20027,13.17393)" />   <use xlink:href="#dot" transform="translate(38.20027,13.17393)" />   <use xlink:href="#dot" transform="translate(38.20027,13.17393)" />   <use xlink:href="#dot" transform="translate(38.20027,13.17393)" />   <use xlink:href="#dot" transform="translate(38.20027,13.17393)" />   <use xlink:href="#dot" transform="translate(38.20027,13.17393)" />   <use xlink:href="#dot" transform="translate(38.20027,13.17393)" />   <use xlink:href="#dot" transform="translate(38.20027,13.17393)" />   <use xlink:href="#dot" transform="translate(38.20027,13.17393)" />   <use xlink:href="#dot" transform="translate(38.20027,13.17393)" />   <use xlink:href="#dot" transform="translate(38.20027,13.17393)" />   <use xlink:href="#dot" transform="translate(38.20027,13.17393)" />   <use xlink:href="#dot" transform="translate(38.20027,13.17393)" />   <use xlink:href="#dot" transform="translate(38.20027,13.17393)" />   <use xlink:href="#dot" transform="translate(38.20027,13.17393)" />   <use xlink:href="#dot" transform="translate(38.20027,13.17393)" />   <use xlink:href="#dot" transform="translate(38.20027,13.17393)" />   <use xlink:href="#dot" transform="translate(38.20027,13.17393)" />   <use xlink:href="#dot" transform="translate(38.20027,13.17393)" />   <use xlink:href="#dot" transform="translate(38.20027,13.17393)" />   <use xlink:href="#dot" transform="translate(38.20027,13.17393)" />   <use xlink:href="#dot" transform="translate(38.20027,13.17393)" />   <use xlink:href="#dot" transform="translate(38.20027,13.17393)" />   <use xlink:href="#dot" transform="translate(38.20027,13.17393)" />   <use xlink:href="#dot" transform="translate(38.52,9.05)" />   <use xlink:href="#dot" transform="translate(36.77,7.62)" />   <use xlink:href="#dot" transform="translate(36.77,7.62)" />   <use xlink:href="#dot" transform="translate(36.77,7.62)" />   <use xlink:href="#dot" transform="translate(36.77,7.62)" />   <use xlink:href="#dot" transform="translate(36.77,7.62)" />   <use xlink:href="#dot" transform="translate(36.77,7.62)" />   <use xlink:href="#dot" transform="translate(36.77,7.62)" />   <use xlink:href="#dot" transform="translate(36.77,7.62)" />   <use xlink:href="#dot" transform="translate(36.77,7.62)" />   <use xlink:href="#dot" transform="translate(36.8,7.65)" />   <use xlink:href="#dot" transform="translate(36.77,7.62)" />   <use xlink:href="#dot" transform="translate(36.77,7.62)" />   <use xlink:href="#dot" transform="translate(36.77,7.62)" />   <use xlink:href="#dot" transform="translate(36.77,7.62)" />   <use xlink:href="#dot" transform="translate(36.77,7.62)" />   <use xlink:href="#dot" transform="translate(36.77,7.62)" />   <use xlink:href="#dot" transform="translate(36.77,7.62)" />   <use xlink:href="#dot" transform="translate(36.77,7.62)" />   <use xlink:href="#dot" transform="translate(36.77,7.62)" />   <use xlink:href="#dot" transform="translate(36.8,7.65)" />   <use xlink:href="#dot" transform="translate(36.77,7.62)" />   <use xlink:href="#dot" transform="translate(36.77,7.62)" />   <use xlink:href="#dot" transform="translate(36.77,7.62)" />   <use xlink:href="#dot" transform="translate(36.8,7.65)" />   <use xlink:href="#dot" transform="translate(36.77,7.62)" />   <use xlink:href="#dot" transform="translate(36.77,7.62)" />   <use xlink:href="#dot" transform="translate(36.8,7.65)" />   <use xlink:href="#dot" transform="translate(36.77,7.62)" />   <use xlink:href="#dot" transform="translate(36.77,7.62)" />   <use xlink:href="#dot" transform="translate(36.8,7.65)" />   <use xlink:href="#dot" transform="translate(36.77,7.62)" />   <use xlink:href="#dot" transform="translate(36.77,7.62)" />   <use xlink:href="#dot" transform="translate(36.8,7.65)" />   <use xlink:href="#dot" transform="translate(36.77,7.62)" />   <use xlink:href="#dot" transform="translate(36.77,7.62)" />   <use xlink:href="#dot" transform="translate(36.8,7.65)" />   <use xlink:href="#dot" transform="translate(36.77,7.62)" />   <use xlink:href="#dot" transform="translate(36.77,7.62)" />   <use xlink:href="#dot" transform="translate(36.8,7.65)" />   <use xlink:href="#dot" transform="translate(36.77,7.62)" />   <use xlink:href="#dot" transform="translate(36.77,7.62)" />   <use xlink:href="#dot" transform="translate(36.77,7.62)" />   <use xlink:href="#dot" transform="translate(36.77,7.62)" />   <use xlink:href="#dot" transform="translate(36.77,7.62)" />   <use xlink:href="#dot" transform="translate(36.77,7.62)" />   <use xlink:href="#dot" transform="translate(36.8,7.65)" />   <use xlink:href="#dot" transform="translate(36.77,7.62)" />   <use xlink:href="#dot" transform="translate(36.77,7.62)" />   <use xlink:href="#dot" transform="translate(36.8,7.65)" />   <use xlink:href="#dot" transform="translate(36.77,7.62)" />   <use xlink:href="#dot" transform="translate(36.77,7.62)" />   <use xlink:href="#dot" transform="translate(36.77,7.62)" />   <use xlink:href="#dot" transform="translate(36.8,7.65)" />   <use xlink:href="#dot" transform="translate(36.77,7.62)" />   <use xlink:href="#dot" transform="translate(36.77,7.62)" />   <use xlink:href="#dot" transform="translate(36.77,7.62)" />   <use xlink:href="#dot" transform="translate(36.77,7.62)" />   <use xlink:href="#dot" transform="translate(36.77,7.62)" />   <use xlink:href="#dot" transform="translate(36.77,7.62)" />   <use xlink:href="#dot" transform="translate(36.77,7.62)" />   <use xlink:href="#dot" transform="translate(36.8,7.65)" />   <use xlink:href="#dot" transform="translate(36.8,7.65)" />   <use xlink:href="#dot" transform="translate(36.77,7.62)" />   <use xlink:href="#dot" transform="translate(36.77,7.62)" />   <use xlink:href="#dot" transform="translate(36.77,7.62)" />   <use xlink:href="#dot" transform="translate(36.77,7.62)" />   <use xlink:href="#dot" transform="translate(36.77,7.62)" />   <use xlink:href="#dot" transform="translate(36.77,7.62)" />   <use xlink:href="#dot" transform="translate(36.77,7.62)" />   <use xlink:href="#dot" transform="translate(36.77,7.62)" />   <use xlink:href="#dot" transform="translate(36.8,7.65)" />   <use xlink:href="#dot" transform="translate(36.77,7.62)" />   <use xlink:href="#dot" transform="translate(36.8,7.65)" />   <use xlink:href="#dot" transform="translate(36.77,7.62)" />   <use xlink:href="#dot" transform="translate(36.77,7.62)" />   <use xlink:href="#dot" transform="translate(36.77,7.62)" />   <use xlink:href="#dot" transform="translate(36.77,7.62)" />   <use xlink:href="#dot" transform="translate(36.77,7.62)" />   <use xlink:href="#dot" transform="translate(36.77,7.62)" />   <use xlink:href="#dot" transform="translate(36.77,7.62)" />   <use xlink:href="#dot" transform="translate(36.77,7.62)" />   <use xlink:href="#dot" transform="translate(36.77,7.62)" />   <use xlink:href="#dot" transform="translate(36.77,7.62)" />   <use xlink:href="#dot" transform="translate(36.77,7.62)" />   <use xlink:href="#dot" transform="translate(36.77,7.62)" />   <use xlink:href="#dot" transform="translate(36.77,7.62)" />   <use xlink:href="#dot" transform="translate(36.77,7.62)" />   <use xlink:href="#dot" transform="translate(36.77,7.62)" />   <use xlink:href="#dot" transform="translate(36.77,7.62)" />   <use xlink:href="#dot" transform="translate(36.77,7.62)" />   <use xlink:href="#dot" transform="translate(36.77,7.62)" />   <use xlink:href="#dot" transform="translate(36.77,7.62)" />   <use xlink:href="#dot" transform="translate(36.77,7.62)" />   <use xlink:href="#dot" transform="translate(36.77,7.62)" />   <use xlink:href="#dot" transform="translate(36.77,7.62)" />   <use xlink:href="#dot" transform="translate(36.77,7.62)" />   <use xlink:href="#dot" transform="translate(36.77,7.62)" />   <use xlink:href="#dot" transform="translate(36.77,7.62)" />   <use xlink:href="#dot" transform="translate(36.77,7.62)" />   <use xlink:href="#dot" transform="translate(36.77,7.62)" />   <use xlink:href="#dot" transform="translate(36.8,7.65)" />   <use xlink:href="#dot" transform="translate(36.77,7.62)" />   <use xlink:href="#dot" transform="translate(36.8,7.65)" />   <use xlink:href="#dot" transform="translate(36.8,7.65)" />   <use xlink:href="#dot" transform="translate(36.8,7.65)" />   <use xlink:href="#dot" transform="translate(36.8,7.65)" />   <use xlink:href="#dot" transform="translate(36.8,7.65)" />   <use xlink:href="#dot" transform="translate(36.8,7.65)" />   <use xlink:href="#dot" transform="translate(36.8,7.65)" />   <use xlink:href="#dot" transform="translate(36.8,7.65)" />   <use xlink:href="#dot" transform="translate(36.8,7.65)" />   <use xlink:href="#dot" transform="translate(36.8,7.65)" />   <use xlink:href="#dot" transform="translate(36.8,7.65)" />   <use xlink:href="#dot" transform="translate(36.8,7.65)" />   <use xlink:href="#dot" transform="translate(36.77,7.62)" />   <use xlink:href="#dot" transform="translate(36.77,7.62)" />   <use xlink:href="#dot" transform="translate(36.77,7.62)" />   <use xlink:href="#dot" transform="translate(36.77,7.62)" />   <use xlink:href="#dot" transform="translate(36.8,7.65)" />   <use xlink:href="#dot" transform="translate(36.77,7.62)" />   <use xlink:href="#dot" transform="translate(36.77,7.62)" />   <use xlink:href="#dot" transform="translate(36.8,7.65)" />   <use xlink:href="#dot" transform="translate(36.77,7.62)" />   <use xlink:href="#dot" transform="translate(36.77,7.62)" />   <use xlink:href="#dot" transform="translate(36.77,7.62)" />   <use xlink:href="#dot" transform="translate(36.77,7.62)" />   <use xlink:href="#dot" transform="translate(36.8,7.65)" />   <use xlink:href="#dot" transform="translate(36.77,7.62)" />   <use xlink:href="#dot" transform="translate(36.77,7.62)" />   <use xlink:href="#dot" transform="translate(36.77,7.62)" />   <use xlink:href="#dot" transform="translate(36.77,7.62)" />   <use xlink:href="#dot" transform="translate(36.77,7.62)" />   <use xlink:href="#dot" transform="translate(36.77,7.62)" />   <use xlink:href="#dot" transform="translate(36.77,7.62)" />   <use xlink:href="#dot" transform="translate(36.77,7.62)" />   <use xlink:href="#dot" transform="translate(36.77,7.62)" />   <use xlink:href="#dot" transform="translate(36.8,7.65)" />   <use xlink:href="#dot" transform="translate(36.77,7.62)" />   <use xlink:href="#dot" transform="translate(36.77,7.62)" />   <use xlink:href="#dot" transform="translate(36.77,7.62)" />   <use xlink:href="#dot" transform="translate(36.77,7.62)" />   <use xlink:href="#dot" transform="translate(36.77,7.62)" />   <use xlink:href="#dot" transform="translate(36.77,7.62)" />   <use xlink:href="#dot" transform="translate(36.77,7.62)" />   <use xlink:href="#dot" transform="translate(38.52,9.05)" />   <use xlink:href="#dot" transform="translate(36.77,7.62)" />   <use xlink:href="#dot" transform="translate(36.77,7.62)" />   <use xlink:href="#dot" transform="translate(36.77,7.62)" />   <use xlink:href="#dot" transform="translate(36.8,7.65)" />   <use xlink:href="#dot" transform="translate(36.77,7.62)" />   <use xlink:href="#dot" transform="translate(36.8,7.65)" />   <use xlink:href="#dot" transform="translate(36.8,7.65)" />   <use xlink:href="#dot" transform="translate(36.8,7.65)" />   <use xlink:href="#dot" transform="translate(36.77,7.62)" />   <use xlink:href="#dot" transform="translate(36.77,7.62)" />   <use xlink:href="#dot" transform="translate(36.77,7.62)" />   <use xlink:href="#dot" transform="translate(36.77,7.62)" />   <use xlink:href="#dot" transform="translate(36.77,7.62)" />   <use xlink:href="#dot" transform="translate(36.77,7.62)" />   <use xlink:href="#dot" transform="translate(36.8,7.65)" />   <use xlink:href="#dot" transform="translate(36.8,7.65)" />   <use xlink:href="#dot" transform="translate(36.73,7.75)" />   <use xlink:href="#dot" transform="translate(36.8,7.65)" />   <use xlink:href="#dot" transform="translate(36.8,7.58)" />   <use xlink:href="#dot" transform="translate(36.8,7.58)" />   <use xlink:href="#dot" transform="translate(36.8,7.65)" />   <use xlink:href="#dot" transform="translate(36.77,7.6)" />   <use xlink:href="#dot" transform="translate(36.77,7.6)" />   <use xlink:href="#dot" transform="translate(36.77,7.6)" />   <use xlink:href="#dot" transform="translate(36.8,7.65)" />   <use xlink:href="#dot" transform="translate(36.77,7.6)" />   <use xlink:href="#dot" transform="translate(36.77,7.6)" />   <use xlink:href="#dot" transform="translate(36.77,7.6)" />   <use xlink:href="#dot" transform="translate(36.77,7.6)" />   <use xlink:href="#dot" transform="translate(36.77,7.62)" />   <use xlink:href="#dot" transform="translate(36.77,7.62)" />   <use xlink:href="#dot" transform="translate(36.77,7.62)" />   <use xlink:href="#dot" transform="translate(36.77,7.62)" />   <use xlink:href="#dot" transform="translate(36.77,7.62)" />   <use xlink:href="#dot" transform="translate(36.77,7.62)" />   <use xlink:href="#dot" transform="translate(36.77,7.62)" />   <use xlink:href="#dot" transform="translate(36.77,7.62)" />   <use xlink:href="#dot" transform="translate(36.8,7.65)" />   <use xlink:href="#dot" transform="translate(36.8,7.65)" />   <use xlink:href="#dot" transform="translate(36.77,7.62)" />   <use xlink:href="#dot" transform="translate(36.77,7.62)" />   <use xlink:href="#dot" transform="translate(36.77,7.62)" />   <use xlink:href="#dot" transform="translate(36.77,7.62)" />   <use xlink:href="#dot" transform="translate(36.77,7.62)" />   <use xlink:href="#dot" transform="translate(36.77,7.62)" />   <use xlink:href="#dot" transform="translate(36.8,7.65)" />   <use xlink:href="#dot" transform="translate(36.8,7.65)" />   <use xlink:href="#dot" transform="translate(36.8,7.65)" />   <use xlink:href="#dot" transform="translate(36.77,7.62)" />   <use xlink:href="#dot" transform="translate(36.8,7.65)" />   <use xlink:href="#dot" transform="translate(36.77,7.62)" />   <use xlink:href="#dot" transform="translate(36.8,7.65)" />   <use xlink:href="#dot" transform="translate(36.8,7.65)" />   <use xlink:href="#dot" transform="translate(36.8,7.65)" />   <use xlink:href="#dot" transform="translate(36.77,7.62)" />   <use xlink:href="#dot" transform="translate(36.8,7.65)" />   <use xlink:href="#dot" transform="translate(36.8,7.65)" />   <use xlink:href="#dot" transform="translate(36.77,7.62)" />   <use xlink:href="#dot" transform="translate(36.77,7.62)" />   <use xlink:href="#dot" transform="translate(36.8,7.65)" />   <use xlink:href="#dot" transform="translate(36.8,7.65)" />   <use xlink:href="#dot" transform="translate(36.8,7.65)" />   <use xlink:href="#dot" transform="translate(36.77,7.62)" />   <use xlink:href="#dot" transform="translate(36.77,7.62)" />   <use xlink:href="#dot" transform="translate(36.77,7.62)" />   <use xlink:href="#dot" transform="translate(36.77,7.62)" /><polygon class="region" points="36.77,7.6 36.73,7.75 38.19,13.26 39.900242,6.883503 39.862003,6.856213 36.8,7.58 36.77,7.6 " />
		  </g>
		</svg>