<?xml version="1.0" encoding="UTF-8"?>
	<svg xmlns:xlink="http://www.w3.org/1999/xlink" 
	xmlns="http://www.w3.org/2000/svg" 
	width="360px" height="180px">
	   <style type="text/css">
		  <![CDATA[     
		  .region 
		  { 
			fill:blue; 
			opacity:0.4; 
			stroke:blue;
		  }
		  ]]>
	   </style>

	<circle id="dot" x="-2" y="-2" r="2" style="stroke:none; stroke-width:0; fill:black; opacity:0.7;"/>


	 <image x="0" y="0" width="360" height="180" xlink:href="map.jpg"/>

 
	 <g transform="translate(180,90) scale(1,-1)"><polygon class="region" points="-73.9881,8.8524355930001 -73.8245,7.776235593 -73.8875,7.024435593 -74.4101,6.6044355930001 -74.658,5.7659355930001 -75.0964,5.6744355930001 -75.2223,6.5832355920001 -74.8365,8.0568355930001 -74.6002,8.294935593 -74.4922,8.914835593 -74.1906,8.844635593 -74.0615,8.999335592 -73.9881,8.8524355930001 " /><polygon class="region" points="-72.1002,9.853435593 -71.9992,9.448735592 -71.7166,9.391935593 -71.8215,9.2326355930001 -71.7048,9.0521355930001 -71.227,9.1631355920001 -71.023,9.599835593 -70.7309,9.255435592 -71.6459,8.825535593 -72.6291,7.3553355930001 -72.849,7.815635592 -72.9177,7.4515355930001 -72.7459,6.654635593 -73.0276,6.242435593 -73.3779,6.1531355930001 -73.6871,5.843935593 -73.7901,5.534835592 -74.2023,5.452335593 -74.2916,5.7958355920001 -74.6635,5.829435593 -74.4101,6.6044355930001 -73.8875,7.024435593 -73.8807,8.4765355930001 -74.0754,9.0054355930001 -73.8883,9.368635593 -73.9065,9.7760355930001 -74.0475,10.200435593 -73.0904,10.987135593 -72.4343,11.136835592 -72.1002,9.853435593 " /><polygon class="region" points="-71.8346,6.4414355930001 -72.038,6.451635593 -71.855,6.9296355930001 -72.1194,7.4889355930001 -71.6414,7.6923355920001 -70.9295,8.312735592 -70.8786,7.661835593 -71.1024,7.4584355920001 -71.438,6.6245355930001 -71.8346,6.4414355930001 " /><polygon class="region" points="-65.918,10.327535593 -65.4881,10.153135593 -66.3091,9.9070355920001 -66.7391,9.939935593 -66.8455,10.085235592 -66.1053,10.500335593 -65.918,10.327535593 " /><polygon class="region" points="-65.8192,10.262235593 -65.7831,10.245135592 -65.8421,10.256735593 -65.8192,10.262235593 " /><polygon class="region" points="-65.7776,10.240635593 -65.7562,10.230835592 -65.7534,10.225935592 -65.7846,10.226835592 -65.7776,10.240635593 " /><polygon class="region" points="-65.8809,10.291135593 -65.8832,10.286535592 -65.8982,10.299935592 -65.8921,10.299335592 -65.8809,10.291135593 " /><polygon class="region" points="-65.8392,10.268435593 -65.8468,10.264235592 -65.8533,10.268335592 -65.8514,10.273435593 -65.8392,10.268435593 " /><polygon class="region" points="-65.8473,10.249335593 -65.8554,10.248135593 -65.8645,10.253535593 -65.8629,10.256135593 -65.8473,10.249335593 " /><polygon class="region" points="-65.7581,10.218235592 -65.7596,10.212835593 -65.765,10.220435592 -65.7581,10.218235592 " /><polygon class="region" points="-73.8883,9.368635593 -74.0754,9.0054355930001 -74.5102,9.227735592 -74.7627,9.403635593 -74.702,9.8245355930001 -74.0475,10.200435593 -73.8883,9.368635593 " />
		  </g>
		</svg>