<?xml version="1.0" encoding="UTF-8"?>
	<svg xmlns:xlink="http://www.w3.org/1999/xlink" 
	xmlns="http://www.w3.org/2000/svg" 
	width="360px" height="180px">
	   <style type="text/css">
		  <![CDATA[     
		  .region 
		  { 
			fill:blue; 
			opacity:0.4; 
			stroke:blue;
		  }
		  ]]>
	   </style>

	<circle id="dot" x="-2" y="-2" r="2" style="stroke:none; stroke-width:0; fill:black; opacity:0.7;"/>


	 <image x="0" y="0" width="360" height="180" xlink:href="map.jpg"/>

 
	 <g transform="translate(180,90) scale(1,-1)">   <use xlink:href="#dot" transform="translate(-74.297753,7.158436)" />   <use xlink:href="#dot" transform="translate(-74.209498,7.048354)" />   <use xlink:href="#dot" transform="translate(-73.782472,7.216602)" />   <use xlink:href="#dot" transform="translate(-74.140853,6.715732)" />   <use xlink:href="#dot" transform="translate(-75.12175,5.4995)" />   <use xlink:href="#dot" transform="translate(-74.535222,6.192417)" />   <use xlink:href="#dot" transform="translate(-74.2,6.016667)" />   <use xlink:href="#dot" transform="translate(-74.139194,6.716111)" />   <use xlink:href="#dot" transform="translate(-74.118861,6.694139)" />   <use xlink:href="#dot" transform="translate(-74.266667,6.05)" />   <use xlink:href="#dot" transform="translate(-74.183333,6.016667)" />   <use xlink:href="#dot" transform="translate(-74.029861,6.815)" />   <use xlink:href="#dot" transform="translate(-74.454967,8.450483)" />   <use xlink:href="#dot" transform="translate(-74.227333,5.985039)" />   <use xlink:href="#dot" transform="translate(-74.255333,6.706944)" />   <use xlink:href="#dot" transform="translate(-74.632972,6.5125)" />   <use xlink:href="#dot" transform="translate(-73.901861,6.607889)" />   <use xlink:href="#dot" transform="translate(-74.344972,6.71775)" />   <use xlink:href="#dot" transform="translate(-74.227639,5.986639)" />   <use xlink:href="#dot" transform="translate(-74.144609,6.712696)" />   <use xlink:href="#dot" transform="translate(-75.1169,7.525)" />   <use xlink:href="#dot" transform="translate(-74.695,7.9861)" />   <use xlink:href="#dot" transform="translate(-75.0875,8.0858)" />   <use xlink:href="#dot" transform="translate(-74.1244,6.8819)" />   <use xlink:href="#dot" transform="translate(-74.7897,7.3186)" />   <use xlink:href="#dot" transform="translate(-74.4186,6.9856)" />   <use xlink:href="#dot" transform="translate(-74.9494,8.1403)" />   <use xlink:href="#dot" transform="translate(-74.183333,5.933333)" />   <use xlink:href="#dot" transform="translate(-75.2029,7.9804)" />   <use xlink:href="#dot" transform="translate(-74.163944,6.818306)" />   <use xlink:href="#dot" transform="translate(-74.265556,6.053444)" />   <use xlink:href="#dot" transform="translate(-74.621616,7.00649)" />   <use xlink:href="#dot" transform="translate(-74.634333,6.512983)" />   <use xlink:href="#dot" transform="translate(-75.070449,7.106459)" />   <use xlink:href="#dot" transform="translate(-75.164499,7.128157)" />   <use xlink:href="#dot" transform="translate(-74.9379,7.3682)" />   <use xlink:href="#dot" transform="translate(-74.9295,7.1716)" />   <use xlink:href="#dot" transform="translate(-74.266667,8.583333)" />   <use xlink:href="#dot" transform="translate(-73.906111,7.357785)" />   <use xlink:href="#dot" transform="translate(-74.333333,8.33334)" />   <use xlink:href="#dot" transform="translate(-73.906111,8.335563)" />   <use xlink:href="#dot" transform="translate(-73.871944,8.280007)" />   <use xlink:href="#dot" transform="translate(-75.05,7.300007)" />   <use xlink:href="#dot" transform="translate(-74.872,7.493)" />   <use xlink:href="#dot" transform="translate(-74.872,7.493)" />   <use xlink:href="#dot" transform="translate(-74.25,8.58334)" />   <use xlink:href="#dot" transform="translate(-74.872,7.493)" />   <use xlink:href="#dot" transform="translate(-75.05,7.316674)" />   <use xlink:href="#dot" transform="translate(-71.95,7.32)" />   <use xlink:href="#dot" transform="translate(-72.7,9.18)" />   <use xlink:href="#dot" transform="translate(-72.7,9.18)" />   <use xlink:href="#dot" transform="translate(-72.77,9.12)" />   <use xlink:href="#dot" transform="translate(-72.77,9.12)" />   <use xlink:href="#dot" transform="translate(-72.77,9.12)" />   <use xlink:href="#dot" transform="translate(-72.63,9.2)" />   <use xlink:href="#dot" transform="translate(-72.77,9.12)" />   <use xlink:href="#dot" transform="translate(-72.77,9.12)" />   <use xlink:href="#dot" transform="translate(-72.63,9.2)" />   <use xlink:href="#dot" transform="translate(-72.77,9.12)" />   <use xlink:href="#dot" transform="translate(-72.77,9.12)" />   <use xlink:href="#dot" transform="translate(-72.77,9.12)" />   <use xlink:href="#dot" transform="translate(-72.63,9.2)" />   <use xlink:href="#dot" transform="translate(-72.77,9.12)" />   <use xlink:href="#dot" transform="translate(-72.77,9.12)" />   <use xlink:href="#dot" transform="translate(-73.903409,7.935081)" />   <use xlink:href="#dot" transform="translate(-71.03,9.4)" />   <use xlink:href="#dot" transform="translate(-72.63,9.2)" />   <use xlink:href="#dot" transform="translate(-68.964508,6.203634)" />   <use xlink:href="#dot" transform="translate(-75.3367,7.4194)" />   <use xlink:href="#dot" transform="translate(-72.583333,8.5)" />   <use xlink:href="#dot" transform="translate(-73.133333,8.600007)" />   <use xlink:href="#dot" transform="translate(-73.833333,10.2)" />   <use xlink:href="#dot" transform="translate(-72.833333,10.916674)" />   <use xlink:href="#dot" transform="translate(-74.133333,8.566674)" />   <use xlink:href="#dot" transform="translate(-73.4,10.166674)" />   <use xlink:href="#dot" transform="translate(-73.25,10.416674)" />   <use xlink:href="#dot" transform="translate(-73,8.666674)" />   <use xlink:href="#dot" transform="translate(-72.099998,9.85)" />   <use xlink:href="#dot" transform="translate(-73.933333,8.966674)" />   <use xlink:href="#dot" transform="translate(-74.110543,5.5143)" />   <use xlink:href="#dot" transform="translate(-74.2,6)" />   <use xlink:href="#dot" transform="translate(-74.71,6.5)" />   <use xlink:href="#dot" transform="translate(-74.79,6.56)" />   <use xlink:href="#dot" transform="translate(-75.2,7.99)" />   <use xlink:href="#dot" transform="translate(-74.2,8.6)" />   <use xlink:href="#dot" transform="translate(-74.1,6.7)" />   <use xlink:href="#dot" transform="translate(-74.77,6.42)" />   <use xlink:href="#dot" transform="translate(-75.07,6.91)" />   <use xlink:href="#dot" transform="translate(-74.87,7.5)" />   <use xlink:href="#dot" transform="translate(-75.88,5.66)" />   <use xlink:href="#dot" transform="translate(-75.15,7.07)" />   <use xlink:href="#dot" transform="translate(-74.3,6.1)" />   <use xlink:href="#dot" transform="translate(-75.35,7.58)" />   <use xlink:href="#dot" transform="translate(-74.58,6.18)" />   <use xlink:href="#dot" transform="translate(-75.02,6.6)" /><polygon class="region" points="-75.12175,5.4995 -75.88,5.66 -75.35,7.58 -75.2,7.99 -73.833333,10.2 -72.833333,10.916674 -71.03,9.4 -68.964508,6.203634 -74.110543,5.5143 -75.12175,5.4995 " />
		  </g>
		</svg>