<?xml version="1.0" encoding="UTF-8"?>
	<svg xmlns:xlink="http://www.w3.org/1999/xlink" 
	xmlns="http://www.w3.org/2000/svg" 
	width="360px" height="180px">
	   <style type="text/css">
		  <![CDATA[     
		  .region 
		  { 
			fill:blue; 
			opacity:0.4; 
			stroke:blue;
		  }
		  ]]>
	   </style>

	<circle id="dot" x="-2" y="-2" r="2" style="stroke:none; stroke-width:0; fill:black; opacity:0.7;"/>


	 <image x="0" y="0" width="360" height="180" xlink:href="map.jpg"/>

 
	 <g transform="translate(180,90) scale(1,-1)"><polygon class="region" points="107.4491,14.523635593 107.5075,13.804035593 107.1511,14.192935593 106.8076,14.108635593 106.5743,13.596735592 106.6845,13.395835593 107.5918,13.298635593 107.4622,12.903335593 107.5529,12.443135592 107.2289,12.657035593 106.4901,12.501535593 106.354,13.006935593 106.4966,13.311535593 106.1661,13.726335592 106.004,14.341935593 106.5354,14.588235593 106.8141,14.393835592 107.1057,14.581735593 107.4491,14.523635593 " /><polygon class="region" points="104.9964,14.320135593 105.5699,14.128135592 105.8161,13.868835592 105.8161,13.622635593 105.518,13.480035593 104.3386,13.538335593 104.0275,13.953135592 104.4034,14.329035593 104.9964,14.320135593 " />
		  </g>
		</svg>