<?xml version="1.0" encoding="UTF-8"?>
	<svg xmlns:xlink="http://www.w3.org/1999/xlink" 
	xmlns="http://www.w3.org/2000/svg" 
	width="360px" height="180px">
	   <style type="text/css">
		  <![CDATA[     
		  .region 
		  { 
			fill:blue; 
			opacity:0.4; 
			stroke:blue;
		  }
		  ]]>
	   </style>

	<circle id="dot" x="-2" y="-2" r="2" style="stroke:none; stroke-width:0; fill:black; opacity:0.7;"/>


	 <image x="0" y="0" width="360" height="180" xlink:href="map.jpg"/>

 
	 <g transform="translate(180,90) scale(1,-1)">   <use xlink:href="#dot" transform="translate(-47.45256,-23.50153)" />   <use xlink:href="#dot" transform="translate(-74.164511,4.67235)" />   <use xlink:href="#dot" transform="translate(-74.164275,4.672194)" />   <use xlink:href="#dot" transform="translate(-74.166861,4.673261)" />   <use xlink:href="#dot" transform="translate(-74.167561,4.672972)" />   <use xlink:href="#dot" transform="translate(-74.169469,4.672122)" />   <use xlink:href="#dot" transform="translate(-74.206361,4.60325)" />   <use xlink:href="#dot" transform="translate(-74.168783,4.6725)" />   <use xlink:href="#dot" transform="translate(-74.164275,4.672194)" />   <use xlink:href="#dot" transform="translate(-74.206361,4.60325)" />   <use xlink:href="#dot" transform="translate(-74.164275,4.672194)" />   <use xlink:href="#dot" transform="translate(-74.164511,4.67235)" />   <use xlink:href="#dot" transform="translate(-55.825749,-15.444836)" />   <use xlink:href="#dot" transform="translate(-57.1745,-28.535309)" />   <use xlink:href="#dot" transform="translate(-74.041806,4.809917)" />   <use xlink:href="#dot" transform="translate(-74.041228,4.80365)" />   <use xlink:href="#dot" transform="translate(-74.065544,4.704347)" />   <use xlink:href="#dot" transform="translate(-74.041806,4.809917)" />   <use xlink:href="#dot" transform="translate(-74.039022,4.787794)" />   <use xlink:href="#dot" transform="translate(-74.064369,4.710744)" />   <use xlink:href="#dot" transform="translate(-74.03925,4.786311)" />   <use xlink:href="#dot" transform="translate(-74.041117,4.803506)" />   <use xlink:href="#dot" transform="translate(-74.041197,4.803292)" />   <use xlink:href="#dot" transform="translate(-74.03925,4.786311)" />   <use xlink:href="#dot" transform="translate(-74.065631,4.704292)" />   <use xlink:href="#dot" transform="translate(-74.041011,4.803094)" />   <use xlink:href="#dot" transform="translate(-74.065561,4.7044)" />   <use xlink:href="#dot" transform="translate(-74.109675,4.738344)" />   <use xlink:href="#dot" transform="translate(-74.110197,4.736644)" />   <use xlink:href="#dot" transform="translate(-74.114694,4.73885)" />   <use xlink:href="#dot" transform="translate(-74.111489,4.7382)" />   <use xlink:href="#dot" transform="translate(-50.269888,-29.888562)" />   <use xlink:href="#dot" transform="translate(-74.110203,4.736714)" />   <use xlink:href="#dot" transform="translate(-74.110203,4.736714)" />   <use xlink:href="#dot" transform="translate(-74.10909,4.722042)" />   <use xlink:href="#dot" transform="translate(-58.357809,-34.595823)" />   <use xlink:href="#dot" transform="translate(-58.916287,-34.412999)" />   <use xlink:href="#dot" transform="translate(-58.357937,-34.609228)" />   <use xlink:href="#dot" transform="translate(-51.102112,-30.218141)" />   <use xlink:href="#dot" transform="translate(-58.687248,-33.444836)" />   <use xlink:href="#dot" transform="translate(-58.357401,-34.608628)" />   <use xlink:href="#dot" transform="translate(-74.038889,4.793611)" />   <use xlink:href="#dot" transform="translate(-74.100278,4.760278)" />   <use xlink:href="#dot" transform="translate(-74.100278,4.760278)" />   <use xlink:href="#dot" transform="translate(-74.041667,4.807222)" />   <use xlink:href="#dot" transform="translate(-74.111944,4.738056)" />   <use xlink:href="#dot" transform="translate(-74.141944,4.72)" />   <use xlink:href="#dot" transform="translate(-74.112778,4.737778)" />   <use xlink:href="#dot" transform="translate(-74.110556,4.735556)" />   <use xlink:href="#dot" transform="translate(-74.140833,4.718611)" />   <use xlink:href="#dot" transform="translate(-74.110278,4.736944)" />   <use xlink:href="#dot" transform="translate(-74.148056,4.725)" />   <use xlink:href="#dot" transform="translate(-74.110833,4.734167)" />   <use xlink:href="#dot" transform="translate(-74.112778,4.737778)" />   <use xlink:href="#dot" transform="translate(-74.138889,4.724444)" />   <use xlink:href="#dot" transform="translate(-74.106898,4.724546)" />   <use xlink:href="#dot" transform="translate(-55.824903,-15.444342)" />   <use xlink:href="#dot" transform="translate(-58.347702,-34.604551)" />   <use xlink:href="#dot" transform="translate(-74.050169,4.799544)" />   <use xlink:href="#dot" transform="translate(-58.353874,-34.607021)" />   <use xlink:href="#dot" transform="translate(-77.128222,0.983806)" />   <use xlink:href="#dot" transform="translate(-58.357273,-34.609095)" />   <use xlink:href="#dot" transform="translate(-54.445944,-25.681028)" />   <use xlink:href="#dot" transform="translate(-74.103271,4.761108)" />   <use xlink:href="#dot" transform="translate(-74.075862,4.703013)" />   <use xlink:href="#dot" transform="translate(-56.347504,-20.25318)" />   <use xlink:href="#dot" transform="translate(-53.511631,-33.90097)" />   <use xlink:href="#dot" transform="translate(-54.450737,-25.678549)" />   <use xlink:href="#dot" transform="translate(-57.176972,-28.527225)" />   <use xlink:href="#dot" transform="translate(-54.497338,-25.689181)" />   <use xlink:href="#dot" transform="translate(-60.92274,-31.80952)" />   <use xlink:href="#dot" transform="translate(-54.48405,-25.68353)" />   <use xlink:href="#dot" transform="translate(-54.48405,-25.68353)" />   <use xlink:href="#dot" transform="translate(-60.89152,-31.8146)" />   <use xlink:href="#dot" transform="translate(-58.350922,-34.608106)" />   <use xlink:href="#dot" transform="translate(-54.445833,-25.681111)" />   <use xlink:href="#dot" transform="translate(-60.22673,-31.2262)" />   <use xlink:href="#dot" transform="translate(-60.15101,-32.60449)" />   <use xlink:href="#dot" transform="translate(-47.06,-22.9)" />   <use xlink:href="#dot" transform="translate(-60.65869,-31.30793)" />   <use xlink:href="#dot" transform="translate(-41.324444,-21.754167)" />   <use xlink:href="#dot" transform="translate(-54.12947,-25.62484)" />   <use xlink:href="#dot" transform="translate(-54.06843,-25.62678)" />   <use xlink:href="#dot" transform="translate(-54.12947,-25.62484)" />   <use xlink:href="#dot" transform="translate(-54.06843,-25.62678)" />   <use xlink:href="#dot" transform="translate(-54.31246,-25.68764)" />   <use xlink:href="#dot" transform="translate(-54.433651,-25.678971)" />   <use xlink:href="#dot" transform="translate(-54.449713,-25.689554)" />   <use xlink:href="#dot" transform="translate(-54.31246,-25.68764)" />   <use xlink:href="#dot" transform="translate(-54.44867,-25.68262)" />   <use xlink:href="#dot" transform="translate(-54.45531,-25.68513)" />   <use xlink:href="#dot" transform="translate(-54.44867,-25.68262)" />   <use xlink:href="#dot" transform="translate(-54.45531,-25.68513)" />   <use xlink:href="#dot" transform="translate(-60.67914,-31.64611)" />   <use xlink:href="#dot" transform="translate(-60.67914,-31.64611)" />   <use xlink:href="#dot" transform="translate(-60.67725,-31.64861)" />   <use xlink:href="#dot" transform="translate(-54.54934,-25.60334)" />   <use xlink:href="#dot" transform="translate(-54.54934,-25.60334)" />   <use xlink:href="#dot" transform="translate(-60.67914,-31.64611)" />   <use xlink:href="#dot" transform="translate(-53.95943,-26.52855)" />   <use xlink:href="#dot" transform="translate(-53.95943,-26.52855)" />   <use xlink:href="#dot" transform="translate(-67.514722,-16.375278)" />   <use xlink:href="#dot" transform="translate(-60.46892,-31.51279)" />   <use xlink:href="#dot" transform="translate(-61.0168,-14.7427)" />   <use xlink:href="#dot" transform="translate(-59.92986,-29.92128)" />   <use xlink:href="#dot" transform="translate(-60.9142,-14.5792)" />   <use xlink:href="#dot" transform="translate(-57.516667,-35.083333)" />   <use xlink:href="#dot" transform="translate(-47.06,-22.9)" />   <use xlink:href="#dot" transform="translate(-68.7,-12.517)" />   <use xlink:href="#dot" transform="translate(-47.06,-22.9)" />   <use xlink:href="#dot" transform="translate(-47.06,-22.9)" />   <use xlink:href="#dot" transform="translate(-55.33333,-34.75)" />   <use xlink:href="#dot" transform="translate(-59.25,3.25)" />   <use xlink:href="#dot" transform="translate(-54.31929,-25.68029)" />   <use xlink:href="#dot" transform="translate(-46.65,-22.520278)" />   <use xlink:href="#dot" transform="translate(-48.099722,-21.72)" />   <use xlink:href="#dot" transform="translate(-48.099722,-21.72)" />   <use xlink:href="#dot" transform="translate(-69.083,-13)" />   <use xlink:href="#dot" transform="translate(-66.733,-10.767)" />   <use xlink:href="#dot" transform="translate(-47.06,-22.9)" />   <use xlink:href="#dot" transform="translate(-57.386,-23.3617)" />   <use xlink:href="#dot" transform="translate(-48.099722,-21.72)" />   <use xlink:href="#dot" transform="translate(-47.06,-22.9)" />   <use xlink:href="#dot" transform="translate(-47.06,-22.9)" />   <use xlink:href="#dot" transform="translate(-60.533333,-14.316667)" />   <use xlink:href="#dot" transform="translate(-60.860833,-14.59)" />   <use xlink:href="#dot" transform="translate(-60.878333,-14.576389)" />   <use xlink:href="#dot" transform="translate(-60.88333,-14.53333)" />   <use xlink:href="#dot" transform="translate(-60.533333,-14.316667)" />   <use xlink:href="#dot" transform="translate(-60.878333,-14.576389)" />   <use xlink:href="#dot" transform="translate(-60.891667,-14.5675)" />   <use xlink:href="#dot" transform="translate(-60.88333,-14.53333)" />   <use xlink:href="#dot" transform="translate(-47.06,-22.9)" />   <use xlink:href="#dot" transform="translate(-48.099722,-21.72)" />   <use xlink:href="#dot" transform="translate(-60.95,-33.483333)" />   <use xlink:href="#dot" transform="translate(-60.95,-33.483333)" />   <use xlink:href="#dot" transform="translate(-60.95,-33.483333)" />   <use xlink:href="#dot" transform="translate(-60.85,-32.583333)" />   <use xlink:href="#dot" transform="translate(-60.85,-32.583333)" />   <use xlink:href="#dot" transform="translate(-60.85,-32.583333)" />   <use xlink:href="#dot" transform="translate(-47.639722,-22.72)" />   <use xlink:href="#dot" transform="translate(-47.06,-22.9)" />   <use xlink:href="#dot" transform="translate(-60.85,-32.583333)" />   <use xlink:href="#dot" transform="translate(-60.85,-32.583333)" />   <use xlink:href="#dot" transform="translate(-60.583333,-33.616667)" />   <use xlink:href="#dot" transform="translate(-60.516667,-33.5)" />   <use xlink:href="#dot" transform="translate(-61.168056,-33.044167)" />   <use xlink:href="#dot" transform="translate(-60.583333,-33.616667)" />   <use xlink:href="#dot" transform="translate(-73.799629,4.567695)" />   <use xlink:href="#dot" transform="translate(-61.168056,-33.044167)" />   <use xlink:href="#dot" transform="translate(-61.208879,-33.790387)" />   <use xlink:href="#dot" transform="translate(-60.887362,-32.455742)" />   <use xlink:href="#dot" transform="translate(-60.95,-33.483333)" />   <use xlink:href="#dot" transform="translate(-60.95,-33.483333)" />   <use xlink:href="#dot" transform="translate(-60.583333,-33.916667)" />   <use xlink:href="#dot" transform="translate(-60.85,-32.583333)" />   <use xlink:href="#dot" transform="translate(-60.95,-33.483333)" />   <use xlink:href="#dot" transform="translate(-60.95,-33.483333)" />   <use xlink:href="#dot" transform="translate(-60.95,-33.483333)" />   <use xlink:href="#dot" transform="translate(-60.95,-33.483333)" />   <use xlink:href="#dot" transform="translate(-59.41667,-29.8)" />   <use xlink:href="#dot" transform="translate(-59.41667,-29.8)" />   <use xlink:href="#dot" transform="translate(-60.516667,-33.5)" />   <use xlink:href="#dot" transform="translate(-60.85,-32.583333)" />   <use xlink:href="#dot" transform="translate(-60.85,-32.583333)" />   <use xlink:href="#dot" transform="translate(-60.85,-32.583333)" />   <use xlink:href="#dot" transform="translate(-60.583333,-33.916667)" />   <use xlink:href="#dot" transform="translate(-60.583333,-33.916667)" />   <use xlink:href="#dot" transform="translate(-60.583333,-33.916667)" />   <use xlink:href="#dot" transform="translate(-60.85,-32.583333)" />   <use xlink:href="#dot" transform="translate(-60.85,-32.583333)" />   <use xlink:href="#dot" transform="translate(-60.85,-32.583333)" />   <use xlink:href="#dot" transform="translate(-60.85,-32.583333)" />   <use xlink:href="#dot" transform="translate(-60.85,-32.583333)" />   <use xlink:href="#dot" transform="translate(-60.583333,-33.916667)" />   <use xlink:href="#dot" transform="translate(-60.583333,-33.916667)" />   <use xlink:href="#dot" transform="translate(-60.85,-32.583333)" />   <use xlink:href="#dot" transform="translate(-61.168056,-33.044167)" />   <use xlink:href="#dot" transform="translate(-59.6,-33.45)" />   <use xlink:href="#dot" transform="translate(-60.880001,-14.55)" />   <use xlink:href="#dot" transform="translate(-47.898889,-15.93978)" />   <use xlink:href="#dot" transform="translate(-47.06,-22.9)" />   <use xlink:href="#dot" transform="translate(-63.133333,-16.466667)" />   <use xlink:href="#dot" transform="translate(-63.233333,-16.783333)" />   <use xlink:href="#dot" transform="translate(-46.88,-23.180278)" />   <use xlink:href="#dot" transform="translate(-64.803365,-31.574257)" />   <use xlink:href="#dot" transform="translate(-56.68927,-27.58991)" />   <use xlink:href="#dot" transform="translate(-47.06,-22.9)" />   <use xlink:href="#dot" transform="translate(-58.87119,-27.49144)" />   <use xlink:href="#dot" transform="translate(-57.14705,-26.85365)" />   <use xlink:href="#dot" transform="translate(-54.17317,-26.37299)" />   <use xlink:href="#dot" transform="translate(-46.609444,-20.719167)" />   <use xlink:href="#dot" transform="translate(-56.40048,-25.28588)" />   <use xlink:href="#dot" transform="translate(-55.759,-27.903)" />   <use xlink:href="#dot" transform="translate(-55.759,-27.903)" />   <use xlink:href="#dot" transform="translate(-54.17317,-26.37299)" />   <use xlink:href="#dot" transform="translate(-55.759,-27.903)" />   <use xlink:href="#dot" transform="translate(-55.759,-27.903)" />   <use xlink:href="#dot" transform="translate(-54.17317,-26.37299)" />   <use xlink:href="#dot" transform="translate(-55.91,-27.36)" />   <use xlink:href="#dot" transform="translate(-57.41667,-25.21667)" />   <use xlink:href="#dot" transform="translate(-57.41667,-25.21667)" />   <use xlink:href="#dot" transform="translate(-57.41667,-25.21667)" />   <use xlink:href="#dot" transform="translate(-57.41667,-25.21667)" />   <use xlink:href="#dot" transform="translate(-57.41667,-25.21667)" />   <use xlink:href="#dot" transform="translate(-57.41667,-25.21667)" />   <use xlink:href="#dot" transform="translate(-57.41667,-25.21667)" />   <use xlink:href="#dot" transform="translate(-57.6667,-25.2667)" />   <use xlink:href="#dot" transform="translate(-58.28805,-32.48733)" />   <use xlink:href="#dot" transform="translate(-58.28805,-32.48733)" />   <use xlink:href="#dot" transform="translate(-58.28805,-32.48733)" />   <use xlink:href="#dot" transform="translate(-58.28805,-32.48733)" />   <use xlink:href="#dot" transform="translate(-58.28805,-32.48733)" />   <use xlink:href="#dot" transform="translate(-58.28805,-32.48733)" />   <use xlink:href="#dot" transform="translate(-58.28805,-32.48733)" />   <use xlink:href="#dot" transform="translate(-58.28805,-32.48733)" />   <use xlink:href="#dot" transform="translate(-58.28805,-32.48733)" />   <use xlink:href="#dot" transform="translate(-58.244,-37.7814)" />   <use xlink:href="#dot" transform="translate(-58.244,-37.7814)" />   <use xlink:href="#dot" transform="translate(-58.244,-37.7814)" />   <use xlink:href="#dot" transform="translate(-58.244,-37.7814)" />   <use xlink:href="#dot" transform="translate(-58.2996,-37.7648)" />   <use xlink:href="#dot" transform="translate(-58.244,-37.7814)" />   <use xlink:href="#dot" transform="translate(-58.244,-37.7814)" />   <use xlink:href="#dot" transform="translate(-58.244,-37.7814)" />   <use xlink:href="#dot" transform="translate(-58.244,-37.7814)" />   <use xlink:href="#dot" transform="translate(-58.244,-37.7814)" />   <use xlink:href="#dot" transform="translate(-58.244,-37.7814)" />   <use xlink:href="#dot" transform="translate(-58.244,-37.7814)" />   <use xlink:href="#dot" transform="translate(-55.48973,-27.63493)" />   <use xlink:href="#dot" transform="translate(-55.48973,-27.63493)" />   <use xlink:href="#dot" transform="translate(-58.244,-37.7814)" />   <use xlink:href="#dot" transform="translate(-55.48973,-27.63493)" />   <use xlink:href="#dot" transform="translate(-55.48973,-27.63493)" />   <use xlink:href="#dot" transform="translate(-58.244,-37.7814)" />   <use xlink:href="#dot" transform="translate(-58.244,-37.7814)" />   <use xlink:href="#dot" transform="translate(-58.244,-37.7814)" />   <use xlink:href="#dot" transform="translate(-57.983334,-35.933334)" />   <use xlink:href="#dot" transform="translate(-61.7908,-38.1409)" />   <use xlink:href="#dot" transform="translate(-61.7908,-38.1409)" />   <use xlink:href="#dot" transform="translate(-61.1129,-36.2306)" />   <use xlink:href="#dot" transform="translate(-61.1129,-36.2306)" />   <use xlink:href="#dot" transform="translate(-61.7908,-38.1409)" />   <use xlink:href="#dot" transform="translate(-61.7908,-38.1409)" />   <use xlink:href="#dot" transform="translate(-61.7908,-38.1409)" />   <use xlink:href="#dot" transform="translate(-61.7908,-38.1409)" />   <use xlink:href="#dot" transform="translate(-61.2094,-38.9905)" />   <use xlink:href="#dot" transform="translate(-58.095638096295,-34.830427147498)" />   <use xlink:href="#dot" transform="translate(-57.5,-25.616699)" />   <use xlink:href="#dot" transform="translate(-43.27014541504,-22.703797246968)" />   <use xlink:href="#dot" transform="translate(-48.96667,-16.33333)" />   <use xlink:href="#dot" transform="translate(-56.8833,-23.4)" />   <use xlink:href="#dot" transform="translate(-58.216667,-33.549999)" />   <use xlink:href="#dot" transform="translate(-58.216667,-33.549999)" />   <use xlink:href="#dot" transform="translate(-57,-34.566666)" />   <use xlink:href="#dot" transform="translate(-55.533333,-20.433332)" />   <use xlink:href="#dot" transform="translate(-55.533333,-20.433332)" />   <use xlink:href="#dot" transform="translate(-55.533333,-20.433332)" />   <use xlink:href="#dot" transform="translate(-54.766666,-26.616667)" />   <use xlink:href="#dot" transform="translate(-56,-33)" />   <use xlink:href="#dot" transform="translate(-56,-33)" />   <use xlink:href="#dot" transform="translate(-56,-33)" />   <use xlink:href="#dot" transform="translate(-56,-33)" />   <use xlink:href="#dot" transform="translate(-54.916668,-34.766666)" />   <use xlink:href="#dot" transform="translate(-54.916668,-34.766666)" />   <use xlink:href="#dot" transform="translate(-56,-33)" />   <use xlink:href="#dot" transform="translate(-56,-33)" />   <use xlink:href="#dot" transform="translate(-56,-33)" />   <use xlink:href="#dot" transform="translate(-56,-33)" />   <use xlink:href="#dot" transform="translate(-56,-33)" />   <use xlink:href="#dot" transform="translate(-54.916668,-34.766666)" />   <use xlink:href="#dot" transform="translate(-55.049999,-33.883335)" />   <use xlink:href="#dot" transform="translate(-55.049999,-33.883335)" />   <use xlink:href="#dot" transform="translate(-55.049999,-33.883335)" />   <use xlink:href="#dot" transform="translate(-55.049999,-33.883335)" />   <use xlink:href="#dot" transform="translate(-54.416668,-32.900002)" />   <use xlink:href="#dot" transform="translate(-55.049999,-33.883335)" />   <use xlink:href="#dot" transform="translate(-55.049999,-33.883335)" />   <use xlink:href="#dot" transform="translate(-52.8947,-30.0273)" />   <use xlink:href="#dot" transform="translate(-61.433334,-36.450001)" />   <use xlink:href="#dot" transform="translate(-61.433334,-36.450001)" />   <use xlink:href="#dot" transform="translate(-61.433334,-36.450001)" />   <use xlink:href="#dot" transform="translate(-61.433334,-36.450001)" />   <use xlink:href="#dot" transform="translate(-61.433334,-36.450001)" />   <use xlink:href="#dot" transform="translate(-52.8947,-30.0273)" />   <use xlink:href="#dot" transform="translate(-60.983299,-23.75)" />   <use xlink:href="#dot" transform="translate(-43.883335,-19.633333)" />   <use xlink:href="#dot" transform="translate(-43.883335,-19.633333)" />   <use xlink:href="#dot" transform="translate(-43.20798,-22.90523)" />   <use xlink:href="#dot" transform="translate(-60.1,-29.3)" />   <use xlink:href="#dot" transform="translate(-54.65,-27.26667)" />   <use xlink:href="#dot" transform="translate(-55.05217,-27.3253)" />   <use xlink:href="#dot" transform="translate(-58.744057,-27.503505)" />   <use xlink:href="#dot" transform="translate(-60.572224,-33.897966)" />   <use xlink:href="#dot" transform="translate(-60.731264,-34.200413)" />   <use xlink:href="#dot" transform="translate(-58.23,-25.11)" />   <use xlink:href="#dot" transform="translate(-60.1,-29.3)" />   <use xlink:href="#dot" transform="translate(-41.2851,-11.28517)" />   <use xlink:href="#dot" transform="translate(-58.78917,-34.324262)" />   <use xlink:href="#dot" transform="translate(-60.026256,-37.15553)" /><polygon class="region" points="-64.803365,-31.574257 -77.128222,0.983806 -74.148056,4.725 -74.103271,4.761108 -74.041806,4.809917 -59.25,3.25 -41.2851,-11.28517 -41.324444,-21.754167 -53.511631,-33.90097 -58.244,-37.7814 -61.2094,-38.9905 -61.7908,-38.1409 -64.803365,-31.574257 " />
		  </g>
		</svg>