<?xml version="1.0" encoding="UTF-8"?>
	<svg xmlns:xlink="http://www.w3.org/1999/xlink" 
	xmlns="http://www.w3.org/2000/svg" 
	width="360px" height="180px">
	   <style type="text/css">
		  <![CDATA[     
		  .region 
		  { 
			fill:blue; 
			opacity:0.4; 
			stroke:blue;
		  }
		  ]]>
	   </style>

	<circle id="dot" x="-2" y="-2" r="2" style="stroke:none; stroke-width:0; fill:black; opacity:0.7;"/>


	 <image x="0" y="0" width="360" height="180" xlink:href="map.jpg"/>

 
	 <g transform="translate(180,90) scale(1,-1)"><polygon class="region" points="-35.527567867,-9.665252686 -36.242743496,-10.506480217 -36.774844173,-10.825663567 -38.15800381,-12.934181213 -38.372508051,-13.016701698 -38.338458064,-12.721985817 -38.55802441,-12.627303124 -38.60974026,-12.995077133 -38.526194575,-12.878168106 -38.429999354,-12.972101211 -38.784491542,-13.243342399 -38.726634028,-13.659122467 -38.915656094,-13.88656044 -38.762324336,-13.919828415 -38.901858332,-14.715538979 -38.697482111,-15.86001873 -39.052519802,-17.154607772 -38.975752834,-17.691141129 -39.403338435,-18.090854645 -39.561873439,-18.492767334 -39.645598415,-19.650215149 -39.991721155,-19.956037522 -40.242339136,-20.605695724 -40.596655848,-20.866031647 -40.90586758,-21.495420456 -40.830550198,-22.013877868 -41.802222254,-22.538225174 -41.704295161,-22.758634567 -41.858401302,-22.997972489 -42.890353206,-22.981931686 -42.924120907,-22.679719925 -43.127612117,-22.806333542 -42.996195795,-22.783943176 -43.027438167,-22.995481491 -43.389792445,-23.080724716 -43.841715815,-23.100046158 -43.395880702,-23.054826736 -43.680090907,-22.906253815 -44.073966029,-23.060422897 -44.247389797,-22.945045471 -44.552897456,-23.18970108 -44.338229182,-23.302398681 -44.890837673,-23.417833329 -45.250086788,-23.631856919 -45.252345089,-23.824636459 -45.774699214,-23.771089554 -46.777007107,-24.281074524 -47.699942592,-24.996442795 -48.053076746,-25.470071792 -47.961421015,-25.266847611 -48.157347681,-25.363388062 -48.273791316,-25.236698151 -48.316561701,-25.48504448 -48.579272273,-25.37392807 -48.190371516,-25.580591201 -48.426115992,-26.171947479 -48.554141047,-26.242883683 -48.634940151,-26.072647095 -48.677756312,-26.156553268 -48.563532832,-26.3615551 -48.333708766,-26.224025726 -48.53576565,-26.657737732 -48.447279932,-27.122493744 -48.309866909,-27.147735595 -48.452479365,-27.242954254 -48.415579799,-27.887664795 -48.601191523,-28.534757614 -49.542086604,-29.308300018 -50.688055995,-31.205324173 -51.911376003,-32.187854767 -51.852755549,-31.945705413 -51.93221188,-31.836753846 -51.691336635,-31.865369797 -51.073916438,-31.457832336 -51.006724361,-31.062969208 -50.545020106,-30.755987168 -50.565573694,-30.37128067 -50.409655574,-30.471473694 -50.441760067,-30.194105148 -50.76146603,-30.439598084 -51.134921077,-30.006797791 -51.13373852,-30.294919968 -50.932784084,-30.371377945 -51.109038357,-30.488945008 -51.142073635,-30.616678238 -51.119448665,-30.793453217 -51.128993038,-30.815921784 -51.21494961,-30.6354599 -51.276316645,-31.087944031 -51.755599025,-31.313077926 -51.870936397,-31.693037033 -52.058527949,-31.74691391 -51.946730617,-31.952074051 -52.103224758,-32.061714173 -51.922812464,-32.033443451 -51.924090388,-32.185638428 -52.474570277,-33.125953674 -53.276198389,-33.80450058 -53.6184454,-34.401878357 -53.982871058,-34.680885315 -54.787566188,-34.980815887 -55.301352505,-34.735210419 -55.998442653,-34.938770294 -56.966879848,-34.461383819 -57.696703913,-34.484989166 -58.274306299,-33.816150666 -58.193758967,-33.135482788 -57.974909785,-33.098407745 -57.876273158,-32.917842865 -58.272162441,-33.093006134 -58.396246913,-33.722229004 -58.210860255,-34.112327576 -58.389388087,-34.435783387 -57.037077907,-35.305553437 -56.960608484,-35.45330429 -57.231753352,-35.742969513 -57.216635708,-35.971683502 -56.921107296,-36.298316956 -56.615317348,-36.298065185 -56.530562404,-36.445415497 -56.511698727,-36.905487061 -57.273695949,-37.745903015 -57.39199734,-38.109615326 -58.942675594,-38.697212219 -60.692515376,-38.982082367 -61.668272202,-38.978955247 -62.343000002,-39.889248682 -63.46014838,-39.929146838 -64.776787539,-39.530165274 -65.814139604,-38.931692929 -66.931287983,-37.255970362 -66.85149167,-35.979229359 -66.572204575,-34.822182825 -65.056074634,-33.34595104 -63.699537318,-30.632876408 -62.981370503,-28.079394401 -61.824323969,-27.00214418 -61.624833187,-26.124384739 -61.784425813,-25.2466253 -63.101064972,-23.132023013 -64.561665379,-21.812778129 -64.282900889,-20.052160298 -64.546993563,-19.230538643 -64.987148021,-18.83439963 -65.309927958,-18.086137052 -64.693711716,-17.836716192 -64.767070793,-17.616638963 -66.615719516,-16.428221927 -66.762437669,-16.457565557 -66.835796746,-16.795017309 -67.011858529,-16.780345493 -68.346993718,-15.430538489 -69.026480238,-14.232043379 -69.369864928,-13.383681205 -69.205482894,-12.239826329 -68.527214237,-11.401965046 -67.848945578,-11.002983482 -66.85149167,-10.723696388 -65.215667259,-10.92318717 -64.689421656,-11.545218468 -64.00389767,-11.225575447 -61.106157155,-14.31453046 -60.50768481,-15.391780681 -58.31328621,-17.70587375 -57.196137832,-18.503836876 -56.238582079,-19.740679724 -55.281026327,-20.379050225 -54.283572419,-20.618439163 -52.727544321,-19.900272349 -51.730090412,-18.743225815 -51.96947935,-16.189743808 -51.410905162,-15.032697274 -49.376099188,-14.474123085 -46.702922711,-14.992799117 -45.027200145,-14.553919398 -43.630764672,-14.75341018 -41.236875292,-13.835752583 -40.678301102,-12.598909736 -39.880337976,-9.287362759 -39.202069317,-7.9308254429999 -37.95588589,-7.790418148 -37.073676112,-8.2040882109999 -35.672751429,-9.3488254549999 -35.527567867,-9.665252686 " /><polygon class="region" points="-49.558608059,-29.314920426 -49.555434231,-29.317180633 -49.550108912,-29.310626983 -49.558608059,-29.314920426 " /><polygon class="region" points="-69.216178894,11.510806084 -68.401298523,11.185581207 -68.129669189,10.48546791 -66.232131958,10.644863129 -65.812728882,10.219971657 -65.091209412,10.043319703 -64.180999756,10.473110199 -63.81822586,10.437949181 -63.641838073,10.488924027 -64.228935241,10.500799179 -64.262718201,10.66255188 -61.854896545,10.755403518 -62.33939743,10.53292942 -62.665859223,10.57313633 -62.903800964,10.521068573 -62.506656647,10.197470665 -62.337753296,9.809537888 -62.200229645,10.020413398 -61.811038971,9.755682945 -61.578079223,9.7879829410001 -61.630428314,9.902324676 -60.867591858,9.456407547 -60.782855988,9.311544419 -60.956783295,9.198073387 -60.846229553,8.9730920800001 -61.012779235,8.8292360300001 -60.822235107,8.867904663 -60.916648865,8.7351341250001 -60.782047272,8.7184791560001 -60.984710693,8.5711183550001 -60.046165466,8.5879907610001 -58.672092438,7.610239028 -58.468128205,7.299810409 -58.614517212,6.4188904760001 -58.473255158,6.811151028 -58.29284668,6.889662265 -57.236293793,6.1846218110001 -57.14112854,5.816272736 -56.943840027,6.000150204 -55.913414001,5.780721665 -55.924175263,5.896571636 -55.467356046,5.002300754 -55.265101861,3.6067468750001 -54.74162044,2.6549624730001 -54.55126356,1.6555888500001 -54.83679888,0.96554515800005 -55.645815622,0.37067990700007 -57.692152087,0.56103678800002 -58.81049876,0.89416132800005 -59.714693942,1.5366158000001 -60.347630569,2.279602499 -63.996930599,3.244275649 -67.022645023,4.59177956 -67.952784521,5.445277079 -69.915839851,5.772452967 -70.983821266,5.420491027 -72.741449796,4.255546576 -73.470750184,3.0748104850001 -73.662327584,2.4426050660001 -74.466559025,2.054545145 -75.150654063,1.9355720950001 -75.895028782,2.1076864410001 -76.275742543,2.3932217620001 -76.513688643,3.059470844 -76.418510203,3.773309146 -75.894235628,4.999128141 -74.972194489,6.1591153800001 -73.705924656,6.652456963 -71.802355852,6.6762515720001 -70.089143928,7.080759943 -69.874992437,10.197853861 -69.52028656,11.504143715 -69.216178894,11.510806084 " />
		  </g>
		</svg>