<?xml version="1.0" encoding="UTF-8"?>
	<svg xmlns:xlink="http://www.w3.org/1999/xlink" 
	xmlns="http://www.w3.org/2000/svg" 
	width="360px" height="180px">
	   <style type="text/css">
		  <![CDATA[     
		  .region 
		  { 
			fill:blue; 
			opacity:0.4; 
			stroke:blue;
		  }
		  ]]>
	   </style>

	<circle id="dot" x="-2" y="-2" r="2" style="stroke:none; stroke-width:0; fill:black; opacity:0.7;"/>


	 <image x="0" y="0" width="360" height="180" xlink:href="map.jpg"/>

 
	 <g transform="translate(180,90) scale(1,-1)">   <use xlink:href="#dot" transform="translate(174.04097,-41.163914)" />   <use xlink:href="#dot" transform="translate(172.803915,-43.814581)" />   <use xlink:href="#dot" transform="translate(174.283,-41.1789)" />   <use xlink:href="#dot" transform="translate(174.2829,-41.1775)" />   <use xlink:href="#dot" transform="translate(174.2822,-41.1781)" />   <use xlink:href="#dot" transform="translate(174.2829,-41.1775)" />   <use xlink:href="#dot" transform="translate(174.2822,-41.1781)" />   <use xlink:href="#dot" transform="translate(174.283,-41.1789)" />   <use xlink:href="#dot" transform="translate(174.2533,-41.1967)" />   <use xlink:href="#dot" transform="translate(169.625855,-43.534824)" />   <use xlink:href="#dot" transform="translate(174.2533,-41.1967)" />   <use xlink:href="#dot" transform="translate(174.233,-41.24212)" />   <use xlink:href="#dot" transform="translate(174.157,-41.204)" />   <use xlink:href="#dot" transform="translate(174.2213,-41.2078)" />   <use xlink:href="#dot" transform="translate(174.1936,-41.2054)" />   <use xlink:href="#dot" transform="translate(174.21722,-41.24024)" />   <use xlink:href="#dot" transform="translate(174.21722,-41.24024)" />   <use xlink:href="#dot" transform="translate(174.1936,-41.2054)" />   <use xlink:href="#dot" transform="translate(174.233,-41.24212)" />   <use xlink:href="#dot" transform="translate(174.157,-41.204)" />   <use xlink:href="#dot" transform="translate(174.2213,-41.2078)" />   <use xlink:href="#dot" transform="translate(174.19321,-41.18472)" />   <use xlink:href="#dot" transform="translate(174.19321,-41.18472)" />   <use xlink:href="#dot" transform="translate(174.3134,-41.11679)" />   <use xlink:href="#dot" transform="translate(174.1795,-41.1075)" />   <use xlink:href="#dot" transform="translate(174.262,-41.196)" />   <use xlink:href="#dot" transform="translate(174.1795,-41.1075)" />   <use xlink:href="#dot" transform="translate(174.262,-41.196)" />   <use xlink:href="#dot" transform="translate(174.3134,-41.11679)" />   <use xlink:href="#dot" transform="translate(172.842235,-43.81281)" />   <use xlink:href="#dot" transform="translate(172.893123,-43.983627)" />   <use xlink:href="#dot" transform="translate(170.675353,-45.706432)" />   <use xlink:href="#dot" transform="translate(170.714008,-45.727129)" />   <use xlink:href="#dot" transform="translate(170.750983,-45.696399)" />   <use xlink:href="#dot" transform="translate(173.683548,-42.409771)" />   <use xlink:href="#dot" transform="translate(173.683548,-42.409771)" />   <use xlink:href="#dot" transform="translate(171.322408,-42.1142)" />   <use xlink:href="#dot" transform="translate(170.699469,-45.658278)" />   <use xlink:href="#dot" transform="translate(174.079,-41.243)" />   <use xlink:href="#dot" transform="translate(174.079,-41.243)" />   <use xlink:href="#dot" transform="translate(174.2816,-41.1421)" />   <use xlink:href="#dot" transform="translate(174.2871,-41.1395)" />   <use xlink:href="#dot" transform="translate(174.2871,-41.1395)" />   <use xlink:href="#dot" transform="translate(174.2877,-41.1352)" />   <use xlink:href="#dot" transform="translate(174.2816,-41.1421)" />   <use xlink:href="#dot" transform="translate(172.911888,-43.823145)" />   <use xlink:href="#dot" transform="translate(174.2877,-41.1352)" />   <use xlink:href="#dot" transform="translate(174.33359,-41.11878)" />   <use xlink:href="#dot" transform="translate(174.33359,-41.11878)" />   <use xlink:href="#dot" transform="translate(171.349782,-42.03948)" />   <use xlink:href="#dot" transform="translate(172.967789,-43.805)" />   <use xlink:href="#dot" transform="translate(172.809377,-43.890549)" />   <use xlink:href="#dot" transform="translate(170.867134,-45.251922)" />   <use xlink:href="#dot" transform="translate(168.606248,-43.871516)" />   <use xlink:href="#dot" transform="translate(172.849919,-43.810296)" />   <use xlink:href="#dot" transform="translate(172.318896,-43.890176)" />   <use xlink:href="#dot" transform="translate(169.055609,-46.781525)" />   <use xlink:href="#dot" transform="translate(169.083457,-46.77846)" />   <use xlink:href="#dot" transform="translate(-169.067004,-46.666405)" />   <use xlink:href="#dot" transform="translate(172.833048,-43.94325)" />   <use xlink:href="#dot" transform="translate(172.781994,-43.744404)" />   <use xlink:href="#dot" transform="translate(-169.136717,-46.698592)" />   <use xlink:href="#dot" transform="translate(174.39178,-36.51398)" />   <use xlink:href="#dot" transform="translate(172.604508,-43.717477)" />   <use xlink:href="#dot" transform="translate(172.927309,-43.824328)" />   <use xlink:href="#dot" transform="translate(170.925671,-45.265079)" />   <use xlink:href="#dot" transform="translate(172.990459,-43.899986)" />   <use xlink:href="#dot" transform="translate(170.82667,-45.77)" />   <use xlink:href="#dot" transform="translate(172.784328,-43.706775)" />   <use xlink:href="#dot" transform="translate(167.566192,-46.390981)" />   <use xlink:href="#dot" transform="translate(172.803877,-43.892245)" />   <use xlink:href="#dot" transform="translate(172.884048,-43.94785)" />   <use xlink:href="#dot" transform="translate(173.75306,-42.576677)" />   <use xlink:href="#dot" transform="translate(172.75,-43.5)" />   <use xlink:href="#dot" transform="translate(174.1167,-41.45)" />   <use xlink:href="#dot" transform="translate(171,-43)" />   <use xlink:href="#dot" transform="translate(174.3412,-41.5812)" />   <use xlink:href="#dot" transform="translate(174.0412,-40.9668)" />   <use xlink:href="#dot" transform="translate(173.8811,-40.9006)" />   <use xlink:href="#dot" transform="translate(174.4041,-40.876)" />   <use xlink:href="#dot" transform="translate(173.9165,-40.6227)" /><polygon class="region" points="169.055609,-46.781525 -169.136717,-46.698592 -169.067004,-46.666405 174.39178,-36.51398 174.4041,-40.876 174.3412,-41.5812 172.990459,-43.899986 170.82667,-45.77 169.083457,-46.77846 169.055609,-46.781525 " />
		  </g>
		</svg>