<?xml version="1.0" encoding="UTF-8"?>
	<svg xmlns:xlink="http://www.w3.org/1999/xlink" 
	xmlns="http://www.w3.org/2000/svg" 
	width="360px" height="180px">
	   <style type="text/css">
		  <![CDATA[     
		  .region 
		  { 
			fill:blue; 
			opacity:0.4; 
			stroke:blue;
		  }
		  ]]>
	   </style>

	<circle id="dot" x="-2" y="-2" r="2" style="stroke:none; stroke-width:0; fill:black; opacity:0.7;"/>


	 <image x="0" y="0" width="360" height="180" xlink:href="map.jpg"/>

 
	 <g transform="translate(180,90) scale(1,-1)"><polygon class="region" points="173.607131958,-42.421916962 173.412460408,-44.128750792 173.234123916,-44.342754582 171.878766578,-44.735094864 171.545871793,-45.032322351 171.010862317,-46.185564999 169.952732464,-46.994023763 168.472313587,-46.918097063 167.384144228,-46.41586505 167.349060059,-46.196166992 167.67880249,-46.136833191 167.782302856,-46.388942719 168.126556397,-46.347831726 168.276641846,-46.500694275 168.337219239,-46.398639679 168.384826661,-46.486110687 168.226699829,-46.517192841 168.327636719,-46.625915528 169.35508728,-46.638942718 169.807052612,-46.449111938 170.29560852,-45.961639405 170.740753174,-45.875221252 170.725494385,-45.772693634 170.666778564,-45.833751679 170.505661011,-45.884223938 170.709945679,-45.783611298 170.596282959,-45.711223602 171.151443481,-44.929527282 171.251724243,-44.367668152 172.187835694,-43.906970977 173.106826783,-43.833557129 173.0493927,-43.653110504 172.653137207,-43.641223908 172.683105469,-43.609054565 172.807281494,-43.589637757 172.673080444,-43.191860199 173.25491333,-42.941612244 173.607131958,-42.421916962 " /><polygon class="region" points="168.430770874,-46.579223633 168.446441651,-46.582832337 168.454910279,-46.581111908 168.436004638,-46.576667786 168.430770874,-46.579223633 " /><polygon class="region" points="172.684188843,-43.629665375 172.689865112,-43.632915497 172.7006073,-43.630001068 172.690246582,-43.623279572 172.684188843,-43.629665375 " /><polygon class="region" points="168.55783081,-46.769443512 168.567214966,-46.773029328 168.57144165,-46.766082764 168.563034057,-46.763248443 168.55783081,-46.769443512 " /><polygon class="region" points="167.848754883,-46.447498322 167.844497681,-46.443164825 167.825942994,-46.446472168 167.842697143,-46.455249786 167.848754883,-46.447498322 " /><polygon class="region" points="168.514450073,-46.741638184 168.470687866,-46.773803711 168.510192871,-46.800361633 168.541748047,-46.75416565 168.514450073,-46.741638184 " /><polygon class="region" points="173.806137085,-42.261585236 174.272384643,-41.748584748 174.029998779,-41.446804047 174.313522339,-41.216945648 174.201309204,-41.280056 173.90838623,-41.274471283 174.154190064,-41.217945099 174.146270752,-41.113555908 174.244995117,-41.12941742 174.235641479,-41.092861175 174.271911621,-41.070999146 174.310668946,-41.018611908 174.309051513,-40.996418 174.21383667,-41.074054718 173.9924469,-40.971832275 174.045394898,-41.113224029 173.871887207,-41.210777282 174.046966553,-41.163581848 174.117218018,-41.178611756 173.714691162,-41.286724091 173.947921753,-41.067165375 173.754272461,-41.118888855 173.780883789,-41.011585236 173.869033814,-41.020942688 174.017715454,-40.915779113 173.835449219,-40.929527283 173.190612793,-41.333999634 173.074615479,-41.278251648 172.99975586,-41.149860382 173.060531616,-40.860748291 172.65322876,-40.65625 172.751998902,-40.519359589 173.018966675,-40.555500031 172.658798218,-40.503582001 172.107131958,-40.886165619 172.058197021,-41.391139985 171.74343872,-41.69933319 171.454666138,-41.753250122 171.140167237,-42.561637879 170.831497192,-42.860111236 169.578826904,-43.602748871 168.613998413,-43.971778869 170.857915644,-42.649124959 171.674042664,-41.414471263 171.98208426,-40.58579946 173.335388941,-39.719901535 173.640629376,-40.215550022 174.137695476,-40.455019057 174.506257559,-40.918693936 174.566016342,-41.556003709 174.384002897,-41.906240108 173.806137085,-42.261585236 " /><polygon class="region" points="173.974914551,-40.771137238 173.978942871,-40.780029297 173.985031128,-40.783443451 173.977920532,-40.769527435 173.974914551,-40.771137238 " /><polygon class="region" points="174.016693115,-41.19152832 174.02796936,-41.196945191 174.032501221,-41.193916321 174.023330688,-41.189861297 174.016693115,-41.19152832 " /><polygon class="region" points="174.097366333,-40.885639191 174.094726562,-40.892749787 174.100891113,-40.900943756 174.105636596,-40.897251129 174.097366333,-40.885639191 " /><polygon class="region" points="173.9581604,-40.780639649 173.965164184,-40.787693023 173.968948364,-40.773693085 173.962921142,-40.77419281 173.9581604,-40.780639649 " /><polygon class="region" points="173.054473877,-40.981861115 173.061386108,-40.985553742 173.067779541,-40.977527618 173.058700562,-40.974998474 173.054473877,-40.981861115 " /><polygon class="region" points="173.983551026,-40.763305664 173.988693237,-40.764167786 173.991531372,-40.749279022 173.984634399,-40.752750396 173.983551026,-40.763305664 " /><polygon class="region" points="171.450439453,-41.845695495 171.453216553,-41.850471496 171.455413818,-41.822471618 171.451995849,-41.82447052 171.450439453,-41.845695495 " /><polygon class="region" points="174.268997192,-41.096443177 174.275497437,-41.104862213 174.278244019,-41.087638855 174.271057129,-41.092056275 174.268997192,-41.096443177 " /><polygon class="region" points="173.152633667,-41.290943146 173.140502929,-41.287693024 173.163589477,-41.303779602 173.159332276,-41.297111511 173.152633667,-41.290943146 " /><polygon class="region" points="174.269256592,-41.16583252 174.285690308,-41.168888092 174.290420532,-41.160831451 174.274032592,-41.160972595 174.269256592,-41.16583252 " /><polygon class="region" points="173.125778198,-41.282859802 173.137466431,-41.285415649 173.105911255,-41.270278931 173.113189697,-41.278305054 173.125778198,-41.282859802 " /><polygon class="region" points="173.996551513,-40.668640136 173.982803345,-40.676055908 173.982284546,-40.68202591 173.998504638,-40.679389954 173.996551513,-40.668640136 " /><polygon class="region" points="173.168746948,-41.289112091 173.157531739,-41.291168213 173.176330566,-41.303081513 173.175140381,-41.291862487 173.168746948,-41.289112091 " /><polygon class="region" points="174.268493653,-41.134277344 174.296890258,-41.114944458 174.295913696,-41.111278534 174.279632568,-41.115581512 174.268493653,-41.134277344 " /><polygon class="region" points="174.050827026,-40.905918121 174.053909302,-40.912082672 174.084197998,-40.895362854 174.081726074,-40.891944885 174.050827026,-40.905918121 " /><polygon class="region" points="173.885635376,-41.021083832 173.872772217,-41.032833099 173.910446167,-41.045192718 173.907409668,-41.019554138 173.885635376,-41.021083832 " /><polygon class="region" points="174.223358154,-41.196723938 174.251327514,-41.182250976 174.240386963,-41.162445068 174.22958374,-41.168498993 174.223358154,-41.196723938 " /><polygon class="region" points="173.411697388,-41.145168305 173.424972535,-41.169109345 173.437225342,-41.163887024 173.433807373,-41.142360687 173.411697388,-41.145168305 " /><polygon class="region" points="174.076354981,-40.962055206 174.07850647,-40.942359924 174.048965454,-40.949443817 174.05078125,-40.994556427 174.076354981,-40.962055206 " /><polygon class="region" points="173.105194092,-41.261638641 173.148727417,-41.285888672 173.194274902,-41.287971497 173.173339844,-41.273529052 173.105194092,-41.261638641 " /><polygon class="region" points="174.247253418,-41.227890014 174.372085572,-41.199390411 174.387145996,-41.095722198 174.33958435,-41.181640625 174.161590576,-41.244220734 174.247253418,-41.227890014 " /><polygon class="region" points="173.831695557,-40.91583252 173.95324707,-40.798999786 173.935302734,-40.789001465 173.956420898,-40.760971069 173.960723877,-40.715362549 173.949645996,-40.696220398 173.831695557,-40.91583252 " /><polygon class="region" points="177.005957419,-39.628938265 177.185245797,-39.65422353 177.197390126,-39.696728683 176.978792195,-40.170357534 175.733998421,-41.639821404 175.412173689,-41.73697604 175.225536136,-41.649574014 175.106465963,-41.441039777 174.939470626,-41.475096322 174.643132294,-41.365182598 174.886413574,-41.235668182 174.870773315,-41.413665771 175.204437256,-41.429943085 175.302719116,-41.617862702 175.810089111,-41.36258316 176.62097168,-40.495082855 177.005957419,-39.628938265 " /><polygon class="region" points="173.791107178,-42.270584107 173.806137085,-42.261585236 173.697143555,-42.413776398 173.690216065,-42.359500885 173.791107178,-42.270584107 " /><polygon class="region" points="174.042282104,-36.396720886 174.764495849,-37.341251374 174.843994141,-37.797416687 174.536499023,-38.869945526 173.751281738,-39.30872345 173.949020386,-39.537693023 175.110229492,-40.034694672 175.24736023,-40.485694885 175.00440979,-40.881084442 174.806864919,-40.199829258 173.910273231,-40.037723595 173.519955084,-39.381764417 173.697798796,-38.861879729 174.19767499,-38.323057664 174.283328937,-37.792003191 174.173362774,-37.185516704 173.238350781,-35.95900872 173.440719605,-35.640083313 174.042282104,-36.396720886 " />
		  </g>
		</svg>