<?xml version="1.0" encoding="UTF-8"?>
	<svg xmlns:xlink="http://www.w3.org/1999/xlink" 
	xmlns="http://www.w3.org/2000/svg" 
	width="360px" height="180px">
	   <style type="text/css">
		  <![CDATA[     
		  .region 
		  { 
			fill:blue; 
			opacity:0.4; 
			stroke:blue;
		  }
		  ]]>
	   </style>

	<circle id="dot" x="-2" y="-2" r="2" style="stroke:none; stroke-width:0; fill:black; opacity:0.7;"/>


	 <image x="0" y="0" width="360" height="180" xlink:href="map.jpg"/>

 
	 <g transform="translate(180,90) scale(1,-1)">   <use xlink:href="#dot" transform="translate(30.3633,0.3105)" />   <use xlink:href="#dot" transform="translate(25.33333,1.55)" />   <use xlink:href="#dot" transform="translate(40.139,-1.878)" />   <use xlink:href="#dot" transform="translate(40.139,-1.878)" />   <use xlink:href="#dot" transform="translate(40.138976,-1.876464)" />   <use xlink:href="#dot" transform="translate(40.138976,-1.876464)" />   <use xlink:href="#dot" transform="translate(40.138976,-1.876464)" />   <use xlink:href="#dot" transform="translate(40.138976,-1.876464)" />   <use xlink:href="#dot" transform="translate(40.138976,-1.876464)" />   <use xlink:href="#dot" transform="translate(40.138976,-1.876464)" />   <use xlink:href="#dot" transform="translate(40.138976,-1.876464)" />   <use xlink:href="#dot" transform="translate(40.138976,-1.876464)" />   <use xlink:href="#dot" transform="translate(40.138976,-1.876464)" />   <use xlink:href="#dot" transform="translate(40.138976,-1.876464)" />   <use xlink:href="#dot" transform="translate(40.138976,-1.876464)" />   <use xlink:href="#dot" transform="translate(40.138976,-1.876464)" />   <use xlink:href="#dot" transform="translate(40.138976,-1.876464)" />   <use xlink:href="#dot" transform="translate(40.138976,-1.876464)" />   <use xlink:href="#dot" transform="translate(40.133056,-1.961533)" />   <use xlink:href="#dot" transform="translate(40.138976,-1.876464)" />   <use xlink:href="#dot" transform="translate(40.133056,-1.961533)" />   <use xlink:href="#dot" transform="translate(40.138976,-1.876464)" />   <use xlink:href="#dot" transform="translate(40.138976,-1.876464)" />   <use xlink:href="#dot" transform="translate(40.138976,-1.876464)" />   <use xlink:href="#dot" transform="translate(40.133056,-1.961533)" />   <use xlink:href="#dot" transform="translate(40.133056,-1.961533)" />   <use xlink:href="#dot" transform="translate(40.133056,-1.961533)" />   <use xlink:href="#dot" transform="translate(40.133056,-1.961533)" />   <use xlink:href="#dot" transform="translate(40.138976,-1.876464)" />   <use xlink:href="#dot" transform="translate(40.138976,-1.876464)" />   <use xlink:href="#dot" transform="translate(40.138976,-1.876464)" />   <use xlink:href="#dot" transform="translate(40.133056,-1.961533)" />   <use xlink:href="#dot" transform="translate(40.138976,-1.876464)" />   <use xlink:href="#dot" transform="translate(40.133056,-1.961533)" />   <use xlink:href="#dot" transform="translate(40.133056,-1.961533)" />   <use xlink:href="#dot" transform="translate(40.133056,-1.961533)" />   <use xlink:href="#dot" transform="translate(40.133056,-1.961533)" />   <use xlink:href="#dot" transform="translate(40.138976,-1.876464)" />   <use xlink:href="#dot" transform="translate(40.133056,-1.961533)" />   <use xlink:href="#dot" transform="translate(40.133056,-1.961533)" />   <use xlink:href="#dot" transform="translate(40.138976,-1.876464)" />   <use xlink:href="#dot" transform="translate(40.138976,-1.876464)" />   <use xlink:href="#dot" transform="translate(40.133056,-1.961533)" />   <use xlink:href="#dot" transform="translate(40.133056,-1.961533)" />   <use xlink:href="#dot" transform="translate(40.133056,-1.961533)" />   <use xlink:href="#dot" transform="translate(40.133056,-1.961533)" />   <use xlink:href="#dot" transform="translate(40.133056,-1.961533)" />   <use xlink:href="#dot" transform="translate(40.133056,-1.961533)" />   <use xlink:href="#dot" transform="translate(40.133056,-1.961533)" />   <use xlink:href="#dot" transform="translate(40.133056,-1.961533)" />   <use xlink:href="#dot" transform="translate(40.133056,-1.961533)" />   <use xlink:href="#dot" transform="translate(40.133056,-1.961533)" />   <use xlink:href="#dot" transform="translate(40.133056,-1.961533)" />   <use xlink:href="#dot" transform="translate(40.133056,-1.961533)" />   <use xlink:href="#dot" transform="translate(40.133056,-1.961533)" />   <use xlink:href="#dot" transform="translate(40.133056,-1.961533)" />   <use xlink:href="#dot" transform="translate(40.133056,-1.961533)" />   <use xlink:href="#dot" transform="translate(40.133056,-1.961533)" />   <use xlink:href="#dot" transform="translate(40.133056,-1.961533)" />   <use xlink:href="#dot" transform="translate(40.133056,-1.961533)" />   <use xlink:href="#dot" transform="translate(40.133056,-1.961533)" />   <use xlink:href="#dot" transform="translate(40.133056,-1.961533)" />   <use xlink:href="#dot" transform="translate(40.133056,-1.961533)" />   <use xlink:href="#dot" transform="translate(40.133056,-1.961533)" />   <use xlink:href="#dot" transform="translate(40.133056,-1.961533)" />   <use xlink:href="#dot" transform="translate(40.133056,-1.961533)" />   <use xlink:href="#dot" transform="translate(40.133056,-1.961533)" />   <use xlink:href="#dot" transform="translate(40.166667,-2.25)" />   <use xlink:href="#dot" transform="translate(40.166667,-2.25)" />   <use xlink:href="#dot" transform="translate(18.65,3.25)" />   <use xlink:href="#dot" transform="translate(18.633333,3.166667)" />   <use xlink:href="#dot" transform="translate(18.633333,3.166667)" /><polygon class="region" points="40.166667,-2.25 18.633333,3.166667 18.65,3.25 40.138976,-1.876464 40.166667,-2.25 " />
		  </g>
		</svg>