<?xml version="1.0" encoding="UTF-8"?>
	<svg xmlns:xlink="http://www.w3.org/1999/xlink" 
	xmlns="http://www.w3.org/2000/svg" 
	width="360px" height="180px">
	   <style type="text/css">
		  <![CDATA[     
		  .region 
		  { 
			fill:blue; 
			opacity:0.4; 
			stroke:blue;
		  }
		  ]]>
	   </style>

	<circle id="dot" x="-2" y="-2" r="2" style="stroke:none; stroke-width:0; fill:black; opacity:0.7;"/>


	 <image x="0" y="0" width="360" height="180" xlink:href="map.jpg"/>

 
	 <g transform="translate(180,90) scale(1,-1)"><polygon class="region" points="34.232774186,-10.932288568 34.329396118,-11.638954857 34.028163035,-12.173217306 34.177832303,-12.438453983 34.026015981,-12.602810954 34.131540254,-13.268425599 33.969195219,-13.45512239 33.587684385,-13.187253081 33.271637488,-12.127050191 33.245092345,-11.41545236 33.410540488,-11.163423386 33.245092345,-10.878970583 34.247930568,-10.407498857 34.232774186,-10.932288568 " /><polygon class="region" points="25.510692173,0.027505802000064 25.402947602,-0.44007080199998 25.86170577,-1.36459108 25.753144677,-2.3661547159999 26.04380825,-3.7214174 25.784662414,-4.190681481 25.101778117,-4.358776077 24.741075129,-3.780950902 25.195740086,-2.2740460639999 25.013933227,-1.941472543 25.044973422,-1.517995592 24.326614616,-0.59565835899997 24.18776375,-0.17392102399998 25.038742643,0.11674254900004 25.510692173,0.027505802000064 " /><polygon class="region" points="40.204315186,-2.7262976169999 40.123077392,-3.287776471 39.777946472,-3.587569236 39.831573486,-3.826463223 39.565685273,-4.0454235079999 39.676116943,-4.0903286929999 39.459278107,-4.572113037 39.196933746,-4.6726255419999 38.983603979,-5.3984838879999 38.599347794,-5.3561822479999 37.611566701,-4.5531227139999 37.382647886,-3.8230573029999 36.746299784,-3.371103535 36.815503733,-3.09568517 37.258017538,-2.7554244319999 37.955630099,-2.625161471 38.136464538,-2.930319588 37.809550541,-3.507520557 37.834298522,-3.8725532629999 38.848965703,-4.936716405 39.146224575,-4.051410373 40.0348103,-2.5014383879999 40.283979975,-2.623556199 40.204315186,-2.7262976169999 " /><polygon class="region" points="35.734445783,-3.724058047 35.417985513,-3.5545257599999 35.531007038,-3.158950424 35.937884527,-3.373691321 35.734445783,-3.724058047 " /><polygon class="region" points="28.966824634,-2.586427613 28.764288679,-2.46372307 29.026486139,-2.2852258039999 29.046107377,-2.400313863 29.372844408,-2.028843679 29.158021059,-1.554521736 29.578629805,-1.224955908 29.828614928,-1.23034625 29.907858371,-1.4834140199999 29.473462264,-1.7884733449999 29.469240284,-2.366884639 28.966824634,-2.586427613 " /><polygon class="region" points="37.466846769,-0.24869953199993 37.538159195,-1.056907038 37.411381548,-1.302538731 37.031048604,-1.468934394 36.523938012,-1.4293163789999 36.167375877,-0.74788652099994 36.096063449,0.084091794000074 36.956148162,0.26943406500004 37.342394153,0.062601180000058 37.466846769,-0.24869953199993 " /><polygon class="region" points="41.916812897,-1.1353654869999 41.87525177,-1.2194920769999 41.841362,-1.171584487 41.800128937,-1.141226768 41.766559601,-1.142737031 41.702510834,-1.198361158 41.843620301,-1.2310987709999 41.314941406,-1.9584487679999 41.015594482,-2.050219774 41.014564514,-1.90256691 40.986263275,-1.908133269 40.940868378,-2.079700709 40.92017746,-2.0000870229999 40.847660065,-1.975255132 40.988872528,-2.258886576 40.771255493,-2.253391028 40.771595001,-2.451691389 40.287695257,-2.6242564999999 40.036043813,-2.5002048759999 39.916135582,-1.0598575239999 40.455240556,-2.0192011359999 41.626401776,-1.0759419829999 41.844430648,-0.98882662099993 41.916812897,-1.1353654869999 " /><polygon class="region" points="39.875156317,-0.56553897999993 39.624618847,-0.67688896599998 38.806196447,-0.025491544999966 39.435323871,0.024615949000065 39.875156317,-0.56553897999993 " /><polygon class="region" points="41.132918556,-2.1256108819999 40.994057909,-2.204097335 40.951795973,-2.170891528 41.070531889,-2.04108701 41.132918556,-2.1256108819999 " /><polygon class="region" points="36.186975622,4.6085937070001 36.078573327,4.543344339 35.818407818,4.869651945 35.840088277,5.370301677 35.493200932,5.6534571560001 34.821106701,7.1370013600001 35.312982116,8.365060617 36.794028476,9.437626251 37.50112882,9.028203282 37.613277574,8.759046273 36.750667557,7.115152128 36.490502049,6.831205545 35.99185149,6.6783814770001 35.796727358,6.307433718 36.23033654,5.54453519 36.186975622,4.6085937070001 " /><polygon class="region" points="36.976766555,11.448850253 36.830614484,11.493369238 36.811551171,11.603607405 36.983120992,11.569687865 36.976766555,11.448850253 " /><polygon class="region" points="38.111174753,10.154537533 38.059279121,10.265248215 38.214966018,10.317143849 38.194207766,10.209892874 38.111174753,10.154537533 " /><polygon class="region" points="29.574502984,-3.323639058 29.14045334,-3.3601460909999 29.048411456,-4.0769662879999 28.838448962,-4.0423570849999 28.701931238,-3.1434618019999 28.949936713,-2.645535336 29.996515197,-2.038420048 30.690202439,-1.993240569 30.856138503,-2.227503247 30.675571211,-2.6023818219999 29.574502984,-3.323639058 " /><polygon class="region" points="31.702385919,-0.84511425699998 31.788195648,-0.99122271699997 31.522809034,-1.294488993 30.69939268,-1.12750246 29.976401878,-1.485306825 29.634133761,-1.4211684319999 29.490179852,-1.0065811769999 29.593826667,-0.67836626699994 30.169642298,-0.94899961399995 31.076951624,-0.76017825399993 31.672521099,-0.34439319999996 31.879803333,-0.45317251799997 31.702385919,-0.84511425699998 " /><polygon class="region" points="30.377536832,1.363779901 30.516391239,1.754629343 30.974096507,2.0786229600001 30.593532577,1.692916274 30.377536832,1.363779901 " /><polygon class="region" points="35.995155335,-18.920936584 35.683124542,-19.085830689 34.895626068,-19.846309662 34.630752563,-19.66314888 34.781890869,-19.851579666 34.719990541,-20.561684261 35.120341539,-20.978376116 35.291920538,-22.400030681 35.393160977,-22.463249898 35.475481898,-22.096547612 35.54657724,-22.234996434 35.602705141,-22.923498685 35.33001709,-23.679275513 35.341690064,-23.995189667 35.548961639,-23.785089493 35.500255585,-24.113182068 35.138580322,-24.594858169 34.003093467,-24.987363949 33.881030221,-24.834784891 34.003093467,-24.254984469 34.404182397,-23.8316889 34.964074452,-23.707268442 35.067758165,-23.416954044 35.109231651,-22.815588504 34.811086027,-21.346513865 33.107329631,-21.676013923 32.801939334,-21.587611468 32.528695384,-21.169708956 32.463271446,-19.453490039 32.844262376,-18.533856759 35.013674922,-17.316493466 35.05079028,-16.908224532 34.741495634,-16.419538991 34.835495404,-15.818406094 35.307197595,-14.914976474 35.074889154,-13.738988116 36.005984495,-14.65290217 36.100267762,-14.913502508 36.024506474,-15.821211591 35.687937252,-16.184475059 35.650821894,-16.5865581 36.349791874,-16.785450454 37.641843525,-17.503480878 36.983945582,-17.998889905 36.821065484,-17.894753449 36.943893099,-18.111036859 36.256316438,-18.887443658 35.995155335,-18.920936584 " /><polygon class="region" points="37.702617947,-15.920694053 37.321731526,-15.925478141 36.909073094,-15.584963537 36.664905446,-15.035586331 36.786989269,-14.638813905 37.214282652,-14.608292948 37.702617947,-15.020325853 37.885743683,-15.49340067 37.702617947,-15.920694053 " /><polygon class="region" points="32.631267547,-25.936788559 32.452415467,-25.975572586 32.443405151,-26.061346054 32.610988617,-26.029506683 32.702671051,-26.293512345 32.669380188,-26.36639595 32.675979614,-26.394065857 32.711307525,-26.316484451 32.689662933,-26.200246811 32.885410308,-26.284545899 32.96269182,-26.086949617 32.895973205,-26.856843949 32.552589417,-28.165281295 32.416923523,-28.492521286 32.251811348,-28.492999784 32.294152983,-26.079916461 32.444449758,-25.931655006 32.631267547,-25.936788559 " /><polygon class="region" points="34.694149453,-16.971594858 33.900738349,-16.727327088 33.416168073,-16.053024835 33.624941959,-16.006630638 34.150742858,-16.308192918 34.714493328,-16.737499025 34.694149453,-16.971594858 " /><polygon class="region" points="31.890164888,-22.731437854 31.689827786,-22.703613257 31.255764065,-22.403107604 31.639743511,-22.364153167 31.890164888,-22.731437854 " /><polygon class="region" points="35.992507935,-18.923015595 35.995155335,-18.920936584 35.991510356,-18.93277397 35.989883423,-18.928770065 35.992507935,-18.923015595 " /><polygon class="region" points="29.646186828,-31.553903579 28.505968094,-32.610137939 27.065657573,-33.540283024 27.068649479,-33.193964806 28.03575431,-32.600995419 29.565116026,-31.151676455 29.493175112,-29.979190487 30.040606558,-29.086081482 30.360082403,-28.955386818 30.550945036,-29.246888231 30.409909046,-29.957492642 30.659183502,-30.456483841 29.646186828,-31.553903579 " /><polygon class="region" points="27.365134171,-32.925716749 26.675796124,-32.785901152 26.60902175,-32.351867723 27.076442366,-32.140415541 27.944509222,-31.394768368 28.790317955,-31.250090559 28.979512013,-31.361381182 28.020451532,-31.993155884 27.365134171,-32.925716749 " /><polygon class="region" points="31.067835989,-26.079241028 30.858821499,-26.092725833 30.337594662,-25.565918923 30.521701355,-24.697048435 29.83397626,-23.941899312 29.941854706,-23.591294362 30.258747642,-23.591294362 30.407080506,-23.921672103 31.034123974,-24.488033946 30.993669558,-25.485909574 31.317304896,-25.843256927 31.067835989,-26.079241028 " /><polygon class="region" points="30.468954458,-23.179600998 29.590597322,-23.196411231 29.446017192,-23.011669953 29.7753386,-22.810864217 30.377755809,-22.77070307 30.602658234,-22.979541035 30.468954458,-23.179600998 " /><polygon class="region" points="31.38627754,-28.819851611 31.87033185,-28.616548801 32.180126608,-28.732721835 31.599261436,-29.042516594 30.485936523,-28.752084008 30.848977256,-28.597186629 31.38627754,-28.819851611 " /><polygon class="region" points="25.885979149,-32.85921524 25.651922396,-32.863804587 25.362566776,-32.719126778 25.807729267,-32.48541647 26.297408007,-32.52993272 26.26402082,-32.797030214 25.885979149,-32.85921524 " /><polygon class="region" points="25.607406147,-33.420257701 25.395953963,-33.253321766 25.663051458,-33.052998646 26.141601135,-33.075256771 26.308537069,-33.264450829 25.607406147,-33.420257701 " /><polygon class="region" points="31.876924335,-26.85461736 31.735333875,-26.820905346 31.620713026,-26.227573891 31.856697127,-26.052271416 32.072454019,-26.214089086 31.876924335,-26.85461736 " /><polygon class="region" points="31.376224127,-28.005326093 31.02978087,-27.965211611 31.007909307,-27.807981514 31.452806321,-27.724524717 31.522094973,-27.899569731 31.376224127,-28.005326093 " /><polygon class="region" points="32.145724163,-27.5765402 31.98996656,-27.555572831 32.007938591,-27.211108902 32.085817392,-27.223090256 32.145724163,-27.5765402 " /><polygon class="region" points="32.136738147,-28.160631208 31.948031822,-28.103719777 32.058859346,-27.900036758 32.157705516,-27.959943528 32.136738147,-28.160631208 " /><polygon class="region" points="30.476671588,-27.376116913 30.369748986,-27.357447887 30.369748986,-27.259011207 30.609051952,-27.289560521 30.476671588,-27.376116913 " /><polygon class="region" points="13.21325655,-9.579088349 13.155952454,-9.3406572339999 12.999887467,-9.0929622649999 12.998293876,-9.0364217759999 13.400024414,-8.7453775399999 13.39897728,-8.403038979 12.613658048,-6.712944544 12.698386425,-6.589512445 13.026747561,-6.806343539 13.563040338,-6.7991044029999 13.667992896,-7.1664383579999 13.340016151,-7.389462545 13.360516022,-7.6044855129999 13.746707315,-8.2159639409999 15.377638463,-8.1994640739999 15.23252174,-8.6493259129999 14.115122978,-8.6493259129999 13.955494583,-8.707372602 13.940982912,-8.997606047 14.797171573,-9.491002903 15.871035319,-9.491002903 16.117733747,-9.5635612639999 16.146757092,-9.766724675 15.421173479,-9.969888087 14.315805168,-9.913505507 14.638804061,-11.036563947 14.491174598,-12.746263938 14.835053937,-13.333724476 14.627293503,-13.548649063 13.717446085,-13.54148491 13.366402593,-15.117598548 13.187298771,-15.29670237 13.008194949,-15.146255159 12.929389267,-12.832233773 13.43087997,-12.552831811 13.731774391,-12.044176955 13.894593865,-11.002030402 13.21325655,-9.579088349 " /><polygon class="region" points="31.201904013,-8.631190349 31.16540864,-8.4328916219999 32.172675867,-7.7226810609999 33.658516198,-8.713628324 34.248452258,-8.5169829709999 35.047324005,-7.736546726 35.594243894,-7.8963210749999 35.502957982,-8.370898079 34.490754664,-9.671004957 34.343800794,-9.751592564 33.9591186,-9.5244818469999 33.900394271,-9.822106864 34.248804653,-10.409028361 33.525567097,-10.521387239 33.136504202,-10.904873254 32.475326521,-13.334794859 32.057189479,-14.268634251 31.609689856,-14.543946372 30.211903189,-14.785283572 29.884027704,-14.578204318 29.858142798,-14.293470345 31.318480707,-12.805154607 31.736617748,-11.759812004 31.792369353,-10.268456557 31.201904013,-8.631190349 " /><polygon class="region" points="39.295170376,-7.742704255 39.449047089,-8.0065917969999 39.294635772,-8.509935379 39.555709839,-8.929037094 39.447551727,-8.89000988 39.481460571,-9.0973768229999 39.616832733,-9.071944237 39.562267304,-9.4259405139999 39.80367279,-9.8688697809999 39.708026886,-9.9818487159999 40.411212921,-10.307050705 40.39522934,-10.524394035 40.513979696,-10.482841908 40.589762763,-10.686873241 40.384827935,-11.317154872 40.468157561,-11.801508325 40.10575598,-11.899663755 39.552006867,-11.899663755 38.760936706,-11.306361135 36.827784383,-8.587730087 36.313491295,-7.3877128829999 36.300304294,-7.0052898179999 36.650807761,-6.436107262 38.001427582,-6.055825657 38.678833488,-5.425603297 38.871252145,-5.4243118959999 38.988612443,-5.491189853 38.782400037,-6.005876465 38.857488921,-6.373651476 39.54950572,-6.996836215 39.295170376,-7.742704255 " /><polygon class="region" points="39.652526856,-7.9958858489999 39.587593078,-7.944756985 39.905345916,-7.6413817399999 39.829639435,-7.911570549 39.652526856,-7.9958858489999 " /><polygon class="region" points="29.428984058,-6.5079770049999 29.778706027,-7.052763018 30.14514777,-7.2854465579999 30.270546085,-7.842772404 30.588221817,-8.156268192 30.465537594,-8.5108652499999 31.178319234,-8.7536177759999 31.792369353,-10.268456557 31.778431452,-11.494991878 31.52237768,-12.506629082 30.196712517,-13.821121434 29.852887137,-14.38807225 27.433107075,-14.806292306 26.533002021,-14.810199643 25.317075097,-14.482092378 23.116826377,-13.266165454 22.769418685,-12.474847932 22.808019539,-11.625629128 24.014082363,-9.3818181 26.902025725,-5.6597487519999 27.622957755,-6.2348325569999 28.127217004,-6.2704171079999 28.494520148,-6.1049881869999 29.004362045,-5.0522590859999 29.229740069,-4.0557432849999 29.094588551,-5.08122284 29.377431418,-5.6274021689999 29.186547316,-6.078836103 29.428984058,-6.5079770049999 " /><polygon class="region" points="29.044427744,-1.55273111 29.226520559,-1.476527888 29.36385519,-1.4668903699999 28.995220124,-1.69658455 29.044427744,-1.55273111 " /><polygon class="region" points="26.64110365,4.0160374020001 26.838279724,3.507854939 27.743122981,3.3072967360001 29.772616013,2.417442099 30.498550059,2.269132993 31.496996163,2.4432341 32.284414882,2.2448984710001 32.364351767,1.9491319970001 30.444123777,0.10170681000005 30.077499389,0.069166661000054 30.148164159,-0.075868673999935 29.883331299,-0.19888931499997 29.749164581,-0.076388895999969 29.519721985,-0.16000002599998 29.311664581,-0.49138891699994 29.374443054,-0.69527780999994 29.653117703,-0.47858163599994 29.568663142,-1.2191905309999 29.230260847,-1.6925900279999 29.069721222,-1.5872223379999 29.031108856,-1.6213889119999 28.855831146,-2.1411113739999 28.969165802,-2.27888918 28.833885193,-2.3997225759999 29.239354543,-3.058917825 29.050919632,-4.9076706389999 28.524656784,-6.0755704449999 27.957567579,-6.3030655319999 27.014616923,-5.8348872349999 26.925597106,-4.8029167619999 25.993591913,-4.0390226499999 25.94858871,-2.832717268 25.757599504,-2.37390412 25.859679941,-1.382736004 25.431600689,-0.60780279299996 25.55830716,-0.16485360499996 25.475506253,0.27799196900003 23.623347301,1.1726686490001 23.116212272,1.845352927 22.692975505,2.0610913140001 22.864517487,2.0491058480001 23.397750854,2.6200749870001 23.999450764,2.8730697840001 24.331664597,2.825601955 24.947839737,3.471455335 25.812789917,3.530606985 25.861099243,3.6964790820001 26.219480515,3.664043903 26.64110365,4.0160374020001 " /><polygon class="region" points="31.332775116,2.261666298 30.496109009,1.5027775770001 30.389442443,1.2730555530001 30.506664276,1.211111069 30.533332825,1.004444361 31.375831604,1.826388836 31.471759796,2.400208473 31.332775116,2.261666298 " /><polygon class="region" points="34.988277452,-1.650273587 34.633401557,-1.470105825 34.907996431,-0.17300010399992 34.307931621,1.030320267 34.683644174,1.352595246 35.427211655,0.77568944100005 35.696434364,-0.096079329999952 35.523362622,-1.217840617 35.25033965,-1.568379149 34.988277452,-1.650273587 " /><polygon class="region" points="33.720405692,3.6892517160001 32.873720113,3.8127266760001 32.854719823,4.1826111820001 33.260609856,4.4742966540001 33.938844819,4.382231018 34.127154412,3.885093693 33.720405692,3.6892517160001 " /><polygon class="region" points="30.511665344,1.041110992 30.50471878,1.040833235 30.508609772,1.0491664410001 30.512775421,1.046666622 30.511665344,1.041110992 " /><polygon class="region" points="42.599136352,-0.28872847599996 42.63734281,0.54590611200007 42.066254946,2.2380183020001 42.446980189,3.027670657 42.470706355,3.818897212 42.241759199,4.165588621 42.640781386,3.8548746220001 42.587989537,2.950115515 42.305970839,2.2309678350001 42.820654963,0.60936032000006 42.827705431,0.17223133700003 42.599136352,-0.28872847599996 " /><polygon class="region" points="43.257783946,0.76447060300006 43.321238153,1.05353977 43.817963956,1.482501127 45.381915036,2.3056332740001 43.257783946,0.76447060300006 " /><polygon class="region" points="29.022499084,-2.2705559729999 28.980274201,-2.197778225 29.104721069,-1.9211113449999 29.095275879,-2.21194458 29.022499084,-2.2705559729999 " /><polygon class="region" points="39.51292038,-6.4761352539999 39.185314178,-6.16457653 39.299869537,-5.7186789519999 39.41014862,-6.196889878 39.529277801,-6.176177024 39.51292038,-6.4761352539999 " />
		  </g>
		</svg>