<?xml version="1.0" encoding="UTF-8"?>
	<svg xmlns:xlink="http://www.w3.org/1999/xlink" 
	xmlns="http://www.w3.org/2000/svg" 
	width="360px" height="180px">
	   <style type="text/css">
		  <![CDATA[     
		  .region 
		  { 
			fill:blue; 
			opacity:0.4; 
			stroke:blue;
		  }
		  ]]>
	   </style>

	<circle id="dot" x="-2" y="-2" r="2" style="stroke:none; stroke-width:0; fill:black; opacity:0.7;"/>


	 <image x="0" y="0" width="360" height="180" xlink:href="map.jpg"/>

 
	 <g transform="translate(180,90) scale(1,-1)">   <use xlink:href="#dot" transform="translate(36.712963,-1.36537)" />   <use xlink:href="#dot" transform="translate(32.5533,-28.1304)" />   <use xlink:href="#dot" transform="translate(39.37,-4.6579)" />   <use xlink:href="#dot" transform="translate(36.712847,-1.365412)" />   <use xlink:href="#dot" transform="translate(39.37,-4.6579)" />   <use xlink:href="#dot" transform="translate(36.85247,-1.203258)" />   <use xlink:href="#dot" transform="translate(36.912775,-3.286841)" />   <use xlink:href="#dot" transform="translate(29.2,-2.478)" />   <use xlink:href="#dot" transform="translate(29.103813,-2.447833)" />   <use xlink:href="#dot" transform="translate(35.830193,-3.397788)" />   <use xlink:href="#dot" transform="translate(36.710687,-1.354051)" />   <use xlink:href="#dot" transform="translate(31.576,1.76)" />   <use xlink:href="#dot" transform="translate(39.37,-4.6579)" />   <use xlink:href="#dot" transform="translate(39.37,-4.6579)" />   <use xlink:href="#dot" transform="translate(40.01643,-3.309701)" />   <use xlink:href="#dot" transform="translate(39.37,-4.6579)" />   <use xlink:href="#dot" transform="translate(36.776138,-1.337313)" />   <use xlink:href="#dot" transform="translate(37.070231,-1.025035)" />   <use xlink:href="#dot" transform="translate(32.678733,-27.541094)" />   <use xlink:href="#dot" transform="translate(32.55636,-28.12322)" />   <use xlink:href="#dot" transform="translate(36.810868,-1.359842)" />   <use xlink:href="#dot" transform="translate(39.42837,-6.23712)" />   <use xlink:href="#dot" transform="translate(38.233677,-7.770017)" />   <use xlink:href="#dot" transform="translate(36.777613,-1.336971)" />   <use xlink:href="#dot" transform="translate(29.363748,-1.340067)" />   <use xlink:href="#dot" transform="translate(39.410731,-6.265488)" />   <use xlink:href="#dot" transform="translate(36.717627,-1.35791)" />   <use xlink:href="#dot" transform="translate(38.227798,-7.761258)" />   <use xlink:href="#dot" transform="translate(38.629609,-5.101118)" />   <use xlink:href="#dot" transform="translate(29.200665,-2.478667)" />   <use xlink:href="#dot" transform="translate(29.466413,-1.476738)" />   <use xlink:href="#dot" transform="translate(32.53311,-28.189804)" />   <use xlink:href="#dot" transform="translate(38.231828,-7.775993)" />   <use xlink:href="#dot" transform="translate(36.719292,-1.36516)" />   <use xlink:href="#dot" transform="translate(32.782656,-19.13388)" />   <use xlink:href="#dot" transform="translate(36.599057,-0.944292)" />   <use xlink:href="#dot" transform="translate(30.029303,-23.814192)" />   <use xlink:href="#dot" transform="translate(36.598667,-0.942507)" />   <use xlink:href="#dot" transform="translate(37.810538,-7.023527)" />   <use xlink:href="#dot" transform="translate(39.37,-4.6579)" />   <use xlink:href="#dot" transform="translate(38.232938,-7.765793)" />   <use xlink:href="#dot" transform="translate(38.232365,-7.765818)" />   <use xlink:href="#dot" transform="translate(37.805452,-7.00903)" />   <use xlink:href="#dot" transform="translate(35.748138,-3.565506)" />   <use xlink:href="#dot" transform="translate(39.37,-4.6579)" />   <use xlink:href="#dot" transform="translate(38.085823,-7.672205)" />   <use xlink:href="#dot" transform="translate(37.641254,-7.509705)" />   <use xlink:href="#dot" transform="translate(36.852951,-3.264262)" />   <use xlink:href="#dot" transform="translate(35.303772,-15.358844)" />   <use xlink:href="#dot" transform="translate(38.085823,-7.672205)" />   <use xlink:href="#dot" transform="translate(38.226303,-7.761341)" />   <use xlink:href="#dot" transform="translate(36.717832,-1.355561)" />   <use xlink:href="#dot" transform="translate(38.226303,-7.761341)" />   <use xlink:href="#dot" transform="translate(36.876826,-1.406013)" />   <use xlink:href="#dot" transform="translate(35.833333,-3.5)" />   <use xlink:href="#dot" transform="translate(39.37,-4.6579)" />   <use xlink:href="#dot" transform="translate(39.37,-4.659)" />   <use xlink:href="#dot" transform="translate(39.37,-4.6579)" />   <use xlink:href="#dot" transform="translate(39.37,-4.6579)" />   <use xlink:href="#dot" transform="translate(37.933333,-4.2)" />   <use xlink:href="#dot" transform="translate(35.799637,-3.455849)" />   <use xlink:href="#dot" transform="translate(35.799637,-3.455849)" />   <use xlink:href="#dot" transform="translate(29.28047,-1.241891)" />   <use xlink:href="#dot" transform="translate(36.852951,-3.264262)" />   <use xlink:href="#dot" transform="translate(35.585403,-3.169312)" />   <use xlink:href="#dot" transform="translate(37.813058,-7.012277)" />   <use xlink:href="#dot" transform="translate(29.363,-1.34)" />   <use xlink:href="#dot" transform="translate(32.784138,-19.132297)" />   <use xlink:href="#dot" transform="translate(38.232725,-7.765469)" />   <use xlink:href="#dot" transform="translate(38.232878,-7.765914)" />   <use xlink:href="#dot" transform="translate(32.684326,-18.955344)" />   <use xlink:href="#dot" transform="translate(35.748138,-3.565506)" />   <use xlink:href="#dot" transform="translate(35.748138,-3.565506)" />   <use xlink:href="#dot" transform="translate(36.708528,-1.351374)" />   <use xlink:href="#dot" transform="translate(36.852951,-3.264262)" />   <use xlink:href="#dot" transform="translate(29.807829,-1.251488)" />   <use xlink:href="#dot" transform="translate(36.709863,-1.346822)" />   <use xlink:href="#dot" transform="translate(36.828833,-1.262725)" />   <use xlink:href="#dot" transform="translate(32.684691,-18.955493)" />   <use xlink:href="#dot" transform="translate(29.77788,-1.057225)" />   <use xlink:href="#dot" transform="translate(13.166114,-9.327076)" />   <use xlink:href="#dot" transform="translate(39.37,-4.6579)" />   <use xlink:href="#dot" transform="translate(34.878106,0.260785)" />   <use xlink:href="#dot" transform="translate(29.89897,-0.300114)" />   <use xlink:href="#dot" transform="translate(36.522569,-0.92051)" />   <use xlink:href="#dot" transform="translate(36.828167,-1.263626)" />   <use xlink:href="#dot" transform="translate(37.808731,-7.124624)" />   <use xlink:href="#dot" transform="translate(37.808731,-7.124624)" />   <use xlink:href="#dot" transform="translate(36.764449,-1.376785)" />   <use xlink:href="#dot" transform="translate(35.748138,-3.565506)" />   <use xlink:href="#dot" transform="translate(36.852951,-3.264262)" />   <use xlink:href="#dot" transform="translate(32.773912,-19.137489)" />   <use xlink:href="#dot" transform="translate(29.955891,-23.928537)" />   <use xlink:href="#dot" transform="translate(26.995354,-32.690891)" />   <use xlink:href="#dot" transform="translate(26.927551,-32.627646)" />   <use xlink:href="#dot" transform="translate(34.033063,-9.483073)" />   <use xlink:href="#dot" transform="translate(34.02375,-9.487556)" />   <use xlink:href="#dot" transform="translate(34.02375,-9.487556)" />   <use xlink:href="#dot" transform="translate(35.831913,-3.520001)" />   <use xlink:href="#dot" transform="translate(32.566667,-28.116667)" />   <use xlink:href="#dot" transform="translate(32.545564,-28.1377)" />   <use xlink:href="#dot" transform="translate(35.828713,-3.382812)" />   <use xlink:href="#dot" transform="translate(36.824158,-3.285648)" />   <use xlink:href="#dot" transform="translate(29.591246,-23.161581)" />   <use xlink:href="#dot" transform="translate(35.202103,-18.040434)" />   <use xlink:href="#dot" transform="translate(35.748138,-3.565506)" />   <use xlink:href="#dot" transform="translate(36.852951,-3.264262)" />   <use xlink:href="#dot" transform="translate(37.337036,-3.047268)" />   <use xlink:href="#dot" transform="translate(38.628765,-5.101566)" />   <use xlink:href="#dot" transform="translate(38.628765,-5.101566)" />   <use xlink:href="#dot" transform="translate(38.65239,-5.100092)" />   <use xlink:href="#dot" transform="translate(29.449314,-23.03925)" />   <use xlink:href="#dot" transform="translate(34.8667,0.236969)" />   <use xlink:href="#dot" transform="translate(40.015896,-3.352662)" />   <use xlink:href="#dot" transform="translate(39.411381,-6.243736)" />   <use xlink:href="#dot" transform="translate(32.671833,-27.545109)" />   <use xlink:href="#dot" transform="translate(38.231349,-7.758722)" />   <use xlink:href="#dot" transform="translate(32.55636,-28.12322)" />   <use xlink:href="#dot" transform="translate(35.785904,-3.476959)" />   <use xlink:href="#dot" transform="translate(36.803558,-3.259598)" />   <use xlink:href="#dot" transform="translate(35.203671,-18.040197)" />   <use xlink:href="#dot" transform="translate(32.139568,-28.027632)" />   <use xlink:href="#dot" transform="translate(37.513077,-3.193736)" />   <use xlink:href="#dot" transform="translate(37.513077,-3.193736)" />   <use xlink:href="#dot" transform="translate(37.512047,-3.179081)" />   <use xlink:href="#dot" transform="translate(37.514706,-3.200848)" />   <use xlink:href="#dot" transform="translate(37.514706,-3.200848)" />   <use xlink:href="#dot" transform="translate(35.748138,-3.565506)" />   <use xlink:href="#dot" transform="translate(37.440163,-3.193693)" />   <use xlink:href="#dot" transform="translate(37.343731,-3.211303)" />   <use xlink:href="#dot" transform="translate(37.289143,3.153714)" />   <use xlink:href="#dot" transform="translate(37.343731,-3.211303)" />   <use xlink:href="#dot" transform="translate(37.304848,3.140088)" />   <use xlink:href="#dot" transform="translate(37.343731,-3.211303)" />   <use xlink:href="#dot" transform="translate(37.440163,-3.193693)" />   <use xlink:href="#dot" transform="translate(37.440506,-3.187094)" />   <use xlink:href="#dot" transform="translate(37.304848,3.140088)" />   <use xlink:href="#dot" transform="translate(37.438961,-3.190051)" />   <use xlink:href="#dot" transform="translate(39.59404,-4.282734)" />   <use xlink:href="#dot" transform="translate(37.813919,-12.279181)" />   <use xlink:href="#dot" transform="translate(35.838236,-3.371931)" />   <use xlink:href="#dot" transform="translate(37.437546,-3.190736)" />   <use xlink:href="#dot" transform="translate(37.440804,-3.192364)" />   <use xlink:href="#dot" transform="translate(37.360725,-3.368115)" />   <use xlink:href="#dot" transform="translate(39.595863,-4.279088)" />   <use xlink:href="#dot" transform="translate(37.513588,-3.193221)" />   <use xlink:href="#dot" transform="translate(25.03699,1.38666)" />   <use xlink:href="#dot" transform="translate(39.595863,-4.279088)" />   <use xlink:href="#dot" transform="translate(39.595863,-4.279088)" />   <use xlink:href="#dot" transform="translate(37.695122,-3.315333)" />   <use xlink:href="#dot" transform="translate(37.454536,-3.224072)" />   <use xlink:href="#dot" transform="translate(39.419911,-6.2728)" />   <use xlink:href="#dot" transform="translate(37.341885,-3.210703)" />   <use xlink:href="#dot" transform="translate(37.241852,3.145487)" />   <use xlink:href="#dot" transform="translate(37.287598,3.151914)" />   <use xlink:href="#dot" transform="translate(37.305367,3.139745)" />   <use xlink:href="#dot" transform="translate(37.305367,3.139745)" />   <use xlink:href="#dot" transform="translate(37.310684,3.125175)" />   <use xlink:href="#dot" transform="translate(35.748138,-3.565506)" />   <use xlink:href="#dot" transform="translate(37.358665,-3.18388)" />   <use xlink:href="#dot" transform="translate(37.357807,-3.170683)" />   <use xlink:href="#dot" transform="translate(37.695122,-3.315333)" />   <use xlink:href="#dot" transform="translate(37.695122,-3.315333)" />   <use xlink:href="#dot" transform="translate(37.695122,-3.315333)" />   <use xlink:href="#dot" transform="translate(36.852951,-3.264262)" />   <use xlink:href="#dot" transform="translate(35.205849,-18.038708)" />   <use xlink:href="#dot" transform="translate(29.7986,-1.259236)" />   <use xlink:href="#dot" transform="translate(29.800963,-1.24427)" />   <use xlink:href="#dot" transform="translate(29.798682,-1.244272)" />   <use xlink:href="#dot" transform="translate(39.418259,-6.265817)" />   <use xlink:href="#dot" transform="translate(39.574425,-6.35837)" />   <use xlink:href="#dot" transform="translate(37.695122,-3.315333)" />   <use xlink:href="#dot" transform="translate(31.033333,-24.55)" />   <use xlink:href="#dot" transform="translate(37.695122,-3.315333)" />   <use xlink:href="#dot" transform="translate(37.518654,-3.219873)" />   <use xlink:href="#dot" transform="translate(37.425461,-2.939235)" />   <use xlink:href="#dot" transform="translate(37.412567,-3.260492)" />   <use xlink:href="#dot" transform="translate(36.852951,-3.264262)" />   <use xlink:href="#dot" transform="translate(37.419605,-3.258435)" />   <use xlink:href="#dot" transform="translate(37.419605,-3.258435)" />   <use xlink:href="#dot" transform="translate(37.23687,3.157571)" />   <use xlink:href="#dot" transform="translate(37.419605,-3.258435)" />   <use xlink:href="#dot" transform="translate(37.695122,-3.315333)" />   <use xlink:href="#dot" transform="translate(37.695122,-3.315333)" />   <use xlink:href="#dot" transform="translate(37.695122,-3.315333)" />   <use xlink:href="#dot" transform="translate(37.109413,-2.94407)" />   <use xlink:href="#dot" transform="translate(37.109413,-2.94407)" />   <use xlink:href="#dot" transform="translate(31.577601,2.10536)" />   <use xlink:href="#dot" transform="translate(37.518654,-3.2281)" />   <use xlink:href="#dot" transform="translate(37.109413,-2.94407)" />   <use xlink:href="#dot" transform="translate(37.695122,-3.315333)" />   <use xlink:href="#dot" transform="translate(37.236313,-3.166869)" />   <use xlink:href="#dot" transform="translate(37.109413,-2.94407)" />   <use xlink:href="#dot" transform="translate(37.109413,-2.94407)" />   <use xlink:href="#dot" transform="translate(29.220693,-15.764708)" />   <use xlink:href="#dot" transform="translate(37.120056,-2.943041)" />   <use xlink:href="#dot" transform="translate(37.109413,-2.94407)" />   <use xlink:href="#dot" transform="translate(37.41909,-3.268889)" />   <use xlink:href="#dot" transform="translate(37.262062,-3.189772)" />   <use xlink:href="#dot" transform="translate(37.109413,-2.94407)" />   <use xlink:href="#dot" transform="translate(36.862221,-3.231013)" />   <use xlink:href="#dot" transform="translate(36.781618,-1.338581)" />   <use xlink:href="#dot" transform="translate(37.41909,-3.268889)" />   <use xlink:href="#dot" transform="translate(37.109413,-2.94407)" />   <use xlink:href="#dot" transform="translate(37.109413,-2.94407)" />   <use xlink:href="#dot" transform="translate(37.109413,-2.94407)" />   <use xlink:href="#dot" transform="translate(37.52014,-3.28154)" />   <use xlink:href="#dot" transform="translate(37.360725,-3.366744)" />   <use xlink:href="#dot" transform="translate(37.907061,-2.931923)" />   <use xlink:href="#dot" transform="translate(35.010394,-1.251096)" />   <use xlink:href="#dot" transform="translate(23.20453,-4.48926)" />   <use xlink:href="#dot" transform="translate(23.47752,-4.73562)" />   <use xlink:href="#dot" transform="translate(37.695122,-3.315333)" />   <use xlink:href="#dot" transform="translate(32.533264,-28.161611)" />   <use xlink:href="#dot" transform="translate(37.262062,-3.189772)" />   <use xlink:href="#dot" transform="translate(37.695122,-3.315333)" />   <use xlink:href="#dot" transform="translate(31.9965,2.421)" />   <use xlink:href="#dot" transform="translate(32.2153,2.2881)" />   <use xlink:href="#dot" transform="translate(32.2153,2.2881)" />   <use xlink:href="#dot" transform="translate(31.9965,2.421)" />   <use xlink:href="#dot" transform="translate(34.899445,0.219726)" />   <use xlink:href="#dot" transform="translate(34.595947,1.043643)" />   <use xlink:href="#dot" transform="translate(34.899445,0.219726)" />   <use xlink:href="#dot" transform="translate(34.899445,0.219726)" />   <use xlink:href="#dot" transform="translate(34.867029,0.236975)" />   <use xlink:href="#dot" transform="translate(34.884569,0.226823)" />   <use xlink:href="#dot" transform="translate(37.15235,-0.31657)" />   <use xlink:href="#dot" transform="translate(39.878483,-3.330056)" />   <use xlink:href="#dot" transform="translate(24.9827,-1.58545)" />   <use xlink:href="#dot" transform="translate(24.42368,-1.02237)" />   <use xlink:href="#dot" transform="translate(39.41909,-6.271796)" />   <use xlink:href="#dot" transform="translate(39.41909,-6.271796)" />   <use xlink:href="#dot" transform="translate(39.41909,-6.271796)" />   <use xlink:href="#dot" transform="translate(24.47884,-1.51843)" />   <use xlink:href="#dot" transform="translate(39.401779,-6.225708)" />   <use xlink:href="#dot" transform="translate(36.695722,-7.750851)" />   <use xlink:href="#dot" transform="translate(35.562906,-3.152951)" />   <use xlink:href="#dot" transform="translate(35.786776,-3.60061)" />   <use xlink:href="#dot" transform="translate(30.2702,-0.1584)" />   <use xlink:href="#dot" transform="translate(35.835909,-3.412022)" />   <use xlink:href="#dot" transform="translate(38.633333,-5.1)" />   <use xlink:href="#dot" transform="translate(30.1012,-0.3667)" />   <use xlink:href="#dot" transform="translate(30.1012,-0.3667)" />   <use xlink:href="#dot" transform="translate(34.899445,0.219726)" />   <use xlink:href="#dot" transform="translate(34.899445,0.219726)" />   <use xlink:href="#dot" transform="translate(35.202942,-1.573594)" />   <use xlink:href="#dot" transform="translate(34.506683,0.333021)" />   <use xlink:href="#dot" transform="translate(37.754517,-3.554541)" />   <use xlink:href="#dot" transform="translate(37.07433,-15.4135)" />   <use xlink:href="#dot" transform="translate(37.291718,-0.215606)" />   <use xlink:href="#dot" transform="translate(37.291718,-0.215606)" />   <use xlink:href="#dot" transform="translate(37.068924,-1.023519)" />   <use xlink:href="#dot" transform="translate(34.899445,0.219726)" />   <use xlink:href="#dot" transform="translate(37.07433,-15.4135)" />   <use xlink:href="#dot" transform="translate(32.238636,-27.797472)" />   <use xlink:href="#dot" transform="translate(38.596667,-5.134167)" />   <use xlink:href="#dot" transform="translate(37.567509,-5.543896)" />   <use xlink:href="#dot" transform="translate(37.567509,-5.543896)" />   <use xlink:href="#dot" transform="translate(31.531389,-1.002778)" />   <use xlink:href="#dot" transform="translate(31.5692,1.6513)" />   <use xlink:href="#dot" transform="translate(31.4792,1.7143)" />   <use xlink:href="#dot" transform="translate(31.4972,1.6963)" />   <use xlink:href="#dot" transform="translate(31.5782,1.6513)" />   <use xlink:href="#dot" transform="translate(30.3903,0.5534)" />   <use xlink:href="#dot" transform="translate(30.3903,0.5534)" />   <use xlink:href="#dot" transform="translate(30.3903,0.5984)" />   <use xlink:href="#dot" transform="translate(30.3633,0.5714)" />   <use xlink:href="#dot" transform="translate(30.3633,0.5894)" />   <use xlink:href="#dot" transform="translate(30.3723,0.5894)" />   <use xlink:href="#dot" transform="translate(30.3633,0.5894)" />   <use xlink:href="#dot" transform="translate(30.3723,0.5984)" />   <use xlink:href="#dot" transform="translate(30.3633,0.5534)" />   <use xlink:href="#dot" transform="translate(37.3175,-0.154284)" />   <use xlink:href="#dot" transform="translate(30.3993,0.5534)" />   <use xlink:href="#dot" transform="translate(30.2193,-0.3555)" />   <use xlink:href="#dot" transform="translate(30.0394,-0.3915)" />   <use xlink:href="#dot" transform="translate(30.383333,0.435)" />   <use xlink:href="#dot" transform="translate(30.5073,0.8234)" />   <use xlink:href="#dot" transform="translate(30.4353,0.7784)" />   <use xlink:href="#dot" transform="translate(31.6052,1.8313)" />   <use xlink:href="#dot" transform="translate(29.9359,0.4094)" />   <use xlink:href="#dot" transform="translate(30.1226,-0.3523)" />   <use xlink:href="#dot" transform="translate(30.2288,-0.382)" />   <use xlink:href="#dot" transform="translate(29.9899,0.5624)" />   <use xlink:href="#dot" transform="translate(30.4353,0.7694)" />   <use xlink:href="#dot" transform="translate(29.566601,-3.2166)" />   <use xlink:href="#dot" transform="translate(29.822,-1.074)" />   <use xlink:href="#dot" transform="translate(30.0484,-0.4634)" />   <use xlink:href="#dot" transform="translate(29.9719,0.2385)" />   <use xlink:href="#dot" transform="translate(29.9719,0.2385)" />   <use xlink:href="#dot" transform="translate(29.8283,-1.0749)" />   <use xlink:href="#dot" transform="translate(29.6169,-0.9939)" />   <use xlink:href="#dot" transform="translate(29.7744,-1.0407)" />   <use xlink:href="#dot" transform="translate(29.6889,-0.9732)" />   <use xlink:href="#dot" transform="translate(29.8985,-1.0479)" />   <use xlink:href="#dot" transform="translate(0.6125,-0.0225)" />   <use xlink:href="#dot" transform="translate(31.583333,-1.083333)" />   <use xlink:href="#dot" transform="translate(31.583333,-1.083333)" />   <use xlink:href="#dot" transform="translate(25.58333,-33.96667)" />   <use xlink:href="#dot" transform="translate(25.55,0.46667)" /><polygon class="region" points="25.58333,-33.96667 0.6125,-0.0225 37.23687,3.157571 37.289143,3.153714 37.305367,3.139745 40.01643,-3.309701 40.015896,-3.352662 39.574425,-6.35837 37.07433,-15.4135 32.566667,-28.116667 32.53311,-28.189804 25.58333,-33.96667 " />
		  </g>
		</svg>