<?xml version="1.0" encoding="UTF-8"?>
	<svg xmlns:xlink="http://www.w3.org/1999/xlink" 
	xmlns="http://www.w3.org/2000/svg" 
	width="360px" height="180px">
	   <style type="text/css">
		  <![CDATA[     
		  .region 
		  { 
			fill:blue; 
			opacity:0.4; 
			stroke:blue;
		  }
		  ]]>
	   </style>

	<circle id="dot" x="-2" y="-2" r="2" style="stroke:none; stroke-width:0; fill:black; opacity:0.7;"/>


	 <image x="0" y="0" width="360" height="180" xlink:href="map.jpg"/>

 
	 <g transform="translate(180,90) scale(1,-1)">   <use xlink:href="#dot" transform="translate(-101.438242,29.785859)" />   <use xlink:href="#dot" transform="translate(-109.271149,31.294856)" />   <use xlink:href="#dot" transform="translate(-109.358597,31.313755)" />   <use xlink:href="#dot" transform="translate(-99.791948,30.974631)" />   <use xlink:href="#dot" transform="translate(-98.296906,30.208928)" />   <use xlink:href="#dot" transform="translate(-100.435616,31.398284)" />   <use xlink:href="#dot" transform="translate(-100.480939,31.246891)" />   <use xlink:href="#dot" transform="translate(-100.71845,30.07443)" />   <use xlink:href="#dot" transform="translate(-99.427707,30.065837)" />   <use xlink:href="#dot" transform="translate(-101.343985,29.703065)" />   <use xlink:href="#dot" transform="translate(-100.638571,30.606563)" />   <use xlink:href="#dot" transform="translate(-100.585343,30.879889)" />   <use xlink:href="#dot" transform="translate(-101.568955,29.812428)" />   <use xlink:href="#dot" transform="translate(-100.947876,29.940571)" />   <use xlink:href="#dot" transform="translate(-101.153253,31.140607)" />   <use xlink:href="#dot" transform="translate(-100.856532,31.205114)" />   <use xlink:href="#dot" transform="translate(-110.76413,33.005092)" />   <use xlink:href="#dot" transform="translate(-99.925919,31.615967)" />   <use xlink:href="#dot" transform="translate(-97.48359,18.317733)" />   <use xlink:href="#dot" transform="translate(-100.7127,30.0853)" />   <use xlink:href="#dot" transform="translate(-100.991642,29.888221)" />   <use xlink:href="#dot" transform="translate(-100.508907,31.516948)" />   <use xlink:href="#dot" transform="translate(-98.695025,30.943018)" />   <use xlink:href="#dot" transform="translate(-98.586945,31.217777)" />   <use xlink:href="#dot" transform="translate(-104.182403,30.53623)" />   <use xlink:href="#dot" transform="translate(-98.368237,30.442183)" />   <use xlink:href="#dot" transform="translate(-105.431411,20.877253)" />   <use xlink:href="#dot" transform="translate(-105.431411,20.877253)" />   <use xlink:href="#dot" transform="translate(-111.237595,31.461204)" />   <use xlink:href="#dot" transform="translate(-110.880087,31.725088)" />   <use xlink:href="#dot" transform="translate(-98.912489,30.327235)" />   <use xlink:href="#dot" transform="translate(-99.418378,31.035796)" />   <use xlink:href="#dot" transform="translate(-110.376999,31.43891)" />   <use xlink:href="#dot" transform="translate(-100.704985,30.435729)" />   <use xlink:href="#dot" transform="translate(-106.653643,23.756753)" />   <use xlink:href="#dot" transform="translate(-103.169174,25.134873)" />   <use xlink:href="#dot" transform="translate(-101.67966,30.671742)" />   <use xlink:href="#dot" transform="translate(-104.141121,19.809346)" />   <use xlink:href="#dot" transform="translate(-110.715767,32.16193)" />   <use xlink:href="#dot" transform="translate(-98.38033,30.3469)" />   <use xlink:href="#dot" transform="translate(-106.656545,23.658043)" />   <use xlink:href="#dot" transform="translate(-110.973697,32.506278)" />   <use xlink:href="#dot" transform="translate(-101.560211,29.809215)" />   <use xlink:href="#dot" transform="translate(-100.480377,31.403907)" />   <use xlink:href="#dot" transform="translate(-99.511843,18.66895)" />   <use xlink:href="#dot" transform="translate(-103.16926,25.135106)" />   <use xlink:href="#dot" transform="translate(-111.032326,33.32592)" />   <use xlink:href="#dot" transform="translate(-100.1414,31.34253)" />   <use xlink:href="#dot" transform="translate(-99.01425,30.73971)" />   <use xlink:href="#dot" transform="translate(-105.57518,22.590556)" />   <use xlink:href="#dot" transform="translate(-100.67272,30.588693)" />   <use xlink:href="#dot" transform="translate(-104.2896,29.8485)" />   <use xlink:href="#dot" transform="translate(-105.567284,22.691636)" />   <use xlink:href="#dot" transform="translate(-100.673203,30.588803)" />   <use xlink:href="#dot" transform="translate(-99.75989,30.49846)" />   <use xlink:href="#dot" transform="translate(-105.939445,23.303458)" />   <use xlink:href="#dot" transform="translate(-105.542221,22.656473)" />   <use xlink:href="#dot" transform="translate(-105.542221,22.656473)" />   <use xlink:href="#dot" transform="translate(-93.112907,16.931362)" />   <use xlink:href="#dot" transform="translate(-105.590286,22.622885)" />   <use xlink:href="#dot" transform="translate(-110.8059,31.6488)" />   <use xlink:href="#dot" transform="translate(-110.87787,32.456774)" />   <use xlink:href="#dot" transform="translate(-106.028538,23.384331)" />   <use xlink:href="#dot" transform="translate(-105.533638,22.671204)" />   <use xlink:href="#dot" transform="translate(-105.533466,22.670729)" />   <use xlink:href="#dot" transform="translate(-105.567799,22.568366)" />   <use xlink:href="#dot" transform="translate(-105.567884,22.568128)" />   <use xlink:href="#dot" transform="translate(-105.521826,22.685845)" />   <use xlink:href="#dot" transform="translate(-98.9783,30.9094)" />   <use xlink:href="#dot" transform="translate(-105.521815,22.685826)" />   <use xlink:href="#dot" transform="translate(-111.050278,31.567701)" />   <use xlink:href="#dot" transform="translate(-98.0926,29.9632)" />   <use xlink:href="#dot" transform="translate(-100.5749,29.3471)" />   <use xlink:href="#dot" transform="translate(-99.670242,32.038975)" />   <use xlink:href="#dot" transform="translate(-99.81077,30.448426)" />   <use xlink:href="#dot" transform="translate(-106.420784,28.838057)" />   <use xlink:href="#dot" transform="translate(-110.827644,32.412308)" />   <use xlink:href="#dot" transform="translate(-110.586619,31.834974)" />   <use xlink:href="#dot" transform="translate(-99.369454,30.297853)" />   <use xlink:href="#dot" transform="translate(-99.372659,30.297985)" />   <use xlink:href="#dot" transform="translate(-103.611667,29.166333)" />   <use xlink:href="#dot" transform="translate(-103.529834,29.140166)" />   <use xlink:href="#dot" transform="translate(-100.74013,29.3885)" />   <use xlink:href="#dot" transform="translate(-103.538526,29.144901)" />   <use xlink:href="#dot" transform="translate(-99.70132,30.43183)" />   <use xlink:href="#dot" transform="translate(-103.835756,30.541083)" />   <use xlink:href="#dot" transform="translate(-110.648872,32.019868)" />   <use xlink:href="#dot" transform="translate(-105.534754,22.65972)" />   <use xlink:href="#dot" transform="translate(-105.534668,22.659878)" />   <use xlink:href="#dot" transform="translate(-108.220761,32.864624)" />   <use xlink:href="#dot" transform="translate(-106.050746,23.33535)" />   <use xlink:href="#dot" transform="translate(-106.590733,23.68443)" />   <use xlink:href="#dot" transform="translate(-100.949614,29.751058)" />   <use xlink:href="#dot" transform="translate(-106.046669,23.356637)" />   <use xlink:href="#dot" transform="translate(-98.830401,30.090327)" />   <use xlink:href="#dot" transform="translate(-110.191201,31.691709)" />   <use xlink:href="#dot" transform="translate(-110.64265,32.018114)" />   <use xlink:href="#dot" transform="translate(-109.1826,32.8561)" />   <use xlink:href="#dot" transform="translate(-100.869405,25.62515)" />   <use xlink:href="#dot" transform="translate(-110.643095,32.016932)" />   <use xlink:href="#dot" transform="translate(-108.59279,32.850261)" />   <use xlink:href="#dot" transform="translate(-110.655606,32.02013)" />   <use xlink:href="#dot" transform="translate(-103.52262,29.134109)" />   <use xlink:href="#dot" transform="translate(-110.195547,31.725828)" />   <use xlink:href="#dot" transform="translate(-103.527715,29.139165)" />   <use xlink:href="#dot" transform="translate(-110.195678,31.745772)" />   <use xlink:href="#dot" transform="translate(-110.758525,31.781457)" />   <use xlink:href="#dot" transform="translate(-110.183448,31.707231)" />   <use xlink:href="#dot" transform="translate(-103.738431,24.826427)" />   <use xlink:href="#dot" transform="translate(-99.3215,30.2998)" />   <use xlink:href="#dot" transform="translate(-99.823988,31.091613)" />   <use xlink:href="#dot" transform="translate(-97.71987,18.228667)" />   <use xlink:href="#dot" transform="translate(-105.562305,22.5923)" />   <use xlink:href="#dot" transform="translate(-105.516129,22.614962)" />   <use xlink:href="#dot" transform="translate(-98.672129,30.692208)" />   <use xlink:href="#dot" transform="translate(-105.56282,22.591824)" />   <use xlink:href="#dot" transform="translate(-99.909024,18.254733)" />   <use xlink:href="#dot" transform="translate(-105.56282,22.593726)" />   <use xlink:href="#dot" transform="translate(-101.474142,32.185239)" />   <use xlink:href="#dot" transform="translate(-99.86555,31.2165)" />   <use xlink:href="#dot" transform="translate(-101.17306,29.68417)" />   <use xlink:href="#dot" transform="translate(-98.994805,30.465498)" />   <use xlink:href="#dot" transform="translate(-97.838591,32.439646)" />   <use xlink:href="#dot" transform="translate(-98.672129,30.692208)" />   <use xlink:href="#dot" transform="translate(-98.520333,31.368333)" />   <use xlink:href="#dot" transform="translate(-98.520333,31.368333)" />   <use xlink:href="#dot" transform="translate(-99.6027,17.5427)" />   <use xlink:href="#dot" transform="translate(-103.529686,29.140475)" />   <use xlink:href="#dot" transform="translate(-96.087,18.516667)" />   <use xlink:href="#dot" transform="translate(-99.771165,30.710797)" />   <use xlink:href="#dot" transform="translate(-99.930188,31.091608)" />   <use xlink:href="#dot" transform="translate(-100.62696,31.366556)" />   <use xlink:href="#dot" transform="translate(-105.08590860207,23.145762912219)" />   <use xlink:href="#dot" transform="translate(-100.68748,31.25459)" />   <use xlink:href="#dot" transform="translate(-99.191175,31.726596)" />   <use xlink:href="#dot" transform="translate(-100.5229,31.42218)" />   <use xlink:href="#dot" transform="translate(-100.664001,31.269282)" />   <use xlink:href="#dot" transform="translate(-109.361331,32.007702)" />   <use xlink:href="#dot" transform="translate(-99.77086,30.754304)" />   <use xlink:href="#dot" transform="translate(-99.599621,31.21718)" />   <use xlink:href="#dot" transform="translate(-101.09422,31.878915)" />   <use xlink:href="#dot" transform="translate(-99.91478,31.217063)" />   <use xlink:href="#dot" transform="translate(-99.976573,31.830812)" />   <use xlink:href="#dot" transform="translate(-98.627232,31.448469)" />   <use xlink:href="#dot" transform="translate(-103.529503,29.14)" />   <use xlink:href="#dot" transform="translate(-100.59704,31.38488)" />   <use xlink:href="#dot" transform="translate(-99.27415,31.07116)" />   <use xlink:href="#dot" transform="translate(-100.814537,31.275419)" />   <use xlink:href="#dot" transform="translate(-100.81454,31.275233)" />   <use xlink:href="#dot" transform="translate(-99.788278,30.61439)" />   <use xlink:href="#dot" transform="translate(-97.100067167484,23.144457068601)" />   <use xlink:href="#dot" transform="translate(-106.890707,33.804755)" />   <use xlink:href="#dot" transform="translate(-100.07576,21.49083)" />   <use xlink:href="#dot" transform="translate(-106.47684,34.605419)" />   <use xlink:href="#dot" transform="translate(-112.021007,34.755438)" />   <use xlink:href="#dot" transform="translate(-112.185516,34.151591)" />   <use xlink:href="#dot" transform="translate(-98.217897630903,23.79908492672)" />   <use xlink:href="#dot" transform="translate(-98.626609757858,23.604633746808)" />   <use xlink:href="#dot" transform="translate(-98.6265,23.6042)" />   <use xlink:href="#dot" transform="translate(-97.99818,23.826378)" />   <use xlink:href="#dot" transform="translate(-98.2178,23.798658)" />   <use xlink:href="#dot" transform="translate(-100.77794,31.167)" />   <use xlink:href="#dot" transform="translate(-99.61616,31.46108)" />   <use xlink:href="#dot" transform="translate(-101.11972,30.132333)" />   <use xlink:href="#dot" transform="translate(-101.11083,30.158888)" />   <use xlink:href="#dot" transform="translate(-99.138323,30.978119)" />   <use xlink:href="#dot" transform="translate(-100.82912,31.22663)" />   <use xlink:href="#dot" transform="translate(-98.9987,30.909)" />   <use xlink:href="#dot" transform="translate(-99.56364,30.7112)" />   <use xlink:href="#dot" transform="translate(-99.33125,30.800056)" />   <use xlink:href="#dot" transform="translate(-100.543646,30.566927)" />   <use xlink:href="#dot" transform="translate(-100.650517,29.793247)" />   <use xlink:href="#dot" transform="translate(-100.06698,30.48247)" />   <use xlink:href="#dot" transform="translate(-100.5119,31.0823)" />   <use xlink:href="#dot" transform="translate(-99.82069,31.21644)" />   <use xlink:href="#dot" transform="translate(-100.06847,32.19821)" />   <use xlink:href="#dot" transform="translate(-100.8174,31.24811)" />   <use xlink:href="#dot" transform="translate(-99.60624,31.21943)" />   <use xlink:href="#dot" transform="translate(-98.258575,31.121029)" />   <use xlink:href="#dot" transform="translate(-99.252784,31.178833)" />   <use xlink:href="#dot" transform="translate(-98.21162,31.098101)" />   <use xlink:href="#dot" transform="translate(-100.64679,31.3501)" />   <use xlink:href="#dot" transform="translate(-100.66131,31.25271)" />   <use xlink:href="#dot" transform="translate(-100.82332,31.74295)" />   <use xlink:href="#dot" transform="translate(-100.626597,31.367393)" />   <use xlink:href="#dot" transform="translate(-100.449288,31.407828)" />   <use xlink:href="#dot" transform="translate(-103.804522,30.856461)" />   <use xlink:href="#dot" transform="translate(-100.627,31.3674)" />   <use xlink:href="#dot" transform="translate(-99.74299,30.48938)" />   <use xlink:href="#dot" transform="translate(-100.53029,31.41875)" />   <use xlink:href="#dot" transform="translate(-101.3728,32.070301)" />   <use xlink:href="#dot" transform="translate(-100.51298,31.13274)" />   <use xlink:href="#dot" transform="translate(-100.666608,31.261746)" />   <use xlink:href="#dot" transform="translate(-101.280837,30.390278)" />   <use xlink:href="#dot" transform="translate(-100.235997,30.510991)" />   <use xlink:href="#dot" transform="translate(-99.17049,31.41064)" />   <use xlink:href="#dot" transform="translate(-100.61818,31.372748)" />   <use xlink:href="#dot" transform="translate(-99.99522,31.38921)" />   <use xlink:href="#dot" transform="translate(-100.073608,32.193507)" />   <use xlink:href="#dot" transform="translate(-100.92767,31.18345)" />   <use xlink:href="#dot" transform="translate(-108.604808,32.838125)" />   <use xlink:href="#dot" transform="translate(-100.853384,31.206529)" />   <use xlink:href="#dot" transform="translate(-100.43667,31.46361)" />   <use xlink:href="#dot" transform="translate(-99.040181269421,18.507744713513)" />   <use xlink:href="#dot" transform="translate(-96.74073,17.5884)" />   <use xlink:href="#dot" transform="translate(-96.76711,17.57962)" />   <use xlink:href="#dot" transform="translate(-96.76711,17.57962)" />   <use xlink:href="#dot" transform="translate(-100.563333,31.403745)" />   <use xlink:href="#dot" transform="translate(-99.40766,31.17872)" />   <use xlink:href="#dot" transform="translate(-100.7047,30.43368)" />   <use xlink:href="#dot" transform="translate(-101.15481,29.88347)" />   <use xlink:href="#dot" transform="translate(-100.54802,31.02226)" />   <use xlink:href="#dot" transform="translate(-104.40631,19.62416)" />   <use xlink:href="#dot" transform="translate(-100.43137,31.61982)" />   <use xlink:href="#dot" transform="translate(-100.00576,31.24006)" />   <use xlink:href="#dot" transform="translate(-100.55666,31.52299)" />   <use xlink:href="#dot" transform="translate(-99.86684,21.42507)" />   <use xlink:href="#dot" transform="translate(-100.753595,31.331077)" />   <use xlink:href="#dot" transform="translate(-99.585981,31.213687)" />   <use xlink:href="#dot" transform="translate(-97.8096,18.1361)" />   <use xlink:href="#dot" transform="translate(-100.45017,31.4195)" />   <use xlink:href="#dot" transform="translate(-100.366013,31.507318)" />   <use xlink:href="#dot" transform="translate(-100.548152,31.49024)" />   <use xlink:href="#dot" transform="translate(-99.184441,19.107207)" />   <use xlink:href="#dot" transform="translate(-101.037752,31.290511)" />   <use xlink:href="#dot" transform="translate(-100.43667,31.46361)" />   <use xlink:href="#dot" transform="translate(-93.132,16.841)" />   <use xlink:href="#dot" transform="translate(-100.547852,31.488716)" />   <use xlink:href="#dot" transform="translate(-100.481966,31.446109)" />   <use xlink:href="#dot" transform="translate(-93.132361,16.840667)" />   <use xlink:href="#dot" transform="translate(-100.007188,31.141786)" />   <use xlink:href="#dot" transform="translate(-93.094944,16.827722)" />   <use xlink:href="#dot" transform="translate(-93.095,16.828)" />   <use xlink:href="#dot" transform="translate(-100.507286,31.42885)" />   <use xlink:href="#dot" transform="translate(-100.017557,31.124634)" />   <use xlink:href="#dot" transform="translate(-93.042,16.759)" />   <use xlink:href="#dot" transform="translate(-103.198155,30.717937)" />   <use xlink:href="#dot" transform="translate(-103.198,30.7179)" />   <use xlink:href="#dot" transform="translate(-93.042278,16.759389)" />   <use xlink:href="#dot" transform="translate(-93.101944,16.811944)" />   <use xlink:href="#dot" transform="translate(-105.314222,25.169028)" />   <use xlink:href="#dot" transform="translate(-93.102,16.812)" />   <use xlink:href="#dot" transform="translate(-100.535504,31.473642)" />   <use xlink:href="#dot" transform="translate(-99.79932,31.7954)" />   <use xlink:href="#dot" transform="translate(-100.517554,31.453761)" />   <use xlink:href="#dot" transform="translate(-100.51593,31.44862)" />   <use xlink:href="#dot" transform="translate(-100.49583,31.35833)" />   <use xlink:href="#dot" transform="translate(-100.643978,31.350194)" />   <use xlink:href="#dot" transform="translate(-99.745122,30.871223)" />   <use xlink:href="#dot" transform="translate(-100.317539,31.542861)" />   <use xlink:href="#dot" transform="translate(-102.090278,19.42925)" />   <use xlink:href="#dot" transform="translate(-93.101,16.885)" />   <use xlink:href="#dot" transform="translate(-100.509829,31.448617)" />   <use xlink:href="#dot" transform="translate(-93.100833,16.885)" />   <use xlink:href="#dot" transform="translate(-93.101944,16.811944)" />   <use xlink:href="#dot" transform="translate(-100.548114,31.489629)" />   <use xlink:href="#dot" transform="translate(-100.635641,31.358009)" />   <use xlink:href="#dot" transform="translate(-93.101944,16.811944)" />   <use xlink:href="#dot" transform="translate(-93.102,16.812)" />   <use xlink:href="#dot" transform="translate(-93.102,16.812)" />   <use xlink:href="#dot" transform="translate(-98.869322,31.467943)" />   <use xlink:href="#dot" transform="translate(-100.487615,31.527899)" />   <use xlink:href="#dot" transform="translate(-100.117162,31.34215)" />   <use xlink:href="#dot" transform="translate(-100.487615,31.527899)" />   <use xlink:href="#dot" transform="translate(-100.544532,31.49674)" />   <use xlink:href="#dot" transform="translate(-108.927222,31.181944)" />   <use xlink:href="#dot" transform="translate(-99.879603,31.216437)" />   <use xlink:href="#dot" transform="translate(-109.008333,31.27)" />   <use xlink:href="#dot" transform="translate(-109.015,31.256667)" />   <use xlink:href="#dot" transform="translate(-108.89,31.151667)" />   <use xlink:href="#dot" transform="translate(-100.451572,31.473935)" />   <use xlink:href="#dot" transform="translate(-102.093611,19.427972)" />   <use xlink:href="#dot" transform="translate(-104.516358,32.481391)" />   <use xlink:href="#dot" transform="translate(-100.608637,31.378522)" />   <use xlink:href="#dot" transform="translate(-100.571258,31.40586)" />   <use xlink:href="#dot" transform="translate(-101.588489,31.863845)" />   <use xlink:href="#dot" transform="translate(-100.969222,30.217439)" />   <use xlink:href="#dot" transform="translate(-99.495734,31.75277)" />   <use xlink:href="#dot" transform="translate(-100.52203,31.465217)" />   <use xlink:href="#dot" transform="translate(-99.684354,31.232677)" />   <use xlink:href="#dot" transform="translate(-98.404845,30.517236)" />   <use xlink:href="#dot" transform="translate(-99.842533,31.198398)" />   <use xlink:href="#dot" transform="translate(-100.489351,31.425074)" />   <use xlink:href="#dot" transform="translate(-94.63238,16.383156)" />   <use xlink:href="#dot" transform="translate(-100.283382,31.557041)" />   <use xlink:href="#dot" transform="translate(-94.63238,16.383156)" />   <use xlink:href="#dot" transform="translate(-99.906928,32.313102)" />   <use xlink:href="#dot" transform="translate(-99.721517,31.780353)" />   <use xlink:href="#dot" transform="translate(-100.436444,31.3921)" />   <use xlink:href="#dot" transform="translate(-100.715041,31.340699)" />   <use xlink:href="#dot" transform="translate(-98.892105,31.619823)" />   <use xlink:href="#dot" transform="translate(-99.751453,30.496427)" />   <use xlink:href="#dot" transform="translate(-98.902434,31.594305)" />   <use xlink:href="#dot" transform="translate(-100.147779,31.342777)" />   <use xlink:href="#dot" transform="translate(-108.21,32.927778)" />   <use xlink:href="#dot" transform="translate(-100.511774,31.528173)" />   <use xlink:href="#dot" transform="translate(-100.145367,31.270165)" />   <use xlink:href="#dot" transform="translate(-100.457292,31.815295)" />   <use xlink:href="#dot" transform="translate(-108.27167,33.22722)" />   <use xlink:href="#dot" transform="translate(-99.966194,31.219208)" /><polygon class="region" points="-111.237595,31.461204 -112.185516,34.151591 -112.021007,34.755438 -106.47684,34.605419 -97.838591,32.439646 -93.042,16.759 -94.63238,16.383156 -99.6027,17.5427 -104.40631,19.62416 -105.431411,20.877253 -111.237595,31.461204 " />
		  </g>
		</svg>