<?xml version="1.0" encoding="UTF-8"?>
	<svg xmlns:xlink="http://www.w3.org/1999/xlink" 
	xmlns="http://www.w3.org/2000/svg" 
	width="360px" height="180px">
	   <style type="text/css">
		  <![CDATA[     
		  .region 
		  { 
			fill:blue; 
			opacity:0.4; 
			stroke:blue;
		  }
		  ]]>
	   </style>

	<circle id="dot" x="-2" y="-2" r="2" style="stroke:none; stroke-width:0; fill:black; opacity:0.7;"/>


	 <image x="0" y="0" width="360" height="180" xlink:href="map.jpg"/>

 
	 <g transform="translate(180,90) scale(1,-1)"><polygon class="region" points="-103.13565238,35.820920422 -104.035175993,34.610408641 -104.019426574,34.081100251 -103.717113505,33.735128843 -103.126791511,33.537891938 -102.06864835,33.958332137 -101.630424672,33.978716391 -100.84896313,33.481374611 -100.568155747,32.496642419 -99.989473389,32.151290122 -99.638962893,31.995999294 -97.384789572,31.789017976 -97.5361285,31.127665326 -97.462743458,28.646750134 -96.619521736,28.610394573 -96.39733888,28.432983408 -96.665840122,28.309392926 -96.793823242,28.4802742 -96.782928462,28.224184026 -97.207855225,28.087966919 -97.037635803,28.11028099 -97.024833677,28.027610751 -97.391242981,27.811649323 -97.241531373,27.686931611 -97.416336016,27.317329435 -97.613601681,27.278434781 -97.671394313,27.370870589 -97.778373718,27.451158524 -97.653266909,27.299329737 -97.775512687,27.27008817 -97.42342377,27.259670245 -97.586204529,26.847568512 -97.461967469,26.364933014 -97.143371582,25.964862823 -97.203147883,25.628858565 -97.529602022,25.015586873 -97.396232611,25.405921944 -97.546920777,25.462064743 -97.567512478,25.276086817 -97.721816997,25.428918865 -97.762832642,25.365514755 -97.770256042,24.952785492 -97.64214325,24.922103882 -97.786376953,24.773143768 -97.74320982,24.483137167 -97.863861077,24.558458336 -97.776275635,23.999998093 -97.740707376,24.022296917 -97.744598332,24.220773723 -97.675804132,24.511430739 -97.84996032,22.469015113 -97.704208377,21.96414565 -97.331573486,21.575891495 -97.419517517,21.216293335 -97.168960572,20.672437668 -96.445686322,19.863792399 -96.287460327,19.312896729 -95.764594986,18.807469656 -96.159423787,17.908763482 -94.783462816,17.676811227 -92.435001568,17.008475988 -91.911654388,16.649466515 -91.021229026,16.381072598 -89.571921662,16.123713132 -88.71912005,15.493729107 -88.005816617,15.321279638 -85.43175757,15.320258357 -85.110456444,14.939801987 -85.183088941,14.288706485 -85.742113844,12.651108462 -85.998946147,12.53541316 -86.872549377,12.803307833 -87.396749795,12.678613103 -87.677124016,12.961298924 -87.577079767,13.082986824 -87.405326854,12.911467556 -87.252220154,13.03981018 -87.516746501,13.255750676 -87.373504652,13.393582374 -87.619018512,13.301455519 -87.602371176,13.456589701 -87.717796316,13.348265677 -87.838905326,13.442184442 -87.899574283,13.14959338 -88.744091749,13.224045708 -89.365851831,14.207789221 -89.816344782,14.519069476 -93.095584045,15.817461097 -93.595637483,15.783101609 -94.136672937,16.22694396 -94.438613891,16.240554809 -94.068069428,16.089443184 -93.962509154,15.996386516 -94.714172364,16.192218783 -94.578063924,16.318332681 -94.789733883,16.257774367 -94.855300863,16.431749365 -95.062812803,16.269933694 -94.814300528,16.267662063 -95.101409912,16.237380981 -94.877304077,16.233493805 -94.759132385,16.204145423 -95.15611264,16.194576267 -96.231086737,15.671380066 -97.795288086,15.965177523 -98.77000427,16.545957556 -99.692069982,16.700721755 -101.058113104,17.268505086 -101.959075919,17.965526575 -102.186340329,17.90981292 -103.481597862,18.318492892 -103.972816479,18.865894319 -104.961769097,19.313524236 -105.699462862,20.390687955 -105.258186315,20.576807018 -105.347129822,20.771146797 -105.546630814,20.79482462 -105.243568396,21.062578202 -105.195281977,21.45812417 -105.654777513,21.989217732 -105.811325072,22.644142158 -106.976989743,23.922924027 -108.007591239,24.660703654 -108.070899975,25.093109135 -108.776741029,25.37182807 -108.697341908,25.527328489 -108.791091909,25.419019715 -108.77951051,25.55212593 -108.93678282,25.452943807 -109.397476189,25.638536444 -109.308166504,26.567321777 -109.790367124,26.725036631 -109.96264644,27.102756502 -110.522079473,27.295570384 -110.631065368,27.611108789 -110.507461501,27.860708264 -111.101943925,27.937952045 -112.165763826,28.967990905 -112.205640991,29.255874538 -111.844826641,29.381132666 -111.469153372,30.41485173 -111.613071673,31.308495049 -111.449487354,32.575974985 -111.840387042,33.164589357 -113.579556205,34.139895051 -114.439317093,35.02504265 -114.63872846,35.933344734 -114.435327418,36.032726528 -113.410886705,35.807052154 -109.818519578,34.075981908 -108.696283052,33.760993574 -108.138711084,34.116420966 -108.415562495,35.187840476 -108.261420954,35.335659217 -105.781476456,35.647815002 -105.486257365,35.802209783 -105.051034219,36.626347094 -105.02526385,37.123100031 -105.770633562,38.125545217 -105.951344625,38.705332848 -104.627054991,39.42043302 -104.157305401,39.481953164 -103.76605998,39.40609668 -103.501286973,38.764047152 -101.972860186,37.525974596 -101.806173616,37.204516641 -101.900981138,36.706711492 -102.193113113,36.396825763 -103.13565238,35.820920422 " /><polygon class="region" points="-94.772517781,29.934661174 -95.034641536,29.92088986 -95.23266041,30.262574096 -95.308880113,30.780771942 -95.162661548,31.102997937 -94.706940733,31.421821171 -93.845440808,31.361100059 -93.698170997,30.80910311 -93.786816585,30.568160593 -94.448863995,29.995683943 -94.772517781,29.934661174 " />
		  </g>
		</svg>