<?xml version="1.0" encoding="UTF-8"?>
	<svg xmlns:xlink="http://www.w3.org/1999/xlink" 
	xmlns="http://www.w3.org/2000/svg" 
	width="360px" height="180px">
	   <style type="text/css">
		  <![CDATA[     
		  .region 
		  { 
			fill:blue; 
			opacity:0.4; 
			stroke:blue;
		  }
		  ]]>
	   </style>

	<circle id="dot" x="-2" y="-2" r="2" style="stroke:none; stroke-width:0; fill:black; opacity:0.7;"/>


	 <image x="0" y="0" width="360" height="180" xlink:href="map.jpg"/>

 
	 <g transform="translate(180,90) scale(1,-1)"><polygon class="region" points="22.4043,-12.220264408 22.3616,-12.369564407 21.7961,-12.337564407 20.9852,-12.102864407 20.9639,-11.537364407 21.7855,-11.430664407 22.4043,-12.220264408 " /><polygon class="region" points="36.9882,-5.500364407 36.3635,-5.328664408 35.9898,-5.025664408 35.7474,-4.3893644079999 35.7997,-3.4883644069999 36.3231,-3.126864408 36.3837,-2.026064407 37.0402,-1.5210644069999 37.9593,-1.4503644069999 38.5552,-1.611964407 38.6966,-2.0866644069999 38.0098,-3.2985644079999 38.3734,-4.2075644069999 38.3128,-4.7933644079999 37.8583,-5.2377644069999 36.9882,-5.500364407 " /><polygon class="region" points="31.7199,-14.030464407 31.4642,-14.134264407 30.9929,-14.030464407 30.889,-13.415264408 31.9835,-11.378164407 32.5028,-10.970664408 32.7504,-10.954764408 33.062,-11.242364407 33.078,-11.761564407 32.8782,-12.328764407 31.7199,-14.030464407 " /><polygon class="region" points="37.4459,-7.252064407 37.5895,-7.3477644079999 38.2119,-7.228064407 38.535,-7.443464407 38.7744,-8.843764407 38.3794,-9.430264407 37.4579,-9.238764408 37.3023,-9.7055644069999 37.6681,-11.042364407 38.7905,-11.346964408 38.812,-11.637164408 38.495,-12.357064407 37.673,-12.507464408 36.3674,-12.249564407 36.0456,-9.789264408 36.2132,-9.1908644069999 36.5722,-9.0592644069999 36.6201,-8.448864408 36.3329,-8.113764407 36.4884,-7.6230644079999 37.1228,-6.9288644069999 37.4459,-7.252064407 " /><polygon class="region" points="35.1544,-3.2388644079999 34.7825,-3.2454644069999 34.2913,-2.973964408 33.9163,-2.0819644069999 34.6015,-1.6682644069999 35.054,-0.95726440799996 35.3643,-0.77626440699993 35.8167,-1.0606644069999 36.1593,-2.7542644069999 36.0494,-3.012764407 35.1544,-3.2388644079999 " /><polygon class="region" points="24.0537,-13.719064408 24.6003,-13.771964407 25.2397,-13.278764407 25.6598,-13.169164407 26.6828,-13.260464407 26.8107,-13.388364407 27.4135,-14.867964408 28.199,-15.543864407 28.3793,-16.005064407 27.6548,-16.637064408 26.8917,-17.631364407 26.8378,-18.170864408 27.3388,-18.725864407 28.4364,-19.325164408 29.3612,-20.295564407 29.9275,-20.569564407 30.9424,-20.441364408 31.7542,-19.820964407 32.9523,-19.282964408 33.2692,-18.688864408 33.388,-17.857164407 33.8039,-17.144264407 34.7544,-17.144264407 35.1701,-17.537264407 35.4807,-19.035164407 35.22986208,-19.61246106 34.88585292,-19.851408 34.66231164,-19.71413235 34.78096404,-20.13959502 34.6446306,-20.4035931 34.71839136,-20.47178079 34.663879439,-20.51298144 34.66277316,-20.55860712 34.68580236,-20.60842131 34.741596229,-20.511924749 35.13151152,-20.9565315 35.00843796,-21.11272047 35.333053123,-22.083158695 34.2385,-22.706864408 35.1953,-23.796064408 35.1953,-24.015264407 35.0491,-24.216164408 34.7203,-24.289264408 33.1128,-23.649864407 31.9072,-23.996964407 32.0533,-26.627464407 32.1447,-26.791864408 32.8691,-27.012664407 32.416923523,-28.492521286 32.073189778,-28.826763942 31.4696,-28.671764408 30.2989,-27.808764408 29.1388,-27.908564407 28.0161,-28.382664407 27.3425,-28.968964407 26.4943,-30.453364407 26.2198,-30.603064407 25.7084,-30.515764408 23.5554,-28.667864408 23.0221,-27.763164407 22.4959,-27.236964407 21.19,-26.710664407 19.3968,-26.691164407 18.5492,-26.443964407 16.8065,-24.874664408 16.3482,-23.211464407 16.2386,-21.439564407 15.3435,-20.581064407 14.2474,-20.014764407 13.5236,-19.368564407 13.1765,-18.692664408 13.1035,-16.573664407 13.9437,-14.746964408 14.985,-13.559564407 16.6655,-12.445264407 19.2047,-12.134764407 22.1343,-12.584564407 22.664,-12.748964407 24.0537,-13.719064408 " /><polygon class="region" points="38.749,-16.672964408 38.2039,-16.793064408 38.1208,-16.442064407 38.458,-16.224864407 38.749,-16.672964408 " />
		  </g>
		</svg>