<?xml version="1.0" encoding="UTF-8"?>
	<svg xmlns:xlink="http://www.w3.org/1999/xlink" 
	xmlns="http://www.w3.org/2000/svg" 
	width="360px" height="180px">
	   <style type="text/css">
		  <![CDATA[     
		  .region 
		  { 
			fill:blue; 
			opacity:0.4; 
			stroke:blue;
		  }
		  ]]>
	   </style>

	<circle id="dot" x="-2" y="-2" r="2" style="stroke:none; stroke-width:0; fill:black; opacity:0.7;"/>


	 <image x="0" y="0" width="360" height="180" xlink:href="map.jpg"/>

 
	 <g transform="translate(180,90) scale(1,-1)">   <use xlink:href="#dot" transform="translate(32.132,-20.177)" />   <use xlink:href="#dot" transform="translate(32.19681,-20.297288)" />   <use xlink:href="#dot" transform="translate(32.4323,-28.3153)" />   <use xlink:href="#dot" transform="translate(28.489008,-15.145686)" />   <use xlink:href="#dot" transform="translate(27.07984,-25.251091)" />   <use xlink:href="#dot" transform="translate(35.81234,-3.40944)" />   <use xlink:href="#dot" transform="translate(36.038474,-3.779403)" />   <use xlink:href="#dot" transform="translate(35.569817,-3.178206)" />   <use xlink:href="#dot" transform="translate(34.995527,-3.013772)" />   <use xlink:href="#dot" transform="translate(35.004995,-2.750402)" />   <use xlink:href="#dot" transform="translate(16.189116,-19.214603)" />   <use xlink:href="#dot" transform="translate(18.389986,-23.237738)" />   <use xlink:href="#dot" transform="translate(22.386189,-27.315197)" />   <use xlink:href="#dot" transform="translate(18.389986,-23.237738)" />   <use xlink:href="#dot" transform="translate(24.845421,-28.597923)" />   <use xlink:href="#dot" transform="translate(18.389986,-23.237738)" />   <use xlink:href="#dot" transform="translate(27.50229,-24.526498)" />   <use xlink:href="#dot" transform="translate(29.206448,-22.202965)" />   <use xlink:href="#dot" transform="translate(18.389986,-23.237738)" />   <use xlink:href="#dot" transform="translate(18.389986,-23.237738)" />   <use xlink:href="#dot" transform="translate(18.389986,-23.237738)" />   <use xlink:href="#dot" transform="translate(18.389986,-23.237738)" />   <use xlink:href="#dot" transform="translate(28.70614,-24.44928)" />   <use xlink:href="#dot" transform="translate(18.389986,-23.237738)" />   <use xlink:href="#dot" transform="translate(18.389986,-23.237738)" />   <use xlink:href="#dot" transform="translate(18.389986,-23.237738)" />   <use xlink:href="#dot" transform="translate(24.458269,-29.075518)" />   <use xlink:href="#dot" transform="translate(18.389986,-23.237738)" />   <use xlink:href="#dot" transform="translate(29.228374,-22.191189)" />   <use xlink:href="#dot" transform="translate(18.389986,-23.237738)" />   <use xlink:href="#dot" transform="translate(18.389986,-23.237738)" />   <use xlink:href="#dot" transform="translate(24.345864,-29.175497)" />   <use xlink:href="#dot" transform="translate(18.389986,-23.237738)" />   <use xlink:href="#dot" transform="translate(18.389986,-23.237738)" />   <use xlink:href="#dot" transform="translate(18.389986,-23.237738)" />   <use xlink:href="#dot" transform="translate(35.57785,-3.141887)" />   <use xlink:href="#dot" transform="translate(23.200102,-21.774287)" />   <use xlink:href="#dot" transform="translate(18.389986,-23.237738)" />   <use xlink:href="#dot" transform="translate(16.927483,-18.823053)" />   <use xlink:href="#dot" transform="translate(18.389986,-23.237738)" />   <use xlink:href="#dot" transform="translate(16.660151,-18.759207)" />   <use xlink:href="#dot" transform="translate(18.389986,-23.237738)" />   <use xlink:href="#dot" transform="translate(18.389986,-23.237738)" />   <use xlink:href="#dot" transform="translate(18.389986,-23.237738)" />   <use xlink:href="#dot" transform="translate(30.808078,-17.930643)" />   <use xlink:href="#dot" transform="translate(14.764226,-18.964838)" />   <use xlink:href="#dot" transform="translate(37.337723,-2.704893)" />   <use xlink:href="#dot" transform="translate(16.50316,-21.43184)" />   <use xlink:href="#dot" transform="translate(20.218136,-25.946003)" />   <use xlink:href="#dot" transform="translate(15.904991,-19.145243)" />   <use xlink:href="#dot" transform="translate(20.103008,-25.865424)" />   <use xlink:href="#dot" transform="translate(23.51593,-21.524059)" />   <use xlink:href="#dot" transform="translate(23.400879,-19.764118)" />   <use xlink:href="#dot" transform="translate(30.808031,-17.920412)" />   <use xlink:href="#dot" transform="translate(23.836212,-21.505342)" />   <use xlink:href="#dot" transform="translate(37.199364,-2.639218)" />   <use xlink:href="#dot" transform="translate(32.225733,-27.610767)" />   <use xlink:href="#dot" transform="translate(35.202942,-1.573594)" />   <use xlink:href="#dot" transform="translate(31.830139,-28.311937)" />   <use xlink:href="#dot" transform="translate(37.199364,-2.639218)" />   <use xlink:href="#dot" transform="translate(38.057453,-7.634497)" />   <use xlink:href="#dot" transform="translate(32.22599,-27.611299)" />   <use xlink:href="#dot" transform="translate(35.202942,-1.573594)" />   <use xlink:href="#dot" transform="translate(30.758929,-17.91288)" />   <use xlink:href="#dot" transform="translate(35.123022,-1.529435)" />   <use xlink:href="#dot" transform="translate(27.702747,-25.987472)" />   <use xlink:href="#dot" transform="translate(31.183126,-26.482232)" />   <use xlink:href="#dot" transform="translate(38.069888,-7.637463)" />   <use xlink:href="#dot" transform="translate(35.485841,-1.894797)" />   <use xlink:href="#dot" transform="translate(23.836212,-21.505342)" />   <use xlink:href="#dot" transform="translate(35.592013,-3.143892)" />   <use xlink:href="#dot" transform="translate(35.095824,-1.469261)" />   <use xlink:href="#dot" transform="translate(35.981482,-4.021913)" />   <use xlink:href="#dot" transform="translate(32.279109,-27.87945)" />   <use xlink:href="#dot" transform="translate(16.195797,-20.118109)" />   <use xlink:href="#dot" transform="translate(24.083633,-18.649017)" />   <use xlink:href="#dot" transform="translate(35.58767,-3.161752)" />   <use xlink:href="#dot" transform="translate(34.833333,-2.069856)" />   <use xlink:href="#dot" transform="translate(31.195994,-26.479839)" />   <use xlink:href="#dot" transform="translate(31.58844,-24.946219)" />   <use xlink:href="#dot" transform="translate(20.612453,-26.467808)" />   <use xlink:href="#dot" transform="translate(16.106644,-19.169016)" />   <use xlink:href="#dot" transform="translate(34.747009,-2.619326)" />   <use xlink:href="#dot" transform="translate(25.820225,-17.859175)" />   <use xlink:href="#dot" transform="translate(31.59874,-24.969875)" />   <use xlink:href="#dot" transform="translate(34.747009,-2.619326)" />   <use xlink:href="#dot" transform="translate(28.676361,-24.221206)" />   <use xlink:href="#dot" transform="translate(35.561028,-3.17274)" />   <use xlink:href="#dot" transform="translate(20.612453,-26.467808)" />   <use xlink:href="#dot" transform="translate(34.747009,-2.619326)" />   <use xlink:href="#dot" transform="translate(20.612453,-26.467808)" />   <use xlink:href="#dot" transform="translate(37.199364,-2.639218)" />   <use xlink:href="#dot" transform="translate(28.351593,-25.343716)" />   <use xlink:href="#dot" transform="translate(21.929019,-34.107383)" />   <use xlink:href="#dot" transform="translate(38.105478,-7.651185)" />   <use xlink:href="#dot" transform="translate(31.593246,-24.97112)" />   <use xlink:href="#dot" transform="translate(37.841718,-7.589602)" />   <use xlink:href="#dot" transform="translate(21.909124,-34.079172)" />   <use xlink:href="#dot" transform="translate(38.15114,-7.671255)" />   <use xlink:href="#dot" transform="translate(31.606979,-24.96863)" />   <use xlink:href="#dot" transform="translate(31.595993,-24.967385)" />   <use xlink:href="#dot" transform="translate(25.744383,-17.853687)" />   <use xlink:href="#dot" transform="translate(31.622086,-24.961783)" />   <use xlink:href="#dot" transform="translate(22.60849,-14.609)" />   <use xlink:href="#dot" transform="translate(31.600113,-24.96614)" />   <use xlink:href="#dot" transform="translate(38.054068,-7.637622)" />   <use xlink:href="#dot" transform="translate(31.620712,-24.96116)" />   <use xlink:href="#dot" transform="translate(32.3964,-28.246)" />   <use xlink:href="#dot" transform="translate(31.519775,-23.845022)" />   <use xlink:href="#dot" transform="translate(31.59668,-24.978589)" />   <use xlink:href="#dot" transform="translate(31.59693,-24.99483)" />   <use xlink:href="#dot" transform="translate(15.935669,-19.165276)" />   <use xlink:href="#dot" transform="translate(31.630325,-24.972365)" />   <use xlink:href="#dot" transform="translate(31.59693,-24.99483)" />   <use xlink:href="#dot" transform="translate(31.59693,-24.99483)" />   <use xlink:href="#dot" transform="translate(18.389986,-23.237738)" />   <use xlink:href="#dot" transform="translate(31.159937,-17.829479)" />   <use xlink:href="#dot" transform="translate(31.630325,-24.972365)" />   <use xlink:href="#dot" transform="translate(31.59668,-24.976099)" />   <use xlink:href="#dot" transform="translate(31.591187,-24.977344)" />   <use xlink:href="#dot" transform="translate(31.59256,-24.977344)" />   <use xlink:href="#dot" transform="translate(31.630325,-24.972365)" />   <use xlink:href="#dot" transform="translate(31.630325,-24.972365)" />   <use xlink:href="#dot" transform="translate(31.59693,-24.99483)" />   <use xlink:href="#dot" transform="translate(24.322315,-29.162242)" />   <use xlink:href="#dot" transform="translate(31.621399,-24.95867)" />   <use xlink:href="#dot" transform="translate(31.149565,-17.829157)" />   <use xlink:href="#dot" transform="translate(31.59693,-24.99483)" />   <use xlink:href="#dot" transform="translate(31.59693,-24.99483)" />   <use xlink:href="#dot" transform="translate(16.739731,-18.923175)" />   <use xlink:href="#dot" transform="translate(28.394586,-15.540975)" />   <use xlink:href="#dot" transform="translate(32.3953,-28.2479)" />   <use xlink:href="#dot" transform="translate(35.224945,-2.877641)" />   <use xlink:href="#dot" transform="translate(13.262787,-9.20431)" />   <use xlink:href="#dot" transform="translate(31.877707,-28.277898)" />   <use xlink:href="#dot" transform="translate(36.98277,-1.668742)" />   <use xlink:href="#dot" transform="translate(15.517279,-18.983992)" />   <use xlink:href="#dot" transform="translate(15.935669,-19.165276)" />   <use xlink:href="#dot" transform="translate(15.935669,-19.165276)" />   <use xlink:href="#dot" transform="translate(15.904947,-24.116777)" />   <use xlink:href="#dot" transform="translate(15.935669,-19.165276)" />   <use xlink:href="#dot" transform="translate(16.471746,-19.031652)" />   <use xlink:href="#dot" transform="translate(31.518917,-24.940149)" />   <use xlink:href="#dot" transform="translate(16.471746,-19.031652)" />   <use xlink:href="#dot" transform="translate(27.121667,-18.910556)" />   <use xlink:href="#dot" transform="translate(16.940081,-18.812515)" />   <use xlink:href="#dot" transform="translate(37.199364,-2.639218)" />   <use xlink:href="#dot" transform="translate(16.471746,-19.031652)" />   <use xlink:href="#dot" transform="translate(37.987289,-3.225529)" />   <use xlink:href="#dot" transform="translate(16.947301,-18.842595)" />   <use xlink:href="#dot" transform="translate(37.131128,-1.680152)" />   <use xlink:href="#dot" transform="translate(27.101067,-18.954072)" />   <use xlink:href="#dot" transform="translate(16.940081,-18.812515)" />   <use xlink:href="#dot" transform="translate(24.764818,-19.906035)" />   <use xlink:href="#dot" transform="translate(25.2169,-20.4772)" />   <use xlink:href="#dot" transform="translate(30.573586,-29.845494)" />   <use xlink:href="#dot" transform="translate(32.234348,-27.629013)" />   <use xlink:href="#dot" transform="translate(24.766525,-19.917677)" />   <use xlink:href="#dot" transform="translate(16.594849,-18.992748)" />   <use xlink:href="#dot" transform="translate(24.070355,-18.559873)" />   <use xlink:href="#dot" transform="translate(35.571104,-3.194864)" />   <use xlink:href="#dot" transform="translate(37.1507,-1.710353)" />   <use xlink:href="#dot" transform="translate(37.1305,-7.342128)" />   <use xlink:href="#dot" transform="translate(37.151069,-1.709746)" />   <use xlink:href="#dot" transform="translate(37.152994,-1.734513)" />   <use xlink:href="#dot" transform="translate(37.1668,-1.716348)" />   <use xlink:href="#dot" transform="translate(37.166169,-1.731506)" />   <use xlink:href="#dot" transform="translate(37.166214,-1.731496)" />   <use xlink:href="#dot" transform="translate(37.157855,-1.736832)" />   <use xlink:href="#dot" transform="translate(34.360971,-18.967608)" />   <use xlink:href="#dot" transform="translate(35.866126,-3.950674)" />   <use xlink:href="#dot" transform="translate(24.070856,-18.661744)" />   <use xlink:href="#dot" transform="translate(16.546887,-19.006168)" />   <use xlink:href="#dot" transform="translate(35.585403,-3.169312)" />   <use xlink:href="#dot" transform="translate(35.956879,-3.946461)" />   <use xlink:href="#dot" transform="translate(35.799637,-3.455849)" />   <use xlink:href="#dot" transform="translate(35.585403,-3.169312)" />   <use xlink:href="#dot" transform="translate(36.074047,-3.840019)" />   <use xlink:href="#dot" transform="translate(38.020767,-7.660997)" />   <use xlink:href="#dot" transform="translate(38.017836,-7.658736)" />   <use xlink:href="#dot" transform="translate(38.027472,-7.640811)" />   <use xlink:href="#dot" transform="translate(30.747986,-24.385876)" />   <use xlink:href="#dot" transform="translate(36.852797,-1.35815)" />   <use xlink:href="#dot" transform="translate(37.095678,-1.497475)" />   <use xlink:href="#dot" transform="translate(38.114231,-7.642964)" />   <use xlink:href="#dot" transform="translate(35.074757,-1.423998)" />   <use xlink:href="#dot" transform="translate(35.867271,-3.701874)" />   <use xlink:href="#dot" transform="translate(34.612587,-2.486907)" />   <use xlink:href="#dot" transform="translate(37.176935,-1.718578)" />   <use xlink:href="#dot" transform="translate(35.585403,-3.169312)" />   <use xlink:href="#dot" transform="translate(36.044769,-4.077973)" />   <use xlink:href="#dot" transform="translate(34.747009,-2.619326)" />   <use xlink:href="#dot" transform="translate(35.748138,-3.565506)" />   <use xlink:href="#dot" transform="translate(36.4044,-0.77211)" />   <use xlink:href="#dot" transform="translate(35.748138,-3.565506)" />   <use xlink:href="#dot" transform="translate(34.747009,-2.619326)" />   <use xlink:href="#dot" transform="translate(16.006115,-25.672653)" />   <use xlink:href="#dot" transform="translate(17.196281,-22.543019)" />   <use xlink:href="#dot" transform="translate(31.76703,-24.666335)" />   <use xlink:href="#dot" transform="translate(26.694635,-26.71542)" />   <use xlink:href="#dot" transform="translate(28.482557,-25.424878)" />   <use xlink:href="#dot" transform="translate(36.418819,-0.788244)" />   <use xlink:href="#dot" transform="translate(36.823425,-1.369727)" />   <use xlink:href="#dot" transform="translate(37.199364,-2.639218)" />   <use xlink:href="#dot" transform="translate(34.895325,-2.639904)" />   <use xlink:href="#dot" transform="translate(23.366677,-19.272157)" />   <use xlink:href="#dot" transform="translate(35.04072,-1.300003)" />   <use xlink:href="#dot" transform="translate(36.825485,-1.361559)" />   <use xlink:href="#dot" transform="translate(37.199364,-2.639218)" />   <use xlink:href="#dot" transform="translate(35.202942,-1.573594)" />   <use xlink:href="#dot" transform="translate(36.905651,-1.426702)" />   <use xlink:href="#dot" transform="translate(37.199364,-2.639218)" />   <use xlink:href="#dot" transform="translate(17.028701,-18.769742)" />   <use xlink:href="#dot" transform="translate(16.635704,-18.974968)" />   <use xlink:href="#dot" transform="translate(34.685651,-2.153994)" />   <use xlink:href="#dot" transform="translate(32.240332,-27.646984)" />   <use xlink:href="#dot" transform="translate(37.080917,-1.539274)" />   <use xlink:href="#dot" transform="translate(35.563892,-3.174003)" />   <use xlink:href="#dot" transform="translate(13.309025,-9.186655)" />   <use xlink:href="#dot" transform="translate(16.106644,-19.169016)" />   <use xlink:href="#dot" transform="translate(16.425518,-21.018326)" />   <use xlink:href="#dot" transform="translate(15.805547,-19.321243)" />   <use xlink:href="#dot" transform="translate(31.245804,-24.517139)" />   <use xlink:href="#dot" transform="translate(15.944798,-19.125688)" />   <use xlink:href="#dot" transform="translate(34.928799,-1.616836)" />   <use xlink:href="#dot" transform="translate(37.135334,-7.345612)" />   <use xlink:href="#dot" transform="translate(23.54815,-19.495019)" />   <use xlink:href="#dot" transform="translate(31.671763,-24.903138)" />   <use xlink:href="#dot" transform="translate(35.020534,-1.390077)" />   <use xlink:href="#dot" transform="translate(38.085823,-7.672205)" />   <use xlink:href="#dot" transform="translate(15.713506,-19.217072)" />   <use xlink:href="#dot" transform="translate(31.844366,-24.777803)" />   <use xlink:href="#dot" transform="translate(22.56241,-14.76234)" />   <use xlink:href="#dot" transform="translate(31.236877,-23.993781)" />   <use xlink:href="#dot" transform="translate(36.8759,-1.381375)" />   <use xlink:href="#dot" transform="translate(35.748138,-3.565506)" />   <use xlink:href="#dot" transform="translate(35.748138,-3.565506)" />   <use xlink:href="#dot" transform="translate(35.561028,-3.17274)" />   <use xlink:href="#dot" transform="translate(35.47554,-3.185766)" />   <use xlink:href="#dot" transform="translate(34.747009,-2.619326)" />   <use xlink:href="#dot" transform="translate(35.47554,-3.185766)" />   <use xlink:href="#dot" transform="translate(35.04776,-2.934812)" />   <use xlink:href="#dot" transform="translate(36.287155,-0.778827)" />   <use xlink:href="#dot" transform="translate(34.996861,-3.020098)" />   <use xlink:href="#dot" transform="translate(35.04776,-2.934812)" />   <use xlink:href="#dot" transform="translate(34.997585,-2.831946)" />   <use xlink:href="#dot" transform="translate(34.747009,-2.619326)" />   <use xlink:href="#dot" transform="translate(35.867271,-3.701874)" />   <use xlink:href="#dot" transform="translate(31.842002,-28.306919)" />   <use xlink:href="#dot" transform="translate(35.554933,-3.138941)" />   <use xlink:href="#dot" transform="translate(27.081299,-25.264568)" />   <use xlink:href="#dot" transform="translate(35.540857,-3.147822)" />   <use xlink:href="#dot" transform="translate(31.868675,-24.446126)" />   <use xlink:href="#dot" transform="translate(31.718419,-24.385417)" />   <use xlink:href="#dot" transform="translate(31.445217,-23.540172)" />   <use xlink:href="#dot" transform="translate(31.55474,-23.988385)" />   <use xlink:href="#dot" transform="translate(24.468304,-29.069231)" />   <use xlink:href="#dot" transform="translate(24.487222,-29.011892)" />   <use xlink:href="#dot" transform="translate(34.747009,-2.619326)" />   <use xlink:href="#dot" transform="translate(31.783145,-25.021116)" />   <use xlink:href="#dot" transform="translate(31.611213,-23.937246)" />   <use xlink:href="#dot" transform="translate(36.044769,-4.077973)" />   <use xlink:href="#dot" transform="translate(18.149208,-33.170916)" />   <use xlink:href="#dot" transform="translate(34.988575,-1.368617)" />   <use xlink:href="#dot" transform="translate(31.768275,-24.500161)" />   <use xlink:href="#dot" transform="translate(35.867271,-3.701874)" />   <use xlink:href="#dot" transform="translate(32.23629,-27.635482)" />   <use xlink:href="#dot" transform="translate(34.964947,-1.391947)" />   <use xlink:href="#dot" transform="translate(36.044769,-4.077973)" />   <use xlink:href="#dot" transform="translate(31.628326,-24.670889)" />   <use xlink:href="#dot" transform="translate(35.867271,-3.701874)" />   <use xlink:href="#dot" transform="translate(32.432256,-27.042854)" />   <use xlink:href="#dot" transform="translate(35.561028,-3.17274)" />   <use xlink:href="#dot" transform="translate(31.184629,-25.570469)" />   <use xlink:href="#dot" transform="translate(34.981119,-1.398463)" />   <use xlink:href="#dot" transform="translate(32.428122,-28.346228)" />   <use xlink:href="#dot" transform="translate(38.116464,-7.693893)" />   <use xlink:href="#dot" transform="translate(38.110714,-7.692446)" />   <use xlink:href="#dot" transform="translate(31.628609,-24.438898)" />   <use xlink:href="#dot" transform="translate(36.044769,-4.077973)" />   <use xlink:href="#dot" transform="translate(35.561028,-3.17274)" />   <use xlink:href="#dot" transform="translate(34.820568,-2.436428)" />   <use xlink:href="#dot" transform="translate(34.820568,-2.436428)" />   <use xlink:href="#dot" transform="translate(24.387202,-29.125061)" />   <use xlink:href="#dot" transform="translate(15.915676,-19.180953)" />   <use xlink:href="#dot" transform="translate(31.874294,-25.349834)" />   <use xlink:href="#dot" transform="translate(24.064865,-33.613476)" />   <use xlink:href="#dot" transform="translate(17.970967,-24.260947)" />   <use xlink:href="#dot" transform="translate(16.4534,-18.967522)" />   <use xlink:href="#dot" transform="translate(15.484972,-19.356663)" />   <use xlink:href="#dot" transform="translate(16.314354,-19.020785)" />   <use xlink:href="#dot" transform="translate(35.591642,-3.194287)" />   <use xlink:href="#dot" transform="translate(35.027161,-1.227628)" />   <use xlink:href="#dot" transform="translate(36.348267,-0.753915)" />   <use xlink:href="#dot" transform="translate(36.348267,-0.753915)" />   <use xlink:href="#dot" transform="translate(35.126997,-1.477648)" />   <use xlink:href="#dot" transform="translate(36.06863,-3.861925)" />   <use xlink:href="#dot" transform="translate(35.563892,-3.174003)" />   <use xlink:href="#dot" transform="translate(32.209167,-27.635833)" />   <use xlink:href="#dot" transform="translate(23.368312,-19.283511)" /><polygon class="region" points="14.764226,-18.964838 13.262787,-9.20431 13.309025,-9.186655 35.027161,-1.227628 36.348267,-0.753915 36.4044,-0.77211 37.095678,-1.497475 37.987289,-3.225529 38.15114,-7.671255 32.428122,-28.346228 30.573586,-29.845494 24.064865,-33.613476 21.929019,-34.107383 18.149208,-33.170916 16.006115,-25.672653 14.764226,-18.964838 " />
		  </g>
		</svg>