<?xml version="1.0" encoding="UTF-8"?>
	<svg xmlns:xlink="http://www.w3.org/1999/xlink" 
	xmlns="http://www.w3.org/2000/svg" 
	width="360px" height="180px">
	   <style type="text/css">
		  <![CDATA[     
		  .region 
		  { 
			fill:blue; 
			opacity:0.4; 
			stroke:blue;
		  }
		  ]]>
	   </style>

	<circle id="dot" x="-2" y="-2" r="2" style="stroke:none; stroke-width:0; fill:black; opacity:0.7;"/>


	 <image x="0" y="0" width="360" height="180" xlink:href="map.jpg"/>

 
	 <g transform="translate(180,90) scale(1,-1)">   <use xlink:href="#dot" transform="translate(124.411,0.764)" />   <use xlink:href="#dot" transform="translate(124.411,0.764)" />   <use xlink:href="#dot" transform="translate(124.411,0.764)" />   <use xlink:href="#dot" transform="translate(124.411,0.764)" />   <use xlink:href="#dot" transform="translate(124.411,0.764)" />   <use xlink:href="#dot" transform="translate(124.411,0.764)" />   <use xlink:href="#dot" transform="translate(124.411,0.764)" />   <use xlink:href="#dot" transform="translate(122.45496,0.88729)" />   <use xlink:href="#dot" transform="translate(122.45867,0.89399)" />   <use xlink:href="#dot" transform="translate(122.45,0.91339299997123)" />   <use xlink:href="#dot" transform="translate(122.45802,0.89071)" />   <use xlink:href="#dot" transform="translate(122.455,0.88729)" />   <use xlink:href="#dot" transform="translate(122.455,0.88729)" />   <use xlink:href="#dot" transform="translate(122.455,0.88729)" />   <use xlink:href="#dot" transform="translate(122.451,0.91013599997132)" />   <use xlink:href="#dot" transform="translate(122.459,0.89399)" />   <use xlink:href="#dot" transform="translate(122.45,0.91339299997123)" />   <use xlink:href="#dot" transform="translate(122.45325,0.90741)" />   <use xlink:href="#dot" transform="translate(122.45802,0.89071)" />   <use xlink:href="#dot" transform="translate(122.451,0.91013599997132)" />   <use xlink:href="#dot" transform="translate(122.455,0.88729)" />   <use xlink:href="#dot" transform="translate(122.455,0.88729)" />   <use xlink:href="#dot" transform="translate(122.45,0.91339299997123)" />   <use xlink:href="#dot" transform="translate(122.451,0.91013599997132)" />   <use xlink:href="#dot" transform="translate(122.451,0.91013599997132)" />   <use xlink:href="#dot" transform="translate(122.45325,0.90741)" />   <use xlink:href="#dot" transform="translate(122.45867,0.89399)" />   <use xlink:href="#dot" transform="translate(122.451,0.91013599997132)" />   <use xlink:href="#dot" transform="translate(122.459,0.89399)" />   <use xlink:href="#dot" transform="translate(122.45802,0.89071)" />   <use xlink:href="#dot" transform="translate(122.45867,0.89399)" />   <use xlink:href="#dot" transform="translate(122.45802,0.89071)" />   <use xlink:href="#dot" transform="translate(122.45,0.91339299997123)" />   <use xlink:href="#dot" transform="translate(122.44994,0.90933)" />   <use xlink:href="#dot" transform="translate(122.451,0.91013599997132)" />   <use xlink:href="#dot" transform="translate(122.45867,0.89399)" />   <use xlink:href="#dot" transform="translate(122.45,0.91339299997123)" />   <use xlink:href="#dot" transform="translate(122.455,0.88729)" />   <use xlink:href="#dot" transform="translate(122.45,0.91339299997123)" />   <use xlink:href="#dot" transform="translate(122.459,0.89399)" />   <use xlink:href="#dot" transform="translate(122.44994,0.90933)" />   <use xlink:href="#dot" transform="translate(122.455,0.88729)" />   <use xlink:href="#dot" transform="translate(122.459,0.89399)" />   <use xlink:href="#dot" transform="translate(122.45,0.91339299997123)" />   <use xlink:href="#dot" transform="translate(122.45802,0.89071)" />   <use xlink:href="#dot" transform="translate(122.451,0.91013599997132)" />   <use xlink:href="#dot" transform="translate(122.45,0.91339299997123)" />   <use xlink:href="#dot" transform="translate(122.45325,0.90741)" />   <use xlink:href="#dot" transform="translate(122.45867,0.89399)" />   <use xlink:href="#dot" transform="translate(122.455,0.88729)" />   <use xlink:href="#dot" transform="translate(122.451,0.91013599997132)" />   <use xlink:href="#dot" transform="translate(122.45325,0.90741)" />   <use xlink:href="#dot" transform="translate(122.45802,0.89071)" />   <use xlink:href="#dot" transform="translate(122.455,0.88729)" />   <use xlink:href="#dot" transform="translate(122.455,0.88729)" />   <use xlink:href="#dot" transform="translate(122.459,0.89399)" />   <use xlink:href="#dot" transform="translate(122.455,0.88729)" />   <use xlink:href="#dot" transform="translate(122.45867,0.89399)" />   <use xlink:href="#dot" transform="translate(122.44994,0.90933)" />   <use xlink:href="#dot" transform="translate(122.45,0.91339299997123)" />   <use xlink:href="#dot" transform="translate(122.451,0.91013599997132)" />   <use xlink:href="#dot" transform="translate(122.45325,0.90741)" />   <use xlink:href="#dot" transform="translate(120.93853,1.10607)" />   <use xlink:href="#dot" transform="translate(120.9106,1.10642)" />   <use xlink:href="#dot" transform="translate(120.9106,1.10642)" />   <use xlink:href="#dot" transform="translate(120.93853,1.10607)" />   <use xlink:href="#dot" transform="translate(120.93853,1.10607)" />   <use xlink:href="#dot" transform="translate(120.93853,1.10607)" />   <use xlink:href="#dot" transform="translate(120.93853,1.10607)" />   <use xlink:href="#dot" transform="translate(120.938,1.10978)" />   <use xlink:href="#dot" transform="translate(120.93853,1.10607)" />   <use xlink:href="#dot" transform="translate(120.9106,1.10642)" />   <use xlink:href="#dot" transform="translate(120.93853,1.10607)" />   <use xlink:href="#dot" transform="translate(120.93853,1.10607)" />   <use xlink:href="#dot" transform="translate(120.93853,1.10607)" />   <use xlink:href="#dot" transform="translate(120.93853,1.10607)" />   <use xlink:href="#dot" transform="translate(120.938,1.10978)" />   <use xlink:href="#dot" transform="translate(120.938,1.10978)" />   <use xlink:href="#dot" transform="translate(120.9106,1.10642)" />   <use xlink:href="#dot" transform="translate(120.93853,1.10607)" />   <use xlink:href="#dot" transform="translate(120.93853,1.10607)" />   <use xlink:href="#dot" transform="translate(120.9106,1.10642)" />   <use xlink:href="#dot" transform="translate(120.938,1.10978)" />   <use xlink:href="#dot" transform="translate(120.93853,1.10607)" />   <use xlink:href="#dot" transform="translate(120.9106,1.10642)" />   <use xlink:href="#dot" transform="translate(120.93853,1.10607)" />   <use xlink:href="#dot" transform="translate(120.938,1.10978)" />   <use xlink:href="#dot" transform="translate(120.93853,1.10607)" />   <use xlink:href="#dot" transform="translate(120.93853,1.10607)" />   <use xlink:href="#dot" transform="translate(120.93853,1.10607)" />   <use xlink:href="#dot" transform="translate(120.93853,1.10607)" />   <use xlink:href="#dot" transform="translate(120.93853,1.10607)" />   <use xlink:href="#dot" transform="translate(120.93853,1.10607)" />   <use xlink:href="#dot" transform="translate(120.93853,1.10607)" />   <use xlink:href="#dot" transform="translate(120.938,1.10978)" />   <use xlink:href="#dot" transform="translate(119.3825,-2.5415)" />   <use xlink:href="#dot" transform="translate(119.3825,-2.5415)" />   <use xlink:href="#dot" transform="translate(119.3825,-2.5415)" />   <use xlink:href="#dot" transform="translate(119.3825,-2.5415)" />   <use xlink:href="#dot" transform="translate(119.3825,-2.5415)" />   <use xlink:href="#dot" transform="translate(119.3825,-2.5415)" />   <use xlink:href="#dot" transform="translate(119.3825,-2.5415)" />   <use xlink:href="#dot" transform="translate(119.3825,-2.5415)" />   <use xlink:href="#dot" transform="translate(119.3823,-2.8181)" />   <use xlink:href="#dot" transform="translate(119.3823,-2.8181)" />   <use xlink:href="#dot" transform="translate(119.3825,-2.5415)" />   <use xlink:href="#dot" transform="translate(119.3825,-2.5415)" />   <use xlink:href="#dot" transform="translate(119.3823,-2.8181)" />   <use xlink:href="#dot" transform="translate(119.3823,-2.8181)" />   <use xlink:href="#dot" transform="translate(119.3825,-2.5415)" />   <use xlink:href="#dot" transform="translate(119.3825,-2.5415)" />   <use xlink:href="#dot" transform="translate(119.3825,-2.5415)" />   <use xlink:href="#dot" transform="translate(119.3825,-2.5415)" />   <use xlink:href="#dot" transform="translate(119.3825,-2.5415)" />   <use xlink:href="#dot" transform="translate(119.3825,-2.5415)" />   <use xlink:href="#dot" transform="translate(119.3825,-2.5415)" />   <use xlink:href="#dot" transform="translate(119.3823,-2.8181)" />   <use xlink:href="#dot" transform="translate(119.3823,-2.8181)" />   <use xlink:href="#dot" transform="translate(119.3825,-2.5415)" />   <use xlink:href="#dot" transform="translate(119.3825,-2.5415)" />   <use xlink:href="#dot" transform="translate(119.3825,-2.5415)" />   <use xlink:href="#dot" transform="translate(119.3825,-2.5415)" />   <use xlink:href="#dot" transform="translate(119.3825,-2.5415)" />   <use xlink:href="#dot" transform="translate(119.3825,-2.5415)" />   <use xlink:href="#dot" transform="translate(119.3825,-2.5415)" />   <use xlink:href="#dot" transform="translate(119.3825,-2.5415)" />   <use xlink:href="#dot" transform="translate(119.3825,-2.5415)" />   <use xlink:href="#dot" transform="translate(119.3825,-2.5415)" />   <use xlink:href="#dot" transform="translate(119.3825,-2.5415)" />   <use xlink:href="#dot" transform="translate(119.3825,-2.5415)" />   <use xlink:href="#dot" transform="translate(119.3825,-2.5415)" />   <use xlink:href="#dot" transform="translate(119.3823,-2.8181)" />   <use xlink:href="#dot" transform="translate(119.3825,-2.5415)" />   <use xlink:href="#dot" transform="translate(119.3825,-2.5415)" />   <use xlink:href="#dot" transform="translate(119.3825,-2.5415)" />   <use xlink:href="#dot" transform="translate(119.3825,-2.5415)" />   <use xlink:href="#dot" transform="translate(119.3825,-2.5415)" />   <use xlink:href="#dot" transform="translate(119.3825,-2.5415)" />   <use xlink:href="#dot" transform="translate(119.3823,-2.8181)" />   <use xlink:href="#dot" transform="translate(119.3823,-2.8181)" />   <use xlink:href="#dot" transform="translate(119.3825,-2.5415)" />   <use xlink:href="#dot" transform="translate(119.3825,-2.5415)" />   <use xlink:href="#dot" transform="translate(119.3823,-2.8181)" />   <use xlink:href="#dot" transform="translate(120.0078,-3.40755)" />   <use xlink:href="#dot" transform="translate(120.30919,-1.30934)" />   <use xlink:href="#dot" transform="translate(120.0078,-3.40755)" />   <use xlink:href="#dot" transform="translate(120.30919,-1.30934)" />   <use xlink:href="#dot" transform="translate(120.0078,-3.40755)" />   <use xlink:href="#dot" transform="translate(120.31039,-1.2884)" />   <use xlink:href="#dot" transform="translate(120.30919,-1.30934)" />   <use xlink:href="#dot" transform="translate(120.30639,-1.29255)" />   <use xlink:href="#dot" transform="translate(120.31039,-1.2884)" />   <use xlink:href="#dot" transform="translate(120.0078,-3.40755)" />   <use xlink:href="#dot" transform="translate(120.0078,-3.40755)" />   <use xlink:href="#dot" transform="translate(120.0078,-3.40755)" />   <use xlink:href="#dot" transform="translate(120.31039,-1.2884)" />   <use xlink:href="#dot" transform="translate(120.30639,-1.29255)" />   <use xlink:href="#dot" transform="translate(120.30639,-1.29255)" />   <use xlink:href="#dot" transform="translate(120.31039,-1.2884)" />   <use xlink:href="#dot" transform="translate(120.31039,-1.2884)" />   <use xlink:href="#dot" transform="translate(120.01154,-3.40513)" />   <use xlink:href="#dot" transform="translate(120.31039,-1.2884)" />   <use xlink:href="#dot" transform="translate(120.0078,-3.40755)" />   <use xlink:href="#dot" transform="translate(120.31039,-1.2884)" />   <use xlink:href="#dot" transform="translate(120.31039,-1.2884)" />   <use xlink:href="#dot" transform="translate(120.30639,-1.29255)" />   <use xlink:href="#dot" transform="translate(120.0078,-3.40755)" />   <use xlink:href="#dot" transform="translate(120.31039,-1.2884)" />   <use xlink:href="#dot" transform="translate(120.31039,-1.2884)" />   <use xlink:href="#dot" transform="translate(120.30639,-1.29255)" /><polygon class="region" points="120.0078,-3.40755 119.3823,-2.8181 119.3825,-2.5415 120.9106,1.10642 120.938,1.10978 124.411,0.764 120.01154,-3.40513 120.0078,-3.40755 " />
		  </g>
		</svg>