<?xml version="1.0" encoding="UTF-8"?>
	<svg xmlns:xlink="http://www.w3.org/1999/xlink" 
	xmlns="http://www.w3.org/2000/svg" 
	width="360px" height="180px">
	   <style type="text/css">
		  <![CDATA[     
		  .region 
		  { 
			fill:blue; 
			opacity:0.4; 
			stroke:blue;
		  }
		  ]]>
	   </style>

	<circle id="dot" x="-2" y="-2" r="2" style="stroke:none; stroke-width:0; fill:black; opacity:0.7;"/>


	 <image x="0" y="0" width="360" height="180" xlink:href="map.jpg"/>

 
	 <g transform="translate(180,90) scale(1,-1)"><polygon class="region" points="-10.5646,6.201935593 -11.5642,7.001135592 -12.5169,7.387635592 -12.4304,7.418835593 -12.3395,7.376735593 -12.3001,7.3836355920001 -12.4836,7.4490355930001 -12.3026,7.528035593 -12.5341,7.6538355930001 -12.475,7.7812355930001 -12.7648,7.7466355930001 -13.0015,8.237435593 -13.1655,8.1703355920001 -13.2895,8.418635592 -12.928,8.5641355920001 -13.1751,8.5313355930001 -13.2298,8.939935593 -12.3598,9.0849355930001 -11.3798,8.6674355930001 -9.5648,8.6130355930001 -6.7335,7.959635592 -5.7716,7.1429355930001 -5.1154,6.927635593 -4.5206,7.1121355930001 -4.3378,7.8870355930001 -3.993,8.068535592 -2.4866,7.977735593 -0.0199,6.4083355920001 0.0227,6.173635592 -0.2822,5.5156355930001 -1.9842,4.7554355930001 -3.9879,5.246135592 -6.1212,4.998535593 -7.6033,4.3530355930001 -9.029,4.9767355930001 -10.0215,5.943935593 -10.5646,6.201935593 " /><polygon class="region" points="-10.5833,6.210035593 -10.5646,6.201935593 -10.5879,6.209435592 -10.5833,6.210035593 " />
		  </g>
		</svg>