<?xml version="1.0" encoding="UTF-8"?>
	<svg xmlns:xlink="http://www.w3.org/1999/xlink" 
	xmlns="http://www.w3.org/2000/svg" 
	width="360px" height="180px">
	   <style type="text/css">
		  <![CDATA[     
		  .region 
		  { 
			fill:blue; 
			opacity:0.4; 
			stroke:blue;
		  }
		  ]]>
	   </style>

	<circle id="dot" x="-2" y="-2" r="2" style="stroke:none; stroke-width:0; fill:black; opacity:0.7;"/>


	 <image x="0" y="0" width="360" height="180" xlink:href="map.jpg"/>

 
	 <g transform="translate(180,90) scale(1,-1)">   <use xlink:href="#dot" transform="translate(8.661381,3.361711)" />   <use xlink:href="#dot" transform="translate(8.660769,3.36111)" />   <use xlink:href="#dot" transform="translate(3.22,9.93)" />   <use xlink:href="#dot" transform="translate(2.62,9.33)" />   <use xlink:href="#dot" transform="translate(3.7,10.93)" />   <use xlink:href="#dot" transform="translate(3.22,9.93)" />   <use xlink:href="#dot" transform="translate(3.7,10.93)" />   <use xlink:href="#dot" transform="translate(3.7,10.93)" />   <use xlink:href="#dot" transform="translate(2.62,9.33)" />   <use xlink:href="#dot" transform="translate(3.7,10.93)" />   <use xlink:href="#dot" transform="translate(3.22,9.93)" />   <use xlink:href="#dot" transform="translate(2.62,7.35)" />   <use xlink:href="#dot" transform="translate(2.62,7.35)" />   <use xlink:href="#dot" transform="translate(2.62,7.35)" />   <use xlink:href="#dot" transform="translate(2.62,7.35)" />   <use xlink:href="#dot" transform="translate(2.62,7.35)" />   <use xlink:href="#dot" transform="translate(2.62,7.35)" />   <use xlink:href="#dot" transform="translate(2.62,7.35)" />   <use xlink:href="#dot" transform="translate(2.02,7.92)" />   <use xlink:href="#dot" transform="translate(1.77,6.82)" />   <use xlink:href="#dot" transform="translate(1.77,6.82)" />   <use xlink:href="#dot" transform="translate(1.77,6.82)" />   <use xlink:href="#dot" transform="translate(1.77,6.82)" />   <use xlink:href="#dot" transform="translate(1.77,6.82)" />   <use xlink:href="#dot" transform="translate(1.77,6.82)" />   <use xlink:href="#dot" transform="translate(1.77,6.82)" />   <use xlink:href="#dot" transform="translate(1.77,6.82)" />   <use xlink:href="#dot" transform="translate(1.77,6.82)" />   <use xlink:href="#dot" transform="translate(2.8,6.65)" />   <use xlink:href="#dot" transform="translate(1.77,6.82)" />   <use xlink:href="#dot" transform="translate(2.8,6.65)" />   <use xlink:href="#dot" transform="translate(1.77,6.82)" />   <use xlink:href="#dot" transform="translate(1.77,6.82)" />   <use xlink:href="#dot" transform="translate(8.3833,9.5167)" />   <use xlink:href="#dot" transform="translate(8.3833,9.5167)" /><polygon class="region" points="8.660769,3.36111 1.77,6.82 2.02,7.92 2.62,9.33 3.7,10.93 8.3833,9.5167 8.661381,3.361711 8.660769,3.36111 " />
		  </g>
		</svg>