<?xml version="1.0" encoding="UTF-8"?>
	<svg xmlns:xlink="http://www.w3.org/1999/xlink" 
	xmlns="http://www.w3.org/2000/svg" 
	width="360px" height="180px">
	   <style type="text/css">
		  <![CDATA[     
		  .region 
		  { 
			fill:blue; 
			opacity:0.4; 
			stroke:blue;
		  }
		  ]]>
	   </style>

	<circle id="dot" x="-2" y="-2" r="2" style="stroke:none; stroke-width:0; fill:black; opacity:0.7;"/>


	 <image x="0" y="0" width="360" height="180" xlink:href="map.jpg"/>

 
	 <g transform="translate(180,90) scale(1,-1)"><polygon class="region" points="125,1.756935592 125.2292,1.4663355930001 124.4661,0.44873559300004 123.6269,0.27163559200005 123.2657,0.31393559200006 123.0685,0.52983559300003 120.3247,0.43133559300003 120.0056,-0.17826440699997 120.06,-0.63286440799993 120.2944,-0.94906440699998 120.5077,-0.98646440699997 120.6784,-1.4191644069999 121.0959,-1.423664408 121.6279,-0.79856440699996 121.9401,-0.98156440699995 122.2009,-0.77506440699995 122.9587,-0.74746440799993 122.7176,-0.65916440799992 123.054,-0.56126440799994 123.402,-0.64136440699997 123.4428,-0.83426440699998 123.3059,-1.0542644069999 123.0974,-0.83256440799994 122.8104,-0.93276440799997 122.3859,-1.498264408 121.8556,-1.672364407 121.6613,-1.943864408 121.311,-1.7789644069999 121.3377,-2.0017644069999 121.4034,-1.907064407 121.8638,-2.3923644069999 121.0586,-2.6985644069999 120.6803,-2.648864407 120.1965,-2.962664407 120.4098,-3.255964407 120.4102,-3.5710644069999 120.1424,-3.684664407 119.3069,-3.428964408 118.9305,-3.5685644069999 118.7743,-3.095164407 118.8836,-2.8993644079999 118.7525,-2.782464407 119.1444,-2.4729644079999 119.1428,-2.1915644069999 119.3479,-1.9342644079999 119.3337,-1.1744644079999 119.7373,-0.64516440699993 119.8713,-0.87796440799997 119.8118,-0.13996440699998 119.6126,-0.008364407999977 119.8424,-0.10166440699993 119.7754,0.22093559300004 119.9009,0.22543559200005 119.8832,0.46373559300002 120.0537,0.52633559200007 120.245,0.95643559300004 120.5903,0.76003559200006 120.8146,1.043235592 120.8115,1.326735593 120.96,1.3544355920001 121.4587,1.3025355930001 121.5608,1.059535593 122.4371,1.029335593 122.847,0.80543559200004 122.9734,0.96623559200003 123.9415,0.83293559300006 124.584,1.195835593 124.535,1.3578355930001 124.8216,1.465735592 125,1.756935592 " />
		  </g>
		</svg>