<?xml version="1.0" encoding="UTF-8"?>
	<svg xmlns:xlink="http://www.w3.org/1999/xlink" 
	xmlns="http://www.w3.org/2000/svg" 
	width="360px" height="180px">
	   <style type="text/css">
		  <![CDATA[     
		  .region 
		  { 
			fill:blue; 
			opacity:0.4; 
			stroke:blue;
		  }
		  ]]>
	   </style>

	<circle id="dot" x="-2" y="-2" r="2" style="stroke:none; stroke-width:0; fill:black; opacity:0.7;"/>


	 <image x="0" y="0" width="360" height="180" xlink:href="map.jpg"/>

 
	 <g transform="translate(180,90) scale(1,-1)"><polygon class="region" points="7.1285,4.4004355920001 5.9189,4.3567355920001 5.4882,4.8277355920001 5.3874,5.391235593 4.4815,6.3363355930001 2.8502,6.3974355930001 2.9898,8.5962355930001 3.4416,8.730635593 6.7552,7.8725355930001 8.2527,6.571235593 9.2073,5.4588355930001 9.1231,4.5236355920001 8.9057,4.3288355920001 8.8907,4.520035593 8.6371,4.718935593 8.7003,4.487235592 8.5132,4.497035593 8.4988,4.612935592 8.5669,4.689935592 8.5519,4.7323355930001 8.2893,4.8521355930001 8.2883,4.5598355930001 7.1285,4.4004355920001 " /><polygon class="region" points="9.4705,8.936935593 9.3129,8.781435592 8.7232,8.880635593 8.1428,9.228235593 7.8787,9.601335593 8.0742,10.206735593 8.8845,10.102435593 9.456,9.312235593 9.4705,8.936935593 " /><polygon class="region" points="8.729,3.763035593 8.9367,3.689435593 8.7646,3.318035593 8.4596,3.2675355920001 8.729,3.763035593 " /><polygon class="region" points="8.5426,4.6683355930001 8.5281,4.666635593 8.5297,4.6825355930001 8.5414,4.6855355930001 8.5426,4.6683355930001 " /><polygon class="region" points="5.7278,4.5082355930001 5.7419,4.498835593 5.7471,4.4916355930001 5.7278,4.5082355930001 " /><polygon class="region" points="0.14918399800007,8.812307575 -0.11434473199995,8.724464665 -0.30759913399993,8.9528562310001 -0.36030487999994,9.7083052570001 -0.21975622399998,9.971833987 0.043772506000039,9.9542654050001 0.16675258000004,9.6204623470001 0.14918399800007,8.812307575 " /><polygon class="region" points="-4.376696683,5.589023346 -4.480879178,5.661972715 -4.4079298089999,5.7661552110001 -4.303747314,5.6932058420001 -4.376696683,5.589023346 " />
		  </g>
		</svg>