<?xml version="1.0" encoding="UTF-8"?>
	<svg xmlns:xlink="http://www.w3.org/1999/xlink" 
	xmlns="http://www.w3.org/2000/svg" 
	width="360px" height="180px">
	   <style type="text/css">
		  <![CDATA[     
		  .region 
		  { 
			fill:blue; 
			opacity:0.4; 
			stroke:blue;
		  }
		  ]]>
	   </style>

	<circle id="dot" x="-2" y="-2" r="2" style="stroke:none; stroke-width:0; fill:black; opacity:0.7;"/>


	 <image x="0" y="0" width="360" height="180" xlink:href="map.jpg"/>

 
	 <g transform="translate(180,90) scale(1,-1)"><polygon class="region" points="-111.5123,38.434035593 -111.6885,38.028335593 -111.9448,37.985635593 -112.0249,37.670635593 -112.3185,37.478435593 -112.6762,37.681235592 -112.6229,37.889535592 -113.2315,37.467735593 -113.1087,38.119035593 -112.3986,38.199135592 -112.2972,37.798735592 -112.0729,37.948235593 -111.8861,38.572935592 -111.6725,38.594235593 -111.6725,38.407335592 -111.3842,38.727735593 -111.5123,38.434035593 " /><polygon class="region" points="-113.4739,38.160935592 -113.4957,37.965435593 -113.778,38.211635592 -113.6767,38.269535593 -113.4739,38.160935592 " /><polygon class="region" points="-111.7177,38.869535592 -111.7399,38.868935592 -111.7153,38.910735593 -111.7079,38.899035592 -111.7177,38.869535592 " /><polygon class="region" points="-112.8415,38.961835592 -112.8572,38.973935592 -112.8443,38.990935593 -112.8281,38.976035593 -112.8415,38.961835592 " /><polygon class="region" points="-111.8272,39.158935593 -111.8372,39.158935593 -111.8456,39.195735592 -111.8266,39.181335593 -111.8272,39.158935593 " />
		  </g>
		</svg>