<?xml version="1.0" encoding="UTF-8"?>
	<svg xmlns:xlink="http://www.w3.org/1999/xlink" 
	xmlns="http://www.w3.org/2000/svg" 
	width="360px" height="180px">
	   <style type="text/css">
		  <![CDATA[     
		  .region 
		  { 
			fill:blue; 
			opacity:0.4; 
			stroke:blue;
		  }
		  ]]>
	   </style>

	<circle id="dot" x="-2" y="-2" r="2" style="stroke:none; stroke-width:0; fill:black; opacity:0.7;"/>


	 <image x="0" y="0" width="360" height="180" xlink:href="map.jpg"/>

 
	 <g transform="translate(180,90) scale(1,-1)">   <use xlink:href="#dot" transform="translate(-112.002292,37.690153)" />   <use xlink:href="#dot" transform="translate(-112.028977,37.731552)" />   <use xlink:href="#dot" transform="translate(-112.194033,37.78995)" />   <use xlink:href="#dot" transform="translate(-112.108709,37.7579)" />   <use xlink:href="#dot" transform="translate(-112.085306,37.644879)" />   <use xlink:href="#dot" transform="translate(-112.036617,37.726282)" />   <use xlink:href="#dot" transform="translate(-112.034819,37.685906)" />   <use xlink:href="#dot" transform="translate(-112.263757,37.567528)" />   <use xlink:href="#dot" transform="translate(-112.201053,37.616061)" />   <use xlink:href="#dot" transform="translate(-113.006152,37.79772)" />   <use xlink:href="#dot" transform="translate(-113.190672,37.622104)" />   <use xlink:href="#dot" transform="translate(-112.07273,37.627075)" />   <use xlink:href="#dot" transform="translate(-112.26825,37.727001)" />   <use xlink:href="#dot" transform="translate(-112.081095,37.707993)" />   <use xlink:href="#dot" transform="translate(-112.900449,37.871788)" />   <use xlink:href="#dot" transform="translate(-113.779348,38.573468)" />   <use xlink:href="#dot" transform="translate(-112.017321,37.789154)" />   <use xlink:href="#dot" transform="translate(-112.198816,37.409167)" />   <use xlink:href="#dot" transform="translate(-112.138789,37.770234)" />   <use xlink:href="#dot" transform="translate(-113.066219,37.691039)" />   <use xlink:href="#dot" transform="translate(-113.056783,37.689789)" />   <use xlink:href="#dot" transform="translate(-112.069655,37.758227)" />   <use xlink:href="#dot" transform="translate(-113.158462,37.633098)" />   <use xlink:href="#dot" transform="translate(-112.131138,37.771719)" />   <use xlink:href="#dot" transform="translate(-113.179355,37.696331)" />   <use xlink:href="#dot" transform="translate(-113.04741,37.759239999086)" />   <use xlink:href="#dot" transform="translate(-113.0341354027,37.906348372538)" />   <use xlink:href="#dot" transform="translate(-113.06727379541,37.675982905381)" />   <use xlink:href="#dot" transform="translate(-113.02416374467,37.773241173051)" />   <use xlink:href="#dot" transform="translate(-113.06727379541,37.675982905381)" />   <use xlink:href="#dot" transform="translate(-113.06305384307,37.690512630663)" />   <use xlink:href="#dot" transform="translate(-113.02416374467,37.773241173051)" />   <use xlink:href="#dot" transform="translate(-113.201515,37.625465)" />   <use xlink:href="#dot" transform="translate(-113.201515,37.625465)" />   <use xlink:href="#dot" transform="translate(-113.201515,37.625465)" />   <use xlink:href="#dot" transform="translate(-113.024391,37.773308)" />   <use xlink:href="#dot" transform="translate(-113.201515,37.625465)" />   <use xlink:href="#dot" transform="translate(-113.201515,37.625465)" />   <use xlink:href="#dot" transform="translate(-113.201515,37.625465)" />   <use xlink:href="#dot" transform="translate(-113.201515,37.625465)" />   <use xlink:href="#dot" transform="translate(-113.201515,37.625465)" />   <use xlink:href="#dot" transform="translate(-113.201515,37.625465)" />   <use xlink:href="#dot" transform="translate(-113.201515,37.625465)" />   <use xlink:href="#dot" transform="translate(-113.275009,37.602158)" />   <use xlink:href="#dot" transform="translate(-113.201515,37.625465)" />   <use xlink:href="#dot" transform="translate(-113.201515,37.625465)" />   <use xlink:href="#dot" transform="translate(-113.201515,37.625465)" />   <use xlink:href="#dot" transform="translate(-113.201515,37.625465)" />   <use xlink:href="#dot" transform="translate(-113.201515,37.625465)" />   <use xlink:href="#dot" transform="translate(-113.201515,37.625465)" />   <use xlink:href="#dot" transform="translate(-113.201515,37.625465)" />   <use xlink:href="#dot" transform="translate(-113.201515,37.625465)" />   <use xlink:href="#dot" transform="translate(-113.201515,37.625465)" />   <use xlink:href="#dot" transform="translate(-113.201515,37.625465)" />   <use xlink:href="#dot" transform="translate(-113.201515,37.625465)" />   <use xlink:href="#dot" transform="translate(-113.201515,37.625465)" />   <use xlink:href="#dot" transform="translate(-113.201515,37.625465)" />   <use xlink:href="#dot" transform="translate(-113.201515,37.625465)" />   <use xlink:href="#dot" transform="translate(-113.201515,37.625465)" />   <use xlink:href="#dot" transform="translate(-113.201515,37.625465)" />   <use xlink:href="#dot" transform="translate(-113.201515,37.625465)" />   <use xlink:href="#dot" transform="translate(-113.201515,37.625465)" />   <use xlink:href="#dot" transform="translate(-113.201515,37.625465)" />   <use xlink:href="#dot" transform="translate(-112.435654,37.822777)" />   <use xlink:href="#dot" transform="translate(-112.435654,37.866276)" />   <use xlink:href="#dot" transform="translate(-112.435654,37.895279)" />   <use xlink:href="#dot" transform="translate(-111.79492765324,38.233709961565)" />   <use xlink:href="#dot" transform="translate(-112.89174024683,37.755112426578)" />   <use xlink:href="#dot" transform="translate(-111.79492765324,38.233709961565)" />   <use xlink:href="#dot" transform="translate(-111.78632743524,38.233710017317)" />   <use xlink:href="#dot" transform="translate(-111.78632743524,38.233710017317)" />   <use xlink:href="#dot" transform="translate(-113.21719964827,37.87569777655)" />   <use xlink:href="#dot" transform="translate(-112.89174024683,37.755112426578)" />   <use xlink:href="#dot" transform="translate(-112.8003291047,37.863860794332)" />   <use xlink:href="#dot" transform="translate(-111.790749,38.232483)" />   <use xlink:href="#dot" transform="translate(-111.78632743524,38.233710017317)" />   <use xlink:href="#dot" transform="translate(-111.7858,38.2336)" />   <use xlink:href="#dot" transform="translate(-111.60587416231,38.359208734318)" />   <use xlink:href="#dot" transform="translate(-111.78632743316,38.233510021249)" />   <use xlink:href="#dot" transform="translate(-112.80032918107,37.871110645988)" />   <use xlink:href="#dot" transform="translate(-112.89174024683,37.755112426578)" />   <use xlink:href="#dot" transform="translate(-111.60587416231,38.359208734318)" />   <use xlink:href="#dot" transform="translate(-112.89174024683,37.755112426578)" />   <use xlink:href="#dot" transform="translate(-112.89174024683,37.755112426578)" />   <use xlink:href="#dot" transform="translate(-112.89174024683,37.755112426578)" />   <use xlink:href="#dot" transform="translate(-111.78632743524,38.233710017317)" />   <use xlink:href="#dot" transform="translate(-111.60587416231,38.359208734318)" />   <use xlink:href="#dot" transform="translate(-111.790749,38.232483)" />   <use xlink:href="#dot" transform="translate(-112.80032918107,37.871110645988)" />   <use xlink:href="#dot" transform="translate(-112.89174024683,37.755112426578)" />   <use xlink:href="#dot" transform="translate(-111.6445456004,38.40277764048)" />   <use xlink:href="#dot" transform="translate(-111.6445456004,38.40277764048)" />   <use xlink:href="#dot" transform="translate(-112.45524802042,37.62944790794)" />   <use xlink:href="#dot" transform="translate(-112.21583287336,37.712517742136)" />   <use xlink:href="#dot" transform="translate(-112.45524802042,37.62944790794)" />   <use xlink:href="#dot" transform="translate(-112.20653258422,37.707117914267)" />   <use xlink:href="#dot" transform="translate(-113.079894125,37.677412791698)" />   <use xlink:href="#dot" transform="translate(-113.079894125,37.677412791698)" />   <use xlink:href="#dot" transform="translate(-113.079894125,37.677412791698)" />   <use xlink:href="#dot" transform="translate(-113.079894125,37.677412791698)" />   <use xlink:href="#dot" transform="translate(-112.19548227841,37.704368042945)" />   <use xlink:href="#dot" transform="translate(-112.48719796033,37.546069445599)" />   <use xlink:href="#dot" transform="translate(-112.48575796385,37.549909374284)" />   <use xlink:href="#dot" transform="translate(-113.27359394353,38.144741950089)" />   <use xlink:href="#dot" transform="translate(-112.48575796385,37.549909374284)" />   <use xlink:href="#dot" transform="translate(-113.1821154908,37.565204463991)" />   <use xlink:href="#dot" transform="translate(-112.48575796385,37.549909374284)" />   <use xlink:href="#dot" transform="translate(-112.48575796385,37.549909374284)" />   <use xlink:href="#dot" transform="translate(-113.1821154908,37.565204463991)" />   <use xlink:href="#dot" transform="translate(-112.48575796385,37.549909374284)" />   <use xlink:href="#dot" transform="translate(-112.48575796385,37.549909374284)" />   <use xlink:href="#dot" transform="translate(-112.48575796385,37.549909374284)" />   <use xlink:href="#dot" transform="translate(-112.668838,37.424344)" />   <use xlink:href="#dot" transform="translate(-113.06727379541,37.675982905381)" />   <use xlink:href="#dot" transform="translate(-113.06727379541,37.675982905381)" />   <use xlink:href="#dot" transform="translate(-112.43025091371,37.967921116884)" />   <use xlink:href="#dot" transform="translate(-111.46010476509,38.770551859227)" />   <use xlink:href="#dot" transform="translate(-112.017321,37.789154)" />   <use xlink:href="#dot" transform="translate(-112.017321,37.789154)" />   <use xlink:href="#dot" transform="translate(-112.017321,37.789154)" />   <use xlink:href="#dot" transform="translate(-112.017321,37.789154)" /><polygon class="region" points="-113.275009,37.602158 -113.779348,38.573468 -111.46010476509,38.770551859227 -111.60587416231,38.359208734318 -112.002292,37.690153 -112.198816,37.409167 -112.668838,37.424344 -113.1821154908,37.565204463991 -113.275009,37.602158 " />
		  </g>
		</svg>