<?xml version="1.0" encoding="UTF-8"?>
	<svg xmlns:xlink="http://www.w3.org/1999/xlink" 
	xmlns="http://www.w3.org/2000/svg" 
	width="360px" height="180px">
	   <style type="text/css">
		  <![CDATA[     
		  .region 
		  { 
			fill:blue; 
			opacity:0.4; 
			stroke:blue;
		  }
		  ]]>
	   </style>

	<circle id="dot" x="-2" y="-2" r="2" style="stroke:none; stroke-width:0; fill:black; opacity:0.7;"/>


	 <image x="0" y="0" width="360" height="180" xlink:href="map.jpg"/>

 
	 <g transform="translate(180,90) scale(1,-1)"><polygon class="region" points="147.361007691,-43.087596893 147.429992676,-43.242271423 147.319610595,-43.504867554 147.130050659,-43.499610901 147.361007691,-43.087596893 " /><polygon class="region" points="146.05809021,-43.299865722 145.924179078,-43.188354492 145.923950196,-43.300724029 145.83706665,-43.315029144 145.26385498,-42.632652282 145.164840699,-42.198448181 145.472503663,-42.531169891 145.552734375,-42.359607697 145.331619263,-42.154689789 145.219085694,-42.218269348 145.249969482,-42.021961212 144.744674683,-41.42496109 144.607223511,-41.012683868 144.688919067,-40.667167664 145.117340088,-40.840141296 145.265436799,-40.725690994 146.378723145,-41.233734131 146.76361084,-41.081344605 146.768493652,-41.164093018 146.919281006,-41.172897339 146.899673462,-41.213897705 146.971908569,-41.316970826 147.118118286,-41.411117554 146.975204467,-41.311355591 146.962402344,-41.193832398 146.785751343,-41.05701065 147.414215088,-41.016204834 147.667861938,-40.823348999 147.886566162,-40.882926941 147.936874389,-40.743183136 148.22052002,-40.849338531 148.34564209,-40.995353699 148.232070923,-41.466423035 148.352233887,-42.198844909 148.25579834,-42.254524231 148.242645263,-41.992263794 148.154693603,-42.002742768 148.232040405,-42.096889496 147.929534912,-42.342815399 147.877807617,-42.848869323 147.449737548,-42.75888443 147.608139038,-42.846809388 147.503601074,-42.865409851 147.551467896,-42.986434937 147.51637268,-43.023132325 147.414001465,-43.050266266 147.483978272,-42.91708374 147.407638549,-42.939529419 147.403015137,-42.887886047 147.258392334,-42.756233215 147.181564331,-42.732925415 147.339813232,-43.052856446 147.164428711,-43.283096314 146.982101441,-43.18932724 147.028961182,-43.055717469 146.96182251,-43.190483093 147.096801758,-43.289634705 146.86869812,-43.637657165 146.031736713,-43.567817864 145.928817749,-43.370716095 146.225219726,-43.383777618 146.05809021,-43.299865722 " />
		  </g>
		</svg>