<?xml version="1.0" encoding="UTF-8"?>
	<svg xmlns:xlink="http://www.w3.org/1999/xlink" 
	xmlns="http://www.w3.org/2000/svg" 
	width="360px" height="180px">
	   <style type="text/css">
		  <![CDATA[     
		  .region 
		  { 
			fill:blue; 
			opacity:0.4; 
			stroke:blue;
		  }
		  ]]>
	   </style>

	<circle id="dot" x="-2" y="-2" r="2" style="stroke:none; stroke-width:0; fill:black; opacity:0.7;"/>


	 <image x="0" y="0" width="360" height="180" xlink:href="map.jpg"/>

 
	 <g transform="translate(180,90) scale(1,-1)">   <use xlink:href="#dot" transform="translate(145.94789,-41.705693)" />   <use xlink:href="#dot" transform="translate(145.808933,-41.673023)" />   <use xlink:href="#dot" transform="translate(147.312756,-43.147842)" />   <use xlink:href="#dot" transform="translate(151.729171,-32.235355)" />   <use xlink:href="#dot" transform="translate(147.413572,-42.515917)" />   <use xlink:href="#dot" transform="translate(146.786197,-42.712562)" />   <use xlink:href="#dot" transform="translate(147.365284,-43.099338)" />   <use xlink:href="#dot" transform="translate(150.624176,-33.579334)" />   <use xlink:href="#dot" transform="translate(147.329707,-42.95323)" />   <use xlink:href="#dot" transform="translate(144.45,-37.87)" />   <use xlink:href="#dot" transform="translate(144.45,-37.87)" />   <use xlink:href="#dot" transform="translate(144.45,-37.87)" />   <use xlink:href="#dot" transform="translate(144.45,-37.87)" />   <use xlink:href="#dot" transform="translate(144.45,-37.87)" />   <use xlink:href="#dot" transform="translate(144.45,-37.87)" />   <use xlink:href="#dot" transform="translate(145.211063812,-42.36863315592)" />   <use xlink:href="#dot" transform="translate(145.952682,-41.67009)" />   <use xlink:href="#dot" transform="translate(151.73852,-29.73565)" />   <use xlink:href="#dot" transform="translate(147.11104834235,-43.208621755537)" />   <use xlink:href="#dot" transform="translate(147.11104834235,-43.208621755537)" />   <use xlink:href="#dot" transform="translate(138.7458,-35.0208)" />   <use xlink:href="#dot" transform="translate(147.36103726458,-42.778616674925)" />   <use xlink:href="#dot" transform="translate(147.24104543489,-43.158620255979)" />   <use xlink:href="#dot" transform="translate(147.36103726458,-42.778616674925)" />   <use xlink:href="#dot" transform="translate(147.15104720352,-43.178621194939)" />   <use xlink:href="#dot" transform="translate(147.36103726458,-42.778616674925)" />   <use xlink:href="#dot" transform="translate(147.36103726458,-42.778616674925)" />   <use xlink:href="#dot" transform="translate(147.13104752205,-43.1786213739)" />   <use xlink:href="#dot" transform="translate(147.36103726458,-42.778616674925)" />   <use xlink:href="#dot" transform="translate(147.36103726458,-42.778616674925)" />   <use xlink:href="#dot" transform="translate(147.11104834235,-43.208621755537)" />   <use xlink:href="#dot" transform="translate(147.36103726458,-42.778616674925)" />   <use xlink:href="#dot" transform="translate(147.07104814247,-43.158621776083)" />   <use xlink:href="#dot" transform="translate(146.93104769756,-42.998621952048)" />   <use xlink:href="#dot" transform="translate(147.11104834235,-43.208621755537)" />   <use xlink:href="#dot" transform="translate(147.36103726458,-42.778616674925)" />   <use xlink:href="#dot" transform="translate(147.36103726458,-42.778616674925)" />   <use xlink:href="#dot" transform="translate(147.36103726458,-42.778616674925)" />   <use xlink:href="#dot" transform="translate(147.27104412442,-43.108619653385)" />   <use xlink:href="#dot" transform="translate(147.36103726458,-42.778616674925)" />   <use xlink:href="#dot" transform="translate(147.27104412442,-43.108619653385)" />   <use xlink:href="#dot" transform="translate(147.10774870148,-43.226921908898)" />   <use xlink:href="#dot" transform="translate(147.2917,-42.825)" />   <use xlink:href="#dot" transform="translate(147.4,-42.6667)" />   <use xlink:href="#dot" transform="translate(147.4,-42.6667)" />   <use xlink:href="#dot" transform="translate(147.2917,-42.825)" />   <use xlink:href="#dot" transform="translate(147.2917,-42.825)" />   <use xlink:href="#dot" transform="translate(147.2917,-42.825)" />   <use xlink:href="#dot" transform="translate(146.71665,-41.61666)" />   <use xlink:href="#dot" transform="translate(147.32103953393,-42.878617683938)" />   <use xlink:href="#dot" transform="translate(147.56103407724,-42.778614910993)" />   <use xlink:href="#dot" transform="translate(145.94999,-41.65)" />   <use xlink:href="#dot" transform="translate(147.16666,-41.43332)" />   <use xlink:href="#dot" transform="translate(147.08332,-42.96665)" />   <use xlink:href="#dot" transform="translate(148.23333,-41.33332)" />   <use xlink:href="#dot" transform="translate(147.01104959774,-43.188622516547)" />   <use xlink:href="#dot" transform="translate(147.16666,-42.15)" />   <use xlink:href="#dot" transform="translate(145.94999,-41.65)" />   <use xlink:href="#dot" transform="translate(147.03333,-43.1)" />   <use xlink:href="#dot" transform="translate(147.73333,-42.83332)" />   <use xlink:href="#dot" transform="translate(147.13333,-41.38333)" />   <use xlink:href="#dot" transform="translate(148.01666,-40.96665)" />   <use xlink:href="#dot" transform="translate(146.65104633334,-42.648622117381)" />   <use xlink:href="#dot" transform="translate(147.21665,-41.3)" />   <use xlink:href="#dot" transform="translate(147.03333,-43.1)" />   <use xlink:href="#dot" transform="translate(147.21665,-41.3)" />   <use xlink:href="#dot" transform="translate(147.13333,-41.38333)" />   <use xlink:href="#dot" transform="translate(147.16666,-41.45)" />   <use xlink:href="#dot" transform="translate(146.17104423597,-42.058622513627)" />   <use xlink:href="#dot" transform="translate(147.06774581028,-43.015320842939)" />   <use xlink:href="#dot" transform="translate(147.72102877859,-42.60861241342)" />   <use xlink:href="#dot" transform="translate(147.16666,-41.45)" />   <use xlink:href="#dot" transform="translate(147.21665,-41.3)" />   <use xlink:href="#dot" transform="translate(147.15104092294,-42.798618664528)" />   <use xlink:href="#dot" transform="translate(146.83434183994,-42.548619831471)" />   <use xlink:href="#dot" transform="translate(147.28434264134,-43.031919023573)" />   <use xlink:href="#dot" transform="translate(147.4667,-41.5333)" />   <use xlink:href="#dot" transform="translate(148.1,-40.9167)" />   <use xlink:href="#dot" transform="translate(148.2667,-41.5167)" />   <use xlink:href="#dot" transform="translate(143.05,-37.98)" />   <use xlink:href="#dot" transform="translate(143.05,-37.98)" />   <use xlink:href="#dot" transform="translate(143.05,-37.98)" />   <use xlink:href="#dot" transform="translate(143.05,-37.98)" />   <use xlink:href="#dot" transform="translate(143.05,-37.98)" />   <use xlink:href="#dot" transform="translate(143.05,-37.98)" />   <use xlink:href="#dot" transform="translate(143.05,-37.98)" />   <use xlink:href="#dot" transform="translate(143.05,-37.98)" />   <use xlink:href="#dot" transform="translate(143.05,-37.98)" />   <use xlink:href="#dot" transform="translate(147.05104223104,-42.78191944176)" />   <use xlink:href="#dot" transform="translate(147.71772893878,-42.615312485037)" />   <use xlink:href="#dot" transform="translate(145.93,-41.57)" />   <use xlink:href="#dot" transform="translate(147.4,-41)" />   <use xlink:href="#dot" transform="translate(146.06666,-41.55)" />   <use xlink:href="#dot" transform="translate(146.06666,-41.55)" />   <use xlink:href="#dot" transform="translate(146.06666,-41.55)" />   <use xlink:href="#dot" transform="translate(146.06666,-41.55)" />   <use xlink:href="#dot" transform="translate(146.06666,-41.55)" />   <use xlink:href="#dot" transform="translate(146.06666,-41.55)" />   <use xlink:href="#dot" transform="translate(146.06666,-41.55)" />   <use xlink:href="#dot" transform="translate(145.12377835362,-37.923051732377)" />   <use xlink:href="#dot" transform="translate(145.12377835362,-37.923051732377)" />   <use xlink:href="#dot" transform="translate(145.12377835362,-37.923051732377)" />   <use xlink:href="#dot" transform="translate(147.8677003527,-40.898600902506)" />   <use xlink:href="#dot" transform="translate(148.2,-41.916667)" />   <use xlink:href="#dot" transform="translate(147.38433505606,-42.665315733023)" />   <use xlink:href="#dot" transform="translate(147.55,-41.55)" />   <use xlink:href="#dot" transform="translate(147.8,-42.0167)" />   <use xlink:href="#dot" transform="translate(146.8,-42.95)" />   <use xlink:href="#dot" transform="translate(147.8,-42.2333)" />   <use xlink:href="#dot" transform="translate(147.4667,-41.5333)" />   <use xlink:href="#dot" transform="translate(147.55,-41.55)" />   <use xlink:href="#dot" transform="translate(147.55,-41.55)" />   <use xlink:href="#dot" transform="translate(147.55,-41.55)" />   <use xlink:href="#dot" transform="translate(147.55,-41.55)" />   <use xlink:href="#dot" transform="translate(147.48432342037,-42.031910851668)" />   <use xlink:href="#dot" transform="translate(151.47124,-32.007704029509)" />   <use xlink:href="#dot" transform="translate(151.554923,-32.071829029607)" />   <use xlink:href="#dot" transform="translate(151.586421,-32.090226029636)" />   <use xlink:href="#dot" transform="translate(147.06774581028,-43.015320842939)" />   <use xlink:href="#dot" transform="translate(148.183333,-40.933333)" />   <use xlink:href="#dot" transform="translate(147.4843218668,-41.931910235551)" />   <use xlink:href="#dot" transform="translate(147.41666,-41.6)" />   <use xlink:href="#dot" transform="translate(148.434914,-36.436454035599)" />   <use xlink:href="#dot" transform="translate(148.1,-40.9167)" />   <use xlink:href="#dot" transform="translate(148.1,-40.9167)" />   <use xlink:href="#dot" transform="translate(148.1,-40.9167)" />   <use xlink:href="#dot" transform="translate(148.1,-40.9167)" />   <use xlink:href="#dot" transform="translate(148.1,-40.9167)" />   <use xlink:href="#dot" transform="translate(148.1,-40.9167)" />   <use xlink:href="#dot" transform="translate(148.1,-40.9167)" />   <use xlink:href="#dot" transform="translate(148.1,-40.9167)" />   <use xlink:href="#dot" transform="translate(146.26775532145,-42.831926775969)" />   <use xlink:href="#dot" transform="translate(146.26775532145,-42.831926775969)" />   <use xlink:href="#dot" transform="translate(146.16775881955,-42.948628472697)" />   <use xlink:href="#dot" transform="translate(146.78333,-41.1)" />   <use xlink:href="#dot" transform="translate(148.01666,-40.96665)" />   <use xlink:href="#dot" transform="translate(148.01666,-40.96665)" />   <use xlink:href="#dot" transform="translate(148.1,-40.9167)" />   <use xlink:href="#dot" transform="translate(148.1,-40.9167)" />   <use xlink:href="#dot" transform="translate(148.1,-40.9167)" />   <use xlink:href="#dot" transform="translate(148.1,-40.9167)" />   <use xlink:href="#dot" transform="translate(148.1,-40.9167)" />   <use xlink:href="#dot" transform="translate(148.1,-40.9167)" />   <use xlink:href="#dot" transform="translate(148.1,-40.9167)" />   <use xlink:href="#dot" transform="translate(148.1,-40.9167)" />   <use xlink:href="#dot" transform="translate(148.1,-40.9167)" />   <use xlink:href="#dot" transform="translate(148.1,-40.9167)" />   <use xlink:href="#dot" transform="translate(148.1,-40.9167)" />   <use xlink:href="#dot" transform="translate(148.1,-40.9167)" />   <use xlink:href="#dot" transform="translate(148.1,-40.9167)" />   <use xlink:href="#dot" transform="translate(148.1,-40.9167)" />   <use xlink:href="#dot" transform="translate(148.1,-40.9167)" />   <use xlink:href="#dot" transform="translate(147.83332,-42)" />   <use xlink:href="#dot" transform="translate(147.3177396405,-42.881917734885)" />   <use xlink:href="#dot" transform="translate(148.01666,-40.96665)" />   <use xlink:href="#dot" transform="translate(148.01666,-40.96665)" />   <use xlink:href="#dot" transform="translate(148.01666,-40.96665)" />   <use xlink:href="#dot" transform="translate(148.01666,-40.96665)" />   <use xlink:href="#dot" transform="translate(148.01666,-40.96665)" />   <use xlink:href="#dot" transform="translate(148.01666,-40.96665)" />   <use xlink:href="#dot" transform="translate(148.01666,-40.96665)" />   <use xlink:href="#dot" transform="translate(148.01666,-40.96665)" />   <use xlink:href="#dot" transform="translate(148.01666,-40.96665)" />   <use xlink:href="#dot" transform="translate(148.01666,-40.96665)" />   <use xlink:href="#dot" transform="translate(148.01666,-40.96665)" />   <use xlink:href="#dot" transform="translate(148.01666,-40.96665)" />   <use xlink:href="#dot" transform="translate(148.01666,-40.96665)" />   <use xlink:href="#dot" transform="translate(148.01666,-40.96665)" />   <use xlink:href="#dot" transform="translate(148.01666,-40.96665)" />   <use xlink:href="#dot" transform="translate(148.01666,-40.96665)" />   <use xlink:href="#dot" transform="translate(148.01666,-40.96665)" />   <use xlink:href="#dot" transform="translate(148.01666,-40.96665)" />   <use xlink:href="#dot" transform="translate(148.01666,-40.96665)" />   <use xlink:href="#dot" transform="translate(148.01666,-40.96665)" />   <use xlink:href="#dot" transform="translate(148.01666,-40.96665)" />   <use xlink:href="#dot" transform="translate(148.01666,-40.96665)" />   <use xlink:href="#dot" transform="translate(148.01666,-40.96665)" />   <use xlink:href="#dot" transform="translate(148.01666,-40.96665)" />   <use xlink:href="#dot" transform="translate(148.01666,-40.96665)" />   <use xlink:href="#dot" transform="translate(148.01666,-40.96665)" />   <use xlink:href="#dot" transform="translate(148.01666,-40.96665)" />   <use xlink:href="#dot" transform="translate(148.01666,-40.96665)" />   <use xlink:href="#dot" transform="translate(148.01666,-40.96665)" />   <use xlink:href="#dot" transform="translate(148.01666,-40.96665)" />   <use xlink:href="#dot" transform="translate(148.01666,-40.96665)" />   <use xlink:href="#dot" transform="translate(148.01666,-40.96665)" />   <use xlink:href="#dot" transform="translate(148.01666,-40.96665)" />   <use xlink:href="#dot" transform="translate(148.01666,-40.96665)" />   <use xlink:href="#dot" transform="translate(148.01666,-40.96665)" />   <use xlink:href="#dot" transform="translate(148.01666,-40.96665)" />   <use xlink:href="#dot" transform="translate(148.01666,-40.96665)" />   <use xlink:href="#dot" transform="translate(148.01666,-40.96665)" />   <use xlink:href="#dot" transform="translate(148.01666,-40.96665)" />   <use xlink:href="#dot" transform="translate(148.01666,-40.96665)" />   <use xlink:href="#dot" transform="translate(148.01666,-40.96665)" />   <use xlink:href="#dot" transform="translate(148.01666,-40.96665)" />   <use xlink:href="#dot" transform="translate(148.28333,-41.05)" />   <use xlink:href="#dot" transform="translate(148.01666,-40.96665)" />   <use xlink:href="#dot" transform="translate(148.01666,-40.96665)" />   <use xlink:href="#dot" transform="translate(148.01666,-40.96665)" />   <use xlink:href="#dot" transform="translate(148.01666,-40.96665)" />   <use xlink:href="#dot" transform="translate(148.01666,-40.96665)" />   <use xlink:href="#dot" transform="translate(148.01666,-40.96665)" />   <use xlink:href="#dot" transform="translate(148.01666,-40.96665)" />   <use xlink:href="#dot" transform="translate(148.01666,-40.96665)" />   <use xlink:href="#dot" transform="translate(148.01666,-40.96665)" />   <use xlink:href="#dot" transform="translate(148.01666,-40.96665)" />   <use xlink:href="#dot" transform="translate(148.01666,-40.96665)" />   <use xlink:href="#dot" transform="translate(148.01666,-40.96665)" />   <use xlink:href="#dot" transform="translate(148.01666,-40.96665)" />   <use xlink:href="#dot" transform="translate(148.01666,-40.96665)" />   <use xlink:href="#dot" transform="translate(148.01666,-40.96665)" />   <use xlink:href="#dot" transform="translate(148.01666,-40.96665)" />   <use xlink:href="#dot" transform="translate(148.01666,-40.96665)" />   <use xlink:href="#dot" transform="translate(148.01666,-40.96665)" />   <use xlink:href="#dot" transform="translate(148.01666,-40.96665)" />   <use xlink:href="#dot" transform="translate(148.01666,-40.96665)" />   <use xlink:href="#dot" transform="translate(148.01666,-40.96665)" />   <use xlink:href="#dot" transform="translate(148.01666,-40.96665)" />   <use xlink:href="#dot" transform="translate(148.01666,-40.96665)" />   <use xlink:href="#dot" transform="translate(148.01666,-40.96665)" />   <use xlink:href="#dot" transform="translate(148.01666,-40.96665)" />   <use xlink:href="#dot" transform="translate(148.01666,-40.96665)" />   <use xlink:href="#dot" transform="translate(148.01666,-40.96665)" />   <use xlink:href="#dot" transform="translate(148.01666,-40.96665)" />   <use xlink:href="#dot" transform="translate(148.01666,-40.96665)" />   <use xlink:href="#dot" transform="translate(148.01666,-40.96665)" />   <use xlink:href="#dot" transform="translate(148.01666,-40.96665)" />   <use xlink:href="#dot" transform="translate(148.01666,-40.96665)" />   <use xlink:href="#dot" transform="translate(148.01666,-40.96665)" />   <use xlink:href="#dot" transform="translate(148.01666,-40.96665)" />   <use xlink:href="#dot" transform="translate(148.01666,-40.96665)" />   <use xlink:href="#dot" transform="translate(148.01666,-40.96665)" />   <use xlink:href="#dot" transform="translate(148.01666,-40.96665)" />   <use xlink:href="#dot" transform="translate(148.01666,-40.96665)" />   <use xlink:href="#dot" transform="translate(148.01666,-40.96665)" />   <use xlink:href="#dot" transform="translate(148.01666,-40.96665)" />   <use xlink:href="#dot" transform="translate(148.01666,-40.96665)" />   <use xlink:href="#dot" transform="translate(148.01666,-40.96665)" />   <use xlink:href="#dot" transform="translate(148.01666,-40.96665)" />   <use xlink:href="#dot" transform="translate(148.01666,-40.96665)" />   <use xlink:href="#dot" transform="translate(148.01666,-40.96665)" />   <use xlink:href="#dot" transform="translate(148.01666,-40.96665)" />   <use xlink:href="#dot" transform="translate(148.01666,-40.96665)" />   <use xlink:href="#dot" transform="translate(148.01666,-40.96665)" />   <use xlink:href="#dot" transform="translate(148.01666,-40.96665)" />   <use xlink:href="#dot" transform="translate(148.01666,-40.96665)" />   <use xlink:href="#dot" transform="translate(148.01666,-40.96665)" />   <use xlink:href="#dot" transform="translate(148.01666,-40.96665)" />   <use xlink:href="#dot" transform="translate(148.01666,-40.96665)" />   <use xlink:href="#dot" transform="translate(148.01666,-40.96665)" />   <use xlink:href="#dot" transform="translate(148.01666,-40.96665)" />   <use xlink:href="#dot" transform="translate(148.01666,-40.96665)" />   <use xlink:href="#dot" transform="translate(148.01666,-40.96665)" />   <use xlink:href="#dot" transform="translate(148.01666,-40.96665)" />   <use xlink:href="#dot" transform="translate(148.01666,-40.96665)" />   <use xlink:href="#dot" transform="translate(148.01666,-40.96665)" />   <use xlink:href="#dot" transform="translate(148.01666,-40.96665)" />   <use xlink:href="#dot" transform="translate(148.01666,-40.96665)" />   <use xlink:href="#dot" transform="translate(148.01666,-40.96665)" />   <use xlink:href="#dot" transform="translate(148.01666,-40.96665)" />   <use xlink:href="#dot" transform="translate(148.01666,-40.96665)" />   <use xlink:href="#dot" transform="translate(148.01666,-40.96665)" />   <use xlink:href="#dot" transform="translate(148.01666,-40.96665)" />   <use xlink:href="#dot" transform="translate(148.01666,-40.96665)" />   <use xlink:href="#dot" transform="translate(148.01666,-40.96665)" />   <use xlink:href="#dot" transform="translate(148.01666,-40.96665)" />   <use xlink:href="#dot" transform="translate(148.01666,-40.96665)" />   <use xlink:href="#dot" transform="translate(148.01666,-40.96665)" />   <use xlink:href="#dot" transform="translate(148.01666,-40.96665)" />   <use xlink:href="#dot" transform="translate(148.01666,-40.96665)" />   <use xlink:href="#dot" transform="translate(148.01666,-40.96665)" />   <use xlink:href="#dot" transform="translate(148.01666,-40.96665)" />   <use xlink:href="#dot" transform="translate(148.01666,-40.96665)" />   <use xlink:href="#dot" transform="translate(148.01666,-40.96665)" />   <use xlink:href="#dot" transform="translate(148.01666,-40.96665)" />   <use xlink:href="#dot" transform="translate(148.01666,-40.96665)" />   <use xlink:href="#dot" transform="translate(148.01666,-40.96665)" />   <use xlink:href="#dot" transform="translate(148.01666,-40.96665)" />   <use xlink:href="#dot" transform="translate(148.01666,-40.96665)" />   <use xlink:href="#dot" transform="translate(148.01666,-40.96665)" />   <use xlink:href="#dot" transform="translate(148.01666,-40.96665)" />   <use xlink:href="#dot" transform="translate(148.01666,-40.96665)" />   <use xlink:href="#dot" transform="translate(148.01666,-40.96665)" />   <use xlink:href="#dot" transform="translate(148.01666,-40.96665)" />   <use xlink:href="#dot" transform="translate(148.01666,-40.96665)" />   <use xlink:href="#dot" transform="translate(148.01666,-40.96665)" />   <use xlink:href="#dot" transform="translate(148.01666,-40.96665)" />   <use xlink:href="#dot" transform="translate(148.01666,-40.96665)" />   <use xlink:href="#dot" transform="translate(148.01666,-40.96665)" />   <use xlink:href="#dot" transform="translate(148.01666,-40.96665)" />   <use xlink:href="#dot" transform="translate(148.01666,-40.96665)" />   <use xlink:href="#dot" transform="translate(148.01666,-40.96665)" />   <use xlink:href="#dot" transform="translate(148.01666,-40.96665)" />   <use xlink:href="#dot" transform="translate(148.01666,-40.96665)" />   <use xlink:href="#dot" transform="translate(148.01666,-40.96665)" />   <use xlink:href="#dot" transform="translate(148.01666,-40.96665)" />   <use xlink:href="#dot" transform="translate(148.01666,-40.96665)" />   <use xlink:href="#dot" transform="translate(148.01666,-40.96665)" />   <use xlink:href="#dot" transform="translate(148.01666,-40.96665)" /><polygon class="region" points="145.211063812,-42.36863315592 138.7458,-35.0208 151.73852,-29.73565 151.729171,-32.235355 148.2,-41.916667 147.73333,-42.83332 147.312756,-43.147842 147.10774870148,-43.226921908898 146.16775881955,-42.948628472697 145.211063812,-42.36863315592 " />
		  </g>
		</svg>