<?xml version="1.0" encoding="UTF-8"?>
	<svg xmlns:xlink="http://www.w3.org/1999/xlink" 
	xmlns="http://www.w3.org/2000/svg" 
	width="360px" height="180px">
	   <style type="text/css">
		  <![CDATA[     
		  .region 
		  { 
			fill:blue; 
			opacity:0.4; 
			stroke:blue;
		  }
		  ]]>
	   </style>

	<circle id="dot" x="-2" y="-2" r="2" style="stroke:none; stroke-width:0; fill:black; opacity:0.7;"/>


	 <image x="0" y="0" width="360" height="180" xlink:href="map.jpg"/>

 
	 <g transform="translate(180,90) scale(1,-1)">   <use xlink:href="#dot" transform="translate(-72.549703,-13.096362)" />   <use xlink:href="#dot" transform="translate(-76.131647,4.845017)" />   <use xlink:href="#dot" transform="translate(-76.067,3.72075)" />   <use xlink:href="#dot" transform="translate(-75.05,5.5167)" />   <use xlink:href="#dot" transform="translate(-75.05,5.5167)" />   <use xlink:href="#dot" transform="translate(-71.49185,-13.023617)" />   <use xlink:href="#dot" transform="translate(-68.738,-12.658)" />   <use xlink:href="#dot" transform="translate(-66.733,-10.767)" />   <use xlink:href="#dot" transform="translate(-75.466667,-11.2)" />   <use xlink:href="#dot" transform="translate(-78.19505,-4.45898)" />   <use xlink:href="#dot" transform="translate(-71.217,-10.133)" />   <use xlink:href="#dot" transform="translate(-71.217,-10.133)" />   <use xlink:href="#dot" transform="translate(-71.217,-10.133)" />   <use xlink:href="#dot" transform="translate(-71.217,-10.133)" />   <use xlink:href="#dot" transform="translate(-71.217,-10.133)" />   <use xlink:href="#dot" transform="translate(-77.01,2.24)" />   <use xlink:href="#dot" transform="translate(-71.217,-10.133)" />   <use xlink:href="#dot" transform="translate(-74.996628,1.997136)" />   <use xlink:href="#dot" transform="translate(-70.916664,-13.5)" />   <use xlink:href="#dot" transform="translate(-75.45,7.183333)" />   <use xlink:href="#dot" transform="translate(-75.45,7.183333)" />   <use xlink:href="#dot" transform="translate(-75.45,7.15)" />   <use xlink:href="#dot" transform="translate(-75.45,7.183333)" />   <use xlink:href="#dot" transform="translate(-75.45,7.183333)" />   <use xlink:href="#dot" transform="translate(-75.45,7.183333)" />   <use xlink:href="#dot" transform="translate(-70.916664,-13.5)" />   <use xlink:href="#dot" transform="translate(-75.316666,-11.05)" />   <use xlink:href="#dot" transform="translate(-75.533333,-10.066667)" />   <use xlink:href="#dot" transform="translate(-75.533333,-10.066667)" />   <use xlink:href="#dot" transform="translate(-75.533333,-10.066667)" />   <use xlink:href="#dot" transform="translate(-75.533333,-10.066667)" />   <use xlink:href="#dot" transform="translate(-75.533333,-10.066667)" />   <use xlink:href="#dot" transform="translate(-75.533333,-10.066667)" />   <use xlink:href="#dot" transform="translate(-75.533333,-10.066667)" />   <use xlink:href="#dot" transform="translate(-75.533333,-10.066667)" />   <use xlink:href="#dot" transform="translate(-75.533333,-10.066667)" />   <use xlink:href="#dot" transform="translate(-75.533333,-10.066667)" />   <use xlink:href="#dot" transform="translate(-75.533333,-10.066667)" />   <use xlink:href="#dot" transform="translate(-75.533333,-10.066667)" />   <use xlink:href="#dot" transform="translate(-75.533333,-10.066667)" />   <use xlink:href="#dot" transform="translate(-75.533333,-10.066667)" />   <use xlink:href="#dot" transform="translate(-60.016666,-3.133333)" />   <use xlink:href="#dot" transform="translate(-76.066666,-9.633333)" />   <use xlink:href="#dot" transform="translate(-76.066666,-9.633333)" />   <use xlink:href="#dot" transform="translate(-75.866669,-9.55)" />   <use xlink:href="#dot" transform="translate(-76.066666,-9.633333)" />   <use xlink:href="#dot" transform="translate(-76.066666,-9.633333)" />   <use xlink:href="#dot" transform="translate(-75.866669,-9.516666)" />   <use xlink:href="#dot" transform="translate(-76.066666,-9.633333)" />   <use xlink:href="#dot" transform="translate(-75.866669,-9.516666)" />   <use xlink:href="#dot" transform="translate(-76.066666,-9.633333)" />   <use xlink:href="#dot" transform="translate(-75.866669,-9.516666)" />   <use xlink:href="#dot" transform="translate(-75.29,6.73)" />   <use xlink:href="#dot" transform="translate(-75.98,5.97)" />   <use xlink:href="#dot" transform="translate(-74.79,6.56)" />   <use xlink:href="#dot" transform="translate(-75.88,5.66)" />   <use xlink:href="#dot" transform="translate(-75.150568,5.383331)" />   <use xlink:href="#dot" transform="translate(-75.72,5.67)" />   <use xlink:href="#dot" transform="translate(-75.15,7.07)" />   <use xlink:href="#dot" transform="translate(-75.64,6.09)" />   <use xlink:href="#dot" transform="translate(-72.233056,7.122778)" />   <use xlink:href="#dot" transform="translate(-75.82,5.6)" />   <use xlink:href="#dot" transform="translate(-76.686556,5.133361)" />   <use xlink:href="#dot" transform="translate(-75.56,6.47)" />   <use xlink:href="#dot" transform="translate(-75.07,6.91)" />   <use xlink:href="#dot" transform="translate(-75.77,7.18)" />   <use xlink:href="#dot" transform="translate(-75.4,6.49)" />   <use xlink:href="#dot" transform="translate(-76.513056,4.073611)" />   <use xlink:href="#dot" transform="translate(-75.79,5.8)" />   <use xlink:href="#dot" transform="translate(-75.35,7.58)" />   <use xlink:href="#dot" transform="translate(-72.231942,7.122778)" />   <use xlink:href="#dot" transform="translate(-75.02,6.6)" />   <use xlink:href="#dot" transform="translate(-75.71,6.11)" />   <use xlink:href="#dot" transform="translate(-75.46,6.65)" />   <use xlink:href="#dot" transform="translate(-73.34,3.75)" /><polygon class="region" points="-75.466667,-11.2 -78.19505,-4.45898 -76.686556,5.133361 -75.77,7.18 -75.35,7.58 -72.231942,7.122778 -60.016666,-3.133333 -66.733,-10.767 -68.738,-12.658 -70.916664,-13.5 -72.549703,-13.096362 -75.466667,-11.2 " />
		  </g>
		</svg>