<?xml version="1.0" encoding="UTF-8"?>
	<svg xmlns:xlink="http://www.w3.org/1999/xlink" 
	xmlns="http://www.w3.org/2000/svg" 
	width="360px" height="180px">
	   <style type="text/css">
		  <![CDATA[     
		  .region 
		  { 
			fill:blue; 
			opacity:0.4; 
			stroke:blue;
		  }
		  ]]>
	   </style>

	<circle id="dot" x="-2" y="-2" r="2" style="stroke:none; stroke-width:0; fill:black; opacity:0.7;"/>


	 <image x="0" y="0" width="360" height="180" xlink:href="map.jpg"/>

 
	 <g transform="translate(180,90) scale(1,-1)"><polygon class="region" points="-72.981399536,9.255277634 -72.384170532,8.3630542760001 -72.326400757,8.070001602 -72.481399536,7.9477787010001 -72.404174805,7.4083347320001 -72.342987061,7.7920589440001 -71.595428467,8.4167766570001 -71.507850647,8.1657772070001 -70.859817505,8.4350757600001 -70.801399231,8.257883072 -72.038795471,7.4829349520001 -71.702552796,6.390134812 -72.203315735,5.382074356 -73.408721924,3.8382396700001 -73.751594544,3.023191452 -75.877113342,0.72071266200004 -76.033790588,0.23192024300005 -75.484680176,-0.002088545999925 -74.734588623,0.001489639000056 -73.549507141,-0.54005622899996 -72.250907898,-0.62259483399993 -71.527549744,-1.1367664329999 -71.138076782,-1.134908676 -70.458473205,-1.5309772489999 -70.025611878,-1.5584888449999 -69.824623108,-1.3209018709999 -69.493034363,-1.2749519349999 -69.405220032,-1.585105896 -68.956954956,-1.8491744999999 -68.034370422,-1.6968784329999 -67.312217713,-1.9152717589999 -66.154472351,-1.795824051 -65.987415314,-2.0480194089999 -65.879203796,-3.1211528769999 -64.787002563,-5.6449050909999 -63.160068512,-7.4350337979999 -63.126607895,-7.6357936859999 -69.188180923,-11.055624008 -68.272136688,-13.722528458 -65.639787674,-16.675178528 -64.671812058,-17.172246933 -64.881103516,-17.695478439 -65.221204757,-17.800125122 -67.654226303,-16.544370651 -69.329759598,-14.360107422 -71.176353455,-12.95171547 -71.684303284,-12.199886322 -73.588058472,-12.374174118 -73.864334107,-11.751823426 -74.617568969,-10.986375809 -75.272247315,-9.62888527 -76.330825805,-8.273324966 -76.985137939,-7.0045738219999 -78.299007416,-5.811504364 -78.794445038,-4.742403031 -78.657417297,-3.7293357849999 -78.363166809,-3.136337281 -77.836545944,-3.0388145439999 -76.190597534,-1.975502014 -75.957542419,-0.25672531199996 -76.248861313,0.29678154000004 -77.330756079,0.78681340100007 -77.093881572,2.152277876 -78.684705734,0.21628761300002 -79.024805069,-0.78753852799997 -79.415443421,-0.53780937199997 -78.566389083,1.215993881 -76.957502365,3.1331729890001 -76.974792481,6.4644603730001 -76.791973114,7.4484653480001 -76.501609802,7.84636879 -76.146722794,7.8033542640001 -75.899375915,6.136457443 -76.695184707,2.9155826570001 -76.713959851,1.9648240810001 -75.565998077,5.3890438080001 -75.318651199,7.115087509 -74.909994126,7.599023819 -74.651893615,7.5344982140001 -74.608877182,7.373186112 -75.232618332,3.5554561610001 -75.619768143,2.59295845 -76.228424659,1.686262615 -76.143694612,1.583376129 -74.831710815,2.589147568 -73.146310806,5.313764572 -72.748405456,6.701051712 -73.329130173,8.550767899 -73.307622909,9.099229813 -72.981399536,9.255277634 " />
		  </g>
		</svg>