<?xml version="1.0" encoding="UTF-8"?>
	<svg xmlns:xlink="http://www.w3.org/1999/xlink" 
	xmlns="http://www.w3.org/2000/svg" 
	width="360px" height="180px">
	   <style type="text/css">
		  <![CDATA[     
		  .region 
		  { 
			fill:blue; 
			opacity:0.4; 
			stroke:blue;
		  }
		  ]]>
	   </style>

	<circle id="dot" x="-2" y="-2" r="2" style="stroke:none; stroke-width:0; fill:black; opacity:0.7;"/>


	 <image x="0" y="0" width="360" height="180" xlink:href="map.jpg"/>

 
	 <g transform="translate(180,90) scale(1,-1)">   <use xlink:href="#dot" transform="translate(-103.777725,26.662336)" />   <use xlink:href="#dot" transform="translate(-103.777725,26.662336)" />   <use xlink:href="#dot" transform="translate(-103.770122,26.75745)" />   <use xlink:href="#dot" transform="translate(-103.741936,26.692258)" />   <use xlink:href="#dot" transform="translate(-103.77005,26.757583)" />   <use xlink:href="#dot" transform="translate(-103.740825,26.691931)" />   <use xlink:href="#dot" transform="translate(-103.791347,26.674)" />   <use xlink:href="#dot" transform="translate(-103.741936,26.692258)" />   <use xlink:href="#dot" transform="translate(-103.740825,26.691931)" />   <use xlink:href="#dot" transform="translate(-103.740825,26.691931)" />   <use xlink:href="#dot" transform="translate(-103.791347,26.674)" />   <use xlink:href="#dot" transform="translate(-103.770122,26.75745)" />   <use xlink:href="#dot" transform="translate(-103.740825,26.691931)" />   <use xlink:href="#dot" transform="translate(-103.741936,26.692258)" />   <use xlink:href="#dot" transform="translate(-103.741936,26.692258)" />   <use xlink:href="#dot" transform="translate(-103.740822,26.693069)" />   <use xlink:href="#dot" transform="translate(-103.786972,26.769178)" />   <use xlink:href="#dot" transform="translate(-103.740825,26.691931)" />   <use xlink:href="#dot" transform="translate(-103.786972,26.769178)" />   <use xlink:href="#dot" transform="translate(-103.777725,26.662336)" />   <use xlink:href="#dot" transform="translate(-103.740822,26.693069)" />   <use xlink:href="#dot" transform="translate(-103.740822,26.693069)" />   <use xlink:href="#dot" transform="translate(-103.740822,26.693069)" />   <use xlink:href="#dot" transform="translate(-103.740825,26.691931)" />   <use xlink:href="#dot" transform="translate(-103.740825,26.691931)" />   <use xlink:href="#dot" transform="translate(-103.786258,26.76825)" />   <use xlink:href="#dot" transform="translate(-103.786972,26.769178)" />   <use xlink:href="#dot" transform="translate(-103.770122,26.75745)" />   <use xlink:href="#dot" transform="translate(-103.777725,26.662336)" />   <use xlink:href="#dot" transform="translate(-103.740822,26.693069)" />   <use xlink:href="#dot" transform="translate(-103.790047,26.674186)" />   <use xlink:href="#dot" transform="translate(-103.741936,26.692258)" />   <use xlink:href="#dot" transform="translate(-103.740822,26.693069)" />   <use xlink:href="#dot" transform="translate(-103.790047,26.674186)" />   <use xlink:href="#dot" transform="translate(-103.740825,26.691931)" />   <use xlink:href="#dot" transform="translate(-103.770122,26.75745)" />   <use xlink:href="#dot" transform="translate(-103.740825,26.691931)" />   <use xlink:href="#dot" transform="translate(-103.786511,26.769047)" />   <use xlink:href="#dot" transform="translate(-103.77005,26.757583)" />   <use xlink:href="#dot" transform="translate(-103.740825,26.691931)" />   <use xlink:href="#dot" transform="translate(-103.791347,26.674)" />   <use xlink:href="#dot" transform="translate(-103.777725,26.662336)" />   <use xlink:href="#dot" transform="translate(-103.777725,26.662336)" />   <use xlink:href="#dot" transform="translate(-103.791347,26.674)" />   <use xlink:href="#dot" transform="translate(-103.77005,26.757583)" />   <use xlink:href="#dot" transform="translate(-103.786689,26.768344)" />   <use xlink:href="#dot" transform="translate(-103.740825,26.691931)" />   <use xlink:href="#dot" transform="translate(-103.786972,26.769178)" />   <use xlink:href="#dot" transform="translate(-103.770122,26.75745)" />   <use xlink:href="#dot" transform="translate(-103.791347,26.674)" />   <use xlink:href="#dot" transform="translate(-103.770394,26.757353)" />   <use xlink:href="#dot" transform="translate(-103.777725,26.662336)" />   <use xlink:href="#dot" transform="translate(-103.786689,26.768344)" />   <use xlink:href="#dot" transform="translate(-103.786094,26.768467)" />   <use xlink:href="#dot" transform="translate(-103.740825,26.691931)" />   <use xlink:href="#dot" transform="translate(-103.777725,26.662336)" />   <use xlink:href="#dot" transform="translate(-103.740825,26.691931)" />   <use xlink:href="#dot" transform="translate(-103.740825,26.691931)" />   <use xlink:href="#dot" transform="translate(-103.791347,26.674)" />   <use xlink:href="#dot" transform="translate(-103.740822,26.693069)" />   <use xlink:href="#dot" transform="translate(-103.740822,26.693069)" />   <use xlink:href="#dot" transform="translate(-103.740825,26.691931)" />   <use xlink:href="#dot" transform="translate(-103.770122,26.75745)" />   <use xlink:href="#dot" transform="translate(-103.77005,26.757583)" />   <use xlink:href="#dot" transform="translate(-103.740825,26.691931)" />   <use xlink:href="#dot" transform="translate(-103.770122,26.75745)" />   <use xlink:href="#dot" transform="translate(-103.777725,26.662336)" />   <use xlink:href="#dot" transform="translate(-103.777725,26.662336)" />   <use xlink:href="#dot" transform="translate(-103.740822,26.693069)" />   <use xlink:href="#dot" transform="translate(-103.777725,26.662336)" />   <use xlink:href="#dot" transform="translate(-103.786511,26.769047)" />   <use xlink:href="#dot" transform="translate(-103.741936,26.692258)" />   <use xlink:href="#dot" transform="translate(-103.740822,26.693069)" />   <use xlink:href="#dot" transform="translate(-103.791347,26.674)" />   <use xlink:href="#dot" transform="translate(-103.786511,26.769047)" />   <use xlink:href="#dot" transform="translate(-103.77005,26.757583)" />   <use xlink:href="#dot" transform="translate(-103.786094,26.768467)" />   <use xlink:href="#dot" transform="translate(-103.740825,26.691931)" />   <use xlink:href="#dot" transform="translate(-103.740825,26.691931)" />   <use xlink:href="#dot" transform="translate(-103.786972,26.769178)" />   <use xlink:href="#dot" transform="translate(-103.770122,26.75745)" />   <use xlink:href="#dot" transform="translate(-103.791142,26.674269)" />   <use xlink:href="#dot" transform="translate(-103.740825,26.691931)" />   <use xlink:href="#dot" transform="translate(-103.740825,26.691931)" />   <use xlink:href="#dot" transform="translate(-103.791347,26.674)" />   <use xlink:href="#dot" transform="translate(-103.791347,26.674)" />   <use xlink:href="#dot" transform="translate(-103.791347,26.674)" />   <use xlink:href="#dot" transform="translate(-103.740825,26.691931)" />   <use xlink:href="#dot" transform="translate(-103.740825,26.691931)" />   <use xlink:href="#dot" transform="translate(-103.740825,26.691931)" />   <use xlink:href="#dot" transform="translate(-103.786972,26.769178)" />   <use xlink:href="#dot" transform="translate(-103.786511,26.769047)" />   <use xlink:href="#dot" transform="translate(-103.740825,26.691931)" />   <use xlink:href="#dot" transform="translate(-103.740825,26.691931)" />   <use xlink:href="#dot" transform="translate(-103.740825,26.691931)" />   <use xlink:href="#dot" transform="translate(-103.770122,26.75745)" />   <use xlink:href="#dot" transform="translate(-103.777725,26.662336)" />   <use xlink:href="#dot" transform="translate(-103.740822,26.693069)" />   <use xlink:href="#dot" transform="translate(-103.740822,26.693069)" />   <use xlink:href="#dot" transform="translate(-103.740825,26.691931)" />   <use xlink:href="#dot" transform="translate(-103.77005,26.757583)" />   <use xlink:href="#dot" transform="translate(-103.770122,26.75745)" />   <use xlink:href="#dot" transform="translate(-103.740822,26.693069)" />   <use xlink:href="#dot" transform="translate(-103.786689,26.768344)" />   <use xlink:href="#dot" transform="translate(-103.790047,26.674186)" />   <use xlink:href="#dot" transform="translate(-103.786094,26.768467)" />   <use xlink:href="#dot" transform="translate(-103.770122,26.75745)" />   <use xlink:href="#dot" transform="translate(-103.791347,26.674)" />   <use xlink:href="#dot" transform="translate(-103.740822,26.693069)" />   <use xlink:href="#dot" transform="translate(-103.786972,26.769178)" />   <use xlink:href="#dot" transform="translate(-103.777725,26.662336)" />   <use xlink:href="#dot" transform="translate(-103.777725,26.662336)" />   <use xlink:href="#dot" transform="translate(-103.777725,26.662336)" />   <use xlink:href="#dot" transform="translate(-103.786258,26.76825)" />   <use xlink:href="#dot" transform="translate(-103.777725,26.662336)" />   <use xlink:href="#dot" transform="translate(-103.770122,26.75745)" />   <use xlink:href="#dot" transform="translate(-103.791347,26.674)" />   <use xlink:href="#dot" transform="translate(-103.791347,26.674)" />   <use xlink:href="#dot" transform="translate(-103.791347,26.674)" />   <use xlink:href="#dot" transform="translate(-103.77005,26.757583)" />   <use xlink:href="#dot" transform="translate(-103.740825,26.691931)" />   <use xlink:href="#dot" transform="translate(-103.786972,26.769178)" />   <use xlink:href="#dot" transform="translate(-103.786689,26.768344)" />   <use xlink:href="#dot" transform="translate(-103.786689,26.768344)" />   <use xlink:href="#dot" transform="translate(-103.786689,26.768344)" />   <use xlink:href="#dot" transform="translate(-103.786094,26.768467)" />   <use xlink:href="#dot" transform="translate(-103.740825,26.691931)" />   <use xlink:href="#dot" transform="translate(-103.786094,26.768467)" />   <use xlink:href="#dot" transform="translate(-103.786689,26.768344)" />   <use xlink:href="#dot" transform="translate(-103.786094,26.768467)" />   <use xlink:href="#dot" transform="translate(-103.786094,26.768467)" />   <use xlink:href="#dot" transform="translate(-103.740825,26.691931)" />   <use xlink:href="#dot" transform="translate(-103.786689,26.768344)" />   <use xlink:href="#dot" transform="translate(-103.770292,26.757506)" />   <use xlink:href="#dot" transform="translate(-103.770372,26.757514)" />   <use xlink:href="#dot" transform="translate(-103.742006,26.692339)" />   <use xlink:href="#dot" transform="translate(-103.740833,26.692933)" />   <use xlink:href="#dot" transform="translate(-103.786689,26.768344)" />   <use xlink:href="#dot" transform="translate(-103.786689,26.768344)" />   <use xlink:href="#dot" transform="translate(-103.786094,26.768467)" />   <use xlink:href="#dot" transform="translate(-103.786094,26.768467)" />   <use xlink:href="#dot" transform="translate(-103.786972,26.769178)" />   <use xlink:href="#dot" transform="translate(-103.770394,26.757353)" />   <use xlink:href="#dot" transform="translate(-103.740825,26.691931)" />   <use xlink:href="#dot" transform="translate(-103.740825,26.691931)" />   <use xlink:href="#dot" transform="translate(-103.770372,26.757514)" />   <use xlink:href="#dot" transform="translate(-103.742006,26.692339)" />   <use xlink:href="#dot" transform="translate(-103.786689,26.768344)" />   <use xlink:href="#dot" transform="translate(-103.786689,26.768344)" />   <use xlink:href="#dot" transform="translate(-103.786689,26.768344)" />   <use xlink:href="#dot" transform="translate(-103.786689,26.768344)" />   <use xlink:href="#dot" transform="translate(-103.786094,26.768467)" />   <use xlink:href="#dot" transform="translate(-103.740825,26.691931)" />   <use xlink:href="#dot" transform="translate(-103.740825,26.691931)" />   <use xlink:href="#dot" transform="translate(-103.740825,26.691931)" />   <use xlink:href="#dot" transform="translate(-103.786972,26.769178)" />   <use xlink:href="#dot" transform="translate(-103.742006,26.692339)" />   <use xlink:href="#dot" transform="translate(-103.740833,26.692933)" />   <use xlink:href="#dot" transform="translate(-103.786689,26.768344)" />   <use xlink:href="#dot" transform="translate(-103.740825,26.691931)" />   <use xlink:href="#dot" transform="translate(-103.786972,26.769178)" />   <use xlink:href="#dot" transform="translate(-103.786972,26.769178)" />   <use xlink:href="#dot" transform="translate(-103.786972,26.769178)" />   <use xlink:href="#dot" transform="translate(-103.770394,26.757353)" />   <use xlink:href="#dot" transform="translate(-103.786689,26.768344)" />   <use xlink:href="#dot" transform="translate(-103.786689,26.768344)" />   <use xlink:href="#dot" transform="translate(-103.787275,26.7689)" />   <use xlink:href="#dot" transform="translate(-103.786258,26.76825)" />   <use xlink:href="#dot" transform="translate(-103.770394,26.757353)" />   <use xlink:href="#dot" transform="translate(-103.786689,26.768344)" />   <use xlink:href="#dot" transform="translate(-103.786689,26.768344)" />   <use xlink:href="#dot" transform="translate(-103.786094,26.768467)" />   <use xlink:href="#dot" transform="translate(-103.786094,26.768467)" />   <use xlink:href="#dot" transform="translate(-103.787275,26.7689)" />   <use xlink:href="#dot" transform="translate(-103.740825,26.691931)" />   <use xlink:href="#dot" transform="translate(-103.740825,26.691931)" />   <use xlink:href="#dot" transform="translate(-103.776542,26.662083)" />   <use xlink:href="#dot" transform="translate(-103.786094,26.768467)" />   <use xlink:href="#dot" transform="translate(-103.786094,26.768467)" />   <use xlink:href="#dot" transform="translate(-103.786094,26.768467)" />   <use xlink:href="#dot" transform="translate(-103.770122,26.75745)" />   <use xlink:href="#dot" transform="translate(-103.770292,26.757506)" />   <use xlink:href="#dot" transform="translate(-103.786689,26.768344)" />   <use xlink:href="#dot" transform="translate(-103.786689,26.768344)" />   <use xlink:href="#dot" transform="translate(-103.787275,26.7689)" />   <use xlink:href="#dot" transform="translate(-103.786094,26.768467)" />   <use xlink:href="#dot" transform="translate(-103.786094,26.768467)" />   <use xlink:href="#dot" transform="translate(-103.740825,26.691931)" />   <use xlink:href="#dot" transform="translate(-103.740825,26.691931)" />   <use xlink:href="#dot" transform="translate(-103.786258,26.76825)" />   <use xlink:href="#dot" transform="translate(-103.786972,26.769178)" />   <use xlink:href="#dot" transform="translate(-103.786972,26.769178)" />   <use xlink:href="#dot" transform="translate(-103.786972,26.769178)" />   <use xlink:href="#dot" transform="translate(-103.770394,26.757353)" />   <use xlink:href="#dot" transform="translate(-103.770122,26.75745)" />   <use xlink:href="#dot" transform="translate(-103.776542,26.662083)" />   <use xlink:href="#dot" transform="translate(-103.742006,26.692339)" />   <use xlink:href="#dot" transform="translate(-103.786094,26.768467)" />   <use xlink:href="#dot" transform="translate(-103.786689,26.768344)" />   <use xlink:href="#dot" transform="translate(-103.786094,26.768467)" />   <use xlink:href="#dot" transform="translate(-103.770394,26.757353)" />   <use xlink:href="#dot" transform="translate(-103.770122,26.75745)" />   <use xlink:href="#dot" transform="translate(-103.770394,26.757353)" />   <use xlink:href="#dot" transform="translate(-103.786689,26.768344)" />   <use xlink:href="#dot" transform="translate(-103.786689,26.768344)" />   <use xlink:href="#dot" transform="translate(-103.786689,26.768344)" />   <use xlink:href="#dot" transform="translate(-103.786094,26.768467)" />   <use xlink:href="#dot" transform="translate(-103.786094,26.768467)" />   <use xlink:href="#dot" transform="translate(-103.786258,26.76825)" />   <use xlink:href="#dot" transform="translate(-103.786972,26.769178)" />   <use xlink:href="#dot" transform="translate(-103.770122,26.75745)" />   <use xlink:href="#dot" transform="translate(-103.786972,26.769178)" />   <use xlink:href="#dot" transform="translate(-103.742006,26.692339)" />   <use xlink:href="#dot" transform="translate(-103.786689,26.768344)" />   <use xlink:href="#dot" transform="translate(-103.786689,26.768344)" />   <use xlink:href="#dot" transform="translate(-103.786689,26.768344)" />   <use xlink:href="#dot" transform="translate(-103.786689,26.768344)" />   <use xlink:href="#dot" transform="translate(-103.786689,26.768344)" />   <use xlink:href="#dot" transform="translate(-103.786094,26.768467)" />   <use xlink:href="#dot" transform="translate(-103.786094,26.768467)" />   <use xlink:href="#dot" transform="translate(-103.740825,26.691931)" />   <use xlink:href="#dot" transform="translate(-103.786258,26.76825)" />   <use xlink:href="#dot" transform="translate(-103.740825,26.691931)" />   <use xlink:href="#dot" transform="translate(-103.786972,26.769178)" />   <use xlink:href="#dot" transform="translate(-103.786972,26.769178)" />   <use xlink:href="#dot" transform="translate(-103.786972,26.769178)" />   <use xlink:href="#dot" transform="translate(-103.770292,26.757506)" />   <use xlink:href="#dot" transform="translate(-103.770292,26.757506)" />   <use xlink:href="#dot" transform="translate(-103.776472,26.662903)" />   <use xlink:href="#dot" transform="translate(-103.786094,26.768467)" />   <use xlink:href="#dot" transform="translate(-103.787275,26.7689)" />   <use xlink:href="#dot" transform="translate(-103.740825,26.691931)" />   <use xlink:href="#dot" transform="translate(-103.786972,26.769178)" />   <use xlink:href="#dot" transform="translate(-103.770394,26.757353)" />   <use xlink:href="#dot" transform="translate(-103.790661,26.674128)" />   <use xlink:href="#dot" transform="translate(-103.786689,26.768344)" />   <use xlink:href="#dot" transform="translate(-103.790047,26.674186)" />   <use xlink:href="#dot" transform="translate(-103.786689,26.768344)" />   <use xlink:href="#dot" transform="translate(-103.786689,26.768344)" />   <use xlink:href="#dot" transform="translate(-103.786094,26.768467)" />   <use xlink:href="#dot" transform="translate(-103.786094,26.768467)" />   <use xlink:href="#dot" transform="translate(-103.786094,26.768467)" />   <use xlink:href="#dot" transform="translate(-103.786094,26.768467)" />   <use xlink:href="#dot" transform="translate(-103.740825,26.691931)" />   <use xlink:href="#dot" transform="translate(-103.786258,26.76825)" />   <use xlink:href="#dot" transform="translate(-103.770394,26.757353)" />   <use xlink:href="#dot" transform="translate(-103.786689,26.768344)" />   <use xlink:href="#dot" transform="translate(-103.786689,26.768344)" />   <use xlink:href="#dot" transform="translate(-103.786094,26.768467)" />   <use xlink:href="#dot" transform="translate(-103.786094,26.768467)" />   <use xlink:href="#dot" transform="translate(-103.740825,26.691931)" />   <use xlink:href="#dot" transform="translate(-103.740825,26.691931)" />   <use xlink:href="#dot" transform="translate(-103.740825,26.691931)" />   <use xlink:href="#dot" transform="translate(-103.786258,26.76825)" />   <use xlink:href="#dot" transform="translate(-103.786972,26.769178)" />   <use xlink:href="#dot" transform="translate(-103.786972,26.769178)" />   <use xlink:href="#dot" transform="translate(-103.786094,26.768467)" />   <use xlink:href="#dot" transform="translate(-103.740825,26.691931)" />   <use xlink:href="#dot" transform="translate(-103.740825,26.691931)" />   <use xlink:href="#dot" transform="translate(-103.776472,26.662903)" />   <use xlink:href="#dot" transform="translate(-103.740833,26.692933)" />   <use xlink:href="#dot" transform="translate(-103.786689,26.768344)" />   <use xlink:href="#dot" transform="translate(-103.786689,26.768344)" />   <use xlink:href="#dot" transform="translate(-103.790047,26.674186)" />   <use xlink:href="#dot" transform="translate(-103.786094,26.768467)" />   <use xlink:href="#dot" transform="translate(-103.786094,26.768467)" />   <use xlink:href="#dot" transform="translate(-103.786094,26.768467)" />   <use xlink:href="#dot" transform="translate(-103.740825,26.691931)" />   <use xlink:href="#dot" transform="translate(-103.786972,26.769178)" />   <use xlink:href="#dot" transform="translate(-103.742006,26.692339)" />   <use xlink:href="#dot" transform="translate(-103.786689,26.768344)" />   <use xlink:href="#dot" transform="translate(-103.786689,26.768344)" />   <use xlink:href="#dot" transform="translate(-103.786094,26.768467)" />   <use xlink:href="#dot" transform="translate(-103.787275,26.7689)" />   <use xlink:href="#dot" transform="translate(-103.786972,26.769178)" />   <use xlink:href="#dot" transform="translate(-103.786972,26.769178)" />   <use xlink:href="#dot" transform="translate(-103.770394,26.757353)" />   <use xlink:href="#dot" transform="translate(-103.742006,26.692339)" />   <use xlink:href="#dot" transform="translate(-103.786689,26.768344)" />   <use xlink:href="#dot" transform="translate(-103.786689,26.768344)" />   <use xlink:href="#dot" transform="translate(-103.786689,26.768344)" />   <use xlink:href="#dot" transform="translate(-103.786094,26.768467)" />   <use xlink:href="#dot" transform="translate(-103.786094,26.768467)" />   <use xlink:href="#dot" transform="translate(-103.786689,26.768344)" />   <use xlink:href="#dot" transform="translate(-103.786094,26.768467)" />   <use xlink:href="#dot" transform="translate(-103.786689,26.768344)" />   <use xlink:href="#dot" transform="translate(-103.786689,26.768344)" />   <use xlink:href="#dot" transform="translate(-103.786689,26.768344)" />   <use xlink:href="#dot" transform="translate(-103.786094,26.768467)" />   <use xlink:href="#dot" transform="translate(-103.740825,26.691931)" />   <use xlink:href="#dot" transform="translate(-103.740825,26.691931)" />   <use xlink:href="#dot" transform="translate(-103.786972,26.769178)" />   <use xlink:href="#dot" transform="translate(-103.786972,26.769178)" />   <use xlink:href="#dot" transform="translate(-103.786972,26.769178)" />   <use xlink:href="#dot" transform="translate(-103.770394,26.757353)" />   <use xlink:href="#dot" transform="translate(-103.770292,26.757506)" />   <use xlink:href="#dot" transform="translate(-103.740833,26.692933)" />   <use xlink:href="#dot" transform="translate(-103.790047,26.674186)" />   <use xlink:href="#dot" transform="translate(-103.786094,26.768467)" />   <use xlink:href="#dot" transform="translate(-103.786094,26.768467)" /><polygon class="region" points="-103.777725,26.662336 -103.791347,26.674 -103.787275,26.7689 -103.786972,26.769178 -103.786511,26.769047 -103.77005,26.757583 -103.740822,26.693069 -103.740825,26.691931 -103.776542,26.662083 -103.777725,26.662336 " />
		  </g>
		</svg>