<?xml version="1.0" encoding="UTF-8"?>
	<svg xmlns:xlink="http://www.w3.org/1999/xlink" 
	xmlns="http://www.w3.org/2000/svg" 
	width="360px" height="180px">
	   <style type="text/css">
		  <![CDATA[     
		  .region 
		  { 
			fill:blue; 
			opacity:0.4; 
			stroke:blue;
		  }
		  ]]>
	   </style>

	<circle id="dot" x="-2" y="-2" r="2" style="stroke:none; stroke-width:0; fill:black; opacity:0.7;"/>


	 <image x="0" y="0" width="360" height="180" xlink:href="map.jpg"/>

 
	 <g transform="translate(180,90) scale(1,-1)">   <use xlink:href="#dot" transform="translate(124.383333,11.05)" />   <use xlink:href="#dot" transform="translate(124.383333,11.05)" />   <use xlink:href="#dot" transform="translate(122.666667,9.466667)" />   <use xlink:href="#dot" transform="translate(122.666667,9.466667)" />   <use xlink:href="#dot" transform="translate(122.666667,9.466667)" />   <use xlink:href="#dot" transform="translate(122.666667,9.466667)" />   <use xlink:href="#dot" transform="translate(122.666667,9.466667)" />   <use xlink:href="#dot" transform="translate(125.483333,7.033333)" />   <use xlink:href="#dot" transform="translate(125.483333,7.033333)" />   <use xlink:href="#dot" transform="translate(125.483333,7.033333)" />   <use xlink:href="#dot" transform="translate(125.483333,7.033333)" />   <use xlink:href="#dot" transform="translate(125.483333,7.033333)" />   <use xlink:href="#dot" transform="translate(125.483333,7.033333)" />   <use xlink:href="#dot" transform="translate(125.483333,7.033333)" />   <use xlink:href="#dot" transform="translate(125.483333,7.033333)" />   <use xlink:href="#dot" transform="translate(125.483333,7.033333)" />   <use xlink:href="#dot" transform="translate(125.483333,7.033333)" />   <use xlink:href="#dot" transform="translate(123.116699,9.5834)" />   <use xlink:href="#dot" transform="translate(123.116699,9.5834)" />   <use xlink:href="#dot" transform="translate(123.116699,9.5834)" />   <use xlink:href="#dot" transform="translate(123.116699,9.5834)" />   <use xlink:href="#dot" transform="translate(123.116699,9.5834)" />   <use xlink:href="#dot" transform="translate(123.116699,9.5834)" />   <use xlink:href="#dot" transform="translate(123.116699,9.5834)" />   <use xlink:href="#dot" transform="translate(123.116699,9.5834)" />   <use xlink:href="#dot" transform="translate(123.116699,9.5834)" />   <use xlink:href="#dot" transform="translate(123.116699,9.5834)" />   <use xlink:href="#dot" transform="translate(123.116699,9.5834)" />   <use xlink:href="#dot" transform="translate(123.116699,9.5834)" />   <use xlink:href="#dot" transform="translate(123.116699,9.5834)" />   <use xlink:href="#dot" transform="translate(123.116699,9.5834)" />   <use xlink:href="#dot" transform="translate(123.116699,9.5834)" />   <use xlink:href="#dot" transform="translate(123.116699,9.5834)" />   <use xlink:href="#dot" transform="translate(123.116699,9.5834)" />   <use xlink:href="#dot" transform="translate(122.966698,9.4667)" />   <use xlink:href="#dot" transform="translate(122.866699,9.3333)" />   <use xlink:href="#dot" transform="translate(122.966698,9.4667)" /><polygon class="region" points="125.483333,7.033333 122.666667,9.466667 124.383333,11.05 125.483333,7.033333 " />
		  </g>
		</svg>