<?xml version="1.0" encoding="UTF-8"?>
	<svg xmlns:xlink="http://www.w3.org/1999/xlink" 
	xmlns="http://www.w3.org/2000/svg" 
	width="360px" height="180px">
	   <style type="text/css">
		  <![CDATA[     
		  .region 
		  { 
			fill:blue; 
			opacity:0.4; 
			stroke:blue;
		  }
		  ]]>
	   </style>

	<circle id="dot" x="-2" y="-2" r="2" style="stroke:none; stroke-width:0; fill:black; opacity:0.7;"/>


	 <image x="0" y="0" width="360" height="180" xlink:href="map.jpg"/>

 
	 <g transform="translate(180,90) scale(1,-1)">   <use xlink:href="#dot" transform="translate(144.87388,-7.08555)" />   <use xlink:href="#dot" transform="translate(143.2833,-12.7167)" />   <use xlink:href="#dot" transform="translate(143.2833,-12.7167)" />   <use xlink:href="#dot" transform="translate(143.2833,-12.7167)" />   <use xlink:href="#dot" transform="translate(152.938,-4.453)" />   <use xlink:href="#dot" transform="translate(129.05,-3)" />   <use xlink:href="#dot" transform="translate(129.05,-3)" />   <use xlink:href="#dot" transform="translate(129.05,-3)" />   <use xlink:href="#dot" transform="translate(129.05,-3)" />   <use xlink:href="#dot" transform="translate(129.05,-3)" />   <use xlink:href="#dot" transform="translate(129.05,-3)" />   <use xlink:href="#dot" transform="translate(141.583,-3.066)" />   <use xlink:href="#dot" transform="translate(149.366,-9.883)" />   <use xlink:href="#dot" transform="translate(149.383,-9.883)" />   <use xlink:href="#dot" transform="translate(149.383,-9.883)" />   <use xlink:href="#dot" transform="translate(149.383,-9.883)" />   <use xlink:href="#dot" transform="translate(133.933,-1.1)" />   <use xlink:href="#dot" transform="translate(141.166,-3.333)" />   <use xlink:href="#dot" transform="translate(141.5,-3.216)" />   <use xlink:href="#dot" transform="translate(141.166,-3.416)" />   <use xlink:href="#dot" transform="translate(141.166,-3.333)" />   <use xlink:href="#dot" transform="translate(141.166,-3.333)" />   <use xlink:href="#dot" transform="translate(141.166,-3.333)" />   <use xlink:href="#dot" transform="translate(141.166,-3.333)" />   <use xlink:href="#dot" transform="translate(141.166,-3.333)" />   <use xlink:href="#dot" transform="translate(141.166,-3.416)" />   <use xlink:href="#dot" transform="translate(141.166,-3.333)" />   <use xlink:href="#dot" transform="translate(141.166,-3.416)" />   <use xlink:href="#dot" transform="translate(141.166,-3.416)" />   <use xlink:href="#dot" transform="translate(141.166,-3.333)" />   <use xlink:href="#dot" transform="translate(141.166,-3.333)" />   <use xlink:href="#dot" transform="translate(141.166,-3.416)" />   <use xlink:href="#dot" transform="translate(141.166,-3.333)" />   <use xlink:href="#dot" transform="translate(141.2,-3.416)" />   <use xlink:href="#dot" transform="translate(141.2,-3.416)" />   <use xlink:href="#dot" transform="translate(141.166,-3.333)" />   <use xlink:href="#dot" transform="translate(141.166,-3.333)" />   <use xlink:href="#dot" transform="translate(141.166,-3.333)" />   <use xlink:href="#dot" transform="translate(141.2,-3.416)" />   <use xlink:href="#dot" transform="translate(141.166,-3.416)" />   <use xlink:href="#dot" transform="translate(141.166,-3.416)" />   <use xlink:href="#dot" transform="translate(141.166,-3.416)" />   <use xlink:href="#dot" transform="translate(141.166,-3.333)" />   <use xlink:href="#dot" transform="translate(141.166,-3.333)" />   <use xlink:href="#dot" transform="translate(141.166,-3.416)" />   <use xlink:href="#dot" transform="translate(141.15,-3.333)" />   <use xlink:href="#dot" transform="translate(142.5,-3.433)" />   <use xlink:href="#dot" transform="translate(141.15,-3.333)" />   <use xlink:href="#dot" transform="translate(141.15,-3.333)" />   <use xlink:href="#dot" transform="translate(141.15,-3.333)" />   <use xlink:href="#dot" transform="translate(143.4611,-13.8194)" />   <use xlink:href="#dot" transform="translate(143.4611,-13.8194)" />   <use xlink:href="#dot" transform="translate(143.4556,-13.8306)" />   <use xlink:href="#dot" transform="translate(143.4556,-13.8306)" />   <use xlink:href="#dot" transform="translate(150.666,-5.966)" />   <use xlink:href="#dot" transform="translate(150.666,-5.966)" />   <use xlink:href="#dot" transform="translate(150.666,-5.966)" />   <use xlink:href="#dot" transform="translate(150.716,-5.966)" />   <use xlink:href="#dot" transform="translate(150.716,-5.966)" />   <use xlink:href="#dot" transform="translate(150.716,-5.966)" />   <use xlink:href="#dot" transform="translate(150.666,-5.966)" />   <use xlink:href="#dot" transform="translate(147.083,-2.133)" />   <use xlink:href="#dot" transform="translate(151.383,-2.916)" />   <use xlink:href="#dot" transform="translate(151.383,-2.916)" />   <use xlink:href="#dot" transform="translate(151.383,-2.916)" />   <use xlink:href="#dot" transform="translate(147.083,-2.133)" />   <use xlink:href="#dot" transform="translate(147.083,-2.133)" />   <use xlink:href="#dot" transform="translate(147.083,-2.133)" />   <use xlink:href="#dot" transform="translate(151.383,-2.916)" />   <use xlink:href="#dot" transform="translate(151.383,-2.916)" />   <use xlink:href="#dot" transform="translate(147.083,-2.133)" />   <use xlink:href="#dot" transform="translate(147.083,-2.133)" />   <use xlink:href="#dot" transform="translate(147.083,-2.133)" />   <use xlink:href="#dot" transform="translate(154.6,-5.55)" />   <use xlink:href="#dot" transform="translate(151.383,-2.916)" />   <use xlink:href="#dot" transform="translate(151.383,-2.916)" />   <use xlink:href="#dot" transform="translate(151.383,-2.916)" />   <use xlink:href="#dot" transform="translate(154.6,-5.55)" />   <use xlink:href="#dot" transform="translate(147.083,-2.133)" />   <use xlink:href="#dot" transform="translate(147.083,-2.133)" />   <use xlink:href="#dot" transform="translate(147.083,-2.133)" />   <use xlink:href="#dot" transform="translate(147.083,-2.133)" />   <use xlink:href="#dot" transform="translate(151.383,-2.916)" />   <use xlink:href="#dot" transform="translate(147.083,-2.133)" />   <use xlink:href="#dot" transform="translate(147.083,-2.133)" />   <use xlink:href="#dot" transform="translate(147.083,-2.133)" />   <use xlink:href="#dot" transform="translate(150.666,-6.1)" />   <use xlink:href="#dot" transform="translate(150.666,-6.1)" />   <use xlink:href="#dot" transform="translate(150.8,-10.533)" />   <use xlink:href="#dot" transform="translate(150.8,-10.533)" />   <use xlink:href="#dot" transform="translate(150.666,-6.1)" />   <use xlink:href="#dot" transform="translate(150.8,-10.533)" />   <use xlink:href="#dot" transform="translate(150.666,-6.1)" />   <use xlink:href="#dot" transform="translate(150.8,-10.533)" />   <use xlink:href="#dot" transform="translate(150.666,-6.1)" />   <use xlink:href="#dot" transform="translate(150.8,-10.533)" />   <use xlink:href="#dot" transform="translate(150.666,-6.1)" />   <use xlink:href="#dot" transform="translate(150.8,-10.533)" />   <use xlink:href="#dot" transform="translate(141.25,-5.25)" />   <use xlink:href="#dot" transform="translate(141.133,-5.233)" />   <use xlink:href="#dot" transform="translate(141.133,-5.233)" />   <use xlink:href="#dot" transform="translate(141.133,-5.233)" />   <use xlink:href="#dot" transform="translate(141.133,-5.233)" />   <use xlink:href="#dot" transform="translate(141.466,-5.116)" />   <use xlink:href="#dot" transform="translate(146.697464,-7.341485)" />   <use xlink:href="#dot" transform="translate(146.697464,-7.341485)" />   <use xlink:href="#dot" transform="translate(146.697464,-7.341485)" />   <use xlink:href="#dot" transform="translate(146.705612,-7.341485)" />   <use xlink:href="#dot" transform="translate(146.705612,-7.341485)" />   <use xlink:href="#dot" transform="translate(146.697464,-7.341485)" />   <use xlink:href="#dot" transform="translate(141.616,-5.133)" />   <use xlink:href="#dot" transform="translate(141.616,-5.133)" />   <use xlink:href="#dot" transform="translate(141.083,-4.6)" />   <use xlink:href="#dot" transform="translate(141.083,-4.6)" />   <use xlink:href="#dot" transform="translate(143.26667,-12.5)" />   <use xlink:href="#dot" transform="translate(143.26667,-12.5)" />   <use xlink:href="#dot" transform="translate(143.26667,-12.5)" />   <use xlink:href="#dot" transform="translate(143.26667,-12.5)" />   <use xlink:href="#dot" transform="translate(143.26667,-12.5)" />   <use xlink:href="#dot" transform="translate(143.26667,-12.5)" />   <use xlink:href="#dot" transform="translate(141.651093,-3.3331)" />   <use xlink:href="#dot" transform="translate(142.783,-6.25)" />   <use xlink:href="#dot" transform="translate(142.766,-6.2)" />   <use xlink:href="#dot" transform="translate(142.783,-6.25)" />   <use xlink:href="#dot" transform="translate(143.183,-6.533)" />   <use xlink:href="#dot" transform="translate(143.183,-6.533)" />   <use xlink:href="#dot" transform="translate(143.216,-6.566)" />   <use xlink:href="#dot" transform="translate(143.083,-6.516)" />   <use xlink:href="#dot" transform="translate(141.166,-4.583)" />   <use xlink:href="#dot" transform="translate(144.85,-6.533)" />   <use xlink:href="#dot" transform="translate(144.633,-6.6)" />   <use xlink:href="#dot" transform="translate(144.65,-6.566)" />   <use xlink:href="#dot" transform="translate(144.65,-6.566)" />   <use xlink:href="#dot" transform="translate(147.25,-8.55)" />   <use xlink:href="#dot" transform="translate(147.25,-8.55)" />   <use xlink:href="#dot" transform="translate(147.25,-8.55)" />   <use xlink:href="#dot" transform="translate(147.25,-8.55)" />   <use xlink:href="#dot" transform="translate(147.050003,-2.1333)" />   <use xlink:href="#dot" transform="translate(147.422012,-2.066292)" />   <use xlink:href="#dot" transform="translate(152.233307,-4.4)" />   <use xlink:href="#dot" transform="translate(147.050003,-2.1333)" />   <use xlink:href="#dot" transform="translate(147.416702,-2.0667)" />   <use xlink:href="#dot" transform="translate(147.416702,-2.0667)" />   <use xlink:href="#dot" transform="translate(147.050003,-2.1333)" />   <use xlink:href="#dot" transform="translate(152.233307,-4.4)" />   <use xlink:href="#dot" transform="translate(147.416702,-2.0667)" />   <use xlink:href="#dot" transform="translate(152.233307,-4.4)" />   <use xlink:href="#dot" transform="translate(147.416702,-2.0667)" />   <use xlink:href="#dot" transform="translate(147.633301,-9.4667)" />   <use xlink:href="#dot" transform="translate(147.633301,-9.4667)" />   <use xlink:href="#dot" transform="translate(147.633301,-9.4667)" />   <use xlink:href="#dot" transform="translate(147.633301,-9.4667)" />   <use xlink:href="#dot" transform="translate(147.633301,-9.4667)" />   <use xlink:href="#dot" transform="translate(147.633301,-9.4667)" />   <use xlink:href="#dot" transform="translate(147.633301,-9.4667)" />   <use xlink:href="#dot" transform="translate(147.633301,-9.4667)" />   <use xlink:href="#dot" transform="translate(147.633301,-9.4667)" />   <use xlink:href="#dot" transform="translate(147.633301,-9.4667)" />   <use xlink:href="#dot" transform="translate(152.100006,-3.3167)" />   <use xlink:href="#dot" transform="translate(152.100006,-3.3167)" />   <use xlink:href="#dot" transform="translate(151.366699,-2.9333)" />   <use xlink:href="#dot" transform="translate(151.366699,-2.9333)" />   <use xlink:href="#dot" transform="translate(151.366699,-2.9)" />   <use xlink:href="#dot" transform="translate(151.199997,-2.8833)" />   <use xlink:href="#dot" transform="translate(151.366699,-2.9333)" />   <use xlink:href="#dot" transform="translate(151.366699,-2.9)" />   <use xlink:href="#dot" transform="translate(151.266693,-2.9)" />   <use xlink:href="#dot" transform="translate(151.183304,-2.9)" />   <use xlink:href="#dot" transform="translate(152.100006,-3.3167)" />   <use xlink:href="#dot" transform="translate(151.816696,-3.2167)" />   <use xlink:href="#dot" transform="translate(151.366699,-2.9333)" />   <use xlink:href="#dot" transform="translate(152.100006,-3.3167)" />   <use xlink:href="#dot" transform="translate(151.366699,-2.9333)" />   <use xlink:href="#dot" transform="translate(152.100006,-3.3167)" />   <use xlink:href="#dot" transform="translate(151.266693,-2.9)" />   <use xlink:href="#dot" transform="translate(151.266693,-2.9)" />   <use xlink:href="#dot" transform="translate(151.583298,-3.15)" />   <use xlink:href="#dot" transform="translate(151.366699,-2.9333)" />   <use xlink:href="#dot" transform="translate(151.366699,-2.9333)" />   <use xlink:href="#dot" transform="translate(151.183304,-2.9)" />   <use xlink:href="#dot" transform="translate(152.100006,-3.3167)" />   <use xlink:href="#dot" transform="translate(151.183304,-2.9)" />   <use xlink:href="#dot" transform="translate(151.816696,-3.2167)" />   <use xlink:href="#dot" transform="translate(151.266693,-2.9)" />   <use xlink:href="#dot" transform="translate(151.366699,-2.9333)" />   <use xlink:href="#dot" transform="translate(151.183304,-2.9)" />   <use xlink:href="#dot" transform="translate(152.100006,-3.3167)" />   <use xlink:href="#dot" transform="translate(151.366699,-2.9333)" />   <use xlink:href="#dot" transform="translate(151.266693,-2.9)" />   <use xlink:href="#dot" transform="translate(151.366699,-2.9333)" />   <use xlink:href="#dot" transform="translate(151.366699,-2.9)" />   <use xlink:href="#dot" transform="translate(151.366699,-2.9333)" />   <use xlink:href="#dot" transform="translate(151.366699,-2.9333)" />   <use xlink:href="#dot" transform="translate(152.100006,-3.3167)" />   <use xlink:href="#dot" transform="translate(151.366699,-2.9333)" />   <use xlink:href="#dot" transform="translate(151.366699,-2.9)" />   <use xlink:href="#dot" transform="translate(151.366699,-2.9333)" />   <use xlink:href="#dot" transform="translate(151.366699,-2.9333)" />   <use xlink:href="#dot" transform="translate(151.266693,-2.9)" />   <use xlink:href="#dot" transform="translate(151.366699,-2.9333)" />   <use xlink:href="#dot" transform="translate(151.366699,-2.9333)" />   <use xlink:href="#dot" transform="translate(151.366699,-2.9333)" />   <use xlink:href="#dot" transform="translate(151.366699,-2.9333)" />   <use xlink:href="#dot" transform="translate(151.266693,-2.9)" />   <use xlink:href="#dot" transform="translate(151.366699,-2.9333)" />   <use xlink:href="#dot" transform="translate(152.100006,-3.3167)" />   <use xlink:href="#dot" transform="translate(151.366699,-2.9333)" />   <use xlink:href="#dot" transform="translate(151.266693,-2.9)" />   <use xlink:href="#dot" transform="translate(152.100006,-3.3167)" />   <use xlink:href="#dot" transform="translate(151.366699,-2.9)" />   <use xlink:href="#dot" transform="translate(151.183304,-2.9)" />   <use xlink:href="#dot" transform="translate(151.266693,-2.9)" />   <use xlink:href="#dot" transform="translate(152.100006,-3.3167)" />   <use xlink:href="#dot" transform="translate(152.100006,-3.3167)" />   <use xlink:href="#dot" transform="translate(151.266693,-2.9)" />   <use xlink:href="#dot" transform="translate(152.100006,-3.3167)" />   <use xlink:href="#dot" transform="translate(151.366699,-2.9333)" />   <use xlink:href="#dot" transform="translate(152.100006,-3.3167)" />   <use xlink:href="#dot" transform="translate(151.183304,-2.9)" />   <use xlink:href="#dot" transform="translate(151.366699,-2.9333)" />   <use xlink:href="#dot" transform="translate(151.916702,-3.2)" />   <use xlink:href="#dot" transform="translate(151.433304,-3.05)" />   <use xlink:href="#dot" transform="translate(151.183304,-2.9)" />   <use xlink:href="#dot" transform="translate(151.366699,-2.9333)" />   <use xlink:href="#dot" transform="translate(151.366699,-2.9333)" />   <use xlink:href="#dot" transform="translate(151.366699,-2.9333)" />   <use xlink:href="#dot" transform="translate(151.366699,-2.9333)" />   <use xlink:href="#dot" transform="translate(151.366699,-2.9333)" />   <use xlink:href="#dot" transform="translate(151.266693,-2.9)" />   <use xlink:href="#dot" transform="translate(149.583298,-1.4833)" />   <use xlink:href="#dot" transform="translate(149.616699,-1.5)" />   <use xlink:href="#dot" transform="translate(152.633301,-3.85)" />   <use xlink:href="#dot" transform="translate(152.633301,-3.85)" />   <use xlink:href="#dot" transform="translate(149.583298,-1.4833)" />   <use xlink:href="#dot" transform="translate(149.583298,-1.3667)" />   <use xlink:href="#dot" transform="translate(149.616699,-1.5)" />   <use xlink:href="#dot" transform="translate(149.583298,-1.3667)" />   <use xlink:href="#dot" transform="translate(149.583298,-1.4833)" />   <use xlink:href="#dot" transform="translate(152.5,-3.7167)" />   <use xlink:href="#dot" transform="translate(152.350006,-4.4)" />   <use xlink:href="#dot" transform="translate(152.633301,-3.85)" />   <use xlink:href="#dot" transform="translate(149.583298,-1.3667)" />   <use xlink:href="#dot" transform="translate(152.383301,-4.4)" />   <use xlink:href="#dot" transform="translate(152.366699,-3.55)" />   <use xlink:href="#dot" transform="translate(152.633301,-3.85)" />   <use xlink:href="#dot" transform="translate(149.583298,-1.4833)" />   <use xlink:href="#dot" transform="translate(149.583298,-1.4833)" />   <use xlink:href="#dot" transform="translate(149.616699,-1.5)" />   <use xlink:href="#dot" transform="translate(152.366699,-3.55)" />   <use xlink:href="#dot" transform="translate(152.350006,-3.5833)" />   <use xlink:href="#dot" transform="translate(152.350006,-4.4)" />   <use xlink:href="#dot" transform="translate(149.583298,-1.3667)" />   <use xlink:href="#dot" transform="translate(152.350006,-3.5833)" />   <use xlink:href="#dot" transform="translate(152.350006,-3.5833)" />   <use xlink:href="#dot" transform="translate(152.366699,-3.55)" />   <use xlink:href="#dot" transform="translate(152.733307,-3.8833)" />   <use xlink:href="#dot" transform="translate(149.583298,-1.3667)" />   <use xlink:href="#dot" transform="translate(149.583298,-1.4833)" />   <use xlink:href="#dot" transform="translate(152.366699,-3.55)" />   <use xlink:href="#dot" transform="translate(152.633301,-3.85)" />   <use xlink:href="#dot" transform="translate(152.366699,-3.55)" />   <use xlink:href="#dot" transform="translate(152.366699,-3.55)" />   <use xlink:href="#dot" transform="translate(149.583298,-1.4833)" />   <use xlink:href="#dot" transform="translate(149.583298,-1.4833)" />   <use xlink:href="#dot" transform="translate(152.633301,-3.85)" />   <use xlink:href="#dot" transform="translate(149.583298,-1.3667)" />   <use xlink:href="#dot" transform="translate(149.583298,-1.4833)" />   <use xlink:href="#dot" transform="translate(152.366699,-3.55)" />   <use xlink:href="#dot" transform="translate(149.583298,-1.4833)" />   <use xlink:href="#dot" transform="translate(152.633301,-3.85)" />   <use xlink:href="#dot" transform="translate(149.583298,-1.3667)" />   <use xlink:href="#dot" transform="translate(152.350006,-3.5833)" />   <use xlink:href="#dot" transform="translate(149.583298,-1.3667)" />   <use xlink:href="#dot" transform="translate(149.583298,-1.4833)" />   <use xlink:href="#dot" transform="translate(149.583298,-1.4833)" />   <use xlink:href="#dot" transform="translate(152.633301,-3.85)" />   <use xlink:href="#dot" transform="translate(149.583298,-1.3667)" />   <use xlink:href="#dot" transform="translate(152.683304,-3.8833)" />   <use xlink:href="#dot" transform="translate(152.366699,-3.55)" />   <use xlink:href="#dot" transform="translate(149.583298,-1.4833)" />   <use xlink:href="#dot" transform="translate(149.583298,-1.4833)" />   <use xlink:href="#dot" transform="translate(152.366699,-3.55)" />   <use xlink:href="#dot" transform="translate(152.366699,-3.55)" />   <use xlink:href="#dot" transform="translate(149.583298,-1.3667)" />   <use xlink:href="#dot" transform="translate(152.366699,-3.55)" />   <use xlink:href="#dot" transform="translate(149.583298,-1.4833)" />   <use xlink:href="#dot" transform="translate(149.583298,-1.4833)" />   <use xlink:href="#dot" transform="translate(152.683304,-3.8833)" />   <use xlink:href="#dot" transform="translate(152.266693,-4.3333)" />   <use xlink:href="#dot" transform="translate(152.266693,-4.3667)" />   <use xlink:href="#dot" transform="translate(152.266693,-4.3333)" />   <use xlink:href="#dot" transform="translate(152.316696,-4.2833)" />   <use xlink:href="#dot" transform="translate(152.316696,-4.2833)" />   <use xlink:href="#dot" transform="translate(152.316696,-4.2833)" />   <use xlink:href="#dot" transform="translate(152.316696,-4.2833)" />   <use xlink:href="#dot" transform="translate(152.316696,-4.2833)" />   <use xlink:href="#dot" transform="translate(152.316696,-4.2833)" />   <use xlink:href="#dot" transform="translate(152.316696,-4.2833)" />   <use xlink:href="#dot" transform="translate(152.266693,-4.3333)" />   <use xlink:href="#dot" transform="translate(152.316696,-4.2833)" /><polygon class="region" points="143.4556,-13.8306 129.05,-3 133.933,-1.1 149.583298,-1.3667 152.100006,-3.3167 152.366699,-3.55 154.6,-5.55 150.8,-10.533 143.4556,-13.8306 " />
		  </g>
		</svg>