<?xml version="1.0" encoding="UTF-8"?>
	<svg xmlns:xlink="http://www.w3.org/1999/xlink" 
	xmlns="http://www.w3.org/2000/svg" 
	width="360px" height="180px">
	   <style type="text/css">
		  <![CDATA[     
		  .region 
		  { 
			fill:blue; 
			opacity:0.4; 
			stroke:blue;
		  }
		  ]]>
	   </style>

	<circle id="dot" x="-2" y="-2" r="2" style="stroke:none; stroke-width:0; fill:black; opacity:0.7;"/>


	 <image x="0" y="0" width="360" height="180" xlink:href="map.jpg"/>

 
	 <g transform="translate(180,90) scale(1,-1)"><polygon class="region" points="129.5376,-2.7868644069999 130.5644,-3.114864408 130.8285,-3.451564407 130.8452,-3.8730644079999 129.9066,-3.334264407 129.5186,-3.293564407 129.5195,-3.4702644069999 128.9296,-3.344964407 128.8772,-3.197364407 128.4559,-3.4555644069999 128.1716,-3.2268644069999 128.1843,-3.058264408 127.9118,-3.566164407 127.8346,-3.157264407 128.1015,-3.0599644079999 128.166,-2.8601644079999 129.0434,-2.7968644069999 129.1261,-2.9666644069999 129.5376,-2.7868644069999 " /><polygon class="region" points="126.6883,-3.0547644069999 127.2598,-3.370264408 127.2186,-3.6675644069999 126.6928,-3.8443644079999 126.1955,-3.620264407 126.0016,-3.353364407 126.0916,-3.1016644069999 126.6883,-3.0547644069999 " /><polygon class="region" points="130.329,-1.672364407 130.3874,-2.010664408 129.7131,-1.8831644069999 129.955,-1.764964408 130.329,-1.672364407 " /><polygon class="region" points="127.5407,-0.32066440699992 127.6928,-0.47256440699994 127.6516,-0.70886440699997 127.8978,-0.78286440699998 127.82,-0.87346440699997 127.4695,-0.83496440799996 127.2979,-0.52206440699996 127.3164,-0.33956440699995 127.5407,-0.32066440699992 " /><polygon class="region" points="128.2823,-3.4970644069999 128.2464,-3.738964407 128.0835,-3.793964407 128.2137,-3.6359644079999 127.9301,-3.779264407 128.2823,-3.4970644069999 " /><polygon class="region" points="133.1621,-5.270964407 133.1262,-5.561164408 132.8412,-5.9976644069999 132.9463,-5.6657644069999 133.1621,-5.270964407 " /><polygon class="region" points="132.7067,-5.601764408 132.8086,-5.845464407 132.7385,-5.953164408 132.6069,-5.599664407 132.7067,-5.601764408 " /><polygon class="region" points="142.2799,-10.122664408 142.3477,-10.174464407 142.2786,-10.261364407 142.1892,-10.195664408 142.2799,-10.122664408 " /><polygon class="region" points="150.8673,-10.539664407 150.8905,-10.660164407 150.7599,-10.624764407 150.8637,-10.648164407 150.8673,-10.539664407 " /><polygon class="region" points="129.9528,-4.544264407 129.9275,-4.569964408 129.8568,-4.552564407 129.9411,-4.5058644069999 129.9528,-4.544264407 " /><polygon class="region" points="123.4251,-10.254564408 123.4167,-10.249064408 123.4227,-10.240664407 123.4304,-10.249164408 123.4251,-10.254564408 " /><polygon class="region" points="134.1398,-6.185464408 134.3145,-6.377064407 134.4299,-6.4460644069999 134.455,-6.429864408 134.5258,-6.581064408 134.197,-6.9301644079999 134.0488,-6.7642644069999 134.1138,-6.442764407 134.1443,-6.527664408 134.1959,-6.482864407 134.2023,-6.5352644069999 134.2275,-6.604464407 134.2753,-6.654764407 134.2914,-6.656364407 134.1398,-6.185464408 " /><polygon class="region" points="134.5836,-5.958664407 134.7759,-6.0912644069999 134.6151,-6.366864408 134.2627,-6.125364407 134.5836,-5.958664407 " /><polygon class="region" points="134.644,-5.723564407 134.7309,-5.9754644079999 134.6643,-5.919264407 134.5202,-5.9134644079999 134.2977,-6.0167644069999 134.3997,-5.783064408 134.2294,-5.7402644069999 134.2377,-5.656364407 134.3257,-5.720664407 134.3759,-5.7028644069999 134.4953,-5.5230644069999 134.4974,-5.548264408 134.5191,-5.556664407 134.5389,-5.644764407 134.6112,-5.7227644069999 134.644,-5.723564407 " /><polygon class="region" points="134.1525,-6.0178644069999 134.2729,-6.055964408 134.2288,-6.119364407 134.2637,-6.1725644069999 134.4365,-6.272164408 134.3528,-6.3142644069999 134.3425,-6.3380644069999 134.3111,-6.272764407 134.2252,-6.1976644069999 134.2115,-6.1881644069999 134.1658,-6.187964408 134.1525,-6.0178644069999 " /><polygon class="region" points="134.4406,-6.273664407 134.5938,-6.3884644079999 134.5557,-6.524964407 134.5128,-6.5214644069999 134.463,-6.424164408 134.3408,-6.355764408 134.4406,-6.273664407 " /><polygon class="region" points="134.6481,-5.7184644079999 134.543,-5.641864407 134.528,-5.564964408 134.7403,-5.6131644069999 134.6481,-5.7184644079999 " /><polygon class="region" points="134.4833,-5.4799644079999 134.615,-5.4147644079999 134.7009,-5.5112644069999 134.6188,-5.5733644069999 134.4833,-5.4799644079999 " /><polygon class="region" points="134.6911,-6.575764407 134.7491,-6.6192644069999 134.6695,-6.7728644069999 134.6236,-6.7057644079999 134.6911,-6.575764407 " /><polygon class="region" points="134.8481,-6.3384644069999 134.8802,-6.286464408 134.8354,-6.4718644079999 134.7888,-6.382964408 134.8573,-6.280464407 134.8481,-6.3384644069999 " /><polygon class="region" points="134.7449,-6.5350644069999 134.7116,-6.5356644079999 134.6735,-6.5565644069999 134.6347,-6.4720644079999 134.7449,-6.5350644069999 " /><polygon class="region" points="134.1836,-5.7580644069999 134.2275,-5.7519644079999 134.2384,-5.815964407 134.1877,-5.824564407 134.1836,-5.7580644069999 " /><polygon class="region" points="134.539,-5.337964407 134.5915,-5.342064407 134.5673,-5.352264407 134.5323,-5.4046644069999 134.539,-5.337964407 " /><polygon class="region" points="134.3024,-5.603764407 134.2654,-5.6382644079999 134.2358,-5.611464407 134.3351,-5.5624644069999 134.3024,-5.603764407 " /><polygon class="region" points="134.8276,-6.502364407 134.8019,-6.555064407 134.7717,-6.544064407 134.7683,-6.5076644079999 134.8276,-6.502364407 " /><polygon class="region" points="134.6175,-6.4965644079999 134.5705,-6.5382644069999 134.5604,-6.536064407 134.6302,-6.4448644079999 134.6175,-6.4965644079999 " /><polygon class="region" points="134.2608,-5.5311644069999 134.2386,-5.494364408 134.2601,-5.4761644069999 134.2759,-5.510164408 134.2608,-5.5311644069999 " /><polygon class="region" points="134.789,-6.353064407 134.7784,-6.334564407 134.8179,-6.295164407 134.8196,-6.320664407 134.789,-6.353064407 " /><polygon class="region" points="134.4836,-6.756364407 134.4812,-6.729664408 134.5091,-6.707064407 134.5214,-6.738064407 134.4836,-6.756364407 " /><polygon class="region" points="134.4768,-7.054664407 134.5218,-7.0556644069999 134.5144,-7.0916644079999 134.4662,-7.079364407 134.4768,-7.054664407 " /><polygon class="region" points="134.7347,-6.426664408 134.7222,-6.3801644069999 134.7442,-6.3543644069999 134.7438,-6.4106644079999 134.7347,-6.426664408 " /><polygon class="region" points="134.5074,-6.702764408 134.4875,-6.699364408 134.5032,-6.657864407 134.5213,-6.6844644079999 134.5074,-6.702764408 " /><polygon class="region" points="134.6722,-6.8448644069999 134.6011,-6.889564408 134.5825,-6.8803644069999 134.6555,-6.8353644069999 134.6722,-6.8448644069999 " /><polygon class="region" points="134.3148,-6.334264408 134.2939,-6.3486644079999 134.3048,-6.305764408 134.3133,-6.3138644069999 134.3148,-6.334264408 " /><polygon class="region" points="134.7471,-6.6038644069999 134.7623,-6.5952644079999 134.7848,-6.628964407 134.7552,-6.625264407 134.7471,-6.6038644069999 " /><polygon class="region" points="134.567,-5.3678644079999 134.5777,-5.353564408 134.5934,-5.3563644069999 134.5599,-5.387664408 134.567,-5.3678644079999 " /><polygon class="region" points="134.5168,-6.9405644079999 134.4834,-6.940964407 134.4778,-6.931964407 134.5031,-6.9215644069999 134.5168,-6.9405644079999 " /><polygon class="region" points="134.5154,-6.774764407 134.5095,-6.763464407 134.5374,-6.745564408 134.5352,-6.762564407 134.5154,-6.774764407 " /><polygon class="region" points="134.7842,-5.754564407 134.7858,-5.7297644079999 134.8027,-5.731964407 134.8048,-5.7411644069999 134.7842,-5.754564407 " /><polygon class="region" points="134.768,-6.4027644079999 134.7562,-6.385264408 134.7621,-6.3629644079999 134.7761,-6.3941644069999 134.768,-6.4027644079999 " /><polygon class="region" points="134.4675,-5.4473644079999 134.4577,-5.438064407 134.4829,-5.418564408 134.4829,-5.434864407 134.4675,-5.4473644079999 " /><polygon class="region" points="134.5917,-6.619364407 134.5785,-6.6077644069999 134.5975,-6.590164407 134.5982,-6.610864407 134.5917,-6.619364407 " /><polygon class="region" points="134.4827,-6.696164408 134.4778,-6.704564407 134.4624,-6.696364408 134.4902,-6.678464407 134.4827,-6.696164408 " /><polygon class="region" points="134.7428,-6.862864407 134.7301,-6.8719644079999 134.6911,-6.864864408 134.7436,-6.848864407 134.7428,-6.862864407 " /><polygon class="region" points="134.7217,-6.5631644069999 134.7101,-6.563964407 134.7093,-6.542864408 134.7195,-6.5427644079999 134.7217,-6.5631644069999 " /><polygon class="region" points="134.7816,-5.8205644069999 134.7655,-5.821364407 134.7642,-5.8173644079999 134.7955,-5.812064407 134.7816,-5.8205644069999 " /><polygon class="region" points="134.8593,-6.212464407 134.8434,-6.209064407 134.8531,-6.184864408 134.8649,-6.194564407 134.8593,-6.212464407 " /><polygon class="region" points="134.6049,-5.3984644069999 134.5891,-5.386664407 134.6013,-5.3776644069999 134.6074,-5.386864408 134.6049,-5.3984644069999 " /><polygon class="region" points="134.6435,-5.384864407 134.6621,-5.383864407 134.6658,-5.397064407 134.6466,-5.390464407 134.6435,-5.384864407 " /><polygon class="region" points="134.5118,-6.901164407 134.5344,-6.8937644069999 134.5396,-6.9016644069999 134.5213,-6.908864407 134.5118,-6.901164407 " /><polygon class="region" points="134.7004,-5.5644644069999 134.6988,-5.574864407 134.6978,-5.5567644069999 134.7082,-5.545364407 134.7004,-5.5644644069999 " /><polygon class="region" points="134.7892,-5.8841644079999 134.7791,-5.8835644069999 134.7976,-5.867164407 134.7993,-5.8747644069999 134.7892,-5.8841644079999 " /><polygon class="region" points="134.6636,-5.461164407 134.6595,-5.463564407 134.6486,-5.435564407 134.6641,-5.4510644069999 134.6636,-5.461164407 " /><polygon class="region" points="134.8753,-6.1550644069999 134.864,-6.1536644079999 134.879,-6.140864407 134.8804,-6.1482644079999 134.8753,-6.1550644069999 " /><polygon class="region" points="134.3125,-6.302364407 134.3193,-6.296864408 134.3262,-6.3178644069999 134.3139,-6.309164407 134.3125,-6.302364407 " /><polygon class="region" points="134.6709,-7.0128644079999 134.6601,-7.010664407 134.6652,-6.998264407 134.6727,-7.0073644079999 134.6709,-7.0128644079999 " /><polygon class="region" points="134.5033,-5.3371644069999 134.512,-5.3258644069999 134.528,-5.329364407 134.5045,-5.3407644079999 134.5033,-5.3371644069999 " /><polygon class="region" points="134.5006,-5.5139644069999 134.4918,-5.514564407 134.4917,-5.5010644069999 134.5041,-5.505064407 134.5006,-5.5139644069999 " /><polygon class="region" points="134.3015,-6.284764407 134.3062,-6.277264407 134.3091,-6.295564407 134.3043,-6.294964407 134.3015,-6.284764407 " /><polygon class="region" points="134.204,-6.200964407 134.211,-6.192564407 134.2147,-6.204764408 134.2095,-6.206764407 134.204,-6.200964407 " /><polygon class="region" points="134.7403,-5.796764407 134.7467,-5.788064407 134.7531,-5.798764407 134.7455,-5.8031644069999 134.7403,-5.796764407 " /><polygon class="region" points="134.7762,-5.784664408 134.7796,-5.7762644069999 134.7868,-5.7773644079999 134.7863,-5.7868644069999 134.7762,-5.784664408 " /><polygon class="region" points="134.6105,-5.3995644079999 134.6164,-5.392964407 134.6196,-5.392964407 134.6206,-5.402964407 134.6105,-5.3995644079999 " /><polygon class="region" points="134.7669,-5.7075644079999 134.7745,-5.706164407 134.781,-5.7157644069999 134.7717,-5.7132644069999 134.7669,-5.7075644079999 " /><polygon class="region" points="134.7986,-5.811264407 134.8042,-5.804664407 134.809,-5.815964407 134.7998,-5.816864407 134.7986,-5.811264407 " /><polygon class="region" points="134.7593,-6.489164407 134.7556,-6.4926644079999 134.7474,-6.491864408 134.752,-6.4836644069999 134.7593,-6.489164407 " /><polygon class="region" points="134.7794,-5.9059644069999 134.7723,-5.9021644069999 134.7817,-5.8948644069999 134.7833,-5.9009644069999 134.7794,-5.9059644069999 " /><polygon class="region" points="134.86,-5.958364407 134.8531,-5.960364408 134.8526,-5.9489644069999 134.8608,-5.9535644069999 134.86,-5.958364407 " /><polygon class="region" points="134.5846,-5.397064407 134.581,-5.397964408 134.5722,-5.395664408 134.5821,-5.3891644079999 134.5846,-5.397064407 " /><polygon class="region" points="134.3499,-6.3862644069999 134.3465,-6.386364407 134.3485,-6.374764408 134.3532,-6.3780644079999 134.3499,-6.3862644069999 " /><polygon class="region" points="134.7543,-6.419964407 134.757,-6.415164407 134.7642,-6.4172644069999 134.7632,-6.4242644079999 134.7543,-6.419964407 " /><polygon class="region" points="134.3336,-5.695464408 134.3262,-5.695764407 134.3237,-5.689064408 134.3363,-5.689664407 134.3336,-5.695464408 " /><polygon class="region" points="134.6742,-5.464764408 134.6696,-5.469964407 134.6757,-5.454164407 134.6761,-5.4573644069999 134.6742,-5.464764408 " /><polygon class="region" points="134.3347,-6.3558644079999 134.3294,-6.3599644069999 134.3272,-6.3511644069999 134.336,-6.350364408 134.3347,-6.3558644079999 " /><polygon class="region" points="134.7778,-6.6792644069999 134.7787,-6.676064407 134.7909,-6.681164408 134.7856,-6.684364408 134.7778,-6.6792644069999 " /><polygon class="region" points="134.538,-6.589464407 134.5346,-6.596964408 134.5376,-6.579564407 134.5392,-6.5846644069999 134.538,-6.589464407 " /><polygon class="region" points="134.1665,-5.915964408 134.1576,-5.914064407 134.1595,-5.909064407 134.165,-5.9080644069999 134.1665,-5.915964408 " /><polygon class="region" points="134.3676,-6.389564407 134.3628,-6.385464407 134.3668,-6.377264408 134.3689,-6.379364407 134.3676,-6.389564407 " /><polygon class="region" points="134.2991,-5.8303644069999 134.3009,-5.8364644069999 134.2943,-5.8369644069999 134.2994,-5.8233644069999 134.2991,-5.8303644069999 " /><polygon class="region" points="134.1767,-6.4596644069999 134.1705,-6.465864407 134.1676,-6.4630644069999 134.1709,-6.457064407 134.1767,-6.4596644069999 " /><polygon class="region" points="134.6952,-5.540364408 134.6913,-5.540564407 134.6866,-5.5334644069999 134.6953,-5.5327644069999 134.6952,-5.540364408 " /><polygon class="region" points="134.6909,-5.5631644069999 134.6847,-5.564164408 134.6862,-5.554364407 134.6914,-5.555764407 134.6909,-5.5631644069999 " /><polygon class="region" points="134.4788,-5.515264407 134.4744,-5.517964407 134.4706,-5.5171644069999 134.477,-5.508864407 134.4788,-5.515264407 " /><polygon class="region" points="134.7672,-5.790564407 134.7733,-5.787864408 134.774,-5.7958644079999 134.7694,-5.7954644069999 134.7672,-5.790564407 " /><polygon class="region" points="134.5205,-6.752064408 134.5127,-6.749164407 134.5198,-6.743764407 134.522,-6.7474644069999 134.5205,-6.752064408 " /><polygon class="region" points="134.6768,-5.9591644069999 134.6843,-5.958664407 134.6873,-5.9646644069999 134.68,-5.961964408 134.6768,-5.9591644069999 " /><polygon class="region" points="134.7622,-5.6806644069999 134.7551,-5.679564408 134.7604,-5.673564407 134.7645,-5.675364407 134.7622,-5.6806644069999 " /><polygon class="region" points="134.5912,-5.379564408 134.5813,-5.382064408 134.5871,-5.375664408 134.5912,-5.379564408 " /><polygon class="region" points="134.3055,-5.7700644069999 134.3068,-5.7662644079999 134.313,-5.7648644069999 134.3131,-5.7718644079999 134.3055,-5.7700644069999 " /><polygon class="region" points="134.4707,-6.450464408 134.472,-6.4457644079999 134.4749,-6.462064407 134.4721,-6.459964408 134.4707,-6.450464408 " /><polygon class="region" points="134.5796,-6.584064408 134.5876,-6.5821644069999 134.5859,-6.590364408 134.5796,-6.584064408 " />
		  </g>
		</svg>