<?xml version="1.0" encoding="UTF-8"?>
	<svg xmlns:xlink="http://www.w3.org/1999/xlink" 
	xmlns="http://www.w3.org/2000/svg" 
	width="360px" height="180px">
	   <style type="text/css">
		  <![CDATA[     
		  .region 
		  { 
			fill:blue; 
			opacity:0.4; 
			stroke:blue;
		  }
		  ]]>
	   </style>

	<circle id="dot" x="-2" y="-2" r="2" style="stroke:none; stroke-width:0; fill:black; opacity:0.7;"/>


	 <image x="0" y="0" width="360" height="180" xlink:href="map.jpg"/>

 
	 <g transform="translate(180,90) scale(1,-1)"><polygon class="region" points="156.504333496,51.913387298 156.710540772,51.881500244 156.49230957,51.909141541 156.54133606,51.289035797 156.760467529,51.070526123 156.665420532,50.869174957 157.902130127,51.624279022 158.550598145,52.283851624 158.393508911,52.643180847 158.560302734,52.619876862 158.480514527,52.761894226 158.635864258,52.890422821 158.423355103,53.005218506 158.610946655,53.042282105 158.712280274,52.877620697 159.80885315,53.266101837 160.03352356,53.092449188 159.839385986,53.445465088 159.964294433,53.492637634 159.843933106,53.762928009 159.980361938,54.112567901 160.862426758,54.562801361 161.047114374,54.59026408 161.848506468,53.232254189 161.55783545,50.683102278 159.639406733,48.414204155 151.442484035,43.977049937 147.721895009,43.808890934 145.977868903,43.977049937 145.163990053,45.222998971 145.687197885,46.52237002 153.593449566,53.786707582 155.641234907,54.764612669 156.504333496,51.913387298 " /><polygon class="region" points="-149.462951661,61.505149841 -149.317886352,61.475669861 -150,61.130218506 -149.177810669,60.933887482 -149.004592895,60.819217682 -150.382049561,61.035110473 -151.417572021,60.719333649 -151.219436645,60.526000976 -151.858581543,59.739074707 -151.425888062,59.600002289 -151.498413086,59.635921478 -151.116546631,59.784320831 -150.924621582,59.793804169 -151.503601074,59.451828003 -151.892486572,59.428813935 -151.981765747,59.257934571 -151.593399048,59.162906647 -151.045455933,59.325405121 -151.026046753,59.221168518 -150.96711731,59.200122833 -150.592315674,59.442947387 -150.672607422,59.548374176 -150.506637574,59.601955414 -150.482177735,59.463550567 -150.238739014,59.731327057 -150.401290894,59.465362549 -150.091873169,59.580112457 -150.144882203,59.691959381 -149.946792602,59.655387878 -150.038330078,59.79882431 -149.742538452,59.640132904 -149.874282837,59.85005188 -149.733718873,59.95349884 -149.649459838,59.737285614 -149.531478882,59.703742981 -149.631149292,59.819507599 -149.401748657,59.984119415 -149.439544678,60.121616364 -149.30279541,59.868652344 -149.034667968,60.095302581 -149.131240844,59.964324951 -148.436691285,59.948299408 -148.343292237,60.188209534 -148.285690307,60.111106873 -148.127777099,60.166561127 -148.097717285,60.216781616 -148.451828003,60.181880951 -148.401443482,60.276721955 -147.943725586,60.438655853 -148.101837158,60.454048157 -147.970596314,60.497703552 -148.092910766,60.595375061 -148.292160034,60.431171417 -148.456420898,60.524482727 -148.202728272,60.608684539 -148.237426758,60.761371613 -148.443878173,60.61724472 -148.375564575,60.764019012 -148.691864013,60.654769898 -148.463912964,60.788707733 -148.72807312,60.785133362 -148.354675293,60.80513382 -148.341567993,60.95136261 -147.726516724,61.274089813 -148.077789307,60.928844452 -147.612869262,60.847934723 -147.690109253,60.951038361 -147.586868286,61.013706207 -147.576400757,61.132572174 -147.525680542,61.152126312 -147.560791016,60.904968261 -147.498382569,61.008804321 -147.420578003,61.016292572 -147.394561768,60.871131897 -147.241134644,61.010940552 -146.985260009,60.926345825 -146.608230591,61.144580841 -146.189575195,61.134010315 -146.76651001,60.94190979 -146.646240234,60.816703796 -146.236618042,60.888225555 -146.095962525,60.832897186 -146.696777344,60.723964691 -146.052658081,60.794933319 -146.265228271,60.625205993 -145.63633728,60.667690277 -145.95791626,60.467189789 -145.436172485,60.467430115 -145.318710327,60.4257164 -145.513275146,60.399852753 -145.33001709,60.339332581 -145.074371338,60.472824096 -144.735046387,60.460857391 -144.942199707,60.28982544 -144.196807861,60.214664459 -143.981903077,60.048488617 -144.253890991,60.026638031 -143.946815495,59.997172367 -144.539419112,59.418117799 -144.756765127,58.945845293 -145.431216157,58.647932728 -148.491523476,58.825451912 -149.134989655,58.621453758 -149.768324486,58.136547969 -150.373037071,57.096758973 -151.810870946,56.112259437 -160.441765093,52.785855086 -161.296005007,52.324360626 -165.130553687,51.150433915 -169.143278361,54.296194141 -164.478363146,55.780350435 -163.852998637,55.799594678 -163.222216908,55.338015307 -163.116560998,55.177477828 -163.197586059,55.158546448 -163.257034302,55.133975983 -163.337249756,55.089286804 -163.221817016,54.934955597 -163.336807251,54.944278717 -163.313400268,54.798358917 -163.03048706,54.943611145 -163.207839966,55.022815704 -163.1693573,55.134391785 -162.877471924,54.931350708 -162.637954712,55.052978515 -162.667480469,55.012859345 -162.550231933,54.955696106 -162.716430664,55.210975647 -162.632095337,55.303215027 -162.413787842,55.032527923 -161.967376709,55.098205567 -162.040115357,55.222362518 -161.895172119,55.204345703 -161.574905395,55.617324829 -161.355255127,55.611011505 -161.499481201,55.361953736 -161.239135743,55.354598999 -160.899887085,55.524333954 -160.663269043,55.461460114 -160.768066407,55.547142029 -160.588989257,55.606292725 -160.496459961,55.475414276 -160.411651611,55.658824921 -159.807952881,55.854869842 -159.580230712,55.800907135 -159.737106323,55.597373962 -159.5912323,55.560752869 -159.523834229,55.884067535 -159.415496826,55.784759521 -158.834259033,56.015792847 -158.663330078,55.948577881 -158.616653443,56.199199676 -158.456985474,56.190505981 -158.5987854,56.046157837 -158.424880982,55.990924836 -158.486022949,56.109016418 -158.118103027,56.236587524 -158.667755127,56.269981384 -158.405700684,56.451213837 -157.866653443,56.471111298 -158.137817383,56.534393311 -157.462387085,56.623493195 -157.567428589,56.705547332 -157.429367065,56.861270904 -157.203338623,56.764205933 -156.774749756,57.036705017 -156.560638428,56.977073669 -156.615600586,57.078697204 -156.322463989,57.289855957 -156.541488648,57.322998047 -156.025527954,57.433540344 -156.041183471,57.564296723 -155.735061646,57.539840698 -155.613204956,57.791164399 -155.304779052,57.723354339 -155.031784058,58.024425507 -154.584411621,58.020301818 -154.488204956,58.203849792 -154.22001648,58.135093689 -154.303268432,58.19317627 -154.111358642,58.286121368 -154.35295105,58.245559693 -154.357849121,58.284763336 -153.988113404,58.391849518 -154.091537476,58.484798431 -153.253128052,58.848423004 -154.266830444,59.142082214 -153.729324341,59.440876007 -153.872924805,59.543991089 -153.592544556,59.553688049 -153.712295533,59.636550903 -153.479797363,59.644737244 -153.459884643,59.786014557 -153.421157837,59.637817383 -153.21786499,59.635063172 -152.993804931,59.808368683 -153.235076904,59.859897614 -152.706893921,59.920143127 -152.571502686,60.075664521 -152.722503662,60.2448349 -152.24621582,60.392932892 -152.313110352,60.508598328 -151.875854493,60.75239563 -151.713684082,60.716819763 -151.739593506,60.915679931 -150.660766602,61.312839508 -149.987442016,61.23620224 -149.462951661,61.505149841 " /><polygon class="region" points="179.637572749,54.503409559 179.940723678,54.490197128 179.940723678,49.961181282 174.754299652,50.237791043 171.44065005,50.904178806 169.173416113,52.386854106 169.231550317,53.267121234 169.580355538,54.571018019 170.917442219,55.041133875 175.85884952,55.20770331 177.661009829,54.739547386 179.637572749,54.503409559 " /><polygon class="region" points="167.603792618,52.776380139 166.266705936,52.101374156 164.057606202,52.351270028 162.836787928,53.162434418 162.778653725,54.265892995 163.011190539,55.505772765 163.941337794,56.611592358 165.104021865,57.152624853 166.034169122,57.184205812 166.906182175,56.899000738 168.766476689,55.768834813 169.173416113,55.074503601 169.11528191,54.401785807 167.603792618,52.776380139 " /><polygon class="region" points="-135.344589233,59.468875885 -135.330001831,59.234573364 -135.194366455,59.301757813 -135.074295044,59.239795685 -135.275100708,59.196708679 -135.016571045,58.733734131 -134.961517334,58.999988556 -134.916290283,58.953655243 -134.97239685,58.673179626 -134.759414672,58.386009216 -134.134597778,58.198417663 -134.069534302,58.413055419 -133.940124512,58.50844574 -133.702606201,58.540317536 -133.995300293,58.403686524 -134.0368042,58.059555054 -133.880722046,57.97108841 -133.713516236,58.141422272 -133.703262329,57.994110108 -133.365142822,58.134922028 -133.835861206,57.937236785 -133.660140991,57.787200928 -133.573104858,57.926250458 -133.16607666,57.896827698 -133.560272217,57.917922973 -133.571853638,57.772541046 -133.089950561,57.695419312 -133.166473389,57.60748291 -132.883102417,57.502918243 -133.637557984,57.714736939 -133.435531616,57.585521698 -133.486343384,57.443012237 -133.333648682,57.445022583 -133.440612793,57.351760864 -133.043579102,57.353355408 -133.560058594,57.182235718 -132.770629883,56.996623993 -132.934509277,56.990226746 -133.87036275,55.72148724 -135.642079622,54.552186104 -136.40523433,54.62104375 -139.53767255,56.306878282 -140.621077845,57.49860349 -140.497578295,57.828258116 -138.733872335,59.160022401 -138.470687867,59.200424194 -138.601165771,59.124931336 -138.175918579,59.032279969 -137.091339111,58.38507843 -136.803558349,58.417636872 -136.86239624,58.315418244 -136.645370483,58.20664978 -136.599746704,58.368000031 -136.473815918,58.299873352 -136.35748291,58.302024841 -136.591690064,58.393661499 -136.519515991,58.451385498 -136.270004273,58.31457901 -136.0315094,58.382354736 -136.30140686,58.67080307 -136.343734741,58.588287354 -136.399154663,58.622688294 -136.459304809,58.588752747 -136.544006348,58.612007141 -136.33934021,58.685913086 -136.66305542,58.857490539 -137.133087158,58.829792023 -136.907974243,58.931430816 -137.064941407,59.06161499 -136.658020019,58.893753052 -136.615875244,58.909885407 -136.706069947,59.002979279 -136.69076538,59.020507813 -136.488632202,58.969470978 -136.199935913,58.751773834 -136.173873902,59.072475434 -136.047058106,58.855201721 -135.969146728,58.914459228 -135.754425049,58.888084412 -136.07572937,58.821563721 -135.823944092,58.603763581 -135.910675049,58.382457733 -135.460479737,58.375961304 -135.500625611,58.511623383 -135.126190186,58.212074279 -135.13243103,58.622135162 -135.612213135,59.262203217 -135.286514282,59.095531463 -135.711837768,59.420127869 -135.399032592,59.287643433 -135.344589233,59.468875885 " /><polygon class="region" points="-122.396781922,37.183742523 -121.866233826,36.937702179 -121.901893615,36.30947876 -120.649116516,35.141353607 -120.545981331,34.543660291 -121.410435419,34.163668903 -121.62444347,34.204658869 -122.569651486,35.77633225 -123.010787012,36.87644807 -122.861298557,37.311983254 -122.439429325,37.43025097 -122.396781922,37.183742523 " /><polygon class="region" points="-128.107696533,50.472476959 -127.728179931,50.298217773 -127.882041931,50.09474945 -127.43837738,50.183834076 -127.347259521,50.017318726 -127.305435181,50.191867828 -127.100958557,50.100102566 -127.25566101,49.963832856 -127.155387879,49.857639313 -126.943695068,49.857406616 -126.941421509,49.98229599 -126.67175443,49.875015173 -126.574867248,49.416584015 -126.413570493,49.425013493 -127.100057672,48.839826061 -127.64626451,48.729095301 -128.185097005,48.948907736 -128.926118769,49.487874325 -129.176800741,49.888938851 -129.131085317,50.231967842 -128.749872253,50.462947908 -128.107696533,50.472476959 " /><polygon class="region" points="-119.487574952,31.566387447 -120.275815745,31.557080296 -120.6807845,31.944279583 -120.733982716,32.33960274 -120.578557488,32.691902383 -119.970186929,33.02720744 -119.538466605,32.984058191 -119.140195809,32.699320272 -118.939514492,32.418695259 -118.986103111,32.048026753 -119.487574952,31.566387447 " /><polygon class="region" points="-124.677597046,48.008285522 -124.217351944,47.236169508 -124.466248233,47.114671082 -125.652437254,46.856894307 -126.193385869,47.494976468 -126.071271597,47.907069956 -124.745606111,48.131149308 -124.677597046,48.008285522 " /><polygon class="region" points="143.432203074,41.967890218 143.200891946,41.85115376 143.082897553,42.050518901 143.248321533,41.920707703 143.334290698,42.164763578 143.432203074,41.967890218 " />
		  </g>
		</svg>