<?xml version="1.0" encoding="UTF-8"?>
	<svg xmlns:xlink="http://www.w3.org/1999/xlink" 
	xmlns="http://www.w3.org/2000/svg" 
	width="360px" height="180px">
	   <style type="text/css">
		  <![CDATA[     
		  .region 
		  { 
			fill:blue; 
			opacity:0.4; 
			stroke:blue;
		  }
		  ]]>
	   </style>

	<circle id="dot" x="-2" y="-2" r="2" style="stroke:none; stroke-width:0; fill:black; opacity:0.7;"/>


	 <image x="0" y="0" width="360" height="180" xlink:href="map.jpg"/>

 
	 <g transform="translate(180,90) scale(1,-1)">   <use xlink:href="#dot" transform="translate(-120.81244,35.325806)" />   <use xlink:href="#dot" transform="translate(-121.876888,36.663432)" />   <use xlink:href="#dot" transform="translate(-135.311496,57.059127)" />   <use xlink:href="#dot" transform="translate(-135.248222,57.044324)" />   <use xlink:href="#dot" transform="translate(-121.785096,36.867295)" />   <use xlink:href="#dot" transform="translate(-121.819706,36.915908)" />   <use xlink:href="#dot" transform="translate(-121.992682,36.768817)" />   <use xlink:href="#dot" transform="translate(-120.985707,35.367039)" />   <use xlink:href="#dot" transform="translate(-121.698445,36.883935)" />   <use xlink:href="#dot" transform="translate(-121.884028,36.636437)" />   <use xlink:href="#dot" transform="translate(-121.963415,36.738022)" />   <use xlink:href="#dot" transform="translate(-121.8556,36.883851)" />   <use xlink:href="#dot" transform="translate(-121.670946,36.906614)" />   <use xlink:href="#dot" transform="translate(-122.048054,36.903183)" />   <use xlink:href="#dot" transform="translate(-121.655068,36.910445)" />   <use xlink:href="#dot" transform="translate(-120.825038,35.333075)" />   <use xlink:href="#dot" transform="translate(-121.97785,36.731523)" />   <use xlink:href="#dot" transform="translate(-121.844671,36.702662)" />   <use xlink:href="#dot" transform="translate(-121.760739,36.824962)" />   <use xlink:href="#dot" transform="translate(-121.948849,36.660248)" />   <use xlink:href="#dot" transform="translate(-121.714382,36.832824)" />   <use xlink:href="#dot" transform="translate(-120.821597,35.244323)" />   <use xlink:href="#dot" transform="translate(-120.865532,35.297909)" />   <use xlink:href="#dot" transform="translate(-121.718506,36.998608)" />   <use xlink:href="#dot" transform="translate(-122.027657,36.833829)" />   <use xlink:href="#dot" transform="translate(-121.996626,36.494808)" />   <use xlink:href="#dot" transform="translate(-121.681149,36.819168)" />   <use xlink:href="#dot" transform="translate(-122.190327,36.957872)" />   <use xlink:href="#dot" transform="translate(-122.003793,37.151851)" />   <use xlink:href="#dot" transform="translate(-121.601418,36.810292)" />   <use xlink:href="#dot" transform="translate(-121.789329,36.933115)" />   <use xlink:href="#dot" transform="translate(-121.868173,36.874237)" />   <use xlink:href="#dot" transform="translate(-121.906052,36.684292)" />   <use xlink:href="#dot" transform="translate(-121.643754,36.881387)" />   <use xlink:href="#dot" transform="translate(-121.966435,36.636063)" />   <use xlink:href="#dot" transform="translate(-135.314647,57.109931)" />   <use xlink:href="#dot" transform="translate(-121.716893,36.904888)" />   <use xlink:href="#dot" transform="translate(-135.274927,57.02701)" />   <use xlink:href="#dot" transform="translate(-149.435894,60.118075)" />   <use xlink:href="#dot" transform="translate(-120.848094,35.279277)" />   <use xlink:href="#dot" transform="translate(-135.22585,57.093019)" />   <use xlink:href="#dot" transform="translate(-120.932304,35.276018)" />   <use xlink:href="#dot" transform="translate(-120.925737,35.324557)" />   <use xlink:href="#dot" transform="translate(-135.239344,57.098854)" />   <use xlink:href="#dot" transform="translate(-120.862972,35.327514)" />   <use xlink:href="#dot" transform="translate(-122.229153,37.133954)" />   <use xlink:href="#dot" transform="translate(-121.619611,36.86185)" />   <use xlink:href="#dot" transform="translate(-135.279755,57.181261)" />   <use xlink:href="#dot" transform="translate(-121.916535,36.458668)" />   <use xlink:href="#dot" transform="translate(-121.835083,36.517355)" />   <use xlink:href="#dot" transform="translate(-122.150587,36.964351)" />   <use xlink:href="#dot" transform="translate(-121.779764,36.841422)" />   <use xlink:href="#dot" transform="translate(-121.681358,36.890311)" />   <use xlink:href="#dot" transform="translate(-121.686339,36.808764)" />   <use xlink:href="#dot" transform="translate(-121.736135,36.99897)" />   <use xlink:href="#dot" transform="translate(-151.441857,59.775216)" />   <use xlink:href="#dot" transform="translate(-122.34816,37.053105)" />   <use xlink:href="#dot" transform="translate(-121.797129,36.928598)" />   <use xlink:href="#dot" transform="translate(-122.385069,37.079329)" />   <use xlink:href="#dot" transform="translate(-121.702574,36.959055)" />   <use xlink:href="#dot" transform="translate(-120.850553,35.314851)" />   <use xlink:href="#dot" transform="translate(-121.966589,36.656064)" />   <use xlink:href="#dot" transform="translate(-122.307655,36.917485)" />   <use xlink:href="#dot" transform="translate(-121.327049,35.633405)" />   <use xlink:href="#dot" transform="translate(-120.901536,35.216082)" />   <use xlink:href="#dot" transform="translate(-121.926979,36.74784)" />   <use xlink:href="#dot" transform="translate(-120.932275,35.287694)" />   <use xlink:href="#dot" transform="translate(-121.943123,36.665323)" />   <use xlink:href="#dot" transform="translate(-121.634234,36.972264)" />   <use xlink:href="#dot" transform="translate(-121.860783,36.873206)" />   <use xlink:href="#dot" transform="translate(-120.878691,35.389367)" />   <use xlink:href="#dot" transform="translate(-121.904241,36.925878)" />   <use xlink:href="#dot" transform="translate(-121.854539,36.654771)" />   <use xlink:href="#dot" transform="translate(-135.242507,57.092869)" />   <use xlink:href="#dot" transform="translate(-121.821533,36.686228)" />   <use xlink:href="#dot" transform="translate(-122.06977,36.886431)" />   <use xlink:href="#dot" transform="translate(-135.321634,57.072891)" />   <use xlink:href="#dot" transform="translate(-121.689298,36.886291)" />   <use xlink:href="#dot" transform="translate(-121.624567,36.88512)" />   <use xlink:href="#dot" transform="translate(-121.915254,36.470069)" />   <use xlink:href="#dot" transform="translate(-121.638488,36.827363)" />   <use xlink:href="#dot" transform="translate(-118.345541,33.667191)" />   <use xlink:href="#dot" transform="translate(-121.806631,36.737316)" />   <use xlink:href="#dot" transform="translate(-121.72412,36.825507)" />   <use xlink:href="#dot" transform="translate(-121.734543,36.821049)" />   <use xlink:href="#dot" transform="translate(-135.837153,57.038649)" />   <use xlink:href="#dot" transform="translate(-121.787039,36.842469)" />   <use xlink:href="#dot" transform="translate(-121.683159,36.932573)" />   <use xlink:href="#dot" transform="translate(-121.841128,36.691793)" />   <use xlink:href="#dot" transform="translate(-121.618327,36.852284)" />   <use xlink:href="#dot" transform="translate(-121.834507,36.766921)" />   <use xlink:href="#dot" transform="translate(-121.626895,36.917756)" />   <use xlink:href="#dot" transform="translate(-121.819206,36.533547)" />   <use xlink:href="#dot" transform="translate(-120.935424,35.286282)" />   <use xlink:href="#dot" transform="translate(-122.336702,37.040675)" />   <use xlink:href="#dot" transform="translate(-121.630869,36.919567)" />   <use xlink:href="#dot" transform="translate(-121.824291,36.59504)" />   <use xlink:href="#dot" transform="translate(-120.874761,35.289684)" />   <use xlink:href="#dot" transform="translate(-121.934532,36.977614)" />   <use xlink:href="#dot" transform="translate(-122.398157,37.086088)" />   <use xlink:href="#dot" transform="translate(-122.376371,37.074926)" />   <use xlink:href="#dot" transform="translate(-121.900516,36.683199)" />   <use xlink:href="#dot" transform="translate(-121.625555,36.988973)" />   <use xlink:href="#dot" transform="translate(-121.609467,36.897564)" />   <use xlink:href="#dot" transform="translate(-120.977876,35.284437)" />   <use xlink:href="#dot" transform="translate(-121.991517,36.643849)" />   <use xlink:href="#dot" transform="translate(-121.823266,36.693509)" />   <use xlink:href="#dot" transform="translate(-121.790077,36.800035)" />   <use xlink:href="#dot" transform="translate(-121.812576,36.71115)" />   <use xlink:href="#dot" transform="translate(-149.409027,60.028871)" />   <use xlink:href="#dot" transform="translate(-149.492404,60.038663)" />   <use xlink:href="#dot" transform="translate(-121.86539,36.97287)" />   <use xlink:href="#dot" transform="translate(-122.206023,37.166694)" />   <use xlink:href="#dot" transform="translate(-149.424681,60.038885)" />   <use xlink:href="#dot" transform="translate(-121.860387,36.845778)" />   <use xlink:href="#dot" transform="translate(-135.329007,57.189322)" />   <use xlink:href="#dot" transform="translate(-151.336948,59.471498)" />   <use xlink:href="#dot" transform="translate(-145.682337,60.556713)" />   <use xlink:href="#dot" transform="translate(-149.506592,60.106686)" />   <use xlink:href="#dot" transform="translate(-121.671933,36.868274)" />   <use xlink:href="#dot" transform="translate(-120.889607,35.277371)" />   <use xlink:href="#dot" transform="translate(-122.155281,36.99988)" />   <use xlink:href="#dot" transform="translate(-120.885076,35.397662)" />   <use xlink:href="#dot" transform="translate(-128.262453,51.836884)" />   <use xlink:href="#dot" transform="translate(-121.857094,36.657548)" />   <use xlink:href="#dot" transform="translate(-122.216183,37.007859)" />   <use xlink:href="#dot" transform="translate(-121.619207,36.91253)" />   <use xlink:href="#dot" transform="translate(-121.731592,36.984952)" />   <use xlink:href="#dot" transform="translate(-121.914471,36.482418)" />   <use xlink:href="#dot" transform="translate(-122.02645,36.823633)" />   <use xlink:href="#dot" transform="translate(-122.182792,37.130056)" />   <use xlink:href="#dot" transform="translate(-121.796771,36.887964)" />   <use xlink:href="#dot" transform="translate(-121.880289,36.629177)" />   <use xlink:href="#dot" transform="translate(-121.839392,36.768475)" />   <use xlink:href="#dot" transform="translate(-121.621037,36.812886)" />   <use xlink:href="#dot" transform="translate(-121.95286,36.706855)" />   <use xlink:href="#dot" transform="translate(-122.112747,36.918732)" />   <use xlink:href="#dot" transform="translate(-122.173332,36.884695)" />   <use xlink:href="#dot" transform="translate(-121.644597,36.983216)" />   <use xlink:href="#dot" transform="translate(-149.450028,60.177745)" />   <use xlink:href="#dot" transform="translate(-120.974685,35.274434)" />   <use xlink:href="#dot" transform="translate(-149.561612,59.703755)" />   <use xlink:href="#dot" transform="translate(-151.304128,59.468025)" />   <use xlink:href="#dot" transform="translate(-149.867932,59.731522)" />   <use xlink:href="#dot" transform="translate(-122.173551,36.96821)" />   <use xlink:href="#dot" transform="translate(-121.620689,36.991175)" />   <use xlink:href="#dot" transform="translate(-122.393297,37.123294)" />   <use xlink:href="#dot" transform="translate(-125.958044,49.145139)" />   <use xlink:href="#dot" transform="translate(-121.756726,36.992739)" />   <use xlink:href="#dot" transform="translate(-120.882379,35.262329)" />   <use xlink:href="#dot" transform="translate(-148.105334,61.129811)" />   <use xlink:href="#dot" transform="translate(-121.959501,36.620307)" />   <use xlink:href="#dot" transform="translate(-135.5292,57.181093)" />   <use xlink:href="#dot" transform="translate(-135.38926,57.124132)" />   <use xlink:href="#dot" transform="translate(-122.034492,36.978188)" />   <use xlink:href="#dot" transform="translate(-122.138236,36.811372)" />   <use xlink:href="#dot" transform="translate(-135.26178,57.196822)" />   <use xlink:href="#dot" transform="translate(-121.969196,36.621024)" />   <use xlink:href="#dot" transform="translate(-121.629829,36.959527)" />   <use xlink:href="#dot" transform="translate(-149.738858,59.833858)" />   <use xlink:href="#dot" transform="translate(-121.935527,36.65443)" />   <use xlink:href="#dot" transform="translate(-121.820437,36.730427)" />   <use xlink:href="#dot" transform="translate(-121.739107,36.716691)" />   <use xlink:href="#dot" transform="translate(-121.831154,36.905065)" />   <use xlink:href="#dot" transform="translate(-121.895799,36.652229)" />   <use xlink:href="#dot" transform="translate(-121.811081,36.981672)" />   <use xlink:href="#dot" transform="translate(-125.859932,49.147499)" />   <use xlink:href="#dot" transform="translate(-151.660677,59.409064)" />   <use xlink:href="#dot" transform="translate(-121.809381,36.437501)" />   <use xlink:href="#dot" transform="translate(-121.815709,36.635393)" />   <use xlink:href="#dot" transform="translate(-121.944907,36.730922)" />   <use xlink:href="#dot" transform="translate(-121.763414,36.868507)" />   <use xlink:href="#dot" transform="translate(-135.541414,57.143952)" />   <use xlink:href="#dot" transform="translate(-147.956113,60.638879)" />   <use xlink:href="#dot" transform="translate(-121.905793,36.954581)" />   <use xlink:href="#dot" transform="translate(-121.720478,36.988172)" />   <use xlink:href="#dot" transform="translate(-121.792954,36.962365)" />   <use xlink:href="#dot" transform="translate(-121.896853,36.797451)" />   <use xlink:href="#dot" transform="translate(-135.263212,56.829889)" />   <use xlink:href="#dot" transform="translate(-121.672006,36.93214)" />   <use xlink:href="#dot" transform="translate(-121.745924,36.86213)" />   <use xlink:href="#dot" transform="translate(-122.044617,36.973518)" />   <use xlink:href="#dot" transform="translate(-121.673949,36.913873)" />   <use xlink:href="#dot" transform="translate(-122.280585,37.194986)" />   <use xlink:href="#dot" transform="translate(-121.758165,36.977653)" />   <use xlink:href="#dot" transform="translate(-154.132758,58.380872)" />   <use xlink:href="#dot" transform="translate(-149.597398,60.089544)" />   <use xlink:href="#dot" transform="translate(-122.073456,36.993831)" />   <use xlink:href="#dot" transform="translate(-122.098105,36.881057)" />   <use xlink:href="#dot" transform="translate(-122.137551,36.959955)" />   <use xlink:href="#dot" transform="translate(-121.879114,36.895265)" />   <use xlink:href="#dot" transform="translate(-121.739535,36.872834)" />   <use xlink:href="#dot" transform="translate(-149.436743,60.197495)" />   <use xlink:href="#dot" transform="translate(-5.767972,57.738571)" />   <use xlink:href="#dot" transform="translate(-135.910759,58.473156)" />   <use xlink:href="#dot" transform="translate(-121.993397,36.723646)" />   <use xlink:href="#dot" transform="translate(-121.799429,36.908746)" />   <use xlink:href="#dot" transform="translate(-121.961565,36.83363)" />   <use xlink:href="#dot" transform="translate(-121.864722,36.79561)" />   <use xlink:href="#dot" transform="translate(-122.26512,37.105759)" />   <use xlink:href="#dot" transform="translate(-120.889319,35.330562)" />   <use xlink:href="#dot" transform="translate(-121.666727,36.874933)" />   <use xlink:href="#dot" transform="translate(-122.253472,37.106378)" />   <use xlink:href="#dot" transform="translate(-121.791096,36.885644)" />   <use xlink:href="#dot" transform="translate(-126.112331,49.188193)" />   <use xlink:href="#dot" transform="translate(-121.835423,36.633319)" />   <use xlink:href="#dot" transform="translate(-121.692835,36.923328)" />   <use xlink:href="#dot" transform="translate(-149.534904,60.192549)" />   <use xlink:href="#dot" transform="translate(-122.126593,36.998772)" />   <use xlink:href="#dot" transform="translate(-121.608864,36.911995)" />   <use xlink:href="#dot" transform="translate(-121.825513,36.729105)" />   <use xlink:href="#dot" transform="translate(-121.690399,36.902467)" />   <use xlink:href="#dot" transform="translate(-121.727963,36.921414)" />   <use xlink:href="#dot" transform="translate(-121.773945,36.997376)" />   <use xlink:href="#dot" transform="translate(-121.992357,36.659624)" />   <use xlink:href="#dot" transform="translate(-121.647087,36.831933)" />   <use xlink:href="#dot" transform="translate(-135.370422,57.158626)" />   <use xlink:href="#dot" transform="translate(-121.983906,36.725425)" />   <use xlink:href="#dot" transform="translate(-120.887902,35.335371)" />   <use xlink:href="#dot" transform="translate(-122.000145,36.973932)" />   <use xlink:href="#dot" transform="translate(-121.754855,36.895355)" />   <use xlink:href="#dot" transform="translate(-122.138066,36.742017)" />   <use xlink:href="#dot" transform="translate(-146.377367,61.136613)" />   <use xlink:href="#dot" transform="translate(-135.243608,57.171107)" />   <use xlink:href="#dot" transform="translate(-121.994659,36.6207)" />   <use xlink:href="#dot" transform="translate(-120.833122,35.339891)" />   <use xlink:href="#dot" transform="translate(-121.737965,36.945019)" />   <use xlink:href="#dot" transform="translate(-121.935842,36.683706)" />   <use xlink:href="#dot" transform="translate(-121.787589,36.947974)" />   <use xlink:href="#dot" transform="translate(-135.265443,57.045609)" />   <use xlink:href="#dot" transform="translate(-122.073519,36.961808)" />   <use xlink:href="#dot" transform="translate(-121.916832,36.628204)" />   <use xlink:href="#dot" transform="translate(-121.704639,36.843579)" />   <use xlink:href="#dot" transform="translate(-121.940549,36.744156)" />   <use xlink:href="#dot" transform="translate(-120.86274,35.303219)" />   <use xlink:href="#dot" transform="translate(-125.560359,48.864961)" />   <use xlink:href="#dot" transform="translate(-121.784843,36.811863)" />   <use xlink:href="#dot" transform="translate(-135.297648,57.1262)" />   <use xlink:href="#dot" transform="translate(-121.645686,36.927825)" />   <use xlink:href="#dot" transform="translate(-122.126924,36.879632)" />   <use xlink:href="#dot" transform="translate(-121.784843,36.811863)" />   <use xlink:href="#dot" transform="translate(-125.476273,48.901497)" />   <use xlink:href="#dot" transform="translate(-120.863808,35.378036)" />   <use xlink:href="#dot" transform="translate(-121.658937,36.898684)" />   <use xlink:href="#dot" transform="translate(-135.225852,57.172753)" />   <use xlink:href="#dot" transform="translate(-120.864489,35.211303)" />   <use xlink:href="#dot" transform="translate(-121.916832,36.628204)" />   <use xlink:href="#dot" transform="translate(-121.784843,36.811863)" />   <use xlink:href="#dot" transform="translate(-121.834717,36.961981)" />   <use xlink:href="#dot" transform="translate(-121.703172,36.960556)" />   <use xlink:href="#dot" transform="translate(-121.625414,36.864307)" />   <use xlink:href="#dot" transform="translate(-121.857878,36.770128)" />   <use xlink:href="#dot" transform="translate(-122.07765,36.834045)" />   <use xlink:href="#dot" transform="translate(-121.891305,36.775006)" />   <use xlink:href="#dot" transform="translate(-121.858761,36.646391)" />   <use xlink:href="#dot" transform="translate(-122.082624,36.980824)" />   <use xlink:href="#dot" transform="translate(-121.692938,36.846347)" />   <use xlink:href="#dot" transform="translate(-121.700909,36.652456)" />   <use xlink:href="#dot" transform="translate(-121.733562,36.870204)" />   <use xlink:href="#dot" transform="translate(-121.906022,36.697737)" />   <use xlink:href="#dot" transform="translate(-122.391841,37.042741)" />   <use xlink:href="#dot" transform="translate(-120.998927,35.274278)" />   <use xlink:href="#dot" transform="translate(-121.641691,36.903184)" />   <use xlink:href="#dot" transform="translate(-121.778253,36.830973)" />   <use xlink:href="#dot" transform="translate(-122.056629,36.970245)" />   <use xlink:href="#dot" transform="translate(-121.780332,36.9935)" />   <use xlink:href="#dot" transform="translate(-122.136523,36.863404)" />   <use xlink:href="#dot" transform="translate(-121.746611,36.969365)" />   <use xlink:href="#dot" transform="translate(-120.994159,35.228243)" />   <use xlink:href="#dot" transform="translate(-121.39264,35.729487)" />   <use xlink:href="#dot" transform="translate(-135.363611,57.102297)" />   <use xlink:href="#dot" transform="translate(-121.954669,36.517414)" />   <use xlink:href="#dot" transform="translate(-121.917983,36.808236)" />   <use xlink:href="#dot" transform="translate(-121.838578,36.708445)" />   <use xlink:href="#dot" transform="translate(-121.912332,36.566617)" />   <use xlink:href="#dot" transform="translate(-121.627694,36.919539)" />   <use xlink:href="#dot" transform="translate(-121.891223,36.748841)" />   <use xlink:href="#dot" transform="translate(-120.823074,35.29726)" />   <use xlink:href="#dot" transform="translate(-135.478018,57.02491)" />   <use xlink:href="#dot" transform="translate(-121.753569,36.83355)" />   <use xlink:href="#dot" transform="translate(-120.832251,35.207095)" />   <use xlink:href="#dot" transform="translate(-121.688728,36.889261)" />   <use xlink:href="#dot" transform="translate(-121.672481,36.805326)" />   <use xlink:href="#dot" transform="translate(-121.859087,36.679595)" />   <use xlink:href="#dot" transform="translate(-121.882085,36.958491)" />   <use xlink:href="#dot" transform="translate(-121.708174,36.829592)" />   <use xlink:href="#dot" transform="translate(-121.968326,36.651349)" />   <use xlink:href="#dot" transform="translate(-122.191135,36.814211)" />   <use xlink:href="#dot" transform="translate(-121.787069,36.820094)" />   <use xlink:href="#dot" transform="translate(-121.796495,36.940556)" />   <use xlink:href="#dot" transform="translate(-121.931666,36.424133)" />   <use xlink:href="#dot" transform="translate(-122.069529,36.865884)" />   <use xlink:href="#dot" transform="translate(-122.090248,36.876519)" />   <use xlink:href="#dot" transform="translate(-121.701822,36.884668)" />   <use xlink:href="#dot" transform="translate(-121.649834,36.984625)" />   <use xlink:href="#dot" transform="translate(-124.737979,48.331229)" />   <use xlink:href="#dot" transform="translate(-121.773911,36.895781)" />   <use xlink:href="#dot" transform="translate(-121.81248,36.743095)" />   <use xlink:href="#dot" transform="translate(-122.141277,36.877493)" />   <use xlink:href="#dot" transform="translate(-122.006336,36.853378)" /><polygon class="region" points="-120.994159,35.228243 -154.132758,58.380872 -151.441857,59.775216 -148.105334,61.129811 -146.377367,61.136613 -5.767972,57.738571 -118.345541,33.667191 -120.994159,35.228243 " />
		  </g>
		</svg>