<?xml version="1.0" encoding="UTF-8"?>
	<svg xmlns:xlink="http://www.w3.org/1999/xlink" 
	xmlns="http://www.w3.org/2000/svg" 
	width="360px" height="180px">
	   <style type="text/css">
		  <![CDATA[     
		  .region 
		  { 
			fill:blue; 
			opacity:0.4; 
			stroke:blue;
		  }
		  ]]>
	   </style>

	<circle id="dot" x="-2" y="-2" r="2" style="stroke:none; stroke-width:0; fill:black; opacity:0.7;"/>


	 <image x="0" y="0" width="360" height="180" xlink:href="map.jpg"/>

 
	 <g transform="translate(180,90) scale(1,-1)">   <use xlink:href="#dot" transform="translate(98.62102,25.80952)" />   <use xlink:href="#dot" transform="translate(98.61813,25.80805)" />   <use xlink:href="#dot" transform="translate(98.62,25.81052)" />   <use xlink:href="#dot" transform="translate(98.62102,25.80952)" />   <use xlink:href="#dot" transform="translate(98.62102,25.80952)" />   <use xlink:href="#dot" transform="translate(98.62,25.81052)" />   <use xlink:href="#dot" transform="translate(98.61813,25.80805)" />   <use xlink:href="#dot" transform="translate(98.62,25.81052)" />   <use xlink:href="#dot" transform="translate(98.76569,25.31172)" />   <use xlink:href="#dot" transform="translate(98.76569,25.31227)" />   <use xlink:href="#dot" transform="translate(98.76638,25.31172)" />   <use xlink:href="#dot" transform="translate(98.76569,25.31227)" />   <use xlink:href="#dot" transform="translate(103.02464,24.92754)" />   <use xlink:href="#dot" transform="translate(103.02464,24.92754)" />   <use xlink:href="#dot" transform="translate(103.02464,24.92754)" />   <use xlink:href="#dot" transform="translate(102.683333,25.1)" />   <use xlink:href="#dot" transform="translate(103.02464,24.92754)" />   <use xlink:href="#dot" transform="translate(103.02464,24.92754)" />   <use xlink:href="#dot" transform="translate(102.683333,25.1)" />   <use xlink:href="#dot" transform="translate(103.02464,24.92754)" />   <use xlink:href="#dot" transform="translate(103.02464,24.92754)" />   <use xlink:href="#dot" transform="translate(103.02464,24.92754)" />   <use xlink:href="#dot" transform="translate(103.02464,24.92754)" /><polygon class="region" points="98.76569,25.31172 98.61813,25.80805 98.62,25.81052 102.683333,25.1 103.02464,24.92754 98.76569,25.31172 " />
		  </g>
		</svg>