<?xml version="1.0" encoding="UTF-8"?>
	<svg xmlns:xlink="http://www.w3.org/1999/xlink" 
	xmlns="http://www.w3.org/2000/svg" 
	width="360px" height="180px">
	   <style type="text/css">
		  <![CDATA[     
		  .region 
		  { 
			fill:blue; 
			opacity:0.4; 
			stroke:blue;
		  }
		  ]]>
	   </style>

	<circle id="dot" x="-2" y="-2" r="2" style="stroke:none; stroke-width:0; fill:black; opacity:0.7;"/>


	 <image x="0" y="0" width="360" height="180" xlink:href="map.jpg"/>

 
	 <g transform="translate(180,90) scale(1,-1)"><polygon class="region" points="101.933067512,27.350835357 101.849954842,27.222398943 101.794047067,27.321707264 101.713282807,26.96157811 101.281657424,27.006594254 101.418686607,26.821540648 101.171765072,26.858305778 101.117599333,26.564820087 99.933607034,26.698496637 99.103434224,27.299606835 99.797741673,27.810122313 101.017079628,28.158871144 101.933067512,27.350835357 " /><polygon class="region" points="102.485799036,27.048232925 102.999800468,26.634332943 102.889330443,26.571830165 102.976543621,26.365425644 102.70182211,26.228791665 102.624783803,26.496245411 102.396575988,26.323272608 102.488149824,26.561655295 102.283987617,26.677784569 102.209715663,26.441516631 101.970684968,26.419207104 102.272929457,27.161579064 102.485799036,27.048232925 " /><polygon class="region" points="102.135668377,27.298076311 102.134559217,27.250382434 102.094074879,27.225980914 102.05414512,27.131147738 102.30925191,27.281438912 102.010333301,26.998603123 102.05525428,26.863840188 101.760217731,26.840547829 101.841549702,27.099340944 101.980431951,27.017334284 101.979831402,27.345770189 102.135668377,27.298076311 " /><polygon class="region" points="101.676476154,26.925398565 101.622681896,26.762352051 101.800702069,26.782871511 101.715296753,26.617052097 101.247662755,26.732956347 101.676476154,26.925398565 " />
		  </g>
		</svg>