<?xml version="1.0" encoding="UTF-8"?>
	<svg xmlns:xlink="http://www.w3.org/1999/xlink" 
	xmlns="http://www.w3.org/2000/svg" 
	width="360px" height="180px">
	   <style type="text/css">
		  <![CDATA[     
		  .region 
		  { 
			fill:blue; 
			opacity:0.4; 
			stroke:blue;
		  }
		  ]]>
	   </style>

	<circle id="dot" x="-2" y="-2" r="2" style="stroke:none; stroke-width:0; fill:black; opacity:0.7;"/>


	 <image x="0" y="0" width="360" height="180" xlink:href="map.jpg"/>

 
	 <g transform="translate(180,90) scale(1,-1)"><polygon class="region" points="99.073565822,27.349786218 100.984424694,28.167833587 102.176247844,27.642406176 103.701268865,27.488622544 105.828609112,28.629184484 109.979847999,30.460387331 111.197850816,30.926271467 111.531656106,30.759368821 109.029224299,28.820561447 108.577678041,27.180735563 108.535722256,26.000745169 106.977598222,26.324527113 105.308571772,27.123275485 104.149804459,26.796596199 103.198445476,26.14570285 104.60519634,25.108522128 103.470593417,24.169459147 103.560300535,23.323649169 103.448799443,22.819571568 103.197243819,22.677044157 102.257171561,22.776226092 100.933338151,22.664590541 100.438434162,21.868336071 100.284864904,21.868336071 99.782274609,22.552417307 99.523480187,24.054121422 99.100575198,24.630810044 98.985237473,25.130606849 99.164651711,25.89952501 99.073565822,27.349786218 " />
		  </g>
		</svg>