<?xml version="1.0" encoding="UTF-8"?>
	<svg xmlns:xlink="http://www.w3.org/1999/xlink" 
	xmlns="http://www.w3.org/2000/svg" 
	width="360px" height="180px">
	   <style type="text/css">
		  <![CDATA[     
		  .region 
		  { 
			fill:blue; 
			opacity:0.4; 
			stroke:blue;
		  }
		  ]]>
	   </style>

	<circle id="dot" x="-2" y="-2" r="2" style="stroke:none; stroke-width:0; fill:black; opacity:0.7;"/>


	 <image x="0" y="0" width="360" height="180" xlink:href="map.jpg"/>

 
	 <g transform="translate(180,90) scale(1,-1)">   <use xlink:href="#dot" transform="translate(63.89668,40.371756)" />   <use xlink:href="#dot" transform="translate(35.267887,30.708823)" />   <use xlink:href="#dot" transform="translate(35.26,30.7)" />   <use xlink:href="#dot" transform="translate(35.04,29.86)" />   <use xlink:href="#dot" transform="translate(35.043779,29.868026)" />   <use xlink:href="#dot" transform="translate(35.04,29.86)" />   <use xlink:href="#dot" transform="translate(35.31,30.8)" />   <use xlink:href="#dot" transform="translate(35.313929,30.806208)" />   <use xlink:href="#dot" transform="translate(35.043779,29.868026)" />   <use xlink:href="#dot" transform="translate(34.43612,30.812995)" />   <use xlink:href="#dot" transform="translate(34.43,30.81)" />   <use xlink:href="#dot" transform="translate(35.277317,30.755722)" />   <use xlink:href="#dot" transform="translate(35.054143,29.859018)" />   <use xlink:href="#dot" transform="translate(35.27,30.75)" />   <use xlink:href="#dot" transform="translate(35.054223,29.805793)" />   <use xlink:href="#dot" transform="translate(33.64354,26.1)" />   <use xlink:href="#dot" transform="translate(35.147002,30.355234)" />   <use xlink:href="#dot" transform="translate(35.14,30.35)" />   <use xlink:href="#dot" transform="translate(33.166668,22.916666)" />   <use xlink:href="#dot" transform="translate(66.01667,29.55)" />   <use xlink:href="#dot" transform="translate(69.3,30.3)" />   <use xlink:href="#dot" transform="translate(70,30.5)" /><polygon class="region" points="66.01667,29.55 33.166668,22.916666 33.64354,26.1 34.43,30.81 34.43612,30.812995 63.89668,40.371756 70,30.5 69.3,30.3 66.01667,29.55 " />
		  </g>
		</svg>