<?xml version="1.0" encoding="UTF-8"?>
	<svg xmlns:xlink="http://www.w3.org/1999/xlink" 
	xmlns="http://www.w3.org/2000/svg" 
	width="360px" height="180px">
	   <style type="text/css">
		  <![CDATA[     
		  .region 
		  { 
			fill:blue; 
			opacity:0.4; 
			stroke:blue;
		  }
		  ]]>
	   </style>

	<circle id="dot" x="-2" y="-2" r="2" style="stroke:none; stroke-width:0; fill:black; opacity:0.7;"/>


	 <image x="0" y="0" width="360" height="180" xlink:href="map.jpg"/>

 
	 <g transform="translate(180,90) scale(1,-1)"><polygon class="region" points="2.4604652580001,29.871511711 8.4983475610001,24.30952161 10.064112218,23.109242163 11.70118139,22.46202877 12.291287719,21.909993816 12.778165496,19.507188513 12.403641833,17.283653884 12.707974359,17.215426895 13.483482496,16.556349562 13.791544168,15.995115681 13.693457992,15.437903033 13.039352267,14.765918532 12.056237026,14.649399896 10.99975634,14.749337259 9.439882229,15.353368349 8.3705190370001,16.086789623 5.107615627,19.163937185 4.625863753,20.496152393 4.879282474,21.932367256 4.631792761,23.197960239 2.1253185730001,25.179823551 0.85345573100005,27.690937366 0.29603918600003,27.994645858 -0.65119071999993,28.138789539 -1.150177207,28.504088583 -1.877569045,29.485682683 -2.2424344959999,29.611982359 -9.682756183,26.679077736 -9.95813938,25.76517532 -10.532778211,24.971878462 -11.955715781,23.505301238 -14.525011729,21.452199665 -15.360079318,21.311973228 -15.842045155,21.501577144 -16.220000459,21.944835163 -16.235766179,22.337218325 -15.702404991,23.628880773 -14.492478399,24.231259417 -11.753065453,26.825554699 -10.800752978,27.248435476 -10.983489424,27.343334393 -7.800960329,28.414091845 -6.801507391,28.953198394 -4.7456530819999,29.714625916 -2.7469058369999,30.323767933 0.78811848500004,31.092017374 1.33022128,31.031498951 2.4604652580001,29.871511711 " /><polygon class="region" points="58.810298056,34.771090801 60.617848778,34.239927509 60.472618938,34.079718471 60.543778777,33.730945468 60.660483122,33.534736633 60.94615984,33.513450623 60.581575036,33.130645752 60.803720753,32.50018351 60.856513023,31.486515879 61.510782391,31.401571595 61.049509276,29.581117232 61.071983406,28.431823173 60.85748764,28.027832926 60.292010823,27.723683286 59.584000476,28.044196855 59.499815393,28.533869862 59.909929367,30.328719052 59.902390584,30.921032578 59.638795984,31.783250341 57.405034961,32.378740733 56.064274567,33.088374888 55.755182739,32.98897411 55.494519145,32.641473201 54.966278801,32.470152008 54.081119307,32.49870554 53.37357705,32.068139407 52.750161278,32.028087063 52.271539212,32.415424406 51.111551972,34.511729551 51.168659036,34.811541638 52.585494562,35.039042969 52.956823981,34.728260503 53.569667696,34.55295937 54.247660381,34.611885558 54.864023681,34.929889466 55.230564746,35.52242107 55.712145414,35.923076094 56.163867633,35.947238578 57.320533388,35.14355319 58.810298056,34.771090801 " /><polygon class="region" points="64.091261915,40.213555619 63.712667461,40.261269563 61.333206455,42.212427587 61.399831363,42.735909009 61.904277096,42.678801944 64.217113194,41.774606762 64.091261915,40.213555619 " /><polygon class="region" points="18.644567975,14.898053572 18.137249228,14.950816349 18.168675774,15.754659534 18.454211094,16.099681379 19.399160462,16.712621511 20.159491482,16.65588039 20.590861736,16.343483185 20.726596354,15.873632584 20.524342169,15.623789178 19.32668013,14.990257686 18.644567975,14.898053572 " /><polygon class="region" points="55.341605075,23.28146944 54.35789028,22.977263574 53.757076375,22.560857898 52.939136655,22.599524139 52.829086583,22.721471516 53.144685215,23.011711265 52.584098315,22.979640687 52.42110924,23.142192155 52.411491177,23.924289054 53.135879909,24.167593485 53.597652488,23.901684175 53.569098956,23.330613533 53.444363551,23.236888001 53.997842954,23.524680448 55.363919878,23.828083723 55.369161207,24.362109879 55.567766886,24.462353597 55.865873692,24.166994076 55.87479667,23.860638472 55.66064518,23.399617902 55.341605075,23.28146944 " /><polygon class="region" points="43.707888512,31.199440312 43.12266108,31.016780266 42.546264392,31.122298819 42.078206999,31.385148119 42.195176678,31.906267511 42.518118661,32.310388495 43.797858294,32.571028872 44.310390937,32.287021361 44.374080883,31.869906554 44.322539048,31.464858699 43.707888512,31.199440312 " /><polygon class="region" points="43.275338476,22.257491491 42.885106871,22.233696881 42.804205198,22.495437592 43.456177513,23.989739103 43.703641457,24.089676466 43.889239416,23.766069769 43.261061711,22.681035551 43.275338476,22.257491491 " /><polygon class="region" points="47.588345529,29.16073419 47.399870407,29.013310717 47.167872958,29.078745894 47.096489128,29.453511003 47.317725067,30.037280827 47.786002993,29.97065592 47.92930048,29.602227316 47.588345529,29.16073419 " /><polygon class="region" points="41.812221784,27.993207032 41.431508023,27.878992904 41.160178943,28.001550887 41.031758574,28.221635289 41.26330789,28.635256995 41.888364536,28.411992169 41.812221784,27.993207032 " /><polygon class="region" points="61.142529734,36.397145929 60.890660814,36.387458662 60.790723451,36.630163685 61.11908907,36.744377813 61.26185673,36.401735428 61.142529734,36.397145929 " /><polygon class="region" points="38.574217579,34.447236895 38.311016502,34.386001115 38.212439925,34.712287181 38.584766282,34.636751647 38.574217579,34.447236895 " /><polygon class="region" points="35.474019777,29.454156431 35.319354811,29.394669907 35.343149421,29.703999837 35.468071124,29.668307922 35.474019777,29.454156431 " /><polygon class="region" points="-4.1027048729999,16.604628584 -4.978346523,16.528485832 -5.187739091,16.947270969 -4.730882578,17.347020418 -3.6839197359999,17.537377298 -3.436455791,17.251841978 -3.474527167,16.928235281 -4.1027048729999,16.604628584 " /><polygon class="region" points="54.130439585,18.046321403 53.90677025,18.008250027 52.778905734,18.550767136 52.736075435,19.064730713 54.40169814,20.416264565 55.215473804,21.805869792 56.12918683,22.286520916 56.281472334,21.70593243 56.20057066,20.421023487 55.310652244,19.24556975 54.130439585,18.046321403 " /><polygon class="region" points="58.410608094,20.952837978 57.914490473,20.863608191 57.918541506,21.660722671 58.158113175,22.246370287 58.563579617,22.422683052 59.150093569,22.309758029 59.329120627,21.836969571 58.780712483,21.134605982 58.410608094,20.952837978 " /><polygon class="region" points="45.337420628,18.865370349 45.085197762,18.855852505 45.023331775,19.507824821 45.314577802,19.434537422 45.337420628,18.865370349 " /><polygon class="region" points="48.400697483,23.940246315 48.0152248,23.945005236 47.981912346,24.121085351 48.400697483,24.240058401 48.400697483,23.940246315 " /><polygon class="region" points="42.862531989,21.54572195 42.653988454,21.75182603 42.860092534,21.960369566 43.068636068,21.754265485 42.862531989,21.54572195 " /><polygon class="region" points="43.242026023,24.310966339 43.09330971,24.447785347 43.390742335,24.638142228 43.390742335,24.376401517 43.242026023,24.310966339 " /><polygon class="region" points="41.600991082,18.854267388 41.43204935,18.901856607 41.474879648,19.113628637 41.686651678,19.066039417 41.600991082,18.854267388 " /><polygon class="region" points="53.280481815,46.251744747 53.8941135,46.569992229 55.503908414,45.924534481 57.99961803,44.797439816 59.868947365,43.338291307 60.431600587,43.404485804 61.259031798,43.90094453 61.592323503,45.321575005 62.539844517,45.67242035 63.227230483,45.509601211 63.74533855,45.58166127 64.000877632,45.382030153 63.786598636,45.183649783 63.934810632,44.93891095 65.465660643,44.728197783 66.181068485,44.321540363 66.433402495,43.989978928 67.245391487,43.769322644 68.060699545,42.853886382 68.15429657,42.254002121 68.020403339,41.943482584 67.514411743,41.617234391 67.348925501,41.286261906 66.488397043,40.491927945 65.760257578,39.002551767 65.811126289,38.773642569 67.338402404,38.276392107 66.86660941,37.364246978 66.540285349,37.514362336 66.139120102,37.367763519 65.701536059,37.537193179 65.531538368,37.239360809 64.754922628,37.112503052 64.624678245,36.530564564 64.198638692,36.344229822 63.393571073,36.505243346 62.266476408,37.229804203 61.702929075,38.115378583 60.656341171,38.759432678 60.334314124,38.43740563 60.02960952,37.380502262 59.512214586,37.745805217 58.547634555,37.993092651 55.8490049,39.370875254 54.526424549,38.981964275 54.309909597,38.644341382 54.410804577,38.466202303 54.039958502,38.283672614 54.250999569,37.716188767 54.890413135,37.578185579 54.976768617,37.186024842 54.715204006,36.973497504 54.052374721,36.881166339 53.813808561,37.900957346 54.00331664,38.954231143 53.4737401,39.370296955 53.163870453,39.375422001 53.18096745,39.207859874 53.100232601,39.415771127 53.298068046,39.70221591 53.233736157,39.544946671 53.743324637,39.536847353 53.415362238,39.77090776 53.638171315,39.981132507 52.925424576,40.005231142 52.949702501,39.861328125 52.76132071,40.012460232 52.913519263,41.091378332 52.986987114,40.723973513 53.535129986,40.741702961 53.602168441,40.891330242 53.720580101,40.615965963 54.10264206,40.725137949 55.504976876,40.59204855 55.921382552,40.972762311 55.695187022,41.641795361 54.76719723,42.569785154 53.118230754,43.640542606 52.530650618,44.625234954 52.712711111,45.306022543 53.255453873,45.257205719 53.037733191,45.59270972 53.273299831,45.639109211 53.094840255,45.767600104 53.280481815,46.251744747 " /><polygon class="region" points="61.266581547,42.47892722 61.333206455,42.212427587 62.608597554,41.070286304 63.712667461,40.261269563 64.091261915,40.213555619 64.217113194,41.774606762 61.904277096,42.678801944 61.399831363,42.735909009 61.266581547,42.47892722 " /><polygon class="region" points="-0.61839035399993,30.770631841 0.78811848500004,31.092017374 1.33022128,31.031498951 8.4983475610001,24.30952161 10.064112218,23.109242163 11.70118139,22.46202877 12.291287719,21.909993816 12.778165496,19.507188513 12.40227191,17.275520696 11.093144187,17.514552625 9.515829632,17.425502372 8.572706114,16.969374378 8.3460402320001,16.135464888 5.107615627,19.163937185 4.625863753,20.496152393 4.879282474,21.932367256 4.631792761,23.197960239 2.1253185730001,25.179823551 0.85345573100005,27.690937366 0.29603918600003,27.994645858 -0.65119071999993,28.138789539 -1.150177207,28.504088583 -1.877569045,29.485682683 -2.6670139409999,29.5499993 -9.682756183,26.679077736 -9.8636858629999,26.991414222 -10.983489424,27.343334393 -7.800960329,28.414091845 -6.801507391,28.953198394 -4.7456530819999,29.714625916 -0.61839035399993,30.770631841 " /><polygon class="region" points="-2.1309288309999,30.245050539 -2.334035494,30.043751967 -2.133336028,29.841249791 -1.930229364,30.042548363 -2.1309288309999,30.245050539 " /><polygon class="region" points="-7.7967447779999,27.72713353 -7.526656815,27.929822133 -7.737443592,28.193751277 -7.994605517,27.9719725 -7.7967447779999,27.72713353 " /><polygon class="region" points="8.3106075040001,24.144915687 7.537082319,24.42970278 7.318257595,24.226706228 7.370407603,23.681374293 7.659309938,23.41401127 8.3471651150001,23.389562977 8.119827217,23.702029074 8.3106075040001,24.144915687 " /><polygon class="region" points="-0.63515095499997,30.245735938 -0.36496129299996,30.097808872 0.36621923900003,30.245635355 1.0882587740001,30.593319603 1.3357530370001,30.917269844 1.0110544660001,31.012676161 0.33672006900002,30.866371299 -0.63515095499997,30.245735938 " /><polygon class="region" points="34.877877677,25.112044096 35.141380491,24.512793663 35.793970606,23.907034159 35.474548055,23.930182619 35.669082641,22.940994262 36.628634459,22.241745014 36.239037905,21.832048622 34.16890683,22.274628369 32.955381717,22.731484882 32.241543415,23.945009996 32.355757544,25.272749237 33.05531908,26.443444051 33.989291143,26.636502777 34.877877677,25.112044096 " /><polygon class="region" points="12.478545196,17.253802404 15.787231883,16.834339966 19.399160462,16.712621511 18.168675774,15.754659534 18.137249228,14.950816349 13.039352267,14.765918532 13.693457992,15.437903033 13.791544168,15.995115681 13.483482496,16.556349562 12.478545196,17.253802404 " /><polygon class="region" points="56.322238589,37.538584118 56.650863509,37.777051443 58.001602513,37.508085725 59.399291574,36.75100591 59.950691554,36.718135774 60.180852951,36.471711775 60.012287076,36.022202776 58.643672125,35.941696014 57.677590984,35.378148681 57.510217123,35.085244424 56.163867633,35.947238578 55.712145414,35.923076094 55.455307544,35.709397702 54.457320509,35.78068249 54.036244442,36.269570327 54.557353604,36.675193607 55.033451572,36.621354632 56.322238589,37.538584118 " /><polygon class="region" points="46.856176175,24.17736374 46.490751156,24.134463123 46.379579339,24.420847866 46.69380168,25.38650677 46.871902327,25.698628046 47.891196196,26.482700253 48.0136062,26.761388073 47.740631034,28.151842723 47.80694225,29.193999848 48.064237731,28.80857396 48.672856246,26.7594584 48.566783466,26.406331193 47.519882714,25.414947907 46.856176175,24.17736374 " /><polygon class="region" points="38.36117805,29.905875093 37.471259633,29.268179544 35.605762205,29.106376196 34.968066655,29.344322297 35.15625,30.443200946 35.421265602,31.020069123 35.529619452,31.014703922 35.434441012,30.238999635 35.92460998,29.686964681 37.737759266,29.863044796 38.55153493,31.385899839 38.989355755,30.910007638 38.36117805,29.905875093 " /><polygon class="region" points="35.468071124,29.668307922 35.343149421,29.703999837 35.319354811,29.394669907 35.474019777,29.454156431 35.468071124,29.668307922 " /><polygon class="region" points="34.902574595,29.49112452 32.612439917,30.109874217 32.662408598,30.416824687 33.233479239,30.531038816 34.620570012,30.367597657 34.902574595,29.49112452 " /><polygon class="region" points="56.000711814,24.995979964 55.670868931,24.471381668 55.419724753,24.449555071 55.345385209,24.199640764 55.048014627,24.269681283 54.681050262,23.897492601 54.436224064,24.003933075 54.496893246,24.19562085 54.708860778,24.237188176 54.854804275,24.890507113 55.123369019,25.07165787 55.313106719,24.918618471 55.645773549,25.064050876 55.937257522,25.765991872 56.134852513,25.308593827 56.000711814,24.995979964 " /><polygon class="region" points="55.743926315,23.542385562 56.313589775,23.27369363 56.692855365,22.466223759 56.616712613,21.841615245 56.306853251,21.246220564 56.223572116,20.139771196 55.949934101,19.354549064 55.283685019,18.390867357 54.617435938,17.938769766 54.082057211,17.97446168 53.966807809,18.001579187 55.310652244,19.24556975 56.20057066,20.421023487 56.281472334,21.70593243 56.12918683,22.286520916 55.215473804,21.805869792 54.40169814,20.416264565 52.736075435,19.064730713 52.778905734,18.550767136 51.988131526,19.009527218 51.607417765,19.045219134 50.706099351,18.771901155 49.142793471,18.621995112 48.129143081,18.165138599 47.679424952,17.544099277 46.182246672,17.367699124 44.72704367,18.700623607 44.709197713,18.962364318 45.017105519,19.509688732 45.134650893,19.529105133 45.192148658,19.524105328 45.023331775,19.507824821 44.990019321,19.17470028 45.085197762,18.855852505 45.237483266,18.817781129 45.316934167,19.429289155 45.357368443,19.274026914 46.979366108,19.342651759 52.059515356,21.995750781 52.992862778,22.888695796 52.829086583,22.721471516 52.939136655,22.599524139 53.757076375,22.560857898 54.35789028,22.977263574 55.544646456,23.340131377 55.743926315,23.542385562 " /><polygon class="region" points="42.914334584,24.536221981 43.247459125,24.726578862 43.718592404,24.712302095 44.223038137,24.350624022 44.127859697,23.589196501 43.11896823,21.438163751 40.096850499,21.581793966 40.096850499,21.795945457 40.796412035,22.195694906 42.490790525,22.789697603 43.02378979,23.860455055 42.914334584,24.536221981 " /><polygon class="region" points="43.087361057,24.394247475 43.343153115,24.328812296 43.390742335,24.638142228 43.23607737,24.590553007 43.087361057,24.394247475 " /><polygon class="region" points="42.852776533,21.545894146 43.068463873,21.74451003 42.86984799,21.96019737 42.65416065,21.761581486 42.852776533,21.545894146 " /><polygon class="region" points="42.799446275,22.357428854 42.885106871,22.233696881 43.275338476,22.257491491 43.261061711,22.681035551 43.794060976,23.537641513 43.846409117,24.023051557 43.456177513,23.989739103 42.799446275,22.357428854 " /><polygon class="region" points="47.905016098,24.375053155 48.050163219,24.505923511 48.35949315,24.429780759 48.595059789,24.14900436 48.514158115,23.830156585 48.214346028,23.701665691 47.919292863,23.775428982 47.774145742,24.022892927 47.905016098,24.375053155 " /><polygon class="region" points="47.972394502,23.978317691 48.400697483,23.940246315 48.438768859,24.206745947 48.143715694,24.25909409 47.972394502,23.978317691 " /><polygon class="region" points="41.689031139,19.215945461 41.788968501,18.797160323 41.503433181,18.663910507 41.301178995,19.232601687 41.570058088,19.337297972 41.689031139,19.215945461 " /><polygon class="region" points="41.43204935,18.901856607 41.629544614,18.859026309 41.686651678,19.066039417 41.474879648,19.113628637 41.43204935,18.901856607 " /><polygon class="region" points="41.749269073,19.123271716 41.748517664,19.125525942 41.750897125,19.12076702 41.749269073,19.123271716 " /><polygon class="region" points="62.117334246,29.486382007 64.115981221,29.377269745 64.558328867,29.591041803 65.058635354,29.534704566 65.701169597,29.702402217 65.806220555,29.495604028 65.387298565,29.277749648 65.283401522,29.057871037 63.23255755,28.374060401 62.486043203,28.374060401 61.889714795,28.623024384 61.185394337,29.508183879 61.148217208,29.777718437 62.117334246,29.486382007 " /><polygon class="region" points="47.929268357,17.358501318 47.479550227,17.115796295 48.129143081,18.165138599 49.099963172,18.614856729 50.670407436,18.771901155 47.929268357,17.358501318 " /><polygon class="region" points="35.391237139,30.930290222 35.15625,30.443200946 34.902863325,29.492393643 34.620570012,30.367597657 35.32801605,31.062180316 35.391237139,30.930290222 " /><polygon class="region" points="-1.2072797,32.370672882 1.294952575,31.035436224 0.78811848500004,31.092017374 -2.7469058369999,30.323767933 -6.8249699319999,28.940542661 -6.6682575749999,29.904982796 -4.307832257,31.351695088 -3.831940056,31.865658665 -2.3281206999999,32.627086187 -1.2072797,32.370672882 " /><polygon class="region" points="-12.867846064,19.899141064 -13.530525954,19.887243759 -13.521008111,20.705778345 -12.753631936,20.793818402 -12.867846064,19.899141064 " /><polygon class="region" points="38.292945022,32.316368237 38.013358354,32.381803415 37.876539346,32.661390082 38.043101617,32.756568523 38.275099064,32.578108947 38.292945022,32.316368237 " /><polygon class="region" points="51.430544497,24.738674455 50.94275499,24.642306284 50.849956012,24.931410796 51.430544497,24.911185378 51.430544497,24.738674455 " />
		  </g>
		</svg>