<?xml version="1.0" encoding="UTF-8"?>
	<svg xmlns:xlink="http://www.w3.org/1999/xlink" 
	xmlns="http://www.w3.org/2000/svg" 
	width="360px" height="180px">
	   <style type="text/css">
		  <![CDATA[     
		  .region 
		  { 
			fill:blue; 
			opacity:0.4; 
			stroke:blue;
		  }
		  ]]>
	   </style>

	<circle id="dot" x="-2" y="-2" r="2" style="stroke:none; stroke-width:0; fill:black; opacity:0.7;"/>


	 <image x="0" y="0" width="360" height="180" xlink:href="map.jpg"/>

 
	 <g transform="translate(180,90) scale(1,-1)">   <use xlink:href="#dot" transform="translate(-97.946944,22.354722)" />   <use xlink:href="#dot" transform="translate(-97.947085722708,22.355489394283)" />   <use xlink:href="#dot" transform="translate(-97.947085722708,22.355489394283)" />   <use xlink:href="#dot" transform="translate(-97.937042,22.364277)" />   <use xlink:href="#dot" transform="translate(-97.937042,22.364277)" />   <use xlink:href="#dot" transform="translate(-97.937035,22.344832)" />   <use xlink:href="#dot" transform="translate(-97.937042,22.364277)" />   <use xlink:href="#dot" transform="translate(-97.937042,22.364277)" />   <use xlink:href="#dot" transform="translate(-97.937042,22.364277)" />   <use xlink:href="#dot" transform="translate(-97.937042,22.364277)" />   <use xlink:href="#dot" transform="translate(-97.937042,22.364277)" />   <use xlink:href="#dot" transform="translate(-97.937042,22.364277)" />   <use xlink:href="#dot" transform="translate(-97.937042,22.364277)" />   <use xlink:href="#dot" transform="translate(-97.937042,22.364277)" />   <use xlink:href="#dot" transform="translate(-97.937042,22.364277)" />   <use xlink:href="#dot" transform="translate(-97.868706,22.27372)" />   <use xlink:href="#dot" transform="translate(-97.868706,22.27372)" />   <use xlink:href="#dot" transform="translate(-97.909813,22.37011)" />   <use xlink:href="#dot" transform="translate(-97.909813,22.37011)" />   <use xlink:href="#dot" transform="translate(-97.909813,22.37011)" />   <use xlink:href="#dot" transform="translate(-97.909813,22.37011)" />   <use xlink:href="#dot" transform="translate(-97.909813,22.37011)" />   <use xlink:href="#dot" transform="translate(-97.909813,22.37011)" />   <use xlink:href="#dot" transform="translate(-97.909813,22.37011)" />   <use xlink:href="#dot" transform="translate(-97.909813,22.37011)" />   <use xlink:href="#dot" transform="translate(-97.909813,22.37011)" />   <use xlink:href="#dot" transform="translate(-97.909813,22.37011)" />   <use xlink:href="#dot" transform="translate(-97.909813,22.37011)" />   <use xlink:href="#dot" transform="translate(-97.909813,22.37011)" />   <use xlink:href="#dot" transform="translate(-97.909813,22.37011)" />   <use xlink:href="#dot" transform="translate(-97.909813,22.37011)" />   <use xlink:href="#dot" transform="translate(-97.909813,22.37011)" />   <use xlink:href="#dot" transform="translate(-97.909813,22.37011)" />   <use xlink:href="#dot" transform="translate(-97.909813,22.37011)" />   <use xlink:href="#dot" transform="translate(-97.909813,22.37011)" />   <use xlink:href="#dot" transform="translate(-97.909813,22.37011)" />   <use xlink:href="#dot" transform="translate(-97.909813,22.37011)" />   <use xlink:href="#dot" transform="translate(-97.909813,22.37011)" />   <use xlink:href="#dot" transform="translate(-97.909813,22.37011)" />   <use xlink:href="#dot" transform="translate(-97.909813,22.37011)" />   <use xlink:href="#dot" transform="translate(-97.909813,22.37011)" />   <use xlink:href="#dot" transform="translate(-97.909813,22.37011)" />   <use xlink:href="#dot" transform="translate(-97.909813,22.37011)" />   <use xlink:href="#dot" transform="translate(-97.909813,22.37011)" />   <use xlink:href="#dot" transform="translate(-97.909813,22.37011)" />   <use xlink:href="#dot" transform="translate(-97.909813,22.37011)" />   <use xlink:href="#dot" transform="translate(-97.909813,22.37011)" />   <use xlink:href="#dot" transform="translate(-97.937042,22.360943)" />   <use xlink:href="#dot" transform="translate(-97.937042,22.360943)" />   <use xlink:href="#dot" transform="translate(-97.937042,22.360943)" />   <use xlink:href="#dot" transform="translate(-97.937042,22.360943)" />   <use xlink:href="#dot" transform="translate(-97.937042,22.360943)" />   <use xlink:href="#dot" transform="translate(-97.937042,22.360943)" />   <use xlink:href="#dot" transform="translate(-97.909813,22.37011)" />   <use xlink:href="#dot" transform="translate(-97.909813,22.37011)" />   <use xlink:href="#dot" transform="translate(-97.909813,22.37011)" />   <use xlink:href="#dot" transform="translate(-97.909813,22.37011)" />   <use xlink:href="#dot" transform="translate(-97.909813,22.37011)" />   <use xlink:href="#dot" transform="translate(-97.909813,22.37011)" />   <use xlink:href="#dot" transform="translate(-97.909813,22.37011)" />   <use xlink:href="#dot" transform="translate(-97.909813,22.37011)" />   <use xlink:href="#dot" transform="translate(-97.909813,22.37011)" />   <use xlink:href="#dot" transform="translate(-97.909813,22.37011)" />   <use xlink:href="#dot" transform="translate(-97.909813,22.37011)" />   <use xlink:href="#dot" transform="translate(-97.909813,22.37011)" />   <use xlink:href="#dot" transform="translate(-97.937042,22.359554)" />   <use xlink:href="#dot" transform="translate(-97.909813,22.37011)" />   <use xlink:href="#dot" transform="translate(-97.909813,22.37011)" />   <use xlink:href="#dot" transform="translate(-97.909813,22.37011)" />   <use xlink:href="#dot" transform="translate(-97.909813,22.37011)" />   <use xlink:href="#dot" transform="translate(-97.937042,22.359554)" />   <use xlink:href="#dot" transform="translate(-97.937042,22.359554)" />   <use xlink:href="#dot" transform="translate(-97.868706,22.270109)" />   <use xlink:href="#dot" transform="translate(-97.937042,22.359554)" />   <use xlink:href="#dot" transform="translate(-97.868706,22.270109)" />   <use xlink:href="#dot" transform="translate(-97.937042,22.359554)" />   <use xlink:href="#dot" transform="translate(-97.937042,22.359554)" />   <use xlink:href="#dot" transform="translate(-97.937029575979,22.381599289556)" />   <use xlink:href="#dot" transform="translate(-97.937029575979,22.381599289556)" />   <use xlink:href="#dot" transform="translate(-97.937029575979,22.381599289556)" />   <use xlink:href="#dot" transform="translate(-97.937029575979,22.381599289556)" />   <use xlink:href="#dot" transform="translate(-97.937029575979,22.381599289556)" />   <use xlink:href="#dot" transform="translate(-97.937029575979,22.381599289556)" />   <use xlink:href="#dot" transform="translate(-97.937029575979,22.381599289556)" />   <use xlink:href="#dot" transform="translate(-97.937029575979,22.381599289556)" />   <use xlink:href="#dot" transform="translate(-97.937029575979,22.381599289556)" />   <use xlink:href="#dot" transform="translate(-97.937029575979,22.381599289556)" />   <use xlink:href="#dot" transform="translate(-97.937029575979,22.381599289556)" />   <use xlink:href="#dot" transform="translate(-97.937029575979,22.381599289556)" />   <use xlink:href="#dot" transform="translate(-97.937029575979,22.381599289556)" />   <use xlink:href="#dot" transform="translate(-97.937029575979,22.381599289556)" />   <use xlink:href="#dot" transform="translate(-97.937029575979,22.381599289556)" />   <use xlink:href="#dot" transform="translate(-97.937029575979,22.381599289556)" />   <use xlink:href="#dot" transform="translate(-97.937029575979,22.381599289556)" />   <use xlink:href="#dot" transform="translate(-97.937029575979,22.381599289556)" />   <use xlink:href="#dot" transform="translate(-97.976475441763,22.359100144682)" />   <use xlink:href="#dot" transform="translate(-97.86861,22.25528)" />   <use xlink:href="#dot" transform="translate(-97.866944,22.25)" />   <use xlink:href="#dot" transform="translate(-97.933333,22.333333)" />   <use xlink:href="#dot" transform="translate(-97.866944,22.25)" />   <use xlink:href="#dot" transform="translate(-97.933333,22.333333)" />   <use xlink:href="#dot" transform="translate(-97.933333,22.333333)" />   <use xlink:href="#dot" transform="translate(-97.933333,22.333333)" />   <use xlink:href="#dot" transform="translate(-97.933333,22.333333)" />   <use xlink:href="#dot" transform="translate(-97.866944,22.25)" />   <use xlink:href="#dot" transform="translate(-97.933333,22.333333)" /><polygon class="region" points="-97.866944,22.25 -97.976475441763,22.359100144682 -97.937029575979,22.381599289556 -97.909813,22.37011 -97.868706,22.27372 -97.866944,22.25 " />
		  </g>
		</svg>