<?xml version="1.0" encoding="UTF-8"?>
	<svg xmlns:xlink="http://www.w3.org/1999/xlink" 
	xmlns="http://www.w3.org/2000/svg" 
	width="360px" height="180px">
	   <style type="text/css">
		  <![CDATA[     
		  .region 
		  { 
			fill:blue; 
			opacity:0.4; 
			stroke:blue;
		  }
		  ]]>
	   </style>

	<circle id="dot" x="-2" y="-2" r="2" style="stroke:none; stroke-width:0; fill:black; opacity:0.7;"/>


	 <image x="0" y="0" width="360" height="180" xlink:href="map.jpg"/>

 
	 <g transform="translate(180,90) scale(1,-1)">   <use xlink:href="#dot" transform="translate(30.15,-1.9833)" />   <use xlink:href="#dot" transform="translate(29.7333,-2.6)" />   <use xlink:href="#dot" transform="translate(29.7333,-2.6)" />   <use xlink:href="#dot" transform="translate(29.7333,-2.6)" />   <use xlink:href="#dot" transform="translate(29.7333,-2.6)" />   <use xlink:href="#dot" transform="translate(29.7333,-2.6)" />   <use xlink:href="#dot" transform="translate(29.7333,-2.6)" />   <use xlink:href="#dot" transform="translate(29.7333,-2.6)" />   <use xlink:href="#dot" transform="translate(29.7333,-2.6)" />   <use xlink:href="#dot" transform="translate(27.05,-11.0667)" />   <use xlink:href="#dot" transform="translate(29.7667,-2.5)" />   <use xlink:href="#dot" transform="translate(30.4333,-1.5167)" />   <use xlink:href="#dot" transform="translate(30.4333,-1.5167)" />   <use xlink:href="#dot" transform="translate(30.4333,-1.5167)" />   <use xlink:href="#dot" transform="translate(25.4725,-10.71667)" />   <use xlink:href="#dot" transform="translate(25.5167,-10.6833)" />   <use xlink:href="#dot" transform="translate(29.7167,-2.5667)" />   <use xlink:href="#dot" transform="translate(29.7333,-2.6)" />   <use xlink:href="#dot" transform="translate(29.7333,-2.6)" />   <use xlink:href="#dot" transform="translate(29.7333,-2.6)" />   <use xlink:href="#dot" transform="translate(29.7333,-2.6)" />   <use xlink:href="#dot" transform="translate(29.7333,-2.6)" />   <use xlink:href="#dot" transform="translate(29.7333,-2.6)" />   <use xlink:href="#dot" transform="translate(29.55,-2.5167)" />   <use xlink:href="#dot" transform="translate(28.8667,-2.5)" />   <use xlink:href="#dot" transform="translate(29.7167,-2.5667)" />   <use xlink:href="#dot" transform="translate(29.7167,-2.5667)" />   <use xlink:href="#dot" transform="translate(29.7167,-2.5667)" />   <use xlink:href="#dot" transform="translate(29.7167,-2.5667)" />   <use xlink:href="#dot" transform="translate(23.6333,-10.45)" />   <use xlink:href="#dot" transform="translate(26.5167,-8.65)" />   <use xlink:href="#dot" transform="translate(30.4333,-1.5167)" />   <use xlink:href="#dot" transform="translate(27.2,-9.0833)" />   <use xlink:href="#dot" transform="translate(27.2,-9.0833)" />   <use xlink:href="#dot" transform="translate(27.2,-9.0833)" />   <use xlink:href="#dot" transform="translate(27.2,-9.0833)" />   <use xlink:href="#dot" transform="translate(27.2,-9.0833)" />   <use xlink:href="#dot" transform="translate(26.5167,-8.65)" />   <use xlink:href="#dot" transform="translate(29.1667,-5.95)" />   <use xlink:href="#dot" transform="translate(27.5,-11.6833)" />   <use xlink:href="#dot" transform="translate(27.5,-11.6833)" />   <use xlink:href="#dot" transform="translate(27.5,-11.6833)" />   <use xlink:href="#dot" transform="translate(27.5,-11.6833)" />   <use xlink:href="#dot" transform="translate(22.4667,-10.4667)" />   <use xlink:href="#dot" transform="translate(22.4833,-10.4833)" />   <use xlink:href="#dot" transform="translate(32.666672,-2.51667)" />   <use xlink:href="#dot" transform="translate(29.1667,-5.95)" />   <use xlink:href="#dot" transform="translate(30.45,-25.1)" />   <use xlink:href="#dot" transform="translate(29.1667,-5.95)" />   <use xlink:href="#dot" transform="translate(30.45,-25.1)" />   <use xlink:href="#dot" transform="translate(29.1667,-5.95)" />   <use xlink:href="#dot" transform="translate(29.7167,-2.5667)" />   <use xlink:href="#dot" transform="translate(29.1667,-5.95)" />   <use xlink:href="#dot" transform="translate(29.1667,-5.95)" />   <use xlink:href="#dot" transform="translate(29.1667,-5.95)" />   <use xlink:href="#dot" transform="translate(25.8667,-9.5833)" />   <use xlink:href="#dot" transform="translate(23.6333,-10.45)" />   <use xlink:href="#dot" transform="translate(29.1667,-5.95)" />   <use xlink:href="#dot" transform="translate(25.7667,-9.3667)" />   <use xlink:href="#dot" transform="translate(29.1667,-5.95)" />   <use xlink:href="#dot" transform="translate(29.1667,-5.95)" />   <use xlink:href="#dot" transform="translate(27.9,-10.5333)" />   <use xlink:href="#dot" transform="translate(29.7167,-2.5667)" />   <use xlink:href="#dot" transform="translate(29.1667,-5.95)" />   <use xlink:href="#dot" transform="translate(29.7333,-2.6)" />   <use xlink:href="#dot" transform="translate(29.7167,-2.5667)" /><polygon class="region" points="30.45,-25.1 22.4667,-10.4667 28.8667,-2.5 30.4333,-1.5167 32.666672,-2.51667 30.45,-25.1 " />
		  </g>
		</svg>