<?xml version="1.0" encoding="UTF-8"?>
	<svg xmlns:xlink="http://www.w3.org/1999/xlink" 
	xmlns="http://www.w3.org/2000/svg" 
	width="360px" height="180px">
	   <style type="text/css">
		  <![CDATA[     
		  .region 
		  { 
			fill:blue; 
			opacity:0.4; 
			stroke:blue;
		  }
		  ]]>
	   </style>

	<circle id="dot" x="-2" y="-2" r="2" style="stroke:none; stroke-width:0; fill:black; opacity:0.7;"/>


	 <image x="0" y="0" width="360" height="180" xlink:href="map.jpg"/>

 
	 <g transform="translate(180,90) scale(1,-1)"><polygon class="region" points="32.1521,-7.4353644079999 32.487143509,-7.6505482589999 34.493362733,-7.30013588 35.045421012,-7.583674435 35.092344485,-7.912631136 34.7761,-8.896764408 34.481431287,-9.0552980689999 33.684430004,-8.7041094109999 33.3486161,-8.849057455 33.319511495,-9.038618044 34.2608,-10.444864408 34.10586856,-10.557098821 34.3195,-11.633664407 34.155607491,-11.503970336 34.016212299,-12.171993623 34.3397,-13.461564407 34.5306,-13.580964407 34.538616806,-13.972285048 35.1,-14.849664408 34.578071264,-15.063875148 34.2295,-15.855364407 34.754107783,-16.538076541 34.4044,-16.603764408 32.973806206,-15.619987402 31.877,-15.374264407 30.5585,-14.634664407 30.466369501,-14.182895728 30.6573,-13.813064408 32.450351748,-12.790728201 32.7388,-12.172564408 32.747591089,-10.21798518 31.907397839,-9.5207644659999 30.633312665,-9.5556833269999 29.82664907,-10.546590117 30.493305099,-13.252944238 29.997977959,-13.97691203 28.897366325,-14.716779501 25.2062,-14.971864407 21.6765,-13.890564407 21.139919,-13.610514289 20.80939312,-13.113792673 20.5958,-12.408164408 20.870563028,-11.253649542 21.409274971,-10.815946088 23.0521,-10.313564408 25.10047808,-10.111536224 28.119,-8.8917644069999 28.760388591,-7.832521944 28.6941973,-5.263752387 28.276390663,-3.3071602639999 29.334153966,-0.83745820199994 30.356168662,-0.037123562999966 31.5404,-0.011364406999974 32.022527966,-0.24818055399993 31.935146338,-2.223121771 32.171923624,-2.474697638 33.678003009,-2.347063792 34.928814701,-1.708894562 35.694617779,-1.5812607149999 36.205153163,-1.6323142539999 36.358313779,-1.862055176 35.771198086,-2.8065456379999 34.367225778,-3.4957684079999 32.095343317,-3.8020896379999 30.8215,-4.2415644069999 30.6657,-5.258464407 31.0105,-6.7021644069999 32.1521,-7.4353644079999 " />
		  </g>
		</svg>