<?xml version="1.0" encoding="UTF-8"?>
	<svg xmlns:xlink="http://www.w3.org/1999/xlink" 
	xmlns="http://www.w3.org/2000/svg" 
	width="360px" height="180px">
	   <style type="text/css">
		  <![CDATA[     
		  .region 
		  { 
			fill:blue; 
			opacity:0.4; 
			stroke:blue;
		  }
		  ]]>
	   </style>

	<circle id="dot" x="-2" y="-2" r="2" style="stroke:none; stroke-width:0; fill:black; opacity:0.7;"/>


	 <image x="0" y="0" width="360" height="180" xlink:href="map.jpg"/>

 
	 <g transform="translate(180,90) scale(1,-1)">   <use xlink:href="#dot" transform="translate(-96.366944,17.215833)" />   <use xlink:href="#dot" transform="translate(-96.511424669865,17.586269339267)" />   <use xlink:href="#dot" transform="translate(-96.511424669865,17.586269339267)" />   <use xlink:href="#dot" transform="translate(-96.511424669865,17.586269339267)" />   <use xlink:href="#dot" transform="translate(-96.511424669865,17.586269339267)" />   <use xlink:href="#dot" transform="translate(-96.511424669865,17.586269339267)" />   <use xlink:href="#dot" transform="translate(-96.511424669865,17.586269339267)" />   <use xlink:href="#dot" transform="translate(-96.511424669865,17.586269339267)" />   <use xlink:href="#dot" transform="translate(-96.511424669865,17.586269339267)" />   <use xlink:href="#dot" transform="translate(-96.511424669865,17.586269339267)" />   <use xlink:href="#dot" transform="translate(-96.511424669865,17.586269339267)" />   <use xlink:href="#dot" transform="translate(-96.511424669865,17.586269339267)" />   <use xlink:href="#dot" transform="translate(-96.511424669865,17.586269339267)" />   <use xlink:href="#dot" transform="translate(-96.511424669865,17.586269339267)" />   <use xlink:href="#dot" transform="translate(-96.511424669865,17.586269339267)" />   <use xlink:href="#dot" transform="translate(-96.511424669865,17.586269339267)" />   <use xlink:href="#dot" transform="translate(-96.511424669865,17.586269339267)" />   <use xlink:href="#dot" transform="translate(-96.511424669865,17.586269339267)" />   <use xlink:href="#dot" transform="translate(-96.511424669865,17.586269339267)" />   <use xlink:href="#dot" transform="translate(-96.511424669865,17.586269339267)" />   <use xlink:href="#dot" transform="translate(-96.511424669865,17.586269339267)" />   <use xlink:href="#dot" transform="translate(-96.511424669865,17.586269339267)" />   <use xlink:href="#dot" transform="translate(-96.511424669865,17.586269339267)" />   <use xlink:href="#dot" transform="translate(-96.511424669865,17.586269339267)" />   <use xlink:href="#dot" transform="translate(-96.511424669865,17.586269339267)" />   <use xlink:href="#dot" transform="translate(-96.505,17.427222)" />   <use xlink:href="#dot" transform="translate(-96.505,17.427222)" />   <use xlink:href="#dot" transform="translate(-96.505,17.427222)" />   <use xlink:href="#dot" transform="translate(-96.505,17.427222)" />   <use xlink:href="#dot" transform="translate(-96.505,17.427222)" />   <use xlink:href="#dot" transform="translate(-96.5,17.443611)" />   <use xlink:href="#dot" transform="translate(-96.343056,17.717222)" />   <use xlink:href="#dot" transform="translate(-96.343056,17.717222)" />   <use xlink:href="#dot" transform="translate(-96.498889,17.648611)" />   <use xlink:href="#dot" transform="translate(-96.498889,17.648611)" />   <use xlink:href="#dot" transform="translate(-96.498889,17.648611)" />   <use xlink:href="#dot" transform="translate(-96.343056,17.717222)" />   <use xlink:href="#dot" transform="translate(-96.498889,17.648611)" />   <use xlink:href="#dot" transform="translate(-96.343056,17.717222)" />   <use xlink:href="#dot" transform="translate(-96.49059116661,17.58265757244)" />   <use xlink:href="#dot" transform="translate(-96.49059116661,17.58265757244)" />   <use xlink:href="#dot" transform="translate(-96.49059116661,17.58265757244)" />   <use xlink:href="#dot" transform="translate(-96.49059116661,17.58265757244)" />   <use xlink:href="#dot" transform="translate(-96.49059116661,17.58265757244)" />   <use xlink:href="#dot" transform="translate(-96.49059116661,17.58265757244)" />   <use xlink:href="#dot" transform="translate(-96.49059116661,17.58265757244)" />   <use xlink:href="#dot" transform="translate(-96.49059116661,17.58265757244)" />   <use xlink:href="#dot" transform="translate(-96.49059116661,17.58265757244)" />   <use xlink:href="#dot" transform="translate(-96.49059116661,17.58265757244)" />   <use xlink:href="#dot" transform="translate(-96.49059116661,17.58265757244)" />   <use xlink:href="#dot" transform="translate(-96.49059116661,17.58265757244)" />   <use xlink:href="#dot" transform="translate(-96.49059116661,17.58265757244)" />   <use xlink:href="#dot" transform="translate(-96.49059116661,17.58265757244)" />   <use xlink:href="#dot" transform="translate(-96.49059116661,17.58265757244)" />   <use xlink:href="#dot" transform="translate(-96.49059116661,17.58265757244)" />   <use xlink:href="#dot" transform="translate(-96.49059116661,17.58265757244)" />   <use xlink:href="#dot" transform="translate(-96.49059116661,17.58265757244)" />   <use xlink:href="#dot" transform="translate(-96.341700949808,17.352555134232)" />   <use xlink:href="#dot" transform="translate(-96.341700949808,17.352555134232)" />   <use xlink:href="#dot" transform="translate(-96.341701015479,17.37424408191)" />   <use xlink:href="#dot" transform="translate(-96.341701015479,17.37424408191)" />   <use xlink:href="#dot" transform="translate(-96.341701015479,17.37424408191)" />   <use xlink:href="#dot" transform="translate(-96.341701015479,17.37424408191)" />   <use xlink:href="#dot" transform="translate(-96.341700933403,17.347135397253)" />   <use xlink:href="#dot" transform="translate(-96.341701015479,17.37424408191)" />   <use xlink:href="#dot" transform="translate(-96.341700933403,17.347135397253)" />   <use xlink:href="#dot" transform="translate(-96.341701015479,17.37424408191)" />   <use xlink:href="#dot" transform="translate(-96.341701015479,17.37424408191)" />   <use xlink:href="#dot" transform="translate(-96.341701015479,17.37424408191)" />   <use xlink:href="#dot" transform="translate(-96.341701015479,17.37424408191)" />   <use xlink:href="#dot" transform="translate(-96.341701015479,17.37424408191)" />   <use xlink:href="#dot" transform="translate(-96.503646061357,17.447109095821)" />   <use xlink:href="#dot" transform="translate(-96.341700933403,17.347135397253)" />   <use xlink:href="#dot" transform="translate(-96.341700933403,17.347135397253)" />   <use xlink:href="#dot" transform="translate(-96.341700933403,17.347135397253)" />   <use xlink:href="#dot" transform="translate(-96.341700933403,17.347135397253)" />   <use xlink:href="#dot" transform="translate(-96.341700933403,17.347135397253)" />   <use xlink:href="#dot" transform="translate(-96.341700933403,17.347135397253)" />   <use xlink:href="#dot" transform="translate(-96.341700933403,17.347135397253)" />   <use xlink:href="#dot" transform="translate(-96.341700933403,17.347135397253)" />   <use xlink:href="#dot" transform="translate(-96.341700933403,17.347135397253)" />   <use xlink:href="#dot" transform="translate(-96.341700933403,17.347135397253)" />   <use xlink:href="#dot" transform="translate(-96.341700933403,17.347135397253)" />   <use xlink:href="#dot" transform="translate(-96.341700933403,17.347135397253)" />   <use xlink:href="#dot" transform="translate(-96.341700933403,17.347135397253)" />   <use xlink:href="#dot" transform="translate(-96.341700933403,17.347135397253)" />   <use xlink:href="#dot" transform="translate(-96.341700933403,17.347135397253)" />   <use xlink:href="#dot" transform="translate(-96.341700933403,17.347135397253)" />   <use xlink:href="#dot" transform="translate(-96.341700933403,17.347135397253)" />   <use xlink:href="#dot" transform="translate(-96.341700933403,17.347135397253)" />   <use xlink:href="#dot" transform="translate(-96.341700933403,17.347135397253)" />   <use xlink:href="#dot" transform="translate(-96.341700933403,17.347135397253)" />   <use xlink:href="#dot" transform="translate(-96.341700933403,17.347135397253)" />   <use xlink:href="#dot" transform="translate(-96.341700933403,17.347135397253)" />   <use xlink:href="#dot" transform="translate(-96.341700933403,17.347135397253)" />   <use xlink:href="#dot" transform="translate(-96.341701015479,17.37424408191)" />   <use xlink:href="#dot" transform="translate(-96.341701015479,17.37424408191)" />   <use xlink:href="#dot" transform="translate(-96.341701015479,17.37424408191)" />   <use xlink:href="#dot" transform="translate(-96.341701015479,17.37424408191)" />   <use xlink:href="#dot" transform="translate(-96.341701015479,17.37424408191)" />   <use xlink:href="#dot" transform="translate(-96.341701015479,17.37424408191)" />   <use xlink:href="#dot" transform="translate(-96.341701015479,17.37424408191)" />   <use xlink:href="#dot" transform="translate(-96.341701015479,17.37424408191)" />   <use xlink:href="#dot" transform="translate(-96.341701015479,17.37424408191)" />   <use xlink:href="#dot" transform="translate(-96.471423616209,17.550715170772)" />   <use xlink:href="#dot" transform="translate(-96.503646061357,17.447109095821)" />   <use xlink:href="#dot" transform="translate(-96.471423616209,17.550715170772)" />   <use xlink:href="#dot" transform="translate(-96.471423616209,17.550715170772)" />   <use xlink:href="#dot" transform="translate(-96.471423616209,17.550715170772)" />   <use xlink:href="#dot" transform="translate(-96.503646061357,17.447109095821)" />   <use xlink:href="#dot" transform="translate(-96.503646061357,17.447109095821)" />   <use xlink:href="#dot" transform="translate(-96.503646061357,17.447109095821)" />   <use xlink:href="#dot" transform="translate(-96.503646061357,17.447109095821)" />   <use xlink:href="#dot" transform="translate(-96.503646061357,17.447109095821)" />   <use xlink:href="#dot" transform="translate(-96.503646061357,17.447109095821)" />   <use xlink:href="#dot" transform="translate(-96.503646061357,17.447109095821)" />   <use xlink:href="#dot" transform="translate(-96.503646061357,17.447109095821)" />   <use xlink:href="#dot" transform="translate(-96.503646061357,17.447109095821)" />   <use xlink:href="#dot" transform="translate(-96.503646061357,17.447109095821)" />   <use xlink:href="#dot" transform="translate(-96.503646061357,17.447109095821)" />   <use xlink:href="#dot" transform="translate(-96.503646061357,17.447109095821)" />   <use xlink:href="#dot" transform="translate(-96.411342955407,17.471449175589)" />   <use xlink:href="#dot" transform="translate(-96.411342955407,17.471449175589)" />   <use xlink:href="#dot" transform="translate(-96.503646061357,17.447109095821)" />   <use xlink:href="#dot" transform="translate(-95.983056,17.419444)" /><polygon class="region" points="-96.505,17.427222 -96.511424669865,17.586269339267 -96.498889,17.648611 -96.343056,17.717222 -95.983056,17.419444 -96.366944,17.215833 -96.505,17.427222 " />
		  </g>
		</svg>