<?xml version="1.0" encoding="UTF-8"?>
	<svg xmlns:xlink="http://www.w3.org/1999/xlink" 
	xmlns="http://www.w3.org/2000/svg" 
	width="360px" height="180px">
	   <style type="text/css">
		  <![CDATA[     
		  .region 
		  { 
			fill:blue; 
			opacity:0.4; 
			stroke:blue;
		  }
		  ]]>
	   </style>

	<circle id="dot" x="-2" y="-2" r="2" style="stroke:none; stroke-width:0; fill:black; opacity:0.7;"/>


	 <image x="0" y="0" width="360" height="180" xlink:href="map.jpg"/>

 
	 <g transform="translate(180,90) scale(1,-1)">   <use xlink:href="#dot" transform="translate(4.287415,6.869166)" />   <use xlink:href="#dot" transform="translate(8.857727,5.067006)" />   <use xlink:href="#dot" transform="translate(34.87875,0.33163)" />   <use xlink:href="#dot" transform="translate(34.86135,0.3561)" />   <use xlink:href="#dot" transform="translate(34.86135,0.3561)" />   <use xlink:href="#dot" transform="translate(34.86474,0.3523)" />   <use xlink:href="#dot" transform="translate(34.86135,0.3561)" />   <use xlink:href="#dot" transform="translate(34.86135,0.3561)" />   <use xlink:href="#dot" transform="translate(34.86131,0.35563)" />   <use xlink:href="#dot" transform="translate(34.8566,0.34375)" />   <use xlink:href="#dot" transform="translate(34.87875,0.33163)" />   <use xlink:href="#dot" transform="translate(34.87875,0.33163)" />   <use xlink:href="#dot" transform="translate(34.87875,0.33163)" />   <use xlink:href="#dot" transform="translate(34.86474,0.3523)" />   <use xlink:href="#dot" transform="translate(34.86474,0.3523)" />   <use xlink:href="#dot" transform="translate(34.86469,0.3523)" />   <use xlink:href="#dot" transform="translate(15.738722,1.568139)" />   <use xlink:href="#dot" transform="translate(11.524806,-0.44116)" />   <use xlink:href="#dot" transform="translate(-9.736,8.032)" />   <use xlink:href="#dot" transform="translate(-7.732,5.403)" />   <use xlink:href="#dot" transform="translate(-7.771,5.37)" />   <use xlink:href="#dot" transform="translate(-2.617,5.533)" />   <use xlink:href="#dot" transform="translate(-8.573,8.139)" />   <use xlink:href="#dot" transform="translate(-7.358293,5.881418)" />   <use xlink:href="#dot" transform="translate(31.466669,1.73333)" />   <use xlink:href="#dot" transform="translate(31.533331,1.68333)" />   <use xlink:href="#dot" transform="translate(31.58333,1.75)" />   <use xlink:href="#dot" transform="translate(-7.333333,5.833333)" />   <use xlink:href="#dot" transform="translate(-7.216667,6.933333)" />   <use xlink:href="#dot" transform="translate(14.866667,-5.25)" />   <use xlink:href="#dot" transform="translate(7.25,7.58333)" />   <use xlink:href="#dot" transform="translate(10.5,9.75)" />   <use xlink:href="#dot" transform="translate(10.5,9.75)" />   <use xlink:href="#dot" transform="translate(10.5,9.75)" />   <use xlink:href="#dot" transform="translate(21.78519,2.57511)" />   <use xlink:href="#dot" transform="translate(21.74207,2.61542)" />   <use xlink:href="#dot" transform="translate(21.74207,2.61542)" />   <use xlink:href="#dot" transform="translate(21.78519,2.57511)" />   <use xlink:href="#dot" transform="translate(8.416667,9.6)" />   <use xlink:href="#dot" transform="translate(8.416667,9.6)" />   <use xlink:href="#dot" transform="translate(29.05,1.35)" />   <use xlink:href="#dot" transform="translate(29.05,1.35)" />   <use xlink:href="#dot" transform="translate(9.83333,3.5)" />   <use xlink:href="#dot" transform="translate(9.83333,3.5)" />   <use xlink:href="#dot" transform="translate(9.83333,3.5)" />   <use xlink:href="#dot" transform="translate(9.83333,3.5)" />   <use xlink:href="#dot" transform="translate(9.83333,3.5)" />   <use xlink:href="#dot" transform="translate(11.533333,4.166667)" />   <use xlink:href="#dot" transform="translate(9.91667,3.03139)" />   <use xlink:href="#dot" transform="translate(34.2,0.7)" />   <use xlink:href="#dot" transform="translate(34.2,0.7)" />   <use xlink:href="#dot" transform="translate(29.66667,-1)" />   <use xlink:href="#dot" transform="translate(29.66667,-1)" />   <use xlink:href="#dot" transform="translate(29.66667,-1)" />   <use xlink:href="#dot" transform="translate(29.66667,-1)" />   <use xlink:href="#dot" transform="translate(29.66667,-1)" />   <use xlink:href="#dot" transform="translate(29.66667,-1)" />   <use xlink:href="#dot" transform="translate(29.66667,-1)" />   <use xlink:href="#dot" transform="translate(29.66667,-1)" />   <use xlink:href="#dot" transform="translate(-2.316667,6.466667)" />   <use xlink:href="#dot" transform="translate(-2.316667,6.466667)" />   <use xlink:href="#dot" transform="translate(-2.316667,6.466667)" />   <use xlink:href="#dot" transform="translate(-2.47,5.38)" />   <use xlink:href="#dot" transform="translate(-2.47,5.38)" />   <use xlink:href="#dot" transform="translate(-4.08,5.7)" />   <use xlink:href="#dot" transform="translate(-4.08,5.7)" />   <use xlink:href="#dot" transform="translate(-4.08,5.7)" />   <use xlink:href="#dot" transform="translate(-1.3,6.716667)" />   <use xlink:href="#dot" transform="translate(-4.08,5.7)" />   <use xlink:href="#dot" transform="translate(-4.08,5.7)" />   <use xlink:href="#dot" transform="translate(-4.08,5.7)" />   <use xlink:href="#dot" transform="translate(9.25,4)" />   <use xlink:href="#dot" transform="translate(9.25,4)" />   <use xlink:href="#dot" transform="translate(4.52,8.32)" />   <use xlink:href="#dot" transform="translate(-0.43,6.05)" />   <use xlink:href="#dot" transform="translate(0.22,6.52)" />   <use xlink:href="#dot" transform="translate(0.22,6.52)" />   <use xlink:href="#dot" transform="translate(-0.25,6.02)" />   <use xlink:href="#dot" transform="translate(10.833333,3.283333)" />   <use xlink:href="#dot" transform="translate(31.58333,1.75)" />   <use xlink:href="#dot" transform="translate(31.58333,1.75)" />   <use xlink:href="#dot" transform="translate(31.58333,1.75)" />   <use xlink:href="#dot" transform="translate(31.58333,1.75)" />   <use xlink:href="#dot" transform="translate(31.58333,1.75)" />   <use xlink:href="#dot" transform="translate(35.433333,1.483333)" />   <use xlink:href="#dot" transform="translate(9.25,4)" />   <use xlink:href="#dot" transform="translate(9.25,4)" />   <use xlink:href="#dot" transform="translate(35.75,1.65)" />   <use xlink:href="#dot" transform="translate(11.96667,2.98333)" />   <use xlink:href="#dot" transform="translate(13.2833,7.0833)" />   <use xlink:href="#dot" transform="translate(-4.13346,5.34087)" />   <use xlink:href="#dot" transform="translate(-4.13346,5.34087)" />   <use xlink:href="#dot" transform="translate(-4.13346,5.34087)" />   <use xlink:href="#dot" transform="translate(-4.13346,5.34087)" />   <use xlink:href="#dot" transform="translate(-4.05313,5.38554)" />   <use xlink:href="#dot" transform="translate(29.75,4.5)" />   <use xlink:href="#dot" transform="translate(29.75,4.5)" />   <use xlink:href="#dot" transform="translate(29.5,4.583333)" />   <use xlink:href="#dot" transform="translate(29.5,4.583333)" />   <use xlink:href="#dot" transform="translate(29.5,4.583333)" />   <use xlink:href="#dot" transform="translate(29.5,4.583333)" />   <use xlink:href="#dot" transform="translate(29.5,4.583333)" />   <use xlink:href="#dot" transform="translate(29.5,4.583333)" />   <use xlink:href="#dot" transform="translate(29.75,4.583333)" />   <use xlink:href="#dot" transform="translate(29.833333,4.5)" />   <use xlink:href="#dot" transform="translate(29.666667,4.5)" />   <use xlink:href="#dot" transform="translate(29.833333,4.5)" />   <use xlink:href="#dot" transform="translate(29.666667,4.5)" />   <use xlink:href="#dot" transform="translate(29.75,4.583333)" />   <use xlink:href="#dot" transform="translate(-0.983333,5.916667)" />   <use xlink:href="#dot" transform="translate(-0.98333,5.91667)" />   <use xlink:href="#dot" transform="translate(-0.98333,5.91667)" />   <use xlink:href="#dot" transform="translate(-5.3,6.85)" />   <use xlink:href="#dot" transform="translate(31.6,1.75)" />   <use xlink:href="#dot" transform="translate(30.15,0.8)" />   <use xlink:href="#dot" transform="translate(-5.3,6.85)" /><polygon class="region" points="-7.771,5.37 -9.736,8.032 -8.573,8.139 8.416667,9.6 10.5,9.75 29.75,4.583333 35.75,1.65 34.87875,0.33163 14.866667,-5.25 -7.771,5.37 " />
		  </g>
		</svg>