<?xml version="1.0" encoding="UTF-8"?>
	<svg xmlns:xlink="http://www.w3.org/1999/xlink" 
	xmlns="http://www.w3.org/2000/svg" 
	width="360px" height="180px">
	   <style type="text/css">
		  <![CDATA[     
		  .region 
		  { 
			fill:blue; 
			opacity:0.4; 
			stroke:blue;
		  }
		  ]]>
	   </style>

	<circle id="dot" x="-2" y="-2" r="2" style="stroke:none; stroke-width:0; fill:black; opacity:0.7;"/>


	 <image x="0" y="0" width="360" height="180" xlink:href="map.jpg"/>

 
	 <g transform="translate(180,90) scale(1,-1)"><polygon class="region" points="36.371027369,-1.254459696 35.993557974,-1.0496654299999 35.606847362,0.44561560400007 36.328707172,8.386073508 37.720865376,14.625004718 38.08179528,15.269522405 38.571628723,15.63045231 39.648964401,15.361591146 39.777500153,15.056972504 39.786967425,15.3513687 40.082642591,15.329466835 40.209609985,14.944360733 40.521110535,15.021416664 40.774112701,14.704805374 41.183750152,14.618805885 41.681694031,13.943528176 42.227390289,13.634388923 42.388278961,13.202860833 42.545333862,13.22286129 42.774387359,12.845083237 43.080360413,12.829138755 43.415415844,12.121290208 42.676776886,11.549194336 42.513832092,11.574832916 42.631248474,11.460833549 43.077728728,11.596956529 42.438734845,10.293845861 42.335612015,9.1079333170001 41.562190791,5.808002759 40.917673103,3.797107576 38.365383062,0.26515065100006 36.870102028,-1.101226846 36.371027369,-1.254459696 " /><polygon class="region" points="39.182808302,21.438837574 39.152380264,21.670816819 39.428950026,21.656449559 39.472051807,21.308043496 39.182808302,21.438837574 " />
		  </g>
		</svg>