<?xml version="1.0" encoding="UTF-8"?>
	<svg xmlns:xlink="http://www.w3.org/1999/xlink" 
	xmlns="http://www.w3.org/2000/svg" 
	width="360px" height="180px">
	   <style type="text/css">
		  <![CDATA[     
		  .region 
		  { 
			fill:blue; 
			opacity:0.4; 
			stroke:blue;
		  }
		  ]]>
	   </style>

	<circle id="dot" x="-2" y="-2" r="2" style="stroke:none; stroke-width:0; fill:black; opacity:0.7;"/>


	 <image x="0" y="0" width="360" height="180" xlink:href="map.jpg"/>

 
	 <g transform="translate(180,90) scale(1,-1)"><polygon class="region" points="6.560074807,6.5782983930001 8.123351459,6.044806497 9.0576749840001,5.2812057630001 11.479769445,4.2020547660001 14.52537337,3.7464132330001 15.412675302,3.8183566330001 18.940727574,4.8627495810001 19.633354758,4.6097340310001 22.439147352,4.5377906310001 24.045883282,4.1780736320001 28.554336337,4.9934321640001 29.495955205,4.893864067 29.900810531,4.5459487570001 29.978070098,4.260025286 29.921260934,2.8111490360001 29.129883536,-1.193700222 28.746185403,-2.0810021529999 28.386468404,-2.320813486 27.47518534,-2.2248889529999 21.168147289,-0.37834169099995 14.213618638,-0.16251149099998 12.10327891,0.22118664200002 10.040901448,1.2283942390001 9.610822527,1.6634508610001 9.8152751920001,1.9312345980001 9.975468635,3.0842037200001 9.546248436,3.8113045690001 9.713395119,3.8535449500001 9.699566841,4.1187567710001 9.4302196510001,3.8828773500001 9.2161111830001,3.943225383 8.9795341490001,4.0965938570001 8.8998889920001,4.5045905110001 8.637089729,4.7189245220001 8.7131786350001,4.5041937820001 8.513197899,4.497016907 8.5518894200001,4.7323489190001 8.2885293960001,4.853129387 8.279235839,4.53861475 7.430961107,4.440476925 7.3586571500001,5.1074932330001 6.50048973,5.772872953 5.82145115,5.873719312 5.0460114480001,5.7681331630001 4.434468269,6.349925518 3.34779688,6.396456917 3.301803514,6.791368759 3.6146692030001,7.4014415070001 4.5638200240001,7.595769424 6.560074807,6.5782983930001 " /><polygon class="region" points="-12.442378961,8.5567335580001 -11.81952795,8.527763743 -8.574908728,7.6876391230001 -7.201481239,6.9307845500001 -5.4316838569999,6.2101785850001 -4.1135572969999,6.3115729350001 -2.1999982629999,7.182167587 -0.81899942099994,7.3278433190001 0.039255728000057,7.2519098870001 1.450241423,6.1855427670001 1.092257381,6.0504841800001 0.92482405900006,5.784072876 0.23838666000006,5.7607855790001 -2.0555424689999,4.741048812 -2.431542635,4.95087576 -3.987890482,5.24616909 -6.1211800579999,4.99855423 -7.3976798059999,4.3811850550001 -7.7228598589999,4.368283272 -9.028960228,4.976782321 -10.021465301,5.943899631 -10.79058075,6.2923822400001 -10.730748176,6.419532776 -11.353787422,6.707045555 -11.56418705,7.00111866 -12.516936302,7.3876223560001 -12.430404663,7.4188146590001 -12.339532852,7.376771927 -12.300247192,7.3823194510001 -12.483582496,7.449020863 -12.302631378,7.528018952 -12.541941642,7.665343762 -12.473174095,7.7307024 -12.475027084,7.7812767030001 -12.702144623,7.7020769120001 -12.919477463,7.8718428610001 -12.801827431,7.923483372 -12.956491814,8.163127489 -12.717592199,8.527763743 -12.442378961,8.5567335580001 " />
		  </g>
		</svg>