<?xml version="1.0" encoding="UTF-8"?>
	<svg xmlns:xlink="http://www.w3.org/1999/xlink" 
	xmlns="http://www.w3.org/2000/svg" 
	width="360px" height="180px">
	   <style type="text/css">
		  <![CDATA[     
		  .region 
		  { 
			fill:blue; 
			opacity:0.4; 
			stroke:blue;
		  }
		  ]]>
	   </style>

	<circle id="dot" x="-2" y="-2" r="2" style="stroke:none; stroke-width:0; fill:black; opacity:0.7;"/>


	 <image x="0" y="0" width="360" height="180" xlink:href="map.jpg"/>

 
	 <g transform="translate(180,90) scale(1,-1)"><polygon class="region" points="-64.330459015,10.397422308 -63.641010188,10.488436692 -64.228737057,10.503903189 -64.264428972,10.662732211 -61.855819569,10.753151729 -62.316602192,10.53864332 -62.649250841,10.574335234 -62.905280845,10.521987092 -62.649726734,10.347810547 -62.621986354,10.12186725 -63.015327418,10.101587365 -62.796436275,9.994916986 -62.615596736,10.09352691 -62.578926051,10.230747292 -62.441707576,9.933529924 -62.208934749,9.9263048870001 -62.208934749,9.638251375 -62.189216579,9.932416032 -62.022266353,9.869641374 -62.186706508,10.019637178 -61.836692775,9.8033161860001 -61.839767422,9.651861261 -61.771156277,9.7582512600001 -61.736717189,9.59936149 -61.733097041,9.7093621 -61.815205829,9.828481288 -61.5912933,9.7817803130001 -61.628524745,9.9061318130001 -60.863365479,9.457783536 -60.781208244,9.314890034 -60.814212764,9.3193464980001 -61.085037196,9.096583437 -60.947814906,9.183249544 -61.206985439,8.5993605360001 -61.658096279,8.593249391 -61.284217799,8.4013062230001 -61.025047268,8.5057516800001 -61.081436122,8.456582138 -61.071987118,8.4046412220001 -60.980876887,8.5724173290001 -60.234462844,8.631311553 -59.138053859,8.047027658 -58.474624598,7.3551517230001 -58.681426967,6.3838072510001 -58.410449947,6.8754611700001 -58.031436885,6.8176971180001 -57.180137599,6.1151352630001 -57.246597255,5.489918302 -56.959634372,6.0007506800001 -56.015876735,5.822140286 -55.897655452,5.6757150400001 -55.921913561,5.892052973 -55.665477718,5.982848715 -55.116157497,5.8226962790001 -54.862544978,5.8568621380001 -55.160316432,5.9618631110001 -55.042027929,6.0068167260001 -54.202827419,5.883529256 -53.987544978,5.749084066 -54.164775813,5.351211141 -53.860046351,5.759363244 -53.483730281,5.5650149090001 -52.935874904,5.4621401530001 -52.680114711,5.127030919 -52.279926892,4.9382544970001 -52.338375056,4.72686107 -52.225875819,4.874361107 -52.024486507,4.693252156 -52.038097346,4.335195135 -51.910316432,4.65713937 -51.793762172,4.608703684 -51.682167018,4.0379701360001 -51.567846639,4.240387947 -51.430595363,3.935473035 -51.544486964,4.3960281120001 -51.334278665,4.2373576840001 -51.173095668,3.657140086 -51.077648128,3.880927156 -51.021705592,3.133808206 -50.67893597,2.24519522 -50.764766659,2.050752233 -50.657735988,2.1331279660001 -50.468891109,1.823801706 -49.964424098,1.6907616350001 -49.879221762,1.433729903 -50.120044673,1.2179741370001 -49.913017449,1.153857744 -50.453479731,0.73566706000003 -50.783000911,0.18721833400002 -51.200744593,-0.051538643999947 -51.407505001,-0.43615939199998 -51.186496699,-0.13648386699992 -51.152145351,-0.28002630599997 -51.394096339,-0.48895799199994 -50.710323299,0.00380713800007 -50.611404384,-0.084171313999946 -50.748664821,-0.42477126899996 -50.986564601,-0.57947163799997 -51.049026454,-0.67816333999997 -50.682437862,-0.60030483099996 -50.65031811,-0.27189971899998 -50.406959499,-0.090574983999943 -48.361469234,-0.29933067099995 -48.835403407,-1.4482983839999 -49.800994838,-1.8179164429999 -50.254257167,-1.772198487 -50.39925381,-1.930698325 -49.763141597,-1.8944042219999 -49.274444545,-1.702632476 -49.380706753,-2.1550246959999 -48.599231685,-1.302068044 -48.493949855,-1.5487410329999 -48.316829647,-1.474387695 -48.503478969,-1.466816475 -48.47669598,-1.1452161569999 -48.276359523,-1.107210805 -48.099075282,-0.70698290099995 -47.540595973,-0.63286059099994 -47.391986812,-0.80897038099994 -47.460848191,-0.68418350299993 -47.427905396,-0.57899579799994 -47.206714595,-0.63647114199995 -47.15857693,-0.81076561299994 -47.081714595,-0.66313724599996 -47.053375209,-0.86591558599997 -46.952827418,-0.70063697199993 -46.919765438,-0.83091543999996 -46.960327113,-0.85897128699997 -46.9492149,-0.90424906199996 -46.82809931,-0.70966561099993 -46.740325893,-0.94202678299996 -46.624206508,-0.82063763299993 -46.746437038,-1.0145258209999 -46.361807084,-0.98342120899997 -46.317546809,-1.105081846 -46.176389227,-0.91114436399994 -46.257827724,-1.1798038969999 -46.093249224,-1.07336298 -46.148113216,-1.254153301 -45.976200266,-1.071023123 -45.998096431,-1.204971482 -45.897601133,-1.1360797519999 -45.871782918,-1.203531847 -45.907543148,-1.2567264329999 -45.807277645,-1.324641873 -45.721504918,-1.1328364569999 -45.740661586,-1.2459919949999 -45.688350642,-1.4480349319999 -45.613970947,-1.2740973689999 -45.543983425,-1.428626944 -45.410671199,-1.292179276 -45.552112545,-1.4991285099999 -45.461029018,-1.543752362 -45.321548427,-1.3154016029999 -45.346294368,-1.746384313 -45.1592178,-1.477582862 -44.977542842,-1.603235651 -44.860534633,-1.422022511 -44.966373409,-1.657758047 -44.820518459,-1.668103029 -44.847545589,-1.621470858 -44.819709743,-1.5869803919999 -44.823791469,-1.633384873 -44.800579641,-1.610440823 -44.80998608,-1.661487629 -44.783746198,-1.682673269 -44.798969234,-1.7010688079999 -44.775105233,-1.733687537 -44.830764736,-1.766424705 -44.709331478,-1.724693228 -44.81773373,-1.815672804 -44.60186764,-1.745397737 -44.488861135,-1.99532654 -44.82226559,-2.2892488749999 -44.656436886,-2.288845878 -44.715606655,-2.404248883 -44.652545894,-2.4281379469999 -44.457801829,-2.142187566 -44.358097041,-2.335081745 -44.659767116,-2.595914771 -44.546371425,-2.53785031 -44.622264827,-3.04952686 -44.796096767,-3.201795746 -44.777114833,-3.3085991639999 -44.418655361,-2.926192929 -44.353664364,-2.5319923659999 -44.062175567,-2.40059818 -44.045411633,-2.547620507 -44.333656276,-2.770360878 -44.345207179,-2.834643532 -44.069816555,-2.806974102 -43.726768459,-2.47751992 -43.606185878,-2.588971068 -43.51662823,-2.440941503 -43.456485713,-2.5917326709999 -43.35755154,-2.43612497 -43.478488582,-2.382469537 -43.345596279,-2.36202686 -42.233936275,-2.8339709529999 -41.829765284,-2.7300829189999 -41.246166194,-3.019746949 -41.260723079,-2.8827823899999 -39.959121146,-2.8475459819999 -38.468626773,-3.693682316 -37.148501806,-4.9376645299999 -35.484068833,-5.151340128 -35.254688792,-5.4778021779999 -34.788219417,-7.15523379 -34.825309718,-8.000171592 -35.330020869,-9.233066489 -36.400432552,-10.502673079 -36.854465451,-10.736915519 -37.115941603,-11.098057246 -37.277267421,-11.021472861 -37.150962795,-11.181651045 -37.327744984,-11.423192938 -37.396434749,-11.398412634 -37.273937191,-11.255912711 -37.296707118,-11.198142935 -37.467266048,-11.362862517 -37.486007657,-11.516423156 -37.360956556,-11.455703611 -37.617828334,-11.982862402 -38.315692866,-12.930374075 -38.530197108,-13.01289456 -38.49614712,-12.718178679 -38.692546809,-12.572583129 -38.808105433,-12.841193129 -38.91726681,-12.732302596 -38.853927577,-12.847863127 -38.723377192,-12.870633056 -39.045597041,-13.335642745 -39.115875209,-13.602302481 -39.003097499,-13.505642821 -38.978095973,-13.83064263 -39.091987575,-13.710912634 -39.147827113,-13.738693167 -38.989486659,-13.853142668 -39.07334515,-13.882753302 -38.985607447,-13.984497714 -39.070594752,-14.078972746 -39.073657954,-14.139802863 -39.036987271,-14.172022749 -38.920013393,-13.916021277 -39.065048183,-14.640083243 -38.859767879,-15.853973318 -39.210208858,-17.150800634 -39.13344189,-17.687333991 -39.641715969,-18.219531943 -39.80393597,-19.636472632 -40.15032574,-19.950082709 -40.235324825,-20.280082633 -40.36699673,-20.230642248 -40.26606747,-20.323472907 -40.404205288,-20.59564202 -40.761436427,-20.851192404 -40.958656276,-21.232032705 -41.069469417,-21.513547827 -40.98559651,-22.005069321 -41.966705287,-22.532031943 -41.866435969,-22.756751944 -42.01532742,-22.982862403 -43.040046657,-22.970363547 -43.073936427,-22.664522101 -43.285301174,-22.802526404 -43.156179559,-22.959432298 -43.559764827,-23.066192558 -43.850326503,-22.89286225 -44.17949673,-23.050641943 -44.411437953,-22.934532096 -44.695045436,-23.105642248 -44.65001675,-23.298170019 -44.556392636,-23.228116919 -44.499412651,-23.292890067 -45.406986201,-23.619533469 -45.410034145,-23.820829321 -45.894454921,-23.757064749 -46.288007291,-24.022195619 -46.380874599,-23.864532401 -46.382102931,-24.016878058 -48.024215663,-25.011192252 -47.913813451,-25.150481019 -48.206714595,-25.457862785 -48.119110072,-25.263040473 -48.315036738,-25.359580924 -48.415595973,-25.223140646 -48.475326504,-25.475912024 -48.742546047,-25.352022101 -48.701549495,-25.500047613 -48.359485591,-25.572582175 -48.534217799,-25.838413168 -48.591438259,-25.797302176 -48.76865765,-25.876192023 -48.56125864,-25.859763648 -48.583805049,-26.168140341 -48.731986965,-26.219531944 -48.791988337,-26.058973242 -48.835445369,-26.15274613 -48.606155361,-26.43480294 -48.653568233,-26.905570914 -48.476762697,-27.1545683 -48.620605434,-27.238422324 -48.548450679,-27.366818926 -48.573484851,-27.882235763 -48.760047878,-28.488422325 -48.870044673,-28.341752936 -48.75888058,-28.530950476 -49.750595058,-29.365913322 -50.877548182,-31.224801947 -52.070594753,-32.17036431 -52.010444606,-31.941898276 -52.089900936,-31.832946708 -51.850326503,-31.866752554 -51.231605494,-31.454025198 -51.160606349,-31.074253012 -50.97643658,-31.132583548 -50.963046993,-30.889209677 -50.702709163,-30.75218003 -50.723262751,-30.367473532 -50.56734463,-30.467666556 -50.599449123,-30.19029801 -50.923506262,-30.434492676 -51.292610134,-30.002990653 -51.291427577,-30.29111283 -51.09047314,-30.367570807 -51.266727413,-30.485137871 -51.276897401,-30.799206425 -51.372638667,-30.631652763 -51.443374598,-31.079803396 -51.960327113,-31.331472327 -52.012952724,-31.640433145 -52.031715358,-31.563142707 -52.083934749,-31.558692862 -52.219486202,-31.743143011 -52.130874599,-31.928413321 -52.260913814,-32.057907035 -52.080501521,-32.029636313 -52.089796727,-32.164828945 -52.63476559,-33.125644615 -53.437828029,-33.788421561 -53.773402491,-34.389842823 -54.143096889,-34.667583396 -54.25504681,-34.685642172 -54.240596736,-34.577583243 -54.323657954,-34.558971336 -54.280876124,-34.693973471 -54.949386561,-34.973991324 -55.459041561,-34.731403282 -56.168716419,-34.927612712 -57.115875209,-34.458423544 -57.845135953,-34.48141629 -58.42893597,-33.825633934 -58.351448024,-33.13167565 -58.132598842,-33.094600607 -58.033477748,-32.921008993 -58.199768032,-32.445083548 -58.14906689,-33.042236258 -58.429851497,-33.089198996 -58.55393597,-33.718421867 -58.378621148,-34.188339697 -58.549175227,-34.427688528 -57.118926967,-35.423883772 -57.378936733,-35.788421561 -57.805078691,-35.966732309 -59.293669496,-35.572693567 -61.235309677,-34.644703775 -61.892040914,-34.159293729 -62.563048917,-33.231303937 -62.717713883,-32.254535194 -62.479767783,-30.231993339 -63.193606084,-29.161235887 -63.342322397,-28.596113898 -64.502309638,-27.22792382 -64.948458576,-26.186909629 -65.989472766,-24.610516713 -65.781269928,-22.290542232 -66.554594755,-19.01878335 -66.673567805,-17.620850008 -66.971000431,-16.758295394 -68.547393347,-15.271132265 -69.112515336,-14.943956377 -69.350461437,-14.557293964 -70.679469167,-13.66697477 -71.404958107,-12.970505388 -74.763735225,-11.642454231 -75.84495042,-10.76501901 -77.441026088,-7.776004577 -78.079456355,-5.3964008529999 -78.195534586,-3.1328753609999 -77.963378124,-2.088171287 -77.71227713,-1.6529295629999 -77.794513667,-1.189062883 -77.226772274,0.28621102400007 -76.694881404,0.77416349600003 -74.258099761,2.158419603 -73.187342309,3.4373798930001 -71.670435918,5.935813949 -71.389926875,7.627540181 -70.213016052,8.7019373690001 -69.6181508,10.337816811 -68.978769798,10.92946979 -68.406237772,11.190139742 -68.104522116,10.482012147 -66.232362197,10.649526202 -65.829519449,10.279044124 -65.091291671,10.061918307 -64.330459015,10.397422308 " /><polygon class="region" points="-49.716522182,-29.313640524 -49.709045375,-29.310510565 -49.707797969,-29.306819845 -49.716297115,-29.311113288 -49.716522182,-29.313640524 " /><polygon class="region" points="-43.754284032,-23.05890124 -43.993003908,-23.098345343 -44.003402675,-23.083400656 -43.897588921,-23.025958424 -43.754284032,-23.05890124 " /><polygon class="region" points="-43.434491387,-2.438600521 -43.448657954,-2.431192805 -43.459905077,-2.422822347 -43.445060695,-2.4285117869999 -43.434491387,-2.438600521 " /><polygon class="region" points="-43.257602033,-22.805576404 -43.256706202,-22.806472708 -43.248082241,-22.823471865 -43.260982479,-22.813167501 -43.257602033,-22.805576404 " /><polygon class="region" points="-44.783516998,-1.7149495529999 -44.771156276,-1.721748878 -44.766715968,-1.729525854 -44.781932796,-1.7216029649999 -44.783516998,-1.7149495529999 " /><polygon class="region" points="-45.077327918,-1.465041168 -45.071987117,-1.4714708819999 -45.079596826,-1.4783295079999 -45.076923335,-1.470378925 -45.077327918,-1.465041168 " /><polygon class="region" points="-44.662880649,-23.233354308 -44.652816738,-23.227863242 -44.650233593,-23.227185135 -44.656608547,-23.234853674 -44.662880649,-23.233354308 " /><polygon class="region" points="-44.918211869,-1.630650701 -44.908935512,-1.6395258209999 -44.91014691,-1.6459051489999 -44.913764919,-1.6368666189999 -44.918211869,-1.630650701 " /><polygon class="region" points="-44.719284784,-2.2636019239999 -44.709205592,-2.265359808 -44.705438202,-2.2709148829999 -44.712532008,-2.2660335799999 -44.719284784,-2.2636019239999 " /><polygon class="region" points="-44.737705515,-2.26219092 -44.733097042,-2.2611929669999 -44.720775993,-2.2633418469999 -44.723491634,-2.2639147529999 -44.737705515,-2.26219092 " /><polygon class="region" points="-46.596703454,-1.0096652949999 -46.603949464,-1.014923165 -46.597690548,-1.007333328 -46.596703454,-1.0096652949999 " /><polygon class="region" points="-44.806276872,-1.604831158 -44.80588528,-1.6092488059999 -44.807023799,-1.6142213269999 -44.809070552,-1.608172823 -44.806276872,-1.604831158 " /><polygon class="region" points="-42.756605948,-2.554822438 -42.7530975,-2.554248979 -42.752292585,-2.554604136 -42.755119289,-2.558114697 -42.756605948,-2.554822438 " /><polygon class="region" points="-44.070788051,-2.768139811 -44.06754681,-2.775637795 -44.06754681,-2.7790579059999 -44.070788051,-2.768139811 " /><polygon class="region" points="-45.58276836,-1.300724865 -45.581714595,-1.30230384 -45.584504344,-1.3070076949999 -45.583950008,-1.302716543 -45.58276836,-1.300724865 " /><polygon class="region" points="-44.766814916,-1.7164224969999 -44.771434749,-1.714248825 -44.772522877,-1.7125207739999 -44.7707214,-1.7124619969999 -44.766814916,-1.7164224969999 " /><polygon class="region" points="-45.904610806,-1.1920861359999 -45.902267421,-1.194526841 -45.904287384,-1.198815689 -45.904018367,-1.197930981 -45.904610806,-1.1920861359999 " /><polygon class="region" points="-42.439934082,-2.744740749 -42.436435664,-2.7439698479999 -42.43498414,-2.742977202 -42.436305965,-2.745908428 -42.439934082,-2.744740749 " /><polygon class="region" points="-48.579846495,-27.855216987 -48.57524559,-27.855904154 -48.575508083,-27.856798102 -48.579846495,-27.855216987 " /><polygon class="region" points="-52.981168353,5.4727652870001 -52.980316127,5.4763069860001 -52.978920288,5.476687312 -52.978836025,5.476435732 -52.981168353,5.4727652870001 " /><polygon class="region" points="-43.887738761,-2.601670451 -43.886150602,-2.6073188259999 -43.88716885,-2.605507304 -43.887738761,-2.601670451 " /><polygon class="region" points="-44.581774203,-2.030421619 -44.583656276,-2.0323039789999 -44.585041276,-2.0324652739999 -44.581774203,-2.030421619 " /><polygon class="region" points="-42.096733128,-2.7955384319999 -42.093910329,-2.795282055 -42.095024073,-2.795871426 -42.096733128,-2.7955384319999 " /><polygon class="region" points="-48.43635229,-25.379612343 -48.435596431,-25.379533698 -48.435165686,-25.381168517 -48.43635229,-25.379612343 " /><polygon class="region" points="-48.756775931,-26.210683499 -48.757054101,-26.212567473 -48.757366145,-26.21198075 -48.756775931,-26.210683499 " /><polygon class="region" points="-45.417799514,-1.452722018 -45.417816127,-1.452859808 -45.420703019,-1.456792551 -45.417799514,-1.452722018 " /><polygon class="region" points="-43.214371754,-22.867554749 -43.213935817,-22.867303778 -43.213424575,-22.867211028 -43.213565791,-22.867492605 -43.214371754,-22.867554749 " /><polygon class="region" points="-45.381367593,-1.5460868059999 -45.381156887,-1.5456388499999 -45.380752667,-1.5458289179999 -45.380908931,-1.5460234189999 -45.381367593,-1.5460868059999 " /><polygon class="region" points="-48.481752419,-25.339711933 -48.480712115,-25.34022464 -48.481174434,-25.340213707 -48.481752419,-25.339711933 " />
		  </g>
		</svg>