<?xml version="1.0" encoding="UTF-8"?>
	<svg xmlns:xlink="http://www.w3.org/1999/xlink" 
	xmlns="http://www.w3.org/2000/svg" 
	width="360px" height="180px">
	   <style type="text/css">
		  <![CDATA[     
		  .region 
		  { 
			fill:blue; 
			opacity:0.4; 
			stroke:blue;
		  }
		  ]]>
	   </style>

	<circle id="dot" x="-2" y="-2" r="2" style="stroke:none; stroke-width:0; fill:black; opacity:0.7;"/>


	 <image x="0" y="0" width="360" height="180" xlink:href="map.jpg"/>

 
	 <g transform="translate(180,90) scale(1,-1)">   <use xlink:href="#dot" transform="translate(-43.9788,-19.858116)" />   <use xlink:href="#dot" transform="translate(-71.768107,5.290876)" />   <use xlink:href="#dot" transform="translate(-52.302132,-25.730633)" />   <use xlink:href="#dot" transform="translate(-58.91883,-34.412858)" />   <use xlink:href="#dot" transform="translate(-69.290665,-12.825043)" />   <use xlink:href="#dot" transform="translate(-47.051153,-22.874389)" />   <use xlink:href="#dot" transform="translate(-55.932634,-9.597566)" />   <use xlink:href="#dot" transform="translate(-46.724816,-23.554201)" />   <use xlink:href="#dot" transform="translate(-57.200729,-28.543272)" />   <use xlink:href="#dot" transform="translate(-57.852497,-16.641072)" />   <use xlink:href="#dot" transform="translate(-56.774853,-17.36461)" />   <use xlink:href="#dot" transform="translate(-57.846928,-16.68515)" />   <use xlink:href="#dot" transform="translate(-72.917,-3.258)" />   <use xlink:href="#dot" transform="translate(-56.712028,-17.283445)" />   <use xlink:href="#dot" transform="translate(-56.876265,-16.757539)" />   <use xlink:href="#dot" transform="translate(-57.848003,-16.683697)" />   <use xlink:href="#dot" transform="translate(-56.776082,-17.364055)" />   <use xlink:href="#dot" transform="translate(-69.299308,-12.808716)" />   <use xlink:href="#dot" transform="translate(-56.852743,-16.741448)" />   <use xlink:href="#dot" transform="translate(-56.711507,-17.282517)" />   <use xlink:href="#dot" transform="translate(-56.735928,-17.322197)" />   <use xlink:href="#dot" transform="translate(-56.797033,-17.428918)" />   <use xlink:href="#dot" transform="translate(-56.697635,-17.287578)" />   <use xlink:href="#dot" transform="translate(-56.8565,-16.748402)" />   <use xlink:href="#dot" transform="translate(-56.857218,-16.746673)" />   <use xlink:href="#dot" transform="translate(-67.033,-14.125)" />   <use xlink:href="#dot" transform="translate(-56.776252,-17.364417)" />   <use xlink:href="#dot" transform="translate(-56.67015,-16.422225)" />   <use xlink:href="#dot" transform="translate(-45.883992,-23.522997)" />   <use xlink:href="#dot" transform="translate(-56.66348,-17.252638)" />   <use xlink:href="#dot" transform="translate(-66.795,-14.138)" />   <use xlink:href="#dot" transform="translate(-56.696565,-17.285298)" />   <use xlink:href="#dot" transform="translate(-46.491215,-23.448255)" />   <use xlink:href="#dot" transform="translate(-56.711987,-16.512392)" />   <use xlink:href="#dot" transform="translate(-56.638783,-20.065478)" />   <use xlink:href="#dot" transform="translate(-56.689465,-17.237128)" />   <use xlink:href="#dot" transform="translate(-56.776093,-17.363925)" />   <use xlink:href="#dot" transform="translate(-56.236187,-19.956307)" />   <use xlink:href="#dot" transform="translate(-56.696668,-17.283562)" />   <use xlink:href="#dot" transform="translate(-56.638163,-20.110047)" />   <use xlink:href="#dot" transform="translate(-56.303557,-19.954072)" />   <use xlink:href="#dot" transform="translate(-56.23476,-19.956794)" />   <use xlink:href="#dot" transform="translate(-56.686703,-16.531095)" />   <use xlink:href="#dot" transform="translate(-56.671783,-20.056615)" />   <use xlink:href="#dot" transform="translate(-56.234293,-19.95674)" />   <use xlink:href="#dot" transform="translate(-56.694007,-16.524848)" />   <use xlink:href="#dot" transform="translate(-56.236137,-19.956817)" />   <use xlink:href="#dot" transform="translate(-58.236223,-31.877213)" />   <use xlink:href="#dot" transform="translate(-64.876798,-14.836234)" />   <use xlink:href="#dot" transform="translate(-71.339893,5.964536)" />   <use xlink:href="#dot" transform="translate(-42.869366,-20.765247)" />   <use xlink:href="#dot" transform="translate(-63.895798,-17.581194)" />   <use xlink:href="#dot" transform="translate(-46.728867,-23.551675)" />   <use xlink:href="#dot" transform="translate(-43.472342,-23.023283)" />   <use xlink:href="#dot" transform="translate(-57.154484,-35.391989)" />   <use xlink:href="#dot" transform="translate(-47.600972,-23.447635)" />   <use xlink:href="#dot" transform="translate(-77.639042,-1.06483)" />   <use xlink:href="#dot" transform="translate(-72.917458,-3.257837)" />   <use xlink:href="#dot" transform="translate(-76.3967,-0.673995)" />   <use xlink:href="#dot" transform="translate(-47.020443,-22.903587)" />   <use xlink:href="#dot" transform="translate(-71.187453,-12.030067)" />   <use xlink:href="#dot" transform="translate(-55.899296,-20.326117)" />   <use xlink:href="#dot" transform="translate(-55.965729,-20.095917)" />   <use xlink:href="#dot" transform="translate(-57.022133,-19.579847)" />   <use xlink:href="#dot" transform="translate(-58.732021,-27.249199)" />   <use xlink:href="#dot" transform="translate(-56.069756,-19.64776)" />   <use xlink:href="#dot" transform="translate(-56.067566,-19.599981)" />   <use xlink:href="#dot" transform="translate(-58.732021,-27.249199)" />   <use xlink:href="#dot" transform="translate(-56.087017,-19.588499)" />   <use xlink:href="#dot" transform="translate(-57.848239,-16.683544)" />   <use xlink:href="#dot" transform="translate(-57.862611,-16.639578)" />   <use xlink:href="#dot" transform="translate(-57.846436,-16.686022)" />   <use xlink:href="#dot" transform="translate(-57.846436,-16.686022)" />   <use xlink:href="#dot" transform="translate(-57.848317,-16.683539)" />   <use xlink:href="#dot" transform="translate(-57.846436,-16.686022)" />   <use xlink:href="#dot" transform="translate(-57.846436,-16.686022)" />   <use xlink:href="#dot" transform="translate(-60.068567,-22.505995)" />   <use xlink:href="#dot" transform="translate(-57.846436,-16.686022)" />   <use xlink:href="#dot" transform="translate(-64.968166,-14.77787)" />   <use xlink:href="#dot" transform="translate(-46.5251,-23.49074)" />   <use xlink:href="#dot" transform="translate(-56.805557,-16.552422)" />   <use xlink:href="#dot" transform="translate(-68.078413,8.930861)" />   <use xlink:href="#dot" transform="translate(-68.078413,8.930861)" />   <use xlink:href="#dot" transform="translate(-68.078413,8.930861)" />   <use xlink:href="#dot" transform="translate(-68.078413,8.930861)" />   <use xlink:href="#dot" transform="translate(-68.078413,8.930861)" />   <use xlink:href="#dot" transform="translate(-68.078413,8.930861)" />   <use xlink:href="#dot" transform="translate(-68.094292,8.926283)" />   <use xlink:href="#dot" transform="translate(-68.078413,8.930861)" />   <use xlink:href="#dot" transform="translate(-58.759346,3.80328)" />   <use xlink:href="#dot" transform="translate(-68.078413,8.930861)" />   <use xlink:href="#dot" transform="translate(-49.227417,-25.543217)" />   <use xlink:href="#dot" transform="translate(-68.085022,8.933913)" />   <use xlink:href="#dot" transform="translate(-59.184766,-30.386722)" />   <use xlink:href="#dot" transform="translate(-71.536583,6.015667)" />   <use xlink:href="#dot" transform="translate(-71.502333,5.9893)" />   <use xlink:href="#dot" transform="translate(-71.49365,5.900933)" />   <use xlink:href="#dot" transform="translate(-59.184122,-30.386426)" />   <use xlink:href="#dot" transform="translate(-71.460617,5.930133)" />   <use xlink:href="#dot" transform="translate(-71.49365,5.900933)" />   <use xlink:href="#dot" transform="translate(-59.184508,-30.386648)" />   <use xlink:href="#dot" transform="translate(-71.55215,5.996983)" />   <use xlink:href="#dot" transform="translate(-71.524783,6.007717)" />   <use xlink:href="#dot" transform="translate(-71.493817,5.98025)" />   <use xlink:href="#dot" transform="translate(-71.502333,5.9893)" />   <use xlink:href="#dot" transform="translate(-71.491833,5.909967)" />   <use xlink:href="#dot" transform="translate(-71.55215,5.996983)" />   <use xlink:href="#dot" transform="translate(-71.461433,5.92835)" />   <use xlink:href="#dot" transform="translate(-71.473133,5.924767)" />   <use xlink:href="#dot" transform="translate(-71.461433,5.92835)" />   <use xlink:href="#dot" transform="translate(-71.4724,5.95195)" />   <use xlink:href="#dot" transform="translate(-71.5649,5.99855)" />   <use xlink:href="#dot" transform="translate(-59.184766,-30.386722)" />   <use xlink:href="#dot" transform="translate(-71.493633,5.900933)" />   <use xlink:href="#dot" transform="translate(-71.461433,5.92835)" />   <use xlink:href="#dot" transform="translate(-71.487583,5.902883)" />   <use xlink:href="#dot" transform="translate(-71.488417,5.905033)" />   <use xlink:href="#dot" transform="translate(-71.493633,5.900933)" />   <use xlink:href="#dot" transform="translate(-71.502333,5.9893)" />   <use xlink:href="#dot" transform="translate(-71.487583,5.902883)" />   <use xlink:href="#dot" transform="translate(-71.49715,5.92575)" />   <use xlink:href="#dot" transform="translate(-71.457083,5.934317)" />   <use xlink:href="#dot" transform="translate(-71.457083,5.934317)" />   <use xlink:href="#dot" transform="translate(-71.48875,5.9439)" />   <use xlink:href="#dot" transform="translate(-46.481758,-23.424395)" />   <use xlink:href="#dot" transform="translate(-57.847167,-16.684611)" />   <use xlink:href="#dot" transform="translate(-58.218033,-31.869412)" />   <use xlink:href="#dot" transform="translate(-57.825556,-16.703139)" />   <use xlink:href="#dot" transform="translate(-46.539936,-23.503611)" />   <use xlink:href="#dot" transform="translate(-70.211099,6.036976)" />   <use xlink:href="#dot" transform="translate(-57.388889,-16.976889)" />   <use xlink:href="#dot" transform="translate(-57.355594,-17.801309)" />   <use xlink:href="#dot" transform="translate(-57.771139,-16.251569)" />   <use xlink:href="#dot" transform="translate(-69.241109,-12.781193)" />   <use xlink:href="#dot" transform="translate(-57.659536,-16.824961)" />   <use xlink:href="#dot" transform="translate(-71.377229,-12.830631)" />   <use xlink:href="#dot" transform="translate(-70.676005,5.626971)" />   <use xlink:href="#dot" transform="translate(-70.702175,5.617365)" />   <use xlink:href="#dot" transform="translate(-55.954269,-20.070423)" />   <use xlink:href="#dot" transform="translate(-56.805011,-17.43295)" />   <use xlink:href="#dot" transform="translate(-55.965729,-20.095917)" />   <use xlink:href="#dot" transform="translate(-70.703452,5.614576)" />   <use xlink:href="#dot" transform="translate(-56.9557,-19.496693)" />   <use xlink:href="#dot" transform="translate(-55.96487,-20.095665)" />   <use xlink:href="#dot" transform="translate(-70.682329,5.622677)" />   <use xlink:href="#dot" transform="translate(-70.6861,5.622586)" />   <use xlink:href="#dot" transform="translate(-56.892794,-17.268022)" />   <use xlink:href="#dot" transform="translate(-70.700048,5.61893)" />   <use xlink:href="#dot" transform="translate(-55.96487,-20.095665)" />   <use xlink:href="#dot" transform="translate(-57.914429,-27.348228)" />   <use xlink:href="#dot" transform="translate(-70.701603,5.618409)" />   <use xlink:href="#dot" transform="translate(-55.96487,-20.095665)" />   <use xlink:href="#dot" transform="translate(-57.393028,-16.920397)" />   <use xlink:href="#dot" transform="translate(-56.873344,-16.746039)" />   <use xlink:href="#dot" transform="translate(-56.677936,-16.4535)" />   <use xlink:href="#dot" transform="translate(-57.610011,-15.927806)" />   <use xlink:href="#dot" transform="translate(-58.215523,-31.885805)" />   <use xlink:href="#dot" transform="translate(-69.279785,7.48775)" />   <use xlink:href="#dot" transform="translate(-76.892147,-2.562569)" />   <use xlink:href="#dot" transform="translate(-69.279785,7.48775)" />   <use xlink:href="#dot" transform="translate(-42.773,-22.449)" />   <use xlink:href="#dot" transform="translate(-48.641067,-26.914302)" />   <use xlink:href="#dot" transform="translate(-42.772745,-22.449068)" />   <use xlink:href="#dot" transform="translate(-42.7727,-22.4495)" />   <use xlink:href="#dot" transform="translate(-56.774853,-17.36461)" />   <use xlink:href="#dot" transform="translate(-49.267137,-25.428954)" />   <use xlink:href="#dot" transform="translate(-76.822139,7.807139)" />   <use xlink:href="#dot" transform="translate(-68.361946,7.238333)" />   <use xlink:href="#dot" transform="translate(-56.812379,-19.841636)" />   <use xlink:href="#dot" transform="translate(-56.66667,-16.35)" />   <use xlink:href="#dot" transform="translate(-46.523988,-23.486825)" />   <use xlink:href="#dot" transform="translate(-58.207524,-31.86918)" />   <use xlink:href="#dot" transform="translate(-57.776389,-16.300222)" />   <use xlink:href="#dot" transform="translate(-55.965729,-20.095917)" />   <use xlink:href="#dot" transform="translate(-55.965729,-20.095917)" />   <use xlink:href="#dot" transform="translate(-56.9557,-19.496693)" />   <use xlink:href="#dot" transform="translate(-56.9557,-19.496693)" />   <use xlink:href="#dot" transform="translate(-57.027451,-19.578516)" />   <use xlink:href="#dot" transform="translate(-56.974068,-19.484476)" />   <use xlink:href="#dot" transform="translate(-57.022133,-19.579847)" />   <use xlink:href="#dot" transform="translate(-56.666667,-16.35)" />   <use xlink:href="#dot" transform="translate(-58.258883,-31.863941)" />   <use xlink:href="#dot" transform="translate(-57.746056,-16.158806)" />   <use xlink:href="#dot" transform="translate(-57.19608,-28.545408)" />   <use xlink:href="#dot" transform="translate(-57.746056,-16.158806)" />   <use xlink:href="#dot" transform="translate(-122.50262827385,37.732761456838)" />   <use xlink:href="#dot" transform="translate(-69.616667,-13.167778)" />   <use xlink:href="#dot" transform="translate(-65.095779,-14.378275)" />   <use xlink:href="#dot" transform="translate(-69.301329,-12.798008)" />   <use xlink:href="#dot" transform="translate(-69.279785,7.48775)" />   <use xlink:href="#dot" transform="translate(-69.279785,7.48775)" />   <use xlink:href="#dot" transform="translate(-70.979917,6.818444)" />   <use xlink:href="#dot" transform="translate(-70.996389,6.825056)" />   <use xlink:href="#dot" transform="translate(-75.407068,-2.879907)" />   <use xlink:href="#dot" transform="translate(-55.965729,-20.095917)" />   <use xlink:href="#dot" transform="translate(-56.974068,-19.484476)" />   <use xlink:href="#dot" transform="translate(-56.974068,-19.484476)" />   <use xlink:href="#dot" transform="translate(-55.954269,-20.070423)" />   <use xlink:href="#dot" transform="translate(-55.931152,-9.597601)" />   <use xlink:href="#dot" transform="translate(-57.022133,-19.579847)" />   <use xlink:href="#dot" transform="translate(-56.9557,-19.496693)" />   <use xlink:href="#dot" transform="translate(-56.9557,-19.496693)" />   <use xlink:href="#dot" transform="translate(-55.931152,-9.597601)" />   <use xlink:href="#dot" transform="translate(-56.9557,-19.496693)" />   <use xlink:href="#dot" transform="translate(-56.304588,-20.266062)" />   <use xlink:href="#dot" transform="translate(-56.9557,-19.496693)" />   <use xlink:href="#dot" transform="translate(-56.710976,-16.512218)" />   <use xlink:href="#dot" transform="translate(-56.693962,-16.483166)" />   <use xlink:href="#dot" transform="translate(-56.611519,-13.498476)" />   <use xlink:href="#dot" transform="translate(-56.611519,-13.498476)" />   <use xlink:href="#dot" transform="translate(-57.110088,-28.459223)" />   <use xlink:href="#dot" transform="translate(-73.264028,-2.42474)" />   <use xlink:href="#dot" transform="translate(-57.172123,-28.554445)" />   <use xlink:href="#dot" transform="translate(-57.372408,-28.675377)" />   <use xlink:href="#dot" transform="translate(-47.019639,-22.903455)" />   <use xlink:href="#dot" transform="translate(-69.46312,-12.851469)" />   <use xlink:href="#dot" transform="translate(-56.35025,-19.377227)" />   <use xlink:href="#dot" transform="translate(-57.073975,-28.519383)" />   <use xlink:href="#dot" transform="translate(-57.073975,-28.519383)" />   <use xlink:href="#dot" transform="translate(-57.073975,-28.519383)" />   <use xlink:href="#dot" transform="translate(-57.073975,-28.519383)" />   <use xlink:href="#dot" transform="translate(-57.073975,-28.519383)" />   <use xlink:href="#dot" transform="translate(-57.073975,-28.519383)" />   <use xlink:href="#dot" transform="translate(-73.772222,7.498889)" />   <use xlink:href="#dot" transform="translate(-47.020626,-22.909068)" />   <use xlink:href="#dot" transform="translate(-66.288963,-16.114233)" />   <use xlink:href="#dot" transform="translate(-69.026756,-12.524871)" />   <use xlink:href="#dot" transform="translate(-43.974215,-19.851977)" />   <use xlink:href="#dot" transform="translate(-56.877068,-16.758413)" />   <use xlink:href="#dot" transform="translate(-71.151823,5.321689)" />   <use xlink:href="#dot" transform="translate(-58.876376,-34.67197)" />   <use xlink:href="#dot" transform="translate(-69.078087,-12.607466)" />   <use xlink:href="#dot" transform="translate(-69.169624,-12.518913)" />   <use xlink:href="#dot" transform="translate(-57.184353,-28.535973)" />   <use xlink:href="#dot" transform="translate(-69.526978,7.523694)" />   <use xlink:href="#dot" transform="translate(-69.206508,7.405014)" />   <use xlink:href="#dot" transform="translate(-69.336086,7.408266)" />   <use xlink:href="#dot" transform="translate(-69.336086,7.408266)" />   <use xlink:href="#dot" transform="translate(-57.187271,-28.5411)" />   <use xlink:href="#dot" transform="translate(-57.470169,-28.677938)" />   <use xlink:href="#dot" transform="translate(-69.336086,7.408266)" />   <use xlink:href="#dot" transform="translate(-69.336086,7.408266)" />   <use xlink:href="#dot" transform="translate(-69.206508,7.405014)" />   <use xlink:href="#dot" transform="translate(-69.336086,7.408266)" />   <use xlink:href="#dot" transform="translate(-69.336086,7.408266)" />   <use xlink:href="#dot" transform="translate(-69.336086,7.408266)" />   <use xlink:href="#dot" transform="translate(-57.184353,-28.535973)" />   <use xlink:href="#dot" transform="translate(-56.759722,-16.7575)" />   <use xlink:href="#dot" transform="translate(-69.66568,7.342854)" />   <use xlink:href="#dot" transform="translate(-69.603882,7.59993)" />   <use xlink:href="#dot" transform="translate(-56.492892,-21.128627)" />   <use xlink:href="#dot" transform="translate(-46.519547,-23.486549)" />   <use xlink:href="#dot" transform="translate(-77.538157,-1.066213)" />   <use xlink:href="#dot" transform="translate(-76.297558,3.97735)" />   <use xlink:href="#dot" transform="translate(-76.2303,4.23041)" />   <use xlink:href="#dot" transform="translate(-56.586456,-21.093469)" />   <use xlink:href="#dot" transform="translate(-76.42222,3.70641)" />   <use xlink:href="#dot" transform="translate(-76.46412,3.57695)" />   <use xlink:href="#dot" transform="translate(-76.45863,3.60408)" />   <use xlink:href="#dot" transform="translate(-57.262802,-28.619487)" />   <use xlink:href="#dot" transform="translate(-57.158348,-28.290049)" />   <use xlink:href="#dot" transform="translate(-56.67984,-16.507375)" />   <use xlink:href="#dot" transform="translate(-69.590149,-13.09553)" />   <use xlink:href="#dot" transform="translate(-42.878586,-20.75487)" />   <use xlink:href="#dot" transform="translate(-46.897806,-23.185708)" />   <use xlink:href="#dot" transform="translate(-66.098611,-13.761944)" />   <use xlink:href="#dot" transform="translate(-76.382286,3.835819)" />   <use xlink:href="#dot" transform="translate(-76.16107,4.30684)" />   <use xlink:href="#dot" transform="translate(-76.29669,3.98474)" />   <use xlink:href="#dot" transform="translate(-76.23898,4.1502)" />   <use xlink:href="#dot" transform="translate(-72.405175,4.893697)" />   <use xlink:href="#dot" transform="translate(-72.405175,4.893697)" />   <use xlink:href="#dot" transform="translate(-54.4393,-25.70432)" />   <use xlink:href="#dot" transform="translate(-54.4393,-25.70432)" />   <use xlink:href="#dot" transform="translate(-54.43573,-25.70283)" />   <use xlink:href="#dot" transform="translate(-54.45043,-25.68898)" />   <use xlink:href="#dot" transform="translate(-54.41652,-25.68474)" />   <use xlink:href="#dot" transform="translate(-54.41652,-25.68474)" />   <use xlink:href="#dot" transform="translate(-54.45043,-25.68898)" />   <use xlink:href="#dot" transform="translate(-54.44614,-25.69705)" />   <use xlink:href="#dot" transform="translate(-54.44614,-25.69705)" />   <use xlink:href="#dot" transform="translate(-54.43573,-25.70283)" />   <use xlink:href="#dot" transform="translate(-72.405175,4.893697)" />   <use xlink:href="#dot" transform="translate(-72.405175,4.893697)" />   <use xlink:href="#dot" transform="translate(-42.878579,-20.754866)" />   <use xlink:href="#dot" transform="translate(-42.878579,-20.754866)" />   <use xlink:href="#dot" transform="translate(-72.405175,4.893697)" />   <use xlink:href="#dot" transform="translate(-42.878579,-20.754866)" />   <use xlink:href="#dot" transform="translate(-72.405175,4.893697)" />   <use xlink:href="#dot" transform="translate(-82.5611,29.92521)" />   <use xlink:href="#dot" transform="translate(-72.405175,4.893697)" />   <use xlink:href="#dot" transform="translate(-76.382289,3.815415)" />   <use xlink:href="#dot" transform="translate(-47.936997,-15.850902)" />   <use xlink:href="#dot" transform="translate(-47.693172,-23.351784)" />   <use xlink:href="#dot" transform="translate(-56.211548,-16.283233)" />   <use xlink:href="#dot" transform="translate(-82.5566,29.92581)" />   <use xlink:href="#dot" transform="translate(-67.593,8.578)" />   <use xlink:href="#dot" transform="translate(-76.730208,-1.146726)" />   <use xlink:href="#dot" transform="translate(-54.4292,-25.72464)" />   <use xlink:href="#dot" transform="translate(-54.4292,-25.72464)" /><polygon class="region" points="-58.876376,-34.67197 -122.50262827385,37.732761456838 -82.5566,29.92581 -58.759346,3.80328 -42.869366,-20.765247 -42.7727,-22.4495 -57.154484,-35.391989 -58.876376,-34.67197 " />
		  </g>
		</svg>