<?xml version="1.0" encoding="UTF-8"?>
	<svg xmlns:xlink="http://www.w3.org/1999/xlink" 
	xmlns="http://www.w3.org/2000/svg" 
	width="360px" height="180px">
	   <style type="text/css">
		  <![CDATA[     
		  .region 
		  { 
			fill:blue; 
			opacity:0.4; 
			stroke:blue;
		  }
		  ]]>
	   </style>

	<circle id="dot" x="-2" y="-2" r="2" style="stroke:none; stroke-width:0; fill:black; opacity:0.7;"/>


	 <image x="0" y="0" width="360" height="180" xlink:href="map.jpg"/>

 
	 <g transform="translate(180,90) scale(1,-1)"><polygon class="region" points="101.508506775,6.860967159 102.26122284,6.160119057 101.865470886,5.5005283360001 101.29981492,5.6407596830001 100.959693908,4.7181787490001 100.923149109,4.0458436010001 100.703605652,3.9463016990001 100.763572693,4.0866150860001 100.560935974,4.3069047930001 100.664138794,4.6844158170001 100.362030029,5.085588456 100.345718384,5.567632675 100.652755738,5.6536016470001 101.07963562,6.8523001670001 101.508506775,6.860967159 " /><polygon class="region" points="97.74054718,2.303648472 98.854446411,2.515883923 98.959983825,2.753336668 98.793197632,3.718209029 98.95249939,3.6730132110001 99.759971619,3.172256469 100.128929138,2.5223898890001 100.215293884,2.7101686 100.43611145,2.2738380430001 100.913223266,1.8495699170001 100.77016449,2.2242596150001 101.046585083,2.289878845 101.403335571,1.707078815 101.762023925,1.6671547890001 102.15750122,1.3679230220001 102.40549469,0.81625068200003 102.922012329,0.70652216700006 103.109725952,0.44613465600003 102.697654724,0.21547654200003 103.333900451,0.54328769500006 103.722564697,0.28656378400007 103.810905457,0.004425252000033 103.436813354,-0.20342996699998 103.771385192,-0.34708929099997 103.415969848,-0.52702212299994 103.378433228,-0.73212188499997 103.747703552,-1.0122272969999 104.372077942,-1.027496695 104.458099365,-1.935812354 104.549598694,-1.860869766 104.86693573,-2.074599027 104.633598328,-2.3891427519999 104.720924377,-2.585658074 104.851699829,-2.292363882 105.610984803,-2.39544797 105.804206848,-2.910203695 106.052238465,-3.0067028999999 106.084480285,-3.233008147 105.815124512,-3.638274193 105.957054138,-3.8391563889999 105.808807373,-4.140625954 105.912826538,-4.9363141059999 105.72857666,-5.90037489 105.287994385,-5.4438471789999 105.166351318,-5.806091309 104.52684784,-5.5248990059999 104.728553772,-5.927110672 104.571182251,-5.942255974 103.72278595,-4.969718933 102.284889221,-3.979337454 102.216049194,-3.670946359 101.607681274,-3.23974967 100.886703491,-2.33312583 100.849456787,-1.9144437309999 100.392906189,-1.2733031509999 100.33392334,-0.87754028999996 99.733253479,-0.036552529999938 99.138908387,0.25173908400006 98.717147827,1.558437229 98.799232483,1.7200589180001 97.74054718,2.303648472 " />
		  </g>
		</svg>