<?xml version="1.0" encoding="UTF-8"?>
	<svg xmlns:xlink="http://www.w3.org/1999/xlink" 
	xmlns="http://www.w3.org/2000/svg" 
	width="360px" height="180px">
	   <style type="text/css">
		  <![CDATA[     
		  .region 
		  { 
			fill:blue; 
			opacity:0.4; 
			stroke:blue;
		  }
		  ]]>
	   </style>

	<circle id="dot" x="-2" y="-2" r="2" style="stroke:none; stroke-width:0; fill:black; opacity:0.7;"/>


	 <image x="0" y="0" width="360" height="180" xlink:href="map.jpg"/>

 
	 <g transform="translate(180,90) scale(1,-1)"><polygon class="region" points="49.5412,-14.788164407 49.812956402,-14.780867576 49.623409027,-15.0991886 49.6407,-16.053464407 49.4634,-16.053464407 49.6783,-16.252264407 49.4795,-16.370464407 49.5493,-16.472564408 49.7589,-16.338264407 49.789,-16.529364407 48.9517,-17.241464407 49.0254,-17.794064407 49.2618,-17.901564407 49.1206,-18.067364408 48.8903,-18.033564407 49.05,-18.220864407 48.6969,-18.438864408 48.8105,-18.699864408 48.5526,-18.752064407 48.5769,-19.792864408 48.4211,-19.814364408 48.1632,-19.406064407 47.9644,-19.690764407 47.8356,-19.580164407 47.9993,-18.364964408 47.904,-18.265364407 47.9933,-18.169564407 48.0608,-18.410964407 47.9805,-19.024564408 48.2814,-19.062164407 48.7184,-17.499364408 48.8401,-16.472564408 48.6201,-16.513764408 48.7767,-16.246564408 49.0837,-16.203664408 49.1697,-15.696964407 48.9732,-15.451364407 49.3344,-15.177664407 49.3539,-14.668464407 49.5412,-14.788164407 " />
		  </g>
		</svg>