<?xml version="1.0" encoding="UTF-8"?>
	<svg xmlns:xlink="http://www.w3.org/1999/xlink" 
	xmlns="http://www.w3.org/2000/svg" 
	width="360px" height="180px">
	   <style type="text/css">
		  <![CDATA[     
		  .region 
		  { 
			fill:blue; 
			opacity:0.4; 
			stroke:blue;
		  }
		  ]]>
	   </style>

	<circle id="dot" x="-2" y="-2" r="2" style="stroke:none; stroke-width:0; fill:black; opacity:0.7;"/>


	 <image x="0" y="0" width="360" height="180" xlink:href="map.jpg"/>

 
	 <g transform="translate(180,90) scale(1,-1)">   <use xlink:href="#dot" transform="translate(48.583875,-18.953368)" />   <use xlink:href="#dot" transform="translate(48.416622,-18.954699)" />   <use xlink:href="#dot" transform="translate(48.599299,-18.932217)" />   <use xlink:href="#dot" transform="translate(48.591181,-18.861393)" />   <use xlink:href="#dot" transform="translate(48.530871,-18.94204)" />   <use xlink:href="#dot" transform="translate(48.493767,-18.954607)" />   <use xlink:href="#dot" transform="translate(48.457102,-18.916307)" />   <use xlink:href="#dot" transform="translate(48.432959,-18.95335)" />   <use xlink:href="#dot" transform="translate(48.503528,-18.828324)" />   <use xlink:href="#dot" transform="translate(48.500625,-18.761301)" />   <use xlink:href="#dot" transform="translate(48.57727,-18.832283)" />   <use xlink:href="#dot" transform="translate(48.5724,-18.881146)" />   <use xlink:href="#dot" transform="translate(48.591954,-18.887524)" />   <use xlink:href="#dot" transform="translate(48.418956,-18.89475)" />   <use xlink:href="#dot" transform="translate(48.436866,-18.918918)" />   <use xlink:href="#dot" transform="translate(48.538931,-18.875515)" />   <use xlink:href="#dot" transform="translate(48.520858,-18.915925)" />   <use xlink:href="#dot" transform="translate(48.57794,-18.969218)" />   <use xlink:href="#dot" transform="translate(48.376489,-18.813114)" />   <use xlink:href="#dot" transform="translate(48.528614,-18.683035)" />   <use xlink:href="#dot" transform="translate(48.45217,-18.823646)" />   <use xlink:href="#dot" transform="translate(48.515568,-18.948859)" />   <use xlink:href="#dot" transform="translate(48.447831,-18.911799)" />   <use xlink:href="#dot" transform="translate(48.44421,-18.926452)" />   <use xlink:href="#dot" transform="translate(49.27873,-18.195437)" />   <use xlink:href="#dot" transform="translate(48.461435,-18.980228)" />   <use xlink:href="#dot" transform="translate(48.323364,-18.908236)" />   <use xlink:href="#dot" transform="translate(48.556687,-18.883629)" />   <use xlink:href="#dot" transform="translate(48.462535,-18.871338)" />   <use xlink:href="#dot" transform="translate(48.467922,-18.909898)" />   <use xlink:href="#dot" transform="translate(48.466173,-18.91511)" />   <use xlink:href="#dot" transform="translate(48.506431,-18.966509)" />   <use xlink:href="#dot" transform="translate(48.323364,-18.908236)" />   <use xlink:href="#dot" transform="translate(48.443031,-18.969254)" />   <use xlink:href="#dot" transform="translate(48.525601,-18.800411)" />   <use xlink:href="#dot" transform="translate(48.409267,-18.895437)" />   <use xlink:href="#dot" transform="translate(48.4588,-18.8352)" />   <use xlink:href="#dot" transform="translate(48.466667,-18.966667)" />   <use xlink:href="#dot" transform="translate(49.092,-18.048)" />   <use xlink:href="#dot" transform="translate(48.5,-19)" />   <use xlink:href="#dot" transform="translate(48.5,-19)" />   <use xlink:href="#dot" transform="translate(48.5,-19)" />   <use xlink:href="#dot" transform="translate(48.427,-18.792)" />   <use xlink:href="#dot" transform="translate(48.467,-18.702)" />   <use xlink:href="#dot" transform="translate(48.578,-18.198)" />   <use xlink:href="#dot" transform="translate(48.813,-18.695)" />   <use xlink:href="#dot" transform="translate(48.466667,-18.466667)" />   <use xlink:href="#dot" transform="translate(49.6,-15.766667)" />   <use xlink:href="#dot" transform="translate(49.6,-15.766667)" />   <use xlink:href="#dot" transform="translate(49.6,-15.766667)" />   <use xlink:href="#dot" transform="translate(49.6,-15.766667)" />   <use xlink:href="#dot" transform="translate(48.466667,-18.466667)" />   <use xlink:href="#dot" transform="translate(48.466667,-18.466667)" />   <use xlink:href="#dot" transform="translate(48.466667,-18.466667)" />   <use xlink:href="#dot" transform="translate(48.466667,-18.466667)" />   <use xlink:href="#dot" transform="translate(48.466667,-18.466667)" />   <use xlink:href="#dot" transform="translate(48.466667,-18.466667)" />   <use xlink:href="#dot" transform="translate(48.466667,-18.466667)" />   <use xlink:href="#dot" transform="translate(48.466667,-18.466667)" />   <use xlink:href="#dot" transform="translate(48.466667,-18.466667)" />   <use xlink:href="#dot" transform="translate(48.466667,-18.466667)" />   <use xlink:href="#dot" transform="translate(48.5,-18.833333)" />   <use xlink:href="#dot" transform="translate(49.435883,-15.400983)" />   <use xlink:href="#dot" transform="translate(50,-13)" />   <use xlink:href="#dot" transform="translate(47.53161,-18.91545)" />   <use xlink:href="#dot" transform="translate(47.53161,-18.91545)" />   <use xlink:href="#dot" transform="translate(47,-19)" />   <use xlink:href="#dot" transform="translate(47.53161,-18.91545)" />   <use xlink:href="#dot" transform="translate(47.53161,-18.91545)" />   <use xlink:href="#dot" transform="translate(47,-19)" />   <use xlink:href="#dot" transform="translate(49.54745,-15.290667)" />   <use xlink:href="#dot" transform="translate(47,-19)" />   <use xlink:href="#dot" transform="translate(47,-19)" />   <use xlink:href="#dot" transform="translate(49.3833,-18.1417)" />   <use xlink:href="#dot" transform="translate(49.52945,-15.226083)" />   <use xlink:href="#dot" transform="translate(47.53161,-18.91545)" />   <use xlink:href="#dot" transform="translate(47,-19)" />   <use xlink:href="#dot" transform="translate(49.534883,-15.4393)" />   <use xlink:href="#dot" transform="translate(47.53161,-18.91545)" /><polygon class="region" points="48.5,-19 47,-19 50,-13 49.3833,-18.1417 48.57794,-18.969218 48.5,-19 " />
		  </g>
		</svg>