<?xml version="1.0" encoding="UTF-8"?>
	<svg xmlns:xlink="http://www.w3.org/1999/xlink" 
	xmlns="http://www.w3.org/2000/svg" 
	width="360px" height="180px">
	   <style type="text/css">
		  <![CDATA[     
		  .region 
		  { 
			fill:blue; 
			opacity:0.4; 
			stroke:blue;
		  }
		  ]]>
	   </style>

	<circle id="dot" x="-2" y="-2" r="2" style="stroke:none; stroke-width:0; fill:black; opacity:0.7;"/>


	 <image x="0" y="0" width="360" height="180" xlink:href="map.jpg"/>

 
	 <g transform="translate(180,90) scale(1,-1)"><polygon class="region" points="-55.1779,-2.1688644079999 -54.8845,-2.155364408 -54.7181,-2.3216644079999 -55.0196,-2.467164408 -55.6536,-4.047164408 -56.2253,-4.369364408 -56.4228,-4.753964407 -56.6411,-4.743564407 -57.0049,-5.4503644069999 -57.5768,-5.9399644069999 -57.6601,-6.1883644069999 -58.2455,-6.4342644069999 -58.4663,-6.7318644069999 -58.168,-7.326664407 -58.4705,-8.5895644079999 -58.3666,-8.714264407 -58.6576,-9.150864407 -58.2309,-9.815764407 -58.4094,-10.575064407 -58.377,-11.551964407 -58.5121,-11.978164407 -58.8759,-12.258764407 -59.0422,-13.537264407 -59.3098,-13.788764407 -60.2632,-13.378264407 -60.4883,-13.139964408 -60.9385,-11.776064407 -61.9423,-11.219364407 -61.7864,-10.585264407 -61.9839,-9.878464408 -61.5681,-8.911764408 -62.1814,-8.953364407 -62.8674,-8.059464407 -63.3355,-8.183764407 -63.6054,-8.5687644069999 -63.8861,-8.6518644069999 -64.0628,-8.9741644069999 -64.5305,-9.1820644069999 -64.8319,-9.5562644079999 -66.6784,-9.9528644069999 -67.4145,-10.580464407 -68.1273,-10.727664407 -68.7317,-11.107364408 -68.7704,-10.991164407 -69.5946,-10.931764408 -70.4559,-10.156564407 -72.2646,-9.196864407 -72.8275,-8.718364407 -72.7941,-7.8826644069999 -72.3056,-7.248664407 -70.9855,-6.7497644069999 -70.6528,-6.8224644069999 -69.7693,-6.572964408 -68.2829,-6.479464407 -67.8359,-6.011664407 -67.6382,-5.481964407 -66.8693,-5.0450644069999 -66.2768,-3.4650644069999 -65.9857,-3.2051644069999 -65.7371,-2.624164407 -65.2373,-2.789464408 -64.2291,-3.704164407 -63.2208,-3.932864407 -63.1169,-4.078364407 -62.3477,-3.7768644069999 -61.9512,-3.9292644069999 -61.4049,-3.6312644079999 -60.881,-3.599764407 -60.6118,-3.329964407 -59.6763,-3.1636644069999 -58.6472,-3.329964407 -58.4809,-3.1636644069999 -58.2003,-3.1844644069999 -58.0963,-2.893364407 -57.6285,-2.6439644079999 -57.535,-2.4360644069999 -56.6827,-2.581564407 -56.1318,-2.103364407 -55.6432,-1.916264407 -55.1779,-2.1688644079999 " /><polygon class="region" points="-69.9392,-10.673364407 -69.5773,-10.960964408 -69.7089,-11.441864407 -69.0319,-11.977864408 -68.8908,-12.415164408 -70.1532,-12.795064407 -70.3977,-13.171964408 -70.3468,-13.416464407 -69.5929,-13.874864407 -68.2537,-14.368064407 -68.1095,-14.656564407 -68.1972,-15.168764407 -69.0531,-15.252564407 -70.096,-15.004164407 -72.7778,-12.868664408 -74.6154,-12.074064408 -75.7577,-11.080764407 -75.5376,-9.832764407 -74.9526,-9.840464407 -74.9526,-9.276364407 -74.6428,-8.767964407 -74.1741,-9.610064407 -73.9914,-10.587264408 -73.7689,-10.698464408 -73.2605,-10.380664407 -72.752,-9.4829644079999 -72.6805,-9.149264407 -72.8275,-8.718364407 -72.2646,-9.196864407 -70.4559,-10.156564407 -69.9392,-10.673364407 " />
		  </g>
		</svg>