<?xml version="1.0" encoding="UTF-8"?>
	<svg xmlns:xlink="http://www.w3.org/1999/xlink" 
	xmlns="http://www.w3.org/2000/svg" 
	width="360px" height="180px">
	   <style type="text/css">
		  <![CDATA[     
		  .region 
		  { 
			fill:blue; 
			opacity:0.4; 
			stroke:blue;
		  }
		  ]]>
	   </style>

	<circle id="dot" x="-2" y="-2" r="2" style="stroke:none; stroke-width:0; fill:black; opacity:0.7;"/>


	 <image x="0" y="0" width="360" height="180" xlink:href="map.jpg"/>

 
	 <g transform="translate(180,90) scale(1,-1)"><polygon class="region" points="-72.0683,5.4251355920001 -72.7795,4.447135593 -72.932,4.002635592 -72.716,2.872235592 -72.8358,2.5399355930001 -74.721,1.8510355930001 -75.1509,1.8560355930001 -76.2315,1.110435593 -76.4918,1.0987355930001 -77.0308,0.55153559300004 -77.3891,0.48893559200008 -77.393,0.66743559300005 -76.756,1.2269355930001 -76.5229,1.762835593 -76.1505,1.6753355930001 -76.3214,2.027135593 -76.0003,2.197835593 -75.8863,2.477735592 -75.9951,2.809035593 -75.648,2.881735592 -75.5963,3.0836355930001 -75.7257,3.0886355920001 -75.125,3.529135593 -74.9238,3.942435593 -74.4667,3.760835592 -74.6485,3.280535593 -74.3532,3.689735593 -74.2031,3.472135592 -73.8664,4.150535592 -73.9131,4.4821355930001 -73.6696,4.471635593 -73.2864,5.2589355920001 -72.815,5.419535592 -72.3075,6.2844355930001 -72.0122,6.455335592 -72.0796,6.859335592 -71.7481,7.025035593 -71.6873,6.5046355920001 -72.0683,5.4251355920001 " /><polygon class="region" points="-73.8561,8.6461355920001 -74.2859,6.869735592 -74.9541,6.217135593 -75.2027,6.1497355920001 -75.2441,6.5745355920001 -75.1146,6.729635592 -74.8505,6.667735592 -74.8246,7.1649355920001 -74.6086,7.461735592 -74.5292,8.7187355930001 -74.2549,8.6409355930001 -73.9648,8.951735592 -73.8561,8.6461355920001 " /><polygon class="region" points="-73.219,8.1334355930001 -73.2708,7.952135593 -72.8875,7.263335593 -73.0274,7.0405355930001 -72.5095,6.4138355920001 -72.8047,5.885635592 -72.9549,5.9063355920001 -72.7477,6.305135593 -72.8875,6.491535593 -72.8979,6.2274355930001 -73.2605,5.9063355920001 -73.9027,5.7251355930001 -74.0736,5.1139355920001 -74.4309,4.844435592 -74.2911,4.5183355930001 -74.4667,3.760835592 -74.9238,3.942435593 -74.664,6.0150355930001 -74.3222,6.672935593 -73.9493,6.9577355930001 -73.7577,7.998735593 -73.566,8.164535593 -73.219,8.1334355930001 " />
		  </g>
		</svg>