<?xml version="1.0" encoding="UTF-8"?>
	<svg xmlns:xlink="http://www.w3.org/1999/xlink" 
	xmlns="http://www.w3.org/2000/svg" 
	width="360px" height="180px">
	   <style type="text/css">
		  <![CDATA[     
		  .region 
		  { 
			fill:blue; 
			opacity:0.4; 
			stroke:blue;
		  }
		  ]]>
	   </style>

	<circle id="dot" x="-2" y="-2" r="2" style="stroke:none; stroke-width:0; fill:black; opacity:0.7;"/>


	 <image x="0" y="0" width="360" height="180" xlink:href="map.jpg"/>

 
	 <g transform="translate(180,90) scale(1,-1)">   <use xlink:href="#dot" transform="translate(-71.480558,-13.165069)" />   <use xlink:href="#dot" transform="translate(-71.537913,-13.117716)" />   <use xlink:href="#dot" transform="translate(-71.53638,-13.064058)" />   <use xlink:href="#dot" transform="translate(-71.531888,-13.007476)" />   <use xlink:href="#dot" transform="translate(-71.163492,-12.566813)" />   <use xlink:href="#dot" transform="translate(-71.528279,-12.894374)" />   <use xlink:href="#dot" transform="translate(-71.586774,-13.180243)" />   <use xlink:href="#dot" transform="translate(-71.520918,-13.138675)" />   <use xlink:href="#dot" transform="translate(-76.016667,-5.75)" />   <use xlink:href="#dot" transform="translate(-71.476173,-11.79865)" />   <use xlink:href="#dot" transform="translate(-71.476173,-11.79865)" />   <use xlink:href="#dot" transform="translate(-71.476173,-11.79865)" />   <use xlink:href="#dot" transform="translate(-71.476173,-11.79865)" />   <use xlink:href="#dot" transform="translate(-70.716667,-13.4)" />   <use xlink:href="#dot" transform="translate(-70.716667,-13.4)" />   <use xlink:href="#dot" transform="translate(-70.716667,-13.4)" />   <use xlink:href="#dot" transform="translate(-70.716667,-13.4)" />   <use xlink:href="#dot" transform="translate(-71.300003,-11.933333)" />   <use xlink:href="#dot" transform="translate(-54.700001,-2.433333)" />   <use xlink:href="#dot" transform="translate(-69,-14)" />   <use xlink:href="#dot" transform="translate(-69,-14)" />   <use xlink:href="#dot" transform="translate(-69,-14)" />   <use xlink:href="#dot" transform="translate(-69,-14)" />   <use xlink:href="#dot" transform="translate(-70.716667,-13.4)" />   <use xlink:href="#dot" transform="translate(-75.533333,-10.066667)" />   <use xlink:href="#dot" transform="translate(-75.533333,-10.066667)" />   <use xlink:href="#dot" transform="translate(-75.533333,-10.066667)" />   <use xlink:href="#dot" transform="translate(-75.533333,-10.066667)" />   <use xlink:href="#dot" transform="translate(-75.533333,-10.066667)" />   <use xlink:href="#dot" transform="translate(-75.533333,-10.066667)" />   <use xlink:href="#dot" transform="translate(-75.533333,-10.066667)" />   <use xlink:href="#dot" transform="translate(-75.533333,-10.066667)" />   <use xlink:href="#dot" transform="translate(-75.533333,-10.066667)" />   <use xlink:href="#dot" transform="translate(-75.533333,-10.066667)" />   <use xlink:href="#dot" transform="translate(-75.533333,-10.066667)" />   <use xlink:href="#dot" transform="translate(-75.533333,-10.066667)" />   <use xlink:href="#dot" transform="translate(-75.533333,-10.066667)" />   <use xlink:href="#dot" transform="translate(-75.533333,-10.066667)" />   <use xlink:href="#dot" transform="translate(-75.533333,-10.066667)" />   <use xlink:href="#dot" transform="translate(-75.533333,-10.066667)" />   <use xlink:href="#dot" transform="translate(-75.533333,-10.066667)" />   <use xlink:href="#dot" transform="translate(-75.533333,-10.066667)" />   <use xlink:href="#dot" transform="translate(-75.533333,-10.066667)" />   <use xlink:href="#dot" transform="translate(-75.533333,-10.066667)" />   <use xlink:href="#dot" transform="translate(-75.533333,-10.066667)" />   <use xlink:href="#dot" transform="translate(-75.533333,-10.066667)" />   <use xlink:href="#dot" transform="translate(-75.533333,-10.066667)" />   <use xlink:href="#dot" transform="translate(-75.533333,-10.066667)" />   <use xlink:href="#dot" transform="translate(-75.533333,-10.066667)" />   <use xlink:href="#dot" transform="translate(-75.449997,-9.966666)" />   <use xlink:href="#dot" transform="translate(-75.533333,-10.066667)" />   <use xlink:href="#dot" transform="translate(-75.533333,-10.066667)" />   <use xlink:href="#dot" transform="translate(-75.533333,-10.066667)" />   <use xlink:href="#dot" transform="translate(-75.533333,-10.066667)" />   <use xlink:href="#dot" transform="translate(-75.533333,-10.066667)" />   <use xlink:href="#dot" transform="translate(-75.533333,-10.066667)" />   <use xlink:href="#dot" transform="translate(-75.533333,-10.066667)" />   <use xlink:href="#dot" transform="translate(-75.533333,-10.066667)" />   <use xlink:href="#dot" transform="translate(-75.533333,-10.066667)" />   <use xlink:href="#dot" transform="translate(-75.533333,-10.066667)" />   <use xlink:href="#dot" transform="translate(-75.533333,-10.066667)" />   <use xlink:href="#dot" transform="translate(-75.533333,-10.066667)" />   <use xlink:href="#dot" transform="translate(-75.533333,-10.066667)" />   <use xlink:href="#dot" transform="translate(-75.533333,-10.066667)" />   <use xlink:href="#dot" transform="translate(-75.533333,-10.066667)" />   <use xlink:href="#dot" transform="translate(-75.045851,-6.86997)" />   <use xlink:href="#dot" transform="translate(-75.37,-9.36)" /><polygon class="region" points="-75.533333,-10.066667 -76.016667,-5.75 -54.700001,-2.433333 -69,-14 -71.586774,-13.180243 -75.533333,-10.066667 " />
		  </g>
		</svg>