<?xml version="1.0" encoding="UTF-8"?>
	<svg xmlns:xlink="http://www.w3.org/1999/xlink" 
	xmlns="http://www.w3.org/2000/svg" 
	width="360px" height="180px">
	   <style type="text/css">
		  <![CDATA[     
		  .region 
		  { 
			fill:blue; 
			opacity:0.4; 
			stroke:blue;
		  }
		  ]]>
	   </style>

	<circle id="dot" x="-2" y="-2" r="2" style="stroke:none; stroke-width:0; fill:black; opacity:0.7;"/>


	 <image x="0" y="0" width="360" height="180" xlink:href="map.jpg"/>

 
	 <g transform="translate(180,90) scale(1,-1)">   <use xlink:href="#dot" transform="translate(-77.52611,-5.75336)" />   <use xlink:href="#dot" transform="translate(-71.546231,-13.054669)" />   <use xlink:href="#dot" transform="translate(-71.385417,-12.77165)" />   <use xlink:href="#dot" transform="translate(-71.385417,-12.77165)" />   <use xlink:href="#dot" transform="translate(-71.385467,-12.771717)" />   <use xlink:href="#dot" transform="translate(-71.385417,-12.77165)" />   <use xlink:href="#dot" transform="translate(-71.385417,-12.77165)" />   <use xlink:href="#dot" transform="translate(-71.385417,-12.77165)" />   <use xlink:href="#dot" transform="translate(-71.385417,-12.77165)" />   <use xlink:href="#dot" transform="translate(-71.49185,-13.023617)" />   <use xlink:href="#dot" transform="translate(-71.49185,-13.023617)" />   <use xlink:href="#dot" transform="translate(-71.49185,-13.023617)" />   <use xlink:href="#dot" transform="translate(-71.49185,-13.023617)" />   <use xlink:href="#dot" transform="translate(-71.49185,-13.023617)" />   <use xlink:href="#dot" transform="translate(-71.49185,-13.023617)" />   <use xlink:href="#dot" transform="translate(-71.49185,-13.023617)" />   <use xlink:href="#dot" transform="translate(-71.56875,-13.100533)" />   <use xlink:href="#dot" transform="translate(-71.56875,-13.100533)" />   <use xlink:href="#dot" transform="translate(-71.56875,-13.100533)" />   <use xlink:href="#dot" transform="translate(-71.56875,-13.100533)" />   <use xlink:href="#dot" transform="translate(-71.56875,-13.100533)" />   <use xlink:href="#dot" transform="translate(-71.56875,-13.100533)" />   <use xlink:href="#dot" transform="translate(-71.56875,-13.100533)" />   <use xlink:href="#dot" transform="translate(-71.56875,-13.100533)" />   <use xlink:href="#dot" transform="translate(-71.56875,-13.100533)" />   <use xlink:href="#dot" transform="translate(-71.56875,-13.100533)" />   <use xlink:href="#dot" transform="translate(-71.56875,-13.100533)" />   <use xlink:href="#dot" transform="translate(-71.56875,-13.100533)" />   <use xlink:href="#dot" transform="translate(-71.56875,-13.100533)" />   <use xlink:href="#dot" transform="translate(-71.56875,-13.100533)" />   <use xlink:href="#dot" transform="translate(-71.56875,-13.100533)" />   <use xlink:href="#dot" transform="translate(-71.56875,-13.100533)" />   <use xlink:href="#dot" transform="translate(-71.56875,-13.100533)" />   <use xlink:href="#dot" transform="translate(-71.56875,-13.100533)" />   <use xlink:href="#dot" transform="translate(-71.56875,-13.100533)" />   <use xlink:href="#dot" transform="translate(-71.56875,-13.100533)" />   <use xlink:href="#dot" transform="translate(-71.56875,-13.100533)" />   <use xlink:href="#dot" transform="translate(-71.56875,-13.100533)" />   <use xlink:href="#dot" transform="translate(-71.56875,-13.100533)" />   <use xlink:href="#dot" transform="translate(-73.341,-11.78)" />   <use xlink:href="#dot" transform="translate(-73.3258,-11.7669)" />   <use xlink:href="#dot" transform="translate(-73.513,-12.865)" />   <use xlink:href="#dot" transform="translate(-65.583333,-17.016667)" />   <use xlink:href="#dot" transform="translate(-73.958846338722,-4.6720099717069)" />   <use xlink:href="#dot" transform="translate(-66.013333,-17.066667)" />   <use xlink:href="#dot" transform="translate(-65.984722,-17.041389)" />   <use xlink:href="#dot" transform="translate(-65.984722,-17.041389)" />   <use xlink:href="#dot" transform="translate(-65.583333,-17.016667)" />   <use xlink:href="#dot" transform="translate(-66.013333,-17.066667)" />   <use xlink:href="#dot" transform="translate(-65.984722,-17.041389)" />   <use xlink:href="#dot" transform="translate(-65.98333,-17.03333)" />   <use xlink:href="#dot" transform="translate(-66.013333,-17.066667)" />   <use xlink:href="#dot" transform="translate(-65.984722,-17.041389)" />   <use xlink:href="#dot" transform="translate(-65.984722,-17.041389)" />   <use xlink:href="#dot" transform="translate(-73.958846338722,-4.6720099717069)" />   <use xlink:href="#dot" transform="translate(-65.984722,-17.041389)" />   <use xlink:href="#dot" transform="translate(-76.11617557513,-2.5560502160293)" />   <use xlink:href="#dot" transform="translate(-65.98333,-17.03333)" />   <use xlink:href="#dot" transform="translate(-73.958846338722,-4.6720099717069)" />   <use xlink:href="#dot" transform="translate(-76.11617557513,-2.5560502160293)" />   <use xlink:href="#dot" transform="translate(-65.583333,-17.016667)" />   <use xlink:href="#dot" transform="translate(-65.984722,-17.041389)" />   <use xlink:href="#dot" transform="translate(-65.98333,-17.03333)" />   <use xlink:href="#dot" transform="translate(-76.11617549336,-2.5815219346724)" />   <use xlink:href="#dot" transform="translate(-76.11617549336,-2.5815219346724)" />   <use xlink:href="#dot" transform="translate(-66.483333,-17.033333)" />   <use xlink:href="#dot" transform="translate(-73.958846338722,-4.6720099717069)" />   <use xlink:href="#dot" transform="translate(-76.11617549336,-2.5815219346724)" />   <use xlink:href="#dot" transform="translate(-65.583333,-17.016667)" />   <use xlink:href="#dot" transform="translate(-73.958846338722,-4.6720099717069)" />   <use xlink:href="#dot" transform="translate(-66,-17.06667)" />   <use xlink:href="#dot" transform="translate(-65.98333,-17.03333)" />   <use xlink:href="#dot" transform="translate(-66,-17.06667)" />   <use xlink:href="#dot" transform="translate(-76.11617549336,-2.5815219346724)" />   <use xlink:href="#dot" transform="translate(-66.483333,-17.033333)" />   <use xlink:href="#dot" transform="translate(-65.984722,-17.041389)" />   <use xlink:href="#dot" transform="translate(-72.783333,-8.666667)" />   <use xlink:href="#dot" transform="translate(-72.783333,-8.666667)" />   <use xlink:href="#dot" transform="translate(-72.783333,-8.666667)" />   <use xlink:href="#dot" transform="translate(-72.783333,-8.666667)" />   <use xlink:href="#dot" transform="translate(-72.783333,-8.666667)" />   <use xlink:href="#dot" transform="translate(-72.783333,-8.666667)" />   <use xlink:href="#dot" transform="translate(-72.816667,-8.366667)" />   <use xlink:href="#dot" transform="translate(-72.816667,-8.366667)" />   <use xlink:href="#dot" transform="translate(-72.816667,-8.366667)" />   <use xlink:href="#dot" transform="translate(-72.816667,-8.366667)" />   <use xlink:href="#dot" transform="translate(-69.295,-12.838)" />   <use xlink:href="#dot" transform="translate(-69.607,-13.142)" />   <use xlink:href="#dot" transform="translate(-66.016667,-3.316667)" />   <use xlink:href="#dot" transform="translate(-66.016667,-3.316667)" />   <use xlink:href="#dot" transform="translate(-66.016667,-3.316667)" />   <use xlink:href="#dot" transform="translate(-66.016667,-3.316667)" />   <use xlink:href="#dot" transform="translate(-66.016667,-3.316667)" />   <use xlink:href="#dot" transform="translate(-66.016667,-3.316667)" />   <use xlink:href="#dot" transform="translate(-66.016667,-3.316667)" />   <use xlink:href="#dot" transform="translate(-66.016667,-3.316667)" />   <use xlink:href="#dot" transform="translate(-66.733,-10.767)" />   <use xlink:href="#dot" transform="translate(-67.75,-16.15)" />   <use xlink:href="#dot" transform="translate(-67.433333,-16.083333)" />   <use xlink:href="#dot" transform="translate(-67.75,-16.15)" />   <use xlink:href="#dot" transform="translate(-67.75,-16.15)" />   <use xlink:href="#dot" transform="translate(-67.75,-16.15)" />   <use xlink:href="#dot" transform="translate(-67.45,-16.083333)" />   <use xlink:href="#dot" transform="translate(-67.516667,-15.733333)" />   <use xlink:href="#dot" transform="translate(-67.51667,-15.73333)" />   <use xlink:href="#dot" transform="translate(-67.433333,-16.083333)" />   <use xlink:href="#dot" transform="translate(-65.583333,-17.016667)" />   <use xlink:href="#dot" transform="translate(-70.083333,-6.833333)" />   <use xlink:href="#dot" transform="translate(-70.083333,-6.833333)" />   <use xlink:href="#dot" transform="translate(-70.083333,-6.833333)" />   <use xlink:href="#dot" transform="translate(-70.083333,-6.833333)" />   <use xlink:href="#dot" transform="translate(-70.083333,-6.833333)" />   <use xlink:href="#dot" transform="translate(-70.083333,-6.833333)" />   <use xlink:href="#dot" transform="translate(-70.083333,-6.833333)" />   <use xlink:href="#dot" transform="translate(-70.083333,-6.833333)" />   <use xlink:href="#dot" transform="translate(-70.083333,-6.833333)" />   <use xlink:href="#dot" transform="translate(-70.083333,-6.833333)" />   <use xlink:href="#dot" transform="translate(-70.083333,-6.833333)" />   <use xlink:href="#dot" transform="translate(-70.083333,-6.833333)" />   <use xlink:href="#dot" transform="translate(-70.083333,-6.833333)" />   <use xlink:href="#dot" transform="translate(-70.083333,-6.833333)" />   <use xlink:href="#dot" transform="translate(-70.083333,-6.833333)" />   <use xlink:href="#dot" transform="translate(-70.083333,-6.833333)" />   <use xlink:href="#dot" transform="translate(-70.083333,-6.833333)" />   <use xlink:href="#dot" transform="translate(-70.85,-6.75)" />   <use xlink:href="#dot" transform="translate(-70.083333,-6.833333)" />   <use xlink:href="#dot" transform="translate(-70.85,-6.75)" />   <use xlink:href="#dot" transform="translate(-70.083333,-6.833333)" />   <use xlink:href="#dot" transform="translate(-70.85,-6.75)" />   <use xlink:href="#dot" transform="translate(-69.05449,-12.6)" />   <use xlink:href="#dot" transform="translate(-69.05449,-12.6)" />   <use xlink:href="#dot" transform="translate(-69.05449,-12.6)" />   <use xlink:href="#dot" transform="translate(-69.05449,-12.6)" />   <use xlink:href="#dot" transform="translate(-69.05449,-12.6)" />   <use xlink:href="#dot" transform="translate(-69.05449,-12.6)" />   <use xlink:href="#dot" transform="translate(-69.05449,-12.6)" />   <use xlink:href="#dot" transform="translate(-69.05449,-12.6)" />   <use xlink:href="#dot" transform="translate(-69.05449,-12.6)" />   <use xlink:href="#dot" transform="translate(-69.05449,-12.6)" />   <use xlink:href="#dot" transform="translate(-69.05449,-12.6)" />   <use xlink:href="#dot" transform="translate(-69.05449,-12.6)" />   <use xlink:href="#dot" transform="translate(-68.25,-13.88)" />   <use xlink:href="#dot" transform="translate(-76.95,-1.1167)" />   <use xlink:href="#dot" transform="translate(-69.05449,-12.6)" />   <use xlink:href="#dot" transform="translate(-69.05449,-12.6)" />   <use xlink:href="#dot" transform="translate(-69.05449,-12.6)" />   <use xlink:href="#dot" transform="translate(-69.05449,-12.6)" />   <use xlink:href="#dot" transform="translate(-69.05449,-12.6)" />   <use xlink:href="#dot" transform="translate(-69.05449,-12.6)" />   <use xlink:href="#dot" transform="translate(-69.05449,-12.6)" />   <use xlink:href="#dot" transform="translate(-69.05449,-12.6)" />   <use xlink:href="#dot" transform="translate(-72.067086,-13.101683)" />   <use xlink:href="#dot" transform="translate(-72.067086,-13.101683)" />   <use xlink:href="#dot" transform="translate(-72.050778,-13.114975)" />   <use xlink:href="#dot" transform="translate(-72.067086,-13.101683)" />   <use xlink:href="#dot" transform="translate(-72.050778,-13.114975)" />   <use xlink:href="#dot" transform="translate(-72.050778,-13.114975)" />   <use xlink:href="#dot" transform="translate(-72.050778,-13.114975)" />   <use xlink:href="#dot" transform="translate(-72.050778,-13.114975)" />   <use xlink:href="#dot" transform="translate(-76.43668,-0.25715)" />   <use xlink:href="#dot" transform="translate(-76.43668,-0.25715)" />   <use xlink:href="#dot" transform="translate(-70.4444,-13.72481)" />   <use xlink:href="#dot" transform="translate(-70.4444,-13.72481)" />   <use xlink:href="#dot" transform="translate(-69.22136,-14.20604)" />   <use xlink:href="#dot" transform="translate(-70.4444,-13.72481)" />   <use xlink:href="#dot" transform="translate(-69.22136,-14.20604)" />   <use xlink:href="#dot" transform="translate(-70.4444,-13.72481)" />   <use xlink:href="#dot" transform="translate(-68.233333,-12.133333)" />   <use xlink:href="#dot" transform="translate(-67.566667,-11.416667)" />   <use xlink:href="#dot" transform="translate(-67.58333,-15.63333)" />   <use xlink:href="#dot" transform="translate(-67.566667,-11.416667)" />   <use xlink:href="#dot" transform="translate(-76.43668,-0.25715)" />   <use xlink:href="#dot" transform="translate(-76.43668,-0.25715)" />   <use xlink:href="#dot" transform="translate(-76.43668,-0.25715)" />   <use xlink:href="#dot" transform="translate(-76.43668,-0.25715)" />   <use xlink:href="#dot" transform="translate(-71.55445,-13.06368)" />   <use xlink:href="#dot" transform="translate(-69.22136,-14.20604)" />   <use xlink:href="#dot" transform="translate(-71.25,-12.9333)" />   <use xlink:href="#dot" transform="translate(-71.25,-12.9333)" />   <use xlink:href="#dot" transform="translate(-69.22136,-14.20604)" />   <use xlink:href="#dot" transform="translate(-69.07289,-12.6)" />   <use xlink:href="#dot" transform="translate(-68.81967,-12.46667)" />   <use xlink:href="#dot" transform="translate(-69.07289,-12.6)" />   <use xlink:href="#dot" transform="translate(-68.81967,-12.46667)" />   <use xlink:href="#dot" transform="translate(-69.07289,-12.6)" />   <use xlink:href="#dot" transform="translate(-69.07289,-12.6)" />   <use xlink:href="#dot" transform="translate(-71.55445,-13.06368)" />   <use xlink:href="#dot" transform="translate(-71.2,-12.9)" />   <use xlink:href="#dot" transform="translate(-72.706,-3.199)" />   <use xlink:href="#dot" transform="translate(-69.07289,-12.6)" />   <use xlink:href="#dot" transform="translate(-76.32222,-0.053333)" />   <use xlink:href="#dot" transform="translate(-78.8,-0.033)" />   <use xlink:href="#dot" transform="translate(-78.8,-0.033)" />   <use xlink:href="#dot" transform="translate(-78.8,-0.033)" />   <use xlink:href="#dot" transform="translate(-67.550003,-15.46667)" />   <use xlink:href="#dot" transform="translate(-67.76667,-16.35)" />   <use xlink:href="#dot" transform="translate(-65.8,-11.08333)" />   <use xlink:href="#dot" transform="translate(-65.8,-11.08333)" />   <use xlink:href="#dot" transform="translate(-67.76667,-16.35)" />   <use xlink:href="#dot" transform="translate(-67.76667,-16.35)" />   <use xlink:href="#dot" transform="translate(-65.8,-11.08333)" />   <use xlink:href="#dot" transform="translate(-68.68,-9.08)" />   <use xlink:href="#dot" transform="translate(-56.75,-5.67)" />   <use xlink:href="#dot" transform="translate(-56.75,-5.67)" />   <use xlink:href="#dot" transform="translate(-56.75,-5.67)" />   <use xlink:href="#dot" transform="translate(-54.7,-9.17)" />   <use xlink:href="#dot" transform="translate(-54.7,-9.17)" />   <use xlink:href="#dot" transform="translate(-76.989,0.084)" />   <use xlink:href="#dot" transform="translate(-71.217,-10.133)" />   <use xlink:href="#dot" transform="translate(-71.216667,-10.133333)" />   <use xlink:href="#dot" transform="translate(-71.216667,-10.133333)" />   <use xlink:href="#dot" transform="translate(-71.217,-10.133)" />   <use xlink:href="#dot" transform="translate(-76.989,0.084)" />   <use xlink:href="#dot" transform="translate(-76.989,0.084)" />   <use xlink:href="#dot" transform="translate(-71.216667,-10.133333)" />   <use xlink:href="#dot" transform="translate(-71.216667,-10.133333)" />   <use xlink:href="#dot" transform="translate(-77.483,-1.733)" />   <use xlink:href="#dot" transform="translate(-76.78842,0.055486)" />   <use xlink:href="#dot" transform="translate(-76.78842,0.055486)" />   <use xlink:href="#dot" transform="translate(-76.989,0.084)" />   <use xlink:href="#dot" transform="translate(-76.633333,1.116667)" />   <use xlink:href="#dot" transform="translate(-76.61667,-0.4)" />   <use xlink:href="#dot" transform="translate(-76.61667,-0.4)" />   <use xlink:href="#dot" transform="translate(-76.61667,-0.4)" />   <use xlink:href="#dot" transform="translate(-71.133331,-12.2)" />   <use xlink:href="#dot" transform="translate(-71.133331,-12.2)" />   <use xlink:href="#dot" transform="translate(-71.133331,-12.2)" />   <use xlink:href="#dot" transform="translate(-71.133331,-12.2)" />   <use xlink:href="#dot" transform="translate(-72.76667,-3.433333)" />   <use xlink:href="#dot" transform="translate(-74.216667,-4.833333)" />   <use xlink:href="#dot" transform="translate(-74.216667,-4.833333)" />   <use xlink:href="#dot" transform="translate(-70.583336,-13.25)" />   <use xlink:href="#dot" transform="translate(-74.683333,0.133333)" />   <use xlink:href="#dot" transform="translate(-74.683333,0.133333)" />   <use xlink:href="#dot" transform="translate(-74.683333,0.133333)" />   <use xlink:href="#dot" transform="translate(-74.683333,0.133333)" />   <use xlink:href="#dot" transform="translate(-74.683333,0.133333)" />   <use xlink:href="#dot" transform="translate(-74.683333,0.133333)" />   <use xlink:href="#dot" transform="translate(-75.333333,0.466667)" />   <use xlink:href="#dot" transform="translate(-75.333333,0.466667)" />   <use xlink:href="#dot" transform="translate(-74.683333,0.133333)" />   <use xlink:href="#dot" transform="translate(-74.683333,0.133333)" />   <use xlink:href="#dot" transform="translate(-74.683333,0.133333)" />   <use xlink:href="#dot" transform="translate(-75.333333,0.466667)" />   <use xlink:href="#dot" transform="translate(-75.333333,0.466667)" />   <use xlink:href="#dot" transform="translate(-74.683333,0.133333)" />   <use xlink:href="#dot" transform="translate(-74.683333,0.133333)" />   <use xlink:href="#dot" transform="translate(-70.633331,-13.266666)" />   <use xlink:href="#dot" transform="translate(-70.633331,-13.266666)" />   <use xlink:href="#dot" transform="translate(-70.716667,-13.4)" />   <use xlink:href="#dot" transform="translate(-70.716667,-13.4)" />   <use xlink:href="#dot" transform="translate(-75.98333,-9.3)" />   <use xlink:href="#dot" transform="translate(-77.817,-0.983)" />   <use xlink:href="#dot" transform="translate(-75.98333,-9.3)" />   <use xlink:href="#dot" transform="translate(-75.98333,-9.3)" />   <use xlink:href="#dot" transform="translate(-74.083336,-2.366667)" />   <use xlink:href="#dot" transform="translate(-75.533333,-10.066667)" />   <use xlink:href="#dot" transform="translate(-75.533333,-10.066667)" />   <use xlink:href="#dot" transform="translate(-75.533333,-10.066667)" />   <use xlink:href="#dot" transform="translate(-76.166664,-10.116667)" />   <use xlink:href="#dot" transform="translate(-76.166664,-10.116667)" />   <use xlink:href="#dot" transform="translate(-76.166664,-10.116667)" />   <use xlink:href="#dot" transform="translate(-76.166664,-10.116667)" />   <use xlink:href="#dot" transform="translate(-76.166664,-10.116667)" />   <use xlink:href="#dot" transform="translate(-76,-9.433333)" />   <use xlink:href="#dot" transform="translate(-76,-9.433333)" />   <use xlink:href="#dot" transform="translate(-76,-9.433333)" />   <use xlink:href="#dot" transform="translate(-76.066666,-9.633333)" />   <use xlink:href="#dot" transform="translate(-76,-9.433333)" />   <use xlink:href="#dot" transform="translate(-76.066666,-9.633333)" />   <use xlink:href="#dot" transform="translate(-75.98333,-9.3)" />   <use xlink:href="#dot" transform="translate(-75.333336,-11.133333)" />   <use xlink:href="#dot" transform="translate(-76.083336,-5.9)" />   <use xlink:href="#dot" transform="translate(-76.083336,-5.9)" />   <use xlink:href="#dot" transform="translate(-76.083336,-5.9)" />   <use xlink:href="#dot" transform="translate(-67.8675,-16.194444)" />   <use xlink:href="#dot" transform="translate(-55.785556,-14.871111)" />   <use xlink:href="#dot" transform="translate(-67.873333,-16.194444)" />   <use xlink:href="#dot" transform="translate(-67.873333,-16.194444)" />   <use xlink:href="#dot" transform="translate(-77.346278,2.770167)" />   <use xlink:href="#dot" transform="translate(-67.503056,-16.360833)" /><polygon class="region" points="-77.52611,-5.75336 -78.8,-0.033 -77.346278,2.770167 -56.75,-5.67 -54.7,-9.17 -55.785556,-14.871111 -65.583333,-17.016667 -66,-17.06667 -66.013333,-17.066667 -66.483333,-17.033333 -67.76667,-16.35 -73.513,-12.865 -75.333336,-11.133333 -76.166664,-10.116667 -77.52611,-5.75336 " />
		  </g>
		</svg>