<?xml version="1.0" encoding="UTF-8"?>
	<svg xmlns:xlink="http://www.w3.org/1999/xlink" 
	xmlns="http://www.w3.org/2000/svg" 
	width="360px" height="180px">
	   <style type="text/css">
		  <![CDATA[     
		  .region 
		  { 
			fill:blue; 
			opacity:0.4; 
			stroke:blue;
		  }
		  ]]>
	   </style>

	<circle id="dot" x="-2" y="-2" r="2" style="stroke:none; stroke-width:0; fill:black; opacity:0.7;"/>


	 <image x="0" y="0" width="360" height="180" xlink:href="map.jpg"/>

 
	 <g transform="translate(180,90) scale(1,-1)"><polygon class="region" points="-71.24758948,-4.1461590979999 -70.181937351,-4.516820707 -69.625944937,-4.516820707 -68.745623614,-3.682832085 -67.818969589,-3.4975012809999 -67.726304186,-3.173172372 -67.170311772,-2.9415088659999 -63.715672041,-1.923697859 -62.114887873,-1.923697859 -58.246326131,-3.190985327 -57.045738004,-3.85797873 -56.578842622,-4.6583708159999 -56.605453951,-5.569700445 -56.374792386,-6.50912686 -56.51379049,-6.787123068 -56.930784801,-7.0187865739999 -58.04276963,-6.787123068 -58.797892887,-6.787123068 -59.277715439,-6.9853106429999 -59.804639175,-7.318124864 -60.118178309,-8.67680309 -66.484972061,-8.9503762579999 -67.601850068,-9.3983678669999 -67.438281291,-13.108066671 -67.000564221,-14.262048039 -66.252427019,-15.598057066 -64.971148712,-17.206690149 -65.090526095,-17.763784602 -65.528243166,-17.763784602 -67.995375745,-16.689388157 -68.472885276,-15.973123859 -68.791224964,-14.779350031 -68.711640042,-13.704953585 -69.388111878,-12.829519444 -71.154726147,-12.606154422 -72.205138322,-12.929622354 -74.0540698,-12.52889298 -75.454755948,-11.194906172 -76.121749351,-9.5941220029999 -78.522925605,-5.858958942 -78.73483315,-2.9697548409999 -78.401996838,-1.046700592 -77.662360588,-0.23310071699996 -76.996687963,0.025771970000051 -76.294033526,-0.085173467999937 -74.888724652,-1.2316096549999 -73.853233902,-2.415027654 -72.92868859,-2.932773029 -72.004143277,-3.154663904 -71.24758948,-4.1461590979999 " /><polygon class="region" points="-65.44245219,-16.536271542 -65.397582375,-16.565304952 -65.403712596,-16.563389258 -65.44245219,-16.536271542 " />
		  </g>
		</svg>