<?xml version="1.0" encoding="UTF-8"?>
	<svg xmlns:xlink="http://www.w3.org/1999/xlink" 
	xmlns="http://www.w3.org/2000/svg" 
	width="360px" height="180px">
	   <style type="text/css">
		  <![CDATA[     
		  .region 
		  { 
			fill:blue; 
			opacity:0.4; 
			stroke:blue;
		  }
		  ]]>
	   </style>

	<circle id="dot" x="-2" y="-2" r="2" style="stroke:none; stroke-width:0; fill:black; opacity:0.7;"/>


	 <image x="0" y="0" width="360" height="180" xlink:href="map.jpg"/>

 
	 <g transform="translate(180,90) scale(1,-1)">   <use xlink:href="#dot" transform="translate(-96.012522631261,17.171567843798)" />   <use xlink:href="#dot" transform="translate(-96.012522631261,17.171567843798)" />   <use xlink:href="#dot" transform="translate(-96.012522631261,17.171567843798)" />   <use xlink:href="#dot" transform="translate(-96.016689692331,17.159068440664)" />   <use xlink:href="#dot" transform="translate(-96.012522631261,17.171567843798)" />   <use xlink:href="#dot" transform="translate(-96.051667,17.185)" />   <use xlink:href="#dot" transform="translate(-96.049444,17.181667)" />   <use xlink:href="#dot" transform="translate(-96.025,17.141667)" />   <use xlink:href="#dot" transform="translate(-96.049444,17.181667)" />   <use xlink:href="#dot" transform="translate(-96.049444,17.181667)" />   <use xlink:href="#dot" transform="translate(-96.049444,17.181667)" />   <use xlink:href="#dot" transform="translate(-96.025,17.141667)" />   <use xlink:href="#dot" transform="translate(-96.025,17.141667)" />   <use xlink:href="#dot" transform="translate(-96.051667,17.185)" />   <use xlink:href="#dot" transform="translate(-96.049444,17.181667)" />   <use xlink:href="#dot" transform="translate(-96.025,17.141667)" />   <use xlink:href="#dot" transform="translate(-96.051667,17.185)" />   <use xlink:href="#dot" transform="translate(-96.051667,17.185)" />   <use xlink:href="#dot" transform="translate(-96.051667,17.185)" />   <use xlink:href="#dot" transform="translate(-96.025,17.141667)" />   <use xlink:href="#dot" transform="translate(-96.049423535266,17.182434213047)" />   <use xlink:href="#dot" transform="translate(-96.051667,17.185)" />   <use xlink:href="#dot" transform="translate(-96.025,17.141667)" />   <use xlink:href="#dot" transform="translate(-96.049444,17.181667)" />   <use xlink:href="#dot" transform="translate(-96.057778,17.190833)" />   <use xlink:href="#dot" transform="translate(-96.027778,17.144444)" />   <use xlink:href="#dot" transform="translate(-96.04942354843,17.186833998964)" />   <use xlink:href="#dot" transform="translate(-96.049444,17.186111)" />   <use xlink:href="#dot" transform="translate(-96.049444,17.186111)" />   <use xlink:href="#dot" transform="translate(-96.027778,17.144444)" />   <use xlink:href="#dot" transform="translate(-96.027778,17.144444)" />   <use xlink:href="#dot" transform="translate(-96.049444,17.186111)" />   <use xlink:href="#dot" transform="translate(-96.051667,17.185)" />   <use xlink:href="#dot" transform="translate(-96.027778,17.144444)" />   <use xlink:href="#dot" transform="translate(-96.057778,17.190833)" />   <use xlink:href="#dot" transform="translate(-96.049444,17.186111)" />   <use xlink:href="#dot" transform="translate(-96.049444,17.186111)" />   <use xlink:href="#dot" transform="translate(-96.027778,17.144444)" />   <use xlink:href="#dot" transform="translate(-96.051667,17.185)" />   <use xlink:href="#dot" transform="translate(-96.051667,17.185)" />   <use xlink:href="#dot" transform="translate(-96.049444,17.181667)" />   <use xlink:href="#dot" transform="translate(-96.025,17.141667)" />   <use xlink:href="#dot" transform="translate(-96.025,17.141667)" />   <use xlink:href="#dot" transform="translate(-96.025,17.141667)" />   <use xlink:href="#dot" transform="translate(-96.049023526717,17.182734199556)" />   <use xlink:href="#dot" transform="translate(-96.049444,17.181667)" />   <use xlink:href="#dot" transform="translate(-96.051667,17.185)" />   <use xlink:href="#dot" transform="translate(-96.049423535266,17.182434213047)" />   <use xlink:href="#dot" transform="translate(-96.051667,17.185)" />   <use xlink:href="#dot" transform="translate(-96.049444,17.181667)" />   <use xlink:href="#dot" transform="translate(-96.049444,17.181667)" />   <use xlink:href="#dot" transform="translate(-96.051667,17.185)" />   <use xlink:href="#dot" transform="translate(-96.049444,17.181667)" />   <use xlink:href="#dot" transform="translate(-96.025,17.141667)" />   <use xlink:href="#dot" transform="translate(-96.049444,17.181667)" />   <use xlink:href="#dot" transform="translate(-96.051667,17.185)" />   <use xlink:href="#dot" transform="translate(-96.025,17.141667)" />   <use xlink:href="#dot" transform="translate(-96.025,17.141667)" />   <use xlink:href="#dot" transform="translate(-96.051667,17.185)" />   <use xlink:href="#dot" transform="translate(-96.051667,17.185)" />   <use xlink:href="#dot" transform="translate(-96.025,17.141667)" />   <use xlink:href="#dot" transform="translate(-96.025,17.141667)" />   <use xlink:href="#dot" transform="translate(-96.051667,17.185)" />   <use xlink:href="#dot" transform="translate(-96.051667,17.185)" />   <use xlink:href="#dot" transform="translate(-96.049444,17.181667)" />   <use xlink:href="#dot" transform="translate(-96.049444,17.181667)" />   <use xlink:href="#dot" transform="translate(-96.025,17.141667)" />   <use xlink:href="#dot" transform="translate(-96.049444,17.181667)" />   <use xlink:href="#dot" transform="translate(-96.041389,17.193056)" />   <use xlink:href="#dot" transform="translate(-96.057778,17.190833)" />   <use xlink:href="#dot" transform="translate(-96.027778,17.144444)" />   <use xlink:href="#dot" transform="translate(-96.049444,17.186111)" />   <use xlink:href="#dot" transform="translate(-96.113636779536,17.424611275103)" />   <use xlink:href="#dot" transform="translate(-96.113636779536,17.424611275103)" />   <use xlink:href="#dot" transform="translate(-96.1135,17.424)" />   <use xlink:href="#dot" transform="translate(-96.1135,17.424)" />   <use xlink:href="#dot" transform="translate(-96.1135,17.424)" />   <use xlink:href="#dot" transform="translate(-96.113636779536,17.424611275103)" />   <use xlink:href="#dot" transform="translate(-95.98307792337,17.167402127815)" />   <use xlink:href="#dot" transform="translate(-96.113636779536,17.424611275103)" />   <use xlink:href="#dot" transform="translate(-96.1135,17.424)" />   <use xlink:href="#dot" transform="translate(-96.1135,17.424)" />   <use xlink:href="#dot" transform="translate(-96.1135,17.424)" />   <use xlink:href="#dot" transform="translate(-96.1135,17.424)" />   <use xlink:href="#dot" transform="translate(-96.113636779536,17.424611275103)" />   <use xlink:href="#dot" transform="translate(-96.113636779536,17.424611275103)" />   <use xlink:href="#dot" transform="translate(-96.1135,17.424)" />   <use xlink:href="#dot" transform="translate(-96.113636779536,17.424611275103)" />   <use xlink:href="#dot" transform="translate(-96.1135,17.424)" />   <use xlink:href="#dot" transform="translate(-96.113636779536,17.424611275103)" />   <use xlink:href="#dot" transform="translate(-96.1135,17.424)" />   <use xlink:href="#dot" transform="translate(-96.113636779536,17.424611275103)" />   <use xlink:href="#dot" transform="translate(-96.113636779536,17.424611275103)" />   <use xlink:href="#dot" transform="translate(-96.1135,17.424)" />   <use xlink:href="#dot" transform="translate(-96.025,17.141667)" />   <use xlink:href="#dot" transform="translate(-96.025,17.141667)" />   <use xlink:href="#dot" transform="translate(-96.025,17.141667)" />   <use xlink:href="#dot" transform="translate(-96.026944,17.256389)" />   <use xlink:href="#dot" transform="translate(-96.025,17.141667)" />   <use xlink:href="#dot" transform="translate(-96.058333,17.225)" />   <use xlink:href="#dot" transform="translate(-96.058333,17.225)" />   <use xlink:href="#dot" transform="translate(-96.026944,17.256389)" />   <use xlink:href="#dot" transform="translate(-96.025,17.141667)" />   <use xlink:href="#dot" transform="translate(-96.058333,17.225)" />   <use xlink:href="#dot" transform="translate(-96.025,17.141667)" />   <use xlink:href="#dot" transform="translate(-96.058333,17.225)" />   <use xlink:href="#dot" transform="translate(-96.025,17.141667)" />   <use xlink:href="#dot" transform="translate(-96.025,17.141667)" />   <use xlink:href="#dot" transform="translate(-96.058333,17.225)" />   <use xlink:href="#dot" transform="translate(-96.058333,17.225)" />   <use xlink:href="#dot" transform="translate(-96.058333,17.225)" />   <use xlink:href="#dot" transform="translate(-96.016944,17.25)" />   <use xlink:href="#dot" transform="translate(-95.966944,17.165833)" />   <use xlink:href="#dot" transform="translate(-96.025,17.141667)" />   <use xlink:href="#dot" transform="translate(-95.966944,17.165833)" />   <use xlink:href="#dot" transform="translate(-96.058333,17.225)" />   <use xlink:href="#dot" transform="translate(-96.016944,17.25)" />   <use xlink:href="#dot" transform="translate(-96.016944,17.25)" />   <use xlink:href="#dot" transform="translate(-96.016944,17.25)" />   <use xlink:href="#dot" transform="translate(-96.058333,17.225)" />   <use xlink:href="#dot" transform="translate(-96.016944,17.25)" />   <use xlink:href="#dot" transform="translate(-96.016944,17.25)" /><polygon class="region" points="-96.1135,17.424 -96.113636779536,17.424611275103 -95.966944,17.165833 -96.025,17.141667 -96.027778,17.144444 -96.057778,17.190833 -96.1135,17.424 " />
		  </g>
		</svg>