<?xml version="1.0" encoding="UTF-8"?>
	<svg xmlns:xlink="http://www.w3.org/1999/xlink" 
	xmlns="http://www.w3.org/2000/svg" 
	width="360px" height="180px">
	   <style type="text/css">
		  <![CDATA[     
		  .region 
		  { 
			fill:blue; 
			opacity:0.4; 
			stroke:blue;
		  }
		  ]]>
	   </style>

	<circle id="dot" x="-2" y="-2" r="2" style="stroke:none; stroke-width:0; fill:black; opacity:0.7;"/>


	 <image x="0" y="0" width="360" height="180" xlink:href="map.jpg"/>

 
	 <g transform="translate(180,90) scale(1,-1)">   <use xlink:href="#dot" transform="translate(-86.043343,13.240614)" />   <use xlink:href="#dot" transform="translate(-68.841417,5.868417)" />   <use xlink:href="#dot" transform="translate(-68.841417,5.868417)" />   <use xlink:href="#dot" transform="translate(-68.841417,5.743333)" />   <use xlink:href="#dot" transform="translate(-68.841417,5.743333)" />   <use xlink:href="#dot" transform="translate(-68.841417,5.868417)" />   <use xlink:href="#dot" transform="translate(-68.841417,5.868417)" />   <use xlink:href="#dot" transform="translate(-69.363167,-12.89025)" />   <use xlink:href="#dot" transform="translate(-69.208946,4.12614)" />   <use xlink:href="#dot" transform="translate(-69.208946,4.12614)" />   <use xlink:href="#dot" transform="translate(-75.887,1.42987)" />   <use xlink:href="#dot" transform="translate(-71.901697,5.564647)" />   <use xlink:href="#dot" transform="translate(-71.901697,5.564647)" />   <use xlink:href="#dot" transform="translate(-72.165917,5.797111)" />   <use xlink:href="#dot" transform="translate(-72.165917,5.797111)" />   <use xlink:href="#dot" transform="translate(-72.165917,5.797111)" />   <use xlink:href="#dot" transform="translate(-71.901698,5.564647)" />   <use xlink:href="#dot" transform="translate(-71.566833,6.222533)" />   <use xlink:href="#dot" transform="translate(-71.566834,6.222532)" />   <use xlink:href="#dot" transform="translate(-71.566833,6.222533)" />   <use xlink:href="#dot" transform="translate(-70.156072,6.095869)" />   <use xlink:href="#dot" transform="translate(-93.605275,15.884404)" />   <use xlink:href="#dot" transform="translate(-71.565367,6.216419)" />   <use xlink:href="#dot" transform="translate(-71.565367,6.216419)" />   <use xlink:href="#dot" transform="translate(-71.565367,6.216419)" />   <use xlink:href="#dot" transform="translate(-85.334297,10.383413)" />   <use xlink:href="#dot" transform="translate(-76.627778,5.720278)" />   <use xlink:href="#dot" transform="translate(-72.635722,7.535417)" />   <use xlink:href="#dot" transform="translate(-76.57,5.667778)" />   <use xlink:href="#dot" transform="translate(-76.57,5.667778)" />   <use xlink:href="#dot" transform="translate(-76.57,5.667778)" />   <use xlink:href="#dot" transform="translate(-74.81525,4.848722)" />   <use xlink:href="#dot" transform="translate(-72.635722,7.535417)" />   <use xlink:href="#dot" transform="translate(-84.332881,10.975611)" />   <use xlink:href="#dot" transform="translate(-72.447611,5.502222)" />   <use xlink:href="#dot" transform="translate(-72.447611,5.502222)" />   <use xlink:href="#dot" transform="translate(-73.213806,7.252972)" />   <use xlink:href="#dot" transform="translate(-85.334297,10.383413)" />   <use xlink:href="#dot" transform="translate(-75.631389,2.386306)" />   <use xlink:href="#dot" transform="translate(-89.272222,13.486111)" />   <use xlink:href="#dot" transform="translate(-85.77301,11.225821)" />   <use xlink:href="#dot" transform="translate(-76.57,5.667778)" />   <use xlink:href="#dot" transform="translate(-76.57,5.667778)" />   <use xlink:href="#dot" transform="translate(-88.7309,17.8143)" />   <use xlink:href="#dot" transform="translate(-75.522222,4.013167)" />   <use xlink:href="#dot" transform="translate(-72.404425,4.889997)" />   <use xlink:href="#dot" transform="translate(-72.404425,4.889997)" />   <use xlink:href="#dot" transform="translate(-76.173375,7.47211)" />   <use xlink:href="#dot" transform="translate(-101.8525,18.946667)" />   <use xlink:href="#dot" transform="translate(-101.8525,18.946667)" />   <use xlink:href="#dot" transform="translate(-64.360716,-22.725707)" />   <use xlink:href="#dot" transform="translate(-73.265072,10.57055)" />   <use xlink:href="#dot" transform="translate(-74.989444,4.696944)" />   <use xlink:href="#dot" transform="translate(-84.104325586463,10.362409553974)" />   <use xlink:href="#dot" transform="translate(-84.104325586463,10.362409553974)" />   <use xlink:href="#dot" transform="translate(-97.41,18.522)" />   <use xlink:href="#dot" transform="translate(-97.41,18.522)" />   <use xlink:href="#dot" transform="translate(-97.409583,18.522111)" />   <use xlink:href="#dot" transform="translate(-97.409583,18.522111)" />   <use xlink:href="#dot" transform="translate(-97.41,18.522)" />   <use xlink:href="#dot" transform="translate(-97.409583,18.522111)" />   <use xlink:href="#dot" transform="translate(-97.41,18.522)" />   <use xlink:href="#dot" transform="translate(-97.409583,18.522111)" />   <use xlink:href="#dot" transform="translate(-97.41,18.522)" />   <use xlink:href="#dot" transform="translate(-97.409583,18.522111)" />   <use xlink:href="#dot" transform="translate(-97.41,18.522)" />   <use xlink:href="#dot" transform="translate(-97.409583,18.522111)" />   <use xlink:href="#dot" transform="translate(-97.409583,18.522111)" />   <use xlink:href="#dot" transform="translate(-97.41,18.522)" />   <use xlink:href="#dot" transform="translate(-91.781,16.118)" />   <use xlink:href="#dot" transform="translate(-91.768,16.069)" />   <use xlink:href="#dot" transform="translate(-91.7675,16.068889)" />   <use xlink:href="#dot" transform="translate(-91.7675,16.068889)" />   <use xlink:href="#dot" transform="translate(-91.780556,16.1175)" />   <use xlink:href="#dot" transform="translate(-88.645,15.4567)" />   <use xlink:href="#dot" transform="translate(-73.9675,11.308333)" />   <use xlink:href="#dot" transform="translate(-91.7881,15.7792)" />   <use xlink:href="#dot" transform="translate(-84.0036,10.4313)" />   <use xlink:href="#dot" transform="translate(-92.502222,15.279722)" />   <use xlink:href="#dot" transform="translate(-91.7881,15.7792)" />   <use xlink:href="#dot" transform="translate(-103.5095,18.95965)" />   <use xlink:href="#dot" transform="translate(-104.01965,19.141633)" />   <use xlink:href="#dot" transform="translate(-103.5095,18.95965)" />   <use xlink:href="#dot" transform="translate(-99.162222,18.851111)" />   <use xlink:href="#dot" transform="translate(-99.162222,18.851111)" />   <use xlink:href="#dot" transform="translate(-99.162222,18.851111)" />   <use xlink:href="#dot" transform="translate(-99.162222,18.851111)" />   <use xlink:href="#dot" transform="translate(-99.162222,18.851111)" />   <use xlink:href="#dot" transform="translate(-91.308,16.202556)" />   <use xlink:href="#dot" transform="translate(-91.308,16.203)" />   <use xlink:href="#dot" transform="translate(-79.837211,9.163626)" />   <use xlink:href="#dot" transform="translate(-92.519167,15.445556)" />   <use xlink:href="#dot" transform="translate(-92.440731,15.141222)" />   <use xlink:href="#dot" transform="translate(-80.28115,7.856317)" />   <use xlink:href="#dot" transform="translate(-92.741389,15.643611)" />   <use xlink:href="#dot" transform="translate(-99.025556,22.653611)" />   <use xlink:href="#dot" transform="translate(-103.7725,19.018889)" />   <use xlink:href="#dot" transform="translate(-103.7725,19.018889)" />   <use xlink:href="#dot" transform="translate(-103.7725,19.018889)" />   <use xlink:href="#dot" transform="translate(-103.7725,19.018889)" />   <use xlink:href="#dot" transform="translate(-103.7725,19.018889)" />   <use xlink:href="#dot" transform="translate(-103.661389,19.448056)" />   <use xlink:href="#dot" transform="translate(-103.661389,19.448056)" />   <use xlink:href="#dot" transform="translate(-103.661389,19.448056)" />   <use xlink:href="#dot" transform="translate(-103.661389,19.448056)" />   <use xlink:href="#dot" transform="translate(-103.661389,19.448056)" />   <use xlink:href="#dot" transform="translate(-103.661389,19.448056)" />   <use xlink:href="#dot" transform="translate(-103.661389,19.448056)" />   <use xlink:href="#dot" transform="translate(-103.661389,19.448056)" />   <use xlink:href="#dot" transform="translate(-103.661389,19.448056)" />   <use xlink:href="#dot" transform="translate(-99.85,17.832778)" />   <use xlink:href="#dot" transform="translate(-99.85,17.832778)" />   <use xlink:href="#dot" transform="translate(-99.85,17.832778)" />   <use xlink:href="#dot" transform="translate(-99.85,17.832778)" />   <use xlink:href="#dot" transform="translate(-99.85,17.832778)" />   <use xlink:href="#dot" transform="translate(-88.1706,18.20467)" />   <use xlink:href="#dot" transform="translate(-88.1425,18.35457)" />   <use xlink:href="#dot" transform="translate(-101.87,19.163889)" />   <use xlink:href="#dot" transform="translate(-101.894722,19.230556)" />   <use xlink:href="#dot" transform="translate(-101.857222,19.151389)" />   <use xlink:href="#dot" transform="translate(-99.85,17.832778)" />   <use xlink:href="#dot" transform="translate(-96.274444,15.704167)" />   <use xlink:href="#dot" transform="translate(-96.274444,15.704167)" />   <use xlink:href="#dot" transform="translate(-96.274444,15.704167)" />   <use xlink:href="#dot" transform="translate(-89.745,17.3417)" />   <use xlink:href="#dot" transform="translate(-96.473333,18.376389)" />   <use xlink:href="#dot" transform="translate(-96.473333,18.376389)" />   <use xlink:href="#dot" transform="translate(-96.414444,18.340556)" />   <use xlink:href="#dot" transform="translate(-87.783333,19.616667)" />   <use xlink:href="#dot" transform="translate(-99.191667,23.058333)" />   <use xlink:href="#dot" transform="translate(-99.139444,23.078056)" />   <use xlink:href="#dot" transform="translate(-89.480833,18.049167)" />   <use xlink:href="#dot" transform="translate(-89.466667,18.516667)" />   <use xlink:href="#dot" transform="translate(-89.480833,18.049167)" />   <use xlink:href="#dot" transform="translate(-89.480833,18.049167)" />   <use xlink:href="#dot" transform="translate(-99.490555,23.198889)" />   <use xlink:href="#dot" transform="translate(-99.395,23.269722)" />   <use xlink:href="#dot" transform="translate(-96.852778,18.153056)" />   <use xlink:href="#dot" transform="translate(-96.831667,18.144167)" />   <use xlink:href="#dot" transform="translate(-96.858333,18.158333)" />   <use xlink:href="#dot" transform="translate(-99.006217859008,21.201093092878)" />   <use xlink:href="#dot" transform="translate(-99.006217859008,21.201093092878)" />   <use xlink:href="#dot" transform="translate(-99.006217859008,21.201093092878)" />   <use xlink:href="#dot" transform="translate(-99.006217859008,21.201093092878)" />   <use xlink:href="#dot" transform="translate(-99.006217859008,21.201093092878)" />   <use xlink:href="#dot" transform="translate(-99.131944,23.026111)" />   <use xlink:href="#dot" transform="translate(-93.016667,17.346389)" />   <use xlink:href="#dot" transform="translate(-99.131944,23.026111)" />   <use xlink:href="#dot" transform="translate(-88.809722,19.896667)" />   <use xlink:href="#dot" transform="translate(-93.331667,15.722222)" />   <use xlink:href="#dot" transform="translate(-93.812,16.145)" />   <use xlink:href="#dot" transform="translate(-92.458,17.52)" />   <use xlink:href="#dot" transform="translate(-92.6975,15.818056)" />   <use xlink:href="#dot" transform="translate(-91.980556,17.509167)" />   <use xlink:href="#dot" transform="translate(-92.9325,16.756667)" />   <use xlink:href="#dot" transform="translate(-91.985,17.486944)" />   <use xlink:href="#dot" transform="translate(-93.555833,17.354722)" />   <use xlink:href="#dot" transform="translate(-93.89,16.406667)" />   <use xlink:href="#dot" transform="translate(-87.049167,20.8625)" />   <use xlink:href="#dot" transform="translate(-87.047778,20.967778)" />   <use xlink:href="#dot" transform="translate(-86.917778,20.808333)" />   <use xlink:href="#dot" transform="translate(-88.876667,20.026667)" />   <use xlink:href="#dot" transform="translate(-86.928056,20.833611)" />   <use xlink:href="#dot" transform="translate(-93.075,16.835)" />   <use xlink:href="#dot" transform="translate(-69.05449,-12.6)" />   <use xlink:href="#dot" transform="translate(-96.916667,17.650833)" />   <use xlink:href="#dot" transform="translate(-88.645,15.6853)" />   <use xlink:href="#dot" transform="translate(-89.313055,20.201944)" />   <use xlink:href="#dot" transform="translate(-88.0775,21.5725)" />   <use xlink:href="#dot" transform="translate(-88.0775,21.5725)" />   <use xlink:href="#dot" transform="translate(-99.756389,18.364167)" />   <use xlink:href="#dot" transform="translate(-89.81,18.122778)" />   <use xlink:href="#dot" transform="translate(-89.81,18.122778)" />   <use xlink:href="#dot" transform="translate(-90.275,19.601389)" />   <use xlink:href="#dot" transform="translate(-90.3925,19.579444)" />   <use xlink:href="#dot" transform="translate(-90.3925,19.579444)" />   <use xlink:href="#dot" transform="translate(-90.3925,19.579444)" />   <use xlink:href="#dot" transform="translate(-90.3925,19.579444)" />   <use xlink:href="#dot" transform="translate(-90.275,19.601389)" />   <use xlink:href="#dot" transform="translate(-103.434444,19.523611)" />   <use xlink:href="#dot" transform="translate(-90.365278,19.590278)" />   <use xlink:href="#dot" transform="translate(-90.365278,19.590278)" />   <use xlink:href="#dot" transform="translate(-90.365278,19.590278)" />   <use xlink:href="#dot" transform="translate(-90.365278,19.590278)" />   <use xlink:href="#dot" transform="translate(-90.365278,19.590278)" />   <use xlink:href="#dot" transform="translate(-90.365278,19.590278)" />   <use xlink:href="#dot" transform="translate(-90.365278,19.590278)" />   <use xlink:href="#dot" transform="translate(-92.721111,15.359167)" />   <use xlink:href="#dot" transform="translate(-93.075,16.834722)" />   <use xlink:href="#dot" transform="translate(-90.409444,19.570556)" />   <use xlink:href="#dot" transform="translate(-89.761667,20.016944)" />   <use xlink:href="#dot" transform="translate(-99.333305,16.794444)" />   <use xlink:href="#dot" transform="translate(-99.333305,16.794444)" />   <use xlink:href="#dot" transform="translate(-99.333305,16.794444)" />   <use xlink:href="#dot" transform="translate(-99.333305,16.794444)" />   <use xlink:href="#dot" transform="translate(-99.333305,16.794444)" />   <use xlink:href="#dot" transform="translate(-92.916944,17.515833)" />   <use xlink:href="#dot" transform="translate(-99.333305,16.794444)" />   <use xlink:href="#dot" transform="translate(-99.861389,19.736944)" />   <use xlink:href="#dot" transform="translate(-99.861389,19.736944)" />   <use xlink:href="#dot" transform="translate(-101.244797,19.023939)" />   <use xlink:href="#dot" transform="translate(-101.244797,19.023939)" />   <use xlink:href="#dot" transform="translate(-101.244797,19.023939)" />   <use xlink:href="#dot" transform="translate(-101.244797,19.023939)" />   <use xlink:href="#dot" transform="translate(-90.930833,16.122778)" />   <use xlink:href="#dot" transform="translate(-91.985,17.486944)" />   <use xlink:href="#dot" transform="translate(-91.986111,17.45)" />   <use xlink:href="#dot" transform="translate(-91.9775,17.485556)" />   <use xlink:href="#dot" transform="translate(-91.9875,17.449444)" />   <use xlink:href="#dot" transform="translate(-91.986111,17.45)" />   <use xlink:href="#dot" transform="translate(-91.986111,17.45)" />   <use xlink:href="#dot" transform="translate(-91.9875,17.449444)" />   <use xlink:href="#dot" transform="translate(-91.986111,17.45)" />   <use xlink:href="#dot" transform="translate(-91.986111,17.45)" />   <use xlink:href="#dot" transform="translate(-91.9875,17.449444)" />   <use xlink:href="#dot" transform="translate(-91.986111,17.45)" />   <use xlink:href="#dot" transform="translate(-91.985,17.486944)" />   <use xlink:href="#dot" transform="translate(-90.950833,16.106667)" />   <use xlink:href="#dot" transform="translate(-90.968055,16.122778)" />   <use xlink:href="#dot" transform="translate(-93.689444,16.948056)" />   <use xlink:href="#dot" transform="translate(-100.326667,17.258333)" />   <use xlink:href="#dot" transform="translate(-100.326667,17.258333)" />   <use xlink:href="#dot" transform="translate(-100.326667,17.258333)" />   <use xlink:href="#dot" transform="translate(-100.326667,17.258333)" />   <use xlink:href="#dot" transform="translate(-90.950833,16.106667)" />   <use xlink:href="#dot" transform="translate(-90.930833,16.122778)" />   <use xlink:href="#dot" transform="translate(-90.930833,16.122778)" />   <use xlink:href="#dot" transform="translate(-90.950833,16.106667)" />   <use xlink:href="#dot" transform="translate(-88.712778,18.126111)" />   <use xlink:href="#dot" transform="translate(-88.712778,18.126111)" />   <use xlink:href="#dot" transform="translate(-88.712778,18.126111)" />   <use xlink:href="#dot" transform="translate(-88.712778,18.126111)" />   <use xlink:href="#dot" transform="translate(-88.712778,18.126111)" />   <use xlink:href="#dot" transform="translate(-93.8875,16.3075)" />   <use xlink:href="#dot" transform="translate(-93.8875,16.3075)" />   <use xlink:href="#dot" transform="translate(-93.086389,15.768056)" />   <use xlink:href="#dot" transform="translate(-92.695556,15.813056)" />   <use xlink:href="#dot" transform="translate(-93.8875,16.3075)" />   <use xlink:href="#dot" transform="translate(-93.8875,16.3075)" />   <use xlink:href="#dot" transform="translate(-93.8875,16.3075)" />   <use xlink:href="#dot" transform="translate(-93.8875,16.3075)" />   <use xlink:href="#dot" transform="translate(-93.8875,16.3075)" />   <use xlink:href="#dot" transform="translate(-92.9775,15.291667)" />   <use xlink:href="#dot" transform="translate(-89.084167,18.463333)" />   <use xlink:href="#dot" transform="translate(-89.084167,18.463333)" />   <use xlink:href="#dot" transform="translate(-89.084167,18.463333)" />   <use xlink:href="#dot" transform="translate(-89.004444,18.396944)" />   <use xlink:href="#dot" transform="translate(-89.004444,18.396944)" />   <use xlink:href="#dot" transform="translate(-88.504444,18.743333)" />   <use xlink:href="#dot" transform="translate(-88.504444,18.743333)" />   <use xlink:href="#dot" transform="translate(-89.345,20.150278)" />   <use xlink:href="#dot" transform="translate(-88.999722,18.419444)" />   <use xlink:href="#dot" transform="translate(-88.504444,18.743333)" />   <use xlink:href="#dot" transform="translate(-88.504444,18.743333)" />   <use xlink:href="#dot" transform="translate(-88.504444,18.743333)" />   <use xlink:href="#dot" transform="translate(-89.010833,18.385)" />   <use xlink:href="#dot" transform="translate(-88.7225,18.110556)" />   <use xlink:href="#dot" transform="translate(-90.924167,16.117778)" />   <use xlink:href="#dot" transform="translate(-87.593056,20.063889)" />   <use xlink:href="#dot" transform="translate(-87.593056,20.063889)" />   <use xlink:href="#dot" transform="translate(-88.615278,18.276667)" />   <use xlink:href="#dot" transform="translate(-90.922778,16.125278)" />   <use xlink:href="#dot" transform="translate(-88.7225,18.110556)" />   <use xlink:href="#dot" transform="translate(-87.593056,20.063889)" />   <use xlink:href="#dot" transform="translate(-88.7225,18.110556)" />   <use xlink:href="#dot" transform="translate(-88.615278,18.276667)" />   <use xlink:href="#dot" transform="translate(-87.593056,20.063889)" />   <use xlink:href="#dot" transform="translate(-89.983333,20.566667)" />   <use xlink:href="#dot" transform="translate(-89.983333,20.566667)" />   <use xlink:href="#dot" transform="translate(-88.999722,18.419444)" />   <use xlink:href="#dot" transform="translate(-88.905556,18.909722)" />   <use xlink:href="#dot" transform="translate(-88.999722,18.419444)" />   <use xlink:href="#dot" transform="translate(-88.905556,18.909722)" />   <use xlink:href="#dot" transform="translate(-93.645836,16.028334)" />   <use xlink:href="#dot" transform="translate(-93.6425,16.031667)" />   <use xlink:href="#dot" transform="translate(-90.924167,16.117778)" />   <use xlink:href="#dot" transform="translate(-96.059444,17.816389)" />   <use xlink:href="#dot" transform="translate(-96.059444,17.816389)" />   <use xlink:href="#dot" transform="translate(-98.594530766541,18.203455594345)" />   <use xlink:href="#dot" transform="translate(-98.594530766541,18.203455594345)" />   <use xlink:href="#dot" transform="translate(-98.594530766541,18.203455594345)" />   <use xlink:href="#dot" transform="translate(-90.820833,18.613611)" />   <use xlink:href="#dot" transform="translate(-99.270225,21.940893)" />   <use xlink:href="#dot" transform="translate(-99.270225,21.940893)" />   <use xlink:href="#dot" transform="translate(-88.85948,16.1575)" />   <use xlink:href="#dot" transform="translate(-96.958333,19.158333)" />   <use xlink:href="#dot" transform="translate(-96.958333,19.158333)" />   <use xlink:href="#dot" transform="translate(-92.720278,15.382778)" />   <use xlink:href="#dot" transform="translate(-102.081944,18.024167)" />   <use xlink:href="#dot" transform="translate(-102.081944,18.024167)" />   <use xlink:href="#dot" transform="translate(-84,10.43333)" />   <use xlink:href="#dot" transform="translate(-96.958333,19.158333)" />   <use xlink:href="#dot" transform="translate(-99.849167,16.815)" />   <use xlink:href="#dot" transform="translate(-89.650001,17.25)" />   <use xlink:href="#dot" transform="translate(-82.950569,8.80278)" />   <use xlink:href="#dot" transform="translate(-97.2025,18.432778)" />   <use xlink:href="#dot" transform="translate(-97.2417224898,18.405393941419)" />   <use xlink:href="#dot" transform="translate(-102.795097,18.916667)" />   <use xlink:href="#dot" transform="translate(-88.400001,18.4)" />   <use xlink:href="#dot" transform="translate(-84,10.43333)" /><polygon class="region" points="-64.360716,-22.725707 -104.01965,19.141633 -99.490555,23.198889 -99.395,23.269722 -88.0775,21.5725 -87.047778,20.967778 -73.9675,11.308333 -73.265072,10.57055 -68.841417,5.868417 -64.360716,-22.725707 " />
		  </g>
		</svg>