<?xml version="1.0" encoding="UTF-8"?>
	<svg xmlns:xlink="http://www.w3.org/1999/xlink" 
	xmlns="http://www.w3.org/2000/svg" 
	width="360px" height="180px">
	   <style type="text/css">
		  <![CDATA[     
		  .region 
		  { 
			fill:blue; 
			opacity:0.4; 
			stroke:blue;
		  }
		  ]]>
	   </style>

	<circle id="dot" x="-2" y="-2" r="2" style="stroke:none; stroke-width:0; fill:black; opacity:0.7;"/>


	 <image x="0" y="0" width="360" height="180" xlink:href="map.jpg"/>

 
	 <g transform="translate(180,90) scale(1,-1)"><polygon class="region" points="-46.2176,-1.055264408 -46.0579,-1.299664407 -46.8752,-3.6572644079999 -48.1954,-4.977464407 -48.8555,-6.140464407 -49.547,-6.8948644069999 -50.3958,-7.4607644079999 -53.1619,-7.995064407 -54.6079,-8.6237644079999 -56.8083,-8.875264408 -60.2031,-8.812364408 -61.6176,-8.969564407 -61.9948,-8.843764407 -62.5607,-8.215164407 -63.095,-7.995064407 -63.4408,-8.0893644079999 -63.9437,-8.655164407 -64.7296,-9.189564408 -65.7355,-9.535364407 -66.2384,-9.472464407 -66.7728,-9.849664408 -70.4348,-8.152264407 -72.6981,-7.6493644079999 -73.8048,-7.111464408 -73.6764,-6.8044644079999 -73.1239,-6.447264408 -73.2297,-6.093564407 -72.9629,-5.6527644069999 -72.8903,-5.1235644079999 -71.9025,-4.518164408 -70.9503,-4.381364408 -70.7658,-4.146364407 -70.3239,-4.136664407 -70.1941,-4.333164407 -69.9503,-4.2624644069999 -69.38,-1.1874644069999 -69.6075,-0.51746440799997 -70.0581,-0.15746440699996 -70.0442,0.59083559300007 -69.4642,0.74023559200003 -69.1247,0.64503559300005 -69.27,1.0383355930001 -69.8422,1.062235593 -69.8461,1.7104355930001 -68.1531,1.724135593 -68.2772,1.837735593 -68.1867,2.020035593 -67.9147,1.7452355930001 -67.4242,2.143935593 -67.0725,1.6252355930001 -67.0767,1.173335593 -66.8719,1.221635592 -67.1925,2.3925355920001 -67.6069,2.7955355930001 -67.8551,2.789735593 -67.2906,3.397535593 -67.6186,3.763335592 -67.8772,4.548635593 -67.8497,5.3077355930001 -67.6131,5.539135593 -67.4545,6.193035593 -67.8228,6.309435593 -68.6372,6.1339355920001 -69.0564,6.216135593 -69.2453,6.081435592 -69.4295,6.118635593 -70.1192,6.9758355930001 -70.7025,7.1080355930001 -71.1867,6.9627355920001 -72,7.018935593 -72.1833,7.3827355920001 -72.4717,7.4919355920001 -72.4811,7.9484355920001 -72.3247,8.082535593 -72.4948,8.4593355920001 -71.8651,8.664835593 -71.7079,8.4448355920001 -71.8022,8.224735593 -71.5822,8.067635593 -71.3621,7.470335592 -70.8906,7.313135593 -70.5448,7.344635592 -69.7276,7.9733355930001 -69.3189,8.067635593 -67.9044,8.067635593 -66.3327,7.721835592 -65.2325,7.847535592 -64.7925,7.564635593 -64.2266,7.9733355930001 -62.5292,8.381935592 -61.5548,8.2562355920001 -61.5233,8.067635593 -60.989,8.004735593 -60.5752,7.6886355930001 -60.7192,7.535535592 -60.6308,7.2219355930001 -60.2886,7.057235593 -60.7119,6.7586355930001 -61.134,6.7110355930001 -61.1081,6.1966355920001 -61.3888,5.9389355920001 -60.5797,4.981135592 -60.985,4.520535592 -61.3072,4.523035592 -61.8489,4.160535593 -62.4383,4.1841355920001 -62.7458,4.032535593 -62.7325,3.681935593 -62.875,3.5602355930001 -63.3431,3.9611355930001 -64.0178,3.8861355930001 -64.13,4.112735593 -64.8006,4.265535593 -64.1911,3.5944355930001 -64.0367,2.470535592 -63.3611,2.419135593 -63.3915,2.1748355930001 -62.6864,1.9065355920001 -62.7493,1.560835593 -62.4664,0.71203559300005 -62.4978,-0.13666440699995 -62.1834,-0.48236440799997 -62.3406,-0.76536440699994 -61.4605,-1.3939644069999 -61.3976,-0.76536440699994 -61.209,-0.54526440799998 -60.8947,-0.57666440699995 -60.5489,-0.85966440799996 -60.266,-0.76536440699994 -59.8888,0.14623559300003 -58.7886,0.20913559300004 -58.8589,1.199235592 -58.5103,1.2697355930001 -58.312,1.6033355920001 -58.0086,1.5136355930001 -57.977,1.660235593 -57.5542,1.701435593 -57.1006,2.023935593 -56.7833,1.8725355930001 -55.9658,1.8452355920001 -55.9014,2.045235593 -56.1381,2.266935592 -55.9658,2.532735593 -55.7103,2.399135593 -54.9483,2.6175355930001 -54.6925,2.327235592 -54.1108,2.112235593 -53.745,2.3739355930001 -52.9644,2.1739355930001 -52.6761,2.373335592 -52.1546,3.364935593 -53.0676,3.855435592 -53.4448,4.829935592 -53.462,5.554735592 -52.9099,5.443935593 -51.945,4.5093355920001 -51.9079,4.6601355930001 -51.7994,4.608635593 -51.6625,4.205035593 -51.5293,4.171135593 -51.5446,4.396635593 -51.2324,4.1244355920001 -50.8599,2.4774355930001 -50.477,1.8247355930001 -49.9411,1.652135593 -49.9068,1.3107355920001 -50.0726,1.205035593 -49.9182,1.231635593 -49.939,1.1026355930001 -50.4554,0.73183559300003 -50.7849,0.18343559200002 -51.2026,-0.055364407999946 -51.4094,-0.43996440699993 -51.1884,-0.14026440799995 -51.154,-0.28386440699995 -51.396,-0.49276440799997 -50.7134,-0.000164406999943 -50.6133,-0.087964407999948 -50.7506,-0.42856440699995 -50.9885,-0.58326440699994 -51.0509,-0.68196440699995 -50.6843,-0.60406440799994 -50.6515,-0.27466440699993 -50.4089,-0.094364407999933 -48.3634,-0.30316440699994 -48.8373,-1.452064407 -49.8029,-1.8217644069999 -50.2485,-1.774464408 -50.4043,-1.9317644069999 -49.7638,-1.8977644079999 -49.2763,-1.7064644069999 -49.3826,-2.158864407 -48.6011,-1.3058644079999 -48.4959,-1.552564408 -48.3187,-1.478164407 -48.5054,-1.470664407 -48.4786,-1.149064408 -48.2783,-1.111064407 -48.2398,-0.84586440699997 -47.8933,-0.55346440699998 -47.7024,-0.53986440799997 -47.6199,-0.70086440699993 -47.5766,-0.57296440699997 -47.4063,-0.76386440699997 -47.4657,-0.59476440699996 -47.2976,-0.58886440699996 -47.1605,-0.81456440699998 -47.0808,-0.66116440699994 -47.0552,-0.86796440699993 -46.8205,-0.70976440699997 -46.7339,-0.94356440699994 -46.5948,-0.85656440699995 -46.6093,-1.029864408 -46.3478,-1.078664407 -46.1978,-0.90946440699997 -46.2176,-1.055264408 " /><polygon class="region" points="-88.9529,15.883535593 -88.6194,15.690435592 -88.492,15.839335592 -88.5923,15.960935592 -88.1478,15.674635592 -87.7259,15.922835592 -86.9215,15.749835593 -85.9337,15.926035592 -86.0347,16.025635593 -85.4547,15.860235593 -85.0381,15.990335592 -84.304,15.815435592 -83.3986,15.254635592 -83.1556,14.996035592 -83.3171,14.774035592 -83.2037,14.326935592 -83.5461,13.553235593 -83.4974,12.383935593 -83.6827,12.219035593 -83.6479,11.602835593 -83.8785,11.287335592 -83.2799,10.184435593 -82.3436,9.428835592 -82.3675,9.218035592 -82.1752,9.193935593 -82.2665,9.009035592 -81.7944,8.937635593 -81.8893,9.187235592 -81.5078,8.796435592 -80.8343,8.8839355920001 -79.5411,9.6375355930001 -78.5617,9.442835593 -78.0453,9.2365355920001 -77.5456,8.706435593 -77.3609,8.686935593 -77.4425,8.475235592 -77.1769,7.9262355920001 -77.5751,7.508035593 -77.7438,7.7244355930001 -77.8868,7.2208355930001 -78.4452,8.0720355930001 -78.2821,8.081035593 -78.15,8.415535592 -78.0185,8.2296355930001 -77.7784,8.0995355920001 -77.7552,8.1080355930001 -77.7486,8.143935593 -78.0206,8.2615355930001 -78.088,8.4706355930001 -78.2515,8.3805355920001 -78.2102,8.428635593 -78.2161,8.533235592 -78.2318,8.5460355920001 -78.338,8.4124355930001 -78.414,8.5605355930001 -78.4198,8.348435593 -78.621,8.770135592 -79.036,8.999235592 -79.4327,9.016935592 -79.7194,8.906835593 -79.7536,8.593235593 -80.4837,8.205035593 -80.001,7.462835593 -80.8871,7.203135592 -81.0523,7.9230355920001 -81.2363,7.8902355930001 -81.2211,7.6072355920001 -81.5139,7.7031355930001 -81.7518,8.1986355930001 -82.1638,8.163235592 -82.2097,8.381535593 -82.8341,8.2939355930001 -82.8952,8.030935593 -83.1778,8.6366355920001 -83.4878,8.706535592 -83.2955,8.3714355930001 -83.7287,8.5770355920001 -83.4879,8.8558355930001 -83.9049,9.2837355930001 -84.6166,9.576935592 -84.7449,9.9627355920001 -84.849,9.964235592 -85.0788,10.163135592 -85.2112,10.174835593 -85.2368,10.237435593 -85.3089,10.316535593 -85.3167,10.323535593 -85.3692,10.322835593 -84.8697,9.8178355920001 -85.1105,9.552435593 -85.3021,9.801335592 -85.6728,9.9004355930001 -85.8745,10.351535593 -85.6591,10.761035593 -85.9506,10.888735592 -85.673,11.060035593 -87.687,12.903635593 -87.5771,13.083035593 -87.4692,12.931035593 -87.2586,12.963835593 -87.5167,13.255735593 -87.4045,13.409535593 -87.619,13.301435592 -87.5979,13.454535593 -87.734,13.347835593 -87.8128,13.455035592 -87.8996,13.149635592 -88.4662,13.151735593 -89.8093,13.519735593 -90.4745,13.884935593 -91.3878,13.980235592 -92.2362,14.534035593 -93.9346,15.984135592 -93.8942,16.087735593 -94.3681,16.294435592 -94.4161,16.200535592 -94.222,16.162235592 -93.9625,15.996435593 -94.7242,16.195835593 -94.5781,16.318335593 -94.7929,16.266735593 -94.8553,16.431735593 -95.0628,16.269935593 -94.8143,16.267635593 -95.1014,16.237335593 -94.8773,16.233535593 -94.7591,16.204135593 -95.1561,16.194535593 -96.2311,15.671335592 -97.7953,15.965135593 -98.77,16.545935593 -99.6921,16.700735592 -101.0581,17.268535593 -101.9591,17.965535593 -102.1863,17.909835593 -103.4816,18.318535593 -103.9728,18.865935593 -104.9974,19.349735593 -104.5578,19.705635592 -104.1802,19.680435593 -103.0976,18.975635593 -101.5116,18.295835592 -97.3578,16.911235593 -96.6026,17.037135593 -96.1998,17.439935592 -96.1242,17.968635593 -97.1215,19.721035593 -98.6165,21.417535592 -98.8935,22.197935592 -98.6669,22.852535592 -98.1131,23.028735593 -97.7595,22.966835593 -97.8357,22.391335593 -97.7042,21.964135593 -97.3316,21.575935593 -97.4111,21.186235593 -97.162,20.660735593 -96.4457,19.863835592 -96.306,19.337635593 -95.8918,18.849935593 -94.809,18.536335593 -94.4881,18.149335592 -91.9912,18.720835593 -91.8662,18.498635592 -91.5196,18.450235592 -91.2206,18.748835593 -91.4936,18.812535593 -90.7239,19.377635592 -90.4593,19.976535593 -90.3204,21.020535592 -88.5979,21.534735593 -87.4772,21.484935593 -87.0991,21.605735593 -86.8139,21.417035593 -86.7365,21.137635593 -87.4193,20.225935593 -87.4636,19.785135592 -87.728,19.675135593 -87.6577,19.499235593 -87.4099,19.572135593 -87.6709,19.343435592 -87.6492,19.198435593 -87.453,19.320735593 -87.8345,18.179435593 -88.0747,18.491635592 -88.0375,18.865035593 -88.3893,18.380235592 -88.0893,18.348535593 -88.2818,17.643435592 -88.2432,16.803035593 -88.9529,15.883535593 " /><polygon class="region" points="-69.7235,11.607335593 -69.5921,11.455635593 -68.8282,11.441435593 -68.4013,11.185535592 -68.2641,10.622535593 -69.759,10.739435593 -70.1048,10.676635593 -70.5448,10.299435593 -70.9849,10.330835593 -71.3284,10.967335593 -70.1958,11.361135593 -69.7741,11.739335593 -69.7235,11.607335593 " /><polygon class="region" points="-74.0939,11.329435592 -73.5015,11.254835593 -73.6649,10.371035593 -74.1007,10.098735592 -73.8647,9.6205355930001 -74.0342,9.3723355920001 -73.9252,9.045435592 -74.2158,8.7851355930001 -74.7545,9.172535593 -75.0148,10.110835592 -74.7484,10.631335593 -74.8426,11.112135593 -74.3107,10.986835593 -74.0939,11.329435592 " /><polygon class="region" points="-74.2665,5.6040355920001 -74.1091,5.355935592 -73.861,5.5193355930001 -73.637,5.464835592 -73.5644,4.9382355920001 -73.0559,4.684035593 -73.1043,4.272335592 -73.9275,4.526635593 -74.2544,4.1150355930001 -74.8839,4.254235593 -74.666,5.670635593 -74.3452,5.9067355930001 -74.2665,5.6040355920001 " /><polygon class="region" points="-61.0672,-13.473364408 -60.4708,-13.807264407 -60.2641,-14.935064407 -60.9518,-14.747064408 -61.3891,-14.290364408 -61.4745,-13.549664408 -61.0672,-13.473364408 " /><polygon class="region" points="-58.9185,3.6755355930001 -59.2424,3.6596355930001 -59.4017,3.9941355930001 -59.322,4.413635593 -59.0353,4.583535592 -58.7804,4.4561355920001 -58.6902,4.185335593 -58.9185,3.6755355930001 " /><polygon class="region" points="-83.6015,8.8985355930001 -83.5966,8.8931355930001 -83.6101,8.8950355920001 -83.6151,8.904635592 -83.6015,8.8985355930001 " />
		  </g>
		</svg>