<?xml version="1.0" encoding="UTF-8"?>
	<svg xmlns:xlink="http://www.w3.org/1999/xlink" 
	xmlns="http://www.w3.org/2000/svg" 
	width="360px" height="180px">
	   <style type="text/css">
		  <![CDATA[     
		  .region 
		  { 
			fill:blue; 
			opacity:0.4; 
			stroke:blue;
		  }
		  ]]>
	   </style>

	<circle id="dot" x="-2" y="-2" r="2" style="stroke:none; stroke-width:0; fill:black; opacity:0.7;"/>


	 <image x="0" y="0" width="360" height="180" xlink:href="map.jpg"/>

 
	 <g transform="translate(180,90) scale(1,-1)"><polygon class="region" points="-59.467,13.177835593 -59.6106,13.071835593 -59.6433,13.309035593 -59.5929,13.322635593 -59.467,13.177835593 " /><polygon class="region" points="-61.8429,17.729435592 -61.7447,17.645435593 -61.7357,17.544835592 -61.8631,17.588035593 -61.8429,17.729435592 " /><polygon class="region" points="-61.8307,17.175035592 -61.6831,17.102035593 -61.6774,17.041935593 -61.8915,17.026735593 -61.8307,17.175035592 " /><polygon class="region" points="-61.0589,14.830535592 -60.8745,14.762535593 -60.8672,14.392235592 -61.1034,14.499835593 -60.9999,14.551235592 -61.2301,14.817035592 -61.0589,14.830535592 " /><polygon class="region" points="-62.1723,16.671535593 -62.2419,16.719435593 -62.2024,16.817335593 -62.1503,16.739435593 -62.1723,16.671535593 " /><polygon class="region" points="-62.9745,18.270535593 -63.0864,18.180535592 -63.172,18.166835592 -63.0697,18.245135593 -62.9745,18.270535593 " /><polygon class="region" points="-61.7358,16.368235592 -61.5492,16.281935593 -61.6851,15.947435592 -61.8072,16.275835593 -61.7358,16.368235592 " /><polygon class="region" points="-61.4324,15.630735592 -61.2519,15.476935593 -61.3504,15.202535593 -61.4768,15.488235593 -61.4324,15.630735592 " /><polygon class="region" points="-61.462,16.507635592 -61.3728,16.348135593 -61.1728,16.244735593 -61.5205,16.219535592 -61.462,16.507635592 " /><polygon class="region" points="-60.8842,14.020235593 -60.8865,13.815035593 -60.9577,13.708135592 -61.0741,13.871635593 -60.9482,14.101435593 -60.8842,14.020235593 " /><polygon class="region" points="-61.1725,13.377835592 -61.116,13.253835592 -61.191,13.118435593 -61.2776,13.231735593 -61.1725,13.377835592 " />
		  </g>
		</svg>