<?xml version="1.0" encoding="UTF-8"?>
	<svg xmlns:xlink="http://www.w3.org/1999/xlink" 
	xmlns="http://www.w3.org/2000/svg" 
	width="360px" height="180px">
	   <style type="text/css">
		  <![CDATA[     
		  .region 
		  { 
			fill:blue; 
			opacity:0.4; 
			stroke:blue;
		  }
		  ]]>
	   </style>

	<circle id="dot" x="-2" y="-2" r="2" style="stroke:none; stroke-width:0; fill:black; opacity:0.7;"/>


	 <image x="0" y="0" width="360" height="180" xlink:href="map.jpg"/>

 
	 <g transform="translate(180,90) scale(1,-1)"><polygon class="region" points="-60.585391898,7.320048619 -59.449722888,7.1196364410001 -58.476444504,7.2412962390001 -58.614517212,6.4188904760001 -58.412353516,6.871654033 -58.03987503,6.8186140060001 -57.530677796,6.2779102320001 -57.236293793,6.1846218110001 -57.14112854,5.816272736 -56.95685196,5.99902916 -55.913414001,5.780721665 -55.82717514,5.953795433 -55.105117798,5.8771762850001 -55.037296295,6.004546165 -54.024242401,5.823860645 -54.021652222,5.6157226560001 -53.825553894,5.7687659260001 -52.931980133,5.458015919 -51.944534302,4.50854063 -51.907917023,4.660140515 -51.799381256,4.6086230280001 -51.662490845,4.205050945 -51.529296875,4.1711010930001 -51.548099517,4.397033214 -51.337348938,4.235692978 -51.172737122,3.7669916150001 -51.079551697,3.877120018 -50.85994339,2.4773902900001 -50.476959228,1.824762225 -49.966327667,1.686954498 -49.880279541,1.419040442 -50.072956085,1.2038407330001 -49.91822052,1.231684923 -49.938991547,1.1026507620001 -50.4553833,0.73185992200007 -50.78490448,0.18341119600007 -51.202648162,-0.055345780999971 -51.40940857,-0.43996652999994 -51.188400268,-0.14029100499994 -51.15404892,-0.28383344399992 -51.395999908,-0.49276512899996 -51.164707184,-0.43146327199997 -50.953193665,-0.06053981499997 -50.662780761,0 -50.75056839,-0.42857840699998 -51.050811768,-0.66858816099995 -50.705794991,-0.59918401999994 -50.783202471,-1.559658885 -50.224858085,-1.774295767 -50.401157379,-1.9345054629999 -50.011334295,-1.823461994 -49.369984872,-1.944819309 -49.402786255,-2.1592204569999 -49.241742435,-2.042350853 -49.29141753,-2.25251472 -53.855915794,-3.032087544 -58.103065625,-3.5500326449999 -61.003558192,-3.1356765649999 -66.700954306,0.38635012500004 -67.633255489,1.629418367 -67.120415077,2.3170824040001 -67.102000403,2.594843945 -67.529272813,5.3562611630001 -66.818833718,7.0639525670001 -66.271952422,7.411967937 -64.681025017,7.4616844180001 -63.537545945,7.809699788 -63.090097612,7.809699788 -62.244917429,6.964519604 -60.952288912,7.1136690490001 -60.585391898,7.320048619 " />
		  </g>
		</svg>