<?xml version="1.0" encoding="UTF-8"?>
	<svg xmlns:xlink="http://www.w3.org/1999/xlink" 
	xmlns="http://www.w3.org/2000/svg" 
	width="360px" height="180px">
	   <style type="text/css">
		  <![CDATA[     
		  .region 
		  { 
			fill:blue; 
			opacity:0.4; 
			stroke:blue;
		  }
		  ]]>
	   </style>

	<circle id="dot" x="-2" y="-2" r="2" style="stroke:none; stroke-width:0; fill:black; opacity:0.7;"/>


	 <image x="0" y="0" width="360" height="180" xlink:href="map.jpg"/>

 
	 <g transform="translate(180,90) scale(1,-1)">   <use xlink:href="#dot" transform="translate(-61.006083,13.816611)" />   <use xlink:href="#dot" transform="translate(-61.006083,13.816611)" />   <use xlink:href="#dot" transform="translate(-60.901972,13.954)" />   <use xlink:href="#dot" transform="translate(-61.006083,13.816611)" />   <use xlink:href="#dot" transform="translate(-61.006083,13.816611)" />   <use xlink:href="#dot" transform="translate(-60.901972,13.954)" />   <use xlink:href="#dot" transform="translate(-61.006083,13.816611)" />   <use xlink:href="#dot" transform="translate(-59.500306,13.196639)" />   <use xlink:href="#dot" transform="translate(-60.936,13.873694)" />   <use xlink:href="#dot" transform="translate(-59.57775,13.171083)" />   <use xlink:href="#dot" transform="translate(-59.537472,13.200694)" />   <use xlink:href="#dot" transform="translate(-60.906333,13.863056)" />   <use xlink:href="#dot" transform="translate(-59.59425,13.266278)" />   <use xlink:href="#dot" transform="translate(-60.936,13.873694)" />   <use xlink:href="#dot" transform="translate(-59.59425,13.266278)" />   <use xlink:href="#dot" transform="translate(-59.57775,13.171083)" />   <use xlink:href="#dot" transform="translate(-59.57775,13.171083)" />   <use xlink:href="#dot" transform="translate(-59.57775,13.171083)" />   <use xlink:href="#dot" transform="translate(-59.601972,13.140111)" />   <use xlink:href="#dot" transform="translate(-59.57775,13.171083)" />   <use xlink:href="#dot" transform="translate(-59.57775,13.171083)" />   <use xlink:href="#dot" transform="translate(-60.914917,13.820528)" />   <use xlink:href="#dot" transform="translate(-59.57775,13.171083)" />   <use xlink:href="#dot" transform="translate(-59.59425,13.266278)" />   <use xlink:href="#dot" transform="translate(-59.57775,13.171083)" />   <use xlink:href="#dot" transform="translate(-60.936,13.873694)" />   <use xlink:href="#dot" transform="translate(-60.936,13.873694)" />   <use xlink:href="#dot" transform="translate(-60.973833,13.83975)" />   <use xlink:href="#dot" transform="translate(-60.973833,13.83975)" />   <use xlink:href="#dot" transform="translate(-60.973833,13.83975)" />   <use xlink:href="#dot" transform="translate(-60.973833,13.83975)" />   <use xlink:href="#dot" transform="translate(-60.973833,13.83975)" />   <use xlink:href="#dot" transform="translate(-60.973833,13.83975)" />   <use xlink:href="#dot" transform="translate(-60.973833,13.83975)" />   <use xlink:href="#dot" transform="translate(-60.952444,13.969778)" />   <use xlink:href="#dot" transform="translate(-60.952444,13.969778)" />   <use xlink:href="#dot" transform="translate(-59.577722,13.171083)" />   <use xlink:href="#dot" transform="translate(-60.952444,13.969778)" />   <use xlink:href="#dot" transform="translate(-60.98075,13.798528)" />   <use xlink:href="#dot" transform="translate(-60.952444,13.969778)" />   <use xlink:href="#dot" transform="translate(-60.958889,13.926472)" />   <use xlink:href="#dot" transform="translate(-60.952444,13.969778)" />   <use xlink:href="#dot" transform="translate(-60.952444,13.969778)" />   <use xlink:href="#dot" transform="translate(-59.577722,13.171083)" />   <use xlink:href="#dot" transform="translate(-59.637028,13.194028)" />   <use xlink:href="#dot" transform="translate(-60.98075,13.798528)" />   <use xlink:href="#dot" transform="translate(-59.577722,13.171083)" />   <use xlink:href="#dot" transform="translate(-59.577722,13.171083)" />   <use xlink:href="#dot" transform="translate(-59.577722,13.171083)" />   <use xlink:href="#dot" transform="translate(-60.952444,13.969778)" />   <use xlink:href="#dot" transform="translate(-60.94,13.964306)" />   <use xlink:href="#dot" transform="translate(-59.577722,13.171083)" />   <use xlink:href="#dot" transform="translate(-59.577722,13.171083)" />   <use xlink:href="#dot" transform="translate(-59.577722,13.171083)" />   <use xlink:href="#dot" transform="translate(-60.958889,13.926472)" />   <use xlink:href="#dot" transform="translate(-59.577722,13.171083)" />   <use xlink:href="#dot" transform="translate(-61.178528,13.221722)" />   <use xlink:href="#dot" transform="translate(-61.147778,13.277417)" />   <use xlink:href="#dot" transform="translate(-61.20775,13.308028)" />   <use xlink:href="#dot" transform="translate(-61.178528,13.221722)" />   <use xlink:href="#dot" transform="translate(-61.20775,13.308028)" />   <use xlink:href="#dot" transform="translate(-61.192417,13.199528)" />   <use xlink:href="#dot" transform="translate(-61.192417,13.199528)" />   <use xlink:href="#dot" transform="translate(-61.147778,13.277417)" />   <use xlink:href="#dot" transform="translate(-61.167,13.323)" />   <use xlink:href="#dot" transform="translate(-61.167,13.323)" />   <use xlink:href="#dot" transform="translate(-61.152639,13.316722)" />   <use xlink:href="#dot" transform="translate(-61.218611,13.186833)" />   <use xlink:href="#dot" transform="translate(-61.22275,13.266194)" />   <use xlink:href="#dot" transform="translate(-61.152639,13.316722)" />   <use xlink:href="#dot" transform="translate(-61.22275,13.266194)" />   <use xlink:href="#dot" transform="translate(-61.223806,13.264222)" />   <use xlink:href="#dot" transform="translate(-61.167,13.323)" />   <use xlink:href="#dot" transform="translate(-61.167,13.323)" />   <use xlink:href="#dot" transform="translate(-61.223806,13.264222)" />   <use xlink:href="#dot" transform="translate(-61.189,13.208528)" />   <use xlink:href="#dot" transform="translate(-61.189,13.208528)" />   <use xlink:href="#dot" transform="translate(-61.189,13.208528)" />   <use xlink:href="#dot" transform="translate(-61.189,13.208528)" />   <use xlink:href="#dot" transform="translate(-61.189,13.208528)" />   <use xlink:href="#dot" transform="translate(-61.212056,13.222278)" />   <use xlink:href="#dot" transform="translate(-61.212056,13.222278)" />   <use xlink:href="#dot" transform="translate(-61.212056,13.222278)" />   <use xlink:href="#dot" transform="translate(-61.212056,13.222278)" />   <use xlink:href="#dot" transform="translate(-61.212056,13.222278)" />   <use xlink:href="#dot" transform="translate(-61.212056,13.222278)" />   <use xlink:href="#dot" transform="translate(-61.212056,13.222278)" />   <use xlink:href="#dot" transform="translate(-61.212056,13.222278)" />   <use xlink:href="#dot" transform="translate(-61.212056,13.222278)" />   <use xlink:href="#dot" transform="translate(-61.212056,13.222278)" />   <use xlink:href="#dot" transform="translate(-61.212056,13.222278)" />   <use xlink:href="#dot" transform="translate(-61.212056,13.222278)" />   <use xlink:href="#dot" transform="translate(-61.212056,13.222278)" />   <use xlink:href="#dot" transform="translate(-61.212056,13.222278)" />   <use xlink:href="#dot" transform="translate(-61.212056,13.222278)" />   <use xlink:href="#dot" transform="translate(-61.208917,13.248194)" />   <use xlink:href="#dot" transform="translate(-61.212056,13.222278)" />   <use xlink:href="#dot" transform="translate(-61.212056,13.222278)" />   <use xlink:href="#dot" transform="translate(-61.212056,13.222278)" />   <use xlink:href="#dot" transform="translate(-61.212056,13.222278)" />   <use xlink:href="#dot" transform="translate(-61.212056,13.222278)" />   <use xlink:href="#dot" transform="translate(-61.212056,13.222278)" />   <use xlink:href="#dot" transform="translate(-61.212056,13.222278)" />   <use xlink:href="#dot" transform="translate(-61.212056,13.222278)" />   <use xlink:href="#dot" transform="translate(-61.212056,13.222278)" />   <use xlink:href="#dot" transform="translate(-61.212056,13.222278)" />   <use xlink:href="#dot" transform="translate(-61.208917,13.248194)" />   <use xlink:href="#dot" transform="translate(-61.212056,13.222278)" />   <use xlink:href="#dot" transform="translate(-61.212056,13.222278)" />   <use xlink:href="#dot" transform="translate(-61.212056,13.222278)" />   <use xlink:href="#dot" transform="translate(-61.212056,13.222278)" />   <use xlink:href="#dot" transform="translate(-62.846472,17.889583)" />   <use xlink:href="#dot" transform="translate(-62.211667,16.756667)" />   <use xlink:href="#dot" transform="translate(-62.216389,16.757222)" />   <use xlink:href="#dot" transform="translate(-63.090556,18.03)" />   <use xlink:href="#dot" transform="translate(-63.090556,18.03)" />   <use xlink:href="#dot" transform="translate(-63.090556,18.03)" />   <use xlink:href="#dot" transform="translate(-63.090556,18.03)" />   <use xlink:href="#dot" transform="translate(-63.090556,18.03)" />   <use xlink:href="#dot" transform="translate(-63.090556,18.03)" />   <use xlink:href="#dot" transform="translate(-63.090556,18.03)" />   <use xlink:href="#dot" transform="translate(-61.753361,17.623917)" />   <use xlink:href="#dot" transform="translate(-61.784944,17.640722)" />   <use xlink:href="#dot" transform="translate(-61.753361,17.623917)" />   <use xlink:href="#dot" transform="translate(-61.750278,17.014444)" />   <use xlink:href="#dot" transform="translate(-61.784944,17.640722)" />   <use xlink:href="#dot" transform="translate(-61.784944,17.640722)" />   <use xlink:href="#dot" transform="translate(-61.753361,17.623917)" />   <use xlink:href="#dot" transform="translate(-61.753361,17.623917)" />   <use xlink:href="#dot" transform="translate(-61.784944,17.640722)" />   <use xlink:href="#dot" transform="translate(-61.784944,17.640722)" />   <use xlink:href="#dot" transform="translate(-61.753361,17.623917)" />   <use xlink:href="#dot" transform="translate(-61.750278,17.014444)" />   <use xlink:href="#dot" transform="translate(-61.862222,17.059167)" />   <use xlink:href="#dot" transform="translate(-61.753361,17.623917)" />   <use xlink:href="#dot" transform="translate(-61.753361,17.623917)" />   <use xlink:href="#dot" transform="translate(-61.753361,17.623917)" />   <use xlink:href="#dot" transform="translate(-61.784944,17.640722)" />   <use xlink:href="#dot" transform="translate(-61.383331,15.35)" />   <use xlink:href="#dot" transform="translate(-61.383331,15.35)" />   <use xlink:href="#dot" transform="translate(-61.43333,15.43333)" />   <use xlink:href="#dot" transform="translate(-61.43333,15.43333)" />   <use xlink:href="#dot" transform="translate(-61.383331,15.35)" />   <use xlink:href="#dot" transform="translate(-61.349495,15.377259)" />   <use xlink:href="#dot" transform="translate(-61.349495,15.377259)" />   <use xlink:href="#dot" transform="translate(-61.349495,15.377259)" />   <use xlink:href="#dot" transform="translate(-61.349495,15.377259)" />   <use xlink:href="#dot" transform="translate(-61.349495,15.377259)" />   <use xlink:href="#dot" transform="translate(-61.383331,15.35)" />   <use xlink:href="#dot" transform="translate(-61.349495,15.377259)" />   <use xlink:href="#dot" transform="translate(-61.349495,15.377259)" />   <use xlink:href="#dot" transform="translate(-61.349495,15.377259)" />   <use xlink:href="#dot" transform="translate(-61.349495,15.377259)" />   <use xlink:href="#dot" transform="translate(-61.349495,15.377259)" />   <use xlink:href="#dot" transform="translate(-61.349495,15.377259)" />   <use xlink:href="#dot" transform="translate(-61.349495,15.377259)" />   <use xlink:href="#dot" transform="translate(-61.349495,15.377259)" />   <use xlink:href="#dot" transform="translate(-61.349495,15.377259)" />   <use xlink:href="#dot" transform="translate(-61.349495,15.377259)" />   <use xlink:href="#dot" transform="translate(-61.349495,15.377259)" />   <use xlink:href="#dot" transform="translate(-61.349495,15.377259)" />   <use xlink:href="#dot" transform="translate(-61.349495,15.377259)" />   <use xlink:href="#dot" transform="translate(-61.45,15.58333)" />   <use xlink:href="#dot" transform="translate(-61.45,15.58333)" />   <use xlink:href="#dot" transform="translate(-61.29693,15.4063)" />   <use xlink:href="#dot" transform="translate(-61.29693,15.4063)" />   <use xlink:href="#dot" transform="translate(-61.333328,15.5)" />   <use xlink:href="#dot" transform="translate(-61.333328,15.5)" />   <use xlink:href="#dot" transform="translate(-61.383331,15.35)" />   <use xlink:href="#dot" transform="translate(-61.333328,15.5)" />   <use xlink:href="#dot" transform="translate(-61.333328,15.5)" />   <use xlink:href="#dot" transform="translate(-61.383331,15.35)" />   <use xlink:href="#dot" transform="translate(-61.383331,15.35)" />   <use xlink:href="#dot" transform="translate(-61.333328,15.5)" />   <use xlink:href="#dot" transform="translate(-61.333328,15.5)" />   <use xlink:href="#dot" transform="translate(-61.383331,15.35)" />   <use xlink:href="#dot" transform="translate(-61.333328,15.5)" />   <use xlink:href="#dot" transform="translate(-61.333328,15.5)" />   <use xlink:href="#dot" transform="translate(-61.433098,15.39164)" />   <use xlink:href="#dot" transform="translate(-61.333328,15.5)" />   <use xlink:href="#dot" transform="translate(-61.383331,15.35)" />   <use xlink:href="#dot" transform="translate(-61.383331,15.35)" />   <use xlink:href="#dot" transform="translate(-59.566667,13.2)" />   <use xlink:href="#dot" transform="translate(-59.566667,13.2)" />   <use xlink:href="#dot" transform="translate(-59.566667,13.2)" />   <use xlink:href="#dot" transform="translate(-59.566667,13.2)" />   <use xlink:href="#dot" transform="translate(-59.566667,13.2)" />   <use xlink:href="#dot" transform="translate(-59.566667,13.2)" />   <use xlink:href="#dot" transform="translate(-59.566667,13.2)" />   <use xlink:href="#dot" transform="translate(-61.85,17.066667)" />   <use xlink:href="#dot" transform="translate(-61.85,17.066667)" />   <use xlink:href="#dot" transform="translate(-59.566667,13.2)" />   <use xlink:href="#dot" transform="translate(-59.566667,13.2)" />   <use xlink:href="#dot" transform="translate(-59.566667,13.2)" />   <use xlink:href="#dot" transform="translate(-59.566667,13.2)" />   <use xlink:href="#dot" transform="translate(-59.566667,13.2)" />   <use xlink:href="#dot" transform="translate(-59.566667,13.2)" />   <use xlink:href="#dot" transform="translate(-59.566667,13.2)" />   <use xlink:href="#dot" transform="translate(-59.566667,13.2)" />   <use xlink:href="#dot" transform="translate(-59.566667,13.2)" />   <use xlink:href="#dot" transform="translate(-61.659351,16.1833)" />   <use xlink:href="#dot" transform="translate(-61.659351,16.1833)" />   <use xlink:href="#dot" transform="translate(-61.666698,16.0333)" />   <use xlink:href="#dot" transform="translate(-61.599998,16)" />   <use xlink:href="#dot" transform="translate(-61.659351,16.1833)" />   <use xlink:href="#dot" transform="translate(-61.666698,16.0333)" />   <use xlink:href="#dot" transform="translate(-66.332154,18.341062)" />   <use xlink:href="#dot" transform="translate(-61.183332520839,13.153590882454)" />   <use xlink:href="#dot" transform="translate(-61.415891488085,15.400875196899)" />   <use xlink:href="#dot" transform="translate(-61.333328,15.5)" />   <use xlink:href="#dot" transform="translate(-61.415891488085,15.400875196899)" />   <use xlink:href="#dot" transform="translate(-61.415891488085,15.400875196899)" />   <use xlink:href="#dot" transform="translate(-61.415891488085,15.400875196899)" />   <use xlink:href="#dot" transform="translate(-61.415891488085,15.400875196899)" />   <use xlink:href="#dot" transform="translate(-61.415891488085,15.400875196899)" />   <use xlink:href="#dot" transform="translate(-61.415891488085,15.400875196899)" />   <use xlink:href="#dot" transform="translate(-61.415891488085,15.400875196899)" />   <use xlink:href="#dot" transform="translate(-61.415891488085,15.400875196899)" />   <use xlink:href="#dot" transform="translate(-61.282187732177,15.537827990943)" />   <use xlink:href="#dot" transform="translate(-61.409629351896,15.382047194625)" />   <use xlink:href="#dot" transform="translate(-61.415891488085,15.400875196899)" />   <use xlink:href="#dot" transform="translate(-61.415891488085,15.400875196899)" />   <use xlink:href="#dot" transform="translate(-61.415891488085,15.400875196899)" />   <use xlink:href="#dot" transform="translate(-61.415891488085,15.400875196899)" />   <use xlink:href="#dot" transform="translate(-61.320128478058,15.363772185879)" />   <use xlink:href="#dot" transform="translate(-59.58333,13.18333)" />   <use xlink:href="#dot" transform="translate(-61.03921,14.68236)" /><polygon class="region" points="-61.218611,13.186833 -66.332154,18.341062 -63.090556,18.03 -61.784944,17.640722 -61.753361,17.623917 -59.500306,13.196639 -59.601972,13.140111 -61.183332520839,13.153590882454 -61.218611,13.186833 " />
		  </g>
		</svg>