<?xml version="1.0" encoding="UTF-8"?>
	<svg xmlns:xlink="http://www.w3.org/1999/xlink" 
	xmlns="http://www.w3.org/2000/svg" 
	width="360px" height="180px">
	   <style type="text/css">
		  <![CDATA[     
		  .region 
		  { 
			fill:blue; 
			opacity:0.4; 
			stroke:blue;
		  }
		  ]]>
	   </style>

	<circle id="dot" x="-2" y="-2" r="2" style="stroke:none; stroke-width:0; fill:black; opacity:0.7;"/>


	 <image x="0" y="0" width="360" height="180" xlink:href="map.jpg"/>

 
	 <g transform="translate(180,90) scale(1,-1)"><polygon class="region" points="-68.161491394,10.498726845 -66.380643812,10.617321701 -66.463398924,10.269048564 -68.466072647,9.921477092 -69.194317638,9.607007664 -71.445519428,7.8583789750001 -71.767478931,7.7548919920001 -72.693675283,7.9714161690001 -73.381428077,8.820264212 -73.418603904,9.2601781600001 -73.201744914,9.8487954170001 -72.575119263,10.308077557 -72.080113898,10.360183385 -71.837806172,10.221721828 -72.128929138,9.813949585 -71.997627259,9.446594238 -71.716171264,9.3910369880001 -71.768997192,9.1104612350001 -71.537055969,9.0397892 -71.061203003,9.319376945 -71.08345399,9.548049845 -70.794305655,9.6020186270001 -70.794305655,10.335766444 -70.404713506,10.725358594 -69.391773917,10.990281255 -68.322257996,10.815121651 -68.278945923,10.646864891 -68.161491394,10.498726845 " /><polygon class="region" points="-63.376931164,10.357848125 -63.206143166,10.190165363 -63.361404982,10.016272129 -64.181187371,9.8641155500001 -64.460658639,10.059745438 -64.30850206,10.31126958 -63.376931164,10.357848125 " /><polygon class="region" points="-68.293731689,10.78158474 -68.31035614,10.787734986 -68.303721511,10.806244808 -68.290283718,10.799809651 -68.293731689,10.78158474 " />
		  </g>
		</svg>