<?xml version="1.0" encoding="UTF-8"?>
	<svg xmlns:xlink="http://www.w3.org/1999/xlink" 
	xmlns="http://www.w3.org/2000/svg" 
	width="360px" height="180px">
	   <style type="text/css">
		  <![CDATA[     
		  .region 
		  { 
			fill:blue; 
			opacity:0.4; 
			stroke:blue;
		  }
		  ]]>
	   </style>

	<circle id="dot" x="-2" y="-2" r="2" style="stroke:none; stroke-width:0; fill:black; opacity:0.7;"/>


	 <image x="0" y="0" width="360" height="180" xlink:href="map.jpg"/>

 
	 <g transform="translate(180,90) scale(1,-1)">   <use xlink:href="#dot" transform="translate(-55.38479,2.97741)" />   <use xlink:href="#dot" transform="translate(-56.60715,2.28905)" />   <use xlink:href="#dot" transform="translate(-56.69832,2.36256)" />   <use xlink:href="#dot" transform="translate(-56.69832,2.36256)" />   <use xlink:href="#dot" transform="translate(-56.69832,2.36256)" />   <use xlink:href="#dot" transform="translate(-58.90933,4.24963)" />   <use xlink:href="#dot" transform="translate(-60.4911,7.3706)" />   <use xlink:href="#dot" transform="translate(-55.930760309094,-9.5973475481313)" />   <use xlink:href="#dot" transform="translate(-55.930760309094,-9.5973475481313)" />   <use xlink:href="#dot" transform="translate(-57.516667,5.4)" />   <use xlink:href="#dot" transform="translate(-57.516667,5.4)" />   <use xlink:href="#dot" transform="translate(-59.25,3.25)" />   <use xlink:href="#dot" transform="translate(-59.383333,7.516667)" />   <use xlink:href="#dot" transform="translate(-59.383333,7.516667)" />   <use xlink:href="#dot" transform="translate(-67.333333,-11.266667)" />   <use xlink:href="#dot" transform="translate(-68.233333,-12.133333)" />   <use xlink:href="#dot" transform="translate(-68.233333,-12.133333)" />   <use xlink:href="#dot" transform="translate(-71.36642,4.69904)" />   <use xlink:href="#dot" transform="translate(-56.2,4.733333)" />   <use xlink:href="#dot" transform="translate(-66.416672,10.25)" />   <use xlink:href="#dot" transform="translate(-59.13333,2.81666)" />   <use xlink:href="#dot" transform="translate(-68.3833,7.95)" />   <use xlink:href="#dot" transform="translate(-72.6167,10.0667)" />   <use xlink:href="#dot" transform="translate(-72.87851,9.93865)" />   <use xlink:href="#dot" transform="translate(-61.42,4.55)" />   <use xlink:href="#dot" transform="translate(-61.42,4.55)" />   <use xlink:href="#dot" transform="translate(-61.42,4.55)" />   <use xlink:href="#dot" transform="translate(-65.82,3.17)" />   <use xlink:href="#dot" transform="translate(-65.82,3.17)" />   <use xlink:href="#dot" transform="translate(-65.82,3.17)" />   <use xlink:href="#dot" transform="translate(-65.82,3.17)" />   <use xlink:href="#dot" transform="translate(-65.82,3.17)" />   <use xlink:href="#dot" transform="translate(-65.82,3.17)" />   <use xlink:href="#dot" transform="translate(-65.82,3.17)" />   <use xlink:href="#dot" transform="translate(-66.32,2.62)" />   <use xlink:href="#dot" transform="translate(-66.32,2.62)" />   <use xlink:href="#dot" transform="translate(-66.32,2.62)" />   <use xlink:href="#dot" transform="translate(-67.65,5.4)" />   <use xlink:href="#dot" transform="translate(-67.65,5.4)" />   <use xlink:href="#dot" transform="translate(-67.65,5.4)" />   <use xlink:href="#dot" transform="translate(-67.65,5.4)" />   <use xlink:href="#dot" transform="translate(-62.25,7)" />   <use xlink:href="#dot" transform="translate(-61.35,6.17)" />   <use xlink:href="#dot" transform="translate(-66.42,9.97)" />   <use xlink:href="#dot" transform="translate(-65.55,3.18)" />   <use xlink:href="#dot" transform="translate(-58.75,3.3)" />   <use xlink:href="#dot" transform="translate(-55.416668,5.783333)" />   <use xlink:href="#dot" transform="translate(-59.43794,3.38333)" />   <use xlink:href="#dot" transform="translate(-55.450001,3.35)" />   <use xlink:href="#dot" transform="translate(-55.450001,3.35)" />   <use xlink:href="#dot" transform="translate(-55.450001,3.35)" />   <use xlink:href="#dot" transform="translate(-55.450001,3.35)" />   <use xlink:href="#dot" transform="translate(-55.450001,3.35)" />   <use xlink:href="#dot" transform="translate(-55.483334,5.133333)" />   <use xlink:href="#dot" transform="translate(-57.616665,3.466667)" />   <use xlink:href="#dot" transform="translate(-58.166668,1.55)" />   <use xlink:href="#dot" transform="translate(-58.166668,1.55)" />   <use xlink:href="#dot" transform="translate(-58.166668,1.55)" />   <use xlink:href="#dot" transform="translate(-58.166668,1.55)" />   <use xlink:href="#dot" transform="translate(-49.5,-2.25)" />   <use xlink:href="#dot" transform="translate(-72.099998,9.85)" />   <use xlink:href="#dot" transform="translate(-72.099998,9.85)" />   <use xlink:href="#dot" transform="translate(-72.099998,9.85)" />   <use xlink:href="#dot" transform="translate(-71.449997,8.716666)" />   <use xlink:href="#dot" transform="translate(-71.449997,8.716666)" />   <use xlink:href="#dot" transform="translate(-71.449997,8.716666)" />   <use xlink:href="#dot" transform="translate(-52.333332,4.933333)" />   <use xlink:href="#dot" transform="translate(-53.400001,5.416667)" />   <use xlink:href="#dot" transform="translate(-58.416668,-3.133333)" />   <use xlink:href="#dot" transform="translate(-72.26667,8.033334)" />   <use xlink:href="#dot" transform="translate(-54.715599,-2.435899)" />   <use xlink:href="#dot" transform="translate(-66.416672,10.25)" />   <use xlink:href="#dot" transform="translate(-52.29037,4.92569)" />   <use xlink:href="#dot" transform="translate(-52.30835,4.90833)" />   <use xlink:href="#dot" transform="translate(-52.45292,4.57338)" />   <use xlink:href="#dot" transform="translate(-53.12572,3.93393)" />   <use xlink:href="#dot" transform="translate(-52.36905,4.91246)" /><polygon class="region" points="-68.233333,-12.133333 -72.87851,9.93865 -72.6167,10.0667 -66.416672,10.25 -53.400001,5.416667 -52.29037,4.92569 -49.5,-2.25 -55.930760309094,-9.5973475481313 -68.233333,-12.133333 " />
		  </g>
		</svg>