<?xml version="1.0" encoding="UTF-8"?>
	<svg xmlns:xlink="http://www.w3.org/1999/xlink" 
	xmlns="http://www.w3.org/2000/svg" 
	width="360px" height="180px">
	   <style type="text/css">
		  <![CDATA[     
		  .region 
		  { 
			fill:blue; 
			opacity:0.4; 
			stroke:blue;
		  }
		  ]]>
	   </style>

	<circle id="dot" x="-2" y="-2" r="2" style="stroke:none; stroke-width:0; fill:black; opacity:0.7;"/>


	 <image x="0" y="0" width="360" height="180" xlink:href="map.jpg"/>

 
	 <g transform="translate(180,90) scale(1,-1)">   <use xlink:href="#dot" transform="translate(30.928737,1.459056)" />   <use xlink:href="#dot" transform="translate(35.30569,-1.54651)" />   <use xlink:href="#dot" transform="translate(35.30569,-1.54651)" />   <use xlink:href="#dot" transform="translate(35.30569,-1.54651)" />   <use xlink:href="#dot" transform="translate(35.30569,-1.54651)" />   <use xlink:href="#dot" transform="translate(35.30569,-1.54651)" />   <use xlink:href="#dot" transform="translate(35.30569,-1.54651)" />   <use xlink:href="#dot" transform="translate(35.30569,-1.54651)" />   <use xlink:href="#dot" transform="translate(35.30569,-1.54651)" />   <use xlink:href="#dot" transform="translate(35.30569,-1.54651)" />   <use xlink:href="#dot" transform="translate(35.30569,-1.54651)" />   <use xlink:href="#dot" transform="translate(35.23411,-1.58963)" />   <use xlink:href="#dot" transform="translate(35.30569,-1.54651)" />   <use xlink:href="#dot" transform="translate(35.30569,-1.54651)" />   <use xlink:href="#dot" transform="translate(35.30569,-1.54651)" />   <use xlink:href="#dot" transform="translate(35.30569,-1.54651)" />   <use xlink:href="#dot" transform="translate(35.30569,-1.54651)" />   <use xlink:href="#dot" transform="translate(35.30569,-1.54651)" />   <use xlink:href="#dot" transform="translate(35.30569,-1.54651)" />   <use xlink:href="#dot" transform="translate(31.687985,2.371684)" />   <use xlink:href="#dot" transform="translate(30.66891,-1.94508)" />   <use xlink:href="#dot" transform="translate(30.66891,-1.94508)" />   <use xlink:href="#dot" transform="translate(30.66891,-1.94508)" />   <use xlink:href="#dot" transform="translate(30.66891,-1.94508)" />   <use xlink:href="#dot" transform="translate(30.66891,-1.94508)" />   <use xlink:href="#dot" transform="translate(34.34336,-0.65174)" />   <use xlink:href="#dot" transform="translate(34.34336,-0.65174)" />   <use xlink:href="#dot" transform="translate(34.34336,-0.65174)" />   <use xlink:href="#dot" transform="translate(34.34336,-0.65174)" />   <use xlink:href="#dot" transform="translate(34.34336,-0.65174)" />   <use xlink:href="#dot" transform="translate(34.34336,-0.65174)" />   <use xlink:href="#dot" transform="translate(34.34336,-0.65174)" />   <use xlink:href="#dot" transform="translate(34.34336,-0.65174)" />   <use xlink:href="#dot" transform="translate(34.34336,-0.65174)" />   <use xlink:href="#dot" transform="translate(34.34336,-0.65174)" />   <use xlink:href="#dot" transform="translate(34.34336,-0.65174)" />   <use xlink:href="#dot" transform="translate(34.34336,-0.65174)" />   <use xlink:href="#dot" transform="translate(34.34336,-0.65174)" />   <use xlink:href="#dot" transform="translate(34.34336,-0.65174)" />   <use xlink:href="#dot" transform="translate(34.34336,-0.65174)" />   <use xlink:href="#dot" transform="translate(34.34336,-0.65174)" />   <use xlink:href="#dot" transform="translate(34.34336,-0.65174)" />   <use xlink:href="#dot" transform="translate(34.34336,-0.65174)" />   <use xlink:href="#dot" transform="translate(34.34336,-0.65174)" />   <use xlink:href="#dot" transform="translate(34.34336,-0.65174)" />   <use xlink:href="#dot" transform="translate(34.34336,-0.65174)" />   <use xlink:href="#dot" transform="translate(34.34336,-0.65174)" />   <use xlink:href="#dot" transform="translate(34.34336,-0.65174)" />   <use xlink:href="#dot" transform="translate(34.34336,-0.65174)" />   <use xlink:href="#dot" transform="translate(34.34336,-0.65174)" />   <use xlink:href="#dot" transform="translate(34.34336,-0.65174)" />   <use xlink:href="#dot" transform="translate(34.34336,-0.65174)" />   <use xlink:href="#dot" transform="translate(34.34336,-0.65174)" />   <use xlink:href="#dot" transform="translate(34.34336,-0.65174)" />   <use xlink:href="#dot" transform="translate(34.34336,-0.65174)" />   <use xlink:href="#dot" transform="translate(34.34336,-0.65174)" />   <use xlink:href="#dot" transform="translate(34.34336,-0.65174)" />   <use xlink:href="#dot" transform="translate(34.34336,-0.65174)" />   <use xlink:href="#dot" transform="translate(34.34336,-0.65174)" />   <use xlink:href="#dot" transform="translate(34.34336,-0.65174)" />   <use xlink:href="#dot" transform="translate(34.34336,-0.65174)" />   <use xlink:href="#dot" transform="translate(34.34336,-0.65174)" />   <use xlink:href="#dot" transform="translate(34.34336,-0.65174)" />   <use xlink:href="#dot" transform="translate(34.34336,-0.65174)" />   <use xlink:href="#dot" transform="translate(34.34336,-0.65174)" />   <use xlink:href="#dot" transform="translate(34.34336,-0.65174)" />   <use xlink:href="#dot" transform="translate(34.34336,-0.65174)" />   <use xlink:href="#dot" transform="translate(34.34336,-0.65174)" />   <use xlink:href="#dot" transform="translate(34.34336,-0.65174)" />   <use xlink:href="#dot" transform="translate(34.34336,-0.65174)" />   <use xlink:href="#dot" transform="translate(34.34336,-0.65174)" />   <use xlink:href="#dot" transform="translate(34.34336,-0.65174)" />   <use xlink:href="#dot" transform="translate(34.34336,-0.65174)" />   <use xlink:href="#dot" transform="translate(34.34336,-0.65174)" />   <use xlink:href="#dot" transform="translate(34.34336,-0.65174)" />   <use xlink:href="#dot" transform="translate(34.34336,-0.65174)" />   <use xlink:href="#dot" transform="translate(34.34336,-0.65174)" />   <use xlink:href="#dot" transform="translate(34.34336,-0.65174)" />   <use xlink:href="#dot" transform="translate(34.34336,-0.65174)" />   <use xlink:href="#dot" transform="translate(34.34336,-0.65174)" />   <use xlink:href="#dot" transform="translate(34.34336,-0.65174)" />   <use xlink:href="#dot" transform="translate(34.34336,-0.65174)" />   <use xlink:href="#dot" transform="translate(34.34336,-0.65174)" />   <use xlink:href="#dot" transform="translate(34.34336,-0.65174)" />   <use xlink:href="#dot" transform="translate(34.34336,-0.65174)" />   <use xlink:href="#dot" transform="translate(-9.1121,7.9326)" />   <use xlink:href="#dot" transform="translate(37.26607,-2.70548)" />   <use xlink:href="#dot" transform="translate(37.26607,-2.70548)" />   <use xlink:href="#dot" transform="translate(38.11489,-2.75443)" />   <use xlink:href="#dot" transform="translate(37.26607,-2.70548)" />   <use xlink:href="#dot" transform="translate(36.432747,-0.74192)" />   <use xlink:href="#dot" transform="translate(36.432747,-0.74192)" />   <use xlink:href="#dot" transform="translate(36.432747,-0.74192)" />   <use xlink:href="#dot" transform="translate(36.432747,-0.74192)" />   <use xlink:href="#dot" transform="translate(36.432747,-0.74192)" />   <use xlink:href="#dot" transform="translate(36.432747,-0.74192)" />   <use xlink:href="#dot" transform="translate(36.432747,-0.74192)" />   <use xlink:href="#dot" transform="translate(36.432747,-0.74192)" />   <use xlink:href="#dot" transform="translate(36.432747,-0.74192)" />   <use xlink:href="#dot" transform="translate(36.432747,-0.74192)" />   <use xlink:href="#dot" transform="translate(36.432747,-0.74192)" />   <use xlink:href="#dot" transform="translate(36.432747,-0.74192)" />   <use xlink:href="#dot" transform="translate(36.432747,-0.74192)" />   <use xlink:href="#dot" transform="translate(40.00172,-3.22078)" />   <use xlink:href="#dot" transform="translate(40.00172,-3.22078)" />   <use xlink:href="#dot" transform="translate(40.00172,-3.22078)" />   <use xlink:href="#dot" transform="translate(40.00172,-3.22078)" />   <use xlink:href="#dot" transform="translate(40.00172,-3.22078)" />   <use xlink:href="#dot" transform="translate(40.00172,-3.22078)" />   <use xlink:href="#dot" transform="translate(40.00172,-3.22078)" />   <use xlink:href="#dot" transform="translate(40.00172,-3.22078)" />   <use xlink:href="#dot" transform="translate(40.00172,-3.22078)" />   <use xlink:href="#dot" transform="translate(40.00172,-3.22078)" />   <use xlink:href="#dot" transform="translate(40.00172,-3.22078)" />   <use xlink:href="#dot" transform="translate(40.00172,-3.22078)" />   <use xlink:href="#dot" transform="translate(40.00172,-3.22078)" />   <use xlink:href="#dot" transform="translate(40.00172,-3.22078)" />   <use xlink:href="#dot" transform="translate(40.00172,-3.22078)" />   <use xlink:href="#dot" transform="translate(40.00172,-3.22078)" />   <use xlink:href="#dot" transform="translate(40.00172,-3.22078)" />   <use xlink:href="#dot" transform="translate(40.00172,-3.22078)" />   <use xlink:href="#dot" transform="translate(40.00172,-3.22078)" />   <use xlink:href="#dot" transform="translate(37.98333,2.31667)" />   <use xlink:href="#dot" transform="translate(37.98333,2.31667)" />   <use xlink:href="#dot" transform="translate(35.324444,-22.060833)" />   <use xlink:href="#dot" transform="translate(35.324444,-22.060833)" />   <use xlink:href="#dot" transform="translate(35.324444,-22.060833)" />   <use xlink:href="#dot" transform="translate(35.324444,-22.060833)" />   <use xlink:href="#dot" transform="translate(35.324444,-22.060833)" />   <use xlink:href="#dot" transform="translate(35.324444,-22.060833)" />   <use xlink:href="#dot" transform="translate(35.324444,-22.060833)" />   <use xlink:href="#dot" transform="translate(35.324444,-22.060833)" />   <use xlink:href="#dot" transform="translate(35.324444,-22.060833)" />   <use xlink:href="#dot" transform="translate(35.324444,-22.060833)" />   <use xlink:href="#dot" transform="translate(35.324444,-22.060833)" />   <use xlink:href="#dot" transform="translate(35.324444,-22.060833)" />   <use xlink:href="#dot" transform="translate(35.324444,-22.060833)" />   <use xlink:href="#dot" transform="translate(35.324444,-22.060833)" />   <use xlink:href="#dot" transform="translate(35.324444,-22.060833)" />   <use xlink:href="#dot" transform="translate(35.324444,-22.060833)" />   <use xlink:href="#dot" transform="translate(35.324444,-22.060833)" />   <use xlink:href="#dot" transform="translate(18.818056,-5.038611)" />   <use xlink:href="#dot" transform="translate(18.818056,-5.038611)" />   <use xlink:href="#dot" transform="translate(18.818056,-5.038611)" />   <use xlink:href="#dot" transform="translate(18.818056,-5.038611)" />   <use xlink:href="#dot" transform="translate(18.818056,-5.038611)" />   <use xlink:href="#dot" transform="translate(38.033299,-4.2667)" />   <use xlink:href="#dot" transform="translate(47.87,-21.38)" />   <use xlink:href="#dot" transform="translate(47.87,-21.38)" />   <use xlink:href="#dot" transform="translate(21.3478,4.80413)" />   <use xlink:href="#dot" transform="translate(21.3478,4.80413)" />   <use xlink:href="#dot" transform="translate(21.9,4.6)" />   <use xlink:href="#dot" transform="translate(21.3478,4.80413)" />   <use xlink:href="#dot" transform="translate(21.9,4.6)" />   <use xlink:href="#dot" transform="translate(21.3478,4.80413)" />   <use xlink:href="#dot" transform="translate(21.3478,4.80413)" />   <use xlink:href="#dot" transform="translate(21.3478,4.80413)" />   <use xlink:href="#dot" transform="translate(21.9,4.6)" />   <use xlink:href="#dot" transform="translate(21.9,4.6)" />   <use xlink:href="#dot" transform="translate(21.3478,4.80413)" />   <use xlink:href="#dot" transform="translate(21.3478,4.80413)" />   <use xlink:href="#dot" transform="translate(-12.17,9.67)" />   <use xlink:href="#dot" transform="translate(-12.17,9.67)" />   <use xlink:href="#dot" transform="translate(-12.17,9.67)" />   <use xlink:href="#dot" transform="translate(-12.17,9.67)" />   <use xlink:href="#dot" transform="translate(-12.17,9.67)" />   <use xlink:href="#dot" transform="translate(-12.17,9.67)" />   <use xlink:href="#dot" transform="translate(-12.17,9.67)" />   <use xlink:href="#dot" transform="translate(-12.18,9.7)" />   <use xlink:href="#dot" transform="translate(-12.18,9.7)" />   <use xlink:href="#dot" transform="translate(32.0833,-12.75)" />   <use xlink:href="#dot" transform="translate(32.0833,-12.75)" />   <use xlink:href="#dot" transform="translate(32.0833,-12.75)" />   <use xlink:href="#dot" transform="translate(-10.97,7.9)" />   <use xlink:href="#dot" transform="translate(-10.97,7.9)" />   <use xlink:href="#dot" transform="translate(-10.97,7.9)" />   <use xlink:href="#dot" transform="translate(-10.97,7.9)" />   <use xlink:href="#dot" transform="translate(-10.97,7.9)" />   <use xlink:href="#dot" transform="translate(-10.97,7.9)" />   <use xlink:href="#dot" transform="translate(-10.97,7.9)" />   <use xlink:href="#dot" transform="translate(-10.97,7.9)" />   <use xlink:href="#dot" transform="translate(-10.97,7.9)" />   <use xlink:href="#dot" transform="translate(-11.08,8.2)" />   <use xlink:href="#dot" transform="translate(19.35,2.9667)" />   <use xlink:href="#dot" transform="translate(19.35,2.9667)" />   <use xlink:href="#dot" transform="translate(19.35,2.9667)" />   <use xlink:href="#dot" transform="translate(19.35,2.9667)" />   <use xlink:href="#dot" transform="translate(19.35,2.9667)" />   <use xlink:href="#dot" transform="translate(19.35,2.9667)" />   <use xlink:href="#dot" transform="translate(19.35,2.9667)" />   <use xlink:href="#dot" transform="translate(-11.77,9.4)" />   <use xlink:href="#dot" transform="translate(12.3167,5.5333)" />   <use xlink:href="#dot" transform="translate(18.71,15.42)" />   <use xlink:href="#dot" transform="translate(18.71,15.42)" />   <use xlink:href="#dot" transform="translate(18.71,15.42)" />   <use xlink:href="#dot" transform="translate(18.71,15.42)" />   <use xlink:href="#dot" transform="translate(18.71,15.42)" />   <use xlink:href="#dot" transform="translate(18.71,15.42)" />   <use xlink:href="#dot" transform="translate(18.71,15.42)" />   <use xlink:href="#dot" transform="translate(32.033329,-27.616671)" />   <use xlink:href="#dot" transform="translate(12.03083,5.25192)" />   <use xlink:href="#dot" transform="translate(12.03083,5.25192)" />   <use xlink:href="#dot" transform="translate(12.03083,5.25192)" />   <use xlink:href="#dot" transform="translate(12.03083,5.25192)" />   <use xlink:href="#dot" transform="translate(12.03083,5.25192)" />   <use xlink:href="#dot" transform="translate(32.43333,-28.26639)" />   <use xlink:href="#dot" transform="translate(32.43333,-28.26639)" />   <use xlink:href="#dot" transform="translate(32.38333,-28.15)" />   <use xlink:href="#dot" transform="translate(32.38333,-28.15)" />   <use xlink:href="#dot" transform="translate(32.41667,-28.38333)" />   <use xlink:href="#dot" transform="translate(32.41667,-28.38333)" />   <use xlink:href="#dot" transform="translate(40.82,-1.77)" />   <use xlink:href="#dot" transform="translate(38.18,6.45)" />   <use xlink:href="#dot" transform="translate(38.67,7.6)" />   <use xlink:href="#dot" transform="translate(1.2125,6.1372)" />   <use xlink:href="#dot" transform="translate(34.58,8.25)" />   <use xlink:href="#dot" transform="translate(34.01556,0.69028)" />   <use xlink:href="#dot" transform="translate(34.01556,0.69028)" />   <use xlink:href="#dot" transform="translate(34.01556,0.69028)" />   <use xlink:href="#dot" transform="translate(34.01556,0.69028)" />   <use xlink:href="#dot" transform="translate(34.01556,0.69028)" />   <use xlink:href="#dot" transform="translate(34.01556,0.69028)" />   <use xlink:href="#dot" transform="translate(34.01556,0.69028)" />   <use xlink:href="#dot" transform="translate(33.9,0.2)" />   <use xlink:href="#dot" transform="translate(33.9,0.2)" />   <use xlink:href="#dot" transform="translate(33.9,0.2)" />   <use xlink:href="#dot" transform="translate(33.9,0.2)" />   <use xlink:href="#dot" transform="translate(33.9,0.2)" />   <use xlink:href="#dot" transform="translate(33.9,0.2)" />   <use xlink:href="#dot" transform="translate(33.9,0.2)" />   <use xlink:href="#dot" transform="translate(33.9,0.2)" />   <use xlink:href="#dot" transform="translate(39.56667,-4.28333)" />   <use xlink:href="#dot" transform="translate(39.53333,-4.3)" />   <use xlink:href="#dot" transform="translate(39.56667,-4.28333)" />   <use xlink:href="#dot" transform="translate(39.53333,-4.3)" />   <use xlink:href="#dot" transform="translate(39.56667,-4.28333)" />   <use xlink:href="#dot" transform="translate(39.56667,-4.28333)" />   <use xlink:href="#dot" transform="translate(39.56667,-4.28333)" />   <use xlink:href="#dot" transform="translate(39.56667,-4.28333)" />   <use xlink:href="#dot" transform="translate(39.56667,-4.28333)" />   <use xlink:href="#dot" transform="translate(39.56667,-4.28333)" />   <use xlink:href="#dot" transform="translate(39.53333,-4.3)" />   <use xlink:href="#dot" transform="translate(39.56667,-4.28333)" />   <use xlink:href="#dot" transform="translate(39.56667,-4.28333)" />   <use xlink:href="#dot" transform="translate(39.56667,-4.28333)" />   <use xlink:href="#dot" transform="translate(39.56667,-4.28333)" />   <use xlink:href="#dot" transform="translate(39.53333,-4.3)" />   <use xlink:href="#dot" transform="translate(39.56667,-4.28333)" />   <use xlink:href="#dot" transform="translate(39.56667,-4.28333)" />   <use xlink:href="#dot" transform="translate(39.56667,-4.28333)" />   <use xlink:href="#dot" transform="translate(39.56667,-4.28333)" />   <use xlink:href="#dot" transform="translate(39.56667,-4.28333)" />   <use xlink:href="#dot" transform="translate(39.56667,-4.28333)" />   <use xlink:href="#dot" transform="translate(39.56667,-4.28333)" />   <use xlink:href="#dot" transform="translate(39.56667,-4.28333)" />   <use xlink:href="#dot" transform="translate(39.56667,-4.28333)" />   <use xlink:href="#dot" transform="translate(39.56667,-4.28333)" />   <use xlink:href="#dot" transform="translate(39.56667,-4.28333)" />   <use xlink:href="#dot" transform="translate(39.56667,-4.28333)" />   <use xlink:href="#dot" transform="translate(39.56667,-4.28333)" />   <use xlink:href="#dot" transform="translate(39.56667,-4.28333)" />   <use xlink:href="#dot" transform="translate(39.56667,-4.28333)" />   <use xlink:href="#dot" transform="translate(39.56667,-4.28333)" />   <use xlink:href="#dot" transform="translate(39.56667,-4.28333)" />   <use xlink:href="#dot" transform="translate(39.56667,-4.28333)" />   <use xlink:href="#dot" transform="translate(39.56667,-4.28333)" />   <use xlink:href="#dot" transform="translate(39.56667,-4.28333)" />   <use xlink:href="#dot" transform="translate(39.56667,-4.28333)" />   <use xlink:href="#dot" transform="translate(39.56667,-4.28333)" />   <use xlink:href="#dot" transform="translate(39.56667,-4.28333)" />   <use xlink:href="#dot" transform="translate(39.56667,-4.28333)" />   <use xlink:href="#dot" transform="translate(39.56667,-4.28333)" />   <use xlink:href="#dot" transform="translate(34.76667,-0.68333)" />   <use xlink:href="#dot" transform="translate(34.76667,-0.68333)" />   <use xlink:href="#dot" transform="translate(27.416667,-11.566667)" />   <use xlink:href="#dot" transform="translate(27.416667,-11.566667)" />   <use xlink:href="#dot" transform="translate(27.416667,-11.566667)" />   <use xlink:href="#dot" transform="translate(-4.62,9.15)" />   <use xlink:href="#dot" transform="translate(35.56667,1.4)" />   <use xlink:href="#dot" transform="translate(31.93,-25.43)" />   <use xlink:href="#dot" transform="translate(35.45,1.25)" />   <use xlink:href="#dot" transform="translate(35.26667,-16.91667)" />   <use xlink:href="#dot" transform="translate(35.26667,-16.91667)" />   <use xlink:href="#dot" transform="translate(35.26667,-16.91667)" />   <use xlink:href="#dot" transform="translate(35.26667,-16.91667)" />   <use xlink:href="#dot" transform="translate(35.26667,-16.91667)" />   <use xlink:href="#dot" transform="translate(35.26667,-16.91667)" />   <use xlink:href="#dot" transform="translate(35.26667,-16.91667)" />   <use xlink:href="#dot" transform="translate(35.26667,-16.91667)" />   <use xlink:href="#dot" transform="translate(35.26667,-16.91667)" />   <use xlink:href="#dot" transform="translate(35.26667,-16.91667)" />   <use xlink:href="#dot" transform="translate(35.26667,-16.91667)" />   <use xlink:href="#dot" transform="translate(35.26667,-16.91667)" />   <use xlink:href="#dot" transform="translate(35.26667,-16.91667)" />   <use xlink:href="#dot" transform="translate(35.26667,-16.91667)" />   <use xlink:href="#dot" transform="translate(35.26667,-16.91667)" />   <use xlink:href="#dot" transform="translate(35.26667,-16.91667)" />   <use xlink:href="#dot" transform="translate(35.26667,-16.91667)" />   <use xlink:href="#dot" transform="translate(35.26667,-16.91667)" />   <use xlink:href="#dot" transform="translate(35.26667,-16.91667)" /><polygon class="region" points="-12.17,9.67 -12.18,9.7 18.71,15.42 38.67,7.6 47.87,-21.38 32.41667,-28.38333 -10.97,7.9 -12.17,9.67 " />
		  </g>
		</svg>