<?xml version="1.0" encoding="UTF-8"?>
	<svg xmlns:xlink="http://www.w3.org/1999/xlink" 
	xmlns="http://www.w3.org/2000/svg" 
	width="360px" height="180px">
	   <style type="text/css">
		  <![CDATA[     
		  .region 
		  { 
			fill:blue; 
			opacity:0.4; 
			stroke:blue;
		  }
		  ]]>
	   </style>

	<circle id="dot" x="-2" y="-2" r="2" style="stroke:none; stroke-width:0; fill:black; opacity:0.7;"/>


	 <image x="0" y="0" width="360" height="180" xlink:href="map.jpg"/>

 
	 <g transform="translate(180,90) scale(1,-1)"><polygon class="region" points="13.5448,-12.361064407 13.6544,-12.236964407 13.7779,-11.896364407 13.8651,-11.008464407 13.3137,-9.9852644069999 13.156,-9.340664408 12.9999,-9.092964407 12.9983,-9.0364644069999 13.3991,-8.746364408 13.3476,-8.4666644069999 13.5917,-8.243464408 15.0758,-4.7841644069999 15.8455,-4.2010644069999 16.5669,-4.204564407 19.32,-5.436664407 22.4433,-5.568064407 26.0917,-4.6844644079999 27.7869,-3.6337644069999 29.0691,-1.9192644079999 29.693,2.108835593 29.1207,2.9633355930001 28.9537,3.526835593 20.1883,4.624235593 19.3756,4.8499355920001 15.5376,4.8499355920001 13.7767,5.753035593 8.3132,5.753035593 7.6483,5.3250355930001 7.2048,5.4043355920001 6.1404,7.2754355920001 5.2012,7.684235593 4.0325,7.248435592 3.6516,6.418635592 1.4345,6.182835593 1.0923,6.050435592 0.9248,5.7840355930001 0.2864,5.7765355930001 -0.5396,5.364235593 -0.905,5.728235592 -3.0057,6.6060355930001 -5.1631,6.5448355930001 -7.4753,5.635835592 -10.5252,6.706035593 -11.2112,6.6472355930001 -11.5642,7.001135592 -12.5144,7.385735593 -12.4304,7.418835593 -12.3395,7.376735593 -12.3001,7.3836355920001 -12.4836,7.4490355930001 -12.3026,7.528035593 -12.5341,7.6538355930001 -12.475,7.7812355930001 -12.7648,7.7466355930001 -13.0015,8.237435593 -13.1655,8.1703355920001 -13.2895,8.418635592 -12.928,8.5641355920001 -13.1751,8.5313355930001 -13.2502,8.7962355930001 -13.1266,8.8397355930001 -13.2972,8.955135593 -13.3246,9.3385355930001 -13.607,9.5643355930001 -13.7258,9.5032355930001 -13.5682,9.770335592 -13.7551,9.766435593 -13.6837,9.9380355920001 -13.8143,9.8399355930001 -14.0481,10.153235593 -14.1376,10.047035592 -14.4554,10.208035593 -14.5457,10.505835593 -14.6671,10.474635593 -14.541,10.817135592 -14.7033,10.632535592 -14.6562,10.800235593 -14.7482,10.689935592 -14.8082,10.822135593 -14.671,11.039035592 -15.0864,10.925135593 -14.9955,11.210535593 -15.2287,11.073935593 -15.4281,11.239635592 -15.3538,11.406535592 -15.5141,11.332035593 -15.286,11.625035593 -15.1229,11.537935592 -14.9756,11.589635592 -15.2675,11.637035593 -15.1904,11.724135592 -15.2239,11.759135592 -15.4318,11.543935593 -15.5219,11.779835592 -15.3916,11.882035593 -15.192,11.869235593 -15.0249,11.966435593 -15.4094,11.965035592 -15.9612,11.734635593 -15.882,11.945735593 -16.1126,11.877635592 -16.3861,12.071335593 -16.1391,12.293135593 -16.4727,12.176535593 -16.772,12.394135593 -16.5909,12.632735593 -16.4008,12.558835593 -16.5738,12.669935592 -16.7722,12.573135593 -16.726,13.458435593 -16.3657,13.268835592 -15.5856,13.475035592 -16.4156,13.326435593 -16.6188,13.646335593 -14.2582,13.945635593 -13.0247,13.906835592 -11.0068,13.608435593 -8.7327,12.886135593 -6.86,13.367635592 -4.1044,14.464535592 2.8248,12.859335592 4.0534,12.090635592 6.1609,11.654635593 10.4395,10.056135593 15.2215,10.313435593 21.9945,12.029235593 33.0117,13.293535592 34.6379,12.790235593 34.8651,12.073835593 34.4666,11.302935593 34.8301,7.375835592 35.7216,4.9414355920001 35.3651,1.7126355930001 35.5216,0.84213559200003 36.9202,-1.2515644069999 38.416,-2.511164408 39.1573,-2.475864407 42.2611,0.048535593000054 42.4759,1.3474355930001 43.0178,1.509035593 43.0117,0.79953559300003 43.6379,1.4604355930001 44.8802,2.145535593 45.1933,1.9522355930001 43.6553,0.79893559300007 42.1479,-0.82296440799996 41.9941,-0.72366440699994 42.0716,-0.90056440699993 41.9789,-1.007564408 41.9725,-0.90626440699998 41.9484,-0.88036440699995 41.913,-0.87336440699994 41.9083,-1.1926644069999 41.8001,-1.1412644079999 41.7657,-1.1434644079999 41.7025,-1.198364408 41.8436,-1.231064408 41.3149,-1.958464407 41.0164,-2.050064407 41.0148,-1.903964408 40.9863,-1.9081644079999 40.9409,-2.0796644069999 40.9202,-2.000064407 40.8477,-1.9752644069999 40.9107,-2.0105644079999 40.8564,-2.0730644069999 40.9155,-2.0778644069999 40.9884,-2.254564407 40.9617,-2.3067644069999 40.7713,-2.2533644079999 40.7716,-2.451664407 40.189,-2.728764407 40.2449,-2.985764407 39.8768,-3.625664408 39.7779,-3.5875644069999 39.874,-3.6951644069999 39.7109,-4.0522644069999 39.5657,-4.0454644069999 39.6761,-4.0903644069999 39.5435,-4.431964407 39.1922,-4.683664408 38.7821,-6.003064407 38.8272,-6.4215644069999 39.0463,-6.469764407 39.5524,-7.0219644069999 39.28,-7.5069644079999 39.2514,-7.817964408 39.3256,-7.7318644069999 39.4423,-7.815464408 39.449,-8.006564408 39.2682,-8.322464408 39.5557,-8.9290644069999 39.4481,-8.8901644069999 39.4815,-9.0973644069999 39.6168,-9.0719644069999 39.5623,-9.425964407 39.803,-9.8699644069999 39.708,-9.981864408 40.1131,-10.278664407 40.402,-10.299864407 40.3952,-10.524364408 40.5179,-10.484564408 40.6401,-10.685764408 40.4811,-10.758364407 40.6136,-10.834164407 40.3561,-11.332664408 40.5444,-12.001464407 40.4283,-12.550664408 40.5655,-12.532064407 40.6313,-12.754464407 40.4043,-12.952164408 40.5886,-12.969364407 40.4622,-13.516464407 40.6026,-13.546764407 40.6412,-14.018864407 40.5298,-14.172864407 40.7226,-14.198464407 40.626,-14.565364407 40.8111,-14.402264407 40.8381,-14.829964407 40.6185,-14.859064408 40.7788,-14.997664408 40.4985,-15.175164407 40.6769,-15.250764407 40.5419,-15.516464407 39.9795,-16.227564408 39.752,-16.260764408 39.7385,-16.426764407 39.8542,-16.446364407 39.0679,-17.006764407 38.6662,-17.013564407 38.1508,-17.286564407 38.0693,-17.184064407 38.0916,-17.308664408 36.9291,-17.962064407 36.3164,-18.874864408 35.8629,-18.955964408 34.8859,-19.850864407 34.6308,-19.663164407 34.7819,-19.851564407 34.6025,-20.524664407 35.0024,-20.743464407 35.1153,-20.985164407 34.984,-21.115464407 35.0621,-21.344764407 35.1273,-21.167264407 35.3435,-22.186064407 35.4987,-22.101664408 35.523,-22.310064408 35.5325,-22.206264407 35.5454,-22.172664407 35.6045,-22.926564408 35.3305,-23.682964408 35.3417,-23.995164407 35.549,-23.785064407 35.5003,-24.113164407 35.0914,-24.625864408 33.2191,-25.340364407 32.8235,-25.601964408 32.7511,-25.867664408 32.738,-25.774764407 32.7214,-25.752964408 32.692,-25.736164407 32.7021,-25.882164407 32.4524,-25.975564407 32.6697,-26.122264408 32.7045,-26.319364408 32.6779,-26.345364407 32.6694,-26.366364408 32.676,-26.394064407 32.7113,-26.316464407 32.6897,-26.200264407 32.8854,-26.284564407 32.9621,-26.085864407 32.896,-26.856864407 32.5526,-28.165264407 32.158,-28.751964407 31.7038,-28.629564408 31.4041,-28.207664407 31.4142,-26.371864408 31.1327,-26.195664407 30.9722,-23.714664407 30.4156,-21.589364408 30.474,-21.043964407 32.2004,-21.176664407 32.7513,-20.650464408 33.1295,-20.663164408 33.5577,-20.102364408 33.5304,-19.437064407 33.8131,-19.100964408 33.7231,-18.000564408 33.5904,-16.858764407 33.2299,-16.306664407 32.7581,-16.114264407 32.26,-16.232864407 31.7474,-16.885864407 31.7246,-17.121164407 30.1239,-16.682264407 28.5163,-17.110164407 28.0846,-16.858564407 27.0572,-17.843664407 26.4996,-17.991064408 26.0048,-18.417764407 25.5489,-18.461164408 25.2722,-18.694864407 23.7075,-20.666064407 23.1335,-20.453164408 22.6877,-20.046564407 23.0516,-19.242364408 24.1645,-17.999164408 24.152,-17.456764407 23.1426,-16.298164408 21.6702,-13.958164407 19.999,-12.331464407 19.353,-12.421364407 17.6212,-14.949064408 16.5834,-15.750664407 14.5409,-15.302564407 13.6806,-14.513164408 13.8181,-12.802764408 13.5448,-12.361064407 " /><polygon class="region" points="38.9347,7.273435593 38.623,6.8879355920001 38.2986,6.915735593 38.1916,7.2013355930001 38.6883,8.0374355930001 39.3367,8.565835592 39.7755,8.483935592 39.7896,8.189535592 38.9347,7.273435593 " /><polygon class="region" points="39.9129,-16.297764407 39.8928,-16.407264408 39.8454,-16.420664408 39.8094,-16.317864407 39.9129,-16.297764407 " /><polygon class="region" points="40.6175,-12.339764408 40.593,-12.391264407 40.5456,-12.360464408 40.5975,-12.321264407 40.6175,-12.339764408 " /><polygon class="region" points="40.5593,-12.193664407 40.6075,-12.207664408 40.5934,-12.252564407 40.579,-12.247364408 40.5593,-12.193664407 " /><polygon class="region" points="39.5139,-8.960464408 39.5337,-8.955964407 39.5355,-9.0143644079999 39.4904,-8.9662644069999 39.5139,-8.960464408 " /><polygon class="region" points="40.6858,-11.031264407 40.6437,-11.043564407 40.6092,-11.031364407 40.7149,-10.996064408 40.6858,-11.031264407 " /><polygon class="region" points="40.6114,-12.458564407 40.5928,-12.449664407 40.5953,-12.402964407 40.6162,-12.415064407 40.6114,-12.458564407 " /><polygon class="region" points="36.4014,-18.665764408 36.4164,-18.653164407 36.3931,-18.714964408 36.3848,-18.676464407 36.4014,-18.665764408 " /><polygon class="region" points="-13.8336,9.463235592 -13.8386,9.481835593 -13.7953,9.5120355930001 -13.7939,9.5082355930001 -13.8336,9.463235592 " /><polygon class="region" points="40.6832,-11.174664407 40.669,-11.176264407 40.6527,-11.187364407 40.685,-11.147464407 40.6832,-11.174664407 " /><polygon class="region" points="40.6772,-10.851364408 40.6535,-10.875264408 40.6437,-10.877064407 40.6529,-10.828564407 40.6772,-10.851364408 " /><polygon class="region" points="-13.765,9.8240355930001 -13.7788,9.8046355930001 -13.732,9.8499355930001 -13.7528,9.836935592 -13.765,9.8240355930001 " /><polygon class="region" points="40.5905,-12.564264407 40.5784,-12.547964407 40.6008,-12.527964407 40.6111,-12.540664407 40.5905,-12.564264407 " /><polygon class="region" points="-13.7533,9.4427355930001 -13.7598,9.4443355930001 -13.7696,9.504935593 -13.7476,9.478235592 -13.7533,9.4427355930001 " /><polygon class="region" points="-14.0555,10.120935592 -14.0389,10.108635593 -14.0639,10.099035593 -14.0728,10.112535593 -14.0555,10.120935592 " /><polygon class="region" points="39.5254,-8.540164407 39.5019,-8.525164408 39.4997,-8.5047644069999 39.5128,-8.512064407 39.5254,-8.540164407 " /><polygon class="region" points="39.359,-4.6566644079999 39.3983,-4.655664408 39.3979,-4.666564407 39.3573,-4.6670644069999 39.359,-4.6566644079999 " /><polygon class="region" points="39.4114,-7.413964408 39.417,-7.4263644069999 39.378,-7.4168644069999 39.399,-7.4021644069999 39.4114,-7.413964408 " /><polygon class="region" points="39.9149,-16.358464407 39.9027,-16.375464408 39.9337,-16.311164407 39.938,-16.326864408 39.9149,-16.358464407 " /><polygon class="region" points="40.6327,-10.773064407 40.6566,-10.770764407 40.6513,-10.797764407 40.6409,-10.779164407 40.6327,-10.773064407 " /><polygon class="region" points="40.3208,-10.240164407 40.3362,-10.242364407 40.3468,-10.264564407 40.329,-10.256764407 40.3208,-10.240164407 " /><polygon class="region" points="39.1707,-5.122164407 39.1562,-5.103164407 39.1688,-5.085664407 39.1675,-5.102264407 39.1707,-5.122164407 " /><polygon class="region" points="40.504,-12.331664408 40.505,-12.338164408 40.4885,-12.279764407 40.4977,-12.287464407 40.504,-12.331664408 " /><polygon class="region" points="40.8182,-14.851264408 40.8356,-14.848864408 40.831,-14.866464407 40.8214,-14.866564407 40.8182,-14.851264408 " /><polygon class="region" points="39.7953,-16.335564408 39.7842,-16.318864408 39.7979,-16.309964407 39.7997,-16.313864407 39.7953,-16.335564408 " /><polygon class="region" points="39.3023,-7.799864407 39.2949,-7.7859644069999 39.309,-7.773164407 39.3117,-7.7759644069999 39.3023,-7.799864407 " /><polygon class="region" points="40.6017,-11.187164407 40.6176,-11.194064408 40.6407,-11.194764407 40.5865,-11.181064407 40.6017,-11.187164407 " /><polygon class="region" points="40.5878,-11.983764407 40.5816,-11.997964407 40.5704,-11.976064408 40.5888,-11.973164407 40.5878,-11.983764407 " /><polygon class="region" points="40.597,-12.597864407 40.6018,-12.594264408 40.6232,-12.594964408 40.6171,-12.607164407 40.597,-12.597864407 " /><polygon class="region" points="40.7395,-15.038364407 40.7309,-15.050464407 40.7279,-15.049564407 40.7474,-15.030464407 40.7395,-15.038364407 " /><polygon class="region" points="40.5597,-15.444064407 40.5749,-15.417664408 40.572,-15.444764408 40.5597,-15.444064407 " /><polygon class="region" points="39.8932,-16.421064407 39.8805,-16.425464408 39.858,-16.424264407 39.898,-16.412664408 39.8932,-16.421064407 " /><polygon class="region" points="39.5325,-9.0605644079999 39.5241,-9.058664407 39.5237,-9.0459644069999 39.5342,-9.0490644069999 39.5325,-9.0605644079999 " /><polygon class="region" points="39.0767,-16.948564407 39.067,-16.951464408 39.0677,-16.939564407 39.0798,-16.936564407 39.0767,-16.948564407 " /><polygon class="region" points="39.1396,-5.200264407 39.1341,-5.204964407 39.153,-5.173764408 39.149,-5.194364408 39.1396,-5.200264407 " /><polygon class="region" points="-13.6885,9.900735592 -13.6964,9.892535593 -13.6889,9.920535592 -13.6866,9.9070355920001 -13.6885,9.900735592 " /><polygon class="region" points="39.289,-4.6659644069999 39.2759,-4.6636644079999 39.2752,-4.6507644069999 39.2898,-4.6613644079999 39.289,-4.6659644069999 " /><polygon class="region" points="-13.8035,9.463735593 -13.7901,9.4695355920001 -13.7869,9.465935593 -13.796,9.4568355920001 -13.8035,9.463735593 " /><polygon class="region" points="40.6394,-11.369564407 40.6248,-11.370664408 40.6208,-11.370364407 40.6457,-11.364164407 40.6394,-11.369564407 " /><polygon class="region" points="-13.7715,9.8444355930001 -13.7879,9.835535592 -13.7904,9.837835592 -13.7699,9.848435593 -13.7715,9.8444355930001 " /><polygon class="region" points="39.4673,-8.636564408 39.449,-8.6466644069999 39.4448,-8.6462644069999 39.4688,-8.632264407 39.4673,-8.636564408 " /><polygon class="region" points="36.7669,-18.206964407 36.7852,-18.210064407 36.7867,-18.212764407 36.7737,-18.216764407 36.7669,-18.206964407 " /><polygon class="region" points="40.3781,-10.285564408 40.3694,-10.283464407 40.3702,-10.274464408 40.3772,-10.277564407 40.3781,-10.285564408 " /><polygon class="region" points="36.9276,-18.019964407 36.9206,-18.019364407 36.9165,-18.012364407 36.9275,-18.013264408 36.9276,-18.019964407 " /><polygon class="region" points="-14.7143,11.013035593 -14.7097,11.014235593 -14.7064,11.005335593 -14.718,11.004935592 -14.7143,11.013035593 " /><polygon class="region" points="40.6262,-12.472064407 40.6303,-12.472164407 40.6309,-12.487464407 40.6245,-12.485464407 40.6262,-12.472064407 " /><polygon class="region" points="39.2925,-7.809464407 39.2952,-7.8124644079999 39.2856,-7.822064408 39.2856,-7.813664407 39.2925,-7.809464407 " /><polygon class="region" points="39.0854,-17.120564407 39.0776,-17.122064407 39.0756,-17.118564407 39.0856,-17.113564408 39.0854,-17.120564407 " /><polygon class="region" points="40.8355,-14.536264408 40.8438,-14.537864408 40.8374,-14.545064407 40.8351,-14.541064407 40.8355,-14.536264408 " /><polygon class="region" points="39.9519,-16.273964407 39.9437,-16.277664408 39.9403,-16.276564407 39.9504,-16.263464407 39.9519,-16.273964407 " /><polygon class="region" points="39.2589,-6.691864407 39.2665,-6.690964407 39.2718,-6.702064407 39.2589,-6.691864407 " /><polygon class="region" points="39.5058,-7.9431644069999 39.5173,-7.9408644069999 39.5241,-7.9491644079999 39.5167,-7.944864407 39.5058,-7.9431644069999 " /><polygon class="region" points="39.1693,-5.014064407 39.1646,-5.014064407 39.1633,-5.005564407 39.167,-5.004864407 39.1693,-5.014064407 " /><polygon class="region" points="39.2457,-6.6503644069999 39.2509,-6.6466644069999 39.2531,-6.654964408 39.2481,-6.653864407 39.2457,-6.6503644069999 " /><polygon class="region" points="39.5723,-9.093764407 39.5805,-9.0936644069999 39.5828,-9.099064407 39.5763,-9.100164407 39.5723,-9.093764407 " /><polygon class="region" points="40.597,-12.488064407 40.6014,-12.487264407 40.6081,-12.496364408 40.5992,-12.495164407 40.597,-12.488064407 " /><polygon class="region" points="40.5207,-12.379764407 40.523,-12.374864407 40.5313,-12.381364407 40.5276,-12.383964407 40.5207,-12.379764407 " /><polygon class="region" points="36.796,-18.203964407 36.8013,-18.198664408 36.8041,-18.203864407 36.8008,-18.209264407 36.796,-18.203964407 " /><polygon class="region" points="-13.725,9.858135593 -13.732,9.855235592 -13.7326,9.858135593 -13.7192,9.8628355930001 -13.725,9.858135593 " /><polygon class="region" points="39.7756,-16.326664407 39.7759,-16.321864407 39.7826,-16.334364407 39.7781,-16.333064407 39.7756,-16.326664407 " /><polygon class="region" points="36.4777,-18.568364407 36.4821,-18.569664407 36.4868,-18.580464408 36.48,-18.576764407 36.4777,-18.568364407 " /><polygon class="region" points="40.6067,-11.819864407 40.5995,-11.821164408 40.5979,-11.818464407 40.6099,-11.818464407 40.6067,-11.819864407 " /><polygon class="region" points="-14.5809,10.761735593 -14.5763,10.772835593 -14.5781,10.760435593 -14.5809,10.761735593 " /><polygon class="region" points="36.799,-18.222764407 36.7931,-18.226064407 36.7865,-18.225864408 36.8001,-18.219864407 36.799,-18.222764407 " /><polygon class="region" points="39.2713,-7.8044644079999 39.2757,-7.8018644069999 39.2834,-7.8019644079999 39.2739,-7.806664407 39.2713,-7.8044644079999 " /><polygon class="region" points="40.4279,-10.380364408 40.4226,-10.380864407 40.4221,-10.377364407 40.4288,-10.376664407 40.4279,-10.380364408 " /><polygon class="region" points="39.1139,-5.1451644069999 39.1157,-5.1403644079999 39.1187,-5.1428644069999 39.1171,-5.146564408 39.1139,-5.1451644069999 " />
		  </g>
		</svg>