<?xml version="1.0" encoding="UTF-8"?>
	<svg xmlns:xlink="http://www.w3.org/1999/xlink" 
	xmlns="http://www.w3.org/2000/svg" 
	width="360px" height="180px">
	   <style type="text/css">
		  <![CDATA[     
		  .region 
		  { 
			fill:blue; 
			opacity:0.4; 
			stroke:blue;
		  }
		  ]]>
	   </style>

	<circle id="dot" x="-2" y="-2" r="2" style="stroke:none; stroke-width:0; fill:black; opacity:0.7;"/>


	 <image x="0" y="0" width="360" height="180" xlink:href="map.jpg"/>

 
	 <g transform="translate(180,90) scale(1,-1)">   <use xlink:href="#dot" transform="translate(28.69206,-2.38082)" />   <use xlink:href="#dot" transform="translate(28.71032,-2.40693)" />   <use xlink:href="#dot" transform="translate(28.71032,-2.40693)" />   <use xlink:href="#dot" transform="translate(28.69435,-2.41031)" />   <use xlink:href="#dot" transform="translate(28.70907,-2.41051)" />   <use xlink:href="#dot" transform="translate(28.69435,-2.41031)" />   <use xlink:href="#dot" transform="translate(28.71032,-2.40693)" />   <use xlink:href="#dot" transform="translate(28.69425,-2.37982)" />   <use xlink:href="#dot" transform="translate(28.71032,-2.40693)" />   <use xlink:href="#dot" transform="translate(28.81128,-2.23954)" />   <use xlink:href="#dot" transform="translate(28.77683,-2.21812)" />   <use xlink:href="#dot" transform="translate(28.81128,-2.23954)" />   <use xlink:href="#dot" transform="translate(28.81128,-2.23954)" />   <use xlink:href="#dot" transform="translate(28.81128,-2.23954)" />   <use xlink:href="#dot" transform="translate(28.71032,-2.40693)" />   <use xlink:href="#dot" transform="translate(28.66512,-2.27386)" />   <use xlink:href="#dot" transform="translate(28.66512,-2.27386)" />   <use xlink:href="#dot" transform="translate(28.66512,-2.27386)" />   <use xlink:href="#dot" transform="translate(28.66512,-2.27386)" />   <use xlink:href="#dot" transform="translate(28.66354,-2.26711)" />   <use xlink:href="#dot" transform="translate(28.66512,-2.27386)" />   <use xlink:href="#dot" transform="translate(28.66512,-2.27386)" />   <use xlink:href="#dot" transform="translate(28.43571,-3.15663)" />   <use xlink:href="#dot" transform="translate(28.66512,-2.27386)" />   <use xlink:href="#dot" transform="translate(28.43571,-3.15663)" />   <use xlink:href="#dot" transform="translate(28.43571,-3.15663)" />   <use xlink:href="#dot" transform="translate(28.66512,-2.27386)" />   <use xlink:href="#dot" transform="translate(28.43571,-3.15663)" />   <use xlink:href="#dot" transform="translate(28.66512,-2.27386)" />   <use xlink:href="#dot" transform="translate(28.43571,-3.15663)" />   <use xlink:href="#dot" transform="translate(28.66512,-2.27386)" />   <use xlink:href="#dot" transform="translate(28.66512,-2.27386)" />   <use xlink:href="#dot" transform="translate(28.66512,-2.27386)" />   <use xlink:href="#dot" transform="translate(28.66512,-2.27386)" />   <use xlink:href="#dot" transform="translate(28.66512,-2.27386)" />   <use xlink:href="#dot" transform="translate(28.66512,-2.27386)" />   <use xlink:href="#dot" transform="translate(28.66512,-2.27386)" />   <use xlink:href="#dot" transform="translate(28.67405,-2.25746)" />   <use xlink:href="#dot" transform="translate(28.67271,-2.25817)" />   <use xlink:href="#dot" transform="translate(28.67405,-2.25746)" />   <use xlink:href="#dot" transform="translate(28.66512,-2.27386)" />   <use xlink:href="#dot" transform="translate(28.78022,-2.23039)" />   <use xlink:href="#dot" transform="translate(28.66512,-2.27386)" />   <use xlink:href="#dot" transform="translate(28.78022,-2.23039)" />   <use xlink:href="#dot" transform="translate(28.67405,-2.25746)" />   <use xlink:href="#dot" transform="translate(28.67405,-2.25746)" />   <use xlink:href="#dot" transform="translate(30.426078,30.0628)" />   <use xlink:href="#dot" transform="translate(30.426078,30.0628)" />   <use xlink:href="#dot" transform="translate(30.426078,30.0628)" />   <use xlink:href="#dot" transform="translate(30.426078,30.0628)" />   <use xlink:href="#dot" transform="translate(30.426078,30.0628)" />   <use xlink:href="#dot" transform="translate(30.426078,30.0628)" />   <use xlink:href="#dot" transform="translate(30.426078,30.0628)" />   <use xlink:href="#dot" transform="translate(30.426078,30.0628)" />   <use xlink:href="#dot" transform="translate(30.426078,30.0628)" />   <use xlink:href="#dot" transform="translate(30.426078,30.0628)" />   <use xlink:href="#dot" transform="translate(30.426078,30.0628)" />   <use xlink:href="#dot" transform="translate(30.426078,30.0628)" />   <use xlink:href="#dot" transform="translate(30.426078,30.0628)" />   <use xlink:href="#dot" transform="translate(30.426078,30.0628)" />   <use xlink:href="#dot" transform="translate(30.426078,30.0628)" />   <use xlink:href="#dot" transform="translate(30.426078,30.0628)" />   <use xlink:href="#dot" transform="translate(30.426078,30.0628)" />   <use xlink:href="#dot" transform="translate(28.90153,-2.97314)" />   <use xlink:href="#dot" transform="translate(28.90153,-2.97314)" />   <use xlink:href="#dot" transform="translate(28.89936,-2.976)" />   <use xlink:href="#dot" transform="translate(28.90153,-2.97314)" />   <use xlink:href="#dot" transform="translate(28.90114,-2.97458)" />   <use xlink:href="#dot" transform="translate(28.90153,-2.97314)" />   <use xlink:href="#dot" transform="translate(28.90114,-2.97458)" />   <use xlink:href="#dot" transform="translate(28.89936,-2.976)" />   <use xlink:href="#dot" transform="translate(28.89936,-2.976)" />   <use xlink:href="#dot" transform="translate(28.89936,-2.976)" />   <use xlink:href="#dot" transform="translate(28.89936,-2.976)" />   <use xlink:href="#dot" transform="translate(28.89936,-2.976)" />   <use xlink:href="#dot" transform="translate(28.89936,-2.976)" />   <use xlink:href="#dot" transform="translate(28.89936,-2.976)" />   <use xlink:href="#dot" transform="translate(28.90153,-2.97314)" />   <use xlink:href="#dot" transform="translate(28.89936,-2.976)" />   <use xlink:href="#dot" transform="translate(29.09673,-5.24494)" />   <use xlink:href="#dot" transform="translate(28.66408,-2.90397)" />   <use xlink:href="#dot" transform="translate(28.66408,-2.90397)" />   <use xlink:href="#dot" transform="translate(29.19983,-2.60975)" />   <use xlink:href="#dot" transform="translate(29.19983,-2.60975)" />   <use xlink:href="#dot" transform="translate(29.19983,-2.60975)" />   <use xlink:href="#dot" transform="translate(29.19983,-2.60975)" />   <use xlink:href="#dot" transform="translate(29.19983,-2.60975)" />   <use xlink:href="#dot" transform="translate(29.27278,-2.49258)" />   <use xlink:href="#dot" transform="translate(29.19983,-2.60975)" />   <use xlink:href="#dot" transform="translate(29.19983,-2.60975)" />   <use xlink:href="#dot" transform="translate(29.19983,-2.60975)" />   <use xlink:href="#dot" transform="translate(29.19983,-2.60975)" />   <use xlink:href="#dot" transform="translate(29.19983,-2.60975)" />   <use xlink:href="#dot" transform="translate(29.19983,-2.60975)" />   <use xlink:href="#dot" transform="translate(28.98725,-2.55639)" />   <use xlink:href="#dot" transform="translate(28.98725,-2.55639)" />   <use xlink:href="#dot" transform="translate(28.98725,-2.55639)" />   <use xlink:href="#dot" transform="translate(28.98725,-2.55639)" />   <use xlink:href="#dot" transform="translate(28.98725,-2.55639)" />   <use xlink:href="#dot" transform="translate(28.74067,-2.3245)" />   <use xlink:href="#dot" transform="translate(28.66622,-2.27114)" />   <use xlink:href="#dot" transform="translate(28.74067,-2.3245)" />   <use xlink:href="#dot" transform="translate(28.74067,-2.3245)" />   <use xlink:href="#dot" transform="translate(28.66622,-2.27114)" />   <use xlink:href="#dot" transform="translate(28.66622,-2.27114)" />   <use xlink:href="#dot" transform="translate(28.6853,-3.3633)" />   <use xlink:href="#dot" transform="translate(28.758717,-2.31515)" />   <use xlink:href="#dot" transform="translate(28.758717,-2.31515)" />   <use xlink:href="#dot" transform="translate(28.758717,-2.31515)" />   <use xlink:href="#dot" transform="translate(0.483333,-0.2445)" />   <use xlink:href="#dot" transform="translate(0.483333,-0.2445)" />   <use xlink:href="#dot" transform="translate(0.483333,-0.2445)" />   <use xlink:href="#dot" transform="translate(0.483333,-0.2445)" />   <use xlink:href="#dot" transform="translate(0.483333,-0.2445)" />   <use xlink:href="#dot" transform="translate(0.483333,-0.2445)" />   <use xlink:href="#dot" transform="translate(0.483333,-0.2445)" />   <use xlink:href="#dot" transform="translate(0.483333,-0.2445)" />   <use xlink:href="#dot" transform="translate(0.483333,-1.041333)" />   <use xlink:href="#dot" transform="translate(29.766701,-1.0333)" />   <use xlink:href="#dot" transform="translate(29.65,-1.3667)" />   <use xlink:href="#dot" transform="translate(29.766701,-1.0333)" />   <use xlink:href="#dot" transform="translate(29.766701,-1.0333)" />   <use xlink:href="#dot" transform="translate(29.766701,-1.0333)" />   <use xlink:href="#dot" transform="translate(29.766701,-1.0333)" />   <use xlink:href="#dot" transform="translate(29.766701,-1.0333)" />   <use xlink:href="#dot" transform="translate(29.766701,-1.0333)" />   <use xlink:href="#dot" transform="translate(29.766701,-1.0333)" />   <use xlink:href="#dot" transform="translate(29.766701,-1.0333)" />   <use xlink:href="#dot" transform="translate(29.766701,-1.0333)" />   <use xlink:href="#dot" transform="translate(29.766701,-1.0333)" />   <use xlink:href="#dot" transform="translate(30.12,-0.28)" />   <use xlink:href="#dot" transform="translate(30.12,-0.28)" />   <use xlink:href="#dot" transform="translate(29.59722,-3.93889)" />   <use xlink:href="#dot" transform="translate(29.59722,-3.93889)" />   <use xlink:href="#dot" transform="translate(29.59722,-3.93889)" />   <use xlink:href="#dot" transform="translate(29.4666,-2.9)" />   <use xlink:href="#dot" transform="translate(30.2193,-0.3735)" />   <use xlink:href="#dot" transform="translate(29.4666,-2.9)" />   <use xlink:href="#dot" transform="translate(29.4666,-2.9)" />   <use xlink:href="#dot" transform="translate(29.4666,-2.9)" />   <use xlink:href="#dot" transform="translate(30.2193,-0.3555)" />   <use xlink:href="#dot" transform="translate(29.416599,-2.8333)" />   <use xlink:href="#dot" transform="translate(29.416599,-2.8333)" />   <use xlink:href="#dot" transform="translate(29.416599,-2.8333)" />   <use xlink:href="#dot" transform="translate(29.416599,-2.8333)" />   <use xlink:href="#dot" transform="translate(29.5,-2.95)" />   <use xlink:href="#dot" transform="translate(29.5,-2.95)" />   <use xlink:href="#dot" transform="translate(29.5,-2.95)" />   <use xlink:href="#dot" transform="translate(29.4,-2.8666)" />   <use xlink:href="#dot" transform="translate(29.983299,0.3666)" />   <use xlink:href="#dot" transform="translate(29.983299,0.3666)" />   <use xlink:href="#dot" transform="translate(30,0.35)" />   <use xlink:href="#dot" transform="translate(30,0.35)" />   <use xlink:href="#dot" transform="translate(29.983299,0.3666)" />   <use xlink:href="#dot" transform="translate(29.9989,0.4004)" />   <use xlink:href="#dot" transform="translate(30,0.35)" />   <use xlink:href="#dot" transform="translate(30,0.35)" />   <use xlink:href="#dot" transform="translate(30,0.35)" />   <use xlink:href="#dot" transform="translate(30,0.35)" />   <use xlink:href="#dot" transform="translate(30,0.35)" />   <use xlink:href="#dot" transform="translate(30,0.35)" />   <use xlink:href="#dot" transform="translate(29.9666,0.35)" />   <use xlink:href="#dot" transform="translate(30,0.35)" />   <use xlink:href="#dot" transform="translate(29.983299,0.3666)" />   <use xlink:href="#dot" transform="translate(29.983299,0.3666)" />   <use xlink:href="#dot" transform="translate(30,0.35)" />   <use xlink:href="#dot" transform="translate(29.983299,0.3666)" />   <use xlink:href="#dot" transform="translate(30,0.35)" />   <use xlink:href="#dot" transform="translate(30,0.35)" />   <use xlink:href="#dot" transform="translate(29.983299,0.3666)" />   <use xlink:href="#dot" transform="translate(29.983299,0.3666)" />   <use xlink:href="#dot" transform="translate(30,0.35)" />   <use xlink:href="#dot" transform="translate(29.983299,0.3666)" />   <use xlink:href="#dot" transform="translate(29.983299,0.3666)" />   <use xlink:href="#dot" transform="translate(30,0.35)" />   <use xlink:href="#dot" transform="translate(29.983299,0.3666)" />   <use xlink:href="#dot" transform="translate(30,0.35)" />   <use xlink:href="#dot" transform="translate(30,0.35)" />   <use xlink:href="#dot" transform="translate(30,0.35)" />   <use xlink:href="#dot" transform="translate(30,0.35)" />   <use xlink:href="#dot" transform="translate(29.983299,0.3666)" />   <use xlink:href="#dot" transform="translate(29.983299,0.3666)" />   <use xlink:href="#dot" transform="translate(30,0.35)" />   <use xlink:href="#dot" transform="translate(29.983299,0.3666)" />   <use xlink:href="#dot" transform="translate(29.983299,0.3666)" />   <use xlink:href="#dot" transform="translate(30.0169,0.3465)" />   <use xlink:href="#dot" transform="translate(30,0.35)" />   <use xlink:href="#dot" transform="translate(29.983299,0.3666)" />   <use xlink:href="#dot" transform="translate(29.983299,0.3666)" />   <use xlink:href="#dot" transform="translate(30,0.35)" />   <use xlink:href="#dot" transform="translate(30,0.35)" />   <use xlink:href="#dot" transform="translate(30,0.35)" />   <use xlink:href="#dot" transform="translate(30,0.35)" />   <use xlink:href="#dot" transform="translate(30,0.3666)" />   <use xlink:href="#dot" transform="translate(29.4,-2.8666)" />   <use xlink:href="#dot" transform="translate(29.4,-2.8666)" />   <use xlink:href="#dot" transform="translate(29.4,-2.8666)" />   <use xlink:href="#dot" transform="translate(29.4,-2.8666)" />   <use xlink:href="#dot" transform="translate(29.4,-2.8666)" />   <use xlink:href="#dot" transform="translate(29.4,-2.8666)" />   <use xlink:href="#dot" transform="translate(29.4,-2.8666)" />   <use xlink:href="#dot" transform="translate(29.4,-2.8666)" />   <use xlink:href="#dot" transform="translate(29.4,-2.8666)" />   <use xlink:href="#dot" transform="translate(29.4,-2.8666)" />   <use xlink:href="#dot" transform="translate(29.4,-2.8666)" />   <use xlink:href="#dot" transform="translate(29.4,-2.8666)" />   <use xlink:href="#dot" transform="translate(29.4,-2.8666)" />   <use xlink:href="#dot" transform="translate(29.4,-2.8666)" />   <use xlink:href="#dot" transform="translate(29.4,-2.8666)" />   <use xlink:href="#dot" transform="translate(29.4,-2.8666)" />   <use xlink:href="#dot" transform="translate(29.4,-2.8666)" />   <use xlink:href="#dot" transform="translate(29.4,-2.8666)" />   <use xlink:href="#dot" transform="translate(29.4,-2.8666)" />   <use xlink:href="#dot" transform="translate(29.4,-2.8666)" />   <use xlink:href="#dot" transform="translate(29.4,-2.8666)" />   <use xlink:href="#dot" transform="translate(29.4,-2.8666)" />   <use xlink:href="#dot" transform="translate(29.483299,-2.9333)" />   <use xlink:href="#dot" transform="translate(29.483299,-2.9333)" />   <use xlink:href="#dot" transform="translate(29.483299,-2.9333)" />   <use xlink:href="#dot" transform="translate(29.483299,-2.9333)" />   <use xlink:href="#dot" transform="translate(29.483299,-2.9333)" />   <use xlink:href="#dot" transform="translate(29.483299,-2.9333)" />   <use xlink:href="#dot" transform="translate(29.483299,-2.9333)" />   <use xlink:href="#dot" transform="translate(29.483299,-2.9333)" />   <use xlink:href="#dot" transform="translate(29.483299,-2.9333)" />   <use xlink:href="#dot" transform="translate(29.483299,-2.9333)" />   <use xlink:href="#dot" transform="translate(29.483299,-2.9333)" />   <use xlink:href="#dot" transform="translate(29.483299,-2.9333)" />   <use xlink:href="#dot" transform="translate(29.483299,-2.9333)" />   <use xlink:href="#dot" transform="translate(0.4925,-0.053333)" />   <use xlink:href="#dot" transform="translate(0.4925,-0.053333)" />   <use xlink:href="#dot" transform="translate(0.4925,-0.053333)" />   <use xlink:href="#dot" transform="translate(0.492222,-0.054167)" />   <use xlink:href="#dot" transform="translate(29.5333,-3)" />   <use xlink:href="#dot" transform="translate(29.5333,-3)" />   <use xlink:href="#dot" transform="translate(29.549999,-3.2)" />   <use xlink:href="#dot" transform="translate(29.5333,-3)" />   <use xlink:href="#dot" transform="translate(29.66667,-1)" />   <use xlink:href="#dot" transform="translate(29.66667,-1)" />   <use xlink:href="#dot" transform="translate(29.5333,-3.1666)" />   <use xlink:href="#dot" transform="translate(29.5333,-3.1666)" />   <use xlink:href="#dot" transform="translate(30,0.3666)" />   <use xlink:href="#dot" transform="translate(30,0.35)" />   <use xlink:href="#dot" transform="translate(30,0.35)" />   <use xlink:href="#dot" transform="translate(30,0.35)" />   <use xlink:href="#dot" transform="translate(30,0.35)" />   <use xlink:href="#dot" transform="translate(30,0.35)" />   <use xlink:href="#dot" transform="translate(29.9719,0.3645)" />   <use xlink:href="#dot" transform="translate(30,0.35)" />   <use xlink:href="#dot" transform="translate(30,0.35)" />   <use xlink:href="#dot" transform="translate(30,0.35)" />   <use xlink:href="#dot" transform="translate(30,0.35)" />   <use xlink:href="#dot" transform="translate(30,0.35)" />   <use xlink:href="#dot" transform="translate(30,0.35)" />   <use xlink:href="#dot" transform="translate(30,0.35)" />   <use xlink:href="#dot" transform="translate(30,0.3666)" />   <use xlink:href="#dot" transform="translate(30,0.35)" />   <use xlink:href="#dot" transform="translate(30,0.35)" />   <use xlink:href="#dot" transform="translate(30,0.3666)" />   <use xlink:href="#dot" transform="translate(30,0.35)" />   <use xlink:href="#dot" transform="translate(30,0.35)" />   <use xlink:href="#dot" transform="translate(30,0.35)" />   <use xlink:href="#dot" transform="translate(30,0.3666)" />   <use xlink:href="#dot" transform="translate(30,0.3666)" />   <use xlink:href="#dot" transform="translate(30,0.35)" />   <use xlink:href="#dot" transform="translate(30,0.35)" />   <use xlink:href="#dot" transform="translate(30,0.35)" />   <use xlink:href="#dot" transform="translate(30,0.35)" />   <use xlink:href="#dot" transform="translate(30,0.35)" />   <use xlink:href="#dot" transform="translate(30,0.3666)" />   <use xlink:href="#dot" transform="translate(30,0.35)" />   <use xlink:href="#dot" transform="translate(30,0.3666)" />   <use xlink:href="#dot" transform="translate(30,0.3666)" />   <use xlink:href="#dot" transform="translate(30,0.3666)" />   <use xlink:href="#dot" transform="translate(30,0.3666)" />   <use xlink:href="#dot" transform="translate(29.9719,0.3825)" />   <use xlink:href="#dot" transform="translate(30,0.35)" />   <use xlink:href="#dot" transform="translate(30,0.35)" />   <use xlink:href="#dot" transform="translate(30,0.35)" />   <use xlink:href="#dot" transform="translate(30,0.35)" />   <use xlink:href="#dot" transform="translate(30,0.3666)" />   <use xlink:href="#dot" transform="translate(30,0.35)" />   <use xlink:href="#dot" transform="translate(30,0.35)" />   <use xlink:href="#dot" transform="translate(30,0.3666)" />   <use xlink:href="#dot" transform="translate(30,0.35)" />   <use xlink:href="#dot" transform="translate(30,0.35)" />   <use xlink:href="#dot" transform="translate(30,0.35)" />   <use xlink:href="#dot" transform="translate(30,0.35)" />   <use xlink:href="#dot" transform="translate(29.983299,0.3666)" />   <use xlink:href="#dot" transform="translate(29.983299,0.3666)" />   <use xlink:href="#dot" transform="translate(29.983299,0.3666)" />   <use xlink:href="#dot" transform="translate(29.983299,0.3666)" />   <use xlink:href="#dot" transform="translate(29.983299,0.3666)" />   <use xlink:href="#dot" transform="translate(29.983299,0.3666)" />   <use xlink:href="#dot" transform="translate(29.983299,0.3666)" />   <use xlink:href="#dot" transform="translate(29.983299,0.3666)" />   <use xlink:href="#dot" transform="translate(29.983299,0.3666)" />   <use xlink:href="#dot" transform="translate(29.983299,0.3666)" />   <use xlink:href="#dot" transform="translate(29.9989,0.4004)" />   <use xlink:href="#dot" transform="translate(29.983299,0.3666)" /><polygon class="region" points="29.09673,-5.24494 0.483333,-1.041333 0.483333,-0.2445 0.492222,-0.054167 0.4925,-0.053333 30.426078,30.0628 30.2193,-0.3735 29.59722,-3.93889 29.09673,-5.24494 " />
		  </g>
		</svg>