<?xml version="1.0" encoding="UTF-8"?>
	<svg xmlns:xlink="http://www.w3.org/1999/xlink" 
	xmlns="http://www.w3.org/2000/svg" 
	width="360px" height="180px">
	   <style type="text/css">
		  <![CDATA[     
		  .region 
		  { 
			fill:blue; 
			opacity:0.4; 
			stroke:blue;
		  }
		  ]]>
	   </style>

	<circle id="dot" x="-2" y="-2" r="2" style="stroke:none; stroke-width:0; fill:black; opacity:0.7;"/>


	 <image x="0" y="0" width="360" height="180" xlink:href="map.jpg"/>

 
	 <g transform="translate(180,90) scale(1,-1)"><polygon class="region" points="-0.83475855299997,46.242368667 0.47394500100006,45.195405825 0.49773961100004,44.243621422 -0.89424507699994,43.64875617 -1.1678830929999,43.10148014 -1.512904939,43.137172054 -1.0370127379999,42.851636734 -1.568599192,41.936037271 -2.5079426519999,41.936037271 -3.4464500669999,42.175532382 -3.646853124,42.37593544 -3.6098404959999,42.85005593 -3.1097910399999,43.362136841 -2.7454569339999,43.452629089 -1.9962010379999,43.316837311 -1.661276937,43.391330719 -1.424399018,43.661380768 -1.253915906,44.551105499 -1.0200610159999,44.655292511 -1.2356709609999,44.803159768 -1.1327689889999,45.515392303 -1.0610460039999,45.567813873 -0.67752194399998,45.077407837 -0.55863702299996,45.035415649 -0.79703193899996,45.463283539 -1.2403000589999,45.707801819 -1.042698979,45.736507416 -1.1617261169999,45.854202271 -0.98946303099996,45.959686279 -1.239468098,46.165584564 -0.83475855299997,46.242368667 " /><polygon class="region" points="30.771327972,46.423027039 30.076267212,45.791008274 29.693850742,46.163407295 29.701933605,46.721124861 29.952502367,47.028273666 30.437474164,46.907030717 30.771327972,46.423027039 " /><polygon class="region" points="29.652990341,45.444774628 29.609775746,44.857631492 29.006767542,44.683879274 28.820901507,44.781237673 28.651161379,45.096469342 28.707741421,45.395535283 29.652990341,45.444774628 " /><polygon class="region" points="22.603246689,59.086139679 23.074670792,58.838909149 22.739240646,58.806129456 22.564201355,58.68819809 22.386453629,58.892456055 22.044324875,58.924926758 22.603246689,59.086139679 " /><polygon class="region" points="23.04101181,58.900875092 23.021564484,58.910377502 23.018065652,58.921982497 23.041058596,58.900946399 23.04101181,58.900875092 " /><polygon class="region" points="29.631779129,44.864144139 29.62613903,44.862474761 29.629172331,44.871755999 29.632796849,44.869038429 29.631779129,44.864144139 " /><polygon class="region" points="22.998348236,58.818763733 22.990432943,58.813196885 22.989021301,58.814296722 22.991165161,58.81747818 22.998348236,58.818763733 " /><polygon class="region" points="23.073608732,58.828464282 23.069593646,58.827946766 23.069360733,58.828533173 23.073608732,58.828464282 " /><polygon class="region" points="51.117795079,65.80450461 51.479473152,65.043077088 54.309892506,64.9950001 55.001075441,65.0240414 55.381789202,65.252469656 56.885608557,65.21439828 57.05692975,64.472006446 53.706648654,63.862864429 52.526435995,63.139508283 49.728189852,63.120472595 48.643155633,62.720723146 48.110156368,62.187723881 47.253550406,61.845081496 42.742092339,63.46311498 42.684985275,63.958042869 44.131697566,64.281649566 44.131697566,64.510077822 41.885486377,64.719470391 41.027217696,65.082150066 41.43438294,65.482053763 43.299824582,65.761753439 45.597445546,65.652219105 47.424871598,65.766433234 49.804332604,66.223289747 51.117795079,65.80450461 " /><polygon class="region" points="42.920551914,59.4894151 44.890745628,58.033184965 44.226876006,57.554913302 43.912787154,57.847587006 43.213225618,57.683404197 40.07233709,58.047461731 39.815355301,58.382965733 38.837396829,58.704192968 38.616106954,59.068250502 39.130070532,59.339509057 40.21510475,58.925482842 40.75762186,59.27526361 42.920551914,59.4894151 " /><polygon class="region" points="34.754160241,57.027155574 33.990434759,56.898182065 33.205212627,57.176579003 33.626377226,57.647712282 34.861317487,58.026046582 35.639401236,59.874887784 36.438900135,59.939133231 37.038524308,59.475138335 37.06707784,58.497179861 37.9665141,57.747649644 37.295506097,57.355038578 34.754160241,57.027155574 " /><polygon class="region" points="41.714059368,44.180851983 41.362600332,44.056807617 40.577771497,44.369137459 40.37756006,45.049856347 39.824976492,45.49032151 40.049213302,46.16303194 41.522769482,46.403285665 42.443742095,45.754600607 43.03636795,45.538372255 43.03636795,45.057864805 42.796114225,44.465238949 41.714059368,44.180851983 " /><polygon class="region" points="42.206713613,59.779709343 40.227002056,59.398995582 38.485236599,59.598870306 37.985549788,60.160423104 39.137208915,60.26987831 39.941466735,60.712458058 41.91641937,60.859984639 42.677846891,60.298431842 42.206713613,59.779709343 " /><polygon class="region" points="45.154865799,51.370099283 43.120426639,50.649122599 42.477972167,50.820443791 42.520802465,51.29157707 43.40596196,51.569974008 42.877721616,51.869786094 42.949105447,52.42657997 45.568892014,51.991138605 45.154865799,51.370099283 " /><polygon class="region" points="39.208592745,57.447837557 39.736833089,57.176579003 42.19957523,57.183717386 42.777784254,56.826798235 42.171021697,56.548401297 41.028880414,56.798244703 39.329945257,56.86249015 38.716044317,57.090918406 39.208592745,57.447837557 " /><polygon class="region" points="45.74973105,61.400122288 46.111409123,61.000372839 45.902016554,60.752908894 45.159624721,60.829051646 44.664696831,61.247836783 43.389305732,61.343015224 43.579662613,61.761800361 43.979412062,62.009264305 45.74973105,61.400122288 " /><polygon class="region" points="39.415543644,44.479342542 39.815055147,43.938729001 40.320690611,43.635347724 40.213614866,43.450939495 39.947924062,43.398832927 39.011855355,44.149746698 38.441003354,44.398342808 39.18449798,44.718002481 39.415543644,44.479342542 " /><polygon class="region" points="43.299824582,65.761753439 53.153126391,68.201086607 54.107432254,68.230911895 53.994942964,67.986740561 54.513095396,68.295043993 54.814506488,68.105301929 55.024993763,68.426535103 55.969274344,68.639495844 57.069959013,68.516493227 57.476722108,68.612311537 62.221405164,67.824573014 63.649081768,67.824573014 64.124973969,66.587253291 62.697297365,66.11136109 61.650334523,64.683684486 61.364799202,62.399401921 62.792475806,60.686189996 67.456219377,58.02119367 71.98459833,57.254774524 72.367861439,56.982511124 72.424052115,56.532365283 69.168078457,55.37343 64.629968457,54.39564 61.452698458,53.45791 61.511218457,51.42098 60.248218458,50.75118 57.934478457,51.11793 55.111038457,50.90606 50.380228457,51.34416 48.708438457,50.28986 47.232138458,49.96637 47.215808458,48.0784 49.313268458,46.18215 47.754282249,45.552817999 46.516962526,44.696212037 47.944639129,43.458892314 45.850713444,43.649249195 43.200078458,42.93443 41.369142608,42.76769278 40.087483699,43.370164538 40.328699069,43.635347724 39.823063605,43.938729001 39.192506439,44.718002481 38.449011811,44.398342808 36.665479613,45.211949407 36.973660619,45.273439396 36.632730464,45.30240248 36.694247147,45.698683406 35.302262458,46.055602556 35.198455684,46.369382125 34.963248338,46.251344198 32.348812915,46.508391064 31.990503665,46.669094939 31.983085133,46.878913879 31.911766994,46.705812403 31.591442108,46.851455688 30.701994024,46.58500654 30.437474164,46.907030717 29.952502367,47.028273666 29.701933605,46.721124861 29.693850742,46.163407295 29.965949065,45.8957696 29.882522535,45.680185403 29.748063541,45.615703583 29.638803482,45.831607819 29.643654711,45.449074103 28.707741421,45.395535283 28.651161379,45.096469342 29.006767542,44.683879274 28.634541621,44.310463147 28.677117292,44.009804022 27.040388458,44.15238 24.728138458,43.71819 22.319328457,42.37421 17.75699929,42.773192035 17.01158845,43.007853149 17.278886229,43.006474719 17.475441864,42.910704924 17.689900721,42.855528426 17.722436069,42.877259165 16.893148227,43.399628553 15.929031792,43.594074815 15.963902911,43.686515568 15.852793578,43.775995661 16.007881711,43.805479661 15.983816481,43.907938607 15.827428688,43.843031243 15.851176394,43.726901445 15.305294851,44.045349436 15.132801173,44.276892969 15.634559591,44.146141825 15.54333436,44.259209118 14.995213538,44.576824321 14.852662245,45.113158091 14.551486704,45.303564814 14.32420307,45.35061807 13.91313471,44.770681001 13.501234208,45.485998906 13.906388458,45.62145 13.504754954,46.017855993 13.666428458,46.19025 13.415858457,46.30932 13.702306709,46.524725236 12.315015501,46.712187618 12.097398458,47.07773 11.165878457,46.94432 11.012786101,46.774879141 10.466198457,46.83123 10.476211085,46.557998753 10.089458458,46.56883 10.233901165,46.285754082 10.10400797,46.234366894 9.9129084580001,46.37871 9.5782475550001,46.302992241 9.3026084580001,46.50251 9.0424584570001,45.84358 8.4415884580001,46.30507 8.4566984580001,46.46125 8.113338458,46.28212 7.9095179,45.940053568 6.874958457,45.83703 7.169751021,45.421294541 7.0773796500001,45.225264238 6.6282745290001,45.117913415 7.0759584570001,44.68903 6.874258458,44.54675 6.891908458,44.36879 7.720248457,44.07723 7.5296280970001,43.790211146 6.7316279410001,43.415988922 6.623458833,43.169253154 5.8324387600001,43.056884701 5.3473005060001,43.220870972 5.3289613490001,43.36479187 4.8523091110001,43.343726442 4.8374552500001,43.379291534 4.748672463,43.428848267 4.758155324,43.473468781 4.7426986470001,43.521759033 4.719933487,43.558395386 4.689113595,43.581489563 4.7270760540001,43.441421509 4.832102611,43.339586565 4.0710449220001,43.567775726 3.141901016,43.15071106 2.991492033,42.962238312 3.030122928,42.689008646 -0.59578154199994,42.81831 -0.81724982899993,42.561889377 -1.1152506069999,42.657984188 -1.029004281,42.851636734 -1.5048964819999,43.137172054 -1.1598746359999,43.10148014 -0.88623661999998,43.64875617 0.50574806800006,44.243621422 0.48195345800002,45.195405825 -0.82675009499997,46.242368667 -1.805176639,46.494167328 -2.1310546619999,46.816989899 -1.976429604,47.032432556 -2.235243581,47.134487152 -2.001009487,47.316108704 -2.4850186739999,47.272464402 -2.4697544809999,47.512714386 -2.802494548,47.486026764 -2.9027695889999,47.541416168 -2.7257745489999,47.539741516 -2.648589634,47.609851837 -2.6980314489999,47.638404846 -2.888891483,47.582024263 -2.9738249779999,47.656669617 -2.9291939739999,47.553825378 -3.034043074,47.630882263 -3.1041395529999,47.471504094 -3.1284995309999,47.739326477 -3.2122471029999,47.643146883 -3.350751423,47.702388763 -3.272306704,47.765773773 -3.278850577,47.785045624 -3.8466624609999,47.787646464 -4.1013684499999,47.971782684 -4.190712929,47.86749649 -4.176742077,47.794803619 -4.213077068,47.809402466 -4.3601448769999,47.791392241 -4.4242634989999,47.966861725 -4.7305455439999,48.042160034 -4.2861266369999,48.105567932 -4.5508607739999,48.172152493 -4.625090622,48.28314209 -4.54812672,48.34299469 -4.5181889529999,48.283878326 -4.181390784,48.300064087 -4.2601104,48.362640381 -4.4536886449999,48.330463409 -4.2789335479999,48.440917969 -4.766705536,48.333480835 -4.7457404359999,48.547134399 -3.5934005,48.672473907 -3.5119648259999,48.837612803 -3.096454891,48.874543057 -2.692234039,48.498081207 -2.3208346069999,48.687630811 -2.227109909,48.56388092 -1.8470682509999,48.710509243 -1.3508856519999,48.637435913 -1.5642625309999,48.751224518 -1.5396324619999,49.22485733 -1.8065355049999,49.386760712 -1.9345034589999,49.732666016 -1.268636241,49.703349222 -1.141551018,49.317344666 -0.087640546999978,49.300895691 0.48943037600003,49.476284027 0.33622459300005,49.447331528 0.16799687200006,49.456758169 0.10073150700003,49.475917816 0.14842297100006,49.465671539 0.22926750000005,49.471656799 0.077035532000025,49.517150879 0.21875742900005,49.717433929 1.680203534,50.185497284 1.551059461,50.281604767 1.5730834980001,50.702327728 1.7397974510001,50.943344116 3.519535519,51.41003418 4.277462459,51.35439682 3.444766498,51.536792755 3.8431988580001,51.605251775 4.3054957160001,51.455436707 3.9965564980001,51.590820313 4.1916074530001,51.604904175 4.115535714,51.642650604 4.2935004,51.63319397 4.385857559,51.656620026 4.411087491,51.693508148 3.8758544780001,51.777441767 3.987787462,51.844390869 4.341070175,51.705055237 4.5082244650001,51.68421936 4.6484074360001,51.711322784 4.067468159,51.839736287 4.022466637,51.96396637 4.6530728110001,52.467655182 4.744719483,52.965312958 5.3031001090001,52.709411621 5.0250821110001,52.630237579 5.0159862940001,52.377825314 4.8292355310001,52.429721832 4.770374298,52.430709839 4.777858257,52.405677795 5.146760441,52.329277039 5.669533706,52.612636566 5.7255363240001,52.839946747 5.3815483820001,52.868934631 5.387685753,53.101291656 5.890750386,53.384403229 6.819643722,53.466036848 6.9032211300001,53.353435516 7.223594642,53.23815918 7.2736797110001,53.330986023 7.009663559,53.361049652 7.2027362860001,53.646463551 8.110637884,53.616797106 8.066308022,53.476787567 8.236290932,53.400787354 8.35663613,53.608758907 8.5567407610001,53.542549133 8.4879808430001,53.479537964 8.498333931,53.36371994 8.5841374180001,53.538833618 8.537135899,53.602860927 9.8369803210001,53.534328461 9.7258120860001,53.570386185 11.195866374,54.006561966 11.469103313,53.898780823 11.699051196,54.153724331 12.088164012,54.181038771 12.089770317,54.111339569 12.123420715,54.092071533 12.160114743,54.093284607 12.406937536,54.365895574 12.366409302,54.268154144 12.4564204,54.247234344 13.02206216,54.440220105 13.460189819,54.088085175 13.504450299,54.125339508 13.724194527,54.163635254 13.746492386,54.027896881 13.916436195,53.919876099 13.82264328,53.840606689 14.588780857,53.582141876 14.793809591,54.036904241 17.988887287,54.833351135 18.331764221,54.836036682 18.628568649,54.72951889 18.784383774,54.652404785 18.394554138,54.743721008 18.781402588,54.354290009 19.52299831,54.409599304 19.892858112,54.628697558 19.609609604,54.423839569 19.231803894,54.339389801 19.390061832,54.226020813 20.420056728,54.680881455 19.912503008,54.634345521 19.990898735,54.963215268 20.457876793,54.957873895 20.953721778,55.281762475 20.529935157,54.960607836 21.259756464,54.953201639 21.187835804,55.193038673 21.329909778,55.298717499 21.073279835,55.796775818 21.011840321,56.559303284 21.074046589,56.833255768 21.417600132,57.036334991 21.427358127,57.274730682 21.71881435,57.571361542 22.608833313,57.761688232 22.598873138,57.62178421 23.137962341,57.362506866 23.264257431,57.092155457 23.636295319,56.966094971 24.407441593,57.241344452 24.34432552,57.828022003 24.584269977,58.332881927 24.304946899,58.378124237 24.122571684,58.234465848 23.743947484,58.351425171 23.502368927,58.572509766 23.529010773,58.740398407 23.762571335,58.76241684 23.462844849,58.773757935 23.538394928,58.815254211 23.437654495,58.941524506 23.665761948,58.976345062 23.417222977,59.025836945 23.515359879,59.230499268 24.080184937,59.265792847 24.037052155,59.391120911 24.802382082,59.536510183 25.436964035,59.49162674 25.697732925,59.67621994 27.917436101,59.403575897 29.579279704,59.950987507 30.213099406,59.874020676 30.248002176,59.983918562 29.979686315,60.010298638 29.932230337,60.147611242 29.441956814,60.161817624 28.698088677,60.505764877 28.562637143,60.601484763 28.715652718,60.592994811 28.720279137,60.772370818 28.398422764,60.615294992 26.445714951,60.493625641 26.506421969,60.363424774 26.072332382,60.436115265 26.085987267,60.306155387 25.751998518,60.250968833 25.676790237,60.381027222 23.97187909,60.02115514 22.883059956,60.163803101 23.026366689,60.332885742 22.53183315,60.21452713 22.663167454,60.403964996 21.754277684,60.481697083 21.863458135,60.650318146 21.589976772,60.495316458 21.36026714,60.680149078 21.48170612,60.745399475 21.225100971,60.908195496 21.453481174,60.910667419 21.309689976,61.081626892 21.625281788,61.227184296 21.505528042,61.511147458 21.642413594,61.506725311 21.492068929,61.56925458 21.731536365,61.551231384 21.40376189,61.950503172 21.274773802,62.889682408 21.700143314,63.051158905 21.519723393,63.170009613 21.632979124,63.225117764 22.374476887,63.2853508 22.209186055,63.471237183 22.410703159,63.435497284 22.296496845,63.518802643 22.444949605,63.48588562 22.625473099,63.716596445 22.862058141,63.650821686 22.944903827,63.763744354 22.779585135,63.799299294 23.392665363,63.920288086 23.415173985,64.079582214 23.48658371,64.054672241 23.627976872,64.044830322 24.552264668,64.816574097 25.394450641,64.845954895 25.203504063,64.97794342 25.498559453,64.968864441 25.235551335,65.126319885 25.377030826,65.423271179 25.061517799,65.617722682 29.571971396,66.447361658 34.494883627,65.328390429 34.828349141,65.014756629 34.682350135,64.953110349 34.956782165,64.832335634 34.736311912,64.742812976 34.971499609,64.616334638 34.78123695,64.512526729 35.33276292,64.297043054 35.818985349,64.32256202 36.286964042,63.979476963 37.395087688,63.786712829 39.588393326,64.543398767 40.554020617,64.525702033 41.027217696,65.082150066 41.885486377,64.719470391 44.131697566,64.510077822 44.131697566,64.281649566 42.684985275,63.958042869 42.742092339,63.46311498 47.253550406,61.845081496 48.110156368,62.187723881 48.643155633,62.720723146 49.728189852,63.120472595 52.526435995,63.139508283 53.706648654,63.862864429 57.05692975,64.472006446 56.885608557,65.21439828 55.381789202,65.252469656 55.001075441,65.0240414 52.735828563,64.928862959 51.479473152,65.043077088 51.117795079,65.80450461 49.804332604,66.223289747 47.424871598,65.766433234 45.597445546,65.652219105 43.299824582,65.761753439 " /><polygon class="region" points="45.74973105,61.400122288 43.979412062,62.009264305 43.579662613,61.761800361 43.389305732,61.343015224 44.664696831,61.247836783 45.159624721,60.829051646 45.902016554,60.752908894 46.111409123,61.000372839 45.74973105,61.400122288 " /><polygon class="region" points="38.701767551,57.090918406 39.329945257,56.86249015 41.028880414,56.798244703 42.171021697,56.548401297 42.777784254,56.826798235 42.19957523,57.183717386 39.736833089,57.176579003 39.208592745,57.447837557 38.701767551,57.090918406 " /><polygon class="region" points="42.949105447,52.42657997 42.877721616,51.869786094 43.40596196,51.569974008 42.520802465,51.29157707 42.449418635,50.813305408 43.120426639,50.649122599 45.154865799,51.370099283 45.568892014,51.991138605 42.949105447,52.42657997 " /><polygon class="region" points="37.985549788,60.160423104 38.485236599,59.598870306 40.227002056,59.398995582 42.206713613,59.779709343 42.677846891,60.298431842 41.91641937,60.859984639 39.941466735,60.712458058 39.137208915,60.26987831 37.985549788,60.160423104 " /><polygon class="region" points="41.522769482,46.403285665 40.049213302,46.16303194 39.808959577,45.674516032 39.824976492,45.49032151 40.37756006,45.049856347 40.577771497,44.369137459 41.362600332,44.056807617 42.796114225,44.465238949 43.03636795,45.057864805 43.03636795,45.538372255 42.443742095,45.754600607 41.522769482,46.403285665 " /><polygon class="region" points="35.758595301,57.196778713 37.295506097,57.355038578 37.9665141,57.747649644 37.06707784,58.497179861 37.038524308,59.475138335 36.438900135,59.939133231 35.639401236,59.874887784 34.861317487,58.026046582 33.626377226,57.647712282 33.205212627,57.176579003 33.990434759,56.898182065 35.758595301,57.196778713 " /><polygon class="region" points="42.920551914,59.4894151 40.75762186,59.27526361 40.21510475,58.925482842 39.130070532,59.339509057 38.616106954,59.068250502 38.837396829,58.704192968 39.815355301,58.382965733 40.07233709,58.047461731 43.213225618,57.683404197 43.912787154,57.847587006 44.226876006,57.554913302 44.890745628,58.033184965 42.920551914,59.4894151 " /><polygon class="region" points="29.660998799,45.444774628 29.764808655,45.432384491 29.672190546,45.290319767 29.670206415,45.317702322 29.660998799,45.444774628 " /><polygon class="region" points="23.865709305,59.348041534 23.926862717,59.34588623 23.952312469,59.313388824 23.920433044,59.30803299 23.865709305,59.348041534 " /><polygon class="region" points="23.93469227,59.34856073 24.002780868,59.347991319 24.010545731,59.319747925 23.992485046,59.314964294 23.93469227,59.34856073 " /><polygon class="region" points="42.734240118,65.678393176 43.299824582,65.761753439 41.43438294,65.482053763 42.734240118,65.678393176 " /><polygon class="region" points="11.574099541,54.078937531 11.547934089,54.058648206 11.530461336,54.067150858 11.605772478,54.100066871 11.574099541,54.078937531 " /><polygon class="region" points="23.447254181,58.83303833 23.472341537,58.826469421 23.482305527,58.815242767 23.462429047,58.81621933 23.447254181,58.83303833 " /><polygon class="region" points="4.735084511,43.441421509 4.751269671,43.419743817 4.733523846,43.439937592 4.750146866,43.473468781 4.736537933,43.507167816 4.733364798,43.523785643 4.752355552,43.474750519 4.735084511,43.441421509 " /><polygon class="region" points="25.82342414,59.677193004 25.801137401,59.677265316 25.787994839,59.685002206 25.797951623,59.687195907 25.82342414,59.677193004 " /><polygon class="region" points="25.367353439,59.517673492 25.382146835,59.522041321 25.38923645,59.513282776 25.377285004,59.508399963 25.367353439,59.517673492 " /><polygon class="region" points="22.835847356,63.697154999 22.845348495,63.704489162 22.859142303,63.696857452 22.848276314,63.694365097 22.835847356,63.697154999 " /><polygon class="region" points="4.97004509,52.371677399 4.9660880170001,52.380803809 4.9815850260001,52.372306824 4.97004509,52.371677399 " /><polygon class="region" points="-3.0293325559999,47.576277139 -3.0205099579999,47.571731567 -3.017879346,47.565530926 -3.0307846289999,47.568817139 -3.0293325559999,47.576277139 " /><polygon class="region" points="-3.022231102,47.611053467 -3.0172925219999,47.609958649 -3.015326692,47.594233411 -3.017353058,47.595672607 -3.022231102,47.611053467 " /><polygon class="region" points="-4.1351957539999,47.901912689 -4.133395929,47.894311531 -4.136725903,47.905067444 -4.131108761,47.919643402 -4.119691357,47.925791803 -4.1351957539999,47.901912689 " /><polygon class="region" points="-4.2081233389999,47.804067787 -4.203803562,47.802085876 -4.1997189799999,47.792365889 -4.2043671609999,47.794998169 -4.2081233389999,47.804067787 " /><polygon class="region" points="15.979533426,43.90160018 15.984189737,43.889577 15.979790277,43.876851123 15.980788053,43.891665928 15.979533426,43.90160018 " /><polygon class="region" points="21.797818638,63.263912201 21.810588338,63.265399933 21.813537598,63.266277313 21.799066485,63.257754292 21.797818638,63.263912201 " /><polygon class="region" points="4.851684774,52.414071108 4.85870836,52.41350174 4.8705087750001,52.405789412 4.866694927,52.405723572 4.851684774,52.414071108 " /><polygon class="region" points="15.522405795,44.239406871 15.525752008,44.228955685 15.534378807,44.218504145 15.522716226,44.243506242 15.522405795,44.239406871 " /><polygon class="region" points="-1.121560931,49.339981079 -1.1171026449999,49.338912964 -1.117425189,49.33051329 -1.119495034,49.332176208 -1.121560931,49.339981079 " /><polygon class="region" points="15.59526306,44.17332735 15.595802045,44.175890601 15.607586889,44.163298533 15.608174432,44.159205463 15.59526306,44.17332735 " /><polygon class="region" points="4.713957249,43.555618112 4.7222704660001,43.548191071 4.7276617420001,43.532505989 4.721130848,43.545814514 4.713957249,43.555618112 " /><polygon class="region" points="-3.746878062,47.825016391 -3.739574693,47.8188591 -3.741151354,47.812577026 -3.746878062,47.825016391 " /><polygon class="region" points="-3.3528478129999,47.753778392 -3.347075484,47.750305176 -3.3441169869999,47.739050392 -3.345937014,47.738998413 -3.3528478129999,47.753778392 " /><polygon class="region" points="4.82095623,52.418968201 4.8223158380001,52.421020081 4.828717958,52.409874221 4.826190948,52.410362244 4.82095623,52.418968201 " /><polygon class="region" points="-3.525921605,47.772556305 -3.525227964,47.766775515 -3.528534889,47.772037506 -3.523770403,47.782641757 -3.525921605,47.772556305 " /><polygon class="region" points="-3.7392877799999,47.808529032 -3.73601558,47.807746887 -3.731910284,47.798879848 -3.7364251609999,47.802310944 -3.7392877799999,47.808529032 " /><polygon class="region" points="13.112715721,54.30978775 13.114142526,54.313244091 13.120986584,54.304247021 13.118782043,54.304260254 13.112715721,54.30978775 " /><polygon class="region" points="-4.300350688,48.429576874 -4.3042588229999,48.430522919 -4.2934452179999,48.436527929 -4.300350688,48.429576874 " /><polygon class="region" points="12.696767336,54.38396514 12.69931689,54.39380588 12.702856518,54.387367249 12.696767336,54.38396514 " /><polygon class="region" points="12.096505165,54.17792511 12.100671269,54.179267883 12.104032585,54.170720903 12.103794098,54.17073822 12.096505165,54.17792511 " /><polygon class="region" points="26.508675047,60.362462242 26.508695602,60.362453461 26.521655784,60.356925493 26.514818421,60.355984212 26.508675047,60.362462242 " /><polygon class="region" points="26.980214573,60.475605011 26.992286682,60.468086243 26.992125496,60.466916032 26.986352421,60.468101501 26.980214573,60.475605011 " /><polygon class="region" points="13.792280146,54.05486851 13.794898487,54.048774719 13.788522906,54.044715062 13.792552948,54.050060272 13.792280146,54.05486851 " /><polygon class="region" points="-4.185728073,47.860160828 -4.1810798509999,47.86044885 -4.1843171909999,47.854076856 -4.184448242,47.854217529 -4.185728073,47.860160828 " /><polygon class="region" points="17.426803905,43.040545847 17.42750458,43.047166241 17.429976418,43.048988445 17.430755652,43.046524501 17.426803905,43.040545847 " /><polygon class="region" points="-2.92171862,47.650615692 -2.9247052649999,47.649871493 -2.9195858429999,47.65632969 -2.919216655,47.653327942 -2.92171862,47.650615692 " /><polygon class="region" points="-1.29154719,46.296836192 -1.2826809879999,46.293987274 -1.2821389439999,46.292137146 -1.284971189,46.291970623 -1.29154719,46.296836192 " /><polygon class="region" points="13.416993595,54.162193298 13.412898064,54.168205261 13.405787627,54.169731934 13.412547565,54.168643951 13.418473698,54.164176941 13.416993595,54.162193298 " /><polygon class="region" points="22.125638463,60.460819244 22.122750209,60.456976043 22.125718835,60.468960683 22.125638463,60.460819244 " /><polygon class="region" points="0.11011399700004,49.481108707 0.11479751800005,49.480506897 0.11966081000003,49.477367501 0.11695697900007,49.476875305 0.11011399700004,49.481108707 " /><polygon class="region" points="-2.212544463,48.578174591 -2.22104881,48.573961457 -2.212159652,48.58197968 -2.212544463,48.578174591 " /><polygon class="region" points="15.177621627,44.249062431 15.18183963,44.249908882 15.186219993,44.240130018 15.182542721,44.24658715 15.177621627,44.249062431 " /><polygon class="region" points="15.955482297,43.815534864 15.955894265,43.815341494 15.964512643,43.808291706 15.958926346,43.811186558 15.955482297,43.815534864 " /><polygon class="region" points="-3.642508184,48.681041127 -3.6396165109999,48.676727295 -3.641441206,48.675514375 -3.642508184,48.681041127 " /><polygon class="region" points="-3.2997228629999,47.756215055 -3.295315027,47.761177063 -3.29293382,47.761442062 -3.2997228629999,47.756215055 " /><polygon class="region" points="4.778492928,52.424671173 4.7792113300001,52.425740697 4.783598854,52.416803833 4.778492928,52.424671173 " /><polygon class="region" points="-4.5990351029999,48.574219133 -4.59642937,48.573894501 -4.592499432,48.566975083 -4.5965037349999,48.573066711 -4.5990351029999,48.574219133 " /><polygon class="region" points="30.192282353,59.995443679 30.193545581,59.999184984 30.195107782,59.992568948 30.194980984,59.992509944 30.192282353,59.995443679 " /><polygon class="region" points="4.8329691660001,43.358840942 4.834702947,43.353237289 4.832859039,43.355365753 4.8327059750001,43.362934113 4.833363831,43.367134385 4.8329691660001,43.358840942 " /><polygon class="region" points="4.9025141610001,52.393518947 4.904397466,52.39295578 4.9073546760001,52.387186222 4.906319141,52.387622833 4.9025141610001,52.393518947 " /><polygon class="region" points="-2.1456116049999,48.619912914 -2.1419594509999,48.617721558 -2.141724532,48.615820787 -2.144804001,48.617660522 -2.1456116049999,48.619912914 " /><polygon class="region" points="15.844785121,43.775995661 15.847384631,43.77554055 15.849420315,43.771225013 15.844785121,43.775995661 " /><polygon class="region" points="27.234553196,60.512095732 27.238775253,60.508178711 27.236667217,60.507395319 27.234553196,60.512095732 " /><polygon class="region" points="23.596024967,64.053276062 23.599428177,64.052284241 23.60258576,64.048365637 23.596024967,64.053276062 " /><polygon class="region" points="-3.695014654,47.809768039 -3.694972992,47.811721802 -3.68949057,47.813028924 -3.695014654,47.809768039 " /><polygon class="region" points="-4.525215648,48.298545837 -4.522893332,48.300421785 -4.522234226,48.297640375 -4.525215648,48.298545837 " /><polygon class="region" points="13.758958289,54.13850112 13.762297131,54.137607574 13.762165025,54.13581785 13.759371758,54.137226105 13.758958289,54.13850112 " /><polygon class="region" points="3.19536212,51.338473994 3.198351599,51.344509125 3.200735073,51.345951008 3.19536212,51.338473994 " /><polygon class="region" points="15.991783534,43.843895721 15.993609557,43.839148064 15.992727964,43.838005367 15.991920268,43.839098952 15.991783534,43.843895721 " /><polygon class="region" points="23.394418716,58.938114166 23.3966905,58.953043533 23.397266388,58.952659607 23.394418716,58.938114166 " /><polygon class="region" points="-4.2463231089999,48.307868958 -4.2460207939999,48.310379028 -4.2441396249999,48.311138905 -4.245630891,48.306970925 -4.2463231089999,48.307868958 " /><polygon class="region" points="13.773413144,54.035093908 13.775301933,54.038200378 13.777930172,54.03797013 13.773413144,54.035093908 " /><polygon class="region" points="15.85077341,43.78227554 15.847384631,43.779443373 15.847314076,43.779487519 15.851447901,43.785195304 15.85077341,43.78227554 " /><polygon class="region" points="11.477455593,53.964626312 11.481251497,53.966390789 11.480148592,53.963697437 11.477455593,53.964626312 " /><polygon class="region" points="4.9571142200001,52.377655029 4.957922427,52.380291269 4.957924344,52.380290985 4.9596805350001,52.378566742 4.9571142200001,52.377655029 " /><polygon class="region" points="12.720883369,54.408119202 12.722593333,54.409725497 12.72369907,54.40745163 12.723410235,54.407034684 12.720883369,54.408119202 " /><polygon class="region" points="34.807489145,64.985086001 34.805486241,64.984420604 34.810594923,64.987671477 34.807489145,64.985086001 " /><polygon class="region" points="16.28805542,54.356334686 16.281127943,54.354087372 16.289386843,54.35743464 16.28805542,54.356334686 " /><polygon class="region" points="15.947211136,43.679230515 15.945809511,43.679142617 15.949272904,43.681942278 15.949303338,43.681656683 15.947211136,43.679230515 " /><polygon class="region" points="-4.1070385199999,47.929584503 -4.107099503,47.929570354 -4.1021967049999,47.933956525 -4.1025924909999,47.932525635 -4.1070385199999,47.929584503 " /><polygon class="region" points="26.204868293,60.386225798 26.205064774,60.391010284 26.205196491,60.391045471 26.206038929,60.389247894 26.204868293,60.386225798 " /><polygon class="region" points="24.40515214,57.752097518 24.411620681,57.753693213 24.407954671,57.752067566 24.40515214,57.752097518 " /><polygon class="region" points="-3.127435335,47.701017034 -3.1253295179999,47.700447083 -3.124841535,47.698916325 -3.1259510519999,47.699199677 -3.127435335,47.701017034 " /><polygon class="region" points="-1.781926535,49.379779816 -1.781545164,49.37787563 -1.783996105,49.379463196 -1.7817887219999,49.379859948 -1.781926535,49.379779816 " /><polygon class="region" points="-3.204039097,47.650520325 -3.2028205619999,47.649017334 -3.2032416189999,47.647274285 -3.204039097,47.650520325 " /><polygon class="region" points="25.112092472,60.202148438 25.111362035,60.201758436 25.115418344,60.205066404 25.114840962,60.203617096 25.112092472,60.202148438 " /><polygon class="region" points="15.832156594,43.783960617 15.839754453,43.779759519 15.839376174,43.779443373 15.832156594,43.783960617 " /><polygon class="region" points="15.990273723,43.85123997 15.992198384,43.848846188 15.991678834,43.847568722 15.991677979,43.847598725 15.990273723,43.85123997 " /><polygon class="region" points="13.832436328,53.863821392 13.833671046,53.866268089 13.834150769,53.864276886 13.832436328,53.863821392 " /><polygon class="region" points="17.685508944,42.871012757 17.687723202,42.870612578 17.688770934,42.86935643 17.687998422,42.869430598 17.685508944,42.871012757 " /><polygon class="region" points="-3.862700484,48.676322937 -3.8610451219999,48.675216675 -3.861032612,48.673744681 -3.862700484,48.676322937 " /><polygon class="region" points="26.254612264,60.447248084 26.256854512,60.445053101 26.256595251,60.444552285 26.255887985,60.44474411 26.254612264,60.447248084 " /><polygon class="region" points="-3.027639334,47.622688499 -3.0255258949999,47.620088301 -3.026649952,47.620033264 -3.027639334,47.622688499 " /><polygon class="region" points="-3.526247655,47.761367908 -3.5249942099999,47.764827417 -3.5247965089999,47.763179779 -3.526247655,47.761367908 " /><polygon class="region" points="22.747141699,63.703971774 22.751689411,63.70401001 22.752614583,63.703415112 22.747141699,63.703971774 " /><polygon class="region" points="13.768012047,54.026210785 13.768379061,54.026814409 13.770108851,54.022470348 13.768012047,54.026210785 " /><polygon class="region" points="53.19788422,68.147054396 53.194926489,68.146507497 53.195048452,68.147267152 53.19788422,68.147054396 " /><polygon class="region" points="-1.528244741,49.039295247 -1.527559541,49.039386749 -1.523472238,49.036962031 -1.528244741,49.039295247 " /><polygon class="region" points="-4.313904309,48.42282486 -4.3144424019999,48.422790764 -4.3120597299999,48.424257499 -4.3132658229999,48.422863007 -4.313904309,48.42282486 " /><polygon class="region" points="22.700513341,63.712993622 22.701387995,63.713454197 22.70232914,63.711787778 22.700513341,63.712993622 " /><polygon class="region" points="4.75172651,43.419251246 4.757541885,43.415450684 4.7524418830001,43.418479919 4.75172651,43.419251246 " /><polygon class="region" points="3.0040368910001,42.970038469 3.0040500160001,42.97077179 3.006333619,42.97425247 3.0040368910001,42.970038469 " /><polygon class="region" points="21.388978458,62.263195038 21.38786126,62.263025559 21.389208455,62.264652478 21.388978458,62.263195038 " /><polygon class="region" points="24.996905781,60.183933258 24.995308689,60.183831015 24.997049773,60.184749555 24.996905781,60.183933258 " /><polygon class="region" points="-4.381013766,48.40721182 -4.379721108,48.405113334 -4.380273819,48.405052185 -4.381013766,48.40721182 " /><polygon class="region" points="34.796120736,65.004050279 34.797571839,65.005500519 34.799283954,65.006432169 34.796120736,65.004050279 " /><polygon class="region" points="27.07436862,60.535477079 27.07582233,60.535118103 27.076152617,60.534821801 27.074834824,60.534862518 27.07436862,60.535477079 " /><polygon class="region" points="28.695598668,60.657497697 28.696127853,60.65972268 28.696551336,60.659437767 28.695598668,60.657497697 " /><polygon class="region" points="34.497021667,65.319838268 34.498173391,65.320233335 34.498617492,65.319497993 34.497021667,65.319838268 " /><polygon class="region" points="29.658992551,45.445698595 29.660998799,45.444774628 29.658623601,45.445363422 29.658992551,45.445698595 " /><polygon class="region" points="13.802180745,54.064655304 13.801726242,54.064504022 13.802458221,54.066342384 13.802180745,54.064655304 " /><polygon class="region" points="17.702732805,42.869037918 17.702990896,42.869669614 17.704452431,42.870639507 17.702732805,42.869037918 " /><polygon class="region" points="53.997185778,68.20572761 53.990051678,68.202826505 53.9975931,68.205986023 53.997185778,68.20572761 " /><polygon class="region" points="-3.1322248889999,47.70892253 -3.131813549,47.708995819 -3.1319783169999,47.707430266 -3.1322248889999,47.70892253 " /><polygon class="region" points="31.433666623,46.80272187 31.435016843,46.802636361 31.433925964,46.802312485 31.433666623,46.80272187 " /><polygon class="region" points="-1.556736492,49.030990601 -1.5560100079999,49.032211304 -1.5555600559999,49.032369934 -1.556736492,49.030990601 " /><polygon class="region" points="-2.9843609329999,47.575046539 -2.9840611389999,47.575344124 -2.983554075,47.57433987 -2.9843609329999,47.575046539 " /><polygon class="region" points="22.772579193,63.679103851 22.772944285,63.680279448 22.772896224,63.678896263 22.772579193,63.679103851 " /><polygon class="region" points="-1.711517096,49.332492828 -1.7100918639999,49.332816723 -1.7115141589999,49.332329675 -1.711517096,49.332492828 " /><polygon class="region" points="-1.7689820209999,49.379035441 -1.7679657329999,49.378725815 -1.768620014,49.37877655 -1.7689820209999,49.379035441 " /><polygon class="region" points="12.102698872,54.110440696 12.10272739,54.110435486 12.103351646,54.109754627 12.102846146,54.110084534 12.102698872,54.110440696 " /><polygon class="region" points="21.438730094,60.633170548 21.439430636,60.634262379 21.439498901,60.634178162 21.438730094,60.633170548 " /><polygon class="region" points="28.608796939,60.68013792 28.608816296,60.680455138 28.609101045,60.680310671 28.608796939,60.68013792 " /><polygon class="region" points="34.48351567,65.244185041 34.483768,65.244298891 34.483559368,65.24402497 34.48351567,65.244185041 " /><polygon class="region" points="-3.3729832179999,47.723324006 -3.3725463779999,47.723150696 -3.3727130889999,47.723121643 -3.3729832179999,47.723324006 " /><polygon class="region" points="-2.194171452,48.609889984 -2.194156818,48.609999142 -2.193922055,48.609734566 -2.194171452,48.609889984 " /><polygon class="region" points="-4.269049668,48.32427597 -4.2693496539999,48.324262588 -4.2689642469999,48.324373316 -4.269049668,48.32427597 " /><polygon class="region" points="21.431143043,62.211231428 21.43122673,62.21138382 21.431415552,62.211402013 21.431143043,62.211231428 " /><polygon class="region" points="-3.680322337,47.815214818 -3.6801549109999,47.815254737 -3.6802795159999,47.815196991 -3.680322337,47.815214818 " />
		  </g>
		</svg>