<?xml version="1.0" encoding="UTF-8"?>
	<svg xmlns:xlink="http://www.w3.org/1999/xlink" 
	xmlns="http://www.w3.org/2000/svg" 
	width="360px" height="180px">
	   <style type="text/css">
		  <![CDATA[     
		  .region 
		  { 
			fill:blue; 
			opacity:0.4; 
			stroke:blue;
		  }
		  ]]>
	   </style>

	<circle id="dot" x="-2" y="-2" r="2" style="stroke:none; stroke-width:0; fill:black; opacity:0.7;"/>


	 <image x="0" y="0" width="360" height="180" xlink:href="map.jpg"/>

 
	 <g transform="translate(180,90) scale(1,-1)">   <use xlink:href="#dot" transform="translate(-2.38179,55.61475)" />   <use xlink:href="#dot" transform="translate(-2.67762,53.35995)" />   <use xlink:href="#dot" transform="translate(-2.67762,53.35995)" />   <use xlink:href="#dot" transform="translate(-2.67762,53.35995)" />   <use xlink:href="#dot" transform="translate(-2.67762,53.35995)" />   <use xlink:href="#dot" transform="translate(-2.67762,53.35995)" />   <use xlink:href="#dot" transform="translate(-2.67762,53.35995)" />   <use xlink:href="#dot" transform="translate(-1.72844,54.92988)" />   <use xlink:href="#dot" transform="translate(-1.36,42.400002)" />   <use xlink:href="#dot" transform="translate(-3.31,43.220001)" />   <use xlink:href="#dot" transform="translate(-1.96,42.669998)" />   <use xlink:href="#dot" transform="translate(-2.08,42.759998)" />   <use xlink:href="#dot" transform="translate(-2.45,42.68)" />   <use xlink:href="#dot" transform="translate(-2.7,42.59)" />   <use xlink:href="#dot" transform="translate(-2.82,42.77)" />   <use xlink:href="#dot" transform="translate(-2.82,42.32)" />   <use xlink:href="#dot" transform="translate(-2.69,43.130001)" />   <use xlink:href="#dot" transform="translate(-2.82,42.860001)" />   <use xlink:href="#dot" transform="translate(-3.18,42.41)" />   <use xlink:href="#dot" transform="translate(-2.94,42.41)" />   <use xlink:href="#dot" transform="translate(-1.35,42.759998)" />   <use xlink:href="#dot" transform="translate(-2.57,42.5)" />   <use xlink:href="#dot" transform="translate(-3.31,42.68)" />   <use xlink:href="#dot" transform="translate(-2.94,42.23)" />   <use xlink:href="#dot" transform="translate(-1.71,43.119999)" />   <use xlink:href="#dot" transform="translate(0.56,40.939999)" />   <use xlink:href="#dot" transform="translate(-2.57,43.400002)" />   <use xlink:href="#dot" transform="translate(-2.57,43.130001)" />   <use xlink:href="#dot" transform="translate(-3.18,43.220001)" />   <use xlink:href="#dot" transform="translate(-2.58,42.32)" />   <use xlink:href="#dot" transform="translate(-1.22,42.93)" />   <use xlink:href="#dot" transform="translate(-1.35,42.669998)" />   <use xlink:href="#dot" transform="translate(-1.6,42.490002)" />   <use xlink:href="#dot" transform="translate(-1.83,43.029999)" />   <use xlink:href="#dot" transform="translate(-2.94,43.400002)" />   <use xlink:href="#dot" transform="translate(-2.82,42.049999)" />   <use xlink:href="#dot" transform="translate(-2.94,42.59)" />   <use xlink:href="#dot" transform="translate(-1.47,42.669998)" />   <use xlink:href="#dot" transform="translate(-1.61,42.130001)" />   <use xlink:href="#dot" transform="translate(-2.08,42.849998)" />   <use xlink:href="#dot" transform="translate(-2.81,43.400002)" />   <use xlink:href="#dot" transform="translate(-2.82,43.220001)" />   <use xlink:href="#dot" transform="translate(-1.96,43.119999)" />   <use xlink:href="#dot" transform="translate(-2.08,42.939999)" />   <use xlink:href="#dot" transform="translate(-2.2,42.860001)" />   <use xlink:href="#dot" transform="translate(-2.33,42.68)" />   <use xlink:href="#dot" transform="translate(-2.46,42.139999)" />   <use xlink:href="#dot" transform="translate(-2.94,43.130001)" />   <use xlink:href="#dot" transform="translate(-2.69,42.950001)" />   <use xlink:href="#dot" transform="translate(-3.42,42.32)" />   <use xlink:href="#dot" transform="translate(-2.21,42.220001)" />   <use xlink:href="#dot" transform="translate(-1.46,43.209999)" />   <use xlink:href="#dot" transform="translate(-1.71,43.029999)" />   <use xlink:href="#dot" transform="translate(-1.84,42.939999)" />   <use xlink:href="#dot" transform="translate(-2.82,43.310001)" />   <use xlink:href="#dot" transform="translate(-1.85,42.040001)" />   <use xlink:href="#dot" transform="translate(-2.2,42.950001)" />   <use xlink:href="#dot" transform="translate(-2.33,42.860001)" />   <use xlink:href="#dot" transform="translate(-3.06,42.32)" />   <use xlink:href="#dot" transform="translate(-2.45,42.77)" />   <use xlink:href="#dot" transform="translate(-1.97,42.130001)" />   <use xlink:href="#dot" transform="translate(-1.84,42.759998)" />   <use xlink:href="#dot" transform="translate(-2.57,43.220001)" />   <use xlink:href="#dot" transform="translate(-2.21,42.130001)" />   <use xlink:href="#dot" transform="translate(-3.06,42.860001)" />   <use xlink:href="#dot" transform="translate(-2.57,42.860001)" />   <use xlink:href="#dot" transform="translate(-2.69,42.860001)" />   <use xlink:href="#dot" transform="translate(-2.45,42.32)" />   <use xlink:href="#dot" transform="translate(-1.36,42.580002)" />   <use xlink:href="#dot" transform="translate(-1.84,42.669998)" />   <use xlink:href="#dot" transform="translate(-1.84,42.849998)" />   <use xlink:href="#dot" transform="translate(-2.09,42.580002)" />   <use xlink:href="#dot" transform="translate(-2.33,42.41)" />   <use xlink:href="#dot" transform="translate(-3.06,42.77)" />   <use xlink:href="#dot" transform="translate(-1.1,42.84)" />   <use xlink:href="#dot" transform="translate(-1.58,43.209999)" />   <use xlink:href="#dot" transform="translate(-2.82,42.59)" />   <use xlink:href="#dot" transform="translate(-3.31,42.77)" />   <use xlink:href="#dot" transform="translate(-2.2,43.220001)" />   <use xlink:href="#dot" transform="translate(-2.82,42.23)" />   <use xlink:href="#dot" transform="translate(-1.47,42.939999)" />   <use xlink:href="#dot" transform="translate(-1.84,42.580002)" />   <use xlink:href="#dot" transform="translate(0.7,40.580002)" />   <use xlink:href="#dot" transform="translate(-1.36,42.490002)" />   <use xlink:href="#dot" transform="translate(-1.73,42.130001)" />   <use xlink:href="#dot" transform="translate(-1.85,42.130001)" />   <use xlink:href="#dot" transform="translate(-2.69,43.040001)" />   <use xlink:href="#dot" transform="translate(-2.82,42.68)" />   <use xlink:href="#dot" transform="translate(-1.47,42.759998)" />   <use xlink:href="#dot" transform="translate(-1.48,42.400002)" />   <use xlink:href="#dot" transform="translate(-2.21,42.669998)" />   <use xlink:href="#dot" transform="translate(-2.45,42.5)" />   <use xlink:href="#dot" transform="translate(-3.06,42.23)" />   <use xlink:href="#dot" transform="translate(-1.59,42.939999)" />   <use xlink:href="#dot" transform="translate(-1.6,42.400002)" />   <use xlink:href="#dot" transform="translate(-1.85,42.400002)" />   <use xlink:href="#dot" transform="translate(-1.97,42.400002)" />   <use xlink:href="#dot" transform="translate(-2.45,43.220001)" />   <use xlink:href="#dot" transform="translate(-2.57,42.59)" />   <use xlink:href="#dot" transform="translate(-2.94,42.139999)" />   <use xlink:href="#dot" transform="translate(-1.71,42.849998)" />   <use xlink:href="#dot" transform="translate(-2.44,43.400002)" />   <use xlink:href="#dot" transform="translate(-3.06,43.310001)" />   <use xlink:href="#dot" transform="translate(-2.21,42.580002)" />   <use xlink:href="#dot" transform="translate(-1.95,43.209999)" />   <use xlink:href="#dot" transform="translate(-1.97,42.310001)" />   <use xlink:href="#dot" transform="translate(-2.09,42.310001)" />   <use xlink:href="#dot" transform="translate(-2.94,43.220001)" />   <use xlink:href="#dot" transform="translate(-3.3,42.41)" />   <use xlink:href="#dot" transform="translate(-3.43,42.77)" />   <use xlink:href="#dot" transform="translate(-2.58,42.23)" />   <use xlink:href="#dot" transform="translate(-1.83,43.209999)" />   <use xlink:href="#dot" transform="translate(-2.45,43.130001)" />   <use xlink:href="#dot" transform="translate(-2.45,43.310001)" />   <use xlink:href="#dot" transform="translate(-2.57,42.68)" />   <use xlink:href="#dot" transform="translate(-2.21,42.310001)" />   <use xlink:href="#dot" transform="translate(-1.46,43.119999)" />   <use xlink:href="#dot" transform="translate(-3.18,43.130001)" />   <use xlink:href="#dot" transform="translate(-1.35,42.849998)" />   <use xlink:href="#dot" transform="translate(-2.69,43.310001)" />   <use xlink:href="#dot" transform="translate(-1.96,43.029999)" />   <use xlink:href="#dot" transform="translate(-3.06,43.130001)" />   <use xlink:href="#dot" transform="translate(-1.71,42.939999)" />   <use xlink:href="#dot" transform="translate(-1.83,43.119999)" />   <use xlink:href="#dot" transform="translate(-1.23,42.66)" />   <use xlink:href="#dot" transform="translate(-2.09,42.130001)" />   <use xlink:href="#dot" transform="translate(-3.3,42.5)" />   <use xlink:href="#dot" transform="translate(-3.67,42.23)" />   <use xlink:href="#dot" transform="translate(-2.34,42.049999)" />   <use xlink:href="#dot" transform="translate(-1.71,43.209999)" />   <use xlink:href="#dot" transform="translate(-2.94,43.310001)" />   <use xlink:href="#dot" transform="translate(-2.08,43.029999)" />   <use xlink:href="#dot" transform="translate(-3.06,42.5)" />   <use xlink:href="#dot" transform="translate(-1.97,42.220001)" />   <use xlink:href="#dot" transform="translate(-2.45,42.41)" />   <use xlink:href="#dot" transform="translate(-1.47,42.849998)" />   <use xlink:href="#dot" transform="translate(-1.73,42.310001)" />   <use xlink:href="#dot" transform="translate(-2.09,42.400002)" />   <use xlink:href="#dot" transform="translate(-2.21,42.400002)" />   <use xlink:href="#dot" transform="translate(-2.33,42.5)" />   <use xlink:href="#dot" transform="translate(-2.58,42.139999)" />   <use xlink:href="#dot" transform="translate(-2.82,42.139999)" />   <use xlink:href="#dot" transform="translate(-2.2,43.040001)" />   <use xlink:href="#dot" transform="translate(-2.7,42.32)" />   <use xlink:href="#dot" transform="translate(-1.72,42.759998)" />   <use xlink:href="#dot" transform="translate(-1.83,43.299999)" />   <use xlink:href="#dot" transform="translate(-2.94,42.77)" />   <use xlink:href="#dot" transform="translate(-3.3,42.59)" />   <use xlink:href="#dot" transform="translate(-2.45,42.23)" />   <use xlink:href="#dot" transform="translate(-1.61,42.220001)" />   <use xlink:href="#dot" transform="translate(-1.34,43.119999)" />   <use xlink:href="#dot" transform="translate(-1.85,42.220001)" />   <use xlink:href="#dot" transform="translate(-2.21,42.490002)" />   <use xlink:href="#dot" transform="translate(-3.18,42.77)" />   <use xlink:href="#dot" transform="translate(-3.43,42.68)" />   <use xlink:href="#dot" transform="translate(-1.59,42.849998)" />   <use xlink:href="#dot" transform="translate(-2.08,42.669998)" />   <use xlink:href="#dot" transform="translate(-1.85,42.310001)" />   <use xlink:href="#dot" transform="translate(-1.95,43.299999)" />   <use xlink:href="#dot" transform="translate(-2.08,43.209999)" />   <use xlink:href="#dot" transform="translate(-2.7,42.23)" />   <use xlink:href="#dot" transform="translate(-1.73,42.220001)" />   <use xlink:href="#dot" transform="translate(-2.46,42.049999)" />   <use xlink:href="#dot" transform="translate(-3.06,43.220001)" />   <use xlink:href="#dot" transform="translate(-3.18,42.5)" />   <use xlink:href="#dot" transform="translate(-2.33,42.23)" />   <use xlink:href="#dot" transform="translate(-1.72,42.400002)" />   <use xlink:href="#dot" transform="translate(-1.96,42.939999)" />   <use xlink:href="#dot" transform="translate(-2.69,42.77)" />   <use xlink:href="#dot" transform="translate(-2.09,42.220001)" />   <use xlink:href="#dot" transform="translate(-2.82,42.41)" />   <use xlink:href="#dot" transform="translate(-2.94,42.5)" />   <use xlink:href="#dot" transform="translate(-1.11,42.75)" />   <use xlink:href="#dot" transform="translate(-1.72,42.490002)" />   <use xlink:href="#dot" transform="translate(-1.84,42.490002)" />   <use xlink:href="#dot" transform="translate(-2.7,42.5)" />   <use xlink:href="#dot" transform="translate(-2.94,43.040001)" />   <use xlink:href="#dot" transform="translate(-3.06,42.68)" />   <use xlink:href="#dot" transform="translate(-2.45,42.860001)" />   <use xlink:href="#dot" transform="translate(-1.97,42.040001)" />   <use xlink:href="#dot" transform="translate(-2.33,42.32)" />   <use xlink:href="#dot" transform="translate(-1.59,43.029999)" />   <use xlink:href="#dot" transform="translate(-2.69,43.220001)" />   <use xlink:href="#dot" transform="translate(-2.7,42.049999)" />   <use xlink:href="#dot" transform="translate(-2.08,43.119999)" />   <use xlink:href="#dot" transform="translate(-1.23,42.57)" />   <use xlink:href="#dot" transform="translate(-2.09,42.490002)" />   <use xlink:href="#dot" transform="translate(-2.57,43.310001)" />   <use xlink:href="#dot" transform="translate(-2.69,43.400002)" />   <use xlink:href="#dot" transform="translate(-1.11,42.66)" />   <use xlink:href="#dot" transform="translate(-2.33,42.139999)" />   <use xlink:href="#dot" transform="translate(-2.45,42.950001)" />   <use xlink:href="#dot" transform="translate(-2.58,42.049999)" />   <use xlink:href="#dot" transform="translate(-2.69,42.68)" />   <use xlink:href="#dot" transform="translate(-2.94,42.32)" />   <use xlink:href="#dot" transform="translate(-2.57,42.950001)" />   <use xlink:href="#dot" transform="translate(-2.7,42.139999)" />   <use xlink:href="#dot" transform="translate(-1.23,42.75)" />   <use xlink:href="#dot" transform="translate(-2.94,42.68)" />   <use xlink:href="#dot" transform="translate(-2.7,42.41)" />   <use xlink:href="#dot" transform="translate(-1.59,42.759998)" />   <use xlink:href="#dot" transform="translate(-1.59,43.119999)" />   <use xlink:href="#dot" transform="translate(-1.96,42.580002)" />   <use xlink:href="#dot" transform="translate(-1.97,42.490002)" />   <use xlink:href="#dot" transform="translate(-2.82,43.130001)" />   <use xlink:href="#dot" transform="translate(16.64,52.08)" />   <use xlink:href="#dot" transform="translate(-4.09639,47.99667)" />   <use xlink:href="#dot" transform="translate(-0.55,45.7167)" />   <use xlink:href="#dot" transform="translate(30.736747,59.615276)" />   <use xlink:href="#dot" transform="translate(28.80633,45.17998)" />   <use xlink:href="#dot" transform="translate(97.745306,64.686314)" />   <use xlink:href="#dot" transform="translate(3.20741,49.60402)" />   <use xlink:href="#dot" transform="translate(-1.19444,44.21392)" />   <use xlink:href="#dot" transform="translate(-3.46277,48.71009)" />   <use xlink:href="#dot" transform="translate(-3.5982,48.70266)" />   <use xlink:href="#dot" transform="translate(-1.3512,49.52618)" />   <use xlink:href="#dot" transform="translate(-0.70437,46.30472)" />   <use xlink:href="#dot" transform="translate(-2.03708,48.0577)" />   <use xlink:href="#dot" transform="translate(-0.48101,48.92439)" />   <use xlink:href="#dot" transform="translate(0.25873,45.25075)" />   <use xlink:href="#dot" transform="translate(-2.06288,48.32708)" />   <use xlink:href="#dot" transform="translate(-0.50524,49.28368)" />   <use xlink:href="#dot" transform="translate(-0.53964,45.76913)" />   <use xlink:href="#dot" transform="translate(3.20741,49.60402)" />   <use xlink:href="#dot" transform="translate(-3.44062,48.53079)" />   <use xlink:href="#dot" transform="translate(0.50399,48.319)" />   <use xlink:href="#dot" transform="translate(-1.10851,44.75802)" />   <use xlink:href="#dot" transform="translate(-3.4739,48.79973)" />   <use xlink:href="#dot" transform="translate(3.97711,46.4508)" />   <use xlink:href="#dot" transform="translate(-3.28407,48.35869)" />   <use xlink:href="#dot" transform="translate(0.50825,48.22907)" />   <use xlink:href="#dot" transform="translate(3.60837,48.43372)" />   <use xlink:href="#dot" transform="translate(-1.14844,43.58484)" />   <use xlink:href="#dot" transform="translate(-0.55244,43.96629)" />   <use xlink:href="#dot" transform="translate(-0.6622,45.67507)" />   <use xlink:href="#dot" transform="translate(-0.55121,45.94904)" />   <use xlink:href="#dot" transform="translate(-1.14844,43.58484)" />   <use xlink:href="#dot" transform="translate(-0.20831,48.932)" />   <use xlink:href="#dot" transform="translate(-1.99466,47.6086)" />   <use xlink:href="#dot" transform="translate(-2.07154,48.41687)" />   <use xlink:href="#dot" transform="translate(-3.0046,48.28298)" />   <use xlink:href="#dot" transform="translate(-3.45168,48.62045)" />   <use xlink:href="#dot" transform="translate(-2.62038,48.48228)" />   <use xlink:href="#dot" transform="translate(-4.05471,48.04417)" />   <use xlink:href="#dot" transform="translate(-1.23469,44.75327)" />   <use xlink:href="#dot" transform="translate(0.25873,45.25075)" />   <use xlink:href="#dot" transform="translate(3.20741,49.60402)" />   <use xlink:href="#dot" transform="translate(-0.66817,45.76502)" />   <use xlink:href="#dot" transform="translate(-4.24986,48.48406)" />   <use xlink:href="#dot" transform="translate(-0.52814,45.58921)" />   <use xlink:href="#dot" transform="translate(0.78631,44.81208)" />   <use xlink:href="#dot" transform="translate(-0.3389,48.83842)" />   <use xlink:href="#dot" transform="translate(4.10737,46.44961)" />   <use xlink:href="#dot" transform="translate(3.06914,49.60418)" />   <use xlink:href="#dot" transform="translate(-4.07874,48.22342)" />   <use xlink:href="#dot" transform="translate(-2.47601,48.39885)" />   <use xlink:href="#dot" transform="translate(-2.03708,48.0577)" />   <use xlink:href="#dot" transform="translate(-3.3273,48.71737)" />   <use xlink:href="#dot" transform="translate(-0.84994,44.67718)" />   <use xlink:href="#dot" transform="translate(0.83291,46.8848)" />   <use xlink:href="#dot" transform="translate(4.23763,46.44827)" />   <use xlink:href="#dot" transform="translate(-0.8438,44.58726)" />   <use xlink:href="#dot" transform="translate(3.34508,49.51384)" />   <use xlink:href="#dot" transform="translate(3.84824,46.54188)" />   <use xlink:href="#dot" transform="translate(-2.99438,48.19326)" />   <use xlink:href="#dot" transform="translate(-0.26126,45.41702)" />   <use xlink:href="#dot" transform="translate(0.91608,44.72453)" />   <use xlink:href="#dot" transform="translate(0.50825,48.22907)" />   <use xlink:href="#dot" transform="translate(0.91941,44.63453)" />   <use xlink:href="#dot" transform="translate(-3.3273,48.71737)" />   <use xlink:href="#dot" transform="translate(0.13134,45.24755)" />   <use xlink:href="#dot" transform="translate(0.65988,44.80948)" />   <use xlink:href="#dot" transform="translate(-1.6816,47.08051)" />   <use xlink:href="#dot" transform="translate(-2.57267,48.03353)" />   <use xlink:href="#dot" transform="translate(-1.94512,48.51235)" />   <use xlink:href="#dot" transform="translate(-4.04276,47.95454)" />   <use xlink:href="#dot" transform="translate(-2.07154,48.41687)" />   <use xlink:href="#dot" transform="translate(-3.0046,48.28298)" />   <use xlink:href="#dot" transform="translate(-0.75388,45.13116)" />   <use xlink:href="#dot" transform="translate(4.1092,46.53965)" />   <use xlink:href="#dot" transform="translate(-1.94512,48.51235)" />   <use xlink:href="#dot" transform="translate(0.37365,48.22616)" />   <use xlink:href="#dot" transform="translate(-3.9328,48.14176)" />   <use xlink:href="#dot" transform="translate(-0.6622,45.67507)" />   <use xlink:href="#dot" transform="translate(-0.20277,48.84215)" />   <use xlink:href="#dot" transform="translate(-1.27203,43.58005)" />   <use xlink:href="#dot" transform="translate(-3.40769,48.26179)" />   <use xlink:href="#dot" transform="translate(-2.3321,48.31525)" />   <use xlink:href="#dot" transform="translate(4.23968,46.53831)" />   <use xlink:href="#dot" transform="translate(-1.18781,44.12404)" />   <use xlink:href="#dot" transform="translate(-2.24261,47.41729)" />   <use xlink:href="#dot" transform="translate(0.51249,48.13914)" />   <use xlink:href="#dot" transform="translate(3.34508,49.51384)" />   <use xlink:href="#dot" transform="translate(3.34568,49.60371)" />   <use xlink:href="#dot" transform="translate(-2.07154,48.41687)" />   <use xlink:href="#dot" transform="translate(0.92625,47.87707)" />   <use xlink:href="#dot" transform="translate(-3.95646,48.32102)" />   <use xlink:href="#dot" transform="translate(0.78984,44.72208)" />   <use xlink:href="#dot" transform="translate(3.20741,49.60402)" />   <use xlink:href="#dot" transform="translate(-2.3321,48.31525)" /><polygon class="region" points="-3.67,42.23 -4.24986,48.48406 -2.38179,55.61475 30.736747,59.615276 97.745306,64.686314 28.80633,45.17998 0.7,40.580002 -3.67,42.23 " />
		  </g>
		</svg>