<?xml version="1.0" encoding="UTF-8"?>
	<svg xmlns:xlink="http://www.w3.org/1999/xlink" 
	xmlns="http://www.w3.org/2000/svg" 
	width="360px" height="180px">
	   <style type="text/css">
		  <![CDATA[     
		  .region 
		  { 
			fill:blue; 
			opacity:0.4; 
			stroke:blue;
		  }
		  ]]>
	   </style>

	<circle id="dot" x="-2" y="-2" r="2" style="stroke:none; stroke-width:0; fill:black; opacity:0.7;"/>


	 <image x="0" y="0" width="360" height="180" xlink:href="map.jpg"/>

 
	 <g transform="translate(180,90) scale(1,-1)">   <use xlink:href="#dot" transform="translate(-113.017684,35.498099)" />   <use xlink:href="#dot" transform="translate(-103.517833,43.448163)" />   <use xlink:href="#dot" transform="translate(-112.848467,35.346457)" />   <use xlink:href="#dot" transform="translate(-113.130092,35.45374)" />   <use xlink:href="#dot" transform="translate(-100.9827,43.2955)" />   <use xlink:href="#dot" transform="translate(-108.184507,47.632465)" />   <use xlink:href="#dot" transform="translate(-105.375608,41.764614)" />   <use xlink:href="#dot" transform="translate(-87.827293,44.347794)" />   <use xlink:href="#dot" transform="translate(-79.766591,38.036175)" />   <use xlink:href="#dot" transform="translate(-105.376986,41.762446)" />   <use xlink:href="#dot" transform="translate(-105.873904,38.715216)" />   <use xlink:href="#dot" transform="translate(-109.121749,44.153165)" />   <use xlink:href="#dot" transform="translate(-108.998846,44.163681)" />   <use xlink:href="#dot" transform="translate(-109.22611,44.160192)" />   <use xlink:href="#dot" transform="translate(-104.383151,44.186749)" />   <use xlink:href="#dot" transform="translate(-107.569704,42.990373)" />   <use xlink:href="#dot" transform="translate(-109.072709,44.157042)" />   <use xlink:href="#dot" transform="translate(-100.703354,39.127197)" />   <use xlink:href="#dot" transform="translate(-100.73757536184,43.181100679801)" />   <use xlink:href="#dot" transform="translate(-101.72333131289,46.022877212114)" />   <use xlink:href="#dot" transform="translate(-104.77182533383,38.739957557355)" />   <use xlink:href="#dot" transform="translate(-104.938,45.3033)" />   <use xlink:href="#dot" transform="translate(-106.132963,38.836872)" />   <use xlink:href="#dot" transform="translate(-107.87986024687,37.275222251435)" />   <use xlink:href="#dot" transform="translate(-107.87986024687,37.275222251435)" />   <use xlink:href="#dot" transform="translate(-107.55842779496,40.833734170949)" />   <use xlink:href="#dot" transform="translate(-104.922203,39.717785)" />   <use xlink:href="#dot" transform="translate(-109.4796323059,37.595037261828)" />   <use xlink:href="#dot" transform="translate(-104.219363,40.497069)" />   <use xlink:href="#dot" transform="translate(-102.22278,40.07583)" />   <use xlink:href="#dot" transform="translate(-102.00856967765,38.041668118945)" />   <use xlink:href="#dot" transform="translate(-102.22278,40.07583)" />   <use xlink:href="#dot" transform="translate(-101.9209,33.577)" />   <use xlink:href="#dot" transform="translate(-102.00856967765,38.041668118945)" />   <use xlink:href="#dot" transform="translate(-104.79742,39.741067)" />   <use xlink:href="#dot" transform="translate(-98.481380439664,39.035065243793)" />   <use xlink:href="#dot" transform="translate(-106.03812698391,35.604850799476)" />   <use xlink:href="#dot" transform="translate(-105.298898,36.430032)" />   <use xlink:href="#dot" transform="translate(-103.067931,37.03637)" />   <use xlink:href="#dot" transform="translate(-106.6506,35.0844)" />   <use xlink:href="#dot" transform="translate(-104.22472,40.798931)" />   <use xlink:href="#dot" transform="translate(-104.225829,40.796695)" />   <use xlink:href="#dot" transform="translate(-103.731861,39.790664)" />   <use xlink:href="#dot" transform="translate(-106.90990162217,47.263144369913)" />   <use xlink:href="#dot" transform="translate(-103.731861,39.790664)" />   <use xlink:href="#dot" transform="translate(-103.731861,39.790664)" />   <use xlink:href="#dot" transform="translate(-104.16667,37.49778)" />   <use xlink:href="#dot" transform="translate(-108.75,34)" />   <use xlink:href="#dot" transform="translate(-105.064706,39.856097)" />   <use xlink:href="#dot" transform="translate(-105.013707,39.596666)" />   <use xlink:href="#dot" transform="translate(-106.910027,47.320801)" />   <use xlink:href="#dot" transform="translate(-106.910027,47.320801)" />   <use xlink:href="#dot" transform="translate(-106.910027,47.320801)" />   <use xlink:href="#dot" transform="translate(-106.910027,47.320801)" />   <use xlink:href="#dot" transform="translate(-104.77472,39.94444)" />   <use xlink:href="#dot" transform="translate(-100.11362441652,38.899260861103)" />   <use xlink:href="#dot" transform="translate(-103.731861,39.790664)" />   <use xlink:href="#dot" transform="translate(-103.731861,39.790664)" />   <use xlink:href="#dot" transform="translate(-103.731861,39.790664)" />   <use xlink:href="#dot" transform="translate(-104.92632,39.75646)" />   <use xlink:href="#dot" transform="translate(-113.050827,50.866669)" />   <use xlink:href="#dot" transform="translate(-101.937,41.46)" />   <use xlink:href="#dot" transform="translate(-98.113461637936,37.64579225734)" />   <use xlink:href="#dot" transform="translate(-98.833333,26.4)" />   <use xlink:href="#dot" transform="translate(-100.759483,43.575618)" />   <use xlink:href="#dot" transform="translate(-111.91690214803,35.315774453458)" />   <use xlink:href="#dot" transform="translate(-100.827654,43.268789)" />   <use xlink:href="#dot" transform="translate(-97.388122,35.211761)" />   <use xlink:href="#dot" transform="translate(-88.305352,41.887528)" />   <use xlink:href="#dot" transform="translate(-109.466667,49.916667)" />   <use xlink:href="#dot" transform="translate(-106.346771,40.084884)" />   <use xlink:href="#dot" transform="translate(-103.067931,37.03637)" />   <use xlink:href="#dot" transform="translate(-111.62009384886,35.204979057092)" />   <use xlink:href="#dot" transform="translate(-104.4843077218,45.494564872803)" />   <use xlink:href="#dot" transform="translate(-103.067931,37.03637)" />   <use xlink:href="#dot" transform="translate(-108.733333,42.833333)" />   <use xlink:href="#dot" transform="translate(-106.383333,49.366667)" />   <use xlink:href="#dot" transform="translate(-103.067931,37.03637)" />   <use xlink:href="#dot" transform="translate(-105.59056,41.31139)" /><polygon class="region" points="-98.833333,26.4 -113.130092,35.45374 -113.050827,50.866669 -106.383333,49.366667 -87.827293,44.347794 -79.766591,38.036175 -98.833333,26.4 " />
		  </g>
		</svg>