<?xml version="1.0" encoding="UTF-8"?>
	<svg xmlns:xlink="http://www.w3.org/1999/xlink" 
	xmlns="http://www.w3.org/2000/svg" 
	width="360px" height="180px">
	   <style type="text/css">
		  <![CDATA[     
		  .region 
		  { 
			fill:blue; 
			opacity:0.4; 
			stroke:blue;
		  }
		  ]]>
	   </style>

	<circle id="dot" x="-2" y="-2" r="2" style="stroke:none; stroke-width:0; fill:black; opacity:0.7;"/>


	 <image x="0" y="0" width="360" height="180" xlink:href="map.jpg"/>

 
	 <g transform="translate(180,90) scale(1,-1)"><polygon class="region" points="-102.4102,43.599535593 -102.5886,43.771735592 -102.4163,43.950135593 -102.238,43.780935593 -102.4102,43.599535593 " /><polygon class="region" points="-109.1748,39.945935592 -109.2894,40.054735593 -109.1826,40.169235593 -109.0661,40.062535593 -109.1748,39.945935592 " /><polygon class="region" points="-106.2839,42.097535593 -106.3966,42.206335593 -106.2878,42.320935593 -106.1732,42.210235593 -106.2839,42.097535593 " /><polygon class="region" points="-100.1148,44.394435592 -98.9902,43.035535593 -98.2404,41.629735593 -97.5844,39.755435593 -97.6781,37.225035593 -96.6941,34.319835593 -96.741,33.382635593 -97.2564,30.805335592 -98.0999,30.055635593 -99.0839,29.727635593 -101.8954,29.399635592 -103.3949,29.352735592 -105.9722,30.008735593 -106.5345,30.336835592 -107.8934,30.243035592 -110.0489,29.633935593 -111.4546,30.008735593 -112.0638,30.758535592 -112.5792,32.914035593 -112.2981,34.226035593 -111.0798,36.615835592 -110.7986,37.834235593 -110.7986,42.894935592 -111.3141,45.144135593 -111.6889,45.847035592 -114.5005,48.658635592 -114.8753,50.017535593 -114.8285,50.486035593 -114.2662,51.095235592 -112.5324,51.751235593 -111.5015,51.704435593 -109.2054,50.814135593 -106.7219,50.204935592 -105.5973,49.314635593 -104.4727,48.049435593 -100.1148,44.394435592 " />
		  </g>
		</svg>