<?xml version="1.0" encoding="UTF-8"?>
	<svg xmlns:xlink="http://www.w3.org/1999/xlink" 
	xmlns="http://www.w3.org/2000/svg" 
	width="360px" height="180px">
	   <style type="text/css">
		  <![CDATA[     
		  .region 
		  { 
			fill:blue; 
			opacity:0.4; 
			stroke:blue;
		  }
		  ]]>
	   </style>

	<circle id="dot" x="-2" y="-2" r="2" style="stroke:none; stroke-width:0; fill:black; opacity:0.7;"/>


	 <image x="0" y="0" width="360" height="180" xlink:href="map.jpg"/>

 
	 <g transform="translate(180,90) scale(1,-1)">   <use xlink:href="#dot" transform="translate(19.696973801853,-33.829702630878)" />   <use xlink:href="#dot" transform="translate(19.696973801853,-33.829702630878)" />   <use xlink:href="#dot" transform="translate(19.696973801853,-33.829702630878)" />   <use xlink:href="#dot" transform="translate(19.32,-33.7)" />   <use xlink:href="#dot" transform="translate(19.32,-33.7)" />   <use xlink:href="#dot" transform="translate(19,-32.13)" />   <use xlink:href="#dot" transform="translate(19.32,-33.7)" />   <use xlink:href="#dot" transform="translate(19.32,-33.7)" />   <use xlink:href="#dot" transform="translate(19.32,-33.7)" />   <use xlink:href="#dot" transform="translate(19.32,-33.7)" />   <use xlink:href="#dot" transform="translate(19,-32.13)" />   <use xlink:href="#dot" transform="translate(19.32,-33.7)" />   <use xlink:href="#dot" transform="translate(19,-32.13)" />   <use xlink:href="#dot" transform="translate(19,-32.13)" />   <use xlink:href="#dot" transform="translate(19,-32.13)" />   <use xlink:href="#dot" transform="translate(19,-32.13)" />   <use xlink:href="#dot" transform="translate(19,-32.13)" />   <use xlink:href="#dot" transform="translate(19.32,-33.7)" />   <use xlink:href="#dot" transform="translate(19.32,-33.7)" />   <use xlink:href="#dot" transform="translate(19,-32.13)" />   <use xlink:href="#dot" transform="translate(19.32,-33.7)" />   <use xlink:href="#dot" transform="translate(19.32,-33.7)" />   <use xlink:href="#dot" transform="translate(19,-32.13)" />   <use xlink:href="#dot" transform="translate(19,-32.13)" />   <use xlink:href="#dot" transform="translate(19.32,-33.7)" />   <use xlink:href="#dot" transform="translate(19,-32.13)" />   <use xlink:href="#dot" transform="translate(19.32,-33.7)" />   <use xlink:href="#dot" transform="translate(19.32,-33.7)" />   <use xlink:href="#dot" transform="translate(19.32,-33.7)" />   <use xlink:href="#dot" transform="translate(19.32,-33.7)" />   <use xlink:href="#dot" transform="translate(19,-32.13)" />   <use xlink:href="#dot" transform="translate(19,-32.13)" />   <use xlink:href="#dot" transform="translate(19.32,-33.7)" />   <use xlink:href="#dot" transform="translate(19.32,-33.7)" />   <use xlink:href="#dot" transform="translate(19,-32.13)" />   <use xlink:href="#dot" transform="translate(19,-32.13)" />   <use xlink:href="#dot" transform="translate(19.32,-33.7)" />   <use xlink:href="#dot" transform="translate(19,-32.13)" />   <use xlink:href="#dot" transform="translate(19.32,-33.7)" />   <use xlink:href="#dot" transform="translate(29.28,-33.78)" />   <use xlink:href="#dot" transform="translate(29.28,-33.78)" />   <use xlink:href="#dot" transform="translate(23,-33.95)" />   <use xlink:href="#dot" transform="translate(23,-33.95)" />   <use xlink:href="#dot" transform="translate(20.35,-34.08)" />   <use xlink:href="#dot" transform="translate(23,-33.95)" />   <use xlink:href="#dot" transform="translate(23,-33.95)" />   <use xlink:href="#dot" transform="translate(23,-33.95)" />   <use xlink:href="#dot" transform="translate(23,-33.95)" />   <use xlink:href="#dot" transform="translate(23,-33.95)" />   <use xlink:href="#dot" transform="translate(23,-33.95)" />   <use xlink:href="#dot" transform="translate(23,-33.95)" />   <use xlink:href="#dot" transform="translate(20.35,-34.08)" />   <use xlink:href="#dot" transform="translate(20.35,-34.08)" />   <use xlink:href="#dot" transform="translate(19.05,-32.13)" />   <use xlink:href="#dot" transform="translate(19.05,-32.13)" />   <use xlink:href="#dot" transform="translate(19.05,-32.13)" />   <use xlink:href="#dot" transform="translate(19.05,-32.13)" />   <use xlink:href="#dot" transform="translate(19.05,-32.13)" />   <use xlink:href="#dot" transform="translate(19.05,-32.13)" />   <use xlink:href="#dot" transform="translate(19.05,-32.13)" />   <use xlink:href="#dot" transform="translate(19.05,-32.13)" />   <use xlink:href="#dot" transform="translate(19.05,-32.13)" />   <use xlink:href="#dot" transform="translate(19.05,-32.13)" />   <use xlink:href="#dot" transform="translate(19.05,-32.13)" />   <use xlink:href="#dot" transform="translate(19.05,-32.13)" />   <use xlink:href="#dot" transform="translate(19.05,-32.13)" />   <use xlink:href="#dot" transform="translate(19.05,-32.13)" />   <use xlink:href="#dot" transform="translate(19.05,-32.13)" />   <use xlink:href="#dot" transform="translate(19.05,-32.13)" />   <use xlink:href="#dot" transform="translate(19.05,-32.13)" />   <use xlink:href="#dot" transform="translate(19.05,-32.13)" />   <use xlink:href="#dot" transform="translate(19.05,-32.13)" />   <use xlink:href="#dot" transform="translate(19.05,-32.13)" />   <use xlink:href="#dot" transform="translate(19.05,-32.13)" />   <use xlink:href="#dot" transform="translate(19.05,-32.13)" />   <use xlink:href="#dot" transform="translate(19.05,-32.13)" />   <use xlink:href="#dot" transform="translate(19.05,-32.13)" />   <use xlink:href="#dot" transform="translate(19.05,-32.13)" />   <use xlink:href="#dot" transform="translate(19.05,-32.13)" />   <use xlink:href="#dot" transform="translate(19.05,-32.13)" />   <use xlink:href="#dot" transform="translate(19.05,-32.13)" />   <use xlink:href="#dot" transform="translate(19.05,-32.13)" />   <use xlink:href="#dot" transform="translate(19.05,-32.13)" />   <use xlink:href="#dot" transform="translate(18.9833,-32.6)" />   <use xlink:href="#dot" transform="translate(28.583333,-30.783333)" />   <use xlink:href="#dot" transform="translate(18.416667,-33.916667)" />   <use xlink:href="#dot" transform="translate(18.416667,-33.916667)" />   <use xlink:href="#dot" transform="translate(18.416667,-33.916667)" />   <use xlink:href="#dot" transform="translate(17.2954,-22.5455)" /><polygon class="region" points="18.416667,-33.916667 17.2954,-22.5455 28.583333,-30.783333 29.28,-33.78 20.35,-34.08 18.416667,-33.916667 " />
		  </g>
		</svg>