<?xml version="1.0" encoding="UTF-8"?>
	<svg xmlns:xlink="http://www.w3.org/1999/xlink" 
	xmlns="http://www.w3.org/2000/svg" 
	width="360px" height="180px">
	   <style type="text/css">
		  <![CDATA[     
		  .region 
		  { 
			fill:blue; 
			opacity:0.4; 
			stroke:blue;
		  }
		  ]]>
	   </style>

	<circle id="dot" x="-2" y="-2" r="2" style="stroke:none; stroke-width:0; fill:black; opacity:0.7;"/>


	 <image x="0" y="0" width="360" height="180" xlink:href="map.jpg"/>

 
	 <g transform="translate(180,90) scale(1,-1)"><polygon class="region" points="19.5707,-32.766864407 19.557,-33.254664408 19.8614,-33.496164407 21.6251,-33.443664407 21.7721,-33.044764408 22.3915,-32.918764407 24.2601,-33.506664407 24.2354,-34.078064408 22.2643,-34.051464407 21.8195,-34.381164408 20.5268,-34.471364407 20.005,-34.839764407 19.2943,-34.633464408 19.3658,-34.506164408 19.138,-34.307864407 18.8218,-34.385064407 18.7911,-34.085264408 18.4687,-34.106464407 18.4924,-34.354064407 18.3996,-34.308664407 18.3115,-34.027564407 18.4788,-33.891764407 18.4372,-33.702164407 17.8457,-32.824764407 18.3132,-32.565264407 18.1883,-31.701064408 18.3182,-31.532964407 18.9901,-31.448964408 19.3157,-31.628064408 19.6095,-32.131364407 19.5707,-32.766864407 " />
		  </g>
		</svg>