<?xml version="1.0" encoding="UTF-8"?>
	<svg xmlns:xlink="http://www.w3.org/1999/xlink" 
	xmlns="http://www.w3.org/2000/svg" 
	width="360px" height="180px">
	   <style type="text/css">
		  <![CDATA[     
		  .region 
		  { 
			fill:blue; 
			opacity:0.4; 
			stroke:blue;
		  }
		  ]]>
	   </style>

	<circle id="dot" x="-2" y="-2" r="2" style="stroke:none; stroke-width:0; fill:black; opacity:0.7;"/>


	 <image x="0" y="0" width="360" height="180" xlink:href="map.jpg"/>

 
	 <g transform="translate(180,90) scale(1,-1)"><polygon class="region" points="-74.4096,-46.887364407 -74.4381,-46.908564407 -74.6716,-46.884664407 -74.9826,-46.759864407 -74.9744,-46.499564408 -75.5155,-46.655464408 -75.3642,-46.715364407 -75.3679,-46.927864407 -75.5504,-46.939864407 -75.6908,-46.717964407 -75.1958,-46.298164408 -74.7383,-46.184664407 -74.7032,-45.952164408 -75.0254,-46.119864408 -75.0954,-45.891664408 -74.7271,-45.817764408 -74.5123,-45.853364408 -74.4339,-46.045564407 -74.4465,-45.805464407 -74.0889,-45.819964408 -74.0313,-46.172064407 -73.7396,-46.242164407 -73.9625,-46.539764407 -73.8351,-46.594464407 -73.3295,-46.022464407 -73.6819,-46.330964407 -73.534,-45.827764407 -73.1499,-45.674164407 -73.568,-45.786864407 -73.4798,-45.446964408 -73.2074,-45.289964407 -72.9903,-45.447864408 -72.7971,-45.431564407 -72.8089,-45.372764407 -72.9169,-45.420564407 -73.2015,-45.242864407 -73.3372,-45.291364407 -73.4276,-45.274864407 -73.5049,-45.242064407 -73.5158,-45.193464407 -73.314,-45.202064408 -73.3615,-44.958164407 -72.712,-44.746164408 -72.5728,-44.502864407 -73.289,-44.165264408 -73.0921,-44.091364408 -72.9436,-43.758064408 -73.0537,-43.735264407 -72.8811,-43.617664407 -73.0939,-43.445364408 -72.7074,-42.942964407 -72.8213,-42.529964407 -72.5269,-42.562364408 -72.8395,-42.302764407 -72.587,-42.194064408 -72.4459,-42.477864407 -72.3939,-42.491464407 -72.4309,-41.975764407 -72.8792,-41.914064408 -72.3983,-41.704964407 -72.2859,-41.508464408 -72.5717,-41.716764408 -72.9378,-41.478464407 -73.1378,-41.766164408 -73.7593,-41.745164407 -73.6545,-41.612264407 -73.7964,-41.590564407 -73.9327,-41.113164407 -73.7132,-40.006864407 -73.4659,-39.849764408 -73.3731,-39.939064407 -73.4048,-39.693564407 -73.1916,-39.386964407 -73.4891,-38.659364407 -73.4505,-38.119564407 -73.6821,-37.335164407 -73.5852,-37.151264408 -73.4476,-37.256664407 -73.1554,-37.115264407 -73.2166,-36.774464407 -73.1143,-36.612364407 -72.9924,-36.730664407 -72.7879,-35.974064407 -72.5674,-35.788064407 -72.6308,-35.577364407 -72.1929,-35.081464407 -72.0103,-34.125364407 -71.6118,-33.589464407 -71.7575,-33.102164408 -71.5632,-33.006264407 -71.4103,-32.395964407 -71.716,-30.599264408 -71.6488,-30.265564407 -71.3947,-30.184064408 -71.2763,-29.924964407 -71.3085,-29.417464407 -71.5303,-28.983164407 -71.2691,-28.541364408 -70.3013,-29.096964407 -70.5075,-30.458564408 -70.8635,-30.893664408 -70.4284,-33.820264407 -71.2985,-35.837364407 -71.1799,-36.232864407 -71.5358,-37.142464408 -70.8085,-38.006064407 -70.649171005,-39.272853561 -70.154243116,-40.414994844 -69.9579,-41.738864407 -70.763385133,-44.907417223 -71.60106,-45.9825 -72.30594,-47.59023 -72.400454305,-49.285625473 -72.2624,-50.988264407 -72.3882,-51.116364407 -72.2383,-51.232664407 -72.3138,-51.607564408 -71.9252,-51.947464407 -69.039,-52.077564408 -68.7482,-52.306864408 -69.2254,-52.199964407 -69.6683,-52.544164407 -70.8755,-52.736764407 -70.7381,-52.789264407 -70.8984,-52.915964407 -70.792,-52.938764407 -70.9831,-53.382264408 -70.9623,-53.788764408 -71.2893,-53.902864407 -72.095,-53.698864408 -72.473,-53.398764407 -72.131,-53.241664407 -72.108,-53.384464407 -72.2829,-53.424564408 -72.0875,-53.418264407 -71.8689,-53.222564407 -71.7577,-53.436964407 -72.0666,-53.547864408 -71.7756,-53.512364407 -71.7395,-53.447464408 -71.7728,-53.314064407 -71.7303,-53.209564408 -71.1219,-52.895764407 -71.5577,-52.560564408 -72.3354,-52.524064407 -72.4413,-52.669064407 -72.5695,-52.593064408 -72.397,-52.548064407 -72.4079,-52.495064407 -72.8777,-52.524264407 -72.876,-52.584464408 -73.0118,-52.745164408 -72.8294,-52.598264407 -72.6824,-52.668264407 -73.0557,-52.851464407 -72.9546,-53.024764407 -73.1424,-53.106164408 -73.4479,-53.013164408 -73.18,-52.898364407 -73.2929,-52.929264407 -73.5823,-52.807864408 -73.2388,-52.804764408 -73.3175,-52.776964408 -73.3108,-52.713264408 -72.9946,-52.580364408 -73.1418,-52.558064408 -73.1243,-52.516264407 -72.8816,-52.550764407 -72.9151,-52.504464407 -73.224,-52.408764407 -73.2712,-52.687964407 -73.4236,-52.552864407 -73.3749,-52.646064407 -73.742,-52.739964407 -73.4943,-52.492964408 -73.67,-52.447164407 -73.5912,-52.224764408 -73.7594,-52.048264408 -73.3467,-52.253364408 -73.0056,-52.071764407 -73.12,-52.249664407 -72.8862,-52.286964408 -72.7426,-52.085964407 -72.8977,-52.223164408 -72.9601,-52.059564407 -72.7769,-51.962764407 -72.5404,-52.217564408 -72.9777,-52.462064407 -72.5572,-52.475264407 -72.6706,-52.399764408 -72.4761,-52.212764408 -72.6659,-51.976064407 -72.4502,-51.916064408 -72.4636,-51.784964408 -72.6966,-51.578064408 -73.0866,-51.481764408 -73.0209,-51.246264408 -73.0863,-51.240564407 -73.2688,-51.500964408 -72.5354,-51.747764407 -72.7341,-51.854564407 -73.2946,-51.584364408 -72.9971,-51.799564407 -73.2192,-51.904464407 -72.9289,-51.894464407 -73.2425,-52.108264407 -73.2705,-51.894564408 -73.3425,-51.705364408 -73.3997,-51.647264408 -73.2731,-52.179464408 -73.5535,-52.060464407 -73.6331,-51.823164408 -73.5338,-51.963264407 -73.4195,-52.059964407 -73.3884,-52.052364407 -73.6009,-51.758564408 -73.4538,-51.687664407 -73.712,-51.805064407 -73.8131,-51.686264408 -73.7006,-51.631364408 -73.9275,-51.629964407 -73.7913,-51.551264407 -73.966,-51.423964407 -73.592,-51.632964408 -73.7852,-51.219464407 -73.678,-51.289764407 -73.6437,-51.199564407 -73.8159,-51.074664407 -73.7424,-51.177364407 -73.8998,-51.264864407 -73.9995,-51.122264408 -74.129,-51.199164407 -74.0572,-50.958464408 -74.2465,-50.970364408 -73.9134,-50.872264407 -73.803,-51.008764407 -73.7873,-50.693664407 -73.3818,-50.687964408 -73.7401,-50.573864407 -73.5977,-50.484664407 -73.5746,-50.392464407 -74.0326,-50.856564408 -74.2295,-50.615964407 -74.0876,-50.592764407 -74.3018,-50.475264407 -73.867,-50.564564408 -74.1455,-50.445264408 -73.999,-50.379064407 -74.2564,-50.452764407 -74.2083,-50.296764407 -74.4036,-50.384564407 -74.6977,-50.209564407 -74.4387,-50.023164407 -74.1652,-50.292764407 -73.8614,-50.303564408 -74.3554,-49.998964408 -73.8529,-50.075264408 -74.0193,-49.999964407 -73.8121,-49.924264408 -73.8411,-49.835364407 -74.0267,-49.984164407 -74.2751,-49.904464407 -74.3404,-49.788764407 -74.033,-49.763064407 -74.0244,-49.713764407 -74.2822,-49.754964407 -74.3206,-49.635564407 -73.9154,-49.556564408 -73.8795,-49.653964407 -73.7148,-49.735164407 -73.7184,-49.800864408 -73.6611,-49.724964407 -73.887,-49.521964407 -74.0979,-49.500764407 -74.0411,-49.261964407 -73.9644,-49.323564408 -73.831,-49.356764407 -73.8072,-49.396264407 -73.8169,-49.345664407 -74.0121,-49.250964407 -73.9453,-49.168164407 -74.0158,-49.085964407 -74.1903,-49.209564407 -74.1761,-49.532764408 -74.3191,-49.409664407 -74.3553,-49.436064407 -74.4133,-49.395164408 -74.3341,-49.193464407 -74.4641,-49.022964408 -74.3274,-48.948864408 -74.4396,-48.802964407 -74.0565,-48.749364407 -74.4003,-48.608264408 -74.1917,-48.482764408 -73.945,-48.600364408 -74.0278,-48.451664408 -73.8805,-48.427864408 -74.2732,-48.343764407 -74.5126,-48.103564407 -74.4031,-48.013964407 -74.655,-48.019164407 -74.5334,-47.941664408 -74.332,-48.015664408 -74.2607,-48.265864407 -74.1448,-48.228264407 -74.2242,-48.191764407 -74.2651,-48.006964408 -73.7618,-48.039764407 -73.6392,-48.265564408 -73.3524,-48.204264408 -73.275,-48.161264408 -73.2655,-48.105464407 -73.3768,-48.188164407 -73.6394,-48.011964407 -73.5409,-47.884764407 -73.7226,-47.565764407 -73.7485,-47.784164408 -73.9239,-47.841864407 -74.7173,-47.727564407 -74.5353,-47.520864408 -74.4306,-47.675664407 -74.144,-47.602264407 -74.5138,-47.408364407 -74.0303,-47.163864407 -74.2311,-47.095064407 -74.0009,-46.968764408 -74.2668,-46.756364408 -74.6409,-46.804264407 -74.4096,-46.887364407 " /><polygon class="region" points="-71.82460022,-54.524963379 -71.507200241,-54.554864883 -71.853099823,-54.438064575 -71.524900436,-54.509363174 -71.597900391,-54.399564743 -71.352800369,-54.372264862 -70.930999756,-54.515264511 -70.792299271,-54.324363708 -70.572698593,-54.351364136 -70.703599929,-54.434263229 -70.755399704,-54.632263184 -70.557800293,-54.392864227 -70.261499405,-54.566764831 -70.075498581,-54.551864624 -70.916599274,-54.126564026 -70.131399155,-54.43346405 -70.040800095,-54.386863709 -70.195199966,-54.314264297 -70.000999451,-54.267663956 -69.759498596,-54.583564758 -69.848999024,-54.285064697 -69.204799652,-54.445363999 -69.437099456,-54.638864517 -69.358699799,-54.712663651 -69.136598587,-54.452163696 -68.965000153,-54.473463058 -70.046199799,-54.104564667 -70.177999496,-53.842863083 -69.337799073,-53.503564834 -69.378799438,-53.353563309 -70.204099655,-53.481163025 -70.460899353,-53.363363266 -70.427900315,-53.016763687 -70.095699311,-52.930164337 -70.431699753,-52.770563125 -69.901100159,-52.840263367 -69.421998978,-52.456163407 -69.183898926,-52.693464279 -68.783699035,-52.540863037 -68.614151263,-52.657533249 -68.282499313,-53.008264541 -68.547800064,-53.228864669 -68.184299469,-53.309663772 -67.513698578,-53.964063644 -66,-54.61376381 -65.170398712,-54.650463105 -65.372699738,-54.91736412 -66.414899826,-55.038564682 -66.61689949,-54.957763671 -68.26389885,-54.801164627 -69.079198837,-54.959663391 -69.642000198,-54.834663391 -69.705299377,-54.691864014 -69.693300247,-54.818864822 -69.75689888,-54.825563431 -69.729999542,-54.753263474 -69.743299484,-54.729963302 -69.775600434,-54.715364456 -69.911998749,-54.833963394 -69.933898925,-54.679964065 -70.008899689,-54.852464676 -70.300199509,-54.854164124 -70.215900421,-54.683763504 -70.334400177,-54.845464706 -70.739500046,-54.848163605 -70.422300339,-54.632564545 -71.019300461,-54.783464431 -70.905500412,-54.618963242 -71.164699554,-54.704463959 -71.340200424,-54.514364242 -71.472200394,-54.697364807 -71.488100052,-54.585464477 -71.886299133,-54.650663376 -72.023799897,-54.513263702 -71.82460022,-54.524963379 " /><polygon class="region" points="-67.320400238,-54.91626358 -67.241800308,-54.937164306 -67.584798813,-54.925863266 -67.511098862,-54.916763306 -67.320400238,-54.91626358 " /><polygon class="region" points="-67.756299973,-54.917963028 -67.741600036,-54.920763015 -68.07970047,-54.909664154 -67.933099746,-54.8991642 -67.756299973,-54.917963028 " /><polygon class="region" points="-67.54119873,-54.894763946 -67.497598648,-54.884864807 -67.41729927,-54.90316391 -67.503198624,-54.909263611 -67.54119873,-54.894763946 " /><polygon class="region" points="-74.4096,-46.887364407 -74.4053,-46.873964407 -74.3629,-46.874064408 -74.3867,-46.902864408 -74.4096,-46.887364407 " /><polygon class="region" points="-68.135398864,-54.899864197 -68.096698761,-54.909063339 -68.206298829,-54.905464173 -68.145198822,-54.896064758 -68.135398864,-54.899864197 " /><polygon class="region" points="-67.633499145,-54.919263839 -67.626399994,-54.919763565 -67.607398987,-54.918863297 -67.645198822,-54.923864364 -67.633499145,-54.919263839 " /><polygon class="region" points="-68.284399033,-54.870664596 -68.257499695,-54.869464874 -68.254400253,-54.873363495 -68.27299881,-54.87506485 -68.284399033,-54.870664596 " /><polygon class="region" points="-68.495399476,-54.875463486 -68.508798599,-54.874864578 -68.51199913,-54.870664596 -68.49600029,-54.869764328 -68.495399476,-54.875463486 " /><polygon class="region" points="-67.512599945,-54.874763489 -67.499500274,-54.875963211 -67.490499496,-54.880064011 -67.511400223,-54.880264283 -67.512599945,-54.874763489 " /><polygon class="region" points="-68.469699859,-54.878664016 -68.4769001,-54.879463195 -68.483299255,-54.87796402 -68.467199326,-54.873163223 -68.469699859,-54.878664016 " /><polygon class="region" points="-67.477399826,-54.879163742 -67.469499588,-54.878963471 -67.459600449,-54.882863999 -67.463600159,-54.886463165 -67.477399826,-54.879163742 " /><polygon class="region" points="-67.741600036,-54.920763015 -67.732500076,-54.919164658 -67.725799561,-54.921264648 -67.741600036,-54.920763015 " />
		  </g>
		</svg>