<?xml version="1.0" encoding="UTF-8"?>
	<svg xmlns:xlink="http://www.w3.org/1999/xlink" 
	xmlns="http://www.w3.org/2000/svg" 
	width="360px" height="180px">
	   <style type="text/css">
		  <![CDATA[     
		  .region 
		  { 
			fill:blue; 
			opacity:0.4; 
			stroke:blue;
		  }
		  ]]>
	   </style>

	<circle id="dot" x="-2" y="-2" r="2" style="stroke:none; stroke-width:0; fill:black; opacity:0.7;"/>


	 <image x="0" y="0" width="360" height="180" xlink:href="map.jpg"/>

 
	 <g transform="translate(180,90) scale(1,-1)"><polygon class="region" points="-88.9529,15.883535593 -88.6194,15.690435592 -88.492,15.839335592 -88.5923,15.960935592 -88.1478,15.674635592 -87.7259,15.922835592 -86.9215,15.749835593 -85.9337,15.926035592 -86.0347,16.025635593 -85.4547,15.860235593 -85.0381,15.990335592 -84.304,15.815435592 -83.3986,15.254635592 -83.1556,14.996035592 -83.3171,14.774035592 -83.2037,14.326935592 -83.5461,13.553235593 -83.4974,12.383935593 -83.6827,12.219035593 -83.6479,11.602835593 -83.8785,11.287335592 -83.2799,10.184435593 -82.3436,9.428835592 -82.3581,9.2067355930001 -82.1752,9.193935593 -82.2665,9.009035592 -81.7944,8.937635593 -81.8893,9.187235592 -81.5157,8.799535593 -81.1991,8.7835355930001 -79.8053,9.3757355920001 -79.6327,9.617035593 -78.9717,9.5643355930001 -79.063,9.448135592 -78.5617,9.442835593 -77.8601,9.1048355930001 -76.8417,8.1355355920001 -76.8684,7.8988355930001 -76.725,8.060835593 -76.9366,8.552935593 -76.337,8.923635593 -76.0894,9.3338355930001 -75.6232,9.4097355920001 -75.568,9.6193355930001 -75.6994,9.7034355920001 -75.5163,10.239335593 -75.6884,10.131735593 -75.6988,10.146635592 -75.2598,10.805035593 -74.8619,11.111835593 -74.2953,10.992235592 -74.1047,11.350935592 -73.2778,11.288835592 -72.2404,11.901635593 -72.176,12.219435593 -71.9319,12.156235593 -71.6623,12.463335593 -71.2375,12.320535593 -71.1124,12.054335593 -71.3825,11.755435593 -71.9631,11.560135592 -71.5778,10.706735593 -72.1289,9.8139355920001 -71.9984,9.4477355930001 -71.7166,9.391935593 -71.8215,9.2326355930001 -71.7048,9.0521355930001 -71.3569,9.086935592 -71.0612,9.3193355930001 -71.0233,9.715935593 -71.5875,10.801135592 -71.432,10.802635593 -71.4949,10.958235593 -70.0466,11.442935593 -70.1402,11.571435593 -70,11.526035592 -70,11.661335593 -70.2253,11.617135593 -70.2964,11.866035593 -70.0185,12.201135593 -69.6125,11.460535593 -68.8535,11.447235592 -68.4013,11.185535592 -68.1238,10.483935592 -66.2321,10.644835593 -65.8127,10.219935593 -65.0912,10.043335593 -64.181,10.473135593 -63.8182,10.437935593 -63.6418,10.488935593 -64.2289,10.500835593 -64.2627,10.662535593 -61.8582,10.751935592 -62.3394,10.532935593 -62.6659,10.573135593 -62.903,10.520435592 -62.5067,10.197435592 -62.3378,9.809535593 -62.2002,10.020435593 -61.8101,9.7559355920001 -61.5778,9.788835593 -61.6304,9.902335592 -60.8676,9.456435593 -60.7829,9.311535593 -60.9568,9.198035593 -60.8462,8.9731355920001 -61.0128,8.829235592 -60.8222,8.867935593 -60.9164,8.7362355930001 -60.782,8.718435592 -60.9847,8.5711355930001 -60.0457,8.586835593 -58.6721,7.610235593 -58.4681,7.2998355930001 -58.6151,6.4201355930001 -58.4733,6.8111355930001 -58.2925,6.8895355920001 -57.2363,6.1846355930001 -57.1397,5.8166355930001 -56.9569,5.999035593 -55.9141,5.7815355920001 -55.8272,5.9538355930001 -55.1051,5.877135593 -55.0373,6.0045355930001 -54.0242,5.8238355930001 -54.0217,5.6157355930001 -53.8256,5.768735592 -52.932,5.458035593 -51.945,4.5093355920001 -51.9079,4.6601355930001 -51.7994,4.608635593 -51.6625,4.205035593 -51.5293,4.171135593 -51.5446,4.396635593 -51.2324,4.1244355920001 -50.8599,2.4774355930001 -50.477,1.8247355930001 -49.9663,1.6869355920001 -49.8803,1.419035593 -50.0726,1.205035593 -49.9182,1.231635593 -49.939,1.1026355930001 -50.4554,0.73183559300003 -50.7849,0.18343559200002 -51.2026,-0.055364407999946 -51.4094,-0.43996440699993 -51.1884,-0.14026440799995 -51.154,-0.28386440699995 -51.396,-0.49276440799997 -50.7134,-0.000164406999943 -50.6133,-0.087964407999948 -50.7506,-0.42856440699995 -50.9885,-0.58326440699994 -51.0509,-0.68196440699995 -50.6843,-0.60406440799994 -50.6515,-0.27466440699993 -50.4089,-0.094364407999933 -48.3634,-0.30316440699994 -48.8373,-1.452064407 -49.8029,-1.8217644069999 -50.2485,-1.774464408 -50.4012,-1.9344644069999 -49.7638,-1.8977644079999 -49.2763,-1.7064644069999 -49.3826,-2.158864407 -48.6011,-1.3058644079999 -48.4959,-1.552564408 -48.3187,-1.478164407 -48.5054,-1.470664407 -48.4786,-1.149064408 -48.2783,-1.111064407 -48.0547,-0.66806440699997 -47.7024,-0.53986440799997 -47.4063,-0.76386440699997 -47.4657,-0.59476440699996 -47.2976,-0.58886440699996 -47.1605,-0.81456440699998 -47.0771,-0.66326440699993 -47.0552,-0.86796440699993 -46.9617,-0.69136440699998 -46.7339,-0.94356440699994 -46.6214,-0.81776440699997 -46.6093,-1.029864408 -46.3478,-1.078664407 -46.1789,-0.91386440699995 -46.15,-1.257964408 -45.9823,-1.0705644069999 -46,-1.208764408 -45.9017,-1.1344644069999 -45.8907,-1.2932644069999 -45.8065,-1.1758644069999 -45.8428,-1.3006644069999 -45.8249,-1.3248644079999 -45.8094,-1.327464407 -45.7264,-1.134764408 -45.7426,-1.2497644069999 -45.6903,-1.451864407 -45.6177,-1.278564407 -45.5471,-1.4320644069999 -45.4173,-1.289764407 -45.554,-1.502964407 -45.4768,-1.541464407 -45.3235,-1.319164407 -45.3482,-1.7501644069999 -45.1603,-1.475164408 -44.9794,-1.6070644069999 -44.8624,-1.4258644079999 -44.9683,-1.661564407 -44.8216,-1.5907644069999 -44.8327,-1.770264407 -44.7112,-1.7284644069999 -44.8196,-1.8194644069999 -44.6038,-1.749164407 -44.6674,-1.849164408 -44.4848,-2.0008644069999 -44.6129,-2.036764407 -44.4682,-2.016964408 -44.7642,-2.264564407 -44.6486,-2.3731644069999 -44.4786,-2.137264408 -44.3578,-2.3345644079999 -44.6653,-2.608264407 -44.5483,-2.5416644069999 -44.6084,-3.040664407 -44.798,-3.2055644079999 -44.779,-3.312364407 -44.4321,-2.946364407 -44.3055,-2.4872644079999 -44.0196,-2.4025644069999 -44.3451,-2.7913644069999 -44.2076,-2.8561644069999 -43.7274,-2.481664408 -43.6081,-2.5927644069999 -43.5185,-2.444764407 -43.4584,-2.5955644069999 -43.4328,-2.3350644069999 -42.2549,-2.812364407 -42.1431,-2.8081644069999 -42.256,-2.735264408 -42.236,-2.6743644069999 -42.2077,-2.711864407 -42.0976,-2.768164407 -42.0908,-2.8104644069999 -42.0972,-2.7458644069999 -42.2159,-2.687064407 -41.8182,-2.7229644069999 -41.4373,-2.938764407 -40.0128,-2.838164407 -38.4727,-3.699764407 -37.1498,-4.9430644079999 -36.6716,-5.1066644069999 -35.4815,-5.161564407 -35.2549,-5.482664407 -34.7901,-7.159064407 -34.9333,-8.3577644069999 -35.333,-9.237364407 -36.4031,-10.506864408 -36.9344,-10.825664407 -37.9962,-12.578264408 -38.4772,-13.022364408 -38.4993,-12.721964407 -38.7176,-12.627264407 -38.7693,-12.995064407 -38.6858,-12.878164408 -38.5896,-12.972064408 -38.9441,-13.243364408 -38.8862,-13.659164407 -39.0752,-13.886564407 -38.9219,-13.919864407 -39.0615,-14.715564407 -38.8571,-15.860064407 -39.2121,-17.154564407 -39.1353,-17.691164408 -39.5629,-18.090864407 -39.7215,-18.492764407 -39.8052,-19.650264407 -40.1513,-19.956064408 -40.4019,-20.605664407 -40.7562,-20.866064408 -41.0655,-21.495464408 -40.9901,-22.013864407 -41.9618,-22.538264408 -41.8644,-22.757364407 -42.0191,-22.997564407 -43.0499,-22.981964407 -43.0837,-22.679764407 -43.2872,-22.806364408 -43.1554,-22.785264407 -43.1882,-22.995564407 -43.5494,-23.080764408 -44.0013,-23.100064408 -43.5555,-23.054864407 -43.8397,-22.906264407 -44.2336,-23.060464407 -44.407,-22.945064407 -44.7121,-23.188864407 -44.4978,-23.302364407 -45.0504,-23.417864407 -45.4097,-23.631864407 -45.4119,-23.824664408 -45.9343,-23.771064407 -46.9366,-24.281064407 -47.8595,-24.996464408 -48.2127,-25.470064407 -48.1198,-25.267464407 -48.3169,-25.363364407 -48.4334,-25.236664408 -48.4762,-25.485064407 -48.7389,-25.373964407 -48.35,-25.580564407 -48.5857,-26.171964407 -48.7137,-26.242864407 -48.7945,-26.072664407 -48.8373,-26.156564407 -48.7231,-26.361564408 -48.4933,-26.224064408 -48.6954,-26.657764407 -48.5841,-27.908364407 -48.8619,-28.540564408 -49.7309,-29.235764408 -50.1034,-29.955064408 -51.3994,-29.722464407 -53.5546,-28.957764407 -55.5012,-28.644864408 -56.2311,-29.061964407 -57.7292,-30.629764407 -57.9907,-30.532364407 -58.3515,-30.070064407 -58.7339,-27.880164408 -61.5148,-27.949664407 -63.0442,-28.227764408 -65.043,-27.854064408 -65.408,-27.497764407 -65.547,-26.802564407 -66.573,-26.175664407 -66.2384,-25.249064407 -64.7823,-23.465564407 -64.0523,-21.936064408 -63.3223,-19.294264408 -63.3571,-18.842364408 -66.418,-17.191864407 -67.5631,-16.061464407 -68.015,-15.852964407 -68.9487,-14.535564407 -73.3251,-12.776864407 -75.0091,-11.626564407 -77.769,-8.658364407 -78.6534,-7.9043644069999 -79.1049,-7.667364407 -79.4139,-7.760964407 -79.9834,-6.742764407 -81.1446,-5.9806644069999 -81.0686,-5.7875644069999 -80.8412,-5.8414644069999 -80.8482,-5.533964408 -81.1914,-5.2155644069999 -81.0619,-5.0318644069999 -81.3258,-4.679564408 -81.2496,-4.2701644069999 -80.5011,-3.504764408 -80.0613,-3.413064408 -79.7101,-2.4863644079999 -79.8443,-2.307164407 -79.8883,-2.562764408 -79.9276,-2.5907644069999 -79.9273,-2.407664408 -80.0358,-2.499864408 -79.9092,-2.301264407 -79.9629,-2.3130644079999 -80.2801,-2.598164407 -80.2528,-2.7399644069999 -80.8932,-2.3368644079999 -81.007,-2.189364407 -80.7729,-2.137964408 -80.7236,-1.933264407 -80.8496,-1.6024644079999 -80.737,-1.3554644069999 -80.9081,-1.054864407 -80.5659,-0.90866440699995 -80.4273,-0.59826440699993 -80.3828,-0.66016440699997 -80.3013,-0.65256440699994 -80.488,-0.37976440799997 -80.0427,0.10853559200007 -80.0597,0.80583559300004 -79.0063,1.1692355930001 -78.7758,1.4078355930001 -79.0343,1.5908355930001 -78.975,1.720935593 -78.5458,1.804735592 -78.6805,2.165935592 -78.5582,2.4404355930001 -78.3033,2.6572355930001 -77.7977,2.646935593 -77.5921,2.8336355930001 -77.698,2.8924355930001 -77.6716,3.0535355920001 -77.0026,3.9104355920001 -77.2748,3.839335593 -77.1722,4.054235593 -77.2535,4.1248355930001 -77.359,3.9339355930001 -77.5285,4.2160355930001 -77.3016,4.6443355930001 -77.3785,5.448135592 -77.547,5.4884355930001 -77.233,5.795735592 -77.4778,6.1898355930001 -77.3301,6.5580355920001 -77.7013,6.846435593 -77.6875,7.0514355930001 -78.1824,7.5134355920001 -78.4458,8.062435593 -78.2821,8.081035593 -78.15,8.415535592 -78.0185,8.2296355930001 -77.7784,8.0995355920001 -77.7552,8.1080355930001 -77.7486,8.143935593 -78.0206,8.2615355930001 -78.088,8.4706355930001 -78.2515,8.3805355920001 -78.2102,8.428635593 -78.2161,8.533235592 -78.2318,8.5460355920001 -78.338,8.4124355930001 -78.414,8.5605355930001 -78.4198,8.348435593 -78.621,8.770135592 -79.036,8.999235592 -79.4837,9.0048355920001 -79.7194,8.906835593 -79.7536,8.593235593 -80.4837,8.205035593 -80.001,7.462835593 -80.8871,7.203135592 -81.0523,7.9230355920001 -81.2363,7.8902355930001 -81.2211,7.6072355920001 -81.5139,7.7031355930001 -81.7518,8.1986355930001 -82.1638,8.163235592 -82.2097,8.381535593 -82.8341,8.2939355930001 -82.8952,8.030935593 -83.1778,8.6366355920001 -83.4878,8.706535592 -83.2955,8.3714355930001 -83.7287,8.5770355920001 -83.4879,8.8558355930001 -83.9049,9.2837355930001 -84.6166,9.576935592 -84.7449,9.9627355920001 -84.849,9.964235592 -85.0788,10.163135592 -85.2112,10.174835593 -85.2368,10.237435593 -85.3089,10.316535593 -85.3167,10.323535593 -85.3692,10.322835593 -84.8697,9.8178355920001 -85.1105,9.552435593 -85.3021,9.801335592 -85.6728,9.9004355930001 -85.8745,10.351535593 -85.6591,10.761035593 -85.9506,10.888735592 -85.673,11.060035593 -87.687,12.903635593 -87.5771,13.083035593 -87.4692,12.931035593 -87.2586,12.963835593 -87.5167,13.255735593 -87.3748,13.393935592 -87.619,13.301435592 -87.5979,13.454535593 -87.734,13.347835593 -87.8128,13.455035592 -87.8996,13.149635592 -88.4662,13.151735593 -89.8093,13.519735593 -90.4745,13.884935593 -91.3878,13.980235592 -92.2362,14.534035593 -93.9346,15.984135592 -93.8942,16.087735593 -94.3681,16.294435592 -94.4161,16.200535592 -94.222,16.162235592 -93.9625,15.996435593 -94.7242,16.195835593 -94.5781,16.318335593 -94.7929,16.266735593 -94.8553,16.431735593 -95.0628,16.269935593 -94.8143,16.267635593 -95.1014,16.237335593 -94.8773,16.233535593 -94.7591,16.204135593 -95.1561,16.194535593 -96.2311,15.671335592 -97.3638,15.917435593 -97.3652,17.381535593 -98.1495,18.938635592 -99.1079,21.406335592 -99.64,22.298935592 -100.3395,23.059835593 -100.4497,23.555635593 -99.8702,23.885935592 -99.0318,24.078435592 -97.7847,24.077535593 -97.7627,22.097035593 -97.3316,21.575935593 -97.4195,21.216335593 -97.169,20.672435593 -96.4457,19.863835592 -96.306,19.337635593 -95.9362,18.881835593 -94.809,18.536335593 -94.523,18.154835593 -93.3347,18.434635593 -91.9504,17.364535593 -88.9529,15.883535593 " /><polygon class="region" points="-44.5127,-2.2684644079999 -44.5024,-2.2578644069999 -44.5101,-2.263164407 -44.5127,-2.2684644079999 " /><polygon class="region" points="-83.6015,8.8985355930001 -83.5966,8.8931355930001 -83.6101,8.8950355920001 -83.6151,8.904635592 -83.6015,8.8985355930001 " />
		  </g>
		</svg>