<?xml version="1.0" encoding="UTF-8"?>
	<svg xmlns:xlink="http://www.w3.org/1999/xlink" 
	xmlns="http://www.w3.org/2000/svg" 
	width="360px" height="180px">
	   <style type="text/css">
		  <![CDATA[     
		  .region 
		  { 
			fill:blue; 
			opacity:0.4; 
			stroke:blue;
		  }
		  ]]>
	   </style>

	<circle id="dot" x="-2" y="-2" r="2" style="stroke:none; stroke-width:0; fill:black; opacity:0.7;"/>


	 <image x="0" y="0" width="360" height="180" xlink:href="map.jpg"/>

 
	 <g transform="translate(180,90) scale(1,-1)">   <use xlink:href="#dot" transform="translate(-70.934601,-33.226511)" />   <use xlink:href="#dot" transform="translate(-70.837598,-43.469237)" />   <use xlink:href="#dot" transform="translate(-70.838001,-43.469213)" />   <use xlink:href="#dot" transform="translate(-70.837598,-43.469237)" />   <use xlink:href="#dot" transform="translate(-70.21741,-41.04368)" />   <use xlink:href="#dot" transform="translate(-70.87014,-40.90474)" />   <use xlink:href="#dot" transform="translate(-73.2166,-38.0166)" />   <use xlink:href="#dot" transform="translate(-73.216667,-38.016667)" />   <use xlink:href="#dot" transform="translate(-73.2166,-38.0166)" />   <use xlink:href="#dot" transform="translate(-73.216667,-38.016667)" />   <use xlink:href="#dot" transform="translate(-73.216667,-38.016667)" />   <use xlink:href="#dot" transform="translate(-73.2166,-38.0166)" />   <use xlink:href="#dot" transform="translate(-73.216667,-38.016667)" />   <use xlink:href="#dot" transform="translate(-73.216667,-38.016667)" />   <use xlink:href="#dot" transform="translate(-73.216667,-38.016667)" />   <use xlink:href="#dot" transform="translate(-73.2166,-38.0166)" />   <use xlink:href="#dot" transform="translate(-71.01383,-40.64719)" />   <use xlink:href="#dot" transform="translate(-70.68,-39.95)" />   <use xlink:href="#dot" transform="translate(-71.01383,-40.64719)" />   <use xlink:href="#dot" transform="translate(-70.68,-39.95)" />   <use xlink:href="#dot" transform="translate(-70.68,-39.95)" />   <use xlink:href="#dot" transform="translate(-71.01383,-40.64719)" />   <use xlink:href="#dot" transform="translate(-71.01383,-40.64719)" />   <use xlink:href="#dot" transform="translate(-70.68,-39.95)" />   <use xlink:href="#dot" transform="translate(-71.01383,-40.64719)" />   <use xlink:href="#dot" transform="translate(-70.68,-39.95)" />   <use xlink:href="#dot" transform="translate(-71.669090861626,-39.370386204798)" />   <use xlink:href="#dot" transform="translate(-71.61667,-30.66667)" />   <use xlink:href="#dot" transform="translate(-71.61667,-30.66667)" />   <use xlink:href="#dot" transform="translate(-71.61667,-30.66667)" />   <use xlink:href="#dot" transform="translate(-71.53373,-41.94029)" />   <use xlink:href="#dot" transform="translate(-71.51,-41.89)" />   <use xlink:href="#dot" transform="translate(-71.66667,-30.66667)" />   <use xlink:href="#dot" transform="translate(-71.66667,-30.66667)" />   <use xlink:href="#dot" transform="translate(-71.66667,-30.66667)" />   <use xlink:href="#dot" transform="translate(-71.66667,-30.66667)" />   <use xlink:href="#dot" transform="translate(-71.53373,-41.94029)" />   <use xlink:href="#dot" transform="translate(-71.51,-41.89)" />   <use xlink:href="#dot" transform="translate(-71.51,-41.89)" />   <use xlink:href="#dot" transform="translate(-71.53373,-41.94029)" />   <use xlink:href="#dot" transform="translate(-71.53373,-41.94029)" />   <use xlink:href="#dot" transform="translate(-71.51,-41.89)" />   <use xlink:href="#dot" transform="translate(-71.51,-41.89)" />   <use xlink:href="#dot" transform="translate(-71.53373,-41.94029)" />   <use xlink:href="#dot" transform="translate(-71.53373,-41.94029)" />   <use xlink:href="#dot" transform="translate(-71.51,-41.89)" />   <use xlink:href="#dot" transform="translate(-71.51,-41.89)" />   <use xlink:href="#dot" transform="translate(-71.51,-41.89)" />   <use xlink:href="#dot" transform="translate(-71.51,-41.89)" />   <use xlink:href="#dot" transform="translate(-71.53373,-41.94029)" />   <use xlink:href="#dot" transform="translate(-71.53373,-41.94029)" />   <use xlink:href="#dot" transform="translate(-71.53373,-41.94029)" />   <use xlink:href="#dot" transform="translate(-71.49,-41.07)" />   <use xlink:href="#dot" transform="translate(-71.5221,-42.06383)" />   <use xlink:href="#dot" transform="translate(-71.50637,-41.07503)" />   <use xlink:href="#dot" transform="translate(-74.385,4.68757)" />   <use xlink:href="#dot" transform="translate(-71.35,-41.13)" />   <use xlink:href="#dot" transform="translate(-71.35418,-41.12644)" />   <use xlink:href="#dot" transform="translate(-71.50637,-41.07503)" />   <use xlink:href="#dot" transform="translate(-71.49,-41.07)" />   <use xlink:href="#dot" transform="translate(-71.35418,-41.12644)" />   <use xlink:href="#dot" transform="translate(-71.35418,-41.12644)" />   <use xlink:href="#dot" transform="translate(-71.35418,-41.12644)" />   <use xlink:href="#dot" transform="translate(-71.35418,-41.12644)" />   <use xlink:href="#dot" transform="translate(-71.35418,-41.12644)" />   <use xlink:href="#dot" transform="translate(-71.49,-41.07)" />   <use xlink:href="#dot" transform="translate(-71.50637,-41.07503)" />   <use xlink:href="#dot" transform="translate(-71.49,-41.07)" />   <use xlink:href="#dot" transform="translate(-71.49,-41.07)" />   <use xlink:href="#dot" transform="translate(-71.49,-41.07)" />   <use xlink:href="#dot" transform="translate(-71.49,-41.07)" />   <use xlink:href="#dot" transform="translate(-71.49,-41.07)" />   <use xlink:href="#dot" transform="translate(-71.50637,-41.07503)" />   <use xlink:href="#dot" transform="translate(-71.35,-41.13)" />   <use xlink:href="#dot" transform="translate(-71.35418,-41.12644)" />   <use xlink:href="#dot" transform="translate(-71.50637,-41.07503)" />   <use xlink:href="#dot" transform="translate(-71.49,-41.07)" />   <use xlink:href="#dot" transform="translate(-71.35418,-41.12644)" />   <use xlink:href="#dot" transform="translate(-71.35418,-41.12644)" />   <use xlink:href="#dot" transform="translate(-71.35418,-41.12644)" />   <use xlink:href="#dot" transform="translate(-71.49,-41.07)" />   <use xlink:href="#dot" transform="translate(-71.49,-41.07)" />   <use xlink:href="#dot" transform="translate(-71.49,-41.07)" />   <use xlink:href="#dot" transform="translate(-71.49,-41.07)" />   <use xlink:href="#dot" transform="translate(-71.49,-41.07)" />   <use xlink:href="#dot" transform="translate(-71.35418,-41.12644)" />   <use xlink:href="#dot" transform="translate(-71.35418,-41.12644)" />   <use xlink:href="#dot" transform="translate(-71.49,-41.07)" />   <use xlink:href="#dot" transform="translate(-71.49,-41.07)" />   <use xlink:href="#dot" transform="translate(-71.35418,-41.12644)" />   <use xlink:href="#dot" transform="translate(-70.68,-39.95)" />   <use xlink:href="#dot" transform="translate(-70.75,-40.61)" />   <use xlink:href="#dot" transform="translate(-70.68,-39.95)" />   <use xlink:href="#dot" transform="translate(-71.50637,-41.07503)" />   <use xlink:href="#dot" transform="translate(-71.01383,-40.64719)" />   <use xlink:href="#dot" transform="translate(-71.01383,-40.64719)" />   <use xlink:href="#dot" transform="translate(-71.50637,-41.07503)" />   <use xlink:href="#dot" transform="translate(-70.59189,-40.41406)" />   <use xlink:href="#dot" transform="translate(-70.59189,-40.41406)" />   <use xlink:href="#dot" transform="translate(-70.59189,-40.41406)" />   <use xlink:href="#dot" transform="translate(-71.51,-42.07)" />   <use xlink:href="#dot" transform="translate(-70.68,-39.95)" />   <use xlink:href="#dot" transform="translate(-71.49,-41.07)" />   <use xlink:href="#dot" transform="translate(-71.50637,-41.07503)" />   <use xlink:href="#dot" transform="translate(-70.59189,-40.41406)" />   <use xlink:href="#dot" transform="translate(-71.5221,-42.06383)" />   <use xlink:href="#dot" transform="translate(-71.5221,-42.06383)" />   <use xlink:href="#dot" transform="translate(-70.68,-39.95)" />   <use xlink:href="#dot" transform="translate(-70.68,-39.95)" />   <use xlink:href="#dot" transform="translate(-71.01383,-40.64719)" />   <use xlink:href="#dot" transform="translate(-71.5221,-42.06383)" />   <use xlink:href="#dot" transform="translate(-71.5221,-42.06383)" />   <use xlink:href="#dot" transform="translate(-70.75,-40.61)" />   <use xlink:href="#dot" transform="translate(-70.68,-39.95)" />   <use xlink:href="#dot" transform="translate(-71.51,-42.07)" />   <use xlink:href="#dot" transform="translate(-71.51,-42.07)" />   <use xlink:href="#dot" transform="translate(-70.68,-39.95)" />   <use xlink:href="#dot" transform="translate(-71.49,-41.07)" />   <use xlink:href="#dot" transform="translate(-70.73,-40.43)" />   <use xlink:href="#dot" transform="translate(-71.49,-41.07)" />   <use xlink:href="#dot" transform="translate(-71.50637,-41.07503)" />   <use xlink:href="#dot" transform="translate(-71.01383,-40.64719)" />   <use xlink:href="#dot" transform="translate(-70.75,-40.61)" />   <use xlink:href="#dot" transform="translate(-71.01383,-40.64719)" />   <use xlink:href="#dot" transform="translate(-70.68,-39.95)" />   <use xlink:href="#dot" transform="translate(-71.01383,-40.64719)" />   <use xlink:href="#dot" transform="translate(-70.6248,-40.57203)" />   <use xlink:href="#dot" transform="translate(-71.01383,-40.64719)" />   <use xlink:href="#dot" transform="translate(-70.73837,-40.42394)" />   <use xlink:href="#dot" transform="translate(-70.68,-39.95)" />   <use xlink:href="#dot" transform="translate(-71.49,-41.07)" />   <use xlink:href="#dot" transform="translate(-71.49,-41.07)" />   <use xlink:href="#dot" transform="translate(-71.51,-42.07)" />   <use xlink:href="#dot" transform="translate(-70.68,-39.95)" />   <use xlink:href="#dot" transform="translate(-71.01383,-40.64719)" />   <use xlink:href="#dot" transform="translate(-71.01383,-40.64719)" />   <use xlink:href="#dot" transform="translate(-70.73,-40.43)" />   <use xlink:href="#dot" transform="translate(-70.68,-39.95)" />   <use xlink:href="#dot" transform="translate(-71.5221,-42.06383)" />   <use xlink:href="#dot" transform="translate(-71.5221,-42.06383)" />   <use xlink:href="#dot" transform="translate(-70.68,-39.95)" />   <use xlink:href="#dot" transform="translate(-70.68,-39.95)" />   <use xlink:href="#dot" transform="translate(-71.51,-42.07)" />   <use xlink:href="#dot" transform="translate(-71.49,-41.07)" />   <use xlink:href="#dot" transform="translate(-71.50637,-41.07503)" />   <use xlink:href="#dot" transform="translate(-71.01383,-40.64719)" />   <use xlink:href="#dot" transform="translate(-71.01383,-40.64719)" />   <use xlink:href="#dot" transform="translate(-71.01383,-40.64719)" />   <use xlink:href="#dot" transform="translate(-71.01383,-40.64719)" />   <use xlink:href="#dot" transform="translate(-71.51,-42.07)" />   <use xlink:href="#dot" transform="translate(-70.75,-40.61)" />   <use xlink:href="#dot" transform="translate(-70.68,-39.95)" />   <use xlink:href="#dot" transform="translate(-70.59189,-40.41406)" />   <use xlink:href="#dot" transform="translate(-70.63,-40.58)" />   <use xlink:href="#dot" transform="translate(-71.01383,-40.64719)" />   <use xlink:href="#dot" transform="translate(-71.5221,-42.06383)" />   <use xlink:href="#dot" transform="translate(-71.51,-42.07)" />   <use xlink:href="#dot" transform="translate(-71.51,-42.07)" />   <use xlink:href="#dot" transform="translate(-71.49,-41.07)" />   <use xlink:href="#dot" transform="translate(-71.01383,-40.64719)" />   <use xlink:href="#dot" transform="translate(-70.73837,-40.42394)" />   <use xlink:href="#dot" transform="translate(-70.73,-40.43)" />   <use xlink:href="#dot" transform="translate(-70.68,-39.95)" />   <use xlink:href="#dot" transform="translate(-70.68,-39.95)" />   <use xlink:href="#dot" transform="translate(-71.50637,-41.07503)" />   <use xlink:href="#dot" transform="translate(-71.5221,-42.06383)" />   <use xlink:href="#dot" transform="translate(-71.51,-42.07)" />   <use xlink:href="#dot" transform="translate(-70.68,-39.95)" />   <use xlink:href="#dot" transform="translate(-71.49,-41.07)" />   <use xlink:href="#dot" transform="translate(-70.68,-39.95)" />   <use xlink:href="#dot" transform="translate(-70.68,-39.95)" />   <use xlink:href="#dot" transform="translate(-71.5221,-42.06383)" />   <use xlink:href="#dot" transform="translate(-70.68,-39.95)" />   <use xlink:href="#dot" transform="translate(-70.63,-40.58)" />   <use xlink:href="#dot" transform="translate(-71.50637,-41.07503)" />   <use xlink:href="#dot" transform="translate(-70.6248,-40.57203)" />   <use xlink:href="#dot" transform="translate(-71.5221,-42.06383)" />   <use xlink:href="#dot" transform="translate(-70.73837,-40.42394)" />   <use xlink:href="#dot" transform="translate(-70.75,-40.61)" />   <use xlink:href="#dot" transform="translate(-71.5221,-42.06383)" />   <use xlink:href="#dot" transform="translate(-70.59189,-40.41406)" />   <use xlink:href="#dot" transform="translate(-71.01383,-40.64719)" />   <use xlink:href="#dot" transform="translate(-70.68,-39.95)" />   <use xlink:href="#dot" transform="translate(-70.75,-40.61)" />   <use xlink:href="#dot" transform="translate(-71.01383,-40.64719)" />   <use xlink:href="#dot" transform="translate(-71.51,-42.07)" />   <use xlink:href="#dot" transform="translate(-71.51,-42.07)" />   <use xlink:href="#dot" transform="translate(-70.68,-39.95)" />   <use xlink:href="#dot" transform="translate(-70.68,-39.95)" />   <use xlink:href="#dot" transform="translate(-70.75,-40.61)" />   <use xlink:href="#dot" transform="translate(-71.01383,-40.64719)" />   <use xlink:href="#dot" transform="translate(-71.01383,-40.64719)" />   <use xlink:href="#dot" transform="translate(-70.73837,-40.42394)" />   <use xlink:href="#dot" transform="translate(-70.73,-40.43)" />   <use xlink:href="#dot" transform="translate(-71.5221,-42.06383)" />   <use xlink:href="#dot" transform="translate(-70.73837,-40.42394)" />   <use xlink:href="#dot" transform="translate(-71.5221,-42.06383)" />   <use xlink:href="#dot" transform="translate(-71.5221,-42.06383)" />   <use xlink:href="#dot" transform="translate(-71.51,-42.07)" />   <use xlink:href="#dot" transform="translate(-71.51,-42.07)" />   <use xlink:href="#dot" transform="translate(-71.49,-41.07)" />   <use xlink:href="#dot" transform="translate(-71.01383,-40.64719)" />   <use xlink:href="#dot" transform="translate(-71.01383,-40.64719)" />   <use xlink:href="#dot" transform="translate(-70.68,-39.95)" />   <use xlink:href="#dot" transform="translate(-71.50637,-41.07503)" />   <use xlink:href="#dot" transform="translate(-71.01383,-40.64719)" />   <use xlink:href="#dot" transform="translate(-71.01383,-40.64719)" />   <use xlink:href="#dot" transform="translate(-71.5221,-42.06383)" />   <use xlink:href="#dot" transform="translate(-71.51,-42.07)" />   <use xlink:href="#dot" transform="translate(-70.73,-40.43)" />   <use xlink:href="#dot" transform="translate(-70.73,-40.43)" />   <use xlink:href="#dot" transform="translate(-71.50637,-41.07503)" />   <use xlink:href="#dot" transform="translate(-71.5221,-42.06383)" />   <use xlink:href="#dot" transform="translate(-71.5221,-42.06383)" />   <use xlink:href="#dot" transform="translate(-71.51,-42.07)" />   <use xlink:href="#dot" transform="translate(-71.51,-42.07)" />   <use xlink:href="#dot" transform="translate(-71.51,-42.07)" />   <use xlink:href="#dot" transform="translate(-71.51,-42.07)" />   <use xlink:href="#dot" transform="translate(-70.68,-39.95)" />   <use xlink:href="#dot" transform="translate(-71.51,-42.07)" />   <use xlink:href="#dot" transform="translate(-70.75,-40.61)" />   <use xlink:href="#dot" transform="translate(-70.59189,-40.41406)" />   <use xlink:href="#dot" transform="translate(-70.59189,-40.41406)" />   <use xlink:href="#dot" transform="translate(-79.465,-5.4)" />   <use xlink:href="#dot" transform="translate(-71.55,-40.93)" />   <use xlink:href="#dot" transform="translate(-59.56,-25.4)" />   <use xlink:href="#dot" transform="translate(-59.56,-25.4)" />   <use xlink:href="#dot" transform="translate(-59.56,-25.4)" />   <use xlink:href="#dot" transform="translate(-59.56,-25.4)" />   <use xlink:href="#dot" transform="translate(-59.56,-25.4)" />   <use xlink:href="#dot" transform="translate(-59.56,-25.4)" />   <use xlink:href="#dot" transform="translate(-70.13333,-19.11667)" />   <use xlink:href="#dot" transform="translate(-59.56,-25.4)" />   <use xlink:href="#dot" transform="translate(-59.56,-25.4)" />   <use xlink:href="#dot" transform="translate(-59.56,-25.4)" />   <use xlink:href="#dot" transform="translate(-59.56,-25.4)" />   <use xlink:href="#dot" transform="translate(-59.56,-25.4)" />   <use xlink:href="#dot" transform="translate(-59.56,-25.4)" />   <use xlink:href="#dot" transform="translate(-64.3262,-31.3325)" />   <use xlink:href="#dot" transform="translate(-83.717,9.567)" />   <use xlink:href="#dot" transform="translate(-83.717,9.567)" />   <use xlink:href="#dot" transform="translate(-71.71667,-37.93333)" />   <use xlink:href="#dot" transform="translate(-71.71667,-37.93333)" />   <use xlink:href="#dot" transform="translate(-83.548,9.45)" />   <use xlink:href="#dot" transform="translate(-83.717,9.567)" />   <use xlink:href="#dot" transform="translate(-76.074,-9.705)" />   <use xlink:href="#dot" transform="translate(-58.51,-33.01)" />   <use xlink:href="#dot" transform="translate(-58.51,-33.01)" />   <use xlink:href="#dot" transform="translate(-58.81,-33.65)" />   <use xlink:href="#dot" transform="translate(-58.81,-33.65)" />   <use xlink:href="#dot" transform="translate(-58.51,-33.01)" />   <use xlink:href="#dot" transform="translate(-58.81,-33.65)" />   <use xlink:href="#dot" transform="translate(-72.91251,-38.01667)" />   <use xlink:href="#dot" transform="translate(-72.91251,-38.01667)" />   <use xlink:href="#dot" transform="translate(-67.66667,-55.08333)" />   <use xlink:href="#dot" transform="translate(-72.83,-43.02)" />   <use xlink:href="#dot" transform="translate(-72.23334,-37.71667)" />   <use xlink:href="#dot" transform="translate(-72.233337,-37.716671)" />   <use xlink:href="#dot" transform="translate(-72.233337,-37.716671)" />   <use xlink:href="#dot" transform="translate(-72.233337,-37.716671)" />   <use xlink:href="#dot" transform="translate(-72.233337,-37.716671)" />   <use xlink:href="#dot" transform="translate(-72.233337,-37.716671)" />   <use xlink:href="#dot" transform="translate(-72.233337,-37.716671)" />   <use xlink:href="#dot" transform="translate(-72.233337,-37.716671)" />   <use xlink:href="#dot" transform="translate(-72.233337,-37.716671)" />   <use xlink:href="#dot" transform="translate(-72.233337,-37.716671)" />   <use xlink:href="#dot" transform="translate(-72.233337,-37.716671)" />   <use xlink:href="#dot" transform="translate(-72.233337,-37.716671)" />   <use xlink:href="#dot" transform="translate(-72.233337,-37.716671)" />   <use xlink:href="#dot" transform="translate(-72.233337,-37.716671)" />   <use xlink:href="#dot" transform="translate(-72.233337,-37.716671)" />   <use xlink:href="#dot" transform="translate(-72.233337,-37.716671)" />   <use xlink:href="#dot" transform="translate(-72.233337,-37.716671)" />   <use xlink:href="#dot" transform="translate(-72.233337,-37.716671)" />   <use xlink:href="#dot" transform="translate(-72.233337,-37.716671)" />   <use xlink:href="#dot" transform="translate(-72.43333,-37.95)" />   <use xlink:href="#dot" transform="translate(-71.26667,-33.016666)" />   <use xlink:href="#dot" transform="translate(-71.26667,-33.016666)" />   <use xlink:href="#dot" transform="translate(-71.26667,-33.016666)" />   <use xlink:href="#dot" transform="translate(-71.26667,-33.016666)" />   <use xlink:href="#dot" transform="translate(-71.26667,-33.016666)" />   <use xlink:href="#dot" transform="translate(-71.26667,-33.016666)" />   <use xlink:href="#dot" transform="translate(-71.26667,-33.016666)" />   <use xlink:href="#dot" transform="translate(-71.26667,-33.016666)" />   <use xlink:href="#dot" transform="translate(-71.26667,-33.016666)" />   <use xlink:href="#dot" transform="translate(-71.26667,-33.016666)" />   <use xlink:href="#dot" transform="translate(-71.26667,-33.016666)" />   <use xlink:href="#dot" transform="translate(-71.26667,-33.016666)" />   <use xlink:href="#dot" transform="translate(-71.26667,-33.016666)" />   <use xlink:href="#dot" transform="translate(-71.26667,-33.016666)" />   <use xlink:href="#dot" transform="translate(-71.26667,-33.016666)" />   <use xlink:href="#dot" transform="translate(-71.26667,-33.016666)" />   <use xlink:href="#dot" transform="translate(-71.26667,-33.016666)" />   <use xlink:href="#dot" transform="translate(-71.26667,-33.016666)" />   <use xlink:href="#dot" transform="translate(-71.26667,-33.016666)" />   <use xlink:href="#dot" transform="translate(-71.26667,-33.016666)" />   <use xlink:href="#dot" transform="translate(-71.26667,-33.016666)" />   <use xlink:href="#dot" transform="translate(-71.26667,-33.016666)" />   <use xlink:href="#dot" transform="translate(-71.26667,-33.016666)" />   <use xlink:href="#dot" transform="translate(-71.26667,-33.016666)" /><polygon class="region" points="-72.83,-43.02 -83.717,9.567 -74.385,4.68757 -59.56,-25.4 -58.51,-33.01 -67.66667,-55.08333 -72.83,-43.02 " />
		  </g>
		</svg>