<?xml version="1.0" encoding="UTF-8"?>
	<svg xmlns:xlink="http://www.w3.org/1999/xlink" 
	xmlns="http://www.w3.org/2000/svg" 
	width="360px" height="180px">
	   <style type="text/css">
		  <![CDATA[     
		  .region 
		  { 
			fill:blue; 
			opacity:0.4; 
			stroke:blue;
		  }
		  ]]>
	   </style>

	<circle id="dot" x="-2" y="-2" r="2" style="stroke:none; stroke-width:0; fill:black; opacity:0.7;"/>


	 <image x="0" y="0" width="360" height="180" xlink:href="map.jpg"/>

 
	 <g transform="translate(180,90) scale(1,-1)">   <use xlink:href="#dot" transform="translate(-75.023383,4.883416)" />   <use xlink:href="#dot" transform="translate(-70.21317,3.8033)" />   <use xlink:href="#dot" transform="translate(-72.629,1.08263)" />   <use xlink:href="#dot" transform="translate(-71.549533,5.997817)" />   <use xlink:href="#dot" transform="translate(-72.491611,5.230139)" />   <use xlink:href="#dot" transform="translate(-71.882172,5.588792)" />   <use xlink:href="#dot" transform="translate(-70.597383,-3.684077)" />   <use xlink:href="#dot" transform="translate(-71.874364,5.578164)" />   <use xlink:href="#dot" transform="translate(-71.882172,5.588792)" />   <use xlink:href="#dot" transform="translate(-71.882173,5.588793)" />   <use xlink:href="#dot" transform="translate(-71.566833,6.222533)" />   <use xlink:href="#dot" transform="translate(-70.211845,6.037564)" />   <use xlink:href="#dot" transform="translate(-74.896944,4.900389)" />   <use xlink:href="#dot" transform="translate(-76.298639,3.833472)" />   <use xlink:href="#dot" transform="translate(-70.70715,5.624589)" />   <use xlink:href="#dot" transform="translate(-70.70715,5.624589)" />   <use xlink:href="#dot" transform="translate(-70.704688,5.612653)" />   <use xlink:href="#dot" transform="translate(-71.878228,5.578042)" />   <use xlink:href="#dot" transform="translate(-71.821944,6.356667)" />   <use xlink:href="#dot" transform="translate(-70.70715,5.624589)" />   <use xlink:href="#dot" transform="translate(-71.878228,5.578042)" />   <use xlink:href="#dot" transform="translate(-70.704688,5.612653)" />   <use xlink:href="#dot" transform="translate(-71.821944,6.35675)" />   <use xlink:href="#dot" transform="translate(-70.70715,5.624589)" />   <use xlink:href="#dot" transform="translate(-70.702096,5.625728)" />   <use xlink:href="#dot" transform="translate(-70.704688,5.612653)" />   <use xlink:href="#dot" transform="translate(-70.704688,5.612653)" />   <use xlink:href="#dot" transform="translate(-71.821944,6.35675)" />   <use xlink:href="#dot" transform="translate(-71.878228,5.578043)" />   <use xlink:href="#dot" transform="translate(-76.605444,3.346214)" />   <use xlink:href="#dot" transform="translate(-70.70715,5.624589)" />   <use xlink:href="#dot" transform="translate(-70.70715,5.624589)" />   <use xlink:href="#dot" transform="translate(-71.878228,5.578042)" />   <use xlink:href="#dot" transform="translate(-74.798944,4.84325)" />   <use xlink:href="#dot" transform="translate(-74.800937,4.847636)" />   <use xlink:href="#dot" transform="translate(-74.798944,4.84325)" />   <use xlink:href="#dot" transform="translate(-74.800937,4.847636)" />   <use xlink:href="#dot" transform="translate(-73.8098,4.18134)" />   <use xlink:href="#dot" transform="translate(-74.798944,4.834819)" />   <use xlink:href="#dot" transform="translate(-76.627778,5.720278)" />   <use xlink:href="#dot" transform="translate(-76.627778,5.720278)" />   <use xlink:href="#dot" transform="translate(-74.816672,4.851611)" />   <use xlink:href="#dot" transform="translate(-74.816672,4.851611)" />   <use xlink:href="#dot" transform="translate(-74.816672,4.851611)" />   <use xlink:href="#dot" transform="translate(-74.816672,4.851611)" />   <use xlink:href="#dot" transform="translate(-76.200167,3.825078)" />   <use xlink:href="#dot" transform="translate(-76.174906,3.385753)" />   <use xlink:href="#dot" transform="translate(-74.816667,4.850556)" />   <use xlink:href="#dot" transform="translate(-76.173442,3.396753)" />   <use xlink:href="#dot" transform="translate(-76.211369,3.820861)" />   <use xlink:href="#dot" transform="translate(-76.214111,3.823642)" />   <use xlink:href="#dot" transform="translate(-74.816667,4.850556)" />   <use xlink:href="#dot" transform="translate(-74.798944,4.84325)" />   <use xlink:href="#dot" transform="translate(-74.798944,4.84325)" />   <use xlink:href="#dot" transform="translate(-74.90859,5.00329)" />   <use xlink:href="#dot" transform="translate(-76.12805,3.869506)" />   <use xlink:href="#dot" transform="translate(-74.808056,4.850556)" />   <use xlink:href="#dot" transform="translate(-76.232467,4.792267)" />   <use xlink:href="#dot" transform="translate(-76.203478,4.808203)" />   <use xlink:href="#dot" transform="translate(-74.808056,4.850556)" />   <use xlink:href="#dot" transform="translate(-76.0652,3.546531)" />   <use xlink:href="#dot" transform="translate(-76.196411,3.904897)" />   <use xlink:href="#dot" transform="translate(-76.043867,3.58455)" />   <use xlink:href="#dot" transform="translate(-84.64159,10.462829)" />   <use xlink:href="#dot" transform="translate(-84.597516,10.463336)" />   <use xlink:href="#dot" transform="translate(-76.223669,3.851847)" />   <use xlink:href="#dot" transform="translate(-76.194136,3.904161)" />   <use xlink:href="#dot" transform="translate(-76.290389,3.836806)" />   <use xlink:href="#dot" transform="translate(-76.290389,3.836806)" />   <use xlink:href="#dot" transform="translate(-74.320111,4.567778)" />   <use xlink:href="#dot" transform="translate(-76.295972,3.830528)" />   <use xlink:href="#dot" transform="translate(-76.295694,3.829083)" />   <use xlink:href="#dot" transform="translate(-84.338565,10.973112)" />   <use xlink:href="#dot" transform="translate(-76.298639,3.835583)" />   <use xlink:href="#dot" transform="translate(-76.290389,3.836806)" />   <use xlink:href="#dot" transform="translate(-74.813806,4.847361)" />   <use xlink:href="#dot" transform="translate(-76.290389,3.836806)" />   <use xlink:href="#dot" transform="translate(-73.357647,7.084206)" />   <use xlink:href="#dot" transform="translate(-73.391194,7.084722)" />   <use xlink:href="#dot" transform="translate(-55.578289,-27.279268)" />   <use xlink:href="#dot" transform="translate(-58.68475,4.67155)" />   <use xlink:href="#dot" transform="translate(-73.204083,6.89325)" />   <use xlink:href="#dot" transform="translate(-73.494184,6.718707)" />   <use xlink:href="#dot" transform="translate(-73.350883,7.042033)" />   <use xlink:href="#dot" transform="translate(-73.326194,7.08975)" />   <use xlink:href="#dot" transform="translate(-76.71475,3.586833)" />   <use xlink:href="#dot" transform="translate(-76.715472,3.586944)" />   <use xlink:href="#dot" transform="translate(-76.57,5.667778)" />   <use xlink:href="#dot" transform="translate(-76.57,5.667778)" />   <use xlink:href="#dot" transform="translate(-73.108972,6.660056)" />   <use xlink:href="#dot" transform="translate(-76.57,5.667778)" />   <use xlink:href="#dot" transform="translate(-76.614503,3.372756)" />   <use xlink:href="#dot" transform="translate(-76.586778,3.566417)" />   <use xlink:href="#dot" transform="translate(-59.8666,2.81245)" />   <use xlink:href="#dot" transform="translate(-76.586778,3.566417)" />   <use xlink:href="#dot" transform="translate(-76.531203,3.373636)" />   <use xlink:href="#dot" transform="translate(-59.33706,2.182021)" />   <use xlink:href="#dot" transform="translate(-74.90859,5.00329)" />   <use xlink:href="#dot" transform="translate(-74.808056,4.850611)" />   <use xlink:href="#dot" transform="translate(-76.609444,3.390556)" />   <use xlink:href="#dot" transform="translate(-76.609444,3.390556)" />   <use xlink:href="#dot" transform="translate(-76.534722,3.374444)" />   <use xlink:href="#dot" transform="translate(-76.631389,3.763611)" />   <use xlink:href="#dot" transform="translate(-47.505278,-22.569167)" />   <use xlink:href="#dot" transform="translate(-75.851889,4.169389)" />   <use xlink:href="#dot" transform="translate(-47.205,-22.671111)" />   <use xlink:href="#dot" transform="translate(-47.205,-22.671111)" />   <use xlink:href="#dot" transform="translate(-47.205,-22.671111)" />   <use xlink:href="#dot" transform="translate(-47.205,-22.671111)" />   <use xlink:href="#dot" transform="translate(-76.474611,2.986361)" />   <use xlink:href="#dot" transform="translate(-76.474722,2.991667)" />   <use xlink:href="#dot" transform="translate(-78.173433,2.966725)" />   <use xlink:href="#dot" transform="translate(-90.78811,15.46208)" />   <use xlink:href="#dot" transform="translate(-78.1715,2.975972)" />   <use xlink:href="#dot" transform="translate(-90.2736,15.6126)" />   <use xlink:href="#dot" transform="translate(-78.199742,2.938964)" />   <use xlink:href="#dot" transform="translate(-78.199742,2.938964)" />   <use xlink:href="#dot" transform="translate(-90.2736,15.6126)" />   <use xlink:href="#dot" transform="translate(-78.173433,2.966725)" />   <use xlink:href="#dot" transform="translate(-78.173433,2.966725)" />   <use xlink:href="#dot" transform="translate(-46.353333,-23.3725)" />   <use xlink:href="#dot" transform="translate(-43.496944,-22.6675)" />   <use xlink:href="#dot" transform="translate(-78.173433,2.966725)" />   <use xlink:href="#dot" transform="translate(-45.8325,-23.127222)" />   <use xlink:href="#dot" transform="translate(-77.356667,3.906667)" />   <use xlink:href="#dot" transform="translate(-46.353333,-23.3725)" />   <use xlink:href="#dot" transform="translate(-76.2303,4.23041)" />   <use xlink:href="#dot" transform="translate(-76.25015,4.18362)" />   <use xlink:href="#dot" transform="translate(-76.20609,4.28844)" />   <use xlink:href="#dot" transform="translate(-41.026167,-20.512944)" />   <use xlink:href="#dot" transform="translate(-76.18322,3.616676)" />   <use xlink:href="#dot" transform="translate(-76.18322,3.616676)" />   <use xlink:href="#dot" transform="translate(-76.18322,3.616676)" />   <use xlink:href="#dot" transform="translate(-76.18322,3.616676)" />   <use xlink:href="#dot" transform="translate(-76.18322,3.616676)" />   <use xlink:href="#dot" transform="translate(-76.18322,3.616676)" />   <use xlink:href="#dot" transform="translate(-76.18322,3.616676)" />   <use xlink:href="#dot" transform="translate(-76.781179,3.85498)" />   <use xlink:href="#dot" transform="translate(-46.814167,-23.342222)" />   <use xlink:href="#dot" transform="translate(-79.17778,-2.204789)" />   <use xlink:href="#dot" transform="translate(-73.115833,6.679984)" />   <use xlink:href="#dot" transform="translate(-78.174667,2.967139)" />   <use xlink:href="#dot" transform="translate(-78.173433,2.966725)" />   <use xlink:href="#dot" transform="translate(-78.173433,2.966725)" />   <use xlink:href="#dot" transform="translate(-78.173433,2.966725)" />   <use xlink:href="#dot" transform="translate(-75.351083,8.545639)" />   <use xlink:href="#dot" transform="translate(-40.617417,-20.101528)" />   <use xlink:href="#dot" transform="translate(-73.107461,7.106897)" />   <use xlink:href="#dot" transform="translate(-83.512633,8.701433)" />   <use xlink:href="#dot" transform="translate(-83.512633,8.701433)" />   <use xlink:href="#dot" transform="translate(-83.512633,8.701433)" />   <use xlink:href="#dot" transform="translate(-39.858972,-19.666417)" />   <use xlink:href="#dot" transform="translate(-72.9843,2.86771)" />   <use xlink:href="#dot" transform="translate(-72.9843,2.86771)" />   <use xlink:href="#dot" transform="translate(-72.9843,2.86771)" />   <use xlink:href="#dot" transform="translate(-72.9843,2.86771)" />   <use xlink:href="#dot" transform="translate(-76.173375,7.47211)" />   <use xlink:href="#dot" transform="translate(-76.173375,7.47211)" />   <use xlink:href="#dot" transform="translate(-72.910883,7.392199)" />   <use xlink:href="#dot" transform="translate(-76.173375,7.47211)" />   <use xlink:href="#dot" transform="translate(-76.173375,7.47211)" />   <use xlink:href="#dot" transform="translate(-73.232804,10.668705)" />   <use xlink:href="#dot" transform="translate(-78.173433,2.966725)" />   <use xlink:href="#dot" transform="translate(-78.173433,2.966725)" />   <use xlink:href="#dot" transform="translate(-74.990361,6.360611)" />   <use xlink:href="#dot" transform="translate(-56.2,4.716667)" />   <use xlink:href="#dot" transform="translate(-75.016806,6.371861)" />   <use xlink:href="#dot" transform="translate(-73.443047,7.141584)" />   <use xlink:href="#dot" transform="translate(-73.468674,3.898386)" />   <use xlink:href="#dot" transform="translate(-73.468674,3.898386)" />   <use xlink:href="#dot" transform="translate(-73.087277,7.066986)" />   <use xlink:href="#dot" transform="translate(-73.107722,7.118944)" />   <use xlink:href="#dot" transform="translate(-39.857361,-19.652528)" />   <use xlink:href="#dot" transform="translate(-39.857361,-19.652528)" />   <use xlink:href="#dot" transform="translate(-76.65,5.5)" />   <use xlink:href="#dot" transform="translate(-76.65,5.5)" />   <use xlink:href="#dot" transform="translate(-73.622194,3.654417)" />   <use xlink:href="#dot" transform="translate(-73.622194,3.654417)" />   <use xlink:href="#dot" transform="translate(-73.622194,3.654417)" />   <use xlink:href="#dot" transform="translate(-73.622194,3.654417)" />   <use xlink:href="#dot" transform="translate(-76.97597,-6.07506)" />   <use xlink:href="#dot" transform="translate(-73.622194,3.654417)" />   <use xlink:href="#dot" transform="translate(-73.622194,3.654417)" />   <use xlink:href="#dot" transform="translate(-73.622194,3.654417)" />   <use xlink:href="#dot" transform="translate(-76.97597,-6.07506)" />   <use xlink:href="#dot" transform="translate(-76.97597,-6.07506)" />   <use xlink:href="#dot" transform="translate(-76.97511,-6.03494)" />   <use xlink:href="#dot" transform="translate(-73.110264,7.118517)" />   <use xlink:href="#dot" transform="translate(-74.895861,5.570611)" />   <use xlink:href="#dot" transform="translate(-40.53575,-19.991583)" />   <use xlink:href="#dot" transform="translate(-74.889556,5.575833)" />   <use xlink:href="#dot" transform="translate(-89.653072,13.834163)" />   <use xlink:href="#dot" transform="translate(-40.76075,-19.800119)" />   <use xlink:href="#dot" transform="translate(-64.519639,-23.743722)" />   <use xlink:href="#dot" transform="translate(-76.627778,5.720278)" />   <use xlink:href="#dot" transform="translate(-76.627778,5.720278)" />   <use xlink:href="#dot" transform="translate(-76.627778,5.720278)" />   <use xlink:href="#dot" transform="translate(-76.627778,5.720278)" />   <use xlink:href="#dot" transform="translate(-76.627778,5.720278)" />   <use xlink:href="#dot" transform="translate(-78.115278,-2.274167)" />   <use xlink:href="#dot" transform="translate(-78.944722,-4.055278)" />   <use xlink:href="#dot" transform="translate(-78.115278,-2.274167)" />   <use xlink:href="#dot" transform="translate(-91.727778,16.133889)" />   <use xlink:href="#dot" transform="translate(-91.727778,16.133889)" />   <use xlink:href="#dot" transform="translate(-91.728,16.134)" />   <use xlink:href="#dot" transform="translate(-91.728,16.134)" />   <use xlink:href="#dot" transform="translate(-75.37,3.06)" />   <use xlink:href="#dot" transform="translate(-75.37,3.06)" />   <use xlink:href="#dot" transform="translate(-75.37,3.06)" />   <use xlink:href="#dot" transform="translate(-75.37,3.06)" />   <use xlink:href="#dot" transform="translate(-73.609219,3.654355)" />   <use xlink:href="#dot" transform="translate(-41.184722,-20.603611)" />   <use xlink:href="#dot" transform="translate(-41.184722,-20.603611)" />   <use xlink:href="#dot" transform="translate(-75.666639,1.504417)" />   <use xlink:href="#dot" transform="translate(-79.627389,-2.454694)" />   <use xlink:href="#dot" transform="translate(-74.786278,5.667972)" />   <use xlink:href="#dot" transform="translate(-75.795556,1.975)" />   <use xlink:href="#dot" transform="translate(-75.672875,1.720786)" />   <use xlink:href="#dot" transform="translate(-75.795556,1.975)" />   <use xlink:href="#dot" transform="translate(-74.632662,4.179335)" />   <use xlink:href="#dot" transform="translate(-74.632662,4.179335)" />   <use xlink:href="#dot" transform="translate(-76.883333,6.083333)" />   <use xlink:href="#dot" transform="translate(-75.594417,4.996889)" />   <use xlink:href="#dot" transform="translate(-91.312556,16.1995)" />   <use xlink:href="#dot" transform="translate(-76.57,5.667778)" />   <use xlink:href="#dot" transform="translate(-76.57,5.667778)" />   <use xlink:href="#dot" transform="translate(-75.666639,1.504417)" />   <use xlink:href="#dot" transform="translate(-74.975556,4.244722)" />   <use xlink:href="#dot" transform="translate(-75.214722,4.289444)" />   <use xlink:href="#dot" transform="translate(-76.383333,5.3)" />   <use xlink:href="#dot" transform="translate(-76.627778,5.720278)" />   <use xlink:href="#dot" transform="translate(-76.55164,5.63943)" />   <use xlink:href="#dot" transform="translate(-76.55164,5.63943)" />   <use xlink:href="#dot" transform="translate(-91.312556,16.1995)" />   <use xlink:href="#dot" transform="translate(-75.65,4.983333)" />   <use xlink:href="#dot" transform="translate(-76.627778,5.720278)" />   <use xlink:href="#dot" transform="translate(-75.1362,6.99779)" />   <use xlink:href="#dot" transform="translate(-73.1181,5.516667)" />   <use xlink:href="#dot" transform="translate(-74.9128,5.1856)" />   <use xlink:href="#dot" transform="translate(-76.57,5.667778)" />   <use xlink:href="#dot" transform="translate(-74.9205,4.86184)" />   <use xlink:href="#dot" transform="translate(-58.779,3.268)" />   <use xlink:href="#dot" transform="translate(-71.385467,-12.771717)" />   <use xlink:href="#dot" transform="translate(-71.385417,-12.77165)" />   <use xlink:href="#dot" transform="translate(-76.57,5.667778)" />   <use xlink:href="#dot" transform="translate(-71.49185,-13.023617)" />   <use xlink:href="#dot" transform="translate(-71.49185,-13.023617)" />   <use xlink:href="#dot" transform="translate(-76.55,5.5)" />   <use xlink:href="#dot" transform="translate(-91.729167,16.113056)" />   <use xlink:href="#dot" transform="translate(-91.733333,16.133333)" />   <use xlink:href="#dot" transform="translate(-76.95,4)" />   <use xlink:href="#dot" transform="translate(-92.741389,15.643611)" />   <use xlink:href="#dot" transform="translate(-66.948611,-15.110556)" />   <use xlink:href="#dot" transform="translate(-83.770550994732,10.442773047247)" />   <use xlink:href="#dot" transform="translate(-66.948611,-15.110556)" />   <use xlink:href="#dot" transform="translate(-66.948611,-15.110556)" />   <use xlink:href="#dot" transform="translate(-66.948611,-15.110556)" />   <use xlink:href="#dot" transform="translate(-66.948611,-15.110556)" />   <use xlink:href="#dot" transform="translate(-66.948611,-15.110556)" />   <use xlink:href="#dot" transform="translate(-88.645,15.6853)" />   <use xlink:href="#dot" transform="translate(-92.752222,15.694167)" />   <use xlink:href="#dot" transform="translate(-77.0925,2.118611)" />   <use xlink:href="#dot" transform="translate(-77.0925,2.118611)" />   <use xlink:href="#dot" transform="translate(-61.0347,-14.7664)" />   <use xlink:href="#dot" transform="translate(-61.0347,-14.7664)" />   <use xlink:href="#dot" transform="translate(-55.804231435727,-26.520394482701)" />   <use xlink:href="#dot" transform="translate(-75.5492,5.4967)" />   <use xlink:href="#dot" transform="translate(-98.620833,20.950556)" />   <use xlink:href="#dot" transform="translate(-98.620833,20.950556)" />   <use xlink:href="#dot" transform="translate(-57.8644,5.67)" />   <use xlink:href="#dot" transform="translate(-77.30495,5.04611)" />   <use xlink:href="#dot" transform="translate(-76.195278,3.838889)" />   <use xlink:href="#dot" transform="translate(-57.8644,5.67)" />   <use xlink:href="#dot" transform="translate(-77.30495,5.04611)" />   <use xlink:href="#dot" transform="translate(-96.961111,19.475278)" />   <use xlink:href="#dot" transform="translate(-96.961111,19.475278)" />   <use xlink:href="#dot" transform="translate(-96.961,19.475)" />   <use xlink:href="#dot" transform="translate(-46.549722,-23.110278)" />   <use xlink:href="#dot" transform="translate(-96.94,19.509)" />   <use xlink:href="#dot" transform="translate(-96.940278,19.509167)" />   <use xlink:href="#dot" transform="translate(-96.940278,19.509167)" />   <use xlink:href="#dot" transform="translate(-95.924167,17.163611)" />   <use xlink:href="#dot" transform="translate(-71.269,-12.66833)" />   <use xlink:href="#dot" transform="translate(-71.269,-12.66833)" />   <use xlink:href="#dot" transform="translate(-71.269,-12.66833)" />   <use xlink:href="#dot" transform="translate(-76.195278,3.838889)" />   <use xlink:href="#dot" transform="translate(-93.456111,16.878889)" />   <use xlink:href="#dot" transform="translate(-91.5514,16.0219)" />   <use xlink:href="#dot" transform="translate(-91.5514,16.0219)" />   <use xlink:href="#dot" transform="translate(-46.549722,-23.110278)" />   <use xlink:href="#dot" transform="translate(-46.549722,-23.110278)" />   <use xlink:href="#dot" transform="translate(-91.5514,16.0219)" />   <use xlink:href="#dot" transform="translate(-96.940278,19.509167)" />   <use xlink:href="#dot" transform="translate(-96.94,19.509)" />   <use xlink:href="#dot" transform="translate(-96.94,19.509)" />   <use xlink:href="#dot" transform="translate(-96.940278,19.509167)" />   <use xlink:href="#dot" transform="translate(-96.940278,19.509167)" />   <use xlink:href="#dot" transform="translate(-96.940278,19.509167)" />   <use xlink:href="#dot" transform="translate(-40.071944,-19.391111)" />   <use xlink:href="#dot" transform="translate(-46.549722,-23.110278)" /><polygon class="region" points="-95.924167,17.163611 -98.620833,20.950556 -57.8644,5.67 -56.2,4.716667 -39.857361,-19.652528 -39.858972,-19.666417 -43.496944,-22.6675 -55.578289,-27.279268 -64.519639,-23.743722 -95.924167,17.163611 " />
		  </g>
		</svg>