<?xml version="1.0" encoding="UTF-8"?>
	<svg xmlns:xlink="http://www.w3.org/1999/xlink" 
	xmlns="http://www.w3.org/2000/svg" 
	width="360px" height="180px">
	   <style type="text/css">
		  <![CDATA[     
		  .region 
		  { 
			fill:blue; 
			opacity:0.4; 
			stroke:blue;
		  }
		  ]]>
	   </style>

	<circle id="dot" x="-2" y="-2" r="2" style="stroke:none; stroke-width:0; fill:black; opacity:0.7;"/>


	 <image x="0" y="0" width="360" height="180" xlink:href="map.jpg"/>

 
	 <g transform="translate(180,90) scale(1,-1)">   <use xlink:href="#dot" transform="translate(-107.740996,33.198887)" />   <use xlink:href="#dot" transform="translate(-107.636737,32.839902)" />   <use xlink:href="#dot" transform="translate(-107.637156,32.841364)" />   <use xlink:href="#dot" transform="translate(-107.542726,32.926543)" />   <use xlink:href="#dot" transform="translate(-107.544724,32.926412)" />   <use xlink:href="#dot" transform="translate(-108.276518,32.857855)" />   <use xlink:href="#dot" transform="translate(-108.49561,33.062799999137)" />   <use xlink:href="#dot" transform="translate(-108.513117,32.653233)" />   <use xlink:href="#dot" transform="translate(-108.30787,32.39194)" />   <use xlink:href="#dot" transform="translate(-107.878249,36.012431)" />   <use xlink:href="#dot" transform="translate(-107.878281,36.012989)" />   <use xlink:href="#dot" transform="translate(-107.878249,36.012431)" />   <use xlink:href="#dot" transform="translate(-107.880428,36.013189)" />   <use xlink:href="#dot" transform="translate(-107.880134,36.013332)" />   <use xlink:href="#dot" transform="translate(-107.868688,36.016121)" />   <use xlink:href="#dot" transform="translate(-108.055111,39.162722)" />   <use xlink:href="#dot" transform="translate(-112.833056,35.052222)" />   <use xlink:href="#dot" transform="translate(-112.833056,35.052222)" />   <use xlink:href="#dot" transform="translate(-112.833056,35.052222)" />   <use xlink:href="#dot" transform="translate(-112.833056,35.052222)" />   <use xlink:href="#dot" transform="translate(-112.833056,35.052222)" />   <use xlink:href="#dot" transform="translate(-112.833056,35.052222)" />   <use xlink:href="#dot" transform="translate(-112.833056,35.052222)" />   <use xlink:href="#dot" transform="translate(-112.833056,35.052222)" />   <use xlink:href="#dot" transform="translate(-112.833056,35.052222)" />   <use xlink:href="#dot" transform="translate(-112.833056,35.052222)" />   <use xlink:href="#dot" transform="translate(-112.833056,35.052222)" />   <use xlink:href="#dot" transform="translate(-112.833056,35.052222)" />   <use xlink:href="#dot" transform="translate(-112.833056,35.052222)" />   <use xlink:href="#dot" transform="translate(-112.833056,35.052222)" />   <use xlink:href="#dot" transform="translate(-112.833056,35.052222)" />   <use xlink:href="#dot" transform="translate(-112.833056,35.052222)" />   <use xlink:href="#dot" transform="translate(-112.833056,35.052222)" />   <use xlink:href="#dot" transform="translate(-112.833056,35.052222)" />   <use xlink:href="#dot" transform="translate(-112.833056,35.052222)" />   <use xlink:href="#dot" transform="translate(-112.833056,35.052222)" />   <use xlink:href="#dot" transform="translate(-112.833056,35.052222)" />   <use xlink:href="#dot" transform="translate(-112.833056,35.052222)" />   <use xlink:href="#dot" transform="translate(-112.833056,35.052222)" />   <use xlink:href="#dot" transform="translate(-112.833056,35.052222)" />   <use xlink:href="#dot" transform="translate(-112.833056,35.052222)" />   <use xlink:href="#dot" transform="translate(-112.833056,35.052222)" />   <use xlink:href="#dot" transform="translate(-112.833056,35.052222)" />   <use xlink:href="#dot" transform="translate(-112.833056,35.052222)" />   <use xlink:href="#dot" transform="translate(-112.833056,35.052222)" />   <use xlink:href="#dot" transform="translate(-112.833056,35.052222)" />   <use xlink:href="#dot" transform="translate(-112.833056,35.052222)" />   <use xlink:href="#dot" transform="translate(-112.833056,35.052222)" />   <use xlink:href="#dot" transform="translate(-112.833056,35.052222)" />   <use xlink:href="#dot" transform="translate(-112.833056,35.052222)" />   <use xlink:href="#dot" transform="translate(-112.833056,35.052222)" />   <use xlink:href="#dot" transform="translate(-112.833056,35.052222)" />   <use xlink:href="#dot" transform="translate(-112.833056,35.052222)" />   <use xlink:href="#dot" transform="translate(-112.833056,35.052222)" />   <use xlink:href="#dot" transform="translate(-112.833056,35.052222)" />   <use xlink:href="#dot" transform="translate(-112.833056,35.052222)" />   <use xlink:href="#dot" transform="translate(-112.833056,35.052222)" />   <use xlink:href="#dot" transform="translate(-112.833056,35.052222)" />   <use xlink:href="#dot" transform="translate(-112.833056,35.052222)" />   <use xlink:href="#dot" transform="translate(-112.833056,35.052222)" />   <use xlink:href="#dot" transform="translate(-112.833056,35.052222)" />   <use xlink:href="#dot" transform="translate(-112.833056,35.052222)" />   <use xlink:href="#dot" transform="translate(-112.833056,35.052222)" />   <use xlink:href="#dot" transform="translate(-112.833056,35.052222)" />   <use xlink:href="#dot" transform="translate(-112.833056,35.052222)" />   <use xlink:href="#dot" transform="translate(-112.833056,35.052222)" />   <use xlink:href="#dot" transform="translate(-112.833056,35.052222)" />   <use xlink:href="#dot" transform="translate(-112.833056,35.052222)" />   <use xlink:href="#dot" transform="translate(-112.833056,35.052222)" />   <use xlink:href="#dot" transform="translate(-112.833056,35.052222)" />   <use xlink:href="#dot" transform="translate(-112.833056,35.052222)" />   <use xlink:href="#dot" transform="translate(-112.833056,35.052222)" />   <use xlink:href="#dot" transform="translate(-112.833056,35.052222)" />   <use xlink:href="#dot" transform="translate(-112.833056,35.052222)" />   <use xlink:href="#dot" transform="translate(-111.39892,35.4735)" />   <use xlink:href="#dot" transform="translate(-111.39892,35.4735)" />   <use xlink:href="#dot" transform="translate(-111.39892,35.4735)" />   <use xlink:href="#dot" transform="translate(-111.39892,35.4735)" />   <use xlink:href="#dot" transform="translate(-111.39892,35.4735)" />   <use xlink:href="#dot" transform="translate(-110.770444,34.561944)" />   <use xlink:href="#dot" transform="translate(-110.770444,34.561944)" />   <use xlink:href="#dot" transform="translate(-110.770444,34.561944)" />   <use xlink:href="#dot" transform="translate(-110.770444,34.561944)" />   <use xlink:href="#dot" transform="translate(-110.770444,34.561944)" />   <use xlink:href="#dot" transform="translate(-110.770444,34.561944)" />   <use xlink:href="#dot" transform="translate(-110.770444,34.561944)" />   <use xlink:href="#dot" transform="translate(-110.770444,34.561944)" />   <use xlink:href="#dot" transform="translate(-110.770444,34.561944)" />   <use xlink:href="#dot" transform="translate(-110.770444,34.561944)" />   <use xlink:href="#dot" transform="translate(-110.770444,34.561944)" />   <use xlink:href="#dot" transform="translate(-110.770444,34.561944)" />   <use xlink:href="#dot" transform="translate(-110.770444,34.561944)" />   <use xlink:href="#dot" transform="translate(-110.077833,43.345778)" />   <use xlink:href="#dot" transform="translate(-110.077833,43.345778)" />   <use xlink:href="#dot" transform="translate(-110.077833,43.345778)" />   <use xlink:href="#dot" transform="translate(-112.845278,35.001667)" />   <use xlink:href="#dot" transform="translate(-112.845278,35.001667)" />   <use xlink:href="#dot" transform="translate(-112.845278,35.001667)" />   <use xlink:href="#dot" transform="translate(-112.845278,35.001667)" />   <use xlink:href="#dot" transform="translate(-112.845278,35.001667)" />   <use xlink:href="#dot" transform="translate(-112.845278,35.001667)" />   <use xlink:href="#dot" transform="translate(-110.077833,43.345778)" />   <use xlink:href="#dot" transform="translate(-112.845278,35.001667)" />   <use xlink:href="#dot" transform="translate(-112.050361,34.391167)" />   <use xlink:href="#dot" transform="translate(-110.043472,34.73793)" />   <use xlink:href="#dot" transform="translate(-110.043472,34.73793)" />   <use xlink:href="#dot" transform="translate(-110.043472,34.73793)" />   <use xlink:href="#dot" transform="translate(-108.872837,33.272287)" />   <use xlink:href="#dot" transform="translate(-111.35329048809,35.558271899641)" />   <use xlink:href="#dot" transform="translate(-112.383228,34.982241)" />   <use xlink:href="#dot" transform="translate(-107.39218580144,33.585410775913)" />   <use xlink:href="#dot" transform="translate(-112.383228,34.982241)" />   <use xlink:href="#dot" transform="translate(-112.383228,34.982241)" />   <use xlink:href="#dot" transform="translate(-112.49301267515,34.928280737459)" />   <use xlink:href="#dot" transform="translate(-108.52039613237,32.570068797052)" />   <use xlink:href="#dot" transform="translate(-112.30139,35.25833)" />   <use xlink:href="#dot" transform="translate(-110.2515,34.3075)" />   <use xlink:href="#dot" transform="translate(-108.75667,35.104999999112)" />   <use xlink:href="#dot" transform="translate(-110.2515,34.3075)" />   <use xlink:href="#dot" transform="translate(-108.75667,35.104999999112)" />   <use xlink:href="#dot" transform="translate(-110.2515,34.3075)" />   <use xlink:href="#dot" transform="translate(-110.2515,34.3075)" />   <use xlink:href="#dot" transform="translate(-110.2515,34.3075)" />   <use xlink:href="#dot" transform="translate(-110.2515,34.3075)" />   <use xlink:href="#dot" transform="translate(-108.75667,35.104999999112)" />   <use xlink:href="#dot" transform="translate(-110.2515,34.3075)" />   <use xlink:href="#dot" transform="translate(-108.75667,35.104999999112)" />   <use xlink:href="#dot" transform="translate(-108.75667,35.104999999112)" />   <use xlink:href="#dot" transform="translate(-108.756,35.104999999112)" />   <use xlink:href="#dot" transform="translate(-108.75667,35.104999999112)" />   <use xlink:href="#dot" transform="translate(-108.75667,35.104999999112)" />   <use xlink:href="#dot" transform="translate(-108.76057202131,35.108798230065)" />   <use xlink:href="#dot" transform="translate(-108.76057202131,35.108798230065)" />   <use xlink:href="#dot" transform="translate(-108.51499751044,32.773022881353)" />   <use xlink:href="#dot" transform="translate(-108.54097749978,35.467767586978)" />   <use xlink:href="#dot" transform="translate(-110.4004738682,36.333259249422)" />   <use xlink:href="#dot" transform="translate(-108.63625645908,35.534156435246)" />   <use xlink:href="#dot" transform="translate(-110.67267696393,35.927767099416)" />   <use xlink:href="#dot" transform="translate(-110.64017568612,35.876368520087)" />   <use xlink:href="#dot" transform="translate(-108.06151872295,35.506937306418)" />   <use xlink:href="#dot" transform="translate(-110.64017568612,35.876368520087)" />   <use xlink:href="#dot" transform="translate(-107.2835,35.618399999106)" />   <use xlink:href="#dot" transform="translate(-110.84769153805,37.016671199422)" />   <use xlink:href="#dot" transform="translate(-112.0822,34.5385)" />   <use xlink:href="#dot" transform="translate(-112.0822,34.5385)" />   <use xlink:href="#dot" transform="translate(-108.50963100453,32.856633481557)" />   <use xlink:href="#dot" transform="translate(-108.50170618555,32.773234946071)" />   <use xlink:href="#dot" transform="translate(-107.90353898289,35.659063508889)" />   <use xlink:href="#dot" transform="translate(-111.907509,34.35033)" />   <use xlink:href="#dot" transform="translate(-107.40639263085,35.935986672644)" />   <use xlink:href="#dot" transform="translate(-107.90353898289,35.659063508889)" />   <use xlink:href="#dot" transform="translate(-107.8497615098,35.645848122681)" />   <use xlink:href="#dot" transform="translate(-106.83463403092,35.564334582689)" />   <use xlink:href="#dot" transform="translate(-106.83463403092,35.564334582689)" />   <use xlink:href="#dot" transform="translate(-113.889,34.9858)" />   <use xlink:href="#dot" transform="translate(-113.889,34.9858)" />   <use xlink:href="#dot" transform="translate(-113.876304,34.971857)" />   <use xlink:href="#dot" transform="translate(-113.964655,35.044386)" />   <use xlink:href="#dot" transform="translate(-109.356004,33.173013)" />   <use xlink:href="#dot" transform="translate(-113.964655,35.044386)" />   <use xlink:href="#dot" transform="translate(-111.54524,35.19807)" />   <use xlink:href="#dot" transform="translate(-113.876304,35.116916)" />   <use xlink:href="#dot" transform="translate(-111.54524,35.19807)" />   <use xlink:href="#dot" transform="translate(-113.876304,35.037134)" />   <use xlink:href="#dot" transform="translate(-113.876304,34.971857)" />   <use xlink:href="#dot" transform="translate(-113.876304,35.044386)" />   <use xlink:href="#dot" transform="translate(-113.876304,34.971857)" />   <use xlink:href="#dot" transform="translate(-113.876304,35.058892)" />   <use xlink:href="#dot" transform="translate(-113.876304,35.029881)" />   <use xlink:href="#dot" transform="translate(-113.876304,34.971857)" />   <use xlink:href="#dot" transform="translate(-113.876304,35.058892)" />   <use xlink:href="#dot" transform="translate(-113.876304,35.044386)" />   <use xlink:href="#dot" transform="translate(-113.876304,35.029881)" />   <use xlink:href="#dot" transform="translate(-109.409106,33.143129)" />   <use xlink:href="#dot" transform="translate(-113.876304,35.058892)" />   <use xlink:href="#dot" transform="translate(-109.409106,33.143129)" />   <use xlink:href="#dot" transform="translate(-113.876304,35.029881)" />   <use xlink:href="#dot" transform="translate(-113.876304,35.029881)" />   <use xlink:href="#dot" transform="translate(-113.876304,35.044386)" />   <use xlink:href="#dot" transform="translate(-113.876304,34.971857)" />   <use xlink:href="#dot" transform="translate(-113.876304,35.037134)" />   <use xlink:href="#dot" transform="translate(-113.876304,35.044386)" />   <use xlink:href="#dot" transform="translate(-110.1951,35.8125)" />   <use xlink:href="#dot" transform="translate(-110.1951,35.8125)" />   <use xlink:href="#dot" transform="translate(-111.355706,34.310663)" />   <use xlink:href="#dot" transform="translate(-110.1951,35.8125)" />   <use xlink:href="#dot" transform="translate(-110.1951,35.8125)" />   <use xlink:href="#dot" transform="translate(-110.1951,35.8125)" />   <use xlink:href="#dot" transform="translate(-110.1951,35.8125)" />   <use xlink:href="#dot" transform="translate(-110.1951,35.8125)" />   <use xlink:href="#dot" transform="translate(-110.1951,35.8125)" />   <use xlink:href="#dot" transform="translate(-110.1951,35.8125)" />   <use xlink:href="#dot" transform="translate(-110.1951,35.8125)" />   <use xlink:href="#dot" transform="translate(-110.1951,35.8125)" />   <use xlink:href="#dot" transform="translate(-111.355706,34.310663)" />   <use xlink:href="#dot" transform="translate(-111.0165,33.3217)" />   <use xlink:href="#dot" transform="translate(-110.1951,35.8125)" />   <use xlink:href="#dot" transform="translate(-112.201316,34.368812)" />   <use xlink:href="#dot" transform="translate(-112.218818,34.383319)" />   <use xlink:href="#dot" transform="translate(-112.201316,34.368812)" />   <use xlink:href="#dot" transform="translate(-110.0434,34.7379)" />   <use xlink:href="#dot" transform="translate(-112.218818,34.383319)" />   <use xlink:href="#dot" transform="translate(-109.449886,35.138696)" />   <use xlink:href="#dot" transform="translate(-110.0434,34.7379)" />   <use xlink:href="#dot" transform="translate(-112.201316,34.368812)" />   <use xlink:href="#dot" transform="translate(-110.0434,34.7379)" />   <use xlink:href="#dot" transform="translate(-110.0434,34.7379)" />   <use xlink:href="#dot" transform="translate(-110.0434,34.7379)" />   <use xlink:href="#dot" transform="translate(-112.201316,34.368812)" />   <use xlink:href="#dot" transform="translate(-112.201316,34.368812)" />   <use xlink:href="#dot" transform="translate(-110.0434,34.7379)" />   <use xlink:href="#dot" transform="translate(-109.449886,35.138696)" />   <use xlink:href="#dot" transform="translate(-112.201316,34.368812)" />   <use xlink:href="#dot" transform="translate(-108.80362689334,35.55998786234)" />   <use xlink:href="#dot" transform="translate(-108.80362689334,35.55998786234)" />   <use xlink:href="#dot" transform="translate(-108.82132733896,35.559988761966)" />   <use xlink:href="#dot" transform="translate(-108.82132733896,35.559988761966)" />   <use xlink:href="#dot" transform="translate(-108.82132733896,35.559988761966)" />   <use xlink:href="#dot" transform="translate(-108.80362689334,35.55998786234)" />   <use xlink:href="#dot" transform="translate(-108.82132733896,35.559988761966)" />   <use xlink:href="#dot" transform="translate(-108.82132733896,35.559988761966)" />   <use xlink:href="#dot" transform="translate(-108.82132733896,35.559988761966)" />   <use xlink:href="#dot" transform="translate(-109.216134,34.133379)" />   <use xlink:href="#dot" transform="translate(-108.12498,35.64552)" />   <use xlink:href="#dot" transform="translate(-109.216134,34.133379)" />   <use xlink:href="#dot" transform="translate(-109.216134,34.133379)" />   <use xlink:href="#dot" transform="translate(-108.12498,35.64552)" />   <use xlink:href="#dot" transform="translate(-109.519493,36.205926)" />   <use xlink:href="#dot" transform="translate(-109.213386,34.108394)" />   <use xlink:href="#dot" transform="translate(-109.216134,34.133379)" />   <use xlink:href="#dot" transform="translate(-109.519493,36.205926)" />   <use xlink:href="#dot" transform="translate(-110.061975,36.573809)" />   <use xlink:href="#dot" transform="translate(-110.89222,36.99583)" />   <use xlink:href="#dot" transform="translate(-110.0434,34.6581)" />   <use xlink:href="#dot" transform="translate(-112.521093,34.540024)" />   <use xlink:href="#dot" transform="translate(-114.073288,35.310696)" />   <use xlink:href="#dot" transform="translate(-113.890629,35.088872)" />   <use xlink:href="#dot" transform="translate(-107.85144,34.92967)" />   <use xlink:href="#dot" transform="translate(-107.44549772873,36.18867959304)" />   <use xlink:href="#dot" transform="translate(-107.44549772873,36.18867959304)" />   <use xlink:href="#dot" transform="translate(-107.44549772873,36.18867959304)" />   <use xlink:href="#dot" transform="translate(-112.363308,34.540024)" />   <use xlink:href="#dot" transform="translate(-113.147462,34.577115)" />   <use xlink:href="#dot" transform="translate(-112.431004,34.601969)" />   <use xlink:href="#dot" transform="translate(-112.431004,34.601969)" />   <use xlink:href="#dot" transform="translate(-112.431004,34.601969)" />   <use xlink:href="#dot" transform="translate(-112.363308,34.540024)" />   <use xlink:href="#dot" transform="translate(-112.431004,34.601969)" />   <use xlink:href="#dot" transform="translate(-113.147462,34.577115)" />   <use xlink:href="#dot" transform="translate(-112.431004,34.601969)" />   <use xlink:href="#dot" transform="translate(-112.431004,34.601969)" />   <use xlink:href="#dot" transform="translate(-112.431004,34.601969)" />   <use xlink:href="#dot" transform="translate(-113.147462,34.577115)" />   <use xlink:href="#dot" transform="translate(-112.363308,34.540024)" />   <use xlink:href="#dot" transform="translate(-111.729819,34.673778)" />   <use xlink:href="#dot" transform="translate(-111.37598,35.47843)" />   <use xlink:href="#dot" transform="translate(-111.37598,35.47843)" />   <use xlink:href="#dot" transform="translate(-111.37598,35.47843)" />   <use xlink:href="#dot" transform="translate(-111.37598,35.47843)" />   <use xlink:href="#dot" transform="translate(-111.37598,35.47843)" />   <use xlink:href="#dot" transform="translate(-111.37598,35.47843)" />   <use xlink:href="#dot" transform="translate(-111.463806,35.351906)" />   <use xlink:href="#dot" transform="translate(-107.840855,32.891966)" />   <use xlink:href="#dot" transform="translate(-107.840855,32.891966)" />   <use xlink:href="#dot" transform="translate(-111.189773,35.179844)" />   <use xlink:href="#dot" transform="translate(-114.037483,35.1586)" />   <use xlink:href="#dot" transform="translate(-111.463806,35.351906)" />   <use xlink:href="#dot" transform="translate(-108.30492,32.84945)" />   <use xlink:href="#dot" transform="translate(-111.41147,35.52195)" />   <use xlink:href="#dot" transform="translate(-111.729819,34.673778)" />   <use xlink:href="#dot" transform="translate(-111.729819,34.673778)" />   <use xlink:href="#dot" transform="translate(-111.33887,35.4545)" />   <use xlink:href="#dot" transform="translate(-111.729819,34.673778)" />   <use xlink:href="#dot" transform="translate(-111.729819,34.673778)" />   <use xlink:href="#dot" transform="translate(-114.002635,35.091598)" />   <use xlink:href="#dot" transform="translate(-114.05222,35.18944)" />   <use xlink:href="#dot" transform="translate(-114.05222,35.26487)" />   <use xlink:href="#dot" transform="translate(-114.05222,35.18944)" />   <use xlink:href="#dot" transform="translate(-114.002635,35.091598)" />   <use xlink:href="#dot" transform="translate(-114.05222,35.26487)" />   <use xlink:href="#dot" transform="translate(-108.65879476559,33.907831162117)" />   <use xlink:href="#dot" transform="translate(-110.942,34.85213)" />   <use xlink:href="#dot" transform="translate(-110.942,34.85213)" />   <use xlink:href="#dot" transform="translate(-110.942,34.85213)" />   <use xlink:href="#dot" transform="translate(-110.942,34.85213)" />   <use xlink:href="#dot" transform="translate(-110.942,34.85213)" />   <use xlink:href="#dot" transform="translate(-112.26176,35.29293)" />   <use xlink:href="#dot" transform="translate(-112.26176,35.29293)" />   <use xlink:href="#dot" transform="translate(-112.26176,35.29293)" />   <use xlink:href="#dot" transform="translate(-112.26176,35.29293)" />   <use xlink:href="#dot" transform="translate(-110.942,34.85213)" />   <use xlink:href="#dot" transform="translate(-112.26176,35.29293)" />   <use xlink:href="#dot" transform="translate(-112.3767,35.30744)" />   <use xlink:href="#dot" transform="translate(-112.35901,35.33645)" />   <use xlink:href="#dot" transform="translate(-112.12029,35.37271)" />   <use xlink:href="#dot" transform="translate(-112.12029,35.37271)" />   <use xlink:href="#dot" transform="translate(-112.877407,35.064457)" />   <use xlink:href="#dot" transform="translate(-112.877441,35.10802)" />   <use xlink:href="#dot" transform="translate(-112.12029,35.37271)" />   <use xlink:href="#dot" transform="translate(-112.274932,34.970526)" /><polygon class="region" points="-114.05222,35.18944 -114.073288,35.310696 -110.077833,43.345778 -108.055111,39.162722 -106.83463403092,35.564334582689 -107.542726,32.926543 -107.636737,32.839902 -108.30787,32.39194 -111.0165,33.3217 -113.876304,34.971857 -113.964655,35.044386 -114.002635,35.091598 -114.037483,35.1586 -114.05222,35.18944 " />
		  </g>
		</svg>