<?xml version="1.0" encoding="UTF-8"?>
	<svg xmlns:xlink="http://www.w3.org/1999/xlink" 
	xmlns="http://www.w3.org/2000/svg" 
	width="360px" height="180px">
	   <style type="text/css">
		  <![CDATA[     
		  .region 
		  { 
			fill:blue; 
			opacity:0.4; 
			stroke:blue;
		  }
		  ]]>
	   </style>

	<circle id="dot" x="-2" y="-2" r="2" style="stroke:none; stroke-width:0; fill:black; opacity:0.7;"/>


	 <image x="0" y="0" width="360" height="180" xlink:href="map.jpg"/>

 
	 <g transform="translate(180,90) scale(1,-1)"><polygon class="region" points="-109.7895,35.927235593 -109.3624,36.021735592 -108.9528,36.684935593 -107.6967,37.028935593 -107.309,36.933535593 -106.4092,35.513635593 -106.5084,35.231835592 -107.2898,35.168835592 -107.4005,33.855135593 -108.4087,32.420035593 -109.3388,33.245335592 -110.8013,33.205635592 -111.1811,33.784435593 -111.5417,34.004635593 -112.3679,34.062735593 -113.2699,33.610235593 -113.5597,33.608035592 -114.4898,34.763035592 -114.0836,35.476735592 -113.3974,36.164335593 -111.6598,36.775735592 -110.8916,37.296635593 -110.5946,37.261135592 -110.2104,36.887135592 -110.2315,36.123935593 -109.7895,35.927235593 " />
		  </g>
		</svg>