<?xml version="1.0" encoding="UTF-8"?>
	<svg xmlns:xlink="http://www.w3.org/1999/xlink" 
	xmlns="http://www.w3.org/2000/svg" 
	width="360px" height="180px">
	   <style type="text/css">
		  <![CDATA[     
		  .region 
		  { 
			fill:blue; 
			opacity:0.4; 
			stroke:blue;
		  }
		  ]]>
	   </style>

	<circle id="dot" x="-2" y="-2" r="2" style="stroke:none; stroke-width:0; fill:black; opacity:0.7;"/>


	 <image x="0" y="0" width="360" height="180" xlink:href="map.jpg"/>

 
	 <g transform="translate(180,90) scale(1,-1)"><polygon class="region" points="103.496009827,19.148511887 103.782066345,19.238119125 103.87512207,19.03994751 104.195883661,18.951260814 104.272996411,18.419733641 103.881149292,18.432506561 103.608879089,19.00289917 103.170318604,19.258798599 103.36504364,19.310495377 103.496009827,19.148511887 " /><polygon class="region" points="102.282073974,18.990406036 102.502067566,18.725595474 102.261703491,18.399675369 102.326889038,18.098199844 102.15171051,18.261159897 101.956153869,18.130792618 102.13948822,18.803001404 101.899116516,18.130792618 101.711715698,18.069681168 101.939857483,18.815223694 102.180221557,19.112625122 102.383926391,19.055589676 102.282073974,18.990406036 " /><polygon class="region" points="103.610198975,20.68926239 103.822044373,20.575191498 103.670379638,20.496263504 103.687606812,20.257419586 103.383132935,20.23664093 103.223831177,19.94801712 103.134559631,20.684076309 103.323509216,20.789726257 103.610198975,20.68926239 " /><polygon class="region" points="103.483596802,19.055215836 103.71560669,18.596733093 103.047462463,18.41774559 103.096923828,18.232154846 102.812446594,18.28739357 102.862159729,18.486253738 103.41872406,18.709299088 103.243537903,18.880407334 103.483596802,19.055215836 " /><polygon class="region" points="102.715515137,21.683704377 102.635131836,21.41699028 102.27708435,22.034450531 102.587638855,21.93945694 102.715515137,21.683704377 " /><polygon class="region" points="105.236503601,19.878822326 105.13054657,19.747293472 104.994603136,19.862516819 104.666542053,19.692489624 104.929347991,19.978344703 105.236503601,19.878822326 " /><polygon class="region" points="101.642456054,17.975980759 101.459129333,17.935239792 101.479499817,18.236715317 101.683197021,18.444490433 101.642456054,17.975980759 " /><polygon class="region" points="101.956153869,18.990406036 101.846160888,18.89670372 101.988746643,19.357065201 102.098747253,19.234846115 101.956153869,18.990406036 " /><polygon class="region" points="102.142608643,22.401611328 102.346504211,22.224437713 102.167472839,22.315776825 102.22227478,22.045410156 102.054214477,22.074640274 102.142608643,22.401611328 " /><polygon class="region" points="104.620491028,20.244926453 104.800445556,20.224903107 104.824874877,20.128925323 104.427833557,20.124694824 104.620491028,20.244926453 " /><polygon class="region" points="101.750961304,22.103868485 101.933639527,22.045410156 101.962875366,21.961378098 101.637702942,22.019836426 101.608474732,22.180593491 101.750961304,22.103868485 " /><polygon class="region" points="102.159858703,20.954072952 101.996894836,20.978515625 101.874671936,21.080366134 101.927635193,21.157772064 102.159858703,20.954072952 " /><polygon class="region" points="104.907463074,19.321714401 104.744567871,19.378797532 104.724433899,19.467359543 104.899108886,19.4108181 104.907463074,19.321714401 " /><polygon class="region" points="103.190483093,21.676397324 103.190483093,21.625246048 103.062606811,21.493717194 103.069915771,21.614286422 103.190483093,21.676397324 " /><polygon class="region" points="104.710380554,20.646080017 104.637313843,20.631465912 104.626350403,20.715497971 104.765190125,20.708190918 104.710380554,20.646080017 " /><polygon class="region" points="101.995758056,21.435258865 101.922683716,21.471794129 101.970176696,21.555828095 101.988449097,21.493717194 101.995758056,21.435258865 " /><polygon class="region" points="103.194137573,21.800619125 103.164909363,21.738508225 103.113754272,21.760429383 103.179519654,21.851770401 103.194137573,21.800619125 " /><polygon class="region" points="101.330443186,20.855016226 101.457044699,20.771998841 101.13535233,20.560304508 101.247425801,20.761621668 100.898752781,20.825960142 101.547588898,21.262598712 101.330443186,20.855016226 " /><polygon class="region" points="105.487661712,19.52428575 105.415266387,19.554913954 105.437544219,19.644017653 105.54614102,19.616172271 105.487661712,19.52428575 " /><polygon class="region" points="105.739584874,20.652243595 105.633376815,20.589768266 105.614634216,20.670986194 105.689604611,20.720966457 105.739584874,20.652243595 " /><polygon class="region" points="103.378890736,22.875883332 103.04111651,22.570796934 102.529007199,22.78871579 102.265169432,22.464467284 101.640167567,22.431075297 101.533406953,22.220211012 101.778375589,21.687668599 101.547588898,21.262598712 101.338391516,21.218803428 101.125864694,21.789441887 100.981783322,21.731809339 100.872823894,21.906144424 101.341349435,22.614380705 102.834093597,23.823830355 102.997532739,23.802038469 103.378890736,22.875883332 " /><polygon class="region" points="105.010804672,20.456181492 104.790493722,20.427445281 104.747389406,20.480128335 104.886281091,20.561547599 105.010804672,20.456181492 " /><polygon class="region" points="105.733337342,20.352362016 105.633376815,20.321124352 105.508426157,20.458570076 105.602139151,20.458570076 105.733337342,20.352362016 " /><polygon class="region" points="105.141068585,20.541130296 105.181260236,20.46440529 105.071648725,20.603241196 105.141068585,20.541130296 " />
		  </g>
		</svg>