<?xml version="1.0" encoding="UTF-8"?>
	<svg xmlns:xlink="http://www.w3.org/1999/xlink" 
	xmlns="http://www.w3.org/2000/svg" 
	width="360px" height="180px">
	   <style type="text/css">
		  <![CDATA[     
		  .region 
		  { 
			fill:blue; 
			opacity:0.4; 
			stroke:blue;
		  }
		  ]]>
	   </style>

	<circle id="dot" x="-2" y="-2" r="2" style="stroke:none; stroke-width:0; fill:black; opacity:0.7;"/>


	 <image x="0" y="0" width="360" height="180" xlink:href="map.jpg"/>

 
	 <g transform="translate(180,90) scale(1,-1)"><polygon class="region" points="146.0932,-17.635664407 146.0168,-18.245564408 146.3341,-18.533464407 146.3328,-18.959664407 146.824,-19.288564408 147.0196,-19.183464407 147.126,-19.445464407 147.4417,-19.419164408 147.3979,-19.299064408 147.6565,-19.823064407 147.8214,-19.709864407 147.8732,-19.887064407 148.2176,-19.960964407 148.338,-20.153664407 148.5568,-20.071664407 148.7623,-20.235764407 148.927,-20.535564407 148.7947,-20.420464407 148.6679,-20.443964407 148.6923,-20.692064407 149.2208,-21.068364407 149.1289,-21.148464408 149.1654,-21.330964407 149.2942,-21.276564408 149.294,-21.538064407 149.4816,-21.535464407 149.4244,-21.848964407 149.6007,-22.276464408 149.5007,-22.340364407 149.7045,-22.385464408 149.7009,-22.457064408 149.6301,-22.538064407 149.6308,-22.589364407 149.8073,-22.385864407 150.018,-22.638664408 150.0401,-22.662064407 150.0585,-22.658064407 149.9103,-22.349964407 150.0378,-22.130864407 150.6281,-22.663164408 150.532,-22.385164407 150.6678,-22.353064408 150.8341,-22.686164408 150.7262,-22.913164407 150.8708,-23.487064407 150.8486,-23.512064408 150.7312,-23.492664407 150.6701,-23.498864407 150.659,-23.514564407 150.6409,-23.519964408 150.6916,-23.460164407 150.633,-23.486264407 150.6246,-23.460764407 150.5513,-23.382164407 150.5138,-23.385864407 150.7029,-23.600464408 150.8579,-23.574464407 150.9296,-23.687064408 151.0178,-23.569864407 151.181,-23.867964407 151.458,-24.096764408 151.7671,-24.017964408 152.164,-24.698664407 152.4708,-24.819764408 152.5719,-25.186564408 152.9069,-25.286464407 152.8776,-25.692264407 153.0239,-25.998464407 153.0525,-25.812864407 153.2,-25.937364407 153.0388,-26.370964407 153.1563,-26.808164407 153.0155,-27.291464408 153.291,-27.513364407 153.6388,-28.641864407 153.3762,-29.402264407 153.2742,-29.365364408 153.3706,-29.483564407 152.9848,-30.680564408 153.0935,-30.926464407 152.9433,-31.481164407 152.5089,-32.179364408 152.3628,-32.192264407 152.4973,-32.349164407 152.5095,-32.185064407 152.5698,-32.223964407 152.5356,-32.453264407 152.1867,-32.699864407 151.9661,-32.547364407 151.9348,-32.745964407 152.0413,-32.740364407 151.9244,-32.788864407 152.1865,-32.720564407 152.1098,-32.799464407 151.7848,-32.923464407 151.8081,-32.835864407 151.6917,-32.795164407 151.7097,-32.873964407 151.7605,-32.927164408 151.7964,-32.929264407 151.5106,-33.087764408 151.6646,-33.094464407 151.414,-33.531264407 150.9838,-33.382664407 150.9478,-33.430164407 150.9388,-33.420064407 150.899,-33.424064407 150.8751,-33.461464407 151.1594,-33.471564407 151.104,-33.532264407 151.118,-33.634764407 151.1732,-33.524964407 151.2466,-33.588164408 151.191,-33.599764407 151.149,-33.660564408 151.1667,-33.687664408 151.3287,-33.588664407 151.3066,-33.816264407 151.2454,-33.859264408 151.143,-33.825164408 151.1747,-33.845564407 151.1361,-33.849364407 151.0895,-33.826364407 151.0599,-33.830064408 151.1512,-33.880764408 151.2655,-33.874564408 151.282,-33.842564408 151.2503,-34.001164407 151.1823,-33.949264408 150.9982,-33.984964408 151.2309,-34.018364408 150.8118,-34.511264407 150.9046,-34.602764407 150.7589,-34.904764408 150.7465,-34.860764407 150.7165,-34.879664407 150.6699,-34.856664407 150.6033,-34.869864407 150.7046,-34.943664408 150.7695,-34.904564407 150.8397,-35.064464407 150.7272,-35.002264407 150.4502,-35.231964407 150.2785,-35.723864407 150.1323,-35.694764408 150.1579,-35.668764407 150.1437,-35.624264407 150.1558,-35.626564407 150.1883,-35.557464407 150.1377,-35.619164408 150.1476,-35.669864407 150.0999,-35.696364408 150.2345,-35.839664407 150.0628,-35.899364407 150.1486,-36.267764407 149.8772,-36.888664408 150.0471,-37.257364407 149.9789,-37.504664407 149.6812,-37.461464408 149.7667,-37.571964408 149.49,-37.773064407 147.651,-37.847164407 147.7266,-37.920064407 147.4542,-38.084664407 147.9398,-37.899364407 146.9299,-38.599064408 146.2136,-38.696164408 146.2977,-38.906764407 146.4786,-38.795564408 146.3758,-39.138964407 146.1645,-38.815764407 145.9241,-38.909964407 145.8229,-38.647164407 145.3764,-38.537964408 145.5487,-38.380764407 145.4896,-38.238164407 145.2558,-38.225564407 145.2326,-38.411064407 144.9294,-38.498164408 144.6536,-38.310464408 144.9295,-38.350264407 145.1175,-38.151964408 144.9319,-37.811964407 144.3627,-38.110564408 144.6839,-38.119964407 144.66,-38.278364407 144.0398,-38.476364407 143.5132,-38.859464407 142.3728,-38.350664407 141.7235,-38.256764407 141.4049,-38.399164407 141.2308,-38.175264407 140.5756,-38.033364408 140.3026,-37.778564407 141.2588,-37.264064407 144.1068,-36.437664408 144.3992,-36.221464407 144.2339,-35.916364407 143.5728,-35.484064407 143.1586,-34.845064408 142.5439,-34.857364407 141.7446,-34.021264407 142.2365,-34.144164408 142.5562,-34.513064407 143.1586,-34.599164408 143.5728,-35.217064407 144.5136,-35.738364408 145.2511,-35.471364407 146.4844,-34.708464407 147.2981,-33.665864407 147.5036,-31.528664407 147.35,-30.484264407 147.135,-30.253964408 146.3517,-30.100364407 146.1213,-29.900664407 146.2595,-29.747064407 146.8722,-29.763164408 147.1338,-29.533964407 147.8274,-29.424464408 148.2837,-29.095864408 148.8761,-29.127564408 149.8598,-27.971764408 150.0319,-26.533164407 149.722,-25.850464407 147.9205,-23.052464407 146.5196,-21.443064407 145.6072,-19.956164408 145.2157,-18.532464407 145.0069,-16.655264407 145.414,-16.466864408 145.7763,-16.992964407 145.9299,-16.866064407 146.0932,-17.635664407 " /><polygon class="region" points="149.257,-21.281964407 149.2579,-21.285164407 149.2602,-21.285564407 149.257,-21.281964407 " /><polygon class="region" points="150.5503,-22.582364407 150.5531,-22.591464407 150.5537,-22.585364408 150.5503,-22.582364407 " /><polygon class="region" points="150.3877,-35.502564407 150.3736,-35.508164407 150.3713,-35.514064408 150.3861,-35.507964407 150.3877,-35.502564407 " /><polygon class="region" points="150.8177,-23.640264407 150.8381,-23.653564408 150.8404,-23.650264407 150.836,-23.641764408 150.8177,-23.640264407 " /><polygon class="region" points="150.4421,-23.337964407 150.4458,-23.347464408 150.4563,-23.347864407 150.4763,-23.324664407 150.4887,-23.363264408 150.5018,-23.371564407 150.4764,-23.320364408 150.4481,-23.344964408 150.4494,-23.316064407 150.4233,-23.257864407 150.4421,-23.337964407 " /><polygon class="region" points="115.7688,-32.163364408 116.1155,-32.259564408 116.6709,-32.888264407 116.9849,-34.216564408 116.92,-35.063664407 116.0013,-34.847064407 115.7109,-34.472564407 115.0253,-34.254264407 115.0063,-33.533564407 115.3656,-33.644264407 115.677,-33.298064407 115.6059,-32.682564407 115.7688,-32.163364408 " /><polygon class="region" points="151.1321,-23.710964408 151.1347,-23.705564407 151.1411,-23.712664407 151.1376,-23.714064408 151.1321,-23.710964408 " /><polygon class="region" points="153.2703,-24.777064407 153.3676,-25.008564407 153.0468,-25.799764407 152.9939,-25.222064407 153.144,-25.109764407 153.2403,-24.972364407 153.1238,-24.816564408 153.2703,-24.777064407 " />
		  </g>
		</svg>