<?xml version="1.0" encoding="UTF-8"?>
	<svg xmlns:xlink="http://www.w3.org/1999/xlink" 
	xmlns="http://www.w3.org/2000/svg" 
	width="360px" height="180px">
	   <style type="text/css">
		  <![CDATA[     
		  .region 
		  { 
			fill:blue; 
			opacity:0.4; 
			stroke:blue;
		  }
		  ]]>
	   </style>

	<circle id="dot" x="-2" y="-2" r="2" style="stroke:none; stroke-width:0; fill:black; opacity:0.7;"/>


	 <image x="0" y="0" width="360" height="180" xlink:href="map.jpg"/>

 
	 <g transform="translate(180,90) scale(1,-1)">   <use xlink:href="#dot" transform="translate(152.637298,-30.484159027105)" />   <use xlink:href="#dot" transform="translate(152.863339,-30.486424027109)" />   <use xlink:href="#dot" transform="translate(152.863339,-30.486424027109)" />   <use xlink:href="#dot" transform="translate(151.405108,-33.155935031236)" />   <use xlink:href="#dot" transform="translate(153.117191,-30.209495026661)" />   <use xlink:href="#dot" transform="translate(152.629963,-30.057551026414)" />   <use xlink:href="#dot" transform="translate(152.748845,-30.203080026651)" />   <use xlink:href="#dot" transform="translate(152.739981,-30.199967026646)" />   <use xlink:href="#dot" transform="translate(152.622001,-30.050670026403)" />   <use xlink:href="#dot" transform="translate(152.691642,-30.049544026401)" />   <use xlink:href="#dot" transform="translate(152.622001,-30.050670026403)" />   <use xlink:href="#dot" transform="translate(152.622001,-30.050670026403)" />   <use xlink:href="#dot" transform="translate(152.637328,-30.038016026382)" />   <use xlink:href="#dot" transform="translate(152.748845,-30.203080026651)" />   <use xlink:href="#dot" transform="translate(152.629963,-30.057551026414)" />   <use xlink:href="#dot" transform="translate(152.620441,-30.062641026423)" />   <use xlink:href="#dot" transform="translate(152.712375,-30.039926026386)" />   <use xlink:href="#dot" transform="translate(152.745179,-30.194698026637)" />   <use xlink:href="#dot" transform="translate(152.426155,-29.179262024975)" />   <use xlink:href="#dot" transform="translate(152.593613,-30.016672026348)" />   <use xlink:href="#dot" transform="translate(152.58341,-30.016576026348)" />   <use xlink:href="#dot" transform="translate(152.415387,-29.18832202499)" />   <use xlink:href="#dot" transform="translate(152.82654,-30.083254026456)" />   <use xlink:href="#dot" transform="translate(152.423102,-29.182760024981)" />   <use xlink:href="#dot" transform="translate(152.426155,-29.179262024975)" />   <use xlink:href="#dot" transform="translate(152.593613,-30.016672026348)" />   <use xlink:href="#dot" transform="translate(152.423102,-29.182760024981)" />   <use xlink:href="#dot" transform="translate(152.415387,-29.18832202499)" />   <use xlink:href="#dot" transform="translate(152.577962,-30.032027026373)" />   <use xlink:href="#dot" transform="translate(152.82654,-30.083254026456)" />   <use xlink:href="#dot" transform="translate(152.577962,-30.032027026373)" />   <use xlink:href="#dot" transform="translate(152.415387,-29.18832202499)" />   <use xlink:href="#dot" transform="translate(152.5,-32.4)" />   <use xlink:href="#dot" transform="translate(151.834496,-32.001181029499)" />   <use xlink:href="#dot" transform="translate(152.838082,-30.49941602713)" />   <use xlink:href="#dot" transform="translate(152.686101,-30.053167026407)" />   <use xlink:href="#dot" transform="translate(150.266764,-30.407702026982)" />   <use xlink:href="#dot" transform="translate(150.273756,-30.417832026998)" />   <use xlink:href="#dot" transform="translate(150.258748,-30.337050026867)" />   <use xlink:href="#dot" transform="translate(152.207466,-31.565876028823)" />   <use xlink:href="#dot" transform="translate(150.010322,-30.631296027342)" />   <use xlink:href="#dot" transform="translate(150.179373,-30.541537027197)" />   <use xlink:href="#dot" transform="translate(150.270992,-30.384377026944)" />   <use xlink:href="#dot" transform="translate(150.072471,-30.601635027294)" />   <use xlink:href="#dot" transform="translate(152.195291,-31.560242028815)" />   <use xlink:href="#dot" transform="translate(152.546182,-30.15968702658)" />   <use xlink:href="#dot" transform="translate(150.295532,-30.354196026895)" />   <use xlink:href="#dot" transform="translate(150.258748,-30.337050026867)" />   <use xlink:href="#dot" transform="translate(150.258748,-30.337050026867)" />   <use xlink:href="#dot" transform="translate(150.11544,-30.534914027187)" />   <use xlink:href="#dot" transform="translate(150.273756,-30.417832026998)" />   <use xlink:href="#dot" transform="translate(152.125022,-30.674518027411)" />   <use xlink:href="#dot" transform="translate(150.345471,-30.723291027489)" />   <use xlink:href="#dot" transform="translate(152.756361,-29.083822024817)" />   <use xlink:href="#dot" transform="translate(152.092255,-29.752368025916)" />   <use xlink:href="#dot" transform="translate(151.401574,-33.329223031489)" />   <use xlink:href="#dot" transform="translate(152.096798,-29.761234025931)" />   <use xlink:href="#dot" transform="translate(152.096798,-29.761234025931)" />   <use xlink:href="#dot" transform="translate(152.090407,-29.760017025929)" />   <use xlink:href="#dot" transform="translate(152.090407,-29.760017025929)" />   <use xlink:href="#dot" transform="translate(152.764362,-29.080894024812)" />   <use xlink:href="#dot" transform="translate(142.6966,-37.300600036573)" />   <use xlink:href="#dot" transform="translate(150.179373,-30.541537027197)" />   <use xlink:href="#dot" transform="translate(150.270992,-30.384377026944)" />   <use xlink:href="#dot" transform="translate(150.336604,-30.707480027464)" />   <use xlink:href="#dot" transform="translate(150.295532,-30.354196026895)" />   <use xlink:href="#dot" transform="translate(150.181032,-30.529587027178)" />   <use xlink:href="#dot" transform="translate(150.199349,-30.558508027225)" />   <use xlink:href="#dot" transform="translate(150.266764,-30.407702026982)" />   <use xlink:href="#dot" transform="translate(150.345471,-30.723291027489)" />   <use xlink:href="#dot" transform="translate(150.090668,-30.588913027274)" />   <use xlink:href="#dot" transform="translate(150.258748,-30.337050026867)" />   <use xlink:href="#dot" transform="translate(150.295532,-30.354196026895)" />   <use xlink:href="#dot" transform="translate(150.259125,-30.377220026932)" />   <use xlink:href="#dot" transform="translate(150.010322,-30.631296027342)" />   <use xlink:href="#dot" transform="translate(150.11544,-30.534914027187)" />   <use xlink:href="#dot" transform="translate(150.259125,-30.377220026932)" />   <use xlink:href="#dot" transform="translate(150.278974,-30.32006602684)" />   <use xlink:href="#dot" transform="translate(150.270665,-30.354625026896)" />   <use xlink:href="#dot" transform="translate(150.072471,-30.601635027294)" />   <use xlink:href="#dot" transform="translate(151.54888,-33.290772031433)" />   <use xlink:href="#dot" transform="translate(150.295532,-30.354196026895)" />   <use xlink:href="#dot" transform="translate(150.11544,-30.534914027187)" />   <use xlink:href="#dot" transform="translate(150.090668,-30.588913027274)" />   <use xlink:href="#dot" transform="translate(150.258748,-30.337050026867)" />   <use xlink:href="#dot" transform="translate(150.110443,-30.563616027233)" />   <use xlink:href="#dot" transform="translate(150.661381,-33.549041)" />   <use xlink:href="#dot" transform="translate(150.179373,-30.541537027197)" />   <use xlink:href="#dot" transform="translate(150.11544,-30.534914027187)" />   <use xlink:href="#dot" transform="translate(143.618,-38.4255)" />   <use xlink:href="#dot" transform="translate(152.635093,-29.965697026265)" />   <use xlink:href="#dot" transform="translate(153.078613,-30.210228026662)" />   <use xlink:href="#dot" transform="translate(152.622853,-29.957441026251)" />   <use xlink:href="#dot" transform="translate(151.926862,-32.280850029927)" />   <use xlink:href="#dot" transform="translate(152.635093,-29.965697026265)" />   <use xlink:href="#dot" transform="translate(152.622205,-29.947855026236)" />   <use xlink:href="#dot" transform="translate(143.618,-38.4255)" />   <use xlink:href="#dot" transform="translate(152.40056,-29.201858025012)" />   <use xlink:href="#dot" transform="translate(152.229593,-32.273309029916)" />   <use xlink:href="#dot" transform="translate(152.83202,-31.262750028347)" />   <use xlink:href="#dot" transform="translate(152.653554,-30.03667002638)" />   <use xlink:href="#dot" transform="translate(152.82909,-31.262920028347)" />   <use xlink:href="#dot" transform="translate(152.665765,-30.119103026514)" />   <use xlink:href="#dot" transform="translate(152.642828,-30.051486026404)" />   <use xlink:href="#dot" transform="translate(152.234219,-32.280031029926)" />   <use xlink:href="#dot" transform="translate(152.642828,-30.051486026404)" />   <use xlink:href="#dot" transform="translate(152.234219,-32.280031029926)" />   <use xlink:href="#dot" transform="translate(152.674571,-30.117853026512)" />   <use xlink:href="#dot" transform="translate(152.83202,-31.262750028347)" />   <use xlink:href="#dot" transform="translate(152.83202,-31.262750028347)" />   <use xlink:href="#dot" transform="translate(152.82909,-31.262920028347)" />   <use xlink:href="#dot" transform="translate(152.83202,-31.262750028347)" />   <use xlink:href="#dot" transform="translate(152.193976,-31.558790028812)" />   <use xlink:href="#dot" transform="translate(150.26398,-30.56828002724)" />   <use xlink:href="#dot" transform="translate(150.32912,-30.629560027339)" />   <use xlink:href="#dot" transform="translate(150.689283,-34.710518033423)" />   <use xlink:href="#dot" transform="translate(150.41643,-30.618560027321)" />   <use xlink:href="#dot" transform="translate(150.07665,-30.648500027369)" />   <use xlink:href="#dot" transform="translate(150.07665,-30.648500027369)" />   <use xlink:href="#dot" transform="translate(150.26398,-30.56828002724)" />   <use xlink:href="#dot" transform="translate(150.07665,-30.648500027369)" />   <use xlink:href="#dot" transform="translate(153.02553,-30.333862026862)" />   <use xlink:href="#dot" transform="translate(153.003475,-30.336761026867)" />   <use xlink:href="#dot" transform="translate(153.096737,-30.084921026459)" />   <use xlink:href="#dot" transform="translate(153.004682,-30.339829026872)" />   <use xlink:href="#dot" transform="translate(152.653965,-28.345235023593)" />   <use xlink:href="#dot" transform="translate(152.658358,-28.337213023579)" />   <use xlink:href="#dot" transform="translate(151.215173,-34.013000032466)" />   <use xlink:href="#dot" transform="translate(153.08335,-30.085147026459)" />   <use xlink:href="#dot" transform="translate(150.083659,-30.492541027118)" />   <use xlink:href="#dot" transform="translate(151.700313,-32.172884029762)" />   <use xlink:href="#dot" transform="translate(151.703784,-32.177204029769)" />   <use xlink:href="#dot" transform="translate(151.887579,-30.024886026361)" />   <use xlink:href="#dot" transform="translate(150.15558,-30.604310027298)" />   <use xlink:href="#dot" transform="translate(152.436567,-31.961953029438)" />   <use xlink:href="#dot" transform="translate(151.711165,-32.17126302976)" />   <use xlink:href="#dot" transform="translate(151.700313,-32.172884029762)" />   <use xlink:href="#dot" transform="translate(151.714809,-32.163236029748)" />   <use xlink:href="#dot" transform="translate(151.703784,-32.177204029769)" />   <use xlink:href="#dot" transform="translate(151.695439,-32.155460029736)" />   <use xlink:href="#dot" transform="translate(150.561417,-34.258678)" />   <use xlink:href="#dot" transform="translate(151.894491,-30.01786002635)" />   <use xlink:href="#dot" transform="translate(151.695439,-32.155460029736)" />   <use xlink:href="#dot" transform="translate(151.714809,-32.163236029748)" />   <use xlink:href="#dot" transform="translate(151.893734,-30.01784502635)" />   <use xlink:href="#dot" transform="translate(150.722211,-34.794358033535)" />   <use xlink:href="#dot" transform="translate(151.699432,-32.150558029728)" />   <use xlink:href="#dot" transform="translate(151.888398,-30.02403502636)" />   <use xlink:href="#dot" transform="translate(150.722211,-34.794358033535)" />   <use xlink:href="#dot" transform="translate(151.70283,-32.156898029738)" />   <use xlink:href="#dot" transform="translate(150.576797,-34.847080033605)" />   <use xlink:href="#dot" transform="translate(152.788298,-30.529954027179)" />   <use xlink:href="#dot" transform="translate(152.665676,-28.446697023761)" />   <use xlink:href="#dot" transform="translate(152.504667,-32.347019030028)" />   <use xlink:href="#dot" transform="translate(149.91353,-35.40057)" />   <use xlink:href="#dot" transform="translate(152.665676,-28.446697023761)" />   <use xlink:href="#dot" transform="translate(152.771685,-30.528599027177)" />   <use xlink:href="#dot" transform="translate(152.660336,-30.88661702775)" />   <use xlink:href="#dot" transform="translate(152.788298,-30.529954027179)" />   <use xlink:href="#dot" transform="translate(151.893734,-30.01784502635)" />   <use xlink:href="#dot" transform="translate(151.894937,-30.043067026391)" />   <use xlink:href="#dot" transform="translate(151.887579,-30.024886026361)" />   <use xlink:href="#dot" transform="translate(151.895499,-30.042025026389)" />   <use xlink:href="#dot" transform="translate(153.211987,-28.612739024037)" />   <use xlink:href="#dot" transform="translate(153.211987,-28.612739024037)" />   <use xlink:href="#dot" transform="translate(153.439399,-28.972415024633)" />   <use xlink:href="#dot" transform="translate(153.439399,-28.972415024633)" />   <use xlink:href="#dot" transform="translate(153.440883,-28.973900024636)" />   <use xlink:href="#dot" transform="translate(150.022813,-32.327973029999)" />   <use xlink:href="#dot" transform="translate(152.82884,-31.262845028347)" />   <use xlink:href="#dot" transform="translate(153.321503,-29.200036025009)" />   <use xlink:href="#dot" transform="translate(150.2153,-30.771790027567)" />   <use xlink:href="#dot" transform="translate(153.322938,-29.201567025012)" />   <use xlink:href="#dot" transform="translate(153.322938,-29.201567025012)" />   <use xlink:href="#dot" transform="translate(153.455582,-28.955167024605)" />   <use xlink:href="#dot" transform="translate(150.2184,-30.771210027566)" />   <use xlink:href="#dot" transform="translate(151.464646,-29.49198302549)" />   <use xlink:href="#dot" transform="translate(151.87172,-31.356755028495)" />   <use xlink:href="#dot" transform="translate(151.87172,-31.356755028495)" />   <use xlink:href="#dot" transform="translate(152.901876,-30.57443202725)" />   <use xlink:href="#dot" transform="translate(153.502509,-28.173308023307)" />   <use xlink:href="#dot" transform="translate(151.888398,-30.02403502636)" />   <use xlink:href="#dot" transform="translate(152.915074,-30.55580702722)" />   <use xlink:href="#dot" transform="translate(151.887579,-30.024886026361)" />   <use xlink:href="#dot" transform="translate(152.912771,-30.554425027218)" />   <use xlink:href="#dot" transform="translate(151.887579,-30.024886026361)" />   <use xlink:href="#dot" transform="translate(149.538366,-33.961157032393)" />   <use xlink:href="#dot" transform="translate(152.901876,-30.57443202725)" />   <use xlink:href="#dot" transform="translate(152.912771,-30.554425027218)" />   <use xlink:href="#dot" transform="translate(150.0069,-33.121355031185)" />   <use xlink:href="#dot" transform="translate(151.888398,-30.02403502636)" />   <use xlink:href="#dot" transform="translate(152.5239,-32.367185030059)" />   <use xlink:href="#dot" transform="translate(152.517538,-32.359354030047)" />   <use xlink:href="#dot" transform="translate(152.517538,-32.359354030047)" />   <use xlink:href="#dot" transform="translate(152.518007,-32.355468030041)" />   <use xlink:href="#dot" transform="translate(152.56699,-31.169273028199)" />   <use xlink:href="#dot" transform="translate(152.514867,-32.349420030032)" />   <use xlink:href="#dot" transform="translate(152.514867,-32.349420030032)" />   <use xlink:href="#dot" transform="translate(152.518007,-32.355468030041)" />   <use xlink:href="#dot" transform="translate(152.514867,-32.349420030032)" />   <use xlink:href="#dot" transform="translate(152.5239,-32.367185030059)" />   <use xlink:href="#dot" transform="translate(152.5239,-32.367185030059)" />   <use xlink:href="#dot" transform="translate(152.514867,-32.349420030032)" />   <use xlink:href="#dot" transform="translate(152.514867,-32.349420030032)" />   <use xlink:href="#dot" transform="translate(152.672384,-30.887956027752)" />   <use xlink:href="#dot" transform="translate(152.672384,-30.887956027752)" />   <use xlink:href="#dot" transform="translate(152.5239,-32.367185030059)" />   <use xlink:href="#dot" transform="translate(152.514867,-32.349420030032)" />   <use xlink:href="#dot" transform="translate(150.97805,-33.700400032024)" />   <use xlink:href="#dot" transform="translate(150.074773,-30.539940027195)" />   <use xlink:href="#dot" transform="translate(150.074773,-30.539940027195)" />   <use xlink:href="#dot" transform="translate(152.706355,-30.4809940271)" />   <use xlink:href="#dot" transform="translate(152.759259,-28.942004024583)" />   <use xlink:href="#dot" transform="translate(152.759544,-28.929937024563)" />   <use xlink:href="#dot" transform="translate(152.688148,-31.56374002882)" />   <use xlink:href="#dot" transform="translate(152.662281,-31.571803028833)" />   <use xlink:href="#dot" transform="translate(152.653142,-29.018058024709)" />   <use xlink:href="#dot" transform="translate(152.676426,-31.573978028836)" />   <use xlink:href="#dot" transform="translate(151.711165,-32.17126302976)" />   <use xlink:href="#dot" transform="translate(151.700313,-32.172884029762)" />   <use xlink:href="#dot" transform="translate(152.689158,-31.564193028821)" />   <use xlink:href="#dot" transform="translate(151.714809,-32.163236029748)" />   <use xlink:href="#dot" transform="translate(152.530572,-29.887420026137)" />   <use xlink:href="#dot" transform="translate(152.688148,-31.56374002882)" />   <use xlink:href="#dot" transform="translate(152.530572,-29.887420026137)" />   <use xlink:href="#dot" transform="translate(151.703784,-32.177204029769)" />   <use xlink:href="#dot" transform="translate(152.662281,-31.571803028833)" />   <use xlink:href="#dot" transform="translate(152.532281,-29.898490026155)" />   <use xlink:href="#dot" transform="translate(152.812556,-30.228915026692)" />   <use xlink:href="#dot" transform="translate(151.70283,-32.156898029738)" />   <use xlink:href="#dot" transform="translate(150.803667,-34.153298032661)" />   <use xlink:href="#dot" transform="translate(151.699432,-32.150558029728)" />   <use xlink:href="#dot" transform="translate(151.037777,-33.748057032092)" />   <use xlink:href="#dot" transform="translate(151.70283,-32.156898029738)" />   <use xlink:href="#dot" transform="translate(152.653142,-29.018058024709)" />   <use xlink:href="#dot" transform="translate(152.576908,-31.62150502891)" />   <use xlink:href="#dot" transform="translate(152.680526,-31.573916028836)" />   <use xlink:href="#dot" transform="translate(151.700313,-32.172884029762)" />   <use xlink:href="#dot" transform="translate(152.358941,-28.926414024557)" />   <use xlink:href="#dot" transform="translate(151.699432,-32.150558029728)" />   <use xlink:href="#dot" transform="translate(150.729789,-30.383464026942)" />   <use xlink:href="#dot" transform="translate(150.50086,-34.819030033568)" />   <use xlink:href="#dot" transform="translate(152.075042,-32.669513030515)" />   <use xlink:href="#dot" transform="translate(150.738226,-30.40650402698)" />   <use xlink:href="#dot" transform="translate(149.698897,-32.216601029829)" />   <use xlink:href="#dot" transform="translate(152.071977,-32.67299903052)" />   <use xlink:href="#dot" transform="translate(152.501584,-31.967962029448)" />   <use xlink:href="#dot" transform="translate(150.50086,-34.819030033568)" />   <use xlink:href="#dot" transform="translate(150.793485,-34.727127033445)" />   <use xlink:href="#dot" transform="translate(150.773417,-34.691611033398)" />   <use xlink:href="#dot" transform="translate(150.760699,-34.703810033414)" />   <use xlink:href="#dot" transform="translate(150.760699,-34.703810033414)" />   <use xlink:href="#dot" transform="translate(142.6966,-37.300600036573)" />   <use xlink:href="#dot" transform="translate(150.773417,-34.691611033398)" />   <use xlink:href="#dot" transform="translate(152.073842,-32.687653030542)" />   <use xlink:href="#dot" transform="translate(152.327955,-30.088002026464)" />   <use xlink:href="#dot" transform="translate(152.066376,-32.679371030529)" />   <use xlink:href="#dot" transform="translate(152.07572,-32.685457030539)" />   <use xlink:href="#dot" transform="translate(150.775697,-34.692851033399)" />   <use xlink:href="#dot" transform="translate(151.925484,-32.284194029932)" />   <use xlink:href="#dot" transform="translate(148.955289,-31.260587028344)" />   <use xlink:href="#dot" transform="translate(148.955289,-31.260587028344)" />   <use xlink:href="#dot" transform="translate(150.775697,-34.692851033399)" />   <use xlink:href="#dot" transform="translate(148.954401,-31.259798028342)" />   <use xlink:href="#dot" transform="translate(150.773417,-34.691611033398)" />   <use xlink:href="#dot" transform="translate(150.793485,-34.727127033445)" />   <use xlink:href="#dot" transform="translate(150.77834,-34.732802033453)" />   <use xlink:href="#dot" transform="translate(150.791411,-34.725431033443)" />   <use xlink:href="#dot" transform="translate(152.646391,-29.016317024706)" />   <use xlink:href="#dot" transform="translate(150.793485,-34.727127033445)" />   <use xlink:href="#dot" transform="translate(153.222369,-28.456707023778)" />   <use xlink:href="#dot" transform="translate(151.457989,-33.071233031112)" />   <use xlink:href="#dot" transform="translate(152.737248,-28.78336602432)" />   <use xlink:href="#dot" transform="translate(152.767095,-29.062540024782)" />   <use xlink:href="#dot" transform="translate(152.529209,-32.204766029811)" />   <use xlink:href="#dot" transform="translate(152.767095,-29.062540024782)" />   <use xlink:href="#dot" transform="translate(151.421649,-29.45587202543)" />   <use xlink:href="#dot" transform="translate(150.81667,-34.135720032637)" />   <use xlink:href="#dot" transform="translate(151.419721,-29.459856025437)" />   <use xlink:href="#dot" transform="translate(152.762354,-29.069328024793)" />   <use xlink:href="#dot" transform="translate(152.771748,-29.072016024798)" />   <use xlink:href="#dot" transform="translate(152.845329,-30.837423027672)" />   <use xlink:href="#dot" transform="translate(150.738226,-30.40650402698)" />   <use xlink:href="#dot" transform="translate(150.129599,-29.806567026005)" />   <use xlink:href="#dot" transform="translate(148.986409,-31.278917028373)" />   <use xlink:href="#dot" transform="translate(150.129599,-29.806567026005)" />   <use xlink:href="#dot" transform="translate(152.026129,-29.110843024862)" />   <use xlink:href="#dot" transform="translate(152.838198,-30.836846027671)" />   <use xlink:href="#dot" transform="translate(152.838198,-30.836846027671)" />   <use xlink:href="#dot" transform="translate(152.801763,-30.828024027657)" />   <use xlink:href="#dot" transform="translate(150.142312,-29.798112025991)" />   <use xlink:href="#dot" transform="translate(148.986538,-31.278591028372)" />   <use xlink:href="#dot" transform="translate(148.986428,-31.278349028372)" />   <use xlink:href="#dot" transform="translate(152.841809,-30.834820027668)" />   <use xlink:href="#dot" transform="translate(150.137613,-29.782642025966)" />   <use xlink:href="#dot" transform="translate(150.130837,-29.786391025972)" />   <use xlink:href="#dot" transform="translate(150.336604,-30.707480027464)" />   <use xlink:href="#dot" transform="translate(150.259125,-30.377220026932)" />   <use xlink:href="#dot" transform="translate(150.259125,-30.377220026932)" />   <use xlink:href="#dot" transform="translate(150.090668,-30.588913027274)" /><polygon class="region" points="143.618,-38.4255 142.6966,-37.300600036573 150.130837,-29.786391025972 152.658358,-28.337213023579 153.502509,-28.173308023307 153.455582,-28.955167024605 153.117191,-30.209495026661 152.83202,-31.262750028347 152.5239,-32.367185030059 152.5,-32.4 150.793485,-34.727127033445 150.722211,-34.794358033535 149.91353,-35.40057 143.618,-38.4255 " />
		  </g>
		</svg>