<?xml version="1.0" encoding="UTF-8"?>
	<svg xmlns:xlink="http://www.w3.org/1999/xlink" 
	xmlns="http://www.w3.org/2000/svg" 
	width="360px" height="180px">
	   <style type="text/css">
		  <![CDATA[     
		  .region 
		  { 
			fill:blue; 
			opacity:0.4; 
			stroke:blue;
		  }
		  ]]>
	   </style>

	<circle id="dot" x="-2" y="-2" r="2" style="stroke:none; stroke-width:0; fill:black; opacity:0.7;"/>


	 <image x="0" y="0" width="360" height="180" xlink:href="map.jpg"/>

 
	 <g transform="translate(180,90) scale(1,-1)"><polygon class="region" points="114.240374621,0.89875895500006 115.061702877,0.95593538200006 115.529111686,0.54558054000006 115.900128216,-0.18723622299996 116.282159253,-0.29333389199996 116.600934185,-0.14988636199996 116.668426297,-0.32199820799997 116.287253918,-0.47807303299993 115.836403527,-0.38586429099996 114.93449063,0.78138268100002 114.464484753,0.63887134000004 114.077729549,0.73059636000005 114.03217074,0.93441554100002 114.38715251,1.441034346 114.240374621,0.89875895500006 " /><polygon class="region" points="106.090777385,13.944945868 106.202296049,12.417892216 105.780403275,12.409230376 105.734121443,13.93771841 106.090777385,13.944945868 " /><polygon class="region" points="94.677947998,16.298944474 94.758888245,16.237333298 94.569610596,15.928944588 94.684082031,16 94.803474426,16.206222534 94.852859497,16.239805221 94.718391419,16 94.669692993,15.955694198 94.600502014,15.920249939 94.685638427,15.837111473 94.872642517,16.187166214 95.05052948,16.333360672 94.865638733,16.135055542 94.891807556,16.006082535 94.902946472,16.083000183 95.10055542,16.300582886 95.022636413,16.135055542 94.955558777,16.131000519 94.914497376,16 94.824111939,15.949277877 94.873001099,15.824944496 94.863670349,15.89675045 94.944335938,15.953555107 94.950775146,15.945555687 94.871276856,15.89541626 94.889335633,15.827361107 94.832000732,15.795499801 94.939086914,15.740888595 95.036941528,15.803777695 95.056137085,16.03544426 95.119750976,16.115333557 95.123580933,16.206638336 95.140777588,16.231500625 95.267112732,16.149471283 95.18963623,16.024610519 95.125724792,15.990777969 95.176803589,15.767889023 95.31439209,16.180084228 95.390663147,16.239583969 95.396194458,16.061639785 95.363998413,16.05027771 95.347747803,15.947278023 95.298446655,15.870083809 95.338752747,15.905444146 95.412635803,15.905638695 95.270446777,15.800833702 95.426391602,15.721278191 95.693054199,15.999250412 95.709587097,16.273111344 95.778556823,16.129138947 95.912086487,16.410917282 96.187080383,16.471776962 96.124107361,16.313999176 96.332191467,16.431804657 96.294441223,16.445667267 96.235580444,16.598333359 96.178222656,16.580999374 96.198501587,16.484138488 96.177581787,16.483028412 96.115501404,16.812166214 96.197334289,16.759721756 96.347741988,16.905854051 96.511863709,16.888195038 96.222808838,16.75419426 96.277748108,16.577472687 96.287445069,16.600082398 96.33127594,16.628665924 96.371246338,16.627889633 96.403083801,16.614276886 96.469924142,16.612709138 96.286697388,16.591833115 96.38369751,16.496610642 96.771278381,16.691610336 96.912956233,17.046869253 96.911087048,17.321453148 96.696167009,17.247896224 96.648781839,17.330286589 96.658422035,17.348614848 96.692443874,17.366384513 96.773521423,17.376348507 96.734391117,17.435309592 96.767143265,17.479246138 96.785858155,17.489944458 97.059219339,17.253294016 97.114265457,17.077766379 97.17909238,17.129430732 97.264549277,17.103549946 97.1692658,16.910738026 97.424041769,16.65836145 97.328392075,16.658922174 97.362937935,16.4789734 97.392837568,16.525075881 97.532524109,16.537611007 97.62149814,16.518653861 97.607650732,16.580972626 97.621391296,16.643249512 97.74646759,16.56155394 97.664108292,16.480018579 97.702308655,16.474027634 97.757751465,16.417694092 97.737197876,16.38602829 97.761444091,16.38599968 97.79047395,16.370325059 97.803107443,16.353442993 97.792419434,16.332666397 97.844078837,16.323391167 97.888239294,16.283923209 97.787422217,16.332733136 97.778419495,16.374584198 97.733389413,16.383311581 97.753921513,16.414071986 97.662414551,16.476499558 97.662086481,16.512290961 97.648620617,16.498426405 97.625335734,16.500030487 97.696882418,16.027449496 97.558197021,16.072610855 97.717918413,15.843354272 97.791748046,14.868332863 98.095078048,14.200371908 98.125274658,13.547139168 98.244499207,13.812777519 98.676216077,12.992307637 98.589302078,12.931630188 98.720306397,12.81111145 98.686583835,12.517165611 98.521911635,12.25829311 98.739792206,11.950300645 98.698280335,11.962539673 98.702738101,11.930058631 98.543602001,11.881782567 98.840515144,11.681181889 98.654800403,11.1269503 98.781524658,10.988694191 98.454666138,10.689444542 98.549377442,9.9731703210001 98.64944458,10.178944588 98.703739221,10.175835283 98.466773991,9.627402295 98.570137024,9.5582504270001 98.318054199,9.2033891680001 98.405220022,9.078416815 98.222930884,8.731826734 98.2841415,8.203166966 98.414471067,8.1806286240001 98.434974671,8.1348056800001 98.466979976,8.303272275 98.62327576,8.3781595680001 98.709355908,8.33430456 98.76574707,8.0194997790001 99.105110131,7.955193058 99.044471741,7.6953887940001 99.147972111,7.786525279 99.269248941,7.6600470540001 99.403839101,7.3007145340001 99.593780518,7.374555588 99.591217067,7.14424089 99.750053406,7.126694679 99.673248291,7.027527809 99.747466485,6.9530318560001 99.721003245,6.874032503 99.69342041,6.8540554050001 99.947662344,6.582742712 100.100634537,6.5403032130001 100.35155487,5.9722499850001 100.36203003,5.08558321 100.664137669,4.684415686 100.56093601,4.3069047720001 100.792743899,4.0085632450001 100.702575707,3.893965247 101.303138548,3.2491945730001 101.383552552,2.996388912 101.29877472,2.842777729 103.32483664,1.5709722460001 103.510780335,1.262737981 103.687394553,1.462854602 103.802091308,1.48541413 104.002975464,1.436888933 103.971115066,1.6214133550001 104.118751525,1.399662796 104.097335816,1.3662222630001 104.30342103,1.432288156 103.827560432,2.5817010170001 103.443679842,2.9110930030001 103.48480226,3.506393175 103.395256034,3.4953644170001 103.331924405,3.751720214 103.479980428,4.5284623800001 103.18914032,5.274694443 102.352531433,6.1633887290001 101.819030761,6.4553608890001 101.560691833,6.843777656 101.2784729,6.948638916 101.250160252,6.9271078350001 101.288115175,6.9401025440001 101.365000699,6.8969417710001 101.377831132,6.8796725870001 101.334609955,6.871063269 101.29372406,6.8766946800001 101.258613586,6.896999836 101.01855539,6.850027536 100.769195556,6.9819722180001 100.472999573,7.4080557820001 100.222221393,8.4263944250001 99.964981037,8.59050748 99.839248657,9.303055764 99.224037215,9.25514414 99.315643331,9.390051805 99.145027161,9.7662496570001 99.24948121,10.231083878 99.148475984,10.346995782 99.283775335,10.361045869 99.239204357,10.53265862 99.508941651,10.86950016 99.563148542,11.334220862 100.02075196,12.187218678 99.954811082,12.656872715 100.098419189,13.041722297 99.952842673,13.308717737 100.269231819,13.524229741 100.977332876,13.476747391 100.856559729,12.643216125 101.419692993,12.583305359 101.753814684,12.710073514 102.292556763,12.185610771 102.581443787,12.044944764 102.55092029,12.203300712 102.604556251,12.218771496 103.114997863,11.457972527 103.124793966,10.866124199 103.427024841,10.887444496 103.496585549,11.17688704 103.659942627,11.074360848 103.683385086,10.742860382 103.492271419,10.622794174 103.615959212,10.497494716 103.883270254,10.66132258 104.247825575,10.570247697 104.600593583,10.13843921 104.742835998,10.225527763 105.079376222,10.006018592 104.843597405,9.617917065 104.793609619,8.793360711 104.951247199,8.820944223 104.735954232,8.5891618740001 105.118484504,8.6237574030001 105.528305054,9.1199445720001 106.181892395,9.3595829010001 106.287689259,9.605158789 106.533973709,9.5743589750001 106.525817914,9.826625828 106.699386597,9.8768053060001 106.576721191,9.9698333740001 106.797248841,10.1265831 106.710861206,10.197583198 106.740916537,10.459159322 107.102749203,10.09334135 106.668931771,8.8810275010001 105.728993903,7.2703999030001 105.186722067,7.126933949 104.427541538,7.557193397 103.559906697,8.5594258900001 102.692271742,9.986547801 101.824636901,10.946384348 101.24621362,11.159269503 100.667790316,10.875388462 100.414730133,9.130967723 101.029304904,8.130202512 103.559906697,5.6539756400001 104.10217851,4.357515156 104.355238694,2.0475928560001 104.861359062,1.035731706 105.728993903,0.42120960900007 106.632780303,0.20430421800006 107.606937463,0.27388629300003 108.456707872,1.3830456490001 109.111430184,1.95289652 110.360359574,2.500885452 111.115560609,3.2032054470001 112.344710037,3.74447881 112.814678915,4.285417818 113.501556621,4.6818659800001 114.58610027,5.6539756400001 115.646567884,7.3416280430001 117.016045088,7.604457182 117.930725817,7.282346456 117.875882591,6.803972613 118.345851492,6.1933498720001 119.304625824,5.433213617 119.466546517,5.0780896900001 118.924274795,3.0227150110001 119.357719748,0.71811441600005 119.843966943,-0.094115741999929 119.612808228,-0.00761111199995 119.811805012,-0.13994286099995 119.882553101,-0.82291668599993 119.737304687,-0.64516669499994 119.332641605,-1.1745506579999 119.347909255,-1.9342304799999 119.142829895,-2.191527843 119.144356671,-2.472972935 118.752502449,-2.782485725 118.883583068,-2.8993332389999 118.774330139,-3.0951387879999 118.930542002,-3.568598278 119.285583489,-3.43061162 119.419136048,-3.461250067 119.629806519,-3.973416566 119.350379942,-5.3270306649999 119.431030273,-5.5961942669999 119.655249721,-5.6373351199999 119.57500092,-6.182470209 117.984336904,-6.9725607529999 114.43949126,-8.0965204189999 114.810500894,-9.133540852 114.637509677,-9.5988276799999 114.333040086,-9.833319532 107.645021039,-8.727311087 106.09050849,-8.155156425 102.583817452,-5.751004049 101.499273781,-3.9499799119999 100.487033068,-2.975684632 100.417392656,-2.98638376 100.209762564,-2.7866005839999 100.209037007,-3.018394213 100.017064191,-3.0478877059999 98.787914672,-1.9282670339999 97.206957379,1.269318867 97.706497193,0.56480556800005 97.887031555,0.62550002400007 97.905891421,1.0277286730001 97.409057617,1.5164999960001 97.127699305,1.427802722 96.365767282,3.2392997760001 95.46198095,4.1051449340001 95.250130089,4.5047372220001 95.082906068,4.883191509 95.069704169,5.34525774 95.197322494,5.7105100370001 95.434956558,5.7105100370001 96.112707098,5.4740700670001 97.305705059,5.402092607 97.558765243,5.833825281 97.847976872,7.126933949 97.341856527,8.952456581 97.378007995,10.662299895 97.594916711,11.726193233 96.835736159,13.876479706 95.895798382,14.92692574 94.160528585,15.763619686 93.907468424,16.458247665 93.741531372,18.872304916 92.352955876,20.265890482 91.882986977,21.010175986 91.521472389,21.347272493 91.159957824,21.347272493 89.894656928,20.976424185 88.231690067,20.231973278 86.424117335,19.142771036 83.387395197,16.770027046 82.917426297,16.908432322 82.626026013,17.297995395 84.141082719,18.314184219 85.234092677,19.502847627 86.418113709,19.977582932 86.807395915,20.363817253 86.728454567,20.361152643 86.76550293,20.504638672 87.052001954,20.703500748 86.816794858,21.138174186 86.89459228,21.313573867 87.828552246,21.722194672 88.196113586,22.104804992 88.034248352,22.218276978 88.214248657,22.157417297 88.262626613,21.557518043 88.26863458,21.865025391 88.395332329,21.794328671 88.387344396,21.967468279 88.412414551,21.994722367 88.417663574,21.58175087 88.429194159,21.765922327 88.458251953,21.820110321 88.500114473,21.84890559 88.453414917,21.906833648 88.459726969,21.938158363 88.56525067,22.022753193 88.503105197,21.884889629 88.561805725,21.814027786 88.630973845,22.119773842 88.790275574,22.018333435 88.724243184,21.680479027 88.822859486,21.66037745 88.852943421,21.616138458 88.879943847,21.767471314 89.016723633,21.600805283 89.00100712,21.903104747 89.051834106,21.785888672 89.152168274,21.741443634 89.08663954,21.813388504 89.083557129,21.938554764 89.219276428,21.757165908 89.231193543,21.768304825 89.292724609,21.756389618 89.318115221,21.861080141 89.389854404,21.902112925 89.390625007,21.708433184 89.515199373,21.990389381 89.590103122,21.938590984 89.562667847,21.863721847 89.613670349,21.811138153 89.618988068,21.780643455 89.606697082,21.760110855 89.712371866,21.766191462 89.633895914,21.867931346 89.6554414,21.913414838 89.840805019,21.855997099 89.885444641,21.905527115 89.818795097,22.065989843 89.877426139,22.413904227 90.003807795,22.677222274 89.878684978,22.252372774 89.964408869,21.976884803 90.024971017,22.196575116 90.066947958,22.214490925 90.094970708,22.3490753 90.193565352,22.480165457 90.181892395,22.522277832 90.197525024,22.567556382 90.182975769,22.593721389 90.180969268,22.627635933 90.294185021,22.655548314 89.992996216,22.036111832 90.051475525,21.970249176 90.087910192,22.055547871 90.160774218,22.124048206 90.203170803,22.123798359 90.199089079,22.302593256 90.314804077,22.474111557 90.361886457,22.4904989 90.2717133,22.177196511 90.072494505,22.000352828 90.188602855,21.922788516 90.091972351,21.814666748 90.255554199,21.827278137 90.196172326,21.978396423 90.364151028,22.295156505 90.437309265,22.066804886 90.506614515,22.185137868 90.5211792,22.183977142 90.558761559,22.23815915 90.591163635,22.257278442 90.613197327,22.32749939 90.513343848,22.652873967 90.383147274,22.705397223 90.273925748,22.968725233 90.320610046,22.986473083 90.267753601,23.043111801 90.309112549,23.112806321 90.264472946,23.112558339 90.245246887,23.123193741 90.218986527,23.182952851 90.17741394,23.166500092 90.087089581,23.272815718 90.099502563,23.359027863 90.206733705,23.333774576 90.155677831,23.431032131 90.152915954,23.498832702 89.060784504,23.983892983 89.280792339,23.987474394 89.38646697,23.943105708 89.546737625,23.824102447 89.770843494,23.835903197 89.703277584,23.87495614 89.661401178,23.94228831 89.720802837,23.99999347 90.276496942,23.45021632 90.52809146,23.390685984 90.535285949,23.476694131 90.567947388,23.509777069 90.378931407,23.567836685 90.247695923,23.707582474 90.149719225,23.704254116 90.019531242,23.762666712 90.002052307,23.816028595 90.023223877,23.763471604 90.181251525,23.740110398 90.220779445,23.708108949 90.238342313,23.711185506 90.255668288,23.707361392 90.274612427,23.686166764 90.252418518,23.721027375 90.221028498,23.721644808 90.205894442,23.753734535 90.241500854,23.814945221 90.222610474,23.800361633 90.046585083,23.817443848 90.000000001,23.922792396 90.22984312,23.887708654 90.257133482,23.775753018 90.254806519,23.730278015 90.281723023,23.736610413 90.298637353,23.764432921 90.312838482,23.76418505 90.442749022,23.668407446 90.470245345,23.629793206 90.453849789,23.614849083 90.469001787,23.608655981 90.483955384,23.586627933 90.505003978,23.603299993 90.55313107,23.571493175 90.642860412,23.689945221 90.71565007,23.741410187 90.75780487,23.721000671 90.764603033,23.629021209 90.705665588,23.561750412 90.744292573,23.544274667 90.703857374,23.490123695 90.585586503,23.466945687 90.697792076,23.345663071 90.56632994,23.1036472 90.689575157,22.978296297 90.733238255,22.887527464 91.345108033,22.77583313 91.31578064,22.83936119 91.342697191,22.883184394 91.408638001,22.760915757 91.445198059,22.900693894 91.49222095,22.900696619 91.43685913,22.777221679 91.797966029,22.219553015 91.795539809,22.292741763 91.896362304,22.409360885 91.954071086,22.420991955 92.002914429,22.412416458 92.033058166,22.450500488 92.143913234,22.470319724 92.001869152,22.404596286 91.900779724,22.400749207 91.814697266,22.304889679 91.842002869,22.260528564 91.811798087,22.190479323 92.035161591,21.700556464 92.038932757,21.647584912 91.995391846,21.551750183 92.022055369,21.486415941 91.953529358,21.450222015 92.299552917,20.760723114 92.198036214,21.154571501 92.347664232,20.987127829 92.3618927,20.941917419 92.314598111,20.882595079 92.377441397,20.695667268 92.728454602,20.259988831 92.729202249,20.549554835 92.544136047,20.743055343 92.546638488,20.763082504 92.571304321,20.751611709 92.544860986,20.811776969 92.5494443,20.849296366 92.746749878,20.598583222 92.752304077,20.479415894 92.796066265,20.510078469 92.827529907,20.496833801 92.906326293,20.37871173 92.898271005,20.482212607 92.93258667,20.432695389 92.94454811,20.315561818 92.764946007,20.19997404 92.853050251,20.123165159 92.896614075,20.109443664 92.886177086,20.209459338 92.944952947,20.2674448 92.963012679,20.225704181 93.009109497,20.286916733 93.013473511,20.460582733 93.081558227,20.55166626 93.01776085,20.612216311 93.005555179,20.639805464 93.02766577,20.643856417 93.1741623,20.399411363 93.124259989,20.328073472 93.251182713,20.426071717 93.216529846,20.286083222 93.117034869,20.18570897 93.182533308,20.196851709 93.209867585,20.23472524 93.246437116,20.245405209 93.2306213,20.273887592 93.239814806,20.305971138 93.325447057,20.403636972 93.432850289,20.10520761 93.416015621,19.970758415 93.456672624,19.949962651 93.439247955,19.992461126 93.454246521,19.995889664 93.466140747,19.982500077 93.454803467,20.055194855 93.458335877,20.062583923 93.476211552,20.060943614 93.551834106,19.888526917 93.70905304,19.96733284 93.793329287,19.915984818 93.801185636,19.891038881 93.791389465,19.769111633 93.705940236,19.702800724 93.726997375,19.67111206 93.819335937,19.711082458 93.72203064,19.626472473 93.997081282,19.452551092 93.858490199,19.440395664 93.68749233,19.56537249 93.651641845,19.444499969 93.775131271,19.3010483 93.858924853,19.387773487 93.892112732,19.291639328 93.9833679,19.405515694 94.010772028,19.380999332 93.809013336,19.226318393 93.472724914,19.363250733 93.937271112,18.847295798 93.909225464,19.199472428 94.005004908,19.155506128 93.991386413,19.222917557 94.016304016,19.181360245 94.03150177,19.328138352 94.03941349,19.345300702 94.068748474,19.370582581 94.071495054,19.383720435 94.027168274,19.079221726 94.054527283,19.075387955 94.116096525,19.120386085 94.14655304,19.119083405 94.03150177,18.896360397 94.112998963,18.96616745 94.135307312,18.891944885 94.030914307,18.863277435 94.169601583,18.890000918 94.27999878,18.735055924 94.140892029,18.736000061 94.61113739,17.550111771 94.261520367,16.530799877 94.243530273,15.954138756 94.526473999,16.298694611 94.652946472,16.340278625 94.6510849,16.670221329 94.688888549,16.739555359 94.689804077,16.492666245 94.74647522,16.576805115 94.800361633,16.590723037 94.711585999,16.376028061 94.751861572,16.390527725 94.825386047,16.370388031 94.677947998,16.298944474 " /><polygon class="region" points="97.322457679,24.483399744 97.322457679,24.182047762 97.14164649,23.981146441 96.538942528,24.081597102 96.277770812,23.599433933 96.217500416,21.771231915 95.67506685,21.710961519 95.514345793,21.309158877 95.09245302,21.108257558 94.971912228,20.84708584 95.413895133,19.76221871 95.479468886,18.862342828 94.970291589,18.776935967 94.951822096,19.561317389 94.550019454,20.887266105 94.791101039,21.53015033 95.052272756,21.590420727 95.052272756,21.81141218 95.87596817,22.052493764 95.77551751,23.358352348 96.016599095,24.021326705 96.418401735,24.463309611 96.900564906,24.443219479 96.94074517,25.005743177 97.463088603,25.829438592 97.663989924,25.688807667 97.282277414,24.74457146 97.322457679,24.483399744 " /><polygon class="region" points="119.412864685,10.871582985 119.46736145,10.820972443 119.458358765,10.721944809 119.30696,10.8675 119.412864685,10.871582985 " /><polygon class="region" points="100.4667,7.290422504 100.557220909,7.2019016990001 100.467975232,7.1095861110001 100.376161627,7.1993541200001 100.4667,7.290422504 " />
		  </g>
		</svg>