<?xml version="1.0" encoding="UTF-8"?>
	<svg xmlns:xlink="http://www.w3.org/1999/xlink" 
	xmlns="http://www.w3.org/2000/svg" 
	width="360px" height="180px">
	   <style type="text/css">
		  <![CDATA[     
		  .region 
		  { 
			fill:blue; 
			opacity:0.4; 
			stroke:blue;
		  }
		  ]]>
	   </style>

	<circle id="dot" x="-2" y="-2" r="2" style="stroke:none; stroke-width:0; fill:black; opacity:0.7;"/>


	 <image x="0" y="0" width="360" height="180" xlink:href="map.jpg"/>

 
	 <g transform="translate(180,90) scale(1,-1)"><polygon class="region" points="136.665374756,-3.0008924009999 136.968215943,-3.386327267 138.344772338,-3.166078806 139.969100952,-3.7717621329999 140.671142578,-4.2948522569999 143.259063721,-4.9143013959999 144.277709961,-4.8730049129999 146.136062622,-6.2082614899999 146.356307984,-6.93783474 146.879394531,-6.7175860409999 147.278594971,-7.8325943949999 147.127182007,-7.873890877 147.573991931,-8.582126285 148.140924856,-9.157751306 149.44488853,-9.804599427 149.691306862,-10.179360641 148.146058572,-9.820000573 147.678890484,-9.4863090819999 146.810577392,-8.493339539 146.466430664,-7.6536421779999 145.902053833,-7.7637667659999 145.557907105,-7.0892553329999 144.952224732,-6.6625242229999 143.807495813,-6.8682209729999 143.530381859,-7.078129928 143.127151861,-6.988523261 142.544708531,-6.562891597 142.530200531,-6.185683578 142.199111938,-5.712702274 140.739974976,-5.2722053529999 139.487304687,-4.5976939199999 139.032562256,-4.654324532 138.220886231,-4.404976845 137.267732189,-4.453117907 136.71145277,-4.2266678779999 135.412704468,-4.26732111 135.220001221,-4.047072887 135.261291504,-3.7167000769999 135.96333313,-3.5790448189999 136.665374756,-3.0008924009999 " /><polygon class="region" points="147.652557373,-6.577636718 147.248779297,-6.614344597 146.477905273,-6.265617848 145.670333862,-5.6232261659999 146.367782593,-5.6782884589999 147.230422973,-6.0637235639999 147.744338989,-6.375741959 147.652557373,-6.577636718 " /><polygon class="region" points="134.169243162,-1.427643615 133.989372617,-1.68071729 133.652638223,-1.496663709 132.876685057,-1.4213690619999 132.661258706,-0.90476412299995 133.68819403,-0.87966590799994 134.008196279,-1.0448958269999 134.169243162,-1.427643615 " /><polygon class="region" points="143.36354065,-3.657993317 142.132537842,-3.5443627829999 141.393936157,-3.2034709449999 141.678009033,-3.1087789539999 142.39767456,-3.2224094869999 143.401412964,-3.506485939 143.36354065,-3.657993317 " /><polygon class="region" points="140.360900879,-2.4023778439999 140.722198487,-2.486513853 140.711608887,-2.630999566 140.849868774,-2.610911846 140.560653687,-2.730010271 140.314453125,-2.5785028929999 140.360900879,-2.4023778439999 " /><polygon class="region" points="142.832336426,-4.5288662909999 142.667144776,-4.57016325 142.529495239,-4.5288662909999 142.928695679,-4.3223834039999 142.98374939,-4.4600386619999 142.832336426,-4.5288662909999 " />
		  </g>
		</svg>