<?xml version="1.0" encoding="UTF-8"?>
	<svg xmlns:xlink="http://www.w3.org/1999/xlink" 
	xmlns="http://www.w3.org/2000/svg" 
	width="360px" height="180px">
	   <style type="text/css">
		  <![CDATA[     
		  .region 
		  { 
			fill:blue; 
			opacity:0.4; 
			stroke:blue;
		  }
		  ]]>
	   </style>

	<circle id="dot" x="-2" y="-2" r="2" style="stroke:none; stroke-width:0; fill:black; opacity:0.7;"/>


	 <image x="0" y="0" width="360" height="180" xlink:href="map.jpg"/>

 
	 <g transform="translate(180,90) scale(1,-1)">   <use xlink:href="#dot" transform="translate(141.25122,-5.12027)" />   <use xlink:href="#dot" transform="translate(141.25122,-5.12027)" />   <use xlink:href="#dot" transform="translate(141.25122,-5.12027)" />   <use xlink:href="#dot" transform="translate(141.25122,-5.12027)" />   <use xlink:href="#dot" transform="translate(141.56277,-5.5336)" />   <use xlink:href="#dot" transform="translate(141.56277,-5.5336)" />   <use xlink:href="#dot" transform="translate(141.54305,-5.4911)" />   <use xlink:href="#dot" transform="translate(141.54305,-5.4911)" />   <use xlink:href="#dot" transform="translate(142.852222,-6.610833)" />   <use xlink:href="#dot" transform="translate(142.852222,-6.610833)" />   <use xlink:href="#dot" transform="translate(142.3064,-5.4853)" />   <use xlink:href="#dot" transform="translate(142.3064,-5.4853)" />   <use xlink:href="#dot" transform="translate(142.3019,-5.4862)" />   <use xlink:href="#dot" transform="translate(142.3019,-5.4862)" />   <use xlink:href="#dot" transform="translate(142.3064,-5.4853)" />   <use xlink:href="#dot" transform="translate(142.3019,-5.4862)" />   <use xlink:href="#dot" transform="translate(142.3019,-5.4862)" />   <use xlink:href="#dot" transform="translate(142.3019,-5.4862)" />   <use xlink:href="#dot" transform="translate(142.3019,-5.4862)" />   <use xlink:href="#dot" transform="translate(142.3019,-5.4862)" />   <use xlink:href="#dot" transform="translate(142.3019,-5.4862)" />   <use xlink:href="#dot" transform="translate(142.3019,-5.4862)" />   <use xlink:href="#dot" transform="translate(142.3019,-5.4862)" />   <use xlink:href="#dot" transform="translate(142.3064,-5.4853)" />   <use xlink:href="#dot" transform="translate(142.3064,-5.4853)" />   <use xlink:href="#dot" transform="translate(142.3019,-5.4862)" />   <use xlink:href="#dot" transform="translate(142.3019,-5.4862)" />   <use xlink:href="#dot" transform="translate(142.3019,-5.4862)" />   <use xlink:href="#dot" transform="translate(142.3019,-5.4862)" />   <use xlink:href="#dot" transform="translate(142.3019,-5.4862)" />   <use xlink:href="#dot" transform="translate(142.3064,-5.4853)" />   <use xlink:href="#dot" transform="translate(142.3019,-5.4862)" />   <use xlink:href="#dot" transform="translate(142.3019,-5.4862)" />   <use xlink:href="#dot" transform="translate(142.3064,-5.4853)" />   <use xlink:href="#dot" transform="translate(142.3064,-5.4853)" />   <use xlink:href="#dot" transform="translate(142.3019,-5.4862)" />   <use xlink:href="#dot" transform="translate(143.048,-5.574)" />   <use xlink:href="#dot" transform="translate(143.048,-5.574)" />   <use xlink:href="#dot" transform="translate(143.048,-5.574)" />   <use xlink:href="#dot" transform="translate(143.048,-5.574)" />   <use xlink:href="#dot" transform="translate(143.048,-5.574)" />   <use xlink:href="#dot" transform="translate(147.41563144335,-6.4143727247327)" />   <use xlink:href="#dot" transform="translate(147.41563144335,-6.4143727247327)" />   <use xlink:href="#dot" transform="translate(147.41563144335,-6.4143727247327)" />   <use xlink:href="#dot" transform="translate(146.57122786441,-6.0793784468437)" />   <use xlink:href="#dot" transform="translate(146.57122786441,-6.0793784468437)" />   <use xlink:href="#dot" transform="translate(146.57122786441,-6.0793784468437)" />   <use xlink:href="#dot" transform="translate(146.57122786441,-6.0793784468437)" />   <use xlink:href="#dot" transform="translate(146.57122786441,-6.0793784468437)" />   <use xlink:href="#dot" transform="translate(146.57122786441,-6.0793784468437)" />   <use xlink:href="#dot" transform="translate(146.57122786441,-6.0793784468437)" />   <use xlink:href="#dot" transform="translate(146.57122786441,-6.0793784468437)" />   <use xlink:href="#dot" transform="translate(146.5577449289,-6.0982918126184)" />   <use xlink:href="#dot" transform="translate(146.57122786441,-6.0793784468437)" />   <use xlink:href="#dot" transform="translate(145.07010458297,-6.5429597398049)" />   <use xlink:href="#dot" transform="translate(145.07010458297,-6.5429597398049)" />   <use xlink:href="#dot" transform="translate(145.07010458297,-6.5429597398049)" />   <use xlink:href="#dot" transform="translate(145.07010458297,-6.5429597398049)" />   <use xlink:href="#dot" transform="translate(136.574,-3.145)" />   <use xlink:href="#dot" transform="translate(145.13003662869,-6.5720316886477)" />   <use xlink:href="#dot" transform="translate(145.13003662869,-6.5720316886477)" />   <use xlink:href="#dot" transform="translate(142.583,-6.94166)" />   <use xlink:href="#dot" transform="translate(142.583,-6.94166)" />   <use xlink:href="#dot" transform="translate(137.133,-4.40111)" />   <use xlink:href="#dot" transform="translate(138.2,-4.016)" />   <use xlink:href="#dot" transform="translate(141.316,-5.2)" />   <use xlink:href="#dot" transform="translate(141.633,-5.133)" />   <use xlink:href="#dot" transform="translate(141.283,-6.1)" />   <use xlink:href="#dot" transform="translate(149.383,-9.883)" />   <use xlink:href="#dot" transform="translate(149.383,-9.883)" />   <use xlink:href="#dot" transform="translate(133.9833,-1.4833)" />   <use xlink:href="#dot" transform="translate(134,-1.116)" />   <use xlink:href="#dot" transform="translate(133.933,-1.1)" />   <use xlink:href="#dot" transform="translate(133.933,-1.1)" />   <use xlink:href="#dot" transform="translate(134,-1.116)" />   <use xlink:href="#dot" transform="translate(133.933,-1.1)" />   <use xlink:href="#dot" transform="translate(133.933,-1.1)" />   <use xlink:href="#dot" transform="translate(133.933,-1.1)" />   <use xlink:href="#dot" transform="translate(133.933,-1.1)" />   <use xlink:href="#dot" transform="translate(133.933,-1.1)" />   <use xlink:href="#dot" transform="translate(133.933,-1.1)" />   <use xlink:href="#dot" transform="translate(133.933,-1.1)" />   <use xlink:href="#dot" transform="translate(133.933,-1.1)" />   <use xlink:href="#dot" transform="translate(133.933,-1.1)" />   <use xlink:href="#dot" transform="translate(134,-1.116)" />   <use xlink:href="#dot" transform="translate(133.933,-1.1)" />   <use xlink:href="#dot" transform="translate(133.933,-1.1)" />   <use xlink:href="#dot" transform="translate(142.133,-3.383)" />   <use xlink:href="#dot" transform="translate(142.133,-3.383)" />   <use xlink:href="#dot" transform="translate(142.133,-3.383)" />   <use xlink:href="#dot" transform="translate(142.133,-3.383)" />   <use xlink:href="#dot" transform="translate(142.116,-3.416)" />   <use xlink:href="#dot" transform="translate(142.383,-3.383)" />   <use xlink:href="#dot" transform="translate(142.133,-3.4)" />   <use xlink:href="#dot" transform="translate(142.133,-3.4)" />   <use xlink:href="#dot" transform="translate(142.133,-3.4)" />   <use xlink:href="#dot" transform="translate(142.133,-3.4)" />   <use xlink:href="#dot" transform="translate(142.133,-3.4)" />   <use xlink:href="#dot" transform="translate(142.133,-3.4)" />   <use xlink:href="#dot" transform="translate(142.133,-3.4)" />   <use xlink:href="#dot" transform="translate(142.133,-3.4)" />   <use xlink:href="#dot" transform="translate(142.133,-3.4)" />   <use xlink:href="#dot" transform="translate(142.133,-3.4)" />   <use xlink:href="#dot" transform="translate(142.133,-3.4)" />   <use xlink:href="#dot" transform="translate(142.133,-3.4)" />   <use xlink:href="#dot" transform="translate(142.133,-3.4)" />   <use xlink:href="#dot" transform="translate(142.133,-3.4)" />   <use xlink:href="#dot" transform="translate(142.133,-3.4)" />   <use xlink:href="#dot" transform="translate(142.133,-3.4)" />   <use xlink:href="#dot" transform="translate(142.133,-3.4)" />   <use xlink:href="#dot" transform="translate(142.133,-3.4)" />   <use xlink:href="#dot" transform="translate(142.133,-3.4)" />   <use xlink:href="#dot" transform="translate(142.133,-3.4)" />   <use xlink:href="#dot" transform="translate(142.133,-3.4)" />   <use xlink:href="#dot" transform="translate(142.133,-3.4)" />   <use xlink:href="#dot" transform="translate(142.133,-3.4)" />   <use xlink:href="#dot" transform="translate(142.133,-3.4)" />   <use xlink:href="#dot" transform="translate(142.133,-3.4)" />   <use xlink:href="#dot" transform="translate(142.133,-3.4)" />   <use xlink:href="#dot" transform="translate(142.133,-3.4)" />   <use xlink:href="#dot" transform="translate(142.133,-3.4)" />   <use xlink:href="#dot" transform="translate(142.133,-3.4)" />   <use xlink:href="#dot" transform="translate(142.133,-3.4)" />   <use xlink:href="#dot" transform="translate(142.133,-3.4)" />   <use xlink:href="#dot" transform="translate(142.133,-3.4)" />   <use xlink:href="#dot" transform="translate(142.133,-3.4)" />   <use xlink:href="#dot" transform="translate(142.133,-3.4)" />   <use xlink:href="#dot" transform="translate(142.133,-3.4)" />   <use xlink:href="#dot" transform="translate(142.133,-3.4)" />   <use xlink:href="#dot" transform="translate(142.133,-3.4)" />   <use xlink:href="#dot" transform="translate(142.133,-3.4)" />   <use xlink:href="#dot" transform="translate(142.133,-3.4)" />   <use xlink:href="#dot" transform="translate(142.133,-3.4)" />   <use xlink:href="#dot" transform="translate(142.133,-3.4)" />   <use xlink:href="#dot" transform="translate(142.133,-3.4)" />   <use xlink:href="#dot" transform="translate(142.133,-3.4)" />   <use xlink:href="#dot" transform="translate(142.133,-3.4)" />   <use xlink:href="#dot" transform="translate(142.133,-3.4)" />   <use xlink:href="#dot" transform="translate(142.1,-3.416)" />   <use xlink:href="#dot" transform="translate(142.133,-3.4)" />   <use xlink:href="#dot" transform="translate(142.133,-3.4)" />   <use xlink:href="#dot" transform="translate(142.133,-3.4)" />   <use xlink:href="#dot" transform="translate(142.133,-3.4)" />   <use xlink:href="#dot" transform="translate(142.133,-3.4)" />   <use xlink:href="#dot" transform="translate(142.133,-3.4)" />   <use xlink:href="#dot" transform="translate(142.133,-3.4)" />   <use xlink:href="#dot" transform="translate(142.133,-3.4)" />   <use xlink:href="#dot" transform="translate(142.133,-3.4)" />   <use xlink:href="#dot" transform="translate(142.133,-3.4)" />   <use xlink:href="#dot" transform="translate(142.133,-3.4)" />   <use xlink:href="#dot" transform="translate(142.133,-3.4)" />   <use xlink:href="#dot" transform="translate(142.133,-3.4)" />   <use xlink:href="#dot" transform="translate(142.133,-3.4)" />   <use xlink:href="#dot" transform="translate(142.133,-3.4)" />   <use xlink:href="#dot" transform="translate(142.133,-3.4)" />   <use xlink:href="#dot" transform="translate(142.133,-3.4)" />   <use xlink:href="#dot" transform="translate(142.1,-3.416)" />   <use xlink:href="#dot" transform="translate(142.133,-3.4)" />   <use xlink:href="#dot" transform="translate(142.133,-3.4)" />   <use xlink:href="#dot" transform="translate(142.133,-3.4)" />   <use xlink:href="#dot" transform="translate(142.133,-3.4)" />   <use xlink:href="#dot" transform="translate(142.383,-3.383)" />   <use xlink:href="#dot" transform="translate(142.133,-3.4)" />   <use xlink:href="#dot" transform="translate(142.133,-3.4)" />   <use xlink:href="#dot" transform="translate(142.133,-3.4)" />   <use xlink:href="#dot" transform="translate(142.133,-3.4)" />   <use xlink:href="#dot" transform="translate(142.133,-3.4)" />   <use xlink:href="#dot" transform="translate(142.1,-3.416)" />   <use xlink:href="#dot" transform="translate(142.133,-3.4)" />   <use xlink:href="#dot" transform="translate(142.133,-3.4)" />   <use xlink:href="#dot" transform="translate(142.133,-3.4)" />   <use xlink:href="#dot" transform="translate(142.133,-3.4)" />   <use xlink:href="#dot" transform="translate(142.133,-3.4)" />   <use xlink:href="#dot" transform="translate(142.133,-3.4)" />   <use xlink:href="#dot" transform="translate(142.133,-3.4)" />   <use xlink:href="#dot" transform="translate(142.133,-3.4)" />   <use xlink:href="#dot" transform="translate(142.133,-3.4)" />   <use xlink:href="#dot" transform="translate(142.133,-3.4)" />   <use xlink:href="#dot" transform="translate(142.133,-3.4)" />   <use xlink:href="#dot" transform="translate(142.133,-3.4)" />   <use xlink:href="#dot" transform="translate(142.133,-3.4)" />   <use xlink:href="#dot" transform="translate(142.133,-3.4)" />   <use xlink:href="#dot" transform="translate(142.133,-3.4)" />   <use xlink:href="#dot" transform="translate(142.133,-3.4)" />   <use xlink:href="#dot" transform="translate(142.133,-3.4)" />   <use xlink:href="#dot" transform="translate(142.133,-3.4)" />   <use xlink:href="#dot" transform="translate(142.133,-3.4)" />   <use xlink:href="#dot" transform="translate(142.133,-3.4)" />   <use xlink:href="#dot" transform="translate(142.133,-3.4)" />   <use xlink:href="#dot" transform="translate(142.133,-3.4)" />   <use xlink:href="#dot" transform="translate(142.133,-3.4)" />   <use xlink:href="#dot" transform="translate(142.133,-3.4)" />   <use xlink:href="#dot" transform="translate(142.133,-3.4)" />   <use xlink:href="#dot" transform="translate(142.133,-3.4)" />   <use xlink:href="#dot" transform="translate(142.133,-3.4)" />   <use xlink:href="#dot" transform="translate(142.133,-3.4)" />   <use xlink:href="#dot" transform="translate(142.133,-3.4)" />   <use xlink:href="#dot" transform="translate(142.133,-3.4)" />   <use xlink:href="#dot" transform="translate(138.716,-4)" />   <use xlink:href="#dot" transform="translate(138.716,-4)" />   <use xlink:href="#dot" transform="translate(138.716,-4)" />   <use xlink:href="#dot" transform="translate(138.716,-4)" />   <use xlink:href="#dot" transform="translate(138.716,-4)" />   <use xlink:href="#dot" transform="translate(138.716,-4)" />   <use xlink:href="#dot" transform="translate(138.716,-4)" />   <use xlink:href="#dot" transform="translate(145.233,-5.75)" />   <use xlink:href="#dot" transform="translate(145.233,-5.75)" />   <use xlink:href="#dot" transform="translate(141.116,-5.016)" />   <use xlink:href="#dot" transform="translate(145.233,-5.75)" />   <use xlink:href="#dot" transform="translate(145.233,-5.75)" />   <use xlink:href="#dot" transform="translate(145.233,-5.75)" />   <use xlink:href="#dot" transform="translate(141.116,-5.016)" />   <use xlink:href="#dot" transform="translate(141.116,-5.016)" />   <use xlink:href="#dot" transform="translate(145.233,-5.75)" />   <use xlink:href="#dot" transform="translate(141.416,-5.116)" />   <use xlink:href="#dot" transform="translate(145.233,-5.75)" />   <use xlink:href="#dot" transform="translate(141.416,-5.116)" />   <use xlink:href="#dot" transform="translate(141.116,-5.016)" />   <use xlink:href="#dot" transform="translate(145.233,-5.75)" />   <use xlink:href="#dot" transform="translate(145.233,-5.75)" />   <use xlink:href="#dot" transform="translate(145.233,-5.75)" />   <use xlink:href="#dot" transform="translate(141.416,-5.116)" />   <use xlink:href="#dot" transform="translate(145.233,-5.75)" />   <use xlink:href="#dot" transform="translate(145.233,-5.75)" />   <use xlink:href="#dot" transform="translate(145.233,-5.75)" />   <use xlink:href="#dot" transform="translate(145.233,-5.75)" />   <use xlink:href="#dot" transform="translate(145.233,-5.75)" />   <use xlink:href="#dot" transform="translate(141.416,-5.116)" />   <use xlink:href="#dot" transform="translate(145.233,-5.75)" />   <use xlink:href="#dot" transform="translate(145.233,-5.75)" />   <use xlink:href="#dot" transform="translate(141.7,-5.1)" />   <use xlink:href="#dot" transform="translate(141.616,-5.133)" />   <use xlink:href="#dot" transform="translate(141.416,-5.116)" />   <use xlink:href="#dot" transform="translate(141.7,-5.1)" />   <use xlink:href="#dot" transform="translate(141.416,-5.116)" />   <use xlink:href="#dot" transform="translate(141.7,-5.1)" />   <use xlink:href="#dot" transform="translate(141.7,-5.1)" />   <use xlink:href="#dot" transform="translate(141.7,-5.1)" />   <use xlink:href="#dot" transform="translate(141.7,-5.1)" />   <use xlink:href="#dot" transform="translate(141.7,-5.1)" />   <use xlink:href="#dot" transform="translate(141.7,-5.1)" />   <use xlink:href="#dot" transform="translate(141.416,-5.116)" />   <use xlink:href="#dot" transform="translate(141.7,-5.1)" />   <use xlink:href="#dot" transform="translate(141.416,-5.116)" />   <use xlink:href="#dot" transform="translate(141.433,-4.783)" />   <use xlink:href="#dot" transform="translate(141.433,-4.783)" />   <use xlink:href="#dot" transform="translate(141.433,-4.783)" />   <use xlink:href="#dot" transform="translate(141.433,-4.783)" />   <use xlink:href="#dot" transform="translate(141.433,-4.783)" />   <use xlink:href="#dot" transform="translate(141.433,-4.783)" />   <use xlink:href="#dot" transform="translate(141.433,-4.783)" />   <use xlink:href="#dot" transform="translate(141.433,-4.783)" />   <use xlink:href="#dot" transform="translate(141.433,-4.783)" />   <use xlink:href="#dot" transform="translate(141.433,-4.783)" />   <use xlink:href="#dot" transform="translate(141.433,-4.783)" />   <use xlink:href="#dot" transform="translate(146.673096,-7.3481)" />   <use xlink:href="#dot" transform="translate(146.673096,-7.3481)" />   <use xlink:href="#dot" transform="translate(146.673096,-7.3481)" />   <use xlink:href="#dot" transform="translate(146.673096,-7.3481)" />   <use xlink:href="#dot" transform="translate(146.673096,-7.3481)" />   <use xlink:href="#dot" transform="translate(146.673096,-7.3481)" />   <use xlink:href="#dot" transform="translate(146.673096,-7.3481)" />   <use xlink:href="#dot" transform="translate(146.673096,-7.3481)" />   <use xlink:href="#dot" transform="translate(146.673096,-7.3481)" />   <use xlink:href="#dot" transform="translate(146.673096,-7.3481)" />   <use xlink:href="#dot" transform="translate(146.673096,-7.3481)" />   <use xlink:href="#dot" transform="translate(146.673096,-7.3481)" />   <use xlink:href="#dot" transform="translate(146.673096,-7.3481)" />   <use xlink:href="#dot" transform="translate(146.673096,-7.3481)" />   <use xlink:href="#dot" transform="translate(146.673096,-7.3481)" />   <use xlink:href="#dot" transform="translate(146.673096,-7.3481)" />   <use xlink:href="#dot" transform="translate(146.673096,-7.3481)" />   <use xlink:href="#dot" transform="translate(146.673096,-7.3481)" />   <use xlink:href="#dot" transform="translate(146.673096,-7.3481)" />   <use xlink:href="#dot" transform="translate(146.673096,-7.3481)" />   <use xlink:href="#dot" transform="translate(146.673096,-7.3481)" />   <use xlink:href="#dot" transform="translate(146.673096,-7.3481)" />   <use xlink:href="#dot" transform="translate(146.673096,-7.3481)" />   <use xlink:href="#dot" transform="translate(146.673096,-7.3481)" />   <use xlink:href="#dot" transform="translate(146.673096,-7.3481)" />   <use xlink:href="#dot" transform="translate(146.673096,-7.3481)" />   <use xlink:href="#dot" transform="translate(146.673096,-7.3481)" />   <use xlink:href="#dot" transform="translate(146.673096,-7.3481)" />   <use xlink:href="#dot" transform="translate(146.673096,-7.3481)" />   <use xlink:href="#dot" transform="translate(146.673096,-7.3481)" />   <use xlink:href="#dot" transform="translate(146.673096,-7.3481)" />   <use xlink:href="#dot" transform="translate(146.673096,-7.3481)" />   <use xlink:href="#dot" transform="translate(146.673096,-7.3481)" />   <use xlink:href="#dot" transform="translate(146.673096,-7.3481)" />   <use xlink:href="#dot" transform="translate(146.673096,-7.3481)" />   <use xlink:href="#dot" transform="translate(146.673096,-7.3481)" />   <use xlink:href="#dot" transform="translate(146.673096,-7.3481)" />   <use xlink:href="#dot" transform="translate(142.15,-3.416)" />   <use xlink:href="#dot" transform="translate(141.583,-5.166)" />   <use xlink:href="#dot" transform="translate(142.15,-3.416)" />   <use xlink:href="#dot" transform="translate(141.583,-5.166)" />   <use xlink:href="#dot" transform="translate(141.583,-5.166)" />   <use xlink:href="#dot" transform="translate(142.15,-3.416)" />   <use xlink:href="#dot" transform="translate(141.583,-5.166)" />   <use xlink:href="#dot" transform="translate(142.783,-6.25)" /><polygon class="region" points="133.9833,-1.4833 133.933,-1.1 134,-1.116 142.383,-3.383 147.41563144335,-6.4143727247327 149.383,-9.883 142.583,-6.94166 137.133,-4.40111 133.9833,-1.4833 " />
		  </g>
		</svg>