<?xml version="1.0" encoding="UTF-8"?>
	<svg xmlns:xlink="http://www.w3.org/1999/xlink" 
	xmlns="http://www.w3.org/2000/svg" 
	width="360px" height="180px">
	   <style type="text/css">
		  <![CDATA[     
		  .region 
		  { 
			fill:blue; 
			opacity:0.4; 
			stroke:blue;
		  }
		  ]]>
	   </style>

	<circle id="dot" x="-2" y="-2" r="2" style="stroke:none; stroke-width:0; fill:black; opacity:0.7;"/>


	 <image x="0" y="0" width="360" height="180" xlink:href="map.jpg"/>

 
	 <g transform="translate(180,90) scale(1,-1)">   <use xlink:href="#dot" transform="translate(-113.55,29.583333)" />   <use xlink:href="#dot" transform="translate(-113.583333,29.566667)" />   <use xlink:href="#dot" transform="translate(-113.55,29.583333)" />   <use xlink:href="#dot" transform="translate(-113.55,29.583333)" />   <use xlink:href="#dot" transform="translate(-113.55,29.583333)" />   <use xlink:href="#dot" transform="translate(-113.583333,29.566667)" />   <use xlink:href="#dot" transform="translate(-113.55,29.583333)" />   <use xlink:href="#dot" transform="translate(-113.55,29.583333)" />   <use xlink:href="#dot" transform="translate(-113.55,29.583333)" />   <use xlink:href="#dot" transform="translate(-113.55,29.583333)" />   <use xlink:href="#dot" transform="translate(-113.55,29.583333)" />   <use xlink:href="#dot" transform="translate(-113.55,29.583333)" />   <use xlink:href="#dot" transform="translate(-113.55,29.583333)" />   <use xlink:href="#dot" transform="translate(-113.55,29.583333)" />   <use xlink:href="#dot" transform="translate(-113.55,29.583333)" />   <use xlink:href="#dot" transform="translate(-113.55,29.583333)" />   <use xlink:href="#dot" transform="translate(-113.55,29.583333)" />   <use xlink:href="#dot" transform="translate(-113.55,29.583333)" />   <use xlink:href="#dot" transform="translate(-113.583333,29.566667)" />   <use xlink:href="#dot" transform="translate(-113.55,29.583333)" />   <use xlink:href="#dot" transform="translate(-113.55,29.583333)" />   <use xlink:href="#dot" transform="translate(-113.583333,29.566667)" />   <use xlink:href="#dot" transform="translate(-113.55,29.583333)" />   <use xlink:href="#dot" transform="translate(-113.55,29.583333)" />   <use xlink:href="#dot" transform="translate(-113.55,29.583333)" />   <use xlink:href="#dot" transform="translate(-113.55,29.583333)" />   <use xlink:href="#dot" transform="translate(-113.55,29.583333)" />   <use xlink:href="#dot" transform="translate(-113.583333,29.566667)" />   <use xlink:href="#dot" transform="translate(-113.55,29.583333)" />   <use xlink:href="#dot" transform="translate(-113.55,29.583333)" />   <use xlink:href="#dot" transform="translate(-113.583333,29.566667)" />   <use xlink:href="#dot" transform="translate(-113.55,29.583333)" />   <use xlink:href="#dot" transform="translate(-113.55,29.583333)" />   <use xlink:href="#dot" transform="translate(-113.583333,29.566667)" />   <use xlink:href="#dot" transform="translate(-113.583333,29.566667)" />   <use xlink:href="#dot" transform="translate(-113.55,29.583333)" />   <use xlink:href="#dot" transform="translate(-113.55,29.583333)" />   <use xlink:href="#dot" transform="translate(-113.55,29.583333)" />   <use xlink:href="#dot" transform="translate(-113.583333,29.566667)" />   <use xlink:href="#dot" transform="translate(-113.55,29.583333)" />   <use xlink:href="#dot" transform="translate(-113.55,29.583333)" />   <use xlink:href="#dot" transform="translate(-113.55,29.583333)" />   <use xlink:href="#dot" transform="translate(-113.55,29.583333)" />   <use xlink:href="#dot" transform="translate(-113.559722,29.564444)" />   <use xlink:href="#dot" transform="translate(-113.559722,29.564444)" />   <use xlink:href="#dot" transform="translate(-113.58333,29.56666)" />   <use xlink:href="#dot" transform="translate(-113.559722,29.564444)" />   <use xlink:href="#dot" transform="translate(-113.583333,29.566667)" />   <use xlink:href="#dot" transform="translate(-113.559722,29.564444)" />   <use xlink:href="#dot" transform="translate(-113.58333,29.56666)" />   <use xlink:href="#dot" transform="translate(-113.559722,29.564444)" />   <use xlink:href="#dot" transform="translate(-113.58333,29.56666)" />   <use xlink:href="#dot" transform="translate(-112.875,28.666944)" />   <use xlink:href="#dot" transform="translate(-112.875,28.666944)" />   <use xlink:href="#dot" transform="translate(-112.85,28.633333)" />   <use xlink:href="#dot" transform="translate(-112.85,28.633333)" />   <use xlink:href="#dot" transform="translate(-112.85,28.633333)" />   <use xlink:href="#dot" transform="translate(-112.85,28.633333)" />   <use xlink:href="#dot" transform="translate(-112.85,28.633333)" />   <use xlink:href="#dot" transform="translate(-112.85,28.633333)" />   <use xlink:href="#dot" transform="translate(-112.85,28.633333)" />   <use xlink:href="#dot" transform="translate(-113.333333,29.3)" />   <use xlink:href="#dot" transform="translate(-113.583333,29.55)" />   <use xlink:href="#dot" transform="translate(-113.583333,29.55)" />   <use xlink:href="#dot" transform="translate(-113.533333,29.516667)" />   <use xlink:href="#dot" transform="translate(-113.533333,29.516667)" />   <use xlink:href="#dot" transform="translate(-113.533333,29.516667)" />   <use xlink:href="#dot" transform="translate(-113.533333,29.516667)" />   <use xlink:href="#dot" transform="translate(-113.333333,29.3)" /><polygon class="region" points="-112.85,28.633333 -113.583333,29.55 -113.583333,29.566667 -113.55,29.583333 -113.333333,29.3 -112.85,28.633333 " />
		  </g>
		</svg>