<?xml version="1.0" encoding="UTF-8"?>
	<svg xmlns:xlink="http://www.w3.org/1999/xlink" 
	xmlns="http://www.w3.org/2000/svg" 
	width="360px" height="180px">
	   <style type="text/css">
		  <![CDATA[     
		  .region 
		  { 
			fill:blue; 
			opacity:0.4; 
			stroke:blue;
		  }
		  ]]>
	   </style>

	<circle id="dot" x="-2" y="-2" r="2" style="stroke:none; stroke-width:0; fill:black; opacity:0.7;"/>


	 <image x="0" y="0" width="360" height="180" xlink:href="map.jpg"/>

 
	 <g transform="translate(180,90) scale(1,-1)">   <use xlink:href="#dot" transform="translate(-111.873333,27.423611)" />   <use xlink:href="#dot" transform="translate(-111.873333,27.423611)" />   <use xlink:href="#dot" transform="translate(-111.873333,27.423611)" />   <use xlink:href="#dot" transform="translate(-111.873333,27.423611)" />   <use xlink:href="#dot" transform="translate(-111.873333,27.423611)" />   <use xlink:href="#dot" transform="translate(-111.873333,27.423611)" />   <use xlink:href="#dot" transform="translate(-111.873333,27.423611)" />   <use xlink:href="#dot" transform="translate(-111.873333,27.423611)" />   <use xlink:href="#dot" transform="translate(-111.873333,27.423611)" />   <use xlink:href="#dot" transform="translate(-111.873333,27.423611)" />   <use xlink:href="#dot" transform="translate(-111.873333,27.423611)" />   <use xlink:href="#dot" transform="translate(-111.873333,27.423611)" />   <use xlink:href="#dot" transform="translate(-111.873333,27.423611)" />   <use xlink:href="#dot" transform="translate(-111.873333,27.423611)" />   <use xlink:href="#dot" transform="translate(-111.873333,27.423611)" />   <use xlink:href="#dot" transform="translate(-111.873333,27.423611)" />   <use xlink:href="#dot" transform="translate(-111.873333,27.423611)" />   <use xlink:href="#dot" transform="translate(-111.873333,27.423611)" />   <use xlink:href="#dot" transform="translate(-111.873333,27.423611)" />   <use xlink:href="#dot" transform="translate(-111.873333,27.423611)" />   <use xlink:href="#dot" transform="translate(-111.873333,27.423611)" />   <use xlink:href="#dot" transform="translate(-111.885833,27.431667)" />   <use xlink:href="#dot" transform="translate(-111.885833,27.431667)" />   <use xlink:href="#dot" transform="translate(-111.885833,27.431667)" />   <use xlink:href="#dot" transform="translate(-111.885833,27.431667)" />   <use xlink:href="#dot" transform="translate(-111.885833,27.431667)" />   <use xlink:href="#dot" transform="translate(-111.885833,27.431667)" />   <use xlink:href="#dot" transform="translate(-111.882778,27.441389)" />   <use xlink:href="#dot" transform="translate(-111.885833,27.431667)" />   <use xlink:href="#dot" transform="translate(-111.882778,27.441389)" />   <use xlink:href="#dot" transform="translate(-111.882778,27.441389)" />   <use xlink:href="#dot" transform="translate(-111.882778,27.441389)" />   <use xlink:href="#dot" transform="translate(-111.885833,27.431667)" />   <use xlink:href="#dot" transform="translate(-111.882778,27.441389)" />   <use xlink:href="#dot" transform="translate(-111.885833,27.431667)" />   <use xlink:href="#dot" transform="translate(-111.882778,27.441389)" />   <use xlink:href="#dot" transform="translate(-111.882778,27.441389)" />   <use xlink:href="#dot" transform="translate(-111.885833,27.431667)" />   <use xlink:href="#dot" transform="translate(-111.885833,27.431667)" />   <use xlink:href="#dot" transform="translate(-111.882778,27.441389)" />   <use xlink:href="#dot" transform="translate(-111.885833,27.431667)" />   <use xlink:href="#dot" transform="translate(-111.882778,27.441389)" />   <use xlink:href="#dot" transform="translate(-111.882778,27.441389)" />   <use xlink:href="#dot" transform="translate(-111.882778,27.441389)" />   <use xlink:href="#dot" transform="translate(-111.882778,27.441389)" />   <use xlink:href="#dot" transform="translate(-111.885833,27.431667)" />   <use xlink:href="#dot" transform="translate(-111.882778,27.441389)" />   <use xlink:href="#dot" transform="translate(-111.882778,27.441389)" />   <use xlink:href="#dot" transform="translate(-111.882778,27.441389)" />   <use xlink:href="#dot" transform="translate(-111.885833,27.431667)" />   <use xlink:href="#dot" transform="translate(-111.882778,27.441389)" />   <use xlink:href="#dot" transform="translate(-111.882778,27.441389)" />   <use xlink:href="#dot" transform="translate(-111.885833,27.431667)" />   <use xlink:href="#dot" transform="translate(-111.882778,27.441389)" />   <use xlink:href="#dot" transform="translate(-111.882778,27.441389)" />   <use xlink:href="#dot" transform="translate(-111.882778,27.441389)" />   <use xlink:href="#dot" transform="translate(-111.882778,27.441389)" />   <use xlink:href="#dot" transform="translate(-111.9,27.2)" />   <use xlink:href="#dot" transform="translate(-111.9,27.2)" />   <use xlink:href="#dot" transform="translate(-111.9,27.2)" />   <use xlink:href="#dot" transform="translate(-111.9,27.2)" />   <use xlink:href="#dot" transform="translate(-111.9,27.35)" />   <use xlink:href="#dot" transform="translate(-111.9,27.35)" />   <use xlink:href="#dot" transform="translate(-111.9,27.35)" />   <use xlink:href="#dot" transform="translate(-111.958333,27.45)" />   <use xlink:href="#dot" transform="translate(-111.9,27.35)" />   <use xlink:href="#dot" transform="translate(-111.958333,27.45)" />   <use xlink:href="#dot" transform="translate(-111.9,27.35)" />   <use xlink:href="#dot" transform="translate(-111.9,27.35)" />   <use xlink:href="#dot" transform="translate(-111.9,27.35)" />   <use xlink:href="#dot" transform="translate(-111.9,27.35)" />   <use xlink:href="#dot" transform="translate(-111.9,27.35)" />   <use xlink:href="#dot" transform="translate(-111.9,27.35)" />   <use xlink:href="#dot" transform="translate(-111.9,27.35)" />   <use xlink:href="#dot" transform="translate(-111.9,27.35)" />   <use xlink:href="#dot" transform="translate(-111.9,27.35)" />   <use xlink:href="#dot" transform="translate(-111.9,27.35)" />   <use xlink:href="#dot" transform="translate(-111.9,27.35)" />   <use xlink:href="#dot" transform="translate(-111.9,27.35)" />   <use xlink:href="#dot" transform="translate(-111.9,27.35)" />   <use xlink:href="#dot" transform="translate(-111.9,27.35)" />   <use xlink:href="#dot" transform="translate(-111.9,27.35)" />   <use xlink:href="#dot" transform="translate(-111.9,27.35)" />   <use xlink:href="#dot" transform="translate(-111.9,27.35)" />   <use xlink:href="#dot" transform="translate(-111.9,27.35)" />   <use xlink:href="#dot" transform="translate(-111.9,27.35)" />   <use xlink:href="#dot" transform="translate(-111.9,27.35)" />   <use xlink:href="#dot" transform="translate(-111.9,27.35)" />   <use xlink:href="#dot" transform="translate(-111.9,27.35)" />   <use xlink:href="#dot" transform="translate(-111.9,27.35)" />   <use xlink:href="#dot" transform="translate(-111.9,27.35)" />   <use xlink:href="#dot" transform="translate(-111.9,27.35)" />   <use xlink:href="#dot" transform="translate(-111.9,27.35)" />   <use xlink:href="#dot" transform="translate(-111.9,27.35)" />   <use xlink:href="#dot" transform="translate(-111.9,27.35)" />   <use xlink:href="#dot" transform="translate(-111.9,27.35)" />   <use xlink:href="#dot" transform="translate(-111.9,27.35)" />   <use xlink:href="#dot" transform="translate(-111.9,27.35)" />   <use xlink:href="#dot" transform="translate(-111.9,27.35)" />   <use xlink:href="#dot" transform="translate(-111.9,27.35)" />   <use xlink:href="#dot" transform="translate(-111.9,27.35)" />   <use xlink:href="#dot" transform="translate(-111.9,27.35)" />   <use xlink:href="#dot" transform="translate(-111.9,27.35)" /><polygon class="region" points="-111.9,27.2 -111.958333,27.45 -111.882778,27.441389 -111.873333,27.423611 -111.9,27.2 " />
		  </g>
		</svg>