<?xml version="1.0" encoding="UTF-8"?>
	<svg xmlns:xlink="http://www.w3.org/1999/xlink" 
	xmlns="http://www.w3.org/2000/svg" 
	width="360px" height="180px">
	   <style type="text/css">
		  <![CDATA[     
		  .region 
		  { 
			fill:blue; 
			opacity:0.4; 
			stroke:blue;
		  }
		  ]]>
	   </style>

	<circle id="dot" x="-2" y="-2" r="2" style="stroke:none; stroke-width:0; fill:black; opacity:0.7;"/>


	 <image x="0" y="0" width="360" height="180" xlink:href="map.jpg"/>

 
	 <g transform="translate(180,90) scale(1,-1)">   <use xlink:href="#dot" transform="translate(-107.892101,34.721462)" />   <use xlink:href="#dot" transform="translate(-107.892085,34.721104)" />   <use xlink:href="#dot" transform="translate(-107.898986,34.728621)" />   <use xlink:href="#dot" transform="translate(-107.892298,34.722279)" />   <use xlink:href="#dot" transform="translate(-107.931462,34.73839)" />   <use xlink:href="#dot" transform="translate(-107.892103,34.721701)" />   <use xlink:href="#dot" transform="translate(-107.892259,34.722137)" />   <use xlink:href="#dot" transform="translate(-107.89869,34.722031)" />   <use xlink:href="#dot" transform="translate(-107.899096,34.728824)" />   <use xlink:href="#dot" transform="translate(-107.89266,34.723378)" />   <use xlink:href="#dot" transform="translate(-107.892525,34.723046)" />   <use xlink:href="#dot" transform="translate(-107.892067,34.720941)" />   <use xlink:href="#dot" transform="translate(-107.892541,34.723217)" />   <use xlink:href="#dot" transform="translate(-107.899128,34.728904)" />   <use xlink:href="#dot" transform="translate(-117.84316,36.73079)" />   <use xlink:href="#dot" transform="translate(-117.84316,36.73079)" />   <use xlink:href="#dot" transform="translate(-117.84316,36.73079)" />   <use xlink:href="#dot" transform="translate(-117.66538,37.11206)" />   <use xlink:href="#dot" transform="translate(-117.84316,36.73079)" />   <use xlink:href="#dot" transform="translate(-117.84316,36.73079)" />   <use xlink:href="#dot" transform="translate(-117.825149,36.695944)" />   <use xlink:href="#dot" transform="translate(-117.66538,37.11206)" />   <use xlink:href="#dot" transform="translate(-117.84316,36.73079)" />   <use xlink:href="#dot" transform="translate(-117.84316,36.73079)" />   <use xlink:href="#dot" transform="translate(-113.84293,40.00742)" />   <use xlink:href="#dot" transform="translate(-113.84293,40.00742)" />   <use xlink:href="#dot" transform="translate(-113.84293,40.00742)" />   <use xlink:href="#dot" transform="translate(-113.84293,40.00742)" />   <use xlink:href="#dot" transform="translate(-113.84293,40.00742)" />   <use xlink:href="#dot" transform="translate(-117.10929,36.9545)" />   <use xlink:href="#dot" transform="translate(-113.843,40.00957)" />   <use xlink:href="#dot" transform="translate(-113.843,40.00957)" />   <use xlink:href="#dot" transform="translate(-113.83337,40.01431)" />   <use xlink:href="#dot" transform="translate(-113.83337,40.01431)" />   <use xlink:href="#dot" transform="translate(-113.84293,40.00742)" />   <use xlink:href="#dot" transform="translate(-107.901112,34.720606)" />   <use xlink:href="#dot" transform="translate(-113.843,40.00957)" />   <use xlink:href="#dot" transform="translate(-113.843,40.00957)" />   <use xlink:href="#dot" transform="translate(-113.83281,40.01363)" />   <use xlink:href="#dot" transform="translate(-113.84293,40.00742)" />   <use xlink:href="#dot" transform="translate(-113.84293,40.00742)" />   <use xlink:href="#dot" transform="translate(-117.314243,38.64773)" />   <use xlink:href="#dot" transform="translate(-117.61967,36.48555)" />   <use xlink:href="#dot" transform="translate(-113.84293,40.00742)" />   <use xlink:href="#dot" transform="translate(-107.900441,34.721554)" />   <use xlink:href="#dot" transform="translate(-113.84293,40.00742)" />   <use xlink:href="#dot" transform="translate(-113.84293,40.00742)" />   <use xlink:href="#dot" transform="translate(-117.313523,38.64814)" />   <use xlink:href="#dot" transform="translate(-113.84293,40.00742)" />   <use xlink:href="#dot" transform="translate(-113.843,40.00957)" />   <use xlink:href="#dot" transform="translate(-113.84293,40.00742)" />   <use xlink:href="#dot" transform="translate(-113.843,40.00957)" />   <use xlink:href="#dot" transform="translate(-113.84293,40.00742)" />   <use xlink:href="#dot" transform="translate(-113.83337,40.01431)" />   <use xlink:href="#dot" transform="translate(-113.843,40.00957)" />   <use xlink:href="#dot" transform="translate(-113.843,40.00957)" />   <use xlink:href="#dot" transform="translate(-113.84293,40.00742)" />   <use xlink:href="#dot" transform="translate(-113.843,40.00957)" />   <use xlink:href="#dot" transform="translate(-113.83281,40.01363)" />   <use xlink:href="#dot" transform="translate(-113.84293,40.00742)" />   <use xlink:href="#dot" transform="translate(-113.843,40.00957)" />   <use xlink:href="#dot" transform="translate(-113.84293,40.00742)" />   <use xlink:href="#dot" transform="translate(-113.83281,40.01363)" />   <use xlink:href="#dot" transform="translate(-113.83337,40.01431)" />   <use xlink:href="#dot" transform="translate(-113.843,40.00957)" />   <use xlink:href="#dot" transform="translate(-113.843,40.00957)" />   <use xlink:href="#dot" transform="translate(-113.84293,40.00742)" />   <use xlink:href="#dot" transform="translate(-113.84293,40.00742)" />   <use xlink:href="#dot" transform="translate(-113.843,40.00957)" />   <use xlink:href="#dot" transform="translate(-107.900762,34.721076)" />   <use xlink:href="#dot" transform="translate(-113.843,40.00957)" />   <use xlink:href="#dot" transform="translate(-113.843,40.00957)" />   <use xlink:href="#dot" transform="translate(-117.10929,36.9545)" />   <use xlink:href="#dot" transform="translate(-113.84293,40.00742)" />   <use xlink:href="#dot" transform="translate(-113.84293,40.00742)" />   <use xlink:href="#dot" transform="translate(-113.843,40.00957)" />   <use xlink:href="#dot" transform="translate(-113.84293,40.00742)" />   <use xlink:href="#dot" transform="translate(-113.84293,40.00742)" />   <use xlink:href="#dot" transform="translate(-113.84293,40.00742)" />   <use xlink:href="#dot" transform="translate(-113.84293,40.00742)" />   <use xlink:href="#dot" transform="translate(-113.843,40.00957)" />   <use xlink:href="#dot" transform="translate(-113.843,40.00957)" />   <use xlink:href="#dot" transform="translate(-113.83337,40.01431)" />   <use xlink:href="#dot" transform="translate(-113.843,40.00957)" />   <use xlink:href="#dot" transform="translate(-113.83337,40.01431)" />   <use xlink:href="#dot" transform="translate(-117.10929,36.9545)" />   <use xlink:href="#dot" transform="translate(-117.10929,36.9545)" />   <use xlink:href="#dot" transform="translate(-113.84293,40.00742)" />   <use xlink:href="#dot" transform="translate(-113.83281,40.01363)" />   <use xlink:href="#dot" transform="translate(-113.84293,40.00742)" />   <use xlink:href="#dot" transform="translate(-113.84293,40.00742)" />   <use xlink:href="#dot" transform="translate(-113.843,40.00957)" />   <use xlink:href="#dot" transform="translate(-113.84293,40.00742)" />   <use xlink:href="#dot" transform="translate(-113.84293,40.00742)" />   <use xlink:href="#dot" transform="translate(-113.84293,40.00742)" />   <use xlink:href="#dot" transform="translate(-113.843,40.00957)" />   <use xlink:href="#dot" transform="translate(-113.83337,40.01431)" />   <use xlink:href="#dot" transform="translate(-113.843,40.00957)" />   <use xlink:href="#dot" transform="translate(-113.843,40.00957)" />   <use xlink:href="#dot" transform="translate(-113.843,40.00957)" />   <use xlink:href="#dot" transform="translate(-117.313768,38.647895)" />   <use xlink:href="#dot" transform="translate(-113.84293,40.00742)" />   <use xlink:href="#dot" transform="translate(-113.84293,40.00742)" />   <use xlink:href="#dot" transform="translate(-113.84293,40.00742)" />   <use xlink:href="#dot" transform="translate(-117.313852,38.64797)" />   <use xlink:href="#dot" transform="translate(-113.84293,40.00742)" />   <use xlink:href="#dot" transform="translate(-113.84293,40.00742)" />   <use xlink:href="#dot" transform="translate(-113.843,40.00957)" />   <use xlink:href="#dot" transform="translate(-113.83337,40.01431)" />   <use xlink:href="#dot" transform="translate(-117.10929,36.9545)" />   <use xlink:href="#dot" transform="translate(-113.843,40.00957)" />   <use xlink:href="#dot" transform="translate(-117.10929,36.9545)" />   <use xlink:href="#dot" transform="translate(-113.84293,40.00742)" />   <use xlink:href="#dot" transform="translate(-113.843,40.00957)" />   <use xlink:href="#dot" transform="translate(-113.843,40.00957)" />   <use xlink:href="#dot" transform="translate(-113.84293,40.00742)" />   <use xlink:href="#dot" transform="translate(-113.843,40.00957)" />   <use xlink:href="#dot" transform="translate(-113.84293,40.00742)" />   <use xlink:href="#dot" transform="translate(-113.84293,40.00742)" />   <use xlink:href="#dot" transform="translate(-113.84293,40.00742)" />   <use xlink:href="#dot" transform="translate(-113.843,40.00957)" />   <use xlink:href="#dot" transform="translate(-113.84293,40.00742)" />   <use xlink:href="#dot" transform="translate(-113.84293,40.00742)" />   <use xlink:href="#dot" transform="translate(-113.843,40.00957)" />   <use xlink:href="#dot" transform="translate(-113.84293,40.00742)" />   <use xlink:href="#dot" transform="translate(-113.84293,40.00742)" />   <use xlink:href="#dot" transform="translate(-113.84293,40.00742)" />   <use xlink:href="#dot" transform="translate(-113.843,40.00957)" />   <use xlink:href="#dot" transform="translate(-117.10929,36.9545)" />   <use xlink:href="#dot" transform="translate(-113.83281,40.01363)" />   <use xlink:href="#dot" transform="translate(-117.10929,36.9545)" />   <use xlink:href="#dot" transform="translate(-113.84293,40.00742)" />   <use xlink:href="#dot" transform="translate(-113.84293,40.00742)" />   <use xlink:href="#dot" transform="translate(-115.549318,40.02677)" />   <use xlink:href="#dot" transform="translate(-107.819604,34.945221)" />   <use xlink:href="#dot" transform="translate(-107.818819,34.94303)" />   <use xlink:href="#dot" transform="translate(-107.819045,34.944829)" />   <use xlink:href="#dot" transform="translate(-107.819,34.945)" />   <use xlink:href="#dot" transform="translate(-107.819073,34.944713)" />   <use xlink:href="#dot" transform="translate(-107.905415,34.817997)" />   <use xlink:href="#dot" transform="translate(-107.819529,34.945209)" />   <use xlink:href="#dot" transform="translate(-107.81938,34.94517)" />   <use xlink:href="#dot" transform="translate(-113.32113,41.9554)" />   <use xlink:href="#dot" transform="translate(-113.32113,41.9554)" />   <use xlink:href="#dot" transform="translate(-113.32113,41.9554)" />   <use xlink:href="#dot" transform="translate(-113.32113,41.9554)" />   <use xlink:href="#dot" transform="translate(-113.32113,41.9554)" />   <use xlink:href="#dot" transform="translate(-113.32113,41.9554)" />   <use xlink:href="#dot" transform="translate(-117.827177,34.147506)" />   <use xlink:href="#dot" transform="translate(-105.961905,35.691568)" />   <use xlink:href="#dot" transform="translate(-117.9731,37.05201)" />   <use xlink:href="#dot" transform="translate(-117.62538,36.48668)" />   <use xlink:href="#dot" transform="translate(-117.62538,36.48668)" />   <use xlink:href="#dot" transform="translate(-117.9731,37.05201)" />   <use xlink:href="#dot" transform="translate(-117.9731,37.05201)" />   <use xlink:href="#dot" transform="translate(-117.9731,37.05201)" />   <use xlink:href="#dot" transform="translate(-117.9731,37.05201)" />   <use xlink:href="#dot" transform="translate(-117.62538,36.48668)" />   <use xlink:href="#dot" transform="translate(-117.9731,37.05201)" />   <use xlink:href="#dot" transform="translate(-117.62538,36.48668)" />   <use xlink:href="#dot" transform="translate(-117.62538,36.48668)" />   <use xlink:href="#dot" transform="translate(-117.9731,37.05201)" />   <use xlink:href="#dot" transform="translate(-117.62538,36.48668)" />   <use xlink:href="#dot" transform="translate(-117.9731,37.05201)" />   <use xlink:href="#dot" transform="translate(-117.9731,37.05201)" />   <use xlink:href="#dot" transform="translate(-117.62538,36.48668)" />   <use xlink:href="#dot" transform="translate(-117.62538,36.48668)" />   <use xlink:href="#dot" transform="translate(-117.9731,37.05201)" />   <use xlink:href="#dot" transform="translate(-107.898865,34.721713)" />   <use xlink:href="#dot" transform="translate(-107.936206,34.762939)" />   <use xlink:href="#dot" transform="translate(-107.899205,34.721291)" />   <use xlink:href="#dot" transform="translate(-107.936776,34.764027)" />   <use xlink:href="#dot" transform="translate(-107.937013,34.764251)" />   <use xlink:href="#dot" transform="translate(-107.901754,34.723504)" />   <use xlink:href="#dot" transform="translate(-107.936928,34.76277)" />   <use xlink:href="#dot" transform="translate(-107.936065,34.763992)" />   <use xlink:href="#dot" transform="translate(-107.898773,34.721652)" />   <use xlink:href="#dot" transform="translate(-107.90194,34.720817)" />   <use xlink:href="#dot" transform="translate(-107.901214,34.721196)" />   <use xlink:href="#dot" transform="translate(-107.90111,34.721269)" />   <use xlink:href="#dot" transform="translate(-117.62538,36.48668)" />   <use xlink:href="#dot" transform="translate(-117.62538,36.48668)" />   <use xlink:href="#dot" transform="translate(-122.1525,37.9154)" />   <use xlink:href="#dot" transform="translate(-122.1525,37.9154)" />   <use xlink:href="#dot" transform="translate(-122.1525,37.9154)" />   <use xlink:href="#dot" transform="translate(-113.742768,37.539422)" />   <use xlink:href="#dot" transform="translate(-113.840565,37.491064)" />   <use xlink:href="#dot" transform="translate(-115.75504,36.42784)" />   <use xlink:href="#dot" transform="translate(-113.742768,37.539422)" />   <use xlink:href="#dot" transform="translate(-113.840775,37.490846)" />   <use xlink:href="#dot" transform="translate(-113.842651,37.490093)" />   <use xlink:href="#dot" transform="translate(-115.76648,36.42775)" />   <use xlink:href="#dot" transform="translate(-112.381453,39.984588)" />   <use xlink:href="#dot" transform="translate(-112.35729,39.3454)" />   <use xlink:href="#dot" transform="translate(-112.356985,39.344959)" />   <use xlink:href="#dot" transform="translate(-113.841758,37.490328)" />   <use xlink:href="#dot" transform="translate(-115.75504,36.42784)" />   <use xlink:href="#dot" transform="translate(-115.76648,36.42775)" />   <use xlink:href="#dot" transform="translate(-113.747181,37.541235)" />   <use xlink:href="#dot" transform="translate(-113.84067,37.491032)" />   <use xlink:href="#dot" transform="translate(-113.840037,37.491046)" />   <use xlink:href="#dot" transform="translate(-112.381423,39.984619)" />   <use xlink:href="#dot" transform="translate(-117.5211,36.54393)" />   <use xlink:href="#dot" transform="translate(-122.1525,37.9154)" />   <use xlink:href="#dot" transform="translate(-122.1525,37.9154)" />   <use xlink:href="#dot" transform="translate(-117.56951,36.5157)" />   <use xlink:href="#dot" transform="translate(-117.5211,36.54393)" />   <use xlink:href="#dot" transform="translate(-117.52314,36.54051)" />   <use xlink:href="#dot" transform="translate(-122.1525,37.9154)" />   <use xlink:href="#dot" transform="translate(-117.5211,36.54393)" />   <use xlink:href="#dot" transform="translate(-117.5211,36.54393)" />   <use xlink:href="#dot" transform="translate(-117.56951,36.5157)" />   <use xlink:href="#dot" transform="translate(-117.5211,36.54393)" />   <use xlink:href="#dot" transform="translate(-117.5211,36.54393)" />   <use xlink:href="#dot" transform="translate(-122.1525,37.9154)" />   <use xlink:href="#dot" transform="translate(-117.56951,36.5157)" />   <use xlink:href="#dot" transform="translate(-117.5211,36.54393)" />   <use xlink:href="#dot" transform="translate(-117.5211,36.54393)" />   <use xlink:href="#dot" transform="translate(-117.5211,36.54393)" />   <use xlink:href="#dot" transform="translate(-117.56951,36.5157)" />   <use xlink:href="#dot" transform="translate(-109.454056,38.14537)" />   <use xlink:href="#dot" transform="translate(-122.1525,37.9154)" />   <use xlink:href="#dot" transform="translate(-117.56951,36.5157)" />   <use xlink:href="#dot" transform="translate(-117.56951,36.5157)" />   <use xlink:href="#dot" transform="translate(-122.1525,37.9154)" />   <use xlink:href="#dot" transform="translate(-109.11808,37.83961)" />   <use xlink:href="#dot" transform="translate(-114.41229,38.91947)" />   <use xlink:href="#dot" transform="translate(-115.09676,36.6632)" />   <use xlink:href="#dot" transform="translate(-114.43275,39.12465)" />   <use xlink:href="#dot" transform="translate(-114.43275,39.12465)" />   <use xlink:href="#dot" transform="translate(-114.41229,38.91947)" />   <use xlink:href="#dot" transform="translate(-109.441309,38.173773)" />   <use xlink:href="#dot" transform="translate(-115.51134,36.2779)" />   <use xlink:href="#dot" transform="translate(-114.41229,38.91947)" />   <use xlink:href="#dot" transform="translate(-114.41229,38.91947)" />   <use xlink:href="#dot" transform="translate(-114.43275,39.12465)" />   <use xlink:href="#dot" transform="translate(-114.41229,38.91947)" />   <use xlink:href="#dot" transform="translate(-114.43275,39.12465)" />   <use xlink:href="#dot" transform="translate(-114.41229,38.91947)" />   <use xlink:href="#dot" transform="translate(-114.43275,39.12465)" />   <use xlink:href="#dot" transform="translate(-115.09966,36.65181)" />   <use xlink:href="#dot" transform="translate(-114.43275,39.12465)" />   <use xlink:href="#dot" transform="translate(-114.41229,38.91947)" />   <use xlink:href="#dot" transform="translate(-114.41229,38.91947)" />   <use xlink:href="#dot" transform="translate(-114.43275,39.12465)" />   <use xlink:href="#dot" transform="translate(-114.41229,38.91947)" />   <use xlink:href="#dot" transform="translate(-114.41229,38.91947)" />   <use xlink:href="#dot" transform="translate(-115.51134,36.2779)" />   <use xlink:href="#dot" transform="translate(-115.09586,36.65724)" />   <use xlink:href="#dot" transform="translate(-114.41229,38.91947)" />   <use xlink:href="#dot" transform="translate(-114.41229,38.91947)" />   <use xlink:href="#dot" transform="translate(-114.41229,38.91947)" />   <use xlink:href="#dot" transform="translate(-115.09628,36.67088)" />   <use xlink:href="#dot" transform="translate(-114.41229,38.91947)" />   <use xlink:href="#dot" transform="translate(-114.41229,38.91947)" />   <use xlink:href="#dot" transform="translate(-115.09955,36.65203)" />   <use xlink:href="#dot" transform="translate(-114.43275,39.12465)" />   <use xlink:href="#dot" transform="translate(-114.41229,38.91947)" />   <use xlink:href="#dot" transform="translate(-114.41229,38.91947)" />   <use xlink:href="#dot" transform="translate(-114.43275,39.12465)" />   <use xlink:href="#dot" transform="translate(-114.36326,39.03806)" />   <use xlink:href="#dot" transform="translate(-122.1525,37.9154)" />   <use xlink:href="#dot" transform="translate(-114.19402,38.99849)" />   <use xlink:href="#dot" transform="translate(-114.19697,38.99615)" />   <use xlink:href="#dot" transform="translate(-114.19296,38.99762)" />   <use xlink:href="#dot" transform="translate(-114.38029,39.02777)" />   <use xlink:href="#dot" transform="translate(-114.19697,38.99615)" />   <use xlink:href="#dot" transform="translate(-114.19697,38.99615)" />   <use xlink:href="#dot" transform="translate(-122.1525,37.9154)" />   <use xlink:href="#dot" transform="translate(-114.19402,38.99849)" />   <use xlink:href="#dot" transform="translate(-114.38029,39.02777)" />   <use xlink:href="#dot" transform="translate(-114.18839,38.91542)" />   <use xlink:href="#dot" transform="translate(-114.29276,39.05973)" />   <use xlink:href="#dot" transform="translate(-114.19697,38.99615)" />   <use xlink:href="#dot" transform="translate(-114.18717,38.91607)" />   <use xlink:href="#dot" transform="translate(-114.19697,38.99615)" />   <use xlink:href="#dot" transform="translate(-114.19697,38.99615)" />   <use xlink:href="#dot" transform="translate(-114.19697,38.99615)" />   <use xlink:href="#dot" transform="translate(-114.29276,39.05973)" />   <use xlink:href="#dot" transform="translate(-114.19697,38.99615)" />   <use xlink:href="#dot" transform="translate(-114.18717,38.91607)" />   <use xlink:href="#dot" transform="translate(-114.38029,39.02777)" />   <use xlink:href="#dot" transform="translate(-114.19402,38.99849)" />   <use xlink:href="#dot" transform="translate(-114.19697,38.99615)" />   <use xlink:href="#dot" transform="translate(-114.19402,38.99849)" />   <use xlink:href="#dot" transform="translate(-122.1535,37.9162)" />   <use xlink:href="#dot" transform="translate(-122.1525,37.9154)" />   <use xlink:href="#dot" transform="translate(-114.38029,39.02777)" />   <use xlink:href="#dot" transform="translate(-114.29276,39.05973)" />   <use xlink:href="#dot" transform="translate(-114.19402,38.99849)" />   <use xlink:href="#dot" transform="translate(-114.19288,38.99778)" />   <use xlink:href="#dot" transform="translate(-114.36326,39.03806)" />   <use xlink:href="#dot" transform="translate(-114.29276,39.05973)" />   <use xlink:href="#dot" transform="translate(-114.19697,38.99615)" />   <use xlink:href="#dot" transform="translate(-122.1525,37.9154)" />   <use xlink:href="#dot" transform="translate(-114.38029,39.02777)" />   <use xlink:href="#dot" transform="translate(-114.19697,38.99615)" />   <use xlink:href="#dot" transform="translate(-114.19697,38.99615)" />   <use xlink:href="#dot" transform="translate(-114.19288,38.99778)" />   <use xlink:href="#dot" transform="translate(-114.38029,39.02777)" /><polygon class="region" points="-117.827177,34.147506 -122.1535,37.9162 -113.32113,41.9554 -105.961905,35.691568 -107.892067,34.720941 -117.827177,34.147506 " />
		  </g>
		</svg>