<?xml version="1.0" encoding="UTF-8"?>
	<svg xmlns:xlink="http://www.w3.org/1999/xlink" 
	xmlns="http://www.w3.org/2000/svg" 
	width="360px" height="180px">
	   <style type="text/css">
		  <![CDATA[     
		  .region 
		  { 
			fill:blue; 
			opacity:0.4; 
			stroke:blue;
		  }
		  ]]>
	   </style>

	<circle id="dot" x="-2" y="-2" r="2" style="stroke:none; stroke-width:0; fill:black; opacity:0.7;"/>


	 <image x="0" y="0" width="360" height="180" xlink:href="map.jpg"/>

 
	 <g transform="translate(180,90) scale(1,-1)"><polygon class="region" points="-123.0577,38.305835593 -123.7235,38.916835593 -123.8505,39.831335592 -124.3626,40.265735592 -124.0549,41.538935593 -124.4316,42.442935593 -123.9134,42.678435593 -123.4562,42.576835592 -122.7248,41.324535592 -122.3736,41.105835592 -122.8347,42.429135593 -122.5793,43.106535592 -122.0682,43.486235593 -121.7813,43.233735593 -121.9022,42.222735592 -121.4662,41.389935592 -121.1609,40.362435593 -121.1476,39.699235592 -120.7808,39.044535592 -119.1126,37.346335592 -118.3118,36.160335593 -117.7181,35.872435593 -117.5363,36.422535592 -116.3907,36.427335592 -118.5041,38.775435593 -119.2335,40.595735593 -120.2484,41.748335593 -120.3502,42.004935593 -119.8798,42.200735593 -120.2697,42.408335593 -120.5418,42.808835593 -119.3671,43.264835592 -118.9935,43.684235592 -118.79,46.317135593 -118.4155,46.674735593 -118.2553,46.626435593 -118.0277,46.099735593 -117.5097,45.959335592 -116.9685,45.491835593 -117.6195,44.955035593 -118.209,43.261335593 -117.9792,42.375335593 -116.7732,41.372935593 -116.3968,41.402535592 -116.1795,41.922135592 -115.4439,42.178935592 -114.635,42.082235593 -113.5365,41.634235593 -112.1545,41.645735593 -111.782,42.146035593 -111.6754,42.641335592 -111.0478,43.419935592 -110.8553,43.439635593 -110.3901,43.308535592 -109.542,42.679635593 -109.8334,42.246035593 -110.6394,42.547035593 -110.8492,42.449235593 -110.8566,39.420935592 -110.1953,38.827335593 -109.4104,40.158435592 -109.3395,41.334635593 -108.9737,41.988335593 -108.5527,41.692535593 -108.2885,41.263135593 -108.308,39.354335593 -108.1322,39.155235592 -107.8349,39.229135592 -107.2996,39.727135592 -105.7546,42.385835592 -105.4894,42.545935593 -105.2167,42.421235593 -104.4617,41.400835593 -103.683,41.729335593 -102.9996,41.693435593 -102.496,41.314835593 -102.8737,40.870835593 -103.3564,40.775335593 -103.7335,40.399435592 -103.4298,39.894235592 -104.0517,39.028435593 -104.0056,38.650935592 -103.5733,38.152835592 -102.7944,37.814035592 -101.474,37.708235592 -101.1085,38.197535592 -101.0966,38.482735593 -101.6466,38.959135593 -101.7033,39.217635593 -101.5987,39.601135593 -100.9843,39.695735593 -99.6913,39.452235593 -99.0557,39.112635593 -98.73,38.693135592 -98.8179,38.359535593 -100.5784,36.386835592 -101.1054,35.509435592 -101.3691,34.852135592 -101.7123,31.499035592 -102.3148,31.812035593 -102.5916,32.320435593 -103.463,32.180135592 -104.0875,32.987935593 -105.7546,33.114135592 -106.717,33.925635593 -108.8349,34.992335592 -110.954,35.460335593 -111.3197,35.892735592 -110.899,37.028235593 -111.0093,37.362535593 -111.2477,37.463135592 -111.6272,37.546735592 -112.1926,37.350635593 -112.7048,35.797335592 -113.1538,35.480635592 -113.8688,35.666135592 -114.0624,35.999935593 -113.8529,37.495435593 -114.0139,38.090035592 -114.4434,37.928335593 -114.8559,37.329835593 -115.4485,38.119535592 -115.6148,37.940435592 -115.0637,37.171035593 -114.8953,36.447835593 -115.1105,35.693135592 -115.336,35.115735593 -116.7338,34.428935592 -115.176,34.338335592 -114.5223,33.936335593 -115.1672,33.564735593 -115.4402,32.729635593 -115.4664,31.946735593 -114.9599,30.451535592 -114.9725,29.819835592 -115.374,30.045735592 -115.8726,30.914535592 -116.3592,32.747235592 -116.6306,33.205835593 -117.4519,33.753935593 -117.8464,33.575035593 -118.4071,33.745235593 -118.5426,34.041435593 -119.1305,34.102335593 -119.5625,34.414935593 -120.6407,34.565035592 -120.6491,35.141335593 -121.9019,36.309435593 -121.8662,36.937735593 -122.4039,37.194435593 -122.511,37.783735592 -122.109,37.517235592 -122.4274,37.965335593 -122.2615,38.068435592 -122.5258,38.146735593 -122.5273,37.816035593 -123.0208,37.995635593 -123.0577,38.305835593 " /><polygon class="region" points="-120.9818,36.452035592 -120.9673,36.243935593 -120.4326,35.666735592 -120.1692,35.429335593 -119.9949,35.541135592 -120.5453,36.213535593 -120.9818,36.452035592 " /><polygon class="region" points="-118.9303,35.764135593 -120.0038,37.080735593 -121.5852,39.750435593 -122.034,39.893435592 -122.1788,39.636535592 -122.0566,39.068735593 -121.0711,37.465835593 -120.4783,37.025835593 -119.7217,35.984535593 -118.9403,35.371035592 -118.7232,35.358035593 -118.9303,35.764135593 " /><polygon class="region" points="-98.3177,36.636535592 -98.7812,36.675035593 -98.9254,36.957135592 -98.8389,37.267835593 -98.1664,37.066735593 -98.1573,36.781835593 -98.3177,36.636535592 " /><polygon class="region" points="-110.2418,41.365835593 -110.5842,41.450335592 -110.4953,41.841735592 -109.9601,41.871335593 -109.9431,41.634335593 -110.2418,41.365835593 " /><polygon class="region" points="-121.2966,38.512535592 -121.4657,38.536035593 -121.4999,38.903035592 -121.2912,38.844035593 -121.2966,38.512535592 " /><polygon class="region" points="-122.6676,37.907935592 -122.6552,37.907635593 -122.6753,37.905935593 -122.6676,37.907935592 " />
		  </g>
		</svg>