<?xml version="1.0" encoding="UTF-8"?>
	<svg xmlns:xlink="http://www.w3.org/1999/xlink" 
	xmlns="http://www.w3.org/2000/svg" 
	width="360px" height="180px">
	   <style type="text/css">
		  <![CDATA[     
		  .region 
		  { 
			fill:blue; 
			opacity:0.4; 
			stroke:blue;
		  }
		  ]]>
	   </style>

	<circle id="dot" x="-2" y="-2" r="2" style="stroke:none; stroke-width:0; fill:black; opacity:0.7;"/>


	 <image x="0" y="0" width="360" height="180" xlink:href="map.jpg"/>

 
	 <g transform="translate(180,90) scale(1,-1)">   <use xlink:href="#dot" transform="translate(-100.302601,19.582111)" />   <use xlink:href="#dot" transform="translate(-99.093611,19.206389)" />   <use xlink:href="#dot" transform="translate(-99.093611,19.206389)" />   <use xlink:href="#dot" transform="translate(-99.093611,19.206389)" />   <use xlink:href="#dot" transform="translate(-99.093611,19.206389)" />   <use xlink:href="#dot" transform="translate(-99.093611,19.206389)" />   <use xlink:href="#dot" transform="translate(-99.136944,19.219722)" />   <use xlink:href="#dot" transform="translate(-99.136944,19.219722)" />   <use xlink:href="#dot" transform="translate(-98.240933,23.144061)" />   <use xlink:href="#dot" transform="translate(-98.240933,23.144061)" />   <use xlink:href="#dot" transform="translate(-98.240933,23.144061)" />   <use xlink:href="#dot" transform="translate(-98.240933,23.144061)" />   <use xlink:href="#dot" transform="translate(-98.241028708367,23.144515474349)" />   <use xlink:href="#dot" transform="translate(-98.240933,23.144061)" />   <use xlink:href="#dot" transform="translate(-98.240933,23.144061)" />   <use xlink:href="#dot" transform="translate(-98.241028708367,23.144515474349)" />   <use xlink:href="#dot" transform="translate(-98.241028708367,23.144515474349)" />   <use xlink:href="#dot" transform="translate(-99.214333,19.247833)" />   <use xlink:href="#dot" transform="translate(-98.240933,23.144061)" />   <use xlink:href="#dot" transform="translate(-98.240933,23.144061)" />   <use xlink:href="#dot" transform="translate(-98.241028708367,23.144515474349)" />   <use xlink:href="#dot" transform="translate(-98.240933,23.144061)" />   <use xlink:href="#dot" transform="translate(-98.240933,23.144061)" />   <use xlink:href="#dot" transform="translate(-98.241028708367,23.144515474349)" />   <use xlink:href="#dot" transform="translate(-98.240933,23.144061)" />   <use xlink:href="#dot" transform="translate(-98.240933,23.144061)" />   <use xlink:href="#dot" transform="translate(-98.240933,23.144061)" />   <use xlink:href="#dot" transform="translate(-98.240933,23.144061)" />   <use xlink:href="#dot" transform="translate(-98.241028708367,23.144515474349)" />   <use xlink:href="#dot" transform="translate(-98.240933,23.144061)" />   <use xlink:href="#dot" transform="translate(-98.240933,23.144061)" />   <use xlink:href="#dot" transform="translate(-98.241028708367,23.144515474349)" />   <use xlink:href="#dot" transform="translate(-98.240933,23.144061)" />   <use xlink:href="#dot" transform="translate(-98.240933,23.144061)" />   <use xlink:href="#dot" transform="translate(-98.240933,23.144061)" />   <use xlink:href="#dot" transform="translate(-98.240933,23.144061)" />   <use xlink:href="#dot" transform="translate(-98.240933,23.144061)" />   <use xlink:href="#dot" transform="translate(-98.240933,23.144061)" />   <use xlink:href="#dot" transform="translate(-98.240933,23.144061)" />   <use xlink:href="#dot" transform="translate(-98.240933,23.144061)" />   <use xlink:href="#dot" transform="translate(-98.240933,23.144061)" />   <use xlink:href="#dot" transform="translate(-98.240933,23.144061)" />   <use xlink:href="#dot" transform="translate(-98.240933,23.144061)" />   <use xlink:href="#dot" transform="translate(-98.240933,23.144061)" />   <use xlink:href="#dot" transform="translate(-98.240933,23.144061)" />   <use xlink:href="#dot" transform="translate(-98.240933,23.144061)" />   <use xlink:href="#dot" transform="translate(-98.240933,23.144061)" />   <use xlink:href="#dot" transform="translate(-98.240933,23.144061)" />   <use xlink:href="#dot" transform="translate(-98.240933,23.144061)" />   <use xlink:href="#dot" transform="translate(-98.240933,23.144061)" />   <use xlink:href="#dot" transform="translate(-98.240933,23.144061)" />   <use xlink:href="#dot" transform="translate(-98.241028708367,23.144515474349)" />   <use xlink:href="#dot" transform="translate(-98.240933,23.144061)" />   <use xlink:href="#dot" transform="translate(-98.240933,23.144061)" />   <use xlink:href="#dot" transform="translate(-98.240933,23.144061)" />   <use xlink:href="#dot" transform="translate(-98.240933,23.144061)" />   <use xlink:href="#dot" transform="translate(-98.240933,23.144061)" />   <use xlink:href="#dot" transform="translate(-98.240933,23.144061)" />   <use xlink:href="#dot" transform="translate(-98.240933,23.144061)" />   <use xlink:href="#dot" transform="translate(-98.240933,23.144061)" />   <use xlink:href="#dot" transform="translate(-98.240933,23.144061)" />   <use xlink:href="#dot" transform="translate(-98.240933,23.144061)" />   <use xlink:href="#dot" transform="translate(-98.240933,23.144061)" />   <use xlink:href="#dot" transform="translate(-98.241028708367,23.144515474349)" />   <use xlink:href="#dot" transform="translate(-98.241028708367,23.144515474349)" />   <use xlink:href="#dot" transform="translate(-98.240933,23.144061)" />   <use xlink:href="#dot" transform="translate(-98.240933,23.144061)" />   <use xlink:href="#dot" transform="translate(-98.240933,23.144061)" />   <use xlink:href="#dot" transform="translate(-98.240933,23.144061)" />   <use xlink:href="#dot" transform="translate(-98.241028708367,23.144515474349)" />   <use xlink:href="#dot" transform="translate(-98.240933,23.144061)" />   <use xlink:href="#dot" transform="translate(-98.240933,23.144061)" />   <use xlink:href="#dot" transform="translate(-98.241028708367,23.144515474349)" />   <use xlink:href="#dot" transform="translate(-98.241028708367,23.144515474349)" />   <use xlink:href="#dot" transform="translate(-98.240933,23.144061)" />   <use xlink:href="#dot" transform="translate(-98.240933,23.144061)" />   <use xlink:href="#dot" transform="translate(-98.240933,23.144061)" />   <use xlink:href="#dot" transform="translate(-98.240933,23.144061)" />   <use xlink:href="#dot" transform="translate(-98.240933,23.144061)" />   <use xlink:href="#dot" transform="translate(-98.240933,23.144061)" />   <use xlink:href="#dot" transform="translate(-98.240933,23.144061)" />   <use xlink:href="#dot" transform="translate(-98.240933,23.144061)" />   <use xlink:href="#dot" transform="translate(-98.240933,23.144061)" />   <use xlink:href="#dot" transform="translate(-98.240933,23.144061)" />   <use xlink:href="#dot" transform="translate(-98.240933,23.144061)" />   <use xlink:href="#dot" transform="translate(-98.240933,23.144061)" />   <use xlink:href="#dot" transform="translate(-98.240933,23.144061)" />   <use xlink:href="#dot" transform="translate(-98.240933,23.144061)" />   <use xlink:href="#dot" transform="translate(-98.240933,23.144061)" />   <use xlink:href="#dot" transform="translate(-98.240933,23.144061)" />   <use xlink:href="#dot" transform="translate(-98.240933,23.144061)" />   <use xlink:href="#dot" transform="translate(-98.240933,23.144061)" />   <use xlink:href="#dot" transform="translate(-98.240933,23.144061)" />   <use xlink:href="#dot" transform="translate(-98.240933,23.144061)" />   <use xlink:href="#dot" transform="translate(-98.240933,23.144061)" />   <use xlink:href="#dot" transform="translate(-98.240933,23.144061)" />   <use xlink:href="#dot" transform="translate(-98.240933,23.144061)" />   <use xlink:href="#dot" transform="translate(-98.240933,23.144061)" />   <use xlink:href="#dot" transform="translate(-98.240933,23.144061)" />   <use xlink:href="#dot" transform="translate(-98.240933,23.144061)" />   <use xlink:href="#dot" transform="translate(-98.240933,23.144061)" />   <use xlink:href="#dot" transform="translate(-98.240933,23.144061)" />   <use xlink:href="#dot" transform="translate(-98.240933,23.144061)" />   <use xlink:href="#dot" transform="translate(-98.240933,23.144061)" />   <use xlink:href="#dot" transform="translate(-98.240933,23.144061)" />   <use xlink:href="#dot" transform="translate(-98.240933,23.144061)" />   <use xlink:href="#dot" transform="translate(-98.240933,23.144061)" />   <use xlink:href="#dot" transform="translate(-98.240933,23.144061)" />   <use xlink:href="#dot" transform="translate(-98.240933,23.144061)" />   <use xlink:href="#dot" transform="translate(-98.241028708367,23.144515474349)" />   <use xlink:href="#dot" transform="translate(-99.214333,19.247833)" />   <use xlink:href="#dot" transform="translate(-99.218167,19.244944)" />   <use xlink:href="#dot" transform="translate(-99.215583,19.246389)" />   <use xlink:href="#dot" transform="translate(-98.240933,23.144061)" />   <use xlink:href="#dot" transform="translate(-98.240933,23.144061)" />   <use xlink:href="#dot" transform="translate(-98.240933,23.144061)" />   <use xlink:href="#dot" transform="translate(-98.240933,23.144061)" />   <use xlink:href="#dot" transform="translate(-98.240933,23.144061)" />   <use xlink:href="#dot" transform="translate(-98.240933,23.144061)" />   <use xlink:href="#dot" transform="translate(-102.503333,18.226389)" />   <use xlink:href="#dot" transform="translate(-102.503333,18.226389)" />   <use xlink:href="#dot" transform="translate(-102.503333,18.226389)" />   <use xlink:href="#dot" transform="translate(-99.259605251278,19.042802682858)" />   <use xlink:href="#dot" transform="translate(-99.259605251278,19.042802682858)" />   <use xlink:href="#dot" transform="translate(-99.259605251278,19.042802682858)" />   <use xlink:href="#dot" transform="translate(-99.259605251278,19.042802682858)" />   <use xlink:href="#dot" transform="translate(-99.259605251278,19.042802682858)" />   <use xlink:href="#dot" transform="translate(-98.986389,19.326389)" />   <use xlink:href="#dot" transform="translate(-98.948333,19.146944)" />   <use xlink:href="#dot" transform="translate(-98.948333,19.146944)" />   <use xlink:href="#dot" transform="translate(-99.286389,19.277778)" />   <use xlink:href="#dot" transform="translate(-99.040181269421,18.507744713513)" />   <use xlink:href="#dot" transform="translate(-99.040181269421,18.507744713513)" />   <use xlink:href="#dot" transform="translate(-99.040181269421,18.507744713513)" />   <use xlink:href="#dot" transform="translate(-97.989111212342,19.929798178566)" />   <use xlink:href="#dot" transform="translate(-97.989111212342,19.929798178566)" />   <use xlink:href="#dot" transform="translate(-97.989111212342,19.929798178566)" />   <use xlink:href="#dot" transform="translate(-97.989111212342,19.929798178566)" />   <use xlink:href="#dot" transform="translate(-97.989111212342,19.929798178566)" />   <use xlink:href="#dot" transform="translate(-97.989111212342,19.929798178566)" />   <use xlink:href="#dot" transform="translate(-97.989111212342,19.929798178566)" />   <use xlink:href="#dot" transform="translate(-97.989111212342,19.929798178566)" />   <use xlink:href="#dot" transform="translate(-97.989111212342,19.929798178566)" />   <use xlink:href="#dot" transform="translate(-97.989111212342,19.929798178566)" />   <use xlink:href="#dot" transform="translate(-97.989111212342,19.929798178566)" />   <use xlink:href="#dot" transform="translate(-97.989111212342,19.929798178566)" />   <use xlink:href="#dot" transform="translate(-97.989111212342,19.929798178566)" />   <use xlink:href="#dot" transform="translate(-97.989111212342,19.929798178566)" />   <use xlink:href="#dot" transform="translate(-97.989111212342,19.929798178566)" />   <use xlink:href="#dot" transform="translate(-97.989111212342,19.929798178566)" />   <use xlink:href="#dot" transform="translate(-97.989111212342,19.929798178566)" />   <use xlink:href="#dot" transform="translate(-97.989111212342,19.929798178566)" />   <use xlink:href="#dot" transform="translate(-97.989111212342,19.929798178566)" />   <use xlink:href="#dot" transform="translate(-97.989111212342,19.929798178566)" />   <use xlink:href="#dot" transform="translate(-97.989111212342,19.929798178566)" />   <use xlink:href="#dot" transform="translate(-97.989111212342,19.929798178566)" />   <use xlink:href="#dot" transform="translate(-97.989111212342,19.929798178566)" />   <use xlink:href="#dot" transform="translate(-97.989111212342,19.929798178566)" />   <use xlink:href="#dot" transform="translate(-97.989111212342,19.929798178566)" />   <use xlink:href="#dot" transform="translate(-97.989111212342,19.929798178566)" />   <use xlink:href="#dot" transform="translate(-97.989111212342,19.929798178566)" />   <use xlink:href="#dot" transform="translate(-97.989111212342,19.929798178566)" />   <use xlink:href="#dot" transform="translate(-97.989111212342,19.929798178566)" />   <use xlink:href="#dot" transform="translate(-97.989111212342,19.929798178566)" />   <use xlink:href="#dot" transform="translate(-97.989111212342,19.929798178566)" />   <use xlink:href="#dot" transform="translate(-97.989111212342,19.929798178566)" />   <use xlink:href="#dot" transform="translate(-97.989111212342,19.929798178566)" />   <use xlink:href="#dot" transform="translate(-99.246686,19.293586)" />   <use xlink:href="#dot" transform="translate(-99.246686,19.293586)" />   <use xlink:href="#dot" transform="translate(-99.293056,19.265833)" />   <use xlink:href="#dot" transform="translate(-99.246686,19.293586)" />   <use xlink:href="#dot" transform="translate(-103.721389,19.472222)" />   <use xlink:href="#dot" transform="translate(-98.935495840555,18.518594515645)" />   <use xlink:href="#dot" transform="translate(-98.947896133836,18.518961460443)" />   <use xlink:href="#dot" transform="translate(-102.714,19.980194)" />   <use xlink:href="#dot" transform="translate(-98.940128985062,18.529177997635)" />   <use xlink:href="#dot" transform="translate(-103.721389,19.472222)" />   <use xlink:href="#dot" transform="translate(-103.656389,19.469722)" />   <use xlink:href="#dot" transform="translate(-103.721389,19.472222)" />   <use xlink:href="#dot" transform="translate(-103.656389,19.469722)" />   <use xlink:href="#dot" transform="translate(-99.838056,17.619444)" />   <use xlink:href="#dot" transform="translate(-93.038889,16.855833)" />   <use xlink:href="#dot" transform="translate(-93.039,16.856)" />   <use xlink:href="#dot" transform="translate(-93.039,16.856)" />   <use xlink:href="#dot" transform="translate(-93.038889,16.855833)" />   <use xlink:href="#dot" transform="translate(-103.721389,19.472222)" />   <use xlink:href="#dot" transform="translate(-103.721389,19.472222)" />   <use xlink:href="#dot" transform="translate(-93.038889,16.855833)" />   <use xlink:href="#dot" transform="translate(-103.721389,19.472222)" />   <use xlink:href="#dot" transform="translate(-99.838056,17.619444)" />   <use xlink:href="#dot" transform="translate(-99.838056,17.619444)" />   <use xlink:href="#dot" transform="translate(-103.656389,19.469722)" />   <use xlink:href="#dot" transform="translate(-93.038889,16.855833)" />   <use xlink:href="#dot" transform="translate(-103.721389,19.472222)" />   <use xlink:href="#dot" transform="translate(-93.039,16.856)" />   <use xlink:href="#dot" transform="translate(-103.9875,19.421667)" />   <use xlink:href="#dot" transform="translate(-103.721389,19.472222)" />   <use xlink:href="#dot" transform="translate(-91.786,16.128)" />   <use xlink:href="#dot" transform="translate(-91.786111,16.128056)" />   <use xlink:href="#dot" transform="translate(-91.786111,16.128056)" />   <use xlink:href="#dot" transform="translate(-103.954722,19.450556)" />   <use xlink:href="#dot" transform="translate(-91.786,16.128)" />   <use xlink:href="#dot" transform="translate(-91.786111,16.128056)" />   <use xlink:href="#dot" transform="translate(-91.786,16.128)" />   <use xlink:href="#dot" transform="translate(-91.786111,16.128056)" />   <use xlink:href="#dot" transform="translate(-91.777222,16.127222)" />   <use xlink:href="#dot" transform="translate(-91.786111,16.128056)" />   <use xlink:href="#dot" transform="translate(-91.786,16.128)" />   <use xlink:href="#dot" transform="translate(-91.777,16.127)" />   <use xlink:href="#dot" transform="translate(-103.954722,19.450556)" />   <use xlink:href="#dot" transform="translate(-91.786,16.128)" />   <use xlink:href="#dot" transform="translate(-91.786111,16.128056)" />   <use xlink:href="#dot" transform="translate(-91.786111,16.128056)" />   <use xlink:href="#dot" transform="translate(-91.786,16.128)" />   <use xlink:href="#dot" transform="translate(-91.786111,16.128056)" />   <use xlink:href="#dot" transform="translate(-91.786,16.128)" />   <use xlink:href="#dot" transform="translate(-91.786,16.128)" />   <use xlink:href="#dot" transform="translate(-91.786,16.128)" />   <use xlink:href="#dot" transform="translate(-91.786111,16.128056)" />   <use xlink:href="#dot" transform="translate(-91.777,16.127)" />   <use xlink:href="#dot" transform="translate(-91.786944,16.125278)" />   <use xlink:href="#dot" transform="translate(-91.786944,16.125278)" />   <use xlink:href="#dot" transform="translate(-91.787,16.125)" />   <use xlink:href="#dot" transform="translate(-91.787,16.125)" />   <use xlink:href="#dot" transform="translate(-91.777222,16.127222)" />   <use xlink:href="#dot" transform="translate(-93.039,16.856)" />   <use xlink:href="#dot" transform="translate(-93.038889,16.855833)" />   <use xlink:href="#dot" transform="translate(-99.31,19.311667)" />   <use xlink:href="#dot" transform="translate(-91.791389,16.128611)" />   <use xlink:href="#dot" transform="translate(-103.689722,19.465278)" />   <use xlink:href="#dot" transform="translate(-91.791,16.129)" />   <use xlink:href="#dot" transform="translate(-91.786111,16.128056)" />   <use xlink:href="#dot" transform="translate(-103.721389,19.472222)" />   <use xlink:href="#dot" transform="translate(-103.701111,19.469444)" />   <use xlink:href="#dot" transform="translate(-103.721389,19.472222)" />   <use xlink:href="#dot" transform="translate(-103.721389,19.472222)" />   <use xlink:href="#dot" transform="translate(-103.721389,19.472222)" />   <use xlink:href="#dot" transform="translate(-99.838333,17.5925)" />   <use xlink:href="#dot" transform="translate(-99.838333,17.5925)" />   <use xlink:href="#dot" transform="translate(-99.838333,17.5925)" />   <use xlink:href="#dot" transform="translate(-99.838056,17.619444)" />   <use xlink:href="#dot" transform="translate(-99.838333,17.5925)" />   <use xlink:href="#dot" transform="translate(-99.839167,17.588889)" />   <use xlink:href="#dot" transform="translate(-99.838333,17.5925)" />   <use xlink:href="#dot" transform="translate(-99.838333,17.5925)" />   <use xlink:href="#dot" transform="translate(-99.235604492366,18.986338420496)" />   <use xlink:href="#dot" transform="translate(-92.339874973919,15.427163439568)" />   <use xlink:href="#dot" transform="translate(-92.339874973919,15.427163439568)" />   <use xlink:href="#dot" transform="translate(-92.339874973919,15.427163439568)" />   <use xlink:href="#dot" transform="translate(-92.339874973919,15.427163439568)" />   <use xlink:href="#dot" transform="translate(-92.582806,16.814686)" />   <use xlink:href="#dot" transform="translate(-92.582806,16.814686)" />   <use xlink:href="#dot" transform="translate(-92.341667,15.425278)" />   <use xlink:href="#dot" transform="translate(-92.615,16.708333)" />   <use xlink:href="#dot" transform="translate(-99.228233,23.04455)" />   <use xlink:href="#dot" transform="translate(-97.011667,18.182778)" />   <use xlink:href="#dot" transform="translate(-96.983333,18.153083)" />   <use xlink:href="#dot" transform="translate(-99.221633,23.058383)" />   <use xlink:href="#dot" transform="translate(-99.227583,23.044517)" />   <use xlink:href="#dot" transform="translate(-99.227283,23.0451)" />   <use xlink:href="#dot" transform="translate(-99.221167,23.057783)" />   <use xlink:href="#dot" transform="translate(-99.228017,23.0457)" />   <use xlink:href="#dot" transform="translate(-98.346972,19.986333)" />   <use xlink:href="#dot" transform="translate(-98.010556,20.260556)" />   <use xlink:href="#dot" transform="translate(-98.346972,19.986333)" />   <use xlink:href="#dot" transform="translate(-98.346972,19.986333)" />   <use xlink:href="#dot" transform="translate(-98.010556,20.260556)" />   <use xlink:href="#dot" transform="translate(-98.346972,19.986333)" />   <use xlink:href="#dot" transform="translate(-99.228283,23.045317)" />   <use xlink:href="#dot" transform="translate(-99.228117,23.045933)" />   <use xlink:href="#dot" transform="translate(-99.228117,23.044533)" />   <use xlink:href="#dot" transform="translate(-99.2284,23.045067)" />   <use xlink:href="#dot" transform="translate(-98.346972,19.986333)" />   <use xlink:href="#dot" transform="translate(-98.010556,20.260556)" />   <use xlink:href="#dot" transform="translate(-98.346972,19.986333)" />   <use xlink:href="#dot" transform="translate(-98.346972,19.986333)" />   <use xlink:href="#dot" transform="translate(-98.346972,19.986333)" />   <use xlink:href="#dot" transform="translate(-98.346972,19.986333)" />   <use xlink:href="#dot" transform="translate(-98.010556,20.260556)" />   <use xlink:href="#dot" transform="translate(-98.346972,19.986333)" />   <use xlink:href="#dot" transform="translate(-92.490056,16.740472)" />   <use xlink:href="#dot" transform="translate(-99.851111,18.717778)" />   <use xlink:href="#dot" transform="translate(-99.848889,18.718889)" />   <use xlink:href="#dot" transform="translate(-99.848889,18.718889)" />   <use xlink:href="#dot" transform="translate(-99.049444,19.226944)" />   <use xlink:href="#dot" transform="translate(-92.808333,15.657222)" />   <use xlink:href="#dot" transform="translate(-92.808333,15.657222)" />   <use xlink:href="#dot" transform="translate(-92.808333,15.657222)" />   <use xlink:href="#dot" transform="translate(-92.808,15.657)" />   <use xlink:href="#dot" transform="translate(-92.806667,15.655833)" />   <use xlink:href="#dot" transform="translate(-92.808056,15.656944)" />   <use xlink:href="#dot" transform="translate(-92.807,15.656)" />   <use xlink:href="#dot" transform="translate(-92.808056,15.656944)" />   <use xlink:href="#dot" transform="translate(-92.814,15.661)" />   <use xlink:href="#dot" transform="translate(-92.813889,15.661111)" />   <use xlink:href="#dot" transform="translate(-92.808,15.657)" />   <use xlink:href="#dot" transform="translate(-92.814,15.661)" />   <use xlink:href="#dot" transform="translate(-92.808333,15.657222)" />   <use xlink:href="#dot" transform="translate(-92.808333,15.657222)" />   <use xlink:href="#dot" transform="translate(-92.808333,15.657222)" /><polygon class="region" points="-102.503333,18.226389 -103.9875,19.421667 -103.954722,19.450556 -99.221633,23.058383 -98.241028708367,23.144515474349 -91.777,16.127 -92.339874973919,15.427163439568 -92.341667,15.425278 -102.503333,18.226389 " />
		  </g>
		</svg>