<?xml version="1.0" encoding="UTF-8"?>
	<svg xmlns:xlink="http://www.w3.org/1999/xlink" 
	xmlns="http://www.w3.org/2000/svg" 
	width="360px" height="180px">
	   <style type="text/css">
		  <![CDATA[     
		  .region 
		  { 
			fill:blue; 
			opacity:0.4; 
			stroke:blue;
		  }
		  ]]>
	   </style>

	<circle id="dot" x="-2" y="-2" r="2" style="stroke:none; stroke-width:0; fill:black; opacity:0.7;"/>


	 <image x="0" y="0" width="360" height="180" xlink:href="map.jpg"/>

 
	 <g transform="translate(180,90) scale(1,-1)">   <use xlink:href="#dot" transform="translate(-16.646433,13.396049)" />   <use xlink:href="#dot" transform="translate(-14.715414,13.47811)" />   <use xlink:href="#dot" transform="translate(-14.950676,13.642651)" />   <use xlink:href="#dot" transform="translate(-13.175354,12.964413)" />   <use xlink:href="#dot" transform="translate(-16.723766,13.443302)" />   <use xlink:href="#dot" transform="translate(-16.728401,13.431532)" />   <use xlink:href="#dot" transform="translate(-16.646433,13.396049)" />   <use xlink:href="#dot" transform="translate(-16.728401,13.431532)" />   <use xlink:href="#dot" transform="translate(-7.373554,5.907843)" />   <use xlink:href="#dot" transform="translate(-14.709148,13.521509)" />   <use xlink:href="#dot" transform="translate(-14.764423,13.524597)" />   <use xlink:href="#dot" transform="translate(-16.646433,13.396049)" />   <use xlink:href="#dot" transform="translate(-14.764423,13.524597)" />   <use xlink:href="#dot" transform="translate(-16.728401,13.431532)" />   <use xlink:href="#dot" transform="translate(-14.950676,13.642651)" />   <use xlink:href="#dot" transform="translate(-14.950676,13.642651)" />   <use xlink:href="#dot" transform="translate(-13.957,11.109)" />   <use xlink:href="#dot" transform="translate(-9.736,8.032)" />   <use xlink:href="#dot" transform="translate(-7.732,5.403)" />   <use xlink:href="#dot" transform="translate(-7.788,6.174)" />   <use xlink:href="#dot" transform="translate(-16.646433,13.396049)" />   <use xlink:href="#dot" transform="translate(-16.728401,13.431532)" />   <use xlink:href="#dot" transform="translate(30.3903,0.4544)" />   <use xlink:href="#dot" transform="translate(30.3723,0.5984)" />   <use xlink:href="#dot" transform="translate(30.3723,0.5894)" />   <use xlink:href="#dot" transform="translate(30.3633,0.5534)" />   <use xlink:href="#dot" transform="translate(30.3903,0.5534)" />   <use xlink:href="#dot" transform="translate(30.3723,0.5984)" />   <use xlink:href="#dot" transform="translate(30.3633,0.5714)" />   <use xlink:href="#dot" transform="translate(30.3993,0.6074)" />   <use xlink:href="#dot" transform="translate(30.3993,0.5534)" />   <use xlink:href="#dot" transform="translate(30.3903,0.5534)" />   <use xlink:href="#dot" transform="translate(30.3813,0.4634)" />   <use xlink:href="#dot" transform="translate(30.3633,0.3105)" />   <use xlink:href="#dot" transform="translate(30.35933,0.564864)" />   <use xlink:href="#dot" transform="translate(30.35933,0.564864)" />   <use xlink:href="#dot" transform="translate(30.35933,0.564864)" />   <use xlink:href="#dot" transform="translate(-8.13,6.22)" />   <use xlink:href="#dot" transform="translate(-8.13,6.22)" />   <use xlink:href="#dot" transform="translate(-8.13,6.22)" />   <use xlink:href="#dot" transform="translate(-8.13,6.22)" />   <use xlink:href="#dot" transform="translate(-8.13,6.22)" />   <use xlink:href="#dot" transform="translate(-8.13,6.22)" />   <use xlink:href="#dot" transform="translate(-8.13,6.22)" />   <use xlink:href="#dot" transform="translate(-6.75,5.82)" />   <use xlink:href="#dot" transform="translate(-6.75,5.82)" />   <use xlink:href="#dot" transform="translate(-6.75,5.82)" />   <use xlink:href="#dot" transform="translate(-6.75,5.82)" />   <use xlink:href="#dot" transform="translate(-6.75,5.82)" />   <use xlink:href="#dot" transform="translate(18.65,3.3)" />   <use xlink:href="#dot" transform="translate(29.15,0.05)" />   <use xlink:href="#dot" transform="translate(29.666667,0.5)" />   <use xlink:href="#dot" transform="translate(19.633333,-2.1)" />   <use xlink:href="#dot" transform="translate(19.633333,-2.1)" />   <use xlink:href="#dot" transform="translate(19.633333,-2.1)" />   <use xlink:href="#dot" transform="translate(29.716694,3.733333)" />   <use xlink:href="#dot" transform="translate(29.716694,3.733333)" />   <use xlink:href="#dot" transform="translate(29.716694,3.733333)" />   <use xlink:href="#dot" transform="translate(29.716694,3.733333)" />   <use xlink:href="#dot" transform="translate(29.716694,3.733333)" />   <use xlink:href="#dot" transform="translate(29.716694,3.733333)" />   <use xlink:href="#dot" transform="translate(29.716694,3.733333)" />   <use xlink:href="#dot" transform="translate(29.716694,3.733333)" />   <use xlink:href="#dot" transform="translate(29.716694,3.733333)" />   <use xlink:href="#dot" transform="translate(29.716694,3.733333)" />   <use xlink:href="#dot" transform="translate(29.716694,3.733333)" />   <use xlink:href="#dot" transform="translate(29.716694,3.733333)" />   <use xlink:href="#dot" transform="translate(29.716694,3.733333)" />   <use xlink:href="#dot" transform="translate(29.716694,3.733333)" />   <use xlink:href="#dot" transform="translate(29.716694,3.733333)" />   <use xlink:href="#dot" transform="translate(29.716694,3.733333)" />   <use xlink:href="#dot" transform="translate(29.716694,3.733333)" />   <use xlink:href="#dot" transform="translate(29.716694,3.733333)" />   <use xlink:href="#dot" transform="translate(29.716694,3.733333)" />   <use xlink:href="#dot" transform="translate(29.716694,3.733333)" />   <use xlink:href="#dot" transform="translate(29.716694,3.733333)" />   <use xlink:href="#dot" transform="translate(29.716694,3.733333)" />   <use xlink:href="#dot" transform="translate(29.716694,3.733333)" />   <use xlink:href="#dot" transform="translate(29.716694,3.733333)" />   <use xlink:href="#dot" transform="translate(29.716694,3.733333)" />   <use xlink:href="#dot" transform="translate(29.716694,3.733333)" />   <use xlink:href="#dot" transform="translate(29.716694,3.733333)" />   <use xlink:href="#dot" transform="translate(29.716694,3.733333)" />   <use xlink:href="#dot" transform="translate(29.716694,3.733333)" />   <use xlink:href="#dot" transform="translate(29.716694,3.733333)" />   <use xlink:href="#dot" transform="translate(29.716694,3.733333)" />   <use xlink:href="#dot" transform="translate(29.716694,3.733333)" />   <use xlink:href="#dot" transform="translate(29.716694,3.733333)" />   <use xlink:href="#dot" transform="translate(29.716694,3.733333)" />   <use xlink:href="#dot" transform="translate(29.716694,3.733333)" />   <use xlink:href="#dot" transform="translate(29.716694,3.733333)" />   <use xlink:href="#dot" transform="translate(29.716694,3.733333)" />   <use xlink:href="#dot" transform="translate(29.716694,3.733333)" />   <use xlink:href="#dot" transform="translate(29.333333,-0.516667)" />   <use xlink:href="#dot" transform="translate(-8.783333,6.783333)" />   <use xlink:href="#dot" transform="translate(-8.783333,6.783333)" /><polygon class="region" points="-7.732,5.403 -16.728401,13.431532 -16.723766,13.443302 -14.950676,13.642651 29.716694,3.733333 30.3993,0.6074 30.3993,0.5534 30.3903,0.4544 30.3633,0.3105 29.333333,-0.516667 19.633333,-2.1 -7.732,5.403 " />
		  </g>
		</svg>