<?xml version="1.0" encoding="UTF-8"?>
	<svg xmlns:xlink="http://www.w3.org/1999/xlink" 
	xmlns="http://www.w3.org/2000/svg" 
	width="360px" height="180px">
	   <style type="text/css">
		  <![CDATA[     
		  .region 
		  { 
			fill:blue; 
			opacity:0.4; 
			stroke:blue;
		  }
		  ]]>
	   </style>

	<circle id="dot" x="-2" y="-2" r="2" style="stroke:none; stroke-width:0; fill:black; opacity:0.7;"/>


	 <image x="0" y="0" width="360" height="180" xlink:href="map.jpg"/>

 
	 <g transform="translate(180,90) scale(1,-1)"><polygon class="region" points="-11.563242011,10.162598488 -10.895788815,9.7096838200001 -10.161044377,8.7174333130001 -7.827674439,7.5398012630001 -5.1254956349999,7.096624713 -4.4906427409999,7.161685285 -4.4168895519999,6.8912569230001 -4.7489216229999,6.3932088170001 -4.9676309719999,5.133631445 -6.121179581,4.99855423 -7.397679329,4.3811850550001 -7.7228589059999,4.368283272 -9.028960228,4.976782321 -10.021464348,5.943899631 -10.790581703,6.2923822400001 -10.730747223,6.419532776 -11.353786469,6.707045555 -11.56418705,7.00111866 -12.516936302,7.3876218790001 -12.43040371,7.4188146590001 -12.339533806,7.37677145 -12.300246239,7.3823189730001 -12.483583451,7.449020863 -12.302630424,7.528018952 -12.541942597,7.665343762 -12.473173142,7.7307024 -12.475026131,7.781277179 -12.702144623,7.7020769120001 -12.919476509,7.8718428610001 -12.801828384,7.923483372 -13.001535415,8.2374362950001 -13.166479111,8.1704006200001 -13.295092582,8.497299194 -13.09220028,8.4069423670001 -12.928035736,8.564129829 -13.190711975,8.553519249 -13.244558334,8.8226461410001 -13.126568795,8.839728356 -13.504318983,9.438013278 -13.049119957,9.8129801480001 -12.07972365,10.146706745 -11.563242011,10.162598488 " />
		  </g>
		</svg>