<?xml version="1.0" encoding="UTF-8"?>
	<svg xmlns:xlink="http://www.w3.org/1999/xlink" 
	xmlns="http://www.w3.org/2000/svg" 
	width="360px" height="180px">
	   <style type="text/css">
		  <![CDATA[     
		  .region 
		  { 
			fill:blue; 
			opacity:0.4; 
			stroke:blue;
		  }
		  ]]>
	   </style>

	<circle id="dot" x="-2" y="-2" r="2" style="stroke:none; stroke-width:0; fill:black; opacity:0.7;"/>


	 <image x="0" y="0" width="360" height="180" xlink:href="map.jpg"/>

 
	 <g transform="translate(180,90) scale(1,-1)"><polygon class="region" points="67.4059,24.393235593 67.412,24.521535592 67.3743,24.472135593 67.3424,24.459135593 67.3099,24.462235593 67.4396,24.574635593 67.3233,24.549135593 67.2998,24.582235593 67.4609,24.780135592 66.9538,24.861035593 66.6514,24.829335592 66.742,25.183235593 66.5501,25.365235593 66.5393,25.644235593 66.4995,25.574335593 66.2969,25.623935593 66.1349,25.544235593 66.2655,27.523135592 66.5971,28.725235592 67.6147,29.742835593 70.052,31.179135593 71.5318,32.354235592 71.88,33.311735593 71.793,33.485835593 70.879,33.616435593 70.2261,34.008135592 69.7909,34.530435593 70.1826,35.662035592 70.9225,36.314835593 71.4935,36.600335593 72.0541,36.575935593 72.707,36.880635593 73.5339,36.880635593 74.622,37.141735592 74.6655,35.966635593 76.1888,32.397735593 78.1038,31.657835593 79.1595,30.526835593 80.0189,29.916935592 83.7619,28.306535593 86.8085,27.479635593 89.0717,27.392535592 91.8137,27.392535592 94.5433,28.228735592 96.0558,28.300435592 100.6018,27.804635592 103.7318,27.910135593 106.0177,27.769435593 108.163,31.110435593 108.7257,31.497335593 109.8511,31.602835593 110.1676,31.251135593 109.429,29.563035593 109.2532,28.297035592 109.3587,27.206735593 109.7456,26.468235592 111.293,26.292435592 111.3985,25.940735592 110.8006,24.780135592 108.585,23.865835593 107.7058,23.197635593 107.7851,21.459435593 107.384,21.270435593 107.3786,21.029335592 107.1986,20.937135593 106.6401,21.040135593 106.8101,20.674735593 106.5614,20.681735592 106.571,20.283135592 105.9342,19.958635593 105.7517,19.635735593 105.8093,19.274835593 105.5902,19.023735592 105.9275,18.456635592 105.8118,18.440035593 105.9358,18.372335592 105.9112,18.403335592 105.946,18.473135592 106.3388,18.054835592 106.438,18.118835593 106.4527,17.710135593 106.629,17.468235593 107.8197,16.290635593 108.0376,16.333735593 108.2069,16.000035592 108.2336,16.147835592 108.3198,16.137735593 108.4951,15.671735593 108.9428,15.243035593 109.3065,13.874035593 109.2222,13.388135592 109.4633,12.877335593 109.4454,12.562535592 109.3547,12.796435592 109.1959,12.635335593 109.3453,12.393235593 109.1441,12.432735592 109.2862,11.878135593 109.1285,11.899235593 109.2379,11.733735593 109.0025,11.543535592 109.0223,11.355135593 107.2575,10.376835593 106.7409,10.459135592 106.7972,10.126535592 106.5767,9.969835592 106.6994,9.8768355920001 106.5258,9.8266355920001 106.534,9.5743355930001 106.2877,9.6051355930001 106.1819,9.3596355920001 105.5283,9.119935593 105.2733,8.745135593 104.8384,8.559935593 104.736,8.589135593 104.7175,8.609935593 104.95,8.8213355930001 104.7936,8.7933355920001 104.8611,9.7106355920001 105.1106,9.944035593 104.9905,10.096035593 104.7428,10.225535593 104.6006,10.138435592 104.2478,10.570235593 103.8823,10.660835593 103.616,10.497535593 103.4923,10.622835593 103.7202,10.855135593 103.5521,11.162735593 103.427,10.887435593 103.1248,10.866135593 103.115,11.457935593 102.6046,12.218735592 102.5811,12.045235593 102.2926,12.185635593 101.7538,12.710035593 101.4197,12.583335593 100.8566,12.643235593 100.9773,13.476735593 100.2692,13.524235592 99.9528,13.308735592 100.0984,13.041735593 99.9548,12.656835593 100.0205,12.188535592 99.2392,10.532635593 99.2838,10.361035593 99.1485,10.347035592 99.2495,10.231035593 99.1421,9.782835592 99.3156,9.3900355920001 99.224,9.255135593 99.8392,9.3030355930001 99.965,8.590535592 100.2222,8.4264355930001 100.473,7.408035593 100.7692,6.9819355920001 101.5607,6.8437355930001 101.819,6.455335592 102.3525,6.1633355920001 103.1891,5.2747355920001 103.48,4.5284355920001 103.3319,3.751735593 103.4848,3.506435593 103.4437,2.9111355920001 103.8276,2.5817355930001 104.3023,1.431535592 104.0973,1.3662355920001 104.1188,1.3983355930001 103.9711,1.6214355930001 104.003,1.436935593 103.6874,1.462835593 103.5204,1.2616355930001 103.3248,1.5709355930001 101.2988,2.8427355920001 101.3025,3.249935593 100.7026,3.893935593 100.7928,4.008535593 100.5609,4.306935593 100.6641,4.6844355920001 100.362,5.0856355930001 100.3516,5.9722355930001 100.1006,6.5403355920001 99.696,6.8508355930001 99.7491,7.126235593 99.5868,7.151835593 99.5938,7.3745355930001 99.4038,7.3007355930001 99.2692,7.660035593 99.1485,7.785335592 99.0445,7.695435592 99.1051,7.9552355930001 98.7658,8.0195355930001 98.7083,8.3347355930001 98.467,8.303235592 98.435,8.134835593 98.2854,8.203035592 98.3181,9.2034355930001 98.5702,9.5582355930001 98.4848,9.573335593 98.4676,9.627935592 98.7037,10.175835592 98.5494,9.9731355920001 98.4556,10.690335593 98.7815,10.988735593 98.6548,11.126935593 98.8403,11.680335592 98.5436,11.881735593 98.7401,11.954435593 98.5219,12.258335593 98.6866,12.517135592 98.6762,12.992335593 98.2445,13.812735593 98.1748,13.537235593 98.1253,13.547135593 98.0951,14.200335593 97.7918,14.868335593 97.7179,15.843335592 97.5582,16.072635593 97.5967,16.085135592 97.6197,16.055035593 97.648,16.044235593 97.6641,16.048935593 97.6772,16.028335593 97.6969,16.027435593 97.6253,16.500035593 97.6621,16.512335592 97.6624,16.476535592 97.6823,16.465535593 97.7025,16.470535593 97.7044,16.450135592 97.7232,16.450135592 97.7198,16.426835593 97.7539,16.414035593 97.7355,16.402335593 97.7334,16.383335592 97.7702,16.379735593 97.7874,16.332735593 97.8346,16.323535593 97.8518,16.297635593 97.8885,16.285135593 97.8441,16.323435593 97.7924,16.332635593 97.7578,16.417735592 97.701,16.474335593 97.6641,16.480035593 97.7465,16.561535592 97.6214,16.643235593 97.6215,16.518635592 97.3629,16.478935592 97.424,16.658335593 97.1693,16.910735592 97.2645,17.103535593 97.1143,17.077735593 96.7859,17.489935592 96.6488,17.330335593 96.9111,17.321435592 96.7799,16.703235592 96.3837,16.496635593 96.2867,16.591835592 96.4716,16.609535593 96.3313,16.628635593 96.2874,16.600135593 96.2768,16.578335592 96.2228,16.754135592 96.3156,16.833435593 96.3456,16.833335593 96.3941,16.859435593 96.4084,16.855235592 96.4861,16.869935593 96.5119,16.888235593 96.1155,16.812135592 96.2461,16.635935593 96.1628,16.417635592 95.9121,16.410935593 95.7785,16.129135593 95.7403,16.145135593 95.7269,16.263935593 95.7109,16.273535592 95.6931,15.999235592 95.4264,15.721235593 95.2704,15.800835593 95.2792,15.846335592 95.3399,15.879935592 95.3404,15.902235592 95.3479,15.880435593 95.3809,15.872135593 95.3989,15.876835593 95.4126,15.905635593 95.3388,15.905435593 95.2995,15.870135593 95.3907,16.239635593 95.2226,15.790235593 95.1094,15.889835593 95.2671,16.149435592 95.1408,16.231535592 95.037,15.803735593 94.8343,15.780835593 95.0505,16.333335592 94.7194,15.850435592 94.6002,15.919135593 94.7184,16.000035592 94.8519,16.242735593 94.6725,15.988735592 94.5495,15.948735593 94.8254,16.370335593 94.6959,16.475735592 94.8004,16.590735593 94.6782,16.513235593 94.7423,16.632735593 94.7416,16.730035593 94.6511,16.670235593 94.6529,16.340235593 94.4218,16.059435593 94.1985,16.033535593 94.6112,17.550135593 94.1413,18.737035593 94.1715,18.714235592 94.2788,18.737835593 94.0309,18.863235593 94.0439,18.884535592 94.0738,18.867635593 94.1353,18.891935593 94.0315,18.896335592 94.0715,19.383735593 94.005,19.155535593 93.9092,19.199435592 93.9373,18.847335593 93.4727,19.363235593 93.809,19.226335593 93.9535,19.306635593 94.0108,19.381035592 93.7751,19.301035593 93.6516,19.444535592 93.6875,19.565335593 93.8585,19.440435593 93.9764,19.418735593 93.9971,19.452535592 93.722,19.626435593 93.8193,19.711135592 93.7059,19.702835593 93.7914,19.769135592 93.8012,19.891035593 93.7933,19.916035593 93.416,19.970735593 93.3254,20.403635593 93.2464,20.245435593 93.117,20.185735593 93.2165,20.286035593 93.2512,20.426135592 93.1282,20.324235593 93.1293,20.376135592 93.1732,20.396635593 93.1703,20.411935592 93.0948,20.379235592 93.1051,20.530635593 93.0702,20.602035592 93.0277,20.643835593 93.0091,20.286935592 92.853,20.123135592 92.7649,20.199935593 92.9445,20.315535593 92.9326,20.432735592 92.7523,20.479435592 92.7325,20.570635593 92.7486,20.578135592 92.7524,20.586735593 92.7468,20.598635593 92.5494,20.849335592 92.7285,20.260035592 92.3772,20.696935593 92.3477,20.987135592 92.1977,21.155135593 92.3459,21.382335592 92.6656,21.262935593 92.6102,21.957735592 92.7466,22.081435593 92.9853,21.983335593 93.1814,22.303035593 93.1345,23.040435592 92.3843,23.407035592 92.299,23.684135593 91.9452,23.713935593 91.6133,22.596635593 91.4884,22.902935593 91.4086,22.760935593 91.3427,22.883135593 91.3451,22.775835593 91.0404,22.796935592 90.6235,23.004335593 90.6961,23.377635592 90.5856,23.466935593 90.7443,23.544235593 90.7578,23.721035593 90.484,23.586635593 90.2298,23.887735593 90.0572,23.820035592 90.0625,23.876835593 89.9354,24.000035593 90.0547,23.873235592 90.0466,23.817435592 90.2416,23.814435592 90.2746,23.686135593 90.2557,23.707335593 90.1803,23.739335593 90.0232,23.763435592 90.0245,23.795135593 90.0013,23.816235593 90.0195,23.762635592 90.5302,23.566935592 90.5248,23.391235592 89.97,23.658135593 89.7208,24.000035593 89.77,23.835735592 89.5467,23.824135593 89.2808,23.987435593 89.0608,23.983935592 90.1529,23.498835593 90.0871,23.272835593 90.3082,23.113635592 90.6132,22.327535592 90.4373,22.066835593 90.4149,22.338735592 90.3641,22.294335593 90.2556,21.827335593 90.092,21.814635593 90.1886,21.922835593 90.0725,22.000335593 90.2717,22.177235592 90.3619,22.490535592 90.2032,22.123835592 90.0879,22.055535592 90.0525,21.970835593 89.993,22.036135593 90.1401,22.156035593 90.0257,22.189035592 90.081,22.220935592 90.2018,22.485935592 90.2028,22.572535592 90.1857,22.625535593 90.2519,22.621135592 90.2832,22.630235593 90.2948,22.654335593 90.182,22.628335592 90.1936,22.480135593 90.025,22.196535593 89.9644,21.976835592 89.8787,22.252335593 90.025,22.490135593 90.065,22.608735593 90.0268,22.599035593 90.0327,22.652735593 90.0038,22.677235593 89.8774,22.413935593 89.8408,21.856035593 89.6554,21.913435593 89.7124,21.766235593 89.6064,21.761335593 89.5152,21.990435593 89.3906,21.708435593 89.3899,21.902135593 89.2193,21.757135592 89.0464,21.927435592 89.0167,21.600835593 88.88,21.767435592 88.8529,21.616135593 88.7242,21.680435593 88.7903,22.018335593 88.631,22.119735593 88.4177,21.581735593 88.4124,21.994735593 88.3953,21.794335593 88.2816,21.796835592 88.3238,21.849635593 88.311,21.864635592 88.2686,21.865035593 88.2626,21.557535592 88.2143,22.157435592 88.1788,22.195035593 88.0352,22.218635592 88.1961,22.104835592 87.8286,21.722235592 86.8946,21.313535593 86.8168,21.138135592 87.0522,20.704535593 86.4181,19.977635592 85.6052,19.707435593 84.9609,19.291635593 84.1411,18.314135592 82.3045,17.044235593 82.3175,16.584635592 81.7322,16.313535593 81.3307,16.315235593 80.9388,15.707935592 80.6936,15.881035593 80.2936,15.704635593 80.0452,15.067235593 80.3465,13.304035592 80.1454,12.445335593 79.7762,11.769435592 79.8726,10.284735593 79.3055,10.265035592 78.9314,9.5842355930001 78.9908,9.352235593 79.3255,9.320635592 79.4423,9.1538355930001 78.9626,9.2688355930001 78.3671,9.0797355920001 78.174,8.879235592 78.0693,8.367435593 77.5526,8.069035593 77.0133,8.3542355920001 76.5464,8.8985355930001 75.7333,11.353935593 75.1678,12.066935592 74.3953,14.418535592 73.4562,16.058035592 73.1898,17.300935593 73.2569,17.259835593 73.297,17.281135593 72.8563,18.688435593 73.0578,18.802735593 72.9069,18.886435593 73.0908,19.042935592 72.9764,19.170635593 72.9517,19.043235593 72.8032,18.897935592 72.787,19.306135592 72.9155,19.290835593 72.7583,19.375635593 72.6594,19.839135592 72.9519,20.754935593 72.8268,20.829135593 72.8912,20.986435593 72.7229,21.026635593 72.857,21.039135593 72.8316,21.167235593 72.626,21.089235593 72.7365,21.323835593 72.6379,21.448435592 73.1077,21.729735593 72.543,21.656335593 72.7781,21.950735593 72.5304,21.902335593 72.5471,22.157135593 72.6099,22.215035593 72.7419,22.175835593 72.7657,22.194135593 72.5931,22.281635593 72.3689,22.144935593 72.3892,22.331035593 72.1071,21.203835593 70.9782,20.701035593 70.5402,20.799635593 68.9348,22.305735593 69.0672,22.473335593 69.2346,22.260235593 70.1779,22.560435593 70.4856,23.088735592 69.7062,22.736635593 69.1975,22.833435592 68.3937,23.421635593 68.7812,23.866335593 68.2986,23.566235592 68.3259,23.725935593 68.1867,23.723035593 68.2862,23.938335593 67.9963,23.786735593 67.8939,23.975035592 67.652,23.794535592 67.4198,23.949735592 67.4317,24.247135592 67.2954,24.301035593 67.3466,24.342835593 67.4109,24.311335593 67.5291,24.334535592 67.4059,24.393235593 " /><polygon class="region" points="89.7853,24.000035593 89.7654,23.965635592 89.7811,23.938535592 89.7948,23.984135593 89.7853,24.000035593 " /><polygon class="region" points="118.9245,26.257235593 118.4673,26.222035593 117.975,26.397935593 117.7991,26.714435593 117.8343,27.417835593 118.3266,28.050835593 118.4673,29.246535593 119.2059,30.442235593 120.0851,30.407135593 120.5423,29.774035593 120.5774,27.769435593 118.9245,26.257235593 " /><polygon class="region" points="79.8471,8.2815355930001 79.9087,8.5455355930001 80.1309,8.139635593 81.0819,7.514435593 81.3725,6.9948355930001 81.4851,6.3043355930001 80.5859,5.917535592 80.0986,6.1289355930001 79.7053,8.0526355920001 79.6984,8.2138355930001 79.7179,8.2167355930001 79.7381,8.280035593 79.7812,8.349735593 79.7316,8.0868355920001 79.8179,7.889835593 79.7907,8.231135593 79.8471,8.2815355930001 " /><polygon class="region" points="92.1243,21.109535592 92.255,21.061535593 92.2627,20.927235593 92.3351,20.743735592 92.1243,21.109535592 " /><polygon class="region" points="66.3349,25.553135593 66.4265,25.482635592 66.5174,25.492035592 66.4928,25.447835593 66.527,25.411935593 66.1349,25.451535592 66.3349,25.553135593 " /><polygon class="region" points="67.1983,24.783335592 67.2292,24.782035593 67.1645,24.760635593 67.1653,24.776335593 67.1983,24.783335592 " /><polygon class="region" points="67.1244,24.748235592 67.1371,24.755335593 67.1515,24.730535593 67.1179,24.718035592 67.1244,24.748235592 " /><polygon class="region" points="66.1936,25.552235593 66.1955,25.532835592 66.1624,25.540635592 66.2057,25.572535592 66.1936,25.552235593 " /><polygon class="region" points="79.7803,8.483935592 79.7885,8.4642355930001 79.7905,8.408635593 79.7756,8.478135593 79.7801,8.526035592 79.7803,8.483935592 " /><polygon class="region" points="66.4127,25.536035593 66.4226,25.521935593 66.3953,25.552035593 66.4163,25.555735592 66.4127,25.536035593 " /><polygon class="region" points="67.2711,24.786235593 67.287,24.780635593 67.2487,24.766435593 67.2367,24.779635593 67.2711,24.786235593 " /><polygon class="region" points="66.6158,24.887035593 66.5983,24.888735593 66.6018,24.903035593 66.6175,24.899935593 66.6158,24.887035593 " /><polygon class="region" points="66.5164,25.455635592 66.5044,25.450535593 66.5285,25.467035593 66.5279,25.459635592 66.5164,25.455635592 " /><polygon class="region" points="79.7947,8.380135593 79.7971,8.3711355930001 79.7952,8.3682355930001 79.7887,8.386735592 79.7947,8.380135593 " /><polygon class="region" points="67.2117,24.802335592 67.2157,24.806235593 67.2324,24.792435593 67.2219,24.800235593 67.2117,24.802335592 " /><polygon class="region" points="66.3841,25.554535593 66.3798,25.563135593 66.3842,25.568535592 66.3873,25.565535593 66.3841,25.554535593 " /><polygon class="region" points="79.8009,8.3334355920001 79.8038,8.3361355930001 79.8078,8.316935592 79.8049,8.3188355930001 79.8009,8.3334355920001 " /><polygon class="region" points="66.3434,25.562735593 66.3516,25.559935593 66.3528,25.550535593 66.3495,25.552235593 66.3434,25.562735593 " /><polygon class="region" points="79.7961,8.2992355920001 79.8009,8.292535593 79.7975,8.290935593 79.7926,8.299935593 79.7966,8.304235593 79.7961,8.2992355920001 " /><polygon class="region" points="79.7763,8.2706355920001 79.7791,8.2722355920001 79.7835,8.259835593 79.7777,8.261035592 79.7763,8.2706355920001 " /><polygon class="region" points="66.35,25.589035593 66.3542,25.591335593 66.3612,25.584435592 66.3562,25.584135593 66.35,25.589035593 " /><polygon class="region" points="66.3694,25.587335593 66.3709,25.589935592 66.3817,25.580735593 66.3788,25.578535593 66.3694,25.587335593 " /><polygon class="region" points="79.8229,7.9447355930001 79.8174,7.9443355930001 79.821,7.9547355920001 79.8236,7.9484355920001 79.8229,7.9447355930001 " /><polygon class="region" points="94.3084,16.524835593 94.3097,16.519135593 94.2994,16.523835593 94.3029,16.525935593 94.3084,16.524835593 " /><polygon class="region" points="76.4724,9.1074355920001 76.4623,9.130635592 76.4733,9.111135593 76.4724,9.1074355920001 " /><polygon class="region" points="81.0188,15.758535593 81.0284,15.761735593 81.0318,15.759135593 81.0284,15.756935593 81.0188,15.758535593 " /><polygon class="region" points="79.804,8.1735355920001 79.8083,8.1660355930001 79.8072,8.161635592 79.804,8.1735355920001 " /><polygon class="region" points="90.5788,23.082335593 90.5831,23.072535593 90.5803,23.074235593 90.5788,23.082335593 " /><polygon class="region" points="89.9474,23.974635593 89.9489,23.978735593 89.9513,23.975235593 89.9474,23.974635593 " /><polygon class="region" points="89.9499,23.968935593 89.9521,23.968935593 89.9546,23.962935593 89.9499,23.968935593 " /><polygon class="region" points="66.1349,25.528135593 66.1349,25.533535592 66.1366,25.530835593 66.1349,25.528135593 " /><polygon class="region" points="128.2823,-3.4970644069999 128.2464,-3.738964407 128.0835,-3.793964407 128.2137,-3.6359644079999 127.9301,-3.779264407 128.2823,-3.4970644069999 " /><polygon class="region" points="116.3808,-8.2132644079999 116.7263,-8.353764407 116.4888,-8.8158644069999 116.6021,-8.878264407 115.8419,-8.819564408 116.0635,-8.775864408 116.0517,-8.422564408 116.3808,-8.2132644079999 " /><polygon class="region" points="116.7989,6.983435592 116.7636,6.5727355930001 117.149,7.008535593 117.2893,6.6150355930001 117.7346,6.4283355920001 117.5902,5.906135593 118.0412,6.0336355920001 118.1282,5.847035593 117.8907,5.7933355920001 117.9425,5.655735592 118.3476,5.8234355930001 118.9305,5.420035593 119.2379,5.3909355920001 119.1661,5.110435593 118.6696,4.9339355930001 118.3273,5.024235592 118.1228,4.8755355930001 118.2647,4.659135593 118.5878,4.5084355930001 118.6159,4.4062355930001 117.977,4.2224355930001 117.6489,4.4156355920001 117.6365,4.2500355920001 117.2751,4.300835593 116.2907,3.9192355920001 114.4022,3.8300355920001 113.7566,4.0310355930001 113.9691,4.596035592 114.4426,4.6639355930001 115.0549,5.0471355920001 115.1263,4.999535592 115.0327,5.0032355930001 115.0034,4.8913355920001 115.0585,4.7912355930001 115.5131,5.0333355930001 115.6052,5.227935593 115.3423,5.2991355930001 115.375,5.4043355920001 115.5952,5.6307355930001 115.8733,5.581435593 116.0841,6.111135593 116.7989,6.983435592 " /><polygon class="region" points="115.2527,5.3875355930001 115.2675,5.2897355920001 115.1547,5.251535592 115.1977,5.3488355920001 115.2527,5.3875355930001 " /><polygon class="region" points="115.2932,-8.1027644079999 115.7181,-8.400364408 115.1638,-8.849464407 115.0317,-8.5613644069999 114.5892,-8.404564407 114.4307,-8.179664407 115.2932,-8.1027644079999 " /><polygon class="region" points="120.5879,14.135335592 120.9878,14.493135592 120.9611,14.634835592 120.5994,14.902635593 120.608,14.480935593 120.4764,14.409335593 120.2467,14.692035592 120.2979,14.826835593 120.0843,14.785635593 119.9114,15.839835593 119.7477,15.973535593 119.8844,16.391135593 120.1428,16.037035593 120.4258,16.172835593 120.2798,16.614135592 120.4745,17.387735593 120.3345,17.569135593 120.5638,18.493235592 121.1376,18.630435593 121.928,18.265735592 122.2231,18.522435592 122.338,18.308235593 122.1687,18.081135592 122.1636,17.618635593 122.5278,17.096535593 122.204,16.237235593 121.5523,15.898035592 121.6386,15.718835593 121.3717,15.319335593 121.7339,14.695235592 121.6042,14.662335593 121.6559,14.400935592 121.7421,14.156435593 122.1007,13.924835593 122.3167,14.001635592 122.1633,14.134035593 122.2479,14.240935592 122.3404,14.110135593 122.4136,14.315135592 122.6816,14.343835593 123.0428,14.103835593 123.1132,13.733135593 123.3128,13.789135592 123.2271,13.997635592 123.338,14.106235593 123.4253,13.922735592 123.939,13.797635593 123.5943,13.727835592 123.5307,13.569935593 123.8649,13.239235593 123.7556,13.064335593 124.1904,13.066135592 124.1002,12.558635592 123.8471,12.738535593 124.029,12.969935592 123.7361,12.845435593 123.3181,13.009635592 123.1909,13.429135593 122.5348,13.963635593 122.4095,13.960635593 122.6764,13.378035592 122.5964,13.159635593 122.3974,13.523735593 121.8072,13.946635592 121.4856,13.847735593 121.4229,13.654535593 121.0767,13.619635592 121.0355,13.773435593 120.8758,13.708835592 120.8761,13.905535593 120.7199,13.932635593 120.6488,13.777735593 120.5879,14.135335592 " /><polygon class="region" points="120.5714,14.140135592 120.5879,14.135335592 120.5782,14.131535593 120.5714,14.140135592 " /><polygon class="region" points="124.0633,11.281035592 124.0203,10.387235593 123.6441,10.081235592 123.3045,9.420935592 123.3744,9.991535593 124.0633,11.281035592 " /><polygon class="region" points="122.764,7.764735592 122.4445,7.6049355920001 122.1475,6.9067355930001 121.9378,6.9608355930001 122.2274,7.9631355930001 122.9176,8.1490355920001 123.0273,8.485235593 123.3076,8.5272355930001 123.3854,8.724735593 123.8429,8.427035593 123.8691,8.158035593 123.6658,8.0272355920001 123.6667,7.9547355920001 124.2303,8.218635593 124.3832,8.593235593 124.7511,8.5004355930001 124.8031,9.0023355930001 125.0972,8.8268355920001 125.2063,9.095535592 125.5185,9.0111355930001 125.4483,9.826035592 125.9599,9.487035592 126.0364,9.241535593 126.2109,9.3102355930001 126.1604,9.1069355930001 126.337,8.8440355930001 126.0872,8.612435593 126.3959,8.5057355930001 126.3582,7.8890355930001 126.5723,7.723435592 126.6015,7.2867355920001 126.2795,6.928135593 126.3484,6.805635593 126.152,6.904835592 126.2556,6.7559355920001 126.1886,6.2738355920001 125.8536,7.356635592 125.6511,7.2434355930001 125.3701,6.722935593 125.7127,6.107935593 125.3304,5.5562355920001 125.1698,5.812635592 125.2587,6.093035593 124.9238,5.859035593 124.0545,6.375635592 123.9565,6.9111355920001 124.2567,7.3666355930001 124.0123,7.646935592 123.4381,7.821235592 123.4097,7.358635593 123.1175,7.513335592 123.1223,7.758935593 123.012,7.4735355920001 122.8112,7.4355355930001 122.8513,7.7163355930001 122.8207,7.7181355930001 122.8097,7.750435592 122.7544,7.783735592 122.764,7.764735592 " /><polygon class="region" points="122.8165,7.713935593 122.8027,7.7077355930001 122.8002,7.721035592 122.8126,7.7233355920001 122.8165,7.713935593 " /><polygon class="region" points="122.7591,7.756935593 122.7719,7.768035593 122.7834,7.764635592 122.7775,7.7579355930001 122.7591,7.756935593 " /><polygon class="region" points="110.7017,20.120035592 110.9324,20.010035593 111.0378,19.643335592 110.7916,19.613835593 110.4854,19.169635593 110.5375,18.780835593 110.4138,18.664535593 110.0524,18.383135593 109.751,18.406335592 109.574,18.161635593 108.6921,18.506835593 108.6342,19.271435593 109.3037,19.717735593 109.1647,19.713235593 109.2676,19.903535592 109.5366,19.839835592 109.6945,20.007835592 109.9965,19.898235593 110.3802,20.087335592 110.614,19.918635592 110.5705,20.088635593 110.7017,20.120035592 " /><polygon class="region" points="112.6386,-7.0259644069999 112.8246,-7.2965644069999 112.7443,-7.5458644079999 112.9478,-7.6697644069999 113.2931,-7.792164407 114.0425,-7.615564407 114.4368,-7.790164408 114.3508,-8.521964408 114.5899,-8.758864407 113.2375,-8.283764407 112.6587,-8.4489644069999 110.7107,-8.201664407 110.2478,-7.930564407 109.0168,-7.748864408 108.8722,-7.6063644079999 108.4412,-7.814164407 107.8445,-7.733264407 107.3979,-7.496464408 106.4091,-7.379764408 106.5174,-6.969064408 106.013,-6.814564407 105.5368,-6.869364407 105.2009,-6.763664407 105.3611,-6.644564408 105.4592,-6.824164407 105.648,-6.476264407 105.7959,-6.484164407 106.0364,-5.8737644079999 106.172,-6.0314644069999 106.2649,-5.938464407 106.9529,-6.110064408 107.022,-5.913564408 107.3364,-5.9632644069999 107.6503,-6.251864407 108.2951,-6.2426644069999 108.7032,-6.814664407 110.1786,-6.852664407 110.372,-6.972864407 110.6653,-6.4965644079999 110.9123,-6.397264408 111.1707,-6.703564408 111.4902,-6.6183644079999 112.077,-6.891664407 112.5511,-6.861864408 112.6386,-7.0259644069999 " /><polygon class="region" points="112.6386,-7.0259644069999 112.6366,-7.018564408 112.6381,-7.0121644079999 112.6419,-7.012964408 112.6386,-7.0259644069999 " /><polygon class="region" points="123.2216,10.995135593 123.5676,10.796235593 123.136,9.834635592 123.2966,9.2337355930001 123.0198,9.037335593 122.3805,9.8383355930001 122.8635,10.091935593 122.7957,10.526335593 122.9528,10.894135593 123.2216,10.995135593 " /><polygon class="region" points="100.3111,5.460735593 100.2879,5.262335593 100.1854,5.272135593 100.1817,5.4751355920001 100.3111,5.460735593 " /><polygon class="region" points="122.5675,12.498735593 122.6977,12.398935593 122.6314,12.268235592 122.423,12.438735593 122.5675,12.498735593 " /><polygon class="region" points="125,1.756935592 125.2292,1.4663355930001 124.4661,0.44873559300004 123.6281,0.27143559300004 123.2657,0.31393559200006 123.0685,0.52983559300003 121.7922,0.41103559200008 121.5221,0.55183559200003 121.0623,0.40523559200005 120.5418,0.53073559300003 120.144,0.20463559300004 120,-0.21936440699994 120.06,-0.63286440799993 120.2953,-0.94986440699995 120.5077,-0.98646440699997 120.6791,-1.4195644079999 121.0959,-1.423664408 121.6279,-0.79856440699996 121.9401,-0.98156440699995 122.2009,-0.77506440699995 122.9587,-0.74746440799993 122.7176,-0.65916440799992 123.054,-0.56126440799994 123.4563,-0.76916440699995 123.3243,-1.051064407 123.0974,-0.83256440799994 122.7985,-0.94046440699998 122.3859,-1.498264408 121.8556,-1.672364407 121.6613,-1.943864408 121.3359,-1.775464407 121.2864,-1.838364407 122.4777,-3.1659644069999 122.1945,-3.6007644069999 122.6659,-3.8973644069999 122.5312,-3.9696644069999 122.6801,-4.154464408 122.8464,-4.062864407 122.8914,-4.396864407 122.6713,-4.3228644069999 122.7454,-4.5033644069999 122.5917,-4.3916644079999 122.0896,-4.5359644069999 122.0065,-4.8966644069999 121.538,-4.764964407 121.6032,-4.0599644079999 120.881,-3.532364408 121.0871,-2.718564408 120.6803,-2.648864407 120.1914,-2.970164408 120.4132,-3.2719644069999 120.3297,-4.113764407 120.4541,-4.6590644079999 120.261,-5.143864407 120.4658,-5.621964407 120.3252,-5.5121644069999 119.7733,-5.705864408 119.431,-5.5961644079999 119.3504,-5.327064408 119.6298,-3.9734644069999 119.4191,-3.4612644069999 118.9305,-3.5685644069999 118.7743,-3.095164407 118.8836,-2.8993644079999 118.7525,-2.782464407 119.1444,-2.4729644079999 119.1428,-2.1915644069999 119.3479,-1.9342644079999 119.3326,-1.174564408 119.7373,-0.64516440699993 119.8713,-0.87796440799997 119.8118,-0.13996440699998 119.6123,-0.011264406999942 119.8424,-0.10166440699993 119.7755,0.22183559300004 119.9009,0.22543559200005 120.0465,0.71843559300004 120.2828,0.98243559300005 120.5903,0.76003559200006 120.9112,1.3548355930001 121.4587,1.3025355930001 121.5608,1.059535593 122.4371,1.029335593 122.847,0.80543559200004 122.9734,0.96623559200003 123.9415,0.83293559300006 124.584,1.195835593 124.535,1.3578355930001 124.8216,1.465735592 125,1.756935592 " /><polygon class="region" points="104.5198,-1.9324644069999 104.8669,-2.074564407 104.6336,-2.389164407 104.7309,-2.593364407 104.8517,-2.292364408 105.611,-2.395464407 105.8042,-2.910164407 106.0522,-3.0066644079999 106.0845,-3.2329644069999 105.8151,-3.6382644079999 105.9571,-3.8391644069999 105.8088,-4.140664407 105.9125,-4.9374644079999 105.7141,-5.9093644069999 105.288,-5.443864407 105.1664,-5.8060644079999 104.5268,-5.5248644069999 104.7288,-5.9310644079999 104.5712,-5.9422644069999 103.7228,-4.969764407 102.2849,-3.9793644069999 102.216,-3.670964408 101.6077,-3.2397644079999 100.8867,-2.333164407 100.8495,-1.914464408 100.3929,-1.2732644079999 100.3339,-0.87756440699997 99.7333,-0.036564406999958 99.1389,0.25173559200005 98.7171,1.5584355930001 98.7992,1.720035593 97.7601,2.2663355930001 97.604,2.869035592 96.873,3.6871355930001 96.4967,3.751335592 95.5387,4.6472355930001 95.211,5.561135592 95.6132,5.6266355930001 96.3882,5.214835593 97.5137,5.246335593 97.9036,4.8845355930001 97.9619,4.5272355930001 98.2892,4.421835592 98.146,4.0777355930001 98.4903,4.030235593 99.76,3.1722355920001 100.1289,2.5224355930001 100.2153,2.7101355930001 100.4361,2.2738355930001 100.9132,1.849535593 100.7702,2.2242355930001 101.0466,2.289835592 101.4033,1.7070355930001 101.762,1.667135592 102.1575,1.367935592 102.4055,0.81623559300004 102.922,0.70653559300007 103.1097,0.44613559300007 102.6977,0.21543559300005 103.3339,0.54333559300005 103.6699,0.33253559300005 103.8109,0.00443559200005 103.4368,-0.20346440699996 103.7708,-0.34806440799997 103.416,-0.52706440799994 103.3733,-0.72246440699996 103.7477,-1.012264408 104.3721,-1.027464408 104.5198,-1.9324644069999 " /><polygon class="region" points="124.9664,12.571835593 125.1834,12.561435593 125.5185,12.194935592 125.4135,11.761035593 125.6334,11.357135593 125.5331,11.199335593 125.6584,11.207535593 125.7553,11.016835592 125.6613,11.143435593 125.2349,11.087235593 124.9792,11.287535593 124.8227,11.518835592 125.043,11.754735593 124.4188,12.162635593 124.263,12.550635592 124.9664,12.571835593 " /><polygon class="region" points="129.5376,-2.7868644069999 130.5644,-3.114864408 130.8285,-3.451564407 130.8452,-3.8730644079999 129.9066,-3.334264407 129.5186,-3.293564407 129.5195,-3.4702644069999 128.9296,-3.344964407 128.8772,-3.197364407 128.4559,-3.4555644069999 128.1716,-3.2268644069999 128.1843,-3.058264408 127.9118,-3.566164407 127.8346,-3.157264407 128.1015,-3.0599644079999 128.166,-2.8601644079999 129.0434,-2.7968644069999 129.1261,-2.9666644069999 129.5376,-2.7868644069999 " /><polygon class="region" points="109.0195,2.556535592 109.1153,2.532035593 109.1164,2.509035593 109.0186,2.482235593 109.0195,2.556535592 " /><polygon class="region" points="127.1203,-8.374664407 127.3025,-8.435064407 127.0212,-8.688464407 125.128,-9.4338644069999 124.4062,-10.157064407 123.4487,-10.360164407 123.7457,-10.077664407 123.5679,-9.947064407 123.7779,-9.4983644069999 124.9519,-8.963664407 125.0997,-8.752364407 125.2849,-8.847464408 125.1285,-8.6471644069999 127.1203,-8.374664407 " />
		  </g>
		</svg>