<?xml version="1.0" encoding="UTF-8"?>
	<svg xmlns:xlink="http://www.w3.org/1999/xlink" 
	xmlns="http://www.w3.org/2000/svg" 
	width="360px" height="180px">
	   <style type="text/css">
		  <![CDATA[     
		  .region 
		  { 
			fill:blue; 
			opacity:0.4; 
			stroke:blue;
		  }
		  ]]>
	   </style>

	<circle id="dot" x="-2" y="-2" r="2" style="stroke:none; stroke-width:0; fill:black; opacity:0.7;"/>


	 <image x="0" y="0" width="360" height="180" xlink:href="map.jpg"/>

 
	 <g transform="translate(180,90) scale(1,-1)">   <use xlink:href="#dot" transform="translate(81.322708,6.360905)" />   <use xlink:href="#dot" transform="translate(80.414986,6.431645)" />   <use xlink:href="#dot" transform="translate(94.4746,22.3183)" />   <use xlink:href="#dot" transform="translate(94.4746,22.3183)" />   <use xlink:href="#dot" transform="translate(120.905119,16.583631)" />   <use xlink:href="#dot" transform="translate(121.121881,17.017169)" />   <use xlink:href="#dot" transform="translate(121.103361,17.0397)" />   <use xlink:href="#dot" transform="translate(121.121881,17.017169)" />   <use xlink:href="#dot" transform="translate(121.121881,17.017169)" />   <use xlink:href="#dot" transform="translate(121.123931,17.017269)" />   <use xlink:href="#dot" transform="translate(121.121881,17.017169)" />   <use xlink:href="#dot" transform="translate(121.123931,17.017269)" />   <use xlink:href="#dot" transform="translate(121.121881,17.017169)" />   <use xlink:href="#dot" transform="translate(121.121881,17.017169)" />   <use xlink:href="#dot" transform="translate(121.123931,17.017269)" />   <use xlink:href="#dot" transform="translate(121.121881,17.017169)" />   <use xlink:href="#dot" transform="translate(121.121881,17.017169)" />   <use xlink:href="#dot" transform="translate(124.7085,9.1925)" />   <use xlink:href="#dot" transform="translate(120.860781,16.858881)" />   <use xlink:href="#dot" transform="translate(120.867989,16.862811)" />   <use xlink:href="#dot" transform="translate(105.56055,-10.47554)" />   <use xlink:href="#dot" transform="translate(105.50717,21.58133)" />   <use xlink:href="#dot" transform="translate(105.50717,21.58133)" />   <use xlink:href="#dot" transform="translate(105.50717,21.58133)" />   <use xlink:href="#dot" transform="translate(105.50717,21.58133)" />   <use xlink:href="#dot" transform="translate(105.50717,21.58133)" />   <use xlink:href="#dot" transform="translate(105.50717,21.58133)" />   <use xlink:href="#dot" transform="translate(105.50717,21.58133)" />   <use xlink:href="#dot" transform="translate(105.50717,21.58133)" />   <use xlink:href="#dot" transform="translate(105.50717,21.58133)" />   <use xlink:href="#dot" transform="translate(105.50717,21.58133)" />   <use xlink:href="#dot" transform="translate(105.50717,21.58133)" />   <use xlink:href="#dot" transform="translate(105.50717,21.58133)" />   <use xlink:href="#dot" transform="translate(105.641944,21.453889)" />   <use xlink:href="#dot" transform="translate(105.641944,21.453889)" />   <use xlink:href="#dot" transform="translate(105.641944,21.453889)" />   <use xlink:href="#dot" transform="translate(105.641944,21.453889)" />   <use xlink:href="#dot" transform="translate(105.641944,21.453889)" />   <use xlink:href="#dot" transform="translate(122.583298,12.4833)" />   <use xlink:href="#dot" transform="translate(122.583298,12.4833)" />   <use xlink:href="#dot" transform="translate(84.333333,27.583333)" />   <use xlink:href="#dot" transform="translate(84.333333,27.583333)" />   <use xlink:href="#dot" transform="translate(84.505,27.56833)" />   <use xlink:href="#dot" transform="translate(84.505,27.56833)" />   <use xlink:href="#dot" transform="translate(84.505,27.56833)" />   <use xlink:href="#dot" transform="translate(84.333333,27.583333)" />   <use xlink:href="#dot" transform="translate(84.505,27.56833)" />   <use xlink:href="#dot" transform="translate(84.333333,27.583333)" />   <use xlink:href="#dot" transform="translate(84.333333,27.583333)" />   <use xlink:href="#dot" transform="translate(84.505,27.56833)" />   <use xlink:href="#dot" transform="translate(84.333333,27.583333)" />   <use xlink:href="#dot" transform="translate(84.333333,27.583333)" />   <use xlink:href="#dot" transform="translate(123.199997,9.2666)" />   <use xlink:href="#dot" transform="translate(123.199997,9.2666)" />   <use xlink:href="#dot" transform="translate(123.199997,9.2666)" />   <use xlink:href="#dot" transform="translate(123.199997,9.2666)" />   <use xlink:href="#dot" transform="translate(123.199997,9.2666)" />   <use xlink:href="#dot" transform="translate(123.199997,9.2666)" />   <use xlink:href="#dot" transform="translate(123.199997,9.2666)" />   <use xlink:href="#dot" transform="translate(122.516602,12.4833)" />   <use xlink:href="#dot" transform="translate(90.400002,23.799999)" />   <use xlink:href="#dot" transform="translate(90.400002,23.799999)" />   <use xlink:href="#dot" transform="translate(101.283333,21.916667)" />   <use xlink:href="#dot" transform="translate(146.705612,-7.341485)" />   <use xlink:href="#dot" transform="translate(146.7064322359,-7.3401452157075)" />   <use xlink:href="#dot" transform="translate(146.7064322359,-7.3401452157075)" />   <use xlink:href="#dot" transform="translate(141.585007,-3.3889)" />   <use xlink:href="#dot" transform="translate(146.7064322359,-7.3401452157075)" />   <use xlink:href="#dot" transform="translate(146.7064322359,-7.3401452157075)" />   <use xlink:href="#dot" transform="translate(146.7064322359,-7.3401452157075)" />   <use xlink:href="#dot" transform="translate(141.585007,-3.3889)" />   <use xlink:href="#dot" transform="translate(146.7064322359,-7.3401452157075)" />   <use xlink:href="#dot" transform="translate(141.585007,-3.3889)" />   <use xlink:href="#dot" transform="translate(141.585007,-3.3889)" />   <use xlink:href="#dot" transform="translate(146.7064322359,-7.3401452157075)" />   <use xlink:href="#dot" transform="translate(146.7064322359,-7.3401452157075)" />   <use xlink:href="#dot" transform="translate(141.585007,-3.3889)" />   <use xlink:href="#dot" transform="translate(146.7064322359,-7.3401452157075)" />   <use xlink:href="#dot" transform="translate(146.7064322359,-7.3401452157075)" />   <use xlink:href="#dot" transform="translate(141.585007,-3.3889)" />   <use xlink:href="#dot" transform="translate(141.585007,-3.3889)" />   <use xlink:href="#dot" transform="translate(105.5847,-10.4986)" />   <use xlink:href="#dot" transform="translate(105.5847,-10.4986)" />   <use xlink:href="#dot" transform="translate(105.5847,-10.4986)" />   <use xlink:href="#dot" transform="translate(105.5847,-10.4986)" />   <use xlink:href="#dot" transform="translate(105.5847,-10.4986)" />   <use xlink:href="#dot" transform="translate(105.5847,-10.4986)" />   <use xlink:href="#dot" transform="translate(105.5847,-10.4986)" />   <use xlink:href="#dot" transform="translate(105.5847,-10.4986)" />   <use xlink:href="#dot" transform="translate(105.5847,-10.4986)" />   <use xlink:href="#dot" transform="translate(105.5847,-10.4986)" />   <use xlink:href="#dot" transform="translate(105.5847,-10.4986)" />   <use xlink:href="#dot" transform="translate(105.5847,-10.4986)" />   <use xlink:href="#dot" transform="translate(123.18333,9.36667)" />   <use xlink:href="#dot" transform="translate(123.18333,9.36667)" />   <use xlink:href="#dot" transform="translate(123.15,9.36667)" />   <use xlink:href="#dot" transform="translate(105.5944,-10.4806)" />   <use xlink:href="#dot" transform="translate(105.5944,-10.4806)" />   <use xlink:href="#dot" transform="translate(105.5944,-10.4806)" />   <use xlink:href="#dot" transform="translate(105.5944,-10.4806)" />   <use xlink:href="#dot" transform="translate(105.5847,-10.4986)" />   <use xlink:href="#dot" transform="translate(105.5944,-10.5028)" />   <use xlink:href="#dot" transform="translate(105.6236,-10.5111)" />   <use xlink:href="#dot" transform="translate(105.5861,-10.4986)" />   <use xlink:href="#dot" transform="translate(105.5944,-10.4806)" />   <use xlink:href="#dot" transform="translate(105.5944,-10.5028)" />   <use xlink:href="#dot" transform="translate(105.5944,-10.5028)" />   <use xlink:href="#dot" transform="translate(105.5944,-10.5028)" />   <use xlink:href="#dot" transform="translate(105.5944,-10.5028)" />   <use xlink:href="#dot" transform="translate(105.6222,-10.4944)" />   <use xlink:href="#dot" transform="translate(105.6222,-10.4944)" />   <use xlink:href="#dot" transform="translate(105.5944,-10.5028)" />   <use xlink:href="#dot" transform="translate(105.6222,-10.4944)" />   <use xlink:href="#dot" transform="translate(123.18333,9.36667)" />   <use xlink:href="#dot" transform="translate(123.18333,9.36667)" />   <use xlink:href="#dot" transform="translate(123.16667,9.35)" />   <use xlink:href="#dot" transform="translate(146.666672,-7.366667)" />   <use xlink:href="#dot" transform="translate(146.666672,-7.366667)" />   <use xlink:href="#dot" transform="translate(151.199997,-2.8833)" />   <use xlink:href="#dot" transform="translate(151.366699,-2.9)" />   <use xlink:href="#dot" transform="translate(151.199997,-2.8833)" />   <use xlink:href="#dot" transform="translate(151.199997,-2.8833)" />   <use xlink:href="#dot" transform="translate(151.199997,-2.8833)" />   <use xlink:href="#dot" transform="translate(151.583298,-3.15)" />   <use xlink:href="#dot" transform="translate(151.199997,-2.8833)" />   <use xlink:href="#dot" transform="translate(151.199997,-2.8833)" />   <use xlink:href="#dot" transform="translate(151.199997,-2.8833)" />   <use xlink:href="#dot" transform="translate(151.583298,-3.15)" />   <use xlink:href="#dot" transform="translate(151.199997,-2.8833)" />   <use xlink:href="#dot" transform="translate(151.583298,-3.15)" />   <use xlink:href="#dot" transform="translate(151.199997,-2.8833)" />   <use xlink:href="#dot" transform="translate(151.199997,-2.8833)" />   <use xlink:href="#dot" transform="translate(151.199997,-2.8833)" />   <use xlink:href="#dot" transform="translate(151.199997,-2.8833)" />   <use xlink:href="#dot" transform="translate(151.583298,-3.15)" />   <use xlink:href="#dot" transform="translate(151.583298,-3.15)" />   <use xlink:href="#dot" transform="translate(151.199997,-2.8833)" />   <use xlink:href="#dot" transform="translate(151.199997,-2.8833)" />   <use xlink:href="#dot" transform="translate(151.199997,-2.8833)" />   <use xlink:href="#dot" transform="translate(151.199997,-2.8833)" />   <use xlink:href="#dot" transform="translate(151.199997,-2.8833)" />   <use xlink:href="#dot" transform="translate(151.583298,-3.15)" />   <use xlink:href="#dot" transform="translate(151.199997,-2.8833)" />   <use xlink:href="#dot" transform="translate(151.199997,-2.8833)" />   <use xlink:href="#dot" transform="translate(151.199997,-2.8833)" />   <use xlink:href="#dot" transform="translate(151.199997,-2.8833)" />   <use xlink:href="#dot" transform="translate(151.199997,-2.8833)" />   <use xlink:href="#dot" transform="translate(151.199997,-2.8833)" />   <use xlink:href="#dot" transform="translate(151.199997,-2.8833)" />   <use xlink:href="#dot" transform="translate(151.583298,-3.15)" />   <use xlink:href="#dot" transform="translate(151.199997,-2.8833)" />   <use xlink:href="#dot" transform="translate(151.199997,-2.8833)" />   <use xlink:href="#dot" transform="translate(151.199997,-2.8833)" />   <use xlink:href="#dot" transform="translate(151.199997,-2.8833)" />   <use xlink:href="#dot" transform="translate(151.199997,-2.8833)" />   <use xlink:href="#dot" transform="translate(151.199997,-2.8833)" />   <use xlink:href="#dot" transform="translate(151.366699,-2.9)" />   <use xlink:href="#dot" transform="translate(151.199997,-2.8833)" />   <use xlink:href="#dot" transform="translate(151.199997,-2.8833)" />   <use xlink:href="#dot" transform="translate(151.199997,-2.8833)" />   <use xlink:href="#dot" transform="translate(151.583298,-3.15)" />   <use xlink:href="#dot" transform="translate(151.199997,-2.8833)" />   <use xlink:href="#dot" transform="translate(151.583298,-3.15)" />   <use xlink:href="#dot" transform="translate(151.199997,-2.8833)" />   <use xlink:href="#dot" transform="translate(151.199997,-2.8833)" />   <use xlink:href="#dot" transform="translate(151.583298,-3.15)" />   <use xlink:href="#dot" transform="translate(151.199997,-2.8833)" />   <use xlink:href="#dot" transform="translate(151.366699,-2.9)" />   <use xlink:href="#dot" transform="translate(151.199997,-2.8833)" />   <use xlink:href="#dot" transform="translate(151.199997,-2.8833)" />   <use xlink:href="#dot" transform="translate(151.199997,-2.8833)" />   <use xlink:href="#dot" transform="translate(151.583298,-3.15)" />   <use xlink:href="#dot" transform="translate(151.199997,-2.8833)" />   <use xlink:href="#dot" transform="translate(151.583298,-3.15)" />   <use xlink:href="#dot" transform="translate(151.199997,-2.8833)" />   <use xlink:href="#dot" transform="translate(151.583298,-3.15)" />   <use xlink:href="#dot" transform="translate(151.366699,-2.9)" />   <use xlink:href="#dot" transform="translate(151.199997,-2.8833)" />   <use xlink:href="#dot" transform="translate(151.199997,-2.8833)" />   <use xlink:href="#dot" transform="translate(151.199997,-2.8833)" />   <use xlink:href="#dot" transform="translate(151.366699,-2.9)" />   <use xlink:href="#dot" transform="translate(151.199997,-2.8833)" />   <use xlink:href="#dot" transform="translate(151.366699,-2.9)" />   <use xlink:href="#dot" transform="translate(151.583298,-3.15)" />   <use xlink:href="#dot" transform="translate(151.199997,-2.8833)" />   <use xlink:href="#dot" transform="translate(151.583298,-3.15)" />   <use xlink:href="#dot" transform="translate(151.199997,-2.8833)" />   <use xlink:href="#dot" transform="translate(151.199997,-2.8833)" />   <use xlink:href="#dot" transform="translate(151.199997,-2.8833)" />   <use xlink:href="#dot" transform="translate(151.583298,-3.15)" />   <use xlink:href="#dot" transform="translate(151.199997,-2.8833)" />   <use xlink:href="#dot" transform="translate(151.583298,-3.15)" />   <use xlink:href="#dot" transform="translate(151.199997,-2.8833)" />   <use xlink:href="#dot" transform="translate(151.199997,-2.8833)" />   <use xlink:href="#dot" transform="translate(151.199997,-2.8833)" />   <use xlink:href="#dot" transform="translate(151.199997,-2.8833)" />   <use xlink:href="#dot" transform="translate(151.583298,-3.15)" />   <use xlink:href="#dot" transform="translate(151.583298,-3.15)" />   <use xlink:href="#dot" transform="translate(142.75,-8.02)" />   <use xlink:href="#dot" transform="translate(142.75,-8.02)" />   <use xlink:href="#dot" transform="translate(142.75,-8.02)" />   <use xlink:href="#dot" transform="translate(142.75,-8.02)" />   <use xlink:href="#dot" transform="translate(142.75,-8.02)" />   <use xlink:href="#dot" transform="translate(142.75,-8.02)" />   <use xlink:href="#dot" transform="translate(142.75,-8.02)" />   <use xlink:href="#dot" transform="translate(142.75,-8.02)" />   <use xlink:href="#dot" transform="translate(142.75,-8.02)" />   <use xlink:href="#dot" transform="translate(142.75,-8.02)" />   <use xlink:href="#dot" transform="translate(142.75,-8.02)" />   <use xlink:href="#dot" transform="translate(142.75,-8.02)" />   <use xlink:href="#dot" transform="translate(142.75,-8.02)" />   <use xlink:href="#dot" transform="translate(142.75,-8.02)" />   <use xlink:href="#dot" transform="translate(142.75,-8.02)" />   <use xlink:href="#dot" transform="translate(142.75,-8.02)" />   <use xlink:href="#dot" transform="translate(142.75,-8.02)" />   <use xlink:href="#dot" transform="translate(142.75,-8.02)" />   <use xlink:href="#dot" transform="translate(142.75,-8.02)" />   <use xlink:href="#dot" transform="translate(142.75,-8.02)" />   <use xlink:href="#dot" transform="translate(142.75,-8.02)" />   <use xlink:href="#dot" transform="translate(142.75,-8.02)" />   <use xlink:href="#dot" transform="translate(146.666672,-7.366667)" />   <use xlink:href="#dot" transform="translate(146.666672,-7.366667)" />   <use xlink:href="#dot" transform="translate(146.666672,-7.366667)" />   <use xlink:href="#dot" transform="translate(80.60002,7.26667)" />   <use xlink:href="#dot" transform="translate(90.366667,23.7)" />   <use xlink:href="#dot" transform="translate(90.366667,23.7)" />   <use xlink:href="#dot" transform="translate(90.366667,23.7)" />   <use xlink:href="#dot" transform="translate(90.366667,23.7)" />   <use xlink:href="#dot" transform="translate(90.366667,23.7)" />   <use xlink:href="#dot" transform="translate(90.366667,23.7)" />   <use xlink:href="#dot" transform="translate(90.366667,23.7)" />   <use xlink:href="#dot" transform="translate(90.366667,23.7)" />   <use xlink:href="#dot" transform="translate(90.366667,23.7)" />   <use xlink:href="#dot" transform="translate(90.366667,23.7)" />   <use xlink:href="#dot" transform="translate(90.366667,23.7)" />   <use xlink:href="#dot" transform="translate(90.366667,23.7)" />   <use xlink:href="#dot" transform="translate(90.366667,23.7)" />   <use xlink:href="#dot" transform="translate(90.366667,23.7)" />   <use xlink:href="#dot" transform="translate(90.366667,23.7)" />   <use xlink:href="#dot" transform="translate(90.366667,23.7)" />   <use xlink:href="#dot" transform="translate(90.366667,23.7)" />   <use xlink:href="#dot" transform="translate(90.366667,23.7)" />   <use xlink:href="#dot" transform="translate(142.87642756924,-8.7857868323356)" />   <use xlink:href="#dot" transform="translate(142.87642756924,-8.7857868323356)" />   <use xlink:href="#dot" transform="translate(147.00002403871,-6.723590830214)" />   <use xlink:href="#dot" transform="translate(142.87642756924,-8.7857868323356)" />   <use xlink:href="#dot" transform="translate(147.00002403871,-6.723590830214)" />   <use xlink:href="#dot" transform="translate(142.87642756924,-8.7857868323356)" />   <use xlink:href="#dot" transform="translate(142.87642756924,-8.7857868323356)" />   <use xlink:href="#dot" transform="translate(142.87642756924,-8.7857868323356)" />   <use xlink:href="#dot" transform="translate(147.00002403871,-6.723590830214)" />   <use xlink:href="#dot" transform="translate(142.87642756924,-8.7857868323356)" />   <use xlink:href="#dot" transform="translate(83,25.33333)" />   <use xlink:href="#dot" transform="translate(83,25.33333)" />   <use xlink:href="#dot" transform="translate(83,25.33333)" />   <use xlink:href="#dot" transform="translate(144.8333,-6.5)" />   <use xlink:href="#dot" transform="translate(144.8333,-6.5)" />   <use xlink:href="#dot" transform="translate(144.8333,-6.5)" />   <use xlink:href="#dot" transform="translate(144.8333,-6.5)" />   <use xlink:href="#dot" transform="translate(144.8333,-6.5)" />   <use xlink:href="#dot" transform="translate(144.8333,-6.5)" />   <use xlink:href="#dot" transform="translate(144.8333,-6.5)" />   <use xlink:href="#dot" transform="translate(144.8333,-6.5)" />   <use xlink:href="#dot" transform="translate(144.8333,-6.5)" />   <use xlink:href="#dot" transform="translate(144.8333,-6.5)" />   <use xlink:href="#dot" transform="translate(144.8333,-6.5)" />   <use xlink:href="#dot" transform="translate(144.8333,-6.5)" />   <use xlink:href="#dot" transform="translate(144.8333,-6.5)" />   <use xlink:href="#dot" transform="translate(144.8333,-6.5)" />   <use xlink:href="#dot" transform="translate(144.8333,-6.5)" />   <use xlink:href="#dot" transform="translate(144.8333,-6.5)" />   <use xlink:href="#dot" transform="translate(144.8333,-6.5)" />   <use xlink:href="#dot" transform="translate(144.8333,-6.5)" />   <use xlink:href="#dot" transform="translate(144.8333,-6.5)" />   <use xlink:href="#dot" transform="translate(144.8333,-6.5)" />   <use xlink:href="#dot" transform="translate(144.8333,-6.5)" />   <use xlink:href="#dot" transform="translate(144.8333,-6.5)" />   <use xlink:href="#dot" transform="translate(144.8333,-6.5)" />   <use xlink:href="#dot" transform="translate(144.8333,-6.5)" />   <use xlink:href="#dot" transform="translate(144.8333,-6.5)" />   <use xlink:href="#dot" transform="translate(144.8333,-6.5)" />   <use xlink:href="#dot" transform="translate(144.8333,-6.5)" />   <use xlink:href="#dot" transform="translate(144.8333,-6.5)" />   <use xlink:href="#dot" transform="translate(144.8333,-6.5)" />   <use xlink:href="#dot" transform="translate(144.8333,-6.5)" />   <use xlink:href="#dot" transform="translate(74.18333,32.15)" />   <use xlink:href="#dot" transform="translate(74.18333,32.15)" />   <use xlink:href="#dot" transform="translate(74.18333,32.15)" />   <use xlink:href="#dot" transform="translate(74.36667,31.566667)" />   <use xlink:href="#dot" transform="translate(74.18333,32.15)" />   <use xlink:href="#dot" transform="translate(74.36667,31.566667)" />   <use xlink:href="#dot" transform="translate(74.18333,32.15)" />   <use xlink:href="#dot" transform="translate(74.36667,31.566667)" />   <use xlink:href="#dot" transform="translate(74.36667,31.566667)" />   <use xlink:href="#dot" transform="translate(74.36667,31.566667)" />   <use xlink:href="#dot" transform="translate(74.36667,31.566667)" />   <use xlink:href="#dot" transform="translate(74.18333,32.15)" />   <use xlink:href="#dot" transform="translate(80.166672,6.85)" />   <use xlink:href="#dot" transform="translate(80.166672,6.85)" />   <use xlink:href="#dot" transform="translate(80.166672,6.85)" /><polygon class="region" points="80.166672,6.85 74.18333,32.15 121.103361,17.0397 151.366699,-2.9 151.583298,-3.15 146.705612,-7.341485 146.666672,-7.366667 142.87642756924,-8.7857868323356 105.6236,-10.5111 105.5944,-10.5028 105.5847,-10.4986 80.414986,6.431645 80.166672,6.85 " />
		  </g>
		</svg>