<?xml version="1.0" encoding="UTF-8"?>
	<svg xmlns:xlink="http://www.w3.org/1999/xlink" 
	xmlns="http://www.w3.org/2000/svg" 
	width="360px" height="180px">
	   <style type="text/css">
		  <![CDATA[     
		  .region 
		  { 
			fill:blue; 
			opacity:0.4; 
			stroke:blue;
		  }
		  ]]>
	   </style>

	<circle id="dot" x="-2" y="-2" r="2" style="stroke:none; stroke-width:0; fill:black; opacity:0.7;"/>


	 <image x="0" y="0" width="360" height="180" xlink:href="map.jpg"/>

 
	 <g transform="translate(180,90) scale(1,-1)">   <use xlink:href="#dot" transform="translate(-74.069528,11.104056)" />   <use xlink:href="#dot" transform="translate(-82.549167,8.876112)" />   <use xlink:href="#dot" transform="translate(-76.44225,3.8836)" />   <use xlink:href="#dot" transform="translate(-88.386918,16.93014)" />   <use xlink:href="#dot" transform="translate(-89.066834,19.101807)" />   <use xlink:href="#dot" transform="translate(-89.006426,19.052054)" />   <use xlink:href="#dot" transform="translate(-92.664514,15.943572)" />   <use xlink:href="#dot" transform="translate(-74.347785,5.11571)" />   <use xlink:href="#dot" transform="translate(-90.928544,16.06063)" />   <use xlink:href="#dot" transform="translate(-75.629167,4.039028)" />   <use xlink:href="#dot" transform="translate(-80.124751,-0.116245)" />   <use xlink:href="#dot" transform="translate(-92.180059,17.560308)" />   <use xlink:href="#dot" transform="translate(-76.129258,-0.092728)" />   <use xlink:href="#dot" transform="translate(-84.1809,10.687)" />   <use xlink:href="#dot" transform="translate(-92.196203,17.410418)" />   <use xlink:href="#dot" transform="translate(-82.553521,8.875776)" />   <use xlink:href="#dot" transform="translate(-89.11133,17.540029)" />   <use xlink:href="#dot" transform="translate(-79.713317,9.119075)" />   <use xlink:href="#dot" transform="translate(-89.456356,18.720241)" />   <use xlink:href="#dot" transform="translate(-75.500193,9.566558)" />   <use xlink:href="#dot" transform="translate(-92.108844,17.570582)" />   <use xlink:href="#dot" transform="translate(-76.582306,3.920778)" />   <use xlink:href="#dot" transform="translate(-76.575483,3.924869)" />   <use xlink:href="#dot" transform="translate(-83.562324,9.831471)" />   <use xlink:href="#dot" transform="translate(-71.4822,5.905783)" />   <use xlink:href="#dot" transform="translate(-71.527983,6.014883)" />   <use xlink:href="#dot" transform="translate(-82.15,8.916667)" />   <use xlink:href="#dot" transform="translate(-93.45794,15.920212)" />   <use xlink:href="#dot" transform="translate(-82.828247,9.717687)" />   <use xlink:href="#dot" transform="translate(-75.633583,3.849167)" />   <use xlink:href="#dot" transform="translate(-84.009662,10.431599)" />   <use xlink:href="#dot" transform="translate(-85.848269,11.273295)" />   <use xlink:href="#dot" transform="translate(-84.821927,10.316638)" />   <use xlink:href="#dot" transform="translate(-76.158839,4.508683)" />   <use xlink:href="#dot" transform="translate(-76.117881,4.551028)" />   <use xlink:href="#dot" transform="translate(-76.135597,4.534511)" />   <use xlink:href="#dot" transform="translate(-76.136067,4.551283)" />   <use xlink:href="#dot" transform="translate(-76.404503,3.9902)" />   <use xlink:href="#dot" transform="translate(-76.675806,3.739362)" />   <use xlink:href="#dot" transform="translate(-76.69221,3.739389)" />   <use xlink:href="#dot" transform="translate(-76.211369,3.820861)" />   <use xlink:href="#dot" transform="translate(-76.200167,3.825078)" />   <use xlink:href="#dot" transform="translate(-76.428381,3.849119)" />   <use xlink:href="#dot" transform="translate(-76.214111,3.823642)" />   <use xlink:href="#dot" transform="translate(-76.369042,3.960656)" />   <use xlink:href="#dot" transform="translate(-76.173442,3.396753)" />   <use xlink:href="#dot" transform="translate(-76.12805,3.869506)" />   <use xlink:href="#dot" transform="translate(-76.548636,3.843453)" />   <use xlink:href="#dot" transform="translate(-76.508078,3.918339)" />   <use xlink:href="#dot" transform="translate(-76.165208,3.240692)" />   <use xlink:href="#dot" transform="translate(-76.208258,4.711517)" />   <use xlink:href="#dot" transform="translate(-76.213192,4.711383)" />   <use xlink:href="#dot" transform="translate(-76.172686,4.756514)" />   <use xlink:href="#dot" transform="translate(-76.036314,4.890375)" />   <use xlink:href="#dot" transform="translate(-76.211869,4.708617)" />   <use xlink:href="#dot" transform="translate(-76.213731,4.718994)" />   <use xlink:href="#dot" transform="translate(-76.249672,4.710489)" />   <use xlink:href="#dot" transform="translate(-76.232467,4.792267)" />   <use xlink:href="#dot" transform="translate(-76.131647,4.845017)" />   <use xlink:href="#dot" transform="translate(-76.072353,4.786656)" />   <use xlink:href="#dot" transform="translate(-76.033369,4.783331)" />   <use xlink:href="#dot" transform="translate(-76.203478,4.808203)" />   <use xlink:href="#dot" transform="translate(-76.153864,4.685022)" />   <use xlink:href="#dot" transform="translate(-76.196411,3.904897)" />   <use xlink:href="#dot" transform="translate(-76.0652,3.546531)" />   <use xlink:href="#dot" transform="translate(-76.223669,3.851847)" />   <use xlink:href="#dot" transform="translate(-76.113503,4.738219)" />   <use xlink:href="#dot" transform="translate(-76.100253,4.716333)" />   <use xlink:href="#dot" transform="translate(-76.043867,3.58455)" />   <use xlink:href="#dot" transform="translate(-76.194136,3.904161)" />   <use xlink:href="#dot" transform="translate(-70.056278,6.808611)" />   <use xlink:href="#dot" transform="translate(-94.797679,16.664936)" />   <use xlink:href="#dot" transform="translate(-83.394814,10.360178)" />   <use xlink:href="#dot" transform="translate(-75.532682,-2.692271)" />   <use xlink:href="#dot" transform="translate(-88.390815,16.928838)" />   <use xlink:href="#dot" transform="translate(-76.71475,3.586833)" />   <use xlink:href="#dot" transform="translate(-76.076472,3.7405)" />   <use xlink:href="#dot" transform="translate(-76.067,3.72075)" />   <use xlink:href="#dot" transform="translate(-76.076722,3.6675)" />   <use xlink:href="#dot" transform="translate(-76.50493,3.76657)" />   <use xlink:href="#dot" transform="translate(-74.300116,-2.564496)" />   <use xlink:href="#dot" transform="translate(-76.089778,3.67575)" />   <use xlink:href="#dot" transform="translate(-76.087639,3.661222)" />   <use xlink:href="#dot" transform="translate(-76.084778,3.686556)" />   <use xlink:href="#dot" transform="translate(-76.085028,3.6752)" />   <use xlink:href="#dot" transform="translate(-76.614503,3.372756)" />   <use xlink:href="#dot" transform="translate(-76.097028,3.632694)" />   <use xlink:href="#dot" transform="translate(-69.597316,-13.097452)" />   <use xlink:href="#dot" transform="translate(-84.02203,10.423268)" />   <use xlink:href="#dot" transform="translate(-84.829666,10.326446)" />   <use xlink:href="#dot" transform="translate(-75.471944,5.054444)" />   <use xlink:href="#dot" transform="translate(-79.990947,9.3291)" />   <use xlink:href="#dot" transform="translate(-76.162743,3.609983)" />   <use xlink:href="#dot" transform="translate(-84.039574,10.287848)" />   <use xlink:href="#dot" transform="translate(-84.039574,10.287848)" />   <use xlink:href="#dot" transform="translate(-90.974844,16.08653)" />   <use xlink:href="#dot" transform="translate(-78.776264,-0.048752)" />   <use xlink:href="#dot" transform="translate(-102.503333,18.226389)" />   <use xlink:href="#dot" transform="translate(-84.004955,10.431331)" />   <use xlink:href="#dot" transform="translate(-103.598555,18.585148)" />   <use xlink:href="#dot" transform="translate(-88.708763,16.565454)" />   <use xlink:href="#dot" transform="translate(-84.005064,10.431342)" />   <use xlink:href="#dot" transform="translate(-74.883333,5.556083)" />   <use xlink:href="#dot" transform="translate(-74.847528,6.219417)" />   <use xlink:href="#dot" transform="translate(-74.920806,5.505639)" />   <use xlink:href="#dot" transform="translate(-74.990361,6.360611)" />   <use xlink:href="#dot" transform="translate(-74.920806,5.505639)" />   <use xlink:href="#dot" transform="translate(-92.073056,17.483056)" />   <use xlink:href="#dot" transform="translate(-92.073056,17.483056)" />   <use xlink:href="#dot" transform="translate(-92.073,17.483)" />   <use xlink:href="#dot" transform="translate(-92.073,17.483)" />   <use xlink:href="#dot" transform="translate(-92.073056,17.483056)" />   <use xlink:href="#dot" transform="translate(-92.073,17.483)" />   <use xlink:href="#dot" transform="translate(-92.073056,17.483056)" />   <use xlink:href="#dot" transform="translate(-92.073056,17.483056)" />   <use xlink:href="#dot" transform="translate(-92.073,17.483)" />   <use xlink:href="#dot" transform="translate(-92.073,17.483)" />   <use xlink:href="#dot" transform="translate(-91.726389,16.135)" />   <use xlink:href="#dot" transform="translate(-91.726,16.135)" />   <use xlink:href="#dot" transform="translate(-91.726389,16.135)" />   <use xlink:href="#dot" transform="translate(-91.726,16.135)" />   <use xlink:href="#dot" transform="translate(-91.726389,16.135)" />   <use xlink:href="#dot" transform="translate(-91.726,16.135)" />   <use xlink:href="#dot" transform="translate(-93.038889,16.855833)" />   <use xlink:href="#dot" transform="translate(-93.038889,16.855833)" />   <use xlink:href="#dot" transform="translate(-93.039,16.856)" />   <use xlink:href="#dot" transform="translate(-93.039,16.856)" />   <use xlink:href="#dot" transform="translate(-91.307,16.201)" />   <use xlink:href="#dot" transform="translate(-91.306583,16.200833)" />   <use xlink:href="#dot" transform="translate(-99.838056,17.619444)" />   <use xlink:href="#dot" transform="translate(-91.308,16.202556)" />   <use xlink:href="#dot" transform="translate(-91.273139,16.210361)" />   <use xlink:href="#dot" transform="translate(-84.80833,10.316833)" />   <use xlink:href="#dot" transform="translate(-91.273,16.21)" />   <use xlink:href="#dot" transform="translate(-91.273,16.21)" />   <use xlink:href="#dot" transform="translate(-91.308,16.203)" />   <use xlink:href="#dot" transform="translate(-91.273139,16.210361)" />   <use xlink:href="#dot" transform="translate(-91.273139,16.210361)" />   <use xlink:href="#dot" transform="translate(-91.273,16.21)" />   <use xlink:href="#dot" transform="translate(-40.600278,-19.935556)" />   <use xlink:href="#dot" transform="translate(-91.308,16.203)" />   <use xlink:href="#dot" transform="translate(-91.308,16.202556)" />   <use xlink:href="#dot" transform="translate(-75.585,6.27114)" />   <use xlink:href="#dot" transform="translate(-40.600278,-19.935556)" />   <use xlink:href="#dot" transform="translate(-84.775716138146,10.322626180033)" />   <use xlink:href="#dot" transform="translate(-58.812,3.192)" />   <use xlink:href="#dot" transform="translate(-71.49185,-13.023617)" />   <use xlink:href="#dot" transform="translate(-71.49185,-13.023617)" />   <use xlink:href="#dot" transform="translate(-90.849444,16.144167)" />   <use xlink:href="#dot" transform="translate(-90.852778,16.125)" />   <use xlink:href="#dot" transform="translate(-90.849444,16.144167)" />   <use xlink:href="#dot" transform="translate(-90.852778,16.125)" />   <use xlink:href="#dot" transform="translate(-91.063333,16.706389)" />   <use xlink:href="#dot" transform="translate(-91.95,16.775)" />   <use xlink:href="#dot" transform="translate(-93.591,16.21)" />   <use xlink:href="#dot" transform="translate(-93.590556,16.21)" />   <use xlink:href="#dot" transform="translate(-93.591,16.21)" />   <use xlink:href="#dot" transform="translate(-93.590556,16.21)" />   <use xlink:href="#dot" transform="translate(-93.590556,16.21)" />   <use xlink:href="#dot" transform="translate(-93.590556,16.21)" />   <use xlink:href="#dot" transform="translate(-90.964485229349,16.898983118458)" />   <use xlink:href="#dot" transform="translate(-93.616389,16.158056)" />   <use xlink:href="#dot" transform="translate(-93.616389,16.158056)" />   <use xlink:href="#dot" transform="translate(-93.616,16.158)" />   <use xlink:href="#dot" transform="translate(-93.616389,16.158056)" />   <use xlink:href="#dot" transform="translate(-93.616389,16.158056)" />   <use xlink:href="#dot" transform="translate(-93.616389,16.158056)" />   <use xlink:href="#dot" transform="translate(-93.737,16.262)" />   <use xlink:href="#dot" transform="translate(-93.736944,16.2625)" />   <use xlink:href="#dot" transform="translate(-93.616389,16.158056)" />   <use xlink:href="#dot" transform="translate(-93.616389,16.158056)" />   <use xlink:href="#dot" transform="translate(-93.616389,16.158056)" />   <use xlink:href="#dot" transform="translate(-93.616389,16.158056)" />   <use xlink:href="#dot" transform="translate(-93.616,16.158)" />   <use xlink:href="#dot" transform="translate(-93.616389,16.158056)" />   <use xlink:href="#dot" transform="translate(-93.616,16.158)" />   <use xlink:href="#dot" transform="translate(-93.736944,16.2625)" />   <use xlink:href="#dot" transform="translate(-93.616389,16.158056)" />   <use xlink:href="#dot" transform="translate(-93.616,16.158)" />   <use xlink:href="#dot" transform="translate(-93.616,16.158)" />   <use xlink:href="#dot" transform="translate(-93.616,16.158)" />   <use xlink:href="#dot" transform="translate(-93.616389,16.158056)" />   <use xlink:href="#dot" transform="translate(-93.607222,16.155)" />   <use xlink:href="#dot" transform="translate(-90.869,17.313)" />   <use xlink:href="#dot" transform="translate(-93.607222,16.155)" />   <use xlink:href="#dot" transform="translate(-90.547,17.246)" />   <use xlink:href="#dot" transform="translate(-93.607,16.155)" />   <use xlink:href="#dot" transform="translate(-93.590556,16.1075)" />   <use xlink:href="#dot" transform="translate(-93.590556,16.1075)" />   <use xlink:href="#dot" transform="translate(-93.591,16.108)" />   <use xlink:href="#dot" transform="translate(-93.590556,16.1075)" />   <use xlink:href="#dot" transform="translate(-93.591,16.108)" />   <use xlink:href="#dot" transform="translate(-93.590556,16.1075)" />   <use xlink:href="#dot" transform="translate(-93.591,16.108)" />   <use xlink:href="#dot" transform="translate(-93.590556,16.1075)" />   <use xlink:href="#dot" transform="translate(-93.590556,16.1075)" />   <use xlink:href="#dot" transform="translate(-93.591,16.108)" />   <use xlink:href="#dot" transform="translate(-93.590556,16.1075)" />   <use xlink:href="#dot" transform="translate(-93.590556,16.1075)" />   <use xlink:href="#dot" transform="translate(-93.535,16.938889)" />   <use xlink:href="#dot" transform="translate(-93.535,16.938889)" />   <use xlink:href="#dot" transform="translate(-71.269,-12.66833)" />   <use xlink:href="#dot" transform="translate(-91.95,16.725)" />   <use xlink:href="#dot" transform="translate(-91.083333,16.716667)" />   <use xlink:href="#dot" transform="translate(-93.6075,16.155)" />   <use xlink:href="#dot" transform="translate(-93.590556,16.21)" />   <use xlink:href="#dot" transform="translate(-93.591,16.21)" />   <use xlink:href="#dot" transform="translate(-73.341,-11.78)" />   <use xlink:href="#dot" transform="translate(-93.590556,16.21)" />   <use xlink:href="#dot" transform="translate(-90.969291350589,16.901732972789)" />   <use xlink:href="#dot" transform="translate(-89.566,17.5981)" />   <use xlink:href="#dot" transform="translate(-58.85,4.733333)" />   <use xlink:href="#dot" transform="translate(-91.622222,17.1125)" />   <use xlink:href="#dot" transform="translate(-58.85,4.733333)" />   <use xlink:href="#dot" transform="translate(-58.85,4.733333)" />   <use xlink:href="#dot" transform="translate(-73.0987,6.13823)" />   <use xlink:href="#dot" transform="translate(-90.973541443888,16.898761107678)" />   <use xlink:href="#dot" transform="translate(-90.964485229349,16.898983118458)" />   <use xlink:href="#dot" transform="translate(-87.959722,19.2825)" />   <use xlink:href="#dot" transform="translate(-87.959722,19.2825)" />   <use xlink:href="#dot" transform="translate(-91.622222,17.113333)" />   <use xlink:href="#dot" transform="translate(-68.8,-12.7)" />   <use xlink:href="#dot" transform="translate(-68.7,-12.517)" />   <use xlink:href="#dot" transform="translate(-93.068889,15.801111)" />   <use xlink:href="#dot" transform="translate(-87.959722,19.2825)" />   <use xlink:href="#dot" transform="translate(-93.771389,17.005)" />   <use xlink:href="#dot" transform="translate(-94.05,17.066667)" />   <use xlink:href="#dot" transform="translate(-94.05,17.066667)" />   <use xlink:href="#dot" transform="translate(-93.063333,15.816389)" />   <use xlink:href="#dot" transform="translate(-93.063333,15.816389)" />   <use xlink:href="#dot" transform="translate(-93.063333,15.816389)" />   <use xlink:href="#dot" transform="translate(-93.063333,15.816389)" />   <use xlink:href="#dot" transform="translate(-69.58,-13.13)" />   <use xlink:href="#dot" transform="translate(-59.25,3.25)" />   <use xlink:href="#dot" transform="translate(-64.7825,-17.105278)" />   <use xlink:href="#dot" transform="translate(-64.7825,-17.10528)" />   <use xlink:href="#dot" transform="translate(-76.11617557513,-2.5560502160293)" />   <use xlink:href="#dot" transform="translate(-76.11617549336,-2.5815219346724)" />   <use xlink:href="#dot" transform="translate(-78.233,-3.483)" />   <use xlink:href="#dot" transform="translate(-78.633,-4.283)" />   <use xlink:href="#dot" transform="translate(-90.916667,16.4)" />   <use xlink:href="#dot" transform="translate(-91.056,16.556)" />   <use xlink:href="#dot" transform="translate(-91.064444,16.719444)" />   <use xlink:href="#dot" transform="translate(-93.671,16.959)" />   <use xlink:href="#dot" transform="translate(-89.125,16.358)" />   <use xlink:href="#dot" transform="translate(-69.607,-13.142)" />   <use xlink:href="#dot" transform="translate(-68.738,-12.658)" />   <use xlink:href="#dot" transform="translate(-69.295,-12.838)" />   <use xlink:href="#dot" transform="translate(-65.525,-9.786)" />   <use xlink:href="#dot" transform="translate(-66.733,-10.767)" />   <use xlink:href="#dot" transform="translate(-66.733,-10.767)" />   <use xlink:href="#dot" transform="translate(-93.014722,17.345)" />   <use xlink:href="#dot" transform="translate(-93.013056,17.351944)" />   <use xlink:href="#dot" transform="translate(-93.013056,17.351944)" />   <use xlink:href="#dot" transform="translate(-93.016667,17.346389)" />   <use xlink:href="#dot" transform="translate(-80.717,-1.567)" />   <use xlink:href="#dot" transform="translate(-79.85,-0.617)" />   <use xlink:href="#dot" transform="translate(-80.033,-2.167)" />   <use xlink:href="#dot" transform="translate(-80.717,-1.567)" />   <use xlink:href="#dot" transform="translate(-92.25,15.566667)" />   <use xlink:href="#dot" transform="translate(-79.35,-2.567)" />   <use xlink:href="#dot" transform="translate(-79.583333,-1.333333)" />   <use xlink:href="#dot" transform="translate(-79.35,-2.567)" />   <use xlink:href="#dot" transform="translate(-79.583,-1.333)" />   <use xlink:href="#dot" transform="translate(-79.967,-0.033)" />   <use xlink:href="#dot" transform="translate(-93.109722,17.118056)" />   <use xlink:href="#dot" transform="translate(-79.583,-1.333)" />   <use xlink:href="#dot" transform="translate(-80.033,-2.167)" />   <use xlink:href="#dot" transform="translate(-70.85,-6.75)" />   <use xlink:href="#dot" transform="translate(-93.559,16.853)" />   <use xlink:href="#dot" transform="translate(-68.93333,-6.58333)" />   <use xlink:href="#dot" transform="translate(-93.124,16.901)" />   <use xlink:href="#dot" transform="translate(-88.074167,19.389722)" />   <use xlink:href="#dot" transform="translate(-88.074167,19.389722)" />   <use xlink:href="#dot" transform="translate(-88.074167,19.389722)" />   <use xlink:href="#dot" transform="translate(-96.838333,18.202222)" />   <use xlink:href="#dot" transform="translate(-96.841667,18.191667)" />   <use xlink:href="#dot" transform="translate(-96.829167,18.232222)" />   <use xlink:href="#dot" transform="translate(-89.4,18.667)" />   <use xlink:href="#dot" transform="translate(-88.074167,19.389722)" />   <use xlink:href="#dot" transform="translate(-88.1325,19.26)" />   <use xlink:href="#dot" transform="translate(-88.1325,19.26)" />   <use xlink:href="#dot" transform="translate(-88.074167,19.389722)" />   <use xlink:href="#dot" transform="translate(-88.1325,19.26)" />   <use xlink:href="#dot" transform="translate(-91.133333,16.766667)" />   <use xlink:href="#dot" transform="translate(-91.133333,16.766667)" />   <use xlink:href="#dot" transform="translate(-91.129444,16.761389)" />   <use xlink:href="#dot" transform="translate(-90.969167,16.901389)" />   <use xlink:href="#dot" transform="translate(-91.133333,16.766667)" />   <use xlink:href="#dot" transform="translate(-91.1625,16.8125)" />   <use xlink:href="#dot" transform="translate(-66.583333,-11.216667)" />   <use xlink:href="#dot" transform="translate(-68.58333,-12.38333)" />   <use xlink:href="#dot" transform="translate(-78.0167,1.08333)" />   <use xlink:href="#dot" transform="translate(-91.133333,16.766667)" />   <use xlink:href="#dot" transform="translate(-91.1625,16.8125)" />   <use xlink:href="#dot" transform="translate(-71.269,-12.6683)" />   <use xlink:href="#dot" transform="translate(-71.25,-12.68333)" />   <use xlink:href="#dot" transform="translate(-91.1625,16.8125)" />   <use xlink:href="#dot" transform="translate(-91.133333,16.766667)" />   <use xlink:href="#dot" transform="translate(-91.1625,16.8125)" /><polygon class="region" points="-73.341,-11.78 -103.598555,18.585148 -88.074167,19.389722 -58.85,4.733333 -40.600278,-19.935556 -64.7825,-17.10528 -71.49185,-13.023617 -73.341,-11.78 " />
		  </g>
		</svg>