<?xml version="1.0" encoding="UTF-8"?>
	<svg xmlns:xlink="http://www.w3.org/1999/xlink" 
	xmlns="http://www.w3.org/2000/svg" 
	width="360px" height="180px">
	   <style type="text/css">
		  <![CDATA[     
		  .region 
		  { 
			fill:blue; 
			opacity:0.4; 
			stroke:blue;
		  }
		  ]]>
	   </style>

	<circle id="dot" x="-2" y="-2" r="2" style="stroke:none; stroke-width:0; fill:black; opacity:0.7;"/>


	 <image x="0" y="0" width="360" height="180" xlink:href="map.jpg"/>

 
	 <g transform="translate(180,90) scale(1,-1)"><polygon class="region" points="-97.502456689,21.498092744 -97.342582352,21.475162438 -97.419517516,21.216293371 -97.168960572,20.672437668 -96.44568634,19.86379242 -96.305969238,19.337636947 -95.945961043,18.892356796 -94.809043884,18.536361695 -94.455581654,18.147180557 -91.991188109,18.720846102 -91.866241455,18.498603821 -91.519592285,18.450191498 -91.220634449,18.748876657 -91.493591308,18.812547683 -90.723869251,19.377647329 -90.458801269,19.975234985 -90.320403984,21.020488656 -89.818359436,21.26088897 -88.153762907,21.609329149 -86.992218055,21.563365887 -86.736541759,21.137598066 -87.419281039,20.225967412 -87.463615418,19.78516388 -87.728805525,19.674333615 -87.657730085,19.499227443 -87.409881649,19.572158857 -87.670898492,19.343437253 -87.649231045,19.198461495 -87.453025818,19.320701599 -87.832244938,18.183319107 -88.074707032,18.491605758 -88.037528991,18.865039825 -88.389305115,18.380231858 -88.08932497,18.348489843 -88.281829834,17.643482209 -88.242927551,16.801610947 -88.534912143,16.27309607 -88.991043157,15.882452995 -88.619407654,15.690477371 -88.492042542,15.839335441 -88.592330932,15.960963249 -88.147842407,15.674684525 -87.727012634,15.923120499 -86.9214859,15.749855995 -85.933692859,15.926000548 -86.03465271,16.025592804 -85.454742432,15.860279083 -85.038085938,15.990301132 -84.303970337,15.815432548 -83.385780334,15.243619919 -83.155403195,14.996335075 -83.317100524,14.774009704 -83.203689568,14.326908119 -83.546127351,13.553284626 -83.497360224,12.383944555 -83.68270874,12.219031334 -83.647865304,11.602798476 -83.868919372,11.239626884 -83.279769962,10.183171309 -82.343643216,9.428858765 -82.398407011,9.2629194040001 -82.175247227,9.193912418 -82.268791213,9.010703087 -82.111785889,8.927643776 -81.781959488,8.947772978 -81.889343249,9.187259661 -81.515686085,8.7995567130001 -81.087112427,8.8044433600001 -79.805854723,9.3746319160001 -79.632652283,9.6169929500001 -78.971687384,9.564364427 -79.063049327,9.448180134 -78.561691283,9.442838668 -77.872451783,9.1150817930001 -76.841651993,8.135551428 -76.926139905,7.9228243640001 -76.76638796,7.9092588130001 -76.765045166,8.396164894 -76.936614949,8.552897414 -76.33702089,8.9235991950001 -76.089408802,9.3338040780001 -75.623199463,9.409775734 -75.568023688,9.619338022 -75.699874825,9.7038393820001 -75.516304016,10.239344597 -75.688400341,10.131695758 -75.698829651,10.146650322 -75.259002737,10.805981578 -74.861083984,11.112972268 -74.295280456,10.992257119 -74.106124878,11.351082801 -73.277786255,11.288807869 -72.240394593,11.901659965 -72.17598719,12.219427074 -71.931129453,12.156235665 -71.662330627,12.463308334 -71.23753357,12.32057476 -71.112411499,12.054344177 -71.382476806,11.755396842 -71.963104248,11.560153008 -71.577804555,10.705792427 -72.128929224,9.8139494970001 -71.997627259,9.446594238 -71.717132569,9.392798424 -71.82151034,9.2325878140001 -71.703819301,9.0515670030001 -71.356887841,9.086979819 -71.061202941,9.31937694 -71.023345881,9.7159615370001 -71.587493897,10.801174164 -71.431999154,10.802624784 -71.494857788,10.958212852 -70.04759978,11.442023251 -70.140197754,11.571420669 -70.000000024,11.526032363 -70,11.661378861 -70.225265503,11.617113113 -70.296691873,11.866587615 -70.018470752,12.201150881 -69.613235471,11.460711483 -68.828216627,11.441485409 -68.401298521,11.185581213 -68.123832692,10.48395628 -66.232132031,10.644863049 -65.812728882,10.219971657 -65.091209451,10.043319668 -64.180999756,10.473110199 -63.81822586,10.437949181 -63.641838073,10.488924027 -64.228935241,10.500798225 -64.262718213,10.662551855 -61.854896553,10.755402562 -62.339397477,10.532928545 -62.665859206,10.573136349 -62.903800964,10.521068573 -62.506656647,10.197470665 -62.337753265,9.8095378350001 -62.200229578,10.020413411 -61.811038908,9.7556819280001 -61.578079179,9.78798291 -61.630428314,9.9023237230001 -60.867591814,9.456407472 -60.782856068,9.311544414 -60.956783369,9.198073374 -60.846229629,8.973092073 -61.012779235,8.8292360300001 -60.822235114,8.8679046620001 -60.916648865,8.7351341250001 -60.782047272,8.7184791560001 -60.984710735,8.5711182970001 -60.046165465,8.5879907670001 -58.672092514,7.610239011 -58.468128205,7.299810409 -58.614517212,6.4188904760001 -58.473255106,6.811151051 -58.292846612,6.889662231 -57.236293859,6.184621293 -57.141128623,5.8162727330001 -56.956851871,5.9990291010001 -55.913414001,5.780721665 -55.82717514,5.953795433 -55.105117821,5.877176209 -55.037296295,6.004546165 -54.024242401,5.823860645 -54.021652222,5.6157226560001 -53.825553894,5.7687659260001 -52.931980124,5.4580159220001 -51.94453431,4.5085405890001 -51.907917019,4.6601405100001 -51.799381245,4.608623025 -51.662490845,4.205050945 -51.529296833,4.1711011200001 -51.544593811,4.3966193200001 -51.232425704,4.1244553720001 -50.859943465,2.477390278 -50.476959235,1.8247622100001 -49.966327711,1.686954438 -49.880279575,1.4190404140001 -50.072956126,1.203840932 -49.918220442,1.231684849 -49.938991547,1.1026507620001 -50.4553833,0.73185992200007 -50.78490448,0.18341119600007 -51.202648107,-0.055345701999954 -51.40940857,-0.43996652999994 -51.188400249,-0.14029105699996 -51.154048938,-0.28383346899994 -51.395999965,-0.49276513499996 -50.705219269,0.00219751700007 -50.613307998,-0.087978504999967 -50.750568417,-0.42857844199995 -50.98846817,-0.58327877499994 -51.050930023,-0.68197047699994 -50.684341431,-0.60411196899997 -50.652221679,-0.27570685699993 -50.408863008,-0.09438217099995 -48.363372803,-0.30313780899996 -48.837306976,-1.452105522 -49.802898416,-1.8217235729999 -50.256160736,-1.7760056249999 -50.401157367,-1.934505342 -49.765045163,-1.8982113829999 -49.276348122,-1.70643967 -49.382610321,-2.158831834 -48.601135209,-1.3058751909999 -48.495853462,-1.552548166 -48.31873321,-1.478194892 -48.505382538,-1.4706236129999 -48.478599472,-1.1490233179999 -48.278263035,-1.111018024 -48.054691314,-0.66806888599996 -47.702415437,-0.53989039999993 -47.406337738,-0.76386117999993 -47.465534152,-0.59370664599993 -47.297603608,-0.58887386299995 -47.16048055,-0.81457275299994 -47.07706075,-0.66325816799997 -47.055183411,-0.86792284199993 -46.961685135,-0.69137839799993 -46.733947754,-0.94353735499993 -46.621448605,-0.81775044899996 -46.609340627,-1.029875783 -46.347789711,-1.078698738 -46.178867365,-0.91383075399995 -46.150016859,-1.257960484 -45.982295999,-1.0705587969999 -46.000000074,-1.208778609 -45.901660911,-1.13444992 -45.890689811,-1.293271187 -45.806510925,-1.175907373 -45.842803996,-1.3006789309999 -45.835132625,-1.316578357 -45.809181292,-1.3284490899999 -45.726417579,-1.1347909249999 -45.742565155,-1.249799133 -45.690254211,-1.45184195 -45.617656708,-1.278543353 -45.545886994,-1.4324340819999 -45.417335512,-1.2897577219999 -45.554016114,-1.5029356479999 -45.462932676,-1.54755954 -45.323451996,-1.319208741 -45.348197937,-1.7501914499999 -45.160324064,-1.475155593 -44.979446411,-1.6070427889999 -44.862438254,-1.4258296089999 -44.96827703,-1.6615650119999 -44.821613312,-1.5907875299999 -44.832668359,-1.7702319099999 -44.711235053,-1.7285002579999 -44.819637299,-1.8194799419999 -44.603771243,-1.749204957 -44.66743858,-1.849136109 -44.484428487,-2.0016446389999 -44.612941823,-2.036720306 -44.467357715,-2.0171186809999 -44.764225057,-2.2645559159999 -44.648601532,-2.373138189 -44.478565143,-2.1373014609999 -44.357776631,-2.334603778 -44.665348053,-2.6082861429999 -44.548275074,-2.541657388 -44.608375549,-3.0406396389999 -44.793396079,-3.19826462 -44.779018472,-3.312406301 -44.431442212,-2.945268197 -44.305545776,-2.487260819 -44.019580914,-2.402593576 -44.345104248,-2.7913162149999 -44.208160396,-2.8569427149999 -43.728672028,-2.481326818 -43.608089447,-2.5927782059999 -43.518531831,-2.4447486989999 -43.458389265,-2.595539855 -43.359455109,-2.4399321079999 -43.478805517,-2.375662033 -43.377906799,-2.3292868139999 -42.44713211,-2.752689362 -41.818161054,-2.7229633599999 -41.437339853,-2.938721501 -40.012828826,-2.838172673 -38.472743968,-3.699807198 -37.149803161,-4.943035602 -36.665889739,-5.1077895929999 -35.481491031,-5.1615744339999 -35.254909516,-5.482616429 -34.790122985,-7.159040928 -34.933303833,-8.357714653 -35.331924488,-9.236873647 -36.402336121,-10.506480217 -36.934436798,-10.825662613 -37.996204394,-12.578296582 -38.477184302,-13.02238941 -38.498050639,-12.721985792 -38.717617098,-12.627303124 -38.769332946,-12.995077054 -38.685787198,-12.878168101 -38.589592042,-12.972101166 -38.944084147,-13.243342375 -38.886226643,-13.659123429 -39.075248719,-13.88656044 -38.921916962,-13.919828415 -39.061450958,-14.715538025 -38.857074824,-15.860018735 -39.212112487,-17.154607776 -39.135345477,-17.691141102 -39.562931048,-18.090854581 -39.721466074,-18.492767336 -39.805191104,-19.650215124 -40.151313781,-19.956037522 -40.40193178,-20.60569572 -40.756248552,-20.866031692 -41.06546024,-21.495420425 -40.990142907,-22.013877834 -41.96181491,-22.538225116 -41.863887803,-22.758634527 -42.017993925,-22.997972409 -43.049945769,-22.981931694 -43.083713488,-22.679719891 -43.287204829,-22.806335469 -43.155788421,-22.783943176 -43.187030868,-22.995481505 -43.54938511,-23.08072279 -43.989395142,-23.106216431 -43.555473286,-23.054826731 -43.839683533,-22.906253815 -44.233558634,-23.060422828 -44.335689545,-22.92578125 -44.552918238,-23.042896238 -48.30606119,-22.746760176 -52.804516233,-21.759561664 -57.688890034,-20.082678953 -58.973620986,-19.320161685 -60.91658364,-18.905747571 -65.329778915,-17.053144038 -69.065070455,-15.218743478 -71.846108366,-13.266051048 -74.570341486,-9.801986002 -78.350527784,-4.1453741299999 -79.842245207,-3.003738916 -79.710067749,-2.486343861 -79.823799094,-2.3200709289999 -79.897903436,-2.583929304 -79.927261299,-2.4076959789999 -80.03578186,-2.499899388 -79.911270151,-2.2987256129999 -80.280113221,-2.59818244 -80.252799988,-2.73993516 -81.007003769,-2.1893320479999 -80.732391313,-2.03872918 -80.849571229,-1.602453231 -80.736961365,-1.355509996 -80.908081063,-1.0548285739999 -80.565895086,-0.90865997299994 -80.427299492,-0.59828018799993 -80.382766698,-0.66018701599995 -80.301338196,-0.65260106299996 -80.488044676,-0.37971815999992 -80.042701731,0.10853705100004 -80.090568523,0.75913291600006 -79.006263732,1.1692596670001 -78.775764412,1.4078442650001 -79.034332275,1.5908664460001 -78.974960334,1.720976836 -78.545761098,1.80476069 -78.680503846,2.16592884 -78.558219921,2.4404222630001 -78.303314217,2.6572821080001 -77.797691345,2.6468863490001 -77.592094421,2.833679676 -77.697967538,2.8924546270001 -77.671569824,3.0535836220001 -77.002716064,3.9092686180001 -77.274787899,3.8393245070001 -77.171485901,4.054936409 -77.253494268,4.1248207520001 -77.359039283,3.9339056000001 -77.527709964,4.2084522210001 -77.301467839,4.6451120620001 -77.379356384,5.451063156 -77.546966552,5.488407135 -77.232643128,5.796443939 -77.477760242,6.18980212 -77.33007805,6.5580386980001 -77.701293946,6.846397876 -77.687477045,7.0514478160001 -78.182418751,7.513477838 -78.445770187,8.062402687 -78.28213501,8.0810680390001 -78.151359558,8.4155406950001 -78.018539408,8.2296695150001 -77.777717591,8.0989265440001 -77.755233765,8.108030319 -77.748588514,8.143887518 -78.020637473,8.261569045 -78.087226955,8.470945413 -78.251480113,8.3804979980001 -78.210220315,8.428608856 -78.215744019,8.532139778 -78.231773446,8.546015809 -78.339294434,8.412121773 -78.413978577,8.560509681 -78.419769323,8.348485049 -78.621047973,8.770121574 -79.035041809,8.9996595380001 -79.483665466,9.0048179630001 -79.719352722,8.9067869190001 -79.753562988,8.5931873750001 -80.483650243,8.2049980900001 -80.001045227,7.462818623 -80.88711551,7.203141295 -81.053131144,7.923685592 -81.236259532,7.890203405 -81.221107556,7.607230186 -81.513893103,7.703087419 -81.751754761,8.198595047 -82.164962741,8.1629152890001 -82.209686284,8.381512657 -82.834129333,8.293971062 -82.895233153,8.0309200360001 -83.177825989,8.636666373 -83.487785339,8.706521034 -83.294975238,8.3712111290001 -83.72870636,8.5769929890001 -83.487884522,8.8558139800001 -83.904899574,9.283747696 -84.616554285,9.5768890790001 -84.744926457,9.9627504420001 -84.849029512,9.9642125020001 -85.078819261,10.163104106 -85.211204529,10.174848557 -85.236801148,10.237411499 -85.308914185,10.316534996 -85.316741951,10.323509286 -85.369224549,10.32287693 -84.869705263,9.8178062690001 -85.111206024,9.551604293 -85.302108793,9.8013296990001 -85.672767639,9.900409699 -85.874481151,10.351489053 -85.659004225,10.760788023 -85.950622538,10.888719571 -85.672996529,11.060066236 -87.687034623,12.903604544 -87.577079773,13.082986831 -87.469230643,12.931032116 -87.258628846,12.96382904 -87.516746515,13.25575065 -87.404472369,13.409517351 -87.619018555,13.301455498 -87.597915573,13.454513503 -87.741981469,13.347607644 -87.812828064,13.455032348 -87.899574333,13.149593419 -88.466163635,13.151693344 -89.809265127,13.519755421 -90.473793,13.884939207 -91.482246381,14.018908512 -94.136672973,16.22694397 -94.438613892,16.240554756 -94.068069458,16.089443206 -93.962509188,15.996386528 -94.724731446,16.196662903 -94.578063902,16.318332663 -94.789733887,16.257774353 -94.863136291,16.431348801 -95.062812805,16.269933701 -94.814300537,16.267662048 -95.101409977,16.237381008 -94.877304081,16.233493728 -94.759132419,16.204145431 -95.156112755,16.19457624 -95.446304333,15.965214728 -96.564315865,15.64897068 -97.795287998,15.965177534 -98.783950724,16.551263857 -99.714111328,16.709272385 -101.058113071,17.268505093 -101.899780274,17.94024849 -102.241220881,17.942028135 -102.545918076,18.813250706 -102.186253578,18.979441492 -101.00121384,18.140934096 -100.128737383,17.823398342 -97.369969544,17.877818291 -97.201180358,18.047236483 -97.281859234,18.57068162 -97.87105775,19.700790128 -98.608446329,20.204506345 -99.295235301,21.150727888 -99.295451012,21.831568304 -98.742198488,23.714480097 -98.4031306,23.722673695 -98.160623607,23.425650743 -97.76139772,21.728519216 -97.502456689,21.498092744 " />
		  </g>
		</svg>