<?xml version="1.0" encoding="UTF-8"?>
	<svg xmlns:xlink="http://www.w3.org/1999/xlink" 
	xmlns="http://www.w3.org/2000/svg" 
	width="360px" height="180px">
	   <style type="text/css">
		  <![CDATA[     
		  .region 
		  { 
			fill:blue; 
			opacity:0.4; 
			stroke:blue;
		  }
		  ]]>
	   </style>

	<circle id="dot" x="-2" y="-2" r="2" style="stroke:none; stroke-width:0; fill:black; opacity:0.7;"/>


	 <image x="0" y="0" width="360" height="180" xlink:href="map.jpg"/>

 
	 <g transform="translate(180,90) scale(1,-1)"><polygon class="region" points="156.049,-6.862164407 156.137,-6.931664408 156.04,-6.990064407 156.0307,-6.835464408 156.0578,-6.8054644069999 156.0861,-6.802764408 156.049,-6.862164407 " /><polygon class="region" points="159.7575,-9.2771644069999 159.9134,-9.421864408 160.3891,-9.419364408 160.8294,-9.8622644069999 159.822,-9.8008644069999 159.5842,-9.495264407 159.5989,-9.300964407 159.7575,-9.2771644069999 " /><polygon class="region" points="158.0252,-7.442764407 158.0178,-7.4458644069999 158.0264,-7.459764407 158.0151,-7.4453644069999 158.0252,-7.442764407 " /><polygon class="region" points="157.0793,-7.835864407 157.1866,-7.955864407 157.1409,-8.136364407 156.9424,-8.0221644069999 157.0793,-7.835864407 " /><polygon class="region" points="161.1298,-8.9958644069999 161.3724,-9.6414644069999 160.7969,-9.071364407 160.5597,-8.3371644069999 160.8102,-8.3880644069999 161.1298,-8.9958644069999 " /><polygon class="region" points="157.4305,-8.2745644079999 157.4562,-8.284864408 157.4377,-8.3169644069999 157.4152,-8.299164408 157.4305,-8.2745644079999 " /><polygon class="region" points="157.5077,-7.961364407 157.8661,-8.402864407 157.8241,-8.6226644069999 157.5421,-8.2528644069999 157.1888,-8.2624644069999 157.5077,-7.961364407 " /><polygon class="region" points="157.8008,-8.6505644069999 157.8013,-8.660364408 157.7967,-8.6500644079999 157.8043,-8.644564408 157.8008,-8.6505644069999 " /><polygon class="region" points="157.8029,-8.6351644069999 157.8007,-8.6376644069999 157.7992,-8.6360644069999 157.8039,-8.6326644079999 157.8029,-8.6351644069999 " /><polygon class="region" points="160.1543,-9.013864407 160.2937,-9.045164407 160.285,-9.126464407 160.0634,-9.041064407 160.1543,-9.013864407 " /><polygon class="region" points="159.1033,-8.9951644069999 159.2063,-9.0288644079999 159.0879,-9.1192644069999 159.0305,-9.0687644069999 159.1033,-8.9951644069999 " /><polygon class="region" points="157.9866,-8.5262644069999 158.1283,-8.5608644079999 158.0069,-8.7748644079999 157.8654,-8.6657644069999 157.9866,-8.5262644069999 " /><polygon class="region" points="156.5898,-7.565964407 156.7878,-7.736264407 156.6987,-7.9618644079999 156.4962,-7.6845644069999 156.5898,-7.565964407 " />
		  </g>
		</svg>