<?xml version="1.0" encoding="UTF-8"?>
	<svg xmlns:xlink="http://www.w3.org/1999/xlink" 
	xmlns="http://www.w3.org/2000/svg" 
	width="360px" height="180px">
	   <style type="text/css">
		  <![CDATA[     
		  .region 
		  { 
			fill:blue; 
			opacity:0.4; 
			stroke:blue;
		  }
		  ]]>
	   </style>

	<circle id="dot" x="-2" y="-2" r="2" style="stroke:none; stroke-width:0; fill:black; opacity:0.7;"/>


	 <image x="0" y="0" width="360" height="180" xlink:href="map.jpg"/>

 
	 <g transform="translate(180,90) scale(1,-1)">   <use xlink:href="#dot" transform="translate(157.866,-8.516)" />   <use xlink:href="#dot" transform="translate(157.866,-8.516)" />   <use xlink:href="#dot" transform="translate(157.866,-8.516)" />   <use xlink:href="#dot" transform="translate(157,-8.083)" />   <use xlink:href="#dot" transform="translate(157,-8.083)" />   <use xlink:href="#dot" transform="translate(157,-8.083)" />   <use xlink:href="#dot" transform="translate(157.866,-8.533)" />   <use xlink:href="#dot" transform="translate(157.866,-8.533)" />   <use xlink:href="#dot" transform="translate(157.866,-8.516)" />   <use xlink:href="#dot" transform="translate(157.866,-8.566)" />   <use xlink:href="#dot" transform="translate(157.866,-8.533)" />   <use xlink:href="#dot" transform="translate(157.866,-8.566)" />   <use xlink:href="#dot" transform="translate(157.883,-8.666)" />   <use xlink:href="#dot" transform="translate(157.866,-8.566)" />   <use xlink:href="#dot" transform="translate(157.866,-8.533)" />   <use xlink:href="#dot" transform="translate(157.866,-8.566)" />   <use xlink:href="#dot" transform="translate(157.866,-8.533)" />   <use xlink:href="#dot" transform="translate(157.883,-8.666)" />   <use xlink:href="#dot" transform="translate(157.866,-8.566)" />   <use xlink:href="#dot" transform="translate(157.866,-8.516)" />   <use xlink:href="#dot" transform="translate(157.866,-8.516)" />   <use xlink:href="#dot" transform="translate(160,-9.75)" />   <use xlink:href="#dot" transform="translate(160,-9.75)" />   <use xlink:href="#dot" transform="translate(160,-9.75)" />   <use xlink:href="#dot" transform="translate(160,-9.75)" />   <use xlink:href="#dot" transform="translate(160,-9.75)" />   <use xlink:href="#dot" transform="translate(157.816,-8.316)" />   <use xlink:href="#dot" transform="translate(157.833,-8.35)" />   <use xlink:href="#dot" transform="translate(157.833,-8.35)" />   <use xlink:href="#dot" transform="translate(157.833,-8.35)" />   <use xlink:href="#dot" transform="translate(157.833,-8.35)" />   <use xlink:href="#dot" transform="translate(159.666,-8.25)" />   <use xlink:href="#dot" transform="translate(159.833,-9.433)" />   <use xlink:href="#dot" transform="translate(155.5583,-6.2292)" />   <use xlink:href="#dot" transform="translate(155.75,-7.0833)" />   <use xlink:href="#dot" transform="translate(155.75,-7.0833)" />   <use xlink:href="#dot" transform="translate(155.5667,-6.7667)" />   <use xlink:href="#dot" transform="translate(155.5667,-6.75)" />   <use xlink:href="#dot" transform="translate(155.5667,-6.75)" />   <use xlink:href="#dot" transform="translate(155.5667,-6.75)" />   <use xlink:href="#dot" transform="translate(155.6833,-6.75)" />   <use xlink:href="#dot" transform="translate(155.5667,-6.7667)" />   <use xlink:href="#dot" transform="translate(155.6583,-6.6583)" />   <use xlink:href="#dot" transform="translate(155.5667,-6.75)" />   <use xlink:href="#dot" transform="translate(155.5667,-6.7667)" />   <use xlink:href="#dot" transform="translate(160.197525,-9.585651)" />   <use xlink:href="#dot" transform="translate(160.197525,-9.585651)" />   <use xlink:href="#dot" transform="translate(160.197525,-9.585651)" />   <use xlink:href="#dot" transform="translate(160.197525,-9.585651)" />   <use xlink:href="#dot" transform="translate(160.197525,-9.585651)" />   <use xlink:href="#dot" transform="translate(160.197525,-9.585651)" />   <use xlink:href="#dot" transform="translate(160.197525,-9.585651)" />   <use xlink:href="#dot" transform="translate(160.197525,-9.585651)" />   <use xlink:href="#dot" transform="translate(160.197525,-9.585651)" />   <use xlink:href="#dot" transform="translate(160.197525,-9.585651)" />   <use xlink:href="#dot" transform="translate(160.197525,-9.585651)" />   <use xlink:href="#dot" transform="translate(160.197525,-9.585651)" />   <use xlink:href="#dot" transform="translate(160.197525,-9.585651)" />   <use xlink:href="#dot" transform="translate(160.197525,-9.585651)" />   <use xlink:href="#dot" transform="translate(160.197525,-9.585651)" />   <use xlink:href="#dot" transform="translate(160.197525,-9.585651)" />   <use xlink:href="#dot" transform="translate(160.197525,-9.585651)" />   <use xlink:href="#dot" transform="translate(160.197525,-9.585651)" />   <use xlink:href="#dot" transform="translate(160.197525,-9.585651)" />   <use xlink:href="#dot" transform="translate(160.197525,-9.585651)" />   <use xlink:href="#dot" transform="translate(160.197525,-9.585651)" />   <use xlink:href="#dot" transform="translate(157.074081,-8)" />   <use xlink:href="#dot" transform="translate(157.074081,-8)" />   <use xlink:href="#dot" transform="translate(157.074081,-8)" />   <use xlink:href="#dot" transform="translate(160.19752,-9.58565)" />   <use xlink:href="#dot" transform="translate(159,-8)" />   <use xlink:href="#dot" transform="translate(160.197525,-9.585651)" />   <use xlink:href="#dot" transform="translate(160.017,-9.8)" />   <use xlink:href="#dot" transform="translate(160.017,-9.8)" />   <use xlink:href="#dot" transform="translate(157.866,-8.566)" />   <use xlink:href="#dot" transform="translate(160.197525,-9.585651)" />   <use xlink:href="#dot" transform="translate(160.017,-9.8)" />   <use xlink:href="#dot" transform="translate(160.017,-9.8)" />   <use xlink:href="#dot" transform="translate(160.017,-9.8)" />   <use xlink:href="#dot" transform="translate(156.074,-6.97464)" />   <use xlink:href="#dot" transform="translate(160.197525,-9.585651)" />   <use xlink:href="#dot" transform="translate(160.197525,-9.585651)" />   <use xlink:href="#dot" transform="translate(160.197525,-9.585651)" />   <use xlink:href="#dot" transform="translate(160.197525,-9.585651)" />   <use xlink:href="#dot" transform="translate(160.017,-9.8)" />   <use xlink:href="#dot" transform="translate(160.017,-9.8)" />   <use xlink:href="#dot" transform="translate(160.166667,-9)" />   <use xlink:href="#dot" transform="translate(160.197525,-9.585651)" />   <use xlink:href="#dot" transform="translate(160.197525,-9.585651)" />   <use xlink:href="#dot" transform="translate(160.017,-9.8)" />   <use xlink:href="#dot" transform="translate(160.017,-9.8)" />   <use xlink:href="#dot" transform="translate(156.074,-6.97464)" />   <use xlink:href="#dot" transform="translate(160.017,-9.8)" />   <use xlink:href="#dot" transform="translate(160.197525,-9.585651)" />   <use xlink:href="#dot" transform="translate(160.197525,-9.585651)" />   <use xlink:href="#dot" transform="translate(160.017,-9.8)" /><polygon class="region" points="155.5667,-6.7667 155.5583,-6.2292 159.666,-8.25 160.166667,-9 160.197525,-9.585651 160.017,-9.8 157.883,-8.666 157,-8.083 155.75,-7.0833 155.5667,-6.7667 " />
		  </g>
		</svg>