<?xml version="1.0" encoding="UTF-8"?>
	<svg xmlns:xlink="http://www.w3.org/1999/xlink" 
	xmlns="http://www.w3.org/2000/svg" 
	width="360px" height="180px">
	   <style type="text/css">
		  <![CDATA[     
		  .region 
		  { 
			fill:blue; 
			opacity:0.4; 
			stroke:blue;
		  }
		  ]]>
	   </style>

	<circle id="dot" x="-2" y="-2" r="2" style="stroke:none; stroke-width:0; fill:black; opacity:0.7;"/>


	 <image x="0" y="0" width="360" height="180" xlink:href="map.jpg"/>

 
	 <g transform="translate(180,90) scale(1,-1)"><polygon class="region" points="109.17248694,14.091339109 109.15380419,13.47480834 109.344856262,12.890356064 109.00479126,12.567580223 109.189231873,11.720293999 108.82611084,11.720293999 108.612846374,11.270713806 108.376525878,11.432102203 108.186325074,11.126617431 107.771324157,10.970993996 107.385021909,11.21950798 106.911874119,11.223536894 106.84033149,11.583151874 106.528877732,11.699947034 106.360732976,11.597191906 106.127198594,11.662581533 106.01510209,11.475754027 105.753543582,11.55048503 106.033784841,11.793360787 106.454146729,11.681264284 106.389664988,12.13017534 106.700453833,12.256190803 106.768417359,12.901884079 107.073898316,12.982577324 106.720519457,13.93404479 107.357409246,14.042605549 107.58445314,14.801283632 108.621345798,14.70786988 109.032366311,14.493018248 109.17248694,14.091339109 " />
		  </g>
		</svg>