<?xml version="1.0" encoding="UTF-8"?>
	<svg xmlns:xlink="http://www.w3.org/1999/xlink" 
	xmlns="http://www.w3.org/2000/svg" 
	width="360px" height="180px">
	   <style type="text/css">
		  <![CDATA[     
		  .region 
		  { 
			fill:blue; 
			opacity:0.4; 
			stroke:blue;
		  }
		  ]]>
	   </style>

	<circle id="dot" x="-2" y="-2" r="2" style="stroke:none; stroke-width:0; fill:black; opacity:0.7;"/>


	 <image x="0" y="0" width="360" height="180" xlink:href="map.jpg"/>

 
	 <g transform="translate(180,90) scale(1,-1)">   <use xlink:href="#dot" transform="translate(16.213513,-21.913875)" />   <use xlink:href="#dot" transform="translate(31.802673,-24.420352)" />   <use xlink:href="#dot" transform="translate(24.343739,-28.977897)" />   <use xlink:href="#dot" transform="translate(27.287292,-25.279471)" />   <use xlink:href="#dot" transform="translate(22.937506,-30.559482)" />   <use xlink:href="#dot" transform="translate(34.9969,-3.019943)" />   <use xlink:href="#dot" transform="translate(24.420671,-29.084602)" />   <use xlink:href="#dot" transform="translate(31.589444,-25.045278)" />   <use xlink:href="#dot" transform="translate(23.216872,-21.788425)" />   <use xlink:href="#dot" transform="translate(16.487359,-21.313442)" />   <use xlink:href="#dot" transform="translate(23.836212,-21.505342)" />   <use xlink:href="#dot" transform="translate(31.636,-24.233)" />   <use xlink:href="#dot" transform="translate(31.914597,-24.93688)" />   <use xlink:href="#dot" transform="translate(24.083633,-18.649017)" />   <use xlink:href="#dot" transform="translate(31.914597,-24.93688)" />   <use xlink:href="#dot" transform="translate(31.706543,-25.131162)" />   <use xlink:href="#dot" transform="translate(36.026801,-3.989034)" />   <use xlink:href="#dot" transform="translate(31.542778,-25.086221)" />   <use xlink:href="#dot" transform="translate(30.893383,-24.198435)" />   <use xlink:href="#dot" transform="translate(30.883083,-24.201253)" />   <use xlink:href="#dot" transform="translate(30.89098,-24.200314)" />   <use xlink:href="#dot" transform="translate(30.88377,-24.200314)" />   <use xlink:href="#dot" transform="translate(30.887032,-24.199374)" />   <use xlink:href="#dot" transform="translate(31.440811,-23.801052)" />   <use xlink:href="#dot" transform="translate(30.886688,-24.201253)" />   <use xlink:href="#dot" transform="translate(30.883598,-24.198435)" />   <use xlink:href="#dot" transform="translate(31.587067,-25.043304)" />   <use xlink:href="#dot" transform="translate(31.517029,-24.991659)" />   <use xlink:href="#dot" transform="translate(30.886688,-24.199061)" />   <use xlink:href="#dot" transform="translate(30.882912,-24.199374)" />   <use xlink:href="#dot" transform="translate(36.726683,-1.617932)" />   <use xlink:href="#dot" transform="translate(30.889778,-24.200627)" />   <use xlink:href="#dot" transform="translate(30.880337,-24.2)" />   <use xlink:href="#dot" transform="translate(30.888405,-24.199687)" />   <use xlink:href="#dot" transform="translate(30.884972,-24.198748)" />   <use xlink:href="#dot" transform="translate(15.176239,-21.822142)" />   <use xlink:href="#dot" transform="translate(17.84742,-32.82721)" />   <use xlink:href="#dot" transform="translate(17.84954,-32.82391)" />   <use xlink:href="#dot" transform="translate(23.762268,-19.162884)" />   <use xlink:href="#dot" transform="translate(16.471746,-19.031652)" />   <use xlink:href="#dot" transform="translate(15.935669,-19.165276)" />   <use xlink:href="#dot" transform="translate(31.518917,-24.940149)" />   <use xlink:href="#dot" transform="translate(14.369431,-19.331554)" />   <use xlink:href="#dot" transform="translate(14.369431,-19.331554)" />   <use xlink:href="#dot" transform="translate(17.014811,-23.323301)" />   <use xlink:href="#dot" transform="translate(15.174383,-20.303076)" />   <use xlink:href="#dot" transform="translate(16.940081,-18.812515)" />   <use xlink:href="#dot" transform="translate(16.471746,-19.031652)" />   <use xlink:href="#dot" transform="translate(16.779759,-18.915362)" />   <use xlink:href="#dot" transform="translate(16.471746,-19.031652)" />   <use xlink:href="#dot" transform="translate(24.691,-20.074)" />   <use xlink:href="#dot" transform="translate(23.958678,-19.193015)" />   <use xlink:href="#dot" transform="translate(27.089517,-18.969064)" />   <use xlink:href="#dot" transform="translate(24.5,-18.666667)" />   <use xlink:href="#dot" transform="translate(16.546887,-19.006168)" />   <use xlink:href="#dot" transform="translate(35.156039,-1.977295)" />   <use xlink:href="#dot" transform="translate(31.514282,-24.417767)" />   <use xlink:href="#dot" transform="translate(31.616077,-25.133604)" />   <use xlink:href="#dot" transform="translate(17.245917,-22.477513)" />   <use xlink:href="#dot" transform="translate(31.509243,-23.602157)" />   <use xlink:href="#dot" transform="translate(18.393635,-27.61327)" />   <use xlink:href="#dot" transform="translate(17.8508,-32.8272)" />   <use xlink:href="#dot" transform="translate(24.082375,-18.552625)" />   <use xlink:href="#dot" transform="translate(24.319611,-29.166252)" />   <use xlink:href="#dot" transform="translate(16.425518,-21.018326)" />   <use xlink:href="#dot" transform="translate(31.245804,-24.517139)" />   <use xlink:href="#dot" transform="translate(16.425518,-21.018326)" />   <use xlink:href="#dot" transform="translate(15.923767,-19.122161)" />   <use xlink:href="#dot" transform="translate(15.944798,-19.136068)" />   <use xlink:href="#dot" transform="translate(31.600699,-24.183047)" />   <use xlink:href="#dot" transform="translate(22.093645,-22.402409)" />   <use xlink:href="#dot" transform="translate(31.672034,-24.903426)" />   <use xlink:href="#dot" transform="translate(15.713506,-19.217072)" />   <use xlink:href="#dot" transform="translate(18.62228,-31.346735)" />   <use xlink:href="#dot" transform="translate(35.04776,-2.934812)" />   <use xlink:href="#dot" transform="translate(19.959338,-34.730107)" />   <use xlink:href="#dot" transform="translate(31.704426,-24.253393)" />   <use xlink:href="#dot" transform="translate(22.432566,-19.375628)" />   <use xlink:href="#dot" transform="translate(32.103231,-21.451639)" />   <use xlink:href="#dot" transform="translate(31.628436,-24.963403)" />   <use xlink:href="#dot" transform="translate(31.592388,-24.998373)" />   <use xlink:href="#dot" transform="translate(17.417135,-30.414468)" />   <use xlink:href="#dot" transform="translate(17.78014,-30.169538)" />   <use xlink:href="#dot" transform="translate(18.368166,-32.587558)" />   <use xlink:href="#dot" transform="translate(15.179925,-21.807255)" />   <use xlink:href="#dot" transform="translate(31.76247,-24.347302)" />   <use xlink:href="#dot" transform="translate(17.654225,-24.064478)" />   <use xlink:href="#dot" transform="translate(16.383362,-19.000544)" />   <use xlink:href="#dot" transform="translate(16.903444,-18.715564)" />   <use xlink:href="#dot" transform="translate(14.473543,-19.007269)" />   <use xlink:href="#dot" transform="translate(16.937485,-18.807842)" />   <use xlink:href="#dot" transform="translate(14.473543,-19.007269)" />   <use xlink:href="#dot" transform="translate(16.471014,-19.035515)" />   <use xlink:href="#dot" transform="translate(19.83279,-17.874897)" />   <use xlink:href="#dot" transform="translate(16.471014,-19.035515)" />   <use xlink:href="#dot" transform="translate(15.918136,-19.177792)" />   <use xlink:href="#dot" transform="translate(14.473543,-19.007269)" />   <use xlink:href="#dot" transform="translate(13.742266,-18.689993)" />   <use xlink:href="#dot" transform="translate(13.742266,-18.689993)" />   <use xlink:href="#dot" transform="translate(17.334044,-22.790901)" />   <use xlink:href="#dot" transform="translate(15.579782,-21.513659)" />   <use xlink:href="#dot" transform="translate(23.827286,-19.116625)" />   <use xlink:href="#dot" transform="translate(16.690413,-18.944704)" />   <use xlink:href="#dot" transform="translate(14.636297,-19.394413)" />   <use xlink:href="#dot" transform="translate(15.866809,-18.994118)" />   <use xlink:href="#dot" transform="translate(14.310031,-19.719259)" />   <use xlink:href="#dot" transform="translate(14.636297,-19.394413)" />   <use xlink:href="#dot" transform="translate(22.462234,-17.982162)" />   <use xlink:href="#dot" transform="translate(14.74244,-19.503279)" />   <use xlink:href="#dot" transform="translate(14.369241,-20.570726)" />   <use xlink:href="#dot" transform="translate(20.762472,-18.507105)" />   <use xlink:href="#dot" transform="translate(27.227264,-19.049686)" />   <use xlink:href="#dot" transform="translate(20.716352,-19.054979)" />   <use xlink:href="#dot" transform="translate(27.213903,-19.045947)" />   <use xlink:href="#dot" transform="translate(18.488531,-21.459219)" />   <use xlink:href="#dot" transform="translate(17.134262,-18.754396)" />   <use xlink:href="#dot" transform="translate(20.761328,-18.505737)" />   <use xlink:href="#dot" transform="translate(23.688027,-21.331723)" />   <use xlink:href="#dot" transform="translate(20.761328,-18.505737)" />   <use xlink:href="#dot" transform="translate(20.572844,-19.38419)" />   <use xlink:href="#dot" transform="translate(19.971685,-20.632061)" />   <use xlink:href="#dot" transform="translate(27.234047,-19.084922)" />   <use xlink:href="#dot" transform="translate(16.900808,-22.269505)" />   <use xlink:href="#dot" transform="translate(27.210861,-19.106369)" />   <use xlink:href="#dot" transform="translate(14.636297,-19.394413)" />   <use xlink:href="#dot" transform="translate(16.261654,-19.039198)" />   <use xlink:href="#dot" transform="translate(16.619459,-18.992283)" />   <use xlink:href="#dot" transform="translate(16.804098,-18.851162)" />   <use xlink:href="#dot" transform="translate(15.65808,-21.783939)" />   <use xlink:href="#dot" transform="translate(17.099749,-18.804878)" />   <use xlink:href="#dot" transform="translate(16.989885,-18.812027)" />   <use xlink:href="#dot" transform="translate(15.940983,-19.315662)" />   <use xlink:href="#dot" transform="translate(17.099749,-18.804878)" />   <use xlink:href="#dot" transform="translate(16.769777,-18.897284)" />   <use xlink:href="#dot" transform="translate(31.743279,-24.96421)" />   <use xlink:href="#dot" transform="translate(17.41045,-22.483368)" />   <use xlink:href="#dot" transform="translate(16.106644,-19.169016)" />   <use xlink:href="#dot" transform="translate(24.071732,-18.573036)" />   <use xlink:href="#dot" transform="translate(17.41045,-22.483368)" />   <use xlink:href="#dot" transform="translate(17.41045,-22.483368)" />   <use xlink:href="#dot" transform="translate(20.614686,-26.424003)" />   <use xlink:href="#dot" transform="translate(31.47583,-23.652072)" />   <use xlink:href="#dot" transform="translate(22.225342,-32.224419)" />   <use xlink:href="#dot" transform="translate(35.202942,-1.573594)" />   <use xlink:href="#dot" transform="translate(36.305621,0.471551)" />   <use xlink:href="#dot" transform="translate(36.9102,0.28413)" />   <use xlink:href="#dot" transform="translate(36.9102,0.28413)" />   <use xlink:href="#dot" transform="translate(31.645488,-24.26069)" />   <use xlink:href="#dot" transform="translate(31.453857,-24.046464)" />   <use xlink:href="#dot" transform="translate(20.394001,-30.46273)" />   <use xlink:href="#dot" transform="translate(19.399109,-29.020166)" />   <use xlink:href="#dot" transform="translate(17.367668,-20.164442)" />   <use xlink:href="#dot" transform="translate(31.898804,-25.178323)" />   <use xlink:href="#dot" transform="translate(24.145203,-18.491539)" />   <use xlink:href="#dot" transform="translate(20.824113,-23.639351)" />   <use xlink:href="#dot" transform="translate(27.045417,-25.315778)" />   <use xlink:href="#dot" transform="translate(21.61499,-22.32733)" />   <use xlink:href="#dot" transform="translate(22.43598,-22.46044)" />   <use xlink:href="#dot" transform="translate(22.12648,-22.41131)" />   <use xlink:href="#dot" transform="translate(19.999237,-25.76805)" />   <use xlink:href="#dot" transform="translate(16.443787,-23.311991)" />   <use xlink:href="#dot" transform="translate(25.145988,-17.823223)" />   <use xlink:href="#dot" transform="translate(20.003357,-34.829586)" />   <use xlink:href="#dot" transform="translate(27.049139,-25.3055)" />   <use xlink:href="#dot" transform="translate(16.471746,-19.031652)" />   <use xlink:href="#dot" transform="translate(18.157654,-33.19273)" />   <use xlink:href="#dot" transform="translate(19.410095,-29.089777)" />   <use xlink:href="#dot" transform="translate(31.617205,-25.162979)" />   <use xlink:href="#dot" transform="translate(31.420898,-24.046465)" />   <use xlink:href="#dot" transform="translate(31.420898,-24.046465)" />   <use xlink:href="#dot" transform="translate(31.420898,-24.046465)" />   <use xlink:href="#dot" transform="translate(18.127441,-19.489897)" />   <use xlink:href="#dot" transform="translate(31.420898,-24.046465)" />   <use xlink:href="#dot" transform="translate(16.900808,-22.269505)" />   <use xlink:href="#dot" transform="translate(22.60242,-31.60038)" />   <use xlink:href="#dot" transform="translate(22.60242,-31.60038)" />   <use xlink:href="#dot" transform="translate(25.675049,-20.478481)" />   <use xlink:href="#dot" transform="translate(23.827286,-19.116625)" />   <use xlink:href="#dot" transform="translate(25.397644,-18.190216)" />   <use xlink:href="#dot" transform="translate(31.295242,-23.704266)" />   <use xlink:href="#dot" transform="translate(31.739975,-24.005465)" />   <use xlink:href="#dot" transform="translate(31.245804,-24.517139)" />   <use xlink:href="#dot" transform="translate(31.69693,-25.325407)" />   <use xlink:href="#dot" transform="translate(18.70812,-33.7244)" />   <use xlink:href="#dot" transform="translate(15.78083,-23.495365)" />   <use xlink:href="#dot" transform="translate(16.798096,-18.872503)" />   <use xlink:href="#dot" transform="translate(16.745911,-18.959718)" />   <use xlink:href="#dot" transform="translate(16.058474,-19.213371)" />   <use xlink:href="#dot" transform="translate(20.590696,-25.412113)" />   <use xlink:href="#dot" transform="translate(31.397854,-23.520109)" />   <use xlink:href="#dot" transform="translate(31.019382,-22.691477)" />   <use xlink:href="#dot" transform="translate(31.739975,-24.005465)" />   <use xlink:href="#dot" transform="translate(16.329117,-19.027718)" />   <use xlink:href="#dot" transform="translate(24.533333,-32.133333)" />   <use xlink:href="#dot" transform="translate(24.549999,-32.25)" />   <use xlink:href="#dot" transform="translate(24.803009,-20.219677)" />   <use xlink:href="#dot" transform="translate(24.816055,-18.366196)" />   <use xlink:href="#dot" transform="translate(23.420105,-19.975929)" />   <use xlink:href="#dot" transform="translate(21.621094,-21.871695)" />   <use xlink:href="#dot" transform="translate(24.071732,-18.573036)" />   <use xlink:href="#dot" transform="translate(19.428291,-22.339914)" />   <use xlink:href="#dot" transform="translate(24.803009,-20.219677)" />   <use xlink:href="#dot" transform="translate(18.486166,-22.965661)" />   <use xlink:href="#dot" transform="translate(18.486166,-22.965661)" />   <use xlink:href="#dot" transform="translate(26.883333,-31.9)" />   <use xlink:href="#dot" transform="translate(31.810708,-24.756288)" />   <use xlink:href="#dot" transform="translate(18.4333,-19.7167)" />   <use xlink:href="#dot" transform="translate(18.4333,-19.7167)" />   <use xlink:href="#dot" transform="translate(19.43,-22.66)" />   <use xlink:href="#dot" transform="translate(18.58333,-25.46667)" />   <use xlink:href="#dot" transform="translate(19.95,-25.42)" />   <use xlink:href="#dot" transform="translate(19.55546,-25.54575)" />   <use xlink:href="#dot" transform="translate(19.85776,-25.82021)" />   <use xlink:href="#dot" transform="translate(21.75,-18.73)" />   <use xlink:href="#dot" transform="translate(17.85,-15.8333)" />   <use xlink:href="#dot" transform="translate(17.85,-15.8333)" />   <use xlink:href="#dot" transform="translate(17.85,-15.8333)" />   <use xlink:href="#dot" transform="translate(27.1,-26.72)" />   <use xlink:href="#dot" transform="translate(28.5,-27.28)" />   <use xlink:href="#dot" transform="translate(27.37,-24.67)" />   <use xlink:href="#dot" transform="translate(24.77,-28.75)" />   <use xlink:href="#dot" transform="translate(26.8,-28.12)" />   <use xlink:href="#dot" transform="translate(23.41804,-19.427726)" />   <use xlink:href="#dot" transform="translate(24.251373,-18.606894)" />   <use xlink:href="#dot" transform="translate(27.35,-28.55)" />   <use xlink:href="#dot" transform="translate(19.9,-31.47)" />   <use xlink:href="#dot" transform="translate(24.251373,-18.606894)" />   <use xlink:href="#dot" transform="translate(35.166672,-3.18333)" />   <use xlink:href="#dot" transform="translate(22.031273,-25.219465)" />   <use xlink:href="#dot" transform="translate(22.031273,-25.219465)" />   <use xlink:href="#dot" transform="translate(25.15,-17.816667)" />   <use xlink:href="#dot" transform="translate(27.27,-21.88)" />   <use xlink:href="#dot" transform="translate(26.416667,-20.78684)" />   <use xlink:href="#dot" transform="translate(27.27,-21.88)" />   <use xlink:href="#dot" transform="translate(22.18,-28.98)" />   <use xlink:href="#dot" transform="translate(26.5,-22.17)" />   <use xlink:href="#dot" transform="translate(21.75,-18.73)" />   <use xlink:href="#dot" transform="translate(21.07,-18.53)" />   <use xlink:href="#dot" transform="translate(21.47,-20.03)" />   <use xlink:href="#dot" transform="translate(21.07,-18.53)" />   <use xlink:href="#dot" transform="translate(36.8167,-0.2333)" />   <use xlink:href="#dot" transform="translate(36.8167,-0.2333)" />   <use xlink:href="#dot" transform="translate(36.8167,-0.2333)" />   <use xlink:href="#dot" transform="translate(36.8167,-0.2333)" />   <use xlink:href="#dot" transform="translate(33.52,-22.82)" />   <use xlink:href="#dot" transform="translate(33,-21.5)" />   <use xlink:href="#dot" transform="translate(32.17,-24.5)" />   <use xlink:href="#dot" transform="translate(39.95,-1.1)" />   <use xlink:href="#dot" transform="translate(22.26667,-19.66667)" />   <use xlink:href="#dot" transform="translate(22.26667,-19.66667)" />   <use xlink:href="#dot" transform="translate(28.499964,-18.833313)" />   <use xlink:href="#dot" transform="translate(34.61667,-2.08333)" />   <use xlink:href="#dot" transform="translate(29.399968,-21.466682)" />   <use xlink:href="#dot" transform="translate(36.049939,-2.903414)" />   <use xlink:href="#dot" transform="translate(36.433331,-3.48333)" />   <use xlink:href="#dot" transform="translate(18.5,-21.42)" />   <use xlink:href="#dot" transform="translate(18.5,-21.42)" />   <use xlink:href="#dot" transform="translate(20.58,-20.33)" />   <use xlink:href="#dot" transform="translate(20.48,-20.25)" />   <use xlink:href="#dot" transform="translate(20.23,-19.23)" />   <use xlink:href="#dot" transform="translate(20.23,-19.23)" />   <use xlink:href="#dot" transform="translate(20.23,-19.23)" />   <use xlink:href="#dot" transform="translate(20.23,-19.23)" />   <use xlink:href="#dot" transform="translate(20.5,-19.5)" />   <use xlink:href="#dot" transform="translate(20.38,-19.83)" />   <use xlink:href="#dot" transform="translate(25.533333,-24.416667)" />   <use xlink:href="#dot" transform="translate(25.533333,-24.416667)" />   <use xlink:href="#dot" transform="translate(35.850812806728,-3.3623989112317)" />   <use xlink:href="#dot" transform="translate(33.95,-2.08333)" />   <use xlink:href="#dot" transform="translate(24.450001,-23.316669)" />   <use xlink:href="#dot" transform="translate(24.616671,-23.18333)" />   <use xlink:href="#dot" transform="translate(23.25,-22.549999)" />   <use xlink:href="#dot" transform="translate(22.271351,-21.873581)" />   <use xlink:href="#dot" transform="translate(22.450001,-22.1)" />   <use xlink:href="#dot" transform="translate(22.271351,-21.873581)" />   <use xlink:href="#dot" transform="translate(21.658701,-21.66667)" />   <use xlink:href="#dot" transform="translate(25.799681,-20.578819)" />   <use xlink:href="#dot" transform="translate(34.834106,-2.335852)" />   <use xlink:href="#dot" transform="translate(34.834106,-2.335852)" />   <use xlink:href="#dot" transform="translate(34.825779,-2.444182)" />   <use xlink:href="#dot" transform="translate(35.73333,-0.25)" />   <use xlink:href="#dot" transform="translate(-40.516666,-2.533333)" />   <use xlink:href="#dot" transform="translate(-36.983334,-1.45)" />   <use xlink:href="#dot" transform="translate(-36.983334,-1.45)" />   <use xlink:href="#dot" transform="translate(-36.983334,-1.45)" />   <use xlink:href="#dot" transform="translate(-37.049999,-1.466667)" />   <use xlink:href="#dot" transform="translate(29.55,-15.8)" />   <use xlink:href="#dot" transform="translate(28.5833,-20.15)" />   <use xlink:href="#dot" transform="translate(-119.59668,37.213544)" />   <use xlink:href="#dot" transform="translate(29.75,-19)" />   <use xlink:href="#dot" transform="translate(28.5833,-20.15)" />   <use xlink:href="#dot" transform="translate(30.14069,-23.933)" />   <use xlink:href="#dot" transform="translate(26.1577,-18.24383)" /><polygon class="region" points="20.003357,-34.829586 -119.59668,37.213544 36.305621,0.471551 36.9102,0.28413 39.95,-1.1 33.52,-22.82 31.898804,-25.178323 26.883333,-31.9 20.003357,-34.829586 " />
		  </g>
		</svg>