<?xml version="1.0" encoding="UTF-8"?>
	<svg xmlns:xlink="http://www.w3.org/1999/xlink" 
	xmlns="http://www.w3.org/2000/svg" 
	width="360px" height="180px">
	   <style type="text/css">
		  <![CDATA[     
		  .region 
		  { 
			fill:blue; 
			opacity:0.4; 
			stroke:blue;
		  }
		  ]]>
	   </style>

	<circle id="dot" x="-2" y="-2" r="2" style="stroke:none; stroke-width:0; fill:black; opacity:0.7;"/>


	 <image x="0" y="0" width="360" height="180" xlink:href="map.jpg"/>

 
	 <g transform="translate(180,90) scale(1,-1)"><polygon class="region" points="13.5448,-12.361064407 13.6544,-12.236964407 13.7783,-11.867964408 14.1287,-12.008064408 15.9388,-13.515864407 17.2937,-13.967564407 18.0202,-14.046064408 18.9235,-14.635164407 19.3163,-14.713764407 20.905,-14.554764407 21.7334,-13.757064407 22.0261,-13.024964407 22.6937,-13.044664408 23.1846,-13.672964408 23.5129,-14.738864407 24.1036,-15.458464407 25.7538,-15.692364407 26.9102,-16.043164407 27.1701,-16.277064407 27.8047,-17.662864407 28.5658,-18.217064408 29.1913,-18.409564408 29.6475,-18.371064407 30.7438,-17.944764407 33.5041,-18.126064407 33.7801,-18.608964407 33.9673,-20.244864408 34.2629,-20.639064407 35.1099,-20.991264407 34.984,-21.115464407 35.0621,-21.344764407 35.1273,-21.167264407 35.3435,-22.186064407 35.4987,-22.101664408 35.523,-22.310064408 35.5325,-22.206264407 35.5454,-22.172664407 35.6045,-22.926564408 35.3305,-23.682964408 35.3417,-23.995164407 35.5515,-23.792164408 35.4821,-24.155564408 35.0914,-24.625864408 33.2191,-25.340364407 32.8235,-25.601964408 32.7511,-25.867664408 32.738,-25.774764407 32.7214,-25.752964408 32.692,-25.736164407 32.7021,-25.882164407 32.4524,-25.975564407 32.6697,-26.122264408 32.7045,-26.319364408 32.6779,-26.345364407 32.6694,-26.366364408 32.676,-26.394064407 32.7113,-26.316464407 32.6897,-26.200264407 32.8854,-26.284564407 32.962,-26.085964407 32.8707,-27.006864408 32.3982,-28.528564408 30.7048,-28.714264407 29.8446,-29.629064407 29.554,-29.114564407 28.6317,-28.671264407 27.8499,-28.915564407 27.0718,-29.907464407 26.6508,-31.835164407 26.7331,-33.184164407 26.6788,-33.455464407 26.4573,-33.613664408 25.6692,-33.781664407 25.6993,-34.035864407 25.0079,-33.958264407 24.7719,-34.108064407 24.8364,-34.214464407 23.6511,-33.978464407 23.4096,-34.106864408 22.2643,-34.051464407 21.8195,-34.381164408 20.5268,-34.471364407 20.005,-34.839764407 19.2943,-34.633464408 19.3658,-34.506164408 19.138,-34.307864407 18.8218,-34.385064407 18.7911,-34.085264408 18.4346,-34.128864407 18.4765,-34.356864407 18.3115,-34.027564407 18.4788,-33.891764407 18.4265,-33.674864408 17.8457,-32.824764407 18.3132,-32.565264407 18.2007,-31.669864407 17.2777,-30.333664408 16.8133,-29.093864407 16.4733,-28.583564408 15.9058,-28.174864407 16.0327,-27.912264407 15.9788,-27.073564408 14.7328,-22.002564407 13.6863,-20.096964408 12.1657,-18.241664408 11.7675,-16.991664407 11.7323,-15.881464408 12.1514,-15.184264407 12.5325,-13.418964407 12.9738,-12.983764407 12.9411,-12.831164407 13.5448,-12.361064407 " /><polygon class="region" points="37.7238,0.43433559300007 37.9387,0.14933559300005 38.1458,-1.5649644069999 38.902,-2.882964407 39.3774,-2.818164408 40.1298,-1.6826644069999 40.2978,-1.8002644069999 40.2642,-2.0101644069999 39.72,-2.7123644079999 39.5607,-3.4115644079999 38.9411,-4.570964407 38.2685,-5.163964407 37.5223,-5.2454644069999 37.2121,-6.072664408 36.3591,-7.132564407 35.1735,-8.0956644079999 34.6699,-9.023364407 34.4083,-9.0411644069999 33.9742,-8.517964408 33.8591,-8.1326644069999 34.1368,-6.6701644079999 33.6385,-5.6670644069999 33.5629,-5.041064407 33.8961,-2.097664407 34.2151,-1.895064407 34.2491,-1.125564407 34.6661,-0.33666440699994 34.621,-0.009764406999977 34.1589,0.04663559200003 34.1702,0.30583559200005 34.5429,0.76003559200006 35.2028,0.70553559300004 36.0706,0.39103559200004 36.9914,0.84143559300003 37.7238,0.43433559300007 " /><polygon class="region" points="31.5563,-4.258864408 31.4419,-4.300264408 31.2707,-4.008164408 31.1699,-3.222364408 32.2679,-2.003464408 32.6507,-2.184864408 32.681,-2.597864408 32.2176,-3.0209644079999 31.9708,-3.9426644069999 31.5563,-4.258864408 " /><polygon class="region" points="31.7505,-7.2497644069999 32.3658,-7.089464407 31.9364,-7.5060644079999 32.9298,-8.268864407 32.9555,-8.608564407 31.4749,-7.685564407 31.2057,-7.2881644079999 31.1993,-6.9933644069999 31.5069,-7.006164407 31.7505,-7.2497644069999 " />
		  </g>
		</svg>