<?xml version="1.0" encoding="UTF-8"?>
	<svg xmlns:xlink="http://www.w3.org/1999/xlink" 
	xmlns="http://www.w3.org/2000/svg" 
	width="360px" height="180px">
	   <style type="text/css">
		  <![CDATA[     
		  .region 
		  { 
			fill:blue; 
			opacity:0.4; 
			stroke:blue;
		  }
		  ]]>
	   </style>

	<circle id="dot" x="-2" y="-2" r="2" style="stroke:none; stroke-width:0; fill:black; opacity:0.7;"/>


	 <image x="0" y="0" width="360" height="180" xlink:href="map.jpg"/>

 
	 <g transform="translate(180,90) scale(1,-1)">   <use xlink:href="#dot" transform="translate(-87,20.366667)" />   <use xlink:href="#dot" transform="translate(-86.999815815049,20.367272877296)" />   <use xlink:href="#dot" transform="translate(-87,20.366667)" />   <use xlink:href="#dot" transform="translate(-87,20.366667)" />   <use xlink:href="#dot" transform="translate(-87,20.366667)" />   <use xlink:href="#dot" transform="translate(-86.992453,20.351428)" />   <use xlink:href="#dot" transform="translate(-86.999815815049,20.367272877296)" />   <use xlink:href="#dot" transform="translate(-87,20.366667)" />   <use xlink:href="#dot" transform="translate(-86.981667,20.375833)" />   <use xlink:href="#dot" transform="translate(-86.999815815049,20.367272877296)" />   <use xlink:href="#dot" transform="translate(-86.992453,20.351428)" />   <use xlink:href="#dot" transform="translate(-87,20.366667)" />   <use xlink:href="#dot" transform="translate(-86.999815815049,20.367272877296)" />   <use xlink:href="#dot" transform="translate(-86.999815815049,20.367272877296)" />   <use xlink:href="#dot" transform="translate(-86.997222,20.3825)" />   <use xlink:href="#dot" transform="translate(-86.992453,20.351428)" />   <use xlink:href="#dot" transform="translate(-87,20.366667)" />   <use xlink:href="#dot" transform="translate(-86.999815815049,20.367272877296)" />   <use xlink:href="#dot" transform="translate(-86.992453,20.351428)" />   <use xlink:href="#dot" transform="translate(-86.999815815049,20.367272877296)" />   <use xlink:href="#dot" transform="translate(-86.999815815049,20.367272877296)" />   <use xlink:href="#dot" transform="translate(-87,20.366667)" />   <use xlink:href="#dot" transform="translate(-86.999815815049,20.367272877296)" />   <use xlink:href="#dot" transform="translate(-86.999815815049,20.367272877296)" />   <use xlink:href="#dot" transform="translate(-86.997222,20.3825)" />   <use xlink:href="#dot" transform="translate(-87,20.366667)" />   <use xlink:href="#dot" transform="translate(-86.981667,20.375833)" />   <use xlink:href="#dot" transform="translate(-87,20.366667)" />   <use xlink:href="#dot" transform="translate(-86.999815815049,20.367272877296)" />   <use xlink:href="#dot" transform="translate(-87,20.366667)" />   <use xlink:href="#dot" transform="translate(-86.997222,20.3825)" />   <use xlink:href="#dot" transform="translate(-87,20.366667)" />   <use xlink:href="#dot" transform="translate(-86.999815815049,20.367272877296)" />   <use xlink:href="#dot" transform="translate(-87,20.366667)" />   <use xlink:href="#dot" transform="translate(-87,20.366667)" />   <use xlink:href="#dot" transform="translate(-87,20.366667)" />   <use xlink:href="#dot" transform="translate(-86.999815815049,20.367272877296)" />   <use xlink:href="#dot" transform="translate(-86.999815815049,20.367272877296)" />   <use xlink:href="#dot" transform="translate(-86.992453,20.351428)" />   <use xlink:href="#dot" transform="translate(-86.981667,20.375833)" />   <use xlink:href="#dot" transform="translate(-86.999815815049,20.367272877296)" />   <use xlink:href="#dot" transform="translate(-86.999815815049,20.367272877296)" />   <use xlink:href="#dot" transform="translate(-86.992453,20.351428)" />   <use xlink:href="#dot" transform="translate(-87,20.366667)" />   <use xlink:href="#dot" transform="translate(-86.999815815049,20.367272877296)" />   <use xlink:href="#dot" transform="translate(-87,20.366667)" />   <use xlink:href="#dot" transform="translate(-86.999815815049,20.367272877296)" />   <use xlink:href="#dot" transform="translate(-87,20.366667)" />   <use xlink:href="#dot" transform="translate(-86.957222,20.293056)" />   <use xlink:href="#dot" transform="translate(-86.957222,20.293056)" />   <use xlink:href="#dot" transform="translate(-86.893898,20.354591)" />   <use xlink:href="#dot" transform="translate(-86.91778,20.551917)" />   <use xlink:href="#dot" transform="translate(-86.917592156796,20.511710459431)" />   <use xlink:href="#dot" transform="translate(-86.917592156796,20.511710459431)" />   <use xlink:href="#dot" transform="translate(-86.917592177238,20.520877042497)" />   <use xlink:href="#dot" transform="translate(-87,21)" />   <use xlink:href="#dot" transform="translate(-86.917592156796,20.511710459431)" />   <use xlink:href="#dot" transform="translate(-86.917592177238,20.520877042497)" />   <use xlink:href="#dot" transform="translate(-86.917592177238,20.520877042497)" />   <use xlink:href="#dot" transform="translate(-87,21)" />   <use xlink:href="#dot" transform="translate(-87,21)" />   <use xlink:href="#dot" transform="translate(-86.917592177238,20.520877042497)" />   <use xlink:href="#dot" transform="translate(-86.917592177238,20.520877042497)" />   <use xlink:href="#dot" transform="translate(-86.917592177238,20.520877042497)" />   <use xlink:href="#dot" transform="translate(-87,21)" />   <use xlink:href="#dot" transform="translate(-86.91778,20.48861)" />   <use xlink:href="#dot" transform="translate(-86.917592177238,20.520877042497)" />   <use xlink:href="#dot" transform="translate(-86.917592177238,20.520877042497)" />   <use xlink:href="#dot" transform="translate(-86.917592177238,20.520877042497)" />   <use xlink:href="#dot" transform="translate(-86.917592177238,20.520877042497)" />   <use xlink:href="#dot" transform="translate(-86.917592177238,20.520877042497)" />   <use xlink:href="#dot" transform="translate(-87,21)" />   <use xlink:href="#dot" transform="translate(-86.917592177238,20.520877042497)" />   <use xlink:href="#dot" transform="translate(-86.842778,20.515833)" />   <use xlink:href="#dot" transform="translate(-86.91778,20.48861)" />   <use xlink:href="#dot" transform="translate(-86.842778,20.512778)" />   <use xlink:href="#dot" transform="translate(-86.842778,20.512778)" />   <use xlink:href="#dot" transform="translate(-86.842778,20.515833)" /><polygon class="region" points="-86.992453,20.351428 -87,20.366667 -87,21 -86.842778,20.515833 -86.842778,20.512778 -86.893898,20.354591 -86.957222,20.293056 -86.992453,20.351428 " />
		  </g>
		</svg>