<?xml version="1.0" encoding="UTF-8"?>
	<svg xmlns:xlink="http://www.w3.org/1999/xlink" 
	xmlns="http://www.w3.org/2000/svg" 
	width="360px" height="180px">
	   <style type="text/css">
		  <![CDATA[     
		  .region 
		  { 
			fill:blue; 
			opacity:0.4; 
			stroke:blue;
		  }
		  ]]>
	   </style>

	<circle id="dot" x="-2" y="-2" r="2" style="stroke:none; stroke-width:0; fill:black; opacity:0.7;"/>


	 <image x="0" y="0" width="360" height="180" xlink:href="map.jpg"/>

 
	 <g transform="translate(180,90) scale(1,-1)"><polygon class="region" points="50.155,30.010735592 49.9995,30.214435592 49.5722,30.000035593 49.4692,30.156635593 49.2474,30.135635592 48.9268,30.389135593 49.217,30.339935592 49.2974,30.446035593 49.1032,30.517835593 48.8991,30.496635592 49.0327,30.444735593 49.0194,30.404035593 48.9336,30.414735592 48.8693,30.352035592 48.9218,30.024735593 48.7157,30.036035592 48.0125,31.356035592 46.2298,32.938335592 46.2298,33.579335592 47.7369,33.930335592 48.6471,33.546035592 49.9954,32.377535593 51.468,30.736835593 51.9845,30.532235593 52.8542,29.783935592 53.4408,28.732135593 54.0274,28.266935592 54.3712,28.448935593 55.1398,28.428735593 56.0703,28.003935593 56.1825,27.819535593 59.596,27.717935592 60.4628,27.819935592 61.6863,27.684035593 62.1452,27.463035593 62.0092,26.630335593 61.4146,25.064135592 60.6056,25.288335593 60.5316,25.446435593 60.4586,25.292435592 59.2088,25.523135592 59.0825,25.406235592 58.5593,25.639935593 58.1226,25.554735593 57.3119,25.783135593 56.9648,27.020535593 56.6535,27.173235593 55.6396,26.983535593 55.5001,26.776335593 55.2376,26.782235593 54.7867,26.499135592 54.2817,26.732135593 53.718,26.703935593 53.4597,26.977235593 52.7021,27.286135592 52.4468,27.637635592 51.404,27.925435593 51.0339,28.809735593 50.8142,28.922335592 50.925,29.066735593 50.663,29.136435592 50.6375,29.470635592 50.155,30.010735592 " /><polygon class="region" points="68.0475,29.056435593 67.6894,29.204735592 67.5411,29.562835592 67.6894,29.920935592 68.0475,30.069335593 68.4057,29.920935592 68.554,29.562835592 68.4057,29.204735592 68.0475,29.056435593 " /><polygon class="region" points="62.4049,32.218235592 62.1144,32.508635592 62.3998,32.799035592 62.6953,32.508635592 62.4049,32.218235592 " /><polygon class="region" points="65.6826,31.359035592 65.4043,31.632535593 65.6777,31.915635593 65.9609,31.642235592 65.6826,31.359035592 " /><polygon class="region" points="79.5747,11.983135593 79.3127,12.240535593 79.5702,12.498035592 79.8277,12.240535593 79.5747,11.983135593 " /><polygon class="region" points="73.7125,23.432135593 73.4605,23.679635593 73.7082,23.927335592 73.9558,23.679635593 73.7125,23.432135593 " /><polygon class="region" points="56.3692,26.371135592 56.5166,26.318635592 56.3934,26.283035593 56.4806,26.127935593 56.3219,26.154135592 56.4512,25.940735592 56.2607,25.644835592 56.5997,24.510435592 57.1945,23.926435592 58.7534,23.518235593 59.0549,23.077335593 58.8968,22.892035593 58.0411,22.442735593 57.0785,22.485535593 56.2549,22.774335593 55.72,23.266335592 55.2601,23.908135592 55.242,25.218135593 55.9517,25.771335592 56.2073,26.257335592 56.219,26.202435592 56.3319,26.181035592 56.409,26.205335593 56.2975,26.207635593 56.3692,26.371135592 " />
		  </g>
		</svg>