<?xml version="1.0" encoding="UTF-8"?>
	<svg xmlns:xlink="http://www.w3.org/1999/xlink" 
	xmlns="http://www.w3.org/2000/svg" 
	width="360px" height="180px">
	   <style type="text/css">
		  <![CDATA[     
		  .region 
		  { 
			fill:blue; 
			opacity:0.4; 
			stroke:blue;
		  }
		  ]]>
	   </style>

	<circle id="dot" x="-2" y="-2" r="2" style="stroke:none; stroke-width:0; fill:black; opacity:0.7;"/>


	 <image x="0" y="0" width="360" height="180" xlink:href="map.jpg"/>

 
	 <g transform="translate(180,90) scale(1,-1)">   <use xlink:href="#dot" transform="translate(56.307015,25.466033)" />   <use xlink:href="#dot" transform="translate(56.26008,25.383142)" />   <use xlink:href="#dot" transform="translate(57.35,23.0833)" />   <use xlink:href="#dot" transform="translate(57.35,23.0833)" />   <use xlink:href="#dot" transform="translate(57.35,23.0833)" />   <use xlink:href="#dot" transform="translate(57.35,23.0833)" />   <use xlink:href="#dot" transform="translate(57.31389,23.38889)" />   <use xlink:href="#dot" transform="translate(57.43333,23.4)" />   <use xlink:href="#dot" transform="translate(57.43333,23.4)" />   <use xlink:href="#dot" transform="translate(57.43333,23.4)" />   <use xlink:href="#dot" transform="translate(46.4333,33.063099)" />   <use xlink:href="#dot" transform="translate(46.4333,33.063099)" />   <use xlink:href="#dot" transform="translate(45.942699,33.2229)" />   <use xlink:href="#dot" transform="translate(46.4333,33.063099)" />   <use xlink:href="#dot" transform="translate(46.4333,33.063099)" />   <use xlink:href="#dot" transform="translate(46.4333,33.063099)" />   <use xlink:href="#dot" transform="translate(45.942699,33.2229)" />   <use xlink:href="#dot" transform="translate(46.4333,33.063099)" />   <use xlink:href="#dot" transform="translate(46.4333,33.063099)" />   <use xlink:href="#dot" transform="translate(45.942699,33.2229)" />   <use xlink:href="#dot" transform="translate(46.4333,33.063099)" />   <use xlink:href="#dot" transform="translate(45.942699,33.2229)" />   <use xlink:href="#dot" transform="translate(46.4333,33.063099)" />   <use xlink:href="#dot" transform="translate(46.4333,33.063099)" />   <use xlink:href="#dot" transform="translate(49.333599,30.772699)" />   <use xlink:href="#dot" transform="translate(49.333599,30.772699)" />   <use xlink:href="#dot" transform="translate(49.333599,30.772699)" />   <use xlink:href="#dot" transform="translate(49.333599,30.772699)" />   <use xlink:href="#dot" transform="translate(49.333599,30.772699)" />   <use xlink:href="#dot" transform="translate(49.333599,30.772699)" />   <use xlink:href="#dot" transform="translate(49.333599,30.772699)" />   <use xlink:href="#dot" transform="translate(49.333599,30.772699)" />   <use xlink:href="#dot" transform="translate(49.333599,30.772699)" />   <use xlink:href="#dot" transform="translate(49.333599,30.772699)" />   <use xlink:href="#dot" transform="translate(49.333599,30.772699)" />   <use xlink:href="#dot" transform="translate(54.297699,27.295)" />   <use xlink:href="#dot" transform="translate(54.297699,27.295)" />   <use xlink:href="#dot" transform="translate(54.486301,26.733299)" />   <use xlink:href="#dot" transform="translate(54.486301,26.733299)" />   <use xlink:href="#dot" transform="translate(52.892399,28.516701)" />   <use xlink:href="#dot" transform="translate(54.297699,27.295)" />   <use xlink:href="#dot" transform="translate(54.297699,27.295)" />   <use xlink:href="#dot" transform="translate(52.892399,28.516701)" />   <use xlink:href="#dot" transform="translate(52.892399,28.516701)" />   <use xlink:href="#dot" transform="translate(52.892399,28.516701)" />   <use xlink:href="#dot" transform="translate(54.486301,26.733299)" />   <use xlink:href="#dot" transform="translate(54.297699,27.295)" />   <use xlink:href="#dot" transform="translate(54.486301,26.733299)" />   <use xlink:href="#dot" transform="translate(54.486301,26.733299)" />   <use xlink:href="#dot" transform="translate(54.297699,27.295)" />   <use xlink:href="#dot" transform="translate(54.297699,27.295)" />   <use xlink:href="#dot" transform="translate(54.297699,27.295)" />   <use xlink:href="#dot" transform="translate(52.892399,28.516701)" />   <use xlink:href="#dot" transform="translate(53.4977,28.562901)" />   <use xlink:href="#dot" transform="translate(54.297699,27.295)" />   <use xlink:href="#dot" transform="translate(54.297699,27.295)" />   <use xlink:href="#dot" transform="translate(54.486301,26.733299)" />   <use xlink:href="#dot" transform="translate(52.892399,28.516701)" />   <use xlink:href="#dot" transform="translate(52.892399,28.516701)" />   <use xlink:href="#dot" transform="translate(52.892399,28.516701)" />   <use xlink:href="#dot" transform="translate(54.297699,27.295)" />   <use xlink:href="#dot" transform="translate(52.892399,28.516701)" />   <use xlink:href="#dot" transform="translate(54.297699,27.295)" />   <use xlink:href="#dot" transform="translate(53.4842,28.516701)" />   <use xlink:href="#dot" transform="translate(54.297699,27.295)" />   <use xlink:href="#dot" transform="translate(54.297699,27.295)" />   <use xlink:href="#dot" transform="translate(53.4977,28.562901)" />   <use xlink:href="#dot" transform="translate(54.297699,27.295)" />   <use xlink:href="#dot" transform="translate(54.486301,26.733299)" />   <use xlink:href="#dot" transform="translate(52.892399,28.516701)" />   <use xlink:href="#dot" transform="translate(54.486301,26.733299)" />   <use xlink:href="#dot" transform="translate(54.297699,27.295)" />   <use xlink:href="#dot" transform="translate(54.486301,26.733299)" />   <use xlink:href="#dot" transform="translate(54.297699,27.295)" />   <use xlink:href="#dot" transform="translate(65.6,31.43333)" />   <use xlink:href="#dot" transform="translate(65.6,31.43333)" />   <use xlink:href="#dot" transform="translate(65.639442,31.476839)" />   <use xlink:href="#dot" transform="translate(65.639442,31.476839)" />   <use xlink:href="#dot" transform="translate(65.639442,31.476839)" />   <use xlink:href="#dot" transform="translate(65.639442,31.476839)" />   <use xlink:href="#dot" transform="translate(65.639442,31.476839)" />   <use xlink:href="#dot" transform="translate(65.639442,31.476839)" />   <use xlink:href="#dot" transform="translate(65.639442,31.476839)" />   <use xlink:href="#dot" transform="translate(65.639442,31.476839)" />   <use xlink:href="#dot" transform="translate(65.639442,31.476839)" />   <use xlink:href="#dot" transform="translate(65.639442,31.476839)" />   <use xlink:href="#dot" transform="translate(65.639442,31.476839)" />   <use xlink:href="#dot" transform="translate(65.639442,31.476839)" />   <use xlink:href="#dot" transform="translate(65.639442,31.476839)" />   <use xlink:href="#dot" transform="translate(65.639442,31.476839)" />   <use xlink:href="#dot" transform="translate(65.639442,31.476839)" />   <use xlink:href="#dot" transform="translate(65.639442,31.476839)" />   <use xlink:href="#dot" transform="translate(65.639442,31.476839)" />   <use xlink:href="#dot" transform="translate(65.639442,31.476839)" />   <use xlink:href="#dot" transform="translate(65.639442,31.476839)" />   <use xlink:href="#dot" transform="translate(65.639442,31.476839)" />   <use xlink:href="#dot" transform="translate(65.639442,31.476839)" />   <use xlink:href="#dot" transform="translate(65.639442,31.476839)" />   <use xlink:href="#dot" transform="translate(65.639442,31.476839)" />   <use xlink:href="#dot" transform="translate(65.639442,31.476839)" />   <use xlink:href="#dot" transform="translate(62.938042,32.18333)" />   <use xlink:href="#dot" transform="translate(62.938042,32.18333)" />   <use xlink:href="#dot" transform="translate(65.639442,31.476839)" />   <use xlink:href="#dot" transform="translate(62.938042,32.18333)" />   <use xlink:href="#dot" transform="translate(62.938042,32.18333)" />   <use xlink:href="#dot" transform="translate(62.938042,32.18333)" />   <use xlink:href="#dot" transform="translate(62.938042,32.18333)" />   <use xlink:href="#dot" transform="translate(62.938042,32.18333)" />   <use xlink:href="#dot" transform="translate(62.938042,32.18333)" />   <use xlink:href="#dot" transform="translate(62.938042,32.18333)" />   <use xlink:href="#dot" transform="translate(62.938042,32.18333)" />   <use xlink:href="#dot" transform="translate(62.938042,32.18333)" />   <use xlink:href="#dot" transform="translate(62.938042,32.18333)" />   <use xlink:href="#dot" transform="translate(65.639442,31.476839)" />   <use xlink:href="#dot" transform="translate(62.938042,32.18333)" />   <use xlink:href="#dot" transform="translate(62.938042,32.18333)" />   <use xlink:href="#dot" transform="translate(62.938042,32.18333)" />   <use xlink:href="#dot" transform="translate(62.938042,32.18333)" />   <use xlink:href="#dot" transform="translate(62.938042,32.18333)" />   <use xlink:href="#dot" transform="translate(62.938042,32.18333)" />   <use xlink:href="#dot" transform="translate(53.512299,28.502899)" />   <use xlink:href="#dot" transform="translate(53.982781,28.251671)" />   <use xlink:href="#dot" transform="translate(53.982781,28.251671)" />   <use xlink:href="#dot" transform="translate(53.512299,28.502899)" />   <use xlink:href="#dot" transform="translate(53.512299,28.502899)" />   <use xlink:href="#dot" transform="translate(53.512299,28.502899)" />   <use xlink:href="#dot" transform="translate(53.982781,28.251671)" />   <use xlink:href="#dot" transform="translate(53.512299,28.502899)" />   <use xlink:href="#dot" transform="translate(53.512299,28.502899)" />   <use xlink:href="#dot" transform="translate(51.77,29.57)" />   <use xlink:href="#dot" transform="translate(51.77,29.57)" />   <use xlink:href="#dot" transform="translate(51.77,29.57)" />   <use xlink:href="#dot" transform="translate(61.285198,30.8484)" />   <use xlink:href="#dot" transform="translate(61.285198,30.8484)" />   <use xlink:href="#dot" transform="translate(61.285198,30.8484)" />   <use xlink:href="#dot" transform="translate(61.285198,30.8484)" />   <use xlink:href="#dot" transform="translate(61.285198,30.8484)" />   <use xlink:href="#dot" transform="translate(61.285198,30.8484)" />   <use xlink:href="#dot" transform="translate(61.285198,30.8484)" />   <use xlink:href="#dot" transform="translate(61.285198,30.8484)" />   <use xlink:href="#dot" transform="translate(61.285198,30.8484)" />   <use xlink:href="#dot" transform="translate(61.285198,30.8484)" />   <use xlink:href="#dot" transform="translate(61.285198,30.8484)" />   <use xlink:href="#dot" transform="translate(61.285198,30.8484)" />   <use xlink:href="#dot" transform="translate(61.285198,30.8484)" />   <use xlink:href="#dot" transform="translate(61.285198,30.8484)" />   <use xlink:href="#dot" transform="translate(61.285198,30.8484)" />   <use xlink:href="#dot" transform="translate(61.285198,30.8484)" />   <use xlink:href="#dot" transform="translate(61.285198,30.8484)" />   <use xlink:href="#dot" transform="translate(61.285198,30.8484)" />   <use xlink:href="#dot" transform="translate(61.285198,30.8484)" />   <use xlink:href="#dot" transform="translate(61.285198,30.8484)" />   <use xlink:href="#dot" transform="translate(61.285198,30.8484)" />   <use xlink:href="#dot" transform="translate(61.285198,30.8484)" />   <use xlink:href="#dot" transform="translate(53.512299,28.502899)" />   <use xlink:href="#dot" transform="translate(53.512299,28.502899)" />   <use xlink:href="#dot" transform="translate(53.512299,28.502899)" />   <use xlink:href="#dot" transform="translate(53.512299,28.502899)" />   <use xlink:href="#dot" transform="translate(53.512299,28.502899)" />   <use xlink:href="#dot" transform="translate(53.512299,28.502899)" />   <use xlink:href="#dot" transform="translate(53.512299,28.502899)" />   <use xlink:href="#dot" transform="translate(53.512299,28.502899)" />   <use xlink:href="#dot" transform="translate(65.45381,31.54769)" />   <use xlink:href="#dot" transform="translate(65.45381,31.54769)" />   <use xlink:href="#dot" transform="translate(65.45381,31.54769)" />   <use xlink:href="#dot" transform="translate(66.105278,30.633061)" /><polygon class="region" points="57.35,23.0833 45.942699,33.2229 62.938042,32.18333 65.45381,31.54769 65.639442,31.476839 66.105278,30.633061 57.35,23.0833 " />
		  </g>
		</svg>