<?xml version="1.0" encoding="UTF-8"?>
	<svg xmlns:xlink="http://www.w3.org/1999/xlink" 
	xmlns="http://www.w3.org/2000/svg" 
	width="360px" height="180px">
	   <style type="text/css">
		  <![CDATA[     
		  .region 
		  { 
			fill:blue; 
			opacity:0.4; 
			stroke:blue;
		  }
		  ]]>
	   </style>

	<circle id="dot" x="-2" y="-2" r="2" style="stroke:none; stroke-width:0; fill:black; opacity:0.7;"/>


	 <image x="0" y="0" width="360" height="180" xlink:href="map.jpg"/>

 
	 <g transform="translate(180,90) scale(1,-1)">   <use xlink:href="#dot" transform="translate(34.02931,3.81083)" />   <use xlink:href="#dot" transform="translate(34.02931,3.81083)" />   <use xlink:href="#dot" transform="translate(34.02931,3.81083)" />   <use xlink:href="#dot" transform="translate(34.02931,3.81083)" />   <use xlink:href="#dot" transform="translate(31.295526,-12.432791)" />   <use xlink:href="#dot" transform="translate(37.69273,-2.3212)" />   <use xlink:href="#dot" transform="translate(37.69273,-2.3212)" />   <use xlink:href="#dot" transform="translate(37.69273,-2.3212)" />   <use xlink:href="#dot" transform="translate(37.70911,-2.33952)" />   <use xlink:href="#dot" transform="translate(37.69273,-2.3212)" />   <use xlink:href="#dot" transform="translate(34.50236,-8.03658)" />   <use xlink:href="#dot" transform="translate(34.50236,-8.03658)" />   <use xlink:href="#dot" transform="translate(34.00975,-7.75128)" />   <use xlink:href="#dot" transform="translate(34.61314,-18.95467)" />   <use xlink:href="#dot" transform="translate(34.61314,-18.95467)" />   <use xlink:href="#dot" transform="translate(34.61314,-18.95467)" />   <use xlink:href="#dot" transform="translate(34.61314,-18.95467)" />   <use xlink:href="#dot" transform="translate(34.61314,-18.95467)" />   <use xlink:href="#dot" transform="translate(34.61314,-18.95467)" />   <use xlink:href="#dot" transform="translate(34.61314,-18.95467)" />   <use xlink:href="#dot" transform="translate(34.61314,-18.95467)" />   <use xlink:href="#dot" transform="translate(34.61314,-18.95467)" />   <use xlink:href="#dot" transform="translate(34.61314,-18.95467)" />   <use xlink:href="#dot" transform="translate(34.61314,-18.95467)" />   <use xlink:href="#dot" transform="translate(34.0305,-7.70714)" />   <use xlink:href="#dot" transform="translate(34.0305,-7.70714)" />   <use xlink:href="#dot" transform="translate(34.0305,-7.70714)" />   <use xlink:href="#dot" transform="translate(34.61314,-18.95467)" />   <use xlink:href="#dot" transform="translate(34.61314,-18.95467)" />   <use xlink:href="#dot" transform="translate(34.61314,-18.95467)" />   <use xlink:href="#dot" transform="translate(39.048481,-5.0727)" />   <use xlink:href="#dot" transform="translate(34.00298,-13.38138)" />   <use xlink:href="#dot" transform="translate(38.00028,-2.87153)" />   <use xlink:href="#dot" transform="translate(37.85336,-2.52863)" />   <use xlink:href="#dot" transform="translate(38.00028,-2.87153)" />   <use xlink:href="#dot" transform="translate(37.71164,-6.94028)" />   <use xlink:href="#dot" transform="translate(34.0025,-13.3797)" />   <use xlink:href="#dot" transform="translate(34.0025,-13.3797)" />   <use xlink:href="#dot" transform="translate(34.0025,-13.3797)" />   <use xlink:href="#dot" transform="translate(34.0025,-13.3797)" />   <use xlink:href="#dot" transform="translate(34.0025,-13.3797)" />   <use xlink:href="#dot" transform="translate(34.0025,-13.3797)" />   <use xlink:href="#dot" transform="translate(34.0025,-13.3797)" />   <use xlink:href="#dot" transform="translate(37.465054,-5.481492)" />   <use xlink:href="#dot" transform="translate(37.465054,-5.481492)" />   <use xlink:href="#dot" transform="translate(35.841671,-8.575)" />   <use xlink:href="#dot" transform="translate(37.705555,-6.929167)" />   <use xlink:href="#dot" transform="translate(38.73333,-4.94167)" />   <use xlink:href="#dot" transform="translate(35.933331,-8.48333)" />   <use xlink:href="#dot" transform="translate(35.933331,-8.48333)" />   <use xlink:href="#dot" transform="translate(35.933331,-8.48333)" />   <use xlink:href="#dot" transform="translate(38.033299,-4.2667)" />   <use xlink:href="#dot" transform="translate(38.599999,-5.1)" />   <use xlink:href="#dot" transform="translate(38.416672,-5.06667)" />   <use xlink:href="#dot" transform="translate(38.599999,-5.1)" />   <use xlink:href="#dot" transform="translate(38.616665,-5.033333)" />   <use xlink:href="#dot" transform="translate(38.416668,-5.066667)" />   <use xlink:href="#dot" transform="translate(27.966667,-16.866667)" />   <use xlink:href="#dot" transform="translate(8.416667,9.6)" />   <use xlink:href="#dot" transform="translate(8.416667,9.6)" />   <use xlink:href="#dot" transform="translate(8.416667,9.6)" />   <use xlink:href="#dot" transform="translate(34.88457,0.26115)" />   <use xlink:href="#dot" transform="translate(34.88457,0.26115)" />   <use xlink:href="#dot" transform="translate(36.0999,-0.31113)" />   <use xlink:href="#dot" transform="translate(37.72304,-2.21034)" />   <use xlink:href="#dot" transform="translate(27.133333,-18.583334)" />   <use xlink:href="#dot" transform="translate(27.133333,-18.583334)" />   <use xlink:href="#dot" transform="translate(27.09693,-18.616671)" />   <use xlink:href="#dot" transform="translate(27.133333,-18.583334)" />   <use xlink:href="#dot" transform="translate(38.766667,-3.566667)" />   <use xlink:href="#dot" transform="translate(38.766667,-3.566667)" />   <use xlink:href="#dot" transform="translate(29.383333,-20.066667)" />   <use xlink:href="#dot" transform="translate(31.083333,-17.55)" />   <use xlink:href="#dot" transform="translate(31.083333,-17.55)" />   <use xlink:href="#dot" transform="translate(29.383333,-20.066667)" />   <use xlink:href="#dot" transform="translate(30.783333,-17.883333)" />   <use xlink:href="#dot" transform="translate(31.083333,-17.55)" />   <use xlink:href="#dot" transform="translate(29.383333,-20.066667)" />   <use xlink:href="#dot" transform="translate(31.083333,-17.55)" />   <use xlink:href="#dot" transform="translate(29.383333,-20.066667)" />   <use xlink:href="#dot" transform="translate(31.083333,-17.55)" />   <use xlink:href="#dot" transform="translate(29.383333,-20.066667)" />   <use xlink:href="#dot" transform="translate(31.083333,-17.55)" />   <use xlink:href="#dot" transform="translate(31.083333,-17.55)" />   <use xlink:href="#dot" transform="translate(29.383333,-20.066667)" />   <use xlink:href="#dot" transform="translate(29.383333,-20.066667)" />   <use xlink:href="#dot" transform="translate(30.75,-17.8)" />   <use xlink:href="#dot" transform="translate(29.383333,-20.066667)" />   <use xlink:href="#dot" transform="translate(28.716667,-20.316667)" />   <use xlink:href="#dot" transform="translate(28.716667,-20.316667)" />   <use xlink:href="#dot" transform="translate(30.783333,-17.833333)" />   <use xlink:href="#dot" transform="translate(30.783333,-17.833333)" />   <use xlink:href="#dot" transform="translate(29.383333,-20.066667)" />   <use xlink:href="#dot" transform="translate(29.383333,-20.066667)" />   <use xlink:href="#dot" transform="translate(29.383333,-20.066667)" />   <use xlink:href="#dot" transform="translate(31.083333,-17.55)" />   <use xlink:href="#dot" transform="translate(30.75,-17.8)" />   <use xlink:href="#dot" transform="translate(31.083333,-17.55)" />   <use xlink:href="#dot" transform="translate(29.383333,-20.066667)" />   <use xlink:href="#dot" transform="translate(30.783333,-17.833333)" />   <use xlink:href="#dot" transform="translate(29.383333,-20.066667)" />   <use xlink:href="#dot" transform="translate(29.383333,-20.066667)" />   <use xlink:href="#dot" transform="translate(28.716667,-20.316667)" />   <use xlink:href="#dot" transform="translate(31.083333,-17.55)" />   <use xlink:href="#dot" transform="translate(31.083333,-17.55)" />   <use xlink:href="#dot" transform="translate(31.083333,-17.55)" />   <use xlink:href="#dot" transform="translate(29.383333,-20.066667)" />   <use xlink:href="#dot" transform="translate(31.083333,-17.55)" />   <use xlink:href="#dot" transform="translate(31.083333,-17.55)" />   <use xlink:href="#dot" transform="translate(29.383333,-20.066667)" />   <use xlink:href="#dot" transform="translate(30.75,-17.8)" />   <use xlink:href="#dot" transform="translate(30.75,-17.8)" />   <use xlink:href="#dot" transform="translate(31.083333,-17.55)" />   <use xlink:href="#dot" transform="translate(29.383333,-20.066667)" />   <use xlink:href="#dot" transform="translate(31.083333,-20.416667)" />   <use xlink:href="#dot" transform="translate(29.383333,-20.066667)" />   <use xlink:href="#dot" transform="translate(31.083333,-17.55)" />   <use xlink:href="#dot" transform="translate(29.383333,-20.066667)" />   <use xlink:href="#dot" transform="translate(29.383333,-20.066667)" />   <use xlink:href="#dot" transform="translate(29.383333,-20.066667)" />   <use xlink:href="#dot" transform="translate(29.383333,-20.066667)" />   <use xlink:href="#dot" transform="translate(31.083333,-17.55)" />   <use xlink:href="#dot" transform="translate(29.383333,-20.066667)" />   <use xlink:href="#dot" transform="translate(31.083333,-17.55)" />   <use xlink:href="#dot" transform="translate(29.383333,-20.066667)" />   <use xlink:href="#dot" transform="translate(31.083333,-20.416667)" />   <use xlink:href="#dot" transform="translate(31.083333,-20.416667)" />   <use xlink:href="#dot" transform="translate(31.083333,-20.416667)" />   <use xlink:href="#dot" transform="translate(31.083333,-20.416667)" />   <use xlink:href="#dot" transform="translate(31.083333,-20.416667)" />   <use xlink:href="#dot" transform="translate(31.083333,-20.416667)" />   <use xlink:href="#dot" transform="translate(31.083333,-20.416667)" />   <use xlink:href="#dot" transform="translate(30.17781,-3.73612)" />   <use xlink:href="#dot" transform="translate(29.805,-4.1347)" />   <use xlink:href="#dot" transform="translate(29.805,-4.1347)" />   <use xlink:href="#dot" transform="translate(30.17781,-3.73612)" />   <use xlink:href="#dot" transform="translate(30.17781,-3.73612)" />   <use xlink:href="#dot" transform="translate(30.17781,-3.73612)" />   <use xlink:href="#dot" transform="translate(30.17781,-3.73612)" />   <use xlink:href="#dot" transform="translate(29.6167,-3.9511)" />   <use xlink:href="#dot" transform="translate(27.37,-24.67)" />   <use xlink:href="#dot" transform="translate(27.37,-24.67)" />   <use xlink:href="#dot" transform="translate(27.37,-24.67)" />   <use xlink:href="#dot" transform="translate(27.37,-24.67)" />   <use xlink:href="#dot" transform="translate(27.37,-24.67)" />   <use xlink:href="#dot" transform="translate(27.37,-24.67)" />   <use xlink:href="#dot" transform="translate(27.37,-24.67)" />   <use xlink:href="#dot" transform="translate(27.37,-24.67)" />   <use xlink:href="#dot" transform="translate(27.37,-24.67)" />   <use xlink:href="#dot" transform="translate(27.37,-24.67)" />   <use xlink:href="#dot" transform="translate(30.08111,-2.58755)" />   <use xlink:href="#dot" transform="translate(30.08111,-2.58755)" />   <use xlink:href="#dot" transform="translate(30.08111,-2.58755)" />   <use xlink:href="#dot" transform="translate(34.83,0.88)" />   <use xlink:href="#dot" transform="translate(34.83,0.88)" />   <use xlink:href="#dot" transform="translate(36.67,-1.4)" />   <use xlink:href="#dot" transform="translate(34.83,0.88)" />   <use xlink:href="#dot" transform="translate(34.83,0.88)" />   <use xlink:href="#dot" transform="translate(34.83,0.88)" />   <use xlink:href="#dot" transform="translate(34.83,0.88)" />   <use xlink:href="#dot" transform="translate(34.83,0.88)" />   <use xlink:href="#dot" transform="translate(34.83,0.88)" />   <use xlink:href="#dot" transform="translate(34.82,1.12)" />   <use xlink:href="#dot" transform="translate(34.82,1.12)" />   <use xlink:href="#dot" transform="translate(34.82,1.12)" />   <use xlink:href="#dot" transform="translate(34.82,1.12)" />   <use xlink:href="#dot" transform="translate(34.82,1.12)" />   <use xlink:href="#dot" transform="translate(34.82,1.12)" />   <use xlink:href="#dot" transform="translate(34.82,1.12)" />   <use xlink:href="#dot" transform="translate(34.82,1.12)" />   <use xlink:href="#dot" transform="translate(34.83,1.03)" />   <use xlink:href="#dot" transform="translate(34.83,1.03)" />   <use xlink:href="#dot" transform="translate(34.82,1.12)" />   <use xlink:href="#dot" transform="translate(34.82,1.12)" />   <use xlink:href="#dot" transform="translate(34.82,1.12)" />   <use xlink:href="#dot" transform="translate(34.82,1.12)" />   <use xlink:href="#dot" transform="translate(34.82,1.12)" />   <use xlink:href="#dot" transform="translate(34.83,1.03)" />   <use xlink:href="#dot" transform="translate(34.83,1.03)" />   <use xlink:href="#dot" transform="translate(34.83,1.03)" />   <use xlink:href="#dot" transform="translate(34.82,1.12)" />   <use xlink:href="#dot" transform="translate(34.82,1.12)" />   <use xlink:href="#dot" transform="translate(35.12,1.77)" />   <use xlink:href="#dot" transform="translate(34.82,1.12)" />   <use xlink:href="#dot" transform="translate(34.82,1.12)" />   <use xlink:href="#dot" transform="translate(34.83,1.03)" />   <use xlink:href="#dot" transform="translate(34.82,1.12)" />   <use xlink:href="#dot" transform="translate(34.83,1.03)" />   <use xlink:href="#dot" transform="translate(34.82,1.12)" />   <use xlink:href="#dot" transform="translate(34.82,1.12)" />   <use xlink:href="#dot" transform="translate(34.82,1.12)" />   <use xlink:href="#dot" transform="translate(34.82,1.12)" />   <use xlink:href="#dot" transform="translate(34.82,1.12)" />   <use xlink:href="#dot" transform="translate(34.82,1.12)" />   <use xlink:href="#dot" transform="translate(34.82,1.12)" />   <use xlink:href="#dot" transform="translate(34.82,1.12)" />   <use xlink:href="#dot" transform="translate(29.383333,-23.75)" />   <use xlink:href="#dot" transform="translate(28.73333,-15.6)" />   <use xlink:href="#dot" transform="translate(27.466667,-11.666667)" />   <use xlink:href="#dot" transform="translate(-38.066666,-2.9)" />   <use xlink:href="#dot" transform="translate(35.122688,0.89317)" />   <use xlink:href="#dot" transform="translate(35.1603,0.94983)" />   <use xlink:href="#dot" transform="translate(35.1603,0.94983)" />   <use xlink:href="#dot" transform="translate(33.8,-15.68)" />   <use xlink:href="#dot" transform="translate(33.8,-15.68)" />   <use xlink:href="#dot" transform="translate(33.8,-15.68)" />   <use xlink:href="#dot" transform="translate(33.8,-15.68)" />   <use xlink:href="#dot" transform="translate(33.8,-15.68)" />   <use xlink:href="#dot" transform="translate(33.63,-16.2)" />   <use xlink:href="#dot" transform="translate(32.98,-14.07)" />   <use xlink:href="#dot" transform="translate(32.98,-14.07)" />   <use xlink:href="#dot" transform="translate(32.98,-14.07)" />   <use xlink:href="#dot" transform="translate(32.98,-14.07)" />   <use xlink:href="#dot" transform="translate(32.98,-14.07)" />   <use xlink:href="#dot" transform="translate(33.57,-17.15)" />   <use xlink:href="#dot" transform="translate(32.98,-14.07)" />   <use xlink:href="#dot" transform="translate(32.98,-14.07)" />   <use xlink:href="#dot" transform="translate(32.98,-14.07)" />   <use xlink:href="#dot" transform="translate(31.73,-15.82)" />   <use xlink:href="#dot" transform="translate(32.98,-14.07)" />   <use xlink:href="#dot" transform="translate(32.98,-14.07)" />   <use xlink:href="#dot" transform="translate(32.98,-14.07)" />   <use xlink:href="#dot" transform="translate(32.98,-14.07)" />   <use xlink:href="#dot" transform="translate(32.98,-14.07)" />   <use xlink:href="#dot" transform="translate(35.266362,-0.137231)" />   <use xlink:href="#dot" transform="translate(39.083333,-5.11667)" />   <use xlink:href="#dot" transform="translate(35.266362,-0.137231)" />   <use xlink:href="#dot" transform="translate(39.083333,-5.11667)" />   <use xlink:href="#dot" transform="translate(39.083333,-5.11667)" />   <use xlink:href="#dot" transform="translate(39.06,-5.04)" />   <use xlink:href="#dot" transform="translate(38.63419990359,-5.1022349840411)" />   <use xlink:href="#dot" transform="translate(25.966667,-9.916667)" />   <use xlink:href="#dot" transform="translate(25.96667,-9.93335)" />   <use xlink:href="#dot" transform="translate(25.96668,-9.93334)" />   <use xlink:href="#dot" transform="translate(25.966667,-9.916667)" />   <use xlink:href="#dot" transform="translate(0.511111,-0.288889)" />   <use xlink:href="#dot" transform="translate(0.511111,-0.288889)" />   <use xlink:href="#dot" transform="translate(26.483333,-11.066667)" />   <use xlink:href="#dot" transform="translate(26.483333,-11.066667)" />   <use xlink:href="#dot" transform="translate(26.483333,-11.066667)" />   <use xlink:href="#dot" transform="translate(26.483333,-11.066667)" />   <use xlink:href="#dot" transform="translate(26.483333,-11.066667)" />   <use xlink:href="#dot" transform="translate(26.383333,-10.733333)" />   <use xlink:href="#dot" transform="translate(26.383333,-10.733333)" />   <use xlink:href="#dot" transform="translate(26.383333,-10.733333)" />   <use xlink:href="#dot" transform="translate(26.383333,-10.733333)" />   <use xlink:href="#dot" transform="translate(26.383333,-10.733333)" />   <use xlink:href="#dot" transform="translate(26.383333,-10.733333)" />   <use xlink:href="#dot" transform="translate(26.383333,-10.733333)" />   <use xlink:href="#dot" transform="translate(26.383333,-10.733333)" />   <use xlink:href="#dot" transform="translate(26.733333,-10.983333)" />   <use xlink:href="#dot" transform="translate(39.566667,-8.91667)" />   <use xlink:href="#dot" transform="translate(39.566667,-8.91667)" />   <use xlink:href="#dot" transform="translate(26.78333,-10.96667)" />   <use xlink:href="#dot" transform="translate(26.63333,-10.98333)" />   <use xlink:href="#dot" transform="translate(25.96668,-9.93334)" />   <use xlink:href="#dot" transform="translate(25.96668,-9.93334)" />   <use xlink:href="#dot" transform="translate(25.96668,-9.93334)" />   <use xlink:href="#dot" transform="translate(25.96668,-9.93334)" />   <use xlink:href="#dot" transform="translate(26.63333,-10.98333)" />   <use xlink:href="#dot" transform="translate(25.96668,-9.93334)" />   <use xlink:href="#dot" transform="translate(39.41667,-8.75)" />   <use xlink:href="#dot" transform="translate(39.41667,-8.75)" />   <use xlink:href="#dot" transform="translate(39.41667,-8.75)" />   <use xlink:href="#dot" transform="translate(27.45,-11.86667)" />   <use xlink:href="#dot" transform="translate(27.45,-11.86667)" />   <use xlink:href="#dot" transform="translate(27.45,-11.86667)" />   <use xlink:href="#dot" transform="translate(27.45,-11.86667)" />   <use xlink:href="#dot" transform="translate(27.45,-11.86667)" />   <use xlink:href="#dot" transform="translate(27.45,-11.86667)" />   <use xlink:href="#dot" transform="translate(27.45,-11.86667)" />   <use xlink:href="#dot" transform="translate(27.45,-11.86667)" />   <use xlink:href="#dot" transform="translate(32.70742,4.07496)" />   <use xlink:href="#dot" transform="translate(32.70742,4.07496)" />   <use xlink:href="#dot" transform="translate(32.70742,4.07496)" />   <use xlink:href="#dot" transform="translate(32.70742,4.07496)" />   <use xlink:href="#dot" transform="translate(32.70742,4.07496)" />   <use xlink:href="#dot" transform="translate(32.70742,4.07496)" />   <use xlink:href="#dot" transform="translate(32.70742,4.07496)" />   <use xlink:href="#dot" transform="translate(35.266667,-14.466667)" />   <use xlink:href="#dot" transform="translate(35.266667,-14.466667)" />   <use xlink:href="#dot" transform="translate(35.266667,-14.466667)" />   <use xlink:href="#dot" transform="translate(27.2,-8.933333)" />   <use xlink:href="#dot" transform="translate(27.2,-8.933333)" />   <use xlink:href="#dot" transform="translate(27.2,-8.933333)" />   <use xlink:href="#dot" transform="translate(27.2,-8.933333)" />   <use xlink:href="#dot" transform="translate(29.633333,-8.366667)" />   <use xlink:href="#dot" transform="translate(35.416667,1.2)" />   <use xlink:href="#dot" transform="translate(36.42422,-16.30581)" />   <use xlink:href="#dot" transform="translate(36.666667,-1.366667)" />   <use xlink:href="#dot" transform="translate(34.89,-6.33)" /><polygon class="region" points="27.37,-24.67 -38.066666,-2.9 8.416667,9.6 34.02931,3.81083 38.766667,-3.566667 39.083333,-5.11667 39.566667,-8.91667 36.42422,-16.30581 34.61314,-18.95467 29.383333,-23.75 27.37,-24.67 " />
		  </g>
		</svg>