<?xml version="1.0" encoding="UTF-8"?>
	<svg xmlns:xlink="http://www.w3.org/1999/xlink" 
	xmlns="http://www.w3.org/2000/svg" 
	width="360px" height="180px">
	   <style type="text/css">
		  <![CDATA[     
		  .region 
		  { 
			fill:blue; 
			opacity:0.4; 
			stroke:blue;
		  }
		  ]]>
	   </style>

	<circle id="dot" x="-2" y="-2" r="2" style="stroke:none; stroke-width:0; fill:black; opacity:0.7;"/>


	 <image x="0" y="0" width="360" height="180" xlink:href="map.jpg"/>

 
	 <g transform="translate(180,90) scale(1,-1)"><polygon class="region" points="27.430929366,-25.741605236 27.225724011,-25.75443057 27.15518467,-25.350432526 27.482785691,-24.162573807 27.743745816,-23.797229631 27.795937841,-22.753389131 27.326209616,-21.70954863 26.804289365,-18.317067003 26.33456114,-17.951722828 25.656064815,-17.012266378 24.090304064,-13.7241688 24.403456214,-12.419368174 24.455648239,-11.218951599 25.078014831,-9.692836368 27.743745816,-8.035238072 28.213474041,-7.200165672 28.944162392,-5.5822128949999 29.309506567,-0.72835456699994 29.518274667,0.31548593400004 30.196770992,2.24659086 31.449379593,3.60358351 32.441028069,4.0733117360001 34.73747717,4.0733117360001 36.355429946,5.0127681860001 37.921190697,6.839489062 38.805077479,7.281066647 39.266789529,7.2400255750001 39.707981044,6.952738077 40.918692643,6.9424778100001 40.908432375,6.685971115 39.486951448,5.743456537 38.129958798,4.282079836 37.143601725,1.794853405 37.819984893,-0.85789077699997 38.834468871,-2.500388647 39.222852553,-2.9116184279999 39.873107229,-3.1767112979999 39.943087046,-3.4663195109999 39.777946472,-3.587569236 39.873977661,-3.695162535 39.71087265,-4.0523028379999 39.659370423,-4.008306503 39.565685273,-4.0454235079999 39.676116943,-4.0903286929999 39.459278107,-4.572113037 39.196933746,-4.672625065 38.778985961,-6.033611547 37.138310322,-9.5488067979999 35.254383556,-18.999326764 34.94624527,-19.360907504 34.267748945,-19.726251679 31.292803518,-22.64900508 30.196770992,-23.223117356 28.233335866,-24.585678953 27.430929366,-25.741605236 " /><polygon class="region" points="35.397289277,-23.833417892 35.470652267,-23.888188855 35.366823507,-23.955070033 35.393447876,-23.914287568 35.397289277,-23.833417892 " /><polygon class="region" points="35.339355469,-23.934719086 35.294838173,-23.850653914 35.367690829,-23.778105432 35.355609894,-23.80046463 35.339355469,-23.934719086 " /><polygon class="region" points="39.676445008,-4.074906826 39.658241272,-4.064468384 39.653629303,-4.034358502 39.670581817,-4.0326094619999 39.676445008,-4.074906826 " /><polygon class="region" points="39.402828216,-4.6547069549999 39.405227661,-4.667805195 39.354949951,-4.6640539169999 39.365653992,-4.6540756229999 39.402828216,-4.6547069549999 " /><polygon class="region" points="39.170650482,-5.122209072 39.155818939,-5.1046037679999 39.168754578,-5.085639477 39.167507172,-5.1022152909999 39.170650482,-5.122209072 " /><polygon class="region" points="35.445949555,-23.857646942 35.436481476,-23.860177993 35.433952332,-23.842538833 35.442436218,-23.845506668 35.445949555,-23.857646942 " /><polygon class="region" points="39.139598846,-5.200275898 39.134063721,-5.204941273 39.152935028,-5.172441959 39.148998261,-5.19436121 39.139598846,-5.200275898 " /><polygon class="region" points="39.289035797,-4.665989875 39.275886536,-4.6636366839999 39.275226593,-4.6507425299999 39.289813995,-4.6613168709999 39.289035797,-4.665989875 " /><polygon class="region" points="39.427726745,-4.5486216539999 39.421367646,-4.546001911 39.436275482,-4.5348205569999 39.437641144,-4.538155079 39.427726745,-4.5486216539999 " /><polygon class="region" points="35.430122375,-23.799245834 35.42363739,-23.795358658 35.425861359,-23.787563324 35.434729697,-23.79286929 35.430122375,-23.799245834 " /><polygon class="region" points="35.426170349,-23.816204071 35.421188355,-23.816896439 35.418186188,-23.811172485 35.42615509,-23.808872223 35.426170349,-23.816204071 " /><polygon class="region" points="39.169338226,-5.014077186 39.16336441,-5.0134325029999 39.163303375,-5.005609035 39.1669693,-5.004891873 39.169338226,-5.014077186 " /><polygon class="region" points="39.11869812,-5.142844677 39.11712265,-5.1465373039999 39.113895416,-5.145181179 39.115669251,-5.140326977 39.11869812,-5.142844677 " /><polygon class="region" points="35.472560421,-23.855427121 35.471622467,-23.853944779 35.472223948,-23.853019463 35.472344939,-23.853831769 35.472560421,-23.855427121 " /><polygon class="region" points="9.387739127,7.990522196 9.297408062,8.079648579 9.3869341990001,8.1703848 9.477265264,8.0812584170001 9.387739127,7.990522196 " />
		  </g>
		</svg>