<?xml version="1.0" encoding="UTF-8"?>
	<svg xmlns:xlink="http://www.w3.org/1999/xlink" 
	xmlns="http://www.w3.org/2000/svg" 
	width="360px" height="180px">
	   <style type="text/css">
		  <![CDATA[     
		  .region 
		  { 
			fill:blue; 
			opacity:0.4; 
			stroke:blue;
		  }
		  ]]>
	   </style>

	<circle id="dot" x="-2" y="-2" r="2" style="stroke:none; stroke-width:0; fill:black; opacity:0.7;"/>


	 <image x="0" y="0" width="360" height="180" xlink:href="map.jpg"/>

 
	 <g transform="translate(180,90) scale(1,-1)">   <use xlink:href="#dot" transform="translate(-75.053867,5.810452)" />   <use xlink:href="#dot" transform="translate(-75.457477,10.455991)" />   <use xlink:href="#dot" transform="translate(-75.048544,6.378867)" />   <use xlink:href="#dot" transform="translate(-75.052902,6.260727)" />   <use xlink:href="#dot" transform="translate(-75.5,10.4)" />   <use xlink:href="#dot" transform="translate(-75.416578,10.428241)" />   <use xlink:href="#dot" transform="translate(-75.493121,10.574919)" />   <use xlink:href="#dot" transform="translate(-75.581407,10.513211)" />   <use xlink:href="#dot" transform="translate(-75.48687,10.441926)" />   <use xlink:href="#dot" transform="translate(-75.526577,10.552246)" />   <use xlink:href="#dot" transform="translate(-75.54626,10.561501)" />   <use xlink:href="#dot" transform="translate(-75.5,10.4)" />   <use xlink:href="#dot" transform="translate(-75.553965,10.577746)" />   <use xlink:href="#dot" transform="translate(-75.132063,6.375826)" />   <use xlink:href="#dot" transform="translate(-74.716958,5.506962)" />   <use xlink:href="#dot" transform="translate(-75.13075,5.53348)" />   <use xlink:href="#dot" transform="translate(-75.13582,5.52448)" />   <use xlink:href="#dot" transform="translate(-75.13118,5.5469)" />   <use xlink:href="#dot" transform="translate(-74.96217,5.5961)" />   <use xlink:href="#dot" transform="translate(-74.585141,6.025648)" />   <use xlink:href="#dot" transform="translate(-74.584598,6.029444)" />   <use xlink:href="#dot" transform="translate(-74.95798,5.59622)" />   <use xlink:href="#dot" transform="translate(-74.599135,6.042)" />   <use xlink:href="#dot" transform="translate(-74.95228,5.5951)" />   <use xlink:href="#dot" transform="translate(-74.94151,5.32791)" />   <use xlink:href="#dot" transform="translate(-74.593611,6.055233)" />   <use xlink:href="#dot" transform="translate(-74.91859,5.3299)" />   <use xlink:href="#dot" transform="translate(-74.91641,5.33519)" />   <use xlink:href="#dot" transform="translate(-74.88703,5.57417)" />   <use xlink:href="#dot" transform="translate(-74.83482,5.63868)" />   <use xlink:href="#dot" transform="translate(-74.84228,5.6298)" />   <use xlink:href="#dot" transform="translate(-74.8407,5.62592)" />   <use xlink:href="#dot" transform="translate(-74.77375,5.67634)" />   <use xlink:href="#dot" transform="translate(-74.77451,5.67239)" />   <use xlink:href="#dot" transform="translate(-74.77413,5.67566)" />   <use xlink:href="#dot" transform="translate(-74.77667,5.6754)" />   <use xlink:href="#dot" transform="translate(-74.77568,5.67188)" />   <use xlink:href="#dot" transform="translate(-74.77428,5.67784)" />   <use xlink:href="#dot" transform="translate(-75.15588,7.99304)" />   <use xlink:href="#dot" transform="translate(-74.77415,5.67791)" />   <use xlink:href="#dot" transform="translate(-74.77754,5.67012)" />   <use xlink:href="#dot" transform="translate(-74.77589,5.6762)" />   <use xlink:href="#dot" transform="translate(-74.77679,5.6776)" />   <use xlink:href="#dot" transform="translate(-74.7751,5.67201)" />   <use xlink:href="#dot" transform="translate(-74.77402,5.67702)" />   <use xlink:href="#dot" transform="translate(-74.77995,5.66819)" />   <use xlink:href="#dot" transform="translate(-74.77654,5.66996)" />   <use xlink:href="#dot" transform="translate(-74.78058,5.66805)" />   <use xlink:href="#dot" transform="translate(-74.77602,5.67883)" />   <use xlink:href="#dot" transform="translate(-74.77398,5.67784)" />   <use xlink:href="#dot" transform="translate(-74.77817,5.67121)" />   <use xlink:href="#dot" transform="translate(-74.78044,5.68439)" />   <use xlink:href="#dot" transform="translate(-74.77381,5.67618)" />   <use xlink:href="#dot" transform="translate(-74.77513,5.67598)" />   <use xlink:href="#dot" transform="translate(-74.77527,5.67122)" />   <use xlink:href="#dot" transform="translate(-74.77563,5.6718)" />   <use xlink:href="#dot" transform="translate(-74.77356,5.66987)" />   <use xlink:href="#dot" transform="translate(-74.77309,5.67075)" />   <use xlink:href="#dot" transform="translate(-74.77769,5.66794)" />   <use xlink:href="#dot" transform="translate(-74.7763,5.66456)" />   <use xlink:href="#dot" transform="translate(-74.7801,5.6842)" />   <use xlink:href="#dot" transform="translate(-74.77082,5.64269)" />   <use xlink:href="#dot" transform="translate(-74.77613,5.67345)" />   <use xlink:href="#dot" transform="translate(-74.78123,5.67989)" />   <use xlink:href="#dot" transform="translate(-74.77345,5.67453)" />   <use xlink:href="#dot" transform="translate(-74.77689,5.66931)" />   <use xlink:href="#dot" transform="translate(-74.77634,5.68234)" />   <use xlink:href="#dot" transform="translate(-74.77526,5.76207)" />   <use xlink:href="#dot" transform="translate(-74.77058,5.6687)" />   <use xlink:href="#dot" transform="translate(-74.77718,5.67783)" />   <use xlink:href="#dot" transform="translate(-74.77399,5.67096)" />   <use xlink:href="#dot" transform="translate(-74.77086,5.6711)" />   <use xlink:href="#dot" transform="translate(-74.77756,5.6754)" />   <use xlink:href="#dot" transform="translate(-74.77617,5.67061)" />   <use xlink:href="#dot" transform="translate(-74.7774,5.66234)" />   <use xlink:href="#dot" transform="translate(-74.77857,5.66722)" />   <use xlink:href="#dot" transform="translate(-74.77504,5.67647)" />   <use xlink:href="#dot" transform="translate(-74.77702,5.66895)" />   <use xlink:href="#dot" transform="translate(-74.77495,5.67799)" />   <use xlink:href="#dot" transform="translate(-74.77605,5.67014)" />   <use xlink:href="#dot" transform="translate(-74.77528,5.67124)" />   <use xlink:href="#dot" transform="translate(-74.77666,5.66893)" />   <use xlink:href="#dot" transform="translate(-74.77349,5.67101)" />   <use xlink:href="#dot" transform="translate(-74.77789,5.66734)" />   <use xlink:href="#dot" transform="translate(-74.7753,5.67657)" />   <use xlink:href="#dot" transform="translate(-74.77396,5.6761)" />   <use xlink:href="#dot" transform="translate(-74.77514,5.63937)" />   <use xlink:href="#dot" transform="translate(-74.77077,5.64277)" />   <use xlink:href="#dot" transform="translate(-74.76913,5.643)" />   <use xlink:href="#dot" transform="translate(-74.77573,5.63917)" />   <use xlink:href="#dot" transform="translate(-74.77186,5.63977)" />   <use xlink:href="#dot" transform="translate(-74.76976,5.6406)" />   <use xlink:href="#dot" transform="translate(-74.8389,5.6382)" />   <use xlink:href="#dot" transform="translate(-74.77211,5.63977)" />   <use xlink:href="#dot" transform="translate(-74.356778,7.116917)" />   <use xlink:href="#dot" transform="translate(-74.83921,5.63948)" />   <use xlink:href="#dot" transform="translate(-74.83919,5.6392)" />   <use xlink:href="#dot" transform="translate(-74.83649,5.64427)" />   <use xlink:href="#dot" transform="translate(-74.76768,5.64215)" />   <use xlink:href="#dot" transform="translate(-74.83459,5.54213)" />   <use xlink:href="#dot" transform="translate(-74.76915,5.643)" />   <use xlink:href="#dot" transform="translate(-74.352361,7.161389)" />   <use xlink:href="#dot" transform="translate(-74.83632,5.64111)" />   <use xlink:href="#dot" transform="translate(-74.76992,5.64027)" />   <use xlink:href="#dot" transform="translate(-74.7701,5.64274)" />   <use xlink:href="#dot" transform="translate(-74.76888,5.64077)" />   <use xlink:href="#dot" transform="translate(-74.77171,5.64385)" />   <use xlink:href="#dot" transform="translate(-74.83716,5.63838)" />   <use xlink:href="#dot" transform="translate(-74.76876,5.64295)" />   <use xlink:href="#dot" transform="translate(-74.77171,5.64385)" />   <use xlink:href="#dot" transform="translate(-74.83899,5.63819)" />   <use xlink:href="#dot" transform="translate(-74.76862,5.64095)" />   <use xlink:href="#dot" transform="translate(-74.83946,5.63517)" />   <use xlink:href="#dot" transform="translate(-74.77156,5.64532)" />   <use xlink:href="#dot" transform="translate(-74.640381,6.240752)" />   <use xlink:href="#dot" transform="translate(-74.35575,7.115528)" />   <use xlink:href="#dot" transform="translate(-74.76791,5.64456)" />   <use xlink:href="#dot" transform="translate(-74.836,5.6412)" />   <use xlink:href="#dot" transform="translate(-74.76865,5.64102)" />   <use xlink:href="#dot" transform="translate(-74.771,5.64264)" />   <use xlink:href="#dot" transform="translate(-74.77096,5.63835)" />   <use xlink:href="#dot" transform="translate(-74.342444,7.133528)" />   <use xlink:href="#dot" transform="translate(-74.83508,5.64218)" />   <use xlink:href="#dot" transform="translate(-74.83706,5.63834)" />   <use xlink:href="#dot" transform="translate(-74.362639,7.131778)" />   <use xlink:href="#dot" transform="translate(-74.83456,5.54203)" />   <use xlink:href="#dot" transform="translate(-74.83945,5.63569)" />   <use xlink:href="#dot" transform="translate(-74.84344,5.62553)" />   <use xlink:href="#dot" transform="translate(-74.84338,5.62567)" />   <use xlink:href="#dot" transform="translate(-74.83928,5.6355)" />   <use xlink:href="#dot" transform="translate(-74.83414,5.64224)" />   <use xlink:href="#dot" transform="translate(-74.8352,5.64292)" />   <use xlink:href="#dot" transform="translate(-74.34975,7.116417)" />   <use xlink:href="#dot" transform="translate(-74.342278,7.132778)" />   <use xlink:href="#dot" transform="translate(-74.83979,5.63653)" />   <use xlink:href="#dot" transform="translate(-74.83645,5.64431)" />   <use xlink:href="#dot" transform="translate(-74.84141,5.6388)" />   <use xlink:href="#dot" transform="translate(-74.344472,7.118806)" />   <use xlink:href="#dot" transform="translate(-74.83964,5.63895)" />   <use xlink:href="#dot" transform="translate(-74.83387,5.64174)" />   <use xlink:href="#dot" transform="translate(-74.3615,7.138778)" />   <use xlink:href="#dot" transform="translate(-74.83755,5.63723)" />   <use xlink:href="#dot" transform="translate(-74.83791,5.64123)" />   <use xlink:href="#dot" transform="translate(-74.83389,5.64157)" />   <use xlink:href="#dot" transform="translate(-74.360944,7.113278)" />   <use xlink:href="#dot" transform="translate(-74.83901,5.63842)" />   <use xlink:href="#dot" transform="translate(-74.83504,5.64117)" />   <use xlink:href="#dot" transform="translate(-74.76878,5.64557)" />   <use xlink:href="#dot" transform="translate(-74.76959,5.64437)" />   <use xlink:href="#dot" transform="translate(-74.7701,5.64069)" />   <use xlink:href="#dot" transform="translate(-74.76785,5.63451)" />   <use xlink:href="#dot" transform="translate(-74.7722,5.641)" />   <use xlink:href="#dot" transform="translate(-74.88596,5.54104)" />   <use xlink:href="#dot" transform="translate(-74.76893,5.64715)" />   <use xlink:href="#dot" transform="translate(-74.77071,5.63991)" />   <use xlink:href="#dot" transform="translate(-74.88054,5.5545)" />   <use xlink:href="#dot" transform="translate(-74.7767,5.63913)" />   <use xlink:href="#dot" transform="translate(-74.77428,5.63942)" />   <use xlink:href="#dot" transform="translate(-74.76759,5.64274)" />   <use xlink:href="#dot" transform="translate(-74.7678,5.64466)" />   <use xlink:href="#dot" transform="translate(-74.77095,5.64251)" />   <use xlink:href="#dot" transform="translate(-74.7717,5.6406)" />   <use xlink:href="#dot" transform="translate(-74.88596,5.54104)" />   <use xlink:href="#dot" transform="translate(-74.77133,5.64073)" />   <use xlink:href="#dot" transform="translate(-74.76958,5.64283)" />   <use xlink:href="#dot" transform="translate(-74.76172,5.64003)" />   <use xlink:href="#dot" transform="translate(-74.77197,5.64252)" />   <use xlink:href="#dot" transform="translate(-74.88649,5.56763)" />   <use xlink:href="#dot" transform="translate(-74.88101,5.57101)" />   <use xlink:href="#dot" transform="translate(-74.335194,7.677694)" />   <use xlink:href="#dot" transform="translate(-74.88424,5.57155)" />   <use xlink:href="#dot" transform="translate(-74.88364,5.56658)" />   <use xlink:href="#dot" transform="translate(-74.88123,5.57135)" />   <use xlink:href="#dot" transform="translate(-74.88054,5.5545)" />   <use xlink:href="#dot" transform="translate(-74.88109,5.57098)" />   <use xlink:href="#dot" transform="translate(-74.87801,5.56991)" />   <use xlink:href="#dot" transform="translate(-74.88625,5.53973)" />   <use xlink:href="#dot" transform="translate(-74.88492,5.57345)" />   <use xlink:href="#dot" transform="translate(-74.88109,5.57189)" />   <use xlink:href="#dot" transform="translate(-74.88492,5.57147)" />   <use xlink:href="#dot" transform="translate(-74.88736,5.57166)" />   <use xlink:href="#dot" transform="translate(-74.87828,5.56968)" />   <use xlink:href="#dot" transform="translate(-74.88532,5.5489)" />   <use xlink:href="#dot" transform="translate(-74.90941,5.54979)" />   <use xlink:href="#dot" transform="translate(-74.88349,5.56614)" />   <use xlink:href="#dot" transform="translate(-74.88948,5.53931)" />   <use xlink:href="#dot" transform="translate(-74.88604,5.56547)" />   <use xlink:href="#dot" transform="translate(-74.88341,5.54326)" />   <use xlink:href="#dot" transform="translate(-74.88277,5.54569)" />   <use xlink:href="#dot" transform="translate(-74.88303,5.54942)" />   <use xlink:href="#dot" transform="translate(-74.88731,5.57088)" />   <use xlink:href="#dot" transform="translate(-74.87621,5.55001)" />   <use xlink:href="#dot" transform="translate(-74.88106,5.57111)" />   <use xlink:href="#dot" transform="translate(-74.91013,5.50388)" />   <use xlink:href="#dot" transform="translate(-74.9102,5.50426)" />   <use xlink:href="#dot" transform="translate(-74.90911,5.55122)" />   <use xlink:href="#dot" transform="translate(-74.86669,5.57376)" />   <use xlink:href="#dot" transform="translate(-74.86649,5.57506)" />   <use xlink:href="#dot" transform="translate(-74.90871,5.54942)" />   <use xlink:href="#dot" transform="translate(-74.91012,5.50313)" />   <use xlink:href="#dot" transform="translate(-74.8667,5.57251)" />   <use xlink:href="#dot" transform="translate(-74.91045,5.50462)" />   <use xlink:href="#dot" transform="translate(-74.91278,5.50378)" />   <use xlink:href="#dot" transform="translate(-74.9077,5.5482)" />   <use xlink:href="#dot" transform="translate(-74.91022,5.50397)" />   <use xlink:href="#dot" transform="translate(-74.90955,5.55173)" />   <use xlink:href="#dot" transform="translate(-74.90649,5.54569)" />   <use xlink:href="#dot" transform="translate(-74.90952,5.55165)" />   <use xlink:href="#dot" transform="translate(-74.91013,5.50388)" />   <use xlink:href="#dot" transform="translate(-74.91005,5.50246)" />   <use xlink:href="#dot" transform="translate(-74.86138,5.57506)" />   <use xlink:href="#dot" transform="translate(-74.9091,5.55045)" />   <use xlink:href="#dot" transform="translate(-74.9095,5.55227)" />   <use xlink:href="#dot" transform="translate(-74.8643,5.57339)" />   <use xlink:href="#dot" transform="translate(-74.91024,5.50454)" />   <use xlink:href="#dot" transform="translate(-74.91003,5.50242)" />   <use xlink:href="#dot" transform="translate(-74.91697,5.51458)" />   <use xlink:href="#dot" transform="translate(-74.9166,5.50093)" />   <use xlink:href="#dot" transform="translate(-74.90678,5.54656)" />   <use xlink:href="#dot" transform="translate(-74.90691,5.54779)" />   <use xlink:href="#dot" transform="translate(-74.909668,5.55259)" />   <use xlink:href="#dot" transform="translate(-74.9094,5.55401)" />   <use xlink:href="#dot" transform="translate(-74.90673,5.54675)" />   <use xlink:href="#dot" transform="translate(-74.90641,5.54598)" />   <use xlink:href="#dot" transform="translate(-74.91673,5.50297)" />   <use xlink:href="#dot" transform="translate(-74.87141,5.57089)" />   <use xlink:href="#dot" transform="translate(-74.91005,5.50246)" />   <use xlink:href="#dot" transform="translate(-74.95007,5.60582)" />   <use xlink:href="#dot" transform="translate(-74.91798,5.32971)" />   <use xlink:href="#dot" transform="translate(-74.94843,5.60635)" />   <use xlink:href="#dot" transform="translate(-74.92439,5.33055)" />   <use xlink:href="#dot" transform="translate(-74.72358,5.32743)" />   <use xlink:href="#dot" transform="translate(-74.92125,5.33139)" />   <use xlink:href="#dot" transform="translate(-74.95191,5.60739)" />   <use xlink:href="#dot" transform="translate(-74.91717,5.3307)" />   <use xlink:href="#dot" transform="translate(-74.91682,5.33012)" />   <use xlink:href="#dot" transform="translate(-74.91839,5.32388)" />   <use xlink:href="#dot" transform="translate(-74.91843,5.32998)" />   <use xlink:href="#dot" transform="translate(-74.95098,5.60309)" />   <use xlink:href="#dot" transform="translate(-74.95515,5.60734)" />   <use xlink:href="#dot" transform="translate(-74.9221,5.32683)" />   <use xlink:href="#dot" transform="translate(-74.95351,5.60548)" />   <use xlink:href="#dot" transform="translate(-74.91985,5.33029)" />   <use xlink:href="#dot" transform="translate(-74.95191,5.60739)" />   <use xlink:href="#dot" transform="translate(-74.95162,5.60715)" />   <use xlink:href="#dot" transform="translate(-74.95622,5.60703)" />   <use xlink:href="#dot" transform="translate(-74.9528,5.60824)" />   <use xlink:href="#dot" transform="translate(-74.94788,5.66536)" />   <use xlink:href="#dot" transform="translate(-74.9196,5.33179)" />   <use xlink:href="#dot" transform="translate(-74.91839,5.32388)" />   <use xlink:href="#dot" transform="translate(-74.95602,5.60305)" />   <use xlink:href="#dot" transform="translate(-74.95384,5.60758)" />   <use xlink:href="#dot" transform="translate(-74.92303,5.32681)" />   <use xlink:href="#dot" transform="translate(-74.918,5.32966)" />   <use xlink:href="#dot" transform="translate(-74.92129,5.33059)" />   <use xlink:href="#dot" transform="translate(-74.92315,5.32757)" />   <use xlink:href="#dot" transform="translate(-74.94065,5.38245)" />   <use xlink:href="#dot" transform="translate(-74.92999,5.40086)" />   <use xlink:href="#dot" transform="translate(-74.93743,5.37635)" />   <use xlink:href="#dot" transform="translate(-74.93203,5.39038)" />   <use xlink:href="#dot" transform="translate(-74.94274,5.37891)" />   <use xlink:href="#dot" transform="translate(-74.92823,5.39858)" />   <use xlink:href="#dot" transform="translate(-74.93877,5.37502)" />   <use xlink:href="#dot" transform="translate(-74.9326,5.39118)" />   <use xlink:href="#dot" transform="translate(-74.93216,5.38146)" />   <use xlink:href="#dot" transform="translate(-74.93216,5.38146)" />   <use xlink:href="#dot" transform="translate(-74.93691,5.3855)" />   <use xlink:href="#dot" transform="translate(-74.93362,5.38859)" />   <use xlink:href="#dot" transform="translate(-74.92417,5.39342)" />   <use xlink:href="#dot" transform="translate(-74.93338,5.38836)" />   <use xlink:href="#dot" transform="translate(-74.93188,5.39772)" />   <use xlink:href="#dot" transform="translate(-74.9269,5.39622)" />   <use xlink:href="#dot" transform="translate(-74.92908,5.39163)" />   <use xlink:href="#dot" transform="translate(-74.94439,5.37523)" />   <use xlink:href="#dot" transform="translate(-74.92823,5.39858)" />   <use xlink:href="#dot" transform="translate(-74.93559,5.39006)" />   <use xlink:href="#dot" transform="translate(-74.92669,5.39563)" />   <use xlink:href="#dot" transform="translate(-74.92418,5.39352)" />   <use xlink:href="#dot" transform="translate(-74.92266,5.39409)" />   <use xlink:href="#dot" transform="translate(-74.92713,5.39623)" />   <use xlink:href="#dot" transform="translate(-74.93128,5.39258)" />   <use xlink:href="#dot" transform="translate(-74.93208,5.39043)" />   <use xlink:href="#dot" transform="translate(-74.92609,5.3943)" />   <use xlink:href="#dot" transform="translate(-74.92352,5.39359)" />   <use xlink:href="#dot" transform="translate(-74.93259,5.39687)" />   <use xlink:href="#dot" transform="translate(-74.92263,5.39375)" />   <use xlink:href="#dot" transform="translate(-75.12601,5.49701)" />   <use xlink:href="#dot" transform="translate(-75.13814,5.92881)" />   <use xlink:href="#dot" transform="translate(-75.5974,6.28015)" />   <use xlink:href="#dot" transform="translate(-74.859042,5.895233)" />   <use xlink:href="#dot" transform="translate(-74.901943,5.19891)" />   <use xlink:href="#dot" transform="translate(-74.886054,5.189698)" />   <use xlink:href="#dot" transform="translate(-75.19427,6.58843)" />   <use xlink:href="#dot" transform="translate(-75.18726,6.57303)" />   <use xlink:href="#dot" transform="translate(-74.99302,6.35132)" />   <use xlink:href="#dot" transform="translate(-75.00407,6.35313)" />   <use xlink:href="#dot" transform="translate(-74.78833,6.19611)" />   <use xlink:href="#dot" transform="translate(-74.80473,6.19109)" />   <use xlink:href="#dot" transform="translate(-75.5987,6.28137)" />   <use xlink:href="#dot" transform="translate(-74.845,6.22194)" /><polygon class="region" points="-75.12601,5.49701 -75.5987,6.28137 -75.581407,10.513211 -75.553965,10.577746 -75.493121,10.574919 -75.416578,10.428241 -74.335194,7.677694 -74.342278,7.132778 -74.344472,7.118806 -74.72358,5.32743 -74.886054,5.189698 -74.901943,5.19891 -75.12601,5.49701 " />
		  </g>
		</svg>