<?xml version="1.0" encoding="UTF-8"?>
	<svg xmlns:xlink="http://www.w3.org/1999/xlink" 
	xmlns="http://www.w3.org/2000/svg" 
	width="360px" height="180px">
	   <style type="text/css">
		  <![CDATA[     
		  .region 
		  { 
			fill:blue; 
			opacity:0.4; 
			stroke:blue;
		  }
		  ]]>
	   </style>

	<circle id="dot" x="-2" y="-2" r="2" style="stroke:none; stroke-width:0; fill:black; opacity:0.7;"/>


	 <image x="0" y="0" width="360" height="180" xlink:href="map.jpg"/>

 
	 <g transform="translate(180,90) scale(1,-1)">   <use xlink:href="#dot" transform="translate(-75.581617,6.089613)" />   <use xlink:href="#dot" transform="translate(-75.35219,6.134171)" />   <use xlink:href="#dot" transform="translate(-75.572967,6.199346)" />   <use xlink:href="#dot" transform="translate(-75.017622,10.747281)" />   <use xlink:href="#dot" transform="translate(-75.565284,6.327009)" />   <use xlink:href="#dot" transform="translate(-75.429861,10.354861)" />   <use xlink:href="#dot" transform="translate(-74.188351,11.117757)" />   <use xlink:href="#dot" transform="translate(-76.119349,1.72101)" />   <use xlink:href="#dot" transform="translate(-74.813647,11.027217)" />   <use xlink:href="#dot" transform="translate(-75.437773,5.07274)" />   <use xlink:href="#dot" transform="translate(-75.56522,6.326983)" />   <use xlink:href="#dot" transform="translate(-82.535883,8.84412)" />   <use xlink:href="#dot" transform="translate(-74.811383,11.026922)" />   <use xlink:href="#dot" transform="translate(-75.113672,10.845872)" />   <use xlink:href="#dot" transform="translate(-77.774098,8.381295)" />   <use xlink:href="#dot" transform="translate(-76.46361,3.94625)" />   <use xlink:href="#dot" transform="translate(-76.545139,3.89597)" />   <use xlink:href="#dot" transform="translate(-83.801552,9.564326)" />   <use xlink:href="#dot" transform="translate(-76.487903,3.911471)" />   <use xlink:href="#dot" transform="translate(-76.533333,3.934472)" />   <use xlink:href="#dot" transform="translate(-74.809992,11.027547)" />   <use xlink:href="#dot" transform="translate(-75.575976,6.189409)" />   <use xlink:href="#dot" transform="translate(-76.44225,3.8836)" />   <use xlink:href="#dot" transform="translate(-76.47431,3.92847)" />   <use xlink:href="#dot" transform="translate(-83.563891,9.832104)" />   <use xlink:href="#dot" transform="translate(-75.547056,10.422756)" />   <use xlink:href="#dot" transform="translate(-83.204553,8.699264)" />   <use xlink:href="#dot" transform="translate(-75.574444,4.036528)" />   <use xlink:href="#dot" transform="translate(-75.566972,4.05675)" />   <use xlink:href="#dot" transform="translate(-75.629056,4.019139)" />   <use xlink:href="#dot" transform="translate(-75.629167,4.039028)" />   <use xlink:href="#dot" transform="translate(-78.399695,-1.400795)" />   <use xlink:href="#dot" transform="translate(-75.689102,4.793649)" />   <use xlink:href="#dot" transform="translate(-75.586752,10.454177)" />   <use xlink:href="#dot" transform="translate(-75.584907,10.467754)" />   <use xlink:href="#dot" transform="translate(-75.580085,6.22397)" />   <use xlink:href="#dot" transform="translate(-75.5,10.4)" />   <use xlink:href="#dot" transform="translate(-75.5,10.4)" />   <use xlink:href="#dot" transform="translate(-75.546387,10.422222)" />   <use xlink:href="#dot" transform="translate(-75.573321,10.424976)" />   <use xlink:href="#dot" transform="translate(-75.543889,10.422222)" />   <use xlink:href="#dot" transform="translate(-75.463159,10.43353)" />   <use xlink:href="#dot" transform="translate(-75.547988,10.422453)" />   <use xlink:href="#dot" transform="translate(-75.463066,10.594949)" />   <use xlink:href="#dot" transform="translate(-75.5,10.4)" />   <use xlink:href="#dot" transform="translate(-75.5,10.4)" />   <use xlink:href="#dot" transform="translate(-75.5,10.4)" />   <use xlink:href="#dot" transform="translate(-75.543719,10.405365)" />   <use xlink:href="#dot" transform="translate(-82.245326,9.397973)" />   <use xlink:href="#dot" transform="translate(-75.514218,10.478764)" />   <use xlink:href="#dot" transform="translate(-75.5,10.4)" />   <use xlink:href="#dot" transform="translate(-83.807466,9.550519)" />   <use xlink:href="#dot" transform="translate(-74.116677,11.142812)" />   <use xlink:href="#dot" transform="translate(-75.683441,9.708549)" />   <use xlink:href="#dot" transform="translate(-76.544595,3.446878)" />   <use xlink:href="#dot" transform="translate(-74.186862,11.225837)" />   <use xlink:href="#dot" transform="translate(-76.49762,3.457231)" />   <use xlink:href="#dot" transform="translate(-75.562146,6.327866)" />   <use xlink:href="#dot" transform="translate(-74.186862,11.225837)" />   <use xlink:href="#dot" transform="translate(-74.200287,11.245756)" />   <use xlink:href="#dot" transform="translate(-75.562887,6.327311)" />   <use xlink:href="#dot" transform="translate(-84.798789,10.282439)" />   <use xlink:href="#dot" transform="translate(-75.56272,6.327516)" />   <use xlink:href="#dot" transform="translate(-75.566583,6.326686)" />   <use xlink:href="#dot" transform="translate(-75.561564,6.324271)" />   <use xlink:href="#dot" transform="translate(-83.306717,8.527226)" />   <use xlink:href="#dot" transform="translate(-80.13912,8.621442)" />   <use xlink:href="#dot" transform="translate(-83.563,9.8303)" />   <use xlink:href="#dot" transform="translate(-83.8509,9.644)" />   <use xlink:href="#dot" transform="translate(-75.537524,6.338745)" />   <use xlink:href="#dot" transform="translate(-79.693092,9.120678)" />   <use xlink:href="#dot" transform="translate(-74.071991,11.100999)" />   <use xlink:href="#dot" transform="translate(-75.546889,10.422305)" />   <use xlink:href="#dot" transform="translate(-75.202236,4.416778)" />   <use xlink:href="#dot" transform="translate(-75.533624,6.338524)" />   <use xlink:href="#dot" transform="translate(-79.846583,9.157395)" />   <use xlink:href="#dot" transform="translate(-75.577721,4.728652)" />   <use xlink:href="#dot" transform="translate(-76.616982,3.537237)" />   <use xlink:href="#dot" transform="translate(-76.347687,3.865625)" />   <use xlink:href="#dot" transform="translate(39.425488,-4.192562)" />   <use xlink:href="#dot" transform="translate(-60.595993,11.287495)" />   <use xlink:href="#dot" transform="translate(-60.529368,11.307231)" />   <use xlink:href="#dot" transform="translate(-79.756554,9.177382)" />   <use xlink:href="#dot" transform="translate(-75.534109,6.338577)" />   <use xlink:href="#dot" transform="translate(-75.53751,6.338987)" />   <use xlink:href="#dot" transform="translate(-75.428048,10.354531)" />   <use xlink:href="#dot" transform="translate(-74.305341,4.605171)" />   <use xlink:href="#dot" transform="translate(-75.022469,10.748128)" />   <use xlink:href="#dot" transform="translate(-73.128842,6.550821)" />   <use xlink:href="#dot" transform="translate(-83.286007,8.401419)" />   <use xlink:href="#dot" transform="translate(-75.537449,6.339027)" />   <use xlink:href="#dot" transform="translate(-84.236615,10.197605)" />   <use xlink:href="#dot" transform="translate(-78.775198,-0.048717)" />   <use xlink:href="#dot" transform="translate(-75.415789,6.409749)" />   <use xlink:href="#dot" transform="translate(-75.537518,6.338918)" />   <use xlink:href="#dot" transform="translate(-68.254486,10.282892)" />   <use xlink:href="#dot" transform="translate(-68.232605,10.286925)" />   <use xlink:href="#dot" transform="translate(-68.085022,8.933913)" />   <use xlink:href="#dot" transform="translate(-73.830222,9.231562)" />   <use xlink:href="#dot" transform="translate(-68.232605,10.286925)" />   <use xlink:href="#dot" transform="translate(-75.537282,6.338934)" />   <use xlink:href="#dot" transform="translate(-83.799408,9.587797)" />   <use xlink:href="#dot" transform="translate(-75.56359,6.25184)" />   <use xlink:href="#dot" transform="translate(-75.537626,6.339579)" />   <use xlink:href="#dot" transform="translate(-60.529858,11.307267)" />   <use xlink:href="#dot" transform="translate(-75.53717,6.338809)" />   <use xlink:href="#dot" transform="translate(-73.769354,11.26271)" />   <use xlink:href="#dot" transform="translate(-83.062904,9.822504)" />   <use xlink:href="#dot" transform="translate(-75.537525,6.338609)" />   <use xlink:href="#dot" transform="translate(-82.61723,8.900675)" />   <use xlink:href="#dot" transform="translate(-79.723814,9.137648)" />   <use xlink:href="#dot" transform="translate(-84.163427,10.118527)" />   <use xlink:href="#dot" transform="translate(-84.161634,10.203529)" />   <use xlink:href="#dot" transform="translate(-82.862709,9.748034)" />   <use xlink:href="#dot" transform="translate(-82.817688,9.737482)" />   <use xlink:href="#dot" transform="translate(-70.502617,8.825303)" />   <use xlink:href="#dot" transform="translate(-76.014404,5.786456)" />   <use xlink:href="#dot" transform="translate(-77.40719,6.226227)" />   <use xlink:href="#dot" transform="translate(-80.129289,8.610802)" />   <use xlink:href="#dot" transform="translate(-75.537432,6.338849)" />   <use xlink:href="#dot" transform="translate(-84.230556,10.197778)" />   <use xlink:href="#dot" transform="translate(-84.46093,10.427894)" />   <use xlink:href="#dot" transform="translate(-79.70103,9.121582)" />   <use xlink:href="#dot" transform="translate(-74.33313,4.58351)" />   <use xlink:href="#dot" transform="translate(-76.8201,8.5381)" />   <use xlink:href="#dot" transform="translate(-76.81599,8.57284)" />   <use xlink:href="#dot" transform="translate(-76.85709,8.61304)" />   <use xlink:href="#dot" transform="translate(-77.11842,8.34762)" />   <use xlink:href="#dot" transform="translate(-77.11072,8.35249)" />   <use xlink:href="#dot" transform="translate(-77.36155,8.65202)" />   <use xlink:href="#dot" transform="translate(-74.35115,4.59109)" />   <use xlink:href="#dot" transform="translate(-67.406134,10.214462)" />   <use xlink:href="#dot" transform="translate(-74.35115,4.59109)" />   <use xlink:href="#dot" transform="translate(-75.537749,6.338892)" />   <use xlink:href="#dot" transform="translate(-75.537837,6.339318)" />   <use xlink:href="#dot" transform="translate(-84.004044,10.446455)" />   <use xlink:href="#dot" transform="translate(-76.104944,3.524472)" />   <use xlink:href="#dot" transform="translate(-76.108306,3.525333)" />   <use xlink:href="#dot" transform="translate(-76.107722,3.525667)" />   <use xlink:href="#dot" transform="translate(-84.225492,10.18781)" />   <use xlink:href="#dot" transform="translate(-70.070389,6.819)" />   <use xlink:href="#dot" transform="translate(-79.724719,9.132938)" />   <use xlink:href="#dot" transform="translate(-70.069194,6.811389)" />   <use xlink:href="#dot" transform="translate(-70.023611,6.783083)" />   <use xlink:href="#dot" transform="translate(-68.254486,10.282892)" />   <use xlink:href="#dot" transform="translate(-68.254486,10.282892)" />   <use xlink:href="#dot" transform="translate(-68.254486,10.282892)" />   <use xlink:href="#dot" transform="translate(-68.254486,10.282892)" />   <use xlink:href="#dot" transform="translate(-73.405498,4.756027)" />   <use xlink:href="#dot" transform="translate(-83.528023,8.444865)" />   <use xlink:href="#dot" transform="translate(-84.229697,10.18443)" />   <use xlink:href="#dot" transform="translate(-83.589821,8.480183)" />   <use xlink:href="#dot" transform="translate(-83.257828,8.658924)" />   <use xlink:href="#dot" transform="translate(-72.8,8.083333)" />   <use xlink:href="#dot" transform="translate(-84.228787,10.186645)" />   <use xlink:href="#dot" transform="translate(-76.712361,3.58575)" />   <use xlink:href="#dot" transform="translate(-76.531889,3.780833)" />   <use xlink:href="#dot" transform="translate(-76.089778,3.67575)" />   <use xlink:href="#dot" transform="translate(-76.076722,3.6675)" />   <use xlink:href="#dot" transform="translate(-76.0669,3.703)" />   <use xlink:href="#dot" transform="translate(-76.50456,3.76298)" />   <use xlink:href="#dot" transform="translate(-76.076472,3.7405)" />   <use xlink:href="#dot" transform="translate(-76.085472,3.725361)" />   <use xlink:href="#dot" transform="translate(-76.067,3.72075)" />   <use xlink:href="#dot" transform="translate(-76.087639,3.661222)" />   <use xlink:href="#dot" transform="translate(-76.084778,3.686556)" />   <use xlink:href="#dot" transform="translate(-76.067056,3.658959)" />   <use xlink:href="#dot" transform="translate(-83.203369,8.699969)" />   <use xlink:href="#dot" transform="translate(-74.308176,4.611545)" />   <use xlink:href="#dot" transform="translate(-73.772222,7.498889)" />   <use xlink:href="#dot" transform="translate(-76.53008,3.31546)" />   <use xlink:href="#dot" transform="translate(-82.612711,9.60681)" />   <use xlink:href="#dot" transform="translate(-82.660497,9.629895)" />   <use xlink:href="#dot" transform="translate(-79.37718,9.22683)" />   <use xlink:href="#dot" transform="translate(-82.753769,9.655817)" />   <use xlink:href="#dot" transform="translate(-78.909302,0.035534)" />   <use xlink:href="#dot" transform="translate(-78.909302,0.035534)" />   <use xlink:href="#dot" transform="translate(-79.240784,0.104628)" />   <use xlink:href="#dot" transform="translate(-78.766479,-0.06669)" />   <use xlink:href="#dot" transform="translate(-83.401471,8.520629)" />   <use xlink:href="#dot" transform="translate(-83.562324,9.831471)" />   <use xlink:href="#dot" transform="translate(-76.297558,3.97735)" />   <use xlink:href="#dot" transform="translate(-76.20609,4.28844)" />   <use xlink:href="#dot" transform="translate(-76.25015,4.18362)" />   <use xlink:href="#dot" transform="translate(-76.16107,4.30684)" />   <use xlink:href="#dot" transform="translate(-76.46412,3.57695)" />   <use xlink:href="#dot" transform="translate(-76.45863,3.60408)" />   <use xlink:href="#dot" transform="translate(-76.23898,4.1502)" />   <use xlink:href="#dot" transform="translate(-73.10852,4.08893)" />   <use xlink:href="#dot" transform="translate(-76.162743,3.609983)" />   <use xlink:href="#dot" transform="translate(-75.180924,6.229374)" />   <use xlink:href="#dot" transform="translate(-76.090839,3.662327)" />   <use xlink:href="#dot" transform="translate(-75.563332,6.270626)" />   <use xlink:href="#dot" transform="translate(-76.382286,3.835819)" />   <use xlink:href="#dot" transform="translate(-76.29669,3.98474)" />   <use xlink:href="#dot" transform="translate(-76.2303,4.23041)" />   <use xlink:href="#dot" transform="translate(-79.990768,9.203782)" />   <use xlink:href="#dot" transform="translate(-82.572815,8.86667)" />   <use xlink:href="#dot" transform="translate(-79.726067,9.134809)" />   <use xlink:href="#dot" transform="translate(-74.839361,6.215611)" />   <use xlink:href="#dot" transform="translate(-75.034833,6.380528)" />   <use xlink:href="#dot" transform="translate(-83.808002,9.550119)" />   <use xlink:href="#dot" transform="translate(-74.839361,6.215611)" />   <use xlink:href="#dot" transform="translate(-74.021667,6.371333)" />   <use xlink:href="#dot" transform="translate(-74.870944,6.244139)" />   <use xlink:href="#dot" transform="translate(-76.563412,3.120677)" />   <use xlink:href="#dot" transform="translate(-76.39245,3.775681)" />   <use xlink:href="#dot" transform="translate(-76.3239,3.469658)" />   <use xlink:href="#dot" transform="translate(-75.008111,6.352028)" />   <use xlink:href="#dot" transform="translate(-74.839056,6.218611)" />   <use xlink:href="#dot" transform="translate(-76.173375,7.47211)" />   <use xlink:href="#dot" transform="translate(-75.035667,6.388722)" />   <use xlink:href="#dot" transform="translate(-74.847778,6.206722)" />   <use xlink:href="#dot" transform="translate(-74.847778,6.224778)" />   <use xlink:href="#dot" transform="translate(-74.809167,6.19325)" />   <use xlink:href="#dot" transform="translate(-74.847778,6.206722)" />   <use xlink:href="#dot" transform="translate(-74.847778,6.206722)" />   <use xlink:href="#dot" transform="translate(-75.040639,6.375)" />   <use xlink:href="#dot" transform="translate(-75.016806,6.371861)" />   <use xlink:href="#dot" transform="translate(-84.168572,10.223387)" />   <use xlink:href="#dot" transform="translate(-84.230556,10.197778)" />   <use xlink:href="#dot" transform="translate(-75.994572,8.090794)" />   <use xlink:href="#dot" transform="translate(-74.889472,5.553972)" />   <use xlink:href="#dot" transform="translate(-74.868778,5.577306)" />   <use xlink:href="#dot" transform="translate(-74.868778,5.577306)" />   <use xlink:href="#dot" transform="translate(-74.889472,5.553972)" />   <use xlink:href="#dot" transform="translate(-74.883333,5.556083)" />   <use xlink:href="#dot" transform="translate(-74.889472,5.553972)" />   <use xlink:href="#dot" transform="translate(-75.004889,6.351861)" />   <use xlink:href="#dot" transform="translate(-75.120944,6.410333)" />   <use xlink:href="#dot" transform="translate(-75.020611,6.404361)" />   <use xlink:href="#dot" transform="translate(-74.996278,6.363194)" />   <use xlink:href="#dot" transform="translate(-74.868778,5.577306)" />   <use xlink:href="#dot" transform="translate(-74.836944,6.203472)" />   <use xlink:href="#dot" transform="translate(-75.043694,6.367778)" />   <use xlink:href="#dot" transform="translate(-74.847528,6.219417)" />   <use xlink:href="#dot" transform="translate(-74.847528,6.219417)" />   <use xlink:href="#dot" transform="translate(-74.836944,6.203472)" />   <use xlink:href="#dot" transform="translate(-75.043694,6.367778)" />   <use xlink:href="#dot" transform="translate(-74.835778,6.218083)" />   <use xlink:href="#dot" transform="translate(-74.833375,6.215083)" />   <use xlink:href="#dot" transform="translate(-74.802528,6.196611)" />   <use xlink:href="#dot" transform="translate(-74.833375,6.215083)" />   <use xlink:href="#dot" transform="translate(-74.889556,5.575833)" />   <use xlink:href="#dot" transform="translate(-74.895861,5.570611)" />   <use xlink:href="#dot" transform="translate(-74.895861,5.570611)" />   <use xlink:href="#dot" transform="translate(-74.889556,5.575833)" />   <use xlink:href="#dot" transform="translate(-75.043694,6.367778)" />   <use xlink:href="#dot" transform="translate(-74.895861,5.570611)" />   <use xlink:href="#dot" transform="translate(-74.895861,5.570611)" />   <use xlink:href="#dot" transform="translate(-74.836944,6.203472)" />   <use xlink:href="#dot" transform="translate(-74.813417,6.208583)" />   <use xlink:href="#dot" transform="translate(-74.920806,5.505639)" />   <use xlink:href="#dot" transform="translate(-74.870944,6.244139)" />   <use xlink:href="#dot" transform="translate(-74.822361,6.208028)" />   <use xlink:href="#dot" transform="translate(-75.020611,6.404361)" />   <use xlink:href="#dot" transform="translate(-74.996278,6.363194)" />   <use xlink:href="#dot" transform="translate(-82.817688,9.737482)" />   <use xlink:href="#dot" transform="translate(-66.93,10.55)" />   <use xlink:href="#dot" transform="translate(-84.814463015279,10.311037704612)" />   <use xlink:href="#dot" transform="translate(-84.814462015262,10.311040704457)" />   <use xlink:href="#dot" transform="translate(-74.7044,4.28849)" />   <use xlink:href="#dot" transform="translate(-74.7089,4.29038)" />   <use xlink:href="#dot" transform="translate(-80.717,-1.567)" />   <use xlink:href="#dot" transform="translate(-79.85,-0.617)" />   <use xlink:href="#dot" transform="translate(-80.717,-1.567)" />   <use xlink:href="#dot" transform="translate(-79.85,-0.617)" />   <use xlink:href="#dot" transform="translate(-79.617,-0.9)" />   <use xlink:href="#dot" transform="translate(-80.033,-2.167)" />   <use xlink:href="#dot" transform="translate(-79.35,-2.567)" />   <use xlink:href="#dot" transform="translate(-79.35,-2.567)" />   <use xlink:href="#dot" transform="translate(-79.583333,-1.333333)" />   <use xlink:href="#dot" transform="translate(-79.583333,-1.333333)" />   <use xlink:href="#dot" transform="translate(-79.583,-1.333)" />   <use xlink:href="#dot" transform="translate(-79.967,-0.033)" />   <use xlink:href="#dot" transform="translate(-79.967,-0.033)" />   <use xlink:href="#dot" transform="translate(-79.583333,-1.333333)" />   <use xlink:href="#dot" transform="translate(-80.033,-2.167)" />   <use xlink:href="#dot" transform="translate(-79.583,-1.333)" />   <use xlink:href="#dot" transform="translate(-67.583333,10.333333)" />   <use xlink:href="#dot" transform="translate(-84.814463015279,10.311037704612)" />   <use xlink:href="#dot" transform="translate(-84.814463015279,10.311037704612)" />   <use xlink:href="#dot" transform="translate(-85.1,10.73333)" />   <use xlink:href="#dot" transform="translate(-85.168420423241,10.825088924009)" />   <use xlink:href="#dot" transform="translate(-84.11667,10.05904)" />   <use xlink:href="#dot" transform="translate(-85.38333,10.88333)" />   <use xlink:href="#dot" transform="translate(-72.814756,6.335317)" />   <use xlink:href="#dot" transform="translate(-72.81212,6.334852)" />   <use xlink:href="#dot" transform="translate(-73.1985,6.10858)" />   <use xlink:href="#dot" transform="translate(-60.55,11.3)" />   <use xlink:href="#dot" transform="translate(-73.1985,6.10858)" />   <use xlink:href="#dot" transform="translate(-53.2015230603,3.6304660225639)" />   <use xlink:href="#dot" transform="translate(-53.215715292649,3.618214691971)" />   <use xlink:href="#dot" transform="translate(-53.215715292649,3.618214691971)" />   <use xlink:href="#dot" transform="translate(-67.433327,8.52647)" />   <use xlink:href="#dot" transform="translate(-82.7458,8.8583)" />   <use xlink:href="#dot" transform="translate(-75.98011,1.797136)" />   <use xlink:href="#dot" transform="translate(-72.8072,6.30333)" />   <use xlink:href="#dot" transform="translate(-72.994631,4.26686)" />   <use xlink:href="#dot" transform="translate(-82.72,8.9083)" /><polygon class="region" points="-80.717,-1.567 -85.38333,10.88333 -73.769354,11.26271 -60.529858,11.307267 -60.529368,11.307231 39.425488,-4.192562 -79.35,-2.567 -80.033,-2.167 -80.717,-1.567 " />
		  </g>
		</svg>