<?xml version="1.0" encoding="UTF-8"?>
	<svg xmlns:xlink="http://www.w3.org/1999/xlink" 
	xmlns="http://www.w3.org/2000/svg" 
	width="360px" height="180px">
	   <style type="text/css">
		  <![CDATA[     
		  .region 
		  { 
			fill:blue; 
			opacity:0.4; 
			stroke:blue;
		  }
		  ]]>
	   </style>

	<circle id="dot" x="-2" y="-2" r="2" style="stroke:none; stroke-width:0; fill:black; opacity:0.7;"/>


	 <image x="0" y="0" width="360" height="180" xlink:href="map.jpg"/>

 
	 <g transform="translate(180,90) scale(1,-1)"><polygon class="region" points="-72.577522278,11.594711304 -71.608978271,10.991976738 -71.793998719,11.013867378 -71.577781678,10.707633019 -71.627090454,10.444113732 -72.128929138,9.813949585 -71.997627259,9.446594238 -71.717132569,9.392798424 -71.821510315,9.2325878140001 -71.608390808,9.040678024 -71.061203003,9.319376945 -71.023345948,9.715961457 -71.538116455,10.554280281 -71.497207642,10.956410408 -69.276397705,11.534858703 -68.401298523,11.185581207 -68.129669189,10.48546791 -66.232131958,10.644863129 -65.812728882,10.219971657 -65.091209412,10.043319703 -64.180999756,10.473110199 -63.81822586,10.437949181 -63.641838073,10.488924027 -64.228935241,10.500799179 -64.262718201,10.66255188 -61.843589783,10.739473343 -62.33939743,10.53292942 -62.665859223,10.57313633 -62.903800964,10.521068573 -62.488655091,10.166147232 -62.395648957,9.4138469700001 -63.39812088,8.498363495 -65.492347717,8.644294739 -66.398429871,8.2340364460001 -67.995422364,7.8975090980001 -68.859024048,7.9601240160001 -70.154891968,8.365652084 -70.500190735,8.289694786 -70.962333679,7.656630039 -71.588973999,7.352536201 -71.608650208,6.0630869870001 -71.963890076,5.4176201820001 -73.763648987,3.5226235390001 -74.551055908,3.1555998330001 -75.488426208,2.014610052 -76.275932312,1.71205616 -77.053024292,1.667406439 -77.279441833,1.494999289 -77.47303009,1.0218006370001 -78.485939026,-0.13009726999996 -78.754753113,-0.82910358899994 -78.742996216,-1.4737819439999 -79.130584717,-2.140807867 -79.724583385,-2.514760119 -79.844337464,-2.30714941 -79.915527344,-2.5946998599999 -79.927261353,-2.4076960089999 -80.03578186,-2.499899388 -79.909217835,-2.301259995 -79.962944031,-2.313097953 -80.303955079,-2.7188684939999 -81.007003784,-2.189332008 -80.732391358,-2.03872919 -80.849571228,-1.602453232 -80.736961365,-1.3555101159999 -80.908081055,-1.054828524 -80.565895081,-0.90865987599995 -80.4272995,-0.59828013199996 -80.382766724,-0.66018700599994 -80.301338196,-0.65260112299995 -80.488044739,-0.37971818399995 -80.042701721,0.10853705500006 -80.059722901,0.80578744400003 -79.006263732,1.1692596670001 -78.775764466,1.407844186 -79.034332275,1.5908664460001 -78.974960327,1.72097683 -78.545761108,1.804760694 -78.680503845,2.16592884 -78.516609192,2.492091417 -78.167839051,2.6921145920001 -77.797691345,2.6468863490001 -77.592094421,2.833679676 -77.697967529,2.892454624 -77.671569824,3.0535836220001 -77.142181397,3.641215324 -77.002510071,3.911570549 -77.232002716,3.8356872680001 -76.636474609,4.633937836 -76.540992737,5.751628876 -76.703475952,6.1381020540001 -77.527122497,6.6443486210001 -77.687477112,7.051447868 -78.297065735,7.689890862 -78.445174262,8.072050115 -78.282134124,8.0810679030001 -78.159842791,8.4108789650001 -78.018539429,8.229669571 -77.876160011,8.214183744 -77.843003158,8.1519700220001 -77.792526245,8.1100759500001 -77.771972656,8.099424362 -77.753204346,8.1135540010001 -78.087226411,8.4709453610001 -78.248703726,8.379602665 -78.210220035,8.4286088710001 -78.216453213,8.534200524 -78.33929443,8.412121773 -78.413978577,8.560509681 -78.419769159,8.3484850190001 -78.621047973,8.770121574 -79.035041809,8.9996595380001 -79.719352722,8.9067869190001 -79.75356381,8.59318742 -80.483649991,8.204997979 -80.001045343,7.4628185510001 -80.887114437,7.2031412580001 -81.053131103,7.9236855500001 -81.236259212,7.890203457 -81.23303174,7.605316681 -81.579429626,7.7613649370001 -81.751754761,8.198595047 -82.164962475,8.1629153060001 -82.209685957,8.3815126640001 -82.834129189,8.2939711380001 -82.875542071,8.025040749 -83.177825928,8.636666298 -83.487785339,8.706521034 -83.294975792,8.371211084 -83.59265937,8.456105382 -83.743629246,8.6116724550001 -83.487884378,8.855813955 -83.904899597,9.2837476730001 -84.679847298,9.6479959440001 -85.144586095,10.604854899 -85.099883483,10.864130048 -84.617095276,11.025059451 -84.125366546,10.774724824 -83.609411451,10.842788174 -83.279770337,10.18317132 -82.343643189,9.4288587570001 -82.398407109,9.2629193820001 -82.175247405,9.1939125710001 -82.268791776,9.0107030250001 -82.086303542,8.920201293 -81.781959768,8.9477730470001 -81.889343627,9.187259721 -81.515686344,8.799556781 -81.087112427,8.8044433600001 -79.805854797,9.3746318820001 -79.541076106,9.637513848 -78.561690971,9.442838468 -77.357292175,8.686544418 -76.841651916,8.1355514530001 -76.931556702,7.9368290900001 -76.808914184,7.901226997 -76.765045166,8.396164894 -76.936614991,8.5528974540001 -76.337020874,8.9235992430001 -76.089408874,9.333804131 -75.623199463,9.409775734 -75.568023681,9.619338989 -75.699874878,9.703838348 -75.516304016,10.239344597 -75.688400269,10.131695747 -75.698829651,10.146650314 -75.259002685,10.805981636 -74.861083985,11.112973214 -74.295280456,10.992257119 -74.106124878,11.351082801 -73.345458984,11.27011776 -72.7423213,11.694093352 -72.577522278,11.594711304 " /><polygon class="region" points="-60.996021271,10.834197044 -60.994503022,10.130700112 -61.923770904,10.045223236 -61.455841065,10.29669857 -61.49187851,10.638806343 -61.663375855,10.713308334 -60.996021271,10.834197044 " /><polygon class="region" points="-60.517932892,11.316114425 -60.531917572,11.246127128 -60.839805603,11.139965058 -60.694583893,11.28273964 -60.517932892,11.316114425 " />
		  </g>
		</svg>