<?xml version="1.0" encoding="UTF-8"?>
	<svg xmlns:xlink="http://www.w3.org/1999/xlink" 
	xmlns="http://www.w3.org/2000/svg" 
	width="360px" height="180px">
	   <style type="text/css">
		  <![CDATA[     
		  .region 
		  { 
			fill:blue; 
			opacity:0.4; 
			stroke:blue;
		  }
		  ]]>
	   </style>

	<circle id="dot" x="-2" y="-2" r="2" style="stroke:none; stroke-width:0; fill:black; opacity:0.7;"/>


	 <image x="0" y="0" width="360" height="180" xlink:href="map.jpg"/>

 
	 <g transform="translate(180,90) scale(1,-1)">   <use xlink:href="#dot" transform="translate(116.15,-33.5833)" />   <use xlink:href="#dot" transform="translate(116.15,-33.5833)" />   <use xlink:href="#dot" transform="translate(118,-33.933333)" />   <use xlink:href="#dot" transform="translate(117.9,-34.933333)" />   <use xlink:href="#dot" transform="translate(115.966667,-33.533333)" />   <use xlink:href="#dot" transform="translate(116.172778,-33.188889)" />   <use xlink:href="#dot" transform="translate(117.483333,-33.983333)" />   <use xlink:href="#dot" transform="translate(117.633333,-34.033333)" />   <use xlink:href="#dot" transform="translate(117.633333,-34.033333)" />   <use xlink:href="#dot" transform="translate(116.244167,-31.45)" />   <use xlink:href="#dot" transform="translate(121.000556,-33.158333)" />   <use xlink:href="#dot" transform="translate(115.461111,-30.5)" />   <use xlink:href="#dot" transform="translate(116.972222,-32.776389)" />   <use xlink:href="#dot" transform="translate(116.330556,-33.152778)" />   <use xlink:href="#dot" transform="translate(115.991389,-33.213889)" />   <use xlink:href="#dot" transform="translate(116.633333,-31.902778)" />   <use xlink:href="#dot" transform="translate(116.640556,-32.151944)" />   <use xlink:href="#dot" transform="translate(121.411944,-32.820833)" />   <use xlink:href="#dot" transform="translate(119.081667,-33.677222)" />   <use xlink:href="#dot" transform="translate(116.366667,-31.766667)" />   <use xlink:href="#dot" transform="translate(117.95,-34.4)" />   <use xlink:href="#dot" transform="translate(116.883333,-32.466667)" />   <use xlink:href="#dot" transform="translate(119.752778,-32.383333)" />   <use xlink:href="#dot" transform="translate(119.85,-31.583333)" />   <use xlink:href="#dot" transform="translate(115.866667,-33.616667)" />   <use xlink:href="#dot" transform="translate(116.633333,-31.902778)" />   <use xlink:href="#dot" transform="translate(116.972222,-32.776389)" />   <use xlink:href="#dot" transform="translate(119.370556,-32.6425)" />   <use xlink:href="#dot" transform="translate(117.183333,-32.933333)" />   <use xlink:href="#dot" transform="translate(116.244167,-31.45)" />   <use xlink:href="#dot" transform="translate(116.591667,-31.877778)" />   <use xlink:href="#dot" transform="translate(119.370556,-32.6425)" />   <use xlink:href="#dot" transform="translate(116.972222,-32.776389)" />   <use xlink:href="#dot" transform="translate(119.033333,-32.816667)" />   <use xlink:href="#dot" transform="translate(117.280556,-32.541111)" />   <use xlink:href="#dot" transform="translate(118.995278,-32.630833)" />   <use xlink:href="#dot" transform="translate(116.883333,-32.466667)" />   <use xlink:href="#dot" transform="translate(118.066667,-34.533333)" />   <use xlink:href="#dot" transform="translate(119.743056,-32.391667)" />   <use xlink:href="#dot" transform="translate(117.021944,-31.993056)" />   <use xlink:href="#dot" transform="translate(118.986667,-32.644444)" />   <use xlink:href="#dot" transform="translate(116.244167,-31.45)" />   <use xlink:href="#dot" transform="translate(116.952222,-32.769167)" />   <use xlink:href="#dot" transform="translate(116.949167,-32.781389)" />   <use xlink:href="#dot" transform="translate(117.483333,-33.983333)" />   <use xlink:href="#dot" transform="translate(115.0667,-33.95)" />   <use xlink:href="#dot" transform="translate(115.45,-33.8)" />   <use xlink:href="#dot" transform="translate(115.966667,-33.783333)" />   <use xlink:href="#dot" transform="translate(121.000556,-33.158333)" />   <use xlink:href="#dot" transform="translate(117.633333,-34.033333)" />   <use xlink:href="#dot" transform="translate(116.945278,-32.753333)" />   <use xlink:href="#dot" transform="translate(115.094444,-34.275)" />   <use xlink:href="#dot" transform="translate(118.233333,-32.983333)" />   <use xlink:href="#dot" transform="translate(117.483333,-33.983333)" />   <use xlink:href="#dot" transform="translate(117.334722,-32.554722)" />   <use xlink:href="#dot" transform="translate(119.991389,-33.041944)" />   <use xlink:href="#dot" transform="translate(116.833333,-32.666667)" />   <use xlink:href="#dot" transform="translate(116.972222,-32.776389)" />   <use xlink:href="#dot" transform="translate(121.766667,-30.75)" />   <use xlink:href="#dot" transform="translate(117.083333,-32.533333)" />   <use xlink:href="#dot" transform="translate(118.633333,-30.916667)" />   <use xlink:href="#dot" transform="translate(121.235,-33.475)" />   <use xlink:href="#dot" transform="translate(116.1,-31.366667)" />   <use xlink:href="#dot" transform="translate(117.633,-34.033)" />   <use xlink:href="#dot" transform="translate(118.995278,-32.630833)" />   <use xlink:href="#dot" transform="translate(116,-32.166667)" />   <use xlink:href="#dot" transform="translate(116.833333,-32.666667)" />   <use xlink:href="#dot" transform="translate(116.966667,-32.783333)" />   <use xlink:href="#dot" transform="translate(117.633,-34.033)" />   <use xlink:href="#dot" transform="translate(116.316667,-32.833333)" />   <use xlink:href="#dot" transform="translate(116.940278,-32.743333)" />   <use xlink:href="#dot" transform="translate(117.334722,-32.554722)" />   <use xlink:href="#dot" transform="translate(117.375,-32.75)" />   <use xlink:href="#dot" transform="translate(117.633,-34.033)" />   <use xlink:href="#dot" transform="translate(117.15,-33.833333)" />   <use xlink:href="#dot" transform="translate(116.345833,-32.983333)" />   <use xlink:href="#dot" transform="translate(118.125,-34.075)" />   <use xlink:href="#dot" transform="translate(116.889722,-32.810833)" />   <use xlink:href="#dot" transform="translate(117.021944,-31.993056)" />   <use xlink:href="#dot" transform="translate(117.319722,-32.534444)" />   <use xlink:href="#dot" transform="translate(121.25,-30.021111)" />   <use xlink:href="#dot" transform="translate(118.986667,-32.644444)" />   <use xlink:href="#dot" transform="translate(117.021944,-31.993056)" />   <use xlink:href="#dot" transform="translate(117.021944,-31.993056)" />   <use xlink:href="#dot" transform="translate(115.533333,-33.866667)" />   <use xlink:href="#dot" transform="translate(119.743056,-32.391667)" />   <use xlink:href="#dot" transform="translate(116.9,-32.466667)" />   <use xlink:href="#dot" transform="translate(117.333333,-34.083333)" />   <use xlink:href="#dot" transform="translate(117.333333,-32.55)" />   <use xlink:href="#dot" transform="translate(117.55,-34.3)" />   <use xlink:href="#dot" transform="translate(116.45,-34.333333)" />   <use xlink:href="#dot" transform="translate(117.483333,-33.983333)" />   <use xlink:href="#dot" transform="translate(117.633333,-34.033333)" />   <use xlink:href="#dot" transform="translate(115.333333,-33.666667)" />   <use xlink:href="#dot" transform="translate(116.640556,-32.151944)" />   <use xlink:href="#dot" transform="translate(117.360833,-34.966944)" />   <use xlink:href="#dot" transform="translate(116.244167,-31.45)" />   <use xlink:href="#dot" transform="translate(117.333333,-32.55)" />   <use xlink:href="#dot" transform="translate(117.333333,-32.55)" />   <use xlink:href="#dot" transform="translate(116.883333,-32.466667)" />   <use xlink:href="#dot" transform="translate(116.911944,-32.781111)" />   <use xlink:href="#dot" transform="translate(121.000556,-33.158333)" />   <use xlink:href="#dot" transform="translate(116.945278,-32.753333)" />   <use xlink:href="#dot" transform="translate(117.498611,-31.985556)" />   <use xlink:href="#dot" transform="translate(117.316667,-32.516667)" />   <use xlink:href="#dot" transform="translate(116.949167,-32.781389)" />   <use xlink:href="#dot" transform="translate(117.633333,-34.033333)" />   <use xlink:href="#dot" transform="translate(120.683333,-31.416667)" />   <use xlink:href="#dot" transform="translate(116,-34.533333)" />   <use xlink:href="#dot" transform="translate(117.508889,-32.125556)" />   <use xlink:href="#dot" transform="translate(118.995278,-32.630833)" />   <use xlink:href="#dot" transform="translate(117.508889,-32.125556)" />   <use xlink:href="#dot" transform="translate(117.633333,-34.033333)" />   <use xlink:href="#dot" transform="translate(119.413889,-32.568056)" />   <use xlink:href="#dot" transform="translate(116.9,-32.466667)" />   <use xlink:href="#dot" transform="translate(119.369167,-32.786111)" />   <use xlink:href="#dot" transform="translate(116.066673,-32.716671)" />   <use xlink:href="#dot" transform="translate(117.021944,-31.993056)" />   <use xlink:href="#dot" transform="translate(117.633,-34.033)" />   <use xlink:href="#dot" transform="translate(119.369167,-32.786111)" />   <use xlink:href="#dot" transform="translate(119.369167,-32.786111)" />   <use xlink:href="#dot" transform="translate(119.003333,-32.759444)" />   <use xlink:href="#dot" transform="translate(117.333333,-32.55)" />   <use xlink:href="#dot" transform="translate(120.016667,-33)" />   <use xlink:href="#dot" transform="translate(119.570833,-33.297222)" />   <use xlink:href="#dot" transform="translate(115.461111,-30.5)" />   <use xlink:href="#dot" transform="translate(118.083333,-34.4)" />   <use xlink:href="#dot" transform="translate(116.35,-32.725)" />   <use xlink:href="#dot" transform="translate(116.033333,-32.933333)" />   <use xlink:href="#dot" transform="translate(117.382778,-32.020833)" />   <use xlink:href="#dot" transform="translate(117.023611,-31.993056)" />   <use xlink:href="#dot" transform="translate(117.633333,-34.033333)" />   <use xlink:href="#dot" transform="translate(116.083333,-32.25)" />   <use xlink:href="#dot" transform="translate(120.033333,-33.75)" />   <use xlink:href="#dot" transform="translate(115.883333,-33.083333)" />   <use xlink:href="#dot" transform="translate(121.46667,-30.75)" />   <use xlink:href="#dot" transform="translate(116.633333,-31.902778)" />   <use xlink:href="#dot" transform="translate(117.508889,-32.125556)" />   <use xlink:href="#dot" transform="translate(117.85,-32.933333)" />   <use xlink:href="#dot" transform="translate(117.333333,-32.55)" />   <use xlink:href="#dot" transform="translate(120.105,-33.288056)" />   <use xlink:href="#dot" transform="translate(119.091944,-33.491944)" />   <use xlink:href="#dot" transform="translate(121.05,-30.366667)" />   <use xlink:href="#dot" transform="translate(118.666667,-30.916667)" />   <use xlink:href="#dot" transform="translate(117.275556,-32.545)" />   <use xlink:href="#dot" transform="translate(118.995278,-32.630833)" />   <use xlink:href="#dot" transform="translate(117.366944,-32.026667)" />   <use xlink:href="#dot" transform="translate(117.333333,-32.55)" />   <use xlink:href="#dot" transform="translate(115.083333,-33.95)" />   <use xlink:href="#dot" transform="translate(116.505556,-32.126944)" />   <use xlink:href="#dot" transform="translate(117.023611,-31.993056)" />   <use xlink:href="#dot" transform="translate(117.633,-34.033)" />   <use xlink:href="#dot" transform="translate(116.247222,-34.261111)" />   <use xlink:href="#dot" transform="translate(117.275556,-32.545)" />   <use xlink:href="#dot" transform="translate(117.280556,-32.541111)" />   <use xlink:href="#dot" transform="translate(116.3,-31.8)" />   <use xlink:href="#dot" transform="translate(116.938889,-29.836111)" />   <use xlink:href="#dot" transform="translate(119.048056,-33.494722)" />   <use xlink:href="#dot" transform="translate(116.911944,-32.781111)" />   <use xlink:href="#dot" transform="translate(116.889722,-32.810833)" />   <use xlink:href="#dot" transform="translate(117.508889,-32.125556)" />   <use xlink:href="#dot" transform="translate(117.633333,-34.033333)" />   <use xlink:href="#dot" transform="translate(116.883333,-32.466667)" />   <use xlink:href="#dot" transform="translate(116.1,-31.366667)" />   <use xlink:href="#dot" transform="translate(116.976111,-32.7775)" />   <use xlink:href="#dot" transform="translate(117.280556,-32.541111)" />   <use xlink:href="#dot" transform="translate(118.995278,-32.630833)" />   <use xlink:href="#dot" transform="translate(116.640556,-32.151944)" />   <use xlink:href="#dot" transform="translate(117.498611,-31.985556)" />   <use xlink:href="#dot" transform="translate(116.083333,-32.15)" />   <use xlink:href="#dot" transform="translate(116.133333,-32.15)" />   <use xlink:href="#dot" transform="translate(116.972222,-32.776389)" />   <use xlink:href="#dot" transform="translate(116.591667,-31.877778)" />   <use xlink:href="#dot" transform="translate(116.833333,-32.666667)" />   <use xlink:href="#dot" transform="translate(117.333333,-34.083333)" />   <use xlink:href="#dot" transform="translate(119.048056,-33.494722)" />   <use xlink:href="#dot" transform="translate(121.216667,-30.583333)" />   <use xlink:href="#dot" transform="translate(116.633333,-31.9)" />   <use xlink:href="#dot" transform="translate(120.914722,-30.030556)" />   <use xlink:href="#dot" transform="translate(116.229444,-34.302778)" />   <use xlink:href="#dot" transform="translate(118.633333,-30.916667)" />   <use xlink:href="#dot" transform="translate(116.976111,-32.7775)" />   <use xlink:href="#dot" transform="translate(117.483333,-33.983333)" />   <use xlink:href="#dot" transform="translate(116.883333,-32.466667)" />   <use xlink:href="#dot" transform="translate(118.907778,-33.441667)" />   <use xlink:href="#dot" transform="translate(119.199444,-33.615833)" />   <use xlink:href="#dot" transform="translate(117.633333,-34.033333)" />   <use xlink:href="#dot" transform="translate(116.591667,-31.877778)" />   <use xlink:href="#dot" transform="translate(121.129444,-32.925)" />   <use xlink:href="#dot" transform="translate(117.383333,-31.183333)" />   <use xlink:href="#dot" transform="translate(117.004167,-32.766389)" />   <use xlink:href="#dot" transform="translate(117.021944,-31.993056)" />   <use xlink:href="#dot" transform="translate(115.433333,-34.258333)" />   <use xlink:href="#dot" transform="translate(116.45,-34.333333)" />   <use xlink:href="#dot" transform="translate(117.633333,-34.033333)" />   <use xlink:href="#dot" transform="translate(116.945278,-32.753333)" />   <use xlink:href="#dot" transform="translate(118.804167,-32.423611)" />   <use xlink:href="#dot" transform="translate(116.166667,-31.9)" />   <use xlink:href="#dot" transform="translate(116.116667,-31.4)" />   <use xlink:href="#dot" transform="translate(116.9,-32.466667)" />   <use xlink:href="#dot" transform="translate(116.047222,-32.379167)" />   <use xlink:href="#dot" transform="translate(116.940278,-32.743333)" />   <use xlink:href="#dot" transform="translate(119.148333,-33.567222)" />   <use xlink:href="#dot" transform="translate(116.640556,-32.151944)" />   <use xlink:href="#dot" transform="translate(117.333333,-34.083333)" />   <use xlink:href="#dot" transform="translate(118.066667,-34.533333)" />   <use xlink:href="#dot" transform="translate(117.319722,-32.534444)" />   <use xlink:href="#dot" transform="translate(118.366667,-32.383333)" />   <use xlink:href="#dot" transform="translate(117,-32.366667)" />   <use xlink:href="#dot" transform="translate(115.461111,-30.5)" />   <use xlink:href="#dot" transform="translate(116.275,-32.375)" />   <use xlink:href="#dot" transform="translate(116.458333,-32.955556)" />   <use xlink:href="#dot" transform="translate(116.591667,-31.877778)" />   <use xlink:href="#dot" transform="translate(117.35,-34.966667)" />   <use xlink:href="#dot" transform="translate(119.091944,-33.491944)" />   <use xlink:href="#dot" transform="translate(116.125,-31.969444)" /><polygon class="region" points="115.094444,-34.275 115.0667,-33.95 115.461111,-30.5 116.938889,-29.836111 121.25,-30.021111 121.766667,-30.75 121.411944,-32.820833 121.235,-33.475 117.9,-34.933333 117.360833,-34.966944 117.35,-34.966667 115.094444,-34.275 " />
		  </g>
		</svg>