<?xml version="1.0" encoding="UTF-8"?>
	<svg xmlns:xlink="http://www.w3.org/1999/xlink" 
	xmlns="http://www.w3.org/2000/svg" 
	width="360px" height="180px">
	   <style type="text/css">
		  <![CDATA[     
		  .region 
		  { 
			fill:blue; 
			opacity:0.4; 
			stroke:blue;
		  }
		  ]]>
	   </style>

	<circle id="dot" x="-2" y="-2" r="2" style="stroke:none; stroke-width:0; fill:black; opacity:0.7;"/>


	 <image x="0" y="0" width="360" height="180" xlink:href="map.jpg"/>

 
	 <g transform="translate(180,90) scale(1,-1)">   <use xlink:href="#dot" transform="translate(-121.866608,37.174783)" />   <use xlink:href="#dot" transform="translate(-121.991797,45.350328)" />   <use xlink:href="#dot" transform="translate(-122.403549,37.539447)" />   <use xlink:href="#dot" transform="translate(-122.407005,37.540277)" />   <use xlink:href="#dot" transform="translate(-122.399567,37.53557)" />   <use xlink:href="#dot" transform="translate(-121.963283,37.199102)" />   <use xlink:href="#dot" transform="translate(-170.28,57.12)" />   <use xlink:href="#dot" transform="translate(-122.40023,37.4468)" />   <use xlink:href="#dot" transform="translate(-124.001741,41.33367)" />   <use xlink:href="#dot" transform="translate(-122.398712,37.535217)" />   <use xlink:href="#dot" transform="translate(-124.4908,44.3236)" />   <use xlink:href="#dot" transform="translate(-124.4908,44.3236)" />   <use xlink:href="#dot" transform="translate(-124.4908,44.3236)" />   <use xlink:href="#dot" transform="translate(-124.4908,44.3236)" />   <use xlink:href="#dot" transform="translate(-124.4908,44.3236)" />   <use xlink:href="#dot" transform="translate(-124.4908,44.3236)" />   <use xlink:href="#dot" transform="translate(-123.29854,47.70812)" />   <use xlink:href="#dot" transform="translate(-124.4908,44.3236)" />   <use xlink:href="#dot" transform="translate(-124.4908,44.3236)" />   <use xlink:href="#dot" transform="translate(-123.29854,47.70812)" />   <use xlink:href="#dot" transform="translate(-123.29854,47.70812)" />   <use xlink:href="#dot" transform="translate(-124.4908,44.3236)" />   <use xlink:href="#dot" transform="translate(-124.4908,44.3236)" />   <use xlink:href="#dot" transform="translate(-124.4908,44.3236)" />   <use xlink:href="#dot" transform="translate(-124.4908,44.3236)" />   <use xlink:href="#dot" transform="translate(-124.4908,44.3236)" />   <use xlink:href="#dot" transform="translate(-123.29854,47.70812)" />   <use xlink:href="#dot" transform="translate(-123.29854,47.70812)" />   <use xlink:href="#dot" transform="translate(-124.4908,44.3236)" />   <use xlink:href="#dot" transform="translate(-123.29854,47.70812)" />   <use xlink:href="#dot" transform="translate(-123.29854,47.70812)" />   <use xlink:href="#dot" transform="translate(-124.4908,44.3236)" />   <use xlink:href="#dot" transform="translate(-124.4908,44.3236)" />   <use xlink:href="#dot" transform="translate(-123.29854,47.70812)" />   <use xlink:href="#dot" transform="translate(-123.54088,44.52004)" />   <use xlink:href="#dot" transform="translate(-123.54088,44.52004)" />   <use xlink:href="#dot" transform="translate(-123.54088,44.52004)" />   <use xlink:href="#dot" transform="translate(-123.54088,44.52004)" />   <use xlink:href="#dot" transform="translate(-123.54088,44.52004)" />   <use xlink:href="#dot" transform="translate(-123.54088,44.52004)" />   <use xlink:href="#dot" transform="translate(-123.29854,47.70812)" />   <use xlink:href="#dot" transform="translate(-123.29854,47.70812)" />   <use xlink:href="#dot" transform="translate(-123.54088,44.52004)" />   <use xlink:href="#dot" transform="translate(-123.29854,47.70812)" />   <use xlink:href="#dot" transform="translate(-123.5462,44.52794)" />   <use xlink:href="#dot" transform="translate(-123.5462,44.52794)" />   <use xlink:href="#dot" transform="translate(-123.5462,44.52794)" />   <use xlink:href="#dot" transform="translate(-123.5462,44.52794)" />   <use xlink:href="#dot" transform="translate(-123.5462,44.52794)" />   <use xlink:href="#dot" transform="translate(-123.29854,47.70812)" />   <use xlink:href="#dot" transform="translate(-123.29854,47.70812)" />   <use xlink:href="#dot" transform="translate(-123.29854,44.7081)" />   <use xlink:href="#dot" transform="translate(-123.29854,44.7081)" />   <use xlink:href="#dot" transform="translate(-123.29854,47.70812)" />   <use xlink:href="#dot" transform="translate(-123.29854,47.70812)" />   <use xlink:href="#dot" transform="translate(-123.5462,44.52794)" />   <use xlink:href="#dot" transform="translate(-123.29854,44.7081)" />   <use xlink:href="#dot" transform="translate(-123.5462,44.52794)" />   <use xlink:href="#dot" transform="translate(-123.29854,44.7081)" />   <use xlink:href="#dot" transform="translate(-123.5462,44.52794)" />   <use xlink:href="#dot" transform="translate(-123.5462,44.52794)" />   <use xlink:href="#dot" transform="translate(-121.85680940194,36.923510150629)" />   <use xlink:href="#dot" transform="translate(-122.221999,37.172346)" />   <use xlink:href="#dot" transform="translate(-122.0892,44.39946)" />   <use xlink:href="#dot" transform="translate(-122.0892,44.39946)" />   <use xlink:href="#dot" transform="translate(-122.0892,44.39946)" />   <use xlink:href="#dot" transform="translate(-122.0892,44.39946)" />   <use xlink:href="#dot" transform="translate(-122.0892,44.39946)" />   <use xlink:href="#dot" transform="translate(-122.0892,44.39946)" />   <use xlink:href="#dot" transform="translate(-122.0892,44.39946)" />   <use xlink:href="#dot" transform="translate(-122.0892,44.39946)" />   <use xlink:href="#dot" transform="translate(-122.0892,44.39946)" />   <use xlink:href="#dot" transform="translate(-124.00472,44.16708)" />   <use xlink:href="#dot" transform="translate(-124.00472,44.16708)" />   <use xlink:href="#dot" transform="translate(-124.00472,44.16708)" />   <use xlink:href="#dot" transform="translate(-124.00472,44.16708)" />   <use xlink:href="#dot" transform="translate(-124.00472,44.16708)" />   <use xlink:href="#dot" transform="translate(-124.00472,44.16708)" />   <use xlink:href="#dot" transform="translate(-121.561817,36.377728)" />   <use xlink:href="#dot" transform="translate(-124.00472,44.16708)" />   <use xlink:href="#dot" transform="translate(-124.00472,44.16708)" />   <use xlink:href="#dot" transform="translate(-121.562444,36.378115)" />   <use xlink:href="#dot" transform="translate(-124.00472,44.16708)" />   <use xlink:href="#dot" transform="translate(-124.00472,44.16708)" />   <use xlink:href="#dot" transform="translate(-124.00472,44.16708)" />   <use xlink:href="#dot" transform="translate(-124.00472,44.16708)" />   <use xlink:href="#dot" transform="translate(-124.00472,44.16708)" />   <use xlink:href="#dot" transform="translate(-124.00472,44.16708)" />   <use xlink:href="#dot" transform="translate(-121.562239,36.378403)" />   <use xlink:href="#dot" transform="translate(-121.561801,36.377676)" />   <use xlink:href="#dot" transform="translate(-121.920236,37.636245)" />   <use xlink:href="#dot" transform="translate(-122.33487,47.02613)" />   <use xlink:href="#dot" transform="translate(-122.47815,37.78765)" />   <use xlink:href="#dot" transform="translate(-122.45543,37.79256)" />   <use xlink:href="#dot" transform="translate(-122.47815,37.78765)" />   <use xlink:href="#dot" transform="translate(-122.47368,37.79074)" />   <use xlink:href="#dot" transform="translate(-122.45637,37.79364)" />   <use xlink:href="#dot" transform="translate(-122.33487,47.02613)" />   <use xlink:href="#dot" transform="translate(-122.45632,37.79313)" />   <use xlink:href="#dot" transform="translate(-122.45632,37.79313)" />   <use xlink:href="#dot" transform="translate(-122.33487,47.02613)" />   <use xlink:href="#dot" transform="translate(-122.33487,47.02613)" />   <use xlink:href="#dot" transform="translate(-122.33487,47.02613)" />   <use xlink:href="#dot" transform="translate(-122.33487,47.02613)" />   <use xlink:href="#dot" transform="translate(-122.47743,37.79736)" />   <use xlink:href="#dot" transform="translate(-122.47846,37.80239)" />   <use xlink:href="#dot" transform="translate(-122.47756,37.79728)" />   <use xlink:href="#dot" transform="translate(-122.33487,47.02613)" />   <use xlink:href="#dot" transform="translate(-122.4594,37.79283)" />   <use xlink:href="#dot" transform="translate(-122.47792,37.79801)" />   <use xlink:href="#dot" transform="translate(-122.4594,37.79283)" />   <use xlink:href="#dot" transform="translate(-122.4606,37.79196)" />   <use xlink:href="#dot" transform="translate(-122.4606,37.79196)" />   <use xlink:href="#dot" transform="translate(-122.4606,37.79196)" />   <use xlink:href="#dot" transform="translate(-122.47237,37.79982)" />   <use xlink:href="#dot" transform="translate(-122.4606,37.79196)" />   <use xlink:href="#dot" transform="translate(-122.4606,37.79196)" />   <use xlink:href="#dot" transform="translate(-122.2438,44.218399999057)" />   <use xlink:href="#dot" transform="translate(-122.2438,44.218399999057)" />   <use xlink:href="#dot" transform="translate(-122.2438,44.218399999057)" />   <use xlink:href="#dot" transform="translate(-122.2438,44.218399999057)" />   <use xlink:href="#dot" transform="translate(-122.2438,44.218399999057)" />   <use xlink:href="#dot" transform="translate(-122.2438,44.218399999057)" />   <use xlink:href="#dot" transform="translate(-123.54946,44.52605)" />   <use xlink:href="#dot" transform="translate(-123.54946,44.52605)" />   <use xlink:href="#dot" transform="translate(-123.54946,44.52605)" />   <use xlink:href="#dot" transform="translate(-123.54946,44.52605)" />   <use xlink:href="#dot" transform="translate(-123.54946,44.52605)" />   <use xlink:href="#dot" transform="translate(-123.54946,44.52605)" />   <use xlink:href="#dot" transform="translate(-123.54946,44.52605)" />   <use xlink:href="#dot" transform="translate(-123.54946,44.52605)" />   <use xlink:href="#dot" transform="translate(-123.54946,44.52605)" />   <use xlink:href="#dot" transform="translate(-123.54946,44.52605)" />   <use xlink:href="#dot" transform="translate(-123.54946,44.52605)" />   <use xlink:href="#dot" transform="translate(-123.54946,44.52605)" />   <use xlink:href="#dot" transform="translate(-123.54946,44.52605)" />   <use xlink:href="#dot" transform="translate(-123.54946,44.52605)" />   <use xlink:href="#dot" transform="translate(-123.54946,44.52605)" />   <use xlink:href="#dot" transform="translate(-123.54946,44.52605)" />   <use xlink:href="#dot" transform="translate(-119.7896,38.60241999908)" />   <use xlink:href="#dot" transform="translate(-119.7896,38.60241999908)" />   <use xlink:href="#dot" transform="translate(-120.4035,39.148879999076)" />   <use xlink:href="#dot" transform="translate(-120.49598,39.027799999077)" />   <use xlink:href="#dot" transform="translate(-121.92305,37.63925)" />   <use xlink:href="#dot" transform="translate(-118.902361,36.785502)" />   <use xlink:href="#dot" transform="translate(-118.902361,36.785502)" />   <use xlink:href="#dot" transform="translate(-120.516791,39.305695)" />   <use xlink:href="#dot" transform="translate(-118.597684,36.791016)" />   <use xlink:href="#dot" transform="translate(-118.597684,36.791016)" />   <use xlink:href="#dot" transform="translate(-118.597684,36.791016)" />   <use xlink:href="#dot" transform="translate(-118.597684,36.791016)" />   <use xlink:href="#dot" transform="translate(-118.597684,36.791016)" />   <use xlink:href="#dot" transform="translate(-118.597684,36.791016)" />   <use xlink:href="#dot" transform="translate(-121.559597,36.375919)" />   <use xlink:href="#dot" transform="translate(-121.559597,36.375919)" />   <use xlink:href="#dot" transform="translate(-121.559597,36.375919)" />   <use xlink:href="#dot" transform="translate(-121.559597,36.375919)" />   <use xlink:href="#dot" transform="translate(-121.559597,36.375919)" />   <use xlink:href="#dot" transform="translate(-121.559597,36.375919)" />   <use xlink:href="#dot" transform="translate(-121.559597,36.375919)" />   <use xlink:href="#dot" transform="translate(-121.559597,36.375919)" />   <use xlink:href="#dot" transform="translate(-121.559597,36.375919)" />   <use xlink:href="#dot" transform="translate(-121.559597,36.375919)" />   <use xlink:href="#dot" transform="translate(-121.559597,36.375919)" />   <use xlink:href="#dot" transform="translate(-121.559597,36.375919)" />   <use xlink:href="#dot" transform="translate(-122.50203,37.99647)" />   <use xlink:href="#dot" transform="translate(-122.50203,37.99647)" />   <use xlink:href="#dot" transform="translate(-121.01074,38.91554)" />   <use xlink:href="#dot" transform="translate(-121.01074,38.91554)" />   <use xlink:href="#dot" transform="translate(-120.83194,39.18656)" />   <use xlink:href="#dot" transform="translate(-122.24071090678,40.917382979427)" />   <use xlink:href="#dot" transform="translate(-122.24071090678,40.917382979427)" />   <use xlink:href="#dot" transform="translate(-120.71323,39.25473)" />   <use xlink:href="#dot" transform="translate(-120.7522,39.24922)" />   <use xlink:href="#dot" transform="translate(-120.83194,39.18656)" />   <use xlink:href="#dot" transform="translate(-120.71323,39.25473)" />   <use xlink:href="#dot" transform="translate(-120.83194,39.18656)" />   <use xlink:href="#dot" transform="translate(-120.83194,39.18656)" />   <use xlink:href="#dot" transform="translate(-118.224394,36.093389)" />   <use xlink:href="#dot" transform="translate(-122.24428194811,40.914550993623)" />   <use xlink:href="#dot" transform="translate(-118.296317,35.8321)" />   <use xlink:href="#dot" transform="translate(-122.27760795155,41.126469361385)" />   <use xlink:href="#dot" transform="translate(-118.296317,35.8321)" />   <use xlink:href="#dot" transform="translate(-122.24428194811,40.914550993623)" />   <use xlink:href="#dot" transform="translate(-121.149116,41.473297)" />   <use xlink:href="#dot" transform="translate(-120.286223,39.458147)" />   <use xlink:href="#dot" transform="translate(-120.23158,39.431667)" />   <use xlink:href="#dot" transform="translate(-120.286223,39.458147)" />   <use xlink:href="#dot" transform="translate(-120.29095,39.42091)" />   <use xlink:href="#dot" transform="translate(-120.285487,39.46031)" />   <use xlink:href="#dot" transform="translate(-122.36510147285,43.899617924645)" />   <use xlink:href="#dot" transform="translate(-122.36510159562,43.906610853827)" />   <use xlink:href="#dot" transform="translate(-122.36510147285,43.899617924645)" />   <use xlink:href="#dot" transform="translate(-122.36510147285,43.899617924645)" />   <use xlink:href="#dot" transform="translate(-122.36510159562,43.906610853827)" />   <use xlink:href="#dot" transform="translate(-120.23158,39.431667)" />   <use xlink:href="#dot" transform="translate(-120.23158,39.431667)" />   <use xlink:href="#dot" transform="translate(-120.285487,39.46031)" />   <use xlink:href="#dot" transform="translate(-122.36510147285,43.899617924645)" />   <use xlink:href="#dot" transform="translate(-120.309225,39.447115)" />   <use xlink:href="#dot" transform="translate(-120.29095,39.42091)" />   <use xlink:href="#dot" transform="translate(-120.29095,39.42091)" />   <use xlink:href="#dot" transform="translate(-122.36510147285,43.899617924645)" />   <use xlink:href="#dot" transform="translate(-120.2209,39.44339)" />   <use xlink:href="#dot" transform="translate(-122.36510147285,43.899617924645)" />   <use xlink:href="#dot" transform="translate(-122.36510147285,43.899617924645)" />   <use xlink:href="#dot" transform="translate(-120.309225,39.447115)" />   <use xlink:href="#dot" transform="translate(-122.36522109614,43.877978143305)" />   <use xlink:href="#dot" transform="translate(-122.37487070972,43.899493836235)" />   <use xlink:href="#dot" transform="translate(-122.36510159562,43.906610853827)" />   <use xlink:href="#dot" transform="translate(-122.24797170839,44.188953154165)" />   <use xlink:href="#dot" transform="translate(-122.35519384994,43.877928235798)" />   <use xlink:href="#dot" transform="translate(-122.36522109614,43.877978143305)" />   <use xlink:href="#dot" transform="translate(-122.37487070972,43.899493836235)" />   <use xlink:href="#dot" transform="translate(-122.36522109614,43.877978143305)" />   <use xlink:href="#dot" transform="translate(-122.35519384994,43.877928235798)" />   <use xlink:href="#dot" transform="translate(-122.19287022121,44.181590731089)" />   <use xlink:href="#dot" transform="translate(-122.34555461411,43.877930324185)" />   <use xlink:href="#dot" transform="translate(-122.36510147285,43.899617924645)" />   <use xlink:href="#dot" transform="translate(-122.37487070972,43.899493836235)" />   <use xlink:href="#dot" transform="translate(-122.36522109614,43.877978143305)" />   <use xlink:href="#dot" transform="translate(-122.36522109614,43.877978143305)" />   <use xlink:href="#dot" transform="translate(-122.36522109614,43.877978143305)" />   <use xlink:href="#dot" transform="translate(-122.36522109614,43.877978143305)" />   <use xlink:href="#dot" transform="translate(-122.36522109614,43.877978143305)" />   <use xlink:href="#dot" transform="translate(-122.37487070972,43.899493836235)" />   <use xlink:href="#dot" transform="translate(-122.35519384994,43.877928235798)" />   <use xlink:href="#dot" transform="translate(-122.36510147285,43.899617924645)" />   <use xlink:href="#dot" transform="translate(-122.19287022121,44.181590731089)" />   <use xlink:href="#dot" transform="translate(-122.36522109614,43.877978143305)" />   <use xlink:href="#dot" transform="translate(-122.35519384994,43.877928235798)" />   <use xlink:href="#dot" transform="translate(-122.36522109614,43.877978143305)" />   <use xlink:href="#dot" transform="translate(-122.37487070972,43.899493836235)" />   <use xlink:href="#dot" transform="translate(-122.36510147285,43.899617924645)" />   <use xlink:href="#dot" transform="translate(-122.35519384994,43.877928235798)" />   <use xlink:href="#dot" transform="translate(-122.35519384994,43.877928235798)" />   <use xlink:href="#dot" transform="translate(-122.19287022121,44.181590731089)" />   <use xlink:href="#dot" transform="translate(-122.19287022121,44.181590731089)" />   <use xlink:href="#dot" transform="translate(-122.35519384994,43.877928235798)" />   <use xlink:href="#dot" transform="translate(-122.35519384994,43.877928235798)" />   <use xlink:href="#dot" transform="translate(-122.36510159562,43.906610853827)" />   <use xlink:href="#dot" transform="translate(-122.36522109614,43.877978143305)" />   <use xlink:href="#dot" transform="translate(-122.24797170839,44.188953154165)" />   <use xlink:href="#dot" transform="translate(-122.36522109614,43.877978143305)" />   <use xlink:href="#dot" transform="translate(-122.35519384994,43.877928235798)" />   <use xlink:href="#dot" transform="translate(-122.34555461411,43.877930324185)" />   <use xlink:href="#dot" transform="translate(-122.37487070972,43.899493836235)" />   <use xlink:href="#dot" transform="translate(-122.37487070972,43.899493836235)" />   <use xlink:href="#dot" transform="translate(-122.35519384994,43.877928235798)" />   <use xlink:href="#dot" transform="translate(-122.35519384994,43.877928235798)" />   <use xlink:href="#dot" transform="translate(-122.37487070972,43.899493836235)" />   <use xlink:href="#dot" transform="translate(-122.34555461411,43.877930324185)" />   <use xlink:href="#dot" transform="translate(-122.36522109614,43.877978143305)" />   <use xlink:href="#dot" transform="translate(-122.36510159562,43.906610853827)" />   <use xlink:href="#dot" transform="translate(-122.37487070972,43.899493836235)" />   <use xlink:href="#dot" transform="translate(-122.36510147285,43.899617924645)" />   <use xlink:href="#dot" transform="translate(-122.37472883201,43.906655764998)" />   <use xlink:href="#dot" transform="translate(-122.37472883201,43.906655764998)" />   <use xlink:href="#dot" transform="translate(-122.34555461411,43.877930324185)" />   <use xlink:href="#dot" transform="translate(-122.36522109614,43.877978143305)" />   <use xlink:href="#dot" transform="translate(-122.37487070972,43.899493836235)" />   <use xlink:href="#dot" transform="translate(-122.36510159562,43.906610853827)" />   <use xlink:href="#dot" transform="translate(-122.37487070972,43.899493836235)" />   <use xlink:href="#dot" transform="translate(-122.36510147285,43.899617924645)" />   <use xlink:href="#dot" transform="translate(-122.35519384994,43.877928235798)" />   <use xlink:href="#dot" transform="translate(-122.36522109614,43.877978143305)" />   <use xlink:href="#dot" transform="translate(-122.36522109614,43.877978143305)" />   <use xlink:href="#dot" transform="translate(-122.34555461411,43.877930324185)" />   <use xlink:href="#dot" transform="translate(-122.37472883201,43.906655764998)" />   <use xlink:href="#dot" transform="translate(-122.36510147285,43.899617924645)" />   <use xlink:href="#dot" transform="translate(-122.19287022121,44.181590731089)" />   <use xlink:href="#dot" transform="translate(-122.35519384994,43.877928235798)" />   <use xlink:href="#dot" transform="translate(-122.36522109614,43.877978143305)" />   <use xlink:href="#dot" transform="translate(-122.37487070972,43.899493836235)" />   <use xlink:href="#dot" transform="translate(-122.36510147285,43.899617924645)" />   <use xlink:href="#dot" transform="translate(-122.35519384994,43.877928235798)" />   <use xlink:href="#dot" transform="translate(-122.36522109614,43.877978143305)" />   <use xlink:href="#dot" transform="translate(-122.36510159562,43.906610853827)" />   <use xlink:href="#dot" transform="translate(-122.36510147285,43.899617924645)" />   <use xlink:href="#dot" transform="translate(-122.36522109614,43.877978143305)" />   <use xlink:href="#dot" transform="translate(-122.36522109614,43.877978143305)" />   <use xlink:href="#dot" transform="translate(-122.36510147285,43.899617924645)" />   <use xlink:href="#dot" transform="translate(-122.36510159562,43.906610853827)" />   <use xlink:href="#dot" transform="translate(-122.36510147285,43.899617924645)" />   <use xlink:href="#dot" transform="translate(-122.36522109614,43.877978143305)" />   <use xlink:href="#dot" transform="translate(-122.36510159562,43.906610853827)" />   <use xlink:href="#dot" transform="translate(-122.37472883201,43.906655764998)" />   <use xlink:href="#dot" transform="translate(-122.19287022121,44.181590731089)" />   <use xlink:href="#dot" transform="translate(-122.23298959329,44.203226155992)" />   <use xlink:href="#dot" transform="translate(-122.25804403889,44.080780105646)" />   <use xlink:href="#dot" transform="translate(-122.25804403889,44.080780105646)" />   <use xlink:href="#dot" transform="translate(-122.25804403889,44.080780105646)" />   <use xlink:href="#dot" transform="translate(-122.23298959329,44.203226155992)" />   <use xlink:href="#dot" transform="translate(-122.25804403889,44.080780105646)" />   <use xlink:href="#dot" transform="translate(-122.23298959329,44.203226155992)" />   <use xlink:href="#dot" transform="translate(-122.25804403889,44.080780105646)" />   <use xlink:href="#dot" transform="translate(-122.25795629179,44.095203965887)" />   <use xlink:href="#dot" transform="translate(-122.23298959329,44.203226155992)" />   <use xlink:href="#dot" transform="translate(-122.25795629179,44.095203965887)" />   <use xlink:href="#dot" transform="translate(-122.25804403889,44.080780105646)" /><polygon class="region" points="-121.559597,36.375919 -170.28,57.12 -123.29854,47.70812 -122.33487,47.02613 -118.224394,36.093389 -118.296317,35.8321 -121.559597,36.375919 " />
		  </g>
		</svg>