<?xml version="1.0" encoding="UTF-8"?>
	<svg xmlns:xlink="http://www.w3.org/1999/xlink" 
	xmlns="http://www.w3.org/2000/svg" 
	width="360px" height="180px">
	   <style type="text/css">
		  <![CDATA[     
		  .region 
		  { 
			fill:blue; 
			opacity:0.4; 
			stroke:blue;
		  }
		  ]]>
	   </style>

	<circle id="dot" x="-2" y="-2" r="2" style="stroke:none; stroke-width:0; fill:black; opacity:0.7;"/>


	 <image x="0" y="0" width="360" height="180" xlink:href="map.jpg"/>

 
	 <g transform="translate(180,90) scale(1,-1)"><polygon class="region" points="-123.0577,38.305835593 -123.7235,38.916835593 -123.8505,39.831335592 -124.4054,40.442635593 -124.1422,40.903435593 -124.0549,41.538935593 -124.5607,42.836735593 -124.1315,44.017135593 -123.9344,45.414135593 -124.022,46.225435593 -123.8634,46.151935592 -123.4921,46.264835592 -124.0838,46.264035592 -124.0609,46.635035593 -123.9496,46.366335593 -123.8435,46.401835593 -123.9595,46.634835592 -123.7937,46.666635592 -124.0866,46.720635592 -124.135,46.901635593 -124.0213,46.836135593 -123.6882,46.957135593 -124.0907,47.040935593 -124.1703,46.927435592 -124.7277,48.381235593 -123.9734,48.161035593 -123.1024,48.183835593 -122.8856,47.990135593 -122.7568,48.140735592 -122.6119,47.881235592 -122.7459,47.805935593 -122.7759,47.686935593 -122.8675,47.814235593 -123.1544,47.354135593 -123.0229,47.348635593 -122.8552,47.424435593 -123.1193,47.387235592 -122.5684,47.821935593 -122.6142,47.943635593 -122.4689,47.754435593 -122.6581,47.735035592 -122.6903,47.528135592 -122.4941,47.507135593 -122.5834,47.252335593 -122.6305,47.405435593 -122.7707,47.164135593 -122.8246,47.403035593 -123.0921,47.207935593 -122.9396,47.195035593 -123.0787,47.103335592 -122.9398,47.185235592 -122.9043,47.007135592 -122.8981,47.145335592 -122.7267,47.082435593 -122.3255,47.343135593 -122.4356,47.661235593 -122.2779,47.632335592 -122.2721,47.515735593 -122.1935,47.473835593 -122.2513,47.755435593 -122.4154,47.673335593 -122.1674,48.033635593 -122.5072,48.369835592 -122.483,48.751835593 -122.6733,48.733135593 -122.833,49.085635592 -123.1524,49.063335592 -122.8215,49.213135592 -122.345,49.106435592 -122.1227,49.138535593 -122.0573,49.088235592 -122.1045,49.140835593 -121.6983,49.212935592 -121.5637,49.361135593 -121.9628,49.236435593 -121.7757,49.305535593 -121.7492,49.362635592 -121.0283,49.576335593 -120.7236,49.451235593 -120.0338,48.597935593 -119.8089,47.990235592 -120.0223,47.155335593 -121.2483,44.914235593 -121.8975,42.622535593 -121.7796,42.478635593 -120.3462,42.750235592 -120.1256,42.549835592 -120.0105,41.764435592 -120.6874,40.839735593 -120.4495,40.177935593 -119.7362,39.659135593 -119.621,38.887835592 -120.1175,38.520035593 -120.5273,39.268135592 -120.389,39.631035592 -120.4777,39.805935592 -120.6704,39.638735593 -120.6427,39.291135592 -120.1195,38.299235592 -118.8736,37.494035593 -118.5482,36.964035593 -118.5126,36.676835593 -118.7561,36.193435592 -119.1045,36.145735592 -119.4069,36.899935592 -120.3422,37.493235593 -120.7008,38.188935593 -121.3241,38.754635593 -121.4884,39.725235593 -121.8827,40.015835593 -121.9622,40.460435593 -122.2498,40.688535593 -122.2608,41.004935592 -122.4815,40.903635593 -122.664,39.385335593 -121.9372,37.918335593 -120.687,37.157135593 -120.7608,36.360735593 -119.3377,34.726335593 -119.2905,34.291935593 -120.6407,34.565035592 -120.6491,35.141335593 -121.9019,36.309435593 -121.8662,36.937735593 -122.4039,37.194435593 -122.511,37.783735592 -122.109,37.517235592 -122.4274,37.965335593 -122.2615,38.068435592 -122.5258,38.146735593 -122.5273,37.816035593 -123.0208,37.995635593 -123.0577,38.305835593 " /><polygon class="region" points="-121.5521,49.362935593 -121.4491,49.369635592 -121.4191,49.405435592 -121.4641,49.375935593 -121.5521,49.362935593 " /><polygon class="region" points="-122.64,49.565035593 -122.2775,49.547835592 -121.8052,49.316535592 -122.3723,49.132835593 -122.2387,49.462535593 -122.428,49.171435593 -122.7536,49.219035593 -122.5954,49.335235593 -122.5129,49.431835592 -122.5193,49.470835592 -122.6101,49.545835593 -122.7445,49.238035593 -123.2609,49.262335592 -122.833,49.280735592 -122.9302,49.316335592 -122.8624,49.377535593 -122.8554,49.432535592 -122.8838,49.470335593 -122.9528,49.302235592 -123.1897,49.332635593 -122.9719,49.463535592 -122.64,49.565035593 " /><polygon class="region" points="-122.6676,37.907935592 -122.6552,37.907635593 -122.6753,37.905935593 -122.6676,37.907935592 " />
		  </g>
		</svg>