<?xml version="1.0" encoding="UTF-8"?>
	<svg xmlns:xlink="http://www.w3.org/1999/xlink" 
	xmlns="http://www.w3.org/2000/svg" 
	width="360px" height="180px">
	   <style type="text/css">
		  <![CDATA[     
		  .region 
		  { 
			fill:blue; 
			opacity:0.4; 
			stroke:blue;
		  }
		  ]]>
	   </style>

	<circle id="dot" x="-2" y="-2" r="2" style="stroke:none; stroke-width:0; fill:black; opacity:0.7;"/>


	 <image x="0" y="0" width="360" height="180" xlink:href="map.jpg"/>

 
	 <g transform="translate(180,90) scale(1,-1)"><polygon class="region" points="138.746887207,-1.859706402 139.750778198,-2.3560361859999 140.615707397,-2.43948102 140.731719971,-2.63953042 141.206542969,-2.635880947 142.536468506,-3.235291719 143.51347351,-3.4411895279999 144.086868286,-3.8353228569999 144.528991699,-3.8183948989999 144.483215332,-3.986351252 145.322036743,-4.3823375699999 145.80480957,-4.8493018149999 145.760604859,-5.4740281109999 147.450210571,-5.9694442749999 147.808029175,-6.3210444449999 147.861602783,-6.625870704 146.775726318,-6.6088728899999 144.424194336,-5.077359676 144.051162719,-4.987434387 142.365097046,-4.8443527219999 141.574385916,-5.1186754949999 141.011306763,-5.008116722 138.189605713,-3.0875978469999 137.698318481,-2.127669811 138.237213135,-1.6657516949999 138.746887207,-1.859706402 " /><polygon class="region" points="146.292109794,-6.088614906 147.167750836,-6.518953073 147.589221525,-6.279816437 147.111390316,-6.0516799349999 146.708219548,-6.134074901 146.725768604,-5.9507061859999 146.538402298,-5.844952002 145.815977774,-5.6886672869999 146.292109794,-6.088614906 " /><polygon class="region" points="133.985061645,-0.72112691399997 134.29095459,-1.354152203 134.078643799,-1.87749803 133.723815918,-1.653687358 133.63647461,-1.397124171 133.835327148,-0.74586450999993 133.985061645,-0.72112691399997 " />
		  </g>
		</svg>