<?xml version="1.0" encoding="UTF-8"?>
	<svg xmlns:xlink="http://www.w3.org/1999/xlink" 
	xmlns="http://www.w3.org/2000/svg" 
	width="360px" height="180px">
	   <style type="text/css">
		  <![CDATA[     
		  .region 
		  { 
			fill:blue; 
			opacity:0.4; 
			stroke:blue;
		  }
		  ]]>
	   </style>

	<circle id="dot" x="-2" y="-2" r="2" style="stroke:none; stroke-width:0; fill:black; opacity:0.7;"/>


	 <image x="0" y="0" width="360" height="180" xlink:href="map.jpg"/>

 
	 <g transform="translate(180,90) scale(1,-1)"><polygon class="region" points="9.5581,1.4871355920001 9.8153,1.9312355920001 9.9755,3.0842355930001 9.5462,3.811335593 9.7134,3.8535355930001 9.6261,3.9620355920001 9.70203823,4.065707257 9.6907152310001,4.0841071310001 9.4185,3.881235593 8.9792,4.097535593 8.811,4.5550355930001 8.8075133840001,5.501878516 9.2258721540001,6.222385285 10.480948461,7.1753135920001 11.317666,7.6169145160001 12.061414923,7.5936723620001 11.968446308,7.03586067 11.038760154,6.268869593 10.387979846,5.246214824 10.387979846,4.8743403620001 11.015518,4.339770823 11.619814,4.1073492850001 13.2082066,3.791335593 15.1257,3.732535593 16.2438,3.2813355930001 16.87254077,2.6430935920001 20.544801077,1.202080054 26.355339539,-3.0977184069999 26.820182616,-4.701427022 26.936393385,-6.305135638 26.750456154,-6.8629473299999 26.378581693,-7.490485484 24.495967231,-7.46724333 20.289137384,-6.1424405609999 16.152034,-4.44576333 11.712782615,-1.42428333 10.0064,0.39803559300003 9.5356,1.261035593 9.5581,1.4871355920001 " />
		  </g>
		</svg>