<?xml version="1.0" encoding="UTF-8"?>
	<svg xmlns:xlink="http://www.w3.org/1999/xlink" 
	xmlns="http://www.w3.org/2000/svg" 
	width="360px" height="180px">
	   <style type="text/css">
		  <![CDATA[     
		  .region 
		  { 
			fill:blue; 
			opacity:0.4; 
			stroke:blue;
		  }
		  ]]>
	   </style>

	<circle id="dot" x="-2" y="-2" r="2" style="stroke:none; stroke-width:0; fill:black; opacity:0.7;"/>


	 <image x="0" y="0" width="360" height="180" xlink:href="map.jpg"/>

 
	 <g transform="translate(180,90) scale(1,-1)">   <use xlink:href="#dot" transform="translate(8.660769,3.362119)" />   <use xlink:href="#dot" transform="translate(8.660419,3.362669)" />   <use xlink:href="#dot" transform="translate(9.8931,-1.7939)" />   <use xlink:href="#dot" transform="translate(9.8919,-1.7939)" />   <use xlink:href="#dot" transform="translate(9.8808,-1.82)" />   <use xlink:href="#dot" transform="translate(9.8931,-1.7931)" />   <use xlink:href="#dot" transform="translate(9.8919,-1.7939)" />   <use xlink:href="#dot" transform="translate(9.8931,-1.7958)" />   <use xlink:href="#dot" transform="translate(9.8919,-1.7939)" />   <use xlink:href="#dot" transform="translate(9.8808,-1.82)" />   <use xlink:href="#dot" transform="translate(9.8931,-1.7958)" />   <use xlink:href="#dot" transform="translate(10.5,-2.408)" />   <use xlink:href="#dot" transform="translate(10.506,-2.283)" />   <use xlink:href="#dot" transform="translate(10.5,-2.408)" />   <use xlink:href="#dot" transform="translate(10.506,-2.283)" />   <use xlink:href="#dot" transform="translate(10.506,-2.283)" />   <use xlink:href="#dot" transform="translate(10.506,-2.283)" />   <use xlink:href="#dot" transform="translate(10.506,-2.283)" />   <use xlink:href="#dot" transform="translate(10.506,-2.283)" />   <use xlink:href="#dot" transform="translate(10.506,-2.283)" />   <use xlink:href="#dot" transform="translate(10.506,-2.283)" />   <use xlink:href="#dot" transform="translate(10.506,-2.283)" />   <use xlink:href="#dot" transform="translate(10.506,-2.283)" />   <use xlink:href="#dot" transform="translate(10.506,-2.283)" />   <use xlink:href="#dot" transform="translate(10.506,-2.283)" />   <use xlink:href="#dot" transform="translate(10.506,-2.283)" />   <use xlink:href="#dot" transform="translate(10.506,-2.283)" />   <use xlink:href="#dot" transform="translate(10.506,-2.283)" />   <use xlink:href="#dot" transform="translate(10.506,-2.283)" />   <use xlink:href="#dot" transform="translate(10.506,-2.283)" />   <use xlink:href="#dot" transform="translate(10.506,-2.283)" />   <use xlink:href="#dot" transform="translate(10.506,-2.283)" />   <use xlink:href="#dot" transform="translate(10.506,-2.283)" />   <use xlink:href="#dot" transform="translate(10.506,-2.283)" />   <use xlink:href="#dot" transform="translate(10.506,-2.283)" />   <use xlink:href="#dot" transform="translate(10.506,-2.283)" />   <use xlink:href="#dot" transform="translate(10.506,-2.283)" />   <use xlink:href="#dot" transform="translate(10.506,-2.283)" />   <use xlink:href="#dot" transform="translate(10.506,-2.283)" />   <use xlink:href="#dot" transform="translate(10.506,-2.283)" />   <use xlink:href="#dot" transform="translate(10.497222,-2.283333)" />   <use xlink:href="#dot" transform="translate(10.497222,-2.283333)" />   <use xlink:href="#dot" transform="translate(10.497222,-2.283333)" />   <use xlink:href="#dot" transform="translate(10.506,-2.283)" />   <use xlink:href="#dot" transform="translate(10.506,-2.283)" />   <use xlink:href="#dot" transform="translate(10.405833,-2.2225)" />   <use xlink:href="#dot" transform="translate(10.405833,-2.2225)" />   <use xlink:href="#dot" transform="translate(10.506,-2.283)" />   <use xlink:href="#dot" transform="translate(10.394445,-2.227778)" />   <use xlink:href="#dot" transform="translate(10.497222,-2.283333)" />   <use xlink:href="#dot" transform="translate(10.506,-2.283)" />   <use xlink:href="#dot" transform="translate(10.497222,-2.283333)" />   <use xlink:href="#dot" transform="translate(10.506,-2.283)" />   <use xlink:href="#dot" transform="translate(10.506,-2.283)" />   <use xlink:href="#dot" transform="translate(10.506,-2.283)" />   <use xlink:href="#dot" transform="translate(10.506,-2.283)" />   <use xlink:href="#dot" transform="translate(10.506,-2.283)" />   <use xlink:href="#dot" transform="translate(10.506,-2.283)" />   <use xlink:href="#dot" transform="translate(10.506,-2.283)" />   <use xlink:href="#dot" transform="translate(10.506,-2.283)" />   <use xlink:href="#dot" transform="translate(10.506,-2.283)" />   <use xlink:href="#dot" transform="translate(10.506,-2.283)" />   <use xlink:href="#dot" transform="translate(10.506,-2.283)" />   <use xlink:href="#dot" transform="translate(10.506,-2.283)" />   <use xlink:href="#dot" transform="translate(10.506,-2.283)" />   <use xlink:href="#dot" transform="translate(10.506,-2.283)" />   <use xlink:href="#dot" transform="translate(10.506,-2.283)" />   <use xlink:href="#dot" transform="translate(10.506,-2.283)" />   <use xlink:href="#dot" transform="translate(10.506,-2.283)" />   <use xlink:href="#dot" transform="translate(10.506,-2.283)" />   <use xlink:href="#dot" transform="translate(10.506,-2.283)" />   <use xlink:href="#dot" transform="translate(10.506,-2.283)" />   <use xlink:href="#dot" transform="translate(10.506,-2.283)" />   <use xlink:href="#dot" transform="translate(10.506,-2.283)" />   <use xlink:href="#dot" transform="translate(10.506,-2.283)" />   <use xlink:href="#dot" transform="translate(10.506,-2.283)" />   <use xlink:href="#dot" transform="translate(10.506,-2.283)" />   <use xlink:href="#dot" transform="translate(10.506,-2.283)" />   <use xlink:href="#dot" transform="translate(10.506,-2.283)" />   <use xlink:href="#dot" transform="translate(10.506,-2.283)" />   <use xlink:href="#dot" transform="translate(10.506,-2.283)" />   <use xlink:href="#dot" transform="translate(10.506,-2.283)" />   <use xlink:href="#dot" transform="translate(10.506,-2.283)" />   <use xlink:href="#dot" transform="translate(10.506,-2.283)" />   <use xlink:href="#dot" transform="translate(10.506,-2.283)" />   <use xlink:href="#dot" transform="translate(10.506,-2.283)" />   <use xlink:href="#dot" transform="translate(10.506,-2.283)" />   <use xlink:href="#dot" transform="translate(10.506,-2.283)" />   <use xlink:href="#dot" transform="translate(10.506,-2.283)" />   <use xlink:href="#dot" transform="translate(10.506,-2.283)" />   <use xlink:href="#dot" transform="translate(10.506,-2.283)" />   <use xlink:href="#dot" transform="translate(10.506,-2.283)" />   <use xlink:href="#dot" transform="translate(10.506,-2.283)" />   <use xlink:href="#dot" transform="translate(10.506,-2.283)" />   <use xlink:href="#dot" transform="translate(10.506,-2.283)" />   <use xlink:href="#dot" transform="translate(10.506,-2.283)" />   <use xlink:href="#dot" transform="translate(10.506,-2.283)" />   <use xlink:href="#dot" transform="translate(10.506,-2.283)" />   <use xlink:href="#dot" transform="translate(10.506,-2.283)" />   <use xlink:href="#dot" transform="translate(10.506,-2.283)" />   <use xlink:href="#dot" transform="translate(10.506,-2.283)" />   <use xlink:href="#dot" transform="translate(10.506,-2.283)" />   <use xlink:href="#dot" transform="translate(10.506,-2.283)" />   <use xlink:href="#dot" transform="translate(10.506,-2.283)" />   <use xlink:href="#dot" transform="translate(10.506,-2.283)" />   <use xlink:href="#dot" transform="translate(10.506,-2.283)" />   <use xlink:href="#dot" transform="translate(10.506,-2.283)" />   <use xlink:href="#dot" transform="translate(10.506,-2.283)" />   <use xlink:href="#dot" transform="translate(10.506,-2.283)" />   <use xlink:href="#dot" transform="translate(10.506,-2.283)" />   <use xlink:href="#dot" transform="translate(10.506,-2.283)" />   <use xlink:href="#dot" transform="translate(10.506,-2.283)" />   <use xlink:href="#dot" transform="translate(10.506,-2.283)" />   <use xlink:href="#dot" transform="translate(10.506,-2.283)" />   <use xlink:href="#dot" transform="translate(10.506,-2.283)" />   <use xlink:href="#dot" transform="translate(10.506,-2.283)" />   <use xlink:href="#dot" transform="translate(10.506,-2.283)" />   <use xlink:href="#dot" transform="translate(17.058,3.919)" />   <use xlink:href="#dot" transform="translate(17.058,3.919)" />   <use xlink:href="#dot" transform="translate(17.058,3.919)" />   <use xlink:href="#dot" transform="translate(17.058,3.919)" />   <use xlink:href="#dot" transform="translate(17.058,3.919)" />   <use xlink:href="#dot" transform="translate(17.058,3.919)" />   <use xlink:href="#dot" transform="translate(17.058,3.919)" />   <use xlink:href="#dot" transform="translate(17.058,3.919)" />   <use xlink:href="#dot" transform="translate(17.058,3.919)" />   <use xlink:href="#dot" transform="translate(17.058,3.919)" />   <use xlink:href="#dot" transform="translate(17.058,3.919)" />   <use xlink:href="#dot" transform="translate(17.058,3.919)" />   <use xlink:href="#dot" transform="translate(17.058,3.919)" />   <use xlink:href="#dot" transform="translate(17.058,3.919)" />   <use xlink:href="#dot" transform="translate(14.85,0.583)" />   <use xlink:href="#dot" transform="translate(17.058,3.919)" />   <use xlink:href="#dot" transform="translate(14.85,0.583)" />   <use xlink:href="#dot" transform="translate(14.85,0.583)" />   <use xlink:href="#dot" transform="translate(17.058,3.919)" />   <use xlink:href="#dot" transform="translate(17.058,3.919)" />   <use xlink:href="#dot" transform="translate(17.058,3.919)" />   <use xlink:href="#dot" transform="translate(14.85,0.583)" />   <use xlink:href="#dot" transform="translate(14.85,0.583)" />   <use xlink:href="#dot" transform="translate(14.85,0.583)" />   <use xlink:href="#dot" transform="translate(14.85,0.583)" />   <use xlink:href="#dot" transform="translate(14.85,0.583)" />   <use xlink:href="#dot" transform="translate(17.058,3.919)" />   <use xlink:href="#dot" transform="translate(17.058,3.919)" />   <use xlink:href="#dot" transform="translate(17.058,3.919)" />   <use xlink:href="#dot" transform="translate(17.058,3.919)" />   <use xlink:href="#dot" transform="translate(17.058,3.919)" />   <use xlink:href="#dot" transform="translate(17.058,3.919)" />   <use xlink:href="#dot" transform="translate(17.058,3.919)" />   <use xlink:href="#dot" transform="translate(17.058,3.919)" />   <use xlink:href="#dot" transform="translate(17.058,3.919)" />   <use xlink:href="#dot" transform="translate(17.058,3.919)" />   <use xlink:href="#dot" transform="translate(17.058,3.919)" />   <use xlink:href="#dot" transform="translate(17.058,3.919)" />   <use xlink:href="#dot" transform="translate(17.058,3.919)" />   <use xlink:href="#dot" transform="translate(17.058,3.919)" />   <use xlink:href="#dot" transform="translate(17.058,3.919)" />   <use xlink:href="#dot" transform="translate(17.058,3.919)" />   <use xlink:href="#dot" transform="translate(17.058,3.919)" />   <use xlink:href="#dot" transform="translate(17.058,3.919)" />   <use xlink:href="#dot" transform="translate(17.058,3.919)" />   <use xlink:href="#dot" transform="translate(17.058,3.919)" />   <use xlink:href="#dot" transform="translate(17.058,3.919)" />   <use xlink:href="#dot" transform="translate(17.058,3.919)" />   <use xlink:href="#dot" transform="translate(17.058,3.919)" />   <use xlink:href="#dot" transform="translate(17.058,3.919)" />   <use xlink:href="#dot" transform="translate(17.058,3.919)" />   <use xlink:href="#dot" transform="translate(17.058,3.919)" />   <use xlink:href="#dot" transform="translate(17.058,3.919)" />   <use xlink:href="#dot" transform="translate(17.058,3.919)" />   <use xlink:href="#dot" transform="translate(17.058,3.919)" />   <use xlink:href="#dot" transform="translate(17.058,3.919)" />   <use xlink:href="#dot" transform="translate(17.058,3.919)" />   <use xlink:href="#dot" transform="translate(17.058,3.919)" />   <use xlink:href="#dot" transform="translate(17.058,3.919)" />   <use xlink:href="#dot" transform="translate(17.058,3.919)" />   <use xlink:href="#dot" transform="translate(17.058,3.919)" />   <use xlink:href="#dot" transform="translate(17.058,3.919)" />   <use xlink:href="#dot" transform="translate(17.058,3.919)" />   <use xlink:href="#dot" transform="translate(17.058,3.919)" />   <use xlink:href="#dot" transform="translate(17.058,3.919)" />   <use xlink:href="#dot" transform="translate(17.058,3.919)" />   <use xlink:href="#dot" transform="translate(17.058,3.919)" />   <use xlink:href="#dot" transform="translate(17.058,3.919)" />   <use xlink:href="#dot" transform="translate(17.058,3.919)" />   <use xlink:href="#dot" transform="translate(17.058,3.919)" />   <use xlink:href="#dot" transform="translate(17.058,3.919)" />   <use xlink:href="#dot" transform="translate(17.058,3.919)" />   <use xlink:href="#dot" transform="translate(17.058,3.919)" />   <use xlink:href="#dot" transform="translate(17.058,3.919)" />   <use xlink:href="#dot" transform="translate(17.058,3.919)" />   <use xlink:href="#dot" transform="translate(17.058,3.919)" />   <use xlink:href="#dot" transform="translate(17.058,3.919)" />   <use xlink:href="#dot" transform="translate(17.058,3.919)" />   <use xlink:href="#dot" transform="translate(17.058,3.919)" />   <use xlink:href="#dot" transform="translate(17.058,3.919)" />   <use xlink:href="#dot" transform="translate(17.058,3.919)" />   <use xlink:href="#dot" transform="translate(12.406667,2.08)" />   <use xlink:href="#dot" transform="translate(12.406667,2.08)" />   <use xlink:href="#dot" transform="translate(12.406667,2.08)" />   <use xlink:href="#dot" transform="translate(12.406667,2.08)" />   <use xlink:href="#dot" transform="translate(12.406667,2.08)" />   <use xlink:href="#dot" transform="translate(10.333,-0.25)" />   <use xlink:href="#dot" transform="translate(10.333,-0.25)" />   <use xlink:href="#dot" transform="translate(17.058,3.919)" />   <use xlink:href="#dot" transform="translate(17.058,3.919)" />   <use xlink:href="#dot" transform="translate(17.058,3.919)" />   <use xlink:href="#dot" transform="translate(17.058,3.919)" />   <use xlink:href="#dot" transform="translate(17.058,3.919)" />   <use xlink:href="#dot" transform="translate(17.058,3.919)" />   <use xlink:href="#dot" transform="translate(17.058,3.919)" />   <use xlink:href="#dot" transform="translate(17.058,3.919)" />   <use xlink:href="#dot" transform="translate(17.058,3.919)" />   <use xlink:href="#dot" transform="translate(10.333,-0.25)" />   <use xlink:href="#dot" transform="translate(17.058,3.919)" />   <use xlink:href="#dot" transform="translate(17.058,3.919)" />   <use xlink:href="#dot" transform="translate(17.058,3.919)" />   <use xlink:href="#dot" transform="translate(17.058,3.919)" />   <use xlink:href="#dot" transform="translate(17.058,3.919)" />   <use xlink:href="#dot" transform="translate(17.058,3.919)" />   <use xlink:href="#dot" transform="translate(10.75,-3.15)" />   <use xlink:href="#dot" transform="translate(17.058,3.919)" />   <use xlink:href="#dot" transform="translate(17.058,3.919)" />   <use xlink:href="#dot" transform="translate(17.058,3.919)" />   <use xlink:href="#dot" transform="translate(17.058,3.919)" />   <use xlink:href="#dot" transform="translate(17.058,3.919)" />   <use xlink:href="#dot" transform="translate(17.058,3.919)" />   <use xlink:href="#dot" transform="translate(10.167,-1.583)" />   <use xlink:href="#dot" transform="translate(10.75,-3.15)" />   <use xlink:href="#dot" transform="translate(17.058,3.919)" />   <use xlink:href="#dot" transform="translate(10.167,-1.583)" />   <use xlink:href="#dot" transform="translate(17.058,3.919)" />   <use xlink:href="#dot" transform="translate(17.058,3.919)" />   <use xlink:href="#dot" transform="translate(17.058,3.919)" />   <use xlink:href="#dot" transform="translate(17.058,3.919)" />   <use xlink:href="#dot" transform="translate(17.058,3.919)" />   <use xlink:href="#dot" transform="translate(17.058,3.919)" />   <use xlink:href="#dot" transform="translate(17.058,3.919)" />   <use xlink:href="#dot" transform="translate(17.058,3.919)" />   <use xlink:href="#dot" transform="translate(17.058,3.919)" />   <use xlink:href="#dot" transform="translate(17.058,3.919)" />   <use xlink:href="#dot" transform="translate(17.058,3.919)" />   <use xlink:href="#dot" transform="translate(17.058,3.919)" />   <use xlink:href="#dot" transform="translate(17.058,3.919)" />   <use xlink:href="#dot" transform="translate(17.058,3.919)" />   <use xlink:href="#dot" transform="translate(17.058,3.919)" />   <use xlink:href="#dot" transform="translate(17.058,3.919)" />   <use xlink:href="#dot" transform="translate(17.058,3.919)" />   <use xlink:href="#dot" transform="translate(17.058,3.919)" />   <use xlink:href="#dot" transform="translate(17.058,3.919)" />   <use xlink:href="#dot" transform="translate(17.058,3.919)" />   <use xlink:href="#dot" transform="translate(17.058,3.919)" />   <use xlink:href="#dot" transform="translate(17.058,3.919)" />   <use xlink:href="#dot" transform="translate(17.058,3.919)" />   <use xlink:href="#dot" transform="translate(17.058,3.919)" />   <use xlink:href="#dot" transform="translate(17.058,3.919)" />   <use xlink:href="#dot" transform="translate(14.733,0.4)" />   <use xlink:href="#dot" transform="translate(14.733,0.4)" />   <use xlink:href="#dot" transform="translate(14.733,0.4)" />   <use xlink:href="#dot" transform="translate(14.733,0.4)" />   <use xlink:href="#dot" transform="translate(14.733,0.4)" />   <use xlink:href="#dot" transform="translate(14.733,0.4)" />   <use xlink:href="#dot" transform="translate(14.733,0.4)" />   <use xlink:href="#dot" transform="translate(14.733,0.4)" />   <use xlink:href="#dot" transform="translate(14.733,0.4)" />   <use xlink:href="#dot" transform="translate(14.733,0.4)" />   <use xlink:href="#dot" transform="translate(14.733,0.4)" />   <use xlink:href="#dot" transform="translate(14.733,0.4)" />   <use xlink:href="#dot" transform="translate(14.733,0.4)" />   <use xlink:href="#dot" transform="translate(14.733,0.4)" />   <use xlink:href="#dot" transform="translate(14.733,0.4)" />   <use xlink:href="#dot" transform="translate(14.733,0.4)" />   <use xlink:href="#dot" transform="translate(14.733,0.4)" />   <use xlink:href="#dot" transform="translate(14.733,0.4)" />   <use xlink:href="#dot" transform="translate(14.733,0.4)" />   <use xlink:href="#dot" transform="translate(14.733,0.4)" />   <use xlink:href="#dot" transform="translate(14.733,0.4)" />   <use xlink:href="#dot" transform="translate(14.733,0.4)" />   <use xlink:href="#dot" transform="translate(14.733,0.4)" />   <use xlink:href="#dot" transform="translate(14.733,0.4)" />   <use xlink:href="#dot" transform="translate(14.733,0.4)" />   <use xlink:href="#dot" transform="translate(14.733,0.4)" />   <use xlink:href="#dot" transform="translate(14.733,0.4)" />   <use xlink:href="#dot" transform="translate(14.733,0.4)" />   <use xlink:href="#dot" transform="translate(14.733,0.4)" />   <use xlink:href="#dot" transform="translate(14.733,0.4)" />   <use xlink:href="#dot" transform="translate(14.733,0.4)" />   <use xlink:href="#dot" transform="translate(14.733,0.4)" />   <use xlink:href="#dot" transform="translate(14.733,0.4)" />   <use xlink:href="#dot" transform="translate(14.733,0.4)" />   <use xlink:href="#dot" transform="translate(14.733,0.4)" />   <use xlink:href="#dot" transform="translate(14.733,0.4)" />   <use xlink:href="#dot" transform="translate(11.917,-0.683)" />   <use xlink:href="#dot" transform="translate(11.917,-0.683)" />   <use xlink:href="#dot" transform="translate(14.733,0.4)" />   <use xlink:href="#dot" transform="translate(14.733,0.4)" />   <use xlink:href="#dot" transform="translate(14.733,0.4)" />   <use xlink:href="#dot" transform="translate(14.733,0.4)" />   <use xlink:href="#dot" transform="translate(14.733,0.4)" /><polygon class="region" points="9.8808,-1.82 8.660419,3.362669 17.058,3.919 14.733,0.4 10.75,-3.15 9.8808,-1.82 " />
		  </g>
		</svg>