<?xml version="1.0" encoding="UTF-8"?>
	<svg xmlns:xlink="http://www.w3.org/1999/xlink" 
	xmlns="http://www.w3.org/2000/svg" 
	width="360px" height="180px">
	   <style type="text/css">
		  <![CDATA[     
		  .region 
		  { 
			fill:blue; 
			opacity:0.4; 
			stroke:blue;
		  }
		  ]]>
	   </style>

	<circle id="dot" x="-2" y="-2" r="2" style="stroke:none; stroke-width:0; fill:black; opacity:0.7;"/>


	 <image x="0" y="0" width="360" height="180" xlink:href="map.jpg"/>

 
	 <g transform="translate(180,90) scale(1,-1)"><polygon class="region" points="-88.9529,15.883535593 -88.6194,15.690435592 -88.492,15.839335592 -88.5923,15.960935592 -88.1478,15.674635592 -87.7259,15.922835592 -86.9215,15.749835593 -85.9337,15.926035592 -86.0347,16.025635593 -85.4547,15.860235593 -85.0381,15.990335592 -84.304,15.815435592 -83.3986,15.254635592 -83.1556,14.996035592 -83.3171,14.774035592 -83.2037,14.326935592 -83.5461,13.553235593 -83.4974,12.383935593 -83.6827,12.219035593 -83.6479,11.602835593 -83.8785,11.287335592 -83.2799,10.184435593 -82.3436,9.428835592 -82.3581,9.2067355930001 -82.1752,9.193935593 -82.2665,9.009035592 -81.7944,8.937635593 -81.8893,9.187235592 -81.5157,8.799535593 -81.1991,8.7835355930001 -79.8053,9.3757355920001 -79.6327,9.617035593 -78.9717,9.5643355930001 -79.063,9.448135592 -78.5617,9.442835593 -77.8601,9.1048355930001 -76.8417,8.1355355920001 -76.8684,7.8988355930001 -76.725,8.060835593 -76.9366,8.552935593 -76.337,8.923635593 -76.0894,9.3338355930001 -75.6232,9.4097355920001 -75.568,9.6193355930001 -75.6994,9.7034355920001 -75.5163,10.239335593 -75.6884,10.131735593 -75.6988,10.146635592 -75.2598,10.805035593 -74.8619,11.111835593 -74.2953,10.992235592 -74.1047,11.350935592 -73.2778,11.288835592 -72.2404,11.901635593 -72.176,12.219435593 -71.9319,12.156235593 -71.6623,12.463335593 -71.2375,12.320535593 -71.1124,12.054335593 -71.3825,11.755435593 -71.9631,11.560135592 -71.5778,10.706735593 -72.1289,9.8139355920001 -71.9984,9.4477355930001 -71.7166,9.391935593 -71.8215,9.2326355930001 -71.7048,9.0521355930001 -71.3569,9.086935592 -71.0612,9.3193355930001 -71.0233,9.715935593 -71.5875,10.801135592 -71.432,10.802635593 -71.4949,10.958235593 -70.0466,11.442935593 -70.1402,11.571435593 -70,11.526035592 -70,11.661335593 -70.2253,11.617135593 -70.2964,11.866035593 -70.0185,12.201135593 -69.6125,11.460535593 -68.8535,11.447235592 -68.4013,11.185535592 -68.1238,10.483935592 -66.2321,10.644835593 -65.8127,10.219935593 -65.0912,10.043335593 -64.181,10.473135593 -63.8182,10.437935593 -63.6418,10.488935593 -64.2289,10.500835593 -64.2627,10.662535593 -61.8582,10.751935592 -62.3394,10.532935593 -62.6659,10.573135593 -62.903,10.520435592 -62.5067,10.197435592 -62.3378,9.809535593 -62.2002,10.020435593 -61.8101,9.7559355920001 -61.5778,9.788835593 -61.6304,9.902335592 -60.8676,9.456435593 -60.7829,9.311535593 -60.9568,9.198035593 -60.8462,8.9731355920001 -61.0128,8.829235592 -60.8222,8.867935593 -60.9164,8.7362355930001 -60.782,8.718435592 -60.9847,8.5711355930001 -60.0457,8.586835593 -58.6721,7.610235593 -58.4681,7.2998355930001 -58.6151,6.4201355930001 -58.4733,6.8111355930001 -58.2925,6.8895355920001 -57.2363,6.1846355930001 -57.1397,5.8166355930001 -56.9569,5.999035593 -55.9141,5.7815355920001 -55.8272,5.9538355930001 -55.1051,5.877135593 -55.0373,6.0045355930001 -54.0242,5.8238355930001 -54.0217,5.6157355930001 -53.8256,5.768735592 -52.932,5.458035593 -51.945,4.5093355920001 -51.9079,4.6601355930001 -51.7994,4.608635593 -51.6625,4.205035593 -51.5293,4.171135593 -51.5446,4.396635593 -51.2324,4.1244355920001 -50.8599,2.4774355930001 -50.477,1.8247355930001 -49.9663,1.6869355920001 -49.8803,1.419035593 -50.0726,1.205035593 -49.9182,1.231635593 -49.939,1.1026355930001 -50.4554,0.73183559300003 -50.7849,0.18343559200002 -51.2026,-0.055364407999946 -51.4094,-0.43996440699993 -51.1884,-0.14026440799995 -51.154,-0.28386440699995 -51.396,-0.49276440799997 -50.7134,-0.000164406999943 -50.6133,-0.087964407999948 -50.7506,-0.42856440699995 -50.9885,-0.58326440699994 -51.0509,-0.68196440699995 -50.6843,-0.60406440799994 -50.6515,-0.27466440699993 -50.4089,-0.094364407999933 -48.3634,-0.30316440699994 -48.8373,-1.452064407 -49.8029,-1.8217644069999 -50.2485,-1.774464408 -50.4012,-1.9344644069999 -49.7638,-1.8977644079999 -49.2763,-1.7064644069999 -49.3826,-2.158864407 -48.6011,-1.3058644079999 -48.4959,-1.552564408 -48.3187,-1.478164407 -48.5054,-1.470664407 -48.4786,-1.149064408 -48.2783,-1.111064407 -48.0547,-0.66806440699997 -47.7024,-0.53986440799997 -47.4063,-0.76386440699997 -47.4657,-0.59476440699996 -47.2976,-0.58886440699996 -47.1605,-0.81456440699998 -47.0771,-0.66326440699993 -47.0552,-0.86796440699993 -46.9617,-0.69136440699998 -46.7339,-0.94356440699994 -46.6214,-0.81776440699997 -46.6093,-1.029864408 -46.3478,-1.078664407 -46.1789,-0.91386440699995 -46.15,-1.257964408 -45.9823,-1.0705644069999 -46,-1.208764408 -45.9017,-1.1344644069999 -45.8907,-1.2932644069999 -45.8065,-1.1758644069999 -45.8428,-1.3006644069999 -45.8249,-1.3248644079999 -45.8094,-1.327464407 -45.7264,-1.134764408 -45.7426,-1.2497644069999 -45.6903,-1.451864407 -45.6177,-1.278564407 -45.5471,-1.4320644069999 -45.4173,-1.289764407 -45.554,-1.502964407 -45.4768,-1.541464407 -45.3235,-1.319164407 -45.3482,-1.7501644069999 -45.1603,-1.475164408 -44.9794,-1.6070644069999 -44.8624,-1.4258644079999 -44.9683,-1.661564407 -44.8216,-1.5907644069999 -44.8327,-1.770264407 -44.7112,-1.7284644069999 -44.8196,-1.8194644069999 -44.6038,-1.749164407 -44.6674,-1.849164408 -44.4848,-2.0008644069999 -44.6129,-2.036764407 -44.4682,-2.016964408 -44.7642,-2.264564407 -44.6486,-2.3731644069999 -44.4786,-2.137264408 -44.3578,-2.3345644079999 -44.6653,-2.608264407 -44.5483,-2.5416644069999 -44.6084,-3.040664407 -44.798,-3.2055644079999 -44.779,-3.312364407 -44.4321,-2.946364407 -44.3055,-2.4872644079999 -44.0196,-2.4025644069999 -44.3451,-2.7913644069999 -44.2076,-2.8561644069999 -43.7274,-2.481664408 -43.6081,-2.5927644069999 -43.5185,-2.444764407 -43.4584,-2.5955644069999 -43.4328,-2.3350644069999 -42.2549,-2.812364407 -42.1431,-2.8081644069999 -42.256,-2.735264408 -42.236,-2.6743644069999 -42.2077,-2.711864407 -42.0976,-2.768164407 -42.0908,-2.8104644069999 -42.0972,-2.7458644069999 -42.2159,-2.687064407 -41.8182,-2.7229644069999 -41.4373,-2.938764407 -40.0128,-2.838164407 -38.4727,-3.699764407 -37.1498,-4.9430644079999 -36.6716,-5.1066644069999 -35.4815,-5.161564407 -35.2549,-5.482664407 -34.7901,-7.159064407 -34.9333,-8.3577644069999 -35.333,-9.237364407 -36.4031,-10.506864408 -36.9344,-10.825664407 -37.9962,-12.578264408 -38.4772,-13.022364408 -38.4993,-12.721964407 -38.7176,-12.627264407 -38.7693,-12.995064407 -38.6858,-12.878164408 -38.5896,-12.972064408 -38.9441,-13.243364408 -38.8862,-13.659164407 -39.0752,-13.886564407 -38.9219,-13.919864407 -39.0615,-14.715564407 -38.8571,-15.860064407 -39.2121,-17.154564407 -39.1353,-17.691164408 -39.5629,-18.090864407 -39.7215,-18.492764407 -39.8052,-19.650264407 -40.1513,-19.956064408 -40.4019,-20.605664407 -40.7562,-20.866064408 -41.0655,-21.495464408 -40.9901,-22.013864407 -41.9618,-22.538264408 -41.8644,-22.757364407 -42.0191,-22.997564407 -43.0499,-22.981964407 -43.0837,-22.679764407 -43.2872,-22.806364408 -43.1554,-22.785264407 -43.1882,-22.995564407 -43.5494,-23.080764408 -43.9894,-23.106264408 -43.5555,-23.054864407 -43.8488,-22.906064407 -44.2336,-23.060464407 -44.3357,-22.925764408 -44.6634,-23.057464407 -44.583,-23.366564408 -45.0504,-23.417864407 -45.4097,-23.631864407 -45.4119,-23.824664408 -46.1082,-23.832064407 -47.6553,-24.824164407 -48.2127,-25.470064407 -48.1198,-25.267464407 -48.3169,-25.363364407 -48.4175,-25.226964407 -48.4679,-25.480964408 -48.7389,-25.373964407 -48.6802,-25.463364408 -54.0408,-20.918464407 -57.8213,-16.632564407 -58.3635,-16.452264407 -58.9014,-16.559664407 -60.4831,-18.698264408 -61.4922,-19.639964407 -63.7895,-19.788764407 -65.0067,-19.297264408 -65.6085,-18.870164408 -68.4643,-16.289864407 -70.0023,-15.430164407 -74.2977,-13.531364408 -75.4724,-12.715464407 -78.3016,-8.195664407 -79.378,-6.784764407 -80.8536,-5.749864407 -80.8482,-5.533964408 -81.1914,-5.2155644069999 -81.0676,-5.007464408 -81.3267,-4.6752644069999 -81.2496,-4.2701644069999 -80.7858,-3.748664407 -80.3054,-3.4052644079999 -80.0613,-3.413064408 -79.7152,-2.5658644079999 -79.8443,-2.307164407 -79.8979,-2.5839644069999 -79.9273,-2.407664408 -80.0342,-2.505464408 -79.9344,-2.303464408 -80.2801,-2.598164407 -80.2528,-2.7399644069999 -81.007,-2.189364407 -80.7324,-2.038764407 -80.8496,-1.6024644079999 -80.737,-1.3554644069999 -80.9081,-1.054864407 -80.5659,-0.90866440699995 -80.4273,-0.59826440699993 -80.3828,-0.66016440699997 -80.3013,-0.65256440699994 -80.488,-0.37976440799997 -80.0427,0.10853559200007 -80.0906,0.75913559300005 -79.0063,1.1692355930001 -78.7758,1.4078355930001 -79.0343,1.5908355930001 -78.975,1.720935593 -78.5458,1.804735592 -78.6805,2.165935592 -78.5582,2.4404355930001 -78.3033,2.6572355930001 -77.7977,2.646935593 -77.5921,2.8336355930001 -77.698,2.8924355930001 -77.6716,3.0535355920001 -77.0026,3.9104355920001 -77.2748,3.839335593 -77.1722,4.054235593 -77.2535,4.1248355930001 -77.359,3.9339355930001 -77.5285,4.2160355930001 -77.3016,4.6443355930001 -77.3785,5.448135592 -77.547,5.4884355930001 -77.233,5.795735592 -77.4778,6.1898355930001 -77.3301,6.5580355920001 -77.7013,6.846435593 -77.6875,7.0514355930001 -78.1824,7.5134355920001 -78.4458,8.062435593 -78.2821,8.081035593 -78.15,8.415535592 -78.0185,8.2296355930001 -77.7784,8.0995355920001 -77.7552,8.1080355930001 -77.7486,8.143935593 -78.0206,8.2615355930001 -78.088,8.4706355930001 -78.2515,8.3805355920001 -78.2102,8.428635593 -78.2161,8.533235592 -78.2318,8.5460355920001 -78.338,8.4124355930001 -78.414,8.5605355930001 -78.4198,8.348435593 -78.621,8.770135592 -79.176,9.0304355920001 -79.7194,8.906835593 -79.7536,8.593235593 -80.4837,8.205035593 -79.9942,7.5102355920001 -80.439,7.238335593 -80.8871,7.203135592 -81.0523,7.9230355920001 -81.2363,7.8902355930001 -81.2211,7.6072355920001 -81.5139,7.7031355930001 -81.7518,8.1986355930001 -82.1638,8.163235592 -82.2097,8.381535593 -82.8341,8.2939355930001 -82.9082,8.0371355930001 -83.1487,8.360835593 -83.1279,8.589135593 -83.4712,8.719135593 -83.2842,8.378135592 -83.5927,8.4561355920001 -83.7439,8.608035592 -83.4861,8.8512355930001 -83.6289,8.864735593 -83.6208,9.0355355930001 -84.2513,9.497435592 -84.6166,9.576935592 -84.7449,9.9627355920001 -84.849,9.964235592 -85.0788,10.163135592 -85.2112,10.174835593 -85.2368,10.237435593 -85.3089,10.316535593 -85.3167,10.323535593 -85.3692,10.322835593 -84.8697,9.8178355920001 -85.1105,9.552435593 -85.3021,9.801335592 -85.6728,9.9004355930001 -85.8745,10.351535593 -85.6591,10.761035593 -85.9506,10.888735592 -85.673,11.060035593 -87.687,12.903635593 -87.5771,13.083035593 -87.4692,12.931035593 -87.2586,12.963835593 -87.5167,13.255735593 -87.3748,13.393935592 -87.619,13.301435592 -87.5979,13.454535593 -87.734,13.347835593 -87.8128,13.455035592 -87.8996,13.149635592 -88.4662,13.151735593 -89.8093,13.519735593 -90.4745,13.884935593 -91.3015,13.947535592 -92.2134,14.515335593 -94.1367,16.226935593 -94.4386,16.240535593 -94.0681,16.089435593 -93.9625,15.996435593 -94.7242,16.195835593 -94.5781,16.318335593 -94.7929,16.266735593 -94.8631,16.431335593 -95.0628,16.269935593 -94.8143,16.267635593 -95.1014,16.237335593 -94.8773,16.233535593 -94.7591,16.204135593 -95.1561,16.194535593 -95.3861,16.002135593 -95.4098,16.452235593 -95.0873,16.936035593 -95.2255,17.166435593 -95.1043,18.650835593 -94.4395,18.147735593 -92.4069,18.671835593 -91.9724,18.720235593 -91.8662,18.498635592 -91.355,18.433535592 -89.512,19.078635592 -89.0512,18.986435592 -88.314,18.617835593 -88.3637,18.295535593 -88.0953,18.377335593 -88.0809,18.204535593 -88.2818,17.643435592 -88.2432,16.803035593 -88.9529,15.883535593 " /><polygon class="region" points="-44.5127,-2.2684644079999 -44.5024,-2.2578644069999 -44.5101,-2.263164407 -44.5127,-2.2684644079999 " /><polygon class="region" points="-92.106,16.734335592 -92.7756,17.195235593 -93.2017,17.108235592 -92.5495,16.569135593 -92.1582,16.569135593 -92.106,16.734335592 " /><polygon class="region" points="-84.4762,10.390435593 -84.4537,10.211735592 -83.1112,8.9807355930001 -82.3904,8.7702355920001 -83.7142,10.052935593 -84.4762,10.390435593 " /><polygon class="region" points="-91.1755,15.916935593 -91.6451,16.030035593 -91.8799,15.638635593 -92.8277,15.934335593 -93.1495,15.786535593 -91.3494,14.516935593 -90.2364,14.447335593 -89.4363,14.621235592 -90.0538,15.021235593 -89.8103,15.473435592 -91.1755,15.916935593 " /><polygon class="region" points="-85.1319,14.856035592 -87.2537,14.699535593 -87.6972,14.543035593 -88.4798,14.777835593 -89.1233,14.621235592 -87.8537,14.047335593 -87.3406,13.638635593 -86.758,13.542935593 -86.359,13.191435593 -84.5929,14.326735593 -84.8101,14.821235593 -85.1319,14.856035592 " /><polygon class="region" points="-83.6015,8.8985355930001 -83.5966,8.8931355930001 -83.6101,8.8950355920001 -83.6151,8.904635592 -83.6015,8.8985355930001 " /><polygon class="region" points="-60.996,10.834235593 -60.9937,10.131835593 -61.9238,10.045235593 -61.4558,10.296735592 -61.4914,10.637735593 -61.6623,10.714135593 -60.996,10.834235593 " />
		  </g>
		</svg>