<?xml version="1.0" encoding="UTF-8"?>
	<svg xmlns:xlink="http://www.w3.org/1999/xlink" 
	xmlns="http://www.w3.org/2000/svg" 
	width="360px" height="180px">
	   <style type="text/css">
		  <![CDATA[     
		  .region 
		  { 
			fill:blue; 
			opacity:0.4; 
			stroke:blue;
		  }
		  ]]>
	   </style>

	<circle id="dot" x="-2" y="-2" r="2" style="stroke:none; stroke-width:0; fill:black; opacity:0.7;"/>


	 <image x="0" y="0" width="360" height="180" xlink:href="map.jpg"/>

 
	 <g transform="translate(180,90) scale(1,-1)">   <use xlink:href="#dot" transform="translate(-84.019017,10.44215)" />   <use xlink:href="#dot" transform="translate(-61.19276,10.609076)" />   <use xlink:href="#dot" transform="translate(-85.041469,10.137786)" />   <use xlink:href="#dot" transform="translate(-84.338299,10.972808)" />   <use xlink:href="#dot" transform="translate(-84.154722,9.410556)" />   <use xlink:href="#dot" transform="translate(-69.208949,4.1263)" />   <use xlink:href="#dot" transform="translate(-69.208954,4.12744)" />   <use xlink:href="#dot" transform="translate(-70.21315,3.8048)" />   <use xlink:href="#dot" transform="translate(-72.165917,5.797111)" />   <use xlink:href="#dot" transform="translate(-72.165917,5.797111)" />   <use xlink:href="#dot" transform="translate(-72.165917,5.797111)" />   <use xlink:href="#dot" transform="translate(-71.778111,6.283528)" />   <use xlink:href="#dot" transform="translate(-71.616294,6.216944)" />   <use xlink:href="#dot" transform="translate(-71.616294,6.216944)" />   <use xlink:href="#dot" transform="translate(-95.102937,18.476221)" />   <use xlink:href="#dot" transform="translate(-71.772222,6.330167)" />   <use xlink:href="#dot" transform="translate(-84.141541,9.383694)" />   <use xlink:href="#dot" transform="translate(-72.195969,5.784056)" />   <use xlink:href="#dot" transform="translate(-72.114033,5.802956)" />   <use xlink:href="#dot" transform="translate(-72.195969,5.784056)" />   <use xlink:href="#dot" transform="translate(-72.099167,5.835864)" />   <use xlink:href="#dot" transform="translate(-72.099167,5.835864)" />   <use xlink:href="#dot" transform="translate(-72.099167,5.835864)" />   <use xlink:href="#dot" transform="translate(-71.901519,5.564825)" />   <use xlink:href="#dot" transform="translate(-72.195969,5.784056)" />   <use xlink:href="#dot" transform="translate(-72.636333,7.534417)" />   <use xlink:href="#dot" transform="translate(-74.737872,5.343025)" />   <use xlink:href="#dot" transform="translate(-72.693889,4.999167)" />   <use xlink:href="#dot" transform="translate(-75.810622,4.727606)" />   <use xlink:href="#dot" transform="translate(-72.633233,7.558291)" />   <use xlink:href="#dot" transform="translate(-74.737872,5.343025)" />   <use xlink:href="#dot" transform="translate(-59.03846,4.15098)" />   <use xlink:href="#dot" transform="translate(-74.907639,4.99975)" />   <use xlink:href="#dot" transform="translate(-74.907639,4.99975)" />   <use xlink:href="#dot" transform="translate(-83.38623,8.42347)" />   <use xlink:href="#dot" transform="translate(-76.173442,3.396753)" />   <use xlink:href="#dot" transform="translate(-76.12805,3.869506)" />   <use xlink:href="#dot" transform="translate(-75.341028,9.543389)" />   <use xlink:href="#dot" transform="translate(-75.341028,9.543389)" />   <use xlink:href="#dot" transform="translate(-74.737872,5.343025)" />   <use xlink:href="#dot" transform="translate(-75.346806,9.535111)" />   <use xlink:href="#dot" transform="translate(-75.341028,9.543389)" />   <use xlink:href="#dot" transform="translate(-76.0652,3.546531)" />   <use xlink:href="#dot" transform="translate(-76.043867,3.58455)" />   <use xlink:href="#dot" transform="translate(-82.857331,9.748346)" />   <use xlink:href="#dot" transform="translate(-76.290389,3.836806)" />   <use xlink:href="#dot" transform="translate(-79.696455,9.117497)" />   <use xlink:href="#dot" transform="translate(-79.698224,9.116574)" />   <use xlink:href="#dot" transform="translate(-76.290389,3.836806)" />   <use xlink:href="#dot" transform="translate(-76.298528,3.836444)" />   <use xlink:href="#dot" transform="translate(-76.298639,3.835583)" />   <use xlink:href="#dot" transform="translate(-76.290389,3.836806)" />   <use xlink:href="#dot" transform="translate(-76.297667,3.835972)" />   <use xlink:href="#dot" transform="translate(-76.298528,3.836444)" />   <use xlink:href="#dot" transform="translate(-76.296417,3.835722)" />   <use xlink:href="#dot" transform="translate(-79.696455,9.117497)" />   <use xlink:href="#dot" transform="translate(-76.294056,3.828833)" />   <use xlink:href="#dot" transform="translate(-76.290389,3.836806)" />   <use xlink:href="#dot" transform="translate(-76.290389,3.836806)" />   <use xlink:href="#dot" transform="translate(-76.290389,3.836806)" />   <use xlink:href="#dot" transform="translate(-76.290389,3.836806)" />   <use xlink:href="#dot" transform="translate(-76.290389,3.836806)" />   <use xlink:href="#dot" transform="translate(-76.290389,3.836806)" />   <use xlink:href="#dot" transform="translate(-70.984944,6.821167)" />   <use xlink:href="#dot" transform="translate(-70.984944,6.821167)" />   <use xlink:href="#dot" transform="translate(-70.0697,6.820306)" />   <use xlink:href="#dot" transform="translate(-70.024056,6.7835)" />   <use xlink:href="#dot" transform="translate(-70.0755,6.812111)" />   <use xlink:href="#dot" transform="translate(-70.0755,6.812111)" />   <use xlink:href="#dot" transform="translate(-70.9844,6.821111)" />   <use xlink:href="#dot" transform="translate(-61.063201,10.410989)" />   <use xlink:href="#dot" transform="translate(-61.079681,10.178585)" />   <use xlink:href="#dot" transform="translate(-74.352222,4.616111)" />   <use xlink:href="#dot" transform="translate(-70.984444,6.821111)" />   <use xlink:href="#dot" transform="translate(-71.069667,6.820306)" />   <use xlink:href="#dot" transform="translate(-74.737872,5.343025)" />   <use xlink:href="#dot" transform="translate(-76.297778,3.835889)" />   <use xlink:href="#dot" transform="translate(-76.298528,3.836444)" />   <use xlink:href="#dot" transform="translate(-74.737872,5.343025)" />   <use xlink:href="#dot" transform="translate(-76.297667,3.835972)" />   <use xlink:href="#dot" transform="translate(-76.298528,3.836444)" />   <use xlink:href="#dot" transform="translate(-76.296556,3.834889)" />   <use xlink:href="#dot" transform="translate(-76.296556,3.834889)" />   <use xlink:href="#dot" transform="translate(-76.298528,3.836444)" />   <use xlink:href="#dot" transform="translate(-76.290389,3.836806)" />   <use xlink:href="#dot" transform="translate(-76.296556,3.834889)" />   <use xlink:href="#dot" transform="translate(-76.296556,3.834889)" />   <use xlink:href="#dot" transform="translate(-76.296556,3.834889)" />   <use xlink:href="#dot" transform="translate(-76.296556,3.834889)" />   <use xlink:href="#dot" transform="translate(-86.267744,12.106015)" />   <use xlink:href="#dot" transform="translate(-72.397444,5.498972)" />   <use xlink:href="#dot" transform="translate(-72.477378,5.384875)" />   <use xlink:href="#dot" transform="translate(-74.981944,3.922778)" />   <use xlink:href="#dot" transform="translate(-74.737872,5.343025)" />   <use xlink:href="#dot" transform="translate(-59.33706,2.182021)" />   <use xlink:href="#dot" transform="translate(-74.737872,5.343025)" />   <use xlink:href="#dot" transform="translate(-72.636111,7.535167)" />   <use xlink:href="#dot" transform="translate(-73.65011,-4.89927)" />   <use xlink:href="#dot" transform="translate(-73.65011,-4.89927)" />   <use xlink:href="#dot" transform="translate(-73.65011,-4.89927)" />   <use xlink:href="#dot" transform="translate(-73.65011,-4.89927)" />   <use xlink:href="#dot" transform="translate(-75.52875,8.183667)" />   <use xlink:href="#dot" transform="translate(-75.52875,8.183667)" />   <use xlink:href="#dot" transform="translate(-73.65011,-4.89927)" />   <use xlink:href="#dot" transform="translate(-73.65011,-4.89927)" />   <use xlink:href="#dot" transform="translate(-76.102917,8.509972)" />   <use xlink:href="#dot" transform="translate(-55.62941,2.47705)" />   <use xlink:href="#dot" transform="translate(-77.7185,8.254)" />   <use xlink:href="#dot" transform="translate(-77.7185,8.254)" />   <use xlink:href="#dot" transform="translate(-77.7185,8.254)" />   <use xlink:href="#dot" transform="translate(-77.7185,8.254)" />   <use xlink:href="#dot" transform="translate(-77.716676,8.254644)" />   <use xlink:href="#dot" transform="translate(-77.7185,8.254)" />   <use xlink:href="#dot" transform="translate(-77.7185,8.254)" />   <use xlink:href="#dot" transform="translate(-77.7185,8.254)" />   <use xlink:href="#dot" transform="translate(-77.7185,8.254)" />   <use xlink:href="#dot" transform="translate(-77.7185,8.254)" />   <use xlink:href="#dot" transform="translate(-77.7185,8.254)" />   <use xlink:href="#dot" transform="translate(-77.7185,8.254)" />   <use xlink:href="#dot" transform="translate(-77.7185,8.254)" />   <use xlink:href="#dot" transform="translate(-77.7185,8.254)" />   <use xlink:href="#dot" transform="translate(-77.7185,8.254)" />   <use xlink:href="#dot" transform="translate(-77.7185,8.254)" />   <use xlink:href="#dot" transform="translate(-77.7185,8.254)" />   <use xlink:href="#dot" transform="translate(-77.7185,8.254)" />   <use xlink:href="#dot" transform="translate(-61.074188,10.173179)" />   <use xlink:href="#dot" transform="translate(-74.737872,5.343025)" />   <use xlink:href="#dot" transform="translate(-74.737872,5.343025)" />   <use xlink:href="#dot" transform="translate(-61.215162,10.621262)" />   <use xlink:href="#dot" transform="translate(-75.7,9.7)" />   <use xlink:href="#dot" transform="translate(-79.653292,9.065956)" />   <use xlink:href="#dot" transform="translate(-83.570964,8.540835)" />   <use xlink:href="#dot" transform="translate(-76.3966,-0.67807)" />   <use xlink:href="#dot" transform="translate(-72.904444,11.088611)" />   <use xlink:href="#dot" transform="translate(-72.904444,11.088611)" />   <use xlink:href="#dot" transform="translate(-76.102917,8.509972)" />   <use xlink:href="#dot" transform="translate(-76.102917,8.509972)" />   <use xlink:href="#dot" transform="translate(-75.52875,8.183667)" />   <use xlink:href="#dot" transform="translate(-76.102917,8.509972)" />   <use xlink:href="#dot" transform="translate(-76.102917,8.509972)" />   <use xlink:href="#dot" transform="translate(-85.798545,11.211643)" />   <use xlink:href="#dot" transform="translate(-76.102917,8.509972)" />   <use xlink:href="#dot" transform="translate(-75.52875,8.183667)" />   <use xlink:href="#dot" transform="translate(-73.219722,11.325)" />   <use xlink:href="#dot" transform="translate(-76.102917,8.509972)" />   <use xlink:href="#dot" transform="translate(-75.52875,8.183667)" />   <use xlink:href="#dot" transform="translate(-75.52875,8.183667)" />   <use xlink:href="#dot" transform="translate(-73.219722,11.325)" />   <use xlink:href="#dot" transform="translate(-75.52875,8.183667)" />   <use xlink:href="#dot" transform="translate(-54.57294,5.10522)" />   <use xlink:href="#dot" transform="translate(-54.57294,5.10522)" />   <use xlink:href="#dot" transform="translate(-54.51658,5.10357)" />   <use xlink:href="#dot" transform="translate(-54.51658,5.10357)" />   <use xlink:href="#dot" transform="translate(-54.57294,5.10522)" />   <use xlink:href="#dot" transform="translate(-84.522222,9.911111)" />   <use xlink:href="#dot" transform="translate(-76.102917,8.509972)" />   <use xlink:href="#dot" transform="translate(-75.7,9.7)" />   <use xlink:href="#dot" transform="translate(-75.548833,8.180083)" />   <use xlink:href="#dot" transform="translate(-75.548833,8.180083)" />   <use xlink:href="#dot" transform="translate(-76.18322,3.616676)" />   <use xlink:href="#dot" transform="translate(-76.57,5.667778)" />   <use xlink:href="#dot" transform="translate(-76.57,5.667778)" />   <use xlink:href="#dot" transform="translate(-88.7309,17.8143)" />   <use xlink:href="#dot" transform="translate(-76.627778,5.720278)" />   <use xlink:href="#dot" transform="translate(-76.627778,5.720278)" />   <use xlink:href="#dot" transform="translate(-76.627778,5.720278)" />   <use xlink:href="#dot" transform="translate(-76.627778,5.720278)" />   <use xlink:href="#dot" transform="translate(-76.627778,5.720278)" />   <use xlink:href="#dot" transform="translate(-76.627778,5.720278)" />   <use xlink:href="#dot" transform="translate(-76.627778,5.720278)" />   <use xlink:href="#dot" transform="translate(-76.627778,5.720278)" />   <use xlink:href="#dot" transform="translate(-76.627778,5.720278)" />   <use xlink:href="#dot" transform="translate(-76.627778,5.720278)" />   <use xlink:href="#dot" transform="translate(-76.627778,5.720278)" />   <use xlink:href="#dot" transform="translate(-76.627778,5.720278)" />   <use xlink:href="#dot" transform="translate(-76.627778,5.720278)" />   <use xlink:href="#dot" transform="translate(-76.627778,5.720278)" />   <use xlink:href="#dot" transform="translate(-76.627778,5.720278)" />   <use xlink:href="#dot" transform="translate(-76.627778,5.720278)" />   <use xlink:href="#dot" transform="translate(-76.627778,5.720278)" />   <use xlink:href="#dot" transform="translate(-76.627778,5.720278)" />   <use xlink:href="#dot" transform="translate(-74.975556,4.244722)" />   <use xlink:href="#dot" transform="translate(-76.627778,5.720278)" />   <use xlink:href="#dot" transform="translate(-76.627778,5.720278)" />   <use xlink:href="#dot" transform="translate(-76.627778,5.720278)" />   <use xlink:href="#dot" transform="translate(-76.57,5.667778)" />   <use xlink:href="#dot" transform="translate(-76.627778,5.720278)" />   <use xlink:href="#dot" transform="translate(-76.627778,5.720278)" />   <use xlink:href="#dot" transform="translate(-76.57,5.667778)" />   <use xlink:href="#dot" transform="translate(-76.627778,5.720278)" />   <use xlink:href="#dot" transform="translate(-76.627778,5.720278)" />   <use xlink:href="#dot" transform="translate(-76.627778,5.720278)" />   <use xlink:href="#dot" transform="translate(-76.627778,5.720278)" />   <use xlink:href="#dot" transform="translate(-76.627778,5.720278)" />   <use xlink:href="#dot" transform="translate(-74.975556,4.244722)" />   <use xlink:href="#dot" transform="translate(-76.627778,5.720278)" />   <use xlink:href="#dot" transform="translate(-76.627778,5.720278)" />   <use xlink:href="#dot" transform="translate(-76.627778,5.720278)" />   <use xlink:href="#dot" transform="translate(-76.627778,5.720278)" />   <use xlink:href="#dot" transform="translate(-76.627778,5.720278)" />   <use xlink:href="#dot" transform="translate(-76.627778,5.720278)" />   <use xlink:href="#dot" transform="translate(-74.975556,4.244722)" />   <use xlink:href="#dot" transform="translate(-76.627778,5.720278)" />   <use xlink:href="#dot" transform="translate(-74.975556,4.244722)" />   <use xlink:href="#dot" transform="translate(-76.627778,5.720278)" />   <use xlink:href="#dot" transform="translate(-76.627778,5.720278)" />   <use xlink:href="#dot" transform="translate(-76.627778,5.720278)" />   <use xlink:href="#dot" transform="translate(-76.627778,5.720278)" />   <use xlink:href="#dot" transform="translate(-76.627778,5.720278)" />   <use xlink:href="#dot" transform="translate(-76.627778,5.720278)" />   <use xlink:href="#dot" transform="translate(-76.627778,5.720278)" />   <use xlink:href="#dot" transform="translate(-76.627778,5.720278)" />   <use xlink:href="#dot" transform="translate(-76.627778,5.720278)" />   <use xlink:href="#dot" transform="translate(-74.975556,4.244722)" />   <use xlink:href="#dot" transform="translate(-76.627778,5.720278)" />   <use xlink:href="#dot" transform="translate(-76.627778,5.720278)" />   <use xlink:href="#dot" transform="translate(-76.627778,5.720278)" />   <use xlink:href="#dot" transform="translate(-76.627778,5.720278)" />   <use xlink:href="#dot" transform="translate(-76.627778,5.720278)" />   <use xlink:href="#dot" transform="translate(-76.627778,5.720278)" />   <use xlink:href="#dot" transform="translate(-76.627778,5.720278)" />   <use xlink:href="#dot" transform="translate(-76.627778,5.720278)" />   <use xlink:href="#dot" transform="translate(-76.57,5.667778)" />   <use xlink:href="#dot" transform="translate(-76.627778,5.720278)" />   <use xlink:href="#dot" transform="translate(-76.627778,5.720278)" />   <use xlink:href="#dot" transform="translate(-76.627778,5.720278)" />   <use xlink:href="#dot" transform="translate(-76.627778,5.720278)" />   <use xlink:href="#dot" transform="translate(-76.627778,5.720278)" />   <use xlink:href="#dot" transform="translate(-56.60715,2.28905)" />   <use xlink:href="#dot" transform="translate(-76.57,5.667778)" />   <use xlink:href="#dot" transform="translate(-56.60715,2.28905)" />   <use xlink:href="#dot" transform="translate(-84.035454,10.289152)" />   <use xlink:href="#dot" transform="translate(-76.94817,6.11866)" />   <use xlink:href="#dot" transform="translate(-76.94817,6.11866)" />   <use xlink:href="#dot" transform="translate(-75.351083,8.545639)" />   <use xlink:href="#dot" transform="translate(-75.351083,8.545639)" />   <use xlink:href="#dot" transform="translate(-75.351083,8.545639)" />   <use xlink:href="#dot" transform="translate(-75.351083,8.545639)" />   <use xlink:href="#dot" transform="translate(-83.512633,8.701433)" />   <use xlink:href="#dot" transform="translate(-73.8025,8.61861)" />   <use xlink:href="#dot" transform="translate(-84.136988,9.392308)" />   <use xlink:href="#dot" transform="translate(-73.232804,10.668705)" />   <use xlink:href="#dot" transform="translate(-56.68007,2.38294)" />   <use xlink:href="#dot" transform="translate(-75.548833,8.180083)" />   <use xlink:href="#dot" transform="translate(-75.548833,8.180083)" />   <use xlink:href="#dot" transform="translate(-80.148441,-2.244259)" />   <use xlink:href="#dot" transform="translate(-58.90933,4.24963)" />   <use xlink:href="#dot" transform="translate(-73.265072,10.57055)" />   <use xlink:href="#dot" transform="translate(-77.11203,-5.91067)" />   <use xlink:href="#dot" transform="translate(-77.11203,-5.91067)" />   <use xlink:href="#dot" transform="translate(-77.11203,-5.91067)" />   <use xlink:href="#dot" transform="translate(-76.97597,-6.07506)" />   <use xlink:href="#dot" transform="translate(-77.11203,-5.91067)" />   <use xlink:href="#dot" transform="translate(-77.11203,-5.91067)" />   <use xlink:href="#dot" transform="translate(-77.11203,-5.91067)" />   <use xlink:href="#dot" transform="translate(-77.11203,-5.91067)" />   <use xlink:href="#dot" transform="translate(-77.11203,-5.91067)" />   <use xlink:href="#dot" transform="translate(-77.11203,-5.91067)" />   <use xlink:href="#dot" transform="translate(-77.11203,-5.91067)" />   <use xlink:href="#dot" transform="translate(-76.65,5.5)" />   <use xlink:href="#dot" transform="translate(-76.65,5.5)" />   <use xlink:href="#dot" transform="translate(-74.81125,6.216472)" />   <use xlink:href="#dot" transform="translate(-73.622194,3.654417)" />   <use xlink:href="#dot" transform="translate(-76.627778,5.720278)" />   <use xlink:href="#dot" transform="translate(-84.1014,10.3563)" />   <use xlink:href="#dot" transform="translate(-77.609167,-1.075833)" />   <use xlink:href="#dot" transform="translate(-76.627778,5.720278)" />   <use xlink:href="#dot" transform="translate(-76.627778,5.720278)" />   <use xlink:href="#dot" transform="translate(-76.627778,5.720278)" />   <use xlink:href="#dot" transform="translate(-78.9575,-4.090556)" />   <use xlink:href="#dot" transform="translate(-76.627778,5.720278)" />   <use xlink:href="#dot" transform="translate(-76.627778,5.720278)" />   <use xlink:href="#dot" transform="translate(-76.627778,5.720278)" />   <use xlink:href="#dot" transform="translate(-76.627778,5.720278)" />   <use xlink:href="#dot" transform="translate(-92.073,17.483)" />   <use xlink:href="#dot" transform="translate(-92.073056,17.483056)" />   <use xlink:href="#dot" transform="translate(-75.388333,3.673056)" />   <use xlink:href="#dot" transform="translate(-75.456667,3.649444)" />   <use xlink:href="#dot" transform="translate(-75.545,3.739167)" />   <use xlink:href="#dot" transform="translate(-76.383333,5.3)" />   <use xlink:href="#dot" transform="translate(-76.383333,5.3)" />   <use xlink:href="#dot" transform="translate(-75.735444,5.058889)" />   <use xlink:href="#dot" transform="translate(-75.37,3.06)" />   <use xlink:href="#dot" transform="translate(-75.37,3.06)" />   <use xlink:href="#dot" transform="translate(-75.37,3.06)" />   <use xlink:href="#dot" transform="translate(-75.37,3.06)" />   <use xlink:href="#dot" transform="translate(-75.37,3.06)" />   <use xlink:href="#dot" transform="translate(-75.37,3.06)" />   <use xlink:href="#dot" transform="translate(-75.37,3.06)" />   <use xlink:href="#dot" transform="translate(-75.456667,3.649444)" />   <use xlink:href="#dot" transform="translate(-75.456667,3.649444)" />   <use xlink:href="#dot" transform="translate(-75.456667,3.649444)" />   <use xlink:href="#dot" transform="translate(-75.456667,3.649444)" />   <use xlink:href="#dot" transform="translate(-75.456667,3.649444)" />   <use xlink:href="#dot" transform="translate(-75.456667,3.649444)" />   <use xlink:href="#dot" transform="translate(-75.388333,3.673056)" />   <use xlink:href="#dot" transform="translate(-75.388333,3.673056)" />   <use xlink:href="#dot" transform="translate(-75.388333,3.673056)" />   <use xlink:href="#dot" transform="translate(-74.838333,3.522222)" />   <use xlink:href="#dot" transform="translate(-54.6,4.816667)" /><polygon class="region" points="-78.9575,-4.090556 -95.102937,18.476221 -88.7309,17.8143 -61.215162,10.621262 -61.19276,10.609076 -54.51658,5.10357 -54.6,4.816667 -55.62941,2.47705 -73.65011,-4.89927 -76.97597,-6.07506 -78.9575,-4.090556 " />
		  </g>
		</svg>