<?xml version="1.0" encoding="UTF-8"?>
	<svg xmlns:xlink="http://www.w3.org/1999/xlink" 
	xmlns="http://www.w3.org/2000/svg" 
	width="360px" height="180px">
	   <style type="text/css">
		  <![CDATA[     
		  .region 
		  { 
			fill:blue; 
			opacity:0.4; 
			stroke:blue;
		  }
		  ]]>
	   </style>

	<circle id="dot" x="-2" y="-2" r="2" style="stroke:none; stroke-width:0; fill:black; opacity:0.7;"/>


	 <image x="0" y="0" width="360" height="180" xlink:href="map.jpg"/>

 
	 <g transform="translate(180,90) scale(1,-1)"><polygon class="region" points="49.5705,-15.070064408 49.5775,-15.696164407 49.2483,-15.728764408 49.0873,-15.364064407 49.5705,-15.070064408 " /><polygon class="region" points="48.5157,-18.922564408 48.368720532,-18.713134722 48.641,-17.909064408 48.665132623,-17.993828494 48.5157,-18.922564408 " /><polygon class="region" points="47.8087,-20.615864407 47.4931,-20.547764407 47.5633,-20.310064408 47.8388,-20.364064408 47.8087,-20.615864407 " /><polygon class="region" points="48.5286,-19.025364408 48.5247,-19.254264407 48.4093,-19.101664408 48.0865,-19.205364407 48.1471,-19.070364407 48.5286,-19.025364408 " /><polygon class="region" points="48.8317,-17.664164408 48.8761,-17.549064407 49.0365,-17.683264408 48.6944,-17.759464407 48.7547,-17.453864407 48.8317,-17.664164408 " /><polygon class="region" points="48.6937,-16.564864408 48.6337,-16.468664407 48.8066,-16.230264407 48.8261,-16.302764407 48.6937,-16.564864408 " /><polygon class="region" points="49.2854,-16.655164407 49.3613,-16.762464407 49.171,-16.798064407 49.1243,-16.676064408 49.2854,-16.655164407 " /><polygon class="region" points="47.381789537,-21.995361014 47.271848648,-22.002408508 47.242249178,-21.878372632 47.384608534,-21.858639652 47.381789537,-21.995361014 " /><polygon class="region" points="49.822809068,-14.846923566 49.725174177,-14.85595365 49.676266752,-14.722595129 49.814799158,-14.744939118 49.822809068,-14.846923566 " /><polygon class="region" points="47.4989,-21.352164408 47.4027,-21.391364407 47.3324,-21.254964407 47.4503,-21.258864407 47.4989,-21.352164408 " /><polygon class="region" points="49.4563,-16.410464408 49.3116,-16.373964407 49.2724,-16.283364407 49.4401,-16.337464407 49.4563,-16.410464408 " /><polygon class="region" points="47.6336,-21.547164408 47.5741,-21.557964407 47.5471,-21.455264407 47.639,-21.449864407 47.6336,-21.547164408 " /><polygon class="region" points="48.9867,-18.547164408 48.8788,-18.521664408 48.8856,-18.463864407 48.9561,-18.464764407 48.9867,-18.547164408 " /><polygon class="region" points="47.7398,-22.997064407 47.706,-23.111864408 47.6247,-23.087364407 47.6474,-23.006164408 47.7398,-22.997064407 " /><polygon class="region" points="48.865,-18.149664407 48.9465,-18.190064408 48.8994,-18.258264407 48.8674,-18.205764407 48.865,-18.149664407 " /><polygon class="region" points="49.7077,-16.546864407 49.6517,-16.521264407 49.6955,-16.442064407 49.7179,-16.457364408 49.7077,-16.546864407 " /><polygon class="region" points="47.366885725,-23.308598169 47.300863578,-23.302626316 47.298541191,-23.281724833 47.366553956,-23.267126971 47.366885725,-23.308598169 " /><polygon class="region" points="47.9728,-21.417264407 47.9325,-21.429064407 47.9155,-21.409564408 47.9398,-21.388864408 47.9728,-21.417264407 " /><polygon class="region" points="49.2278,-17.917764407 49.2077,-17.907964407 49.2155,-17.879864408 49.2337,-17.897064407 49.2278,-17.917764407 " /><polygon class="region" points="47.504234422,-21.59751472 47.480815062,-21.59013253 47.484887994,-21.568495077 47.504234422,-21.573586242 47.504234422,-21.59751472 " /><polygon class="region" points="47.8628,-21.375664407 47.8436,-21.373964407 47.8425,-21.358264407 47.8587,-21.356564407 47.8628,-21.375664407 " /><polygon class="region" points="47.8982,-21.481964408 47.8707,-21.482764408 47.857,-21.471364407 47.8936,-21.475764407 47.8982,-21.481964408 " /><polygon class="region" points="47.216186405,-23.163060259 47.202230625,-23.162913357 47.20149611,-23.149398285 47.216039502,-23.149398285 47.216186405,-23.163060259 " /><polygon class="region" points="49.758853912,-15.508843422 49.759616852,-15.482437134 49.77142334,-15.477080345 49.773757934,-15.506222725 49.758853912,-15.508843422 " />
		  </g>
		</svg>