<?xml version="1.0" encoding="UTF-8"?>
	<svg xmlns:xlink="http://www.w3.org/1999/xlink" 
	xmlns="http://www.w3.org/2000/svg" 
	width="360px" height="180px">
	   <style type="text/css">
		  <![CDATA[     
		  .region 
		  { 
			fill:blue; 
			opacity:0.4; 
			stroke:blue;
		  }
		  ]]>
	   </style>

	<circle id="dot" x="-2" y="-2" r="2" style="stroke:none; stroke-width:0; fill:black; opacity:0.7;"/>


	 <image x="0" y="0" width="360" height="180" xlink:href="map.jpg"/>

 
	 <g transform="translate(180,90) scale(1,-1)"><polygon class="region" points="97.6818,18.155635593 98.596438814,17.345927038 99.585243006,17.22007817 99.295,15.723035592 99.5844,13.437135593 99.97125134,12.755169432 100.020235226,12.18991026 99.560136263,11.334496504 99.285063233,10.365027354 99.146232389,10.342847271 99.247404809,10.235036859 99.145990835,9.7428999310001 99.313294033,9.391270729 99.216469075,9.298750781 99.368161443,9.1905325170001 99.836736634,9.303480022 99.959871896,8.6083905200001 100.211087981,8.4486524610001 100.469622411,7.4051897250001 100.758348894,6.9922624870001 101.526021947,6.8652061060001 101.820193125,6.450002037 102.280656493,6.1963235440001 101.692158879,5.047523235 101.026206183,5.0299981630001 100.373675667,5.411955657 100.339233398,6.026297092 100.091109991,6.5484543800001 99.696918708,6.855755908 99.740171429,7.140284938 99.577204697,7.157546311 99.587129455,7.37196399 99.395412861,7.3070607810001 99.263431592,7.659565758 99.040244831,7.703552539 99.078006731,7.9320363570001 98.765182788,8.022017228 98.629938194,8.3802875260001 98.430544083,8.1358421050001 98.2819019,8.203957415 98.247439358,9.0071920940001 98.358723074,8.9835305030001 98.75616897,10.384414327 98.549376334,9.973170764 98.454667374,10.689433878 98.781532139,10.988687474 98.654801689,11.12694959 98.84051651,11.681183308 98.543600679,11.881782556 98.73979288,11.950294794 98.521912504,12.258293728 98.686584164,12.517163576 98.676214833,12.992306176 98.244507517,13.812783197 98.174819848,13.537251042 98.125274941,13.547139069 98.09507717,14.200374198 97.79175704,14.868323496 97.71791771,15.843354958 97.55820316,16.072606564 97.596746819,16.085087742 97.614280058,16.061065076 97.627678007,16.050387972 97.648004123,16.044222689 97.665350734,16.048639559 97.677222914,16.028339637 97.69689092,16.027452334 97.625336968,16.500031251 97.662086375,16.512289785 97.662407245,16.476493164 97.682252056,16.46551156 97.702515963,16.470583267 97.704421536,16.450145829 97.723198964,16.450181845 97.719849477,16.426814015 97.753920605,16.414070903 97.73549024,16.402332964 97.733375119,16.383313246 97.778411479,16.374581005 97.787422025,16.332733698 97.834586602,16.323562717 97.860076102,16.291796612 97.888731734,16.286201037 97.62139158,16.643257025 97.621499628,16.518654793 97.362937553,16.478974993 97.424040319,16.658360822 97.169266471,16.910737969 97.264548413,17.103551215 97.114266779,17.07776704 96.883224195,17.454091583 96.648779738,17.330288251 96.911087476,17.32145451 96.813249329,16.765849382 96.250773611,17.626006467 95.060436045,18.011115679 94.675326833,18.536264606 94.2108,19.915235593 93.801269913,22.073745138 94.222217028,23.614650168 94.7556,25.170635592 96.422,26.965235593 96.999541168,27.027747304 97.5756,26.837035593 97.873621031,26.304771665 97.856856417,25.763789807 96.7745,23.247935592 96.486,20.427935592 96.326,20.267835592 96.5619,19.070235593 97.6818,18.155635593 " /><polygon class="region" points="105.002,18.371635593 105.2781,17.806335593 105.6083,17.660535593 105.668650295,17.780444871 106.306167603,17.293193817 106.553413391,16.993333817 106.678886414,16.451944351 106.873863221,16.532054901 107.264089016,16.131724212 106.769,16.227135593 106.6863,16.028735593 106.9453,15.841335593 107.0886,15.290135593 107.3642,15.207435593 107.600825649,14.871124048 107.367721558,14.011305809 107.455306363,14.109640946 108.684852753,13.707176812 109.222343258,13.705664158 109.463575978,12.648243126 109.339394564,12.642714575 109.346159646,12.801565621 109.190894351,12.634094952 109.341939742,12.396860581 109.294586614,12.344906453 109.18070103,12.455622069 109.142712028,12.425225283 109.281514732,11.878915921 109.118672374,11.899880901 109.233925657,11.726030768 109.027714453,11.577846021 109.019530564,11.360163838 107.084019493,10.320300212 107.003057403,10.500003255 106.339,10.603335593 105.7107,11.722235593 105.3579,11.821435593 104.8894,11.639535593 105.1201,10.727535593 105.3653,10.538135593 105.4242,10.008635593 105.1888,9.283035593 104.794916585,8.7848447640001 104.85805363,9.718943036 105.076601979,10.011314778 104.741857562,10.22697298 104.60067206,10.143003193 104.245710744,10.57104341 103.860616974,10.657194297 103.608539752,10.502516787 103.490685547,10.62270822 103.712315686,10.871744488 103.551284541,11.167002779 103.424776623,10.891561514 103.122681251,10.87025543 103.136847638,11.346891678 102.5631,12.443435593 101.6236,13.083635592 101.6805,14.110935593 101.1187,14.416335593 101.432243015,14.825212193 105.2637,14.550135593 105.3653,15.566635593 104.5182,16.583235593 104.6199,17.294835593 103.965103837,18.030870956 104.265659419,18.281975544 105.002,18.371635593 " /><polygon class="region" points="108.2682,12.429435593 108.2351,12.082235593 107.706,11.701835592 107.7115,11.327035592 108.6209,11.508935593 108.7643,12.479035592 108.2682,12.429435593 " /><polygon class="region" points="106.1737,14.967635593 106.6808,14.741635593 106.8682,14.951135593 106.5926,15.472335593 106.306,15.540935592 106.0634,15.386535592 106.1737,14.967635593 " /><polygon class="region" points="104.767582572,10.520373139 104.863357544,10.521666527 104.894572063,10.541538055 104.888540698,10.540532827 104.767582572,10.520373139 " /><polygon class="region" points="107.519736224,12.306909326 107.518690561,12.324685597 107.507679807,12.318295942 107.519736224,12.306909326 " /><polygon class="region" points="104.574022597,10.500987429 104.58266449,10.506583213 104.583694458,10.516277313 104.574022597,10.500987429 " /><polygon class="region" points="104.556105242,10.472662551 104.543807983,10.453222274 104.552497864,10.463027954 104.556105242,10.472662551 " /><polygon class="region" points="104.480898336,10.427591914 104.480865315,10.427581299 104.480904205,10.427584829 104.480898336,10.427591914 " /><polygon class="region" points="99.7266,25.057535593 100.8758,23.992135593 101.5589,23.782635592 103.5743,23.618535593 105.7735,23.907635593 107.765,23.872635593 108.5328,23.280935593 108.5765,22.543735593 108.071622895,21.486388273 107.782950212,21.506521738 107.37110381,21.265139652 107.34398569,21.00139205 106.879165067,20.979631292 106.857123837,20.869752616 106.748817271,21.003252079 106.777913349,20.808532287 106.1705,21.492035593 105.7242,21.741435593 105.2648,21.688935593 105.2123,21.255735593 105.7654,20.577435592 105.6703,19.836235593 105.835965139,19.660105197 105.827563877,19.304640894 105.4331,18.921335593 105.8736,18.243635593 106.435300379,18.122168899 106.461082239,17.766442745 106.8224,17.091535592 107.816368188,16.290676951 108.02349447,16.34358977 108.160904294,16.085353209 108.323897512,16.140687078 108.292963955,15.960698573 108.941048602,15.240946289 109.288335462,13.752074035 108.684852753,13.707176812 107.455306363,14.109640946 107.367721558,14.011305809 107.600825649,14.871124048 108.1635,14.501935592 108.2902,14.193235592 108.4391,14.275935592 108.4942,14.650735592 108.0146,15.262535592 107.4635,15.626335593 107.4855,16.061735593 106.971389771,16.305778504 106.847305298,16.545972824 106.678886414,16.451944351 106.553413391,16.993333817 105.759025574,17.670665742 105.503753662,18.195943832 105.192359924,18.324138641 105.147308349,18.708555221 104.246,19.206635592 104.1934,19.640535593 104.7193,19.541935593 104.981109619,20.013166428 104.949333191,20.176555633 104.446502105,20.419625876 104.644607544,20.664194107 104.48747277,20.762948826 105.0283,20.712135593 103.6017,21.612735593 103.6215,21.816535593 103.8581,21.790235593 104.3512,21.270935593 104.7588,21.323535592 104.7128,21.711335593 103.9953,22.515935593 103.3484,22.808635593 102.5119,22.769635593 102.1015,22.515835593 101.739860534,22.497222901 101.546974182,22.248083115 101.76993063,21.837944215 101.7143,21.213435593 101.419383088,21.226345257 101.197639465,21.411693573 101.1572,21.803035593 100.257,21.533135593 99.950027466,21.813861847 99.970611572,22.052028656 99.2281,22.216835593 99.440170288,22.939861298 99.563529968,22.938667298 99.515693664,23.082056046 98.9914,23.190135593 98.855099921,23.481336759 98.880943299,24.15502739 97.5872,23.969935593 97.757888794,24.169944763 97.5585,24.494935593 97.723578518,24.958712401 98.674128323,25.818396497 98.910451837,25.808121561 99.7266,25.057535593 " /><polygon class="region" points="102.6206,20.310635593 102.0107,19.463435593 102.3157,19.361835592 102.4512,18.989035593 102.7421,18.727335593 103.2402,18.621535593 103.536,18.812135592 103.3463,19.024035593 104.0438,19.158535593 104.6537,18.684135592 104.689104101,18.340134225 104.265659419,18.281975544 103.965103837,18.030870956 103.3322,18.243635593 102.8239,17.836935592 102.0316,18.045335592 101.9292,16.156435593 101.0125,16.169835593 99.8909,17.491735593 99.585243006,17.22007817 98.596438814,17.345927038 98.298521685,17.743149878 99.6105,19.895135593 100.4116,20.295735592 101.533,20.034035592 101.9768,20.141235593 102.3834,20.547835592 102.4512,21.259435593 102.8578,20.886635593 102.6206,20.310635593 " />
		  </g>
		</svg>