<?xml version="1.0" encoding="UTF-8"?>
	<svg xmlns:xlink="http://www.w3.org/1999/xlink" 
	xmlns="http://www.w3.org/2000/svg" 
	width="360px" height="180px">
	   <style type="text/css">
		  <![CDATA[     
		  .region 
		  { 
			fill:blue; 
			opacity:0.4; 
			stroke:blue;
		  }
		  ]]>
	   </style>

	<circle id="dot" x="-2" y="-2" r="2" style="stroke:none; stroke-width:0; fill:black; opacity:0.7;"/>


	 <image x="0" y="0" width="360" height="180" xlink:href="map.jpg"/>

 
	 <g transform="translate(180,90) scale(1,-1)"><polygon class="region" points="108.892648877,-1.546818887 108.96726,-1.61104 108.82356,-1.6667 108.78699,-1.57792 108.892648877,-1.546818887 " /><polygon class="region" points="100.720526752,5.677213753 101.241999557,5.320378793 101.899528698,5.1834101480001 102.61629409,5.7947186800001 103.102310181,5.404828072 103.477333069,4.5484881400001 103.331916809,3.751719952 103.484802246,3.5063929560001 103.44367981,2.911092997 103.827560425,2.58170104 104.289123535,1.367800951 104.097343445,1.366234064 104.118759155,1.3996549840001 103.971122742,1.621412992 104.002983093,1.4368959670001 103.687393188,1.4628670220001 103.510780334,1.2627379890001 103.324829102,1.5709779260001 101.302207947,2.8386349680001 101.303138733,3.249197006 100.702583313,3.893965006 100.792762756,4.008574009 100.560943604,4.3069052700001 100.636573792,4.790272236 100.362030029,5.085587978 100.355015549,5.9498307850001 100.720526752,5.677213753 " /><polygon class="region" points="108.2703,4.08256 108.40795,3.86072 108.29806,3.65795 108.15546,3.62968 108.12138,3.7469 108.19317,3.78278 108.27241,3.70786 108.28085,3.71093 107.96833,4.00966 108.21577,4.23179 108.2703,4.08256 " /><polygon class="region" points="108.015799376,4.007413967 108.027186466,4.002554837 108.0303756,4.003565575 108.024395089,4.007413967 108.015799376,4.007413967 " /><polygon class="region" points="117.25328064,7.3546452520001 117.257377625,7.188163757 117.072166443,7.100236893 117.061859131,7.294754982 117.25328064,7.3546452520001 " /><polygon class="region" points="108.085776557,3.684639614 108.084699168,3.687435581 108.085725086,3.6909142650001 108.08713,3.68837 108.085776557,3.684639614 " /><polygon class="region" points="104.00777903,1.519775329 104.008167605,1.517249554 104.007523309,1.5260663620001 104.00777903,1.519775329 " /><polygon class="region" points="117.09527759,7.124484753 117.093406677,7.1269350050001 117.093984016,7.1277618820001 117.09527759,7.124484753 " /><polygon class="region" points="103.438293599,1.3279685860001 103.439052049,1.3249409430001 103.438435981,1.326360815 103.438293599,1.3279685860001 " /><polygon class="region" points="105.898668777,-1.5060193969999 106.28747,-2.4168 106.84496,-2.57681 106.59108,-2.89436 106.73694,-3.08587 105.945,-2.81295 105.75702,-2.14532 105.12762,-2.08741 105.38531,-1.60884 105.59067,-1.53005 105.79157,-1.81116 105.69167,-1.52971 105.898668777,-1.5060193969999 " /><polygon class="region" points="110.104639504,-2.678469724 110.10826,-2.74523 110.03027,-2.74399 110.08452,-2.68029 110.104639504,-2.678469724 " /><polygon class="region" points="103.503000254,0.70246084400003 103.41192,0.64255 103.37999,0.88181 103.49359,0.78382 103.503000254,0.70246084400003 " /><polygon class="region" points="103.428208117,0.83768783400006 103.431785094,0.83242172100006 103.422636915,0.84333746900006 103.42766585,0.83834356000006 103.428208117,0.83768783400006 " /><polygon class="region" points="103.472082528,0.80724141300004 103.47361322,0.80674877600006 103.465611181,0.81043833700005 103.472082528,0.80724141300004 " /><polygon class="region" points="103.422192077,0.85823559000005 103.42219127,0.85816109700005 103.421814059,0.86017369500007 103.42209973,0.85914776200002 103.422192077,0.85823559000005 " /><polygon class="region" points="107.814499558,-2.53769977 108.28822,-2.86311 107.97931,-3.269 107.85873,-3.05828 107.58404,-3.20304 107.62462,-2.60531 107.814499558,-2.53769977 " /><polygon class="region" points="107.844148593,-3.1137948919999 107.844758347,-3.117888836 107.841443262,-3.110038618 107.843327521,-3.111790668 107.844148593,-3.1137948919999 " /><polygon class="region" points="107.52438,-2.9441 107.525785403,-2.9460178429999 107.522884383,-2.9434876619999 107.52438,-2.9441 " /><polygon class="region" points="99.859832764,6.453220844 99.91305542,6.3309087750001 99.733192444,6.260962009 99.64528656,6.4320111270001 99.859832764,6.453220844 " /><polygon class="region" points="104.586809772,1.2213201980001 104.66599,1.03698 104.59381,0.80637 104.4161,0.96007 104.47302,0.97693 104.51405,1.04351 104.22229,1.06468 104.586809772,1.2213201980001 " /><polygon class="region" points="104.483602243,0.86700824800005 104.481634263,0.86607586600007 104.48559,0.86795 104.483602243,0.86700824800005 " /><polygon class="region" points="104.621753195,0.86880988600007 104.621711165,0.86502751200004 104.62135,0.86751 104.621753195,0.86880988600007 " /><polygon class="region" points="116.798919677,6.983416558 116.765830993,6.570833206 117.149024963,7.0085000990001 117.28930664,6.614999771 117.718833923,6.446944237 117.590248108,5.906166553 118.041221618,6.0336666110001 118.128196716,5.847027779 117.890724182,5.79333353 117.942474365,5.655749798 118.347579956,5.823444366 119.254470825,5.360277653 119.16608429,5.110416889 118.124916077,4.8787221910001 118.587776184,4.5084724430001 118.542831421,4.349444389 117.976997375,4.222444534 117.596359253,4.3936944010001 117.616943359,4.1606664660001 117.383026123,4.136000156 117.835830689,3.808277845 117.765861511,3.647416591 117.521446228,3.6817221640001 117.497695923,3.6012499340001 117.155502319,3.645027876 117.019447327,3.601972103 117.619941712,3.4958889480001 117.227363586,3.487138986 117.440551758,3.413888931 117.516998291,3.287472248 117.34905243,3.238583326 117.316108704,3.171666622 117.603332519,3.101916552 117.741607666,2.8258888720001 117.6301651,2.801638842 118.094306946,2.3056111340001 117.761528015,2.016916752 117.838806152,1.831694484 118.973114014,0.93861109000005 118.794197082,0.79708331800003 118.358444214,0.80580556400003 117.88508606,1.1219444270001 118.03099823,0.78805553900003 117.749389649,0.75816667100003 117.472442627,0.15877777300005 117.45300293,-0.39063888799995 117.634025573,-0.42597222299997 117.465446472,-0.53966665299993 117.590141296,-0.52125000899997 117.5652771,-0.66097223699995 117.444946289,-0.67216664599994 117.615386963,-0.78447222699998 117.451057434,-0.74774998499993 117.341392517,-0.91427779199995 117.345336914,-0.84566664699997 117.288024902,-0.75622224799997 116.900970459,-1.2735277419999 116.730751037,-1.056333303 116.759666443,-1.3686110969999 116.205749511,-1.7830277689999 116.448524475,-1.7749444249999 116.456413269,-2.0516943929999 116.318740845,-2.132277727 116.587303162,-2.1736943719999 116.57421875,-2.355361224 116.507415771,-2.574222327 116.298057556,-2.5233612059999 116.398971557,-2.567833423 116.269836426,-3.0136389739999 116.146224975,-2.799194336 116.101364136,-2.8639166359999 116.273391723,-3.134000063 115.967498779,-3.6088333129999 115.709304809,-3.731916666 114.627372742,-4.186879158 114.539176941,-3.348898173 114.471893311,-3.502603769 114.098083496,-3.275027752 113.631858826,-3.464055538 113.613136292,-3.1551666259999 113.344696045,-3.2833056449999 113.026947021,-2.937000037 113.032081604,-3.1444444659999 112.630943298,-3.410055638 112.23588562,-3.310361147 111.880836487,-3.570055485 111.785079956,-3.528027773 111.827468872,-3.049611092 111.700027466,-2.8041110039999 111.541000366,-3.040388822 111.413803101,-2.9021666049999 110.656944275,-3.074138879 110.539138794,-2.864583254 110.277832031,-3.0190832609999 110.124969483,-2.038916588 109.896415711,-1.8389166599999 110.081085206,-1.4114999769999 109.906608582,-1.209111095 109.988861084,-1.128027796 109.724304199,-0.92577779299995 109.283248901,-0.87533330899993 109.253501892,-0.65986108799996 109.458000183,-0.74852776499995 109.570503235,-0.74622219799994 109.118247986,-0.52419441899997 109.17124939,-0.23133332999993 109.049194336,-0.26388889499998 109.199996948,0.053833332000067 108.91166687,0.31786111000002 108.905250549,1.1542500260001 109.315864563,1.9310833220001 109.639808655,2.083333253 109.913887024,1.691888928 110.298332214,1.6533055310001 110.333137512,1.807999969 110.718307495,1.550638914 110.651275635,1.428861141 110.78388977,1.581166625 111.06150055,1.401583314 111.31741333,1.3249444960001 110.98652649,1.5688889030001 111.153388977,1.661833286 111.20046997,2.096805573 111.241638184,2.1317501070001 111.313552857,2.1013610360001 111.348808288,2.1314444540001 111.157165527,2.1560833460001 111.211639405,2.42266655 111.487030029,2.348361015 111.426582336,2.7028334140001 113.016998291,3.1741111280001 113.897857666,4.222972393 113.969139099,4.596000195 114.442558289,4.663972378 115.054862976,5.047166824 115.030609131,4.7985277180001 115.192558288,4.9666109080001 115.383583069,4.912250042 115.605194092,5.2279167180001 115.342971802,5.297888755 115.375,5.4043889050001 115.595169067,5.630777836 115.873306274,5.581444264 116.084083558,6.111111164 116.798919677,6.983416558 " /><polygon class="region" points="117.503885485,-0.46148922099996 117.50137,-0.45957 117.521791775,-0.44336818099993 117.515532027,-0.45090454299998 117.503885485,-0.46148922099996 " /><polygon class="region" points="110.293014821,1.6676001170001 110.287078857,1.6708669660001 110.282608205,1.678928034 110.288340546,1.6736598850001 110.293014821,1.6676001170001 " /><polygon class="region" points="118.004585782,2.3735398480001 118.010183857,2.3742047370001 118.01286,2.37225 118.00669,2.37222 118.00266,2.37457 118.000306992,2.378352459 118.004585782,2.3735398480001 " /><polygon class="region" points="117.526794692,-0.43678875899997 117.52394,-0.43376 117.52806096,-0.42960616699997 117.528323465,-0.43454961599997 117.526794692,-0.43678875899997 " /><polygon class="region" points="117.560440063,-0.51218999199995 117.555387811,-0.51027478499998 117.570446674,-0.51137348199995 117.560440063,-0.51218999199995 " /><polygon class="region" points="118.305884405,4.9601982190001 118.303649337,4.9588013040001 118.309926388,4.9690250470001 118.307585962,4.962124709 118.305884405,4.9601982190001 " /><polygon class="region" points="116.800422668,6.5665488240001 116.796562195,6.563436031 116.79485321,6.564354897 116.8007564,6.5693423590001 116.800422668,6.5665488240001 " /><polygon class="region" points="117.29779,-0.77897 117.293803052,-0.78585901199995 117.294969622,-0.77351120299994 117.29779,-0.77897 " /><polygon class="region" points="117.444095047,3.394704011 117.44186,3.39354 117.44529,3.40428 117.443365532,3.3979868910001 117.444095047,3.394704011 " /><polygon class="region" points="116.13672,-2.99008 116.134676596,-2.994865096 116.134567928,-2.984496051 116.135760467,-2.987590315 116.13672,-2.99008 " /><polygon class="region" points="116.761923701,6.5800842580001 116.762724547,6.579405276 116.765106201,6.5819120410001 116.759961664,6.58286517 116.761923701,6.5800842580001 " /><polygon class="region" points="109.1203,-0.16045 109.120164218,-0.16408782199994 109.118108994,-0.15285010599996 109.118208912,-0.15319668899997 109.1203,-0.16045 " /><polygon class="region" points="110.29296875,1.6750600340001 110.294335859,1.6696688660001 110.288597657,1.679457531 110.290168762,1.67897892 110.29296875,1.6750600340001 " /><polygon class="region" points="118.002600044,2.383089929 118.00365622,2.3813687530001 117.999948046,2.378929466 117.99911,2.38289 118.002600044,2.383089929 " /><polygon class="region" points="109.3914,-0.66132 109.395437879,-0.66687208299993 109.386040808,-0.65732893799998 109.3914,-0.66132 " /><polygon class="region" points="116.202973381,-2.940378875 116.193883527,-2.9357779919999 116.191961374,-2.9331709439999 116.19518,-2.9363 116.202973381,-2.940378875 " /><polygon class="region" points="117.291164641,-0.78398475299997 117.288857013,-0.79100585499998 117.291675726,-0.78055664899995 117.291164641,-0.78398475299997 " /><polygon class="region" points="118.44923,1.39073 118.44646,1.38746 118.445374011,1.387541449 118.44964435,1.3937140420001 118.44923,1.39073 " /><polygon class="region" points="116.387764411,-2.171419107 116.386490845,-2.1730868769999 116.390724074,-2.162404226 116.389956232,-2.1668178809999 116.387764411,-2.171419107 " /><polygon class="region" points="116.781286681,6.568547838 116.77999115,6.566460133 116.778285114,6.5701987040001 116.781286681,6.568547838 " /><polygon class="region" points="117.499390682,-0.61226213899994 117.499501665,-0.61720066499993 117.49852887,-0.60969966999994 117.499390682,-0.61226213899994 " /><polygon class="region" points="117.5086,-0.61982 117.50313,-0.62032 117.500112009,-0.61867249899996 117.509787769,-0.61780513399998 117.5086,-0.61982 " /><polygon class="region" points="117.930413823,1.0417426110001 117.93084,1.04058 117.92657653,1.041794963 117.928070502,1.0481351890001 117.930413823,1.0417426110001 " /><polygon class="region" points="116.772499084,6.581871033 116.770469666,6.580770016 116.769579614,6.583661905 116.771799464,6.5835658120001 116.772499084,6.581871033 " /><polygon class="region" points="116.726098001,-1.087185162 116.72755,-1.08496 116.728889324,-1.0861268789999 116.727628209,-1.086878788 116.726098001,-1.087185162 " /><polygon class="region" points="116.165024028,-2.906983232 116.170994599,-2.9127876479999 116.166690034,-2.9095307379999 116.165024028,-2.906983232 " /><polygon class="region" points="108.87122,0.70401 108.869363675,0.70428645200002 108.867864509,0.70520249200007 108.87106,0.70543 108.87122,0.70401 " /><polygon class="region" points="117.29939,-0.81497 117.298970875,-0.81691549099997 117.297203525,-0.81285367799995 117.29794,-0.81308 117.29939,-0.81497 " /><polygon class="region" points="116.12988775,-2.9931152299999 116.133841506,-2.994837026 116.13036,-2.99472 116.12988775,-2.9931152299999 " /><polygon class="region" points="117.257824779,-0.8808900399999 117.258035415,-0.88272956999992 117.259120024,-0.87059800599997 117.257824779,-0.8808900399999 " /><polygon class="region" points="116.78659801,6.5678022810001 116.786468506,6.566928864 116.783531189,6.5669460300001 116.783508767,6.5678918240001 116.78659801,6.5678022810001 " /><polygon class="region" points="116.178832617,-3.057959169 116.17488,-3.04923 116.174938475,-3.0482052969999 116.178882424,-3.0579433519999 116.178832617,-3.057959169 " /><polygon class="region" points="116.824867249,6.578446865 116.823646545,6.5765328410001 116.821929932,6.5769457820001 116.821887907,6.5778048780001 116.824867249,6.578446865 " /><polygon class="region" points="110.145326179,-2.630124537 110.146464827,-2.63210011 110.142991695,-2.628247092 110.14424,-2.62824 110.145326179,-2.630124537 " /><polygon class="region" points="109.25429,-0.59964 109.258683324,-0.60195227599996 109.256125907,-0.60137532899995 109.25429,-0.59964 " /><polygon class="region" points="118.339705971,4.33630736 118.336701635,4.3357396120001 118.33770752,4.3369560240001 118.339705971,4.33630736 " /><polygon class="region" points="117.45071,3.45388 117.452143685,3.4525017940001 117.448474653,3.4539619180001 117.45071,3.45388 " /><polygon class="region" points="117.366615235,-0.87151053499997 117.365334653,-0.87623486599995 117.36535,-0.87417 117.366615235,-0.87151053499997 " /><polygon class="region" points="117.521854412,-0.70614374599995 117.516113507,-0.70729192599992 117.52045,-0.70599 117.521854412,-0.70614374599995 " /><polygon class="region" points="116.728783625,-1.133909225 116.729335849,-1.1345918339999 116.727053337,-1.132601461 116.728034829,-1.133176997 116.728783625,-1.133909225 " /><polygon class="region" points="117.681956439,5.972644593 117.681724011,5.971792382 117.681688271,5.975755292 117.682098756,5.9742296360001 117.681956439,5.972644593 " /><polygon class="region" points="116.72886821,-1.091303146 116.72796048,-1.095172697 116.728136355,-1.092889628 116.72886821,-1.091303146 " /><polygon class="region" points="117.512420497,-0.36083276499994 117.510843211,-0.36279830499996 117.512590951,-0.35978166199993 117.512420497,-0.36083276499994 " /><polygon class="region" points="117.377404032,3.637384942 117.374615787,3.6366130280001 117.37595,3.63757 117.377404032,3.637384942 " /><polygon class="region" points="117.504133683,-0.60412552199995 117.503253905,-0.60427215199996 117.505271364,-0.60377488599994 117.504750718,-0.60397696399997 117.504133683,-0.60412552199995 " /><polygon class="region" points="116.740930338,-1.1468301259999 116.742322421,-1.1479929229999 116.7404,-1.14712 116.740930338,-1.1468301259999 " /><polygon class="region" points="117.472479668,-0.83065802399995 117.472458933,-0.83068715299993 117.473291947,-0.82805510699995 117.473084138,-0.82942414699994 117.472479668,-0.83065802399995 " /><polygon class="region" points="116.333680417,6.392590302 116.333129883,6.391894817 116.332476024,6.392414548 116.332970739,6.3925128390001 116.333680417,6.392590302 " /><polygon class="region" points="117.480627389,0.066180058000043 117.482683289,0.065792153000075 117.47998,0.06601 117.480627389,0.066180058000043 " /><polygon class="region" points="117.49911,-0.3834 117.498659849,-0.38382710599996 117.500691539,-0.38032035599997 117.49911,-0.3834 " /><polygon class="region" points="116.412215299,-2.2047899139999 116.40903,-2.20527 116.408938968,-2.2052561959999 116.410465215,-2.2048879449999 116.412215299,-2.2047899139999 " /><polygon class="region" points="118.334369164,4.332893373 118.334314815,4.332853238 118.335836852,4.334693832 118.335212887,4.333705416 118.334369164,4.332893373 " /><polygon class="region" points="118.477512784,4.5273719410001 118.476789079,4.5256096090001 118.476921082,4.526537895 118.477512784,4.5273719410001 " /><polygon class="region" points="117.927091651,1.0508054960001 117.927432805,1.049874829 117.926859472,1.0502527410001 117.927091651,1.0508054960001 " /><polygon class="region" points="117.566780026,3.1057395610001 117.566812056,3.105716489 117.565053124,3.106475028 117.565921364,3.1062131100001 117.566780026,3.1057395610001 " /><polygon class="region" points="117.924821084,1.0452990360001 117.924616692,1.044575384 117.92455,1.04467 117.924821084,1.0452990360001 " /><polygon class="region" points="116.736913842,-1.080574224 116.73697,-1.08097 116.736767647,-1.080879906 116.736913842,-1.080574224 " /><polygon class="region" points="116.73613,-1.07505 116.736218329,-1.075672509 116.736061232,-1.0750336419999 116.73613,-1.07505 " /><polygon class="region" points="116.276497037,-3.2217095739999 116.30704,-3.90921 116.09243,-4.08303 116.00974,-3.62353 116.276497037,-3.2217095739999 " /><polygon class="region" points="123.078871866,-4.3638646869999 123.21503,-4.82771 123.03179,-4.73646 122.92536,-5.16983 123.22168,-5.28345 122.65474,-5.70326 122.56235,-5.49464 122.81439,-5.21346 122.86473,-4.52009 123.078871866,-4.3638646869999 " /><polygon class="region" points="123.097698324,-4.788484863 123.09591808,-4.7881593279999 123.091941629,-4.7860955309999 123.102944551,-4.786889699 123.097698324,-4.788484863 " /><polygon class="region" points="123.191595994,-4.633913019 123.190982432,-4.635485295 123.191528373,-4.6304383039999 123.191905125,-4.632165755 123.191595994,-4.633913019 " /><polygon class="region" points="123.08442136,-4.7855842989999 123.083809318,-4.7855590639999 123.083292333,-4.785471243 123.084739546,-4.7855756989999 123.08442136,-4.7855842989999 " /><polygon class="region" points="104.603578573,-0.018978839999932 104.7487,-0.19552 104.99449,-0.31033 104.42494,-0.24135 104.603578573,-0.018978839999932 " /><polygon class="region" points="109.238349915,-1.2380700059999 109.22244,-1.19642 109.26105,-1.17902 109.2699,-1.21032 109.238349915,-1.2380700059999 " /><polygon class="region" points="109.269782951,-1.201769874 109.26801,-1.19987 109.268699147,-1.1977583369999 109.271224625,-1.2017084349999 109.269782951,-1.201769874 " /><polygon class="region" points="109.250771825,-1.2292713379999 109.248972967,-1.2332438289999 109.24879,-1.23129 109.250771825,-1.2292713379999 " /><polygon class="region" points="100.311073303,5.460743904 100.287918091,5.262320995 100.185386658,5.272118092 100.181678772,5.475176811 100.311073303,5.460743904 " /><polygon class="region" points="103.860313416,1.44256103 103.958213806,1.308238983 103.639396667,1.3263790610001 103.716957092,1.4484360220001 103.860313416,1.44256103 " /><polygon class="region" points="103.81509022,1.2564297600001 103.812874785,1.255812803 103.813667297,1.256689072 103.81509022,1.2564297600001 " /><polygon class="region" points="98.516090371,3.930210162 99.75997,3.17225 100.12893,2.52239 100.21529,2.71017 100.43611,2.27384 100.91322,1.84957 100.77016,2.22425 101.0466,2.28988 101.40334,1.70708 101.76202,1.66716 102.1575,1.36793 102.40549,0.81625 102.92201,0.70652 103.10973,0.44614 102.69765,0.21548 103.3339,0.54329 103.73911,0.26765 103.81091,0.00442 103.43681,-0.20343 103.77139,-0.34709 103.41597,-0.52702 103.37843,-0.73212 103.74771,-1.01223 104.37208,-1.0275 104.4581,-1.93581 104.5496,-1.86087 104.86694,-2.0746 104.6336,-2.38914 104.72092,-2.58566 104.8517,-2.29236 105.61098,-2.39545 105.80421,-2.9102 106.05224,-3.0067 106.08448,-3.23301 105.81512,-3.63827 105.95705,-3.83916 105.80881,-4.14063 105.91283,-4.93631 105.72628,-5.90222 105.28799,-5.44385 105.16635,-5.80609 104.52685,-5.5249 104.72855,-5.92711 104.57118,-5.94226 103.7228,-4.96972 102.28489,-3.97934 102.21605,-3.67095 101.60768,-3.23975 100.8867,-2.33313 100.84946,-1.91444 100.39291,-1.2733 100.33392,-0.87754 99.73325,-0.03655 99.13891,0.25174 98.71715,1.55844 98.79923,1.72006 97.76008,2.26637 97.60357,2.86976 96.87305,3.68717 96.49667,3.75137 95.53869,4.64726 95.18967,5.52278 95.61318,5.6266 96.38824,5.21485 97.50126,5.25278 97.90357,4.88458 97.96084,4.52745 98.28915,4.42182 98.14602,4.07776 98.516090371,3.930210162 " /><polygon class="region" points="98.53079,3.93665 98.52776,3.93804 98.522695474,3.938035295 98.536422989,3.939103362 98.53079,3.93665 " /><polygon class="region" points="98.55134,3.94818 98.546673899,3.9479520300001 98.558663306,3.952256822 98.555050527,3.950245619 98.55134,3.94818 " /><polygon class="region" points="100.78276,2.24194 100.779482779,2.239918588 100.787508924,2.250720728 100.785324496,2.246681736 100.78276,2.24194 " /><polygon class="region" points="103.053034416,0.53132301100004 103.053664219,0.53073176000004 103.061517026,0.52179580400002 103.05398,0.52898 103.053034416,0.53132301100004 " /><polygon class="region" points="99.287194399,0.21899540400005 99.283700659,0.21620041200004 99.28879624,0.22127097000004 99.287194399,0.21899540400005 " /><polygon class="region" points="97.579824898,5.155290252 97.580369855,5.1545571350001 97.582829952,5.150434768 97.57833709,5.1563942 97.579824898,5.155290252 " /><polygon class="region" points="98.178303929,4.137464573 98.177663911,4.132405611 98.17663,4.13554 98.178303929,4.137464573 " /><polygon class="region" points="100.79582,2.26077 100.791010456,2.2554795020001 100.796290968,2.2618073630001 100.79582,2.26077 " /><polygon class="region" points="100.780219556,2.1487124180001 100.781984419,2.141380849 100.78221676,2.1404156620001 100.780934107,2.143860822 100.780219556,2.1487124180001 " /><polygon class="region" points="100.94248,1.85236 100.93906983,1.8505057200001 100.942924567,1.85374095 100.94248,1.85236 " /><polygon class="region" points="103.16154,0.40759 103.161266135,0.40742408200003 103.1697,0.41778 103.169699708,0.41777963600003 103.16154,0.40759 " /><polygon class="region" points="103.483118249,-0.20955261299997 103.487657873,-0.20914547199993 103.48479,-0.20984 103.483118249,-0.20955261299997 " /><polygon class="region" points="100.117493462,2.59651417 100.11801,2.59507 100.119063142,2.5885282200001 100.117493462,2.59651417 " /><polygon class="region" points="100.893683288,1.9153051160001 100.894197935,1.9116381850001 100.894464018,1.9107887600001 100.8937,1.91224 100.893683288,1.9153051160001 " /><polygon class="region" points="98.516817993,3.93836194 98.51718611,3.938030176 98.516229278,3.9387637830001 98.516501254,3.9385951900001 98.516817993,3.93836194 " /><polygon class="region" points="100.97621,2.29832 100.976476375,2.298455728 100.976839633,2.2983243370001 100.97621,2.29832 " /><polygon class="region" points="119.626276646,-4.183973975 120.385696566,-4.7639544859999 120.26125,-5.14758 120.46577,-5.62193 119.92924,-5.54901 119.69823,-5.70501 119.42287,-5.58476 119.35038,-5.32703 119.626276646,-4.183973975 " /><polygon class="region" points="119.856119918,-0.88745445999996 120.043344968,-0.91983749699995 120.401685096,-1.471304666 120.4567874,-1.858443098 120.261351576,-2.1366769099999 119.981558508,-1.942748222 119.486115459,-1.144224145 119.7626358,-0.78185169499994 119.856119918,-0.88745445999996 " /><polygon class="region" points="120.852174291,18.647510907 121.898948669,18.268405914 122.223106384,18.522405624 122.338020325,18.30818367 122.138587952,17.792222977 122.249153137,17.365211487 122.519073486,17.130395889 122.461013794,16.866703033 122.242362976,16.309001923 122.051063538,16.064857483 122.14050293,16.26379776 121.552307129,15.897987366 121.638633728,15.718857765 121.371566772,15.319087029 121.733856201,14.695251465 121.604156494,14.662299156 121.738136292,14.163533211 122.230712891,13.89511013 122.321037292,14.020027161 122.197471619,14.085529327 122.163673401,14.161832809 122.267997742,14.244814873 122.34034729,14.110100746 122.413566589,14.315103531 122.681587219,14.343827248 123.042800903,14.103838921 123.113189697,13.733111382 123.312797546,13.789154053 123.227050781,13.997655869 123.337997437,14.106192589 123.425323486,13.922703743 123.939041138,13.797650337 123.594322205,13.72784996 123.530693054,13.56992054 123.864936829,13.2392416 123.75554657,13.064322472 124.190422058,13.066122055 124.081703186,12.538625717 123.793022156,12.836731911 124.029029846,12.969950676 123.736129761,12.845384598 123.318099976,13.009623528 123.190940857,13.429154396 122.533592224,13.964295387 122.409492493,13.960648537 122.676452637,13.378011703 122.596389771,13.159653664 122.397438049,13.523773193 121.75567627,13.96817112 121.287567139,13.596598625 121.035758972,13.633488655 121.007347107,13.782838821 120.887138367,13.692697525 120.876052856,13.905524254 120.719963074,13.932657242 120.658203125,13.770887375 120.586357117,14.216673851 120.987770081,14.493170738 120.940116882,14.673701286 120.599441528,14.902620316 120.492019653,14.40724659 120.246742249,14.691993713 120.297897339,14.826820374 120.084259033,14.785651207 119.776489258,16.284231186 119.924301147,16.381523132 119.899749756,16.234886169 120.172401428,16.0291996 120.422157288,16.163211823 120.279823303,16.614179611 120.474533081,17.387687683 120.348251343,17.684001923 120.567192078,18.499933243 120.852174291,18.647510907 " /><polygon class="region" points="125.470787048,9.800549507 125.959869385,9.487041473 126.036346436,9.241518021 126.211456299,9.3092546460001 126.160362244,9.106889725 126.336982727,8.8439960480001 126.087188721,8.612478256 126.399597168,8.497382164 126.358169556,7.88906002 126.572288513,7.72343111 126.601539612,7.2866878510001 126.281089783,6.931810856 126.347846985,6.8046150210001 126.152038574,6.904820919 126.255592346,6.7559838290001 126.18863678,6.2738728520001 125.853591919,7.356632233 125.651046753,7.2434501650001 125.370117187,6.722902775 125.712890625,6.106777191 125.406356812,5.5676188470001 125.171417236,5.8008861540001 125.258666992,6.093041897 124.923820496,5.8589930530001 124.053863525,6.375747204 123.956466675,6.9111161230001 124.255966187,7.375099182 123.673591614,7.8190321920001 123.427482605,7.8152742390001 123.409683228,7.3585882190001 123.117492676,7.5133748050001 123.122337341,7.758924961 123.011962891,7.473567009 122.814163208,7.435070992 122.851280212,7.7163438800001 122.610549927,7.7677059170001 122.155487061,6.9159379010001 121.928283691,6.9711031910001 122.227416992,7.9631247520001 122.917556763,8.148991585 123.027313232,8.4852724080001 123.307579041,8.527259827 123.385986328,8.7253971100001 123.842887878,8.4270038600001 123.869056702,8.158064842 123.665847778,8.027198792 123.667052809,7.9593781150001 124.230278015,8.2186489110001 124.383239746,8.5932073590001 124.751091003,8.500414848 124.803909302,9.0034313200001 125.097167969,8.826817513 125.206268311,9.0955638890001 125.518493652,9.011099815 125.470787048,9.800549507 " /><polygon class="region" points="123.221641541,10.995106697 123.567642212,10.796236038 123.136039734,9.8346452710001 123.29662323,9.23373127 123.018836975,9.036670685 122.38054657,9.8383007050001 122.863540649,10.091980934 122.795722961,10.526315689 122.952842712,10.89415741 123.221641541,10.995106697 " /><polygon class="region" points="124.966400146,12.571840286 125.183403015,12.561411858 125.518478394,12.194973946 125.444908142,11.59937191 125.634429932,11.35624218 125.533119202,11.199327469 125.658432007,11.207544327 125.755271912,11.016815186 125.661277771,11.143485069 125.234863281,11.087241173 124.979232788,11.287563324 124.822692871,11.518844604 125.04296875,11.754706383 124.418800354,12.162676811 124.262901306,12.550964355 124.966400146,12.571840286 " /><polygon class="region" points="121.987007141,11.915369987 122.592750549,11.508828163 122.826873779,11.614280701 122.884277344,11.430269241 123.150917053,11.600738525 123.167579651,11.471209526 123.127357483,11.172019005 122.781890869,10.985882759 122.73235321,10.785258293 122.210159302,10.637114525 121.963493347,10.417267799 122.099662781,11.704909325 121.848648071,11.772250175 121.987007141,11.915369987 " /><polygon class="region" points="119.476257324,11.426931381 119.566490173,11.293823242 119.485931396,10.879500389 119.594390869,10.831454277 119.704330444,10.498609543 119.320716858,10.311061859 119.1980896,10.049163818 118.749526978,9.9272079470001 118.758880615,9.683146477 118.489303589,9.295677185 117.175559998,8.335103035 117.633132935,9.049328804 118.123138428,9.3431892400001 118.756729126,10.130231857 118.806732178,10.028420448 118.98853302,10.409880638 119.251831055,10.483074188 119.342933655,10.72641468 119.209793091,10.849290848 119.222633362,10.953877449 119.458358765,10.721940041 119.301010132,11.008645058 119.411651611,11.047211647 119.476257324,11.426931381 " /><polygon class="region" points="120.447357178,13.523096085 120.986816406,13.522148132 121.54602112,13.127632573 121.55847168,12.617836952 121.395767212,12.288785934 121.093208313,12.269442558 120.689331055,13.135760307 120.307022095,13.421620369 120.447357178,13.523096085 " /><polygon class="region" points="124.063346863,11.281053543 124.02028656,10.387190819 123.644042969,10.081241608 123.304496765,9.4209003450001 123.374450684,9.991565704 124.063346863,11.281053543 " /><polygon class="region" points="124.306232815,10.165272203 124.568069458,10.027519226 124.579681396,9.7337274550001 123.85887146,9.6403875350001 123.86971283,9.914777756 124.306232815,10.165272203 " /><polygon class="region" points="124.228996277,14.069467545 124.421890259,13.795808792 124.2057724,13.5179739 124.024330139,13.663463593 124.228996277,14.069467545 " /><polygon class="region" points="122.07383728,6.745044708 122.325149536,6.620943069 121.95867157,6.40404892 121.792457581,6.6275348660001 122.07383728,6.745044708 " /><polygon class="region" points="119.927932739,12.293469429 120.173423767,12.115264893 120.216163635,12.222413063 120.336433411,11.992655754 119.979942322,12.005162239 119.845832825,12.166804314 119.927932739,12.293469429 " /><polygon class="region" points="122.72020432,10.689311768 122.667541504,10.477246284 122.516296387,10.410999298 122.561782837,10.668746948 122.72020432,10.689311768 " /><polygon class="region" points="122.567481995,12.498729706 122.697731018,12.398896217 122.632530212,12.26832962 122.422889709,12.43812561 122.567481995,12.498729706 " /><polygon class="region" points="119.910059281,11.972914804 120.073181152,11.86452961 119.955917358,11.662281036 119.844810486,11.952692032 119.910059281,11.972914804 " /><polygon class="region" points="123.630493164,9.301165581 123.704612732,9.146988869 123.562599182,9.100821495 123.455192566,9.1913299560001 123.630493164,9.301165581 " /><polygon class="region" points="124.719642639,9.2572155 124.784263611,9.2001323700001 124.780937195,9.0794267650001 124.632926941,9.183161736 124.719642639,9.2572155 " /><polygon class="region" points="124.042098999,10.323641777 123.983062744,10.259412766 123.936500549,10.249580383 123.938537598,10.307788849 124.042098999,10.323641777 " /><polygon class="region" points="119.595154291,11.087082064 119.622261047,11.087103844 119.641906738,11.02111721 119.631538391,10.997361183 119.595154291,11.087082064 " /><polygon class="region" points="119.603111267,11.193149567 119.625137329,11.165848732 119.56703186,11.137046814 119.559837341,11.1766119 119.603111267,11.193149567 " /><polygon class="region" points="119.303092067,11.016080653 119.287193298,10.983937263 119.291351318,10.948738098 119.26133728,10.981951714 119.303092067,11.016080653 " /><polygon class="region" points="121.970205033,6.7127567630001 121.94078064,6.727717876 121.980003357,6.7536292080001 121.990158081,6.7417159080001 121.970205033,6.7127567630001 " /><polygon class="region" points="119.353912354,11.244668961 119.377326965,11.227064133 119.382606506,11.198314667 119.342201233,11.214447975 119.353912354,11.244668961 " /><polygon class="region" points="121.926292419,11.990670204 121.949996948,11.955580711 121.945289612,11.944318771 121.906433105,11.991898537 121.926292419,11.990670204 " /><polygon class="region" points="125.579376221,11.108372688 125.5829595,11.106443918 125.578601749,11.104442297 125.573328423,11.107474993 125.579376221,11.108372688 " /><polygon class="region" points="122.911906753,11.510381506 122.910873413,11.510839462 122.900931119,11.521733024 122.90681079,11.517761239 122.911906753,11.510381506 " /><polygon class="region" points="125.023369255,12.554765335 125.023999291,12.549790676 125.022589567,12.561627656 125.023369255,12.554765335 " /><polygon class="region" points="122.900000614,11.52886508 122.900646643,11.522044719 122.897277832,11.525735855 122.900000614,11.52886508 " /><polygon class="region" points="121.794882885,6.6092265190001 121.791126929,6.608266934 121.79697136,6.6141416720001 121.796791077,6.6097140310001 121.794882885,6.6092265190001 " /><polygon class="region" points="121.37942088,12.292115804 121.376722578,12.292355664 121.374745849,12.293653796 121.37789917,12.296051979 121.37942088,12.292115804 " /><polygon class="region" points="117.230176102,8.3647651270001 117.227474063,8.364359822 117.234665783,8.3678490200001 117.232103784,8.36553229 117.230176102,8.3647651270001 " /><polygon class="region" points="125.544861433,9.7743394350001 125.543352328,9.7731992290001 125.542510986,9.777606964 125.546619803,9.77735747 125.544861433,9.7743394350001 " /><polygon class="region" points="124.907018198,12.56730825 124.91128874,12.564057512 124.906562805,12.564430237 124.907018198,12.56730825 " /><polygon class="region" points="119.948588717,11.959395355 119.951317683,11.957757967 119.942715869,11.959002763 119.945899761,11.960045813 119.948588717,11.959395355 " /><polygon class="region" points="120.408823724,17.508746983 120.401251447,17.505024081 120.410060237,17.509354914 120.408823724,17.508746983 " /><polygon class="region" points="125.077700477,11.287868674 125.074347185,11.287356365 125.085029634,11.291253244 125.078933621,11.288238151 125.077700477,11.287868674 " /><polygon class="region" points="125.06905365,12.575139046 125.068169102,12.573848397 125.067110582,12.580757757 125.069099426,12.577900887 125.06905365,12.575139046 " /><polygon class="region" points="119.84471212,11.960024245 119.840312248,11.951751012 119.840728183,11.954822621 119.84471212,11.960024245 " /><polygon class="region" points="120.541988282,14.804089342 120.541221619,14.805326462 120.5414505,14.808545113 120.543375447,14.808343048 120.541988282,14.804089342 " /><polygon class="region" points="125.097505583,11.279997559 125.096721596,11.281936952 125.097343281,11.285927262 125.098297119,11.283231735 125.097505583,11.279997559 " /><polygon class="region" points="121.785478004,13.939565297 121.781303721,13.938543241 121.778969089,13.93888551 121.785263062,13.940465927 121.785478004,13.939565297 " /><polygon class="region" points="122.929827576,14.197519677 122.925216675,14.195831299 122.923923667,14.196302309 122.926997417,14.197647586 122.929827576,14.197519677 " /><polygon class="region" points="125.576759568,9.745578102 125.572986298,9.7419763790001 125.575363159,9.7456207280001 125.576759568,9.745578102 " /><polygon class="region" points="122.920039876,14.198015496 122.918716431,14.207611084 122.918790805,14.20811068 122.920392587,14.200425411 122.920039876,14.198015496 " /><polygon class="region" points="125.712992774,9.590299314 125.707778931,9.588460922 125.707329973,9.5894526110001 125.715301358,9.5911133170001 125.712992774,9.590299314 " /><polygon class="region" points="125.558984058,9.7694697150001 125.559122231,9.769335858 125.548806169,9.771795151 125.556786368,9.7706489760001 125.558984058,9.7694697150001 " /><polygon class="region" points="123.853470663,13.829354093 123.850646973,13.826455116 123.849725578,13.827579725 123.851354516,13.82888878 123.853470663,13.829354093 " /><polygon class="region" points="125.707364026,9.594437213 125.706651706,9.5909508130001 125.70719313,9.597114047 125.707364026,9.594437213 " /><polygon class="region" points="125.603796355,9.73210615 125.603889465,9.731211662 125.600759185,9.732656863 125.603631623,9.7336887120001 125.603796355,9.73210615 " /><polygon class="region" points="119.34567619,10.878199957 119.343848312,10.876408625 119.34464306,10.87961246 119.34567619,10.878199957 " /><polygon class="region" points="123.864416715,13.2442938 123.863792419,13.242476463 123.861057489,13.245611981 123.864416715,13.2442938 " /><polygon class="region" points="125.096740723,11.287630081 125.091899359,11.288432077 125.089468173,11.289880054 125.096740723,11.287630081 " /><polygon class="region" points="124.453712463,12.54372406 124.449318787,12.541533568 124.454353242,12.545436718 124.453712463,12.54372406 " /><polygon class="region" points="125.572971488,9.7412173610001 125.576388856,9.7391043220001 125.572937012,9.7394504550001 125.572971488,9.7412173610001 " /><polygon class="region" points="120.595756531,14.823536873 120.596759226,14.819013352 120.594598473,14.823009632 120.595756531,14.823536873 " /><polygon class="region" points="119.230987855,10.119628699 119.230226904,10.118106837 119.231511724,10.122347152 119.231374441,10.120753667 119.230987855,10.119628699 " /><polygon class="region" points="124.715637207,11.962997437 124.715318912,11.962860158 124.716326833,11.968061473 124.716850281,11.966433525 124.715637207,11.962997437 " /><polygon class="region" points="123.873503836,13.227857361 123.873487052,13.227786846 123.871462732,13.235133128 123.873456036,13.230005279 123.873503836,13.227857361 " /><polygon class="region" points="120.245037605,12.169465739 120.244132996,12.172054291 120.244315658,12.174016742 120.245140708,12.171323127 120.245037605,12.169465739 " /><polygon class="region" points="119.922739204,16.306681892 119.92090265,16.302991283 119.921401978,16.306476593 119.922739204,16.306681892 " /><polygon class="region" points="123.905882635,12.863228726 123.906228229,12.86257976 123.902583051,12.865592192 123.904523845,12.864780384 123.905882635,12.863228726 " /><polygon class="region" points="123.859080956,9.6352714070001 123.863141669,9.6325573560001 123.854917925,9.6380538440001 123.859080956,9.6352714070001 " /><polygon class="region" points="124.836021423,11.818310738 124.837480566,11.815095236 124.836000383,11.816915169 124.836021423,11.818310738 " /><polygon class="region" points="121.797096252,6.617208958 121.79697733,6.614288296 121.795743837,6.618845294 121.797096252,6.617208958 " /><polygon class="region" points="120.955738179,13.527539421 120.955091517,13.527021996 120.955766024,13.529436377 120.956497192,13.528146744 120.955738179,13.527539421 " /><polygon class="region" points="119.230201721,10.538949966 119.23051923,10.536797439 119.22899387,10.538860274 119.230201721,10.538949966 " /><polygon class="region" points="119.948692322,11.659266472 119.950182529,11.658160045 119.947564136,11.658370452 119.948692322,11.659266472 " /><polygon class="region" points="122.826213403,7.436751545 122.82311736,7.4356142250001 122.824516296,7.436941147 122.826213403,7.436751545 " /><polygon class="region" points="125.550009985,11.436530132 125.549983443,11.43649961 125.551072932,11.439717978 125.550838818,11.437982634 125.550009985,11.436530132 " /><polygon class="region" points="121.45375358,12.369302959 121.453727722,12.369236946 121.450849245,12.371032597 121.452585127,12.370299582 121.45375358,12.369302959 " /><polygon class="region" points="123.227617379,13.965024113 123.229885404,13.962667414 123.2285573,13.963610481 123.227617379,13.965024113 " /><polygon class="region" points="125.593972663,9.7369858800001 125.596434685,9.73465342 125.595352173,9.735153198 125.593972663,9.7369858800001 " /><polygon class="region" points="121.271594677,12.263636955 121.271026611,12.264371872 121.271469346,12.265897764 121.271587121,12.264012839 121.271594677,12.263636955 " /><polygon class="region" points="125.612455287,9.735257829 125.612281799,9.7350912090001 125.611751816,9.736133599 125.613035696,9.735815261 125.612455287,9.735257829 " /><polygon class="region" points="124.715018428,11.947766217 124.715150265,11.94582748 124.714849831,11.950245524 124.715018428,11.947766217 " /><polygon class="region" points="125.027215748,12.538181591 125.029364764,12.537655301 125.029890759,12.537655301 125.029121399,12.537291527 125.027215748,12.538181591 " /><polygon class="region" points="122.921092747,14.215803887 122.921852112,14.216789246 122.922786995,14.216721203 122.921255887,14.215888499 122.921092747,14.215803887 " /><polygon class="region" points="125.581721564,9.735806984 125.580993652,9.735630035 125.580079331,9.7368224150001 125.581721564,9.735806984 " /><polygon class="region" points="122.415193408,7.4969057220001 122.414351736,7.496213685 122.414451599,7.497140884 122.415193408,7.4969057220001 " /><polygon class="region" points="119.96210027,11.754739793 119.959489794,11.753108246 119.961081509,11.754276291 119.96210027,11.754739793 " /><polygon class="region" points="120.416152954,17.510793686 120.414776084,17.510642849 120.415832352,17.511141644 120.416152954,17.510793686 " /><polygon class="region" points="124.180203558,10.153791955 124.179916382,10.153305054 124.179212947,10.153395709 124.180203558,10.153791955 " /><polygon class="region" points="119.940201467,11.958995065 119.939201355,11.958992004 119.938748207,11.959298929 119.940201467,11.958995065 " /><polygon class="region" points="125.679138184,11.112092018 125.680319334,11.111323814 125.678877492,11.112038238 125.679138184,11.112092018 " /><polygon class="region" points="125.554801148,11.261512376 125.554409105,11.261439138 125.554489136,11.261597633 125.554801148,11.261512376 " /><polygon class="region" points="125.057274982,12.548773014 125.057098389,12.548663139 125.05700349,12.548827312 125.057274982,12.548773014 " /><polygon class="region" points="125.026539828,12.538663211 125.026695739,12.53842447 125.026573181,12.538481712 125.026539828,12.538663211 " /><polygon class="region" points="124.983718872,11.400547028 124.983640413,11.400382586 124.983661672,11.400637745 124.983718872,11.400547028 " /><polygon class="region" points="125.129966736,10.165267944 124.984382629,10.383875847 125.033027649,10.003831863 124.762298584,10.158550262 124.791526794,10.762839317 124.595443726,11.009597778 124.514076233,10.863115311 124.379318237,10.919659615 124.314956665,11.565588951 124.48941803,11.326202393 124.479698181,11.456186295 124.638969421,11.29749012 124.983718872,11.400547028 125.016571045,10.748031616 125.264602661,10.367113113 125.129966736,10.165267944 " /><polygon class="region" points="125.125546799,10.163299473 125.129966736,10.165267944 125.136324152,10.162975537 125.129900466,10.160716236 125.125546799,10.163299473 " /><polygon class="region" points="124.961894894,11.412961743 124.961049645,11.410716637 124.962008761,11.415764528 124.962177244,11.414338394 124.961894894,11.412961743 " /><polygon class="region" points="124.959320068,11.400828362 124.959973653,11.402616122 124.961681201,11.400385818 124.961462568,11.400426796 124.959320068,11.400828362 " /><polygon class="region" points="124.963848369,11.399979628 124.966340661,11.399815661 124.966011047,11.39957428 124.963848369,11.399979628 " /><polygon class="region" points="124.988211769,11.399750656 124.988209265,11.399737489 124.988279996,11.400643144 124.988271568,11.40023993 124.988211769,11.399750656 " />
		  </g>
		</svg>