<?xml version="1.0" encoding="UTF-8"?>
	<svg xmlns:xlink="http://www.w3.org/1999/xlink" 
	xmlns="http://www.w3.org/2000/svg" 
	width="360px" height="180px">
	   <style type="text/css">
		  <![CDATA[     
		  .region 
		  { 
			fill:blue; 
			opacity:0.4; 
			stroke:blue;
		  }
		  ]]>
	   </style>

	<circle id="dot" x="-2" y="-2" r="2" style="stroke:none; stroke-width:0; fill:black; opacity:0.7;"/>


	 <image x="0" y="0" width="360" height="180" xlink:href="map.jpg"/>

 
	 <g transform="translate(180,90) scale(1,-1)">   <use xlink:href="#dot" transform="translate(105.7371,-5.038839)" />   <use xlink:href="#dot" transform="translate(116.860199,4.770784)" />   <use xlink:href="#dot" transform="translate(118.219002,5.497156)" />   <use xlink:href="#dot" transform="translate(117.805195,4.964697)" />   <use xlink:href="#dot" transform="translate(100.585146,4.31579)" />   <use xlink:href="#dot" transform="translate(117.689217,4.96184)" />   <use xlink:href="#dot" transform="translate(117.693787,4.967824)" />   <use xlink:href="#dot" transform="translate(118.75,5.166667)" />   <use xlink:href="#dot" transform="translate(117.690417,4.965371)" />   <use xlink:href="#dot" transform="translate(117.689499,4.965772)" />   <use xlink:href="#dot" transform="translate(118.215042,5.485974)" />   <use xlink:href="#dot" transform="translate(122.550003,12.45)" />   <use xlink:href="#dot" transform="translate(122.550003,12.4332)" />   <use xlink:href="#dot" transform="translate(122.550003,12.4332)" />   <use xlink:href="#dot" transform="translate(117.23333,7.216667)" />   <use xlink:href="#dot" transform="translate(127.483,-0.666)" />   <use xlink:href="#dot" transform="translate(127.483,-0.666)" />   <use xlink:href="#dot" transform="translate(127.483,-0.666)" />   <use xlink:href="#dot" transform="translate(127.483,-0.666)" />   <use xlink:href="#dot" transform="translate(127.483,-0.666)" />   <use xlink:href="#dot" transform="translate(127.483,-0.666)" />   <use xlink:href="#dot" transform="translate(127.483,-0.666)" />   <use xlink:href="#dot" transform="translate(124.07,9.08)" />   <use xlink:href="#dot" transform="translate(124.817,10.7667)" />   <use xlink:href="#dot" transform="translate(124.83,10.78)" />   <use xlink:href="#dot" transform="translate(123.26249,9.3103)" />   <use xlink:href="#dot" transform="translate(122.15,17.68333)" />   <use xlink:href="#dot" transform="translate(127.68,0.88)" />   <use xlink:href="#dot" transform="translate(127.68,0.88)" />   <use xlink:href="#dot" transform="translate(119.566667,-1.133333)" />   <use xlink:href="#dot" transform="translate(123.13333,10.4167)" />   <use xlink:href="#dot" transform="translate(123.13333,10.4167)" />   <use xlink:href="#dot" transform="translate(124.333,9.75)" />   <use xlink:href="#dot" transform="translate(120.15,12.03)" />   <use xlink:href="#dot" transform="translate(120.02,11.88)" />   <use xlink:href="#dot" transform="translate(120.02,11.88)" />   <use xlink:href="#dot" transform="translate(117.48333,4.56667)" />   <use xlink:href="#dot" transform="translate(117.48333,4.56667)" />   <use xlink:href="#dot" transform="translate(124.333,9.75)" />   <use xlink:href="#dot" transform="translate(124.3,9.8)" />   <use xlink:href="#dot" transform="translate(124.333397,12.4334)" />   <use xlink:href="#dot" transform="translate(124.333397,12.4334)" />   <use xlink:href="#dot" transform="translate(114.849999,2.85)" />   <use xlink:href="#dot" transform="translate(117.550003,5.28333)" />   <use xlink:href="#dot" transform="translate(123.599999,8.3334)" />   <use xlink:href="#dot" transform="translate(117.550003,5.28333)" />   <use xlink:href="#dot" transform="translate(124.300003,9.8)" />   <use xlink:href="#dot" transform="translate(114.650002,2.7)" />   <use xlink:href="#dot" transform="translate(114.51667,2.68333)" />   <use xlink:href="#dot" transform="translate(114.650002,2.7)" />   <use xlink:href="#dot" transform="translate(114.849999,2.85)" />   <use xlink:href="#dot" transform="translate(123.133331,10.4167)" />   <use xlink:href="#dot" transform="translate(120.2167,14.75)" />   <use xlink:href="#dot" transform="translate(118.566673,5.48333)" />   <use xlink:href="#dot" transform="translate(118.566673,5.48333)" />   <use xlink:href="#dot" transform="translate(122.866699,9.4334)" />   <use xlink:href="#dot" transform="translate(122.866699,9.4334)" />   <use xlink:href="#dot" transform="translate(118.066673,5.58333)" />   <use xlink:href="#dot" transform="translate(118.066673,5.58333)" />   <use xlink:href="#dot" transform="translate(118.116669,6)" />   <use xlink:href="#dot" transform="translate(118.066673,5.58333)" />   <use xlink:href="#dot" transform="translate(118.066673,5.58333)" />   <use xlink:href="#dot" transform="translate(124.150002,6.95)" />   <use xlink:href="#dot" transform="translate(125.606941,7.0722)" />   <use xlink:href="#dot" transform="translate(120.1334,12.05)" />   <use xlink:href="#dot" transform="translate(120.1334,12.05)" />   <use xlink:href="#dot" transform="translate(120.016701,11.85)" />   <use xlink:href="#dot" transform="translate(120.016701,11.85)" />   <use xlink:href="#dot" transform="translate(120.833397,17.583401)" />   <use xlink:href="#dot" transform="translate(125.933403,7.4334)" />   <use xlink:href="#dot" transform="translate(125.266701,6.9834)" />   <use xlink:href="#dot" transform="translate(122.033333,0.316667)" />   <use xlink:href="#dot" transform="translate(122.033333,0.316667)" />   <use xlink:href="#dot" transform="translate(122.033333,0.316667)" />   <use xlink:href="#dot" transform="translate(122.033333,0.316667)" />   <use xlink:href="#dot" transform="translate(122.033333,0.316667)" />   <use xlink:href="#dot" transform="translate(122.033333,0.316667)" />   <use xlink:href="#dot" transform="translate(111.5,-1.516667)" />   <use xlink:href="#dot" transform="translate(111.5,-1.516667)" />   <use xlink:href="#dot" transform="translate(111.5,-1.516667)" />   <use xlink:href="#dot" transform="translate(111.5,-1.516667)" />   <use xlink:href="#dot" transform="translate(111.5,-1.516667)" />   <use xlink:href="#dot" transform="translate(122.666664,8)" />   <use xlink:href="#dot" transform="translate(118.116669,5.83333)" />   <use xlink:href="#dot" transform="translate(121.916702,7)" />   <use xlink:href="#dot" transform="translate(125.533333,9.116667)" />   <use xlink:href="#dot" transform="translate(120.2167,14.75)" />   <use xlink:href="#dot" transform="translate(113.5,2.5)" />   <use xlink:href="#dot" transform="translate(113.98,4.58)" />   <use xlink:href="#dot" transform="translate(125,8)" />   <use xlink:href="#dot" transform="translate(113.77358,3.00936)" /><polygon class="region" points="105.7371,-5.038839 100.585146,4.31579 120.833397,17.583401 122.15,17.68333 124.333397,12.4334 125.533333,9.116667 127.68,0.88 127.483,-0.666 105.7371,-5.038839 " />
		  </g>
		</svg>