<?xml version="1.0" encoding="UTF-8"?>
	<svg xmlns:xlink="http://www.w3.org/1999/xlink" 
	xmlns="http://www.w3.org/2000/svg" 
	width="360px" height="180px">
	   <style type="text/css">
		  <![CDATA[     
		  .region 
		  { 
			fill:blue; 
			opacity:0.4; 
			stroke:blue;
		  }
		  ]]>
	   </style>

	<circle id="dot" x="-2" y="-2" r="2" style="stroke:none; stroke-width:0; fill:black; opacity:0.7;"/>


	 <image x="0" y="0" width="360" height="180" xlink:href="map.jpg"/>

 
	 <g transform="translate(180,90) scale(1,-1)"><polygon class="region" points="131.013168335,-1.3303637499999 131.228424072,-1.1285940399999 131.228317261,-0.82666140799995 131.83190918,-0.70947605299995 132.410766601,-0.34375443999994 132.961715699,-0.43993693599992 133.420181275,-0.73600554499995 133.995300293,-0.72351807399997 134.29095459,-1.354152203 134.089752198,-1.663959265 134.136093139,-2.2111396789999 134.459274292,-2.8503925799999 134.981958247,-3.475346045 135.793164519,-3.867615009 135.84882921,-4.030898104 134.885904464,-3.8986166469999 134.51234436,-4.024374485 134.347625732,-3.86392498 134.305908203,-4.0253953929999 134.151580811,-3.736306429 133.981338501,-3.859752655 133.847351075,-3.553098201 133.825531006,-3.7181513309999 133.632263184,-3.471212387 133.709716797,-3.409574747 133.701583863,-3.1531453129999 133.851821899,-3.0171246529999 133.929428101,-3.112335682 133.824661255,-2.907099724 133.66130066,-3.119589805 133.661590576,-3.390936375 133.419692993,-3.3941280839999 133.590454102,-3.565177917 133.420791626,-3.6947267049999 133.447341919,-3.596016407 133.441360474,-3.574553013 133.468017579,-3.563535214 133.473632812,-3.5256133079999 133.3490448,-3.5584561819999 133.457687378,-3.8640275 133.280212402,-3.842254639 133.406906128,-3.908183336 133.250122071,-4.069127559 132.899673462,-4.086794853 132.723617554,-3.640092135 132.929641724,-3.5497705939999 132.837051392,-3.2966737749999 132.656646728,-3.3156933789999 132.343994141,-2.948367596 131.973358154,-2.934214115 132.055984497,-2.805323363 131.942626954,-2.7816529269999 132.187011718,-2.6692130559999 132.721542358,-2.813687801 133.237335205,-2.4078466889999 133.395996093,-2.525846719 133.276702881,-2.703947306 133.446029663,-2.503787041 133.447860718,-2.67707181 133.481369019,-2.5131061079999 133.554397583,-2.6608252519999 133.680541993,-2.5562052729999 133.643981933,-2.8082880969999 133.708908081,-2.5026307099999 133.751983643,-2.516152382 133.805526733,-2.640216589 133.837066651,-2.669344902 133.860061645,-2.3913025849999 134.02897644,-2.469392776 134.051467896,-2.3292412759999 133.865158081,-2.3303799629999 134.021530152,-2.156738043 133.966140747,-2.0475573539999 133.644378662,-2.231907367 132.303955078,-2.290982008 132.040664673,-2.08548522 132.226715088,-1.961479664 132.016494751,-2.022627831 131.918838501,-1.8696323639999 132.129287719,-1.6080271009999 131.907104492,-1.7151931519999 131.880081177,-1.6339722869999 131.982772827,-1.552408456 131.986495972,-1.4248014689999 131.800720215,-1.615145684 131.698364258,-1.3877189159999 131.526809692,-1.4829677339999 131.558197021,-1.388770103 131.540222168,-1.360141158 131.582458496,-1.360816717 131.585998535,-1.3426383729999 131.53024292,-1.35584712 131.448013306,-1.517668724 131.431167603,-1.411560655 131.403213501,-1.4319450849999 131.342895508,-1.347231388 131.278488159,-1.341608643 131.208114624,-1.5327789789999 130.939605713,-1.448196411 131.013168335,-1.3303637499999 " /><polygon class="region" points="130.690383911,-1.044293642 131.044784546,-0.93354642399993 130.97315979,-1.361597896 130.770843506,-1.2646813389999 130.690383911,-1.044293642 " />
		  </g>
		</svg>