<?xml version="1.0" encoding="UTF-8"?>
	<svg xmlns:xlink="http://www.w3.org/1999/xlink" 
	xmlns="http://www.w3.org/2000/svg" 
	width="360px" height="180px">
	   <style type="text/css">
		  <![CDATA[     
		  .region 
		  { 
			fill:blue; 
			opacity:0.4; 
			stroke:blue;
		  }
		  ]]>
	   </style>

	<circle id="dot" x="-2" y="-2" r="2" style="stroke:none; stroke-width:0; fill:black; opacity:0.7;"/>


	 <image x="0" y="0" width="360" height="180" xlink:href="map.jpg"/>

 
	 <g transform="translate(180,90) scale(1,-1)"><polygon class="region" points="24.0598,-19.648564407 25.4507,-19.654964407 26.2929,-20.241364407 27.0467,-21.008864407 27.0245,-21.864664407 26.7231,-22.172064407 24.7623,-23.245964407 23.9278,-24.245064407 23.5351,-25.201464407 23.5261,-27.094764407 22.9361,-27.285764407 22.2693,-27.061364407 20.4176,-27.049264407 19.789,-27.256964407 19.359,-27.137264408 19.0341,-26.424764407 19.1087,-25.240664408 18.382,-23.487064407 18.1715,-22.418264408 18.4322,-21.887564408 19.5772,-21.271964408 19.9883,-20.709164407 19.7062,-19.908364408 18.8014,-19.341264407 16.7753,-19.168864407 16.0119,-18.502764407 14.3442,-18.313064407 13.8313,-17.027764408 13.5041,-16.722564407 13.2587,-16.147864408 13.3138,-15.835764407 13.5966,-15.751464407 15.0246,-15.995464407 16.2676,-16.612664407 17.2692,-17.487664408 17.8223,-17.731564407 20.9535,-18.749564407 22.8342,-19.560364407 24.0598,-19.648564407 " />
		  </g>
		</svg>