<?xml version="1.0" encoding="UTF-8"?>
	<svg xmlns:xlink="http://www.w3.org/1999/xlink" 
	xmlns="http://www.w3.org/2000/svg" 
	width="360px" height="180px">
	   <style type="text/css">
		  <![CDATA[     
		  .region 
		  { 
			fill:blue; 
			opacity:0.4; 
			stroke:blue;
		  }
		  ]]>
	   </style>

	<circle id="dot" x="-2" y="-2" r="2" style="stroke:none; stroke-width:0; fill:black; opacity:0.7;"/>


	 <image x="0" y="0" width="360" height="180" xlink:href="map.jpg"/>

 
	 <g transform="translate(180,90) scale(1,-1)">   <use xlink:href="#dot" transform="translate(132.93919,-23.72753)" />   <use xlink:href="#dot" transform="translate(132.84769,-23.63893)" />   <use xlink:href="#dot" transform="translate(132.93919,-23.72753)" />   <use xlink:href="#dot" transform="translate(132.95734,-23.72781)" />   <use xlink:href="#dot" transform="translate(132.84769,-23.63893)" />   <use xlink:href="#dot" transform="translate(132.83586,-23.6424)" />   <use xlink:href="#dot" transform="translate(132.93378,-23.72576)" />   <use xlink:href="#dot" transform="translate(132.95734,-23.72781)" />   <use xlink:href="#dot" transform="translate(132.83586,-23.6424)" />   <use xlink:href="#dot" transform="translate(132.93378,-23.72576)" />   <use xlink:href="#dot" transform="translate(132.93236,-23.72497)" />   <use xlink:href="#dot" transform="translate(132.93739,-23.73205)" />   <use xlink:href="#dot" transform="translate(132.94713,-23.73239)" />   <use xlink:href="#dot" transform="translate(132.94261,-23.73125)" />   <use xlink:href="#dot" transform="translate(132.93495,-23.72601)" />   <use xlink:href="#dot" transform="translate(132.94261,-23.73125)" />   <use xlink:href="#dot" transform="translate(132.93739,-23.73205)" />   <use xlink:href="#dot" transform="translate(132.94126,-23.72888)" />   <use xlink:href="#dot" transform="translate(132.94713,-23.73239)" />   <use xlink:href="#dot" transform="translate(132.94126,-23.72888)" />   <use xlink:href="#dot" transform="translate(132.93681,-23.72645)" />   <use xlink:href="#dot" transform="translate(132.9457,-23.73129)" />   <use xlink:href="#dot" transform="translate(132.94228,-23.73216)" />   <use xlink:href="#dot" transform="translate(132.93843,-23.72798)" />   <use xlink:href="#dot" transform="translate(132.93236,-23.72497)" />   <use xlink:href="#dot" transform="translate(132.9457,-23.73129)" />   <use xlink:href="#dot" transform="translate(132.93194,-23.72802)" />   <use xlink:href="#dot" transform="translate(132.93495,-23.72601)" />   <use xlink:href="#dot" transform="translate(132.93843,-23.72798)" />   <use xlink:href="#dot" transform="translate(132.93194,-23.72802)" />   <use xlink:href="#dot" transform="translate(132.93681,-23.72645)" />   <use xlink:href="#dot" transform="translate(132.94736,-23.73101)" />   <use xlink:href="#dot" transform="translate(132.94736,-23.73101)" />   <use xlink:href="#dot" transform="translate(132.94228,-23.73216)" />   <use xlink:href="#dot" transform="translate(131.862148,-23.346808)" />   <use xlink:href="#dot" transform="translate(131.862148,-23.346808)" />   <use xlink:href="#dot" transform="translate(132.83609,-23.64257)" />   <use xlink:href="#dot" transform="translate(132.83194,-23.64212)" />   <use xlink:href="#dot" transform="translate(132.83487,-23.6432)" />   <use xlink:href="#dot" transform="translate(132.83257,-23.64346)" />   <use xlink:href="#dot" transform="translate(133.0521,-23.6771)" />   <use xlink:href="#dot" transform="translate(133.0444,-23.6735)" />   <use xlink:href="#dot" transform="translate(132.7216,-23.6584)" />   <use xlink:href="#dot" transform="translate(132.9925,-23.5605)" />   <use xlink:href="#dot" transform="translate(132.7164,-23.6317)" />   <use xlink:href="#dot" transform="translate(132.7174,-23.6338)" />   <use xlink:href="#dot" transform="translate(132.9925,-23.5605)" />   <use xlink:href="#dot" transform="translate(132.5165,-23.5759)" />   <use xlink:href="#dot" transform="translate(132.7882,-23.6496)" />   <use xlink:href="#dot" transform="translate(132.5142,-23.6914)" />   <use xlink:href="#dot" transform="translate(132.7233,-23.628)" />   <use xlink:href="#dot" transform="translate(132.5184,-23.5736)" />   <use xlink:href="#dot" transform="translate(132.5821,-23.5863)" />   <use xlink:href="#dot" transform="translate(132.8984,-23.7093)" />   <use xlink:href="#dot" transform="translate(132.9021,-23.7115)" />   <use xlink:href="#dot" transform="translate(132.9021,-23.7115)" />   <use xlink:href="#dot" transform="translate(132.8377,-23.6062)" />   <use xlink:href="#dot" transform="translate(132.7308,-23.6241)" />   <use xlink:href="#dot" transform="translate(132.8206,-23.6805)" />   <use xlink:href="#dot" transform="translate(132.5142,-23.6914)" />   <use xlink:href="#dot" transform="translate(132.8634,-23.7384)" />   <use xlink:href="#dot" transform="translate(132.7882,-23.6496)" />   <use xlink:href="#dot" transform="translate(132.5821,-23.5863)" />   <use xlink:href="#dot" transform="translate(132.7269,-23.6357)" />   <use xlink:href="#dot" transform="translate(132.7234,-23.6342)" />   <use xlink:href="#dot" transform="translate(132.8377,-23.6062)" />   <use xlink:href="#dot" transform="translate(132.8984,-23.7093)" />   <use xlink:href="#dot" transform="translate(132.724,-23.6256)" />   <use xlink:href="#dot" transform="translate(132.8736,-23.7042)" />   <use xlink:href="#dot" transform="translate(133.7167,-23.6833)" />   <use xlink:href="#dot" transform="translate(132.7453,-23.7008)" />   <use xlink:href="#dot" transform="translate(132.8736,-23.7042)" />   <use xlink:href="#dot" transform="translate(132.05,-23.383333)" />   <use xlink:href="#dot" transform="translate(132.05,-23.383333)" />   <use xlink:href="#dot" transform="translate(130.366,-20.566)" />   <use xlink:href="#dot" transform="translate(130.37127,-20.568588)" />   <use xlink:href="#dot" transform="translate(130.221269,-20.338588)" />   <use xlink:href="#dot" transform="translate(130.366,-20.566)" />   <use xlink:href="#dot" transform="translate(133.871266,-23.698564)" />   <use xlink:href="#dot" transform="translate(133.8667,-23.7)" />   <use xlink:href="#dot" transform="translate(133.87,-23.7)" />   <use xlink:href="#dot" transform="translate(133.87,-23.7)" />   <use xlink:href="#dot" transform="translate(133.87,-23.7)" />   <use xlink:href="#dot" transform="translate(133.87,-23.7)" />   <use xlink:href="#dot" transform="translate(133.8667,-23.7)" />   <use xlink:href="#dot" transform="translate(133.8667,-23.7)" />   <use xlink:href="#dot" transform="translate(133.8667,-23.7)" />   <use xlink:href="#dot" transform="translate(133.8667,-23.7)" />   <use xlink:href="#dot" transform="translate(133.87,-23.7)" />   <use xlink:href="#dot" transform="translate(133.871266,-23.698564)" />   <use xlink:href="#dot" transform="translate(131.2,-23.1)" />   <use xlink:href="#dot" transform="translate(131.2,-23.1)" />   <use xlink:href="#dot" transform="translate(133.87,-23.7)" />   <use xlink:href="#dot" transform="translate(132.637066,-22.444672)" />   <use xlink:href="#dot" transform="translate(133.87,-23.7)" />   <use xlink:href="#dot" transform="translate(133.866,-23.7)" />   <use xlink:href="#dot" transform="translate(133.3333,-24)" />   <use xlink:href="#dot" transform="translate(133.87,-23.7)" />   <use xlink:href="#dot" transform="translate(133.8667,-23.7)" />   <use xlink:href="#dot" transform="translate(133.87,-23.7)" />   <use xlink:href="#dot" transform="translate(131,-25.2)" />   <use xlink:href="#dot" transform="translate(133.866667,-23.7)" />   <use xlink:href="#dot" transform="translate(133.866,-23.7)" />   <use xlink:href="#dot" transform="translate(133.87,-23.7)" />   <use xlink:href="#dot" transform="translate(133.683,-24.35)" />   <use xlink:href="#dot" transform="translate(133.866,-23.7)" />   <use xlink:href="#dot" transform="translate(135.331128,-21.002452)" />   <use xlink:href="#dot" transform="translate(133.87,-23.7)" />   <use xlink:href="#dot" transform="translate(133.87,-23.7)" /><polygon class="region" points="131,-25.2 130.221269,-20.338588 135.331128,-21.002452 133.683,-24.35 131,-25.2 " />
		  </g>
		</svg>