<?xml version="1.0" encoding="UTF-8"?>
	<svg xmlns:xlink="http://www.w3.org/1999/xlink" 
	xmlns="http://www.w3.org/2000/svg" 
	width="360px" height="180px">
	   <style type="text/css">
		  <![CDATA[     
		  .region 
		  { 
			fill:blue; 
			opacity:0.4; 
			stroke:blue;
		  }
		  ]]>
	   </style>

	<circle id="dot" x="-2" y="-2" r="2" style="stroke:none; stroke-width:0; fill:black; opacity:0.7;"/>


	 <image x="0" y="0" width="360" height="180" xlink:href="map.jpg"/>

 
	 <g transform="translate(180,90) scale(1,-1)"><polygon class="region" points="-78.828231841,9.2646683020001 -77.729643791,8.6644334590001 -77.357292175,8.686544418 -76.841651917,8.1355514530001 -77.031001331,7.559306636 -76.488037432,5.301719899 -76.55948005,3.901444581 -77.716850466,2.1725332190001 -78.575222403,1.223127549 -78.778748983,0.53690188300004 -78.942198242,0.48301751200006 -78.959952023,-0.05647647 -79.188568402,-0.013610898999957 -79.288588067,0.25787105000006 -78.974240547,1.258067706 -78.775764465,1.407844305 -79.045776367,1.6165927650001 -78.846130371,1.816570282 -78.570289612,1.761888146 -78.680503845,2.165928841 -78.516609192,2.4920916560001 -78.16783905,2.6921145920001 -77.797691345,2.6468863490001 -77.592094421,2.833679676 -77.697967529,2.892454624 -77.671569824,3.0535836220001 -77.002716064,3.9092686180001 -77.274787903,3.839324474 -77.171485901,4.054936409 -77.253494263,4.1248207090001 -77.359039307,3.933905602 -77.520484924,4.154430389 -77.294441223,4.73761797 -77.379356384,5.451063156 -77.546966553,5.488407135 -77.232643127,5.796443939 -77.477760315,6.1898021700001 -77.330078125,6.558038712 -77.886817932,7.220824242 -77.718856812,7.508337021 -77.73733683,8.164448109 -78.837763218,9.0387512770001 -79.481335827,9.049949183 -81.109622476,8.665244096 -82.227951218,8.7099772460001 -82.31669252,8.9389646340001 -81.790550232,8.939548492 -81.889343262,9.1872596740001 -81.515686035,8.799556732 -81.199058533,8.783490181 -80.100750532,9.229333309 -78.828231841,9.2646683020001 " /><polygon class="region" points="-84.302586898,9.7617682320001 -83.43574626,9.2020418920001 -83.276364296,8.6518321400001 -83.489097595,8.696437836 -83.284248352,8.3781423570001 -83.732086182,8.5823268890001 -83.486106873,8.8511905670001 -83.770042419,9.1775999070001 -84.679847717,9.6479959490001 -84.514917852,9.8430864690001 -84.302586898,9.7617682320001 " /><polygon class="region" points="-82.710021973,9.635460854 -82.54330581,9.442203921 -82.924854454,9.409169406 -82.929809631,9.579297157 -82.710021973,9.635460854 " /><polygon class="region" points="-83.211678291,9.738206475 -83.278761635,9.7675384630001 -83.279576412,9.841683212 -83.186691782,9.818869443 -83.211678291,9.738206475 " />
		  </g>
		</svg>