<?xml version="1.0" encoding="UTF-8"?>
	<svg xmlns:xlink="http://www.w3.org/1999/xlink" 
	xmlns="http://www.w3.org/2000/svg" 
	width="360px" height="180px">
	   <style type="text/css">
		  <![CDATA[     
		  .region 
		  { 
			fill:blue; 
			opacity:0.4; 
			stroke:blue;
		  }
		  ]]>
	   </style>

	<circle id="dot" x="-2" y="-2" r="2" style="stroke:none; stroke-width:0; fill:black; opacity:0.7;"/>


	 <image x="0" y="0" width="360" height="180" xlink:href="map.jpg"/>

 
	 <g transform="translate(180,90) scale(1,-1)">   <use xlink:href="#dot" transform="translate(-114.047012,32.305996)" />   <use xlink:href="#dot" transform="translate(-114.688591,35.227364)" />   <use xlink:href="#dot" transform="translate(-116.298817,32.945153)" />   <use xlink:href="#dot" transform="translate(-114.687166,35.227345)" />   <use xlink:href="#dot" transform="translate(-102.946342,29.571437)" />   <use xlink:href="#dot" transform="translate(-116.653988,33.984861)" />   <use xlink:href="#dot" transform="translate(-102.954675,29.571216)" />   <use xlink:href="#dot" transform="translate(-116.140294,32.745892)" />   <use xlink:href="#dot" transform="translate(-102.946342,29.571436)" />   <use xlink:href="#dot" transform="translate(-114.687598,35.227289)" />   <use xlink:href="#dot" transform="translate(-116.30005,32.9441)" />   <use xlink:href="#dot" transform="translate(-116.140294,32.745892)" />   <use xlink:href="#dot" transform="translate(-116.661392,33.990805)" />   <use xlink:href="#dot" transform="translate(-114.687475,35.22732)" />   <use xlink:href="#dot" transform="translate(-113.441391,34.299999)" />   <use xlink:href="#dot" transform="translate(-113.441391,34.299721)" />   <use xlink:href="#dot" transform="translate(-116.199837,35.790169)" />   <use xlink:href="#dot" transform="translate(-116.199806,35.790273)" />   <use xlink:href="#dot" transform="translate(-116.062439,35.727389)" />   <use xlink:href="#dot" transform="translate(-116.418458,33.270272)" />   <use xlink:href="#dot" transform="translate(-100.069558,29.651372)" />   <use xlink:href="#dot" transform="translate(-103.598908,30.301914)" />   <use xlink:href="#dot" transform="translate(-115.628748,34.808985)" />   <use xlink:href="#dot" transform="translate(-116.418305,33.270388)" />   <use xlink:href="#dot" transform="translate(-116.19967,35.791388)" />   <use xlink:href="#dot" transform="translate(-113.956019,34.901835)" />   <use xlink:href="#dot" transform="translate(-116.41838,33.270338)" />   <use xlink:href="#dot" transform="translate(-101.781631,29.834712)" />   <use xlink:href="#dot" transform="translate(-116.192229,35.780329)" />   <use xlink:href="#dot" transform="translate(-116.418337,33.270395)" />   <use xlink:href="#dot" transform="translate(-116.418367,33.270217)" />   <use xlink:href="#dot" transform="translate(-116.418428,33.270253)" />   <use xlink:href="#dot" transform="translate(-101.53488,29.581553)" />   <use xlink:href="#dot" transform="translate(-116.19994,35.789417)" />   <use xlink:href="#dot" transform="translate(-113.943886,34.264168)" />   <use xlink:href="#dot" transform="translate(-116.41835,33.270283)" />   <use xlink:href="#dot" transform="translate(-116.645557,33.954922)" />   <use xlink:href="#dot" transform="translate(-116.366391,35.629265)" />   <use xlink:href="#dot" transform="translate(-99.728492,29.731772)" />   <use xlink:href="#dot" transform="translate(-116.18341,35.80485)" />   <use xlink:href="#dot" transform="translate(-102.543625,22.781902)" />   <use xlink:href="#dot" transform="translate(-115.632778,34.809722)" />   <use xlink:href="#dot" transform="translate(-103.489068,29.150126)" />   <use xlink:href="#dot" transform="translate(-113.439445,34.299721)" />   <use xlink:href="#dot" transform="translate(-103.420492,29.435496)" />   <use xlink:href="#dot" transform="translate(-101.53488,29.581553)" />   <use xlink:href="#dot" transform="translate(-116.199901,35.789746)" />   <use xlink:href="#dot" transform="translate(-116.207795,35.611741)" />   <use xlink:href="#dot" transform="translate(-115.62877,34.808702)" />   <use xlink:href="#dot" transform="translate(-116.418267,33.270217)" />   <use xlink:href="#dot" transform="translate(-115.423559,36.150217)" />   <use xlink:href="#dot" transform="translate(-103.394997,29.451111)" />   <use xlink:href="#dot" transform="translate(-101.351624,29.618237)" />   <use xlink:href="#dot" transform="translate(-116.179084,35.78888)" />   <use xlink:href="#dot" transform="translate(-116.292346,33.133823)" />   <use xlink:href="#dot" transform="translate(-113.414719,34.297501)" />   <use xlink:href="#dot" transform="translate(-116.199804,35.790005)" />   <use xlink:href="#dot" transform="translate(-116.199713,35.79114)" />   <use xlink:href="#dot" transform="translate(-116.418397,33.270162)" />   <use xlink:href="#dot" transform="translate(-113.43972,34.299721)" />   <use xlink:href="#dot" transform="translate(-116.18341,35.80485)" />   <use xlink:href="#dot" transform="translate(-99.728538,29.731572)" />   <use xlink:href="#dot" transform="translate(-104.053625,29.334056)" />   <use xlink:href="#dot" transform="translate(-103.283451,29.277305)" />   <use xlink:href="#dot" transform="translate(-117.9343,36.7969)" />   <use xlink:href="#dot" transform="translate(-116.418412,33.270245)" />   <use xlink:href="#dot" transform="translate(-100.865078,33.852848)" />   <use xlink:href="#dot" transform="translate(-100.965659,30.720408)" />   <use xlink:href="#dot" transform="translate(-103.141141,29.414382)" />   <use xlink:href="#dot" transform="translate(-103.14111,29.418173)" />   <use xlink:href="#dot" transform="translate(-116.776989,33.917003)" />   <use xlink:href="#dot" transform="translate(-103.150546,29.684966)" />   <use xlink:href="#dot" transform="translate(-100.798318,30.766698)" />   <use xlink:href="#dot" transform="translate(-116.570062,33.234502)" />   <use xlink:href="#dot" transform="translate(-116.418288,33.268863)" />   <use xlink:href="#dot" transform="translate(-116.718109,33.980561)" />   <use xlink:href="#dot" transform="translate(-116.540421,33.737431)" />   <use xlink:href="#dot" transform="translate(-101.533838,30.314475)" />   <use xlink:href="#dot" transform="translate(-103.24785,29.858748)" />   <use xlink:href="#dot" transform="translate(-114.036667,34.260555)" />   <use xlink:href="#dot" transform="translate(-116.312049,34.100257)" />   <use xlink:href="#dot" transform="translate(-111.144683,32.220325)" />   <use xlink:href="#dot" transform="translate(-109.820751,23.549968)" />   <use xlink:href="#dot" transform="translate(-116.145261,34.071415)" />   <use xlink:href="#dot" transform="translate(-104.184901,29.439207)" />   <use xlink:href="#dot" transform="translate(-103.824806,30.842928)" />   <use xlink:href="#dot" transform="translate(-103.829559,30.834629)" />   <use xlink:href="#dot" transform="translate(-103.831177,30.830141)" />   <use xlink:href="#dot" transform="translate(-104.184908,29.439048)" />   <use xlink:href="#dot" transform="translate(-111.833528,36.530678)" />   <use xlink:href="#dot" transform="translate(-116.483395,33.381061)" />   <use xlink:href="#dot" transform="translate(-106.508383,31.928562)" />   <use xlink:href="#dot" transform="translate(-116.652848,33.982884)" />   <use xlink:href="#dot" transform="translate(-100.909042,29.593792)" />   <use xlink:href="#dot" transform="translate(-113.568336,34.608055)" />   <use xlink:href="#dot" transform="translate(-108.955073,39.157471)" />   <use xlink:href="#dot" transform="translate(-103.770781,29.262673)" />   <use xlink:href="#dot" transform="translate(-113.422226,34.299168)" />   <use xlink:href="#dot" transform="translate(-113.422226,34.299168)" />   <use xlink:href="#dot" transform="translate(-116.168762,34.046322)" />   <use xlink:href="#dot" transform="translate(-113.569168,34.610001)" />   <use xlink:href="#dot" transform="translate(-102.533583,30.152764)" />   <use xlink:href="#dot" transform="translate(-100.069108,29.650392)" />   <use xlink:href="#dot" transform="translate(-112.701707,36.25689)" />   <use xlink:href="#dot" transform="translate(-116.139725,34.083332)" />   <use xlink:href="#dot" transform="translate(-103.762466,30.75972)" />   <use xlink:href="#dot" transform="translate(-102.981505,30.205987)" />   <use xlink:href="#dot" transform="translate(-111.483506,37.749342)" />   <use xlink:href="#dot" transform="translate(-102.933394,30.487664)" />   <use xlink:href="#dot" transform="translate(-116.231472,34.067155)" />   <use xlink:href="#dot" transform="translate(-111.419053,37.771942)" />   <use xlink:href="#dot" transform="translate(-110.900162,32.515303)" />   <use xlink:href="#dot" transform="translate(-108.586,32.8434)" />   <use xlink:href="#dot" transform="translate(-108.609,32.8336)" />   <use xlink:href="#dot" transform="translate(-115.763611,33.712776)" />   <use xlink:href="#dot" transform="translate(-110.837192,32.563181)" />   <use xlink:href="#dot" transform="translate(-110.128326,23.893717)" />   <use xlink:href="#dot" transform="translate(-116.418428,33.270303)" />   <use xlink:href="#dot" transform="translate(-103.879692,30.564872)" />   <use xlink:href="#dot" transform="translate(-111.438736,37.75245)" />   <use xlink:href="#dot" transform="translate(-104.209993,31.114064)" />   <use xlink:href="#dot" transform="translate(-104.36902,30.156925)" />   <use xlink:href="#dot" transform="translate(-104.368983,30.15695)" />   <use xlink:href="#dot" transform="translate(-115.763611,33.712776)" />   <use xlink:href="#dot" transform="translate(-111.600555,31.981997)" />   <use xlink:href="#dot" transform="translate(-115.426308,36.157886)" />   <use xlink:href="#dot" transform="translate(-111.090758,32.264972)" />   <use xlink:href="#dot" transform="translate(-108.609,32.8336)" />   <use xlink:href="#dot" transform="translate(-110.056244,24.038631)" />   <use xlink:href="#dot" transform="translate(-111.089303,31.399745)" />   <use xlink:href="#dot" transform="translate(-111.048785,31.570656)" />   <use xlink:href="#dot" transform="translate(-111.089395,31.398867)" />   <use xlink:href="#dot" transform="translate(-111.238675,31.444472)" />   <use xlink:href="#dot" transform="translate(-103.903267,30.588067)" />   <use xlink:href="#dot" transform="translate(-111.075872,32.2294)" />   <use xlink:href="#dot" transform="translate(-114.060394,35.172988)" />   <use xlink:href="#dot" transform="translate(-113.9562,35.15795)" />   <use xlink:href="#dot" transform="translate(-110.886147,31.739761)" />   <use xlink:href="#dot" transform="translate(-111.08927,31.39966)" />   <use xlink:href="#dot" transform="translate(-100.561177,33.040965)" />   <use xlink:href="#dot" transform="translate(-110.719583,32.337142)" />   <use xlink:href="#dot" transform="translate(-116.370493,33.700303)" />   <use xlink:href="#dot" transform="translate(-110.652328,34.951382)" />   <use xlink:href="#dot" transform="translate(-110.718583,32.337645)" />   <use xlink:href="#dot" transform="translate(-114.062094,35.175663)" />   <use xlink:href="#dot" transform="translate(-108.931175,27.001325)" />   <use xlink:href="#dot" transform="translate(-111.091653,31.399256)" />   <use xlink:href="#dot" transform="translate(-116.241317,33.641609)" />   <use xlink:href="#dot" transform="translate(-102.340047,22.175378)" />   <use xlink:href="#dot" transform="translate(-111.218375,33.326878)" />   <use xlink:href="#dot" transform="translate(-110.91652,32.426394)" />   <use xlink:href="#dot" transform="translate(-114.062255,35.175817)" />   <use xlink:href="#dot" transform="translate(-103.803313,30.848605)" />   <use xlink:href="#dot" transform="translate(-110.907866,32.479766)" />   <use xlink:href="#dot" transform="translate(-104.114875,30.701022)" />   <use xlink:href="#dot" transform="translate(-111.242409,31.402696)" />   <use xlink:href="#dot" transform="translate(-111.045723,31.569812)" />   <use xlink:href="#dot" transform="translate(-108.19098,32.815093)" />   <use xlink:href="#dot" transform="translate(-116.377439,33.648053)" />   <use xlink:href="#dot" transform="translate(-116.234566,33.648973)" />   <use xlink:href="#dot" transform="translate(-111.087812,31.40244)" />   <use xlink:href="#dot" transform="translate(-116.391414,33.674748)" />   <use xlink:href="#dot" transform="translate(-114.069411,35.1614)" />   <use xlink:href="#dot" transform="translate(-116.357649,33.62582)" />   <use xlink:href="#dot" transform="translate(-110.359047,31.376525)" />   <use xlink:href="#dot" transform="translate(-116.375588,33.61518)" />   <use xlink:href="#dot" transform="translate(-110.71884,32.337892)" />   <use xlink:href="#dot" transform="translate(-114.063233,35.162931)" />   <use xlink:href="#dot" transform="translate(-103.941291,30.606644)" />   <use xlink:href="#dot" transform="translate(-111.089367,31.399198)" />   <use xlink:href="#dot" transform="translate(-114.067719,35.343083)" />   <use xlink:href="#dot" transform="translate(-114.061883,35.174928)" />   <use xlink:href="#dot" transform="translate(-116.377363,33.64808)" />   <use xlink:href="#dot" transform="translate(-111.090773,31.398473)" />   <use xlink:href="#dot" transform="translate(-111.089553,31.398942)" />   <use xlink:href="#dot" transform="translate(-111.045293,31.568562)" />   <use xlink:href="#dot" transform="translate(-114.058608,35.171025)" />   <use xlink:href="#dot" transform="translate(-114.060347,35.17298)" />   <use xlink:href="#dot" transform="translate(-110.985995,32.444599)" />   <use xlink:href="#dot" transform="translate(-111.04589,31.569553)" />   <use xlink:href="#dot" transform="translate(-114.0586,35.170928)" />   <use xlink:href="#dot" transform="translate(-116.253448,33.753432)" />   <use xlink:href="#dot" transform="translate(-111.071992,32.269067)" />   <use xlink:href="#dot" transform="translate(-114.061972,35.17522)" />   <use xlink:href="#dot" transform="translate(-111.012139,32.261597)" />   <use xlink:href="#dot" transform="translate(-111.089445,31.400002)" />   <use xlink:href="#dot" transform="translate(-110.402491,31.279853)" />   <use xlink:href="#dot" transform="translate(-103.169177,34.515058)" />   <use xlink:href="#dot" transform="translate(-103.943763,30.59287)" />   <use xlink:href="#dot" transform="translate(-103.941052,30.592558)" />   <use xlink:href="#dot" transform="translate(-103.931351,30.595956)" />   <use xlink:href="#dot" transform="translate(-103.802378,30.848855)" />   <use xlink:href="#dot" transform="translate(-116.299742,33.798)" />   <use xlink:href="#dot" transform="translate(-110.905461,32.42699)" />   <use xlink:href="#dot" transform="translate(-112.011945,34.754724)" />   <use xlink:href="#dot" transform="translate(-113.016848,27.593153)" />   <use xlink:href="#dot" transform="translate(-109.724638,23.47761)" />   <use xlink:href="#dot" transform="translate(-103.93086,30.597174)" />   <use xlink:href="#dot" transform="translate(-104.273648,32.443539)" />   <use xlink:href="#dot" transform="translate(-110.393028,31.324314)" />   <use xlink:href="#dot" transform="translate(-113.0286,27.586995)" />   <use xlink:href="#dot" transform="translate(-103.878498,30.808369)" />   <use xlink:href="#dot" transform="translate(-110.208078,38.452042)" />   <use xlink:href="#dot" transform="translate(-105.912237,32.749646)" />   <use xlink:href="#dot" transform="translate(-103.931351,30.597336)" />   <use xlink:href="#dot" transform="translate(-116.209032,33.61165)" />   <use xlink:href="#dot" transform="translate(-103.930267,30.595683)" />   <use xlink:href="#dot" transform="translate(-112.119729,33.741245)" />   <use xlink:href="#dot" transform="translate(-111.432738,33.470614)" />   <use xlink:href="#dot" transform="translate(-100.069228,29.650495)" />   <use xlink:href="#dot" transform="translate(-116.267597,33.77)" />   <use xlink:href="#dot" transform="translate(-116.29204,33.736001)" />   <use xlink:href="#dot" transform="translate(-110.389664,31.318565)" />   <use xlink:href="#dot" transform="translate(-114.742272,29.751428)" />   <use xlink:href="#dot" transform="translate(-110.934553,29.07577)" />   <use xlink:href="#dot" transform="translate(-116.247029,33.764945)" />   <use xlink:href="#dot" transform="translate(-106.510639,31.792363)" />   <use xlink:href="#dot" transform="translate(-109.895553,23.880397)" />   <use xlink:href="#dot" transform="translate(-104.441446,32.680013)" />   <use xlink:href="#dot" transform="translate(-100.069635,29.650434)" />   <use xlink:href="#dot" transform="translate(-116.328128,33.766864)" />   <use xlink:href="#dot" transform="translate(-106.601111,32.335833)" />   <use xlink:href="#dot" transform="translate(-116.50837,33.853648)" />   <use xlink:href="#dot" transform="translate(-113.635063,37.179365)" />   <use xlink:href="#dot" transform="translate(-116.341246,33.735066)" />   <use xlink:href="#dot" transform="translate(-116.289258,33.745848)" />   <use xlink:href="#dot" transform="translate(-109.874803,23.795637)" />   <use xlink:href="#dot" transform="translate(-109.890953,23.800755)" />   <use xlink:href="#dot" transform="translate(-113.485603,28.320235)" />   <use xlink:href="#dot" transform="translate(-109.890945,23.8008)" />   <use xlink:href="#dot" transform="translate(-109.901222,23.924222)" />   <use xlink:href="#dot" transform="translate(-109.89093,23.800853)" />   <use xlink:href="#dot" transform="translate(-109.890412,23.800463)" />   <use xlink:href="#dot" transform="translate(-109.883522,23.824605)" />   <use xlink:href="#dot" transform="translate(-109.901512,23.92393)" />   <use xlink:href="#dot" transform="translate(-116.309506,33.755606)" />   <use xlink:href="#dot" transform="translate(-109.88993,23.799938)" />   <use xlink:href="#dot" transform="translate(-111.643133,26.464978)" />   <use xlink:href="#dot" transform="translate(-109.875258,23.795703)" />   <use xlink:href="#dot" transform="translate(-98.935154,29.6563)" />   <use xlink:href="#dot" transform="translate(-111.35305,33.51665)" />   <use xlink:href="#dot" transform="translate(-109.891517,23.879667)" />   <use xlink:href="#dot" transform="translate(-116.22974,33.67258)" />   <use xlink:href="#dot" transform="translate(-116.559275,33.781862)" />   <use xlink:href="#dot" transform="translate(-109.890288,23.800522)" />   <use xlink:href="#dot" transform="translate(-116.320865,33.645159)" />   <use xlink:href="#dot" transform="translate(-109.891747,23.800585)" />   <use xlink:href="#dot" transform="translate(-109.885803,23.823903)" />   <use xlink:href="#dot" transform="translate(-116.488875,33.781303)" />   <use xlink:href="#dot" transform="translate(-109.892228,23.800737)" />   <use xlink:href="#dot" transform="translate(-109.874787,23.795642)" />   <use xlink:href="#dot" transform="translate(-109.890128,23.800813)" />   <use xlink:href="#dot" transform="translate(-106.509492,31.9378)" />   <use xlink:href="#dot" transform="translate(-109.890358,23.800483)" />   <use xlink:href="#dot" transform="translate(-109.882287,23.826637)" />   <use xlink:href="#dot" transform="translate(-109.880898,23.826838)" />   <use xlink:href="#dot" transform="translate(-109.900947,23.925112)" />   <use xlink:href="#dot" transform="translate(-116.231295,33.715719)" />   <use xlink:href="#dot" transform="translate(-111.031708,32.199395)" />   <use xlink:href="#dot" transform="translate(-109.789938,23.498386)" />   <use xlink:href="#dot" transform="translate(-99.990952,25.932756)" />   <use xlink:href="#dot" transform="translate(-108.94258,26.993213)" />   <use xlink:href="#dot" transform="translate(-115.745367,33.718)" />   <use xlink:href="#dot" transform="translate(-111.031792,32.199558)" />   <use xlink:href="#dot" transform="translate(-110.067964,24.045922)" />   <use xlink:href="#dot" transform="translate(-116.650385,33.965287)" />   <use xlink:href="#dot" transform="translate(-98.2,30.11)" />   <use xlink:href="#dot" transform="translate(-114.044542,34.269892)" />   <use xlink:href="#dot" transform="translate(-98.829491,30.495905)" />   <use xlink:href="#dot" transform="translate(-110.067964,24.046225)" />   <use xlink:href="#dot" transform="translate(-114.044444,34.27)" />   <use xlink:href="#dot" transform="translate(-98.247712,30.17148)" />   <use xlink:href="#dot" transform="translate(-116.3772,33.648244)" />   <use xlink:href="#dot" transform="translate(-116.357327,33.656191)" />   <use xlink:href="#dot" transform="translate(-99.192724,29.6372)" />   <use xlink:href="#dot" transform="translate(-115.426639,36.158229)" />   <use xlink:href="#dot" transform="translate(-102.184538,30.396753)" />   <use xlink:href="#dot" transform="translate(-99.610962,29.740837)" />   <use xlink:href="#dot" transform="translate(-100.96392,29.788738)" />   <use xlink:href="#dot" transform="translate(-116.377,33.648)" />   <use xlink:href="#dot" transform="translate(-116.208531,33.736198)" />   <use xlink:href="#dot" transform="translate(-99.987639,32.248873)" />   <use xlink:href="#dot" transform="translate(-116.41844,33.270199)" />   <use xlink:href="#dot" transform="translate(-98.430824,30.211412)" />   <use xlink:href="#dot" transform="translate(-98.663919,32.665762)" />   <use xlink:href="#dot" transform="translate(-98.705153,34.735542)" />   <use xlink:href="#dot" transform="translate(-100.96646,29.791808)" />   <use xlink:href="#dot" transform="translate(-99.19417,29.635245)" />   <use xlink:href="#dot" transform="translate(-116.377291,33.648159)" />   <use xlink:href="#dot" transform="translate(-98.436333,30.212381)" />   <use xlink:href="#dot" transform="translate(-100.985753,29.921399)" />   <use xlink:href="#dot" transform="translate(-99.928117,29.75248)" />   <use xlink:href="#dot" transform="translate(-98.798859,34.783261)" />   <use xlink:href="#dot" transform="translate(-98.421252,30.246072)" />   <use xlink:href="#dot" transform="translate(-116.377255,33.648154)" />   <use xlink:href="#dot" transform="translate(-116.377303,33.648212)" />   <use xlink:href="#dot" transform="translate(-110.166589,24.057267)" />   <use xlink:href="#dot" transform="translate(-104.159722,29.544797)" />   <use xlink:href="#dot" transform="translate(-116.376476,33.647801)" />   <use xlink:href="#dot" transform="translate(-104.179586,30.723469)" /><polygon class="region" points="-116.570062,33.234502 -117.9343,36.7969 -108.955073,39.157471 -98.798859,34.783261 -98.705153,34.735542 -98.2,30.11 -99.990952,25.932756 -102.340047,22.175378 -109.724638,23.47761 -109.789938,23.498386 -110.128326,23.893717 -114.742272,29.751428 -116.570062,33.234502 " />
		  </g>
		</svg>