<?xml version="1.0" encoding="UTF-8"?>
	<svg xmlns:xlink="http://www.w3.org/1999/xlink" 
	xmlns="http://www.w3.org/2000/svg" 
	width="360px" height="180px">
	   <style type="text/css">
		  <![CDATA[     
		  .region 
		  { 
			fill:blue; 
			opacity:0.4; 
			stroke:blue;
		  }
		  ]]>
	   </style>

	<circle id="dot" x="-2" y="-2" r="2" style="stroke:none; stroke-width:0; fill:black; opacity:0.7;"/>


	 <image x="0" y="0" width="360" height="180" xlink:href="map.jpg"/>

 
	 <g transform="translate(180,90) scale(1,-1)">   <use xlink:href="#dot" transform="translate(-72.948333,7.503889)" />   <use xlink:href="#dot" transform="translate(-72.948333,7.503889)" />   <use xlink:href="#dot" transform="translate(-76.005556,5.149444)" />   <use xlink:href="#dot" transform="translate(-76.005556,5.149444)" />   <use xlink:href="#dot" transform="translate(-72.595554,4.267079)" />   <use xlink:href="#dot" transform="translate(-74.833333,6)" />   <use xlink:href="#dot" transform="translate(-74.833333,6)" />   <use xlink:href="#dot" transform="translate(-74.344472,5.852806)" />   <use xlink:href="#dot" transform="translate(-74.344472,5.852806)" />   <use xlink:href="#dot" transform="translate(-72.595554,4.267079)" />   <use xlink:href="#dot" transform="translate(-74.344472,5.852806)" />   <use xlink:href="#dot" transform="translate(-72.595554,4.267079)" />   <use xlink:href="#dot" transform="translate(-72.595554,4.267079)" />   <use xlink:href="#dot" transform="translate(-70.263031,-3.820258)" />   <use xlink:href="#dot" transform="translate(-73.860967,4.764725)" />   <use xlink:href="#dot" transform="translate(-75.579131,4.735167)" />   <use xlink:href="#dot" transform="translate(-73.875,4.73637)" />   <use xlink:href="#dot" transform="translate(-73.875,4.73637)" />   <use xlink:href="#dot" transform="translate(-73.875,4.73637)" />   <use xlink:href="#dot" transform="translate(-73.875,4.73637)" />   <use xlink:href="#dot" transform="translate(-73.875,4.73637)" />   <use xlink:href="#dot" transform="translate(-73.875,4.73637)" />   <use xlink:href="#dot" transform="translate(-73.875,4.73637)" /><polygon class="region" points="-70.263031,-3.820258 -76.005556,5.149444 -72.948333,7.503889 -70.263031,-3.820258 " />
		  </g>
		</svg>