<?xml version="1.0" encoding="UTF-8"?>
	<svg xmlns:xlink="http://www.w3.org/1999/xlink" 
	xmlns="http://www.w3.org/2000/svg" 
	width="360px" height="180px">
	   <style type="text/css">
		  <![CDATA[     
		  .region 
		  { 
			fill:blue; 
			opacity:0.4; 
			stroke:blue;
		  }
		  ]]>
	   </style>

	<circle id="dot" x="-2" y="-2" r="2" style="stroke:none; stroke-width:0; fill:black; opacity:0.7;"/>


	 <image x="0" y="0" width="360" height="180" xlink:href="map.jpg"/>

 
	 <g transform="translate(180,90) scale(1,-1)">   <use xlink:href="#dot" transform="translate(-76.810311,-1.053811)" />   <use xlink:href="#dot" transform="translate(-76.276469,-0.436928)" />   <use xlink:href="#dot" transform="translate(-72.242394,-3.632556)" />   <use xlink:href="#dot" transform="translate(-72.245706,-3.623706)" />   <use xlink:href="#dot" transform="translate(-77.86595,-0.95302)" />   <use xlink:href="#dot" transform="translate(-77.8616,-0.95257)" />   <use xlink:href="#dot" transform="translate(-72.557261,-4.015032)" />   <use xlink:href="#dot" transform="translate(-72.586957,-4.038369)" />   <use xlink:href="#dot" transform="translate(-72.568236,-4.035004)" />   <use xlink:href="#dot" transform="translate(-73.932552,-2.659517)" />   <use xlink:href="#dot" transform="translate(-76.374046,-0.495773)" />   <use xlink:href="#dot" transform="translate(-75.149737968372,-2.1367439173277)" />   <use xlink:href="#dot" transform="translate(-77.6,-1.05)" />   <use xlink:href="#dot" transform="translate(-77.602188,-1.053408)" />   <use xlink:href="#dot" transform="translate(-77.602188,-1.053408)" />   <use xlink:href="#dot" transform="translate(-77.602188,-1.053408)" />   <use xlink:href="#dot" transform="translate(-77.602188,-1.053408)" />   <use xlink:href="#dot" transform="translate(-77.602188,-1.053408)" />   <use xlink:href="#dot" transform="translate(-77.602188,-1.053408)" />   <use xlink:href="#dot" transform="translate(-77.602188,-1.053408)" />   <use xlink:href="#dot" transform="translate(-77.602188,-1.053408)" />   <use xlink:href="#dot" transform="translate(-77.602188,-1.053408)" />   <use xlink:href="#dot" transform="translate(-77.602188,-1.053408)" />   <use xlink:href="#dot" transform="translate(-77.602188,-1.053408)" />   <use xlink:href="#dot" transform="translate(-77.602188,-1.053408)" />   <use xlink:href="#dot" transform="translate(-77.602188,-1.053408)" />   <use xlink:href="#dot" transform="translate(-77.602188,-1.053408)" />   <use xlink:href="#dot" transform="translate(-77.602188,-1.053408)" />   <use xlink:href="#dot" transform="translate(-77.602188,-1.053408)" />   <use xlink:href="#dot" transform="translate(-77.602188,-1.053408)" />   <use xlink:href="#dot" transform="translate(-77.602188,-1.053408)" />   <use xlink:href="#dot" transform="translate(-77.602188,-1.053408)" />   <use xlink:href="#dot" transform="translate(-77.602188,-1.053408)" />   <use xlink:href="#dot" transform="translate(-77.602188,-1.053408)" />   <use xlink:href="#dot" transform="translate(-77.602188,-1.053408)" />   <use xlink:href="#dot" transform="translate(-77.602188,-1.053408)" />   <use xlink:href="#dot" transform="translate(-77.602188,-1.053408)" />   <use xlink:href="#dot" transform="translate(-77.602188,-1.053408)" />   <use xlink:href="#dot" transform="translate(-77.602188,-1.053408)" />   <use xlink:href="#dot" transform="translate(-77.602188,-1.053408)" />   <use xlink:href="#dot" transform="translate(-77.602188,-1.053408)" />   <use xlink:href="#dot" transform="translate(-77.602188,-1.053408)" />   <use xlink:href="#dot" transform="translate(-77.602188,-1.053408)" />   <use xlink:href="#dot" transform="translate(-77.602188,-1.053408)" />   <use xlink:href="#dot" transform="translate(-77.602188,-1.053408)" />   <use xlink:href="#dot" transform="translate(-77.602188,-1.053408)" />   <use xlink:href="#dot" transform="translate(-77.602188,-1.053408)" />   <use xlink:href="#dot" transform="translate(-77.602188,-1.053408)" />   <use xlink:href="#dot" transform="translate(-77.602188,-1.053408)" />   <use xlink:href="#dot" transform="translate(-77.602188,-1.053408)" />   <use xlink:href="#dot" transform="translate(-77.602188,-1.053408)" />   <use xlink:href="#dot" transform="translate(-77.602188,-1.053408)" />   <use xlink:href="#dot" transform="translate(-77.602188,-1.053408)" />   <use xlink:href="#dot" transform="translate(-77.602188,-1.053408)" />   <use xlink:href="#dot" transform="translate(-77.602188,-1.053408)" />   <use xlink:href="#dot" transform="translate(-77.602188,-1.053408)" />   <use xlink:href="#dot" transform="translate(-77.602188,-1.053408)" />   <use xlink:href="#dot" transform="translate(-77.602188,-1.053408)" />   <use xlink:href="#dot" transform="translate(-77.602188,-1.053408)" />   <use xlink:href="#dot" transform="translate(-77.602188,-1.053408)" />   <use xlink:href="#dot" transform="translate(-77.602188,-1.053408)" />   <use xlink:href="#dot" transform="translate(-77.602188,-1.053408)" />   <use xlink:href="#dot" transform="translate(-77.602188,-1.053408)" />   <use xlink:href="#dot" transform="translate(-77.602188,-1.053408)" />   <use xlink:href="#dot" transform="translate(-77.602188,-1.053408)" />   <use xlink:href="#dot" transform="translate(-77.602188,-1.053408)" />   <use xlink:href="#dot" transform="translate(-77.602188,-1.053408)" />   <use xlink:href="#dot" transform="translate(-77.602188,-1.053408)" />   <use xlink:href="#dot" transform="translate(-77.602188,-1.053408)" />   <use xlink:href="#dot" transform="translate(-77.602188,-1.053408)" />   <use xlink:href="#dot" transform="translate(-77.602188,-1.053408)" />   <use xlink:href="#dot" transform="translate(-77.602188,-1.053408)" />   <use xlink:href="#dot" transform="translate(-77.602188,-1.053408)" />   <use xlink:href="#dot" transform="translate(-77.602188,-1.053408)" />   <use xlink:href="#dot" transform="translate(-77.602188,-1.053408)" />   <use xlink:href="#dot" transform="translate(-77.602188,-1.053408)" />   <use xlink:href="#dot" transform="translate(-77.602188,-1.053408)" />   <use xlink:href="#dot" transform="translate(-77.602188,-1.053408)" />   <use xlink:href="#dot" transform="translate(-77.602188,-1.053408)" />   <use xlink:href="#dot" transform="translate(-77.602188,-1.053408)" />   <use xlink:href="#dot" transform="translate(-77.602188,-1.053408)" />   <use xlink:href="#dot" transform="translate(-77.602188,-1.053408)" />   <use xlink:href="#dot" transform="translate(-77.602188,-1.053408)" />   <use xlink:href="#dot" transform="translate(-77.602188,-1.053408)" />   <use xlink:href="#dot" transform="translate(-77.602188,-1.053408)" />   <use xlink:href="#dot" transform="translate(-77.602188,-1.053408)" />   <use xlink:href="#dot" transform="translate(-77.602188,-1.053408)" />   <use xlink:href="#dot" transform="translate(-77.602188,-1.053408)" />   <use xlink:href="#dot" transform="translate(-77.602188,-1.053408)" />   <use xlink:href="#dot" transform="translate(-77.602188,-1.053408)" />   <use xlink:href="#dot" transform="translate(-77.602188,-1.053408)" />   <use xlink:href="#dot" transform="translate(-77.602188,-1.053408)" />   <use xlink:href="#dot" transform="translate(-77.602188,-1.053408)" />   <use xlink:href="#dot" transform="translate(-77.602188,-1.053408)" />   <use xlink:href="#dot" transform="translate(-77.602188,-1.053408)" />   <use xlink:href="#dot" transform="translate(-77.602188,-1.053408)" />   <use xlink:href="#dot" transform="translate(-77.602188,-1.053408)" />   <use xlink:href="#dot" transform="translate(-77.602188,-1.053408)" />   <use xlink:href="#dot" transform="translate(-77.602188,-1.053408)" />   <use xlink:href="#dot" transform="translate(-77.602188,-1.053408)" />   <use xlink:href="#dot" transform="translate(-77.602188,-1.053408)" />   <use xlink:href="#dot" transform="translate(-77.602188,-1.053408)" />   <use xlink:href="#dot" transform="translate(-77.602188,-1.053408)" />   <use xlink:href="#dot" transform="translate(-77.602188,-1.053408)" />   <use xlink:href="#dot" transform="translate(-77.602188,-1.053408)" />   <use xlink:href="#dot" transform="translate(-77.602188,-1.053408)" />   <use xlink:href="#dot" transform="translate(-77.602188,-1.053408)" />   <use xlink:href="#dot" transform="translate(-77.602188,-1.053408)" />   <use xlink:href="#dot" transform="translate(-77.602188,-1.053408)" />   <use xlink:href="#dot" transform="translate(-77.602188,-1.053408)" />   <use xlink:href="#dot" transform="translate(-77.602188,-1.053408)" />   <use xlink:href="#dot" transform="translate(-77.602188,-1.053408)" />   <use xlink:href="#dot" transform="translate(-77.602188,-1.053408)" />   <use xlink:href="#dot" transform="translate(-77.602188,-1.053408)" />   <use xlink:href="#dot" transform="translate(-77.602188,-1.053408)" />   <use xlink:href="#dot" transform="translate(-77.602188,-1.053408)" />   <use xlink:href="#dot" transform="translate(-77.602188,-1.053408)" />   <use xlink:href="#dot" transform="translate(-77.602188,-1.053408)" />   <use xlink:href="#dot" transform="translate(-77.602188,-1.053408)" />   <use xlink:href="#dot" transform="translate(-77.602188,-1.053408)" />   <use xlink:href="#dot" transform="translate(-77.602188,-1.053408)" />   <use xlink:href="#dot" transform="translate(-77.602188,-1.053408)" />   <use xlink:href="#dot" transform="translate(-77.602188,-1.053408)" />   <use xlink:href="#dot" transform="translate(-77.602188,-1.053408)" />   <use xlink:href="#dot" transform="translate(-77.602188,-1.053408)" />   <use xlink:href="#dot" transform="translate(-77.602188,-1.053408)" />   <use xlink:href="#dot" transform="translate(-77.602188,-1.053408)" />   <use xlink:href="#dot" transform="translate(-77.602188,-1.053408)" />   <use xlink:href="#dot" transform="translate(-77.602188,-1.053408)" />   <use xlink:href="#dot" transform="translate(-77.602188,-1.053408)" />   <use xlink:href="#dot" transform="translate(-77.602188,-1.053408)" />   <use xlink:href="#dot" transform="translate(-77.602188,-1.053408)" />   <use xlink:href="#dot" transform="translate(-77.602188,-1.053408)" />   <use xlink:href="#dot" transform="translate(-77.602188,-1.053408)" />   <use xlink:href="#dot" transform="translate(-77.602188,-1.053408)" />   <use xlink:href="#dot" transform="translate(-77.602188,-1.053408)" />   <use xlink:href="#dot" transform="translate(-77.602188,-1.053408)" />   <use xlink:href="#dot" transform="translate(-77.602188,-1.053408)" />   <use xlink:href="#dot" transform="translate(-77.602188,-1.053408)" />   <use xlink:href="#dot" transform="translate(-77.602188,-1.053408)" />   <use xlink:href="#dot" transform="translate(-77.602188,-1.053408)" />   <use xlink:href="#dot" transform="translate(-77.602188,-1.053408)" />   <use xlink:href="#dot" transform="translate(-77.602188,-1.053408)" />   <use xlink:href="#dot" transform="translate(-77.602188,-1.053408)" />   <use xlink:href="#dot" transform="translate(-77.602188,-1.053408)" />   <use xlink:href="#dot" transform="translate(-77.602188,-1.053408)" />   <use xlink:href="#dot" transform="translate(-77.602188,-1.053408)" />   <use xlink:href="#dot" transform="translate(-77.602188,-1.053408)" />   <use xlink:href="#dot" transform="translate(-77.602188,-1.053408)" />   <use xlink:href="#dot" transform="translate(-77.602188,-1.053408)" />   <use xlink:href="#dot" transform="translate(-77.602188,-1.053408)" />   <use xlink:href="#dot" transform="translate(-77.602188,-1.053408)" />   <use xlink:href="#dot" transform="translate(-77.602188,-1.053408)" />   <use xlink:href="#dot" transform="translate(-77.602188,-1.053408)" />   <use xlink:href="#dot" transform="translate(-77.602188,-1.053408)" />   <use xlink:href="#dot" transform="translate(-77.602188,-1.053408)" />   <use xlink:href="#dot" transform="translate(-77.602188,-1.053408)" />   <use xlink:href="#dot" transform="translate(-77.602188,-1.053408)" />   <use xlink:href="#dot" transform="translate(-77.602188,-1.053408)" />   <use xlink:href="#dot" transform="translate(-77.602188,-1.053408)" />   <use xlink:href="#dot" transform="translate(-77.602188,-1.053408)" />   <use xlink:href="#dot" transform="translate(-77.602188,-1.053408)" />   <use xlink:href="#dot" transform="translate(-77.602188,-1.053408)" />   <use xlink:href="#dot" transform="translate(-77.602188,-1.053408)" />   <use xlink:href="#dot" transform="translate(-77.602188,-1.053408)" />   <use xlink:href="#dot" transform="translate(-77.602188,-1.053408)" />   <use xlink:href="#dot" transform="translate(-77.602188,-1.053408)" />   <use xlink:href="#dot" transform="translate(-77.602188,-1.053408)" />   <use xlink:href="#dot" transform="translate(-77.602188,-1.053408)" />   <use xlink:href="#dot" transform="translate(-77.602188,-1.053408)" />   <use xlink:href="#dot" transform="translate(-76.4167,-0.1333)" />   <use xlink:href="#dot" transform="translate(-73.11667,-2.7)" />   <use xlink:href="#dot" transform="translate(-78.25691,-2.467)" />   <use xlink:href="#dot" transform="translate(-78.25691,-2.467)" />   <use xlink:href="#dot" transform="translate(-78.25691,-2.467)" />   <use xlink:href="#dot" transform="translate(-78.25691,-2.467)" />   <use xlink:href="#dot" transform="translate(-78.25691,-2.467)" />   <use xlink:href="#dot" transform="translate(-76.966667,0.05)" />   <use xlink:href="#dot" transform="translate(-76.966667,0.05)" />   <use xlink:href="#dot" transform="translate(-76.966667,0.05)" />   <use xlink:href="#dot" transform="translate(-76.966667,0.05)" />   <use xlink:href="#dot" transform="translate(-76.966667,0.05)" />   <use xlink:href="#dot" transform="translate(-76.966667,0.05)" />   <use xlink:href="#dot" transform="translate(-76.966667,0.05)" />   <use xlink:href="#dot" transform="translate(-76.966667,0.05)" />   <use xlink:href="#dot" transform="translate(-76.966667,0.05)" />   <use xlink:href="#dot" transform="translate(-76.966667,0.05)" />   <use xlink:href="#dot" transform="translate(-76.966667,0.05)" />   <use xlink:href="#dot" transform="translate(-76.966667,0.05)" />   <use xlink:href="#dot" transform="translate(-76.966667,0.05)" />   <use xlink:href="#dot" transform="translate(-76.966667,0.05)" />   <use xlink:href="#dot" transform="translate(-77.483333,-0.2)" />   <use xlink:href="#dot" transform="translate(-77.483333,-0.2)" />   <use xlink:href="#dot" transform="translate(-77.483333,-0.2)" />   <use xlink:href="#dot" transform="translate(-77.483333,-0.2)" />   <use xlink:href="#dot" transform="translate(-77.483333,-0.2)" />   <use xlink:href="#dot" transform="translate(-77.483333,-0.2)" />   <use xlink:href="#dot" transform="translate(-77.483333,-0.2)" />   <use xlink:href="#dot" transform="translate(-77.483333,-0.2)" />   <use xlink:href="#dot" transform="translate(-77.483333,-0.2)" />   <use xlink:href="#dot" transform="translate(-77.483333,-0.2)" />   <use xlink:href="#dot" transform="translate(-77.483333,-0.2)" />   <use xlink:href="#dot" transform="translate(-77.483333,-0.2)" />   <use xlink:href="#dot" transform="translate(-77.483333,-0.2)" />   <use xlink:href="#dot" transform="translate(-77.483333,-0.2)" />   <use xlink:href="#dot" transform="translate(-77.483333,-0.2)" />   <use xlink:href="#dot" transform="translate(-77.483333,-0.2)" />   <use xlink:href="#dot" transform="translate(-77.483333,-0.2)" />   <use xlink:href="#dot" transform="translate(-77.483333,-0.2)" />   <use xlink:href="#dot" transform="translate(-77.483333,-0.2)" />   <use xlink:href="#dot" transform="translate(-77.483333,-0.2)" />   <use xlink:href="#dot" transform="translate(-77.483333,-0.2)" />   <use xlink:href="#dot" transform="translate(-77.483333,-0.2)" />   <use xlink:href="#dot" transform="translate(-77.483333,-0.2)" />   <use xlink:href="#dot" transform="translate(-77.483333,-0.2)" />   <use xlink:href="#dot" transform="translate(-77.483333,-0.2)" />   <use xlink:href="#dot" transform="translate(-77.483333,-0.2)" />   <use xlink:href="#dot" transform="translate(-77.483333,-0.2)" />   <use xlink:href="#dot" transform="translate(-77.483333,-0.2)" />   <use xlink:href="#dot" transform="translate(-77.483333,-0.2)" />   <use xlink:href="#dot" transform="translate(-77.483333,-0.2)" />   <use xlink:href="#dot" transform="translate(-77.483333,-0.2)" />   <use xlink:href="#dot" transform="translate(-77.483333,-0.2)" />   <use xlink:href="#dot" transform="translate(-77.483333,-0.2)" />   <use xlink:href="#dot" transform="translate(-77.483333,-0.2)" />   <use xlink:href="#dot" transform="translate(-77.483333,-0.2)" />   <use xlink:href="#dot" transform="translate(-77.483333,-0.2)" />   <use xlink:href="#dot" transform="translate(-77.483333,-0.2)" />   <use xlink:href="#dot" transform="translate(-77.483333,-0.2)" />   <use xlink:href="#dot" transform="translate(-77.483333,-0.2)" />   <use xlink:href="#dot" transform="translate(-77.483333,-0.2)" />   <use xlink:href="#dot" transform="translate(-77.483333,-0.2)" />   <use xlink:href="#dot" transform="translate(-77.483333,-0.2)" />   <use xlink:href="#dot" transform="translate(-77.483333,-0.2)" />   <use xlink:href="#dot" transform="translate(-77.483333,-0.2)" />   <use xlink:href="#dot" transform="translate(-77.483333,-0.2)" />   <use xlink:href="#dot" transform="translate(-77.483333,-0.2)" />   <use xlink:href="#dot" transform="translate(-77.483333,-0.2)" />   <use xlink:href="#dot" transform="translate(-77.483333,-0.2)" />   <use xlink:href="#dot" transform="translate(-77.483333,-0.2)" />   <use xlink:href="#dot" transform="translate(-77.483333,-0.2)" />   <use xlink:href="#dot" transform="translate(-77.483333,-0.2)" />   <use xlink:href="#dot" transform="translate(-77.483333,-0.2)" />   <use xlink:href="#dot" transform="translate(-77.483333,-0.2)" />   <use xlink:href="#dot" transform="translate(-77.483333,-0.2)" />   <use xlink:href="#dot" transform="translate(-77.483333,-0.2)" />   <use xlink:href="#dot" transform="translate(-77.483333,-0.2)" />   <use xlink:href="#dot" transform="translate(-77.483333,-0.2)" />   <use xlink:href="#dot" transform="translate(-77.483333,-0.2)" />   <use xlink:href="#dot" transform="translate(-77.483333,-0.2)" />   <use xlink:href="#dot" transform="translate(-77.483333,-0.2)" />   <use xlink:href="#dot" transform="translate(-77.483333,-0.2)" />   <use xlink:href="#dot" transform="translate(-77.483333,-0.2)" />   <use xlink:href="#dot" transform="translate(-77.483333,-0.2)" />   <use xlink:href="#dot" transform="translate(-77.483333,-0.2)" />   <use xlink:href="#dot" transform="translate(-77.483333,-0.2)" />   <use xlink:href="#dot" transform="translate(-77.483333,-0.2)" />   <use xlink:href="#dot" transform="translate(-77.483333,-0.2)" />   <use xlink:href="#dot" transform="translate(-77.483333,-0.2)" />   <use xlink:href="#dot" transform="translate(-77.483333,-0.2)" />   <use xlink:href="#dot" transform="translate(-77.483333,-0.2)" />   <use xlink:href="#dot" transform="translate(-77.483333,-0.2)" />   <use xlink:href="#dot" transform="translate(-77.483333,-0.2)" />   <use xlink:href="#dot" transform="translate(-77.483333,-0.2)" />   <use xlink:href="#dot" transform="translate(-76.791,0.081)" />   <use xlink:href="#dot" transform="translate(-77.483333,-0.2)" />   <use xlink:href="#dot" transform="translate(-77.483333,-0.2)" />   <use xlink:href="#dot" transform="translate(-77.483333,-0.2)" />   <use xlink:href="#dot" transform="translate(-77.483333,-0.2)" />   <use xlink:href="#dot" transform="translate(-77.483333,-0.2)" />   <use xlink:href="#dot" transform="translate(-77.483333,-0.2)" />   <use xlink:href="#dot" transform="translate(-77.483333,-0.2)" />   <use xlink:href="#dot" transform="translate(-77.483333,-0.2)" />   <use xlink:href="#dot" transform="translate(-77.483333,-0.2)" />   <use xlink:href="#dot" transform="translate(-77.483333,-0.2)" />   <use xlink:href="#dot" transform="translate(-77.483333,-0.2)" />   <use xlink:href="#dot" transform="translate(-77.483333,-0.2)" />   <use xlink:href="#dot" transform="translate(-77.483333,-0.2)" />   <use xlink:href="#dot" transform="translate(-76.966667,0.05)" />   <use xlink:href="#dot" transform="translate(-77.483333,-0.2)" />   <use xlink:href="#dot" transform="translate(-77.483333,-0.2)" />   <use xlink:href="#dot" transform="translate(-77.483333,-0.2)" />   <use xlink:href="#dot" transform="translate(-77.483333,-0.2)" />   <use xlink:href="#dot" transform="translate(-77.483333,-0.2)" />   <use xlink:href="#dot" transform="translate(-77.483333,-0.2)" />   <use xlink:href="#dot" transform="translate(-77.483333,-0.2)" />   <use xlink:href="#dot" transform="translate(-77.483333,-0.2)" />   <use xlink:href="#dot" transform="translate(-77.483333,-0.2)" />   <use xlink:href="#dot" transform="translate(-77.483333,-0.2)" />   <use xlink:href="#dot" transform="translate(-77.483333,-0.2)" />   <use xlink:href="#dot" transform="translate(-76.791,0.081)" />   <use xlink:href="#dot" transform="translate(-77.483333,-0.2)" />   <use xlink:href="#dot" transform="translate(-77.483333,-0.2)" />   <use xlink:href="#dot" transform="translate(-77.483333,-0.2)" />   <use xlink:href="#dot" transform="translate(-76.966667,0.05)" />   <use xlink:href="#dot" transform="translate(-76.966667,0.05)" />   <use xlink:href="#dot" transform="translate(-78.3098,-2.66662)" />   <use xlink:href="#dot" transform="translate(-77.602188,-1.053408)" />   <use xlink:href="#dot" transform="translate(-78.25658,-2.46667)" />   <use xlink:href="#dot" transform="translate(-77.602188,-1.053408)" /><polygon class="region" points="-72.586957,-4.038369 -78.3098,-2.66662 -77.86595,-0.95302 -77.483333,-0.2 -76.966667,0.05 -76.791,0.081 -76.4167,-0.1333 -73.11667,-2.7 -72.245706,-3.623706 -72.242394,-3.632556 -72.568236,-4.035004 -72.586957,-4.038369 " />
		  </g>
		</svg>