<?xml version="1.0" encoding="UTF-8"?>
	<svg xmlns:xlink="http://www.w3.org/1999/xlink" 
	xmlns="http://www.w3.org/2000/svg" 
	width="360px" height="180px">
	   <style type="text/css">
		  <![CDATA[     
		  .region 
		  { 
			fill:blue; 
			opacity:0.4; 
			stroke:blue;
		  }
		  ]]>
	   </style>

	<circle id="dot" x="-2" y="-2" r="2" style="stroke:none; stroke-width:0; fill:black; opacity:0.7;"/>


	 <image x="0" y="0" width="360" height="180" xlink:href="map.jpg"/>

 
	 <g transform="translate(180,90) scale(1,-1)">   <use xlink:href="#dot" transform="translate(-74.057739,4.599124)" />   <use xlink:href="#dot" transform="translate(-74.282222,4.883333)" />   <use xlink:href="#dot" transform="translate(-73.102667,5.941583)" />   <use xlink:href="#dot" transform="translate(-73.937559,4.637766)" />   <use xlink:href="#dot" transform="translate(-73.937559,4.637766)" />   <use xlink:href="#dot" transform="translate(-73.937559,4.637766)" />   <use xlink:href="#dot" transform="translate(-73.937559,4.637766)" />   <use xlink:href="#dot" transform="translate(-73.937559,4.637766)" />   <use xlink:href="#dot" transform="translate(-73.937559,4.637766)" />   <use xlink:href="#dot" transform="translate(-74.395278,3.923889)" />   <use xlink:href="#dot" transform="translate(-74.395283,3.9238)" />   <use xlink:href="#dot" transform="translate(-73.726083,4.899517)" />   <use xlink:href="#dot" transform="translate(-73.998056,4.550833)" />   <use xlink:href="#dot" transform="translate(-73.726083,4.899517)" />   <use xlink:href="#dot" transform="translate(-73.785194,4.970639)" />   <use xlink:href="#dot" transform="translate(-73.785194,4.970639)" />   <use xlink:href="#dot" transform="translate(-73.785278,4.970556)" />   <use xlink:href="#dot" transform="translate(-73.721111,4.899444)" />   <use xlink:href="#dot" transform="translate(-73.726111,4.899444)" />   <use xlink:href="#dot" transform="translate(-73.721125,4.899517)" />   <use xlink:href="#dot" transform="translate(-73.726083,4.899517)" />   <use xlink:href="#dot" transform="translate(-73.998139,4.550917)" />   <use xlink:href="#dot" transform="translate(-73.726083,4.899517)" />   <use xlink:href="#dot" transform="translate(-73.785194,4.970639)" />   <use xlink:href="#dot" transform="translate(-73.721125,4.899517)" />   <use xlink:href="#dot" transform="translate(-73.721125,4.899517)" />   <use xlink:href="#dot" transform="translate(-73.721125,4.899517)" />   <use xlink:href="#dot" transform="translate(-73.785194,4.970639)" />   <use xlink:href="#dot" transform="translate(-73.689722,4.508333)" />   <use xlink:href="#dot" transform="translate(-72.7767,7.5422)" />   <use xlink:href="#dot" transform="translate(-72.7767,7.5422)" />   <use xlink:href="#dot" transform="translate(-72.7767,7.5422)" />   <use xlink:href="#dot" transform="translate(-72.7767,7.5422)" />   <use xlink:href="#dot" transform="translate(-72.7767,7.5422)" />   <use xlink:href="#dot" transform="translate(-72.7767,7.5422)" />   <use xlink:href="#dot" transform="translate(-72.7767,7.5422)" />   <use xlink:href="#dot" transform="translate(-72.7767,7.5422)" />   <use xlink:href="#dot" transform="translate(-72.7767,7.5422)" />   <use xlink:href="#dot" transform="translate(-72.7767,7.5422)" />   <use xlink:href="#dot" transform="translate(-72.7767,7.5422)" />   <use xlink:href="#dot" transform="translate(-72.7767,7.5422)" />   <use xlink:href="#dot" transform="translate(-72.7767,7.5422)" />   <use xlink:href="#dot" transform="translate(-72.7767,7.5422)" />   <use xlink:href="#dot" transform="translate(-72.7767,7.5422)" />   <use xlink:href="#dot" transform="translate(-72.7767,7.5422)" />   <use xlink:href="#dot" transform="translate(-72.7767,7.5422)" />   <use xlink:href="#dot" transform="translate(-72.7767,7.5422)" />   <use xlink:href="#dot" transform="translate(-72.7767,7.5422)" />   <use xlink:href="#dot" transform="translate(-72.7767,7.5422)" />   <use xlink:href="#dot" transform="translate(-72.7767,7.5422)" />   <use xlink:href="#dot" transform="translate(-72.7767,7.5422)" />   <use xlink:href="#dot" transform="translate(-72.7767,7.5422)" />   <use xlink:href="#dot" transform="translate(-72.7767,7.5422)" />   <use xlink:href="#dot" transform="translate(-72.7767,7.5422)" />   <use xlink:href="#dot" transform="translate(-72.7767,7.5422)" />   <use xlink:href="#dot" transform="translate(-72.7767,7.5422)" />   <use xlink:href="#dot" transform="translate(-72.7767,7.5422)" />   <use xlink:href="#dot" transform="translate(-72.7767,7.5422)" />   <use xlink:href="#dot" transform="translate(-72.7767,7.5422)" />   <use xlink:href="#dot" transform="translate(-72.7767,7.5422)" />   <use xlink:href="#dot" transform="translate(-72.7767,7.5422)" />   <use xlink:href="#dot" transform="translate(-69.9405,-4.2152)" />   <use xlink:href="#dot" transform="translate(-73.466667,5.218125)" />   <use xlink:href="#dot" transform="translate(-73.466667,5.218125)" />   <use xlink:href="#dot" transform="translate(-73.466667,5.218125)" />   <use xlink:href="#dot" transform="translate(-74.3,4.44824)" />   <use xlink:href="#dot" transform="translate(-74.046146,5.845521)" />   <use xlink:href="#dot" transform="translate(-74.392364,4.688634)" />   <use xlink:href="#dot" transform="translate(-73.801056,4.659979)" />   <use xlink:href="#dot" transform="translate(-73.801056,4.659979)" />   <use xlink:href="#dot" transform="translate(-73.801056,4.659979)" />   <use xlink:href="#dot" transform="translate(-73.801056,4.659979)" />   <use xlink:href="#dot" transform="translate(-73.801056,4.659979)" />   <use xlink:href="#dot" transform="translate(-73.801056,4.659979)" />   <use xlink:href="#dot" transform="translate(-73.801056,4.659979)" />   <use xlink:href="#dot" transform="translate(-74.392364,4.688634)" />   <use xlink:href="#dot" transform="translate(-73.801056,4.659979)" />   <use xlink:href="#dot" transform="translate(-74.392364,4.688634)" />   <use xlink:href="#dot" transform="translate(-74.392364,4.688634)" />   <use xlink:href="#dot" transform="translate(-73.801056,4.659979)" />   <use xlink:href="#dot" transform="translate(-73.801056,4.659979)" />   <use xlink:href="#dot" transform="translate(-73.801056,4.659979)" />   <use xlink:href="#dot" transform="translate(-73.801056,4.659979)" />   <use xlink:href="#dot" transform="translate(-73.801056,4.659979)" />   <use xlink:href="#dot" transform="translate(-73.801056,4.659979)" />   <use xlink:href="#dot" transform="translate(-73.770903,4.501342)" />   <use xlink:href="#dot" transform="translate(-73.860804,4.709894)" />   <use xlink:href="#dot" transform="translate(-73.860804,4.709894)" />   <use xlink:href="#dot" transform="translate(-73.860804,4.709894)" />   <use xlink:href="#dot" transform="translate(-73.716667,4.6)" />   <use xlink:href="#dot" transform="translate(-73.837868,4.741025)" />   <use xlink:href="#dot" transform="translate(-73.801056,4.659979)" />   <use xlink:href="#dot" transform="translate(-73.860804,4.709894)" />   <use xlink:href="#dot" transform="translate(-73.860804,4.709894)" />   <use xlink:href="#dot" transform="translate(-73.860804,4.709894)" />   <use xlink:href="#dot" transform="translate(-74.393781,4.338626)" />   <use xlink:href="#dot" transform="translate(-73.837871,4.741029)" />   <use xlink:href="#dot" transform="translate(-73.860804,4.709894)" />   <use xlink:href="#dot" transform="translate(-74.833333,6)" />   <use xlink:href="#dot" transform="translate(-73.837868,4.741025)" />   <use xlink:href="#dot" transform="translate(-73.860804,4.709894)" />   <use xlink:href="#dot" transform="translate(-74.833333,6)" />   <use xlink:href="#dot" transform="translate(-70.263031,-3.820258)" />   <use xlink:href="#dot" transform="translate(-73.855403,4.707508)" />   <use xlink:href="#dot" transform="translate(-73.716667,4.6)" />   <use xlink:href="#dot" transform="translate(-74.741472,5.345976)" />   <use xlink:href="#dot" transform="translate(-74.38795,4.685553)" />   <use xlink:href="#dot" transform="translate(-73.716667,4.6)" />   <use xlink:href="#dot" transform="translate(-73.716667,4.6)" />   <use xlink:href="#dot" transform="translate(-75.560589,4.720454)" />   <use xlink:href="#dot" transform="translate(-74.741472,5.345976)" />   <use xlink:href="#dot" transform="translate(-74.741472,5.345976)" />   <use xlink:href="#dot" transform="translate(-73.763209,4.537446)" />   <use xlink:href="#dot" transform="translate(-74.634474,4.203341)" />   <use xlink:href="#dot" transform="translate(-73.799629,4.567695)" />   <use xlink:href="#dot" transform="translate(-73.716667,4.6)" />   <use xlink:href="#dot" transform="translate(-73.828987,4.755397)" />   <use xlink:href="#dot" transform="translate(-73.708951,4.570554)" />   <use xlink:href="#dot" transform="translate(-73.779336,4.503218)" />   <use xlink:href="#dot" transform="translate(-72.958333,4.095833)" />   <use xlink:href="#dot" transform="translate(-73.916667,4.583333)" />   <use xlink:href="#dot" transform="translate(-73.916667,4.583333)" />   <use xlink:href="#dot" transform="translate(-73.916667,4.583333)" />   <use xlink:href="#dot" transform="translate(-73.916667,4.583333)" />   <use xlink:href="#dot" transform="translate(-73.916667,4.583333)" />   <use xlink:href="#dot" transform="translate(-73.916667,4.583333)" />   <use xlink:href="#dot" transform="translate(-73.916667,4.583333)" />   <use xlink:href="#dot" transform="translate(-73.916667,4.583333)" />   <use xlink:href="#dot" transform="translate(-73.916667,4.583333)" />   <use xlink:href="#dot" transform="translate(-73.916667,4.583333)" />   <use xlink:href="#dot" transform="translate(-73.916667,4.583333)" />   <use xlink:href="#dot" transform="translate(-73.916667,4.583333)" />   <use xlink:href="#dot" transform="translate(-73.844973,4.728022)" />   <use xlink:href="#dot" transform="translate(-73.723653,4.56028)" />   <use xlink:href="#dot" transform="translate(-73.844973,4.728022)" />   <use xlink:href="#dot" transform="translate(-73.844973,4.728022)" />   <use xlink:href="#dot" transform="translate(-73.844973,4.728022)" />   <use xlink:href="#dot" transform="translate(-73.855403,4.707508)" />   <use xlink:href="#dot" transform="translate(-73.844973,4.728022)" />   <use xlink:href="#dot" transform="translate(-73.844973,4.728022)" />   <use xlink:href="#dot" transform="translate(-73.844973,4.728022)" />   <use xlink:href="#dot" transform="translate(-73.844973,4.728022)" />   <use xlink:href="#dot" transform="translate(-73.844973,4.728022)" />   <use xlink:href="#dot" transform="translate(-73.650965,4.143457)" />   <use xlink:href="#dot" transform="translate(-73.844973,4.728022)" />   <use xlink:href="#dot" transform="translate(-73.844973,4.728022)" />   <use xlink:href="#dot" transform="translate(-73.844973,4.728022)" />   <use xlink:href="#dot" transform="translate(-73.844973,4.728022)" />   <use xlink:href="#dot" transform="translate(-74.139771,4.397671)" />   <use xlink:href="#dot" transform="translate(-73.844973,4.728022)" />   <use xlink:href="#dot" transform="translate(-73.844973,4.728022)" />   <use xlink:href="#dot" transform="translate(-73.844973,4.728022)" />   <use xlink:href="#dot" transform="translate(-73.844973,4.728022)" />   <use xlink:href="#dot" transform="translate(-73.844973,4.728022)" />   <use xlink:href="#dot" transform="translate(-73.844973,4.728022)" />   <use xlink:href="#dot" transform="translate(-73.844973,4.728022)" />   <use xlink:href="#dot" transform="translate(-73.844973,4.728022)" />   <use xlink:href="#dot" transform="translate(-73.844973,4.728022)" />   <use xlink:href="#dot" transform="translate(-73.844973,4.728022)" />   <use xlink:href="#dot" transform="translate(-73.844973,4.728022)" />   <use xlink:href="#dot" transform="translate(-73.844973,4.728022)" />   <use xlink:href="#dot" transform="translate(-73.844973,4.728022)" />   <use xlink:href="#dot" transform="translate(-73.855403,4.707508)" />   <use xlink:href="#dot" transform="translate(-73.844973,4.728022)" />   <use xlink:href="#dot" transform="translate(-73.844973,4.728022)" />   <use xlink:href="#dot" transform="translate(-73.844973,4.728022)" />   <use xlink:href="#dot" transform="translate(-73.844973,4.728022)" />   <use xlink:href="#dot" transform="translate(-73.844973,4.728022)" />   <use xlink:href="#dot" transform="translate(-73.716667,4.6)" />   <use xlink:href="#dot" transform="translate(-73.716667,4.6)" />   <use xlink:href="#dot" transform="translate(-73.729067,4.62825)" />   <use xlink:href="#dot" transform="translate(-73.727855,4.62693)" />   <use xlink:href="#dot" transform="translate(-73.650965,4.143457)" />   <use xlink:href="#dot" transform="translate(-73.049167,6.865861)" />   <use xlink:href="#dot" transform="translate(-73.727855,4.62693)" />   <use xlink:href="#dot" transform="translate(-73.716667,4.6)" />   <use xlink:href="#dot" transform="translate(-73.779336,4.503218)" />   <use xlink:href="#dot" transform="translate(-73.855403,4.707508)" />   <use xlink:href="#dot" transform="translate(-73.855403,4.707508)" />   <use xlink:href="#dot" transform="translate(-73.716667,4.6)" />   <use xlink:href="#dot" transform="translate(-73.716667,4.6)" />   <use xlink:href="#dot" transform="translate(-76.177399,4.787166)" />   <use xlink:href="#dot" transform="translate(-73.716667,4.6)" />   <use xlink:href="#dot" transform="translate(-73.826084,4.641998)" />   <use xlink:href="#dot" transform="translate(-73.716667,4.6)" />   <use xlink:href="#dot" transform="translate(-73.650965,4.143457)" />   <use xlink:href="#dot" transform="translate(-70.263031,-3.820258)" />   <use xlink:href="#dot" transform="translate(-70.263031,-3.820258)" />   <use xlink:href="#dot" transform="translate(-73.828987,4.755397)" />   <use xlink:href="#dot" transform="translate(-73.049167,6.865861)" />   <use xlink:href="#dot" transform="translate(-73.716667,4.6)" />   <use xlink:href="#dot" transform="translate(-73.837868,4.741025)" />   <use xlink:href="#dot" transform="translate(-73.716667,4.6)" />   <use xlink:href="#dot" transform="translate(-73.992413,4.853644)" />   <use xlink:href="#dot" transform="translate(-73.828987,4.755397)" />   <use xlink:href="#dot" transform="translate(-73.716667,4.6)" />   <use xlink:href="#dot" transform="translate(-73.049167,6.865861)" />   <use xlink:href="#dot" transform="translate(-73.649653,4.147764)" />   <use xlink:href="#dot" transform="translate(-73.049167,6.865861)" />   <use xlink:href="#dot" transform="translate(-73.826084,4.641998)" />   <use xlink:href="#dot" transform="translate(-73.716667,4.6)" />   <use xlink:href="#dot" transform="translate(-73.649653,4.147764)" />   <use xlink:href="#dot" transform="translate(-73.716667,4.6)" />   <use xlink:href="#dot" transform="translate(-70.263031,-3.820258)" />   <use xlink:href="#dot" transform="translate(-73.716667,4.6)" />   <use xlink:href="#dot" transform="translate(-73.716667,4.6)" />   <use xlink:href="#dot" transform="translate(-73.716667,4.6)" />   <use xlink:href="#dot" transform="translate(-73.844973,4.728022)" />   <use xlink:href="#dot" transform="translate(-73.844973,4.728022)" />   <use xlink:href="#dot" transform="translate(-73.844973,4.728022)" />   <use xlink:href="#dot" transform="translate(-73.855403,4.707508)" />   <use xlink:href="#dot" transform="translate(-73.855403,4.707508)" />   <use xlink:href="#dot" transform="translate(-74.139771,4.397671)" />   <use xlink:href="#dot" transform="translate(-74.307691,5.828013)" />   <use xlink:href="#dot" transform="translate(-73.716667,4.6)" />   <use xlink:href="#dot" transform="translate(-73.828987,4.755397)" />   <use xlink:href="#dot" transform="translate(-72.7396,5.50081)" />   <use xlink:href="#dot" transform="translate(-72.7396,5.50081)" />   <use xlink:href="#dot" transform="translate(-72.7683,6.17845)" />   <use xlink:href="#dot" transform="translate(-72.7683,6.17845)" />   <use xlink:href="#dot" transform="translate(-72.7683,6.17845)" />   <use xlink:href="#dot" transform="translate(-72.7683,6.17845)" />   <use xlink:href="#dot" transform="translate(-73.650965,4.143457)" />   <use xlink:href="#dot" transform="translate(-73.7756,4.53198)" />   <use xlink:href="#dot" transform="translate(-73.7676,4.53294)" />   <use xlink:href="#dot" transform="translate(-73.7756,4.53198)" />   <use xlink:href="#dot" transform="translate(-73.7676,4.53294)" />   <use xlink:href="#dot" transform="translate(-73.7676,4.53294)" />   <use xlink:href="#dot" transform="translate(-73.7676,4.53294)" />   <use xlink:href="#dot" transform="translate(-73.7676,4.53294)" />   <use xlink:href="#dot" transform="translate(-73.7676,4.53294)" />   <use xlink:href="#dot" transform="translate(-73.7676,4.53294)" />   <use xlink:href="#dot" transform="translate(-73.7676,4.53294)" />   <use xlink:href="#dot" transform="translate(-73.7676,4.53294)" />   <use xlink:href="#dot" transform="translate(-73.7676,4.53294)" />   <use xlink:href="#dot" transform="translate(-73.7676,4.53294)" />   <use xlink:href="#dot" transform="translate(-73.7676,4.53294)" />   <use xlink:href="#dot" transform="translate(-73.7756,4.53198)" />   <use xlink:href="#dot" transform="translate(-72.7552,5.50637)" />   <use xlink:href="#dot" transform="translate(-72.7552,5.50637)" />   <use xlink:href="#dot" transform="translate(-72.7552,5.50637)" />   <use xlink:href="#dot" transform="translate(-72.7552,5.50637)" />   <use xlink:href="#dot" transform="translate(-73.833333,5.35)" />   <use xlink:href="#dot" transform="translate(-73.833333,5.35)" />   <use xlink:href="#dot" transform="translate(-72.7552,5.50637)" />   <use xlink:href="#dot" transform="translate(-73.8332,4.60838)" />   <use xlink:href="#dot" transform="translate(-74.033333,4.566667)" />   <use xlink:href="#dot" transform="translate(-74.033333,4.566667)" />   <use xlink:href="#dot" transform="translate(-74.033333,4.566667)" />   <use xlink:href="#dot" transform="translate(-73.933333,4.533333)" />   <use xlink:href="#dot" transform="translate(-74.033333,4.566667)" />   <use xlink:href="#dot" transform="translate(-74.033333,4.566667)" />   <use xlink:href="#dot" transform="translate(-73.866667,4.866667)" />   <use xlink:href="#dot" transform="translate(-73.35,4.866667)" />   <use xlink:href="#dot" transform="translate(-74.033333,4.566667)" />   <use xlink:href="#dot" transform="translate(-73.866667,4.866667)" />   <use xlink:href="#dot" transform="translate(-74.033333,4.566667)" />   <use xlink:href="#dot" transform="translate(-73.35,4.866667)" />   <use xlink:href="#dot" transform="translate(-73.866667,4.866667)" />   <use xlink:href="#dot" transform="translate(-73.866667,4.866667)" />   <use xlink:href="#dot" transform="translate(-74.033333,4.566667)" />   <use xlink:href="#dot" transform="translate(-73.866667,4.866667)" />   <use xlink:href="#dot" transform="translate(-74.033333,4.566667)" />   <use xlink:href="#dot" transform="translate(-73.35,4.866667)" />   <use xlink:href="#dot" transform="translate(-73.866667,4.866667)" />   <use xlink:href="#dot" transform="translate(-73.35,4.866667)" />   <use xlink:href="#dot" transform="translate(-73.866667,4.866667)" />   <use xlink:href="#dot" transform="translate(-73.866667,4.866667)" />   <use xlink:href="#dot" transform="translate(-74.033333,4.566667)" />   <use xlink:href="#dot" transform="translate(-73.35,4.866667)" />   <use xlink:href="#dot" transform="translate(-73.866667,4.866667)" />   <use xlink:href="#dot" transform="translate(-74.033333,4.566667)" />   <use xlink:href="#dot" transform="translate(-74.033333,4.566667)" />   <use xlink:href="#dot" transform="translate(-73.866667,4.866667)" />   <use xlink:href="#dot" transform="translate(-73.866667,4.866667)" />   <use xlink:href="#dot" transform="translate(-74.033333,4.566667)" />   <use xlink:href="#dot" transform="translate(-73.35,4.866667)" />   <use xlink:href="#dot" transform="translate(-74.033333,4.566667)" />   <use xlink:href="#dot" transform="translate(-73.866667,4.866667)" />   <use xlink:href="#dot" transform="translate(-74.033333,4.566667)" />   <use xlink:href="#dot" transform="translate(-74.033333,4.566667)" />   <use xlink:href="#dot" transform="translate(-74.033333,4.566667)" />   <use xlink:href="#dot" transform="translate(-73.866667,4.866667)" />   <use xlink:href="#dot" transform="translate(-74.033333,4.566667)" />   <use xlink:href="#dot" transform="translate(-74.033333,4.566667)" />   <use xlink:href="#dot" transform="translate(-73.866667,4.866667)" />   <use xlink:href="#dot" transform="translate(-73.35,4.866667)" />   <use xlink:href="#dot" transform="translate(-73.866667,4.866667)" />   <use xlink:href="#dot" transform="translate(-74.033333,4.566667)" />   <use xlink:href="#dot" transform="translate(-74.033333,4.566667)" />   <use xlink:href="#dot" transform="translate(-74.033333,4.566667)" />   <use xlink:href="#dot" transform="translate(-74.033333,4.566667)" />   <use xlink:href="#dot" transform="translate(-74.033333,4.566667)" />   <use xlink:href="#dot" transform="translate(-73.866667,4.866667)" />   <use xlink:href="#dot" transform="translate(-74.033333,4.566667)" />   <use xlink:href="#dot" transform="translate(-74.033333,4.566667)" />   <use xlink:href="#dot" transform="translate(-73.35,4.866667)" />   <use xlink:href="#dot" transform="translate(-74.033333,4.566667)" />   <use xlink:href="#dot" transform="translate(-73.35,4.866667)" />   <use xlink:href="#dot" transform="translate(-73.35,4.866667)" /><polygon class="region" points="-70.263031,-3.820258 -76.177399,4.787166 -74.833333,6 -72.7767,7.5422 -69.9405,-4.2152 -70.263031,-3.820258 " />
		  </g>
		</svg>