<?xml version="1.0" encoding="UTF-8"?>
	<svg xmlns:xlink="http://www.w3.org/1999/xlink" 
	xmlns="http://www.w3.org/2000/svg" 
	width="360px" height="180px">
	   <style type="text/css">
		  <![CDATA[     
		  .region 
		  { 
			fill:blue; 
			opacity:0.4; 
			stroke:blue;
		  }
		  ]]>
	   </style>

	<circle id="dot" x="-2" y="-2" r="2" style="stroke:none; stroke-width:0; fill:black; opacity:0.7;"/>


	 <image x="0" y="0" width="360" height="180" xlink:href="map.jpg"/>

 
	 <g transform="translate(180,90) scale(1,-1)">   <use xlink:href="#dot" transform="translate(-99.22618,20.88812)" />   <use xlink:href="#dot" transform="translate(-99.22618,20.88821)" />   <use xlink:href="#dot" transform="translate(-99.05820761644,21.068682882484)" />   <use xlink:href="#dot" transform="translate(-99.05820761644,21.068682882484)" />   <use xlink:href="#dot" transform="translate(-99.05820761644,21.068682882484)" />   <use xlink:href="#dot" transform="translate(-99.05820761644,21.068682882484)" />   <use xlink:href="#dot" transform="translate(-99.162054805966,21.266089677435)" />   <use xlink:href="#dot" transform="translate(-99.157332686444,21.264144779808)" />   <use xlink:href="#dot" transform="translate(-99.157332686444,21.264144779808)" />   <use xlink:href="#dot" transform="translate(-99.157332686444,21.264144779808)" />   <use xlink:href="#dot" transform="translate(-99.050388347604,21.321091571084)" />   <use xlink:href="#dot" transform="translate(-99.050388347604,21.321091571084)" />   <use xlink:href="#dot" transform="translate(-99.050388347604,21.321091571084)" />   <use xlink:href="#dot" transform="translate(-99.050388347604,21.321091571084)" />   <use xlink:href="#dot" transform="translate(-99.050388347604,21.321091571084)" />   <use xlink:href="#dot" transform="translate(-99.050388347604,21.321091571084)" />   <use xlink:href="#dot" transform="translate(-99.050388347604,21.321091571084)" />   <use xlink:href="#dot" transform="translate(-99.050388347604,21.321091571084)" />   <use xlink:href="#dot" transform="translate(-99.050388347604,21.321091571084)" />   <use xlink:href="#dot" transform="translate(-99.050388347604,21.321091571084)" />   <use xlink:href="#dot" transform="translate(-99.050388347604,21.321091571084)" />   <use xlink:href="#dot" transform="translate(-99.050388347604,21.321091571084)" />   <use xlink:href="#dot" transform="translate(-99.050388347604,21.321091571084)" />   <use xlink:href="#dot" transform="translate(-99.050388347604,21.321091571084)" />   <use xlink:href="#dot" transform="translate(-99.050388347604,21.321091571084)" />   <use xlink:href="#dot" transform="translate(-99.050388347604,21.321091571084)" />   <use xlink:href="#dot" transform="translate(-99.050388347604,21.321091571084)" />   <use xlink:href="#dot" transform="translate(-99.050388347604,21.321091571084)" />   <use xlink:href="#dot" transform="translate(-99.050388347604,21.321091571084)" />   <use xlink:href="#dot" transform="translate(-99.050388347604,21.321091571084)" />   <use xlink:href="#dot" transform="translate(-99.050388347604,21.321091571084)" />   <use xlink:href="#dot" transform="translate(-99.050388347604,21.321091571084)" />   <use xlink:href="#dot" transform="translate(-99.050388347604,21.321091571084)" />   <use xlink:href="#dot" transform="translate(-99.050388347604,21.321091571084)" />   <use xlink:href="#dot" transform="translate(-99.050388347604,21.321091571084)" />   <use xlink:href="#dot" transform="translate(-99.050388347604,21.321091571084)" />   <use xlink:href="#dot" transform="translate(-99.050388347604,21.321091571084)" />   <use xlink:href="#dot" transform="translate(-99.050388347604,21.321091571084)" />   <use xlink:href="#dot" transform="translate(-99.050388347604,21.321091571084)" />   <use xlink:href="#dot" transform="translate(-99.050388347604,21.321091571084)" />   <use xlink:href="#dot" transform="translate(-99.050388347604,21.321091571084)" />   <use xlink:href="#dot" transform="translate(-99.050388347604,21.321091571084)" />   <use xlink:href="#dot" transform="translate(-99.050388347604,21.321091571084)" />   <use xlink:href="#dot" transform="translate(-99.050388347604,21.321091571084)" />   <use xlink:href="#dot" transform="translate(-99.050388347604,21.321091571084)" />   <use xlink:href="#dot" transform="translate(-99.050388347604,21.321091571084)" />   <use xlink:href="#dot" transform="translate(-99.050388347604,21.321091571084)" />   <use xlink:href="#dot" transform="translate(-99.050388347604,21.321091571084)" />   <use xlink:href="#dot" transform="translate(-99.050388347604,21.321091571084)" />   <use xlink:href="#dot" transform="translate(-99.050388347604,21.321091571084)" />   <use xlink:href="#dot" transform="translate(-99.050388347604,21.321091571084)" />   <use xlink:href="#dot" transform="translate(-99.050388347604,21.321091571084)" />   <use xlink:href="#dot" transform="translate(-99.050388347604,21.321091571084)" />   <use xlink:href="#dot" transform="translate(-99.127888087887,21.292199616733)" />   <use xlink:href="#dot" transform="translate(-99.150110525671,21.267200665964)" />   <use xlink:href="#dot" transform="translate(-99.150110525671,21.267200665964)" />   <use xlink:href="#dot" transform="translate(-99.150110525671,21.267200665964)" />   <use xlink:href="#dot" transform="translate(-99.150110525671,21.267200665964)" />   <use xlink:href="#dot" transform="translate(-99.150110525671,21.267200665964)" />   <use xlink:href="#dot" transform="translate(-99.150110525671,21.267200665964)" />   <use xlink:href="#dot" transform="translate(-99.112331300302,21.177759801774)" />   <use xlink:href="#dot" transform="translate(-99.127778,21.291667)" />   <use xlink:href="#dot" transform="translate(-99.127778,21.291667)" />   <use xlink:href="#dot" transform="translate(-99.127778,21.291667)" />   <use xlink:href="#dot" transform="translate(-99.127778,21.291667)" />   <use xlink:href="#dot" transform="translate(-99.127778,21.291667)" />   <use xlink:href="#dot" transform="translate(-99.127778,21.291667)" />   <use xlink:href="#dot" transform="translate(-99.127778,21.291667)" />   <use xlink:href="#dot" transform="translate(-99.127778,21.291667)" />   <use xlink:href="#dot" transform="translate(-99.127778,21.291667)" />   <use xlink:href="#dot" transform="translate(-99.127778,21.291667)" />   <use xlink:href="#dot" transform="translate(-99.05820761644,21.068682882484)" />   <use xlink:href="#dot" transform="translate(-99.05820761644,21.068682882484)" />   <use xlink:href="#dot" transform="translate(-99.05820761644,21.068682882484)" />   <use xlink:href="#dot" transform="translate(-99.05820761644,21.068682882484)" />   <use xlink:href="#dot" transform="translate(-99.05820761644,21.068682882484)" />   <use xlink:href="#dot" transform="translate(-99.05820761644,21.068682882484)" />   <use xlink:href="#dot" transform="translate(-99.05820761644,21.068682882484)" />   <use xlink:href="#dot" transform="translate(-99.05820761644,21.068682882484)" />   <use xlink:href="#dot" transform="translate(-99.05820761644,21.068682882484)" />   <use xlink:href="#dot" transform="translate(-99.05820761644,21.068682882484)" />   <use xlink:href="#dot" transform="translate(-99.05820761644,21.068682882484)" />   <use xlink:href="#dot" transform="translate(-99.05820761644,21.068682882484)" />   <use xlink:href="#dot" transform="translate(-99.05820761644,21.068682882484)" />   <use xlink:href="#dot" transform="translate(-99.05820761644,21.068682882484)" />   <use xlink:href="#dot" transform="translate(-99.05820761644,21.068682882484)" />   <use xlink:href="#dot" transform="translate(-99.05820761644,21.068682882484)" />   <use xlink:href="#dot" transform="translate(-99.05820761644,21.068682882484)" />   <use xlink:href="#dot" transform="translate(-99.05820761644,21.068682882484)" />   <use xlink:href="#dot" transform="translate(-99.05820761644,21.068682882484)" />   <use xlink:href="#dot" transform="translate(-99.05820761644,21.068682882484)" />   <use xlink:href="#dot" transform="translate(-99.05820761644,21.068682882484)" />   <use xlink:href="#dot" transform="translate(-99.05820761644,21.068682882484)" />   <use xlink:href="#dot" transform="translate(-99.05820761644,21.068682882484)" />   <use xlink:href="#dot" transform="translate(-99.05820761644,21.068682882484)" />   <use xlink:href="#dot" transform="translate(-99.05820761644,21.068682882484)" />   <use xlink:href="#dot" transform="translate(-99.05820761644,21.068682882484)" />   <use xlink:href="#dot" transform="translate(-99.05820761644,21.068682882484)" />   <use xlink:href="#dot" transform="translate(-99.05820761644,21.068682882484)" />   <use xlink:href="#dot" transform="translate(-99.05820761644,21.068682882484)" />   <use xlink:href="#dot" transform="translate(-99.05820761644,21.068682882484)" />   <use xlink:href="#dot" transform="translate(-99.05820761644,21.068682882484)" />   <use xlink:href="#dot" transform="translate(-99.05820761644,21.068682882484)" />   <use xlink:href="#dot" transform="translate(-99.05820761644,21.068682882484)" />   <use xlink:href="#dot" transform="translate(-99.05820761644,21.068682882484)" />   <use xlink:href="#dot" transform="translate(-99.05820761644,21.068682882484)" />   <use xlink:href="#dot" transform="translate(-99.05820761644,21.068682882484)" />   <use xlink:href="#dot" transform="translate(-99.05820761644,21.068682882484)" />   <use xlink:href="#dot" transform="translate(-99.05820761644,21.068682882484)" />   <use xlink:href="#dot" transform="translate(-99.05820761644,21.068682882484)" />   <use xlink:href="#dot" transform="translate(-99.05820761644,21.068682882484)" />   <use xlink:href="#dot" transform="translate(-99.05820761644,21.068682882484)" />   <use xlink:href="#dot" transform="translate(-99.05820761644,21.068682882484)" />   <use xlink:href="#dot" transform="translate(-99.05820761644,21.068682882484)" />   <use xlink:href="#dot" transform="translate(-99.066391,21.308611)" />   <use xlink:href="#dot" transform="translate(-99.050278,21.320556)" />   <use xlink:href="#dot" transform="translate(-99.066391,21.308611)" />   <use xlink:href="#dot" transform="translate(-99.050278,21.320556)" />   <use xlink:href="#dot" transform="translate(-99.050278,21.320556)" />   <use xlink:href="#dot" transform="translate(-99.050278,21.320556)" />   <use xlink:href="#dot" transform="translate(-99.066391,21.308611)" />   <use xlink:href="#dot" transform="translate(-98.945167,21.423167)" />   <use xlink:href="#dot" transform="translate(-99.066391,21.308611)" />   <use xlink:href="#dot" transform="translate(-99.066391,21.308611)" />   <use xlink:href="#dot" transform="translate(-99.050278,21.320556)" />   <use xlink:href="#dot" transform="translate(-99.066391,21.308611)" />   <use xlink:href="#dot" transform="translate(-99.066391,21.308611)" />   <use xlink:href="#dot" transform="translate(-99.060108540619,21.310532012799)" />   <use xlink:href="#dot" transform="translate(-99.138333,21.286667)" />   <use xlink:href="#dot" transform="translate(-99.060108540619,21.310532012799)" />   <use xlink:href="#dot" transform="translate(-99.158611,21.291667)" />   <use xlink:href="#dot" transform="translate(-99.329167,21.291667)" />   <use xlink:href="#dot" transform="translate(-99.175556,21.285833)" />   <use xlink:href="#dot" transform="translate(-99.127778,21.291667)" />   <use xlink:href="#dot" transform="translate(-99.158611,21.291667)" />   <use xlink:href="#dot" transform="translate(-99.103889,21.291667)" />   <use xlink:href="#dot" transform="translate(-99.329167,21.291667)" />   <use xlink:href="#dot" transform="translate(-99.158611,21.291667)" />   <use xlink:href="#dot" transform="translate(-99.175833,21.286667)" />   <use xlink:href="#dot" transform="translate(-99.444444,21.285833)" />   <use xlink:href="#dot" transform="translate(-99.329167,21.291667)" />   <use xlink:href="#dot" transform="translate(-99.127778,21.291667)" />   <use xlink:href="#dot" transform="translate(-99.530119394791,21.220534533852)" />   <use xlink:href="#dot" transform="translate(-99.444444,21.285833)" />   <use xlink:href="#dot" transform="translate(-99.108056,21.285)" />   <use xlink:href="#dot" transform="translate(-99.127778,21.291667)" />   <use xlink:href="#dot" transform="translate(-99.158611,21.291667)" />   <use xlink:href="#dot" transform="translate(-99.175556,21.285833)" />   <use xlink:href="#dot" transform="translate(-99.158611,21.242222)" />   <use xlink:href="#dot" transform="translate(-99.127778,21.291667)" /><polygon class="region" points="-99.22618,20.88812 -99.530119394791,21.220534533852 -99.444444,21.285833 -98.945167,21.423167 -99.05820761644,21.068682882484 -99.22618,20.88812 " />
		  </g>
		</svg>