<?xml version="1.0" encoding="UTF-8"?>
	<svg xmlns:xlink="http://www.w3.org/1999/xlink" 
	xmlns="http://www.w3.org/2000/svg" 
	width="360px" height="180px">
	   <style type="text/css">
		  <![CDATA[     
		  .region 
		  { 
			fill:blue; 
			opacity:0.4; 
			stroke:blue;
		  }
		  ]]>
	   </style>

	<circle id="dot" x="-2" y="-2" r="2" style="stroke:none; stroke-width:0; fill:black; opacity:0.7;"/>


	 <image x="0" y="0" width="360" height="180" xlink:href="map.jpg"/>

 
	 <g transform="translate(180,90) scale(1,-1)">   <use xlink:href="#dot" transform="translate(-97.501944,20.066944)" />   <use xlink:href="#dot" transform="translate(-97.5,20.036111)" />   <use xlink:href="#dot" transform="translate(-97.501944,20.066944)" />   <use xlink:href="#dot" transform="translate(-97.501944,20.066944)" />   <use xlink:href="#dot" transform="translate(-97.501944,20.066944)" />   <use xlink:href="#dot" transform="translate(-97.533611,20.018889)" />   <use xlink:href="#dot" transform="translate(-97.533611,20.018889)" />   <use xlink:href="#dot" transform="translate(-98.108333,20.125)" />   <use xlink:href="#dot" transform="translate(-98.623984833569,20.661951663101)" />   <use xlink:href="#dot" transform="translate(-98.623984833569,20.661951663101)" />   <use xlink:href="#dot" transform="translate(-98.623984833569,20.661951663101)" />   <use xlink:href="#dot" transform="translate(-98.623984833569,20.661951663101)" />   <use xlink:href="#dot" transform="translate(-98.623984833569,20.661951663101)" />   <use xlink:href="#dot" transform="translate(-98.623984833569,20.661951663101)" />   <use xlink:href="#dot" transform="translate(-98.623984833569,20.661951663101)" />   <use xlink:href="#dot" transform="translate(-98.629263082733,20.696950055916)" />   <use xlink:href="#dot" transform="translate(-97.54611,19.97583)" />   <use xlink:href="#dot" transform="translate(-98.629263082733,20.696950055916)" />   <use xlink:href="#dot" transform="translate(-98.629263082733,20.696950055916)" />   <use xlink:href="#dot" transform="translate(-98.629263082733,20.696950055916)" />   <use xlink:href="#dot" transform="translate(-98.629263082733,20.696950055916)" />   <use xlink:href="#dot" transform="translate(-98.629263082733,20.696950055916)" />   <use xlink:href="#dot" transform="translate(-98.629263082733,20.696950055916)" />   <use xlink:href="#dot" transform="translate(-98.629263082733,20.696950055916)" />   <use xlink:href="#dot" transform="translate(-98.629263082733,20.696950055916)" />   <use xlink:href="#dot" transform="translate(-98.642874475234,20.716393130169)" />   <use xlink:href="#dot" transform="translate(-98.642874475234,20.716393130169)" />   <use xlink:href="#dot" transform="translate(-98.642874475234,20.716393130169)" />   <use xlink:href="#dot" transform="translate(-98.629262838505,20.62778620067)" />   <use xlink:href="#dot" transform="translate(-99.340110025711,19.870596739919)" />   <use xlink:href="#dot" transform="translate(-99.050278,21.320556)" />   <use xlink:href="#dot" transform="translate(-99.043053,21.319723)" />   <use xlink:href="#dot" transform="translate(-98.650096649964,20.717227069675)" />   <use xlink:href="#dot" transform="translate(-98.700098075653,20.783889887913)" />   <use xlink:href="#dot" transform="translate(-98.700098075653,20.783889887913)" />   <use xlink:href="#dot" transform="translate(-98.650096649964,20.717227069675)" />   <use xlink:href="#dot" transform="translate(-99.049721,21.327223)" />   <use xlink:href="#dot" transform="translate(-98.641667,20.741667)" />   <use xlink:href="#dot" transform="translate(-98.633426312408,20.733889365408)" />   <use xlink:href="#dot" transform="translate(-98.641667,20.741667)" />   <use xlink:href="#dot" transform="translate(-98.641667,20.741667)" />   <use xlink:href="#dot" transform="translate(-98.641667,20.741667)" />   <use xlink:href="#dot" transform="translate(-98.641667,20.741667)" />   <use xlink:href="#dot" transform="translate(-93.625,16.208333)" />   <use xlink:href="#dot" transform="translate(-98.641667,20.741667)" />   <use xlink:href="#dot" transform="translate(-98.675,20.675)" />   <use xlink:href="#dot" transform="translate(-98.675,20.675)" /><polygon class="region" points="-93.625,16.208333 -99.340110025711,19.870596739919 -99.049721,21.327223 -97.501944,20.066944 -93.625,16.208333 " />
		  </g>
		</svg>