<?xml version="1.0" encoding="UTF-8"?>
	<svg xmlns:xlink="http://www.w3.org/1999/xlink" 
	xmlns="http://www.w3.org/2000/svg" 
	width="360px" height="180px">
	   <style type="text/css">
		  <![CDATA[     
		  .region 
		  { 
			fill:blue; 
			opacity:0.4; 
			stroke:blue;
		  }
		  ]]>
	   </style>

	<circle id="dot" x="-2" y="-2" r="2" style="stroke:none; stroke-width:0; fill:black; opacity:0.7;"/>


	 <image x="0" y="0" width="360" height="180" xlink:href="map.jpg"/>

 
	 <g transform="translate(180,90) scale(1,-1)">   <use xlink:href="#dot" transform="translate(117.9235,-34.678371)" />   <use xlink:href="#dot" transform="translate(120.218704,-33.916464)" />   <use xlink:href="#dot" transform="translate(116.4,-31.5)" />   <use xlink:href="#dot" transform="translate(117.929379,-34.65661)" />   <use xlink:href="#dot" transform="translate(117.929177,-34.656806)" />   <use xlink:href="#dot" transform="translate(117.929134,-34.656772)" />   <use xlink:href="#dot" transform="translate(116.092624,-31.878959)" />   <use xlink:href="#dot" transform="translate(118.9,-32.2)" />   <use xlink:href="#dot" transform="translate(117.92818,-34.655702)" />   <use xlink:href="#dot" transform="translate(117.928348,-34.654577)" />   <use xlink:href="#dot" transform="translate(118.8961,-32.4436)" />   <use xlink:href="#dot" transform="translate(120.193863,-33.924395)" />   <use xlink:href="#dot" transform="translate(117.7833,-34.6833)" />   <use xlink:href="#dot" transform="translate(117.7833,-34.6833)" />   <use xlink:href="#dot" transform="translate(115.03333,-33.83333)" />   <use xlink:href="#dot" transform="translate(116.33333,-33.9)" />   <use xlink:href="#dot" transform="translate(116.33333,-33.9)" />   <use xlink:href="#dot" transform="translate(116.2,-31.9)" />   <use xlink:href="#dot" transform="translate(115.03333,-33.83333)" />   <use xlink:href="#dot" transform="translate(116.28333,-33.91667)" />   <use xlink:href="#dot" transform="translate(117.01667,-34.7)" />   <use xlink:href="#dot" transform="translate(116.28333,-33.91667)" />   <use xlink:href="#dot" transform="translate(116.23333,-33.7)" />   <use xlink:href="#dot" transform="translate(115.2,-33.96667)" />   <use xlink:href="#dot" transform="translate(115.03333,-33.83333)" />   <use xlink:href="#dot" transform="translate(117.01667,-34.7)" />   <use xlink:href="#dot" transform="translate(115.15,-34.31667)" />   <use xlink:href="#dot" transform="translate(116.2,-31.9)" />   <use xlink:href="#dot" transform="translate(116.33333,-33.9)" />   <use xlink:href="#dot" transform="translate(115.2,-33.96667)" />   <use xlink:href="#dot" transform="translate(117.01667,-34.7)" />   <use xlink:href="#dot" transform="translate(116.33333,-33.9)" />   <use xlink:href="#dot" transform="translate(117.63333,-34.73333)" />   <use xlink:href="#dot" transform="translate(116.23333,-33.7)" />   <use xlink:href="#dot" transform="translate(115.03333,-33.83333)" />   <use xlink:href="#dot" transform="translate(115.03333,-33.83333)" />   <use xlink:href="#dot" transform="translate(115.03333,-33.83333)" />   <use xlink:href="#dot" transform="translate(115.15,-34.31667)" />   <use xlink:href="#dot" transform="translate(115.03333,-33.71667)" />   <use xlink:href="#dot" transform="translate(115.03333,-33.83333)" />   <use xlink:href="#dot" transform="translate(115.03333,-33.83333)" />   <use xlink:href="#dot" transform="translate(115.15,-34.31667)" />   <use xlink:href="#dot" transform="translate(116.23333,-33.7)" />   <use xlink:href="#dot" transform="translate(115.03333,-33.83333)" />   <use xlink:href="#dot" transform="translate(116.23333,-33.7)" />   <use xlink:href="#dot" transform="translate(115.2,-33.96667)" />   <use xlink:href="#dot" transform="translate(115.15,-34.31667)" />   <use xlink:href="#dot" transform="translate(115.15,-34.31667)" />   <use xlink:href="#dot" transform="translate(117.63333,-34.73333)" />   <use xlink:href="#dot" transform="translate(116.33333,-33.9)" />   <use xlink:href="#dot" transform="translate(115.03333,-33.83333)" />   <use xlink:href="#dot" transform="translate(116.23333,-33.7)" />   <use xlink:href="#dot" transform="translate(116.28333,-33.91667)" />   <use xlink:href="#dot" transform="translate(115.15,-34.31667)" />   <use xlink:href="#dot" transform="translate(115.2,-33.96667)" />   <use xlink:href="#dot" transform="translate(115.21667,-33.96667)" />   <use xlink:href="#dot" transform="translate(115.15,-34.31667)" />   <use xlink:href="#dot" transform="translate(117.63333,-34.73333)" />   <use xlink:href="#dot" transform="translate(115.15,-34.31667)" />   <use xlink:href="#dot" transform="translate(115.15,-34.31667)" />   <use xlink:href="#dot" transform="translate(115.2,-33.96667)" />   <use xlink:href="#dot" transform="translate(116.2,-31.9)" />   <use xlink:href="#dot" transform="translate(115.15,-34.31667)" />   <use xlink:href="#dot" transform="translate(116.2,-31.9)" />   <use xlink:href="#dot" transform="translate(116.23333,-33.7)" />   <use xlink:href="#dot" transform="translate(117.01667,-34.7)" />   <use xlink:href="#dot" transform="translate(116.28333,-33.91667)" />   <use xlink:href="#dot" transform="translate(116.2,-31.9)" />   <use xlink:href="#dot" transform="translate(116.28333,-33.91667)" />   <use xlink:href="#dot" transform="translate(116.23333,-33.7)" />   <use xlink:href="#dot" transform="translate(115.03333,-33.83333)" />   <use xlink:href="#dot" transform="translate(115.15,-34.31667)" />   <use xlink:href="#dot" transform="translate(115.15,-34.31667)" />   <use xlink:href="#dot" transform="translate(115.21667,-33.96667)" />   <use xlink:href="#dot" transform="translate(116.2,-31.9)" />   <use xlink:href="#dot" transform="translate(116.2,-31.9)" />   <use xlink:href="#dot" transform="translate(116.246,-31.946)" />   <use xlink:href="#dot" transform="translate(116.2,-31.9)" />   <use xlink:href="#dot" transform="translate(116.7833,-31.4333)" />   <use xlink:href="#dot" transform="translate(116.7833,-31.4333)" />   <use xlink:href="#dot" transform="translate(117.7,-31.88)" />   <use xlink:href="#dot" transform="translate(117.916667,-34.683333)" />   <use xlink:href="#dot" transform="translate(116.3,-32.416667)" />   <use xlink:href="#dot" transform="translate(117.916667,-34.683333)" />   <use xlink:href="#dot" transform="translate(116.333,-32.45)" />   <use xlink:href="#dot" transform="translate(116.416,-32.533)" />   <use xlink:href="#dot" transform="translate(117.916,-33.166)" />   <use xlink:href="#dot" transform="translate(117.916,-33.166)" />   <use xlink:href="#dot" transform="translate(117.916,-33.166)" />   <use xlink:href="#dot" transform="translate(115.85,-31.95)" />   <use xlink:href="#dot" transform="translate(115.85,-31.95)" />   <use xlink:href="#dot" transform="translate(115.85,-31.95)" />   <use xlink:href="#dot" transform="translate(115.85,-31.95)" />   <use xlink:href="#dot" transform="translate(115.85,-31.95)" />   <use xlink:href="#dot" transform="translate(115.85,-31.95)" />   <use xlink:href="#dot" transform="translate(116.0667,-31.9167)" />   <use xlink:href="#dot" transform="translate(116.05,-31.92)" />   <use xlink:href="#dot" transform="translate(116.05,-31.92)" />   <use xlink:href="#dot" transform="translate(116.05,-31.92)" />   <use xlink:href="#dot" transform="translate(116.05,-31.92)" />   <use xlink:href="#dot" transform="translate(116.05,-31.92)" />   <use xlink:href="#dot" transform="translate(116.05,-31.92)" />   <use xlink:href="#dot" transform="translate(116.05,-31.92)" />   <use xlink:href="#dot" transform="translate(116.05,-31.92)" />   <use xlink:href="#dot" transform="translate(116.05,-31.92)" />   <use xlink:href="#dot" transform="translate(116.05,-31.92)" />   <use xlink:href="#dot" transform="translate(116.05,-31.92)" />   <use xlink:href="#dot" transform="translate(116.05,-31.92)" />   <use xlink:href="#dot" transform="translate(116.05,-31.92)" />   <use xlink:href="#dot" transform="translate(116.05,-31.92)" />   <use xlink:href="#dot" transform="translate(116.05,-31.92)" />   <use xlink:href="#dot" transform="translate(116.05,-31.92)" />   <use xlink:href="#dot" transform="translate(117.85,-34.7)" />   <use xlink:href="#dot" transform="translate(116.216667,-32.35)" />   <use xlink:href="#dot" transform="translate(116.066667,-34.65)" />   <use xlink:href="#dot" transform="translate(119.493611,-33.337222)" />   <use xlink:href="#dot" transform="translate(116.2,-31.9)" />   <use xlink:href="#dot" transform="translate(116.283333,-33.916667)" />   <use xlink:href="#dot" transform="translate(116.233333,-33.7)" />   <use xlink:href="#dot" transform="translate(116.066667,-31.933333)" />   <use xlink:href="#dot" transform="translate(116.033333,-31.833333)" />   <use xlink:href="#dot" transform="translate(116.133333,-31.666667)" />   <use xlink:href="#dot" transform="translate(116.289444,-32.199444)" />   <use xlink:href="#dot" transform="translate(120.25,-33.916667)" />   <use xlink:href="#dot" transform="translate(115.733333,-30.733333)" />   <use xlink:href="#dot" transform="translate(119.55,-32.833333)" />   <use xlink:href="#dot" transform="translate(115.1,-34.016667)" />   <use xlink:href="#dot" transform="translate(116.133333,-31.983333)" />   <use xlink:href="#dot" transform="translate(114.716667,-28.666667)" />   <use xlink:href="#dot" transform="translate(116.516667,-33.4)" />   <use xlink:href="#dot" transform="translate(118.484167,-30.633889)" />   <use xlink:href="#dot" transform="translate(119.339722,-32.693056)" />   <use xlink:href="#dot" transform="translate(116.58,-33.619722)" />   <use xlink:href="#dot" transform="translate(118.530833,-34.542222)" />   <use xlink:href="#dot" transform="translate(116.166667,-31.983333)" />   <use xlink:href="#dot" transform="translate(116.558333,-34.891667)" />   <use xlink:href="#dot" transform="translate(117.341667,-33.333333)" />   <use xlink:href="#dot" transform="translate(117.65,-34.975)" />   <use xlink:href="#dot" transform="translate(118.666667,-31.883333)" />   <use xlink:href="#dot" transform="translate(116.15,-32.116667)" />   <use xlink:href="#dot" transform="translate(116.333333,-32.016667)" />   <use xlink:href="#dot" transform="translate(117.816667,-33.966667)" />   <use xlink:href="#dot" transform="translate(114.466667,-27.816667)" />   <use xlink:href="#dot" transform="translate(119.65,-31.95)" />   <use xlink:href="#dot" transform="translate(119.65,-31.95)" />   <use xlink:href="#dot" transform="translate(116.033333,-31.85)" />   <use xlink:href="#dot" transform="translate(116.3,-31.883333)" />   <use xlink:href="#dot" transform="translate(117.516667,-31.433333)" />   <use xlink:href="#dot" transform="translate(116.166667,-34.133333)" />   <use xlink:href="#dot" transform="translate(117.516667,-31.433333)" />   <use xlink:href="#dot" transform="translate(119.1,-33.883333)" />   <use xlink:href="#dot" transform="translate(117.4,-32.016667)" />   <use xlink:href="#dot" transform="translate(118.966667,-31.233333)" />   <use xlink:href="#dot" transform="translate(115.5,-34.166667)" />   <use xlink:href="#dot" transform="translate(116.166667,-31.9)" />   <use xlink:href="#dot" transform="translate(119.083333,-32.816667)" />   <use xlink:href="#dot" transform="translate(116.966667,-34.6)" />   <use xlink:href="#dot" transform="translate(115.2,-30.066667)" />   <use xlink:href="#dot" transform="translate(116.666667,-30.833333)" />   <use xlink:href="#dot" transform="translate(115.183333,-30.116667)" />   <use xlink:href="#dot" transform="translate(117.516667,-35.016667)" />   <use xlink:href="#dot" transform="translate(116.166667,-34.183333)" />   <use xlink:href="#dot" transform="translate(116.066667,-31.916667)" />   <use xlink:href="#dot" transform="translate(116.116667,-31.966667)" />   <use xlink:href="#dot" transform="translate(122.25,-33.791667)" />   <use xlink:href="#dot" transform="translate(114.516667,-28.033333)" />   <use xlink:href="#dot" transform="translate(117.916667,-34.683333)" />   <use xlink:href="#dot" transform="translate(117.65,-34.975)" />   <use xlink:href="#dot" transform="translate(116.2,-31.9)" />   <use xlink:href="#dot" transform="translate(116.333333,-33.9)" />   <use xlink:href="#dot" transform="translate(117.016667,-34.6)" />   <use xlink:href="#dot" transform="translate(117.016667,-34.6)" />   <use xlink:href="#dot" transform="translate(116.016667,-34)" />   <use xlink:href="#dot" transform="translate(115.034167,-33.836944)" />   <use xlink:href="#dot" transform="translate(121.133333,-33.816667)" />   <use xlink:href="#dot" transform="translate(116.839722,-34.004444)" />   <use xlink:href="#dot" transform="translate(116.066667,-31.916667)" />   <use xlink:href="#dot" transform="translate(116.558333,-34.891667)" />   <use xlink:href="#dot" transform="translate(116.15,-31.966667)" />   <use xlink:href="#dot" transform="translate(116.15,-31.966667)" />   <use xlink:href="#dot" transform="translate(116.15,-31.966667)" />   <use xlink:href="#dot" transform="translate(116.066667,-31.983333)" />   <use xlink:href="#dot" transform="translate(114.716667,-28.666667)" />   <use xlink:href="#dot" transform="translate(118.25,-34.366667)" />   <use xlink:href="#dot" transform="translate(116.3225,-34.086111)" />   <use xlink:href="#dot" transform="translate(116.553889,-32.141389)" />   <use xlink:href="#dot" transform="translate(119.339722,-32.693056)" />   <use xlink:href="#dot" transform="translate(116.188611,-32.162222)" />   <use xlink:href="#dot" transform="translate(116.104722,-32.7325)" />   <use xlink:href="#dot" transform="translate(123.383333,-33.3)" />   <use xlink:href="#dot" transform="translate(115.166667,-29.95)" />   <use xlink:href="#dot" transform="translate(115.166667,-29.95)" />   <use xlink:href="#dot" transform="translate(119.766667,-32.383333)" />   <use xlink:href="#dot" transform="translate(118,-34.416667)" />   <use xlink:href="#dot" transform="translate(118,-34.416667)" />   <use xlink:href="#dot" transform="translate(117.583333,-31.366667)" />   <use xlink:href="#dot" transform="translate(123.383333,-33.3)" />   <use xlink:href="#dot" transform="translate(114.466667,-27.816667)" />   <use xlink:href="#dot" transform="translate(116.066667,-32.016667)" />   <use xlink:href="#dot" transform="translate(117.516667,-31.433333)" />   <use xlink:href="#dot" transform="translate(118.083333,-34.416667)" />   <use xlink:href="#dot" transform="translate(115.5,-34.166667)" />   <use xlink:href="#dot" transform="translate(116.166667,-31.9)" />   <use xlink:href="#dot" transform="translate(119.316667,-32.566667)" />   <use xlink:href="#dot" transform="translate(116.233333,-31.406389)" />   <use xlink:href="#dot" transform="translate(117.633333,-33.85)" />   <use xlink:href="#dot" transform="translate(116.075,-34.8125)" />   <use xlink:href="#dot" transform="translate(117.516667,-35.016667)" />   <use xlink:href="#dot" transform="translate(119.075,-31.933333)" />   <use xlink:href="#dot" transform="translate(115.1,-34.016667)" />   <use xlink:href="#dot" transform="translate(116.166667,-31.983333)" />   <use xlink:href="#dot" transform="translate(116.58,-33.619722)" />   <use xlink:href="#dot" transform="translate(115.233333,-30.116667)" />   <use xlink:href="#dot" transform="translate(116.366667,-34.25)" />   <use xlink:href="#dot" transform="translate(116.066667,-34.65)" />   <use xlink:href="#dot" transform="translate(116.066667,-34.65)" />   <use xlink:href="#dot" transform="translate(116.066667,-34.65)" />   <use xlink:href="#dot" transform="translate(115.966667,-34.65)" />   <use xlink:href="#dot" transform="translate(118.683333,-33.016667)" />   <use xlink:href="#dot" transform="translate(118,-34.416667)" />   <use xlink:href="#dot" transform="translate(121.566667,-33.7)" />   <use xlink:href="#dot" transform="translate(116.05,-31.916667)" />   <use xlink:href="#dot" transform="translate(116.3,-31.883333)" />   <use xlink:href="#dot" transform="translate(116.166667,-31.9)" />   <use xlink:href="#dot" transform="translate(116.016667,-34.833333)" />   <use xlink:href="#dot" transform="translate(123.333333,-33.1)" />   <use xlink:href="#dot" transform="translate(116.514167,-32.112222)" />   <use xlink:href="#dot" transform="translate(116.15,-31.301667)" />   <use xlink:href="#dot" transform="translate(116.333333,-33.9)" />   <use xlink:href="#dot" transform="translate(117.633333,-34.733333)" />   <use xlink:href="#dot" transform="translate(117.016667,-34.6)" />   <use xlink:href="#dot" transform="translate(117.016667,-34.7)" />   <use xlink:href="#dot" transform="translate(115.034167,-33.836944)" />   <use xlink:href="#dot" transform="translate(115.034167,-33.836944)" />   <use xlink:href="#dot" transform="translate(116.188611,-32.162222)" />   <use xlink:href="#dot" transform="translate(117.958056,-31.039722)" />   <use xlink:href="#dot" transform="translate(116.267778,-32.394444)" />   <use xlink:href="#dot" transform="translate(118.451111,-31.681944)" />   <use xlink:href="#dot" transform="translate(114.516667,-28.033333)" />   <use xlink:href="#dot" transform="translate(116.166667,-31.983333)" />   <use xlink:href="#dot" transform="translate(116.166667,-31.983333)" />   <use xlink:href="#dot" transform="translate(114.716667,-28.666667)" />   <use xlink:href="#dot" transform="translate(116.15,-31.966667)" />   <use xlink:href="#dot" transform="translate(116.633333,-34.05)" />   <use xlink:href="#dot" transform="translate(116.633333,-34.05)" />   <use xlink:href="#dot" transform="translate(116.553889,-32.141389)" />   <use xlink:href="#dot" transform="translate(116.2,-31.9)" />   <use xlink:href="#dot" transform="translate(116.383333,-33.833333)" />   <use xlink:href="#dot" transform="translate(116.383333,-33.833333)" />   <use xlink:href="#dot" transform="translate(117.016667,-34.6)" />   <use xlink:href="#dot" transform="translate(119.493611,-33.337222)" />   <use xlink:href="#dot" transform="translate(118.539444,-34.539722)" />   <use xlink:href="#dot" transform="translate(116.553889,-32.141389)" />   <use xlink:href="#dot" transform="translate(116.514167,-32.112222)" />   <use xlink:href="#dot" transform="translate(123.383333,-33.3)" />   <use xlink:href="#dot" transform="translate(116.133333,-31.666667)" />   <use xlink:href="#dot" transform="translate(119.033333,-32.816667)" />   <use xlink:href="#dot" transform="translate(116.616667,-30.816667)" />   <use xlink:href="#dot" transform="translate(118.966667,-31.233333)" />   <use xlink:href="#dot" transform="translate(118,-34.416667)" />   <use xlink:href="#dot" transform="translate(116.3,-31.883333)" />   <use xlink:href="#dot" transform="translate(117.516667,-31.433333)" />   <use xlink:href="#dot" transform="translate(119.766667,-32.383333)" />   <use xlink:href="#dot" transform="translate(115.966667,-34.65)" />   <use xlink:href="#dot" transform="translate(114.466667,-27.816667)" />   <use xlink:href="#dot" transform="translate(119.066667,-31.75)" />   <use xlink:href="#dot" transform="translate(117.55,-33.6833)" />   <use xlink:href="#dot" transform="translate(117.016667,-34.7)" />   <use xlink:href="#dot" transform="translate(117.016667,-34.6)" />   <use xlink:href="#dot" transform="translate(115.037778,-33.729167)" />   <use xlink:href="#dot" transform="translate(115.163889,-34.329444)" />   <use xlink:href="#dot" transform="translate(115.034167,-33.836944)" />   <use xlink:href="#dot" transform="translate(116.772778,-34.348611)" />   <use xlink:href="#dot" transform="translate(117.55,-33.683333)" />   <use xlink:href="#dot" transform="translate(116.333333,-31.816667)" />   <use xlink:href="#dot" transform="translate(115.1,-34.016667)" />   <use xlink:href="#dot" transform="translate(115.1,-34.016667)" />   <use xlink:href="#dot" transform="translate(116.666667,-30.283333)" />   <use xlink:href="#dot" transform="translate(114.716667,-28.666667)" />   <use xlink:href="#dot" transform="translate(116.516667,-33.4)" />   <use xlink:href="#dot" transform="translate(117.65,-34.975)" />   <use xlink:href="#dot" transform="translate(116.208333,-33.616667)" />   <use xlink:href="#dot" transform="translate(116.15,-31.966667)" />   <use xlink:href="#dot" transform="translate(117.016667,-34.6)" />   <use xlink:href="#dot" transform="translate(116.233333,-33.7)" />   <use xlink:href="#dot" transform="translate(115.233333,-30.116667)" />   <use xlink:href="#dot" transform="translate(116.188611,-32.162222)" />   <use xlink:href="#dot" transform="translate(117.5,-31.433333)" />   <use xlink:href="#dot" transform="translate(118.766667,-31.216667)" />   <use xlink:href="#dot" transform="translate(117.816667,-33.966667)" />   <use xlink:href="#dot" transform="translate(116.166667,-34.133333)" />   <use xlink:href="#dot" transform="translate(115.5,-34.166667)" />   <use xlink:href="#dot" transform="translate(116.3,-31.883333)" />   <use xlink:href="#dot" transform="translate(116.766667,-31.883333)" />   <use xlink:href="#dot" transform="translate(115.816667,-32.033333)" />   <use xlink:href="#dot" transform="translate(117.583333,-31.366667)" />   <use xlink:href="#dot" transform="translate(115.966667,-32.366667)" />   <use xlink:href="#dot" transform="translate(117.516667,-35.016667)" />   <use xlink:href="#dot" transform="translate(115.283333,-33.75)" />   <use xlink:href="#dot" transform="translate(115.283333,-33.75)" /><polygon class="region" points="115.03333,-33.83333 114.466667,-27.816667 123.333333,-33.1 123.383333,-33.3 122.25,-33.791667 117.516667,-35.016667 116.016667,-34.833333 115.163889,-34.329444 115.15,-34.31667 115.034167,-33.836944 115.03333,-33.83333 " />
		  </g>
		</svg>