<?xml version="1.0" encoding="UTF-8"?>
	<svg xmlns:xlink="http://www.w3.org/1999/xlink" 
	xmlns="http://www.w3.org/2000/svg" 
	width="360px" height="180px">
	   <style type="text/css">
		  <![CDATA[     
		  .region 
		  { 
			fill:blue; 
			opacity:0.4; 
			stroke:blue;
		  }
		  ]]>
	   </style>

	<circle id="dot" x="-2" y="-2" r="2" style="stroke:none; stroke-width:0; fill:black; opacity:0.7;"/>


	 <image x="0" y="0" width="360" height="180" xlink:href="map.jpg"/>

 
	 <g transform="translate(180,90) scale(1,-1)">   <use xlink:href="#dot" transform="translate(-74.1201,18.4975)" />   <use xlink:href="#dot" transform="translate(-74.1201,18.4975)" />   <use xlink:href="#dot" transform="translate(-74.1201,18.4975)" />   <use xlink:href="#dot" transform="translate(-74.1201,18.4975)" />   <use xlink:href="#dot" transform="translate(-74.1201,18.4975)" />   <use xlink:href="#dot" transform="translate(-74.1201,18.4975)" />   <use xlink:href="#dot" transform="translate(-74.10520734844,18.431514991548)" />   <use xlink:href="#dot" transform="translate(-74.1201,18.4975)" />   <use xlink:href="#dot" transform="translate(-74.1201,18.4975)" />   <use xlink:href="#dot" transform="translate(-74.1201,18.4975)" />   <use xlink:href="#dot" transform="translate(-74.1201,18.4975)" />   <use xlink:href="#dot" transform="translate(-74.1201,18.4975)" />   <use xlink:href="#dot" transform="translate(-74.1201,18.4975)" />   <use xlink:href="#dot" transform="translate(-74.1201,18.4975)" />   <use xlink:href="#dot" transform="translate(-74.1201,18.4975)" />   <use xlink:href="#dot" transform="translate(-74.1201,18.4975)" />   <use xlink:href="#dot" transform="translate(-74.1201,18.4975)" />   <use xlink:href="#dot" transform="translate(-74.1201,18.4975)" />   <use xlink:href="#dot" transform="translate(-74.1201,18.4975)" />   <use xlink:href="#dot" transform="translate(-74.1201,18.4975)" />   <use xlink:href="#dot" transform="translate(-74.1201,18.4975)" />   <use xlink:href="#dot" transform="translate(-74.1201,18.4975)" />   <use xlink:href="#dot" transform="translate(-74.1201,18.4975)" />   <use xlink:href="#dot" transform="translate(-72.2892,18.3069)" />   <use xlink:href="#dot" transform="translate(-72.2892,18.3069)" />   <use xlink:href="#dot" transform="translate(-72.2892,18.3069)" />   <use xlink:href="#dot" transform="translate(-72.2892,18.3069)" />   <use xlink:href="#dot" transform="translate(-72.2892,18.3069)" />   <use xlink:href="#dot" transform="translate(-72.2892,18.3069)" />   <use xlink:href="#dot" transform="translate(-74.1,18.4986)" />   <use xlink:href="#dot" transform="translate(-74.1,18.4986)" />   <use xlink:href="#dot" transform="translate(-72.2892,18.3069)" />   <use xlink:href="#dot" transform="translate(-74.1,18.4986)" />   <use xlink:href="#dot" transform="translate(-72.2892,18.3069)" />   <use xlink:href="#dot" transform="translate(-72.2892,18.3069)" />   <use xlink:href="#dot" transform="translate(-72.2892,18.3069)" />   <use xlink:href="#dot" transform="translate(-74.097607175551,18.434214867377)" />   <use xlink:href="#dot" transform="translate(-74.1,18.4986)" />   <use xlink:href="#dot" transform="translate(-74.1,18.4986)" />   <use xlink:href="#dot" transform="translate(-72.2892,18.3069)" />   <use xlink:href="#dot" transform="translate(-74.1,18.4986)" />   <use xlink:href="#dot" transform="translate(-74.1,18.4986)" />   <use xlink:href="#dot" transform="translate(-74.1,18.4986)" />   <use xlink:href="#dot" transform="translate(-72.2892,18.3069)" />   <use xlink:href="#dot" transform="translate(-74.1,18.4986)" />   <use xlink:href="#dot" transform="translate(-74.1,18.4986)" />   <use xlink:href="#dot" transform="translate(-72.2892,18.3069)" />   <use xlink:href="#dot" transform="translate(-72.2892,18.3069)" />   <use xlink:href="#dot" transform="translate(-72.2892,18.3069)" />   <use xlink:href="#dot" transform="translate(-74.1,18.4986)" />   <use xlink:href="#dot" transform="translate(-72.2892,18.3069)" />   <use xlink:href="#dot" transform="translate(-72.2892,18.3069)" />   <use xlink:href="#dot" transform="translate(-72.2892,18.3069)" />   <use xlink:href="#dot" transform="translate(-73.821,18.41118)" />   <use xlink:href="#dot" transform="translate(-73.6322,18.39818)" />   <use xlink:href="#dot" transform="translate(-73.6322,18.39818)" />   <use xlink:href="#dot" transform="translate(-73.63441,18.40029)" />   <use xlink:href="#dot" transform="translate(-73.63441,18.40029)" />   <use xlink:href="#dot" transform="translate(-73.821,18.41118)" />   <use xlink:href="#dot" transform="translate(-73.6322,18.39818)" />   <use xlink:href="#dot" transform="translate(-73.6322,18.39818)" />   <use xlink:href="#dot" transform="translate(-73.6322,18.39818)" />   <use xlink:href="#dot" transform="translate(-73.63441,18.40029)" />   <use xlink:href="#dot" transform="translate(-73.6322,18.39818)" />   <use xlink:href="#dot" transform="translate(-73.63441,18.40029)" />   <use xlink:href="#dot" transform="translate(-73.62163,18.38809)" />   <use xlink:href="#dot" transform="translate(-73.63441,18.40029)" />   <use xlink:href="#dot" transform="translate(-73.6322,18.39818)" />   <use xlink:href="#dot" transform="translate(-73.63441,18.40029)" />   <use xlink:href="#dot" transform="translate(-73.63441,18.40029)" />   <use xlink:href="#dot" transform="translate(-73.6322,18.39818)" />   <use xlink:href="#dot" transform="translate(-73.63441,18.40029)" />   <use xlink:href="#dot" transform="translate(-73.821,18.41118)" />   <use xlink:href="#dot" transform="translate(-73.6322,18.39818)" />   <use xlink:href="#dot" transform="translate(-73.63441,18.40029)" />   <use xlink:href="#dot" transform="translate(-73.63635,18.40214)" />   <use xlink:href="#dot" transform="translate(-73.62163,18.38809)" />   <use xlink:href="#dot" transform="translate(-74.099998,18.516666)" />   <use xlink:href="#dot" transform="translate(-74.099998,18.516666)" />   <use xlink:href="#dot" transform="translate(-74.099998,18.516666)" />   <use xlink:href="#dot" transform="translate(-74.099998,18.516666)" />   <use xlink:href="#dot" transform="translate(-74.099998,18.516666)" />   <use xlink:href="#dot" transform="translate(-74.1,18.4986)" />   <use xlink:href="#dot" transform="translate(-74.099998,18.516666)" />   <use xlink:href="#dot" transform="translate(-74.099998,18.516666)" />   <use xlink:href="#dot" transform="translate(-74.099998,18.516666)" />   <use xlink:href="#dot" transform="translate(-74.099998,18.516666)" />   <use xlink:href="#dot" transform="translate(-74.099998,18.516666)" />   <use xlink:href="#dot" transform="translate(-74.099998,18.516666)" />   <use xlink:href="#dot" transform="translate(-74.099998,18.516666)" />   <use xlink:href="#dot" transform="translate(-74.099998,18.516666)" />   <use xlink:href="#dot" transform="translate(-74.1,18.4986)" />   <use xlink:href="#dot" transform="translate(-74.099998,18.516666)" />   <use xlink:href="#dot" transform="translate(-74.099998,18.516666)" />   <use xlink:href="#dot" transform="translate(-74.099998,18.516666)" />   <use xlink:href="#dot" transform="translate(-74.099998,18.516666)" />   <use xlink:href="#dot" transform="translate(-74.099998,18.516666)" />   <use xlink:href="#dot" transform="translate(-74.099998,18.516666)" />   <use xlink:href="#dot" transform="translate(-74.099998,18.516666)" />   <use xlink:href="#dot" transform="translate(-74.1,18.4986)" />   <use xlink:href="#dot" transform="translate(-74.099998,18.516666)" />   <use xlink:href="#dot" transform="translate(-74.099998,18.516666)" />   <use xlink:href="#dot" transform="translate(-74.099998,18.516666)" />   <use xlink:href="#dot" transform="translate(-74.099998,18.516666)" />   <use xlink:href="#dot" transform="translate(-74.099998,18.516666)" />   <use xlink:href="#dot" transform="translate(-74.1,18.4986)" />   <use xlink:href="#dot" transform="translate(-74.099998,18.516666)" />   <use xlink:href="#dot" transform="translate(-74.099998,18.516666)" />   <use xlink:href="#dot" transform="translate(-74.099998,18.516666)" />   <use xlink:href="#dot" transform="translate(-74.099998,18.516666)" />   <use xlink:href="#dot" transform="translate(-74.099998,18.516666)" />   <use xlink:href="#dot" transform="translate(-74.099998,18.516666)" />   <use xlink:href="#dot" transform="translate(-74.099998,18.516666)" />   <use xlink:href="#dot" transform="translate(-74.1,18.4986)" />   <use xlink:href="#dot" transform="translate(-74.099998,18.516666)" />   <use xlink:href="#dot" transform="translate(-74.099998,18.516666)" />   <use xlink:href="#dot" transform="translate(-74.099998,18.516666)" />   <use xlink:href="#dot" transform="translate(-74.099998,18.516666)" />   <use xlink:href="#dot" transform="translate(-74.099998,18.516666)" />   <use xlink:href="#dot" transform="translate(-74.099998,18.516666)" />   <use xlink:href="#dot" transform="translate(-74.099998,18.516666)" />   <use xlink:href="#dot" transform="translate(-74.099998,18.516666)" />   <use xlink:href="#dot" transform="translate(-74.099998,18.516666)" />   <use xlink:href="#dot" transform="translate(-74.099998,18.516666)" />   <use xlink:href="#dot" transform="translate(-74.099998,18.516666)" />   <use xlink:href="#dot" transform="translate(-74.099998,18.516666)" />   <use xlink:href="#dot" transform="translate(-74.099998,18.516666)" />   <use xlink:href="#dot" transform="translate(-74.099998,18.516666)" />   <use xlink:href="#dot" transform="translate(-74.099998,18.516666)" />   <use xlink:href="#dot" transform="translate(-74.099998,18.516666)" />   <use xlink:href="#dot" transform="translate(-74.099998,18.516666)" />   <use xlink:href="#dot" transform="translate(-74.099998,18.516666)" />   <use xlink:href="#dot" transform="translate(-74.099998,18.516666)" />   <use xlink:href="#dot" transform="translate(-74.099998,18.516666)" />   <use xlink:href="#dot" transform="translate(-74.099998,18.516666)" />   <use xlink:href="#dot" transform="translate(-74.099998,18.516666)" />   <use xlink:href="#dot" transform="translate(-74.099998,18.516666)" />   <use xlink:href="#dot" transform="translate(-74.099998,18.516666)" />   <use xlink:href="#dot" transform="translate(-74.1,18.4986)" />   <use xlink:href="#dot" transform="translate(-74.099998,18.516666)" />   <use xlink:href="#dot" transform="translate(-74.099998,18.516666)" />   <use xlink:href="#dot" transform="translate(-74.099998,18.516666)" />   <use xlink:href="#dot" transform="translate(-74.099998,18.516666)" />   <use xlink:href="#dot" transform="translate(-74.1,18.4986)" />   <use xlink:href="#dot" transform="translate(-74.099998,18.516666)" />   <use xlink:href="#dot" transform="translate(-74.099998,18.516666)" />   <use xlink:href="#dot" transform="translate(-74.099998,18.516666)" />   <use xlink:href="#dot" transform="translate(-74.099998,18.516666)" />   <use xlink:href="#dot" transform="translate(-74.099998,18.516666)" />   <use xlink:href="#dot" transform="translate(-74.099998,18.516666)" />   <use xlink:href="#dot" transform="translate(-74.099998,18.516666)" />   <use xlink:href="#dot" transform="translate(-74.099998,18.516666)" />   <use xlink:href="#dot" transform="translate(-74.099998,18.516666)" />   <use xlink:href="#dot" transform="translate(-74.1,18.516667)" />   <use xlink:href="#dot" transform="translate(-74.1,18.516667)" />   <use xlink:href="#dot" transform="translate(-74.099998,18.516666)" />   <use xlink:href="#dot" transform="translate(-74.1,18.516667)" />   <use xlink:href="#dot" transform="translate(-74.1,18.516667)" />   <use xlink:href="#dot" transform="translate(-74.1,18.516667)" />   <use xlink:href="#dot" transform="translate(-74.1,18.516667)" />   <use xlink:href="#dot" transform="translate(-74.1,18.516667)" />   <use xlink:href="#dot" transform="translate(-74.1,18.516667)" />   <use xlink:href="#dot" transform="translate(-74.099998,18.516666)" />   <use xlink:href="#dot" transform="translate(-74.1,18.516667)" />   <use xlink:href="#dot" transform="translate(-74.099998,18.516666)" />   <use xlink:href="#dot" transform="translate(-74.1,18.516667)" />   <use xlink:href="#dot" transform="translate(-74.1,18.516667)" />   <use xlink:href="#dot" transform="translate(-74.1,18.516667)" />   <use xlink:href="#dot" transform="translate(-74.1,18.516667)" />   <use xlink:href="#dot" transform="translate(-74.1,18.516667)" />   <use xlink:href="#dot" transform="translate(-74.1,18.516667)" />   <use xlink:href="#dot" transform="translate(-74.099998,18.516666)" />   <use xlink:href="#dot" transform="translate(-74.099998,18.516666)" />   <use xlink:href="#dot" transform="translate(-74.099998,18.516666)" />   <use xlink:href="#dot" transform="translate(-74.1,18.516667)" />   <use xlink:href="#dot" transform="translate(-74.1,18.516667)" />   <use xlink:href="#dot" transform="translate(-74.1,18.516667)" />   <use xlink:href="#dot" transform="translate(-74.1,18.516667)" />   <use xlink:href="#dot" transform="translate(-74.099998,18.516666)" />   <use xlink:href="#dot" transform="translate(-74.1,18.516667)" />   <use xlink:href="#dot" transform="translate(-74.1,18.516667)" />   <use xlink:href="#dot" transform="translate(-74.099998,18.516666)" />   <use xlink:href="#dot" transform="translate(-74.099998,18.516666)" />   <use xlink:href="#dot" transform="translate(-74.099998,18.516666)" />   <use xlink:href="#dot" transform="translate(-74.099998,18.516666)" />   <use xlink:href="#dot" transform="translate(-74.1,18.516667)" />   <use xlink:href="#dot" transform="translate(-74.1,18.516667)" />   <use xlink:href="#dot" transform="translate(-74.1,18.516667)" />   <use xlink:href="#dot" transform="translate(-74.1,18.516667)" />   <use xlink:href="#dot" transform="translate(-74.1,18.516667)" />   <use xlink:href="#dot" transform="translate(-74.1,18.516667)" />   <use xlink:href="#dot" transform="translate(-74.099998,18.516666)" />   <use xlink:href="#dot" transform="translate(-74.1,18.516667)" />   <use xlink:href="#dot" transform="translate(-74,18.4667)" />   <use xlink:href="#dot" transform="translate(-74.1,18.416667)" />   <use xlink:href="#dot" transform="translate(-74,18.4667)" />   <use xlink:href="#dot" transform="translate(-74,18.4667)" /><polygon class="region" points="-74.10520734844,18.431514991548 -74.1201,18.4975 -74.1,18.516667 -72.2892,18.3069 -74.1,18.416667 -74.10520734844,18.431514991548 " />
		  </g>
		</svg>