<?xml version="1.0" encoding="UTF-8"?>
	<svg xmlns:xlink="http://www.w3.org/1999/xlink" 
	xmlns="http://www.w3.org/2000/svg" 
	width="360px" height="180px">
	   <style type="text/css">
		  <![CDATA[     
		  .region 
		  { 
			fill:blue; 
			opacity:0.4; 
			stroke:blue;
		  }
		  ]]>
	   </style>

	<circle id="dot" x="-2" y="-2" r="2" style="stroke:none; stroke-width:0; fill:black; opacity:0.7;"/>


	 <image x="0" y="0" width="360" height="180" xlink:href="map.jpg"/>

 
	 <g transform="translate(180,90) scale(1,-1)">   <use xlink:href="#dot" transform="translate(-76.202833,4.776333)" />   <use xlink:href="#dot" transform="translate(-76.204722,4.782777)" />   <use xlink:href="#dot" transform="translate(-76.2911,4.75305)" />   <use xlink:href="#dot" transform="translate(-76.2911,4.75305)" />   <use xlink:href="#dot" transform="translate(-76.297,4.7444)" />   <use xlink:href="#dot" transform="translate(-76.304444,4.744166)" />   <use xlink:href="#dot" transform="translate(-76.72104,3.48481)" />   <use xlink:href="#dot" transform="translate(-76.72104,3.48481)" />   <use xlink:href="#dot" transform="translate(-76.2355,6.51237)" />   <use xlink:href="#dot" transform="translate(-76.2355,6.51237)" />   <use xlink:href="#dot" transform="translate(-76.265,6.8801)" />   <use xlink:href="#dot" transform="translate(-76.57867,3.52316)" />   <use xlink:href="#dot" transform="translate(-76.17693,4.83436)" />   <use xlink:href="#dot" transform="translate(-76.17693,4.83436)" />   <use xlink:href="#dot" transform="translate(-76.17693,4.83436)" />   <use xlink:href="#dot" transform="translate(-76.62391,3.50157)" />   <use xlink:href="#dot" transform="translate(-76.2931,4.75565)" />   <use xlink:href="#dot" transform="translate(-76.4011,6.71694)" /><polygon class="region" points="-76.62391,3.50157 -76.72104,3.48481 -76.4011,6.71694 -76.265,6.8801 -76.2355,6.51237 -76.17693,4.83436 -76.57867,3.52316 -76.62391,3.50157 " />
		  </g>
		</svg>