<?xml version="1.0" encoding="UTF-8"?>
	<svg xmlns:xlink="http://www.w3.org/1999/xlink" 
	xmlns="http://www.w3.org/2000/svg" 
	width="360px" height="180px">
	   <style type="text/css">
		  <![CDATA[     
		  .region 
		  { 
			fill:blue; 
			opacity:0.4; 
			stroke:blue;
		  }
		  ]]>
	   </style>

	<circle id="dot" x="-2" y="-2" r="2" style="stroke:none; stroke-width:0; fill:black; opacity:0.7;"/>


	 <image x="0" y="0" width="360" height="180" xlink:href="map.jpg"/>

 
	 <g transform="translate(180,90) scale(1,-1)">   <use xlink:href="#dot" transform="translate(-80.284389,-3.775772)" />   <use xlink:href="#dot" transform="translate(-80.376393,-3.943726)" />   <use xlink:href="#dot" transform="translate(-79.638889,-5.408333)" />   <use xlink:href="#dot" transform="translate(-79.6,-5.4)" />   <use xlink:href="#dot" transform="translate(-79.6,-5.4)" />   <use xlink:href="#dot" transform="translate(-79.638889,-5.408333)" />   <use xlink:href="#dot" transform="translate(-79.6,-5.4)" />   <use xlink:href="#dot" transform="translate(-79.638889,-5.408333)" />   <use xlink:href="#dot" transform="translate(-79.638889,-5.408333)" />   <use xlink:href="#dot" transform="translate(-79.638889,-5.408333)" />   <use xlink:href="#dot" transform="translate(-79.6,-5.4)" />   <use xlink:href="#dot" transform="translate(-79.638889,-5.408333)" />   <use xlink:href="#dot" transform="translate(-79.133333,-6.5)" />   <use xlink:href="#dot" transform="translate(-79.133333,-6.5)" />   <use xlink:href="#dot" transform="translate(-79.7167,-4.6333)" />   <use xlink:href="#dot" transform="translate(-79.7167,-4.6333)" />   <use xlink:href="#dot" transform="translate(-79.53221,-5.86973)" />   <use xlink:href="#dot" transform="translate(-79.7167,-4.6333)" />   <use xlink:href="#dot" transform="translate(-79.53221,-5.86973)" />   <use xlink:href="#dot" transform="translate(-78.85,-6.3667)" />   <use xlink:href="#dot" transform="translate(-79.7167,-4.6333)" />   <use xlink:href="#dot" transform="translate(-79.7167,-4.6333)" />   <use xlink:href="#dot" transform="translate(-79.7167,-4.6333)" />   <use xlink:href="#dot" transform="translate(-79.133333,-6.5)" />   <use xlink:href="#dot" transform="translate(-78.85,-6.3667)" />   <use xlink:href="#dot" transform="translate(-79.133333,-6.5)" />   <use xlink:href="#dot" transform="translate(-79.7167,-4.6333)" />   <use xlink:href="#dot" transform="translate(-79.7167,-4.6333)" />   <use xlink:href="#dot" transform="translate(-79.53221,-5.86973)" />   <use xlink:href="#dot" transform="translate(-79.53221,-5.86973)" />   <use xlink:href="#dot" transform="translate(-79.133333,-6.5)" />   <use xlink:href="#dot" transform="translate(-79.53221,-5.86973)" />   <use xlink:href="#dot" transform="translate(-79.133333,-6.5)" />   <use xlink:href="#dot" transform="translate(-78.85,-6.3667)" />   <use xlink:href="#dot" transform="translate(-79.7167,-4.6333)" />   <use xlink:href="#dot" transform="translate(-79.7167,-4.6333)" />   <use xlink:href="#dot" transform="translate(-79.133333,-6.5)" />   <use xlink:href="#dot" transform="translate(-79.133333,-6.5)" />   <use xlink:href="#dot" transform="translate(-78.0375,-7.633333)" />   <use xlink:href="#dot" transform="translate(-78.0375,-7.633333)" />   <use xlink:href="#dot" transform="translate(-78.0375,-7.633333)" />   <use xlink:href="#dot" transform="translate(-78.0375,-7.633333)" />   <use xlink:href="#dot" transform="translate(-78.0375,-7.633333)" />   <use xlink:href="#dot" transform="translate(-78.0375,-7.633333)" />   <use xlink:href="#dot" transform="translate(-78.0375,-7.633333)" />   <use xlink:href="#dot" transform="translate(-78.0375,-7.633333)" />   <use xlink:href="#dot" transform="translate(-79.32167,-3.82639)" />   <use xlink:href="#dot" transform="translate(-80.235,-4.36667)" />   <use xlink:href="#dot" transform="translate(-80.235,-4.36667)" />   <use xlink:href="#dot" transform="translate(-79.32167,-3.82639)" />   <use xlink:href="#dot" transform="translate(-79.32167,-3.82639)" />   <use xlink:href="#dot" transform="translate(-79.32167,-3.82639)" />   <use xlink:href="#dot" transform="translate(-80.235,-4.36667)" />   <use xlink:href="#dot" transform="translate(-80.235,-4.36667)" />   <use xlink:href="#dot" transform="translate(-80.235,-4.36667)" />   <use xlink:href="#dot" transform="translate(-79.32167,-3.82639)" />   <use xlink:href="#dot" transform="translate(-80.235,-4.36667)" />   <use xlink:href="#dot" transform="translate(-79.228056,-4.014722)" />   <use xlink:href="#dot" transform="translate(-79.228056,-4.014722)" />   <use xlink:href="#dot" transform="translate(-79.228056,-4.014722)" />   <use xlink:href="#dot" transform="translate(-79.216667,-4)" />   <use xlink:href="#dot" transform="translate(-79.228056,-4.014722)" />   <use xlink:href="#dot" transform="translate(-79.216667,-4)" />   <use xlink:href="#dot" transform="translate(-79.4517,-5.2444)" />   <use xlink:href="#dot" transform="translate(-79.4625,-5.255)" />   <use xlink:href="#dot" transform="translate(-79.4625,-5.255)" />   <use xlink:href="#dot" transform="translate(-79.4625,-5.255)" />   <use xlink:href="#dot" transform="translate(-79.4625,-5.255)" />   <use xlink:href="#dot" transform="translate(-79.566667,-5.3625)" />   <use xlink:href="#dot" transform="translate(-79.4517,-5.2444)" />   <use xlink:href="#dot" transform="translate(-79.4625,-5.255)" />   <use xlink:href="#dot" transform="translate(-79.4625,-5.255)" />   <use xlink:href="#dot" transform="translate(-79.4517,-5.2444)" />   <use xlink:href="#dot" transform="translate(-79.4625,-5.255)" />   <use xlink:href="#dot" transform="translate(-79.4625,-5.255)" />   <use xlink:href="#dot" transform="translate(-79.4625,-5.255)" />   <use xlink:href="#dot" transform="translate(-79.431944,-5.259722)" />   <use xlink:href="#dot" transform="translate(-79.4625,-5.255)" />   <use xlink:href="#dot" transform="translate(-79.566667,-5.3625)" />   <use xlink:href="#dot" transform="translate(-79.4625,-5.255)" />   <use xlink:href="#dot" transform="translate(-79.4517,-5.2444)" />   <use xlink:href="#dot" transform="translate(-79.4625,-5.255)" />   <use xlink:href="#dot" transform="translate(-79.4517,-5.2444)" />   <use xlink:href="#dot" transform="translate(-79.4625,-5.255)" />   <use xlink:href="#dot" transform="translate(-79.4517,-5.2444)" />   <use xlink:href="#dot" transform="translate(-79.4517,-5.2444)" />   <use xlink:href="#dot" transform="translate(-79.4625,-5.255)" />   <use xlink:href="#dot" transform="translate(-79.4625,-5.255)" />   <use xlink:href="#dot" transform="translate(-79.4517,-5.2444)" />   <use xlink:href="#dot" transform="translate(-79.263056,-3.709444)" />   <use xlink:href="#dot" transform="translate(-79.263056,-3.709444)" />   <use xlink:href="#dot" transform="translate(-79.263056,-3.709444)" />   <use xlink:href="#dot" transform="translate(-79.263056,-3.709444)" />   <use xlink:href="#dot" transform="translate(-79.263056,-3.709444)" />   <use xlink:href="#dot" transform="translate(-79.263056,-3.709444)" />   <use xlink:href="#dot" transform="translate(-79.263056,-3.709444)" />   <use xlink:href="#dot" transform="translate(-79.263056,-3.709444)" />   <use xlink:href="#dot" transform="translate(-79.5,-4.816667)" />   <use xlink:href="#dot" transform="translate(-79.269444,-3.696111)" />   <use xlink:href="#dot" transform="translate(-79.518056,-5.866667)" />   <use xlink:href="#dot" transform="translate(-79.2025,-4.099444)" />   <use xlink:href="#dot" transform="translate(-79.5,-4.816667)" />   <use xlink:href="#dot" transform="translate(-79.2025,-4.099444)" />   <use xlink:href="#dot" transform="translate(-79.5,-4.816667)" />   <use xlink:href="#dot" transform="translate(-79.2025,-4.099444)" />   <use xlink:href="#dot" transform="translate(-79.5,-4.816667)" />   <use xlink:href="#dot" transform="translate(-79.5,-4.816667)" />   <use xlink:href="#dot" transform="translate(-79.518056,-5.866667)" />   <use xlink:href="#dot" transform="translate(-79.5,-4.816667)" />   <use xlink:href="#dot" transform="translate(-79.5,-4.816667)" />   <use xlink:href="#dot" transform="translate(-79.518056,-5.866667)" />   <use xlink:href="#dot" transform="translate(-79.518056,-5.866667)" />   <use xlink:href="#dot" transform="translate(-79.5,-4.816667)" />   <use xlink:href="#dot" transform="translate(-79.5,-4.816667)" />   <use xlink:href="#dot" transform="translate(-79.518056,-5.866667)" />   <use xlink:href="#dot" transform="translate(-79.518056,-5.866667)" />   <use xlink:href="#dot" transform="translate(-79.5,-4.816667)" />   <use xlink:href="#dot" transform="translate(-79.518056,-5.866667)" />   <use xlink:href="#dot" transform="translate(-79.5,-4.816667)" />   <use xlink:href="#dot" transform="translate(-79.518056,-5.866667)" />   <use xlink:href="#dot" transform="translate(-79.2025,-4.099444)" />   <use xlink:href="#dot" transform="translate(-79.5,-4.816667)" />   <use xlink:href="#dot" transform="translate(-79.518056,-5.866667)" />   <use xlink:href="#dot" transform="translate(-79.518056,-5.866667)" />   <use xlink:href="#dot" transform="translate(-79.2025,-4.099444)" />   <use xlink:href="#dot" transform="translate(-79.5,-4.816667)" />   <use xlink:href="#dot" transform="translate(-79.518056,-5.866667)" />   <use xlink:href="#dot" transform="translate(-79.5,-4.816667)" />   <use xlink:href="#dot" transform="translate(-79.5,-4.816667)" />   <use xlink:href="#dot" transform="translate(-79.5,-4.816667)" />   <use xlink:href="#dot" transform="translate(-79.518056,-5.866667)" />   <use xlink:href="#dot" transform="translate(-79.2025,-4.099444)" />   <use xlink:href="#dot" transform="translate(-79.2025,-4.099444)" />   <use xlink:href="#dot" transform="translate(-79.5,-4.816667)" />   <use xlink:href="#dot" transform="translate(-79.518056,-5.866667)" />   <use xlink:href="#dot" transform="translate(-79.5,-4.816667)" />   <use xlink:href="#dot" transform="translate(-79.518056,-5.866667)" />   <use xlink:href="#dot" transform="translate(-79.518056,-5.866667)" />   <use xlink:href="#dot" transform="translate(-79.5,-4.816667)" />   <use xlink:href="#dot" transform="translate(-79.5,-4.816667)" />   <use xlink:href="#dot" transform="translate(-79.518056,-5.866667)" />   <use xlink:href="#dot" transform="translate(-79.2025,-4.099444)" />   <use xlink:href="#dot" transform="translate(-79.2025,-4.099444)" />   <use xlink:href="#dot" transform="translate(-79.518056,-5.866667)" />   <use xlink:href="#dot" transform="translate(-79.216111,-3.956944)" />   <use xlink:href="#dot" transform="translate(-79.216111,-3.956944)" />   <use xlink:href="#dot" transform="translate(-79.216111,-3.956944)" />   <use xlink:href="#dot" transform="translate(-79.9075,-4.274444)" />   <use xlink:href="#dot" transform="translate(-79.546944,-4.290278)" />   <use xlink:href="#dot" transform="translate(-79.216111,-3.956944)" />   <use xlink:href="#dot" transform="translate(-79.216111,-3.956944)" />   <use xlink:href="#dot" transform="translate(-79.91,-4.284722)" />   <use xlink:href="#dot" transform="translate(-79.91,-4.284722)" />   <use xlink:href="#dot" transform="translate(-79.546944,-4.290278)" />   <use xlink:href="#dot" transform="translate(-79.194444,-4.041944)" />   <use xlink:href="#dot" transform="translate(-79.216111,-3.956944)" />   <use xlink:href="#dot" transform="translate(-79.546944,-4.290278)" />   <use xlink:href="#dot" transform="translate(-79.546944,-4.290278)" />   <use xlink:href="#dot" transform="translate(-79.9075,-4.274444)" />   <use xlink:href="#dot" transform="translate(-79.546944,-4.290278)" />   <use xlink:href="#dot" transform="translate(-79.216111,-3.956944)" />   <use xlink:href="#dot" transform="translate(-79.216111,-3.956944)" />   <use xlink:href="#dot" transform="translate(-79.216111,-3.956944)" />   <use xlink:href="#dot" transform="translate(-79.198056,-4.0725)" />   <use xlink:href="#dot" transform="translate(-79.216111,-3.956944)" />   <use xlink:href="#dot" transform="translate(-79.9075,-4.274444)" />   <use xlink:href="#dot" transform="translate(-79.9075,-4.274444)" />   <use xlink:href="#dot" transform="translate(-79.217,-3.98191)" />   <use xlink:href="#dot" transform="translate(-79.194444,-4.041944)" />   <use xlink:href="#dot" transform="translate(-79.216111,-3.956944)" />   <use xlink:href="#dot" transform="translate(-79.216111,-3.956944)" />   <use xlink:href="#dot" transform="translate(-79.91,-4.284722)" />   <use xlink:href="#dot" transform="translate(-79.9075,-4.274444)" />   <use xlink:href="#dot" transform="translate(-79.217,-3.98191)" />   <use xlink:href="#dot" transform="translate(-79.216111,-3.956944)" />   <use xlink:href="#dot" transform="translate(-79.216111,-3.956944)" />   <use xlink:href="#dot" transform="translate(-79.216111,-3.956944)" />   <use xlink:href="#dot" transform="translate(-79.9075,-4.274444)" />   <use xlink:href="#dot" transform="translate(-79.194444,-4.041944)" />   <use xlink:href="#dot" transform="translate(-79.216111,-3.956944)" />   <use xlink:href="#dot" transform="translate(-79.91,-4.284722)" />   <use xlink:href="#dot" transform="translate(-79.809167,-4.35)" />   <use xlink:href="#dot" transform="translate(-79.217,-3.98191)" />   <use xlink:href="#dot" transform="translate(-79.194444,-4.041944)" />   <use xlink:href="#dot" transform="translate(-79.216111,-3.956944)" />   <use xlink:href="#dot" transform="translate(-79.194444,-4.041944)" />   <use xlink:href="#dot" transform="translate(-79.216111,-3.956944)" />   <use xlink:href="#dot" transform="translate(-79.546944,-4.290278)" />   <use xlink:href="#dot" transform="translate(-79.216111,-3.956944)" />   <use xlink:href="#dot" transform="translate(-79.91,-4.284722)" />   <use xlink:href="#dot" transform="translate(-79.91,-4.284722)" />   <use xlink:href="#dot" transform="translate(-79.216111,-3.956944)" />   <use xlink:href="#dot" transform="translate(-79.9075,-4.274444)" />   <use xlink:href="#dot" transform="translate(-79.216111,-3.956944)" />   <use xlink:href="#dot" transform="translate(-79.91,-4.284722)" />   <use xlink:href="#dot" transform="translate(-79.546944,-4.290278)" />   <use xlink:href="#dot" transform="translate(-79.91,-4.284722)" />   <use xlink:href="#dot" transform="translate(-79.9075,-4.274444)" />   <use xlink:href="#dot" transform="translate(-79.217,-3.98191)" />   <use xlink:href="#dot" transform="translate(-79.546944,-4.290278)" />   <use xlink:href="#dot" transform="translate(-79.546944,-4.290278)" />   <use xlink:href="#dot" transform="translate(-79.91,-4.284722)" />   <use xlink:href="#dot" transform="translate(-79.216111,-3.956944)" />   <use xlink:href="#dot" transform="translate(-79.91,-4.284722)" />   <use xlink:href="#dot" transform="translate(-79.9075,-4.274444)" />   <use xlink:href="#dot" transform="translate(-79.216111,-3.956944)" />   <use xlink:href="#dot" transform="translate(-79.216111,-3.956944)" />   <use xlink:href="#dot" transform="translate(-79.217,-3.98191)" />   <use xlink:href="#dot" transform="translate(-79.194444,-4.041944)" />   <use xlink:href="#dot" transform="translate(-79.216111,-3.956944)" />   <use xlink:href="#dot" transform="translate(-79.9075,-4.274444)" />   <use xlink:href="#dot" transform="translate(-79.9075,-4.274444)" />   <use xlink:href="#dot" transform="translate(-79.546944,-4.290278)" />   <use xlink:href="#dot" transform="translate(-79.9075,-4.274444)" />   <use xlink:href="#dot" transform="translate(-79.546944,-4.290278)" />   <use xlink:href="#dot" transform="translate(-79.194444,-4.041944)" />   <use xlink:href="#dot" transform="translate(-79.546944,-4.290278)" />   <use xlink:href="#dot" transform="translate(-79.216111,-3.956944)" />   <use xlink:href="#dot" transform="translate(-79.9075,-4.274444)" />   <use xlink:href="#dot" transform="translate(-79.216111,-3.956944)" />   <use xlink:href="#dot" transform="translate(-79.216111,-3.956944)" />   <use xlink:href="#dot" transform="translate(-79.216111,-3.956944)" />   <use xlink:href="#dot" transform="translate(-79.216111,-3.956944)" />   <use xlink:href="#dot" transform="translate(-79.216111,-3.956944)" />   <use xlink:href="#dot" transform="translate(-79.216111,-3.956944)" />   <use xlink:href="#dot" transform="translate(-79.546944,-4.290278)" />   <use xlink:href="#dot" transform="translate(-79.91,-4.284722)" />   <use xlink:href="#dot" transform="translate(-78.05,-7.6167)" />   <use xlink:href="#dot" transform="translate(-78.05,-7.6167)" />   <use xlink:href="#dot" transform="translate(-79.4517,-5.2444)" />   <use xlink:href="#dot" transform="translate(-79.6,-5.4)" />   <use xlink:href="#dot" transform="translate(-79.4517,-5.2444)" />   <use xlink:href="#dot" transform="translate(-79.4517,-5.2444)" />   <use xlink:href="#dot" transform="translate(-79.6,-5.4)" />   <use xlink:href="#dot" transform="translate(-79.4517,-5.2444)" />   <use xlink:href="#dot" transform="translate(-79.4517,-5.2444)" />   <use xlink:href="#dot" transform="translate(-79.6,-5.4)" />   <use xlink:href="#dot" transform="translate(-79.4517,-5.2444)" />   <use xlink:href="#dot" transform="translate(-79.6,-5.4)" />   <use xlink:href="#dot" transform="translate(-79.6,-5.4)" />   <use xlink:href="#dot" transform="translate(-79.4517,-5.2444)" />   <use xlink:href="#dot" transform="translate(-79.4517,-5.2444)" />   <use xlink:href="#dot" transform="translate(-79.4517,-5.2444)" />   <use xlink:href="#dot" transform="translate(-79.4517,-5.2444)" />   <use xlink:href="#dot" transform="translate(-79.216667,-4)" />   <use xlink:href="#dot" transform="translate(-79.213611,-4.003889)" />   <use xlink:href="#dot" transform="translate(-79.213611,-4.003889)" />   <use xlink:href="#dot" transform="translate(-79.213611,-4.003889)" />   <use xlink:href="#dot" transform="translate(-79.213611,-4.003889)" />   <use xlink:href="#dot" transform="translate(-79.213611,-4.003889)" />   <use xlink:href="#dot" transform="translate(-79.246389,-3.999167)" />   <use xlink:href="#dot" transform="translate(-79.213611,-4.003889)" />   <use xlink:href="#dot" transform="translate(-79.213611,-4.003889)" />   <use xlink:href="#dot" transform="translate(-79.213611,-4.003889)" />   <use xlink:href="#dot" transform="translate(-79.213611,-4.003889)" />   <use xlink:href="#dot" transform="translate(-79.216667,-4)" />   <use xlink:href="#dot" transform="translate(-79.216667,-4)" />   <use xlink:href="#dot" transform="translate(-79.140833,-3.981111)" />   <use xlink:href="#dot" transform="translate(-79.216667,-4)" />   <use xlink:href="#dot" transform="translate(-79.216667,-4)" />   <use xlink:href="#dot" transform="translate(-79.216667,-4)" />   <use xlink:href="#dot" transform="translate(-79.216667,-4)" />   <use xlink:href="#dot" transform="translate(-79.216667,-4)" />   <use xlink:href="#dot" transform="translate(-79.216667,-4)" />   <use xlink:href="#dot" transform="translate(-79.216667,-4)" />   <use xlink:href="#dot" transform="translate(-79.216667,-4)" />   <use xlink:href="#dot" transform="translate(-79.216667,-4)" />   <use xlink:href="#dot" transform="translate(-79.216667,-4)" />   <use xlink:href="#dot" transform="translate(-79.216667,-4)" />   <use xlink:href="#dot" transform="translate(-79.216667,-4)" />   <use xlink:href="#dot" transform="translate(-79.216667,-4)" />   <use xlink:href="#dot" transform="translate(-79.140833,-3.981111)" />   <use xlink:href="#dot" transform="translate(-79.216667,-4)" />   <use xlink:href="#dot" transform="translate(-79.216667,-4)" />   <use xlink:href="#dot" transform="translate(-79.216667,-4)" />   <use xlink:href="#dot" transform="translate(-79.216667,-4)" />   <use xlink:href="#dot" transform="translate(-79.216667,-4)" />   <use xlink:href="#dot" transform="translate(-79.216667,-4)" />   <use xlink:href="#dot" transform="translate(-79.216667,-4)" />   <use xlink:href="#dot" transform="translate(-79.216667,-4)" />   <use xlink:href="#dot" transform="translate(-79.216667,-4)" />   <use xlink:href="#dot" transform="translate(-79.216667,-4)" />   <use xlink:href="#dot" transform="translate(-79.216667,-4)" />   <use xlink:href="#dot" transform="translate(-79.216667,-4)" />   <use xlink:href="#dot" transform="translate(-79.216667,-4)" />   <use xlink:href="#dot" transform="translate(-79.216667,-4)" />   <use xlink:href="#dot" transform="translate(-79.216667,-4)" />   <use xlink:href="#dot" transform="translate(-79.216667,-4)" />   <use xlink:href="#dot" transform="translate(-79.216667,-4)" />   <use xlink:href="#dot" transform="translate(-79.216667,-4)" />   <use xlink:href="#dot" transform="translate(-79.140833,-3.981111)" />   <use xlink:href="#dot" transform="translate(-79.216667,-4)" />   <use xlink:href="#dot" transform="translate(-79.216667,-4)" />   <use xlink:href="#dot" transform="translate(-79.26976,-4.22872)" />   <use xlink:href="#dot" transform="translate(-79.26976,-4.22872)" />   <use xlink:href="#dot" transform="translate(-79.196944,-4.024167)" />   <use xlink:href="#dot" transform="translate(-79.196944,-4.024167)" />   <use xlink:href="#dot" transform="translate(-79.196944,-4.024167)" />   <use xlink:href="#dot" transform="translate(-79.196944,-4.024167)" />   <use xlink:href="#dot" transform="translate(-79.196944,-4.024167)" /><polygon class="region" points="-80.235,-4.36667 -80.376393,-3.943726 -80.284389,-3.775772 -79.269444,-3.696111 -79.263056,-3.709444 -79.140833,-3.981111 -78.0375,-7.633333 -79.133333,-6.5 -79.53221,-5.86973 -80.235,-4.36667 " />
		  </g>
		</svg>