<?xml version="1.0" encoding="UTF-8"?>
	<svg xmlns:xlink="http://www.w3.org/1999/xlink" 
	xmlns="http://www.w3.org/2000/svg" 
	width="360px" height="180px">
	   <style type="text/css">
		  <![CDATA[     
		  .region 
		  { 
			fill:blue; 
			opacity:0.4; 
			stroke:blue;
		  }
		  ]]>
	   </style>

	<circle id="dot" x="-2" y="-2" r="2" style="stroke:none; stroke-width:0; fill:black; opacity:0.7;"/>


	 <image x="0" y="0" width="360" height="180" xlink:href="map.jpg"/>

 
	 <g transform="translate(180,90) scale(1,-1)"><polygon class="region" points="19.701048897,-17.952427105 18.208743062,-16.98174737 15.475325921,-16.279942847 14.21398684,-15.714262796 13.607622895,-15.249520288 13.441905027,-14.658434725 13.486864675,-12.417119499 13.778453251,-11.893526571 13.788744408,-10.759951619 14.576463484,-9.447226859 16.982381004,-8.5025936279999 19.514043083,-7.8327073569999 22.556119358,-7.716795275 26.726842471,-8.012069417 29.39754746,-8.412868298 30.155018671,-8.995070509 32.317833383,-11.997109053 34.556090889,-13.847318125 35.532379281,-15.326830907 34.951559177,-17.571928643 33.908307088,-19.411894967 32.943826882,-20.320161142 31.508449774,-20.730905512 29.238483374,-20.843555014 26.517026622,-20.447417453 23.368552579,-19.534192766 20.669833081,-18.186358568 19.701048897,-17.952427105 " />
		  </g>
		</svg>