<?xml version="1.0" encoding="UTF-8"?>
	<svg xmlns:xlink="http://www.w3.org/1999/xlink" 
	xmlns="http://www.w3.org/2000/svg" 
	width="360px" height="180px">
	   <style type="text/css">
		  <![CDATA[     
		  .region 
		  { 
			fill:blue; 
			opacity:0.4; 
			stroke:blue;
		  }
		  ]]>
	   </style>

	<circle id="dot" x="-2" y="-2" r="2" style="stroke:none; stroke-width:0; fill:black; opacity:0.7;"/>


	 <image x="0" y="0" width="360" height="180" xlink:href="map.jpg"/>

 
	 <g transform="translate(180,90) scale(1,-1)">   <use xlink:href="#dot" transform="translate(20.062056,-17.511306)" />   <use xlink:href="#dot" transform="translate(20.053861,-17.489333)" />   <use xlink:href="#dot" transform="translate(20.066083,-17.508528)" />   <use xlink:href="#dot" transform="translate(19.053556,-16.623333)" />   <use xlink:href="#dot" transform="translate(17.778528,-14.257056)" />   <use xlink:href="#dot" transform="translate(31.85,-8.166667)" />   <use xlink:href="#dot" transform="translate(31.85,-8.166667)" />   <use xlink:href="#dot" transform="translate(24.3,-11.25)" />   <use xlink:href="#dot" transform="translate(24.3,-11.25)" />   <use xlink:href="#dot" transform="translate(24.3,-11.25)" />   <use xlink:href="#dot" transform="translate(24.3,-11.25)" />   <use xlink:href="#dot" transform="translate(24.3,-11.25)" />   <use xlink:href="#dot" transform="translate(24.3,-11.25)" />   <use xlink:href="#dot" transform="translate(24.3,-11.25)" />   <use xlink:href="#dot" transform="translate(24.3,-11.25)" />   <use xlink:href="#dot" transform="translate(24.3,-11.25)" />   <use xlink:href="#dot" transform="translate(24.3,-11.25)" />   <use xlink:href="#dot" transform="translate(24.3,-11.25)" />   <use xlink:href="#dot" transform="translate(24.3,-11.25)" />   <use xlink:href="#dot" transform="translate(24.3,-11.25)" />   <use xlink:href="#dot" transform="translate(24.3,-11.25)" />   <use xlink:href="#dot" transform="translate(24.3,-11.25)" />   <use xlink:href="#dot" transform="translate(24.3,-11.25)" />   <use xlink:href="#dot" transform="translate(24.3,-11.25)" />   <use xlink:href="#dot" transform="translate(24.3,-11.25)" />   <use xlink:href="#dot" transform="translate(24.3,-11.25)" />   <use xlink:href="#dot" transform="translate(24.3,-11.25)" />   <use xlink:href="#dot" transform="translate(24.3,-11.25)" />   <use xlink:href="#dot" transform="translate(24.3,-11.25)" />   <use xlink:href="#dot" transform="translate(24.3,-11.25)" />   <use xlink:href="#dot" transform="translate(24.3,-11.25)" />   <use xlink:href="#dot" transform="translate(24.3,-11.25)" />   <use xlink:href="#dot" transform="translate(24.3,-11.25)" />   <use xlink:href="#dot" transform="translate(24.3,-11.25)" />   <use xlink:href="#dot" transform="translate(24.3,-11.25)" />   <use xlink:href="#dot" transform="translate(24.3,-11.25)" />   <use xlink:href="#dot" transform="translate(24.3,-11.25)" />   <use xlink:href="#dot" transform="translate(24.3,-11.25)" />   <use xlink:href="#dot" transform="translate(24.3,-11.25)" />   <use xlink:href="#dot" transform="translate(24.3,-11.25)" />   <use xlink:href="#dot" transform="translate(24.3,-11.25)" />   <use xlink:href="#dot" transform="translate(24.3,-11.25)" />   <use xlink:href="#dot" transform="translate(24.3,-11.25)" />   <use xlink:href="#dot" transform="translate(24.3,-11.25)" />   <use xlink:href="#dot" transform="translate(24.3,-11.25)" />   <use xlink:href="#dot" transform="translate(24.3,-11.25)" />   <use xlink:href="#dot" transform="translate(24.3,-11.25)" />   <use xlink:href="#dot" transform="translate(24.32695,-11.25445)" />   <use xlink:href="#dot" transform="translate(24.32695,-11.25445)" />   <use xlink:href="#dot" transform="translate(24.32695,-11.25445)" />   <use xlink:href="#dot" transform="translate(24.32695,-11.25445)" />   <use xlink:href="#dot" transform="translate(24.32695,-11.25445)" />   <use xlink:href="#dot" transform="translate(24.310639,-11.267222)" />   <use xlink:href="#dot" transform="translate(24.310639,-11.267222)" />   <use xlink:href="#dot" transform="translate(24.32695,-11.25445)" />   <use xlink:href="#dot" transform="translate(24.310639,-11.267222)" />   <use xlink:href="#dot" transform="translate(24.32695,-11.25445)" />   <use xlink:href="#dot" transform="translate(24.310639,-11.267222)" />   <use xlink:href="#dot" transform="translate(24.310639,-11.267222)" />   <use xlink:href="#dot" transform="translate(24.32695,-11.25445)" />   <use xlink:href="#dot" transform="translate(24.32695,-11.25445)" />   <use xlink:href="#dot" transform="translate(24.32695,-11.25445)" />   <use xlink:href="#dot" transform="translate(24.310639,-11.267222)" />   <use xlink:href="#dot" transform="translate(24.310639,-11.267222)" />   <use xlink:href="#dot" transform="translate(24.310639,-11.267222)" />   <use xlink:href="#dot" transform="translate(24.32695,-11.25445)" />   <use xlink:href="#dot" transform="translate(24.310639,-11.267222)" />   <use xlink:href="#dot" transform="translate(24.310639,-11.267222)" />   <use xlink:href="#dot" transform="translate(24.32695,-11.25445)" />   <use xlink:href="#dot" transform="translate(24.310639,-11.267222)" />   <use xlink:href="#dot" transform="translate(24.310639,-11.267222)" />   <use xlink:href="#dot" transform="translate(24.310639,-11.267222)" />   <use xlink:href="#dot" transform="translate(24.310639,-11.267222)" />   <use xlink:href="#dot" transform="translate(24.32695,-11.25445)" />   <use xlink:href="#dot" transform="translate(24.32695,-11.25445)" />   <use xlink:href="#dot" transform="translate(31.086833,-17.764333)" />   <use xlink:href="#dot" transform="translate(23.052167,-19.549)" />   <use xlink:href="#dot" transform="translate(23.052167,-19.549)" />   <use xlink:href="#dot" transform="translate(23.052167,-19.549)" />   <use xlink:href="#dot" transform="translate(23.052167,-19.549)" />   <use xlink:href="#dot" transform="translate(23.052167,-19.549)" />   <use xlink:href="#dot" transform="translate(23.052167,-19.549)" />   <use xlink:href="#dot" transform="translate(23.052167,-19.549)" />   <use xlink:href="#dot" transform="translate(23.052167,-19.549)" />   <use xlink:href="#dot" transform="translate(23.052167,-19.549)" />   <use xlink:href="#dot" transform="translate(23.052167,-19.549)" />   <use xlink:href="#dot" transform="translate(23.052167,-19.549)" />   <use xlink:href="#dot" transform="translate(23.052167,-19.549)" />   <use xlink:href="#dot" transform="translate(23.052167,-19.549)" />   <use xlink:href="#dot" transform="translate(23.052167,-19.549)" />   <use xlink:href="#dot" transform="translate(26.215167,-15.426833)" />   <use xlink:href="#dot" transform="translate(26.215167,-15.426833)" />   <use xlink:href="#dot" transform="translate(26.215167,-15.426833)" />   <use xlink:href="#dot" transform="translate(26.215167,-15.426833)" />   <use xlink:href="#dot" transform="translate(26.215167,-15.426833)" />   <use xlink:href="#dot" transform="translate(26.215167,-15.426833)" />   <use xlink:href="#dot" transform="translate(26.215167,-15.426833)" />   <use xlink:href="#dot" transform="translate(27.766667,-15.866667)" />   <use xlink:href="#dot" transform="translate(27.766667,-15.866667)" />   <use xlink:href="#dot" transform="translate(27.766667,-15.866667)" />   <use xlink:href="#dot" transform="translate(27.766667,-15.866667)" />   <use xlink:href="#dot" transform="translate(27.766667,-15.866667)" />   <use xlink:href="#dot" transform="translate(27.766667,-15.866667)" />   <use xlink:href="#dot" transform="translate(27.766667,-15.866667)" />   <use xlink:href="#dot" transform="translate(30.8,-0.483333)" />   <use xlink:href="#dot" transform="translate(30.8,-0.483333)" />   <use xlink:href="#dot" transform="translate(30.8,-0.483333)" />   <use xlink:href="#dot" transform="translate(30.8,-0.483333)" />   <use xlink:href="#dot" transform="translate(30.8,-0.483333)" />   <use xlink:href="#dot" transform="translate(27.2,-8.933333)" />   <use xlink:href="#dot" transform="translate(27.2,-8.933333)" />   <use xlink:href="#dot" transform="translate(27.2,-8.933333)" /><polygon class="region" points="19.053556,-16.623333 17.778528,-14.257056 30.8,-0.483333 31.85,-8.166667 31.086833,-17.764333 23.052167,-19.549 20.062056,-17.511306 19.053556,-16.623333 " />
		  </g>
		</svg>