<?xml version="1.0" encoding="UTF-8"?>
	<svg xmlns:xlink="http://www.w3.org/1999/xlink" 
	xmlns="http://www.w3.org/2000/svg" 
	width="360px" height="180px">
	   <style type="text/css">
		  <![CDATA[     
		  .region 
		  { 
			fill:blue; 
			opacity:0.4; 
			stroke:blue;
		  }
		  ]]>
	   </style>

	<circle id="dot" x="-2" y="-2" r="2" style="stroke:none; stroke-width:0; fill:black; opacity:0.7;"/>


	 <image x="0" y="0" width="360" height="180" xlink:href="map.jpg"/>

 
	 <g transform="translate(180,90) scale(1,-1)">   <use xlink:href="#dot" transform="translate(-98.311163,24.030481)" />   <use xlink:href="#dot" transform="translate(-97.763229,30.461453)" />   <use xlink:href="#dot" transform="translate(-99.270846,26.901363)" />   <use xlink:href="#dot" transform="translate(-97.753196,30.539142)" />   <use xlink:href="#dot" transform="translate(-95.611954,29.858436)" />   <use xlink:href="#dot" transform="translate(-97.653655,30.218778)" />   <use xlink:href="#dot" transform="translate(-91.1235,30.5347)" />   <use xlink:href="#dot" transform="translate(-97.061033,33.065508)" />   <use xlink:href="#dot" transform="translate(-90.982124,30.479438)" />   <use xlink:href="#dot" transform="translate(-95.368338,29.76118)" />   <use xlink:href="#dot" transform="translate(-97.932798,30.596306)" />   <use xlink:href="#dot" transform="translate(-97.933137,30.595874)" />   <use xlink:href="#dot" transform="translate(-97.659562,30.431433)" />   <use xlink:href="#dot" transform="translate(-98.137473,27.98574)" />   <use xlink:href="#dot" transform="translate(-90.145337,30.095066)" />   <use xlink:href="#dot" transform="translate(-97.882548,27.874904)" />   <use xlink:href="#dot" transform="translate(-97.842168,27.93767)" />   <use xlink:href="#dot" transform="translate(-95.445432,30.808871)" />   <use xlink:href="#dot" transform="translate(-98.015143,29.917165)" />   <use xlink:href="#dot" transform="translate(-96.098571,28.655552)" />   <use xlink:href="#dot" transform="translate(-95.416346,29.582653)" />   <use xlink:href="#dot" transform="translate(-100.292355,25.736364)" />   <use xlink:href="#dot" transform="translate(-97.170647,30.08782)" />   <use xlink:href="#dot" transform="translate(-97.940237,28.218555)" />   <use xlink:href="#dot" transform="translate(-97.820289,30.505198)" />   <use xlink:href="#dot" transform="translate(-97.173615,30.087223)" />   <use xlink:href="#dot" transform="translate(-97.93248,30.595975)" />   <use xlink:href="#dot" transform="translate(-97.932371,30.595875)" />   <use xlink:href="#dot" transform="translate(-98.435187,30.208331)" />   <use xlink:href="#dot" transform="translate(-97.170508,30.088231)" />   <use xlink:href="#dot" transform="translate(-97.750298,30.361452)" />   <use xlink:href="#dot" transform="translate(-97.932371,30.595875)" />   <use xlink:href="#dot" transform="translate(-97.999226,29.389423)" />   <use xlink:href="#dot" transform="translate(-98.13941,27.991219)" />   <use xlink:href="#dot" transform="translate(-95.655556,29.877777)" />   <use xlink:href="#dot" transform="translate(-97.802845,30.348022)" />   <use xlink:href="#dot" transform="translate(-98.243598,32.209517)" />   <use xlink:href="#dot" transform="translate(-97.169985,30.088154)" />   <use xlink:href="#dot" transform="translate(-96.35256,30.62465)" />   <use xlink:href="#dot" transform="translate(-97.173514,30.086362)" />   <use xlink:href="#dot" transform="translate(-97.170022,30.08755)" />   <use xlink:href="#dot" transform="translate(-97.399274,27.791609)" />   <use xlink:href="#dot" transform="translate(-100.131211,25.407488)" />   <use xlink:href="#dot" transform="translate(-97.992176,29.387739)" />   <use xlink:href="#dot" transform="translate(-96.799287,33.129744)" />   <use xlink:href="#dot" transform="translate(-100.155907,25.724008)" />   <use xlink:href="#dot" transform="translate(-101.298203,27.925171)" />   <use xlink:href="#dot" transform="translate(-97.802703,30.348149)" />   <use xlink:href="#dot" transform="translate(-95.739393,29.427605)" />   <use xlink:href="#dot" transform="translate(-98.237482,30.05285)" />   <use xlink:href="#dot" transform="translate(-97.986237,30.473772)" />   <use xlink:href="#dot" transform="translate(-97.336667,28.811944)" />   <use xlink:href="#dot" transform="translate(-95.448625,28.868558)" />   <use xlink:href="#dot" transform="translate(-96.98137,33.018978)" />   <use xlink:href="#dot" transform="translate(-97.335177,30.408899)" />   <use xlink:href="#dot" transform="translate(-97.758536,30.417972)" />   <use xlink:href="#dot" transform="translate(-96.351752,30.622044)" />   <use xlink:href="#dot" transform="translate(-97.727275,27.337138)" />   <use xlink:href="#dot" transform="translate(-97.460382,32.759201)" />   <use xlink:href="#dot" transform="translate(-97.049736,33.02655)" />   <use xlink:href="#dot" transform="translate(-96.679573,32.987652)" />   <use xlink:href="#dot" transform="translate(-89.879858,30.054556)" />   <use xlink:href="#dot" transform="translate(-97.939613,30.330382)" />   <use xlink:href="#dot" transform="translate(-97.043317,28.056914)" />   <use xlink:href="#dot" transform="translate(-95.533582,30.045425)" />   <use xlink:href="#dot" transform="translate(-98.203308,32.214312)" />   <use xlink:href="#dot" transform="translate(-95.448608,28.868556)" />   <use xlink:href="#dot" transform="translate(-97.732334,30.310353)" />   <use xlink:href="#dot" transform="translate(-100.068388,25.880436)" />   <use xlink:href="#dot" transform="translate(-96.994297,32.906875)" />   <use xlink:href="#dot" transform="translate(-100.330801,25.80462)" />   <use xlink:href="#dot" transform="translate(-97.996522,30.468138)" />   <use xlink:href="#dot" transform="translate(-95.422737,29.762785)" />   <use xlink:href="#dot" transform="translate(-97.050361,27.837375)" />   <use xlink:href="#dot" transform="translate(-97.050871,27.837691)" />   <use xlink:href="#dot" transform="translate(-97.108017,33.088851)" />   <use xlink:href="#dot" transform="translate(-99.473847,21.206283)" />   <use xlink:href="#dot" transform="translate(-97.728348,30.38534)" />   <use xlink:href="#dot" transform="translate(-94.464996,29.675833)" />   <use xlink:href="#dot" transform="translate(-97.749528,30.234367)" />   <use xlink:href="#dot" transform="translate(-96.33642,30.591587)" />   <use xlink:href="#dot" transform="translate(-96.993175,32.980855)" />   <use xlink:href="#dot" transform="translate(-97.550032,30.028536)" />   <use xlink:href="#dot" transform="translate(-97.435524,32.872303)" />   <use xlink:href="#dot" transform="translate(-89.921508,30.281295)" />   <use xlink:href="#dot" transform="translate(-90.988434,30.475889)" />   <use xlink:href="#dot" transform="translate(-96.896473,33.081661)" />   <use xlink:href="#dot" transform="translate(-97.933312,29.884413)" />   <use xlink:href="#dot" transform="translate(-97.303062,31.059253)" />   <use xlink:href="#dot" transform="translate(-95.663628,29.630263)" />   <use xlink:href="#dot" transform="translate(-90.055641,30.361298)" />   <use xlink:href="#dot" transform="translate(-97.945811,29.902873)" />   <use xlink:href="#dot" transform="translate(-97.015008,32.954569)" />   <use xlink:href="#dot" transform="translate(-95.499285,29.765334)" />   <use xlink:href="#dot" transform="translate(-95.611664,29.355278)" />   <use xlink:href="#dot" transform="translate(-97.46598,32.708274)" />   <use xlink:href="#dot" transform="translate(-97.025878,32.777017)" />   <use xlink:href="#dot" transform="translate(-95.319152,29.774785)" />   <use xlink:href="#dot" transform="translate(-97.659215,30.317923)" />   <use xlink:href="#dot" transform="translate(-96.694578,32.958226)" />   <use xlink:href="#dot" transform="translate(-97.761865,30.460687)" />   <use xlink:href="#dot" transform="translate(-97.771304,30.264635)" />   <use xlink:href="#dot" transform="translate(-96.834662,28.371283)" />   <use xlink:href="#dot" transform="translate(-97.460017,32.758732)" />   <use xlink:href="#dot" transform="translate(-100.215096,25.594665)" />   <use xlink:href="#dot" transform="translate(-97.643691,30.684458)" />   <use xlink:href="#dot" transform="translate(-90.087612,30.371074)" />   <use xlink:href="#dot" transform="translate(-97.323197,32.536522)" />   <use xlink:href="#dot" transform="translate(-97.270185,30.194186)" />   <use xlink:href="#dot" transform="translate(-90.98873,30.476798)" />   <use xlink:href="#dot" transform="translate(-99.55087,29.725999)" />   <use xlink:href="#dot" transform="translate(-97.786155,30.366255)" />   <use xlink:href="#dot" transform="translate(-97.789872,30.241853)" />   <use xlink:href="#dot" transform="translate(-90.99422,30.472571)" />   <use xlink:href="#dot" transform="translate(-96.651224,32.360597)" />   <use xlink:href="#dot" transform="translate(-95.468563,29.878919)" />   <use xlink:href="#dot" transform="translate(-95.41928,29.042712)" />   <use xlink:href="#dot" transform="translate(-96.73008,32.968272)" />   <use xlink:href="#dot" transform="translate(-90.986066,30.470203)" />   <use xlink:href="#dot" transform="translate(-95.619315,29.860293)" />   <use xlink:href="#dot" transform="translate(-97.460489,32.759147)" />   <use xlink:href="#dot" transform="translate(-96.3359,30.59182)" />   <use xlink:href="#dot" transform="translate(-97.057373,27.835584)" />   <use xlink:href="#dot" transform="translate(-97.775833,30.263889)" />   <use xlink:href="#dot" transform="translate(-95.698425,29.804872)" />   <use xlink:href="#dot" transform="translate(-97.278786,32.878191)" />   <use xlink:href="#dot" transform="translate(-97.930847,30.597426)" />   <use xlink:href="#dot" transform="translate(-97.718654,30.32356)" />   <use xlink:href="#dot" transform="translate(-99.574258,24.848274)" />   <use xlink:href="#dot" transform="translate(-96.744171,32.844512)" />   <use xlink:href="#dot" transform="translate(-98.806062,29.832855)" />   <use xlink:href="#dot" transform="translate(-90.070846,30.365591)" />   <use xlink:href="#dot" transform="translate(-96.651185,32.360494)" />   <use xlink:href="#dot" transform="translate(-98.178345,30.157855)" />   <use xlink:href="#dot" transform="translate(-94.934365,29.21916)" />   <use xlink:href="#dot" transform="translate(-95.117072,29.571994)" />   <use xlink:href="#dot" transform="translate(-97.845833,30.159444)" />   <use xlink:href="#dot" transform="translate(-97.643813,30.683691)" />   <use xlink:href="#dot" transform="translate(-97.35186,32.70866)" />   <use xlink:href="#dot" transform="translate(-98.440491,29.687833)" />   <use xlink:href="#dot" transform="translate(-97.002638,33.017638)" />   <use xlink:href="#dot" transform="translate(-100.069598,29.649975)" />   <use xlink:href="#dot" transform="translate(-97.547127,30.35026)" />   <use xlink:href="#dot" transform="translate(-96.015227,30.203606)" />   <use xlink:href="#dot" transform="translate(-91.172783,30.417188)" />   <use xlink:href="#dot" transform="translate(-90.11626,29.782969)" />   <use xlink:href="#dot" transform="translate(-97.052155,27.836962)" />   <use xlink:href="#dot" transform="translate(-97.936347,29.884542)" />   <use xlink:href="#dot" transform="translate(-97.720602,30.187073)" />   <use xlink:href="#dot" transform="translate(-97.47049,30.267869)" />   <use xlink:href="#dot" transform="translate(-97.05033,27.83675)" />   <use xlink:href="#dot" transform="translate(-95.293157,30.027767)" />   <use xlink:href="#dot" transform="translate(-95.025484,29.564118)" />   <use xlink:href="#dot" transform="translate(-96.3357,30.591305)" />   <use xlink:href="#dot" transform="translate(-97.156512,30.008584)" />   <use xlink:href="#dot" transform="translate(-90.99422,30.472571)" />   <use xlink:href="#dot" transform="translate(-97.827011,30.245005)" />   <use xlink:href="#dot" transform="translate(-95.116639,29.688103)" />   <use xlink:href="#dot" transform="translate(-97.760933,30.462087)" />   <use xlink:href="#dot" transform="translate(-97.470462,30.267854)" />   <use xlink:href="#dot" transform="translate(-97.583802,29.589035)" />   <use xlink:href="#dot" transform="translate(-97.014929,32.311411)" />   <use xlink:href="#dot" transform="translate(-97.930847,30.597426)" />   <use xlink:href="#dot" transform="translate(-96.528439,31.56657)" />   <use xlink:href="#dot" transform="translate(-97.929756,29.892513)" />   <use xlink:href="#dot" transform="translate(-100.908899,29.341539)" />   <use xlink:href="#dot" transform="translate(-97.11336,28.568834)" />   <use xlink:href="#dot" transform="translate(-97.193253,31.61862)" />   <use xlink:href="#dot" transform="translate(-92.206138,29.677366)" />   <use xlink:href="#dot" transform="translate(-97.333917,27.645817)" />   <use xlink:href="#dot" transform="translate(-98.315937,24.0333)" />   <use xlink:href="#dot" transform="translate(-97.158404,30.04208)" />   <use xlink:href="#dot" transform="translate(-96.987912,28.844888)" />   <use xlink:href="#dot" transform="translate(-100.203588,25.455356)" />   <use xlink:href="#dot" transform="translate(-95.593855,29.646525)" />   <use xlink:href="#dot" transform="translate(-100.068283,25.87857)" />   <use xlink:href="#dot" transform="translate(-97.156883,30.122545)" />   <use xlink:href="#dot" transform="translate(-95.573805,30.730128)" />   <use xlink:href="#dot" transform="translate(-97.042367,33.00377)" />   <use xlink:href="#dot" transform="translate(-95.375205,29.78933)" />   <use xlink:href="#dot" transform="translate(-95.419722,29.0425)" />   <use xlink:href="#dot" transform="translate(-97.072482,27.834435)" />   <use xlink:href="#dot" transform="translate(-97.932648,30.595861)" />   <use xlink:href="#dot" transform="translate(-97.821547,30.599895)" />   <use xlink:href="#dot" transform="translate(-95.728766,29.618984)" />   <use xlink:href="#dot" transform="translate(-97.981553,30.452613)" />   <use xlink:href="#dot" transform="translate(-97.932335,30.595921)" />   <use xlink:href="#dot" transform="translate(-97.07354,27.832677)" />   <use xlink:href="#dot" transform="translate(-97.93248,30.595877)" />   <use xlink:href="#dot" transform="translate(-96.317863,30.60225)" />   <use xlink:href="#dot" transform="translate(-100.286233,25.645404)" />   <use xlink:href="#dot" transform="translate(-96.317825,30.570005)" />   <use xlink:href="#dot" transform="translate(-97.437574,27.575662)" />   <use xlink:href="#dot" transform="translate(-97.915276,30.305797)" />   <use xlink:href="#dot" transform="translate(-97.460403,32.759039)" />   <use xlink:href="#dot" transform="translate(-97.819244,30.305392)" />   <use xlink:href="#dot" transform="translate(-98.246788,30.310726)" />   <use xlink:href="#dot" transform="translate(-97.796132,30.25318)" />   <use xlink:href="#dot" transform="translate(-96.40802,28.356441)" />   <use xlink:href="#dot" transform="translate(-97.649698,30.38723)" />   <use xlink:href="#dot" transform="translate(-97.349,26.2284)" />   <use xlink:href="#dot" transform="translate(-95.679726,30.269444)" />   <use xlink:href="#dot" transform="translate(-97.930847,30.597426)" />   <use xlink:href="#dot" transform="translate(-97.723612,30.487597)" />   <use xlink:href="#dot" transform="translate(-97.723755,30.487483)" />   <use xlink:href="#dot" transform="translate(-96.947411,32.316151)" />   <use xlink:href="#dot" transform="translate(-94.855102,29.28857)" />   <use xlink:href="#dot" transform="translate(-99.432561,29.779123)" />   <use xlink:href="#dot" transform="translate(-97.703868,30.278046)" />   <use xlink:href="#dot" transform="translate(-95.409517,29.683337)" />   <use xlink:href="#dot" transform="translate(-98.147247,29.693708)" />   <use xlink:href="#dot" transform="translate(-91.165176,30.349026)" />   <use xlink:href="#dot" transform="translate(-98.426147,30.103742)" />   <use xlink:href="#dot" transform="translate(-94.770943,29.307624)" />   <use xlink:href="#dot" transform="translate(-97.930847,30.597426)" />   <use xlink:href="#dot" transform="translate(-97.845977,30.159715)" />   <use xlink:href="#dot" transform="translate(-97.899376,30.283711)" />   <use xlink:href="#dot" transform="translate(-91.1727,30.35175)" />   <use xlink:href="#dot" transform="translate(-97.731142,30.712586)" />   <use xlink:href="#dot" transform="translate(-98.151866,29.691091)" />   <use xlink:href="#dot" transform="translate(-97.931335,29.903313)" />   <use xlink:href="#dot" transform="translate(-98.48175,31.057308)" />   <use xlink:href="#dot" transform="translate(-95.57515,30.728792)" />   <use xlink:href="#dot" transform="translate(-97.041423,33.003627)" />   <use xlink:href="#dot" transform="translate(-96.673911,32.973094)" />   <use xlink:href="#dot" transform="translate(-95.624877,29.759524)" />   <use xlink:href="#dot" transform="translate(-95.445313,29.016525)" />   <use xlink:href="#dot" transform="translate(-97.81125,30.245025)" />   <use xlink:href="#dot" transform="translate(-97.749342,30.296158)" />   <use xlink:href="#dot" transform="translate(-96.80499,28.306099)" />   <use xlink:href="#dot" transform="translate(-100.284984,25.677664)" />   <use xlink:href="#dot" transform="translate(-100.427616,29.714464)" />   <use xlink:href="#dot" transform="translate(-97.930847,30.597426)" />   <use xlink:href="#dot" transform="translate(-97.932312,29.903673)" />   <use xlink:href="#dot" transform="translate(-97.643112,30.683175)" />   <use xlink:href="#dot" transform="translate(-97.986663,30.474158)" />   <use xlink:href="#dot" transform="translate(-97.898292,30.31448)" />   <use xlink:href="#dot" transform="translate(-98.426545,30.103768)" />   <use xlink:href="#dot" transform="translate(-95.438217,28.949062)" />   <use xlink:href="#dot" transform="translate(-97.679787,30.529013)" />   <use xlink:href="#dot" transform="translate(-96.995788,32.981842)" />   <use xlink:href="#dot" transform="translate(-97.846788,32.881173)" />   <use xlink:href="#dot" transform="translate(-94.386293,30.586326)" />   <use xlink:href="#dot" transform="translate(-95.616706,29.978167)" />   <use xlink:href="#dot" transform="translate(-97.071393,28.307851)" />   <use xlink:href="#dot" transform="translate(-97.761897,30.460873)" />   <use xlink:href="#dot" transform="translate(-98.310967,24.030536)" />   <use xlink:href="#dot" transform="translate(-96.790253,32.963088)" />   <use xlink:href="#dot" transform="translate(-97.62046,30.560662)" />   <use xlink:href="#dot" transform="translate(-97.823088,30.309867)" />   <use xlink:href="#dot" transform="translate(-98.070825,30.362105)" />   <use xlink:href="#dot" transform="translate(-100.040581,25.233105)" />   <use xlink:href="#dot" transform="translate(-95.805108,30.299953)" />   <use xlink:href="#dot" transform="translate(-97.763745,30.46156)" />   <use xlink:href="#dot" transform="translate(-97.819953,30.30582)" />   <use xlink:href="#dot" transform="translate(-96.799185,28.312542)" />   <use xlink:href="#dot" transform="translate(-96.891703,28.335345)" />   <use xlink:href="#dot" transform="translate(-97.217295,27.594041)" />   <use xlink:href="#dot" transform="translate(-97.754203,30.346005)" />   <use xlink:href="#dot" transform="translate(-96.841641,33.01946)" />   <use xlink:href="#dot" transform="translate(-99.537444,21.213244)" />   <use xlink:href="#dot" transform="translate(-99.593386,25.282767)" />   <use xlink:href="#dot" transform="translate(-97.803086,30.212738)" />   <use xlink:href="#dot" transform="translate(-97.823339,30.494058)" />   <use xlink:href="#dot" transform="translate(-97.807861,30.240347)" />   <use xlink:href="#dot" transform="translate(-97.460275,32.758768)" />   <use xlink:href="#dot" transform="translate(-96.83303,32.760145)" />   <use xlink:href="#dot" transform="translate(-97.116163,32.792151)" />   <use xlink:href="#dot" transform="translate(-97.932411,30.595802)" />   <use xlink:href="#dot" transform="translate(-95.129278,29.59719)" />   <use xlink:href="#dot" transform="translate(-99.593386,25.282767)" />   <use xlink:href="#dot" transform="translate(-97.898423,27.861797)" />   <use xlink:href="#dot" transform="translate(-97.138633,32.669979)" />   <use xlink:href="#dot" transform="translate(-98.813715,26.564489)" />   <use xlink:href="#dot" transform="translate(-97.580849,32.517067)" />   <use xlink:href="#dot" transform="translate(-97.088585,28.307403)" />   <use xlink:href="#dot" transform="translate(-97.21951,27.589383)" />   <use xlink:href="#dot" transform="translate(-97.728205,30.495172)" />   <use xlink:href="#dot" transform="translate(-97.697608,30.409467)" />   <use xlink:href="#dot" transform="translate(-97.898249,30.239859)" />   <use xlink:href="#dot" transform="translate(-97.643739,30.683521)" />   <use xlink:href="#dot" transform="translate(-97.886816,30.238483)" />   <use xlink:href="#dot" transform="translate(-96.842251,28.376487)" />   <use xlink:href="#dot" transform="translate(-94.021275,30.813421)" />   <use xlink:href="#dot" transform="translate(-97.739094,30.488777)" />   <use xlink:href="#dot" transform="translate(-97.222737,27.58739)" />   <use xlink:href="#dot" transform="translate(-97.27567,28.306642)" />   <use xlink:href="#dot" transform="translate(-97.103665,28.304224)" />   <use xlink:href="#dot" transform="translate(-95.589782,29.651221)" />   <use xlink:href="#dot" transform="translate(-95.120224,29.560093)" />   <use xlink:href="#dot" transform="translate(-97.659728,26.179911)" />   <use xlink:href="#dot" transform="translate(-95.569388,29.536922)" />   <use xlink:href="#dot" transform="translate(-97.85182,28.38142)" />   <use xlink:href="#dot" transform="translate(-97.264237,33.085031)" />   <use xlink:href="#dot" transform="translate(-96.995788,32.981842)" />   <use xlink:href="#dot" transform="translate(-96.816471,28.239525)" />   <use xlink:href="#dot" transform="translate(-91.038989,30.426337)" />   <use xlink:href="#dot" transform="translate(-97.374725,32.774497)" />   <use xlink:href="#dot" transform="translate(-97.693477,30.370339)" />   <use xlink:href="#dot" transform="translate(-97.948574,28.374707)" /><polygon class="region" points="-99.537444,21.213244 -101.298203,27.925171 -100.908899,29.341539 -97.846788,32.881173 -97.264237,33.085031 -96.799287,33.129744 -90.055641,30.361298 -89.921508,30.281295 -89.879858,30.054556 -90.11626,29.782969 -99.473847,21.206283 -99.537444,21.213244 " />
		  </g>
		</svg>