<?xml version="1.0" encoding="UTF-8"?>
	<svg xmlns:xlink="http://www.w3.org/1999/xlink" 
	xmlns="http://www.w3.org/2000/svg" 
	width="360px" height="180px">
	   <style type="text/css">
		  <![CDATA[     
		  .region 
		  { 
			fill:blue; 
			opacity:0.4; 
			stroke:blue;
		  }
		  ]]>
	   </style>

	<circle id="dot" x="-2" y="-2" r="2" style="stroke:none; stroke-width:0; fill:black; opacity:0.7;"/>


	 <image x="0" y="0" width="360" height="180" xlink:href="map.jpg"/>

 
	 <g transform="translate(180,90) scale(1,-1)">   <use xlink:href="#dot" transform="translate(105.7356,17.6446)" />   <use xlink:href="#dot" transform="translate(105.7356,17.6446)" />   <use xlink:href="#dot" transform="translate(105.7356,17.6446)" />   <use xlink:href="#dot" transform="translate(105.7356,17.6446)" />   <use xlink:href="#dot" transform="translate(105.7356,17.6446)" />   <use xlink:href="#dot" transform="translate(105.7359,17.6448)" />   <use xlink:href="#dot" transform="translate(105.7356,17.6446)" />   <use xlink:href="#dot" transform="translate(105.7356,17.6446)" />   <use xlink:href="#dot" transform="translate(107.6229,15.6477)" />   <use xlink:href="#dot" transform="translate(106.295,17.0276)" />   <use xlink:href="#dot" transform="translate(106.2919,17.0204)" />   <use xlink:href="#dot" transform="translate(106.2904,17.0214)" />   <use xlink:href="#dot" transform="translate(106.297,17.0308)" />   <use xlink:href="#dot" transform="translate(106.2904,17.0214)" />   <use xlink:href="#dot" transform="translate(106.2738,17.0214)" />   <use xlink:href="#dot" transform="translate(108.6808,12.1375)" />   <use xlink:href="#dot" transform="translate(107.205833,12.193889)" />   <use xlink:href="#dot" transform="translate(107.205833,12.193889)" />   <use xlink:href="#dot" transform="translate(107.205833,12.193889)" />   <use xlink:href="#dot" transform="translate(107.205833,12.193889)" />   <use xlink:href="#dot" transform="translate(106.99805388889,14.22589129252)" />   <use xlink:href="#dot" transform="translate(106.9973,14.196933)" />   <use xlink:href="#dot" transform="translate(106.982233,14.235933)" />   <use xlink:href="#dot" transform="translate(106.995733,14.187783)" />   <use xlink:href="#dot" transform="translate(106.995733,14.187783)" />   <use xlink:href="#dot" transform="translate(107.333333,14.183333)" />   <use xlink:href="#dot" transform="translate(107.366667,14.3)" />   <use xlink:href="#dot" transform="translate(107.366667,14.3)" />   <use xlink:href="#dot" transform="translate(107.333333,14.183333)" />   <use xlink:href="#dot" transform="translate(109.868611,18.724722)" />   <use xlink:href="#dot" transform="translate(109.868611,18.724722)" />   <use xlink:href="#dot" transform="translate(109.868611,18.724722)" />   <use xlink:href="#dot" transform="translate(109.868611,18.724722)" />   <use xlink:href="#dot" transform="translate(109.868611,18.724722)" />   <use xlink:href="#dot" transform="translate(107.428333,11.416667)" />   <use xlink:href="#dot" transform="translate(105.641389,21.454167)" />   <use xlink:href="#dot" transform="translate(108.479444,14.341389)" />   <use xlink:href="#dot" transform="translate(108.479444,14.341389)" />   <use xlink:href="#dot" transform="translate(108.479444,14.341389)" />   <use xlink:href="#dot" transform="translate(108.479444,14.341389)" />   <use xlink:href="#dot" transform="translate(108.479444,14.341389)" />   <use xlink:href="#dot" transform="translate(108.479444,14.341389)" />   <use xlink:href="#dot" transform="translate(108.479444,14.341389)" />   <use xlink:href="#dot" transform="translate(108.479444,14.341389)" />   <use xlink:href="#dot" transform="translate(108.479444,14.341389)" />   <use xlink:href="#dot" transform="translate(108.479444,14.341389)" />   <use xlink:href="#dot" transform="translate(108.479444,14.341389)" />   <use xlink:href="#dot" transform="translate(108.479444,14.341389)" />   <use xlink:href="#dot" transform="translate(108.479444,14.341389)" />   <use xlink:href="#dot" transform="translate(108.479444,14.341389)" />   <use xlink:href="#dot" transform="translate(108.479444,14.341389)" />   <use xlink:href="#dot" transform="translate(108.479444,14.341389)" />   <use xlink:href="#dot" transform="translate(108.479444,14.341389)" />   <use xlink:href="#dot" transform="translate(108.479444,14.341389)" />   <use xlink:href="#dot" transform="translate(108.479444,14.341389)" />   <use xlink:href="#dot" transform="translate(108.479444,14.341389)" />   <use xlink:href="#dot" transform="translate(108.479444,14.341389)" />   <use xlink:href="#dot" transform="translate(108.479444,14.341389)" />   <use xlink:href="#dot" transform="translate(108.479444,14.341389)" />   <use xlink:href="#dot" transform="translate(108.479444,14.341389)" />   <use xlink:href="#dot" transform="translate(108.479444,14.341389)" />   <use xlink:href="#dot" transform="translate(105.641389,21.454167)" />   <use xlink:href="#dot" transform="translate(105.633333,21.45)" />   <use xlink:href="#dot" transform="translate(105.641389,21.454167)" />   <use xlink:href="#dot" transform="translate(105.411111,22.365)" />   <use xlink:href="#dot" transform="translate(108.382778,14.44)" />   <use xlink:href="#dot" transform="translate(108.382778,14.44)" />   <use xlink:href="#dot" transform="translate(108.382778,14.44)" />   <use xlink:href="#dot" transform="translate(108.382778,14.44)" />   <use xlink:href="#dot" transform="translate(105.641389,21.454167)" />   <use xlink:href="#dot" transform="translate(108.7,13.06666)" />   <use xlink:href="#dot" transform="translate(108.35468,14.40564)" />   <use xlink:href="#dot" transform="translate(109.9383,18.6622)" />   <use xlink:href="#dot" transform="translate(109.6661,18.8842)" />   <use xlink:href="#dot" transform="translate(109.9383,18.6622)" />   <use xlink:href="#dot" transform="translate(109.9383,18.6622)" />   <use xlink:href="#dot" transform="translate(109.9383,18.6622)" />   <use xlink:href="#dot" transform="translate(109.6661,18.8842)" />   <use xlink:href="#dot" transform="translate(109.9383,18.6622)" />   <use xlink:href="#dot" transform="translate(109.9383,18.6622)" />   <use xlink:href="#dot" transform="translate(109.9383,18.6622)" />   <use xlink:href="#dot" transform="translate(109.9383,18.6622)" />   <use xlink:href="#dot" transform="translate(109.9383,18.6622)" />   <use xlink:href="#dot" transform="translate(109.9383,18.6622)" />   <use xlink:href="#dot" transform="translate(109.9383,18.6622)" />   <use xlink:href="#dot" transform="translate(109.9383,18.6622)" />   <use xlink:href="#dot" transform="translate(109.6661,18.8842)" />   <use xlink:href="#dot" transform="translate(109.9383,18.6622)" />   <use xlink:href="#dot" transform="translate(109.9383,18.6622)" />   <use xlink:href="#dot" transform="translate(109.9383,18.6622)" />   <use xlink:href="#dot" transform="translate(109.9383,18.6622)" /><polygon class="region" points="105.7356,17.6446 105.411111,22.365 109.868611,18.724722 109.9383,18.6622 108.6808,12.1375 107.428333,11.416667 107.205833,12.193889 105.7356,17.6446 " />
		  </g>
		</svg>