<?xml version="1.0" encoding="UTF-8"?>
	<svg xmlns:xlink="http://www.w3.org/1999/xlink" 
	xmlns="http://www.w3.org/2000/svg" 
	width="360px" height="180px">
	   <style type="text/css">
		  <![CDATA[     
		  .region 
		  { 
			fill:blue; 
			opacity:0.4; 
			stroke:blue;
		  }
		  ]]>
	   </style>

	<circle id="dot" x="-2" y="-2" r="2" style="stroke:none; stroke-width:0; fill:black; opacity:0.7;"/>


	 <image x="0" y="0" width="360" height="180" xlink:href="map.jpg"/>

 
	 <g transform="translate(180,90) scale(1,-1)">   <use xlink:href="#dot" transform="translate(175.461708,-36.958453)" />   <use xlink:href="#dot" transform="translate(175.543932,-36.854604)" />   <use xlink:href="#dot" transform="translate(175.489637,-36.884366)" />   <use xlink:href="#dot" transform="translate(175.49528,-36.884364)" />   <use xlink:href="#dot" transform="translate(175.469284,-36.854775)" />   <use xlink:href="#dot" transform="translate(175.490538,-36.948131)" />   <use xlink:href="#dot" transform="translate(175.531338,-36.971871)" />   <use xlink:href="#dot" transform="translate(175.487238,-36.819662)" />   <use xlink:href="#dot" transform="translate(175.47065,-36.836979)" />   <use xlink:href="#dot" transform="translate(175.480116,-36.941854)" />   <use xlink:href="#dot" transform="translate(175.477034,-36.905473)" />   <use xlink:href="#dot" transform="translate(175.445363,-36.812834)" />   <use xlink:href="#dot" transform="translate(175.430017,-36.840286)" />   <use xlink:href="#dot" transform="translate(175.591038,-36.985117)" />   <use xlink:href="#dot" transform="translate(175.539467,-36.908421)" />   <use xlink:href="#dot" transform="translate(175.563464,-36.80279)" />   <use xlink:href="#dot" transform="translate(175.477411,-36.815105)" />   <use xlink:href="#dot" transform="translate(175.506519,-36.902268)" />   <use xlink:href="#dot" transform="translate(175.537822,-36.985169)" />   <use xlink:href="#dot" transform="translate(175.571926,-36.838567)" />   <use xlink:href="#dot" transform="translate(175.534849,-36.850763)" />   <use xlink:href="#dot" transform="translate(175.449891,-36.93988)" />   <use xlink:href="#dot" transform="translate(175.57353,-36.850289)" />   <use xlink:href="#dot" transform="translate(175.516083,-36.941966)" />   <use xlink:href="#dot" transform="translate(175.464273,-36.910425)" />   <use xlink:href="#dot" transform="translate(175.525885,-36.953563)" />   <use xlink:href="#dot" transform="translate(175.406678,-36.909407)" />   <use xlink:href="#dot" transform="translate(175.513022,-36.868294)" />   <use xlink:href="#dot" transform="translate(175.454983,-36.969982)" />   <use xlink:href="#dot" transform="translate(175.565575,-36.889519)" />   <use xlink:href="#dot" transform="translate(175.403465,-36.881856)" />   <use xlink:href="#dot" transform="translate(175.520735,-36.925007)" />   <use xlink:href="#dot" transform="translate(175.417661,-36.877301)" />   <use xlink:href="#dot" transform="translate(175.525835,-36.824445)" />   <use xlink:href="#dot" transform="translate(175.428231,-36.994686)" />   <use xlink:href="#dot" transform="translate(175.409506,-36.929746)" />   <use xlink:href="#dot" transform="translate(175.429337,-36.91666)" />   <use xlink:href="#dot" transform="translate(175.432331,-36.894982)" />   <use xlink:href="#dot" transform="translate(175.426574,-36.902768)" />   <use xlink:href="#dot" transform="translate(175.585073,-36.820635)" />   <use xlink:href="#dot" transform="translate(175.519395,-36.948059)" />   <use xlink:href="#dot" transform="translate(175.502027,-36.971475)" />   <use xlink:href="#dot" transform="translate(175.523215,-36.876177)" />   <use xlink:href="#dot" transform="translate(175.495375,-36.895626)" />   <use xlink:href="#dot" transform="translate(175.442674,-36.861063)" />   <use xlink:href="#dot" transform="translate(175.417328,-36.936979)" />   <use xlink:href="#dot" transform="translate(175.428256,-36.919637)" />   <use xlink:href="#dot" transform="translate(175.452245,-36.973692)" />   <use xlink:href="#dot" transform="translate(175.44869,-36.81733)" />   <use xlink:href="#dot" transform="translate(175.474717,-36.830589)" />   <use xlink:href="#dot" transform="translate(175.575964,-36.829896)" />   <use xlink:href="#dot" transform="translate(175.497773,-36.817787)" />   <use xlink:href="#dot" transform="translate(175.496717,-36.913793)" />   <use xlink:href="#dot" transform="translate(175.543714,-36.804541)" />   <use xlink:href="#dot" transform="translate(175.453555,-36.989134)" />   <use xlink:href="#dot" transform="translate(175.570078,-36.999625)" />   <use xlink:href="#dot" transform="translate(175.466585,-36.880316)" />   <use xlink:href="#dot" transform="translate(175.471777,-36.924212)" />   <use xlink:href="#dot" transform="translate(175.598663,-36.847248)" />   <use xlink:href="#dot" transform="translate(175.539401,-36.993526)" />   <use xlink:href="#dot" transform="translate(175.556677,-36.834234)" />   <use xlink:href="#dot" transform="translate(175.56502,-36.937931)" />   <use xlink:href="#dot" transform="translate(175.408176,-36.927253)" />   <use xlink:href="#dot" transform="translate(175.474316,-36.921008)" />   <use xlink:href="#dot" transform="translate(175.550142,-36.914103)" />   <use xlink:href="#dot" transform="translate(175.40337,-36.848186)" />   <use xlink:href="#dot" transform="translate(175.445485,-36.952409)" />   <use xlink:href="#dot" transform="translate(175.540896,-36.904707)" />   <use xlink:href="#dot" transform="translate(175.592909,-36.820358)" />   <use xlink:href="#dot" transform="translate(175.586304,-36.945936)" />   <use xlink:href="#dot" transform="translate(175.533444,-36.876835)" />   <use xlink:href="#dot" transform="translate(175.55123,-36.977451)" />   <use xlink:href="#dot" transform="translate(175.432798,-36.886859)" />   <use xlink:href="#dot" transform="translate(175.458746,-36.896636)" />   <use xlink:href="#dot" transform="translate(175.401016,-36.864823)" />   <use xlink:href="#dot" transform="translate(175.537909,-36.926117)" />   <use xlink:href="#dot" transform="translate(175.547683,-36.837207)" />   <use xlink:href="#dot" transform="translate(175.420189,-36.87432)" />   <use xlink:href="#dot" transform="translate(175.492842,-36.899919)" />   <use xlink:href="#dot" transform="translate(175.583816,-36.984918)" />   <use xlink:href="#dot" transform="translate(175.528557,-36.986862)" />   <use xlink:href="#dot" transform="translate(175.457347,-36.822077)" />   <use xlink:href="#dot" transform="translate(175.494428,-36.951534)" />   <use xlink:href="#dot" transform="translate(175.583837,-36.988442)" />   <use xlink:href="#dot" transform="translate(175.593642,-36.879665)" />   <use xlink:href="#dot" transform="translate(175.485297,-36.886483)" />   <use xlink:href="#dot" transform="translate(175.450744,-36.844295)" />   <use xlink:href="#dot" transform="translate(175.48268,-36.939015)" />   <use xlink:href="#dot" transform="translate(175.402802,-36.909861)" />   <use xlink:href="#dot" transform="translate(175.533679,-36.955308)" />   <use xlink:href="#dot" transform="translate(175.460805,-36.968548)" />   <use xlink:href="#dot" transform="translate(175.523813,-36.823115)" />   <use xlink:href="#dot" transform="translate(175.412326,-36.861009)" />   <use xlink:href="#dot" transform="translate(175.560904,-36.944661)" />   <use xlink:href="#dot" transform="translate(175.544201,-36.939175)" />   <use xlink:href="#dot" transform="translate(175.470333,-36.862167)" />   <use xlink:href="#dot" transform="translate(175.500268,-36.853175)" />   <use xlink:href="#dot" transform="translate(175.401582,-36.98581)" />   <use xlink:href="#dot" transform="translate(175.583838,-36.852145)" />   <use xlink:href="#dot" transform="translate(175.521457,-36.967982)" />   <use xlink:href="#dot" transform="translate(175.448446,-36.961809)" />   <use xlink:href="#dot" transform="translate(175.538653,-36.924043)" />   <use xlink:href="#dot" transform="translate(175.553964,-36.813841)" />   <use xlink:href="#dot" transform="translate(175.447132,-36.985668)" />   <use xlink:href="#dot" transform="translate(175.451494,-36.997168)" />   <use xlink:href="#dot" transform="translate(175.568215,-36.90148)" />   <use xlink:href="#dot" transform="translate(175.406808,-36.948922)" />   <use xlink:href="#dot" transform="translate(175.550688,-36.86458)" />   <use xlink:href="#dot" transform="translate(175.519673,-36.937635)" />   <use xlink:href="#dot" transform="translate(175.457649,-36.822944)" />   <use xlink:href="#dot" transform="translate(175.451673,-36.817412)" />   <use xlink:href="#dot" transform="translate(175.547183,-36.83655)" />   <use xlink:href="#dot" transform="translate(175.432032,-36.806547)" />   <use xlink:href="#dot" transform="translate(175.438481,-36.925184)" />   <use xlink:href="#dot" transform="translate(175.502451,-36.802311)" />   <use xlink:href="#dot" transform="translate(175.442932,-36.899759)" />   <use xlink:href="#dot" transform="translate(175.402061,-36.934326)" />   <use xlink:href="#dot" transform="translate(175.511715,-36.885789)" />   <use xlink:href="#dot" transform="translate(175.589282,-36.829545)" />   <use xlink:href="#dot" transform="translate(175.564705,-36.961651)" />   <use xlink:href="#dot" transform="translate(175.479121,-36.985986)" />   <use xlink:href="#dot" transform="translate(175.571749,-36.896165)" />   <use xlink:href="#dot" transform="translate(175.400478,-36.855083)" />   <use xlink:href="#dot" transform="translate(175.588961,-36.969563)" />   <use xlink:href="#dot" transform="translate(175.518317,-36.922295)" />   <use xlink:href="#dot" transform="translate(175.468134,-36.996781)" />   <use xlink:href="#dot" transform="translate(175.592479,-36.921304)" />   <use xlink:href="#dot" transform="translate(175.514896,-36.867812)" />   <use xlink:href="#dot" transform="translate(175.504487,-36.888809)" />   <use xlink:href="#dot" transform="translate(175.424058,-36.97833)" />   <use xlink:href="#dot" transform="translate(175.53994,-36.827952)" />   <use xlink:href="#dot" transform="translate(175.51554,-36.828024)" />   <use xlink:href="#dot" transform="translate(175.594146,-36.847857)" />   <use xlink:href="#dot" transform="translate(175.460917,-36.850263)" />   <use xlink:href="#dot" transform="translate(175.542052,-36.823955)" />   <use xlink:href="#dot" transform="translate(175.452882,-36.993375)" />   <use xlink:href="#dot" transform="translate(175.474137,-36.956311)" />   <use xlink:href="#dot" transform="translate(175.431443,-36.847336)" />   <use xlink:href="#dot" transform="translate(175.549154,-36.937967)" />   <use xlink:href="#dot" transform="translate(175.403013,-36.885414)" />   <use xlink:href="#dot" transform="translate(175.508119,-36.80213)" />   <use xlink:href="#dot" transform="translate(175.427093,-36.813147)" />   <use xlink:href="#dot" transform="translate(175.5888,-36.874145)" />   <use xlink:href="#dot" transform="translate(174.693419,-38.411387)" />   <use xlink:href="#dot" transform="translate(174.693419,-38.411387)" />   <use xlink:href="#dot" transform="translate(174.693419,-38.411387)" />   <use xlink:href="#dot" transform="translate(174.693419,-38.411387)" />   <use xlink:href="#dot" transform="translate(174.693419,-38.411387)" />   <use xlink:href="#dot" transform="translate(175.511012,-36.716114)" />   <use xlink:href="#dot" transform="translate(175.4025,-36.54)" />   <use xlink:href="#dot" transform="translate(175.511012,-36.716114)" />   <use xlink:href="#dot" transform="translate(175.643921,-36.923548)" />   <use xlink:href="#dot" transform="translate(175.643921,-36.923548)" />   <use xlink:href="#dot" transform="translate(175.511012,-36.716114)" />   <use xlink:href="#dot" transform="translate(175.511012,-36.716114)" />   <use xlink:href="#dot" transform="translate(175.511012,-36.716114)" />   <use xlink:href="#dot" transform="translate(175.643921,-36.923548)" />   <use xlink:href="#dot" transform="translate(175.511012,-36.716114)" />   <use xlink:href="#dot" transform="translate(175.511012,-36.716114)" />   <use xlink:href="#dot" transform="translate(175.643921,-36.923548)" />   <use xlink:href="#dot" transform="translate(175.5,-36.766667)" />   <use xlink:href="#dot" transform="translate(175.643921,-36.923548)" />   <use xlink:href="#dot" transform="translate(175.643921,-36.923548)" />   <use xlink:href="#dot" transform="translate(175.511012,-36.716114)" />   <use xlink:href="#dot" transform="translate(175.511012,-36.716114)" />   <use xlink:href="#dot" transform="translate(175.643921,-36.923548)" />   <use xlink:href="#dot" transform="translate(175.643921,-36.923548)" />   <use xlink:href="#dot" transform="translate(175.643921,-36.923548)" />   <use xlink:href="#dot" transform="translate(175.643921,-36.923548)" /><polygon class="region" points="175.643921,-36.923548 174.693419,-38.411387 175.4025,-36.54 175.592909,-36.820358 175.643921,-36.923548 " />
		  </g>
		</svg>