<?xml version="1.0" encoding="UTF-8"?>
	<svg xmlns:xlink="http://www.w3.org/1999/xlink" 
	xmlns="http://www.w3.org/2000/svg" 
	width="360px" height="180px">
	   <style type="text/css">
		  <![CDATA[     
		  .region 
		  { 
			fill:blue; 
			opacity:0.4; 
			stroke:blue;
		  }
		  ]]>
	   </style>

	<circle id="dot" x="-2" y="-2" r="2" style="stroke:none; stroke-width:0; fill:black; opacity:0.7;"/>


	 <image x="0" y="0" width="360" height="180" xlink:href="map.jpg"/>

 
	 <g transform="translate(180,90) scale(1,-1)">   <use xlink:href="#dot" transform="translate(-68.155111,5.860444)" />   <use xlink:href="#dot" transform="translate(-68.642083,5.834306)" />   <use xlink:href="#dot" transform="translate(-69.642083,5.834306)" />   <use xlink:href="#dot" transform="translate(-71.47989,5.90678)" />   <use xlink:href="#dot" transform="translate(-61.107889,10.579639)" />   <use xlink:href="#dot" transform="translate(-61.107889,10.579639)" />   <use xlink:href="#dot" transform="translate(-61.107889,10.579639)" />   <use xlink:href="#dot" transform="translate(-61.107889,10.579639)" />   <use xlink:href="#dot" transform="translate(-61.107889,10.579639)" />   <use xlink:href="#dot" transform="translate(-66.749,4.193)" />   <use xlink:href="#dot" transform="translate(-67.09,3.956)" />   <use xlink:href="#dot" transform="translate(-60.539001,11.311)" />   <use xlink:href="#dot" transform="translate(-67.081,3.959)" />   <use xlink:href="#dot" transform="translate(-67.003,3.922)" />   <use xlink:href="#dot" transform="translate(-67.111,3.971)" />   <use xlink:href="#dot" transform="translate(-66.905,4.058)" />   <use xlink:href="#dot" transform="translate(-67.067,3.96)" />   <use xlink:href="#dot" transform="translate(-67.009,4.002)" />   <use xlink:href="#dot" transform="translate(-60.542999,11.286)" />   <use xlink:href="#dot" transform="translate(-60.598,11.289)" />   <use xlink:href="#dot" transform="translate(-67.085,3.959)" />   <use xlink:href="#dot" transform="translate(-60.4911,7.3706)" />   <use xlink:href="#dot" transform="translate(-58.675,4.663883)" />   <use xlink:href="#dot" transform="translate(-58.675,4.663883)" />   <use xlink:href="#dot" transform="translate(-58.675,4.663883)" />   <use xlink:href="#dot" transform="translate(-59.31,3.7522)" />   <use xlink:href="#dot" transform="translate(-59.31,3.7522)" />   <use xlink:href="#dot" transform="translate(-59.31,3.7522)" />   <use xlink:href="#dot" transform="translate(-59.31,3.7522)" />   <use xlink:href="#dot" transform="translate(-59.31,3.7522)" />   <use xlink:href="#dot" transform="translate(-59.31,3.7522)" />   <use xlink:href="#dot" transform="translate(-59.31,3.7522)" />   <use xlink:href="#dot" transform="translate(-59.31,3.7522)" />   <use xlink:href="#dot" transform="translate(-59.8036,3.3772)" />   <use xlink:href="#dot" transform="translate(-59.31,3.7522)" />   <use xlink:href="#dot" transform="translate(-59.31,3.7522)" />   <use xlink:href="#dot" transform="translate(-59.31,3.7522)" />   <use xlink:href="#dot" transform="translate(-59.3089,3.7525)" />   <use xlink:href="#dot" transform="translate(-59.3089,3.7525)" />   <use xlink:href="#dot" transform="translate(-60.4833,7.3666)" />   <use xlink:href="#dot" transform="translate(-60.4833,7.3666)" />   <use xlink:href="#dot" transform="translate(-60.4833,7.3666)" />   <use xlink:href="#dot" transform="translate(-60.4833,7.3666)" />   <use xlink:href="#dot" transform="translate(-60.4833,7.3666)" />   <use xlink:href="#dot" transform="translate(-61.7069,10.1434)" />   <use xlink:href="#dot" transform="translate(-61.7069,10.1434)" />   <use xlink:href="#dot" transform="translate(-61.7069,10.1434)" />   <use xlink:href="#dot" transform="translate(-61.3095,10.5807)" />   <use xlink:href="#dot" transform="translate(-61.7645,10.1198)" />   <use xlink:href="#dot" transform="translate(-61.7069,10.1434)" />   <use xlink:href="#dot" transform="translate(-61.7645,10.1198)" />   <use xlink:href="#dot" transform="translate(-61.7069,10.1434)" />   <use xlink:href="#dot" transform="translate(-61.2931,10.5833)" />   <use xlink:href="#dot" transform="translate(-61.7069,10.1434)" />   <use xlink:href="#dot" transform="translate(-61.7069,10.1434)" />   <use xlink:href="#dot" transform="translate(-61.7645,10.1198)" />   <use xlink:href="#dot" transform="translate(-61.7069,10.1434)" />   <use xlink:href="#dot" transform="translate(-61.7069,10.1434)" />   <use xlink:href="#dot" transform="translate(-61.7069,10.1434)" />   <use xlink:href="#dot" transform="translate(-61.7645,10.1198)" />   <use xlink:href="#dot" transform="translate(-61.7645,10.1198)" />   <use xlink:href="#dot" transform="translate(-61.7645,10.1198)" />   <use xlink:href="#dot" transform="translate(-61.7069,10.1434)" />   <use xlink:href="#dot" transform="translate(-61.7069,10.1434)" />   <use xlink:href="#dot" transform="translate(-61.7069,10.1434)" />   <use xlink:href="#dot" transform="translate(-61.7645,10.1198)" />   <use xlink:href="#dot" transform="translate(-61.7069,10.1434)" />   <use xlink:href="#dot" transform="translate(-61.7069,10.1434)" />   <use xlink:href="#dot" transform="translate(-61.7645,10.1198)" />   <use xlink:href="#dot" transform="translate(-61.7645,10.1198)" />   <use xlink:href="#dot" transform="translate(-61.7645,10.1198)" />   <use xlink:href="#dot" transform="translate(-61.7069,10.1434)" />   <use xlink:href="#dot" transform="translate(-61.7069,10.1434)" />   <use xlink:href="#dot" transform="translate(-61.7645,10.1198)" />   <use xlink:href="#dot" transform="translate(-61.7069,10.1434)" />   <use xlink:href="#dot" transform="translate(-61.7645,10.1198)" />   <use xlink:href="#dot" transform="translate(-61.7645,10.1198)" />   <use xlink:href="#dot" transform="translate(-61.7069,10.1434)" />   <use xlink:href="#dot" transform="translate(-61.7069,10.1434)" />   <use xlink:href="#dot" transform="translate(-61.7069,10.1434)" />   <use xlink:href="#dot" transform="translate(-61.7645,10.1198)" />   <use xlink:href="#dot" transform="translate(-61.7069,10.1434)" />   <use xlink:href="#dot" transform="translate(-61.7645,10.1198)" />   <use xlink:href="#dot" transform="translate(-61.7069,10.1434)" />   <use xlink:href="#dot" transform="translate(-61.7069,10.1434)" />   <use xlink:href="#dot" transform="translate(-61.7645,10.1198)" />   <use xlink:href="#dot" transform="translate(-61.7069,10.1434)" />   <use xlink:href="#dot" transform="translate(-61.7645,10.1198)" />   <use xlink:href="#dot" transform="translate(-61.7645,10.1198)" />   <use xlink:href="#dot" transform="translate(-61.7069,10.1434)" />   <use xlink:href="#dot" transform="translate(-61.7069,10.1434)" />   <use xlink:href="#dot" transform="translate(-69.149658,7.565864)" />   <use xlink:href="#dot" transform="translate(-69.149658,7.565864)" />   <use xlink:href="#dot" transform="translate(-58.675,4.663883)" />   <use xlink:href="#dot" transform="translate(-58.675,4.663883)" />   <use xlink:href="#dot" transform="translate(-58.675,4.663883)" />   <use xlink:href="#dot" transform="translate(-58.675,4.663883)" />   <use xlink:href="#dot" transform="translate(-58.675,4.663883)" />   <use xlink:href="#dot" transform="translate(-58.675,4.663883)" />   <use xlink:href="#dot" transform="translate(-58.675,4.663883)" />   <use xlink:href="#dot" transform="translate(-58.675,4.663883)" />   <use xlink:href="#dot" transform="translate(-58.675,4.663883)" />   <use xlink:href="#dot" transform="translate(-58.675,4.663883)" />   <use xlink:href="#dot" transform="translate(-58.675,4.663883)" />   <use xlink:href="#dot" transform="translate(-58.675,4.663883)" />   <use xlink:href="#dot" transform="translate(-58.675,4.663883)" />   <use xlink:href="#dot" transform="translate(-58.675,4.663883)" />   <use xlink:href="#dot" transform="translate(-61.73,3.75)" />   <use xlink:href="#dot" transform="translate(-61.73,3.75)" />   <use xlink:href="#dot" transform="translate(-61.33,2.5)" />   <use xlink:href="#dot" transform="translate(-61.2833,10.6833)" />   <use xlink:href="#dot" transform="translate(-61.2963,10.7109)" />   <use xlink:href="#dot" transform="translate(-61.3,10.7)" />   <use xlink:href="#dot" transform="translate(-61.3,10.7)" />   <use xlink:href="#dot" transform="translate(-61.28333,10.68361)" />   <use xlink:href="#dot" transform="translate(-57.27,5)" />   <use xlink:href="#dot" transform="translate(-60.5672,11.3143)" />   <use xlink:href="#dot" transform="translate(-60.5672,11.3143)" />   <use xlink:href="#dot" transform="translate(-60.6333,11.3)" />   <use xlink:href="#dot" transform="translate(-60.5672,11.3143)" />   <use xlink:href="#dot" transform="translate(-60.5672,11.3143)" />   <use xlink:href="#dot" transform="translate(-52.410956,4.939589)" />   <use xlink:href="#dot" transform="translate(-52.410956,4.939589)" />   <use xlink:href="#dot" transform="translate(-60.5545,11.3152)" />   <use xlink:href="#dot" transform="translate(-60.5841,11.3184)" />   <use xlink:href="#dot" transform="translate(-60.5666,11.25)" />   <use xlink:href="#dot" transform="translate(-60.5666,11.25)" />   <use xlink:href="#dot" transform="translate(-60.5666,11.25)" />   <use xlink:href="#dot" transform="translate(-60.5666,11.25)" />   <use xlink:href="#dot" transform="translate(-60.543,11.2809)" />   <use xlink:href="#dot" transform="translate(-60.5666,11.25)" />   <use xlink:href="#dot" transform="translate(-60.543,11.2809)" />   <use xlink:href="#dot" transform="translate(-60.543,11.2809)" />   <use xlink:href="#dot" transform="translate(-60.543,11.2809)" />   <use xlink:href="#dot" transform="translate(-60.543,11.2809)" />   <use xlink:href="#dot" transform="translate(-60.543,11.2809)" />   <use xlink:href="#dot" transform="translate(-60.543,11.2809)" />   <use xlink:href="#dot" transform="translate(-60.6166,11.3)" />   <use xlink:href="#dot" transform="translate(-60.6335,11.3001)" />   <use xlink:href="#dot" transform="translate(-60.6335,11.3001)" />   <use xlink:href="#dot" transform="translate(-60.6335,11.3001)" />   <use xlink:href="#dot" transform="translate(-60.5932,11.3169)" />   <use xlink:href="#dot" transform="translate(-60.5932,11.3169)" />   <use xlink:href="#dot" transform="translate(-61.25,13)" />   <use xlink:href="#dot" transform="translate(-61.25,13)" />   <use xlink:href="#dot" transform="translate(-61.25,13)" />   <use xlink:href="#dot" transform="translate(-58.25,6.45)" />   <use xlink:href="#dot" transform="translate(-58.25,6.45)" />   <use xlink:href="#dot" transform="translate(-61.2833,10.6836)" />   <use xlink:href="#dot" transform="translate(-61.3004,10.7165)" />   <use xlink:href="#dot" transform="translate(-61.3004,10.7165)" />   <use xlink:href="#dot" transform="translate(-62.37,7.18)" />   <use xlink:href="#dot" transform="translate(-58.25,6.45)" />   <use xlink:href="#dot" transform="translate(-58.25,6.45)" />   <use xlink:href="#dot" transform="translate(-58.25,6.45)" />   <use xlink:href="#dot" transform="translate(-58.25,6.45)" />   <use xlink:href="#dot" transform="translate(-58.25,6.45)" />   <use xlink:href="#dot" transform="translate(-57.98,6.73)" />   <use xlink:href="#dot" transform="translate(-57.98,6.73)" />   <use xlink:href="#dot" transform="translate(-58.25,6.45)" />   <use xlink:href="#dot" transform="translate(-59.65,3.33)" />   <use xlink:href="#dot" transform="translate(-59.65,3.33)" />   <use xlink:href="#dot" transform="translate(-62.393,9.403)" />   <use xlink:href="#dot" transform="translate(-62.393,9.403)" />   <use xlink:href="#dot" transform="translate(-62.393,9.403)" />   <use xlink:href="#dot" transform="translate(-62.393,9.403)" />   <use xlink:href="#dot" transform="translate(-62.393,9.403)" />   <use xlink:href="#dot" transform="translate(-62.393,9.403)" />   <use xlink:href="#dot" transform="translate(-62.393,9.403)" />   <use xlink:href="#dot" transform="translate(-62.393,9.403)" />   <use xlink:href="#dot" transform="translate(-62.393,9.403)" />   <use xlink:href="#dot" transform="translate(-62.393,9.403)" />   <use xlink:href="#dot" transform="translate(-62.393,9.403)" />   <use xlink:href="#dot" transform="translate(-62.393,9.403)" />   <use xlink:href="#dot" transform="translate(-62.393,9.403)" />   <use xlink:href="#dot" transform="translate(-62.393,9.403)" />   <use xlink:href="#dot" transform="translate(-62.393,9.403)" />   <use xlink:href="#dot" transform="translate(-62.393,9.403)" />   <use xlink:href="#dot" transform="translate(-60.534142,11.299948)" />   <use xlink:href="#dot" transform="translate(-60.534142,11.299948)" />   <use xlink:href="#dot" transform="translate(-61.6115,10.7194)" />   <use xlink:href="#dot" transform="translate(-61.6115,10.7194)" />   <use xlink:href="#dot" transform="translate(-61.6115,10.7194)" />   <use xlink:href="#dot" transform="translate(-61.6115,10.7194)" />   <use xlink:href="#dot" transform="translate(-61.6115,10.7194)" />   <use xlink:href="#dot" transform="translate(-61.6115,10.7194)" />   <use xlink:href="#dot" transform="translate(-63.0997,10.1331)" />   <use xlink:href="#dot" transform="translate(-63.0997,10.1331)" />   <use xlink:href="#dot" transform="translate(-58.29725,6.441775)" />   <use xlink:href="#dot" transform="translate(-58.29725,6.441775)" />   <use xlink:href="#dot" transform="translate(-58.29725,6.441775)" />   <use xlink:href="#dot" transform="translate(-58.29725,6.441775)" />   <use xlink:href="#dot" transform="translate(-58.29725,6.441775)" />   <use xlink:href="#dot" transform="translate(-61.222364,13.153861)" />   <use xlink:href="#dot" transform="translate(-61.222364,13.153861)" />   <use xlink:href="#dot" transform="translate(-60.992083,10.317143)" />   <use xlink:href="#dot" transform="translate(-61.55,10.6833)" />   <use xlink:href="#dot" transform="translate(-60.992083,10.317143)" />   <use xlink:href="#dot" transform="translate(-61.324331,10.455027)" />   <use xlink:href="#dot" transform="translate(-58.68,6.38)" />   <use xlink:href="#dot" transform="translate(-61.55,10.6833)" />   <use xlink:href="#dot" transform="translate(-61.55,10.6833)" />   <use xlink:href="#dot" transform="translate(-61.55,10.6833)" />   <use xlink:href="#dot" transform="translate(-61.4,10.65)" />   <use xlink:href="#dot" transform="translate(-61.55,10.6833)" />   <use xlink:href="#dot" transform="translate(-61.131975,10.59205)" />   <use xlink:href="#dot" transform="translate(-58.68,6.38)" />   <use xlink:href="#dot" transform="translate(-61.55,10.6833)" />   <use xlink:href="#dot" transform="translate(-61.55,10.6833)" />   <use xlink:href="#dot" transform="translate(-61.131975,10.59205)" />   <use xlink:href="#dot" transform="translate(-61.131975,10.59205)" />   <use xlink:href="#dot" transform="translate(-58.68,6.38)" />   <use xlink:href="#dot" transform="translate(-61.55,10.6833)" />   <use xlink:href="#dot" transform="translate(-58.68,6.38)" />   <use xlink:href="#dot" transform="translate(-61.55,10.6833)" />   <use xlink:href="#dot" transform="translate(-61.55,10.6833)" />   <use xlink:href="#dot" transform="translate(-61.324331,10.455027)" />   <use xlink:href="#dot" transform="translate(-61.55,10.6833)" />   <use xlink:href="#dot" transform="translate(-61.55,10.6833)" />   <use xlink:href="#dot" transform="translate(-61.131975,10.59205)" /><polygon class="region" points="-67.09,3.956 -71.47989,5.90678 -69.149658,7.565864 -61.222364,13.153861 -52.410956,4.939589 -61.33,2.5 -67.003,3.922 -67.09,3.956 " />
		  </g>
		</svg>