<?xml version="1.0" encoding="UTF-8"?>
	<svg xmlns:xlink="http://www.w3.org/1999/xlink" 
	xmlns="http://www.w3.org/2000/svg" 
	width="360px" height="180px">
	   <style type="text/css">
		  <![CDATA[     
		  .region 
		  { 
			fill:blue; 
			opacity:0.4; 
			stroke:blue;
		  }
		  ]]>
	   </style>

	<circle id="dot" x="-2" y="-2" r="2" style="stroke:none; stroke-width:0; fill:black; opacity:0.7;"/>


	 <image x="0" y="0" width="360" height="180" xlink:href="map.jpg"/>

 
	 <g transform="translate(180,90) scale(1,-1)"><polygon class="region" points="-60.996021271,10.834197044 -60.994503021,10.130700111 -61.923770905,10.045223236 -61.455841064,10.29669857 -61.49187851,10.638806343 -61.663375854,10.713307381 -60.996021271,10.834197044 " /><polygon class="region" points="-60.517932892,11.316114426 -60.531917572,11.246127129 -60.839805603,11.139965057 -60.694583893,11.282739639 -60.517932892,11.316114426 " /><polygon class="region" points="-61.706572823,12.026326243 -61.799976349,12.000905037 -61.652633667,12.231779099 -61.638521047,12.223413389 -61.706572823,12.026326243 " /><polygon class="region" points="-61.183917999,13.118855476 -61.262931027,13.170964598 -61.249084635,13.211294397 -61.169414322,13.15227935 -61.183917999,13.118855476 " /><polygon class="region" points="-61.218921661,13.018442154 -61.23041153,12.987037659 -61.268360002,12.986925734 -61.20488739,13.045227051 -61.218921661,13.018442154 " />
		  </g>
		</svg>