<?xml version="1.0" encoding="UTF-8"?>
	<svg xmlns:xlink="http://www.w3.org/1999/xlink" 
	xmlns="http://www.w3.org/2000/svg" 
	width="360px" height="180px">
	   <style type="text/css">
		  <![CDATA[     
		  .region 
		  { 
			fill:blue; 
			opacity:0.4; 
			stroke:blue;
		  }
		  ]]>
	   </style>

	<circle id="dot" x="-2" y="-2" r="2" style="stroke:none; stroke-width:0; fill:black; opacity:0.7;"/>


	 <image x="0" y="0" width="360" height="180" xlink:href="map.jpg"/>

 
	 <g transform="translate(180,90) scale(1,-1)">   <use xlink:href="#dot" transform="translate(-80.77716,35.455706)" />   <use xlink:href="#dot" transform="translate(-91.926392,35.346943)" />   <use xlink:href="#dot" transform="translate(-83.807434,33.876045)" />   <use xlink:href="#dot" transform="translate(-83.569418,38.205132)" />   <use xlink:href="#dot" transform="translate(-74.423132,40.473683)" />   <use xlink:href="#dot" transform="translate(-74.41797,40.475937)" />   <use xlink:href="#dot" transform="translate(-76.722361,37.274631)" />   <use xlink:href="#dot" transform="translate(-83.577911,38.214924)" />   <use xlink:href="#dot" transform="translate(-83.556471,38.112478)" />   <use xlink:href="#dot" transform="translate(-93.881619,34.376161)" />   <use xlink:href="#dot" transform="translate(-94.653195,36.35445)" />   <use xlink:href="#dot" transform="translate(-74.408776,40.471342)" />   <use xlink:href="#dot" transform="translate(-71.142438,42.163304)" />   <use xlink:href="#dot" transform="translate(-74.417916,40.476023)" />   <use xlink:href="#dot" transform="translate(-81.466988,36.33402)" />   <use xlink:href="#dot" transform="translate(-86.150356,35.979899)" />   <use xlink:href="#dot" transform="translate(-83.573041,38.198137)" />   <use xlink:href="#dot" transform="translate(-95.35944,34.53907)" />   <use xlink:href="#dot" transform="translate(-76.537725,42.399488)" />   <use xlink:href="#dot" transform="translate(-95.87255,31.974305)" />   <use xlink:href="#dot" transform="translate(-74.825888,41.343647)" />   <use xlink:href="#dot" transform="translate(-72.391368,43.487924)" />   <use xlink:href="#dot" transform="translate(-78.754964,35.734381)" />   <use xlink:href="#dot" transform="translate(-93.398852,37.10764)" />   <use xlink:href="#dot" transform="translate(-78.754929,35.733216)" />   <use xlink:href="#dot" transform="translate(-76.093544,42.7867)" />   <use xlink:href="#dot" transform="translate(-77.586715,37.526932)" />   <use xlink:href="#dot" transform="translate(-77.226591,38.67589)" />   <use xlink:href="#dot" transform="translate(-75.148705,41.099597)" />   <use xlink:href="#dot" transform="translate(-95.35944,34.53907)" />   <use xlink:href="#dot" transform="translate(-94.725947,33.807784)" />   <use xlink:href="#dot" transform="translate(-76.641156,38.056045)" />   <use xlink:href="#dot" transform="translate(-94.649245,33.603725)" />   <use xlink:href="#dot" transform="translate(-72.959637,41.370846)" />   <use xlink:href="#dot" transform="translate(-91.209761,37.093591)" />   <use xlink:href="#dot" transform="translate(-70.820975,42.598)" />   <use xlink:href="#dot" transform="translate(-74.448604,40.067996)" />   <use xlink:href="#dot" transform="translate(-75.942008,41.598022)" />   <use xlink:href="#dot" transform="translate(-75.615494,39.787347)" />   <use xlink:href="#dot" transform="translate(-77.640529,37.444828)" />   <use xlink:href="#dot" transform="translate(-73.110839,44.557419)" />   <use xlink:href="#dot" transform="translate(-76.671873,41.799959)" />   <use xlink:href="#dot" transform="translate(-77.401505,40.039964)" />   <use xlink:href="#dot" transform="translate(-73.821469,45.90759)" />   <use xlink:href="#dot" transform="translate(-73.915388,45.933794)" />   <use xlink:href="#dot" transform="translate(-73.9379,45.828459)" />   <use xlink:href="#dot" transform="translate(-74.06949,45.939391)" />   <use xlink:href="#dot" transform="translate(-85.633919,34.398735)" />   <use xlink:href="#dot" transform="translate(-65.044711,45.650675)" />   <use xlink:href="#dot" transform="translate(-70.877832,42.943996)" />   <use xlink:href="#dot" transform="translate(-81.56043,41.250052)" />   <use xlink:href="#dot" transform="translate(-71.580643,42.771852)" />   <use xlink:href="#dot" transform="translate(-74.147425,45.849107)" />   <use xlink:href="#dot" transform="translate(-64.946194,44.4472)" />   <use xlink:href="#dot" transform="translate(-65.077625,45.623648)" />   <use xlink:href="#dot" transform="translate(-71.580663,42.77191)" />   <use xlink:href="#dot" transform="translate(-73.971522,43.154144)" />   <use xlink:href="#dot" transform="translate(-71.698567,42.441305)" />   <use xlink:href="#dot" transform="translate(-72.171216,43.795727)" />   <use xlink:href="#dot" transform="translate(-77.366007,38.567935)" />   <use xlink:href="#dot" transform="translate(-65.077654,45.623319)" />   <use xlink:href="#dot" transform="translate(-69.004433,45.679422)" />   <use xlink:href="#dot" transform="translate(-71.580762,42.771963)" />   <use xlink:href="#dot" transform="translate(-60.459172,46.74488)" />   <use xlink:href="#dot" transform="translate(-73.250443,43.001087)" />   <use xlink:href="#dot" transform="translate(-86.300076,35.286531)" />   <use xlink:href="#dot" transform="translate(-71.818917,42.732447)" />   <use xlink:href="#dot" transform="translate(-72.382663,44.368797)" />   <use xlink:href="#dot" transform="translate(-78.056511,39.905772)" />   <use xlink:href="#dot" transform="translate(-60.415883,46.654645)" />   <use xlink:href="#dot" transform="translate(-71.775849,43.791741)" />   <use xlink:href="#dot" transform="translate(-72.631302,42.975956)" />   <use xlink:href="#dot" transform="translate(-85.634911,34.399078)" />   <use xlink:href="#dot" transform="translate(-74.327017,41.067749)" />   <use xlink:href="#dot" transform="translate(-72.21365,44.289944)" />   <use xlink:href="#dot" transform="translate(-75.703188,45.692237)" />   <use xlink:href="#dot" transform="translate(-65.366712,44.449912)" />   <use xlink:href="#dot" transform="translate(-77.707629,38.835228)" />   <use xlink:href="#dot" transform="translate(-72.437788,44.756758)" />   <use xlink:href="#dot" transform="translate(-72.606463,43.171682)" />   <use xlink:href="#dot" transform="translate(-71.278238,43.338919)" />   <use xlink:href="#dot" transform="translate(-65.204407,44.38246)" />   <use xlink:href="#dot" transform="translate(-72.597485,44.745865)" />   <use xlink:href="#dot" transform="translate(-65.219138,44.398153)" />   <use xlink:href="#dot" transform="translate(-79.051413,37.585141)" />   <use xlink:href="#dot" transform="translate(-83.894852,37.762847)" />   <use xlink:href="#dot" transform="translate(-65.243653,44.38257)" />   <use xlink:href="#dot" transform="translate(-74.62597,44.11492)" />   <use xlink:href="#dot" transform="translate(-73.151839,44.26805)" />   <use xlink:href="#dot" transform="translate(-75.054761,40.538901)" />   <use xlink:href="#dot" transform="translate(-79.557412,40.704612)" />   <use xlink:href="#dot" transform="translate(-78.87225,42.445428)" />   <use xlink:href="#dot" transform="translate(-77.38285,38.591005)" />   <use xlink:href="#dot" transform="translate(-72.486903,42.61189)" />   <use xlink:href="#dot" transform="translate(-65.251763,44.400474)" />   <use xlink:href="#dot" transform="translate(-71.604722,43.113333)" />   <use xlink:href="#dot" transform="translate(-71.51819,44.373974)" />   <use xlink:href="#dot" transform="translate(-75.700559,45.730873)" />   <use xlink:href="#dot" transform="translate(-73.897422,41.765155)" />   <use xlink:href="#dot" transform="translate(-78.136139,44.640794)" />   <use xlink:href="#dot" transform="translate(-65.243306,44.381685)" />   <use xlink:href="#dot" transform="translate(-72.588258,44.741653)" />   <use xlink:href="#dot" transform="translate(-75.075389,40.535036)" />   <use xlink:href="#dot" transform="translate(-74.864693,40.578721)" />   <use xlink:href="#dot" transform="translate(-78.108048,44.674736)" />   <use xlink:href="#dot" transform="translate(-72.49858,44.60925)" />   <use xlink:href="#dot" transform="translate(-71.916459,42.716937)" />   <use xlink:href="#dot" transform="translate(-78.873592,42.447198)" />   <use xlink:href="#dot" transform="translate(-78.556709,37.765113)" />   <use xlink:href="#dot" transform="translate(-75.441667,40.162842)" />   <use xlink:href="#dot" transform="translate(-65.336895,44.449391)" />   <use xlink:href="#dot" transform="translate(-65.222248,44.407254)" />   <use xlink:href="#dot" transform="translate(-66.558806,46.391288)" />   <use xlink:href="#dot" transform="translate(-72.621179,42.970029)" />   <use xlink:href="#dot" transform="translate(-78.789863,38.1774)" />   <use xlink:href="#dot" transform="translate(-72.588258,44.741653)" />   <use xlink:href="#dot" transform="translate(-78.108048,44.674736)" />   <use xlink:href="#dot" transform="translate(-80.899426,37.184972)" />   <use xlink:href="#dot" transform="translate(-65.201082,44.382994)" />   <use xlink:href="#dot" transform="translate(-71.85855,42.766628)" />   <use xlink:href="#dot" transform="translate(-73.493119,42.046748)" />   <use xlink:href="#dot" transform="translate(-76.953628,39.731453)" />   <use xlink:href="#dot" transform="translate(-73.318218,41.227677)" />   <use xlink:href="#dot" transform="translate(-65.254988,44.52103)" />   <use xlink:href="#dot" transform="translate(-72.958602,43.933929)" />   <use xlink:href="#dot" transform="translate(-74.011117,41.413383)" />   <use xlink:href="#dot" transform="translate(-81.562033,41.379922)" />   <use xlink:href="#dot" transform="translate(-73.687187,41.183158)" />   <use xlink:href="#dot" transform="translate(-73.218862,43.693033)" />   <use xlink:href="#dot" transform="translate(-68.681974,45.8728)" />   <use xlink:href="#dot" transform="translate(-72.080358,41.954987)" />   <use xlink:href="#dot" transform="translate(-73.614209,43.383521)" />   <use xlink:href="#dot" transform="translate(-79.052799,35.798834)" />   <use xlink:href="#dot" transform="translate(-77.494009,39.099238)" />   <use xlink:href="#dot" transform="translate(-73.044969,43.663841)" />   <use xlink:href="#dot" transform="translate(-76.648747,38.056928)" />   <use xlink:href="#dot" transform="translate(-80.589235,41.885749)" />   <use xlink:href="#dot" transform="translate(-78.89694,36.026024)" />   <use xlink:href="#dot" transform="translate(-85.173551,36.396833)" />   <use xlink:href="#dot" transform="translate(-85.402286,42.405481)" />   <use xlink:href="#dot" transform="translate(-76.65728,42.373222)" />   <use xlink:href="#dot" transform="translate(-64.637009,44.472607)" />   <use xlink:href="#dot" transform="translate(-77.250903,39.024448)" />   <use xlink:href="#dot" transform="translate(-76.266197,39.469538)" />   <use xlink:href="#dot" transform="translate(-65.391237,44.578772)" />   <use xlink:href="#dot" transform="translate(-72.7233,44.4417)" />   <use xlink:href="#dot" transform="translate(-72.009802,42.751196)" />   <use xlink:href="#dot" transform="translate(-83.588849,35.961952)" />   <use xlink:href="#dot" transform="translate(-81.449167,41.501718)" />   <use xlink:href="#dot" transform="translate(-68.085612,44.626697)" />   <use xlink:href="#dot" transform="translate(-73.58855,41.200347)" />   <use xlink:href="#dot" transform="translate(-85.350212,33.925938)" />   <use xlink:href="#dot" transform="translate(-72.113588,43.23353)" />   <use xlink:href="#dot" transform="translate(-72.02683,41.324657)" />   <use xlink:href="#dot" transform="translate(-74.585303,40.607263)" />   <use xlink:href="#dot" transform="translate(-71.937142,42.784247)" />   <use xlink:href="#dot" transform="translate(-65.214004,44.386432)" />   <use xlink:href="#dot" transform="translate(-76.896792,39.191583)" />   <use xlink:href="#dot" transform="translate(-73.931733,42.527189)" />   <use xlink:href="#dot" transform="translate(-68.247388,44.407464)" />   <use xlink:href="#dot" transform="translate(-68.265721,44.350047)" />   <use xlink:href="#dot" transform="translate(-79.765733,41.157842)" />   <use xlink:href="#dot" transform="translate(-72.610832,43.783611)" />   <use xlink:href="#dot" transform="translate(-72.958602,43.933929)" />   <use xlink:href="#dot" transform="translate(-83.072303,36.289312)" />   <use xlink:href="#dot" transform="translate(-72.460388,43.708017)" />   <use xlink:href="#dot" transform="translate(-72.56247,41.841713)" />   <use xlink:href="#dot" transform="translate(-73.252744,41.450361)" />   <use xlink:href="#dot" transform="translate(-72.009802,42.751196)" />   <use xlink:href="#dot" transform="translate(-68.098333,44.858612)" />   <use xlink:href="#dot" transform="translate(-67.506871,45.666774)" />   <use xlink:href="#dot" transform="translate(-67.282419,45.137902)" />   <use xlink:href="#dot" transform="translate(-72.917288,43.49502)" />   <use xlink:href="#dot" transform="translate(-73.833572,41.111203)" />   <use xlink:href="#dot" transform="translate(-83.072114,36.28947)" />   <use xlink:href="#dot" transform="translate(-72.46273,43.706295)" />   <use xlink:href="#dot" transform="translate(-80.608996,40.608843)" />   <use xlink:href="#dot" transform="translate(-76.251172,42.565888)" />   <use xlink:href="#dot" transform="translate(-74.039656,41.97627)" />   <use xlink:href="#dot" transform="translate(-81.417221,41.58139)" />   <use xlink:href="#dot" transform="translate(-76.913554,39.217216)" />   <use xlink:href="#dot" transform="translate(-84.929908,36.561122)" />   <use xlink:href="#dot" transform="translate(-72.296347,41.763717)" />   <use xlink:href="#dot" transform="translate(-77.415312,38.767189)" />   <use xlink:href="#dot" transform="translate(-76.912095,39.203083)" />   <use xlink:href="#dot" transform="translate(-72.080481,41.954855)" />   <use xlink:href="#dot" transform="translate(-93.326261,35.513207)" />   <use xlink:href="#dot" transform="translate(-74.634187,40.553256)" />   <use xlink:href="#dot" transform="translate(-75.658822,42.866878)" />   <use xlink:href="#dot" transform="translate(-71.739453,43.096062)" />   <use xlink:href="#dot" transform="translate(-73.576112,41.598938)" />   <use xlink:href="#dot" transform="translate(-74.187369,41.937787)" />   <use xlink:href="#dot" transform="translate(-80.041563,43.943824)" />   <use xlink:href="#dot" transform="translate(-91.510887,38.877537)" />   <use xlink:href="#dot" transform="translate(-75.760703,39.719047)" />   <use xlink:href="#dot" transform="translate(-76.519257,42.311775)" />   <use xlink:href="#dot" transform="translate(-81.420463,41.55972)" />   <use xlink:href="#dot" transform="translate(-74.009022,41.953827)" />   <use xlink:href="#dot" transform="translate(-73.168428,44.500303)" />   <use xlink:href="#dot" transform="translate(-73.261534,41.948091)" />   <use xlink:href="#dot" transform="translate(-80.032662,37.458633)" />   <use xlink:href="#dot" transform="translate(-91.510887,38.877537)" />   <use xlink:href="#dot" transform="translate(-72.503417,43.620972)" />   <use xlink:href="#dot" transform="translate(-72.384103,41.635036)" />   <use xlink:href="#dot" transform="translate(-79.175195,40.637753)" />   <use xlink:href="#dot" transform="translate(-74.684539,45.661408)" />   <use xlink:href="#dot" transform="translate(-83.568947,38.20639)" />   <use xlink:href="#dot" transform="translate(-71.218789,42.218601)" />   <use xlink:href="#dot" transform="translate(-75.61853,39.787797)" />   <use xlink:href="#dot" transform="translate(-73.192131,42.354527)" />   <use xlink:href="#dot" transform="translate(-68.363208,44.319743)" />   <use xlink:href="#dot" transform="translate(-73.006797,44.350113)" />   <use xlink:href="#dot" transform="translate(-63.696164,44.688024)" />   <use xlink:href="#dot" transform="translate(-74.147592,44.325937)" />   <use xlink:href="#dot" transform="translate(-81.557731,41.490507)" />   <use xlink:href="#dot" transform="translate(-81.435661,41.562703)" />   <use xlink:href="#dot" transform="translate(-74.221107,42.024723)" />   <use xlink:href="#dot" transform="translate(-75.663691,40.001222)" />   <use xlink:href="#dot" transform="translate(-80.18273,43.969567)" />   <use xlink:href="#dot" transform="translate(-81.402811,41.47464)" />   <use xlink:href="#dot" transform="translate(-76.649093,38.057183)" />   <use xlink:href="#dot" transform="translate(-81.2693,35.10519)" />   <use xlink:href="#dot" transform="translate(-75.663229,40.001496)" />   <use xlink:href="#dot" transform="translate(-77.313113,38.805262)" />   <use xlink:href="#dot" transform="translate(-95.41322,32.520014)" />   <use xlink:href="#dot" transform="translate(-71.217939,42.217976)" />   <use xlink:href="#dot" transform="translate(-71.217894,42.218145)" />   <use xlink:href="#dot" transform="translate(-77.106823,39.112247)" />   <use xlink:href="#dot" transform="translate(-76.730833,39.230259)" />   <use xlink:href="#dot" transform="translate(-76.876851,39.318729)" />   <use xlink:href="#dot" transform="translate(-82.225749,36.563341)" />   <use xlink:href="#dot" transform="translate(-92.326627,38.869865)" />   <use xlink:href="#dot" transform="translate(-83.573084,38.198214)" />   <use xlink:href="#dot" transform="translate(-79.7922,36.2005)" />   <use xlink:href="#dot" transform="translate(-86.179267,35.412808)" />   <use xlink:href="#dot" transform="translate(-74.552279,40.585278)" />   <use xlink:href="#dot" transform="translate(-77.234771,38.64466)" />   <use xlink:href="#dot" transform="translate(-77.589283,37.625932)" />   <use xlink:href="#dot" transform="translate(-79.526738,37.731031)" />   <use xlink:href="#dot" transform="translate(-77.625075,37.942294)" />   <use xlink:href="#dot" transform="translate(-81.41821,41.550126)" />   <use xlink:href="#dot" transform="translate(-77.805211,39.486031)" />   <use xlink:href="#dot" transform="translate(-82.260979,39.510586)" />   <use xlink:href="#dot" transform="translate(-78.403485,37.308092)" />   <use xlink:href="#dot" transform="translate(-80.179864,37.125449)" />   <use xlink:href="#dot" transform="translate(-87.3413,34.428855)" />   <use xlink:href="#dot" transform="translate(-90.594791,34.503754)" />   <use xlink:href="#dot" transform="translate(-74.84852,40.541763)" />   <use xlink:href="#dot" transform="translate(-79.892363,36.057847)" />   <use xlink:href="#dot" transform="translate(-94.70993,36.32101)" />   <use xlink:href="#dot" transform="translate(-86.692537,33.702821)" />   <use xlink:href="#dot" transform="translate(-94.70803,36.31092)" />   <use xlink:href="#dot" transform="translate(-86.692832,33.702637)" />   <use xlink:href="#dot" transform="translate(-94.70803,36.31092)" />   <use xlink:href="#dot" transform="translate(-94.70959,36.31854)" />   <use xlink:href="#dot" transform="translate(-94.70964,36.31784)" />   <use xlink:href="#dot" transform="translate(-94.70964,36.31784)" />   <use xlink:href="#dot" transform="translate(-94.70803,36.31092)" />   <use xlink:href="#dot" transform="translate(-94.70964,36.31784)" />   <use xlink:href="#dot" transform="translate(-94.70972,36.31792)" />   <use xlink:href="#dot" transform="translate(-75.223746,40.063781)" />   <use xlink:href="#dot" transform="translate(-74.536169,40.461201)" />   <use xlink:href="#dot" transform="translate(-94.70964,36.31784)" />   <use xlink:href="#dot" transform="translate(-94.70964,36.31784)" />   <use xlink:href="#dot" transform="translate(-94.6976,35.74278)" />   <use xlink:href="#dot" transform="translate(-94.70964,36.31784)" />   <use xlink:href="#dot" transform="translate(-72.62354,41.3131)" />   <use xlink:href="#dot" transform="translate(-94.70966,36.31878)" />   <use xlink:href="#dot" transform="translate(-94.70966,36.31878)" />   <use xlink:href="#dot" transform="translate(-94.70959,36.31854)" />   <use xlink:href="#dot" transform="translate(-94.70953,36.3205)" />   <use xlink:href="#dot" transform="translate(-94.70972,36.31792)" />   <use xlink:href="#dot" transform="translate(-94.70993,36.32101)" />   <use xlink:href="#dot" transform="translate(-94.70964,36.31784)" />   <use xlink:href="#dot" transform="translate(-94.6976,35.74278)" />   <use xlink:href="#dot" transform="translate(-94.70972,36.31792)" />   <use xlink:href="#dot" transform="translate(-94.70972,36.31792)" />   <use xlink:href="#dot" transform="translate(-94.70953,36.3205)" />   <use xlink:href="#dot" transform="translate(-94.70964,36.31784)" />   <use xlink:href="#dot" transform="translate(-71.559952,42.786488)" />   <use xlink:href="#dot" transform="translate(-75.223738,40.06379)" />   <use xlink:href="#dot" transform="translate(-94.70972,36.31792)" />   <use xlink:href="#dot" transform="translate(-94.70803,36.31092)" />   <use xlink:href="#dot" transform="translate(-74.671325,40.49444)" />   <use xlink:href="#dot" transform="translate(-74.647721,40.443051)" />   <use xlink:href="#dot" transform="translate(-94.70972,36.31792)" />   <use xlink:href="#dot" transform="translate(-72.504892,43.624128)" />   <use xlink:href="#dot" transform="translate(-72.62354,41.3131)" />   <use xlink:href="#dot" transform="translate(-77.354941,38.559681)" />   <use xlink:href="#dot" transform="translate(-73.457024,41.256212)" />   <use xlink:href="#dot" transform="translate(-75.775382,40.204605)" />   <use xlink:href="#dot" transform="translate(-77.7044,38.6897)" />   <use xlink:href="#dot" transform="translate(-79.780259,40.17862)" />   <use xlink:href="#dot" transform="translate(-77.348702,38.568783)" />   <use xlink:href="#dot" transform="translate(-77.478098,39.909664)" />   <use xlink:href="#dot" transform="translate(-74.794542,41.015449)" />   <use xlink:href="#dot" transform="translate(-76.941579,38.915747)" />   <use xlink:href="#dot" transform="translate(-72.847728,44.526596)" />   <use xlink:href="#dot" transform="translate(-77.480581,39.925671)" />   <use xlink:href="#dot" transform="translate(-73.141442,44.155261)" /><polygon class="region" points="-83.807434,33.876045 -95.87255,31.974305 -95.35944,34.53907 -94.70993,36.32101 -92.326627,38.869865 -85.402286,42.405481 -75.700559,45.730873 -74.06949,45.939391 -66.558806,46.391288 -60.459172,46.74488 -60.415883,46.654645 -63.696164,44.688024 -78.754929,35.733216 -83.807434,33.876045 " />
		  </g>
		</svg>