<?xml version="1.0" encoding="UTF-8"?>
	<svg xmlns:xlink="http://www.w3.org/1999/xlink" 
	xmlns="http://www.w3.org/2000/svg" 
	width="360px" height="180px">
	   <style type="text/css">
		  <![CDATA[     
		  .region 
		  { 
			fill:blue; 
			opacity:0.4; 
			stroke:blue;
		  }
		  ]]>
	   </style>

	<circle id="dot" x="-2" y="-2" r="2" style="stroke:none; stroke-width:0; fill:black; opacity:0.7;"/>


	 <image x="0" y="0" width="360" height="180" xlink:href="map.jpg"/>

 
	 <g transform="translate(180,90) scale(1,-1)">   <use xlink:href="#dot" transform="translate(-110.735864,30.850979)" />   <use xlink:href="#dot" transform="translate(-110.94692,32.105751)" />   <use xlink:href="#dot" transform="translate(-112.686832,33.890282)" />   <use xlink:href="#dot" transform="translate(-112.739426,33.855808)" />   <use xlink:href="#dot" transform="translate(-109.63049,29.77003)" />   <use xlink:href="#dot" transform="translate(-111.03391,33.435493)" />   <use xlink:href="#dot" transform="translate(-111.958601,33.881549)" />   <use xlink:href="#dot" transform="translate(-111.958601,33.881549)" />   <use xlink:href="#dot" transform="translate(-111.958601,33.881549)" />   <use xlink:href="#dot" transform="translate(-111.708301,33.710177)" />   <use xlink:href="#dot" transform="translate(-111.958601,33.881549)" />   <use xlink:href="#dot" transform="translate(-111.958601,33.881549)" />   <use xlink:href="#dot" transform="translate(-111.708301,33.710177)" />   <use xlink:href="#dot" transform="translate(-111.708301,33.710177)" />   <use xlink:href="#dot" transform="translate(-111.708301,33.710177)" />   <use xlink:href="#dot" transform="translate(-111.708301,33.710177)" />   <use xlink:href="#dot" transform="translate(-113.563168,34.338081)" />   <use xlink:href="#dot" transform="translate(-111.958601,33.881549)" />   <use xlink:href="#dot" transform="translate(-108.980111,28.450253)" />   <use xlink:href="#dot" transform="translate(-110.462933,32.027642)" />   <use xlink:href="#dot" transform="translate(-110.840344,30.769742)" />   <use xlink:href="#dot" transform="translate(-112.603161,33.278988)" />   <use xlink:href="#dot" transform="translate(-110.664963,32.063559)" />   <use xlink:href="#dot" transform="translate(-111.097596,33.252578)" />   <use xlink:href="#dot" transform="translate(-111.462715,33.564139)" />   <use xlink:href="#dot" transform="translate(-110.69027,36.665935)" />   <use xlink:href="#dot" transform="translate(-109.6897,33.062374)" />   <use xlink:href="#dot" transform="translate(-108.9409,31.181194)" />   <use xlink:href="#dot" transform="translate(-108.99026,31.283862)" />   <use xlink:href="#dot" transform="translate(-112.747496,33.917595)" />   <use xlink:href="#dot" transform="translate(-111.28,33.086)" />   <use xlink:href="#dot" transform="translate(-110.664929,30.855831)" />   <use xlink:href="#dot" transform="translate(-110.664929,30.855831)" />   <use xlink:href="#dot" transform="translate(-108.35591687067,28.561995900171)" />   <use xlink:href="#dot" transform="translate(-108.3640401099,28.569380595385)" />   <use xlink:href="#dot" transform="translate(-108.3640401099,28.569380595385)" />   <use xlink:href="#dot" transform="translate(-108.3640401099,28.569380595385)" />   <use xlink:href="#dot" transform="translate(-108.35591687067,28.561995900171)" />   <use xlink:href="#dot" transform="translate(-108.35591687067,28.561995900171)" />   <use xlink:href="#dot" transform="translate(-108.35591687067,28.561995900171)" />   <use xlink:href="#dot" transform="translate(-108.38413802575,28.479330737723)" />   <use xlink:href="#dot" transform="translate(-110.828514,29.241716)" />   <use xlink:href="#dot" transform="translate(-111.053062,28.015199)" />   <use xlink:href="#dot" transform="translate(-110.844956,32.359773)" />   <use xlink:href="#dot" transform="translate(-113.569033,34.713183)" />   <use xlink:href="#dot" transform="translate(-113.569033,34.713183)" />   <use xlink:href="#dot" transform="translate(-110.847,33.7125)" />   <use xlink:href="#dot" transform="translate(-110.847,33.7125)" />   <use xlink:href="#dot" transform="translate(-110.474717,32.138867)" />   <use xlink:href="#dot" transform="translate(-110.504803,31.588983)" />   <use xlink:href="#dot" transform="translate(-113.270611,34.376139)" />   <use xlink:href="#dot" transform="translate(-113.270611,34.376139)" />   <use xlink:href="#dot" transform="translate(-113.270611,34.376139)" />   <use xlink:href="#dot" transform="translate(-111.437117,33.593967)" />   <use xlink:href="#dot" transform="translate(-111.437117,33.593967)" />   <use xlink:href="#dot" transform="translate(-111.437117,33.593967)" />   <use xlink:href="#dot" transform="translate(-111.437117,33.593967)" />   <use xlink:href="#dot" transform="translate(-113.454,34.599556)" />   <use xlink:href="#dot" transform="translate(-113.129667,34.706694)" />   <use xlink:href="#dot" transform="translate(-109.92285,31.848697)" />   <use xlink:href="#dot" transform="translate(-110.293722,32.919333)" />   <use xlink:href="#dot" transform="translate(-110.293722,32.919333)" />   <use xlink:href="#dot" transform="translate(-110.293722,32.919333)" />   <use xlink:href="#dot" transform="translate(-110.293722,32.919333)" />   <use xlink:href="#dot" transform="translate(-110.293722,32.919333)" />   <use xlink:href="#dot" transform="translate(-108.766167,31.320111)" />   <use xlink:href="#dot" transform="translate(-108.766167,31.320111)" />   <use xlink:href="#dot" transform="translate(-108.950528,31.26125)" />   <use xlink:href="#dot" transform="translate(-108.766167,31.320111)" />   <use xlink:href="#dot" transform="translate(-108.766167,31.320111)" />   <use xlink:href="#dot" transform="translate(-108.766167,31.320111)" />   <use xlink:href="#dot" transform="translate(-108.950528,31.26125)" />   <use xlink:href="#dot" transform="translate(-108.950528,31.26125)" />   <use xlink:href="#dot" transform="translate(-108.950528,31.26125)" />   <use xlink:href="#dot" transform="translate(-108.950528,31.26125)" />   <use xlink:href="#dot" transform="translate(-108.950528,31.26125)" />   <use xlink:href="#dot" transform="translate(-108.766167,31.320111)" />   <use xlink:href="#dot" transform="translate(-108.950528,31.26125)" />   <use xlink:href="#dot" transform="translate(-108.950528,31.26125)" />   <use xlink:href="#dot" transform="translate(-108.766167,31.320111)" />   <use xlink:href="#dot" transform="translate(-108.766167,31.320111)" />   <use xlink:href="#dot" transform="translate(-108.766167,31.320111)" />   <use xlink:href="#dot" transform="translate(-108.950528,31.26125)" />   <use xlink:href="#dot" transform="translate(-108.950528,31.26125)" />   <use xlink:href="#dot" transform="translate(-108.766167,31.320111)" />   <use xlink:href="#dot" transform="translate(-108.950528,31.26125)" />   <use xlink:href="#dot" transform="translate(-108.950528,31.26125)" />   <use xlink:href="#dot" transform="translate(-108.950528,31.26125)" />   <use xlink:href="#dot" transform="translate(-108.950528,31.26125)" />   <use xlink:href="#dot" transform="translate(-108.950528,31.26125)" />   <use xlink:href="#dot" transform="translate(-108.766167,31.320111)" />   <use xlink:href="#dot" transform="translate(-108.766167,31.320111)" />   <use xlink:href="#dot" transform="translate(-108.950528,31.26125)" />   <use xlink:href="#dot" transform="translate(-114.43291702119,36.389161256036)" />   <use xlink:href="#dot" transform="translate(-110.029978,33.35405)" />   <use xlink:href="#dot" transform="translate(-110.029978,33.35405)" />   <use xlink:href="#dot" transform="translate(-110.029978,33.35405)" />   <use xlink:href="#dot" transform="translate(-110.029978,33.35405)" />   <use xlink:href="#dot" transform="translate(-113.068867,34.499706)" />   <use xlink:href="#dot" transform="translate(-111.078575,31.423065)" />   <use xlink:href="#dot" transform="translate(-111.078575,31.423065)" />   <use xlink:href="#dot" transform="translate(-111.078575,31.423065)" />   <use xlink:href="#dot" transform="translate(-109.15039783473,30.680124218181)" />   <use xlink:href="#dot" transform="translate(-109.00037031363,26.960257311269)" />   <use xlink:href="#dot" transform="translate(-111.16044520503,30.600116101866)" />   <use xlink:href="#dot" transform="translate(-112.311,33.8548)" />   <use xlink:href="#dot" transform="translate(-110.778973,31.525371)" />   <use xlink:href="#dot" transform="translate(-110.605268,31.692904)" />   <use xlink:href="#dot" transform="translate(-110.605268,31.692904)" />   <use xlink:href="#dot" transform="translate(-110.778973,31.525371)" />   <use xlink:href="#dot" transform="translate(-110.778973,31.525371)" />   <use xlink:href="#dot" transform="translate(-110.773975,31.365377)" />   <use xlink:href="#dot" transform="translate(-111.237591,31.461205)" />   <use xlink:href="#dot" transform="translate(-110.778973,31.525371)" />   <use xlink:href="#dot" transform="translate(-110.778973,31.525371)" />   <use xlink:href="#dot" transform="translate(-110.778973,31.525371)" />   <use xlink:href="#dot" transform="translate(-111.239811,31.423712)" />   <use xlink:href="#dot" transform="translate(-110.74811,31.543943)" />   <use xlink:href="#dot" transform="translate(-110.778973,31.525371)" />   <use xlink:href="#dot" transform="translate(-110.778973,31.525371)" />   <use xlink:href="#dot" transform="translate(-111.237591,31.461205)" />   <use xlink:href="#dot" transform="translate(-111.691174,33.51578)" />   <use xlink:href="#dot" transform="translate(-110.778973,31.525371)" />   <use xlink:href="#dot" transform="translate(-110.778973,31.525371)" />   <use xlink:href="#dot" transform="translate(-110.778973,31.525371)" />   <use xlink:href="#dot" transform="translate(-110.773975,31.365377)" />   <use xlink:href="#dot" transform="translate(-110.778973,31.525371)" />   <use xlink:href="#dot" transform="translate(-110.778973,31.525371)" />   <use xlink:href="#dot" transform="translate(-110.778973,31.525371)" />   <use xlink:href="#dot" transform="translate(-110.778973,31.525371)" />   <use xlink:href="#dot" transform="translate(-110.778973,31.525371)" />   <use xlink:href="#dot" transform="translate(-110.778973,31.525371)" />   <use xlink:href="#dot" transform="translate(-111.379,33.535)" />   <use xlink:href="#dot" transform="translate(-111.379,33.535)" />   <use xlink:href="#dot" transform="translate(-111.15,31.4)" />   <use xlink:href="#dot" transform="translate(-111.15,31.4)" />   <use xlink:href="#dot" transform="translate(-111.379,33.535)" />   <use xlink:href="#dot" transform="translate(-111.15,31.4)" />   <use xlink:href="#dot" transform="translate(-111.15,31.4)" />   <use xlink:href="#dot" transform="translate(-111.15,31.4)" />   <use xlink:href="#dot" transform="translate(-111.15,31.4)" />   <use xlink:href="#dot" transform="translate(-111.15,31.4)" />   <use xlink:href="#dot" transform="translate(-111.15,31.4)" />   <use xlink:href="#dot" transform="translate(-111.15,31.4)" />   <use xlink:href="#dot" transform="translate(-110.773975,31.365377)" />   <use xlink:href="#dot" transform="translate(-111.15,31.4)" />   <use xlink:href="#dot" transform="translate(-111.15,31.4)" />   <use xlink:href="#dot" transform="translate(-111.15,31.4)" />   <use xlink:href="#dot" transform="translate(-111.19666215813,31.416909463461)" />   <use xlink:href="#dot" transform="translate(-111.19666215813,31.416909463461)" />   <use xlink:href="#dot" transform="translate(-111.19666215813,31.416909463461)" />   <use xlink:href="#dot" transform="translate(-112.237952,33.649103)" />   <use xlink:href="#dot" transform="translate(-112.672502,33.90138)" />   <use xlink:href="#dot" transform="translate(-110.773975,31.365377)" />   <use xlink:href="#dot" transform="translate(-111.030661,31.56346)" />   <use xlink:href="#dot" transform="translate(-111.030661,31.56346)" />   <use xlink:href="#dot" transform="translate(-111.030661,31.56346)" />   <use xlink:href="#dot" transform="translate(-115.86903637098,33.11840925959)" />   <use xlink:href="#dot" transform="translate(-115.86903637098,33.11840925959)" />   <use xlink:href="#dot" transform="translate(-115.86903637098,33.11840925959)" />   <use xlink:href="#dot" transform="translate(-117.2430314468,32.404211814236)" />   <use xlink:href="#dot" transform="translate(-115.50102505782,32.813810667517)" />   <use xlink:href="#dot" transform="translate(-110.75043730742,30.850110142954)" />   <use xlink:href="#dot" transform="translate(-110.708333,30.885133)" />   <use xlink:href="#dot" transform="translate(-110.708333,30.885133)" />   <use xlink:href="#dot" transform="translate(-110.75043730742,30.850110142954)" />   <use xlink:href="#dot" transform="translate(-110.708333,30.885133)" />   <use xlink:href="#dot" transform="translate(-110.75043730742,30.850110142954)" />   <use xlink:href="#dot" transform="translate(-110.708333,30.885133)" />   <use xlink:href="#dot" transform="translate(-110.75043730742,30.850110142954)" />   <use xlink:href="#dot" transform="translate(-110.708333,30.885133)" />   <use xlink:href="#dot" transform="translate(-110.75043730742,30.850110142954)" />   <use xlink:href="#dot" transform="translate(-110.75043730742,30.850110142954)" />   <use xlink:href="#dot" transform="translate(-110.75043730742,30.850110142954)" />   <use xlink:href="#dot" transform="translate(-110.708333,30.885133)" />   <use xlink:href="#dot" transform="translate(-110.708333,30.885133)" />   <use xlink:href="#dot" transform="translate(-110.708333,30.885133)" />   <use xlink:href="#dot" transform="translate(-110.708333,30.885133)" />   <use xlink:href="#dot" transform="translate(-110.75043730742,30.850110142954)" />   <use xlink:href="#dot" transform="translate(-110.75043730742,30.850110142954)" />   <use xlink:href="#dot" transform="translate(-110.708333,30.885133)" />   <use xlink:href="#dot" transform="translate(-110.708333,30.885133)" />   <use xlink:href="#dot" transform="translate(-110.708333,30.885133)" />   <use xlink:href="#dot" transform="translate(-110.708333,30.885133)" />   <use xlink:href="#dot" transform="translate(-110.708333,30.885133)" />   <use xlink:href="#dot" transform="translate(-110.75043730742,30.850110142954)" />   <use xlink:href="#dot" transform="translate(-110.75043730742,30.850110142954)" />   <use xlink:href="#dot" transform="translate(-110.708333,30.885133)" />   <use xlink:href="#dot" transform="translate(-110.75043730742,30.850110142954)" />   <use xlink:href="#dot" transform="translate(-110.75043730742,30.850110142954)" />   <use xlink:href="#dot" transform="translate(-110.75043730742,30.850110142954)" />   <use xlink:href="#dot" transform="translate(-110.75043730742,30.850110142954)" />   <use xlink:href="#dot" transform="translate(-110.75043730742,30.850110142954)" />   <use xlink:href="#dot" transform="translate(-110.708333,30.885133)" />   <use xlink:href="#dot" transform="translate(-110.708333,30.885133)" />   <use xlink:href="#dot" transform="translate(-110.708333,30.885133)" />   <use xlink:href="#dot" transform="translate(-110.708333,30.885133)" />   <use xlink:href="#dot" transform="translate(-110.75043730742,30.850110142954)" />   <use xlink:href="#dot" transform="translate(-110.75043730742,30.850110142954)" />   <use xlink:href="#dot" transform="translate(-110.708333,30.885133)" />   <use xlink:href="#dot" transform="translate(-110.708333,30.885133)" />   <use xlink:href="#dot" transform="translate(-110.708333,30.885133)" />   <use xlink:href="#dot" transform="translate(-110.75043730742,30.850110142954)" />   <use xlink:href="#dot" transform="translate(-110.75043730742,30.850110142954)" />   <use xlink:href="#dot" transform="translate(-110.708333,30.885133)" />   <use xlink:href="#dot" transform="translate(-110.708333,30.885133)" />   <use xlink:href="#dot" transform="translate(-110.75043730742,30.850110142954)" />   <use xlink:href="#dot" transform="translate(-110.75043730742,30.850110142954)" />   <use xlink:href="#dot" transform="translate(-110.708333,30.885133)" />   <use xlink:href="#dot" transform="translate(-110.708333,30.885133)" />   <use xlink:href="#dot" transform="translate(-110.708333,30.885133)" />   <use xlink:href="#dot" transform="translate(-110.75043730742,30.850110142954)" />   <use xlink:href="#dot" transform="translate(-110.708333,30.885133)" />   <use xlink:href="#dot" transform="translate(-110.708333,30.885133)" />   <use xlink:href="#dot" transform="translate(-110.708333,30.885133)" />   <use xlink:href="#dot" transform="translate(-110.75043730742,30.850110142954)" />   <use xlink:href="#dot" transform="translate(-110.708333,30.885133)" />   <use xlink:href="#dot" transform="translate(-110.708333,30.885133)" />   <use xlink:href="#dot" transform="translate(-110.708333,30.885133)" />   <use xlink:href="#dot" transform="translate(-110.708333,30.885133)" />   <use xlink:href="#dot" transform="translate(-110.708333,30.885133)" />   <use xlink:href="#dot" transform="translate(-110.708333,30.885133)" />   <use xlink:href="#dot" transform="translate(-110.708333,30.885133)" />   <use xlink:href="#dot" transform="translate(-110.708333,30.885133)" />   <use xlink:href="#dot" transform="translate(-110.708333,30.885133)" />   <use xlink:href="#dot" transform="translate(-110.75043730742,30.850110142954)" />   <use xlink:href="#dot" transform="translate(-110.75043730742,30.850110142954)" />   <use xlink:href="#dot" transform="translate(-110.708333,30.885133)" />   <use xlink:href="#dot" transform="translate(-110.708333,30.885133)" />   <use xlink:href="#dot" transform="translate(-110.708333,30.885133)" />   <use xlink:href="#dot" transform="translate(-110.708333,30.885133)" />   <use xlink:href="#dot" transform="translate(-110.708333,30.885133)" />   <use xlink:href="#dot" transform="translate(-110.708333,30.885133)" />   <use xlink:href="#dot" transform="translate(-110.708333,30.885133)" />   <use xlink:href="#dot" transform="translate(-110.708333,30.885133)" />   <use xlink:href="#dot" transform="translate(-110.708333,30.885133)" />   <use xlink:href="#dot" transform="translate(-110.708333,30.885133)" />   <use xlink:href="#dot" transform="translate(-110.708333,30.885133)" />   <use xlink:href="#dot" transform="translate(-110.708333,30.885133)" />   <use xlink:href="#dot" transform="translate(-110.708333,30.885133)" />   <use xlink:href="#dot" transform="translate(-110.708333,30.885133)" />   <use xlink:href="#dot" transform="translate(-110.75043730742,30.850110142954)" />   <use xlink:href="#dot" transform="translate(-110.75043730742,30.850110142954)" />   <use xlink:href="#dot" transform="translate(-110.708333,30.885133)" />   <use xlink:href="#dot" transform="translate(-110.75043730742,30.850110142954)" />   <use xlink:href="#dot" transform="translate(-110.75043730742,30.850110142954)" />   <use xlink:href="#dot" transform="translate(-110.708333,30.885133)" />   <use xlink:href="#dot" transform="translate(-110.708333,30.885133)" />   <use xlink:href="#dot" transform="translate(-110.708333,30.885133)" />   <use xlink:href="#dot" transform="translate(-110.708333,30.885133)" />   <use xlink:href="#dot" transform="translate(-110.708333,30.885133)" />   <use xlink:href="#dot" transform="translate(-110.708333,30.885133)" />   <use xlink:href="#dot" transform="translate(-110.708333,30.885133)" />   <use xlink:href="#dot" transform="translate(-110.75043730742,30.850110142954)" />   <use xlink:href="#dot" transform="translate(-110.708333,30.885133)" />   <use xlink:href="#dot" transform="translate(-110.708333,30.885133)" />   <use xlink:href="#dot" transform="translate(-110.708333,30.885133)" />   <use xlink:href="#dot" transform="translate(-110.708333,30.885133)" />   <use xlink:href="#dot" transform="translate(-110.75043730742,30.850110142954)" />   <use xlink:href="#dot" transform="translate(-110.708333,30.885133)" />   <use xlink:href="#dot" transform="translate(-110.708333,30.885133)" />   <use xlink:href="#dot" transform="translate(-110.75043730742,30.850110142954)" />   <use xlink:href="#dot" transform="translate(-110.708333,30.885133)" />   <use xlink:href="#dot" transform="translate(-110.75043730742,30.850110142954)" />   <use xlink:href="#dot" transform="translate(-110.75043730742,30.850110142954)" />   <use xlink:href="#dot" transform="translate(-110.75043730742,30.850110142954)" />   <use xlink:href="#dot" transform="translate(-110.708333,30.885133)" />   <use xlink:href="#dot" transform="translate(-110.708333,30.885133)" />   <use xlink:href="#dot" transform="translate(-110.75043730742,30.850110142954)" />   <use xlink:href="#dot" transform="translate(-110.75043730742,30.850110142954)" />   <use xlink:href="#dot" transform="translate(-110.75043730742,30.850110142954)" />   <use xlink:href="#dot" transform="translate(-110.75043730742,30.850110142954)" />   <use xlink:href="#dot" transform="translate(-110.75043730742,30.850110142954)" />   <use xlink:href="#dot" transform="translate(-110.75043730742,30.850110142954)" />   <use xlink:href="#dot" transform="translate(-110.75043730742,30.850110142954)" />   <use xlink:href="#dot" transform="translate(-110.75043730742,30.850110142954)" />   <use xlink:href="#dot" transform="translate(-110.75043730742,30.850110142954)" />   <use xlink:href="#dot" transform="translate(-110.75043730742,30.850110142954)" />   <use xlink:href="#dot" transform="translate(-110.75043730742,30.850110142954)" />   <use xlink:href="#dot" transform="translate(-110.75043730742,30.850110142954)" />   <use xlink:href="#dot" transform="translate(-110.75043730742,30.850110142954)" />   <use xlink:href="#dot" transform="translate(-110.75043730742,30.850110142954)" />   <use xlink:href="#dot" transform="translate(-110.75043730742,30.850110142954)" />   <use xlink:href="#dot" transform="translate(-110.75043730742,30.850110142954)" />   <use xlink:href="#dot" transform="translate(-110.75043730742,30.850110142954)" />   <use xlink:href="#dot" transform="translate(-110.75043730742,30.850110142954)" />   <use xlink:href="#dot" transform="translate(-110.75043730742,30.850110142954)" />   <use xlink:href="#dot" transform="translate(-110.75043730742,30.850110142954)" />   <use xlink:href="#dot" transform="translate(-110.75043730742,30.850110142954)" />   <use xlink:href="#dot" transform="translate(-110.75043730742,30.850110142954)" />   <use xlink:href="#dot" transform="translate(-110.75043730742,30.850110142954)" />   <use xlink:href="#dot" transform="translate(-110.75043730742,30.850110142954)" />   <use xlink:href="#dot" transform="translate(-110.75043730742,30.850110142954)" />   <use xlink:href="#dot" transform="translate(-110.75043730742,30.850110142954)" />   <use xlink:href="#dot" transform="translate(-110.75043730742,30.850110142954)" />   <use xlink:href="#dot" transform="translate(-110.75043730742,30.850110142954)" />   <use xlink:href="#dot" transform="translate(-109.783303,32.703633)" />   <use xlink:href="#dot" transform="translate(-109.783303,32.703633)" />   <use xlink:href="#dot" transform="translate(-109.783303,32.703633)" />   <use xlink:href="#dot" transform="translate(-110.75043730742,30.850110142954)" /><polygon class="region" points="-111.053062,28.015199 -117.2430314468,32.404211814236 -114.43291702119,36.389161256036 -110.69027,36.665935 -108.766167,31.320111 -108.35591687067,28.561995900171 -108.38413802575,28.479330737723 -109.00037031363,26.960257311269 -111.053062,28.015199 " />
		  </g>
		</svg>