<?xml version="1.0" encoding="UTF-8"?>
	<svg xmlns:xlink="http://www.w3.org/1999/xlink" 
	xmlns="http://www.w3.org/2000/svg" 
	width="360px" height="180px">
	   <style type="text/css">
		  <![CDATA[     
		  .region 
		  { 
			fill:blue; 
			opacity:0.4; 
			stroke:blue;
		  }
		  ]]>
	   </style>

	<circle id="dot" x="-2" y="-2" r="2" style="stroke:none; stroke-width:0; fill:black; opacity:0.7;"/>


	 <image x="0" y="0" width="360" height="180" xlink:href="map.jpg"/>

 
	 <g transform="translate(180,90) scale(1,-1)">   <use xlink:href="#dot" transform="translate(141.64673,-8.71219)" />   <use xlink:href="#dot" transform="translate(141.64673,-8.71219)" />   <use xlink:href="#dot" transform="translate(141.59755,-8.70291)" />   <use xlink:href="#dot" transform="translate(141.59755,-8.70291)" />   <use xlink:href="#dot" transform="translate(141.59755,-8.70291)" />   <use xlink:href="#dot" transform="translate(141.59755,-8.70291)" />   <use xlink:href="#dot" transform="translate(141.64673,-8.71219)" />   <use xlink:href="#dot" transform="translate(141.59755,-8.70291)" />   <use xlink:href="#dot" transform="translate(141.59755,-8.70291)" />   <use xlink:href="#dot" transform="translate(141.64673,-8.71219)" />   <use xlink:href="#dot" transform="translate(141.59755,-8.70291)" />   <use xlink:href="#dot" transform="translate(141.59755,-8.70291)" />   <use xlink:href="#dot" transform="translate(141.59755,-8.70291)" />   <use xlink:href="#dot" transform="translate(141.59755,-8.70291)" />   <use xlink:href="#dot" transform="translate(141.59755,-8.70291)" />   <use xlink:href="#dot" transform="translate(141.63788,-8.76937)" />   <use xlink:href="#dot" transform="translate(141.59755,-8.70291)" />   <use xlink:href="#dot" transform="translate(141.59755,-8.70291)" />   <use xlink:href="#dot" transform="translate(141.64673,-8.71219)" />   <use xlink:href="#dot" transform="translate(141.59755,-8.70291)" />   <use xlink:href="#dot" transform="translate(141.59755,-8.70291)" />   <use xlink:href="#dot" transform="translate(141.59755,-8.70291)" />   <use xlink:href="#dot" transform="translate(141.64673,-8.71219)" />   <use xlink:href="#dot" transform="translate(141.59755,-8.70291)" />   <use xlink:href="#dot" transform="translate(141.59755,-8.70291)" />   <use xlink:href="#dot" transform="translate(141.73333,-8.61667)" />   <use xlink:href="#dot" transform="translate(141.63788,-8.76937)" />   <use xlink:href="#dot" transform="translate(141.64673,-8.71219)" />   <use xlink:href="#dot" transform="translate(141.59755,-8.70291)" />   <use xlink:href="#dot" transform="translate(141.59755,-8.70291)" />   <use xlink:href="#dot" transform="translate(141.59755,-8.70291)" />   <use xlink:href="#dot" transform="translate(141.59755,-8.70291)" />   <use xlink:href="#dot" transform="translate(141.59755,-8.70291)" />   <use xlink:href="#dot" transform="translate(141.64673,-8.71219)" />   <use xlink:href="#dot" transform="translate(141.64673,-8.71219)" />   <use xlink:href="#dot" transform="translate(141.64673,-8.71219)" />   <use xlink:href="#dot" transform="translate(141.64673,-8.71219)" />   <use xlink:href="#dot" transform="translate(141.59755,-8.70291)" />   <use xlink:href="#dot" transform="translate(141.64673,-8.71219)" />   <use xlink:href="#dot" transform="translate(141.64673,-8.71219)" />   <use xlink:href="#dot" transform="translate(141.59755,-8.70291)" />   <use xlink:href="#dot" transform="translate(141.59755,-8.70291)" />   <use xlink:href="#dot" transform="translate(141.64673,-8.71219)" />   <use xlink:href="#dot" transform="translate(141.59755,-8.70291)" />   <use xlink:href="#dot" transform="translate(141.59755,-8.70291)" />   <use xlink:href="#dot" transform="translate(141.73333,-8.61667)" />   <use xlink:href="#dot" transform="translate(141.59755,-8.70291)" />   <use xlink:href="#dot" transform="translate(141.59755,-8.70291)" />   <use xlink:href="#dot" transform="translate(141.59755,-8.70291)" />   <use xlink:href="#dot" transform="translate(141.59755,-8.70291)" />   <use xlink:href="#dot" transform="translate(141.59755,-8.70291)" />   <use xlink:href="#dot" transform="translate(141.59755,-8.70291)" />   <use xlink:href="#dot" transform="translate(141.59755,-8.70291)" />   <use xlink:href="#dot" transform="translate(141.64673,-8.71219)" />   <use xlink:href="#dot" transform="translate(141.59755,-8.70291)" />   <use xlink:href="#dot" transform="translate(141.59755,-8.70291)" />   <use xlink:href="#dot" transform="translate(141.59755,-8.70291)" />   <use xlink:href="#dot" transform="translate(141.59755,-8.70291)" />   <use xlink:href="#dot" transform="translate(141.59755,-8.70291)" />   <use xlink:href="#dot" transform="translate(141.59755,-8.70291)" />   <use xlink:href="#dot" transform="translate(144.963611,-14.928889)" />   <use xlink:href="#dot" transform="translate(144.868889,-15.4975)" />   <use xlink:href="#dot" transform="translate(144.868889,-15.4975)" />   <use xlink:href="#dot" transform="translate(144.868889,-15.4975)" />   <use xlink:href="#dot" transform="translate(142.17954182116,-12.380365647752)" />   <use xlink:href="#dot" transform="translate(143.20036734005,-13.935633769734)" />   <use xlink:href="#dot" transform="translate(143.20009034389,-13.936189767741)" />   <use xlink:href="#dot" transform="translate(142.19315269056,-12.38119862509)" />   <use xlink:href="#dot" transform="translate(143.086389,-13.873611)" />   <use xlink:href="#dot" transform="translate(145.0333,-16.0667)" />   <use xlink:href="#dot" transform="translate(145.0333,-16.0667)" />   <use xlink:href="#dot" transform="translate(145.264167,-16.92)" />   <use xlink:href="#dot" transform="translate(143.662778,-14.226667)" />   <use xlink:href="#dot" transform="translate(142.172222,-10.147778)" />   <use xlink:href="#dot" transform="translate(142.333056,-10.173889)" />   <use xlink:href="#dot" transform="translate(142.18420589803,-12.381960204194)" />   <use xlink:href="#dot" transform="translate(142.1775,-12.364722)" />   <use xlink:href="#dot" transform="translate(142.18420589803,-12.381960204194)" />   <use xlink:href="#dot" transform="translate(142.238056,-12.334444)" />   <use xlink:href="#dot" transform="translate(142.1775,-12.364722)" />   <use xlink:href="#dot" transform="translate(142.251667,-12.339722)" />   <use xlink:href="#dot" transform="translate(142.368889,-12.371111)" />   <use xlink:href="#dot" transform="translate(142.1775,-12.364722)" />   <use xlink:href="#dot" transform="translate(142.251667,-12.339722)" />   <use xlink:href="#dot" transform="translate(142.251944,-12.299444)" />   <use xlink:href="#dot" transform="translate(142.143056,-12.384444)" />   <use xlink:href="#dot" transform="translate(142.18420589803,-12.381960204194)" />   <use xlink:href="#dot" transform="translate(142.251667,-12.339722)" />   <use xlink:href="#dot" transform="translate(144.45085169173,-14.331946312831)" />   <use xlink:href="#dot" transform="translate(142.614722,-12.72)" />   <use xlink:href="#dot" transform="translate(142.607222,-12.712222)" />   <use xlink:href="#dot" transform="translate(142.9762021011,-13.098972023651)" />   <use xlink:href="#dot" transform="translate(145.182222,-15.436667)" />   <use xlink:href="#dot" transform="translate(145.15417,-15.42417)" />   <use xlink:href="#dot" transform="translate(145.15417,-15.42417)" />   <use xlink:href="#dot" transform="translate(145.015833,-15.305556)" />   <use xlink:href="#dot" transform="translate(145.015833,-15.305556)" />   <use xlink:href="#dot" transform="translate(141.1128,-8.4328)" />   <use xlink:href="#dot" transform="translate(141.435,-9.09671)" />   <use xlink:href="#dot" transform="translate(141.43561,-9.09671)" />   <use xlink:href="#dot" transform="translate(141.1128,-8.4328)" />   <use xlink:href="#dot" transform="translate(141.1128,-8.4328)" />   <use xlink:href="#dot" transform="translate(141.112,-8.43287)" />   <use xlink:href="#dot" transform="translate(141.112,-8.43287)" />   <use xlink:href="#dot" transform="translate(141.1128,-8.4328)" />   <use xlink:href="#dot" transform="translate(141.1128,-8.4328)" />   <use xlink:href="#dot" transform="translate(141.10752,-8.52002)" />   <use xlink:href="#dot" transform="translate(142.315,-10.185)" />   <use xlink:href="#dot" transform="translate(145.579167,-16.916111)" />   <use xlink:href="#dot" transform="translate(145.129444,-15.442778)" />   <use xlink:href="#dot" transform="translate(145.154444,-15.402778)" />   <use xlink:href="#dot" transform="translate(145.154444,-15.402778)" />   <use xlink:href="#dot" transform="translate(145.154444,-15.402778)" />   <use xlink:href="#dot" transform="translate(145.154444,-15.402778)" />   <use xlink:href="#dot" transform="translate(145.57917,-16.91611)" />   <use xlink:href="#dot" transform="translate(145.15417,-15.42417)" />   <use xlink:href="#dot" transform="translate(145.15417,-15.42417)" />   <use xlink:href="#dot" transform="translate(145.15417,-15.42417)" />   <use xlink:href="#dot" transform="translate(145.15417,-15.42417)" />   <use xlink:href="#dot" transform="translate(145.15417,-15.42417)" />   <use xlink:href="#dot" transform="translate(145.077778,-15.700556)" />   <use xlink:href="#dot" transform="translate(145.149167,-15.696667)" />   <use xlink:href="#dot" transform="translate(145.329722,-16.681667)" />   <use xlink:href="#dot" transform="translate(141.8975,-12.645)" />   <use xlink:href="#dot" transform="translate(145.0333,-16.0667)" />   <use xlink:href="#dot" transform="translate(145.0333,-16.0667)" />   <use xlink:href="#dot" transform="translate(145.0333,-16.0667)" />   <use xlink:href="#dot" transform="translate(145.0333,-16.0667)" />   <use xlink:href="#dot" transform="translate(145.0333,-16.0667)" />   <use xlink:href="#dot" transform="translate(145.0333,-16.0667)" />   <use xlink:href="#dot" transform="translate(145.0333,-16.0667)" />   <use xlink:href="#dot" transform="translate(145.0333,-16.0667)" />   <use xlink:href="#dot" transform="translate(145.0333,-16.0667)" />   <use xlink:href="#dot" transform="translate(145.0333,-16.0667)" />   <use xlink:href="#dot" transform="translate(144.431944,-14.276111)" />   <use xlink:href="#dot" transform="translate(144.431944,-14.276111)" />   <use xlink:href="#dot" transform="translate(145.15,-16.666667)" />   <use xlink:href="#dot" transform="translate(145.280278,-14.985833)" />   <use xlink:href="#dot" transform="translate(144.774444,-14.733056)" />   <use xlink:href="#dot" transform="translate(144.774444,-14.733056)" />   <use xlink:href="#dot" transform="translate(141.937222,-12.616667)" />   <use xlink:href="#dot" transform="translate(142.583333,-11.75)" />   <use xlink:href="#dot" transform="translate(142.583333,-11.75)" />   <use xlink:href="#dot" transform="translate(142.85,-11.7)" />   <use xlink:href="#dot" transform="translate(143.1,-12.066667)" />   <use xlink:href="#dot" transform="translate(142.866667,-11.7)" />   <use xlink:href="#dot" transform="translate(143.1,-12.066667)" />   <use xlink:href="#dot" transform="translate(142.316667,-13.416667)" />   <use xlink:href="#dot" transform="translate(145.118,-15.423)" />   <use xlink:href="#dot" transform="translate(145.117,-15.424)" />   <use xlink:href="#dot" transform="translate(142.6,-11.75)" />   <use xlink:href="#dot" transform="translate(142.6,-11.75)" />   <use xlink:href="#dot" transform="translate(142.583333,-11.75)" />   <use xlink:href="#dot" transform="translate(141.80087707135,-12.515294050921)" />   <use xlink:href="#dot" transform="translate(145.333333,-14.983333)" />   <use xlink:href="#dot" transform="translate(145.3,-15)" />   <use xlink:href="#dot" transform="translate(145.258333,-15.708333)" />   <use xlink:href="#dot" transform="translate(143.5472,-13.925)" />   <use xlink:href="#dot" transform="translate(143.4611,-13.825)" />   <use xlink:href="#dot" transform="translate(143.4528,-13.7)" />   <use xlink:href="#dot" transform="translate(143.4528,-13.7)" />   <use xlink:href="#dot" transform="translate(143.4528,-13.7)" />   <use xlink:href="#dot" transform="translate(142.85,-8.866)" />   <use xlink:href="#dot" transform="translate(143.283333,-12.733333)" />   <use xlink:href="#dot" transform="translate(145.175,-15.075)" />   <use xlink:href="#dot" transform="translate(145.175,-15.075)" />   <use xlink:href="#dot" transform="translate(145.175,-15.075)" />   <use xlink:href="#dot" transform="translate(145.241667,-14.925)" />   <use xlink:href="#dot" transform="translate(145.225,-14.925)" />   <use xlink:href="#dot" transform="translate(145.241667,-14.925)" />   <use xlink:href="#dot" transform="translate(145.283333,-15.716667)" />   <use xlink:href="#dot" transform="translate(142.916667,-11.966667)" />   <use xlink:href="#dot" transform="translate(142.916667,-11.966667)" />   <use xlink:href="#dot" transform="translate(142.916667,-11.966667)" />   <use xlink:href="#dot" transform="translate(142.916667,-11.966667)" />   <use xlink:href="#dot" transform="translate(142.916667,-11.966667)" />   <use xlink:href="#dot" transform="translate(142.7833,-12.8333)" />   <use xlink:href="#dot" transform="translate(145.35084276245,-14.965275321996)" />   <use xlink:href="#dot" transform="translate(143.416667,-12.6)" />   <use xlink:href="#dot" transform="translate(143.416667,-12.6)" />   <use xlink:href="#dot" transform="translate(141.95,-13.083333)" />   <use xlink:href="#dot" transform="translate(142.116,-13.116)" />   <use xlink:href="#dot" transform="translate(142.116,-13.116)" />   <use xlink:href="#dot" transform="translate(142.116,-13.116)" />   <use xlink:href="#dot" transform="translate(142.116,-13.116)" />   <use xlink:href="#dot" transform="translate(142.116,-13.116)" />   <use xlink:href="#dot" transform="translate(142.183,-12.383)" />   <use xlink:href="#dot" transform="translate(141.833,-12.483)" />   <use xlink:href="#dot" transform="translate(142.183,-12.383)" />   <use xlink:href="#dot" transform="translate(141.833,-12.483)" />   <use xlink:href="#dot" transform="translate(142.183,-12.383)" />   <use xlink:href="#dot" transform="translate(142.116,-13.116)" />   <use xlink:href="#dot" transform="translate(142.183,-12.383)" />   <use xlink:href="#dot" transform="translate(141.833,-12.483)" />   <use xlink:href="#dot" transform="translate(141.833,-12.483)" />   <use xlink:href="#dot" transform="translate(141.833,-12.483)" />   <use xlink:href="#dot" transform="translate(141.833,-12.483)" />   <use xlink:href="#dot" transform="translate(141.833,-12.483)" />   <use xlink:href="#dot" transform="translate(141.833,-12.483)" />   <use xlink:href="#dot" transform="translate(142.4,-12.683)" />   <use xlink:href="#dot" transform="translate(142.4,-12.683)" />   <use xlink:href="#dot" transform="translate(142.4,-12.683)" />   <use xlink:href="#dot" transform="translate(142.4,-12.683)" />   <use xlink:href="#dot" transform="translate(142.4,-12.683)" />   <use xlink:href="#dot" transform="translate(142.4,-12.683)" />   <use xlink:href="#dot" transform="translate(142.4,-12.683)" />   <use xlink:href="#dot" transform="translate(142.4,-12.683)" />   <use xlink:href="#dot" transform="translate(142.4,-12.683)" />   <use xlink:href="#dot" transform="translate(142.4,-12.683)" />   <use xlink:href="#dot" transform="translate(142.4,-12.683)" />   <use xlink:href="#dot" transform="translate(142.4,-12.683)" />   <use xlink:href="#dot" transform="translate(142.4,-12.683)" />   <use xlink:href="#dot" transform="translate(142.4,-12.683)" />   <use xlink:href="#dot" transform="translate(142.4,-12.683)" />   <use xlink:href="#dot" transform="translate(142.4,-12.683)" />   <use xlink:href="#dot" transform="translate(142.4,-12.683)" />   <use xlink:href="#dot" transform="translate(142.3,-12.75)" />   <use xlink:href="#dot" transform="translate(141.866,-12.4)" />   <use xlink:href="#dot" transform="translate(142.333,-12.15)" />   <use xlink:href="#dot" transform="translate(142.166,-12.383)" />   <use xlink:href="#dot" transform="translate(142.166,-12.383)" />   <use xlink:href="#dot" transform="translate(142.166,-12.383)" />   <use xlink:href="#dot" transform="translate(141.866,-12.4)" />   <use xlink:href="#dot" transform="translate(142.166,-12.383)" />   <use xlink:href="#dot" transform="translate(141.866,-12.4)" />   <use xlink:href="#dot" transform="translate(141.25,-12)" />   <use xlink:href="#dot" transform="translate(141.866,-12.4)" />   <use xlink:href="#dot" transform="translate(142.166,-12.383)" />   <use xlink:href="#dot" transform="translate(141.883,-12.333)" />   <use xlink:href="#dot" transform="translate(142.316667,-12.15)" />   <use xlink:href="#dot" transform="translate(141.95,-13.083333)" />   <use xlink:href="#dot" transform="translate(141.95,-13.083333)" />   <use xlink:href="#dot" transform="translate(141.95,-13.083333)" />   <use xlink:href="#dot" transform="translate(141.933,-12.683)" />   <use xlink:href="#dot" transform="translate(141.883,-12.183)" />   <use xlink:href="#dot" transform="translate(141.883,-12.183)" />   <use xlink:href="#dot" transform="translate(141.883,-12.183)" />   <use xlink:href="#dot" transform="translate(141.883,-12.183)" />   <use xlink:href="#dot" transform="translate(141.883,-12.183)" />   <use xlink:href="#dot" transform="translate(141.883,-12.183)" />   <use xlink:href="#dot" transform="translate(141.883,-12.183)" />   <use xlink:href="#dot" transform="translate(141.883,-12.183)" />   <use xlink:href="#dot" transform="translate(141.883,-12.183)" />   <use xlink:href="#dot" transform="translate(141.883,-12.183)" />   <use xlink:href="#dot" transform="translate(141.883,-12.183)" />   <use xlink:href="#dot" transform="translate(141.883,-12.183)" />   <use xlink:href="#dot" transform="translate(141.883,-12.183)" />   <use xlink:href="#dot" transform="translate(141.883,-12.183)" />   <use xlink:href="#dot" transform="translate(141.883,-12.183)" />   <use xlink:href="#dot" transform="translate(141.883,-12.183)" />   <use xlink:href="#dot" transform="translate(141.883,-12.183)" />   <use xlink:href="#dot" transform="translate(141.883,-12.183)" />   <use xlink:href="#dot" transform="translate(143.241389,-13.895278)" />   <use xlink:href="#dot" transform="translate(143.150278,-13.854722)" />   <use xlink:href="#dot" transform="translate(143.111389,-13.764722)" />   <use xlink:href="#dot" transform="translate(143.150278,-13.854722)" />   <use xlink:href="#dot" transform="translate(143.310556,-13.711389)" />   <use xlink:href="#dot" transform="translate(143.111389,-13.764722)" />   <use xlink:href="#dot" transform="translate(143.111389,-13.764722)" />   <use xlink:href="#dot" transform="translate(143.241389,-13.895278)" />   <use xlink:href="#dot" transform="translate(145.233333,-15.533333)" />   <use xlink:href="#dot" transform="translate(141.883,-12.183)" />   <use xlink:href="#dot" transform="translate(141.85,-12.433)" />   <use xlink:href="#dot" transform="translate(141.85,-12.433)" />   <use xlink:href="#dot" transform="translate(141.1,-12.683)" />   <use xlink:href="#dot" transform="translate(141.883,-12.183)" />   <use xlink:href="#dot" transform="translate(141.883,-12.183)" />   <use xlink:href="#dot" transform="translate(141.1,-12.683)" />   <use xlink:href="#dot" transform="translate(141.883,-12.183)" />   <use xlink:href="#dot" transform="translate(141.883,-12.183)" />   <use xlink:href="#dot" transform="translate(141.883,-12.183)" />   <use xlink:href="#dot" transform="translate(141.883,-12.183)" />   <use xlink:href="#dot" transform="translate(141.1,-12.683)" />   <use xlink:href="#dot" transform="translate(141.85,-12.433)" />   <use xlink:href="#dot" transform="translate(143.216667,-13.516667)" />   <use xlink:href="#dot" transform="translate(143.5,-13.883333)" />   <use xlink:href="#dot" transform="translate(143.15,-13.55)" />   <use xlink:href="#dot" transform="translate(143.216667,-13.516667)" />   <use xlink:href="#dot" transform="translate(143.216667,-13.516667)" />   <use xlink:href="#dot" transform="translate(143.25,-13.866667)" />   <use xlink:href="#dot" transform="translate(143.3,-14.05)" />   <use xlink:href="#dot" transform="translate(143.5,-13.916667)" />   <use xlink:href="#dot" transform="translate(143.3,-14.05)" />   <use xlink:href="#dot" transform="translate(143.533333,-13.966667)" />   <use xlink:href="#dot" transform="translate(143.5,-13.916667)" />   <use xlink:href="#dot" transform="translate(145.333333,-16.716667)" />   <use xlink:href="#dot" transform="translate(145.333333,-16.716667)" />   <use xlink:href="#dot" transform="translate(145.333333,-16.7)" />   <use xlink:href="#dot" transform="translate(145.333333,-16.716667)" />   <use xlink:href="#dot" transform="translate(145.333333,-16.716667)" />   <use xlink:href="#dot" transform="translate(145.333333,-16.716667)" />   <use xlink:href="#dot" transform="translate(145.333333,-16.7)" />   <use xlink:href="#dot" transform="translate(145.333333,-16.683333)" />   <use xlink:href="#dot" transform="translate(145.333333,-16.683333)" />   <use xlink:href="#dot" transform="translate(144.45,-15.6)" />   <use xlink:href="#dot" transform="translate(145.233333,-15.7)" />   <use xlink:href="#dot" transform="translate(145.333333,-16.716667)" />   <use xlink:href="#dot" transform="translate(145.166667,-15.683333)" />   <use xlink:href="#dot" transform="translate(145.333333,-16.683333)" />   <use xlink:href="#dot" transform="translate(145.333333,-16.7)" /><polygon class="region" points="145.264167,-16.92 141.1,-12.683 141.10752,-8.52002 141.112,-8.43287 141.1128,-8.4328 142.85,-8.866 145.35084276245,-14.965275321996 145.57917,-16.91611 145.579167,-16.916111 145.264167,-16.92 " />
		  </g>
		</svg>