<?xml version="1.0" encoding="UTF-8"?>
	<svg xmlns:xlink="http://www.w3.org/1999/xlink" 
	xmlns="http://www.w3.org/2000/svg" 
	width="360px" height="180px">
	   <style type="text/css">
		  <![CDATA[     
		  .region 
		  { 
			fill:blue; 
			opacity:0.4; 
			stroke:blue;
		  }
		  ]]>
	   </style>

	<circle id="dot" x="-2" y="-2" r="2" style="stroke:none; stroke-width:0; fill:black; opacity:0.7;"/>


	 <image x="0" y="0" width="360" height="180" xlink:href="map.jpg"/>

 
	 <g transform="translate(180,90) scale(1,-1)"><polygon class="region" points="142.540390015,-10.697472572 142.467895508,-10.979055405 142.59588623,-10.872666359 142.787719727,-11.080471992 142.857223511,-11.849971771 143.246032715,-11.976083755 143.081695557,-12.342971802 143.440750122,-12.611332893 143.353271484,-12.899806023 143.546051025,-12.844583511 143.532440186,-13.74980545 143.772918701,-14.383972168 143.949798584,-14.517250061 144.519561768,-14.169805527 144.682830811,-14.551194191 145.352081299,-14.954722404 145.217330933,-15.457111359 145.476196289,-16.078861237 145.405227661,-16.437055588 145.776306152,-16.992944717 145.959472656,-16.895805359 145.924728394,-17.218639374 146.146392822,-17.652805328 146.016799927,-18.245527267 146.334106445,-18.533500671 146.261642456,-18.866722107 146.822937012,-19.288639069 147.019577026,-19.183416367 147.126022339,-19.44549942 147.441467285,-19.419555664 147.397857666,-19.299055099 147.656478882,-19.82311058 147.821395874,-19.709888458 147.873245239,-19.887111664 148.258117676,-19.983278275 148.33795166,-20.15363884 148.556640625,-20.070444107 148.762252808,-20.235776901 148.927032471,-20.535554886 148.794662476,-20.420444489 148.667892456,-20.443944931 148.692276001,-20.692083359 149.221939087,-21.068166733 149.127578735,-21.148389816 149.164520264,-21.330472946 149.294219971,-21.276611328 149.294006348,-21.53808403 149.481552124,-21.535417557 149.424362183,-21.848972321 149.600692749,-22.276445389 149.500671387,-22.340333939 149.704498291,-22.385444641 149.688781738,-22.43188858 149.700866699,-22.457027435 149.630142212,-22.53808403 149.630783081,-22.589332581 149.807281494,-22.385860443 150.035720825,-22.658193588 150.045303345,-22.663805008 150.058502197,-22.658082962 149.910339355,-22.349916458 150.037780762,-22.130887985 150.629226685,-22.663473129 150.532028198,-22.385194778 150.668670654,-22.353471756 150.834060669,-22.686138153 150.726196289,-22.913139343 150.870834351,-23.487054825 150.848617554,-23.512083054 150.731170654,-23.492694855 150.669113159,-23.498971939 150.658966064,-23.514583588 150.640914917,-23.519945145 150.674728394,-23.49058342 150.685302734,-23.464195251 150.699172974,-23.488361359 150.691635132,-23.460193634 150.423309326,-23.257860184 150.445831299,-23.347415924 150.714950562,-23.607334137 150.930725098,-23.687221527 151.017745972,-23.569833755 151.046859741,-23.638526917 151.117614746,-23.671304703 151.172531128,-23.818695068 151.213256836,-23.825166702 151.21824646,-23.837194443 151.203079224,-23.834388733 151.187942505,-23.844944 151.180938721,-23.867944717 151.446060181,-24.090749741 151.767089844,-24.017999649 152.028808594,-24.536722183 152.417053223,-24.761472702 152.571914673,-25.186582565 152.773063577,-25.301085237 152.16531,-25.597708 151.143943,-25.600991 149.880774,-25.169497 148.993176,-24.560458 146.569651,-22.351685 145.288624,-21.497038 141.035596,-19.052562 136.88465,-17.514133 133.185319,-16.843596 129.958878,-16.788721 127.086885,-17.568546 125.052639,-18.532596 123.572821,-19.018754 122.619347147,-18.676237448 122.370780945,-17.993860245 122.171333313,-17.977361679 122.169998169,-17.268499374 122.478614807,-16.898916245 122.587722778,-16.959583282 122.570640564,-16.770805359 122.83013916,-16.78805542 122.739051819,-16.686166763 122.921669006,-16.396139145 123.035667419,-16.363805771 122.954391479,-16.593111038 123.137359619,-16.691833496 123.565551758,-17.631332397 123.697135925,-17.250860214 123.580444336,-17.038333893 123.942695618,-17.284889221 123.792358398,-17.011861801 123.922554016,-17.102693558 123.823387146,-16.961389542 123.956695557,-16.854722977 123.794471741,-16.915527344 123.500305176,-16.665388107 123.613670349,-16.56127739 123.507919312,-16.598777771 123.425498962,-16.501556396 123.657585144,-16.492721558 123.501663208,-16.384222031 123.619636536,-16.444166183 123.705497742,-16.424972534 123.554275513,-16.180250168 123.773887634,-16.170305252 123.867248535,-16.451778412 123.88180542,-16.309333801 123.983360291,-16.422416687 124,-16.384805679 123.907691956,-16.215665817 124.117164612,-16.284889221 124.39730835,-16.568889618 124.38394165,-16.350610733 124.449058533,-16.414083481 124.829833984,-16.437944412 124.906524658,-16.427139282 124.939308167,-16.398916245 124.391029358,-16.343194962 124.438667297,-16.066583633 124.528747559,-16.21052742 124.551582336,-16.20230484 124.607803345,-15.893917084 124.776802063,-15.80569458 124.799636841,-15.663555145 124.490974426,-16.002361298 124.413780212,-15.544944763 124.681083679,-15.487360954 124.677474976,-15.254055977 125.293609619,-15.607028008 125.069419861,-15.44030571 125.106002808,-15.271166801 124.876777649,-15.309833527 125.052719116,-15.163999557 124.87474823,-15.264694214 124.833778381,-15.163000107 125.068054199,-14.978333473 125.170913696,-15.173555374 125.508552551,-15.16716671 125.361053467,-15.11147213 125.487808228,-14.990305901 125.182807922,-14.962306023 125.325111389,-14.881527901 125.137611389,-14.745222092 125.356330872,-14.507555962 125.441802979,-14.655056 125.598747253,-14.559166908 125.60030365,-14.23088932 125.732803345,-14.28255558 125.647415161,-14.650555611 125.734695435,-14.406916618 125.932640076,-14.643361092 126.159225464,-14.15075016 126.009140015,-13.921916962 126.212524414,-13.971583366 126.22277832,-14.265749931 126.534835815,-13.931860924 126.449531555,-14.092944145 126.569137573,-14.24050045 126.703804016,-13.971916199 126.926887512,-14.000333786 126.74319458,-13.792666435 126.870475769,-13.746889114 127.144752502,-13.988222122 127.424362183,-13.945138931 128.233612061,-14.736332893 128.074829102,-14.885889053 128.071029663,-15.446666718 127.864219666,-15.577083588 127.843139648,-15.607055664 127.869857788,-15.650472641 128.094589233,-15.46866703 128.12286377,-15.188944817 128.250976562,-15.30308342 128.292282104,-15.456250191 128.327774048,-15.503333092 128.342056274,-15.492610931 128.200531006,-15.062166214 128.453475952,-15.053388596 128.483978271,-15.007082939 128.406356812,-14.872555733 128.511383057,-15.011111259 128.379699707,-14.818333626 128.521057129,-14.765639305 129.09211731,-14.902305603 129.183670044,-14.986749649 129.193557739,-15.120416641 129.106643677,-15.240750313 129.125976562,-15.280583382 129.307861328,-15.109861374 129.287246704,-14.857417107 129.598144531,-15.221333504 129.641418457,-14.834638596 129.763641357,-14.840777397 129.799743652,-14.746805191 129.620697021,-14.68319416 129.806747437,-14.531611443 129.520645142,-14.545722008 129.362442017,-14.334083557 129.474914551,-14.050027847 129.522613525,-14.207333565 129.740524292,-13.978138924 129.812561035,-13.500305176 130.272781372,-13.330166817 130.123275757,-12.966166496 130.336746216,-12.891194344 130.349853516,-12.669083595 130.627609253,-12.777638435 130.751968384,-12.722194672 130.589553833,-12.680972099 130.547668457,-12.630389214 130.58052063,-12.403333664 130.968475342,-12.673610687 130.817993164,-12.404027939 131.037887573,-12.375222206 130.997390747,-12.16986084 131.21546936,-12.220166206 131.288299561,-12.044278145 131.463134766,-12.283194542 132.774719238,-12.162083626 132.580307007,-11.785916328 132.72883606,-11.612194061 132.544326782,-11.603500366 132.548782349,-11.445833206 132.112808228,-11.536166191 131.755645752,-11.300889015 131.998977661,-11.124361038 132.202056885,-11.412138939 132.137664795,-11.122777939 132.281494141,-11.27041626 132.330215454,-11.115833282 132.655410767,-11.506777763 132.915603638,-11.333472252 133.156494141,-11.713277817 133.534835815,-11.764055252 133.493667603,-11.881194115 133.911254883,-11.741055489 133.829864502,-11.862750053 134.123977661,-11.900722504 134.177001953,-12.136722565 134.243087769,-11.989388466 134.578811646,-12.130666733 134.748947144,-11.951777458 135.250244141,-12.329833031 135.154922485,-12.23097229 135.33454895,-12.251360893 135.219894409,-12.189222336 135.362884521,-12.089583397 135.908889771,-11.954111099 135.645996094,-12.199972153 135.708053589,-12.307472229 136.038803101,-12.067222595 135.924423218,-12.226027489 136.057189941,-12.241416931 135.935668945,-12.423360825 136.017227173,-12.495083809 136.296051025,-12.406194687 136.388061523,-12.24038887 136.164077759,-12.166639328 136.563079834,-11.877721786 136.439727783,-12.001194 136.645217896,-12.271055222 136.77935791,-12.163332939 136.973999023,-12.344333649 136.724411011,-12.479055405 136.615829468,-12.842472076 136.461532593,-12.779972076 136.659423828,-13.005583763 136.451828003,-12.979277611 136.563812256,-13.062944412 136.340118408,-13.324110985 136.334228516,-13.049194336 136.176864624,-13.283194542 136.136688232,-13.129500389 136.044189453,-13.30838871 135.910446167,-13.275527954 135.873199463,-13.71033287 136.077606201,-13.659972191 135.898635864,-14.196027756 135.701049805,-14.27994442 135.535140991,-14.658277512 135.26524353,-14.678250313 134.981201172,-14.805805206 135.278808594,-14.68627739 135.406799316,-14.954250336 135.699584961,-15.091694832 135.627716064,-15.199972153 135.536117554,-15.226166725 135.543167114,-15.242361069 135.483840942,-15.271555901 135.413162231,-15.32902813 135.414382935,-15.342139244 135.631561279,-15.22827816 135.740951538,-15.119610786 136.538803101,-15.742166519 136.720916748,-15.69849968 136.57635498,-15.907583237 136.438781738,-15.903027534 136.417633057,-15.925499916 136.418579102,-15.944333076 137.002975464,-15.873749733 137.737716675,-16.241138458 138.201858521,-16.701778412 139.044448853,-16.912137985 139.239395142,-17.323249817 139.644699097,-17.539194107 140.038833618,-17.721639633 140.50592041,-17.641611099 140.884552002,-17.380083084 141.42489624,-16.094638824 141.577362061,-15.207333565 141.696472168,-15.259333611 141.748687744,-15.231082916 141.593826294,-15.198527336 141.607131958,-14.175333023 141.468643188,-13.863778114 141.628173828,-13.373250008 141.69190979,-13.457027435 141.784942627,-13.371472359 141.655609131,-13.33833313 141.600479126,-12.957611084 141.820220947,-12.672222137 141.945617676,-12.893500328 142.022659302,-12.722916603 141.827529907,-12.648722649 141.989746094,-12.592055321 142.0415802,-12.551610947 141.818725586,-12.599778175 141.722854614,-12.385138512 141.592605591,-12.556944847 141.882247925,-11.95633316 141.894439697,-12.229083061 141.89781189,-12.239417076 141.929504395,-12.257555962 141.957687378,-12.044555664 142.020523071,-12.07463932 142.063446045,-11.985027313 142.149917603,-12.019749641 142.072479248,-11.974611282 142.043395996,-11.987028122 142.016784668,-12.044305801 141.940078735,-11.973833084 142.096832275,-11.740194321 142.13369751,-10.963222504 142.540390015,-10.697472572 " /><polygon class="region" points="143.247541926,-8.873783762 143.347808838,-9.020777702 142.626922607,-9.333194733 142.218048096,-9.148638725 142.256195068,-8.9715833659999 142.199310303,-8.9095830919999 142.097946167,-8.9099998469999 142.250946045,-8.978750229 142.169830322,-9.1584720609999 142.025970459,-8.97424984 142.047668457,-9.166166306 141.919662476,-9.2009725569999 141.322583325,-9.147429443 141.131469547,-8.6501099079999 143.247541926,-8.873783762 " /><polygon class="region" points="151.057159424,-23.452167511 151.239105225,-23.49338913 151.284423828,-23.796167374 151.246307373,-23.710582733 151.046920776,-23.624082565 151.057159424,-23.452167511 " /><polygon class="region" points="150.755523682,-23.512945175 150.868331909,-23.551971436 150.877197266,-23.567527771 150.712081909,-23.602693558 150.755523682,-23.512945175 " /><polygon class="region" points="128.450195312,-15.045110703 128.351028442,-14.964305878 128.353363037,-14.882416725 128.418029785,-14.94830513 128.450195312,-15.045110703 " /><polygon class="region" points="150.940002441,-23.572305679 150.920257568,-23.621833801 150.872421265,-23.580499649 150.940338135,-23.548583984 150.940002441,-23.572305679 " /><polygon class="region" points="149.711914062,-22.458694458 149.697692871,-22.422250748 149.728439331,-22.353666306 149.762802124,-22.377555847 149.711914062,-22.458694458 " /><polygon class="region" points="128.355560303,-15.049221992 128.292861938,-14.961222649 128.312942505,-14.921527863 128.3230896,-14.929416656 128.355560303,-15.049221992 " /><polygon class="region" points="151.450439453,-23.99858284 151.480697632,-24 151.54624939,-24.036500931 151.477249146,-24.042804718 151.450439453,-23.99858284 " /><polygon class="region" points="128.468811035,-14.915888786 128.460754395,-14.919055939 128.444381714,-14.880332947 128.462051392,-14.890999794 128.468811035,-14.915888786 " /><polygon class="region" points="150.926132202,-23.646972656 150.91796875,-23.658332825 150.903945923,-23.627721786 150.922637939,-23.626249313 150.926132202,-23.646972656 " /><polygon class="region" points="150.724029541,-23.530195236 150.706893921,-23.519277573 150.724716187,-23.501972198 150.731201172,-23.511278152 150.724029541,-23.530195236 " /><polygon class="region" points="151.192687988,-23.866083145 151.187866211,-23.848972321 151.205993652,-23.83833313 151.207717896,-23.852138519 151.192687988,-23.866083145 " />
		  </g>
		</svg>