<?xml version="1.0" encoding="UTF-8"?>
	<svg xmlns:xlink="http://www.w3.org/1999/xlink" 
	xmlns="http://www.w3.org/2000/svg" 
	width="360px" height="180px">
	   <style type="text/css">
		  <![CDATA[     
		  .region 
		  { 
			fill:blue; 
			opacity:0.4; 
			stroke:blue;
		  }
		  ]]>
	   </style>

	<circle id="dot" x="-2" y="-2" r="2" style="stroke:none; stroke-width:0; fill:black; opacity:0.7;"/>


	 <image x="0" y="0" width="360" height="180" xlink:href="map.jpg"/>

 
	 <g transform="translate(180,90) scale(1,-1)">   <use xlink:href="#dot" transform="translate(146.763963,-19.195042)" />   <use xlink:href="#dot" transform="translate(132.271592,-14.448252)" />   <use xlink:href="#dot" transform="translate(127,-16.1)" />   <use xlink:href="#dot" transform="translate(153.394687,-28.055929)" />   <use xlink:href="#dot" transform="translate(144.2,-14.9)" />   <use xlink:href="#dot" transform="translate(132.839813,-12.678233)" />   <use xlink:href="#dot" transform="translate(131.662334,-12.729517)" />   <use xlink:href="#dot" transform="translate(143.550201,-18.292864)" />   <use xlink:href="#dot" transform="translate(141.64673,-8.71219)" />   <use xlink:href="#dot" transform="translate(141.64673,-8.71219)" />   <use xlink:href="#dot" transform="translate(151.241913,-33.843022)" />   <use xlink:href="#dot" transform="translate(141.64673,-8.71219)" />   <use xlink:href="#dot" transform="translate(141.64673,-8.71219)" />   <use xlink:href="#dot" transform="translate(141.64673,-8.71219)" />   <use xlink:href="#dot" transform="translate(141.64673,-8.71219)" />   <use xlink:href="#dot" transform="translate(141.64673,-8.71219)" />   <use xlink:href="#dot" transform="translate(141.64673,-8.71219)" />   <use xlink:href="#dot" transform="translate(141.64673,-8.71219)" />   <use xlink:href="#dot" transform="translate(141.64673,-8.71219)" />   <use xlink:href="#dot" transform="translate(143.495278,-15.424167)" />   <use xlink:href="#dot" transform="translate(143.495278,-15.424167)" />   <use xlink:href="#dot" transform="translate(142.853333,-15.217778)" />   <use xlink:href="#dot" transform="translate(131.88284,-14.93246)" />   <use xlink:href="#dot" transform="translate(142.853333,-15.217778)" />   <use xlink:href="#dot" transform="translate(146.082503,-17.57428)" />   <use xlink:href="#dot" transform="translate(143.549866,-18.293268)" />   <use xlink:href="#dot" transform="translate(132.6237,-13.74152)" />   <use xlink:href="#dot" transform="translate(143.550079,-18.293001)" />   <use xlink:href="#dot" transform="translate(132.960673,-13.607396)" />   <use xlink:href="#dot" transform="translate(131.013426,-12.983177)" />   <use xlink:href="#dot" transform="translate(132.623356,-13.741233)" />   <use xlink:href="#dot" transform="translate(132.960163,-13.606434)" />   <use xlink:href="#dot" transform="translate(132.62437,-13.74413)" />   <use xlink:href="#dot" transform="translate(126.71958,-15.05611)" />   <use xlink:href="#dot" transform="translate(126.21153,-14.75517)" />   <use xlink:href="#dot" transform="translate(126.934639,-14.797694)" />   <use xlink:href="#dot" transform="translate(126.72263,-15.05611)" />   <use xlink:href="#dot" transform="translate(132.931112,-12.995794)" />   <use xlink:href="#dot" transform="translate(126.934306,-14.79775)" />   <use xlink:href="#dot" transform="translate(126.934639,-14.797694)" />   <use xlink:href="#dot" transform="translate(126.934639,-14.797694)" />   <use xlink:href="#dot" transform="translate(126.71958,-15.05611)" />   <use xlink:href="#dot" transform="translate(132.91917,-12.8867)" />   <use xlink:href="#dot" transform="translate(126.66505,-15.02725)" />   <use xlink:href="#dot" transform="translate(126.93219,-14.7968)" />   <use xlink:href="#dot" transform="translate(126.934306,-14.79775)" />   <use xlink:href="#dot" transform="translate(126.934639,-14.797694)" />   <use xlink:href="#dot" transform="translate(126.21153,-14.75517)" />   <use xlink:href="#dot" transform="translate(126.49537,-14.78851)" />   <use xlink:href="#dot" transform="translate(132.9178,-12.88873)" />   <use xlink:href="#dot" transform="translate(126.448889,-14.517778)" />   <use xlink:href="#dot" transform="translate(143.549866,-18.293268)" />   <use xlink:href="#dot" transform="translate(131.865766,-14.535022)" />   <use xlink:href="#dot" transform="translate(131.011973,-12.999703)" />   <use xlink:href="#dot" transform="translate(131.016165,-12.998175)" />   <use xlink:href="#dot" transform="translate(132.804602,-14.912245)" />   <use xlink:href="#dot" transform="translate(132.701383,-12.481606)" />   <use xlink:href="#dot" transform="translate(135.226909,-14.454051)" />   <use xlink:href="#dot" transform="translate(135.226913,-14.454051)" />   <use xlink:href="#dot" transform="translate(135.226909,-14.454051)" />   <use xlink:href="#dot" transform="translate(134.75133,-14.649419)" />   <use xlink:href="#dot" transform="translate(145.3734,-17.443717)" />   <use xlink:href="#dot" transform="translate(131.185,-13.476)" />   <use xlink:href="#dot" transform="translate(130.95,-12.58)" />   <use xlink:href="#dot" transform="translate(131.6478,-12.9067)" />   <use xlink:href="#dot" transform="translate(150.792864,-34.069295)" />   <use xlink:href="#dot" transform="translate(150.746083,-33.614871)" />   <use xlink:href="#dot" transform="translate(150.998905,-33.966747)" />   <use xlink:href="#dot" transform="translate(151.125359,-33.931904)" />   <use xlink:href="#dot" transform="translate(115.78958,-31.838125)" />   <use xlink:href="#dot" transform="translate(126.31283,-15.37945)" />   <use xlink:href="#dot" transform="translate(126.31336,-15.38021)" />   <use xlink:href="#dot" transform="translate(126.31283,-15.37945)" />   <use xlink:href="#dot" transform="translate(126.31336,-15.38021)" />   <use xlink:href="#dot" transform="translate(149.048798,-21.163174)" />   <use xlink:href="#dot" transform="translate(132.92223,-12.81956)" />   <use xlink:href="#dot" transform="translate(143.412297,-12.595894)" />   <use xlink:href="#dot" transform="translate(142.56453621854,-10.767317661196)" />   <use xlink:href="#dot" transform="translate(132.16414,-13.04923)" />   <use xlink:href="#dot" transform="translate(145.374617,-17.447583)" />   <use xlink:href="#dot" transform="translate(145.428722,-17.132727)" />   <use xlink:href="#dot" transform="translate(145.374,-17.4495)" />   <use xlink:href="#dot" transform="translate(131.910913,-14.217143)" />   <use xlink:href="#dot" transform="translate(131.910913,-14.217143)" />   <use xlink:href="#dot" transform="translate(131.909624,-14.216201)" />   <use xlink:href="#dot" transform="translate(131.910913,-14.217143)" />   <use xlink:href="#dot" transform="translate(130.993771,-14.331416)" />   <use xlink:href="#dot" transform="translate(131.99836,-14.140253)" />   <use xlink:href="#dot" transform="translate(130.993771,-14.331416)" />   <use xlink:href="#dot" transform="translate(131.998588,-14.139955)" />   <use xlink:href="#dot" transform="translate(130.89336,-14.25634)" />   <use xlink:href="#dot" transform="translate(148.116111,-21.2475)" />   <use xlink:href="#dot" transform="translate(130.893367,-14.256333)" />   <use xlink:href="#dot" transform="translate(130.893367,-14.256333)" />   <use xlink:href="#dot" transform="translate(116.22321,-31.888309)" />   <use xlink:href="#dot" transform="translate(136.449551,-13.977849)" />   <use xlink:href="#dot" transform="translate(126.495,-14.788333)" />   <use xlink:href="#dot" transform="translate(126.402222,-15.677222)" />   <use xlink:href="#dot" transform="translate(126.496944,-14.803056)" />   <use xlink:href="#dot" transform="translate(128.779444,-16.039722)" />   <use xlink:href="#dot" transform="translate(117.76144,-22.688386)" />   <use xlink:href="#dot" transform="translate(135.488833,-20.192567)" />   <use xlink:href="#dot" transform="translate(130.131305,-11.81927)" />   <use xlink:href="#dot" transform="translate(130.137771,-11.810428)" />   <use xlink:href="#dot" transform="translate(130.131342,-11.819159)" />   <use xlink:href="#dot" transform="translate(130.123947,-11.822273)" />   <use xlink:href="#dot" transform="translate(130.174267,-11.807025)" />   <use xlink:href="#dot" transform="translate(143.54982,-18.293261)" />   <use xlink:href="#dot" transform="translate(130.969432,-12.644723)" />   <use xlink:href="#dot" transform="translate(130.97006,-12.572036)" />   <use xlink:href="#dot" transform="translate(131.013908,-12.623039)" />   <use xlink:href="#dot" transform="translate(131.040895,-12.608514)" />   <use xlink:href="#dot" transform="translate(131.01026,-12.670936)" />   <use xlink:href="#dot" transform="translate(130.976381,-12.584063)" />   <use xlink:href="#dot" transform="translate(131.085,-12.6425)" />   <use xlink:href="#dot" transform="translate(131.127222,-12.51675)" />   <use xlink:href="#dot" transform="translate(131.074,-12.488444)" />   <use xlink:href="#dot" transform="translate(130.78503,-13.42679)" />   <use xlink:href="#dot" transform="translate(131.148222,-12.57)" />   <use xlink:href="#dot" transform="translate(131.106639,-12.514389)" />   <use xlink:href="#dot" transform="translate(131.181083,-12.619056)" />   <use xlink:href="#dot" transform="translate(131.089833,-12.449583)" />   <use xlink:href="#dot" transform="translate(131.087889,-12.459778)" />   <use xlink:href="#dot" transform="translate(131.136528,-12.468444)" />   <use xlink:href="#dot" transform="translate(131.122667,-12.539583)" />   <use xlink:href="#dot" transform="translate(131.104444,-12.508889)" />   <use xlink:href="#dot" transform="translate(131.077306,-12.680833)" />   <use xlink:href="#dot" transform="translate(131.087333,-12.604083)" />   <use xlink:href="#dot" transform="translate(131.112667,-12.520528)" />   <use xlink:href="#dot" transform="translate(131.144778,-12.569472)" />   <use xlink:href="#dot" transform="translate(131.013889,-12.623083)" />   <use xlink:href="#dot" transform="translate(131.135028,-12.465806)" />   <use xlink:href="#dot" transform="translate(131.114611,-12.524056)" />   <use xlink:href="#dot" transform="translate(131.186639,-12.591417)" />   <use xlink:href="#dot" transform="translate(131.044639,-12.689639)" />   <use xlink:href="#dot" transform="translate(131.1155,-12.522389)" />   <use xlink:href="#dot" transform="translate(131.122722,-12.537556)" />   <use xlink:href="#dot" transform="translate(131.085,-12.458611)" />   <use xlink:href="#dot" transform="translate(131.059556,-12.483333)" />   <use xlink:href="#dot" transform="translate(131.105667,-12.505944)" />   <use xlink:href="#dot" transform="translate(131.0845,-12.465139)" />   <use xlink:href="#dot" transform="translate(131.088667,-12.461861)" />   <use xlink:href="#dot" transform="translate(131.139722,-12.466694)" />   <use xlink:href="#dot" transform="translate(131.110639,-12.5135)" />   <use xlink:href="#dot" transform="translate(130.969389,-12.644722)" />   <use xlink:href="#dot" transform="translate(131.051056,-12.682472)" />   <use xlink:href="#dot" transform="translate(131.125639,-12.515694)" />   <use xlink:href="#dot" transform="translate(131.113306,-12.526528)" />   <use xlink:href="#dot" transform="translate(131.120917,-12.535917)" />   <use xlink:href="#dot" transform="translate(130.78731,-13.42659)" />   <use xlink:href="#dot" transform="translate(131.592,-12.847)" />   <use xlink:href="#dot" transform="translate(136.112948,-16.427261)" />   <use xlink:href="#dot" transform="translate(130.845,-12.382)" />   <use xlink:href="#dot" transform="translate(130.71172,-13.85028)" />   <use xlink:href="#dot" transform="translate(130.73302,-13.83008)" />   <use xlink:href="#dot" transform="translate(115.789312,-31.876502)" />   <use xlink:href="#dot" transform="translate(134.08062,-12.650793)" />   <use xlink:href="#dot" transform="translate(131.04832,-14.08033)" />   <use xlink:href="#dot" transform="translate(130.94344,-14.13111)" />   <use xlink:href="#dot" transform="translate(115.818257,-31.981725)" />   <use xlink:href="#dot" transform="translate(136.60669,-12.96034)" />   <use xlink:href="#dot" transform="translate(130.96816,-13.8117)" />   <use xlink:href="#dot" transform="translate(130.96861,-13.8055)" />   <use xlink:href="#dot" transform="translate(145.0333,-16.0667)" />   <use xlink:href="#dot" transform="translate(145.0333,-16.0667)" />   <use xlink:href="#dot" transform="translate(145.0333,-16.0667)" />   <use xlink:href="#dot" transform="translate(131.3,-12.55)" />   <use xlink:href="#dot" transform="translate(131.3,-12.55)" />   <use xlink:href="#dot" transform="translate(131.3,-12.55)" />   <use xlink:href="#dot" transform="translate(131.3,-12.55)" />   <use xlink:href="#dot" transform="translate(134.07024,-12.32506)" />   <use xlink:href="#dot" transform="translate(146.595726,-19.33609)" />   <use xlink:href="#dot" transform="translate(134.09198,-12.5434)" />   <use xlink:href="#dot" transform="translate(132.14386,-11.15511)" />   <use xlink:href="#dot" transform="translate(132.14386,-11.15511)" />   <use xlink:href="#dot" transform="translate(132.14386,-11.15511)" />   <use xlink:href="#dot" transform="translate(134.19783,-12.29135)" />   <use xlink:href="#dot" transform="translate(131.082,-12.537)" />   <use xlink:href="#dot" transform="translate(138.478305,-18.714259)" />   <use xlink:href="#dot" transform="translate(130.992193,-12.606608)" />   <use xlink:href="#dot" transform="translate(131.369705,-12.681373)" />   <use xlink:href="#dot" transform="translate(130.99216,-12.61879)" />   <use xlink:href="#dot" transform="translate(131.06682,-12.45772)" />   <use xlink:href="#dot" transform="translate(130.95179,-12.41413)" />   <use xlink:href="#dot" transform="translate(130.9461,-12.42886)" />   <use xlink:href="#dot" transform="translate(130.86674,-12.37085)" />   <use xlink:href="#dot" transform="translate(133.540708,-17.539876)" />   <use xlink:href="#dot" transform="translate(130.91556,-12.39015)" />   <use xlink:href="#dot" transform="translate(133.540708,-17.539876)" />   <use xlink:href="#dot" transform="translate(130.93725,-12.42638)" />   <use xlink:href="#dot" transform="translate(131.08,-12.55062)" />   <use xlink:href="#dot" transform="translate(131.08,-12.55062)" />   <use xlink:href="#dot" transform="translate(130.9461,-12.42886)" />   <use xlink:href="#dot" transform="translate(131.08867,-12.53216)" />   <use xlink:href="#dot" transform="translate(131.06682,-12.45772)" />   <use xlink:href="#dot" transform="translate(130.9461,-12.42886)" />   <use xlink:href="#dot" transform="translate(130.94422,-12.41025)" />   <use xlink:href="#dot" transform="translate(130.91556,-12.39015)" />   <use xlink:href="#dot" transform="translate(130.94422,-12.41025)" />   <use xlink:href="#dot" transform="translate(131.03849,-12.49627)" />   <use xlink:href="#dot" transform="translate(131.06682,-12.45772)" />   <use xlink:href="#dot" transform="translate(131.02573,-12.51221)" />   <use xlink:href="#dot" transform="translate(130.86887,-12.36195)" />   <use xlink:href="#dot" transform="translate(130.94428,-12.44026)" />   <use xlink:href="#dot" transform="translate(131.03849,-12.49627)" />   <use xlink:href="#dot" transform="translate(130.91321,-12.4118)" />   <use xlink:href="#dot" transform="translate(131.08867,-12.53216)" />   <use xlink:href="#dot" transform="translate(130.98309,-12.45972)" />   <use xlink:href="#dot" transform="translate(130.93725,-12.42638)" />   <use xlink:href="#dot" transform="translate(131.08,-12.55062)" />   <use xlink:href="#dot" transform="translate(130.98309,-12.45972)" />   <use xlink:href="#dot" transform="translate(130.95179,-12.41413)" />   <use xlink:href="#dot" transform="translate(130.86887,-12.36195)" />   <use xlink:href="#dot" transform="translate(130.98309,-12.45972)" />   <use xlink:href="#dot" transform="translate(130.94755,-12.46169)" />   <use xlink:href="#dot" transform="translate(131.06682,-12.45772)" />   <use xlink:href="#dot" transform="translate(130.93725,-12.42638)" />   <use xlink:href="#dot" transform="translate(131.08,-12.55062)" />   <use xlink:href="#dot" transform="translate(130.94428,-12.44026)" />   <use xlink:href="#dot" transform="translate(130.94428,-12.44026)" />   <use xlink:href="#dot" transform="translate(130.95179,-12.41413)" />   <use xlink:href="#dot" transform="translate(130.94422,-12.41025)" />   <use xlink:href="#dot" transform="translate(130.86887,-12.36195)" />   <use xlink:href="#dot" transform="translate(131.12256,-12.53946)" />   <use xlink:href="#dot" transform="translate(131.12256,-12.53946)" />   <use xlink:href="#dot" transform="translate(130.94428,-12.44026)" />   <use xlink:href="#dot" transform="translate(131.12256,-12.53946)" />   <use xlink:href="#dot" transform="translate(131.08867,-12.53216)" />   <use xlink:href="#dot" transform="translate(130.98309,-12.45972)" />   <use xlink:href="#dot" transform="translate(131.03849,-12.49627)" />   <use xlink:href="#dot" transform="translate(130.94422,-12.41025)" />   <use xlink:href="#dot" transform="translate(131.08867,-12.53216)" />   <use xlink:href="#dot" transform="translate(131.12256,-12.53946)" />   <use xlink:href="#dot" transform="translate(130.9461,-12.42886)" />   <use xlink:href="#dot" transform="translate(130.86674,-12.37085)" />   <use xlink:href="#dot" transform="translate(130.86887,-12.36195)" />   <use xlink:href="#dot" transform="translate(130.90259,-12.43236)" />   <use xlink:href="#dot" transform="translate(131.08867,-12.53216)" />   <use xlink:href="#dot" transform="translate(133.447183,-17.39433)" />   <use xlink:href="#dot" transform="translate(130.95179,-12.41413)" />   <use xlink:href="#dot" transform="translate(130.91321,-12.4118)" />   <use xlink:href="#dot" transform="translate(130.91321,-12.4118)" />   <use xlink:href="#dot" transform="translate(131.12256,-12.53946)" />   <use xlink:href="#dot" transform="translate(130.93725,-12.42638)" />   <use xlink:href="#dot" transform="translate(130.91556,-12.39015)" />   <use xlink:href="#dot" transform="translate(130.91556,-12.39015)" />   <use xlink:href="#dot" transform="translate(131.08867,-12.53216)" />   <use xlink:href="#dot" transform="translate(131.12256,-12.53946)" />   <use xlink:href="#dot" transform="translate(130.95179,-12.41413)" />   <use xlink:href="#dot" transform="translate(131.06682,-12.45772)" />   <use xlink:href="#dot" transform="translate(130.93725,-12.42638)" />   <use xlink:href="#dot" transform="translate(130.95179,-12.41413)" />   <use xlink:href="#dot" transform="translate(131.06682,-12.45772)" />   <use xlink:href="#dot" transform="translate(131.06682,-12.45772)" />   <use xlink:href="#dot" transform="translate(131.03849,-12.49627)" />   <use xlink:href="#dot" transform="translate(130.86887,-12.36195)" />   <use xlink:href="#dot" transform="translate(130.86887,-12.36195)" />   <use xlink:href="#dot" transform="translate(130.91321,-12.4118)" />   <use xlink:href="#dot" transform="translate(130.93725,-12.42638)" />   <use xlink:href="#dot" transform="translate(130.93725,-12.42638)" />   <use xlink:href="#dot" transform="translate(130.94422,-12.41025)" />   <use xlink:href="#dot" transform="translate(130.94428,-12.44026)" />   <use xlink:href="#dot" transform="translate(130.98309,-12.45972)" />   <use xlink:href="#dot" transform="translate(130.94422,-12.41025)" />   <use xlink:href="#dot" transform="translate(130.91321,-12.4118)" />   <use xlink:href="#dot" transform="translate(131.03849,-12.49627)" />   <use xlink:href="#dot" transform="translate(136.74585,-12.206119)" />   <use xlink:href="#dot" transform="translate(130.91556,-12.39015)" />   <use xlink:href="#dot" transform="translate(130.9461,-12.42886)" />   <use xlink:href="#dot" transform="translate(130.86887,-12.36195)" />   <use xlink:href="#dot" transform="translate(131.12256,-12.53946)" />   <use xlink:href="#dot" transform="translate(131.08872,-12.56216)" />   <use xlink:href="#dot" transform="translate(131.03849,-12.49627)" />   <use xlink:href="#dot" transform="translate(131.12256,-12.53946)" />   <use xlink:href="#dot" transform="translate(130.95179,-12.41413)" />   <use xlink:href="#dot" transform="translate(131.03849,-12.49627)" />   <use xlink:href="#dot" transform="translate(130.91556,-12.39015)" />   <use xlink:href="#dot" transform="translate(130.91321,-12.4118)" />   <use xlink:href="#dot" transform="translate(130.9461,-12.42886)" />   <use xlink:href="#dot" transform="translate(130.9461,-12.42886)" />   <use xlink:href="#dot" transform="translate(131.08,-12.55062)" />   <use xlink:href="#dot" transform="translate(131.08867,-12.53216)" />   <use xlink:href="#dot" transform="translate(131.08872,-12.56216)" />   <use xlink:href="#dot" transform="translate(130.94428,-12.44026)" />   <use xlink:href="#dot" transform="translate(130.98309,-12.45972)" />   <use xlink:href="#dot" transform="translate(131.06682,-12.45772)" />   <use xlink:href="#dot" transform="translate(130.94422,-12.41025)" />   <use xlink:href="#dot" transform="translate(130.94428,-12.44026)" />   <use xlink:href="#dot" transform="translate(130.94428,-12.44026)" />   <use xlink:href="#dot" transform="translate(130.86887,-12.36195)" />   <use xlink:href="#dot" transform="translate(131.08867,-12.53216)" />   <use xlink:href="#dot" transform="translate(130.98309,-12.45972)" />   <use xlink:href="#dot" transform="translate(130.91321,-12.4118)" />   <use xlink:href="#dot" transform="translate(130.95179,-12.41413)" />   <use xlink:href="#dot" transform="translate(131.08867,-12.53216)" />   <use xlink:href="#dot" transform="translate(130.94422,-12.41025)" />   <use xlink:href="#dot" transform="translate(130.9461,-12.42886)" />   <use xlink:href="#dot" transform="translate(131.08872,-12.56216)" />   <use xlink:href="#dot" transform="translate(132.91917,-12.8867)" />   <use xlink:href="#dot" transform="translate(132.91917,-12.8867)" /><polygon class="region" points="115.818257,-31.981725 115.789312,-31.876502 115.78958,-31.838125 117.76144,-22.688386 126.448889,-14.517778 130.137771,-11.810428 132.14386,-11.15511 141.64673,-8.71219 153.394687,-28.055929 151.241913,-33.843022 151.125359,-33.931904 150.792864,-34.069295 115.818257,-31.981725 " />
		  </g>
		</svg>