<?xml version="1.0" encoding="UTF-8"?>
	<svg xmlns:xlink="http://www.w3.org/1999/xlink" 
	xmlns="http://www.w3.org/2000/svg" 
	width="360px" height="180px">
	   <style type="text/css">
		  <![CDATA[     
		  .region 
		  { 
			fill:blue; 
			opacity:0.4; 
			stroke:blue;
		  }
		  ]]>
	   </style>

	<circle id="dot" x="-2" y="-2" r="2" style="stroke:none; stroke-width:0; fill:black; opacity:0.7;"/>


	 <image x="0" y="0" width="360" height="180" xlink:href="map.jpg"/>

 
	 <g transform="translate(180,90) scale(1,-1)">   <use xlink:href="#dot" transform="translate(145.562335,-16.804089)" />   <use xlink:href="#dot" transform="translate(145.633736,-16.824321)" />   <use xlink:href="#dot" transform="translate(145.63803,-16.82296)" />   <use xlink:href="#dot" transform="translate(145.63803,-16.82296)" />   <use xlink:href="#dot" transform="translate(145.63803,-16.82296)" />   <use xlink:href="#dot" transform="translate(145.63803,-16.82296)" />   <use xlink:href="#dot" transform="translate(145.63803,-16.82296)" />   <use xlink:href="#dot" transform="translate(145.63803,-16.82296)" />   <use xlink:href="#dot" transform="translate(145.63803,-16.82296)" />   <use xlink:href="#dot" transform="translate(145.63803,-16.82296)" />   <use xlink:href="#dot" transform="translate(145.63803,-16.82296)" />   <use xlink:href="#dot" transform="translate(145.63803,-16.82296)" />   <use xlink:href="#dot" transform="translate(145.63803,-16.82296)" />   <use xlink:href="#dot" transform="translate(145.63803,-16.82296)" />   <use xlink:href="#dot" transform="translate(145.63803,-16.82296)" />   <use xlink:href="#dot" transform="translate(145.63803,-16.82296)" />   <use xlink:href="#dot" transform="translate(145.63803,-16.82296)" />   <use xlink:href="#dot" transform="translate(145.63803,-16.82296)" />   <use xlink:href="#dot" transform="translate(145.63803,-16.82296)" />   <use xlink:href="#dot" transform="translate(145.63803,-16.82296)" />   <use xlink:href="#dot" transform="translate(145.63803,-16.82296)" />   <use xlink:href="#dot" transform="translate(145.63803,-16.82296)" />   <use xlink:href="#dot" transform="translate(145.63803,-16.82296)" />   <use xlink:href="#dot" transform="translate(145.63803,-16.82296)" />   <use xlink:href="#dot" transform="translate(145.63803,-16.82296)" />   <use xlink:href="#dot" transform="translate(145.63803,-16.82296)" />   <use xlink:href="#dot" transform="translate(145.63803,-16.82296)" />   <use xlink:href="#dot" transform="translate(145.63896061951,-16.820894193913)" />   <use xlink:href="#dot" transform="translate(145.59034909328,-16.801450396302)" />   <use xlink:href="#dot" transform="translate(145.63896061951,-16.820894193913)" />   <use xlink:href="#dot" transform="translate(145.63896061951,-16.820894193913)" />   <use xlink:href="#dot" transform="translate(145.63896061951,-16.820894193913)" />   <use xlink:href="#dot" transform="translate(145.63896061951,-16.820894193913)" />   <use xlink:href="#dot" transform="translate(145.63896061951,-16.820894193913)" />   <use xlink:href="#dot" transform="translate(145.64090460457,-16.823116180084)" /><polygon class="region" points="145.633736,-16.824321 145.562335,-16.804089 145.59034909328,-16.801450396302 145.63896061951,-16.820894193913 145.64090460457,-16.823116180084 145.633736,-16.824321 " />
		  </g>
		</svg>