<?xml version="1.0" encoding="UTF-8"?>
	<svg xmlns:xlink="http://www.w3.org/1999/xlink" 
	xmlns="http://www.w3.org/2000/svg" 
	width="360px" height="180px">
	   <style type="text/css">
		  <![CDATA[     
		  .region 
		  { 
			fill:blue; 
			opacity:0.4; 
			stroke:blue;
		  }
		  ]]>
	   </style>

	<circle id="dot" x="-2" y="-2" r="2" style="stroke:none; stroke-width:0; fill:black; opacity:0.7;"/>


	 <image x="0" y="0" width="360" height="180" xlink:href="map.jpg"/>

 
	 <g transform="translate(180,90) scale(1,-1)">   <use xlink:href="#dot" transform="translate(-53.166667,3.616667)" />   <use xlink:href="#dot" transform="translate(-53.166667,3.616667)" />   <use xlink:href="#dot" transform="translate(-59.0453,5.2186)" />   <use xlink:href="#dot" transform="translate(-59.0453,5.2186)" />   <use xlink:href="#dot" transform="translate(-64.563333,-10.321389)" />   <use xlink:href="#dot" transform="translate(-59.0453,5.2186)" />   <use xlink:href="#dot" transform="translate(-64.563333,-10.321389)" />   <use xlink:href="#dot" transform="translate(-59.0453,5.2186)" />   <use xlink:href="#dot" transform="translate(-59.0453,5.2186)" />   <use xlink:href="#dot" transform="translate(-65.716556,-8.479389)" />   <use xlink:href="#dot" transform="translate(-72.776972,-8.258667)" />   <use xlink:href="#dot" transform="translate(-72.776972,-8.258667)" />   <use xlink:href="#dot" transform="translate(-72.776972,-8.258667)" />   <use xlink:href="#dot" transform="translate(-72.776972,-8.258667)" />   <use xlink:href="#dot" transform="translate(-72.776972,-8.258667)" />   <use xlink:href="#dot" transform="translate(-72.776972,-8.258667)" />   <use xlink:href="#dot" transform="translate(-72.776972,-8.258667)" />   <use xlink:href="#dot" transform="translate(-72.776972,-8.258667)" />   <use xlink:href="#dot" transform="translate(-72.776972,-8.258667)" />   <use xlink:href="#dot" transform="translate(-72.776972,-8.258667)" />   <use xlink:href="#dot" transform="translate(-72.776972,-8.258667)" />   <use xlink:href="#dot" transform="translate(-72.776972,-8.258667)" />   <use xlink:href="#dot" transform="translate(-72.776972,-8.258667)" />   <use xlink:href="#dot" transform="translate(-72.776972,-8.258667)" />   <use xlink:href="#dot" transform="translate(-72.776972,-8.258667)" />   <use xlink:href="#dot" transform="translate(-72.776972,-8.258667)" />   <use xlink:href="#dot" transform="translate(-72.776972,-8.258667)" />   <use xlink:href="#dot" transform="translate(-72.776972,-8.258667)" />   <use xlink:href="#dot" transform="translate(-72.776972,-8.258667)" />   <use xlink:href="#dot" transform="translate(-74.892106,4.95676)" /><polygon class="region" points="-72.776972,-8.258667 -74.892106,4.95676 -59.0453,5.2186 -53.166667,3.616667 -64.563333,-10.321389 -72.776972,-8.258667 " />
		  </g>
		</svg>