<?xml version="1.0" encoding="UTF-8"?>
	<svg xmlns:xlink="http://www.w3.org/1999/xlink" 
	xmlns="http://www.w3.org/2000/svg" 
	width="360px" height="180px">
	   <style type="text/css">
		  <![CDATA[     
		  .region 
		  { 
			fill:blue; 
			opacity:0.4; 
			stroke:blue;
		  }
		  ]]>
	   </style>

	<circle id="dot" x="-2" y="-2" r="2" style="stroke:none; stroke-width:0; fill:black; opacity:0.7;"/>


	 <image x="0" y="0" width="360" height="180" xlink:href="map.jpg"/>

 
	 <g transform="translate(180,90) scale(1,-1)"><polygon class="region" points="20.2318,39.406635593 20.1108,39.730635593 20.599,40.251335593 20.5339,41.064935593 20.6641,41.357835593 21.38,41.292735593 21.7992,41.853635593 21.8106,42.558635593 21.6116,43.275035593 20.4631,44.834535593 20.4483,45.287635593 21.7878,44.895435593 23.1637,44.878335593 23.2718,44.571335593 22.8169,44.417835593 22.3791,43.889035593 22.544,43.485435593 22.9704,43.098835593 22.4758,42.786135593 22.4474,42.263035593 23.0774,41.961935593 23.6489,41.368435593 25.4038,41.120535593 26.2901,41.348635593 26.1965,41.781035593 25.7849,42.015535593 26.3765,42.158535593 26.4809,42.569935593 27.1195,42.506335593 28.0557,43.622835593 26.9384,44.056635593 26.2645,43.961035593 25.4912,43.590535593 24.719,43.673535593 24.1962,43.150735593 23.9535,43.132035593 23.9722,43.393435593 24.6989,43.972135593 25.7083,44.026435593 26.9449,44.351835593 28.0839,44.319335593 28.865,45.100335593 29.1904,45.263035593 29.6772,45.133935593 29.6093,44.857135593 29.0966,44.757135593 28.656,44.339735593 28.5931,43.498335593 28.0051,43.300135593 27.8557,42.814635593 27.4551,42.481435593 27.7364,42.412235593 28.1541,41.590435593 28.7999,41.309935593 28.6905,40.975335593 27.9538,41.325335593 27.1727,41.162535593 26.0988,40.674435593 25.9524,40.850635593 25.1413,41.011735593 24.8097,40.854035593 24.4335,40.946235593 23.7036,40.699035593 23.9219,40.546235593 23.8857,40.409935593 24.0218,40.457735593 24.4049,40.145435593 23.7421,40.360035593 24.0033,40.114135593 23.9362,39.939135593 23.663,40.231435593 23.3469,40.232335593 23.7106,39.909535593 23.3602,39.957035593 23.3195,40.231535593 22.9005,40.382335593 22.9544,40.637635593 22.6471,40.551135593 22.5979,40.023235593 23.3532,39.189635593 23.2054,39.100135593 23.0602,39.096035593 23.2203,39.192335593 22.9388,39.361635593 22.8228,39.222235593 23.0583,39.020735593 22.5247,38.877235593 23.0885,38.575335593 22.9117,38.191835593 22.4178,38.442435593 21.4908,38.301035593 21.3183,38.497235593 21.1485,38.301235593 21.1011,38.552235593 20.7339,38.815235593 20.7712,38.957035593 21.1736,38.869035593 21.1184,39.041235593 20.8091,39.063235593 20.7425,38.947135593 20.2318,39.406635593 " /><polygon class="region" points="49.3171,39.435535593 49.4357,39.268335593 49.2568,39.317435593 49.196,39.022735593 49.1004,38.938835593 49.2082,39.089035593 49.014,39.216635593 48.8212,38.861135593 48.9326,37.900935593 49.2243,37.555735593 50.1896,37.389535593 50.483,37.023035593 51.6733,36.599235593 54.0257,36.947335593 53.5766,36.811935593 53.9366,36.787835593 54.037,36.954935593 54.4657,36.956635593 54.5222,36.730535593 51.9933,36.236035593 51.5129,36.278435593 47.9455,37.645335593 45.4554,37.980935593 45.0845,38.175135593 44.8903,38.528435593 44.59,39.499735593 44.6397,39.808935593 44.3157,40.053235593 44.4752,40.272535593 44.8875,40.386935593 45.0013,40.110535593 45.7492,39.785335593 45.9902,39.016535593 46.5684,39.056435593 47.286,39.714335593 46.9671,40.132935593 45.8108,41.010135593 44.5748,41.468635593 44.7543,41.787635593 46.3491,41.289235593 47.2661,40.631335593 49.4214,40.088935593 49.3171,39.435535593 " /><polygon class="region" points="26.7265,40.396835593 27.288,40.480435593 27.769,40.318135593 27.8835,40.383935593 27.6951,40.485835593 27.782,40.535435593 28.0374,40.489235593 27.9602,40.361035593 29.0598,40.370635593 29.1552,40.445235593 28.7856,40.544735593 29.9384,40.729335593 29.2659,40.811635593 29.0155,41.029435593 29.1776,41.230335593 30.8286,41.084235593 30.4627,39.889735593 29.3483,39.141335593 29.3151,37.511335593 29.0678,36.684435593 28.9287,36.754635593 28.8476,36.590235593 28.4574,36.882935593 28.034,36.563435593 28.1197,36.807535593 27.6774,36.659435593 27.3666,36.685035593 28.0341,36.788935593 28.0254,36.930235593 28.3315,37.050435593 27.2652,36.968135593 27.2551,37.127235593 27.4705,37.083835593 27.6131,37.274435593 27.4591,37.253735593 27.4156,37.415235593 27.1907,37.355035593 27.2168,37.588635593 27.0068,37.666035593 27.2398,37.732835593 27.2719,37.966235593 26.2342,38.275935593 26.5161,38.428035593 26.3935,38.450935593 26.4157,38.682235593 26.6781,38.315835593 26.7111,38.434735593 26.8128,38.359635593 27.1683,38.449935593 26.7233,38.652335593 27.0654,38.881035593 26.8196,38.943335593 26.8884,39.089735593 26.6107,39.281335593 26.9373,39.575235593 26.064,39.485435593 26.1828,40.000035593 26.7265,40.396835593 " /><polygon class="region" points="44.0846,38.057135593 42.3405,38.474935593 42.7478,39.414835593 43.3849,39.749035593 43.8758,39.550635593 44.3353,38.172035593 44.0846,38.057135593 " /><polygon class="region" points="36.4521,37.380435593 37.102,37.253335593 37.8084,36.772935593 37.102,36.631635593 36.664,36.857735593 36.551,36.490335593 36.6919,36.277635593 36.3673,36.221935593 36.3956,36.010035593 36.1695,35.826835593 35.9294,35.939335593 35.7888,36.308335593 36.1987,36.598635593 36.1247,36.885435593 35.3504,36.543035593 34.8415,36.815335593 35.4066,37.295735593 36.4521,37.380435593 " /><polygon class="region" points="32.0814,37.644135593 31.5978,37.834635593 31.3905,38.311235593 31.581,38.794835593 32.0577,39.002135593 32.5413,38.811635593 32.7485,38.334935593 32.558,37.851335593 32.0814,37.644135593 " /><polygon class="region" points="21.8464,38.337235593 22.7788,37.997835593 22.7468,37.289935593 22.5678,37.094635593 22.2912,37.029535593 21.6567,37.253635593 21.5849,37.521835593 21.1063,37.853335593 21.3713,38.215635593 21.6093,38.146435593 21.8464,38.337235593 " /><polygon class="region" points="32.8268,39.168135593 32.3077,39.291635593 32.2118,39.614235593 32.36,39.875735593 32.9178,39.954135593 33.284,39.701335593 33.2229,39.309135593 32.8268,39.168135593 " /><polygon class="region" points="43.2571,40.156335593 42.6956,40.208535593 42.6643,40.511435593 43.1238,40.929135593 43.5207,41.012735593 43.6251,40.198135593 43.2571,40.156335593 " /><polygon class="region" points="31.4442,36.934335593 31.4219,36.761435593 30.6794,36.887135593 30.563,36.656635593 30.4499,37.072535593 30.6768,37.321135593 30.893,37.304935593 31.4442,36.934335593 " /><polygon class="region" points="34.9428,42.100435593 35.2216,42.015735593 35.0921,41.917735593 35.266,41.726235593 35.0418,41.563535593 34.6058,41.535235593 34.3058,41.806935593 34.3081,41.945935593 34.7822,41.955835593 34.9428,42.100435593 " /><polygon class="region" points="47.8627,42.321635593 48.0741,42.305335593 48.4811,41.739135593 48.3271,41.623535593 47.8302,41.915135593 47.7327,42.110235593 47.8627,42.321635593 " /><polygon class="region" points="34.7426,38.580035593 34.4883,38.872835593 34.7426,39.176135593 34.9969,38.883235593 34.7426,38.580035593 " /><polygon class="region" points="36.4592,40.654735593 36.2402,40.908035593 36.4554,41.170335593 36.6782,40.912535593 36.4592,40.654735593 " /><polygon class="region" points="35.1371,32.019935593 34.7331,32.004635593 34.9079,32.539535593 35.2864,32.154335593 35.1371,32.019935593 " /><polygon class="region" points="27.247,45.264335593 27.039,45.432635593 27.2074,45.640635593 27.4154,45.472235593 27.247,45.264335593 " /><polygon class="region" points="34.0838,36.317235593 33.9586,36.212235593 33.7192,36.288935593 33.9246,36.537535593 34.1407,36.499735593 34.0838,36.317235593 " /><polygon class="region" points="35.4433,33.063835593 35.5455,32.971035593 35.3708,32.740535593 35.3022,33.052935593 35.4433,33.063835593 " /><polygon class="region" points="35.796,32.895035593 35.6805,33.064635593 35.7848,33.323135593 35.8446,33.186635593 35.796,32.895035593 " /><polygon class="region" points="24.5316,42.057235593 24.2166,42.110935593 24.143,42.218135593 24.5094,42.164535593 24.5316,42.057235593 " /><polygon class="region" points="26.3062,39.326735593 26.3087,39.135535593 26.1166,39.135535593 26.1081,39.314135593 26.3062,39.326735593 " /><polygon class="region" points="24.6544,40.806235593 24.7895,40.741335593 24.6486,40.578335593 24.5153,40.664735593 24.6544,40.806235593 " /><polygon class="region" points="35.813,33.731735593 35.7906,33.750435593 35.8097,33.774335593 35.8332,33.754935593 35.813,33.731735593 " /><polygon class="region" points="35.7425,33.463835593 35.7199,33.479635593 35.7359,33.502335593 35.759,33.483235593 35.7425,33.463835593 " /><polygon class="region" points="26.7147,40.395535593 26.7265,40.396835593 26.7112,40.391035593 26.7147,40.395535593 " /><polygon class="region" points="20.2279,39.413035593 20.2318,39.406635593 20.2249,39.409735593 20.2279,39.413035593 " /><polygon class="region" points="35.9643,31.989335593 35.7371,32.216435593 35.9683,32.443635593 36.1915,32.212535593 35.9643,31.989335593 " />
		  </g>
		</svg>