<?xml version="1.0" encoding="UTF-8"?>
	<svg xmlns:xlink="http://www.w3.org/1999/xlink" 
	xmlns="http://www.w3.org/2000/svg" 
	width="360px" height="180px">
	   <style type="text/css">
		  <![CDATA[     
		  .region 
		  { 
			fill:blue; 
			opacity:0.4; 
			stroke:blue;
		  }
		  ]]>
	   </style>

	<circle id="dot" x="-2" y="-2" r="2" style="stroke:none; stroke-width:0; fill:black; opacity:0.7;"/>


	 <image x="0" y="0" width="360" height="180" xlink:href="map.jpg"/>

 
	 <g transform="translate(180,90) scale(1,-1)">   <use xlink:href="#dot" transform="translate(-50.239917,-24.578778)" />   <use xlink:href="#dot" transform="translate(-57.7517,-30.5217)" />   <use xlink:href="#dot" transform="translate(-50.1993,-29.48125)" />   <use xlink:href="#dot" transform="translate(-50.1993,-29.48125)" />   <use xlink:href="#dot" transform="translate(-54.1,-31.33333)" />   <use xlink:href="#dot" transform="translate(-54.1,-31.33333)" />   <use xlink:href="#dot" transform="translate(-54.1,-31.33333)" />   <use xlink:href="#dot" transform="translate(-54.1,-31.33333)" />   <use xlink:href="#dot" transform="translate(-62,8)" />   <use xlink:href="#dot" transform="translate(99.51667,11.2)" />   <use xlink:href="#dot" transform="translate(99.51667,11.2)" />   <use xlink:href="#dot" transform="translate(-49.429167,-26.098333)" />   <use xlink:href="#dot" transform="translate(-48.759722,-24.22)" />   <use xlink:href="#dot" transform="translate(-54.95,-34.7)" />   <use xlink:href="#dot" transform="translate(-54.95,-34.7)" />   <use xlink:href="#dot" transform="translate(-54.95,-34.7)" />   <use xlink:href="#dot" transform="translate(-54.95,-34.7)" />   <use xlink:href="#dot" transform="translate(-54.95,-34.7)" />   <use xlink:href="#dot" transform="translate(-50.325833,-27.816111)" />   <use xlink:href="#dot" transform="translate(-50.583333,-29.448333)" />   <use xlink:href="#dot" transform="translate(-50.583333,-29.448333)" />   <use xlink:href="#dot" transform="translate(-50.583333,-29.448333)" />   <use xlink:href="#dot" transform="translate(-50.780556,-29.650833)" />   <use xlink:href="#dot" transform="translate(-50.325833,-27.816111)" />   <use xlink:href="#dot" transform="translate(-50.583333,-29.448333)" />   <use xlink:href="#dot" transform="translate(-50.325833,-27.816111)" />   <use xlink:href="#dot" transform="translate(-50.325833,-27.816111)" />   <use xlink:href="#dot" transform="translate(-49.378333,-26.250556)" />   <use xlink:href="#dot" transform="translate(-49.378333,-26.250556)" />   <use xlink:href="#dot" transform="translate(-49.378333,-26.250556)" />   <use xlink:href="#dot" transform="translate(-52.098333,-32.035)" />   <use xlink:href="#dot" transform="translate(-49.2961,-26.1936)" />   <use xlink:href="#dot" transform="translate(-49.2961,-26.1936)" />   <use xlink:href="#dot" transform="translate(-49.624444,-28.336944)" />   <use xlink:href="#dot" transform="translate(-49.624444,-28.336944)" />   <use xlink:href="#dot" transform="translate(-49.624444,-28.336944)" />   <use xlink:href="#dot" transform="translate(-51.148056,-29.824722)" />   <use xlink:href="#dot" transform="translate(-51.148056,-29.824722)" />   <use xlink:href="#dot" transform="translate(-60.16889,-32.60917)" />   <use xlink:href="#dot" transform="translate(-60.16889,-32.60917)" />   <use xlink:href="#dot" transform="translate(-49.274167,-26.738333)" />   <use xlink:href="#dot" transform="translate(-51.2,-30.03333)" />   <use xlink:href="#dot" transform="translate(-50.13333,-29.96667)" />   <use xlink:href="#dot" transform="translate(-50.13333,-29.96667)" />   <use xlink:href="#dot" transform="translate(-50.13333,-29.96667)" />   <use xlink:href="#dot" transform="translate(-50.13333,-29.96667)" />   <use xlink:href="#dot" transform="translate(-50.13333,-29.96667)" />   <use xlink:href="#dot" transform="translate(-50.13333,-29.96667)" />   <use xlink:href="#dot" transform="translate(-50.13333,-29.96667)" />   <use xlink:href="#dot" transform="translate(-50.13333,-29.96667)" />   <use xlink:href="#dot" transform="translate(-50.13333,-29.96667)" />   <use xlink:href="#dot" transform="translate(-50.13333,-29.96667)" />   <use xlink:href="#dot" transform="translate(-50.13333,-29.96667)" />   <use xlink:href="#dot" transform="translate(-50.13333,-29.96667)" />   <use xlink:href="#dot" transform="translate(-51.15,-29.76667)" />   <use xlink:href="#dot" transform="translate(-51.15,-29.76667)" />   <use xlink:href="#dot" transform="translate(-51.15,-29.76667)" />   <use xlink:href="#dot" transform="translate(-49.25,-25.4167)" />   <use xlink:href="#dot" transform="translate(-49.25,-25.4167)" />   <use xlink:href="#dot" transform="translate(-49.25,-25.4167)" />   <use xlink:href="#dot" transform="translate(-49.33333,-26.28333)" />   <use xlink:href="#dot" transform="translate(-49.33333,-26.28333)" />   <use xlink:href="#dot" transform="translate(-54.1333,-26.6333)" />   <use xlink:href="#dot" transform="translate(-49.33333,-26.28333)" />   <use xlink:href="#dot" transform="translate(-49.33333,-26.28333)" />   <use xlink:href="#dot" transform="translate(-49.33333,-26.28333)" />   <use xlink:href="#dot" transform="translate(-53.434436,-30.189344)" />   <use xlink:href="#dot" transform="translate(-51.2,-30.03333)" />   <use xlink:href="#dot" transform="translate(-51.2,-30.03333)" />   <use xlink:href="#dot" transform="translate(-50.3833,-25.4667)" />   <use xlink:href="#dot" transform="translate(-52.3167,-27.2667)" />   <use xlink:href="#dot" transform="translate(-44.75,-22.5667)" />   <use xlink:href="#dot" transform="translate(-44.75,-22.5667)" />   <use xlink:href="#dot" transform="translate(-51.2,-30.0333)" />   <use xlink:href="#dot" transform="translate(-51.2,-30.0333)" />   <use xlink:href="#dot" transform="translate(-56.183333,-34.883333)" />   <use xlink:href="#dot" transform="translate(-57.187668,-27.710648)" />   <use xlink:href="#dot" transform="translate(-61.85,-23.9)" />   <use xlink:href="#dot" transform="translate(-49.755308,-29.355784)" />   <use xlink:href="#dot" transform="translate(-49.755308,-29.355784)" />   <use xlink:href="#dot" transform="translate(-53.693267,-26.260181)" />   <use xlink:href="#dot" transform="translate(-49.755308,-29.355784)" />   <use xlink:href="#dot" transform="translate(-54.277707,-26.767171)" />   <use xlink:href="#dot" transform="translate(-56.1333,-34.9)" />   <use xlink:href="#dot" transform="translate(-48.4833,-27.6167)" />   <use xlink:href="#dot" transform="translate(-56.1333,-34.9)" />   <use xlink:href="#dot" transform="translate(-49.755308,-29.355784)" />   <use xlink:href="#dot" transform="translate(-49.755308,-29.355784)" />   <use xlink:href="#dot" transform="translate(-49.755308,-29.355784)" />   <use xlink:href="#dot" transform="translate(-49.755308,-29.355784)" />   <use xlink:href="#dot" transform="translate(-54.277707,-26.767171)" />   <use xlink:href="#dot" transform="translate(-56.1333,-34.9)" />   <use xlink:href="#dot" transform="translate(-49.755308,-29.355784)" />   <use xlink:href="#dot" transform="translate(-48.412782,-27.505167)" />   <use xlink:href="#dot" transform="translate(-54.277707,-26.767171)" />   <use xlink:href="#dot" transform="translate(-52.08333,-32.03333)" />   <use xlink:href="#dot" transform="translate(-54.277707,-26.767171)" />   <use xlink:href="#dot" transform="translate(-61.85,-23.9)" />   <use xlink:href="#dot" transform="translate(-53.896057,-26.468384)" />   <use xlink:href="#dot" transform="translate(-48.412782,-27.505167)" />   <use xlink:href="#dot" transform="translate(-55.8132,-33.5091)" /><polygon class="region" points="-61.85,-23.9 -62,8 99.51667,11.2 -54.95,-34.7 -56.1333,-34.9 -56.183333,-34.883333 -60.16889,-32.60917 -61.85,-23.9 " />
		  </g>
		</svg>