<?xml version="1.0" encoding="UTF-8"?>
	<svg xmlns:xlink="http://www.w3.org/1999/xlink" 
	xmlns="http://www.w3.org/2000/svg" 
	width="360px" height="180px">
	   <style type="text/css">
		  <![CDATA[     
		  .region 
		  { 
			fill:blue; 
			opacity:0.4; 
			stroke:blue;
		  }
		  ]]>
	   </style>

	<circle id="dot" x="-2" y="-2" r="2" style="stroke:none; stroke-width:0; fill:black; opacity:0.7;"/>


	 <image x="0" y="0" width="360" height="180" xlink:href="map.jpg"/>

 
	 <g transform="translate(180,90) scale(1,-1)">   <use xlink:href="#dot" transform="translate(-78.5,-3.216667)" />   <use xlink:href="#dot" transform="translate(-78.516667,-3.25)" />   <use xlink:href="#dot" transform="translate(-78.5,-3.116667)" />   <use xlink:href="#dot" transform="translate(-78.516667,-3.25)" />   <use xlink:href="#dot" transform="translate(-78.5,-3.216667)" />   <use xlink:href="#dot" transform="translate(-78.55,-3.03333)" />   <use xlink:href="#dot" transform="translate(-78.5333,-3.03333)" />   <use xlink:href="#dot" transform="translate(-78.55,-3.03333)" />   <use xlink:href="#dot" transform="translate(-78.55,-3.03333)" />   <use xlink:href="#dot" transform="translate(-78.5333,-3.03333)" />   <use xlink:href="#dot" transform="translate(-78.5333,-3.03333)" />   <use xlink:href="#dot" transform="translate(-78.5167,-3.05)" />   <use xlink:href="#dot" transform="translate(-78.5167,-3.05)" />   <use xlink:href="#dot" transform="translate(-78.55,-3.03333)" />   <use xlink:href="#dot" transform="translate(-78.55,-3.03333)" />   <use xlink:href="#dot" transform="translate(-78.5167,-3.05)" />   <use xlink:href="#dot" transform="translate(-78.55,-3.03333)" />   <use xlink:href="#dot" transform="translate(-78.55,-3.03333)" />   <use xlink:href="#dot" transform="translate(-78.55,-3.03333)" />   <use xlink:href="#dot" transform="translate(-78.5417,-3.03333)" />   <use xlink:href="#dot" transform="translate(-78.55,-3.03333)" />   <use xlink:href="#dot" transform="translate(-78.55,-3.03333)" />   <use xlink:href="#dot" transform="translate(-78.5417,-3.03333)" />   <use xlink:href="#dot" transform="translate(-78.5333,-3.03333)" />   <use xlink:href="#dot" transform="translate(-78.5333,-3.03333)" />   <use xlink:href="#dot" transform="translate(-78.5167,-3.05)" />   <use xlink:href="#dot" transform="translate(-78.55,-3.03333)" />   <use xlink:href="#dot" transform="translate(-78.5417,-3.03333)" />   <use xlink:href="#dot" transform="translate(-78.5333,-3.03333)" />   <use xlink:href="#dot" transform="translate(-78.5167,-3.05)" />   <use xlink:href="#dot" transform="translate(-78.5167,-3.05)" />   <use xlink:href="#dot" transform="translate(-78.5333,-3.03333)" />   <use xlink:href="#dot" transform="translate(-78.5333,-3.03333)" />   <use xlink:href="#dot" transform="translate(-78.5167,-3.05)" />   <use xlink:href="#dot" transform="translate(-78.5167,-3.05)" />   <use xlink:href="#dot" transform="translate(-78.5333,-3.03333)" />   <use xlink:href="#dot" transform="translate(-78.5333,-3.03333)" />   <use xlink:href="#dot" transform="translate(-78.55,-3.03333)" />   <use xlink:href="#dot" transform="translate(-78.55,-3.03333)" />   <use xlink:href="#dot" transform="translate(-78.5333,-3.03333)" />   <use xlink:href="#dot" transform="translate(-78.5333,-3.03333)" />   <use xlink:href="#dot" transform="translate(-78.5417,-3.03333)" />   <use xlink:href="#dot" transform="translate(-78.5167,-3.05)" />   <use xlink:href="#dot" transform="translate(-78.5417,-3.03333)" />   <use xlink:href="#dot" transform="translate(-78.5167,-3.05)" />   <use xlink:href="#dot" transform="translate(-78.5417,-3.03333)" /><polygon class="region" points="-78.516667,-3.25 -78.55,-3.03333 -78.5333,-3.03333 -78.5167,-3.05 -78.5,-3.116667 -78.5,-3.216667 -78.516667,-3.25 " />
		  </g>
		</svg>