<?xml version="1.0" encoding="UTF-8"?>
	<svg xmlns:xlink="http://www.w3.org/1999/xlink" 
	xmlns="http://www.w3.org/2000/svg" 
	width="360px" height="180px">
	   <style type="text/css">
		  <![CDATA[     
		  .region 
		  { 
			fill:blue; 
			opacity:0.4; 
			stroke:blue;
		  }
		  ]]>
	   </style>

	<circle id="dot" x="-2" y="-2" r="2" style="stroke:none; stroke-width:0; fill:black; opacity:0.7;"/>


	 <image x="0" y="0" width="360" height="180" xlink:href="map.jpg"/>

 
	 <g transform="translate(180,90) scale(1,-1)">   <use xlink:href="#dot" transform="translate(-88.111403,13.769097)" />   <use xlink:href="#dot" transform="translate(-89.3,14.45)" />   <use xlink:href="#dot" transform="translate(-89.28,14.48)" />   <use xlink:href="#dot" transform="translate(-89.28,14.48)" />   <use xlink:href="#dot" transform="translate(-89.28,14.48)" />   <use xlink:href="#dot" transform="translate(-88.0933,13.995)" />   <use xlink:href="#dot" transform="translate(-88.0933,13.995)" />   <use xlink:href="#dot" transform="translate(-88.0933,13.995)" />   <use xlink:href="#dot" transform="translate(-88.0933,13.995)" />   <use xlink:href="#dot" transform="translate(-88.2,13.7667)" />   <use xlink:href="#dot" transform="translate(-88.16667,13.95)" />   <use xlink:href="#dot" transform="translate(-89.379723,13.659445)" />   <use xlink:href="#dot" transform="translate(-88.16667,13.95)" />   <use xlink:href="#dot" transform="translate(-89.379723,13.659445)" />   <use xlink:href="#dot" transform="translate(-89.379723,13.659445)" />   <use xlink:href="#dot" transform="translate(-89.379723,13.659445)" />   <use xlink:href="#dot" transform="translate(-88.16667,13.95)" />   <use xlink:href="#dot" transform="translate(-88.1,14.32)" />   <use xlink:href="#dot" transform="translate(-88.1,14.32)" />   <use xlink:href="#dot" transform="translate(-88.1,14.32)" />   <use xlink:href="#dot" transform="translate(-88.1,14.32)" />   <use xlink:href="#dot" transform="translate(-88.1,14.32)" />   <use xlink:href="#dot" transform="translate(-88.1,14.32)" />   <use xlink:href="#dot" transform="translate(-88.8,14.5)" />   <use xlink:href="#dot" transform="translate(-88.1,14.32)" />   <use xlink:href="#dot" transform="translate(-88.8,14.5)" />   <use xlink:href="#dot" transform="translate(-88.65,14.57)" />   <use xlink:href="#dot" transform="translate(-88.1,14.32)" />   <use xlink:href="#dot" transform="translate(-88.302,14.4157)" />   <use xlink:href="#dot" transform="translate(-88.0491,14.2615)" />   <use xlink:href="#dot" transform="translate(-88.0491,14.2615)" />   <use xlink:href="#dot" transform="translate(-88.0491,14.2615)" />   <use xlink:href="#dot" transform="translate(-88.1,14.32)" />   <use xlink:href="#dot" transform="translate(-88.1,14.32)" />   <use xlink:href="#dot" transform="translate(-88.1,14.32)" />   <use xlink:href="#dot" transform="translate(-88.1,14.32)" />   <use xlink:href="#dot" transform="translate(-88.0491,14.2615)" />   <use xlink:href="#dot" transform="translate(-88.1,14.32)" />   <use xlink:href="#dot" transform="translate(-88.1,14.32)" />   <use xlink:href="#dot" transform="translate(-89.1244,14.4229)" />   <use xlink:href="#dot" transform="translate(-87.85,14.156)" />   <use xlink:href="#dot" transform="translate(-87.7156,14.3043)" />   <use xlink:href="#dot" transform="translate(-89.07,14.47)" />   <use xlink:href="#dot" transform="translate(-88.8,14.5)" />   <use xlink:href="#dot" transform="translate(-89.07,14.47)" />   <use xlink:href="#dot" transform="translate(-89.1493,14.4472)" />   <use xlink:href="#dot" transform="translate(-89.07,14.47)" />   <use xlink:href="#dot" transform="translate(-89.07,14.47)" />   <use xlink:href="#dot" transform="translate(-89.07,14.47)" />   <use xlink:href="#dot" transform="translate(-89.07,14.47)" />   <use xlink:href="#dot" transform="translate(-89.1244,14.4229)" />   <use xlink:href="#dot" transform="translate(-87.47,14.1)" />   <use xlink:href="#dot" transform="translate(-87.47,14.1)" />   <use xlink:href="#dot" transform="translate(-87.47,14.1)" />   <use xlink:href="#dot" transform="translate(-87.47,14.1)" />   <use xlink:href="#dot" transform="translate(-87.47,14.1)" />   <use xlink:href="#dot" transform="translate(-87.47,14.1)" />   <use xlink:href="#dot" transform="translate(-88.8,14.5)" />   <use xlink:href="#dot" transform="translate(-88.8,14.5)" />   <use xlink:href="#dot" transform="translate(-89.3,14.5)" />   <use xlink:href="#dot" transform="translate(-89.06667,14.46667)" />   <use xlink:href="#dot" transform="translate(-89.3,14.5)" />   <use xlink:href="#dot" transform="translate(-88.083333,14.05)" />   <use xlink:href="#dot" transform="translate(-88.083333,14.05)" />   <use xlink:href="#dot" transform="translate(-89.28333,13.68333)" />   <use xlink:href="#dot" transform="translate(-88.98333,13.84508)" />   <use xlink:href="#dot" transform="translate(-88.98333,13.84508)" />   <use xlink:href="#dot" transform="translate(-88.98333,13.84508)" />   <use xlink:href="#dot" transform="translate(-88.98333,13.84508)" />   <use xlink:href="#dot" transform="translate(-88.98333,13.84508)" />   <use xlink:href="#dot" transform="translate(-88.98333,13.84508)" />   <use xlink:href="#dot" transform="translate(-88.98333,13.84689)" />   <use xlink:href="#dot" transform="translate(-88.98333,13.84689)" />   <use xlink:href="#dot" transform="translate(-89.378089,14.393025)" />   <use xlink:href="#dot" transform="translate(-89.04901,14.43333)" />   <use xlink:href="#dot" transform="translate(-89.04901,14.43333)" />   <use xlink:href="#dot" transform="translate(-89.04901,14.43333)" />   <use xlink:href="#dot" transform="translate(-89.04901,14.43333)" />   <use xlink:href="#dot" transform="translate(-88.99677,14.43333)" />   <use xlink:href="#dot" transform="translate(-89.04901,14.43333)" />   <use xlink:href="#dot" transform="translate(-89.3083,13.4917)" />   <use xlink:href="#dot" transform="translate(-88.183,14.3)" />   <use xlink:href="#dot" transform="translate(-87.081283456477,14.025683235656)" />   <use xlink:href="#dot" transform="translate(-87.081283456477,14.025683235656)" />   <use xlink:href="#dot" transform="translate(-87.081283456477,14.025683235656)" />   <use xlink:href="#dot" transform="translate(-87.081283456477,14.025683235656)" />   <use xlink:href="#dot" transform="translate(-87.081283456477,14.025683235656)" />   <use xlink:href="#dot" transform="translate(-87.081283456477,14.025683235656)" />   <use xlink:href="#dot" transform="translate(-87.081283456477,14.025683235656)" />   <use xlink:href="#dot" transform="translate(-89.51667,13.86667)" />   <use xlink:href="#dot" transform="translate(-89.51667,13.86667)" />   <use xlink:href="#dot" transform="translate(-89.51667,13.86667)" />   <use xlink:href="#dot" transform="translate(-89.51667,13.86667)" />   <use xlink:href="#dot" transform="translate(-89.51667,13.86667)" />   <use xlink:href="#dot" transform="translate(-89.51667,13.86667)" />   <use xlink:href="#dot" transform="translate(-89.349857839968,14.417558295479)" />   <use xlink:href="#dot" transform="translate(-89.21052,13.71029)" />   <use xlink:href="#dot" transform="translate(-89.21052,13.71029)" />   <use xlink:href="#dot" transform="translate(-88.2,13.766667)" />   <use xlink:href="#dot" transform="translate(-88.2,13.766667)" />   <use xlink:href="#dot" transform="translate(-88.98333,13.84508)" />   <use xlink:href="#dot" transform="translate(-88.2,13.766667)" /><polygon class="region" points="-89.3083,13.4917 -89.51667,13.86667 -89.378089,14.393025 -89.3,14.5 -88.65,14.57 -87.7156,14.3043 -87.081283456477,14.025683235656 -88.111403,13.769097 -89.3083,13.4917 " />
		  </g>
		</svg>