<?xml version="1.0" encoding="UTF-8"?>
	<svg xmlns:xlink="http://www.w3.org/1999/xlink" 
	xmlns="http://www.w3.org/2000/svg" 
	width="360px" height="180px">
	   <style type="text/css">
		  <![CDATA[     
		  .region 
		  { 
			fill:blue; 
			opacity:0.4; 
			stroke:blue;
		  }
		  ]]>
	   </style>

	<circle id="dot" x="-2" y="-2" r="2" style="stroke:none; stroke-width:0; fill:black; opacity:0.7;"/>


	 <image x="0" y="0" width="360" height="180" xlink:href="map.jpg"/>

 
	 <g transform="translate(180,90) scale(1,-1)">   <use xlink:href="#dot" transform="translate(142.79194,43.649859999058)" />   <use xlink:href="#dot" transform="translate(142.79194,43.649859999058)" />   <use xlink:href="#dot" transform="translate(142.79194,43.649859999058)" />   <use xlink:href="#dot" transform="translate(142.79194,43.649859999058)" />   <use xlink:href="#dot" transform="translate(142.79194,43.649859999058)" />   <use xlink:href="#dot" transform="translate(142.79194,43.649859999058)" />   <use xlink:href="#dot" transform="translate(142.79194,43.649859999058)" />   <use xlink:href="#dot" transform="translate(142.79194,43.649859999058)" />   <use xlink:href="#dot" transform="translate(142.79194,43.649859999058)" />   <use xlink:href="#dot" transform="translate(142.79194,43.649859999058)" />   <use xlink:href="#dot" transform="translate(142.79194,43.649859999058)" />   <use xlink:href="#dot" transform="translate(142.79194,43.649859999058)" />   <use xlink:href="#dot" transform="translate(142.79194,43.649859999058)" />   <use xlink:href="#dot" transform="translate(142.79194,43.649859999058)" />   <use xlink:href="#dot" transform="translate(142.79194,43.649859999058)" />   <use xlink:href="#dot" transform="translate(142.79194,43.649859999058)" />   <use xlink:href="#dot" transform="translate(142.79194,43.649859999058)" />   <use xlink:href="#dot" transform="translate(142.79194,43.649859999058)" />   <use xlink:href="#dot" transform="translate(141.247,42.986799999059)" />   <use xlink:href="#dot" transform="translate(145.85,44.0333)" />   <use xlink:href="#dot" transform="translate(143,47.25)" />   <use xlink:href="#dot" transform="translate(142.0667,49.0667)" />   <use xlink:href="#dot" transform="translate(142.4167,46.6167)" />   <use xlink:href="#dot" transform="translate(142.4167,46.6167)" />   <use xlink:href="#dot" transform="translate(142.35,46.5)" />   <use xlink:href="#dot" transform="translate(145.8167,44.05)" />   <use xlink:href="#dot" transform="translate(142.5,47.9167)" />   <use xlink:href="#dot" transform="translate(146.6833,43.7333)" />   <use xlink:href="#dot" transform="translate(145.85,44.0333)" />   <use xlink:href="#dot" transform="translate(147.85,45.2)" />   <use xlink:href="#dot" transform="translate(142.0667,47.1667)" />   <use xlink:href="#dot" transform="translate(146.6833,43.7333)" />   <use xlink:href="#dot" transform="translate(142.2667,46.35)" />   <use xlink:href="#dot" transform="translate(142.7167,47.0333)" />   <use xlink:href="#dot" transform="translate(142.7667,48.6167)" />   <use xlink:href="#dot" transform="translate(143.1,46.6167)" />   <use xlink:href="#dot" transform="translate(142.7833,47.3167)" />   <use xlink:href="#dot" transform="translate(142.1833,50.5333)" />   <use xlink:href="#dot" transform="translate(143.0167,52.3167)" />   <use xlink:href="#dot" transform="translate(146.15,44.3)" />   <use xlink:href="#dot" transform="translate(142.75,46.9667)" />   <use xlink:href="#dot" transform="translate(145.7833,44)" />   <use xlink:href="#dot" transform="translate(142.7333,50.5333)" />   <use xlink:href="#dot" transform="translate(142.85,49.4833)" />   <use xlink:href="#dot" transform="translate(142,52.3167)" />   <use xlink:href="#dot" transform="translate(142.0667,47.1667)" />   <use xlink:href="#dot" transform="translate(142.6667,50.9)" />   <use xlink:href="#dot" transform="translate(145.85,44.0333)" />   <use xlink:href="#dot" transform="translate(142.7833,47.3167)" />   <use xlink:href="#dot" transform="translate(146.15,44.3)" />   <use xlink:href="#dot" transform="translate(142.8167,47.0667)" />   <use xlink:href="#dot" transform="translate(146.0167,44.2)" />   <use xlink:href="#dot" transform="translate(142.0833,47.7667)" />   <use xlink:href="#dot" transform="translate(142.1833,50.5333)" />   <use xlink:href="#dot" transform="translate(147.6,44.9333)" />   <use xlink:href="#dot" transform="translate(143.0667,46.85)" />   <use xlink:href="#dot" transform="translate(147.85,45.2)" />   <use xlink:href="#dot" transform="translate(142.0333,47.7)" />   <use xlink:href="#dot" transform="translate(142.2333,46.2667)" />   <use xlink:href="#dot" transform="translate(145.6833,43.95)" />   <use xlink:href="#dot" transform="translate(145.85,44.0333)" />   <use xlink:href="#dot" transform="translate(145.8167,44.05)" />   <use xlink:href="#dot" transform="translate(146.1,44.2667)" />   <use xlink:href="#dot" transform="translate(145.85,44.0333)" />   <use xlink:href="#dot" transform="translate(142.0667,47.05)" />   <use xlink:href="#dot" transform="translate(145.85,44.0333)" />   <use xlink:href="#dot" transform="translate(145.5833,43.9333)" />   <use xlink:href="#dot" transform="translate(145.85,44.0333)" />   <use xlink:href="#dot" transform="translate(145.6333,43.9)" />   <use xlink:href="#dot" transform="translate(145.85,44.0333)" />   <use xlink:href="#dot" transform="translate(145.95,44.1667)" />   <use xlink:href="#dot" transform="translate(142.5333,48.2)" />   <use xlink:href="#dot" transform="translate(142.7667,46.9667)" />   <use xlink:href="#dot" transform="translate(145.6833,43.95)" />   <use xlink:href="#dot" transform="translate(143.2333,51.033)" />   <use xlink:href="#dot" transform="translate(145.85,44.0333)" />   <use xlink:href="#dot" transform="translate(145.85,44.0333)" />   <use xlink:href="#dot" transform="translate(142.7833,47.3167)" />   <use xlink:href="#dot" transform="translate(142.0667,47.05)" />   <use xlink:href="#dot" transform="translate(142.1833,51.2167)" />   <use xlink:href="#dot" transform="translate(142.5333,48.2)" />   <use xlink:href="#dot" transform="translate(141.9833,47.3)" />   <use xlink:href="#dot" transform="translate(142.5667,54.0333)" />   <use xlink:href="#dot" transform="translate(142.2667,46.35)" />   <use xlink:href="#dot" transform="translate(142.7333,47.2333)" />   <use xlink:href="#dot" transform="translate(142.3833,46.7667)" />   <use xlink:href="#dot" transform="translate(142.75,46.9667)" />   <use xlink:href="#dot" transform="translate(145.85,44.0333)" />   <use xlink:href="#dot" transform="translate(142.5167,46.7167)" />   <use xlink:href="#dot" transform="translate(143.3667,46.3667)" />   <use xlink:href="#dot" transform="translate(143.0667,46.85)" />   <use xlink:href="#dot" transform="translate(142.0167,47.3)" />   <use xlink:href="#dot" transform="translate(147.5667,44.9333)" />   <use xlink:href="#dot" transform="translate(147.5333,44.9333)" />   <use xlink:href="#dot" transform="translate(142.75,46.9667)" />   <use xlink:href="#dot" transform="translate(142.0167,47.3)" />   <use xlink:href="#dot" transform="translate(145.85,44.0333)" />   <use xlink:href="#dot" transform="translate(142.3667,46.65)" />   <use xlink:href="#dot" transform="translate(142.95,50.3667)" />   <use xlink:href="#dot" transform="translate(145.85,44.0333)" />   <use xlink:href="#dot" transform="translate(146.1333,44.2667)" />   <use xlink:href="#dot" transform="translate(142.7167,47.0333)" />   <use xlink:href="#dot" transform="translate(141.8667,46.4333)" />   <use xlink:href="#dot" transform="translate(145.5333,43.9167)" />   <use xlink:href="#dot" transform="translate(145.85,44.0333)" />   <use xlink:href="#dot" transform="translate(142.0167,47.3)" />   <use xlink:href="#dot" transform="translate(142.65,50.8333)" />   <use xlink:href="#dot" transform="translate(146.6833,43.7333)" />   <use xlink:href="#dot" transform="translate(146.6833,43.7333)" />   <use xlink:href="#dot" transform="translate(145.85,44.0333)" />   <use xlink:href="#dot" transform="translate(142.5667,54.0333)" />   <use xlink:href="#dot" transform="translate(142.1833,46.7333)" />   <use xlink:href="#dot" transform="translate(142.85,47)" />   <use xlink:href="#dot" transform="translate(142.6667,47.4167)" />   <use xlink:href="#dot" transform="translate(142.2667,47.0167)" />   <use xlink:href="#dot" transform="translate(142.75,48.5667)" />   <use xlink:href="#dot" transform="translate(142.7167,47.0333)" />   <use xlink:href="#dot" transform="translate(142.3333,46.55)" />   <use xlink:href="#dot" transform="translate(145.75,43.9667)" />   <use xlink:href="#dot" transform="translate(145.6833,44.0167)" />   <use xlink:href="#dot" transform="translate(146.8333,43.8667)" />   <use xlink:href="#dot" transform="translate(142.1667,50.8667)" />   <use xlink:href="#dot" transform="translate(143.1,46.6167)" />   <use xlink:href="#dot" transform="translate(142.3667,46.5833)" />   <use xlink:href="#dot" transform="translate(142.3167,46.75)" />   <use xlink:href="#dot" transform="translate(145.85,44.0333)" />   <use xlink:href="#dot" transform="translate(145.75,44.05)" />   <use xlink:href="#dot" transform="translate(142.7333,47.2333)" />   <use xlink:href="#dot" transform="translate(146.6833,43.7333)" />   <use xlink:href="#dot" transform="translate(142.0167,47.2833)" />   <use xlink:href="#dot" transform="translate(146.0333,44.1833)" />   <use xlink:href="#dot" transform="translate(142.6667,50.8333)" />   <use xlink:href="#dot" transform="translate(143.1333,52.4333)" />   <use xlink:href="#dot" transform="translate(146.1833,44.2833)" />   <use xlink:href="#dot" transform="translate(142.1167,50.8167)" />   <use xlink:href="#dot" transform="translate(142.0167,47.3)" />   <use xlink:href="#dot" transform="translate(143.8667,49.9833)" />   <use xlink:href="#dot" transform="translate(142.9167,48.9833)" />   <use xlink:href="#dot" transform="translate(145.85,44.0333)" />   <use xlink:href="#dot" transform="translate(145.85,44.0333)" />   <use xlink:href="#dot" transform="translate(142.75,46.9667)" />   <use xlink:href="#dot" transform="translate(146.9,43.8333)" />   <use xlink:href="#dot" transform="translate(143.2,51.7833)" />   <use xlink:href="#dot" transform="translate(142.85,51.0167)" />   <use xlink:href="#dot" transform="translate(142.6667,50.9)" />   <use xlink:href="#dot" transform="translate(146.8333,43.8667)" />   <use xlink:href="#dot" transform="translate(142.6667,47.5)" />   <use xlink:href="#dot" transform="translate(146.0333,44.2333)" />   <use xlink:href="#dot" transform="translate(143.0167,52.3667)" />   <use xlink:href="#dot" transform="translate(146.7333,43.7667)" />   <use xlink:href="#dot" transform="translate(142.2167,47.9833)" />   <use xlink:href="#dot" transform="translate(146.6833,43.7333)" />   <use xlink:href="#dot" transform="translate(142.75,47.1833)" />   <use xlink:href="#dot" transform="translate(146.75,43.8333)" />   <use xlink:href="#dot" transform="translate(142.85,51.0167)" />   <use xlink:href="#dot" transform="translate(142.75,46.9667)" />   <use xlink:href="#dot" transform="translate(145.85,44.0333)" />   <use xlink:href="#dot" transform="translate(142.8,46.6333)" />   <use xlink:href="#dot" transform="translate(145.85,44.0333)" />   <use xlink:href="#dot" transform="translate(145.75,44.05)" />   <use xlink:href="#dot" transform="translate(142.6667,50.8333)" />   <use xlink:href="#dot" transform="translate(142.75,46.9667)" />   <use xlink:href="#dot" transform="translate(142.7167,47.0333)" />   <use xlink:href="#dot" transform="translate(142.7167,47.0333)" />   <use xlink:href="#dot" transform="translate(146.8333,43.8667)" />   <use xlink:href="#dot" transform="translate(146.1333,43.5333)" />   <use xlink:href="#dot" transform="translate(142.7833,47.3167)" />   <use xlink:href="#dot" transform="translate(142.7167,47.0333)" />   <use xlink:href="#dot" transform="translate(142.0667,49.0667)" />   <use xlink:href="#dot" transform="translate(145.7833,44)" />   <use xlink:href="#dot" transform="translate(142.5667,47.65)" />   <use xlink:href="#dot" transform="translate(146.8333,43.8667)" />   <use xlink:href="#dot" transform="translate(142.1833,51.2167)" />   <use xlink:href="#dot" transform="translate(142.75,46.9667)" />   <use xlink:href="#dot" transform="translate(143.5333,51.05)" />   <use xlink:href="#dot" transform="translate(146.1,44.2667)" />   <use xlink:href="#dot" transform="translate(142.9833,47.2167)" />   <use xlink:href="#dot" transform="translate(146.1333,43.5333)" />   <use xlink:href="#dot" transform="translate(145.85,44.0333)" />   <use xlink:href="#dot" transform="translate(142.7,47)" />   <use xlink:href="#dot" transform="translate(145.85,44.0333)" />   <use xlink:href="#dot" transform="translate(145.55,43.6833)" />   <use xlink:href="#dot" transform="translate(142.6833,47.3167)" />   <use xlink:href="#dot" transform="translate(142.4,47.9333)" />   <use xlink:href="#dot" transform="translate(145.85,44.0333)" />   <use xlink:href="#dot" transform="translate(145.5333,43.9167)" />   <use xlink:href="#dot" transform="translate(142.1167,50.8167)" />   <use xlink:href="#dot" transform="translate(141.6833,52.2333)" />   <use xlink:href="#dot" transform="translate(142.7667,47.1333)" />   <use xlink:href="#dot" transform="translate(145.85,44.0333)" />   <use xlink:href="#dot" transform="translate(145.5167,43.75)" />   <use xlink:href="#dot" transform="translate(142.8667,49.5)" />   <use xlink:href="#dot" transform="translate(143.5333,49.3667)" />   <use xlink:href="#dot" transform="translate(146.6833,43.7333)" />   <use xlink:href="#dot" transform="translate(143.2,51.7833)" />   <use xlink:href="#dot" transform="translate(145.85,44.0333)" />   <use xlink:href="#dot" transform="translate(146.0833,44.25)" />   <use xlink:href="#dot" transform="translate(142.9833,46.7833)" />   <use xlink:href="#dot" transform="translate(142.0167,48.5167)" />   <use xlink:href="#dot" transform="translate(142.1833,50.5333)" />   <use xlink:href="#dot" transform="translate(142.9333,48.9)" />   <use xlink:href="#dot" transform="translate(142.7333,47.45)" />   <use xlink:href="#dot" transform="translate(145.85,44.0667)" />   <use xlink:href="#dot" transform="translate(142.65,50.8333)" />   <use xlink:href="#dot" transform="translate(142.65,50.8333)" />   <use xlink:href="#dot" transform="translate(143.35,46.5667)" />   <use xlink:href="#dot" transform="translate(146.6833,43.7333)" />   <use xlink:href="#dot" transform="translate(142.7333,47.2333)" />   <use xlink:href="#dot" transform="translate(142.5667,54.0333)" />   <use xlink:href="#dot" transform="translate(142.6667,50.8333)" />   <use xlink:href="#dot" transform="translate(142.9833,47.2167)" />   <use xlink:href="#dot" transform="translate(146.6833,43.7333)" />   <use xlink:href="#dot" transform="translate(143.0667,46.85)" />   <use xlink:href="#dot" transform="translate(142.1167,50.8167)" />   <use xlink:href="#dot" transform="translate(143.3833,46.6667)" />   <use xlink:href="#dot" transform="translate(142.75,48.5667)" />   <use xlink:href="#dot" transform="translate(145.7833,44)" />   <use xlink:href="#dot" transform="translate(143.1,46.6167)" />   <use xlink:href="#dot" transform="translate(145.75,44.05)" />   <use xlink:href="#dot" transform="translate(146.6833,43.7333)" />   <use xlink:href="#dot" transform="translate(142.7,47)" />   <use xlink:href="#dot" transform="translate(142.6167,47.55)" />   <use xlink:href="#dot" transform="translate(142.7167,46.8)" />   <use xlink:href="#dot" transform="translate(145.85,44.0333)" />   <use xlink:href="#dot" transform="translate(145.4833,43.7667)" />   <use xlink:href="#dot" transform="translate(142.0667,47.05)" />   <use xlink:href="#dot" transform="translate(142.2333,51.0167)" />   <use xlink:href="#dot" transform="translate(146.0333,44.2333)" />   <use xlink:href="#dot" transform="translate(142.2667,47.0167)" />   <use xlink:href="#dot" transform="translate(145.85,44.0333)" />   <use xlink:href="#dot" transform="translate(146.3,44.3)" />   <use xlink:href="#dot" transform="translate(144.4333,49)" />   <use xlink:href="#dot" transform="translate(145.85,44.0333)" />   <use xlink:href="#dot" transform="translate(145.85,44.0333)" />   <use xlink:href="#dot" transform="translate(142.75,46.9667)" />   <use xlink:href="#dot" transform="translate(142.75,46.9667)" />   <use xlink:href="#dot" transform="translate(146.65,43.7833)" />   <use xlink:href="#dot" transform="translate(142.7167,47.0333)" />   <use xlink:href="#dot" transform="translate(145.75,43.9667)" />   <use xlink:href="#dot" transform="translate(143.2,51.7833)" />   <use xlink:href="#dot" transform="translate(146.75,43.8333)" />   <use xlink:href="#dot" transform="translate(142.0167,48.5167)" />   <use xlink:href="#dot" transform="translate(142.0167,48.5167)" />   <use xlink:href="#dot" transform="translate(143.2,50.1)" />   <use xlink:href="#dot" transform="translate(142.5667,47.65)" />   <use xlink:href="#dot" transform="translate(142.7667,46.9667)" />   <use xlink:href="#dot" transform="translate(142.5167,46.7167)" />   <use xlink:href="#dot" transform="translate(142.0667,47.05)" />   <use xlink:href="#dot" transform="translate(143.5167,49.5167)" />   <use xlink:href="#dot" transform="translate(145.75,44.05)" />   <use xlink:href="#dot" transform="translate(146.75,43.8333)" />   <use xlink:href="#dot" transform="translate(142.2333,46.75)" />   <use xlink:href="#dot" transform="translate(143.1167,51.35)" />   <use xlink:href="#dot" transform="translate(142.5,47.35)" />   <use xlink:href="#dot" transform="translate(142.0167,48.5167)" />   <use xlink:href="#dot" transform="translate(142.0833,47.7667)" />   <use xlink:href="#dot" transform="translate(145.9667,44.1833)" />   <use xlink:href="#dot" transform="translate(142.7167,50.2833)" />   <use xlink:href="#dot" transform="translate(142.7167,47.0333)" />   <use xlink:href="#dot" transform="translate(142.1167,50.8167)" />   <use xlink:href="#dot" transform="translate(142.5167,46.7167)" />   <use xlink:href="#dot" transform="translate(142.4333,46.6333)" />   <use xlink:href="#dot" transform="translate(146.85,43.8667)" />   <use xlink:href="#dot" transform="translate(141.9833,47.3)" />   <use xlink:href="#dot" transform="translate(143.0667,52.3333)" />   <use xlink:href="#dot" transform="translate(143.35,46.5667)" />   <use xlink:href="#dot" transform="translate(146.7833,43.85)" />   <use xlink:href="#dot" transform="translate(142.2,46.15)" />   <use xlink:href="#dot" transform="translate(142.6667,50.9)" />   <use xlink:href="#dot" transform="translate(142.75,46.9667)" />   <use xlink:href="#dot" transform="translate(142.75,46.9667)" />   <use xlink:href="#dot" transform="translate(142.0333,47.7)" /><polygon class="region" points="146.1333,43.5333 141.247,42.986799999059 141.6833,52.2333 142.5667,54.0333 147.85,45.2 146.9,43.8333 146.6833,43.7333 146.1333,43.5333 " />
		  </g>
		</svg>