<?xml version="1.0" encoding="UTF-8"?>
	<svg xmlns:xlink="http://www.w3.org/1999/xlink" 
	xmlns="http://www.w3.org/2000/svg" 
	width="360px" height="180px">
	   <style type="text/css">
		  <![CDATA[     
		  .region 
		  { 
			fill:blue; 
			opacity:0.4; 
			stroke:blue;
		  }
		  ]]>
	   </style>

	<circle id="dot" x="-2" y="-2" r="2" style="stroke:none; stroke-width:0; fill:black; opacity:0.7;"/>


	 <image x="0" y="0" width="360" height="180" xlink:href="map.jpg"/>

 
	 <g transform="translate(180,90) scale(1,-1)">   <use xlink:href="#dot" transform="translate(99.115861,25.748778)" />   <use xlink:href="#dot" transform="translate(99.115861,25.748778)" />   <use xlink:href="#dot" transform="translate(99.115861,25.748778)" />   <use xlink:href="#dot" transform="translate(99.115861,25.748778)" />   <use xlink:href="#dot" transform="translate(99.115861,25.748778)" />   <use xlink:href="#dot" transform="translate(99.115861,25.748778)" />   <use xlink:href="#dot" transform="translate(99.115861,25.748778)" />   <use xlink:href="#dot" transform="translate(99.115861,25.748778)" />   <use xlink:href="#dot" transform="translate(99.115861,25.748778)" />   <use xlink:href="#dot" transform="translate(99.115861,25.748778)" />   <use xlink:href="#dot" transform="translate(99.115861,25.748778)" />   <use xlink:href="#dot" transform="translate(98.768139,24.831333)" />   <use xlink:href="#dot" transform="translate(98.768139,24.831333)" />   <use xlink:href="#dot" transform="translate(98.8515,24.523306)" />   <use xlink:href="#dot" transform="translate(98.768139,24.831333)" />   <use xlink:href="#dot" transform="translate(98.841944,24.511)" />   <use xlink:href="#dot" transform="translate(98.768139,24.831333)" />   <use xlink:href="#dot" transform="translate(98.759833,24.828472)" />   <use xlink:href="#dot" transform="translate(98.768139,24.831333)" />   <use xlink:href="#dot" transform="translate(98.768139,24.831333)" />   <use xlink:href="#dot" transform="translate(98.768139,24.831333)" />   <use xlink:href="#dot" transform="translate(98.841944,24.511)" />   <use xlink:href="#dot" transform="translate(98.8515,24.523306)" />   <use xlink:href="#dot" transform="translate(98.841944,24.511)" />   <use xlink:href="#dot" transform="translate(98.759833,24.828472)" />   <use xlink:href="#dot" transform="translate(98.768139,24.831333)" />   <use xlink:href="#dot" transform="translate(98.768139,24.831333)" />   <use xlink:href="#dot" transform="translate(98.841944,24.511)" />   <use xlink:href="#dot" transform="translate(98.768139,24.831333)" />   <use xlink:href="#dot" transform="translate(98.768139,24.831333)" />   <use xlink:href="#dot" transform="translate(98.768139,24.831333)" />   <use xlink:href="#dot" transform="translate(98.615611,25.781583)" />   <use xlink:href="#dot" transform="translate(98.768139,24.831333)" />   <use xlink:href="#dot" transform="translate(98.759833,24.828472)" />   <use xlink:href="#dot" transform="translate(98.756889,24.845528)" />   <use xlink:href="#dot" transform="translate(98.768139,24.831333)" />   <use xlink:href="#dot" transform="translate(98.8515,24.523306)" />   <use xlink:href="#dot" transform="translate(98.752194,24.880944)" />   <use xlink:href="#dot" transform="translate(98.768139,24.831333)" />   <use xlink:href="#dot" transform="translate(98.75875,24.858278)" />   <use xlink:href="#dot" transform="translate(103.770833,22.349444)" />   <use xlink:href="#dot" transform="translate(103.770833,22.349444)" />   <use xlink:href="#dot" transform="translate(103.770833,22.349444)" />   <use xlink:href="#dot" transform="translate(103.770833,22.349444)" />   <use xlink:href="#dot" transform="translate(103.770833,22.349444)" />   <use xlink:href="#dot" transform="translate(103.770833,22.349444)" />   <use xlink:href="#dot" transform="translate(103.770833,22.349444)" />   <use xlink:href="#dot" transform="translate(103.770833,22.349444)" />   <use xlink:href="#dot" transform="translate(103.770833,22.349444)" />   <use xlink:href="#dot" transform="translate(103.770833,22.349444)" />   <use xlink:href="#dot" transform="translate(103.770833,22.349444)" />   <use xlink:href="#dot" transform="translate(103.770833,22.349444)" />   <use xlink:href="#dot" transform="translate(103.770833,22.349444)" />   <use xlink:href="#dot" transform="translate(103.770833,22.349444)" />   <use xlink:href="#dot" transform="translate(103.770833,22.349444)" />   <use xlink:href="#dot" transform="translate(103.770833,22.349444)" />   <use xlink:href="#dot" transform="translate(103.770833,22.349444)" />   <use xlink:href="#dot" transform="translate(103.821111,22.316389)" />   <use xlink:href="#dot" transform="translate(103.770833,22.349444)" />   <use xlink:href="#dot" transform="translate(103.770833,22.349444)" />   <use xlink:href="#dot" transform="translate(103.770833,22.349444)" />   <use xlink:href="#dot" transform="translate(103.770833,22.349444)" />   <use xlink:href="#dot" transform="translate(103.770833,22.349444)" />   <use xlink:href="#dot" transform="translate(103.770833,22.349444)" />   <use xlink:href="#dot" transform="translate(103.770833,22.349444)" />   <use xlink:href="#dot" transform="translate(103.770833,22.349444)" />   <use xlink:href="#dot" transform="translate(103.770833,22.349444)" />   <use xlink:href="#dot" transform="translate(102.567122,27.879767)" />   <use xlink:href="#dot" transform="translate(102.567122,27.879767)" />   <use xlink:href="#dot" transform="translate(103.71391,31.08333)" />   <use xlink:href="#dot" transform="translate(108.9,30.4667)" />   <use xlink:href="#dot" transform="translate(100.20833,24.80769)" />   <use xlink:href="#dot" transform="translate(100.20833,24.80769)" />   <use xlink:href="#dot" transform="translate(102.6363,28.4983)" />   <use xlink:href="#dot" transform="translate(102.6363,28.4983)" />   <use xlink:href="#dot" transform="translate(102.6363,28.4983)" />   <use xlink:href="#dot" transform="translate(103.05185,28.68818)" />   <use xlink:href="#dot" transform="translate(102.566667,27.881)" />   <use xlink:href="#dot" transform="translate(102.6363,28.4983)" />   <use xlink:href="#dot" transform="translate(108.9,30.4667)" />   <use xlink:href="#dot" transform="translate(103.339667,29.525167)" />   <use xlink:href="#dot" transform="translate(102.6363,28.4983)" />   <use xlink:href="#dot" transform="translate(100.20833,24.80769)" />   <use xlink:href="#dot" transform="translate(100.20833,24.80769)" />   <use xlink:href="#dot" transform="translate(100.20833,24.80769)" />   <use xlink:href="#dot" transform="translate(100.20833,24.80769)" />   <use xlink:href="#dot" transform="translate(100.89041,22.07692)" />   <use xlink:href="#dot" transform="translate(100.89041,22.07692)" />   <use xlink:href="#dot" transform="translate(100.89041,22.07692)" />   <use xlink:href="#dot" transform="translate(100.89041,22.07692)" />   <use xlink:href="#dot" transform="translate(103.331667,29.510167)" />   <use xlink:href="#dot" transform="translate(103.344667,29.5665)" />   <use xlink:href="#dot" transform="translate(103.3565,29.550667)" />   <use xlink:href="#dot" transform="translate(102.517333,27.889333)" />   <use xlink:href="#dot" transform="translate(102.6363,28.4983)" />   <use xlink:href="#dot" transform="translate(103.05185,28.68818)" />   <use xlink:href="#dot" transform="translate(103.05185,28.68818)" />   <use xlink:href="#dot" transform="translate(102.6363,28.4983)" />   <use xlink:href="#dot" transform="translate(102.6363,28.4983)" />   <use xlink:href="#dot" transform="translate(100.20833,24.80769)" />   <use xlink:href="#dot" transform="translate(100.20833,24.80769)" />   <use xlink:href="#dot" transform="translate(100.20833,24.80769)" />   <use xlink:href="#dot" transform="translate(100.89041,22.07692)" />   <use xlink:href="#dot" transform="translate(98.84722,24.97468)" />   <use xlink:href="#dot" transform="translate(103.331667,29.510167)" />   <use xlink:href="#dot" transform="translate(103.331667,29.510167)" />   <use xlink:href="#dot" transform="translate(103.344667,29.5665)" />   <use xlink:href="#dot" transform="translate(103.339667,29.525167)" />   <use xlink:href="#dot" transform="translate(103.344667,29.5665)" />   <use xlink:href="#dot" transform="translate(102.517333,27.889333)" />   <use xlink:href="#dot" transform="translate(102.6363,28.4983)" />   <use xlink:href="#dot" transform="translate(102.6363,28.4983)" />   <use xlink:href="#dot" transform="translate(102.517333,27.889333)" />   <use xlink:href="#dot" transform="translate(102.6363,28.4983)" />   <use xlink:href="#dot" transform="translate(102.6363,28.4983)" />   <use xlink:href="#dot" transform="translate(104.0667,30.6667)" />   <use xlink:href="#dot" transform="translate(108.9,30.4667)" />   <use xlink:href="#dot" transform="translate(108.9,30.4667)" />   <use xlink:href="#dot" transform="translate(108.9,30.4667)" />   <use xlink:href="#dot" transform="translate(103.71391,31.08333)" />   <use xlink:href="#dot" transform="translate(100.20833,24.80769)" />   <use xlink:href="#dot" transform="translate(100.20833,24.80769)" />   <use xlink:href="#dot" transform="translate(100.20833,24.80769)" />   <use xlink:href="#dot" transform="translate(100.20833,24.80769)" />   <use xlink:href="#dot" transform="translate(100.20833,24.80769)" />   <use xlink:href="#dot" transform="translate(102.517333,27.889333)" />   <use xlink:href="#dot" transform="translate(102.6363,28.4983)" />   <use xlink:href="#dot" transform="translate(102.6363,28.4983)" />   <use xlink:href="#dot" transform="translate(103.05185,28.68818)" />   <use xlink:href="#dot" transform="translate(102.6363,28.4983)" />   <use xlink:href="#dot" transform="translate(103.339667,29.525167)" />   <use xlink:href="#dot" transform="translate(100.20833,24.80769)" />   <use xlink:href="#dot" transform="translate(100.20833,24.80769)" />   <use xlink:href="#dot" transform="translate(100.20833,24.80769)" />   <use xlink:href="#dot" transform="translate(100.20833,24.80769)" />   <use xlink:href="#dot" transform="translate(100.89041,22.07692)" />   <use xlink:href="#dot" transform="translate(103.331667,29.510167)" />   <use xlink:href="#dot" transform="translate(103.344667,29.5665)" />   <use xlink:href="#dot" transform="translate(103.344667,29.5665)" />   <use xlink:href="#dot" transform="translate(103.344667,29.5665)" />   <use xlink:href="#dot" transform="translate(102.59788,27.95316)" />   <use xlink:href="#dot" transform="translate(103.05185,28.68818)" />   <use xlink:href="#dot" transform="translate(102.517333,27.889333)" />   <use xlink:href="#dot" transform="translate(102.276167,29.869167)" />   <use xlink:href="#dot" transform="translate(102.6363,28.4983)" />   <use xlink:href="#dot" transform="translate(108.9,30.4667)" />   <use xlink:href="#dot" transform="translate(103.35,29.533)" />   <use xlink:href="#dot" transform="translate(102.63284,29.78374)" />   <use xlink:href="#dot" transform="translate(102.742167,30.702167)" />   <use xlink:href="#dot" transform="translate(103.1331,28.3319)" />   <use xlink:href="#dot" transform="translate(100.20833,24.80769)" />   <use xlink:href="#dot" transform="translate(100.20833,24.80769)" />   <use xlink:href="#dot" transform="translate(100.20833,24.80769)" />   <use xlink:href="#dot" transform="translate(100.20833,24.80769)" />   <use xlink:href="#dot" transform="translate(100.20833,24.80769)" />   <use xlink:href="#dot" transform="translate(100.89041,22.07692)" />   <use xlink:href="#dot" transform="translate(100.89041,22.07692)" />   <use xlink:href="#dot" transform="translate(98.84722,24.97468)" />   <use xlink:href="#dot" transform="translate(103.331667,29.510167)" />   <use xlink:href="#dot" transform="translate(103.331667,29.510167)" />   <use xlink:href="#dot" transform="translate(103.331667,29.510167)" />   <use xlink:href="#dot" transform="translate(103.289,29.585833)" />   <use xlink:href="#dot" transform="translate(103.339667,29.525167)" />   <use xlink:href="#dot" transform="translate(103.331667,29.510167)" />   <use xlink:href="#dot" transform="translate(103.344667,29.5665)" />   <use xlink:href="#dot" transform="translate(102.6363,28.4983)" />   <use xlink:href="#dot" transform="translate(102.6363,28.4983)" />   <use xlink:href="#dot" transform="translate(102.6363,28.4983)" />   <use xlink:href="#dot" transform="translate(102.276167,29.869167)" />   <use xlink:href="#dot" transform="translate(103.339667,29.525167)" />   <use xlink:href="#dot" transform="translate(102.276167,29.869167)" />   <use xlink:href="#dot" transform="translate(100.20833,24.80769)" />   <use xlink:href="#dot" transform="translate(100.20833,24.80769)" />   <use xlink:href="#dot" transform="translate(100.20833,24.80769)" />   <use xlink:href="#dot" transform="translate(100.20833,24.80769)" />   <use xlink:href="#dot" transform="translate(100.20833,24.80769)" />   <use xlink:href="#dot" transform="translate(100.89041,22.07692)" />   <use xlink:href="#dot" transform="translate(103.331667,29.510167)" />   <use xlink:href="#dot" transform="translate(103.331667,29.510167)" />   <use xlink:href="#dot" transform="translate(103.344667,29.5665)" />   <use xlink:href="#dot" transform="translate(103.35417,29.56621)" />   <use xlink:href="#dot" transform="translate(103.344667,29.5665)" />   <use xlink:href="#dot" transform="translate(102.517333,27.889333)" />   <use xlink:href="#dot" transform="translate(102.2875,28.8125)" />   <use xlink:href="#dot" transform="translate(102.6363,28.4983)" />   <use xlink:href="#dot" transform="translate(102.6363,28.4983)" />   <use xlink:href="#dot" transform="translate(102.6363,28.4983)" />   <use xlink:href="#dot" transform="translate(102.6363,28.4983)" />   <use xlink:href="#dot" transform="translate(102.6363,28.4983)" />   <use xlink:href="#dot" transform="translate(103.05185,28.68818)" />   <use xlink:href="#dot" transform="translate(103.05185,28.68818)" />   <use xlink:href="#dot" transform="translate(103.05185,28.68818)" />   <use xlink:href="#dot" transform="translate(103.05185,28.68818)" />   <use xlink:href="#dot" transform="translate(102.6363,28.4983)" />   <use xlink:href="#dot" transform="translate(102.6363,28.4983)" />   <use xlink:href="#dot" transform="translate(102.6363,28.4983)" />   <use xlink:href="#dot" transform="translate(108.9,30.4667)" />   <use xlink:href="#dot" transform="translate(100.20833,24.80769)" />   <use xlink:href="#dot" transform="translate(100.20833,24.80769)" />   <use xlink:href="#dot" transform="translate(100.20833,24.80769)" />   <use xlink:href="#dot" transform="translate(100.20833,24.80769)" />   <use xlink:href="#dot" transform="translate(100.89041,22.07692)" />   <use xlink:href="#dot" transform="translate(103.331667,29.510167)" />   <use xlink:href="#dot" transform="translate(103.344667,29.5665)" />   <use xlink:href="#dot" transform="translate(103.344667,29.5665)" />   <use xlink:href="#dot" transform="translate(102.6363,28.4983)" />   <use xlink:href="#dot" transform="translate(103.05185,28.68818)" />   <use xlink:href="#dot" transform="translate(102.6363,28.4983)" />   <use xlink:href="#dot" transform="translate(108.9,30.4667)" />   <use xlink:href="#dot" transform="translate(100.9,24.4667)" />   <use xlink:href="#dot" transform="translate(100.20833,24.80769)" />   <use xlink:href="#dot" transform="translate(100.20833,24.80769)" />   <use xlink:href="#dot" transform="translate(100.20833,24.80769)" />   <use xlink:href="#dot" transform="translate(100.20833,24.80769)" />   <use xlink:href="#dot" transform="translate(100.20833,24.80769)" />   <use xlink:href="#dot" transform="translate(100.20833,24.80769)" />   <use xlink:href="#dot" transform="translate(100.89041,22.07692)" />   <use xlink:href="#dot" transform="translate(100.89041,22.07692)" />   <use xlink:href="#dot" transform="translate(108.98,30.48276)" />   <use xlink:href="#dot" transform="translate(103.331667,29.510167)" />   <use xlink:href="#dot" transform="translate(103.331667,29.510167)" />   <use xlink:href="#dot" transform="translate(103.331667,29.510167)" />   <use xlink:href="#dot" transform="translate(103.344667,29.5665)" />   <use xlink:href="#dot" transform="translate(103.344667,29.5665)" />   <use xlink:href="#dot" transform="translate(103.331667,29.510167)" />   <use xlink:href="#dot" transform="translate(102.517333,27.889333)" />   <use xlink:href="#dot" transform="translate(102.6363,28.4983)" />   <use xlink:href="#dot" transform="translate(103.05185,28.68818)" />   <use xlink:href="#dot" transform="translate(102.566667,27.881)" />   <use xlink:href="#dot" transform="translate(102.566667,27.881)" />   <use xlink:href="#dot" transform="translate(102.6363,28.4983)" />   <use xlink:href="#dot" transform="translate(102.63284,29.78374)" />   <use xlink:href="#dot" transform="translate(102.72376,28.49454)" />   <use xlink:href="#dot" transform="translate(100.20833,24.80769)" />   <use xlink:href="#dot" transform="translate(100.20833,24.80769)" />   <use xlink:href="#dot" transform="translate(100.20833,24.80769)" />   <use xlink:href="#dot" transform="translate(100.20833,24.80769)" />   <use xlink:href="#dot" transform="translate(100.20833,24.80769)" />   <use xlink:href="#dot" transform="translate(100.20833,24.80769)" />   <use xlink:href="#dot" transform="translate(100.20833,24.80769)" />   <use xlink:href="#dot" transform="translate(100.20833,24.80769)" />   <use xlink:href="#dot" transform="translate(100.89041,22.07692)" />   <use xlink:href="#dot" transform="translate(103.331667,29.510167)" />   <use xlink:href="#dot" transform="translate(103.344667,29.5665)" />   <use xlink:href="#dot" transform="translate(103.3565,29.550667)" />   <use xlink:href="#dot" transform="translate(102.2875,28.8125)" />   <use xlink:href="#dot" transform="translate(102.6363,28.4983)" />   <use xlink:href="#dot" transform="translate(102.6363,28.4983)" />   <use xlink:href="#dot" transform="translate(102.6363,28.4983)" />   <use xlink:href="#dot" transform="translate(102.6363,28.4983)" />   <use xlink:href="#dot" transform="translate(103.05185,28.68818)" />   <use xlink:href="#dot" transform="translate(103.05185,28.68818)" />   <use xlink:href="#dot" transform="translate(103.05185,28.68818)" />   <use xlink:href="#dot" transform="translate(103.05185,28.68818)" />   <use xlink:href="#dot" transform="translate(98.4667,25.0333)" />   <use xlink:href="#dot" transform="translate(103.06173,29.38798)" />   <use xlink:href="#dot" transform="translate(108.9,30.4667)" />   <use xlink:href="#dot" transform="translate(108.9,30.4667)" />   <use xlink:href="#dot" transform="translate(103.35,29.533)" />   <use xlink:href="#dot" transform="translate(103.339667,29.525167)" />   <use xlink:href="#dot" transform="translate(102.63284,29.78374)" />   <use xlink:href="#dot" transform="translate(102.6363,28.4983)" />   <use xlink:href="#dot" transform="translate(100.20833,24.80769)" />   <use xlink:href="#dot" transform="translate(100.20833,24.80769)" />   <use xlink:href="#dot" transform="translate(100.20833,24.80769)" />   <use xlink:href="#dot" transform="translate(100.20833,24.80769)" />   <use xlink:href="#dot" transform="translate(100.89041,22.07692)" />   <use xlink:href="#dot" transform="translate(100.89041,22.07692)" />   <use xlink:href="#dot" transform="translate(98.84722,24.97468)" />   <use xlink:href="#dot" transform="translate(103.331667,29.510167)" />   <use xlink:href="#dot" transform="translate(103.331667,29.510167)" />   <use xlink:href="#dot" transform="translate(103.344667,29.5665)" />   <use xlink:href="#dot" transform="translate(103.344667,29.5665)" />   <use xlink:href="#dot" transform="translate(103.344667,29.5665)" />   <use xlink:href="#dot" transform="translate(102.2875,28.8125)" />   <use xlink:href="#dot" transform="translate(102.6363,28.4983)" />   <use xlink:href="#dot" transform="translate(102.6363,28.4983)" />   <use xlink:href="#dot" transform="translate(103.05185,28.68818)" />   <use xlink:href="#dot" transform="translate(103.05185,28.68818)" />   <use xlink:href="#dot" transform="translate(102.517333,27.889333)" />   <use xlink:href="#dot" transform="translate(102.566667,27.881)" />   <use xlink:href="#dot" transform="translate(108.9,30.4667)" />   <use xlink:href="#dot" transform="translate(108.9,30.4667)" />   <use xlink:href="#dot" transform="translate(103.339667,29.525167)" />   <use xlink:href="#dot" transform="translate(103.71391,31.08333)" />   <use xlink:href="#dot" transform="translate(100.20833,24.80769)" />   <use xlink:href="#dot" transform="translate(100.20833,24.80769)" />   <use xlink:href="#dot" transform="translate(100.20833,24.80769)" />   <use xlink:href="#dot" transform="translate(100.89041,22.07692)" />   <use xlink:href="#dot" transform="translate(103.331667,29.510167)" />   <use xlink:href="#dot" transform="translate(103.344667,29.5665)" />   <use xlink:href="#dot" transform="translate(103.344667,29.5665)" />   <use xlink:href="#dot" transform="translate(102.517333,27.889333)" />   <use xlink:href="#dot" transform="translate(102.276167,29.869167)" />   <use xlink:href="#dot" transform="translate(102.566667,27.881)" />   <use xlink:href="#dot" transform="translate(102.276167,29.869167)" />   <use xlink:href="#dot" transform="translate(100.20833,24.80769)" />   <use xlink:href="#dot" transform="translate(100.20833,24.80769)" />   <use xlink:href="#dot" transform="translate(100.20833,24.80769)" />   <use xlink:href="#dot" transform="translate(100.20833,24.80769)" /><polygon class="region" points="98.841944,24.511 98.4667,25.0333 98.615611,25.781583 102.742167,30.702167 103.71391,31.08333 108.98,30.48276 103.821111,22.316389 100.89041,22.07692 98.841944,24.511 " />
		  </g>
		</svg>