<?xml version="1.0" encoding="UTF-8"?>
	<svg xmlns:xlink="http://www.w3.org/1999/xlink" 
	xmlns="http://www.w3.org/2000/svg" 
	width="360px" height="180px">
	   <style type="text/css">
		  <![CDATA[     
		  .region 
		  { 
			fill:blue; 
			opacity:0.4; 
			stroke:blue;
		  }
		  ]]>
	   </style>

	<circle id="dot" x="-2" y="-2" r="2" style="stroke:none; stroke-width:0; fill:black; opacity:0.7;"/>


	 <image x="0" y="0" width="360" height="180" xlink:href="map.jpg"/>

 
	 <g transform="translate(180,90) scale(1,-1)"><polygon class="region" points="-48.595223545,-26.445470363 -49.071384065,-26.364369633 -49.337546833,-25.682327538 -49.237735795,-25.116731655 -48.672139912,-24.418054388 -44.962496326,-22.07249499 -42.151152083,-20.04300388 -40.670621683,-19.87665215 -40.238107184,-20.059639053 -40.401931763,-20.605695724 -40.756248474,-20.866031647 -41.070598602,-21.507461548 -40.990142822,-22.013877869 -41.96181488,-22.538225174 -41.863887787,-22.758634567 -42.017993927,-22.997972488 -43.049945831,-22.981931686 -43.083713531,-22.679719925 -43.287204742,-22.806335449 -43.155788422,-22.783943176 -43.187030792,-22.995481491 -43.549385071,-23.080722809 -43.989395142,-23.106216431 -43.555473328,-23.054826736 -43.848842621,-22.906049728 -44.233558655,-23.060422897 -44.335689545,-22.92578125 -44.668621063,-23.05994606 -44.583011627,-23.36652565 -44.904899597,-23.338989258 -45.40391922,-23.625699997 -45.411937714,-23.824636459 -45.93429184,-23.771089554 -46.841991425,-24.220127106 -47.789867401,-24.931749344 -48.212669373,-25.470071793 -48.121013641,-25.26684761 -48.316940308,-25.363388062 -48.433383942,-25.236698151 -48.476154327,-25.485044479 -48.738864899,-25.37392807 -48.349964142,-25.580591202 -48.585708618,-26.171947479 -48.713733673,-26.242883682 -48.790161133,-26.074861526 -48.819774628,-26.080001831 -48.723125458,-26.361555099 -48.493301392,-26.224025726 -48.595223545,-26.445470363 " />
		  </g>
		</svg>