<?xml version="1.0" encoding="UTF-8"?>
	<svg xmlns:xlink="http://www.w3.org/1999/xlink" 
	xmlns="http://www.w3.org/2000/svg" 
	width="360px" height="180px">
	   <style type="text/css">
		  <![CDATA[     
		  .region 
		  { 
			fill:blue; 
			opacity:0.4; 
			stroke:blue;
		  }
		  ]]>
	   </style>

	<circle id="dot" x="-2" y="-2" r="2" style="stroke:none; stroke-width:0; fill:black; opacity:0.7;"/>


	 <image x="0" y="0" width="360" height="180" xlink:href="map.jpg"/>

 
	 <g transform="translate(180,90) scale(1,-1)">   <use xlink:href="#dot" transform="translate(-40.563056,-19.855)" />   <use xlink:href="#dot" transform="translate(-42.5333,-22.366)" />   <use xlink:href="#dot" transform="translate(-45.83,-23.63)" />   <use xlink:href="#dot" transform="translate(-42.98333,-22.43333)" />   <use xlink:href="#dot" transform="translate(-49.85,-28.82)" />   <use xlink:href="#dot" transform="translate(-49.85,-28.82)" />   <use xlink:href="#dot" transform="translate(-41.9,-20.5167)" />   <use xlink:href="#dot" transform="translate(-45.83,-23.63)" />   <use xlink:href="#dot" transform="translate(-44.65,-22.82)" />   <use xlink:href="#dot" transform="translate(-42.98,-22.43)" />   <use xlink:href="#dot" transform="translate(-42.98,-22.43)" />   <use xlink:href="#dot" transform="translate(-42.98,-22.43)" />   <use xlink:href="#dot" transform="translate(-42.98,-22.43)" />   <use xlink:href="#dot" transform="translate(-42.98,-22.43)" />   <use xlink:href="#dot" transform="translate(-42.98,-22.43)" />   <use xlink:href="#dot" transform="translate(-42.98,-22.43)" />   <use xlink:href="#dot" transform="translate(-42.98,-22.43)" />   <use xlink:href="#dot" transform="translate(-44.65,-22.82)" />   <use xlink:href="#dot" transform="translate(-44.56667,-22.5)" />   <use xlink:href="#dot" transform="translate(-44.56667,-22.5)" />   <use xlink:href="#dot" transform="translate(-42.98333,-22.43333)" />   <use xlink:href="#dot" transform="translate(-42.9833,-22.4333)" />   <use xlink:href="#dot" transform="translate(-44.5,-22.3833)" />   <use xlink:href="#dot" transform="translate(-44.5,-22.3833)" />   <use xlink:href="#dot" transform="translate(-44.5,-22.3833)" />   <use xlink:href="#dot" transform="translate(-44.5,-22.38333)" />   <use xlink:href="#dot" transform="translate(-44.5,-22.38333)" />   <use xlink:href="#dot" transform="translate(-43.1667,-22.5167)" />   <use xlink:href="#dot" transform="translate(-44.9667,-22.3833)" />   <use xlink:href="#dot" transform="translate(-42.98333,-22.43333)" /><polygon class="region" points="-42.5333,-22.366 -49.85,-28.82 -44.9667,-22.3833 -41.9,-20.5167 -40.563056,-19.855 -42.5333,-22.366 " />
		  </g>
		</svg>