<?xml version="1.0" encoding="UTF-8"?>
	<svg xmlns:xlink="http://www.w3.org/1999/xlink" 
	xmlns="http://www.w3.org/2000/svg" 
	width="360px" height="180px">
	   <style type="text/css">
		  <![CDATA[     
		  .region 
		  { 
			fill:blue; 
			opacity:0.4; 
			stroke:blue;
		  }
		  ]]>
	   </style>

	<circle id="dot" x="-2" y="-2" r="2" style="stroke:none; stroke-width:0; fill:black; opacity:0.7;"/>


	 <image x="0" y="0" width="360" height="180" xlink:href="map.jpg"/>

 
	 <g transform="translate(180,90) scale(1,-1)">   <use xlink:href="#dot" transform="translate(-59.67416,-22.530035)" />   <use xlink:href="#dot" transform="translate(-59.381111,-29.8375)" />   <use xlink:href="#dot" transform="translate(-59.058333,-28.591111)" />   <use xlink:href="#dot" transform="translate(-57.280383,-23.456067)" />   <use xlink:href="#dot" transform="translate(-59.058333,-28.591111)" />   <use xlink:href="#dot" transform="translate(-60.72595,-22.407717)" />   <use xlink:href="#dot" transform="translate(-60.162222,-25.742222)" />   <use xlink:href="#dot" transform="translate(-57.5975,-29.983056)" />   <use xlink:href="#dot" transform="translate(-58.6425,-27.426111)" />   <use xlink:href="#dot" transform="translate(-58.6425,-27.426111)" />   <use xlink:href="#dot" transform="translate(-58.6425,-27.426111)" />   <use xlink:href="#dot" transform="translate(-58.6425,-27.426111)" />   <use xlink:href="#dot" transform="translate(-58.900278,-27.875)" />   <use xlink:href="#dot" transform="translate(-56.994167,-27.4675)" />   <use xlink:href="#dot" transform="translate(-58.6425,-27.426111)" />   <use xlink:href="#dot" transform="translate(-57.833056,-28.371667)" />   <use xlink:href="#dot" transform="translate(-57.833056,-28.371667)" />   <use xlink:href="#dot" transform="translate(-57.274444,-27.769167)" />   <use xlink:href="#dot" transform="translate(-60.839167,-26.800278)" />   <use xlink:href="#dot" transform="translate(-56.742222,-27.52)" />   <use xlink:href="#dot" transform="translate(-61.848333,-25.161667)" />   <use xlink:href="#dot" transform="translate(-61.866111,-25.141389)" />   <use xlink:href="#dot" transform="translate(-61.848333,-25.161667)" />   <use xlink:href="#dot" transform="translate(-57.338611,-27.427778)" />   <use xlink:href="#dot" transform="translate(-57.144167,-28.4275)" />   <use xlink:href="#dot" transform="translate(-56.6775,-28.110833)" />   <use xlink:href="#dot" transform="translate(-62.332222,-25.266111)" />   <use xlink:href="#dot" transform="translate(-57.195833,-28.546111)" />   <use xlink:href="#dot" transform="translate(-57.195833,-28.546111)" />   <use xlink:href="#dot" transform="translate(-57.144167,-28.4275)" />   <use xlink:href="#dot" transform="translate(-59.3775,-26.560833)" />   <use xlink:href="#dot" transform="translate(-56.685278,-28.096667)" />   <use xlink:href="#dot" transform="translate(-56.942778,-27.478333)" />   <use xlink:href="#dot" transform="translate(-59.780278,-25.316111)" />   <use xlink:href="#dot" transform="translate(-59.780278,-25.316111)" />   <use xlink:href="#dot" transform="translate(-57.985833,-26.08)" />   <use xlink:href="#dot" transform="translate(-59.780278,-25.316111)" />   <use xlink:href="#dot" transform="translate(-59.780278,-25.316111)" />   <use xlink:href="#dot" transform="translate(-58.028611,-28.018333)" />   <use xlink:href="#dot" transform="translate(-58.745,-27.426389)" />   <use xlink:href="#dot" transform="translate(-58.745,-27.426389)" />   <use xlink:href="#dot" transform="translate(-58.745,-27.426389)" />   <use xlink:href="#dot" transform="translate(-58.745,-27.426389)" />   <use xlink:href="#dot" transform="translate(-58.745,-27.426389)" />   <use xlink:href="#dot" transform="translate(-58.745,-27.426389)" />   <use xlink:href="#dot" transform="translate(-58.745,-27.426389)" />   <use xlink:href="#dot" transform="translate(-58.745,-27.426389)" />   <use xlink:href="#dot" transform="translate(-58.745,-27.426389)" />   <use xlink:href="#dot" transform="translate(-58.745,-27.426389)" />   <use xlink:href="#dot" transform="translate(-58.745,-27.426389)" />   <use xlink:href="#dot" transform="translate(-58.745,-27.426389)" />   <use xlink:href="#dot" transform="translate(-58.745,-27.426389)" />   <use xlink:href="#dot" transform="translate(-58.718333,-27.493333)" />   <use xlink:href="#dot" transform="translate(-60.644167,-26.760833)" />   <use xlink:href="#dot" transform="translate(-59.645,-26.193889)" />   <use xlink:href="#dot" transform="translate(-59.967222,-26.276667)" />   <use xlink:href="#dot" transform="translate(-59.967222,-26.276667)" />   <use xlink:href="#dot" transform="translate(-60.839167,-26.800278)" />   <use xlink:href="#dot" transform="translate(-58.341667,-29.102778)" />   <use xlink:href="#dot" transform="translate(-58.341667,-29.102778)" />   <use xlink:href="#dot" transform="translate(-58.341667,-29.102778)" />   <use xlink:href="#dot" transform="translate(-58.341667,-29.102778)" />   <use xlink:href="#dot" transform="translate(-58.341667,-29.102778)" />   <use xlink:href="#dot" transform="translate(-58.341667,-29.102778)" />   <use xlink:href="#dot" transform="translate(-55.786944,-20.471111)" />   <use xlink:href="#dot" transform="translate(-55.786944,-20.471111)" />   <use xlink:href="#dot" transform="translate(-61.8775,-23.9275)" />   <use xlink:href="#dot" transform="translate(-58.394167,-28.910833)" />   <use xlink:href="#dot" transform="translate(-58.394167,-28.910833)" />   <use xlink:href="#dot" transform="translate(-58.574167,-27.318889)" />   <use xlink:href="#dot" transform="translate(-56.675,-28.101389)" />   <use xlink:href="#dot" transform="translate(-57.588611,-27.993056)" />   <use xlink:href="#dot" transform="translate(-55.805279,-26.523333)" />   <use xlink:href="#dot" transform="translate(-55.805279,-26.523333)" />   <use xlink:href="#dot" transform="translate(-56.0775,-28.1275)" />   <use xlink:href="#dot" transform="translate(-55.805279,-26.523333)" />   <use xlink:href="#dot" transform="translate(-55.805279,-26.523333)" />   <use xlink:href="#dot" transform="translate(-55.805279,-26.523333)" />   <use xlink:href="#dot" transform="translate(-55.805279,-26.523333)" />   <use xlink:href="#dot" transform="translate(-55.805279,-26.523333)" />   <use xlink:href="#dot" transform="translate(-55.805279,-26.523333)" />   <use xlink:href="#dot" transform="translate(-55.805279,-26.523333)" />   <use xlink:href="#dot" transform="translate(-55.805279,-26.523333)" />   <use xlink:href="#dot" transform="translate(-60.744167,-27.610833)" />   <use xlink:href="#dot" transform="translate(-60.744167,-27.610833)" />   <use xlink:href="#dot" transform="translate(-56.395278,-27.618889)" />   <use xlink:href="#dot" transform="translate(-56.395278,-27.618889)" />   <use xlink:href="#dot" transform="translate(-56.395278,-27.618889)" />   <use xlink:href="#dot" transform="translate(-58.745,-27.426389)" />   <use xlink:href="#dot" transform="translate(-57.891111,-28.39)" />   <use xlink:href="#dot" transform="translate(-63.4824,-24.445)" />   <use xlink:href="#dot" transform="translate(-63.4824,-24.445)" />   <use xlink:href="#dot" transform="translate(-58.443333,-28.493333)" />   <use xlink:href="#dot" transform="translate(-58.443333,-28.493333)" />   <use xlink:href="#dot" transform="translate(-58.443333,-28.493333)" />   <use xlink:href="#dot" transform="translate(-58.443333,-28.493333)" />   <use xlink:href="#dot" transform="translate(-58.653333,-27.455)" />   <use xlink:href="#dot" transform="translate(-58.653333,-27.455)" />   <use xlink:href="#dot" transform="translate(-55.844167,-27.944167)" />   <use xlink:href="#dot" transform="translate(-55.844167,-27.944167)" />   <use xlink:href="#dot" transform="translate(-58.071389,-28.023611)" />   <use xlink:href="#dot" transform="translate(-58.226389,-28.045278)" />   <use xlink:href="#dot" transform="translate(-58.745278,-27.5825)" />   <use xlink:href="#dot" transform="translate(-58.839444,-27.468611)" />   <use xlink:href="#dot" transform="translate(-59.694167,-26.860833)" />   <use xlink:href="#dot" transform="translate(-56.6775,-28.110833)" />   <use xlink:href="#dot" transform="translate(-56.6775,-28.110833)" />   <use xlink:href="#dot" transform="translate(-56.6775,-28.110833)" />   <use xlink:href="#dot" transform="translate(-56.6775,-28.110833)" />   <use xlink:href="#dot" transform="translate(-56.6775,-28.110833)" />   <use xlink:href="#dot" transform="translate(-56.6775,-28.110833)" />   <use xlink:href="#dot" transform="translate(-55.844167,-27.944167)" />   <use xlink:href="#dot" transform="translate(-55.844167,-27.944167)" />   <use xlink:href="#dot" transform="translate(-57.233639,-24.692472)" />   <use xlink:href="#dot" transform="translate(-55.844167,-27.944167)" />   <use xlink:href="#dot" transform="translate(-55.844167,-27.944167)" />   <use xlink:href="#dot" transform="translate(-58.839444,-27.468611)" />   <use xlink:href="#dot" transform="translate(-58.839444,-27.468611)" />   <use xlink:href="#dot" transform="translate(-59.3775,-26.560833)" />   <use xlink:href="#dot" transform="translate(-59.3775,-26.560833)" />   <use xlink:href="#dot" transform="translate(-59.3775,-26.560833)" />   <use xlink:href="#dot" transform="translate(-59.3775,-26.560833)" />   <use xlink:href="#dot" transform="translate(-57.693056,-28.042222)" />   <use xlink:href="#dot" transform="translate(-58.243611,-27.269722)" />   <use xlink:href="#dot" transform="translate(-57.693056,-28.042222)" />   <use xlink:href="#dot" transform="translate(-59.537659,-22.84454)" />   <use xlink:href="#dot" transform="translate(-58.594167,-24.994167)" />   <use xlink:href="#dot" transform="translate(-58.243611,-27.269722)" />   <use xlink:href="#dot" transform="translate(-58.243611,-27.269722)" />   <use xlink:href="#dot" transform="translate(-57.693056,-28.042222)" />   <use xlink:href="#dot" transform="translate(-58.860833,-24.9775)" />   <use xlink:href="#dot" transform="translate(-58.124722,-25.182778)" />   <use xlink:href="#dot" transform="translate(-59.694167,-26.860833)" />   <use xlink:href="#dot" transform="translate(-59.694167,-26.860833)" />   <use xlink:href="#dot" transform="translate(-58.226389,-28.045278)" />   <use xlink:href="#dot" transform="translate(-59.610833,-26.1775)" />   <use xlink:href="#dot" transform="translate(-61.181389,-25.838889)" />   <use xlink:href="#dot" transform="translate(-61.181389,-25.838889)" />   <use xlink:href="#dot" transform="translate(-61.181389,-25.838889)" />   <use xlink:href="#dot" transform="translate(-61.181389,-25.838889)" />   <use xlink:href="#dot" transform="translate(-61.181389,-25.838889)" />   <use xlink:href="#dot" transform="translate(-58.839444,-27.468611)" />   <use xlink:href="#dot" transform="translate(-56.637778,-29.178333)" />   <use xlink:href="#dot" transform="translate(-58.839444,-27.468611)" />   <use xlink:href="#dot" transform="translate(-56.637778,-29.178333)" />   <use xlink:href="#dot" transform="translate(-58.839444,-27.468611)" />   <use xlink:href="#dot" transform="translate(-56.637778,-29.178333)" />   <use xlink:href="#dot" transform="translate(-56.637778,-29.178333)" />   <use xlink:href="#dot" transform="translate(-58.839444,-27.468611)" />   <use xlink:href="#dot" transform="translate(-58.839444,-27.468611)" />   <use xlink:href="#dot" transform="translate(-56.637778,-29.178333)" />   <use xlink:href="#dot" transform="translate(-56.637778,-29.178333)" />   <use xlink:href="#dot" transform="translate(-58.839444,-27.468611)" />   <use xlink:href="#dot" transform="translate(-58.839444,-27.468611)" />   <use xlink:href="#dot" transform="translate(-57.144167,-29.744167)" />   <use xlink:href="#dot" transform="translate(-56.637778,-29.178333)" />   <use xlink:href="#dot" transform="translate(-56.637778,-29.178333)" />   <use xlink:href="#dot" transform="translate(-56.637778,-29.178333)" />   <use xlink:href="#dot" transform="translate(-56.637778,-29.178333)" />   <use xlink:href="#dot" transform="translate(-56.637778,-29.178333)" />   <use xlink:href="#dot" transform="translate(-56.637778,-29.178333)" />   <use xlink:href="#dot" transform="translate(-56.637778,-29.178333)" />   <use xlink:href="#dot" transform="translate(-56.818611,-29.372778)" />   <use xlink:href="#dot" transform="translate(-58.839444,-27.468611)" />   <use xlink:href="#dot" transform="translate(-58.839444,-27.468611)" />   <use xlink:href="#dot" transform="translate(-56.637778,-29.178333)" />   <use xlink:href="#dot" transform="translate(-56.818611,-29.372778)" />   <use xlink:href="#dot" transform="translate(-58.839444,-27.468611)" />   <use xlink:href="#dot" transform="translate(-58.839444,-27.468611)" />   <use xlink:href="#dot" transform="translate(-59.004444,-28.932222)" />   <use xlink:href="#dot" transform="translate(-58.653333,-27.455)" />   <use xlink:href="#dot" transform="translate(-58.966667,-29.170278)" />   <use xlink:href="#dot" transform="translate(-58.653333,-27.455)" />   <use xlink:href="#dot" transform="translate(-59.101389,-28.985556)" />   <use xlink:href="#dot" transform="translate(-59.101389,-28.985556)" />   <use xlink:href="#dot" transform="translate(-59.101389,-28.985556)" />   <use xlink:href="#dot" transform="translate(-57.144167,-29.744167)" />   <use xlink:href="#dot" transform="translate(-56.637778,-29.178333)" />   <use xlink:href="#dot" transform="translate(-59.101389,-28.985556)" />   <use xlink:href="#dot" transform="translate(-59.101389,-28.985556)" />   <use xlink:href="#dot" transform="translate(-58.693889,-29.276944)" />   <use xlink:href="#dot" transform="translate(-59.101389,-28.985556)" />   <use xlink:href="#dot" transform="translate(-59.101389,-28.985556)" />   <use xlink:href="#dot" transform="translate(-57.794167,-29.8275)" />   <use xlink:href="#dot" transform="translate(-58.653333,-27.455)" />   <use xlink:href="#dot" transform="translate(-59.101389,-28.985556)" />   <use xlink:href="#dot" transform="translate(-58.693889,-29.276944)" />   <use xlink:href="#dot" transform="translate(-59.004444,-28.932222)" />   <use xlink:href="#dot" transform="translate(-57.794167,-29.8275)" />   <use xlink:href="#dot" transform="translate(-58.693889,-29.276944)" />   <use xlink:href="#dot" transform="translate(-59.317222,-29.325)" />   <use xlink:href="#dot" transform="translate(-58.693889,-29.276944)" />   <use xlink:href="#dot" transform="translate(-57.794167,-29.8275)" />   <use xlink:href="#dot" transform="translate(-57.794167,-29.8275)" />   <use xlink:href="#dot" transform="translate(-59.101389,-28.985556)" />   <use xlink:href="#dot" transform="translate(-59.101389,-28.985556)" />   <use xlink:href="#dot" transform="translate(-59.101389,-28.985556)" />   <use xlink:href="#dot" transform="translate(-56.818611,-29.372778)" />   <use xlink:href="#dot" transform="translate(-58.653333,-27.455)" />   <use xlink:href="#dot" transform="translate(-59.101389,-28.985556)" />   <use xlink:href="#dot" transform="translate(-57.794167,-29.8275)" />   <use xlink:href="#dot" transform="translate(-57.794167,-29.8275)" />   <use xlink:href="#dot" transform="translate(-58.966667,-29.170278)" />   <use xlink:href="#dot" transform="translate(-58.693889,-29.276944)" />   <use xlink:href="#dot" transform="translate(-59.101389,-28.985556)" />   <use xlink:href="#dot" transform="translate(-58.693889,-29.276944)" />   <use xlink:href="#dot" transform="translate(-58.653333,-27.455)" />   <use xlink:href="#dot" transform="translate(-59.101389,-28.985556)" />   <use xlink:href="#dot" transform="translate(-59.101389,-28.985556)" />   <use xlink:href="#dot" transform="translate(-58.718333,-27.493333)" />   <use xlink:href="#dot" transform="translate(-57.794167,-29.8275)" />   <use xlink:href="#dot" transform="translate(-59.101389,-28.985556)" />   <use xlink:href="#dot" transform="translate(-59.101389,-28.985556)" />   <use xlink:href="#dot" transform="translate(-59.101389,-28.985556)" />   <use xlink:href="#dot" transform="translate(-58.733056,-27.458889)" />   <use xlink:href="#dot" transform="translate(-57.794167,-29.8275)" />   <use xlink:href="#dot" transform="translate(-59.101389,-28.985556)" />   <use xlink:href="#dot" transform="translate(-59.101389,-28.985556)" />   <use xlink:href="#dot" transform="translate(-58.653333,-27.455)" />   <use xlink:href="#dot" transform="translate(-58.653333,-27.455)" />   <use xlink:href="#dot" transform="translate(-58.653333,-27.455)" />   <use xlink:href="#dot" transform="translate(-58.653333,-27.455)" />   <use xlink:href="#dot" transform="translate(-58.653333,-27.455)" />   <use xlink:href="#dot" transform="translate(-58.653333,-27.455)" />   <use xlink:href="#dot" transform="translate(-58.653333,-27.455)" />   <use xlink:href="#dot" transform="translate(-58.653333,-27.455)" />   <use xlink:href="#dot" transform="translate(-58.653333,-27.455)" />   <use xlink:href="#dot" transform="translate(-58.653333,-27.455)" />   <use xlink:href="#dot" transform="translate(-58.653333,-27.455)" />   <use xlink:href="#dot" transform="translate(-58.653333,-27.455)" />   <use xlink:href="#dot" transform="translate(-58.653333,-27.455)" />   <use xlink:href="#dot" transform="translate(-58.653333,-27.455)" />   <use xlink:href="#dot" transform="translate(-58.653333,-27.455)" />   <use xlink:href="#dot" transform="translate(-58.653333,-27.455)" />   <use xlink:href="#dot" transform="translate(-58.653333,-27.455)" />   <use xlink:href="#dot" transform="translate(-58.718333,-27.493333)" />   <use xlink:href="#dot" transform="translate(-58.733056,-27.458889)" />   <use xlink:href="#dot" transform="translate(-58.733056,-27.458889)" />   <use xlink:href="#dot" transform="translate(-58.653333,-27.455)" />   <use xlink:href="#dot" transform="translate(-58.733056,-27.458889)" />   <use xlink:href="#dot" transform="translate(-58.653333,-27.455)" />   <use xlink:href="#dot" transform="translate(-58.718333,-27.493333)" />   <use xlink:href="#dot" transform="translate(-56.637778,-29.178333)" />   <use xlink:href="#dot" transform="translate(-56.383333,-27.611667)" />   <use xlink:href="#dot" transform="translate(-56.637778,-29.178333)" />   <use xlink:href="#dot" transform="translate(-56.637778,-29.178333)" />   <use xlink:href="#dot" transform="translate(-56.637778,-29.178333)" />   <use xlink:href="#dot" transform="translate(-56.637778,-29.178333)" />   <use xlink:href="#dot" transform="translate(-56.689444,-27.59)" />   <use xlink:href="#dot" transform="translate(-56.637778,-29.178333)" />   <use xlink:href="#dot" transform="translate(-56.637778,-29.178333)" />   <use xlink:href="#dot" transform="translate(-56.637778,-29.178333)" />   <use xlink:href="#dot" transform="translate(-56.637778,-29.178333)" />   <use xlink:href="#dot" transform="translate(-56.637778,-29.178333)" />   <use xlink:href="#dot" transform="translate(-59.465,-18.2133)" />   <use xlink:href="#dot" transform="translate(-59.465,-18.2133)" />   <use xlink:href="#dot" transform="translate(-59.465,-18.2133)" />   <use xlink:href="#dot" transform="translate(-57.274444,-27.769167)" />   <use xlink:href="#dot" transform="translate(-58.653333,-27.455)" />   <use xlink:href="#dot" transform="translate(-58.653333,-27.455)" />   <use xlink:href="#dot" transform="translate(-58.653333,-27.455)" />   <use xlink:href="#dot" transform="translate(-58.653333,-27.455)" />   <use xlink:href="#dot" transform="translate(-58.653333,-27.455)" />   <use xlink:href="#dot" transform="translate(-58.653333,-27.455)" />   <use xlink:href="#dot" transform="translate(-58.653333,-27.455)" />   <use xlink:href="#dot" transform="translate(-58.653333,-27.455)" />   <use xlink:href="#dot" transform="translate(-58.653333,-27.455)" />   <use xlink:href="#dot" transform="translate(-58.653333,-27.455)" />   <use xlink:href="#dot" transform="translate(-58.653333,-27.455)" />   <use xlink:href="#dot" transform="translate(-58.653333,-27.455)" />   <use xlink:href="#dot" transform="translate(-58.653333,-27.455)" />   <use xlink:href="#dot" transform="translate(-55.860833,-28.0775)" />   <use xlink:href="#dot" transform="translate(-58.653333,-27.455)" />   <use xlink:href="#dot" transform="translate(-58.653333,-27.455)" />   <use xlink:href="#dot" transform="translate(-58.653333,-27.455)" />   <use xlink:href="#dot" transform="translate(-58.653333,-27.455)" />   <use xlink:href="#dot" transform="translate(-58.653333,-27.455)" />   <use xlink:href="#dot" transform="translate(-58.653333,-27.455)" />   <use xlink:href="#dot" transform="translate(-58.653333,-27.455)" />   <use xlink:href="#dot" transform="translate(-61.838889,-25.160556)" />   <use xlink:href="#dot" transform="translate(-61.838889,-25.160556)" />   <use xlink:href="#dot" transform="translate(-61.838889,-25.160556)" />   <use xlink:href="#dot" transform="translate(-58.944167,-26.181389)" />   <use xlink:href="#dot" transform="translate(-58.653333,-27.455)" />   <use xlink:href="#dot" transform="translate(-58.653333,-27.455)" />   <use xlink:href="#dot" transform="translate(-58.653333,-27.455)" />   <use xlink:href="#dot" transform="translate(-58.653333,-27.455)" />   <use xlink:href="#dot" transform="translate(-58.653333,-27.455)" />   <use xlink:href="#dot" transform="translate(-58.653333,-27.455)" />   <use xlink:href="#dot" transform="translate(-58.653333,-27.455)" />   <use xlink:href="#dot" transform="translate(-58.653333,-27.455)" />   <use xlink:href="#dot" transform="translate(-58.653333,-27.455)" />   <use xlink:href="#dot" transform="translate(-58.653333,-27.455)" />   <use xlink:href="#dot" transform="translate(-58.653333,-27.455)" />   <use xlink:href="#dot" transform="translate(-58.653333,-27.455)" />   <use xlink:href="#dot" transform="translate(-58.653333,-27.455)" />   <use xlink:href="#dot" transform="translate(-58.653333,-27.455)" />   <use xlink:href="#dot" transform="translate(-58.839444,-27.468611)" />   <use xlink:href="#dot" transform="translate(-58.653333,-27.455)" />   <use xlink:href="#dot" transform="translate(-58.653333,-27.455)" /><polygon class="region" points="-59.381111,-29.8375 -63.4824,-24.445 -59.465,-18.2133 -55.786944,-20.471111 -55.805279,-26.523333 -55.844167,-27.944167 -55.860833,-28.0775 -56.637778,-29.178333 -57.144167,-29.744167 -57.5975,-29.983056 -59.381111,-29.8375 " />
		  </g>
		</svg>