<?xml version="1.0" encoding="UTF-8"?>
	<svg xmlns:xlink="http://www.w3.org/1999/xlink" 
	xmlns="http://www.w3.org/2000/svg" 
	width="360px" height="180px">
	   <style type="text/css">
		  <![CDATA[     
		  .region 
		  { 
			fill:blue; 
			opacity:0.4; 
			stroke:blue;
		  }
		  ]]>
	   </style>

	<circle id="dot" x="-2" y="-2" r="2" style="stroke:none; stroke-width:0; fill:black; opacity:0.7;"/>


	 <image x="0" y="0" width="360" height="180" xlink:href="map.jpg"/>

 
	 <g transform="translate(180,90) scale(1,-1)">   <use xlink:href="#dot" transform="translate(141.52347,-6.07475)" />   <use xlink:href="#dot" transform="translate(141.52347,-6.07475)" />   <use xlink:href="#dot" transform="translate(141.52347,-6.07475)" />   <use xlink:href="#dot" transform="translate(141.52347,-6.07475)" />   <use xlink:href="#dot" transform="translate(141.52347,-6.07475)" />   <use xlink:href="#dot" transform="translate(145.067133,-6.922683)" />   <use xlink:href="#dot" transform="translate(145.067133,-6.922683)" />   <use xlink:href="#dot" transform="translate(145.067133,-6.922683)" />   <use xlink:href="#dot" transform="translate(145.067133,-6.922683)" />   <use xlink:href="#dot" transform="translate(145.067133,-6.922683)" />   <use xlink:href="#dot" transform="translate(145.067133,-6.922683)" />   <use xlink:href="#dot" transform="translate(142.2633,-5.7292)" />   <use xlink:href="#dot" transform="translate(145.067133,-6.922683)" />   <use xlink:href="#dot" transform="translate(145.067133,-6.922683)" />   <use xlink:href="#dot" transform="translate(145.067133,-6.922683)" />   <use xlink:href="#dot" transform="translate(145.067133,-6.922683)" />   <use xlink:href="#dot" transform="translate(145.067133,-6.922683)" />   <use xlink:href="#dot" transform="translate(145.067133,-6.922683)" />   <use xlink:href="#dot" transform="translate(145.067133,-6.922683)" />   <use xlink:href="#dot" transform="translate(145.067133,-6.922683)" />   <use xlink:href="#dot" transform="translate(145.067133,-6.922683)" />   <use xlink:href="#dot" transform="translate(145.067133,-6.922683)" />   <use xlink:href="#dot" transform="translate(145.067133,-6.922683)" />   <use xlink:href="#dot" transform="translate(145.067133,-6.922683)" />   <use xlink:href="#dot" transform="translate(145.067133,-6.922683)" />   <use xlink:href="#dot" transform="translate(145.067133,-6.922683)" />   <use xlink:href="#dot" transform="translate(145.067133,-6.922683)" />   <use xlink:href="#dot" transform="translate(145.067133,-6.922683)" />   <use xlink:href="#dot" transform="translate(145.067133,-6.922683)" />   <use xlink:href="#dot" transform="translate(145.067133,-6.922683)" />   <use xlink:href="#dot" transform="translate(145.067133,-6.922683)" />   <use xlink:href="#dot" transform="translate(145.067133,-6.922683)" />   <use xlink:href="#dot" transform="translate(145.067133,-6.922683)" />   <use xlink:href="#dot" transform="translate(145.067133,-6.922683)" />   <use xlink:href="#dot" transform="translate(145.067133,-6.922683)" />   <use xlink:href="#dot" transform="translate(145.067133,-6.922683)" />   <use xlink:href="#dot" transform="translate(145.067133,-6.922683)" />   <use xlink:href="#dot" transform="translate(145.067133,-6.922683)" />   <use xlink:href="#dot" transform="translate(142.2633,-5.7292)" />   <use xlink:href="#dot" transform="translate(145.067133,-6.922683)" />   <use xlink:href="#dot" transform="translate(145.067133,-6.922683)" />   <use xlink:href="#dot" transform="translate(145.067133,-6.922683)" />   <use xlink:href="#dot" transform="translate(145.067133,-6.922683)" />   <use xlink:href="#dot" transform="translate(145.067133,-6.922683)" />   <use xlink:href="#dot" transform="translate(145.067133,-6.922683)" />   <use xlink:href="#dot" transform="translate(145.067133,-6.922683)" />   <use xlink:href="#dot" transform="translate(145.067133,-6.922683)" />   <use xlink:href="#dot" transform="translate(145.067133,-6.922683)" />   <use xlink:href="#dot" transform="translate(141.5829,-3.396083)" />   <use xlink:href="#dot" transform="translate(141.5829,-3.396083)" />   <use xlink:href="#dot" transform="translate(141.5829,-3.396083)" />   <use xlink:href="#dot" transform="translate(141.5829,-3.396083)" />   <use xlink:href="#dot" transform="translate(141.5829,-3.396083)" />   <use xlink:href="#dot" transform="translate(141.166817,-3.053733)" />   <use xlink:href="#dot" transform="translate(141.5829,-3.396083)" />   <use xlink:href="#dot" transform="translate(141.166817,-3.053733)" />   <use xlink:href="#dot" transform="translate(141.5829,-3.396083)" />   <use xlink:href="#dot" transform="translate(141.5829,-3.396083)" />   <use xlink:href="#dot" transform="translate(141.5829,-3.396083)" />   <use xlink:href="#dot" transform="translate(141.5829,-3.396083)" />   <use xlink:href="#dot" transform="translate(141.5829,-3.396083)" />   <use xlink:href="#dot" transform="translate(141.166817,-3.053733)" />   <use xlink:href="#dot" transform="translate(141.5829,-3.396083)" />   <use xlink:href="#dot" transform="translate(141.5829,-3.396083)" />   <use xlink:href="#dot" transform="translate(141.166817,-3.053733)" />   <use xlink:href="#dot" transform="translate(141.5829,-3.396083)" />   <use xlink:href="#dot" transform="translate(141.5829,-3.396083)" />   <use xlink:href="#dot" transform="translate(141.5829,-3.396083)" />   <use xlink:href="#dot" transform="translate(141.5829,-3.396083)" />   <use xlink:href="#dot" transform="translate(141.5829,-3.396083)" />   <use xlink:href="#dot" transform="translate(141.5829,-3.396083)" />   <use xlink:href="#dot" transform="translate(141.5829,-3.396083)" />   <use xlink:href="#dot" transform="translate(141.5829,-3.396083)" />   <use xlink:href="#dot" transform="translate(141.5829,-3.396083)" />   <use xlink:href="#dot" transform="translate(141.5829,-3.396083)" />   <use xlink:href="#dot" transform="translate(141.5829,-3.396083)" />   <use xlink:href="#dot" transform="translate(141.5828,-3.3961)" />   <use xlink:href="#dot" transform="translate(141.5828,-3.3961)" />   <use xlink:href="#dot" transform="translate(141.09425,-4.62825)" />   <use xlink:href="#dot" transform="translate(143.6519,-3.78717)" />   <use xlink:href="#dot" transform="translate(143.6519,-3.78717)" />   <use xlink:href="#dot" transform="translate(146.4958,-7.7347)" />   <use xlink:href="#dot" transform="translate(145.19622,-6.62203)" />   <use xlink:href="#dot" transform="translate(146.496,-7.735)" />   <use xlink:href="#dot" transform="translate(146.4958,-7.7347)" />   <use xlink:href="#dot" transform="translate(141.28158,-5.33972)" />   <use xlink:href="#dot" transform="translate(142.133,-3.383)" />   <use xlink:href="#dot" transform="translate(142.116,-3.416)" />   <use xlink:href="#dot" transform="translate(142.116,-3.416)" />   <use xlink:href="#dot" transform="translate(142.116,-3.416)" />   <use xlink:href="#dot" transform="translate(142.116,-3.416)" />   <use xlink:href="#dot" transform="translate(142.116,-3.416)" />   <use xlink:href="#dot" transform="translate(142.116,-3.366)" />   <use xlink:href="#dot" transform="translate(141.2,-5.216)" />   <use xlink:href="#dot" transform="translate(141.2,-5.216)" />   <use xlink:href="#dot" transform="translate(141.2,-5.216)" />   <use xlink:href="#dot" transform="translate(141.2,-5.216)" />   <use xlink:href="#dot" transform="translate(143.183,-6.533)" />   <use xlink:href="#dot" transform="translate(142.75,-6.283)" />   <use xlink:href="#dot" transform="translate(142.75,-6.283)" />   <use xlink:href="#dot" transform="translate(142.783,-6.25)" />   <use xlink:href="#dot" transform="translate(142.783,-6.25)" />   <use xlink:href="#dot" transform="translate(145,-6.7)" />   <use xlink:href="#dot" transform="translate(145,-6.7)" />   <use xlink:href="#dot" transform="translate(141.28887905954,-6.122758246529)" />   <use xlink:href="#dot" transform="translate(141.633,-8.716)" />   <use xlink:href="#dot" transform="translate(141.633,-8.716)" />   <use xlink:href="#dot" transform="translate(141.28892205911,-6.1227622465192)" />   <use xlink:href="#dot" transform="translate(141.27080735661,-5.8954089875855)" />   <use xlink:href="#dot" transform="translate(141.28892205911,-6.1227622465192)" />   <use xlink:href="#dot" transform="translate(141.11480620382,-5.4119036700956)" />   <use xlink:href="#dot" transform="translate(141.11480620382,-5.4119036700956)" />   <use xlink:href="#dot" transform="translate(141.11480620382,-5.4119036700956)" />   <use xlink:href="#dot" transform="translate(141.12316405784,-5.5050129425671)" />   <use xlink:href="#dot" transform="translate(141.11480620382,-5.4119036700956)" />   <use xlink:href="#dot" transform="translate(141.11480620382,-5.4119036700956)" />   <use xlink:href="#dot" transform="translate(141.11480620382,-5.4119036700956)" />   <use xlink:href="#dot" transform="translate(141.11480620382,-5.4119036700956)" />   <use xlink:href="#dot" transform="translate(141.11480620382,-5.4119036700956)" />   <use xlink:href="#dot" transform="translate(141.12316405784,-5.5050129425671)" />   <use xlink:href="#dot" transform="translate(142.87642756924,-8.7857868323356)" />   <use xlink:href="#dot" transform="translate(141.5026794368,-5.288529934073)" />   <use xlink:href="#dot" transform="translate(141.5026794368,-5.288529934073)" />   <use xlink:href="#dot" transform="translate(141.5026794368,-5.288529934073)" />   <use xlink:href="#dot" transform="translate(144.833252,-6.497286)" />   <use xlink:href="#dot" transform="translate(144.833252,-6.497286)" />   <use xlink:href="#dot" transform="translate(144.87584112798,-6.7613456310327)" />   <use xlink:href="#dot" transform="translate(144.87765308992,-6.8102582176499)" />   <use xlink:href="#dot" transform="translate(144.87765308992,-6.8102582176499)" />   <use xlink:href="#dot" transform="translate(144.87765308992,-6.8102582176499)" />   <use xlink:href="#dot" transform="translate(144.87837205329,-6.8922785257835)" />   <use xlink:href="#dot" transform="translate(144.87765308992,-6.8102582176499)" />   <use xlink:href="#dot" transform="translate(144.87765308992,-6.8102582176499)" />   <use xlink:href="#dot" transform="translate(144.87584113329,-6.7473057500616)" />   <use xlink:href="#dot" transform="translate(144.87584112798,-6.7613456310327)" />   <use xlink:href="#dot" transform="translate(144.833252,-6.497286)" />   <use xlink:href="#dot" transform="translate(144.833252,-6.497286)" />   <use xlink:href="#dot" transform="translate(144.83308070909,-6.4973188636801)" />   <use xlink:href="#dot" transform="translate(144.833252,-6.497286)" />   <use xlink:href="#dot" transform="translate(144.833252,-6.497286)" />   <use xlink:href="#dot" transform="translate(141.03333,-2.83333)" />   <use xlink:href="#dot" transform="translate(147.558,-9.39308)" />   <use xlink:href="#dot" transform="translate(136.897,-4.66194)" />   <use xlink:href="#dot" transform="translate(145,-6.7)" />   <use xlink:href="#dot" transform="translate(136.897,-4.66194)" />   <use xlink:href="#dot" transform="translate(142.9768616985,-6.3977368636068)" />   <use xlink:href="#dot" transform="translate(145.093,-6.72395)" />   <use xlink:href="#dot" transform="translate(145,-6.7)" />   <use xlink:href="#dot" transform="translate(143.5,-3.57885)" />   <use xlink:href="#dot" transform="translate(143.492,-3.60565)" />   <use xlink:href="#dot" transform="translate(140.64,-4.89)" />   <use xlink:href="#dot" transform="translate(143.492,-3.60565)" />   <use xlink:href="#dot" transform="translate(147.558,-9.39308)" />   <use xlink:href="#dot" transform="translate(141.5528788857,-3.391691026018)" />   <use xlink:href="#dot" transform="translate(143.25085848992,-7.8682204624348)" />   <use xlink:href="#dot" transform="translate(140.64,-4.89)" />   <use xlink:href="#dot" transform="translate(144.63729392106,-6.3689998712016)" />   <use xlink:href="#dot" transform="translate(143.492,-3.60565)" />   <use xlink:href="#dot" transform="translate(141.56487876855,-3.3896910596717)" />   <use xlink:href="#dot" transform="translate(142.51986905165,-3.4232620296882)" />   <use xlink:href="#dot" transform="translate(140.64,-4.89)" />   <use xlink:href="#dot" transform="translate(145.093,-6.72395)" />   <use xlink:href="#dot" transform="translate(136.961,-4.62387)" />   <use xlink:href="#dot" transform="translate(143.492,-3.60565)" />   <use xlink:href="#dot" transform="translate(144.63729392106,-6.3689998712016)" />   <use xlink:href="#dot" transform="translate(144.63729392106,-6.3689998712016)" />   <use xlink:href="#dot" transform="translate(142.67586617333,-4.521322402515)" />   <use xlink:href="#dot" transform="translate(145.093,-6.72395)" />   <use xlink:href="#dot" transform="translate(144.63729392106,-6.3689998712016)" />   <use xlink:href="#dot" transform="translate(143.492,-3.60565)" />   <use xlink:href="#dot" transform="translate(140.64,-4.89)" />   <use xlink:href="#dot" transform="translate(145.093,-6.72395)" />   <use xlink:href="#dot" transform="translate(143.492,-3.60565)" />   <use xlink:href="#dot" transform="translate(142.67586617333,-4.521322402515)" />   <use xlink:href="#dot" transform="translate(147,-6.75)" />   <use xlink:href="#dot" transform="translate(142.2633,-5.7292)" />   <use xlink:href="#dot" transform="translate(144.63729392106,-6.3689998712016)" />   <use xlink:href="#dot" transform="translate(143.492,-3.60565)" />   <use xlink:href="#dot" transform="translate(142.2633,-5.7292)" />   <use xlink:href="#dot" transform="translate(143.492,-3.60565)" />   <use xlink:href="#dot" transform="translate(140.64,-4.89)" />   <use xlink:href="#dot" transform="translate(144.63729392106,-6.3689998712016)" />   <use xlink:href="#dot" transform="translate(142.9768616985,-6.3977368636068)" />   <use xlink:href="#dot" transform="translate(141.5528788857,-3.391691026018)" />   <use xlink:href="#dot" transform="translate(132.788,-2.766)" />   <use xlink:href="#dot" transform="translate(145.31983742779,-4.8967715649268)" />   <use xlink:href="#dot" transform="translate(141.56487876855,-3.3896910596717)" />   <use xlink:href="#dot" transform="translate(145.093,-6.72395)" />   <use xlink:href="#dot" transform="translate(142.53086898332,-3.3895423526194)" />   <use xlink:href="#dot" transform="translate(143.61385471856,-7.1281812327443)" />   <use xlink:href="#dot" transform="translate(142.51986905165,-3.4232620296882)" />   <use xlink:href="#dot" transform="translate(141.58587856147,-3.3876911053206)" />   <use xlink:href="#dot" transform="translate(143.492,-3.60565)" />   <use xlink:href="#dot" transform="translate(141.6518779758,-3.3316916910911)" />   <use xlink:href="#dot" transform="translate(142.67586617333,-4.521322402515)" />   <use xlink:href="#dot" transform="translate(141.56487876855,-3.3896910596717)" />   <use xlink:href="#dot" transform="translate(145.093,-6.72395)" />   <use xlink:href="#dot" transform="translate(143.492,-3.60565)" />   <use xlink:href="#dot" transform="translate(141.78587508536,-4.6993100184455)" />   <use xlink:href="#dot" transform="translate(143.25085848992,-7.8682204624348)" />   <use xlink:href="#dot" transform="translate(145.404,-4.70485)" />   <use xlink:href="#dot" transform="translate(145.093,-6.72395)" />   <use xlink:href="#dot" transform="translate(143.61385471856,-7.1281812327443)" />   <use xlink:href="#dot" transform="translate(137.018,-4.28097)" />   <use xlink:href="#dot" transform="translate(140.64,-4.89)" />   <use xlink:href="#dot" transform="translate(145.093,-6.72395)" />   <use xlink:href="#dot" transform="translate(143.492,-3.60565)" />   <use xlink:href="#dot" transform="translate(143.61385471856,-7.1281812327443)" />   <use xlink:href="#dot" transform="translate(142.53086898332,-3.3895423526194)" />   <use xlink:href="#dot" transform="translate(142.67586617333,-4.521322402515)" />   <use xlink:href="#dot" transform="translate(136.961,-4.62387)" />   <use xlink:href="#dot" transform="translate(145.404,-4.71117)" />   <use xlink:href="#dot" transform="translate(143.492,-3.60565)" />   <use xlink:href="#dot" transform="translate(140.64,-4.89)" />   <use xlink:href="#dot" transform="translate(145.093,-6.72395)" /><polygon class="region" points="141.633,-8.716 132.788,-2.766 141.03333,-2.83333 143.5,-3.57885 145.404,-4.70485 147,-6.75 147.558,-9.39308 141.633,-8.716 " />
		  </g>
		</svg>