<?xml version="1.0" encoding="UTF-8"?>
	<svg xmlns:xlink="http://www.w3.org/1999/xlink" 
	xmlns="http://www.w3.org/2000/svg" 
	width="360px" height="180px">
	   <style type="text/css">
		  <![CDATA[     
		  .region 
		  { 
			fill:blue; 
			opacity:0.4; 
			stroke:blue;
		  }
		  ]]>
	   </style>

	<circle id="dot" x="-2" y="-2" r="2" style="stroke:none; stroke-width:0; fill:black; opacity:0.7;"/>


	 <image x="0" y="0" width="360" height="180" xlink:href="map.jpg"/>

 
	 <g transform="translate(180,90) scale(1,-1)">   <use xlink:href="#dot" transform="translate(-97.122843,19.466298)" />   <use xlink:href="#dot" transform="translate(-97.108639,19.616806)" />   <use xlink:href="#dot" transform="translate(-97.146,19.637)" />   <use xlink:href="#dot" transform="translate(-97.145840200647,19.637864224769)" />   <use xlink:href="#dot" transform="translate(-97.145783,19.63725)" />   <use xlink:href="#dot" transform="translate(-97.146,19.637)" />   <use xlink:href="#dot" transform="translate(-97.145783,19.63725)" />   <use xlink:href="#dot" transform="translate(-97.145840200647,19.637864224769)" />   <use xlink:href="#dot" transform="translate(-97.13,19.63)" />   <use xlink:href="#dot" transform="translate(-97.13,19.63)" />   <use xlink:href="#dot" transform="translate(-97.159224511448,19.635614289859)" />   <use xlink:href="#dot" transform="translate(-97.159,19.635)" />   <use xlink:href="#dot" transform="translate(-97.159224511448,19.635614289859)" />   <use xlink:href="#dot" transform="translate(-97.159,19.635)" />   <use xlink:href="#dot" transform="translate(-97.159224511448,19.635614289859)" />   <use xlink:href="#dot" transform="translate(-97.159,19.635)" />   <use xlink:href="#dot" transform="translate(-97.159224511448,19.635614289859)" />   <use xlink:href="#dot" transform="translate(-97.159,19.635)" />   <use xlink:href="#dot" transform="translate(-97.159,19.635)" />   <use xlink:href="#dot" transform="translate(-97.159224511448,19.635614289859)" />   <use xlink:href="#dot" transform="translate(-97.159,19.635)" />   <use xlink:href="#dot" transform="translate(-97.159224511448,19.635614289859)" />   <use xlink:href="#dot" transform="translate(-97.159224511448,19.635614289859)" />   <use xlink:href="#dot" transform="translate(-97.159,19.635)" />   <use xlink:href="#dot" transform="translate(-97.159224511448,19.635614289859)" />   <use xlink:href="#dot" transform="translate(-97.159224511448,19.635614289859)" />   <use xlink:href="#dot" transform="translate(-97.159,19.635)" />   <use xlink:href="#dot" transform="translate(-97.159224511448,19.635614289859)" />   <use xlink:href="#dot" transform="translate(-97.159,19.635)" />   <use xlink:href="#dot" transform="translate(-97.159224511448,19.635614289859)" />   <use xlink:href="#dot" transform="translate(-97.159,19.635)" />   <use xlink:href="#dot" transform="translate(-97.159,19.635)" />   <use xlink:href="#dot" transform="translate(-97.159,19.635)" />   <use xlink:href="#dot" transform="translate(-97.159224511448,19.635614289859)" />   <use xlink:href="#dot" transform="translate(-97.159,19.635)" />   <use xlink:href="#dot" transform="translate(-97.159224511448,19.635614289859)" />   <use xlink:href="#dot" transform="translate(-97.159224511448,19.635614289859)" />   <use xlink:href="#dot" transform="translate(-97.159224511448,19.635614289859)" />   <use xlink:href="#dot" transform="translate(-97.159,19.635)" />   <use xlink:href="#dot" transform="translate(-97.159,19.635)" />   <use xlink:href="#dot" transform="translate(-97.159224511448,19.635614289859)" />   <use xlink:href="#dot" transform="translate(-97.159224511448,19.635614289859)" />   <use xlink:href="#dot" transform="translate(-97.159,19.635)" />   <use xlink:href="#dot" transform="translate(-97.159,19.635)" />   <use xlink:href="#dot" transform="translate(-97.159224511448,19.635614289859)" />   <use xlink:href="#dot" transform="translate(-97.159224511448,19.635614289859)" />   <use xlink:href="#dot" transform="translate(-97.159,19.635)" />   <use xlink:href="#dot" transform="translate(-97.159224511448,19.635614289859)" />   <use xlink:href="#dot" transform="translate(-97.159,19.635)" />   <use xlink:href="#dot" transform="translate(-97.159224511448,19.635614289859)" />   <use xlink:href="#dot" transform="translate(-97.159,19.635)" />   <use xlink:href="#dot" transform="translate(-97.159224511448,19.635614289859)" />   <use xlink:href="#dot" transform="translate(-97.159,19.635)" />   <use xlink:href="#dot" transform="translate(-97.159,19.635)" />   <use xlink:href="#dot" transform="translate(-97.159,19.635)" />   <use xlink:href="#dot" transform="translate(-97.159224511448,19.635614289859)" />   <use xlink:href="#dot" transform="translate(-97.159,19.635)" />   <use xlink:href="#dot" transform="translate(-97.159224511448,19.635614289859)" />   <use xlink:href="#dot" transform="translate(-97.159224511448,19.635614289859)" />   <use xlink:href="#dot" transform="translate(-97.159,19.635)" />   <use xlink:href="#dot" transform="translate(-97.159,19.635)" />   <use xlink:href="#dot" transform="translate(-97.159224511448,19.635614289859)" />   <use xlink:href="#dot" transform="translate(-97.159224511448,19.635614289859)" />   <use xlink:href="#dot" transform="translate(-97.159,19.635)" />   <use xlink:href="#dot" transform="translate(-97.159224511448,19.635614289859)" />   <use xlink:href="#dot" transform="translate(-97.159224511448,19.635614289859)" />   <use xlink:href="#dot" transform="translate(-97.159,19.635)" />   <use xlink:href="#dot" transform="translate(-97.159,19.635)" />   <use xlink:href="#dot" transform="translate(-97.090611867471,19.63172567253)" />   <use xlink:href="#dot" transform="translate(-97.091,19.631)" />   <use xlink:href="#dot" transform="translate(-97.131,19.629)" />   <use xlink:href="#dot" transform="translate(-97.131,19.629)" />   <use xlink:href="#dot" transform="translate(-97.131,19.629)" />   <use xlink:href="#dot" transform="translate(-97.130889817795,19.629503657245)" />   <use xlink:href="#dot" transform="translate(-97.130889817795,19.629503657245)" />   <use xlink:href="#dot" transform="translate(-97.130889817795,19.629503657245)" />   <use xlink:href="#dot" transform="translate(-97.130889817795,19.629503657245)" />   <use xlink:href="#dot" transform="translate(-97.130889817795,19.629503657245)" />   <use xlink:href="#dot" transform="translate(-97.131,19.629)" />   <use xlink:href="#dot" transform="translate(-97.131,19.629)" />   <use xlink:href="#dot" transform="translate(-97.133,19.629)" />   <use xlink:href="#dot" transform="translate(-97.133,19.629)" />   <use xlink:href="#dot" transform="translate(-97.13338987723,19.629503649884)" />   <use xlink:href="#dot" transform="translate(-97.13338987723,19.629503649884)" />   <use xlink:href="#dot" transform="translate(-97.133,19.629)" />   <use xlink:href="#dot" transform="translate(-97.133,19.629)" />   <use xlink:href="#dot" transform="translate(-97.133,19.629)" />   <use xlink:href="#dot" transform="translate(-97.133,19.629)" />   <use xlink:href="#dot" transform="translate(-97.13338987723,19.629503649884)" />   <use xlink:href="#dot" transform="translate(-97.13338987723,19.629503649884)" />   <use xlink:href="#dot" transform="translate(-97.13338987723,19.629503649884)" />   <use xlink:href="#dot" transform="translate(-97.13338987723,19.629503649884)" />   <use xlink:href="#dot" transform="translate(-97.133,19.629)" />   <use xlink:href="#dot" transform="translate(-97.133,19.629)" />   <use xlink:href="#dot" transform="translate(-97.133,19.629)" />   <use xlink:href="#dot" transform="translate(-97.133,19.629)" />   <use xlink:href="#dot" transform="translate(-97.133,19.629)" />   <use xlink:href="#dot" transform="translate(-97.133,19.629)" />   <use xlink:href="#dot" transform="translate(-97.133,19.629)" />   <use xlink:href="#dot" transform="translate(-97.133,19.629)" />   <use xlink:href="#dot" transform="translate(-97.133,19.629)" />   <use xlink:href="#dot" transform="translate(-97.13338987723,19.629503649884)" />   <use xlink:href="#dot" transform="translate(-97.13338987723,19.629503649884)" />   <use xlink:href="#dot" transform="translate(-97.133,19.629)" />   <use xlink:href="#dot" transform="translate(-97.133,19.629)" />   <use xlink:href="#dot" transform="translate(-97.13338987723,19.629503649884)" />   <use xlink:href="#dot" transform="translate(-97.13338987723,19.629503649884)" />   <use xlink:href="#dot" transform="translate(-97.13338987723,19.629503649884)" />   <use xlink:href="#dot" transform="translate(-97.133,19.629)" />   <use xlink:href="#dot" transform="translate(-97.133,19.629)" />   <use xlink:href="#dot" transform="translate(-97.133,19.629)" />   <use xlink:href="#dot" transform="translate(-97.133,19.629)" />   <use xlink:href="#dot" transform="translate(-97.13338987723,19.629503649884)" />   <use xlink:href="#dot" transform="translate(-97.13338987723,19.629503649884)" />   <use xlink:href="#dot" transform="translate(-97.133,19.629)" />   <use xlink:href="#dot" transform="translate(-97.13338987723,19.629503649884)" />   <use xlink:href="#dot" transform="translate(-97.133,19.629)" />   <use xlink:href="#dot" transform="translate(-97.133,19.629)" />   <use xlink:href="#dot" transform="translate(-97.133,19.629)" />   <use xlink:href="#dot" transform="translate(-97.133,19.629)" />   <use xlink:href="#dot" transform="translate(-97.13338987723,19.629503649884)" />   <use xlink:href="#dot" transform="translate(-97.13338987723,19.629503649884)" />   <use xlink:href="#dot" transform="translate(-97.13338987723,19.629503649884)" />   <use xlink:href="#dot" transform="translate(-97.13338987723,19.629503649884)" />   <use xlink:href="#dot" transform="translate(-97.133,19.629)" />   <use xlink:href="#dot" transform="translate(-97.133,19.629)" />   <use xlink:href="#dot" transform="translate(-97.133,19.629)" />   <use xlink:href="#dot" transform="translate(-97.133,19.629)" />   <use xlink:href="#dot" transform="translate(-97.13338987723,19.629503649884)" />   <use xlink:href="#dot" transform="translate(-97.13338987723,19.629503649884)" />   <use xlink:href="#dot" transform="translate(-97.13338987723,19.629503649884)" />   <use xlink:href="#dot" transform="translate(-97.13338987723,19.629503649884)" />   <use xlink:href="#dot" transform="translate(-97.13338987723,19.629503649884)" />   <use xlink:href="#dot" transform="translate(-97.13338987723,19.629503649884)" />   <use xlink:href="#dot" transform="translate(-97.133,19.629)" />   <use xlink:href="#dot" transform="translate(-97.13338987723,19.629503649884)" />   <use xlink:href="#dot" transform="translate(-97.13338987723,19.629503649884)" />   <use xlink:href="#dot" transform="translate(-97.133,19.629)" />   <use xlink:href="#dot" transform="translate(-97.133,19.629)" />   <use xlink:href="#dot" transform="translate(-97.13338987723,19.629503649884)" />   <use xlink:href="#dot" transform="translate(-97.13338987723,19.629503649884)" />   <use xlink:href="#dot" transform="translate(-97.13338987723,19.629503649884)" />   <use xlink:href="#dot" transform="translate(-97.13338987723,19.629503649884)" />   <use xlink:href="#dot" transform="translate(-97.13338987723,19.629503649884)" />   <use xlink:href="#dot" transform="translate(-97.133,19.629)" />   <use xlink:href="#dot" transform="translate(-97.133,19.629)" />   <use xlink:href="#dot" transform="translate(-97.13338987723,19.629503649884)" />   <use xlink:href="#dot" transform="translate(-97.13338987723,19.629503649884)" />   <use xlink:href="#dot" transform="translate(-97.13338987723,19.629503649884)" />   <use xlink:href="#dot" transform="translate(-97.133,19.629)" />   <use xlink:href="#dot" transform="translate(-97.13338987723,19.629503649884)" />   <use xlink:href="#dot" transform="translate(-97.13338987723,19.629503649884)" />   <use xlink:href="#dot" transform="translate(-97.13338987723,19.629503649884)" />   <use xlink:href="#dot" transform="translate(-97.133,19.629)" />   <use xlink:href="#dot" transform="translate(-97.133,19.629)" />   <use xlink:href="#dot" transform="translate(-97.13338987723,19.629503649884)" />   <use xlink:href="#dot" transform="translate(-97.133,19.629)" />   <use xlink:href="#dot" transform="translate(-97.133,19.629)" />   <use xlink:href="#dot" transform="translate(-97.13338987723,19.629503649884)" />   <use xlink:href="#dot" transform="translate(-97.13338987723,19.629503649884)" />   <use xlink:href="#dot" transform="translate(-97.136,19.634)" />   <use xlink:href="#dot" transform="translate(-97.136,19.634)" />   <use xlink:href="#dot" transform="translate(-97.135889954886,19.635058384434)" />   <use xlink:href="#dot" transform="translate(-97.136,19.634)" />   <use xlink:href="#dot" transform="translate(-97.135889954886,19.635058384434)" />   <use xlink:href="#dot" transform="translate(-97.135889954886,19.635058384434)" />   <use xlink:href="#dot" transform="translate(-97.135889954886,19.635058384434)" />   <use xlink:href="#dot" transform="translate(-97.135889954886,19.635058384434)" />   <use xlink:href="#dot" transform="translate(-97.136,19.634)" />   <use xlink:href="#dot" transform="translate(-97.136,19.634)" />   <use xlink:href="#dot" transform="translate(-97.135889954886,19.635058384434)" />   <use xlink:href="#dot" transform="translate(-97.135889954886,19.635058384434)" />   <use xlink:href="#dot" transform="translate(-97.135889954886,19.635058384434)" />   <use xlink:href="#dot" transform="translate(-97.136,19.634)" />   <use xlink:href="#dot" transform="translate(-97.136,19.634)" />   <use xlink:href="#dot" transform="translate(-97.136,19.634)" />   <use xlink:href="#dot" transform="translate(-97.135889954886,19.635058384434)" />   <use xlink:href="#dot" transform="translate(-97.136,19.634)" />   <use xlink:href="#dot" transform="translate(-97.136,19.634)" />   <use xlink:href="#dot" transform="translate(-97.136,19.634)" />   <use xlink:href="#dot" transform="translate(-97.136,19.634)" />   <use xlink:href="#dot" transform="translate(-97.135889954886,19.635058384434)" />   <use xlink:href="#dot" transform="translate(-97.135889954886,19.635058384434)" />   <use xlink:href="#dot" transform="translate(-97.135889954886,19.635058384434)" />   <use xlink:href="#dot" transform="translate(-97.136,19.634)" />   <use xlink:href="#dot" transform="translate(-97.136,19.634)" />   <use xlink:href="#dot" transform="translate(-97.135889954886,19.635058384434)" />   <use xlink:href="#dot" transform="translate(-97.136,19.634)" />   <use xlink:href="#dot" transform="translate(-97.136,19.634)" />   <use xlink:href="#dot" transform="translate(-97.136,19.634)" />   <use xlink:href="#dot" transform="translate(-97.135889954886,19.635058384434)" />   <use xlink:href="#dot" transform="translate(-97.135889954886,19.635058384434)" />   <use xlink:href="#dot" transform="translate(-97.135889954886,19.635058384434)" />   <use xlink:href="#dot" transform="translate(-97.135889954886,19.635058384434)" />   <use xlink:href="#dot" transform="translate(-97.136,19.634)" />   <use xlink:href="#dot" transform="translate(-97.136,19.634)" />   <use xlink:href="#dot" transform="translate(-97.135889954886,19.635058384434)" />   <use xlink:href="#dot" transform="translate(-97.136,19.634)" />   <use xlink:href="#dot" transform="translate(-97.136,19.634)" />   <use xlink:href="#dot" transform="translate(-97.135889954886,19.635058384434)" />   <use xlink:href="#dot" transform="translate(-97.135889954886,19.635058384434)" />   <use xlink:href="#dot" transform="translate(-97.135889954886,19.635058384434)" />   <use xlink:href="#dot" transform="translate(-97.135889954886,19.635058384434)" />   <use xlink:href="#dot" transform="translate(-97.135889954886,19.635058384434)" />   <use xlink:href="#dot" transform="translate(-97.136,19.634)" />   <use xlink:href="#dot" transform="translate(-97.136,19.634)" />   <use xlink:href="#dot" transform="translate(-97.135889954886,19.635058384434)" />   <use xlink:href="#dot" transform="translate(-97.136,19.634)" />   <use xlink:href="#dot" transform="translate(-97.136,19.634)" />   <use xlink:href="#dot" transform="translate(-97.135889954886,19.635058384434)" />   <use xlink:href="#dot" transform="translate(-97.136,19.634)" />   <use xlink:href="#dot" transform="translate(-97.138113011385,19.636170326226)" />   <use xlink:href="#dot" transform="translate(-97.139,19.635)" />   <use xlink:href="#dot" transform="translate(-97.133,19.629)" />   <use xlink:href="#dot" transform="translate(-97.139,19.635)" />   <use xlink:href="#dot" transform="translate(-97.138946029365,19.635614349603)" />   <use xlink:href="#dot" transform="translate(-97.13338987723,19.629503649884)" />   <use xlink:href="#dot" transform="translate(-97.13338987723,19.629503649884)" />   <use xlink:href="#dot" transform="translate(-97.13338987723,19.629503649884)" />   <use xlink:href="#dot" transform="translate(-97.138946029365,19.635614349603)" />   <use xlink:href="#dot" transform="translate(-97.133,19.629)" />   <use xlink:href="#dot" transform="translate(-97.139,19.635)" />   <use xlink:href="#dot" transform="translate(-97.138946029365,19.635614349603)" />   <use xlink:href="#dot" transform="translate(-97.133,19.629)" />   <use xlink:href="#dot" transform="translate(-97.133,19.629)" />   <use xlink:href="#dot" transform="translate(-97.138946029365,19.635614349603)" />   <use xlink:href="#dot" transform="translate(-97.133,19.629)" />   <use xlink:href="#dot" transform="translate(-97.138946029365,19.635614349603)" />   <use xlink:href="#dot" transform="translate(-97.139,19.635)" />   <use xlink:href="#dot" transform="translate(-97.13338987723,19.629503649884)" />   <use xlink:href="#dot" transform="translate(-97.138946029365,19.635614349603)" />   <use xlink:href="#dot" transform="translate(-97.139,19.635)" />   <use xlink:href="#dot" transform="translate(-97.139,19.635)" />   <use xlink:href="#dot" transform="translate(-97.133,19.629)" />   <use xlink:href="#dot" transform="translate(-97.13338987723,19.629503649884)" />   <use xlink:href="#dot" transform="translate(-97.13338987723,19.629503649884)" />   <use xlink:href="#dot" transform="translate(-97.158390489432,19.634947323305)" />   <use xlink:href="#dot" transform="translate(-97.158390489432,19.634947323305)" />   <use xlink:href="#dot" transform="translate(-97.158390489432,19.634947323305)" />   <use xlink:href="#dot" transform="translate(-97.141724100879,19.637281263977)" />   <use xlink:href="#dot" transform="translate(-97.141724100879,19.637281263977)" />   <use xlink:href="#dot" transform="translate(-97.083388757604,19.650613816385)" />   <use xlink:href="#dot" transform="translate(-97.083388757604,19.650613816385)" />   <use xlink:href="#dot" transform="translate(-97.083388757604,19.650613816385)" />   <use xlink:href="#dot" transform="translate(-97.083388757604,19.650613816385)" />   <use xlink:href="#dot" transform="translate(-97.083388757604,19.650613816385)" />   <use xlink:href="#dot" transform="translate(-97.083388757604,19.650613816385)" />   <use xlink:href="#dot" transform="translate(-97.083388757604,19.650613816385)" />   <use xlink:href="#dot" transform="translate(-97.083388757604,19.650613816385)" />   <use xlink:href="#dot" transform="translate(-97.083388757604,19.650613816385)" />   <use xlink:href="#dot" transform="translate(-97.083388757604,19.650613816385)" />   <use xlink:href="#dot" transform="translate(-97.083388757604,19.650613816385)" />   <use xlink:href="#dot" transform="translate(-97.083388757604,19.650613816385)" />   <use xlink:href="#dot" transform="translate(-97.083388757604,19.650613816385)" />   <use xlink:href="#dot" transform="translate(-97.083388757604,19.650613816385)" />   <use xlink:href="#dot" transform="translate(-97.083388757604,19.650613816385)" />   <use xlink:href="#dot" transform="translate(-97.083388757604,19.650613816385)" />   <use xlink:href="#dot" transform="translate(-97.083388757604,19.650613816385)" />   <use xlink:href="#dot" transform="translate(-97.083388757604,19.650613816385)" />   <use xlink:href="#dot" transform="translate(-97.083388757604,19.650613816385)" />   <use xlink:href="#dot" transform="translate(-97.093,19.588)" />   <use xlink:href="#dot" transform="translate(-97.072,19.588)" />   <use xlink:href="#dot" transform="translate(-97.093,19.589)" />   <use xlink:href="#dot" transform="translate(-97.072,19.588)" />   <use xlink:href="#dot" transform="translate(-97.093,19.588)" />   <use xlink:href="#dot" transform="translate(-97.093,19.588)" /><polygon class="region" points="-97.122843,19.466298 -97.159224511448,19.635614289859 -97.083388757604,19.650613816385 -97.072,19.588 -97.122843,19.466298 " />
		  </g>
		</svg>