<?xml version="1.0" encoding="UTF-8"?>
	<svg xmlns:xlink="http://www.w3.org/1999/xlink" 
	xmlns="http://www.w3.org/2000/svg" 
	width="360px" height="180px">
	   <style type="text/css">
		  <![CDATA[     
		  .region 
		  { 
			fill:blue; 
			opacity:0.4; 
			stroke:blue;
		  }
		  ]]>
	   </style>

	<circle id="dot" x="-2" y="-2" r="2" style="stroke:none; stroke-width:0; fill:black; opacity:0.7;"/>


	 <image x="0" y="0" width="360" height="180" xlink:href="map.jpg"/>

 
	 <g transform="translate(180,90) scale(1,-1)">   <use xlink:href="#dot" transform="translate(-96.64107,17.1957)" />   <use xlink:href="#dot" transform="translate(-96.64215,17.200567)" />   <use xlink:href="#dot" transform="translate(-97.618333,17.136667)" />   <use xlink:href="#dot" transform="translate(-96.641167,17.187)" />   <use xlink:href="#dot" transform="translate(-97.1,17.04)" />   <use xlink:href="#dot" transform="translate(-97.04,16.94)" />   <use xlink:href="#dot" transform="translate(-97.03,16.94)" />   <use xlink:href="#dot" transform="translate(-96.5,17.45)" />   <use xlink:href="#dot" transform="translate(-97.1,17.04)" />   <use xlink:href="#dot" transform="translate(-97.08,16.94)" />   <use xlink:href="#dot" transform="translate(-96.47,17.33)" />   <use xlink:href="#dot" transform="translate(-97.03,16.94)" />   <use xlink:href="#dot" transform="translate(-97.03,16.94)" />   <use xlink:href="#dot" transform="translate(-97.9,16.83)" />   <use xlink:href="#dot" transform="translate(-97.03,16.94)" />   <use xlink:href="#dot" transform="translate(-96.93,16.94)" />   <use xlink:href="#dot" transform="translate(-97.03,16.94)" />   <use xlink:href="#dot" transform="translate(-97.05,16.94)" />   <use xlink:href="#dot" transform="translate(-100.758333,17.808333)" />   <use xlink:href="#dot" transform="translate(-100.758333,17.808333)" />   <use xlink:href="#dot" transform="translate(-96.442810679339,17.135179420882)" />   <use xlink:href="#dot" transform="translate(-96.424754270921,17.14101318711)" />   <use xlink:href="#dot" transform="translate(-96.442810679339,17.135179420882)" />   <use xlink:href="#dot" transform="translate(-96.442810679339,17.135179420882)" />   <use xlink:href="#dot" transform="translate(-96.442810679339,17.135179420882)" />   <use xlink:href="#dot" transform="translate(-96.442810679339,17.135179420882)" />   <use xlink:href="#dot" transform="translate(-96.442810679339,17.135179420882)" />   <use xlink:href="#dot" transform="translate(-96.442810679339,17.135179420882)" />   <use xlink:href="#dot" transform="translate(-96.442810679339,17.135179420882)" />   <use xlink:href="#dot" transform="translate(-96.442810679339,17.135179420882)" />   <use xlink:href="#dot" transform="translate(-96.442810679339,17.135179420882)" />   <use xlink:href="#dot" transform="translate(-96.442810679339,17.135179420882)" />   <use xlink:href="#dot" transform="translate(-96.442810679339,17.135179420882)" />   <use xlink:href="#dot" transform="translate(-96.442810679339,17.135179420882)" />   <use xlink:href="#dot" transform="translate(-96.442810679339,17.135179420882)" />   <use xlink:href="#dot" transform="translate(-96.424754270921,17.14101318711)" />   <use xlink:href="#dot" transform="translate(-96.442810679339,17.135179420882)" />   <use xlink:href="#dot" transform="translate(-96.424754270921,17.14101318711)" />   <use xlink:href="#dot" transform="translate(-96.442810679339,17.135179420882)" />   <use xlink:href="#dot" transform="translate(-96.424754270921,17.14101318711)" />   <use xlink:href="#dot" transform="translate(-96.675,17.175)" />   <use xlink:href="#dot" transform="translate(-100.28,17.56)" />   <use xlink:href="#dot" transform="translate(-96.859485863976,16.924355543005)" />   <use xlink:href="#dot" transform="translate(-96.859485863976,16.924355543005)" />   <use xlink:href="#dot" transform="translate(-96.859485863976,16.924355543005)" />   <use xlink:href="#dot" transform="translate(-96.859485863976,16.924355543005)" />   <use xlink:href="#dot" transform="translate(-96.859485863976,16.924355543005)" />   <use xlink:href="#dot" transform="translate(-97.615338202751,17.1021227114)" />   <use xlink:href="#dot" transform="translate(-96.897542763742,16.925466381597)" />   <use xlink:href="#dot" transform="translate(-97.615338202751,17.1021227114)" />   <use xlink:href="#dot" transform="translate(-97.615338202751,17.1021227114)" />   <use xlink:href="#dot" transform="translate(-97.615338202751,17.1021227114)" />   <use xlink:href="#dot" transform="translate(-97.615338202751,17.1021227114)" />   <use xlink:href="#dot" transform="translate(-97.615338202751,17.1021227114)" />   <use xlink:href="#dot" transform="translate(-97.615338202751,17.1021227114)" />   <use xlink:href="#dot" transform="translate(-97.615338202751,17.1021227114)" />   <use xlink:href="#dot" transform="translate(-97.615338202751,17.1021227114)" />   <use xlink:href="#dot" transform="translate(-97.615338202751,17.1021227114)" />   <use xlink:href="#dot" transform="translate(-97.615338202751,17.1021227114)" />   <use xlink:href="#dot" transform="translate(-97.615338202751,17.1021227114)" />   <use xlink:href="#dot" transform="translate(-97.615338202751,17.1021227114)" />   <use xlink:href="#dot" transform="translate(-97.615338202751,17.1021227114)" />   <use xlink:href="#dot" transform="translate(-96.897542763742,16.925466381597)" />   <use xlink:href="#dot" transform="translate(-97.615338202751,17.1021227114)" />   <use xlink:href="#dot" transform="translate(-96.897542763742,16.925466381597)" />   <use xlink:href="#dot" transform="translate(-97.615338202751,17.1021227114)" />   <use xlink:href="#dot" transform="translate(-96.897542763742,16.925466381597)" />   <use xlink:href="#dot" transform="translate(-96.897542763742,16.925466381597)" />   <use xlink:href="#dot" transform="translate(-97.615338202751,17.1021227114)" />   <use xlink:href="#dot" transform="translate(-97.615338202751,17.1021227114)" />   <use xlink:href="#dot" transform="translate(-97.615338202751,17.1021227114)" />   <use xlink:href="#dot" transform="translate(-97.615338202751,17.1021227114)" />   <use xlink:href="#dot" transform="translate(-97.615338202751,17.1021227114)" />   <use xlink:href="#dot" transform="translate(-97.615338202751,17.1021227114)" />   <use xlink:href="#dot" transform="translate(-97.615338202751,17.1021227114)" />   <use xlink:href="#dot" transform="translate(-96.897542763742,16.925466381597)" />   <use xlink:href="#dot" transform="translate(-97.615338202751,17.1021227114)" />   <use xlink:href="#dot" transform="translate(-97.615338202751,17.1021227114)" />   <use xlink:href="#dot" transform="translate(-97.615338202751,17.1021227114)" />   <use xlink:href="#dot" transform="translate(-96.897542763742,16.925466381597)" />   <use xlink:href="#dot" transform="translate(-96.897542763742,16.925466381597)" />   <use xlink:href="#dot" transform="translate(-97.615338202751,17.1021227114)" />   <use xlink:href="#dot" transform="translate(-97.615338202751,17.1021227114)" />   <use xlink:href="#dot" transform="translate(-97.615338202751,17.1021227114)" />   <use xlink:href="#dot" transform="translate(-97.615338202751,17.1021227114)" />   <use xlink:href="#dot" transform="translate(-96.897542763742,16.925466381597)" />   <use xlink:href="#dot" transform="translate(-97.615338202751,17.1021227114)" />   <use xlink:href="#dot" transform="translate(-97.615338202751,17.1021227114)" />   <use xlink:href="#dot" transform="translate(-97.615338202751,17.1021227114)" />   <use xlink:href="#dot" transform="translate(-97.615338202751,17.1021227114)" />   <use xlink:href="#dot" transform="translate(-97.615338202751,17.1021227114)" />   <use xlink:href="#dot" transform="translate(-97.615338202751,17.1021227114)" />   <use xlink:href="#dot" transform="translate(-97.615338202751,17.1021227114)" />   <use xlink:href="#dot" transform="translate(-96.424754270921,17.14101318711)" />   <use xlink:href="#dot" transform="translate(-96.424754270921,17.14101318711)" />   <use xlink:href="#dot" transform="translate(-96.442810679339,17.135179420882)" />   <use xlink:href="#dot" transform="translate(-96.442810679339,17.135179420882)" />   <use xlink:href="#dot" transform="translate(-96.442810679339,17.135179420882)" />   <use xlink:href="#dot" transform="translate(-96.601147577855,17.189065353991)" />   <use xlink:href="#dot" transform="translate(-96.424754270921,17.14101318711)" />   <use xlink:href="#dot" transform="translate(-96.442810679339,17.135179420882)" />   <use xlink:href="#dot" transform="translate(-96.442810679339,17.135179420882)" />   <use xlink:href="#dot" transform="translate(-96.442810679339,17.135179420882)" />   <use xlink:href="#dot" transform="translate(-96.442810679339,17.135179420882)" />   <use xlink:href="#dot" transform="translate(-96.636981567507,17.236562942418)" />   <use xlink:href="#dot" transform="translate(-96.424754270921,17.14101318711)" />   <use xlink:href="#dot" transform="translate(-96.653648923517,17.22434149006)" />   <use xlink:href="#dot" transform="translate(-96.653648923517,17.22434149006)" />   <use xlink:href="#dot" transform="translate(-96.424754270921,17.14101318711)" />   <use xlink:href="#dot" transform="translate(-96.653648923517,17.22434149006)" />   <use xlink:href="#dot" transform="translate(-96.636981567507,17.236562942418)" />   <use xlink:href="#dot" transform="translate(-96.636981567507,17.236562942418)" />   <use xlink:href="#dot" transform="translate(-96.648093750238,17.210453181366)" />   <use xlink:href="#dot" transform="translate(-96.648093750238,17.210453181366)" />   <use xlink:href="#dot" transform="translate(-96.442810679339,17.135179420882)" />   <use xlink:href="#dot" transform="translate(-96.424754270921,17.14101318711)" />   <use xlink:href="#dot" transform="translate(-96.424754270921,17.14101318711)" />   <use xlink:href="#dot" transform="translate(-96.424754270921,17.14101318711)" />   <use xlink:href="#dot" transform="translate(-96.636981567507,17.236562942418)" />   <use xlink:href="#dot" transform="translate(-96.424754270921,17.14101318711)" />   <use xlink:href="#dot" transform="translate(-96.424754270921,17.14101318711)" />   <use xlink:href="#dot" transform="translate(-96.424754270921,17.14101318711)" />   <use xlink:href="#dot" transform="translate(-96.442810679339,17.135179420882)" />   <use xlink:href="#dot" transform="translate(-96.653648923517,17.22434149006)" />   <use xlink:href="#dot" transform="translate(-96.653648923517,17.22434149006)" />   <use xlink:href="#dot" transform="translate(-96.442810679339,17.135179420882)" />   <use xlink:href="#dot" transform="translate(-96.601147577855,17.189065353991)" />   <use xlink:href="#dot" transform="translate(-96.636981567507,17.236562942418)" />   <use xlink:href="#dot" transform="translate(-96.601147577855,17.189065353991)" />   <use xlink:href="#dot" transform="translate(-96.648093750238,17.210453181366)" />   <use xlink:href="#dot" transform="translate(-96.442810679339,17.135179420882)" />   <use xlink:href="#dot" transform="translate(-96.648093750238,17.210453181366)" />   <use xlink:href="#dot" transform="translate(-96.442810679339,17.135179420882)" />   <use xlink:href="#dot" transform="translate(-96.653648923517,17.22434149006)" />   <use xlink:href="#dot" transform="translate(-96.442810679339,17.135179420882)" />   <use xlink:href="#dot" transform="translate(-96.601147577855,17.189065353991)" />   <use xlink:href="#dot" transform="translate(-96.424754270921,17.14101318711)" />   <use xlink:href="#dot" transform="translate(-96.442810679339,17.135179420882)" />   <use xlink:href="#dot" transform="translate(-96.636981567507,17.236562942418)" />   <use xlink:href="#dot" transform="translate(-96.636981567507,17.236562942418)" />   <use xlink:href="#dot" transform="translate(-96.653648923517,17.22434149006)" />   <use xlink:href="#dot" transform="translate(-96.636981567507,17.236562942418)" />   <use xlink:href="#dot" transform="translate(-96.424754270921,17.14101318711)" />   <use xlink:href="#dot" transform="translate(-96.636981567507,17.236562942418)" />   <use xlink:href="#dot" transform="translate(-96.442810679339,17.135179420882)" />   <use xlink:href="#dot" transform="translate(-96.424754270921,17.14101318711)" />   <use xlink:href="#dot" transform="translate(-96.636981567507,17.236562942418)" />   <use xlink:href="#dot" transform="translate(-96.442810679339,17.135179420882)" />   <use xlink:href="#dot" transform="translate(-96.601147577855,17.189065353991)" />   <use xlink:href="#dot" transform="translate(-96.653648923517,17.22434149006)" />   <use xlink:href="#dot" transform="translate(-96.601147577855,17.189065353991)" />   <use xlink:href="#dot" transform="translate(-96.636981567507,17.236562942418)" />   <use xlink:href="#dot" transform="translate(-96.636981567507,17.236562942418)" />   <use xlink:href="#dot" transform="translate(-96.636981567507,17.236562942418)" />   <use xlink:href="#dot" transform="translate(-96.424754270921,17.14101318711)" />   <use xlink:href="#dot" transform="translate(-96.653648923517,17.22434149006)" />   <use xlink:href="#dot" transform="translate(-96.636981567507,17.236562942418)" />   <use xlink:href="#dot" transform="translate(-96.601147577855,17.189065353991)" />   <use xlink:href="#dot" transform="translate(-96.442810679339,17.135179420882)" />   <use xlink:href="#dot" transform="translate(-96.424754270921,17.14101318711)" />   <use xlink:href="#dot" transform="translate(-96.648093750238,17.210453181366)" />   <use xlink:href="#dot" transform="translate(-96.424754270921,17.14101318711)" />   <use xlink:href="#dot" transform="translate(-96.636981567507,17.236562942418)" />   <use xlink:href="#dot" transform="translate(-96.442810679339,17.135179420882)" />   <use xlink:href="#dot" transform="translate(-96.424754270921,17.14101318711)" />   <use xlink:href="#dot" transform="translate(-96.653648923517,17.22434149006)" />   <use xlink:href="#dot" transform="translate(-96.636981567507,17.236562942418)" />   <use xlink:href="#dot" transform="translate(-96.636981567507,17.236562942418)" />   <use xlink:href="#dot" transform="translate(-96.636981567507,17.236562942418)" />   <use xlink:href="#dot" transform="translate(-96.636981567507,17.236562942418)" />   <use xlink:href="#dot" transform="translate(-96.424754270921,17.14101318711)" />   <use xlink:href="#dot" transform="translate(-96.442810679339,17.135179420882)" />   <use xlink:href="#dot" transform="translate(-96.424754270921,17.14101318711)" />   <use xlink:href="#dot" transform="translate(-96.424754270921,17.14101318711)" />   <use xlink:href="#dot" transform="translate(-96.648093750238,17.210453181366)" />   <use xlink:href="#dot" transform="translate(-96.653648923517,17.22434149006)" />   <use xlink:href="#dot" transform="translate(-96.636981567507,17.236562942418)" />   <use xlink:href="#dot" transform="translate(-96.653648923517,17.22434149006)" />   <use xlink:href="#dot" transform="translate(-96.653648923517,17.22434149006)" />   <use xlink:href="#dot" transform="translate(-96.653648923517,17.22434149006)" />   <use xlink:href="#dot" transform="translate(-96.442810679339,17.135179420882)" />   <use xlink:href="#dot" transform="translate(-96.442810679339,17.135179420882)" />   <use xlink:href="#dot" transform="translate(-96.424754270921,17.14101318711)" />   <use xlink:href="#dot" transform="translate(-96.442810679339,17.135179420882)" />   <use xlink:href="#dot" transform="translate(-96.601147577855,17.189065353991)" />   <use xlink:href="#dot" transform="translate(-96.653648923517,17.22434149006)" />   <use xlink:href="#dot" transform="translate(-96.636981567507,17.236562942418)" />   <use xlink:href="#dot" transform="translate(-96.601147577855,17.189065353991)" />   <use xlink:href="#dot" transform="translate(-96.424754270921,17.14101318711)" />   <use xlink:href="#dot" transform="translate(-96.442810679339,17.135179420882)" />   <use xlink:href="#dot" transform="translate(-96.636981567507,17.236562942418)" />   <use xlink:href="#dot" transform="translate(-96.424754270921,17.14101318711)" />   <use xlink:href="#dot" transform="translate(-96.648093750238,17.210453181366)" />   <use xlink:href="#dot" transform="translate(-96.636981567507,17.236562942418)" />   <use xlink:href="#dot" transform="translate(-96.653648923517,17.22434149006)" />   <use xlink:href="#dot" transform="translate(-96.601147577855,17.189065353991)" />   <use xlink:href="#dot" transform="translate(-96.601147577855,17.189065353991)" />   <use xlink:href="#dot" transform="translate(-96.601147577855,17.189065353991)" />   <use xlink:href="#dot" transform="translate(-96.654759938741,17.220730662599)" />   <use xlink:href="#dot" transform="translate(-96.601147577855,17.189065353991)" />   <use xlink:href="#dot" transform="translate(-96.601147577855,17.189065353991)" />   <use xlink:href="#dot" transform="translate(-96.648093750238,17.210453181366)" />   <use xlink:href="#dot" transform="translate(-96.601147577855,17.189065353991)" />   <use xlink:href="#dot" transform="translate(-96.654759938741,17.220730662599)" />   <use xlink:href="#dot" transform="translate(-96.732778,17.32)" />   <use xlink:href="#dot" transform="translate(-96.654759938741,17.220730662599)" />   <use xlink:href="#dot" transform="translate(-96.654759938741,17.220730662599)" />   <use xlink:href="#dot" transform="translate(-96.439167,17.130556)" />   <use xlink:href="#dot" transform="translate(-96.601147577855,17.189065353991)" />   <use xlink:href="#dot" transform="translate(-96.601147577855,17.189065353991)" />   <use xlink:href="#dot" transform="translate(-96.648093750238,17.210453181366)" />   <use xlink:href="#dot" transform="translate(-96.601147577855,17.189065353991)" />   <use xlink:href="#dot" transform="translate(-96.601147577855,17.189065353991)" />   <use xlink:href="#dot" transform="translate(-96.654759938741,17.220730662599)" />   <use xlink:href="#dot" transform="translate(-96.648093750238,17.210453181366)" />   <use xlink:href="#dot" transform="translate(-96.601147577855,17.189065353991)" />   <use xlink:href="#dot" transform="translate(-96.648093750238,17.210453181366)" />   <use xlink:href="#dot" transform="translate(-96.654759938741,17.220730662599)" />   <use xlink:href="#dot" transform="translate(-96.601147577855,17.189065353991)" />   <use xlink:href="#dot" transform="translate(-96.601147577855,17.189065353991)" />   <use xlink:href="#dot" transform="translate(-96.601147577855,17.189065353991)" />   <use xlink:href="#dot" transform="translate(-96.601147577855,17.189065353991)" />   <use xlink:href="#dot" transform="translate(-96.654759938741,17.220730662599)" />   <use xlink:href="#dot" transform="translate(-96.732778,17.32)" />   <use xlink:href="#dot" transform="translate(-96.439167,17.130556)" />   <use xlink:href="#dot" transform="translate(-96.90004281503,16.922966496809)" />   <use xlink:href="#dot" transform="translate(-96.654759938741,17.220730662599)" />   <use xlink:href="#dot" transform="translate(-96.601147577855,17.189065353991)" />   <use xlink:href="#dot" transform="translate(-96.654759938741,17.220730662599)" />   <use xlink:href="#dot" transform="translate(-96.601147577855,17.189065353991)" />   <use xlink:href="#dot" transform="translate(-96.654759938741,17.220730662599)" />   <use xlink:href="#dot" transform="translate(-96.654759938741,17.220730662599)" />   <use xlink:href="#dot" transform="translate(-96.648093750238,17.210453181366)" />   <use xlink:href="#dot" transform="translate(-96.439167,17.130556)" />   <use xlink:href="#dot" transform="translate(-96.648093750238,17.210453181366)" />   <use xlink:href="#dot" transform="translate(-96.654759938741,17.220730662599)" />   <use xlink:href="#dot" transform="translate(-96.648093750238,17.210453181366)" />   <use xlink:href="#dot" transform="translate(-96.601147577855,17.189065353991)" />   <use xlink:href="#dot" transform="translate(-96.439167,17.130556)" />   <use xlink:href="#dot" transform="translate(-96.732778,17.32)" />   <use xlink:href="#dot" transform="translate(-96.601147577855,17.189065353991)" />   <use xlink:href="#dot" transform="translate(-96.601147577855,17.189065353991)" />   <use xlink:href="#dot" transform="translate(-96.654759938741,17.220730662599)" />   <use xlink:href="#dot" transform="translate(-96.654759938741,17.220730662599)" />   <use xlink:href="#dot" transform="translate(-96.601147577855,17.189065353991)" />   <use xlink:href="#dot" transform="translate(-96.654759938741,17.220730662599)" />   <use xlink:href="#dot" transform="translate(-96.654759938741,17.220730662599)" />   <use xlink:href="#dot" transform="translate(-96.654759938741,17.220730662599)" />   <use xlink:href="#dot" transform="translate(-96.601147577855,17.189065353991)" />   <use xlink:href="#dot" transform="translate(-96.732778,17.32)" />   <use xlink:href="#dot" transform="translate(-96.654759938741,17.220730662599)" />   <use xlink:href="#dot" transform="translate(-96.654759938741,17.220730662599)" />   <use xlink:href="#dot" transform="translate(-96.90004281503,16.922966496809)" />   <use xlink:href="#dot" transform="translate(-96.601147577855,17.189065353991)" />   <use xlink:href="#dot" transform="translate(-96.654759938741,17.220730662599)" />   <use xlink:href="#dot" transform="translate(-96.648093750238,17.210453181366)" />   <use xlink:href="#dot" transform="translate(-96.601147577855,17.189065353991)" />   <use xlink:href="#dot" transform="translate(-96.732778,17.32)" />   <use xlink:href="#dot" transform="translate(-96.439167,17.130556)" />   <use xlink:href="#dot" transform="translate(-96.648093750238,17.210453181366)" />   <use xlink:href="#dot" transform="translate(-96.601147577855,17.189065353991)" />   <use xlink:href="#dot" transform="translate(-96.648093750238,17.210453181366)" />   <use xlink:href="#dot" transform="translate(-96.654759938741,17.220730662599)" />   <use xlink:href="#dot" transform="translate(-96.732778,17.32)" />   <use xlink:href="#dot" transform="translate(-96.648093750238,17.210453181366)" />   <use xlink:href="#dot" transform="translate(-96.648093750238,17.210453181366)" />   <use xlink:href="#dot" transform="translate(-96.648093750238,17.210453181366)" />   <use xlink:href="#dot" transform="translate(-96.601147577855,17.189065353991)" />   <use xlink:href="#dot" transform="translate(-96.648093750238,17.210453181366)" />   <use xlink:href="#dot" transform="translate(-96.601147577855,17.189065353991)" />   <use xlink:href="#dot" transform="translate(-96.648093750238,17.210453181366)" />   <use xlink:href="#dot" transform="translate(-96.732778,17.32)" />   <use xlink:href="#dot" transform="translate(-96.601147577855,17.189065353991)" />   <use xlink:href="#dot" transform="translate(-96.601147577855,17.189065353991)" />   <use xlink:href="#dot" transform="translate(-96.601147577855,17.189065353991)" />   <use xlink:href="#dot" transform="translate(-96.601147577855,17.189065353991)" />   <use xlink:href="#dot" transform="translate(-96.601147577855,17.189065353991)" />   <use xlink:href="#dot" transform="translate(-96.601147577855,17.189065353991)" />   <use xlink:href="#dot" transform="translate(-96.601147577855,17.189065353991)" />   <use xlink:href="#dot" transform="translate(-96.601147577855,17.189065353991)" />   <use xlink:href="#dot" transform="translate(-96.601147577855,17.189065353991)" />   <use xlink:href="#dot" transform="translate(-96.601147577855,17.189065353991)" />   <use xlink:href="#dot" transform="translate(-96.601147577855,17.189065353991)" />   <use xlink:href="#dot" transform="translate(-96.601147577855,17.189065353991)" />   <use xlink:href="#dot" transform="translate(-96.601147577855,17.189065353991)" />   <use xlink:href="#dot" transform="translate(-96.601147577855,17.189065353991)" />   <use xlink:href="#dot" transform="translate(-96.601147577855,17.189065353991)" />   <use xlink:href="#dot" transform="translate(-96.601147577855,17.189065353991)" />   <use xlink:href="#dot" transform="translate(-96.601147577855,17.189065353991)" />   <use xlink:href="#dot" transform="translate(-96.601147577855,17.189065353991)" />   <use xlink:href="#dot" transform="translate(-96.648093753616,17.21156412731)" />   <use xlink:href="#dot" transform="translate(-96.639204630935,17.240173760563)" />   <use xlink:href="#dot" transform="translate(-96.639204630935,17.240173760563)" />   <use xlink:href="#dot" transform="translate(-96.639204630935,17.240173760563)" />   <use xlink:href="#dot" transform="translate(-96.639204630935,17.240173760563)" />   <use xlink:href="#dot" transform="translate(-96.648093753616,17.21156412731)" />   <use xlink:href="#dot" transform="translate(-96.64642676667,17.228786294135)" />   <use xlink:href="#dot" transform="translate(-96.639204630935,17.240173760563)" />   <use xlink:href="#dot" transform="translate(-96.639204630935,17.240173760563)" />   <use xlink:href="#dot" transform="translate(-96.639204630935,17.240173760563)" /><polygon class="region" points="-100.28,17.56 -100.758333,17.808333 -96.5,17.45 -96.47,17.33 -96.424754270921,17.14101318711 -96.439167,17.130556 -96.859485863976,16.924355543005 -97.9,16.83 -100.28,17.56 " />
		  </g>
		</svg>