<?xml version="1.0" encoding="UTF-8"?>
	<svg xmlns:xlink="http://www.w3.org/1999/xlink" 
	xmlns="http://www.w3.org/2000/svg" 
	width="360px" height="180px">
	   <style type="text/css">
		  <![CDATA[     
		  .region 
		  { 
			fill:blue; 
			opacity:0.4; 
			stroke:blue;
		  }
		  ]]>
	   </style>

	<circle id="dot" x="-2" y="-2" r="2" style="stroke:none; stroke-width:0; fill:black; opacity:0.7;"/>


	 <image x="0" y="0" width="360" height="180" xlink:href="map.jpg"/>

 
	 <g transform="translate(180,90) scale(1,-1)"><polygon class="region" points="22.597668147,-19.646691706 24.276676255,-19.229346445 26.421495457,-19.284709604 27.370789495,-18.742224958 27.805366177,-18.718441372 28.232623679,-18.971346106 29.542638868,-20.644963968 30.423614632,-20.979152379 32.274238736,-20.561565167 33.752000377,-19.830315744 34.669825326,-19.858601683 34.769904469,-20.142535568 34.750988819,-20.173758114 34.656895313,-20.143415291 34.618980216,-20.158560227 34.736608445,-20.223809045 34.602359994,-20.524343571 34.783914737,-20.676412678 33.508434182,-24.262706484 33.452111267,-25.165272766 32.445234303,-26.001592737 32.668905675,-26.115388005 32.70530987,-26.306896714 32.67151467,-26.358490955 32.667711139,-26.380994326 32.678875986,-26.395122685 32.711326031,-26.316245817 32.691876463,-26.197208337 32.885041832,-26.285018328 32.88049659,-26.172142398 32.962825319,-26.087622876 32.571149444,-28.064706452 32.083024891,-27.716952673 31.764294274,-27.244175405 31.432381819,-24.80960222 31.112457157,-24.448626799 30.158667218,-24.448514517 28.863917155,-24.776776714 27.20120742,-24.763017166 26.140530817,-25.651258529 25.001418817,-25.962288034 22.951544043,-24.921533677 21.410961733,-24.370268014 20.153414859,-23.610058808 17.441836922,-22.599009202 16.179335156,-21.450698962 13.865659899,-18.85195562 12.372052868,-16.703311779 12.229845485,-16.160423234 12.306744693,-15.680174392 12.572695559,-15.465646285 13.280505472,-15.593510612 15.717197033,-16.928370508 17.031050018,-17.365075674 20.431824804,-19.424205839 22.597668147,-19.646691706 " /><polygon class="region" points="29.917408378,-27.957568824 29.837042763,-27.962296213 29.870134487,-27.825201928 29.936317935,-27.834656706 29.917408378,-27.957568824 " />
		  </g>
		</svg>