<?xml version="1.0" encoding="UTF-8"?>
	<svg xmlns:xlink="http://www.w3.org/1999/xlink" 
	xmlns="http://www.w3.org/2000/svg" 
	width="360px" height="180px">
	   <style type="text/css">
		  <![CDATA[     
		  .region 
		  { 
			fill:blue; 
			opacity:0.4; 
			stroke:blue;
		  }
		  ]]>
	   </style>

	<circle id="dot" x="-2" y="-2" r="2" style="stroke:none; stroke-width:0; fill:black; opacity:0.7;"/>


	 <image x="0" y="0" width="360" height="180" xlink:href="map.jpg"/>

 
	 <g transform="translate(180,90) scale(1,-1)">   <use xlink:href="#dot" transform="translate(13.245583,-17.002056)" />   <use xlink:href="#dot" transform="translate(13.245583,-17.002056)" />   <use xlink:href="#dot" transform="translate(26.53278,-25.30278)" />   <use xlink:href="#dot" transform="translate(32.650278,-22.531389)" />   <use xlink:href="#dot" transform="translate(32.531833,-26.980667)" />   <use xlink:href="#dot" transform="translate(32.625,-26.972167)" />   <use xlink:href="#dot" transform="translate(32.575667,-26.960833)" />   <use xlink:href="#dot" transform="translate(32.603833,-26.969833)" />   <use xlink:href="#dot" transform="translate(32.603833,-26.969833)" />   <use xlink:href="#dot" transform="translate(31.96667,-26.46667)" />   <use xlink:href="#dot" transform="translate(32.41667,-28.1)" />   <use xlink:href="#dot" transform="translate(31.46667,-24.63333)" />   <use xlink:href="#dot" transform="translate(30.66667,-23.65)" />   <use xlink:href="#dot" transform="translate(32.65,-25.03333)" />   <use xlink:href="#dot" transform="translate(33.5,-22.83333)" />   <use xlink:href="#dot" transform="translate(32.65,-25.03333)" />   <use xlink:href="#dot" transform="translate(32.65,-25.03333)" />   <use xlink:href="#dot" transform="translate(33.5,-22.83333)" />   <use xlink:href="#dot" transform="translate(32.65,-25.03333)" />   <use xlink:href="#dot" transform="translate(33.5,-22.83333)" />   <use xlink:href="#dot" transform="translate(32.65,-25.03333)" />   <use xlink:href="#dot" transform="translate(32.65,-25.03333)" />   <use xlink:href="#dot" transform="translate(32.65,-25.03333)" />   <use xlink:href="#dot" transform="translate(33.5,-22.83333)" />   <use xlink:href="#dot" transform="translate(32.65,-25.03333)" />   <use xlink:href="#dot" transform="translate(32.65,-25.03333)" /><polygon class="region" points="26.53278,-25.30278 13.245583,-17.002056 32.650278,-22.531389 33.5,-22.83333 32.41667,-28.1 26.53278,-25.30278 " />
		  </g>
		</svg>