<?xml version="1.0" encoding="UTF-8"?>
	<svg xmlns:xlink="http://www.w3.org/1999/xlink" 
	xmlns="http://www.w3.org/2000/svg" 
	width="360px" height="180px">
	   <style type="text/css">
		  <![CDATA[     
		  .region 
		  { 
			fill:blue; 
			opacity:0.4; 
			stroke:blue;
		  }
		  ]]>
	   </style>

	<circle id="dot" x="-2" y="-2" r="2" style="stroke:none; stroke-width:0; fill:black; opacity:0.7;"/>


	 <image x="0" y="0" width="360" height="180" xlink:href="map.jpg"/>

 
	 <g transform="translate(180,90) scale(1,-1)">   <use xlink:href="#dot" transform="translate(-40.335111,-19.818889)" />   <use xlink:href="#dot" transform="translate(-40.335111,-19.818889)" />   <use xlink:href="#dot" transform="translate(-44.876942,-23.309405)" />   <use xlink:href="#dot" transform="translate(-40.542222,-19.909722)" />   <use xlink:href="#dot" transform="translate(-51.188521,-29.595943)" />   <use xlink:href="#dot" transform="translate(-47.001652,-24.312468)" />   <use xlink:href="#dot" transform="translate(-40.516667,-19.928611)" />   <use xlink:href="#dot" transform="translate(-47.001652,-24.312468)" />   <use xlink:href="#dot" transform="translate(-40.52,-19.96)" />   <use xlink:href="#dot" transform="translate(-40.303444,-20.277636)" />   <use xlink:href="#dot" transform="translate(-29.841389,-18.355278)" />   <use xlink:href="#dot" transform="translate(-29.841389,-18.355278)" />   <use xlink:href="#dot" transform="translate(-29.841389,-18.355278)" />   <use xlink:href="#dot" transform="translate(-39.496111,-15.419722)" />   <use xlink:href="#dot" transform="translate(-40.389444,-18.998611)" />   <use xlink:href="#dot" transform="translate(-40.600278,-19.935556)" />   <use xlink:href="#dot" transform="translate(-40.533333,-19.95)" />   <use xlink:href="#dot" transform="translate(-40.600278,-19.935556)" />   <use xlink:href="#dot" transform="translate(-40.600278,-19.935556)" />   <use xlink:href="#dot" transform="translate(-40.600278,-19.935556)" />   <use xlink:href="#dot" transform="translate(-40.600278,-19.935556)" />   <use xlink:href="#dot" transform="translate(-40.600278,-19.935556)" />   <use xlink:href="#dot" transform="translate(-40.600278,-19.935556)" />   <use xlink:href="#dot" transform="translate(-40.600278,-19.935556)" />   <use xlink:href="#dot" transform="translate(-40.600278,-19.935556)" />   <use xlink:href="#dot" transform="translate(-40.600278,-19.935556)" />   <use xlink:href="#dot" transform="translate(-40.600278,-19.935556)" />   <use xlink:href="#dot" transform="translate(-40.600278,-19.935556)" />   <use xlink:href="#dot" transform="translate(-40.600278,-19.935556)" />   <use xlink:href="#dot" transform="translate(-40.533333,-19.95)" />   <use xlink:href="#dot" transform="translate(-40.600278,-19.935556)" />   <use xlink:href="#dot" transform="translate(-40.533333,-19.95)" />   <use xlink:href="#dot" transform="translate(-40.072222,-19.391111)" />   <use xlink:href="#dot" transform="translate(-40.072222,-19.391111)" />   <use xlink:href="#dot" transform="translate(-40.072222,-19.391111)" />   <use xlink:href="#dot" transform="translate(-40.072222,-19.391111)" />   <use xlink:href="#dot" transform="translate(-40.600278,-19.935556)" />   <use xlink:href="#dot" transform="translate(-39.732222,-18.593333)" />   <use xlink:href="#dot" transform="translate(-40.533333,-19.95)" />   <use xlink:href="#dot" transform="translate(-40.072222,-19.391111)" />   <use xlink:href="#dot" transform="translate(-40.072222,-19.391111)" />   <use xlink:href="#dot" transform="translate(-40.072222,-19.391111)" />   <use xlink:href="#dot" transform="translate(-40.600278,-19.935556)" />   <use xlink:href="#dot" transform="translate(-40.600278,-19.935556)" />   <use xlink:href="#dot" transform="translate(-40.600278,-19.935556)" />   <use xlink:href="#dot" transform="translate(-40.600278,-19.935556)" />   <use xlink:href="#dot" transform="translate(-40.600278,-19.935556)" />   <use xlink:href="#dot" transform="translate(-40.600278,-19.935556)" />   <use xlink:href="#dot" transform="translate(-50.06667,-29.58333)" />   <use xlink:href="#dot" transform="translate(-50.06667,-29.58333)" />   <use xlink:href="#dot" transform="translate(-40.600278,-19.935556)" />   <use xlink:href="#dot" transform="translate(-40.406667,-19.9325)" />   <use xlink:href="#dot" transform="translate(-40.600278,-19.935556)" />   <use xlink:href="#dot" transform="translate(-40.600278,-19.935556)" />   <use xlink:href="#dot" transform="translate(-40.071944,-19.391111)" />   <use xlink:href="#dot" transform="translate(-39.049167,-14.789167)" />   <use xlink:href="#dot" transform="translate(-39.049167,-14.789167)" />   <use xlink:href="#dot" transform="translate(-39.049167,-14.789167)" />   <use xlink:href="#dot" transform="translate(-39.049167,-14.789167)" />   <use xlink:href="#dot" transform="translate(-39.551111,-18.087222)" />   <use xlink:href="#dot" transform="translate(-40.600278,-19.935556)" />   <use xlink:href="#dot" transform="translate(-40.600278,-19.935556)" />   <use xlink:href="#dot" transform="translate(-40.600278,-19.935556)" />   <use xlink:href="#dot" transform="translate(-46.389722,-23.96)" />   <use xlink:href="#dot" transform="translate(-46.389722,-23.96)" />   <use xlink:href="#dot" transform="translate(-46.389722,-23.96)" />   <use xlink:href="#dot" transform="translate(-46.389722,-23.96)" />   <use xlink:href="#dot" transform="translate(-40.600278,-19.935556)" />   <use xlink:href="#dot" transform="translate(-40.600278,-19.935556)" />   <use xlink:href="#dot" transform="translate(-40.600278,-19.935556)" />   <use xlink:href="#dot" transform="translate(-40.600278,-19.935556)" />   <use xlink:href="#dot" transform="translate(-40.600278,-19.935556)" />   <use xlink:href="#dot" transform="translate(-45.069722,-23.430278)" />   <use xlink:href="#dot" transform="translate(-48.834167,-25.476944)" />   <use xlink:href="#dot" transform="translate(-49.243056,-26.425556)" />   <use xlink:href="#dot" transform="translate(-49.243056,-26.425556)" />   <use xlink:href="#dot" transform="translate(-49.243056,-26.425556)" />   <use xlink:href="#dot" transform="translate(-49.243056,-26.425556)" />   <use xlink:href="#dot" transform="translate(-49.243056,-26.425556)" />   <use xlink:href="#dot" transform="translate(-49.243056,-26.425556)" />   <use xlink:href="#dot" transform="translate(-49.243056,-26.425556)" />   <use xlink:href="#dot" transform="translate(-49.243056,-26.425556)" />   <use xlink:href="#dot" transform="translate(-49.243056,-26.425556)" />   <use xlink:href="#dot" transform="translate(-49.243056,-26.425556)" />   <use xlink:href="#dot" transform="translate(-49.243056,-26.425556)" />   <use xlink:href="#dot" transform="translate(-49.243056,-26.425556)" />   <use xlink:href="#dot" transform="translate(-49.243056,-26.425556)" />   <use xlink:href="#dot" transform="translate(-49.243056,-26.425556)" />   <use xlink:href="#dot" transform="translate(-49.243056,-26.425556)" />   <use xlink:href="#dot" transform="translate(-49.243056,-26.425556)" />   <use xlink:href="#dot" transform="translate(-49.243056,-26.425556)" />   <use xlink:href="#dot" transform="translate(-49.243056,-26.425556)" />   <use xlink:href="#dot" transform="translate(-49.243056,-26.425556)" />   <use xlink:href="#dot" transform="translate(-49.243056,-26.425556)" />   <use xlink:href="#dot" transform="translate(-49.243056,-26.425556)" />   <use xlink:href="#dot" transform="translate(-49.243056,-26.425556)" />   <use xlink:href="#dot" transform="translate(-49.243056,-26.425556)" />   <use xlink:href="#dot" transform="translate(-49.243056,-26.425556)" />   <use xlink:href="#dot" transform="translate(-45.07058,-23.45691)" />   <use xlink:href="#dot" transform="translate(-45.069722,-23.430278)" />   <use xlink:href="#dot" transform="translate(-45.069722,-23.430278)" />   <use xlink:href="#dot" transform="translate(-45.069722,-23.430278)" />   <use xlink:href="#dot" transform="translate(-45.069722,-23.430278)" />   <use xlink:href="#dot" transform="translate(-45.069722,-23.430278)" />   <use xlink:href="#dot" transform="translate(-45.069722,-23.430278)" />   <use xlink:href="#dot" transform="translate(-45.069722,-23.430278)" />   <use xlink:href="#dot" transform="translate(-45.069722,-23.430278)" />   <use xlink:href="#dot" transform="translate(-45.069722,-23.430278)" />   <use xlink:href="#dot" transform="translate(-45.069722,-23.430278)" />   <use xlink:href="#dot" transform="translate(-45.069722,-23.430278)" />   <use xlink:href="#dot" transform="translate(-45.069722,-23.430278)" />   <use xlink:href="#dot" transform="translate(-45.069722,-23.430278)" />   <use xlink:href="#dot" transform="translate(-45.069722,-23.430278)" />   <use xlink:href="#dot" transform="translate(-45.069722,-23.430278)" />   <use xlink:href="#dot" transform="translate(-45.069722,-23.430278)" />   <use xlink:href="#dot" transform="translate(-45.069722,-23.430278)" />   <use xlink:href="#dot" transform="translate(-45.069722,-23.430278)" />   <use xlink:href="#dot" transform="translate(-45.069722,-23.430278)" />   <use xlink:href="#dot" transform="translate(-45.069722,-23.430278)" />   <use xlink:href="#dot" transform="translate(-45.069722,-23.430278)" />   <use xlink:href="#dot" transform="translate(-45.069722,-23.430278)" />   <use xlink:href="#dot" transform="translate(-45.069722,-23.430278)" />   <use xlink:href="#dot" transform="translate(-43.23333,-22.9)" />   <use xlink:href="#dot" transform="translate(-43.23333,-22.9)" />   <use xlink:href="#dot" transform="translate(-43.23333,-22.9)" />   <use xlink:href="#dot" transform="translate(-43.23333,-22.9)" />   <use xlink:href="#dot" transform="translate(-43.23333,-22.9)" />   <use xlink:href="#dot" transform="translate(-43.23333,-22.9)" />   <use xlink:href="#dot" transform="translate(-40.06667,-19.41667)" />   <use xlink:href="#dot" transform="translate(-49.2333,-26.4333)" />   <use xlink:href="#dot" transform="translate(-49.2333,-26.4333)" />   <use xlink:href="#dot" transform="translate(-49.23333,-26.43333)" />   <use xlink:href="#dot" transform="translate(-49.23333,-26.43333)" />   <use xlink:href="#dot" transform="translate(-51.18333,-27.75)" />   <use xlink:href="#dot" transform="translate(-51.18333,-27.75)" />   <use xlink:href="#dot" transform="translate(-44.3,-23)" />   <use xlink:href="#dot" transform="translate(-49.2333,-26.4333)" />   <use xlink:href="#dot" transform="translate(-49.23333,-26.43333)" />   <use xlink:href="#dot" transform="translate(-45.069722,-23.430278)" />   <use xlink:href="#dot" transform="translate(-49.23333,-26.43333)" />   <use xlink:href="#dot" transform="translate(-49.23333,-26.43333)" />   <use xlink:href="#dot" transform="translate(-49.23333,-26.43333)" />   <use xlink:href="#dot" transform="translate(-49.23333,-26.43333)" />   <use xlink:href="#dot" transform="translate(-49.23333,-26.43333)" />   <use xlink:href="#dot" transform="translate(-49.23333,-26.43333)" />   <use xlink:href="#dot" transform="translate(-49.23333,-26.43333)" />   <use xlink:href="#dot" transform="translate(-49.23333,-26.43333)" />   <use xlink:href="#dot" transform="translate(-49.23333,-26.43333)" />   <use xlink:href="#dot" transform="translate(-49.23333,-26.43333)" />   <use xlink:href="#dot" transform="translate(-49.23333,-26.43333)" />   <use xlink:href="#dot" transform="translate(-49.23333,-26.43333)" />   <use xlink:href="#dot" transform="translate(-49.2333,-26.4333)" />   <use xlink:href="#dot" transform="translate(-45.069722,-23.430278)" /><polygon class="region" points="-50.06667,-29.58333 -51.188521,-29.595943 -51.18333,-27.75 -39.049167,-14.789167 -29.841389,-18.355278 -50.06667,-29.58333 " />
		  </g>
		</svg>