<?xml version="1.0" encoding="UTF-8"?>
	<svg xmlns:xlink="http://www.w3.org/1999/xlink" 
	xmlns="http://www.w3.org/2000/svg" 
	width="360px" height="180px">
	   <style type="text/css">
		  <![CDATA[     
		  .region 
		  { 
			fill:blue; 
			opacity:0.4; 
			stroke:blue;
		  }
		  ]]>
	   </style>

	<circle id="dot" x="-2" y="-2" r="2" style="stroke:none; stroke-width:0; fill:black; opacity:0.7;"/>


	 <image x="0" y="0" width="360" height="180" xlink:href="map.jpg"/>

 
	 <g transform="translate(180,90) scale(1,-1)"><polygon class="region" points="-40.210422516,-20.228935242 -41.065460205,-21.495420456 -40.990142822,-22.013877869 -41.96181488,-22.538225174 -41.863887787,-22.758634567 -42.017993927,-22.997972488 -43.049945831,-22.981931686 -43.083713531,-22.679719925 -43.287204742,-22.806335449 -43.155788422,-22.783943176 -43.187030792,-22.995481491 -43.549385071,-23.080722809 -44.001308441,-23.100046158 -43.555473328,-23.054826736 -43.839683533,-22.906253815 -44.233558655,-23.060422897 -44.406982422,-22.945045471 -44.712490082,-23.18970108 -44.497821808,-23.302398682 -45.050430298,-23.417833328 -45.409679413,-23.631856918 -45.411937714,-23.824636459 -45.93429184,-23.771089554 -46.936599731,-24.281074524 -47.859535217,-24.996442795 -48.212669373,-25.470071793 -48.121013641,-25.26684761 -48.284496307,-25.294490814 -48.316940308,-25.363388062 -48.433383942,-25.236698151 -48.476154327,-25.485044479 -48.738864899,-25.37392807 -48.349964142,-25.580591202 -48.585708618,-26.171947479 -48.713733673,-26.242883682 -48.794532776,-26.072647095 -48.837348938,-26.156553268 -48.723125458,-26.361555099 -48.493301392,-26.224025726 -48.695358276,-26.657737732 -48.606872559,-27.122493744 -48.469459534,-27.147735596 -48.612071991,-27.242954254 -48.575172424,-27.887662888 -48.760784149,-28.534755707 -49.711589064,-29.323613518 -50.542226895,-28.553942773 -50.77112936,-27.994403413 -50.567660502,-26.061449262 -50.186156394,-24.993237757 -49.270546532,-23.263752463 -48.73644078,-22.729646711 -47.083256308,-21.53426717 -43.268215219,-19.372410553 -42.378038965,-18.10073019 -41.615030748,-17.795526903 -41.157225817,-17.795526903 -40.470518421,-18.10073019 -39.987279883,-18.405933477 -39.745946827,-18.783016377 -39.70306778,-19.413499832 -40.210422516,-20.228935242 " /><polygon class="region" points="-38.12478449,-12.684708432 -38.474330948,-13.008857867 -38.621437372,-12.583120342 -37.834025818,-11.514393033 -37.548873268,-11.491293762 -37.464952672,-11.614843528 -37.65610514,-12.034446506 -38.12478449,-12.684708432 " /><polygon class="region" points="-48.248584747,-25.342571259 -48.25346756,-25.466413498 -48.303058624,-25.492088318 -48.340522766,-25.415557861 -48.248584747,-25.342571259 " />
		  </g>
		</svg>