<?xml version="1.0" encoding="UTF-8"?>
	<svg xmlns:xlink="http://www.w3.org/1999/xlink" 
	xmlns="http://www.w3.org/2000/svg" 
	width="360px" height="180px">
	   <style type="text/css">
		  <![CDATA[     
		  .region 
		  { 
			fill:blue; 
			opacity:0.4; 
			stroke:blue;
		  }
		  ]]>
	   </style>

	<circle id="dot" x="-2" y="-2" r="2" style="stroke:none; stroke-width:0; fill:black; opacity:0.7;"/>


	 <image x="0" y="0" width="360" height="180" xlink:href="map.jpg"/>

 
	 <g transform="translate(180,90) scale(1,-1)"><polygon class="region" points="134.096160889,-1.687944412 134.136077881,-2.2111389639999 134.459274292,-2.850389004 134.483108521,-2.529138803 134.64100647,-2.479611158 134.695968628,-2.9665277 134.862716675,-2.8902778629999 134.811340332,-3.1345276829999 135.114089966,-3.3686945439999 135.481826782,-3.362222195 135.920837402,-2.9866666789999 136.430160522,-2.2039999959999 136.757507324,-2.265749931 136.953201294,-2.113166571 138.162350423,-2.322638008 140.122894287,-2.3142778869999 145.336745481,-4.451349137 145.364433489,-4.855594058 141.103879535,-2.97113725 135.714080811,-4.485194206 135.205688477,-4.447666645 134.63041687,-4.1111664769999 134.947219849,-3.9142498969999 134.516921997,-4.024861336 134.343719482,-3.864361048 134.305923462,-4.0253887179999 134.154998779,-3.7370278839999 133.98500061,-3.86094451 133.847366333,-3.5531110759999 133.828048706,-3.717722178 133.703521729,-3.665222168 133.676742554,-3.233194351 133.851837158,-3.017138958 133.929412842,-3.112333298 133.860748291,-2.9120278359999 133.661300659,-3.119583368 133.661590576,-3.390944481 133.419692993,-3.3941388129999 133.606674194,-3.517222166 133.420776367,-3.694722176 133.44732666,-3.596027851 133.441360474,-3.574555635 133.468032837,-3.563527822 133.473632812,-3.525611162 133.350448608,-3.556638956 133.401171446,-3.7408686799999 132.888180798,-3.587431222 132.837051392,-3.296666622 132.65663147,-3.315694332 132.343994141,-2.948361158 131.973358154,-2.934222221 132.055725098,-2.804638863 131.944671631,-2.779111147 132.18699646,-2.669222116 132.729522705,-2.811111212 133.237335205,-2.4078333379999 133.395996094,-2.525833368 133.276687622,-2.7039444449999 133.446029663,-2.503777742 133.447860718,-2.677083254 133.48135376,-2.513111115 133.554382324,-2.660833359 133.680557251,-2.5561945439999 133.640029907,-2.809694529 133.70892334,-2.5026388169999 133.751968384,-2.5161387919999 133.808441162,-2.644833326 133.837051392,-2.6693332199999 133.850326538,-2.6663334369999 133.860061646,-2.391305447 133.984329224,-2.487166643 134.06703186,-2.3559999469999 133.86517334,-2.330388784 134.021530151,-2.156749964 133.966140747,-2.047555447 133.644393921,-2.231916666 133.07180699,-2.239243218 132.563613559,-1.940398471 132.227887893,-1.5391653579999 132.203322601,-1.195251261 134.194464502,-1.577572668 134.096160889,-1.687944412 " /><polygon class="region" points="144.71338896,-5.66691128 143.99101123,-5.3201699699999 144.040545703,-4.870231841 144.775307051,-5.138543569 144.87850387,-5.481157007 144.71338896,-5.66691128 " /><polygon class="region" points="135.488311768,-1.60172224 136.20930481,-1.651972175 136.906860352,-1.7899721859999 136.232025146,-1.905222178 135.488311768,-1.60172224 " />
		  </g>
		</svg>