<?xml version="1.0" encoding="UTF-8"?>
	<svg xmlns:xlink="http://www.w3.org/1999/xlink" 
	xmlns="http://www.w3.org/2000/svg" 
	width="360px" height="180px">
	   <style type="text/css">
		  <![CDATA[     
		  .region 
		  { 
			fill:blue; 
			opacity:0.4; 
			stroke:blue;
		  }
		  ]]>
	   </style>

	<circle id="dot" x="-2" y="-2" r="2" style="stroke:none; stroke-width:0; fill:black; opacity:0.7;"/>


	 <image x="0" y="0" width="360" height="180" xlink:href="map.jpg"/>

 
	 <g transform="translate(180,90) scale(1,-1)">   <use xlink:href="#dot" transform="translate(-77.332442,6.211448)" />   <use xlink:href="#dot" transform="translate(-83.070625,9.818053)" />   <use xlink:href="#dot" transform="translate(-77.524872,-1.056645)" />   <use xlink:href="#dot" transform="translate(-76.530833,6.726944)" />   <use xlink:href="#dot" transform="translate(-76.668525,3.929808)" />   <use xlink:href="#dot" transform="translate(-83.413561,8.528919)" />   <use xlink:href="#dot" transform="translate(-82.95926,8.785317)" />   <use xlink:href="#dot" transform="translate(-76.617778,5.319722)" />   <use xlink:href="#dot" transform="translate(-82.960104,8.785396)" />   <use xlink:href="#dot" transform="translate(-84.629717,9.6757)" />   <use xlink:href="#dot" transform="translate(-83.551467,10.055367)" />   <use xlink:href="#dot" transform="translate(-83.14695,9.999717)" />   <use xlink:href="#dot" transform="translate(-83.14695,9.999717)" />   <use xlink:href="#dot" transform="translate(-76.216667,5.269444)" />   <use xlink:href="#dot" transform="translate(-76.216667,5.269444)" />   <use xlink:href="#dot" transform="translate(-71.05,4.95)" />   <use xlink:href="#dot" transform="translate(-76.59784,5.68159)" />   <use xlink:href="#dot" transform="translate(-76.59784,5.68159)" />   <use xlink:href="#dot" transform="translate(-76.59784,5.68159)" />   <use xlink:href="#dot" transform="translate(-76.59784,5.68159)" />   <use xlink:href="#dot" transform="translate(-76.59784,5.68159)" />   <use xlink:href="#dot" transform="translate(-76.59784,5.68159)" />   <use xlink:href="#dot" transform="translate(-76.59784,5.68159)" />   <use xlink:href="#dot" transform="translate(-76.59784,5.68159)" />   <use xlink:href="#dot" transform="translate(-76.59784,5.68159)" />   <use xlink:href="#dot" transform="translate(-76.59784,5.68159)" />   <use xlink:href="#dot" transform="translate(-76.59784,5.68159)" />   <use xlink:href="#dot" transform="translate(-76.59784,5.68159)" />   <use xlink:href="#dot" transform="translate(-76.59784,5.68159)" />   <use xlink:href="#dot" transform="translate(-76.59784,5.68159)" />   <use xlink:href="#dot" transform="translate(-76.59784,5.68159)" />   <use xlink:href="#dot" transform="translate(-76.59784,5.68159)" />   <use xlink:href="#dot" transform="translate(-76.59784,5.68159)" />   <use xlink:href="#dot" transform="translate(-76.59784,5.68159)" />   <use xlink:href="#dot" transform="translate(-76.59784,5.68159)" />   <use xlink:href="#dot" transform="translate(-76.59784,5.68159)" />   <use xlink:href="#dot" transform="translate(-76.59784,5.68159)" />   <use xlink:href="#dot" transform="translate(-76.59784,5.68159)" />   <use xlink:href="#dot" transform="translate(-76.59784,5.68159)" />   <use xlink:href="#dot" transform="translate(-76.59784,5.68159)" />   <use xlink:href="#dot" transform="translate(-76.59784,5.68159)" />   <use xlink:href="#dot" transform="translate(-76.59784,5.68159)" />   <use xlink:href="#dot" transform="translate(-76.59784,5.68159)" />   <use xlink:href="#dot" transform="translate(-76.59784,5.68159)" />   <use xlink:href="#dot" transform="translate(-76.59784,5.68159)" />   <use xlink:href="#dot" transform="translate(-76.59784,5.68159)" />   <use xlink:href="#dot" transform="translate(-76.59784,5.68159)" />   <use xlink:href="#dot" transform="translate(-76.59784,5.68159)" />   <use xlink:href="#dot" transform="translate(-76.59784,5.68159)" />   <use xlink:href="#dot" transform="translate(-76.59784,5.68159)" />   <use xlink:href="#dot" transform="translate(-76.59784,5.68159)" />   <use xlink:href="#dot" transform="translate(-76.59784,5.68159)" />   <use xlink:href="#dot" transform="translate(-76.59784,5.68159)" />   <use xlink:href="#dot" transform="translate(-76.59784,5.68159)" />   <use xlink:href="#dot" transform="translate(-76.59784,5.68159)" />   <use xlink:href="#dot" transform="translate(-76.59784,5.68159)" />   <use xlink:href="#dot" transform="translate(-76.59784,5.68159)" />   <use xlink:href="#dot" transform="translate(-76.59784,5.68159)" />   <use xlink:href="#dot" transform="translate(-76.59784,5.68159)" />   <use xlink:href="#dot" transform="translate(-76.59784,5.68159)" />   <use xlink:href="#dot" transform="translate(-76.59784,5.68159)" />   <use xlink:href="#dot" transform="translate(-76.59784,5.68159)" />   <use xlink:href="#dot" transform="translate(-76.59784,5.68159)" />   <use xlink:href="#dot" transform="translate(-76.59784,5.68159)" />   <use xlink:href="#dot" transform="translate(-76.59784,5.68159)" />   <use xlink:href="#dot" transform="translate(-76.59784,5.68159)" />   <use xlink:href="#dot" transform="translate(-76.59784,5.68159)" />   <use xlink:href="#dot" transform="translate(-76.59784,5.68159)" />   <use xlink:href="#dot" transform="translate(-76.59784,5.68159)" />   <use xlink:href="#dot" transform="translate(-76.59784,5.68159)" />   <use xlink:href="#dot" transform="translate(-76.59784,5.68159)" />   <use xlink:href="#dot" transform="translate(-76.59784,5.68159)" />   <use xlink:href="#dot" transform="translate(-76.59784,5.68159)" />   <use xlink:href="#dot" transform="translate(-76.59784,5.68159)" />   <use xlink:href="#dot" transform="translate(-76.59784,5.68159)" />   <use xlink:href="#dot" transform="translate(-76.59784,5.68159)" />   <use xlink:href="#dot" transform="translate(-76.59784,5.68159)" />   <use xlink:href="#dot" transform="translate(-76.59784,5.68159)" />   <use xlink:href="#dot" transform="translate(-76.59784,5.68159)" />   <use xlink:href="#dot" transform="translate(-76.59784,5.68159)" />   <use xlink:href="#dot" transform="translate(-76.59784,5.68159)" />   <use xlink:href="#dot" transform="translate(-76.59784,5.68159)" />   <use xlink:href="#dot" transform="translate(-76.78749,3.85181)" />   <use xlink:href="#dot" transform="translate(-77.0755,5.64194)" />   <use xlink:href="#dot" transform="translate(-76.692708,5.16)" />   <use xlink:href="#dot" transform="translate(-77.264097,5.711336)" />   <use xlink:href="#dot" transform="translate(-76.72394,3.48483)" />   <use xlink:href="#dot" transform="translate(-76.867508,3.533263)" />   <use xlink:href="#dot" transform="translate(-76.867508,3.533263)" />   <use xlink:href="#dot" transform="translate(-76.867508,3.533263)" />   <use xlink:href="#dot" transform="translate(-76.91078,3.61378)" />   <use xlink:href="#dot" transform="translate(-79.1,0.0833)" />   <use xlink:href="#dot" transform="translate(-79.034722,0.083333)" />   <use xlink:href="#dot" transform="translate(-79.034722,0.083333)" />   <use xlink:href="#dot" transform="translate(-79.034722,0.083333)" />   <use xlink:href="#dot" transform="translate(-79.034722,0.083333)" />   <use xlink:href="#dot" transform="translate(-79.1,0.0833)" />   <use xlink:href="#dot" transform="translate(-76.968401,3.942106)" />   <use xlink:href="#dot" transform="translate(-76.91134,3.51354)" />   <use xlink:href="#dot" transform="translate(-76.91095,3.613741)" />   <use xlink:href="#dot" transform="translate(-79.2692,-0.626667)" />   <use xlink:href="#dot" transform="translate(-79.3667,-0.58)" />   <use xlink:href="#dot" transform="translate(-79.3667,-0.58)" />   <use xlink:href="#dot" transform="translate(-79.3667,-0.58)" />   <use xlink:href="#dot" transform="translate(-79.3667,-0.58)" />   <use xlink:href="#dot" transform="translate(-79.3667,-0.58)" />   <use xlink:href="#dot" transform="translate(-79.3667,-0.58)" />   <use xlink:href="#dot" transform="translate(-79.3667,-0.58)" />   <use xlink:href="#dot" transform="translate(-79.431656,-0.627804)" />   <use xlink:href="#dot" transform="translate(-79.366699,-0.55)" />   <use xlink:href="#dot" transform="translate(-83.482430479272,8.6909005867787)" />   <use xlink:href="#dot" transform="translate(-83.4833,8.7)" />   <use xlink:href="#dot" transform="translate(-83.482430479272,8.6909005867787)" />   <use xlink:href="#dot" transform="translate(-83.482430479272,8.6909005867787)" />   <use xlink:href="#dot" transform="translate(-83.4833,8.7)" />   <use xlink:href="#dot" transform="translate(-83.5078,8.6878)" />   <use xlink:href="#dot" transform="translate(-83.482430479272,8.6909005867787)" />   <use xlink:href="#dot" transform="translate(-83.482430479272,8.6909005867787)" />   <use xlink:href="#dot" transform="translate(-83.479614429323,8.6993239637559)" />   <use xlink:href="#dot" transform="translate(-79.366667,-0.55)" />   <use xlink:href="#dot" transform="translate(-79.366667,-0.55)" />   <use xlink:href="#dot" transform="translate(-79.366667,-0.55)" />   <use xlink:href="#dot" transform="translate(-79.366667,-0.55)" />   <use xlink:href="#dot" transform="translate(-79.366667,-0.55)" />   <use xlink:href="#dot" transform="translate(-79.366667,-0.55)" />   <use xlink:href="#dot" transform="translate(-79.366667,-0.55)" />   <use xlink:href="#dot" transform="translate(-83.479614429323,8.6993239637559)" />   <use xlink:href="#dot" transform="translate(-83.478781477892,8.6915045211532)" />   <use xlink:href="#dot" transform="translate(-83.478781477892,8.6915045211532)" />   <use xlink:href="#dot" transform="translate(-83.478781477892,8.6915045211532)" />   <use xlink:href="#dot" transform="translate(-83.478781477892,8.6915045211532)" />   <use xlink:href="#dot" transform="translate(-83.478781477892,8.6915045211532)" />   <use xlink:href="#dot" transform="translate(-83.478781477892,8.6915045211532)" />   <use xlink:href="#dot" transform="translate(-83.478781477892,8.6915045211532)" />   <use xlink:href="#dot" transform="translate(-83.478781477892,8.6915045211532)" />   <use xlink:href="#dot" transform="translate(-83.478781477892,8.6915045211532)" />   <use xlink:href="#dot" transform="translate(-83.481851508159,8.6862549174531)" />   <use xlink:href="#dot" transform="translate(-83.506726465356,8.6906747506415)" />   <use xlink:href="#dot" transform="translate(-83.482401432036,8.6985940332114)" />   <use xlink:href="#dot" transform="translate(-83.506281437898,8.6951944228923)" />   <use xlink:href="#dot" transform="translate(-83.496281826878,8.6326618615085)" />   <use xlink:href="#dot" transform="translate(-83.496281826878,8.6326618615085)" />   <use xlink:href="#dot" transform="translate(-83.496281826878,8.6326618615085)" />   <use xlink:href="#dot" transform="translate(-83.496281826878,8.6326618615085)" />   <use xlink:href="#dot" transform="translate(-83.496281826878,8.6326618615085)" />   <use xlink:href="#dot" transform="translate(-83.496281826878,8.6326618615085)" />   <use xlink:href="#dot" transform="translate(-83.788097564004,9.2891336890794)" />   <use xlink:href="#dot" transform="translate(-83.788097564004,9.2891336890794)" />   <use xlink:href="#dot" transform="translate(-83.788097564004,9.2891336890794)" />   <use xlink:href="#dot" transform="translate(-83.788097564004,9.2891336890794)" />   <use xlink:href="#dot" transform="translate(-83.788097564004,9.2891336890794)" />   <use xlink:href="#dot" transform="translate(-83.788097564004,9.2891336890794)" />   <use xlink:href="#dot" transform="translate(-83.788097564004,9.2891336890794)" />   <use xlink:href="#dot" transform="translate(-83.788097564004,9.2891336890794)" />   <use xlink:href="#dot" transform="translate(-83.788097564004,9.2891336890794)" />   <use xlink:href="#dot" transform="translate(-83.788097564004,9.2891336890794)" />   <use xlink:href="#dot" transform="translate(-83.788097564004,9.2891336890794)" />   <use xlink:href="#dot" transform="translate(-78.7231,1.17472)" />   <use xlink:href="#dot" transform="translate(-83.482401432036,8.6985940332114)" />   <use xlink:href="#dot" transform="translate(-79.2667,0.1167)" />   <use xlink:href="#dot" transform="translate(-78.9833,0.0333)" />   <use xlink:href="#dot" transform="translate(-76.71816,5.7679)" />   <use xlink:href="#dot" transform="translate(-76.71816,5.7679)" />   <use xlink:href="#dot" transform="translate(-76.5868,5.35305)" />   <use xlink:href="#dot" transform="translate(-76.622778,5.320556)" />   <use xlink:href="#dot" transform="translate(-76.566667,5.5)" />   <use xlink:href="#dot" transform="translate(-76.62086,5.67539)" />   <use xlink:href="#dot" transform="translate(-83.479614429323,8.6993239637559)" />   <use xlink:href="#dot" transform="translate(-76.62086,5.67539)" />   <use xlink:href="#dot" transform="translate(-76.878333,5.510278)" />   <use xlink:href="#dot" transform="translate(-76.878333,5.510278)" />   <use xlink:href="#dot" transform="translate(-76.566667,5.5)" />   <use xlink:href="#dot" transform="translate(-76.5868,5.35305)" />   <use xlink:href="#dot" transform="translate(-76.62086,5.67539)" /><polygon class="region" points="-79.431656,-0.627804 -84.629717,9.6757 -83.551467,10.055367 -83.14695,9.999717 -71.05,4.95 -77.524872,-1.056645 -79.431656,-0.627804 " />
		  </g>
		</svg>