<?xml version="1.0" encoding="UTF-8"?>
	<svg xmlns:xlink="http://www.w3.org/1999/xlink" 
	xmlns="http://www.w3.org/2000/svg" 
	width="360px" height="180px">
	   <style type="text/css">
		  <![CDATA[     
		  .region 
		  { 
			fill:blue; 
			opacity:0.4; 
			stroke:blue;
		  }
		  ]]>
	   </style>

	<circle id="dot" x="-2" y="-2" r="2" style="stroke:none; stroke-width:0; fill:black; opacity:0.7;"/>


	 <image x="0" y="0" width="360" height="180" xlink:href="map.jpg"/>

 
	 <g transform="translate(180,90) scale(1,-1)"><polygon class="region" points="96.603881836,27.989929199 95.806884766,28.373901368 94.323913574,28.084899902 94.314697265,27.780517579 93.958496094,27.870300293 93.869689942,27.633117675 94.149475098,27.62890625 93.783325196,27.250488281 92.68103,26.95157 91.125488281,27.154296875 88.410705566,26.994873047 88.130892687,26.852807745 87.848116808,26.924768195 87.828524523,27.199182257 87.521026026,26.968992161 87.378506194,27.028496806 87.410833384,27.231664565 87.178317004,27.409570441 87.061129504,26.905786261 86.723299914,27.332360967 86.433077746,27.149560675 85.990383426,27.374573928 85.841708117,27.669580206 84.47549718,28.170984015 82.961275988,28.030420049 82.407687121,28.634362921 82.744112902,28.668969854 82.683321887,28.796960577 82.396090441,29.009607061 82.218478137,28.850183233 81.954317981,28.936975226 81.971896105,29.318567023 82.366915636,29.620996221 82.640719348,29.077172979 83.122713976,28.809167608 83.156100207,28.492212042 83.767489367,28.544213995 83.972872668,28.348596319 84.552523546,28.397790655 84.729891711,28.239404424 84.717550345,28.473095023 85.018159179,28.423175499 85.146114556,28.580330763 85.292879992,28.461572393 85.131930284,28.203210577 85.417759024,28.465438564 85.59091466,28.014611944 85.745699816,28.021997198 85.76669591,28.242212042 86.149081164,27.950219855 86.043124132,28.147607549 86.161105089,28.184594855 86.447298937,27.750573859 86.920504504,27.571191534 87.260445405,27.884087587 87.340824681,28.218857544 87.5732755,27.607202276 88.190297082,27.584950561 88.283508301,27.368713379 89.871887207,27.894714355 90.730712891,27.608886719 91.554466703,27.710655558 91.712525275,28.068752843 91.843610582,27.661626674 92.063476563,27.977111817 92.585521404,27.791545316 93.24106,28.47276 93.969073052,28.368891737 93.337707519,29.030273437 93.425476075,29.327880859 93.49810791,29.449279785 94.282714844,29.402282715 93.517883301,29.767272949 93.950073242,29.890319824 94.760070801,29.582275391 94.100708007,30.453674316 94.949279785,30.525878906 95.676513672,30.417297363 96.043518067,30.171325684 96.758359808,29.12389825 97.159401809,29.328201988 97.530700683,29.017883301 98.032287598,29.070678711 98.552307129,28.524108887 98.692504883,28.773071289 98.496887207,29.318908691 98.169128418,29.597106933 98.168701172,30.042907715 98.633728027,29.38067627 98.844909668,29.663696289 98.59588623,30.052307129 98.938720703,29.879089356 98.734313965,30.287109375 98.905700684,30.245910645 99.127261564,29.960396227 98.963975344,29.603011909 99.33721294,28.177159793 99.375256857,28.414055972 99.643127442,28.602294922 99.896728516,28.577514649 100.08807373,28.262512207 100.418884277,28.173095703 100.54852295,28.893127441 100.878479004,29.089904785 101.524475098,29.952697753 101.694091797,29.78289795 101.439086914,29.453918457 101.459899902,29.230285645 101.968078613,29.119873047 101.768676758,29.491882324 102.362487793,31.660888672 102.684082031,31.852478027 103.476501465,31.957092285 102.980285644,32.536315918 103.710876465,32.948486328 103.552917481,33.523498535 103.951721191,33.670471192 104.405090332,33.287719727 104.538085938,32.741516114 104.74407959,32.532714844 104.387512207,32.411499023 104.584472656,32.213684082 102.673522949,29.978515625 102.682678223,29.751708984 103.226318359,29.565917969 103.131286621,29.261474609 103.35131836,29.22467041 103.400878906,28.889282227 103.245910645,28.8125 103.466674805,28.467712402 103.769287109,28.468872071 103.509277343,28.255493164 103.469482422,27.912109375 102.59588623,28.675292969 102.449279786,28.432495117 102.202880859,28.421508789 102.197875977,28.179504394 101.470703125,28.15991211 101.23828125,27.690124512 100.51550293,27.827514649 100.300476074,27.697692871 100.511901855,27.398925782 100.411315918,26.609924316 100.0546875,26.5703125 99.915527344,26.275878906 99.592895508,26.212707519 99.552917481,26.01550293 99.764099121,25.810119629 99.329101563,25.443481445 99.487915039,25.091491699 98.911682129,24.26171875 98.731079101,24.180908204 98.299682617,24.705078125 98.082885742,25.338684082 98.174743736,25.627695247 98.297638956,25.539577888 98.611268536,25.814395828 98.582824614,26.146220266 98.773715033,26.154772331 98.726699736,27.515428728 98.553219626,27.665590599 98.307065261,27.565943158 98.086616453,28.214561486 97.59499544,28.522313222 97.365932708,27.906728002 97.085122091,27.749991704 96.603881836,27.989929199 " />
		  </g>
		</svg>