<?xml version="1.0" encoding="UTF-8"?>
	<svg xmlns:xlink="http://www.w3.org/1999/xlink" 
	xmlns="http://www.w3.org/2000/svg" 
	width="360px" height="180px">
	   <style type="text/css">
		  <![CDATA[     
		  .region 
		  { 
			fill:blue; 
			opacity:0.4; 
			stroke:blue;
		  }
		  ]]>
	   </style>

	<circle id="dot" x="-2" y="-2" r="2" style="stroke:none; stroke-width:0; fill:black; opacity:0.7;"/>


	 <image x="0" y="0" width="360" height="180" xlink:href="map.jpg"/>

 
	 <g transform="translate(180,90) scale(1,-1)"><polygon class="region" points="102.281474903,30.013306916 102.287030102,30.010112165 102.276457414,30.037151341 102.294402254,30.039206441 102.283105361,30.072103754 102.328559932,30.067587187 102.316687864,30.149724446 102.42841947,30.219109338 102.418030635,30.296245923 102.526272804,30.311757945 102.50718349,30.152613515 102.610018139,30.270045571 102.430709903,30.392193417 102.598738044,30.526506293 102.258347557,30.451681601 102.251202402,30.558727341 102.477567519,30.546851983 102.503721325,30.720445368 102.60525397,30.66425286 102.641515709,30.662680658 102.662651242,30.680036308 102.560024652,30.804617091 102.80185565,30.910340078 102.742765364,30.762002784 102.913872186,30.626690109 103.139046007,30.757209193 103.148334132,30.930410059 102.920025102,30.811269666 103.081635881,30.973487071 102.975819703,31.028908101 103.193256293,31.098545717 102.946286705,31.18711648 103.343229125,31.177903224 102.893454601,31.3994209 103.456597732,31.379836962 103.267814369,30.886342915 103.461589508,30.847495801 103.414403882,30.861992578 103.518360595,30.990892393 103.515406224,30.854680667 102.889590419,30.309429465 102.939068198,30.539328579 102.754825466,30.733459621 102.709544724,30.71987391 102.910773295,30.522998174 102.817973149,30.407053295 102.752546709,30.534496446 102.627358312,30.539418483 102.784820025,30.178456598 102.488085781,30.010701952 102.405140166,30.123672577 102.343357256,29.959037022 102.648774182,30.016812627 102.564791391,29.76565423 102.515604132,29.846085041 102.451417126,29.796322324 103.176858113,29.55684168 103.200034844,29.328694757 102.467552117,29.722178009 102.195552394,29.477641996 102.227612899,29.721075616 102.392292307,29.779760085 102.240012976,29.855408707 102.281474903,30.013306916 " /><polygon class="region" points="102.37305275,30.551974378 102.373232433,30.551967647 102.373187025,30.552096002 102.37305275,30.551974378 " /><polygon class="region" points="103.177595197,31.168397068 103.178227935,31.168369759 103.178782726,31.169334502 103.17817526,31.16909359 103.177595197,31.168397068 " /><polygon class="region" points="103.929826787,32.66012994 103.904843665,32.667858603 103.899205709,32.691514704 104.043065909,32.698532636 103.824410729,32.73583483 103.870923299,32.842559868 104.086746101,32.841662932 104.110121269,32.707031191 104.376076053,32.649663884 104.138321643,32.734299272 104.086218678,32.942992912 104.059751807,32.860017893 104.014159084,32.875149171 103.989572051,33.200632252 103.944732505,32.951719663 103.825349989,33.045578801 104.06575017,33.338172663 104.190709693,33.228393407 104.030579513,33.199180755 104.232009903,32.935721917 104.220157622,33.068488202 104.907730027,32.664806395 105.020760677,32.704536118 105.236656561,32.671121537 104.774085368,32.575847207 104.61376164,32.432655653 104.575875484,32.609177109 104.468538841,32.647855181 104.452215122,32.467450606 104.151115215,32.537410604 104.145027133,32.623821208 104.104517905,32.668717481 104.085456041,32.672082143 104.172912983,32.396413695 104.440957395,32.337848992 104.35294218,32.137837424 104.480132051,32.07411753 104.238296769,32.057166715 104.159547114,32.249060155 104.088847981,32.262840312 104.109967099,31.982009375 103.991064535,32.069278651 103.932983403,32.025623319 104.107003142,31.841456152 103.891386452,31.722650612 103.72014085,31.877589075 103.821709032,32.281316565 104.001626765,32.285455496 103.818287996,32.326304008 104.001198664,32.402707942 104.001322699,32.47307607 103.874326043,32.438961866 103.798499425,32.560732313 104.048052851,32.6486542 103.929826787,32.66012994 " /><polygon class="region" points="104.417568442,32.115686685 104.417664189,32.115465964 104.417676178,32.115470582 104.417568442,32.115686685 " /><polygon class="region" points="105.15898827,32.645067693 105.160057662,32.644948775 105.159841582,32.645297104 105.15898827,32.645067693 " /><polygon class="region" points="105.158138268,32.644410172 105.157561224,32.643244289 105.159150936,32.642943367 105.158869104,32.644159733 105.158138268,32.644410172 " /><polygon class="region" points="104.103549571,33.279739218 104.114994392,33.289430518 104.062865889,33.264944082 104.097923667,33.259739537 104.103549571,33.279739218 " /><polygon class="region" points="104.377441016,32.813927231 104.357277625,32.825258064 104.332857077,32.826670038 104.369823638,32.770277394 104.466358065,32.730354526 104.51055275,32.749022272 104.377441016,32.813927231 " /><polygon class="region" points="103.258278488,28.559985323 103.314040366,28.697357127 102.754614125,28.557090385 102.612189979,28.839637039 102.914465105,28.709583985 102.850894713,29.08266811 103.071971413,29.166714535 103.140800226,29.060003366 103.00035399,28.965885912 103.042137973,28.741952652 103.10664667,28.940588144 103.323077647,29.180335108 103.499673014,29.159821104 103.259263328,28.97550541 103.092628748,28.682412294 103.386711814,28.755366302 103.401295408,28.167248531 103.26959582,28.228304685 103.258278488,28.559985323 " /><polygon class="region" points="102.933832623,28.740606788 102.947595179,28.762588317 102.927121872,28.796360753 102.941373728,28.764701245 102.933832623,28.740606788 " /><polygon class="region" points="102.95970035,28.695319734 102.942527532,28.731190273 102.925454136,28.728648192 103.001471938,28.634930154 102.95970035,28.695319734 " /><polygon class="region" points="103.102540867,28.792791748 103.141105831,28.813956404 103.159608335,28.858735051 103.114034126,28.846363116 103.102540867,28.792791748 " /><polygon class="region" points="107.50459002,33.639966753 107.350173105,33.64882952 107.355694197,33.695584389 107.422080591,33.69454401 107.537963321,33.824317254 107.363895841,33.913278022 107.958331942,33.970399808 107.751122375,33.846316349 107.962824989,33.867495344 107.933184508,33.427380427 107.50459002,33.639966753 " /><polygon class="region" points="104.306287472,31.811771271 104.225563769,31.629589277 104.053285147,31.648691071 104.063835908,31.376375311 104.009958567,31.533422045 103.993353613,31.528021102 103.980656211,31.357370843 103.516539721,31.066684475 103.571903839,31.334742711 103.879830091,31.384138335 103.968648742,31.664353871 104.306287472,31.811771271 " /><polygon class="region" points="102.186191006,29.303891162 102.310526019,29.050544089 102.285689245,28.863100217 102.181099298,28.761745936 101.905489154,28.860478532 102.215510665,28.822278325 102.037734379,28.851081293 102.246664253,29.038702724 101.983082663,29.240410753 102.186191006,29.303891162 " /><polygon class="region" points="102.152075532,28.950950435 102.154655329,28.86206919 102.218370281,28.875563968 102.209825812,28.930299607 102.152075532,28.950950435 " /><polygon class="region" points="107.375703834,33.898246968 107.47614424,33.762400709 107.098828112,33.607413449 107.261711902,33.86595135 107.375703834,33.898246968 " /><polygon class="region" points="108.436648609,33.797282738 108.409885218,33.658154693 107.971358038,33.680013223 108.001677491,33.785871066 108.436648609,33.797282738 " /><polygon class="region" points="102.412439863,29.138103094 102.513645156,29.035188073 102.516531513,28.827949933 102.30205483,28.929342992 102.412439863,29.138103094 " /><polygon class="region" points="103.891868424,33.693871123 103.722885385,33.681404256 103.765977655,33.841252301 103.96596019,33.730292362 103.891868424,33.693871123 " /><polygon class="region" points="104.298139607,33.603603355 104.487534671,33.525411266 104.462855587,33.443831586 104.26256943,33.528217555 104.298139607,33.603603355 " /><polygon class="region" points="103.670215256,33.931823551 103.722942968,33.856940357 103.558900512,33.841004689 103.562554225,33.901226025 103.670215256,33.931823551 " /><polygon class="region" points="105.347563946,32.970268238 105.520496871,32.922436034 105.532685446,32.895227559 105.345768317,32.87831482 105.347563946,32.970268238 " /><polygon class="region" points="108.557657557,33.487570793 108.599710666,33.38634237 108.467298521,33.418321444 108.485595722,33.464154682 108.519432681,33.480674285 108.533630985,33.517178889 108.557657557,33.487570793 " /><polygon class="region" points="103.638382807,28.376754243 103.570683075,28.364478188 103.627939871,28.448527073 103.735401209,28.402824932 103.638382807,28.376754243 " /><polygon class="region" points="108.434032026,33.545355438 108.528601306,33.519574475 108.513404766,33.484614985 108.482822678,33.469320357 108.467704406,33.437741544 108.434032026,33.545355438 " /><polygon class="region" points="107.191453704,33.898939851 107.233341253,33.860708969 107.113672168,33.754321732 107.122374833,33.84757568 107.191453704,33.898939851 " /><polygon class="region" points="104.450686542,33.40015841 104.557297495,33.43741073 104.59364061,33.417622509 104.509948437,33.326120723 104.450686542,33.40015841 " /><polygon class="region" points="104.281179988,33.435699803 104.33688985,33.421001479 104.297589205,33.350320401 104.232102171,33.41033781 104.281179988,33.435699803 " /><polygon class="region" points="103.992002631,28.722752084 104.064240798,28.707348202 104.069427791,28.669819258 103.974515797,28.674433568 103.992002631,28.722752084 " /><polygon class="region" points="103.496346013,29.447290681 103.54469168,29.430263935 103.469877742,29.364622151 103.451799058,29.39113682 103.496346013,29.447290681 " /><polygon class="region" points="104.811235517,33.007812836 104.852278623,32.99221374 104.702144222,32.988948669 104.71625248,33.005954189 104.811235517,33.007812836 " /><polygon class="region" points="103.691192521,33.563672781 103.726623637,33.531982903 103.702424437,33.487198064 103.611224013,33.573453262 103.691192521,33.563672781 " /><polygon class="region" points="104.000581454,33.495783863 104.016624171,33.460614346 103.908721887,33.458239381 103.960209594,33.497738604 104.000581454,33.495783863 " /><polygon class="region" points="102.801140523,31.059386217 102.829873653,31.050047975 102.796644267,31.000036763 102.765857882,31.033049716 102.801140523,31.059386217 " /><polygon class="region" points="104.565570357,33.357054156 104.566385963,33.357296718 104.566995131,33.3562595 104.565570357,33.357054156 " /><polygon class="region" points="104.46239389,33.366591985 104.463038653,33.366581898 104.463153026,33.365591328 104.462928473,33.365685448 104.46239389,33.366591985 " /><polygon class="region" points="105.157493102,32.641164767 105.158858155,32.641057111 105.157813447,32.640627159 105.157493102,32.641164767 " /><polygon class="region" points="104.461860344,33.366126696 104.461634207,33.365761925 104.461126127,33.366069362 104.462272353,33.366263722 104.461860344,33.366126696 " /><polygon class="region" points="104.522190348,32.881937672 104.522510926,32.881938896 104.522512377,32.881668397 104.522191799,32.881667174 104.522190348,32.881937672 " /><polygon class="region" points="104.450293965,33.400064091 104.450686542,33.40015841 104.450578244,33.399828151 104.450293965,33.400064091 " /><polygon class="region" points="104.564988812,33.356615554 104.565270284,33.356853742 104.565382244,33.356524349 104.564988812,33.356615554 " /><polygon class="region" points="104.549318371,33.346459161 104.549426981,33.346789341 104.549710821,33.346553168 104.549318371,33.346459161 " /><polygon class="region" points="104.813981272,33.008207786 104.814090469,33.008537755 104.814372507,33.008300957 104.813981272,33.008207786 " /><polygon class="region" points="104.436347886,32.768761182 104.436738831,32.76867035 104.436459553,32.768431872 104.436347886,32.768761182 " /><polygon class="region" points="104.438199283,32.768676907 104.438589062,32.768771244 104.438481544,32.76844095 104.438199283,32.768676907 " /><polygon class="region" points="104.444637914,32.763024948 104.445027675,32.763119265 104.444920141,32.762788976 104.444637914,32.763024948 " /><polygon class="region" points="102.53295819,30.731996212 102.532965252,30.731990434 102.532956962,30.731985739 102.53295819,30.731996212 " /><polygon class="region" points="103.267709184,28.565259509 103.267711582,28.565254079 103.267709565,28.565256068 103.267709184,28.565259509 " /><polygon class="region" points="103.258278488,28.559985323 103.258284202,28.559985427 103.258284585,28.55998462 103.258278488,28.559985323 " /><polygon class="region" points="107.962824989,33.867495344 108.456525825,33.804735115 108.796815268,33.463172769 108.572430025,33.319587236 108.373999272,33.452353092 108.498453342,33.553098378 107.950800754,33.518159425 107.962824989,33.867495344 " /><polygon class="region" points="108.520225817,33.484684373 108.467298521,33.418321444 108.60394017,33.389667296 108.588497017,33.470894848 108.520225817,33.484684373 " /><polygon class="region" points="107.998416617,33.783882014 108.064143687,33.595273662 108.477131585,33.759204882 108.227203417,33.728041883 107.998416617,33.783882014 " /><polygon class="region" points="107.33335175,33.973602877 107.537963321,33.824317254 107.422080591,33.69454401 107.354655511,33.694396776 107.487807755,33.493126497 107.080022733,33.563288892 107.029972203,33.922742699 107.33335175,33.973602877 " /><polygon class="region" points="107.187333282,33.897165016 107.122374833,33.84757568 107.113672168,33.754321732 107.233341253,33.860708969 107.187333282,33.897165016 " /><polygon class="region" points="107.371837127,33.898813577 107.261711902,33.86595135 107.098828112,33.607413449 107.47614424,33.762400709 107.371837127,33.898813577 " /><polygon class="region" points="103.892305996,33.693683433 103.96596019,33.730292362 103.770830966,33.852314002 104.129761788,33.80508157 104.26256943,33.528217555 104.566096523,33.438595754 104.287223071,33.469787258 104.346597533,33.422634524 104.339289731,33.351804282 104.293254354,33.332286123 104.137634558,33.661070713 103.892305996,33.693683433 " /><polygon class="region" points="103.482562852,28.625871798 103.590727332,28.555400334 103.43625826,28.339940645 103.650035019,28.502687717 103.787008212,28.481807745 103.731578017,28.353119807 103.627939871,28.448527073 103.570148832,28.284329487 103.366574061,28.343963817 103.482562852,28.625871798 " /><polygon class="region" points="103.584403065,33.730193026 103.527403177,33.686848289 103.413875671,33.806899398 103.419364162,33.950393196 103.726285783,33.94275271 103.55439821,33.847124664 103.766220766,33.745036331 103.584403065,33.730193026 " /><polygon class="region" points="103.579047098,33.730561886 103.578767216,33.730321503 103.579163298,33.730233494 103.579047098,33.730561886 " /><polygon class="region" points="103.529941227,33.693689059 103.530482551,33.693515912 103.530838516,33.694125462 103.530472531,33.694327107 103.529941227,33.693689059 " /><polygon class="region" points="104.427831998,32.895135215 104.587196996,32.933721943 104.898176741,32.727818524 105.449697794,32.744727337 105.131951493,32.584031379 105.234673641,32.689485133 104.909194761,32.664373288 104.427831998,32.895135215 " /><polygon class="region" points="104.522190348,32.881937672 104.522191799,32.881667174 104.522512377,32.881668397 104.522510926,32.881938896 104.522190348,32.881937672 " /><polygon class="region" points="105.225468705,32.718176596 105.225641747,32.717832858 105.226204367,32.718065638 105.225468705,32.718176596 " /><polygon class="region" points="104.58403143,32.927490669 104.585134102,32.927336497 104.584541441,32.927978822 104.58403143,32.927490669 " /><polygon class="region" points="104.874695968,32.754024559 104.874697104,32.75321302 104.875337358,32.753213658 104.875336228,32.754025198 104.874695968,32.754024559 " /><polygon class="region" points="103.484135688,33.486864039 103.598994631,33.581894761 103.680072099,33.541951207 103.899734497,33.163314819 103.786156239,33.253799421 103.697926738,33.069226813 103.718706343,33.330402667 103.560522522,33.357937029 103.660498292,33.52244533 103.484135688,33.486864039 " /><polygon class="region" points="103.35240716,31.559462335 103.547678063,31.473361076 103.469792902,31.345622727 103.466780249,31.500028151 103.172932013,31.429056124 103.35240716,31.559462335 " /><polygon class="region" points="102.422817457,30.276228778 102.271538105,30.22185641 102.222336347,30.077969564 102.26410959,30.056370899 102.296636694,29.990312974 102.258472963,29.943873119 102.197952132,30.13460973 102.319146669,30.350878687 102.219212582,30.468427923 102.422817457,30.276228778 " /><polygon class="region" points="102.340003224,30.262101703 102.339198292,30.261310999 102.340003904,30.262101737 102.340003224,30.262101703 " /><polygon class="region" points="103.526267251,29.103914557 103.603042836,29.022259914 103.255947955,28.863310042 103.277802692,28.995551495 103.526267251,29.103914557 " /><polygon class="region" points="102.110207687,29.555659868 102.06997617,29.376065503 102.159054346,29.403575428 102.208785191,29.334333126 102.172317831,29.297861695 102.125286256,29.28337349 101.983264065,29.368576817 102.110207687,29.555659868 " /><polygon class="region" points="105.287868114,32.916602826 105.391787213,32.845097072 105.104351483,32.934066277 105.166316461,32.992174068 105.287868114,32.916602826 " /><polygon class="region" points="103.782342817,33.614519812 103.872354031,33.595869949 103.938316182,33.493190921 103.972415606,33.574785659 104.033082719,33.603570655 104.030218796,33.474530168 103.893685535,33.495126636 103.824941386,33.572833381 103.697973642,33.571503443 103.782342817,33.614519812 " /><polygon class="region" points="103.978319489,33.548117503 104.003130094,33.565126827 104.008647901,33.586116257 103.969135874,33.551666055 103.978319489,33.548117503 " /><polygon class="region" points="102.1153866,29.184081478 102.156963663,29.136880247 102.152536265,29.092055006 102.074454994,28.981567187 101.895400798,28.941208832 102.1153866,29.184081478 " /><polygon class="region" points="103.784111959,29.000027399 103.835608722,28.845348038 103.973364219,28.722785132 103.820841788,28.822849742 103.799126635,28.896908669 103.610660752,28.846616445 103.784111959,29.000027399 " /><polygon class="region" points="102.702844019,31.00223304 102.83448106,31.003563732 102.876759171,31.084918924 102.851771268,30.968215581 102.658623999,30.938607392 102.671641669,30.826220864 102.599154284,30.866486916 102.705911,31.103486565 102.702844019,31.00223304 " /><polygon class="region" points="104.427831998,32.895135215 104.379778173,32.873205575 104.36119932,33.083142271 104.440736576,32.987906662 104.595616277,32.979765335 104.427831998,32.895135215 " /><polygon class="region" points="104.545953049,32.983823983 104.546677044,32.983737724 104.546580533,32.985143102 104.546113438,32.984759695 104.545953049,32.983823983 " /><polygon class="region" points="103.410185243,33.635884161 103.394611844,33.554715908 103.359115513,33.551306655 103.340464898,33.564342031 103.316042521,33.559005543 103.357203146,33.746382501 103.410185243,33.635884161 " /><polygon class="region" points="107.909834052,33.921091044 107.929985393,33.847830471 107.757004521,33.818310084 107.848037067,33.917770971 107.909834052,33.921091044 " /><polygon class="region" points="102.449777575,30.927246075 102.513862035,30.869340043 102.584554398,30.82957801 102.372352003,30.84109514 102.449777575,30.927246075 " /><polygon class="region" points="102.87775835,29.498296575 102.981590551,29.435693213 103.001159745,29.434409597 102.868632829,29.418060304 102.87775835,29.498296575 " /><polygon class="region" points="102.893009406,29.78971374 102.979031135,29.752196378 102.975833747,29.660415382 102.888535804,29.651216659 102.893009406,29.78971374 " /><polygon class="region" points="103.3295013,29.539460066 103.35956234,29.475640509 103.255463485,29.463557295 103.275358818,29.419533206 103.262717687,29.40189038 103.235465491,29.394832952 103.220709869,29.485137681 103.3295013,29.539460066 " /><polygon class="region" points="104.537511919,33.263124456 104.509917883,33.326014176 104.539930265,33.341776843 104.640152573,33.239033658 104.537511919,33.263124456 " /><polygon class="region" points="103.311770214,29.152697131 103.317379595,29.147648972 103.305306454,29.09760478 103.28194207,29.066521026 103.195985129,29.045302109 103.311770214,29.152697131 " /><polygon class="region" points="102.333577089,28.871242903 102.432259196,28.846284318 102.465789678,28.857397256 102.377905419,28.794727363 102.333577089,28.871242903 " /><polygon class="region" points="105.40498582,32.984029057 105.520814655,32.955759346 105.524377806,32.924063342 105.351879368,32.978910857 105.40498582,32.984029057 " /><polygon class="region" points="103.013934837,28.991356043 103.063740862,28.975914939 103.034588536,28.882360746 103.000353986,28.965885914 103.013934837,28.991356043 " /><polygon class="region" points="105.547537296,32.911557725 105.556506604,32.855166405 105.454056146,32.824469835 105.452483697,32.856449694 105.547537296,32.911557725 " /><polygon class="region" points="102.797000998,31.407174116 102.895652678,31.376301822 102.804172731,31.286972359 102.722362084,31.378360278 102.797000998,31.407174116 " /><polygon class="region" points="103.167539085,29.040907769 103.174269104,29.01847381 103.173710965,28.962824124 103.099587132,28.933122784 103.167539085,29.040907769 " /><polygon class="region" points="102.64265448,29.628082406 102.668962809,29.609255159 102.677094236,29.585391078 102.700676666,29.570906006 102.714233806,29.513074675 102.64265448,29.628082406 " /><polygon class="region" points="106.729722193,33.726795083 106.797860037,33.679598759 106.616991692,33.704444185 106.640400412,33.7199361 106.729722193,33.726795083 " /><polygon class="region" points="107.671084149,33.499492256 107.770400118,33.477043846 107.746935583,33.421772308 107.667011777,33.463967149 107.671084149,33.499492256 " /><polygon class="region" points="104.714379473,33.032383139 104.798039792,33.033742314 104.810679145,33.017952072 104.66635012,32.977492678 104.714379473,33.032383139 " /><polygon class="region" points="104.689009848,33.012398049 104.689401616,33.012306436 104.689290567,33.012635965 104.689009848,33.012398049 " /><polygon class="region" points="104.84521921,32.562325899 104.869645,32.563243753 104.921944202,32.512182049 104.844010055,32.48754778 104.84521921,32.562325899 " /><polygon class="region" points="103.289036807,28.838003916 103.333835267,28.776155547 103.300729102,28.760304229 103.250056677,28.814501055 103.289036807,28.838003916 " /><polygon class="region" points="103.358161591,29.24754366 103.376935906,29.223478568 103.315844625,29.178576702 103.316056149,29.243370942 103.358161591,29.24754366 " /><polygon class="region" points="105.4063808,32.901068668 105.432982598,32.884132454 105.43355919,32.809665184 105.416889037,32.812162679 105.395715006,32.869151283 105.380563734,32.875565199 105.4063808,32.901068668 " /><polygon class="region" points="103.437261767,29.213467512 103.469599462,29.20907817 103.490041508,29.17529987 103.430806848,29.175584802 103.437261767,29.213467512 " /><polygon class="region" points="103.335749554,28.170541121 103.373501491,28.153541046 103.332697587,28.105124904 103.31686267,28.135663324 103.335749554,28.170541121 " /><polygon class="region" points="103.371328568,28.158832297 103.371335717,28.158820403 103.371341572,28.158823213 103.371332531,28.1588342 103.371328568,28.158832297 " /><polygon class="region" points="102.944102218,31.338684387 102.975836384,31.317367832 102.95312821,31.285453314 102.880653038,31.240764387 102.944102218,31.338684387 " /><polygon class="region" points="102.795706689,31.05843428 102.775069738,31.056807694 102.772778447,31.151076141 102.776796085,31.104770957 102.795706689,31.05843428 " /><polygon class="region" points="102.911402238,31.365469901 102.949019473,31.3557571 102.866837193,31.310077141 102.870033565,31.340402021 102.911402238,31.365469901 " /><polygon class="region" points="102.627001416,29.652622401 102.642861479,29.629310919 102.611121816,29.61943973 102.599980934,29.647055605 102.627001416,29.652622401 " /><polygon class="region" points="104.779955295,33.006277381 104.834483578,33.017306883 104.857763739,33.005817979 104.86013639,32.987543494 104.779955295,33.006277381 " /><polygon class="region" points="103.849803825,33.691702745 103.8526203,33.688264456 103.84655105,33.679750952 103.836342812,33.680280804 103.849803825,33.691702745 " /><polygon class="region" points="104.742364615,32.82750834 104.743107755,32.827602722 104.742913865,32.826590953 104.742477519,32.826873905 104.742364615,32.82750834 " /><polygon class="region" points="104.591297595,32.981998231 104.59239252,32.981765252 104.591834033,32.981348828 104.591297595,32.981998231 " /><polygon class="region" points="104.478771163,32.996854773 104.479022666,32.99755875 104.479521727,32.996730317 104.478771163,32.996854773 " /><polygon class="region" points="103.944958244,33.753644103 103.945488771,33.754550848 103.945495859,33.753739552 103.944958244,33.753644103 " /><polygon class="region" points="103.892156026,33.694573209 103.892305996,33.693683433 103.891868424,33.693871123 103.892156026,33.694573209 " /><polygon class="region" points="104.555140488,33.324135571 104.555554093,33.324320303 104.555418673,33.323415052 104.555140488,33.324135571 " /><polygon class="region" points="104.55514279,33.322846349 104.555430211,33.323311615 104.555562331,33.322697419 104.55514279,33.322846349 " /><polygon class="region" points="105.422109957,32.975612048 105.422400806,32.976075328 105.422526372,32.975460201 105.422109957,32.975612048 " /><polygon class="region" points="105.287868114,32.916602826 105.288047617,32.916954016 105.288597269,32.916709452 105.287868114,32.916602826 " /><polygon class="region" points="104.745701643,32.826476582 104.745988482,32.826941441 104.746118511,32.826326984 104.745701643,32.826476582 " /><polygon class="region" points="105.413353778,32.755643312 105.413479113,32.755028174 105.413063707,32.755179988 105.413353778,32.755643312 " /><polygon class="region" points="104.555554093,33.324320303 104.55555272,33.324590784 104.555874911,33.324591936 104.555876283,33.324321456 104.555554093,33.324320303 " /><polygon class="region" points="104.585633047,33.300080484 104.585955149,33.300081557 104.585956427,33.299811074 104.585634326,33.29981 104.585633047,33.300080484 " /><polygon class="region" points="104.779634932,33.006006314 104.779634259,33.006276814 104.779955295,33.006277381 104.779955967,33.00600688 104.779634932,33.006006314 " /><polygon class="region" points="104.798126472,32.779893799 104.798125862,32.780164309 104.798446084,32.780164826 104.798446694,32.779894314 104.798126472,32.779893799 " /><polygon class="region" points="103.729481567,33.830854049 103.729587593,33.831184873 103.729875242,33.830950673 103.729481567,33.830854049 " /><polygon class="region" points="104.073251314,33.776580903 104.073358609,33.776911458 104.073645157,33.776676433 104.073251314,33.776580903 " /><polygon class="region" points="103.675929168,33.731038688 103.676325167,33.730950364 103.676045005,33.730710194 103.675929168,33.731038688 " /><polygon class="region" points="104.506499168,33.490269914 104.506611528,33.489940585 104.506217433,33.490031596 104.506499168,33.490269914 " /><polygon class="region" points="104.585956427,33.299811074 104.586349583,33.299719799 104.586068236,33.299481658 104.585956427,33.299811074 " /><polygon class="region" points="104.553024209,33.237933145 104.553416179,33.238027138 104.553307684,33.237696957 104.553024209,33.237933145 " /><polygon class="region" points="104.714268491,33.032712688 104.714379473,33.032383139 104.713987641,33.032474828 104.714268491,33.032712688 " /><polygon class="region" points="104.458668921,32.994748154 104.458776776,32.995078423 104.459059712,32.994842435 104.458668921,32.994748154 " /><polygon class="region" points="104.504272879,32.990609569 104.504380899,32.990939801 104.504663701,32.990703708 104.504272879,32.990609569 " /><polygon class="region" points="104.543774608,32.986432155 104.543882771,32.986762353 104.544165456,32.98652617 104.543774608,32.986432155 " /><polygon class="region" points="105.30281443,32.911487219 105.302923075,32.911157147 105.302532391,32.911250682 105.30281443,32.911487219 " /><polygon class="region" points="104.437941876,32.91125008 104.438332276,32.911344423 104.438224595,32.911014134 104.437941876,32.91125008 " /><polygon class="region" points="104.455567062,32.906881442 104.455678838,32.906552123 104.455287306,32.906643006 104.455567062,32.906881442 " /><polygon class="region" points="104.458257328,32.904399305 104.458365076,32.904729579 104.458647722,32.904493585 104.458257328,32.904399305 " /><polygon class="region" points="104.629583918,32.86570838 104.629974329,32.865802125 104.629865988,32.865471993 104.629583918,32.86570838 " /><polygon class="region" points="104.745087619,32.82614697 104.745367905,32.826384765 104.745478509,32.826055175 104.745087619,32.82614697 " /><polygon class="region" points="104.774688274,32.804470348 104.774797079,32.80480036 104.775078574,32.80456364 104.774688274,32.804470348 " /><polygon class="region" points="104.797716247,32.788642101 104.797996558,32.788879779 104.798106921,32.788550139 104.797716247,32.788642101 " /><polygon class="region" points="105.356122057,32.839510687 105.356512953,32.839602166 105.3564018,32.839272669 105.356122057,32.839510687 " /><polygon class="region" points="105.356113418,32.83734665 105.356504304,32.837438129 105.356393154,32.83710863 105.356113418,32.83734665 " /><polygon class="region" points="105.229317706,32.721686301 105.229707641,32.721592993 105.229426398,32.72135628 105.229317706,32.721686301 " /><polygon class="region" points="105.22796085,32.719076225 105.228242082,32.719312942 105.228350774,32.718982923 105.22796085,32.719076225 " /><polygon class="region" points="105.247837274,32.706772778 105.247947703,32.70710238 105.248227636,32.706864598 105.247837274,32.706772778 " /><polygon class="region" points="105.357032596,32.756613562 105.357141013,32.756283436 105.35675122,32.756377138 105.357032596,32.756613562 " /><polygon class="region" points="105.406642086,32.754027807 105.406750316,32.75369764 105.406360588,32.753791495 105.406642086,32.754027807 " /><polygon class="region" points="105.445733613,32.739227994 105.446123235,32.739134015 105.445841682,32.738897791 105.445733613,32.739227994 " /><polygon class="region" points="105.438295859,32.737994257 105.438577389,32.738230498 105.438685483,32.737900303 105.438295859,32.737994257 " /><polygon class="region" points="104.798446084,32.780164826 104.798605414,32.780511542 104.798766306,32.78016534 104.798446084,32.780164826 " /><polygon class="region" points="103.114061678,29.007708623 103.114825431,29.0069808 103.114018444,29.007716827 103.114061678,29.007708623 " /><polygon class="region" points="103.16753765,29.040920835 103.167539085,29.040907769 103.167180906,29.041012567 103.167184424,29.041024184 103.16753765,29.040920835 " /><polygon class="region" points="103.122569313,29.00012195 103.122588864,29.00014311 103.1226048,29.000093946 103.122569313,29.00012195 " /><polygon class="region" points="103.127896193,28.992686441 103.127969176,28.992660575 103.127965487,28.99264593 103.127896193,28.992686441 " /><polygon class="region" points="103.107623665,29.012014975 103.107642762,29.012007799 103.10762654,29.01199702 103.107623665,29.012014975 " /><polygon class="region" points="103.137614644,28.989514433 103.137656642,28.989508703 103.13764972,28.989502981 103.137614644,28.989514433 " /><polygon class="region" points="102.89344627,31.399387293 102.89344319,31.399387084 102.893451683,31.399421364 102.893453942,31.399418261 102.89344627,31.399387293 " /><polygon class="region" points="103.114825431,29.0069808 103.114826532,29.006981918 103.114849137,29.00696044 103.114848003,29.006959288 103.114825431,29.0069808 " /><polygon class="region" points="102.912193417,29.794767109 102.912195179,29.794767078 102.912196244,29.794766 102.912193417,29.794767109 " /><polygon class="region" points="103.102983721,29.013758634 103.102985117,29.01375811 103.102983952,29.013757965 103.102983721,29.013758634 " /><polygon class="region" points="103.128006488,28.992647352 103.128008081,28.992646787 103.128008486,28.992646184 103.128006488,28.992647352 " />
		  </g>
		</svg>