<?xml version="1.0" encoding="UTF-8"?>
	<svg xmlns:xlink="http://www.w3.org/1999/xlink" 
	xmlns="http://www.w3.org/2000/svg" 
	width="360px" height="180px">
	   <style type="text/css">
		  <![CDATA[     
		  .region 
		  { 
			fill:blue; 
			opacity:0.4; 
			stroke:blue;
		  }
		  ]]>
	   </style>

	<circle id="dot" x="-2" y="-2" r="2" style="stroke:none; stroke-width:0; fill:black; opacity:0.7;"/>


	 <image x="0" y="0" width="360" height="180" xlink:href="map.jpg"/>

 
	 <g transform="translate(180,90) scale(1,-1)"><polygon class="region" points="10.326301885,5.78895914 9.112351431,5.946677112 8.964192124,6.376817037 9.313083396,6.572769669 10.302405223,6.415051697 10.579606508,6.204761067 10.326301885,5.78895914 " /><polygon class="region" points="9.690650663,4.809195978 9.432566708,4.89044463 9.7575613180001,5.248894568 9.891382628,5.124631923 9.690650663,4.809195978 " /><polygon class="region" points="9.151768959,4.0541757550001 8.9409263420001,4.317093958 9.037456697,4.4758609890001 9.3287244360001,4.326677782 9.151768959,4.0541757550001 " /><polygon class="region" points="9.184689769,4.742362347 8.954061806,4.81316345 9.0123395430001,5.037322558 9.235694457,4.992604092 9.184689769,4.742362347 " /><polygon class="region" points="10.321522553,4.1353100960001 10.139907918,4.1687654240001 10.211597905,4.3981733840001 10.350198548,4.3360420610001 10.321522553,4.1353100960001 " /><polygon class="region" points="8.7239026890001,3.651892644 8.8045541450001,3.6543319900001 8.848995416,3.584029313 8.6966939700001,3.4655659260001 8.7239026890001,3.651892644 " /><polygon class="region" points="8.651326602,3.329737128 8.611462526,3.338443076 8.6000073320001,3.3586042170001 8.654075849,3.3732668660001 8.651326602,3.329737128 " /><polygon class="region" points="8.5386074900001,3.35402214 8.51203144,3.352647516 8.503325492,3.3819728130001 8.5376910750001,3.3838056450001 8.5386074900001,3.35402214 " /><polygon class="region" points="8.720404424,3.6509385730001 8.7239026890001,3.651892644 8.720630737,3.650657945 8.720404424,3.6509385730001 " />
		  </g>
		</svg>