<?xml version="1.0" encoding="UTF-8"?>
	<svg xmlns:xlink="http://www.w3.org/1999/xlink" 
	xmlns="http://www.w3.org/2000/svg" 
	width="360px" height="180px">
	   <style type="text/css">
		  <![CDATA[     
		  .region 
		  { 
			fill:blue; 
			opacity:0.4; 
			stroke:blue;
		  }
		  ]]>
	   </style>

	<circle id="dot" x="-2" y="-2" r="2" style="stroke:none; stroke-width:0; fill:black; opacity:0.7;"/>


	 <image x="0" y="0" width="360" height="180" xlink:href="map.jpg"/>

 
	 <g transform="translate(180,90) scale(1,-1)">   <use xlink:href="#dot" transform="translate(-98.680983,19.233165)" />   <use xlink:href="#dot" transform="translate(-98.743321,19.372297)" />   <use xlink:href="#dot" transform="translate(-98.670278,19.351667)" />   <use xlink:href="#dot" transform="translate(-98.642222,19.378333)" />   <use xlink:href="#dot" transform="translate(-98.324444,18.854167)" />   <use xlink:href="#dot" transform="translate(-98.324444,18.854167)" />   <use xlink:href="#dot" transform="translate(-98.324444,18.854167)" />   <use xlink:href="#dot" transform="translate(-98.324444,18.854167)" />   <use xlink:href="#dot" transform="translate(-98.324444,18.854167)" />   <use xlink:href="#dot" transform="translate(-98.324444,18.854167)" />   <use xlink:href="#dot" transform="translate(-98.675925577403,19.367289240345)" />   <use xlink:href="#dot" transform="translate(-98.671111,19.351667)" />   <use xlink:href="#dot" transform="translate(-98.686389,19.371667)" />   <use xlink:href="#dot" transform="translate(-98.666667,19.353056)" />   <use xlink:href="#dot" transform="translate(-98.671111,19.351667)" />   <use xlink:href="#dot" transform="translate(-98.675,19.358333)" />   <use xlink:href="#dot" transform="translate(-98.670278,19.351667)" />   <use xlink:href="#dot" transform="translate(-98.670278,19.351667)" />   <use xlink:href="#dot" transform="translate(-98.675,19.358333)" />   <use xlink:href="#dot" transform="translate(-98.675,19.358333)" />   <use xlink:href="#dot" transform="translate(-98.670278,19.351667)" />   <use xlink:href="#dot" transform="translate(-98.675,19.358333)" />   <use xlink:href="#dot" transform="translate(-98.670278,19.351667)" />   <use xlink:href="#dot" transform="translate(-98.670278,19.351667)" />   <use xlink:href="#dot" transform="translate(-98.670278,19.351667)" />   <use xlink:href="#dot" transform="translate(-98.670278,19.351667)" />   <use xlink:href="#dot" transform="translate(-98.670278,19.351667)" />   <use xlink:href="#dot" transform="translate(-98.670278,19.351667)" /><polygon class="region" points="-98.680983,19.233165 -98.743321,19.372297 -98.642222,19.378333 -98.324444,18.854167 -98.680983,19.233165 " />
		  </g>
		</svg>