<?xml version="1.0" encoding="UTF-8"?>
	<svg xmlns:xlink="http://www.w3.org/1999/xlink" 
	xmlns="http://www.w3.org/2000/svg" 
	width="360px" height="180px">
	   <style type="text/css">
		  <![CDATA[     
		  .region 
		  { 
			fill:blue; 
			opacity:0.4; 
			stroke:blue;
		  }
		  ]]>
	   </style>

	<circle id="dot" x="-2" y="-2" r="2" style="stroke:none; stroke-width:0; fill:black; opacity:0.7;"/>


	 <image x="0" y="0" width="360" height="180" xlink:href="map.jpg"/>

 
	 <g transform="translate(180,90) scale(1,-1)"><polygon class="region" points="-8.9770454929999,7.210140693 -9.524804694,7.2786105930001 -9.5111107139999,7.525102233 -8.716859873,7.8400637730001 -8.1006307719999,7.7578998930001 -8.004772912,7.5387962130001 -8.9770454929999,7.210140693 " /><polygon class="region" points="-7.268776755,4.8853035080001 -7.388543811,5.8955186110001 -7.5939535119999,6.142010251 -7.470707692,6.2926440320001 -7.0598882909999,6.142010251 -6.909254511,5.8955186110001 -6.9229484909999,5.5394751310001 -7.268776755,4.8853035080001 " /><polygon class="region" points="-0.92498524399997,5.7859667710001 -1.1440889249999,5.7311908510001 -1.459050465,5.909212591 -1.404274545,6.251562091 -1.0756190239999,6.2926440320001 -0.87020932399997,6.018764431 -0.92498524399997,5.7859667710001 " /><polygon class="region" points="-2.4691734529999,5.2533117450001 -2.717786917,5.202730764 -2.691778922,5.654580863 -2.501395053,5.599989167 -2.4691734529999,5.2533117450001 " />
		  </g>
		</svg>