<?xml version="1.0" encoding="UTF-8"?>
	<svg xmlns:xlink="http://www.w3.org/1999/xlink" 
	xmlns="http://www.w3.org/2000/svg" 
	width="360px" height="180px">
	   <style type="text/css">
		  <![CDATA[     
		  .region 
		  { 
			fill:blue; 
			opacity:0.4; 
			stroke:blue;
		  }
		  ]]>
	   </style>

	<circle id="dot" x="-2" y="-2" r="2" style="stroke:none; stroke-width:0; fill:black; opacity:0.7;"/>


	 <image x="0" y="0" width="360" height="180" xlink:href="map.jpg"/>

 
	 <g transform="translate(180,90) scale(1,-1)"><polygon class="region" points="-90.532455446,29.306694027 -90.644722,29.130357738 -90.816299418,29.150003439 -90.854042053,29.19859314 -90.808738569,29.199098505 -90.778610229,29.253139496 -90.78553772,29.28140831 -91.223091125,29.385475159 -91.26632685,29.471822896 -91.212921143,29.5812397 -91.249679565,29.629709244 -91.285758972,29.468397141 -91.42993136,29.515029677 -91.387466526,29.658932202 -91.438354541,29.535911149 -91.55258186,29.514257235 -91.661940967,29.631138559 -91.568862915,29.742128372 -91.865264723,29.69876476 -91.827217102,29.831296921 -92.202186459,29.750242321 -92.009918403,29.608932484 -92.288879626,29.528016948 -93.335884094,29.760456085 -93.235656738,29.867378235 -93.311561537,30.065080831 -93.440040718,29.861100926 -93.346267989,29.752508579 -93.831283454,29.688667415 -93.745399475,29.996528625 -93.859992981,29.988136292 -93.959198254,29.828220849 -93.835380554,29.67276001 -94.761054993,29.356880188 -94.46408844,29.553384781 -94.779106186,29.525667225 -94.728492818,29.784013696 -94.969436646,29.697025299 -95.077636735,29.540838175 -94.812866275,29.360669855 -95.05452546,29.195890733 -95.214153736,29.558437109 -95.826051288,29.789104719 -95.96258971,30.161287521 -95.80084374,30.088782921 -95.863820581,30.863858625 -96.171688384,30.824169998 -96.242555371,30.974294192 -95.766959977,31.09661877 -95.711212228,31.615424198 -95.983405352,31.789902275 -96.151909656,32.212425905 -96.451598312,32.359971444 -96.074877497,32.357101911 -96.077210602,32.839497966 -95.937810414,32.840985441 -95.864058128,33.217406055 -95.313796328,33.366124525 -95.311155181,33.879339358 -95.155588689,33.936774465 -95.050296958,34.506325272 -94.463530303,34.50634705 -94.48607674,33.640974663 -94.044271932,33.550323097 -94.045417557,33.020444986 -93.811736139,33.024034325 -93.719925706,33.48192723 -93.364246419,33.443931385 -93.490426123,33.019166151 -92.988632893,33.016720137 -92.978309916,33.375527844 -92.13756852,33.163470218 -91.974731352,33.305071209 -91.976233485,33.790380874 -91.555256176,33.781800944 -91.435523629,34.067230669 -91.72624801,34.175547959 -91.726087981,34.063736644 -92.230085837,34.061105044 -92.244473486,34.58045337 -92.7545205,34.911187821 -92.544474358,34.935510558 -92.48157105,35.367984097 -91.370505617,35.525689344 -91.197185797,35.886295827 -91.360091218,35.891823605 -91.261521766,36.33490141 -91.410465532,36.497517501 -91.126866877,36.497204383 -91.116269452,36.824625754 -90.661831168,36.810838744 -90.738328028,37.273603956 -90.147106659,37.311640424 -90.148822799,37.642238999 -89.841741453,37.904369872 -89.513306672,37.685906085 -89.380422692,37.041676781 -89.133825565,36.983795235 -88.987139614,37.228649532 -88.623290057,37.116564021 -88.482822113,37.025761162 -88.489002016,36.502436402 -88.054544444,36.497946292 -87.916548365,36.165580757 -87.98701927,35.007404086 -88.36573082,34.998088498 -88.33011813,34.467025415 -88.156081678,34.46575123 -88.173087135,34.321350301 -87.634674233,34.306991358 -87.528072026,33.692456284 -86.87657184,33.049927613 -87.016353406,32.663271731 -86.815057794,32.311391286 -86.48209802,32.33962844 -86.404425372,31.963525743 -86.49890491,31.525193844 -86.838822577,31.526046415 -86.914099613,31.752096198 -87.615762027,31.244807813 -87.637215313,30.866819898 -87.393898165,30.628365913 -87.557480162,30.267734746 -87.794914125,30.225829856 -88.025169265,30.221448993 -87.720435859,30.269338177 -87.990028383,30.808619629 -88.130691663,30.309535869 -88.39751715,30.381169634 -88.424454212,30.997332148 -88.837405992,31.000145706 -88.884719483,30.418981417 -88.958068848,30.451807022 -89.018486664,30.40352011 -88.85456134,30.390102431 -89.402549744,30.389989853 -89.43931573,30.184492565 -89.650840759,30.163650513 -90.151641938,30.400446146 -90.400634766,30.213644028 -90.395255775,30.073200033 -90.135787895,30.019714271 -89.735534421,30.172708133 -89.852920849,29.997839007 -89.67529322,29.865659409 -89.572219567,29.995612725 -89.427154957,30.051702247 -89.339089324,29.777351434 -89.51864624,29.840925217 -89.422126622,29.728057173 -89.782455444,29.617469788 -89.023185504,29.212909345 -89.142166158,28.978628155 -89.2554245,29.10969162 -89.411361487,28.92028654 -89.462882402,29.248418828 -89.822578331,29.307130912 -89.756973267,29.473028183 -89.949973841,29.532089647 -90.217636108,29.534378052 -90.042205823,29.442809027 -90.095543119,29.209632978 -89.951416274,29.256877801 -90.180862538,29.092865555 -90.347404527,29.333654669 -90.532455446,29.306694027 " /><polygon class="region" points="-91.615922181,34.479677548 -91.37777773,34.563152329 -91.465657214,35.089935253 -91.801218329,35.041945735 -91.615922181,34.479677548 " /><polygon class="region" points="-91.044001073,35.110423982 -91.117050651,34.867155672 -90.310854271,34.846490291 -90.305155076,35.02620067 -90.067430289,35.142024749 -90.1708051,35.418638031 -90.005954199,35.430707855 -89.852180622,35.652018039 -89.958256373,35.725101534 -89.646368544,35.908267598 -90.288476561,35.996995827 -90.284059957,35.438207915 -90.499667645,35.439779781 -90.502101725,35.142910123 -91.044001073,35.110423982 " /><polygon class="region" points="-90.532455528,29.306694351 -90.532455446,29.306694027 -90.532455563,29.306694323 -90.532455528,29.306694351 " />
		  </g>
		</svg>