<?xml version="1.0" encoding="UTF-8"?>
	<svg xmlns:xlink="http://www.w3.org/1999/xlink" 
	xmlns="http://www.w3.org/2000/svg" 
	width="360px" height="180px">
	   <style type="text/css">
		  <![CDATA[     
		  .region 
		  { 
			fill:blue; 
			opacity:0.4; 
			stroke:blue;
		  }
		  ]]>
	   </style>

	<circle id="dot" x="-2" y="-2" r="2" style="stroke:none; stroke-width:0; fill:black; opacity:0.7;"/>


	 <image x="0" y="0" width="360" height="180" xlink:href="map.jpg"/>

 
	 <g transform="translate(180,90) scale(1,-1)">   <use xlink:href="#dot" transform="translate(-91.687831,35.195571)" />   <use xlink:href="#dot" transform="translate(-91.756447,34.597056)" />   <use xlink:href="#dot" transform="translate(-91.107675,30.37015)" />   <use xlink:href="#dot" transform="translate(-93.701954,30.195608)" />   <use xlink:href="#dot" transform="translate(-94.160338,32.721071)" />   <use xlink:href="#dot" transform="translate(-92.526098,34.830679)" />   <use xlink:href="#dot" transform="translate(-98.246064,35.710504)" />   <use xlink:href="#dot" transform="translate(-94.343027,33.897955)" />   <use xlink:href="#dot" transform="translate(-93.630447,30.069478)" />   <use xlink:href="#dot" transform="translate(-93.63903,30.024472)" />   <use xlink:href="#dot" transform="translate(-93.754441,30.187491)" />   <use xlink:href="#dot" transform="translate(-93.784606,30.1727)" />   <use xlink:href="#dot" transform="translate(-90.45211,36.045117)" />   <use xlink:href="#dot" transform="translate(-94.525322,30.260584)" />   <use xlink:href="#dot" transform="translate(-92.143269,34.885184)" />   <use xlink:href="#dot" transform="translate(-94.104529,32.637991)" />   <use xlink:href="#dot" transform="translate(-94.110329,32.697495)" />   <use xlink:href="#dot" transform="translate(-91.533601,35.061885)" />   <use xlink:href="#dot" transform="translate(-91.016389,30.4375)" />   <use xlink:href="#dot" transform="translate(-91.016389,30.4375)" />   <use xlink:href="#dot" transform="translate(-91.31894,34.884456)" />   <use xlink:href="#dot" transform="translate(-94.11112,32.698066)" />   <use xlink:href="#dot" transform="translate(-92.052468,32.603675)" />   <use xlink:href="#dot" transform="translate(-91.120106,30.396256)" />   <use xlink:href="#dot" transform="translate(-91.120106,30.396256)" />   <use xlink:href="#dot" transform="translate(-93.0828,32.2764)" />   <use xlink:href="#dot" transform="translate(-91.120106,30.396256)" />   <use xlink:href="#dot" transform="translate(-95.207807,31.259714)" />   <use xlink:href="#dot" transform="translate(-91.120106,30.396256)" />   <use xlink:href="#dot" transform="translate(-91.120106,30.396256)" />   <use xlink:href="#dot" transform="translate(-91.120106,30.396256)" />   <use xlink:href="#dot" transform="translate(-91.120106,30.396256)" />   <use xlink:href="#dot" transform="translate(-91.120106,30.396256)" />   <use xlink:href="#dot" transform="translate(-91.120106,30.396256)" />   <use xlink:href="#dot" transform="translate(-91.120106,30.396256)" />   <use xlink:href="#dot" transform="translate(-90.818675,29.651241)" />   <use xlink:href="#dot" transform="translate(-91.117784,30.398811)" />   <use xlink:href="#dot" transform="translate(-90.753264,30.500364)" />   <use xlink:href="#dot" transform="translate(-91.117784,30.398811)" />   <use xlink:href="#dot" transform="translate(-91.117784,30.398811)" />   <use xlink:href="#dot" transform="translate(-91.999077,30.213676)" />   <use xlink:href="#dot" transform="translate(-94.097167,30.657556)" />   <use xlink:href="#dot" transform="translate(-91.9096,34.7659)" />   <use xlink:href="#dot" transform="translate(-90.42514,30.48679)" />   <use xlink:href="#dot" transform="translate(-90.42514,30.48679)" />   <use xlink:href="#dot" transform="translate(-90.472021,30.515383)" />   <use xlink:href="#dot" transform="translate(-90.114667,29.786687999186)" />   <use xlink:href="#dot" transform="translate(-94.036389,29.879960999184)" />   <use xlink:href="#dot" transform="translate(-94.881139,30.264152999178)" />   <use xlink:href="#dot" transform="translate(-94.881139,30.264152999178)" />   <use xlink:href="#dot" transform="translate(-84.550781,31.952162)" />   <use xlink:href="#dot" transform="translate(-90.712471481605,29.594609726205)" />   <use xlink:href="#dot" transform="translate(-90.713471507133,29.594609723862)" />   <use xlink:href="#dot" transform="translate(-91.111843869933,30.286706043555)" />   <use xlink:href="#dot" transform="translate(-91.17104581544,30.419401628804)" />   <use xlink:href="#dot" transform="translate(-91.116544215059,30.35690376879)" />   <use xlink:href="#dot" transform="translate(-90.536705,30.418625)" />   <use xlink:href="#dot" transform="translate(-91.963735629835,33.12266890057)" />   <use xlink:href="#dot" transform="translate(-91.963735629835,33.12266890057)" />   <use xlink:href="#dot" transform="translate(-91.963735629835,33.12266890057)" />   <use xlink:href="#dot" transform="translate(-91.963735629835,33.12266890057)" />   <use xlink:href="#dot" transform="translate(-89.587512814968,33.043156679232)" />   <use xlink:href="#dot" transform="translate(-94.208889,33.0625)" />   <use xlink:href="#dot" transform="translate(-93.934497,31.664530999156)" />   <use xlink:href="#dot" transform="translate(-90.719391,29.595413)" />   <use xlink:href="#dot" transform="translate(-89.54864,34.38967699912)" />   <use xlink:href="#dot" transform="translate(-94.1017,30.0858)" />   <use xlink:href="#dot" transform="translate(-94.1354,30.096038999181)" />   <use xlink:href="#dot" transform="translate(-93.918603,29.945905999183)" />   <use xlink:href="#dot" transform="translate(-93.918603,29.945905999183)" />   <use xlink:href="#dot" transform="translate(-93.918603,29.945905999183)" />   <use xlink:href="#dot" transform="translate(-93.918603,29.945905999183)" />   <use xlink:href="#dot" transform="translate(-94.149794,30.035638999182)" />   <use xlink:href="#dot" transform="translate(-89.3463,36.4755)" />   <use xlink:href="#dot" transform="translate(-89.399818088963,36.384244082307)" />   <use xlink:href="#dot" transform="translate(-90.255320997092,29.992617613472)" />   <use xlink:href="#dot" transform="translate(-90.255320997092,29.992617613472)" />   <use xlink:href="#dot" transform="translate(-90.255320997092,29.992617613472)" />   <use xlink:href="#dot" transform="translate(-90.255320997092,29.992617613472)" />   <use xlink:href="#dot" transform="translate(-90.255320997092,29.992617613472)" />   <use xlink:href="#dot" transform="translate(-90.255320997092,29.992617613472)" />   <use xlink:href="#dot" transform="translate(-90.255320997092,29.992617613472)" />   <use xlink:href="#dot" transform="translate(-89.468519937603,36.376344112552)" />   <use xlink:href="#dot" transform="translate(-89.472,36.3785)" />   <use xlink:href="#dot" transform="translate(-89.472,36.3785)" />   <use xlink:href="#dot" transform="translate(-89.468519937603,36.376344112552)" />   <use xlink:href="#dot" transform="translate(-93.74941,32.5058)" />   <use xlink:href="#dot" transform="translate(-93.74941,32.5058)" />   <use xlink:href="#dot" transform="translate(-94.80732,34.127605)" />   <use xlink:href="#dot" transform="translate(-94.188453,30.188760999179)" />   <use xlink:href="#dot" transform="translate(-94.188453,30.188760999179)" />   <use xlink:href="#dot" transform="translate(-90.2085,29.9408)" />   <use xlink:href="#dot" transform="translate(-90.2085,29.9408)" />   <use xlink:href="#dot" transform="translate(-94.44139,33.315)" />   <use xlink:href="#dot" transform="translate(-94.349722,33.20611)" />   <use xlink:href="#dot" transform="translate(-90.12751,29.92428)" />   <use xlink:href="#dot" transform="translate(-90.12751,29.92428)" />   <use xlink:href="#dot" transform="translate(-90.12751,29.92428)" />   <use xlink:href="#dot" transform="translate(-90.12751,29.92428)" />   <use xlink:href="#dot" transform="translate(-90.12751,29.92428)" />   <use xlink:href="#dot" transform="translate(-90.12751,29.92428)" />   <use xlink:href="#dot" transform="translate(-90.12751,29.92428)" />   <use xlink:href="#dot" transform="translate(-90.12751,29.92428)" />   <use xlink:href="#dot" transform="translate(-90.12751,29.92428)" />   <use xlink:href="#dot" transform="translate(-90.12751,29.92428)" />   <use xlink:href="#dot" transform="translate(-90.12751,29.92428)" />   <use xlink:href="#dot" transform="translate(-90.13,29.92)" />   <use xlink:href="#dot" transform="translate(-90.0504,35.1421)" />   <use xlink:href="#dot" transform="translate(-90.833333,29.783333)" />   <use xlink:href="#dot" transform="translate(-82.322896,29.652271)" />   <use xlink:href="#dot" transform="translate(-90.079122,30.365022)" />   <use xlink:href="#dot" transform="translate(-90.070068,29.962204)" />   <use xlink:href="#dot" transform="translate(-91.905111,29.896611)" />   <use xlink:href="#dot" transform="translate(-93.918603,29.945905999183)" />   <use xlink:href="#dot" transform="translate(-93.918603,29.945905999183)" />   <use xlink:href="#dot" transform="translate(-93.4008,31.6114)" />   <use xlink:href="#dot" transform="translate(-91.116544215059,30.35690376879)" />   <use xlink:href="#dot" transform="translate(-90.070068,29.962204)" />   <use xlink:href="#dot" transform="translate(-88.4054,33.511699999131)" />   <use xlink:href="#dot" transform="translate(-91.2067,29.6992)" />   <use xlink:href="#dot" transform="translate(-91.4031,31.5603)" />   <use xlink:href="#dot" transform="translate(-91.7588,32.7552)" />   <use xlink:href="#dot" transform="translate(-91.529958034323,31.320972476964)" />   <use xlink:href="#dot" transform="translate(-93.918603,29.945905999183)" />   <use xlink:href="#dot" transform="translate(-90.05,30)" />   <use xlink:href="#dot" transform="translate(-93.918603,29.945905999183)" />   <use xlink:href="#dot" transform="translate(-94.053636,32.674057999142)" />   <use xlink:href="#dot" transform="translate(-91.529958034323,31.320972476964)" />   <use xlink:href="#dot" transform="translate(-93.918603,29.945905999183)" />   <use xlink:href="#dot" transform="translate(-93.918603,29.945905999183)" />   <use xlink:href="#dot" transform="translate(-90.075,29.9544)" />   <use xlink:href="#dot" transform="translate(-90.05,30)" />   <use xlink:href="#dot" transform="translate(-91.7588,32.7552)" />   <use xlink:href="#dot" transform="translate(-93.918603,29.945905999183)" />   <use xlink:href="#dot" transform="translate(-90.075,29.9544)" />   <use xlink:href="#dot" transform="translate(-93.918603,29.945905999183)" />   <use xlink:href="#dot" transform="translate(-93.918603,29.945905999183)" />   <use xlink:href="#dot" transform="translate(-91.529958034323,31.320972476964)" />   <use xlink:href="#dot" transform="translate(-93.918603,29.945905999183)" /><polygon class="region" points="-94.881139,30.264152999178 -98.246064,35.710504 -89.3463,36.4755 -84.550781,31.952162 -82.322896,29.652271 -90.712471481605,29.594609726205 -90.713471507133,29.594609723862 -94.036389,29.879960999184 -94.881139,30.264152999178 " />
		  </g>
		</svg>