<?xml version="1.0" encoding="UTF-8"?>
	<svg xmlns:xlink="http://www.w3.org/1999/xlink" 
	xmlns="http://www.w3.org/2000/svg" 
	width="360px" height="180px">
	   <style type="text/css">
		  <![CDATA[     
		  .region 
		  { 
			fill:blue; 
			opacity:0.4; 
			stroke:blue;
		  }
		  ]]>
	   </style>

	<circle id="dot" x="-2" y="-2" r="2" style="stroke:none; stroke-width:0; fill:black; opacity:0.7;"/>


	 <image x="0" y="0" width="360" height="180" xlink:href="map.jpg"/>

 
	 <g transform="translate(180,90) scale(1,-1)"><polygon class="region" points="-107.209392498,40.094633093 -107.034433,40.093018485 -107.113218462,39.359686949 -107.42620484,39.359673411 -107.499484227,39.22009205 -107.498912639,38.300812232 -108.126762243,38.330994253 -107.731178234,37.928305957 -107.967944353,37.637740574 -107.482591928,37.637364102 -107.477417035,36.999054526 -105.142647458,36.995792719 -105.187738853,37.617378395 -105.498612094,37.614068674 -105.471038133,37.894529848 -105.162262012,38.020175123 -105.046246151,37.911450082 -105.048173677,38.258215545 -105.817673842,38.27264673 -106.011727823,38.447726019 -105.877506722,38.598595152 -105.964005409,38.690657092 -104.942354183,38.646694613 -105.031397901,39.131069573 -104.051577401,39.126365141 -104.058168644,38.148178036 -102.043840624,38.267590427 -102.042060955,37.388204259 -101.557639714,37.388675414 -101.554788739,36.995083247 -100.089814203,36.998267136 -100.106389819,37.475028751 -98.465792642,37.471574914 -98.347878561,37.000256731 -97.46203401,37.000151223 -97.463059773,36.165079482 -97.675615833,36.166266448 -97.67252939,35.334897552 -98.098190795,35.376590402 -98.088954692,34.68362818 -97.668656323,34.682326216 -97.670143342,34.855391366 -96.932311544,34.855152974 -96.932684971,34.966437718 -96.407699433,34.926499541 -96.455758271,34.116804569 -97.560950046,34.072597703 -97.56302437,34.290791936 -98.140262388,34.292399484 -98.160434569,34.123488513 -98.465853302,34.057733895 -98.953692237,34.199881803 -98.953794728,33.396029795 -97.979915696,33.465841606 -97.92011997,33.00097484 -96.51826007,32.984583123 -96.499600768,32.454021531 -96.053028525,32.01921763 -96.499488299,31.800340653 -96.232994795,31.411323824 -96.332868741,31.256120681 -96.082008497,30.428444585 -96.281259849,30.360747386 -96.623084018,30.730481194 -97.369996467,30.418715748 -97.896701217,29.881660274 -97.631610873,29.652644983 -97.857244718,29.352461538 -97.728929942,29.223713109 -98.335985596,28.611390377 -98.233552476,27.264072418 -98.540688127,27.266939954 -98.325081119,26.783421268 -98.589380398,26.258745065 -99.11020153,26.423075924 -99.444907361,27.021488362 -99.547136602,27.608748995 -99.760766285,27.716392955 -100.151310876,27.328893072 -100.335605783,26.714576716 -100.3663216,25.148070007 -99.782721062,23.120826031 -99.503699036,21.506951433 -99.442842728,21.141813586 -99.608238577,20.610543829 -100.407508754,20.712484018 -100.901932847,21.738490241 -102.792871208,22.015056589 -103.315040111,22.414362221 -105.342284087,25.086638371 -105.877353168,26.785113148 -107.846526646,27.855579007 -107.958774892,29.137046879 -108.225957337,30.094220083 -108.383150052,30.339043219 -108.96675059,30.369759037 -109.39677204,29.878305951 -109.39677204,29.417568684 -108.352434234,26.837439987 -105.557294812,23.335836755 -105.026091845,21.708801817 -105.114625673,21.41158111 -105.233239469,21.386552511 -105.66619873,22.013553619 -105.811325127,22.644141915 -106.976990019,23.922924171 -108.007590976,24.660704223 -108.070900036,25.093109612 -108.776741088,25.371829818 -108.697341889,25.527328846 -108.791091839,25.419021157 -108.779510357,25.552126238 -108.93678274,25.452943838 -109.397476196,25.638536453 -109.308166504,26.567321777 -109.790367061,26.725036111 -109.962646484,27.1027565 -110.52207876,27.295570742 -110.631065052,27.611108453 -110.507461548,27.860708237 -111.10194397,27.937952042 -112.165763875,28.967991112 -112.211181307,29.273040925 -112.404937563,29.337240514 -113.094284616,30.703501824 -113.035858217,31.169142157 -113.620650921,31.327069973 -113.968589783,31.655181885 -114.169974899,31.497679414 -114.960678101,31.912679672 -114.778167954,31.658573393 -114.887931963,31.164502293 -114.70752012,30.906546701 -114.572662969,30.03447959 -113.723617488,29.368701399 -113.529816165,28.910108995 -113.215682436,28.828738978 -113.093353703,28.502716029 -112.841599037,28.442100342 -112.769226457,27.864830357 -111.95136261,27.096343994 -112.009086609,26.958248138 -111.761818214,26.555084397 -111.847717222,26.882469179 -111.566093755,26.709529896 -111.304489362,25.784111355 -110.685661416,24.8868213 -110.607345581,24.25614357 -110.310287962,24.166301415 -110.241195679,24.3515625 -109.977028612,24.039986998 -109.825477658,24.059175077 -109.684577942,23.672157288 -109.402702396,23.464908087 -109.521262955,23.12220365 -109.982375825,22.878942727 -110.325447083,23.579284668 -111.63507803,24.559259755 -111.806442473,24.508512767 -111.961570443,24.775865458 -112.075042389,24.723089213 -112.09516117,25.006931304 -112.171248906,24.814113527 -112.148208618,25.931026459 -113.235298415,26.783382824 -113.139572016,26.854129668 -113.153502816,26.983375299 -113.262977722,26.751409812 -113.621215975,26.721479922 -113.841216564,26.966951777 -114.42427848,27.174286055 -114.520226133,27.426172725 -115.021896457,27.73913406 -115.056251302,27.862781526 -114.31438392,27.875035799 -114.103119277,27.601138825 -113.949669144,27.655629837 -114.141288628,27.729843025 -114.154693966,27.948603083 -114.270179463,27.898305573 -114.041694641,28.460445404 -114.963546281,29.373655477 -115.69694519,29.752170563 -116.052924945,30.787524988 -116.330665588,30.959127426 -116.545890908,31.452459713 -116.123536143,32.636166918 -116.560508779,33.010887178 -116.416268369,33.13439156 -116.616839305,33.427306771 -116.154156201,33.452503298 -116.459601481,33.627181965 -116.50699698,33.856480245 -116.736026488,33.903370036 -116.664146597,34.279267074 -117.655255166,34.410205399 -117.676862171,34.164778371 -118.082376455,34.17870766 -118.508171679,34.339764872 -118.392487845,34.602671589 -118.81183344,34.648305853 -118.893544441,34.817758639 -118.260286906,35.004065388 -117.886317465,35.658895882 -118.268053952,36.718346856 -118.077293813,36.739644816 -117.676802546,36.315942811 -117.460935204,37.011202612 -117.285498385,37.060187253 -116.709400084,36.627591121 -116.552747573,36.870225921 -116.443566849,36.669262016 -116.066586132,36.581473448 -115.893597939,36.843282535 -114.955332729,36.85342202 -114.979351943,37.758888504 -114.052248002,37.472466695 -114.0531109,37.607573116 -112.686657141,37.54497495 -112.691994816,37.806496281 -112.470694267,37.905907582 -112.341917113,38.31199205 -112.519644527,38.480426372 -112.4673902,38.674623982 -112.219395736,38.727433836 -112.014793106,39.048066612 -111.301030967,39.033871021 -111.246055502,39.707605637 -111.076911824,39.469377124 -109.115750794,39.460793132 -109.051755278,39.669287936 -107.433654197,39.82565655 -107.209392498,40.094633093 " /><polygon class="region" points="-109.34634919,34.30618642 -109.337246369,34.187404528 -109.848012285,34.28389161 -109.858674367,34.109704471 -109.522402511,34.015256353 -109.49601603,33.652567254 -109.046052647,33.778517767 -109.04597539,34.168983757 -109.34634919,34.30618642 " /><polygon class="region" points="-116.064795098,36.409077844 -116.194226449,36.239243186 -115.897501081,36.004188994 -115.895693763,36.404742533 -116.064795098,36.409077844 " /><polygon class="region" points="-111.618885789,33.716176648 -111.891112564,33.567776468 -111.908476179,33.436568205 -111.676424861,33.516799918 -111.618885789,33.716176648 " /><polygon class="region" points="-111.566741859,33.024016474 -111.653379888,32.850373349 -111.462546195,32.835554874 -111.472487495,33.015643719 -111.566741859,33.024016474 " /><polygon class="region" points="-94.432934991,35.380751469 -94.489174214,33.628366796 -95.218819153,33.95962897 -95.929537101,33.93397219 -95.992324438,34.158460979 -95.777387948,34.158151519 -95.776807048,34.507307164 -95.513974162,34.68111567 -95.062106404,34.679947428 -94.929487145,35.20035165 -94.432934991,35.380751469 " /><polygon class="region" points="-112.282493959,29.229021101 -112.186302246,28.974495144 -112.305839539,28.746429443 -112.581015918,28.87606032 -112.454536441,29.189484113 -112.282493959,29.229021101 " /><polygon class="region" points="-109.79019165,24.161756516 -109.885139028,24.193107312 -109.923553273,24.375245971 -109.806900206,24.208448584 -109.79019165,24.161756516 " /><polygon class="region" points="-110.325580712,24.500732488 -110.29511261,24.460134506 -110.35141043,24.399330503 -110.39546935,24.520893172 -110.325580712,24.500732488 " />
		  </g>
		</svg>