<?xml version="1.0" encoding="UTF-8"?>
	<svg xmlns:xlink="http://www.w3.org/1999/xlink" 
	xmlns="http://www.w3.org/2000/svg" 
	width="360px" height="180px">
	   <style type="text/css">
		  <![CDATA[     
		  .region 
		  { 
			fill:blue; 
			opacity:0.4; 
			stroke:blue;
		  }
		  ]]>
	   </style>

	<circle id="dot" x="-2" y="-2" r="2" style="stroke:none; stroke-width:0; fill:black; opacity:0.7;"/>


	 <image x="0" y="0" width="360" height="180" xlink:href="map.jpg"/>

 
	 <g transform="translate(180,90) scale(1,-1)">   <use xlink:href="#dot" transform="translate(-72.635556,7.540278)" />   <use xlink:href="#dot" transform="translate(-72.635556,7.540278)" />   <use xlink:href="#dot" transform="translate(-73.673,4.143583)" />   <use xlink:href="#dot" transform="translate(-73.400944,8.425028)" />   <use xlink:href="#dot" transform="translate(-73.400944,8.425028)" />   <use xlink:href="#dot" transform="translate(-73.400944,8.425028)" />   <use xlink:href="#dot" transform="translate(-73.400944,8.425028)" />   <use xlink:href="#dot" transform="translate(-73.400944,8.425028)" />   <use xlink:href="#dot" transform="translate(-73.400944,8.425028)" />   <use xlink:href="#dot" transform="translate(-73.400944,8.425028)" />   <use xlink:href="#dot" transform="translate(-73.400944,8.425028)" />   <use xlink:href="#dot" transform="translate(-73.400944,8.425028)" />   <use xlink:href="#dot" transform="translate(-73.400944,8.425028)" />   <use xlink:href="#dot" transform="translate(-73.400944,8.425028)" />   <use xlink:href="#dot" transform="translate(-73.400944,8.425028)" />   <use xlink:href="#dot" transform="translate(-73.400944,8.425028)" />   <use xlink:href="#dot" transform="translate(-67.493018,6.109289)" />   <use xlink:href="#dot" transform="translate(-67.493018,6.109289)" />   <use xlink:href="#dot" transform="translate(-73.117305,6.048071)" />   <use xlink:href="#dot" transform="translate(-67.493018,6.109289)" />   <use xlink:href="#dot" transform="translate(-67.493018,6.109289)" />   <use xlink:href="#dot" transform="translate(-67.493018,6.109289)" />   <use xlink:href="#dot" transform="translate(-67.493018,6.109289)" />   <use xlink:href="#dot" transform="translate(-67.493018,6.109289)" />   <use xlink:href="#dot" transform="translate(-67.493018,6.109289)" />   <use xlink:href="#dot" transform="translate(-67.493018,6.109289)" />   <use xlink:href="#dot" transform="translate(-67.493018,6.109289)" />   <use xlink:href="#dot" transform="translate(-67.493018,6.109289)" />   <use xlink:href="#dot" transform="translate(-67.493018,6.109289)" />   <use xlink:href="#dot" transform="translate(-67.493018,6.109289)" />   <use xlink:href="#dot" transform="translate(-67.493018,6.109289)" />   <use xlink:href="#dot" transform="translate(-72.583333,7.666667)" />   <use xlink:href="#dot" transform="translate(-72.583333,7.666667)" /><polygon class="region" points="-67.493018,6.109289 -73.673,4.143583 -73.400944,8.425028 -67.493018,6.109289 " />
		  </g>
		</svg>