<?xml version="1.0" encoding="UTF-8"?>
	<svg xmlns:xlink="http://www.w3.org/1999/xlink" 
	xmlns="http://www.w3.org/2000/svg" 
	width="360px" height="180px">
	   <style type="text/css">
		  <![CDATA[     
		  .region 
		  { 
			fill:blue; 
			opacity:0.4; 
			stroke:blue;
		  }
		  ]]>
	   </style>

	<circle id="dot" x="-2" y="-2" r="2" style="stroke:none; stroke-width:0; fill:black; opacity:0.7;"/>


	 <image x="0" y="0" width="360" height="180" xlink:href="map.jpg"/>

 
	 <g transform="translate(180,90) scale(1,-1)">   <use xlink:href="#dot" transform="translate(-92.033194,15.075638)" />   <use xlink:href="#dot" transform="translate(-93.25221,16.995774)" />   <use xlink:href="#dot" transform="translate(-93.10505,17.20367)" />   <use xlink:href="#dot" transform="translate(-93.10505,17.20367)" />   <use xlink:href="#dot" transform="translate(-93.10505,17.20367)" />   <use xlink:href="#dot" transform="translate(-93.12086,17.18205)" />   <use xlink:href="#dot" transform="translate(-93.10505,17.20367)" />   <use xlink:href="#dot" transform="translate(-93.235128,16.898023)" />   <use xlink:href="#dot" transform="translate(-92.7637,17.04259)" />   <use xlink:href="#dot" transform="translate(-92.82756,17.19193)" />   <use xlink:href="#dot" transform="translate(-93.0649,17.18491)" />   <use xlink:href="#dot" transform="translate(-92.97479,17.21053)" />   <use xlink:href="#dot" transform="translate(-92.97479,17.21053)" />   <use xlink:href="#dot" transform="translate(-92.965,17.21706)" />   <use xlink:href="#dot" transform="translate(-92.79325,15.68736)" />   <use xlink:href="#dot" transform="translate(-92.965,17.21706)" />   <use xlink:href="#dot" transform="translate(-93.0649,17.18491)" />   <use xlink:href="#dot" transform="translate(-92.7637,17.04259)" />   <use xlink:href="#dot" transform="translate(-92.79256,15.69102)" />   <use xlink:href="#dot" transform="translate(-93.0649,17.18491)" />   <use xlink:href="#dot" transform="translate(-92.965,17.21706)" />   <use xlink:href="#dot" transform="translate(-92.82756,17.19193)" />   <use xlink:href="#dot" transform="translate(-93.0649,17.18491)" />   <use xlink:href="#dot" transform="translate(-94.168333,16.561944)" />   <use xlink:href="#dot" transform="translate(-93.480833,16.921389)" />   <use xlink:href="#dot" transform="translate(-92.235,15.210278)" />   <use xlink:href="#dot" transform="translate(-92.520278,15.556944)" />   <use xlink:href="#dot" transform="translate(-92.519167,15.445556)" />   <use xlink:href="#dot" transform="translate(-92.408056,15.472222)" />   <use xlink:href="#dot" transform="translate(-93.07,15.801389)" />   <use xlink:href="#dot" transform="translate(-93.07,15.801389)" />   <use xlink:href="#dot" transform="translate(-92.741389,15.643611)" />   <use xlink:href="#dot" transform="translate(-92.741389,15.643611)" />   <use xlink:href="#dot" transform="translate(-93.191944,15.880278)" />   <use xlink:href="#dot" transform="translate(-93.191944,15.880278)" />   <use xlink:href="#dot" transform="translate(-93.192,15.88)" />   <use xlink:href="#dot" transform="translate(-93.075833,15.799444)" />   <use xlink:href="#dot" transform="translate(-93.068056,15.802222)" />   <use xlink:href="#dot" transform="translate(-93.068056,15.802222)" />   <use xlink:href="#dot" transform="translate(-93.925803985466,16.363280002213)" />   <use xlink:href="#dot" transform="translate(-93.068,15.802)" />   <use xlink:href="#dot" transform="translate(-93.920804045014,16.427165870094)" />   <use xlink:href="#dot" transform="translate(-93.920804045014,16.427165870094)" />   <use xlink:href="#dot" transform="translate(-93.069444,15.807778)" />   <use xlink:href="#dot" transform="translate(-93.069,15.809)" />   <use xlink:href="#dot" transform="translate(-93.051,15.812)" />   <use xlink:href="#dot" transform="translate(-93.066389,15.809444)" />   <use xlink:href="#dot" transform="translate(-93.060833,15.809444)" />   <use xlink:href="#dot" transform="translate(-93.069444,15.807778)" />   <use xlink:href="#dot" transform="translate(-93.068611,15.809722)" />   <use xlink:href="#dot" transform="translate(-93.050833,15.811944)" />   <use xlink:href="#dot" transform="translate(-93.050833,15.811944)" />   <use xlink:href="#dot" transform="translate(-93.074444,15.801111)" />   <use xlink:href="#dot" transform="translate(-93.068611,15.808889)" />   <use xlink:href="#dot" transform="translate(-93.074444,15.801111)" />   <use xlink:href="#dot" transform="translate(-93.068611,15.808889)" />   <use xlink:href="#dot" transform="translate(-93.069,15.808)" />   <use xlink:href="#dot" transform="translate(-93.074,15.801)" />   <use xlink:href="#dot" transform="translate(-93.093333,15.823056)" />   <use xlink:href="#dot" transform="translate(-93.967194015088,16.38161199203)" />   <use xlink:href="#dot" transform="translate(-93.967194015088,16.38161199203)" />   <use xlink:href="#dot" transform="translate(-93.967194015088,16.38161199203)" />   <use xlink:href="#dot" transform="translate(-93.967194015088,16.38161199203)" />   <use xlink:href="#dot" transform="translate(-93.925803985466,16.363280002213)" />   <use xlink:href="#dot" transform="translate(-93.925803985466,16.363280002213)" />   <use xlink:href="#dot" transform="translate(-93.925803985466,16.363280002213)" />   <use xlink:href="#dot" transform="translate(-93.925803985466,16.363280002213)" />   <use xlink:href="#dot" transform="translate(-93.925803985466,16.363280002213)" />   <use xlink:href="#dot" transform="translate(-93.925803985466,16.363280002213)" />   <use xlink:href="#dot" transform="translate(-93.925803985466,16.363280002213)" />   <use xlink:href="#dot" transform="translate(-93.925803985466,16.363280002213)" />   <use xlink:href="#dot" transform="translate(-94.187778,16.566667)" />   <use xlink:href="#dot" transform="translate(-94.187778,16.566667)" />   <use xlink:href="#dot" transform="translate(-94.187778,16.566667)" />   <use xlink:href="#dot" transform="translate(-94.166667,16.573611)" />   <use xlink:href="#dot" transform="translate(-94.187778,16.566667)" />   <use xlink:href="#dot" transform="translate(-94.166667,16.573611)" />   <use xlink:href="#dot" transform="translate(-94.168033252903,16.556325877264)" />   <use xlink:href="#dot" transform="translate(-94.166667,16.573611)" />   <use xlink:href="#dot" transform="translate(-94.168033252903,16.556325877264)" />   <use xlink:href="#dot" transform="translate(-94.168033252903,16.556325877264)" />   <use xlink:href="#dot" transform="translate(-94.166667,16.573611)" />   <use xlink:href="#dot" transform="translate(-94.187778,16.566667)" />   <use xlink:href="#dot" transform="translate(-94.187778,16.566667)" />   <use xlink:href="#dot" transform="translate(-94.187778,16.566667)" />   <use xlink:href="#dot" transform="translate(-94.168033252903,16.556325877264)" />   <use xlink:href="#dot" transform="translate(-94.187778,16.566667)" />   <use xlink:href="#dot" transform="translate(-94.187778,16.566667)" />   <use xlink:href="#dot" transform="translate(-94.168033252903,16.556325877264)" />   <use xlink:href="#dot" transform="translate(-94.168033252903,16.556325877264)" />   <use xlink:href="#dot" transform="translate(-94.168033252903,16.556325877264)" />   <use xlink:href="#dot" transform="translate(-94.168033252903,16.556325877264)" />   <use xlink:href="#dot" transform="translate(-94.166667,16.573611)" />   <use xlink:href="#dot" transform="translate(-94.168033252903,16.556325877264)" />   <use xlink:href="#dot" transform="translate(-94.166667,16.573611)" />   <use xlink:href="#dot" transform="translate(-94.168033252903,16.556325877264)" />   <use xlink:href="#dot" transform="translate(-94.187778,16.566667)" />   <use xlink:href="#dot" transform="translate(-94.166667,16.573611)" />   <use xlink:href="#dot" transform="translate(-93.925833,16.3625)" />   <use xlink:href="#dot" transform="translate(-93.923581902033,16.352169555259)" />   <use xlink:href="#dot" transform="translate(-93.335,16.858333)" />   <use xlink:href="#dot" transform="translate(-93.925833,16.3625)" />   <use xlink:href="#dot" transform="translate(-93.923581902033,16.352169555259)" />   <use xlink:href="#dot" transform="translate(-93.925833,16.3625)" />   <use xlink:href="#dot" transform="translate(-93.335,16.858333)" />   <use xlink:href="#dot" transform="translate(-93.335,16.858333)" />   <use xlink:href="#dot" transform="translate(-93.335,16.858333)" />   <use xlink:href="#dot" transform="translate(-93.925833,16.3625)" />   <use xlink:href="#dot" transform="translate(-93.335,16.858333)" />   <use xlink:href="#dot" transform="translate(-93.335,16.858333)" />   <use xlink:href="#dot" transform="translate(-93.923581902033,16.352169555259)" />   <use xlink:href="#dot" transform="translate(-93.923581902033,16.352169555259)" />   <use xlink:href="#dot" transform="translate(-93.925833,16.3625)" />   <use xlink:href="#dot" transform="translate(-93.923581902033,16.352169555259)" />   <use xlink:href="#dot" transform="translate(-93.923581902033,16.352169555259)" />   <use xlink:href="#dot" transform="translate(-93.925833,16.3625)" />   <use xlink:href="#dot" transform="translate(-93.335,16.858333)" />   <use xlink:href="#dot" transform="translate(-95.946944,17.398333)" />   <use xlink:href="#dot" transform="translate(-93.608333,16.193056)" />   <use xlink:href="#dot" transform="translate(-93.608333,16.193056)" />   <use xlink:href="#dot" transform="translate(-93.5825,16.201389)" />   <use xlink:href="#dot" transform="translate(-93.5825,16.201389)" />   <use xlink:href="#dot" transform="translate(-93.5825,16.201389)" />   <use xlink:href="#dot" transform="translate(-93.5825,16.201389)" />   <use xlink:href="#dot" transform="translate(-93.5825,16.201389)" />   <use xlink:href="#dot" transform="translate(-93.5825,16.201389)" />   <use xlink:href="#dot" transform="translate(-93.5825,16.201389)" />   <use xlink:href="#dot" transform="translate(-93.5825,16.201389)" />   <use xlink:href="#dot" transform="translate(-93.5825,16.201389)" />   <use xlink:href="#dot" transform="translate(-93.5825,16.201389)" />   <use xlink:href="#dot" transform="translate(-93.602740828525,16.175512096892)" />   <use xlink:href="#dot" transform="translate(-93.602740828525,16.175512096892)" />   <use xlink:href="#dot" transform="translate(-93.602740828525,16.175512096892)" />   <use xlink:href="#dot" transform="translate(-93.608333,16.193056)" />   <use xlink:href="#dot" transform="translate(-93.5825,16.201389)" />   <use xlink:href="#dot" transform="translate(-93.602740828525,16.175512096892)" />   <use xlink:href="#dot" transform="translate(-93.5825,16.201389)" />   <use xlink:href="#dot" transform="translate(-93.5825,16.201389)" />   <use xlink:href="#dot" transform="translate(-93.5825,16.201389)" />   <use xlink:href="#dot" transform="translate(-93.5825,16.201389)" />   <use xlink:href="#dot" transform="translate(-93.602740828525,16.175512096892)" />   <use xlink:href="#dot" transform="translate(-93.5825,16.201389)" />   <use xlink:href="#dot" transform="translate(-93.5825,16.201389)" />   <use xlink:href="#dot" transform="translate(-93.5825,16.201389)" />   <use xlink:href="#dot" transform="translate(-93.5825,16.201389)" />   <use xlink:href="#dot" transform="translate(-93.5825,16.201389)" />   <use xlink:href="#dot" transform="translate(-93.5825,16.201389)" />   <use xlink:href="#dot" transform="translate(-93.608333,16.193056)" />   <use xlink:href="#dot" transform="translate(-93.5825,16.201389)" />   <use xlink:href="#dot" transform="translate(-93.5825,16.201389)" />   <use xlink:href="#dot" transform="translate(-93.5825,16.201389)" />   <use xlink:href="#dot" transform="translate(-93.5825,16.201389)" />   <use xlink:href="#dot" transform="translate(-93.5825,16.201389)" />   <use xlink:href="#dot" transform="translate(-93.5825,16.201389)" />   <use xlink:href="#dot" transform="translate(-93.608333,16.193056)" />   <use xlink:href="#dot" transform="translate(-94.35167,16.47917)" />   <use xlink:href="#dot" transform="translate(-94.35167,16.47917)" />   <use xlink:href="#dot" transform="translate(-93.070556,15.815833)" />   <use xlink:href="#dot" transform="translate(-93.070556,15.815833)" />   <use xlink:href="#dot" transform="translate(-93.925833,16.3625)" />   <use xlink:href="#dot" transform="translate(-93.925803985466,16.363280002213)" />   <use xlink:href="#dot" transform="translate(-93.925833,16.3625)" />   <use xlink:href="#dot" transform="translate(-93.925803985466,16.363280002213)" />   <use xlink:href="#dot" transform="translate(-93.925833,16.3625)" />   <use xlink:href="#dot" transform="translate(-93.925803985466,16.363280002213)" />   <use xlink:href="#dot" transform="translate(-93.925803985466,16.363280002213)" />   <use xlink:href="#dot" transform="translate(-93.925803985466,16.363280002213)" />   <use xlink:href="#dot" transform="translate(-93.925833,16.3625)" />   <use xlink:href="#dot" transform="translate(-93.925833,16.3625)" />   <use xlink:href="#dot" transform="translate(-93.925833,16.3625)" />   <use xlink:href="#dot" transform="translate(-93.925833,16.3625)" />   <use xlink:href="#dot" transform="translate(-93.925803985466,16.363280002213)" />   <use xlink:href="#dot" transform="translate(-93.925833,16.3625)" />   <use xlink:href="#dot" transform="translate(-93.925803985466,16.363280002213)" />   <use xlink:href="#dot" transform="translate(-93.925803985466,16.363280002213)" />   <use xlink:href="#dot" transform="translate(-93.068889,15.802222)" />   <use xlink:href="#dot" transform="translate(-93.068889,15.802222)" />   <use xlink:href="#dot" transform="translate(-93.831667,17.019722)" />   <use xlink:href="#dot" transform="translate(-93.606111,17.008611)" />   <use xlink:href="#dot" transform="translate(-93.456111,16.878889)" />   <use xlink:href="#dot" transform="translate(-93.456111,16.878889)" />   <use xlink:href="#dot" transform="translate(-93.456111,16.878889)" />   <use xlink:href="#dot" transform="translate(-93.456111,16.878889)" />   <use xlink:href="#dot" transform="translate(-93.663,16.951)" />   <use xlink:href="#dot" transform="translate(-93.673611,16.958889)" />   <use xlink:href="#dot" transform="translate(-93.673611,16.958889)" />   <use xlink:href="#dot" transform="translate(-93.671,16.959)" />   <use xlink:href="#dot" transform="translate(-93.671111,16.958889)" />   <use xlink:href="#dot" transform="translate(-93.673611,16.958889)" />   <use xlink:href="#dot" transform="translate(-93.663,16.951)" />   <use xlink:href="#dot" transform="translate(-93.679444,16.958889)" />   <use xlink:href="#dot" transform="translate(-93.673611,16.958889)" />   <use xlink:href="#dot" transform="translate(-93.663,16.951)" />   <use xlink:href="#dot" transform="translate(-93.679444,16.958889)" />   <use xlink:href="#dot" transform="translate(-93.674,16.959)" />   <use xlink:href="#dot" transform="translate(-93.679444,16.958889)" />   <use xlink:href="#dot" transform="translate(-93.673611,16.958889)" />   <use xlink:href="#dot" transform="translate(-93.673611,16.958889)" />   <use xlink:href="#dot" transform="translate(-93.673611,16.958889)" />   <use xlink:href="#dot" transform="translate(-93.673611,16.958889)" />   <use xlink:href="#dot" transform="translate(-93.310257812627,16.868036828589)" />   <use xlink:href="#dot" transform="translate(-93.273611,16.869444)" />   <use xlink:href="#dot" transform="translate(-93.375,16.841667)" />   <use xlink:href="#dot" transform="translate(-93.273611,16.869444)" />   <use xlink:href="#dot" transform="translate(-93.31821,16.87041)" />   <use xlink:href="#dot" transform="translate(-93.31821,16.87041)" />   <use xlink:href="#dot" transform="translate(-93.283333,16.85)" />   <use xlink:href="#dot" transform="translate(-93.273611,16.869444)" />   <use xlink:href="#dot" transform="translate(-93.310257812627,16.868036828589)" />   <use xlink:href="#dot" transform="translate(-93.375,16.841667)" />   <use xlink:href="#dot" transform="translate(-95.07,18.516111)" />   <use xlink:href="#dot" transform="translate(-92.145,15.036)" />   <use xlink:href="#dot" transform="translate(-92.145203357513,15.037239435815)" />   <use xlink:href="#dot" transform="translate(-94.190533855303,16.581324590992)" />   <use xlink:href="#dot" transform="translate(-94.190533855303,16.581324590992)" />   <use xlink:href="#dot" transform="translate(-94.191,16.581)" />   <use xlink:href="#dot" transform="translate(-92.134722,15.041667)" />   <use xlink:href="#dot" transform="translate(-94.190533855303,16.581324590992)" />   <use xlink:href="#dot" transform="translate(-92.145203357513,15.037239435815)" />   <use xlink:href="#dot" transform="translate(-92.134722,15.041667)" />   <use xlink:href="#dot" transform="translate(-94.191,16.581)" />   <use xlink:href="#dot" transform="translate(-94.190533855303,16.581324590992)" />   <use xlink:href="#dot" transform="translate(-94.166667,16.573611)" />   <use xlink:href="#dot" transform="translate(-92.145203357513,15.037239435815)" />   <use xlink:href="#dot" transform="translate(-92.145,15.036)" />   <use xlink:href="#dot" transform="translate(-94.191,16.581)" />   <use xlink:href="#dot" transform="translate(-92.145203357513,15.037239435815)" />   <use xlink:href="#dot" transform="translate(-94.190533855303,16.581324590992)" />   <use xlink:href="#dot" transform="translate(-92.145,15.036)" />   <use xlink:href="#dot" transform="translate(-92.145203357513,15.037239435815)" />   <use xlink:href="#dot" transform="translate(-92.134722,15.041667)" />   <use xlink:href="#dot" transform="translate(-92.145,15.036)" />   <use xlink:href="#dot" transform="translate(-94.191,16.581)" />   <use xlink:href="#dot" transform="translate(-94.190533855303,16.581324590992)" />   <use xlink:href="#dot" transform="translate(-94.191,16.581)" />   <use xlink:href="#dot" transform="translate(-92.145,15.036)" />   <use xlink:href="#dot" transform="translate(-94.190533855303,16.581324590992)" />   <use xlink:href="#dot" transform="translate(-92.134722,15.041667)" />   <use xlink:href="#dot" transform="translate(-94.191,16.581)" />   <use xlink:href="#dot" transform="translate(-94.191,16.581)" />   <use xlink:href="#dot" transform="translate(-94.190533855303,16.581324590992)" />   <use xlink:href="#dot" transform="translate(-92.13583,15.03889)" />   <use xlink:href="#dot" transform="translate(-94.191,16.581)" />   <use xlink:href="#dot" transform="translate(-92.13583,15.03889)" />   <use xlink:href="#dot" transform="translate(-93.245,16.948)" />   <use xlink:href="#dot" transform="translate(-93.245234493287,16.948531065627)" />   <use xlink:href="#dot" transform="translate(-93.321347077593,16.868812762312)" />   <use xlink:href="#dot" transform="translate(-93.146656,17.105286)" />   <use xlink:href="#dot" transform="translate(-93.45221,16.94225)" />   <use xlink:href="#dot" transform="translate(-93.146656,17.105286)" />   <use xlink:href="#dot" transform="translate(-93.089131,16.80194)" />   <use xlink:href="#dot" transform="translate(-93.131898412594,17.168798630132)" />   <use xlink:href="#dot" transform="translate(-93.113,17.182)" />   <use xlink:href="#dot" transform="translate(-93.45221,16.94225)" />   <use xlink:href="#dot" transform="translate(-93.283333,16.85)" />   <use xlink:href="#dot" transform="translate(-93.245,16.948)" />   <use xlink:href="#dot" transform="translate(-93.245234493287,16.948531065627)" />   <use xlink:href="#dot" transform="translate(-93.321347077593,16.868812762312)" />   <use xlink:href="#dot" transform="translate(-93.321347077593,16.868812762312)" />   <use xlink:href="#dot" transform="translate(-93.31306,16.86888)" />   <use xlink:href="#dot" transform="translate(-93.131898412594,17.168798630132)" />   <use xlink:href="#dot" transform="translate(-93.1130100019,17.182409016917)" />   <use xlink:href="#dot" transform="translate(-93.132,17.168)" />   <use xlink:href="#dot" transform="translate(-93.321347077593,16.868812762312)" />   <use xlink:href="#dot" transform="translate(-93.131898412594,17.168798630132)" />   <use xlink:href="#dot" transform="translate(-93.245,16.948)" />   <use xlink:href="#dot" transform="translate(-93.31306,16.86888)" />   <use xlink:href="#dot" transform="translate(-95.05167,18.59167)" />   <use xlink:href="#dot" transform="translate(-93.146656,17.105286)" />   <use xlink:href="#dot" transform="translate(-93.31306,16.86888)" />   <use xlink:href="#dot" transform="translate(-93.146656,17.105286)" />   <use xlink:href="#dot" transform="translate(-93.283333,16.85)" />   <use xlink:href="#dot" transform="translate(-93.064167,17.168889)" />   <use xlink:href="#dot" transform="translate(-93.321,16.868)" />   <use xlink:href="#dot" transform="translate(-93.245234493287,16.948531065627)" />   <use xlink:href="#dot" transform="translate(-93.245234493287,16.948531065627)" />   <use xlink:href="#dot" transform="translate(-93.245234493287,16.948531065627)" />   <use xlink:href="#dot" transform="translate(-93.245234493287,16.948531065627)" />   <use xlink:href="#dot" transform="translate(-93.131898412594,17.168798630132)" />   <use xlink:href="#dot" transform="translate(-93.132,17.168)" />   <use xlink:href="#dot" transform="translate(-93.321,16.868)" />   <use xlink:href="#dot" transform="translate(-93.31306,16.86888)" />   <use xlink:href="#dot" transform="translate(-93.154444,17.13)" />   <use xlink:href="#dot" transform="translate(-93.321347077593,16.868812762312)" />   <use xlink:href="#dot" transform="translate(-93.321347077593,16.868812762312)" />   <use xlink:href="#dot" transform="translate(-93.32184,16.87117)" />   <use xlink:href="#dot" transform="translate(-93.146656,17.105286)" />   <use xlink:href="#dot" transform="translate(-93.132,17.168)" />   <use xlink:href="#dot" transform="translate(-93.329,16.878)" />   <use xlink:href="#dot" transform="translate(-95.067,18.575)" />   <use xlink:href="#dot" transform="translate(-93.245234493287,16.948531065627)" />   <use xlink:href="#dot" transform="translate(-93.318056,16.869167)" />   <use xlink:href="#dot" transform="translate(-93.245,16.948)" />   <use xlink:href="#dot" transform="translate(-93.321,16.868)" />   <use xlink:href="#dot" transform="translate(-93.245234493287,16.948531065627)" />   <use xlink:href="#dot" transform="translate(-93.089131,16.80194)" />   <use xlink:href="#dot" transform="translate(-93.31306,16.86888)" />   <use xlink:href="#dot" transform="translate(-93.245234493287,16.948531065627)" />   <use xlink:href="#dot" transform="translate(-93.131898412594,17.168798630132)" />   <use xlink:href="#dot" transform="translate(-93.283333,16.85)" /><polygon class="region" points="-92.145,15.036 -95.946944,17.398333 -95.067,18.575 -95.05167,18.59167 -92.82756,17.19193 -92.7637,17.04259 -92.033194,15.075638 -92.13583,15.03889 -92.145,15.036 " />
		  </g>
		</svg>