<?xml version="1.0" encoding="UTF-8"?>
	<svg xmlns:xlink="http://www.w3.org/1999/xlink" 
	xmlns="http://www.w3.org/2000/svg" 
	width="360px" height="180px">
	   <style type="text/css">
		  <![CDATA[     
		  .region 
		  { 
			fill:blue; 
			opacity:0.4; 
			stroke:blue;
		  }
		  ]]>
	   </style>

	<circle id="dot" x="-2" y="-2" r="2" style="stroke:none; stroke-width:0; fill:black; opacity:0.7;"/>


	 <image x="0" y="0" width="360" height="180" xlink:href="map.jpg"/>

 
	 <g transform="translate(180,90) scale(1,-1)">   <use xlink:href="#dot" transform="translate(-93.740965,16.781939)" />   <use xlink:href="#dot" transform="translate(-92.238563,15.056457)" />   <use xlink:href="#dot" transform="translate(-92.870942,15.228564)" />   <use xlink:href="#dot" transform="translate(-92.238056,15.296389)" />   <use xlink:href="#dot" transform="translate(-92.846667,15.479167)" />   <use xlink:href="#dot" transform="translate(-92.253538680006,14.947521674116)" />   <use xlink:href="#dot" transform="translate(-92.254,14.947)" />   <use xlink:href="#dot" transform="translate(-92.253538680006,14.947521674116)" />   <use xlink:href="#dot" transform="translate(-92.254,14.947)" />   <use xlink:href="#dot" transform="translate(-92.254,14.947)" />   <use xlink:href="#dot" transform="translate(-92.253538680006,14.947521674116)" />   <use xlink:href="#dot" transform="translate(-92.253538680006,14.947521674116)" />   <use xlink:href="#dot" transform="translate(-92.254,14.947)" />   <use xlink:href="#dot" transform="translate(-92.253538680006,14.947521674116)" />   <use xlink:href="#dot" transform="translate(-92.253538680006,14.947521674116)" />   <use xlink:href="#dot" transform="translate(-92.253538680006,14.947521674116)" />   <use xlink:href="#dot" transform="translate(-92.254,14.947)" />   <use xlink:href="#dot" transform="translate(-92.254,14.947)" />   <use xlink:href="#dot" transform="translate(-92.253538680006,14.947521674116)" />   <use xlink:href="#dot" transform="translate(-92.254,14.947)" />   <use xlink:href="#dot" transform="translate(-92.254,14.947)" />   <use xlink:href="#dot" transform="translate(-92.253538680006,14.947521674116)" />   <use xlink:href="#dot" transform="translate(-92.253538680006,14.947521674116)" />   <use xlink:href="#dot" transform="translate(-92.254,14.947)" />   <use xlink:href="#dot" transform="translate(-92.254,14.947)" />   <use xlink:href="#dot" transform="translate(-92.253538680006,14.947521674116)" />   <use xlink:href="#dot" transform="translate(-92.253538680006,14.947521674116)" />   <use xlink:href="#dot" transform="translate(-92.254,14.947)" />   <use xlink:href="#dot" transform="translate(-92.254,14.947)" />   <use xlink:href="#dot" transform="translate(-92.249,15.035)" />   <use xlink:href="#dot" transform="translate(-92.248538793173,15.036128237164)" />   <use xlink:href="#dot" transform="translate(-92.03,14.9)" />   <use xlink:href="#dot" transform="translate(-92.653549207177,15.361110959237)" />   <use xlink:href="#dot" transform="translate(-92.654,15.36)" />   <use xlink:href="#dot" transform="translate(-92.248538719239,15.007795659282)" />   <use xlink:href="#dot" transform="translate(-92.249,15.007)" />   <use xlink:href="#dot" transform="translate(-92.247,15.01)" />   <use xlink:href="#dot" transform="translate(-92.247427701722,15.011129494655)" />   <use xlink:href="#dot" transform="translate(-92.247,14.989)" />   <use xlink:href="#dot" transform="translate(-92.262,15.048)" />   <use xlink:href="#dot" transform="translate(-92.261872140439,15.048627577071)" />   <use xlink:href="#dot" transform="translate(-92.236667,15.035833)" />   <use xlink:href="#dot" transform="translate(-92.259,14.919)" />   <use xlink:href="#dot" transform="translate(-92.247427645202,14.989463582461)" />   <use xlink:href="#dot" transform="translate(-92.264167,14.9375)" />   <use xlink:href="#dot" transform="translate(-92.232222,14.986944)" />   <use xlink:href="#dot" transform="translate(-92.247427674909,15.00085201063)" />   <use xlink:href="#dot" transform="translate(-92.247427701722,15.011129494655)" />   <use xlink:href="#dot" transform="translate(-92.247427624194,14.981408986948)" />   <use xlink:href="#dot" transform="translate(-92.244444,15.027778)" />   <use xlink:href="#dot" transform="translate(-92.288889,15.058333)" />   <use xlink:href="#dot" transform="translate(-92.253,14.964)" />   <use xlink:href="#dot" transform="translate(-92.238611,14.996389)" />   <use xlink:href="#dot" transform="translate(-92.252427697975,14.964464825669)" />   <use xlink:href="#dot" transform="translate(-92.247,15)" />   <use xlink:href="#dot" transform="translate(-92.247,15.01)" />   <use xlink:href="#dot" transform="translate(-92.247,14.981)" />   <use xlink:href="#dot" transform="translate(-92.259371745925,14.920023041614)" />   <use xlink:href="#dot" transform="translate(-92.243889,15.008611)" />   <use xlink:href="#dot" transform="translate(-92.247,15)" />   <use xlink:href="#dot" transform="translate(-92.254,14.947)" />   <use xlink:href="#dot" transform="translate(-92.253538680006,14.947521674116)" />   <use xlink:href="#dot" transform="translate(-92.247427674909,15.00085201063)" />   <use xlink:href="#dot" transform="translate(-92.354167,14.801389)" />   <use xlink:href="#dot" transform="translate(-92.620833,15.3625)" />   <use xlink:href="#dot" transform="translate(-92.288889,15.058333)" />   <use xlink:href="#dot" transform="translate(-92.784722,15.091389)" />   <use xlink:href="#dot" transform="translate(-92.969946665521,15.730813740941)" />   <use xlink:href="#dot" transform="translate(-92.918056,15.473611)" />   <use xlink:href="#dot" transform="translate(-92.839942766396,15.420829510567)" />   <use xlink:href="#dot" transform="translate(-92.134722,15.041667)" />   <use xlink:href="#dot" transform="translate(-93.272222,16.233333)" />   <use xlink:href="#dot" transform="translate(-93.206944,16.940278)" />   <use xlink:href="#dot" transform="translate(-92.654167,15.3625)" />   <use xlink:href="#dot" transform="translate(-92.654167,15.3625)" />   <use xlink:href="#dot" transform="translate(-92.654167,15.3625)" />   <use xlink:href="#dot" transform="translate(-92.654167,15.3625)" />   <use xlink:href="#dot" transform="translate(-92.620833,15.3625)" />   <use xlink:href="#dot" transform="translate(-92.620833,15.3625)" />   <use xlink:href="#dot" transform="translate(-92.620833,15.3625)" />   <use xlink:href="#dot" transform="translate(-92.620833,15.3625)" />   <use xlink:href="#dot" transform="translate(-92.620833,15.3625)" />   <use xlink:href="#dot" transform="translate(-92.620833,15.3625)" />   <use xlink:href="#dot" transform="translate(-92.620833,15.3625)" />   <use xlink:href="#dot" transform="translate(-92.620833,15.3625)" />   <use xlink:href="#dot" transform="translate(-92.620833,15.3625)" />   <use xlink:href="#dot" transform="translate(-92.620833,15.3625)" />   <use xlink:href="#dot" transform="translate(-92.620833,15.3625)" />   <use xlink:href="#dot" transform="translate(-92.620833,15.3625)" />   <use xlink:href="#dot" transform="translate(-92.620833,15.3625)" />   <use xlink:href="#dot" transform="translate(-92.620833,15.3625)" />   <use xlink:href="#dot" transform="translate(-92.620833,15.3625)" />   <use xlink:href="#dot" transform="translate(-92.620833,15.3625)" />   <use xlink:href="#dot" transform="translate(-92.620833,15.3625)" />   <use xlink:href="#dot" transform="translate(-92.620833,15.3625)" />   <use xlink:href="#dot" transform="translate(-93.425,15.858333)" />   <use xlink:href="#dot" transform="translate(-92.620833,15.3625)" />   <use xlink:href="#dot" transform="translate(-92.620833,15.3625)" />   <use xlink:href="#dot" transform="translate(-92.620833,15.3625)" />   <use xlink:href="#dot" transform="translate(-92.620833,15.3625)" />   <use xlink:href="#dot" transform="translate(-92.620833,15.3625)" />   <use xlink:href="#dot" transform="translate(-92.522222,15.440278)" />   <use xlink:href="#dot" transform="translate(-92.620833,15.3625)" />   <use xlink:href="#dot" transform="translate(-92.620833,15.3625)" />   <use xlink:href="#dot" transform="translate(-92.620833,15.3625)" />   <use xlink:href="#dot" transform="translate(-92.522222,15.440278)" />   <use xlink:href="#dot" transform="translate(-92.620833,15.3625)" />   <use xlink:href="#dot" transform="translate(-92.620833,15.3625)" />   <use xlink:href="#dot" transform="translate(-92.620833,15.3625)" />   <use xlink:href="#dot" transform="translate(-92.620833,15.3625)" />   <use xlink:href="#dot" transform="translate(-92.620833,15.3625)" />   <use xlink:href="#dot" transform="translate(-92.620833,15.3625)" />   <use xlink:href="#dot" transform="translate(-92.620833,15.3625)" />   <use xlink:href="#dot" transform="translate(-92.620833,15.3625)" />   <use xlink:href="#dot" transform="translate(-92.620833,15.3625)" />   <use xlink:href="#dot" transform="translate(-92.522222,15.440278)" />   <use xlink:href="#dot" transform="translate(-92.620833,15.3625)" />   <use xlink:href="#dot" transform="translate(-92.620833,15.3625)" />   <use xlink:href="#dot" transform="translate(-92.620833,15.3625)" />   <use xlink:href="#dot" transform="translate(-92.620833,15.3625)" />   <use xlink:href="#dot" transform="translate(-92.620833,15.3625)" />   <use xlink:href="#dot" transform="translate(-92.620833,15.3625)" />   <use xlink:href="#dot" transform="translate(-92.620833,15.3625)" />   <use xlink:href="#dot" transform="translate(-92.620833,15.3625)" />   <use xlink:href="#dot" transform="translate(-92.620833,15.3625)" />   <use xlink:href="#dot" transform="translate(-92.620833,15.3625)" />   <use xlink:href="#dot" transform="translate(-92.620833,15.3625)" />   <use xlink:href="#dot" transform="translate(-92.620833,15.3625)" />   <use xlink:href="#dot" transform="translate(-92.620833,15.3625)" />   <use xlink:href="#dot" transform="translate(-92.655556,15.390278)" />   <use xlink:href="#dot" transform="translate(-92.620833,15.3625)" />   <use xlink:href="#dot" transform="translate(-92.655556,15.390278)" />   <use xlink:href="#dot" transform="translate(-92.466667,15.133333)" />   <use xlink:href="#dot" transform="translate(-92.690278,15.347222)" />   <use xlink:href="#dot" transform="translate(-91.88992394489,16.800763675754)" />   <use xlink:href="#dot" transform="translate(-92.655556,15.390278)" />   <use xlink:href="#dot" transform="translate(-92.655556,15.390278)" />   <use xlink:href="#dot" transform="translate(-92.620833,15.3625)" />   <use xlink:href="#dot" transform="translate(-92.620833,15.3625)" />   <use xlink:href="#dot" transform="translate(-92.620833,15.3625)" />   <use xlink:href="#dot" transform="translate(-92.620833,15.3625)" />   <use xlink:href="#dot" transform="translate(-92.620833,15.3625)" />   <use xlink:href="#dot" transform="translate(-92.690278,15.347222)" />   <use xlink:href="#dot" transform="translate(-92.620833,15.3625)" />   <use xlink:href="#dot" transform="translate(-91.980556,17.508333)" />   <use xlink:href="#dot" transform="translate(-92.5875,15.3625)" />   <use xlink:href="#dot" transform="translate(-92.675,15.338889)" />   <use xlink:href="#dot" transform="translate(-92.620833,15.3625)" />   <use xlink:href="#dot" transform="translate(-92.620833,15.3625)" />   <use xlink:href="#dot" transform="translate(-92.620833,15.3625)" />   <use xlink:href="#dot" transform="translate(-92.620833,15.3625)" />   <use xlink:href="#dot" transform="translate(-92.620833,15.3625)" />   <use xlink:href="#dot" transform="translate(-92.620833,15.3625)" />   <use xlink:href="#dot" transform="translate(-92.475,15.425)" />   <use xlink:href="#dot" transform="translate(-92.6625,15.320833)" />   <use xlink:href="#dot" transform="translate(-92.675,15.338889)" />   <use xlink:href="#dot" transform="translate(-92.620833,15.3625)" />   <use xlink:href="#dot" transform="translate(-92.620833,15.3625)" />   <use xlink:href="#dot" transform="translate(-92.620833,15.3625)" />   <use xlink:href="#dot" transform="translate(-92.620833,15.3625)" />   <use xlink:href="#dot" transform="translate(-92.620833,15.3625)" />   <use xlink:href="#dot" transform="translate(-92.6625,15.320833)" />   <use xlink:href="#dot" transform="translate(-92.620833,15.3625)" />   <use xlink:href="#dot" transform="translate(-93.753333,16.0925)" />   <use xlink:href="#dot" transform="translate(-92.522222,15.440278)" />   <use xlink:href="#dot" transform="translate(-93.752778,16.091667)" />   <use xlink:href="#dot" transform="translate(-92.216628693577,15.667518766729)" />   <use xlink:href="#dot" transform="translate(-92.7375,15.444444)" />   <use xlink:href="#dot" transform="translate(-92.216628693577,15.667518766729)" />   <use xlink:href="#dot" transform="translate(-92.261,14.908)" />   <use xlink:href="#dot" transform="translate(-92.261,14.908)" />   <use xlink:href="#dot" transform="translate(-93.425,15.858333)" />   <use xlink:href="#dot" transform="translate(-92.441667,15.325)" />   <use xlink:href="#dot" transform="translate(-92.83778,15.17333)" />   <use xlink:href="#dot" transform="translate(-92.466600195795,15.134177780656)" />   <use xlink:href="#dot" transform="translate(-92.675,15.408333)" />   <use xlink:href="#dot" transform="translate(-92.475,15.141667)" />   <use xlink:href="#dot" transform="translate(-93.758333,16.091667)" />   <use xlink:href="#dot" transform="translate(-92.649938182966,15.384161816649)" />   <use xlink:href="#dot" transform="translate(-92.256,14.907)" />   <use xlink:href="#dot" transform="translate(-92.210556,15.668611)" />   <use xlink:href="#dot" transform="translate(-93.425,15.858333)" />   <use xlink:href="#dot" transform="translate(-92.658333,15.391667)" />   <use xlink:href="#dot" transform="translate(-92.654,15.362)" />   <use xlink:href="#dot" transform="translate(-92.658333,15.391667)" />   <use xlink:href="#dot" transform="translate(-93.425,15.858333)" />   <use xlink:href="#dot" transform="translate(-92.654108225518,15.363052860814)" />   <use xlink:href="#dot" transform="translate(-92.738,15.444)" />   <use xlink:href="#dot" transform="translate(-92.260483743197,14.908912597343)" />   <use xlink:href="#dot" transform="translate(-93.752778,16.091667)" />   <use xlink:href="#dot" transform="translate(-91.875,16.391667)" />   <use xlink:href="#dot" transform="translate(-92.256667,14.907778)" />   <use xlink:href="#dot" transform="translate(-92.211111,15.669444)" />   <use xlink:href="#dot" transform="translate(-91.875,16.391667)" />   <use xlink:href="#dot" transform="translate(-92.649938182966,15.384161816649)" />   <use xlink:href="#dot" transform="translate(-93.425,15.858333)" />   <use xlink:href="#dot" transform="translate(-92.675,15.325)" />   <use xlink:href="#dot" transform="translate(-92.741667,15.325)" />   <use xlink:href="#dot" transform="translate(-92.649938182966,15.384161816649)" />   <use xlink:href="#dot" transform="translate(-92.608333,15.358333)" />   <use xlink:href="#dot" transform="translate(-93.758333,16.091667)" />   <use xlink:href="#dot" transform="translate(-92.260483743197,14.908912597343)" />   <use xlink:href="#dot" transform="translate(-92.475,15.141667)" />   <use xlink:href="#dot" transform="translate(-91.291667,16.358333)" />   <use xlink:href="#dot" transform="translate(-92.675,15.325)" />   <use xlink:href="#dot" transform="translate(-92.441667,15.325)" /><polygon class="region" points="-92.784722,15.091389 -93.758333,16.091667 -93.740965,16.781939 -91.980556,17.508333 -91.291667,16.358333 -92.03,14.9 -92.354167,14.801389 -92.784722,15.091389 " />
		  </g>
		</svg>