<?xml version="1.0" encoding="UTF-8"?>
	<svg xmlns:xlink="http://www.w3.org/1999/xlink" 
	xmlns="http://www.w3.org/2000/svg" 
	width="360px" height="180px">
	   <style type="text/css">
		  <![CDATA[     
		  .region 
		  { 
			fill:blue; 
			opacity:0.4; 
			stroke:blue;
		  }
		  ]]>
	   </style>

	<circle id="dot" x="-2" y="-2" r="2" style="stroke:none; stroke-width:0; fill:black; opacity:0.7;"/>


	 <image x="0" y="0" width="360" height="180" xlink:href="map.jpg"/>

 
	 <g transform="translate(180,90) scale(1,-1)">   <use xlink:href="#dot" transform="translate(-88.21254,15.49776)" />   <use xlink:href="#dot" transform="translate(-88.21254,15.49776)" />   <use xlink:href="#dot" transform="translate(-88.21133,15.4963)" />   <use xlink:href="#dot" transform="translate(-88.21133,15.4963)" />   <use xlink:href="#dot" transform="translate(-88.21223,15.49537)" />   <use xlink:href="#dot" transform="translate(-88.21223,15.49537)" />   <use xlink:href="#dot" transform="translate(-88.21133,15.4963)" />   <use xlink:href="#dot" transform="translate(-88.1517,15.5)" />   <use xlink:href="#dot" transform="translate(-88.12,15.5)" />   <use xlink:href="#dot" transform="translate(-88.2167,15.5)" />   <use xlink:href="#dot" transform="translate(-88.2167,15.5)" />   <use xlink:href="#dot" transform="translate(-88.2167,15.5)" />   <use xlink:href="#dot" transform="translate(-88.2167,15.5)" />   <use xlink:href="#dot" transform="translate(-88.2167,15.5)" />   <use xlink:href="#dot" transform="translate(-88.214667,15.498667)" />   <use xlink:href="#dot" transform="translate(-88.226,15.494)" />   <use xlink:href="#dot" transform="translate(-88.233333,15.516667)" />   <use xlink:href="#dot" transform="translate(-88.2,15.52)" />   <use xlink:href="#dot" transform="translate(-88.2,15.516667)" />   <use xlink:href="#dot" transform="translate(-88.2,15.52)" />   <use xlink:href="#dot" transform="translate(-88.2,15.52)" />   <use xlink:href="#dot" transform="translate(-88.2,15.516667)" />   <use xlink:href="#dot" transform="translate(-88.2,15.52)" />   <use xlink:href="#dot" transform="translate(-88.2167,15.5)" /><polygon class="region" points="-88.226,15.494 -88.233333,15.516667 -88.2,15.52 -88.12,15.5 -88.226,15.494 " />
		  </g>
		</svg>