<?xml version="1.0" encoding="UTF-8"?>
	<svg xmlns:xlink="http://www.w3.org/1999/xlink" 
	xmlns="http://www.w3.org/2000/svg" 
	width="360px" height="180px">
	   <style type="text/css">
		  <![CDATA[     
		  .region 
		  { 
			fill:blue; 
			opacity:0.4; 
			stroke:blue;
		  }
		  ]]>
	   </style>

	<circle id="dot" x="-2" y="-2" r="2" style="stroke:none; stroke-width:0; fill:black; opacity:0.7;"/>


	 <image x="0" y="0" width="360" height="180" xlink:href="map.jpg"/>

 
	 <g transform="translate(180,90) scale(1,-1)">   <use xlink:href="#dot" transform="translate(11.750728,59.311121)" />   <use xlink:href="#dot" transform="translate(10.10576,59.195769)" />   <use xlink:href="#dot" transform="translate(11.748311,59.312835)" />   <use xlink:href="#dot" transform="translate(10.455968,59.637642)" />   <use xlink:href="#dot" transform="translate(-4.48536,55.84856)" />   <use xlink:href="#dot" transform="translate(11.756126,59.308347)" />   <use xlink:href="#dot" transform="translate(11.740433,59.314444)" />   <use xlink:href="#dot" transform="translate(18.792064,59.276089)" />   <use xlink:href="#dot" transform="translate(0.15752,52.21398)" />   <use xlink:href="#dot" transform="translate(18.130922,59.330472)" />   <use xlink:href="#dot" transform="translate(8.608223,44.366793)" />   <use xlink:href="#dot" transform="translate(8.206916,50.41098)" />   <use xlink:href="#dot" transform="translate(8.926907,49.711105)" />   <use xlink:href="#dot" transform="translate(6.898985,50.907417)" />   <use xlink:href="#dot" transform="translate(8.926907,49.711105)" />   <use xlink:href="#dot" transform="translate(8.897853,49.751377)" />   <use xlink:href="#dot" transform="translate(8.926907,49.711105)" />   <use xlink:href="#dot" transform="translate(8.582039,50.063026)" />   <use xlink:href="#dot" transform="translate(8.899799,49.72168)" />   <use xlink:href="#dot" transform="translate(10.918446,45.861677)" />   <use xlink:href="#dot" transform="translate(9.032591,49.704266)" />   <use xlink:href="#dot" transform="translate(8.725076,48.449413)" />   <use xlink:href="#dot" transform="translate(8.624015,50.073845)" />   <use xlink:href="#dot" transform="translate(6.150949,51.235321)" />   <use xlink:href="#dot" transform="translate(8.897853,49.751377)" />   <use xlink:href="#dot" transform="translate(3.550556,51.025278)" />   <use xlink:href="#dot" transform="translate(8.926907,49.711105)" />   <use xlink:href="#dot" transform="translate(12.594425,60.342386)" />   <use xlink:href="#dot" transform="translate(8.985529,50.41518)" />   <use xlink:href="#dot" transform="translate(8.825851,49.743694)" />   <use xlink:href="#dot" transform="translate(12.090866,57.342838)" />   <use xlink:href="#dot" transform="translate(8.280587,50.267151)" />   <use xlink:href="#dot" transform="translate(11.968493,45.840309)" />   <use xlink:href="#dot" transform="translate(9.102257,45.671195)" />   <use xlink:href="#dot" transform="translate(8.825777,49.743202)" />   <use xlink:href="#dot" transform="translate(6.276069,51.354797)" />   <use xlink:href="#dot" transform="translate(8.926907,49.711105)" />   <use xlink:href="#dot" transform="translate(-4.47953,53.3361)" />   <use xlink:href="#dot" transform="translate(8.897853,49.751377)" />   <use xlink:href="#dot" transform="translate(6.898985,50.907417)" />   <use xlink:href="#dot" transform="translate(6.150949,51.235321)" />   <use xlink:href="#dot" transform="translate(11.755902,59.31069)" />   <use xlink:href="#dot" transform="translate(-3.42872,53.35332)" />   <use xlink:href="#dot" transform="translate(10.781461,54.132862)" />   <use xlink:href="#dot" transform="translate(9.002974,49.719685)" />   <use xlink:href="#dot" transform="translate(8.203848,50.412128)" />   <use xlink:href="#dot" transform="translate(10.781461,54.132862)" />   <use xlink:href="#dot" transform="translate(8.459371,50.613541)" />   <use xlink:href="#dot" transform="translate(13.013369,41.343411)" />   <use xlink:href="#dot" transform="translate(9.296837,48.803528)" />   <use xlink:href="#dot" transform="translate(12.427201,41.9617)" />   <use xlink:href="#dot" transform="translate(8.204041,50.412235)" />   <use xlink:href="#dot" transform="translate(8.983383,48.778591)" />   <use xlink:href="#dot" transform="translate(8.926907,49.711105)" />   <use xlink:href="#dot" transform="translate(9.429673,53.59882)" />   <use xlink:href="#dot" transform="translate(8.242815,53.185337)" />   <use xlink:href="#dot" transform="translate(8.384371,48.977627)" />   <use xlink:href="#dot" transform="translate(7.936528,51.628513)" />   <use xlink:href="#dot" transform="translate(12.137506,57.644496)" />   <use xlink:href="#dot" transform="translate(7.6021,44.82099)" />   <use xlink:href="#dot" transform="translate(7.182151,51.208874)" />   <use xlink:href="#dot" transform="translate(8.384371,48.977627)" />   <use xlink:href="#dot" transform="translate(8.938429,49.735409)" />   <use xlink:href="#dot" transform="translate(8.926907,49.711105)" />   <use xlink:href="#dot" transform="translate(6.898985,50.907417)" />   <use xlink:href="#dot" transform="translate(8.938429,49.735409)" />   <use xlink:href="#dot" transform="translate(12.299436,43.103598)" />   <use xlink:href="#dot" transform="translate(12.137506,57.644496)" />   <use xlink:href="#dot" transform="translate(13.671317,55.924825)" />   <use xlink:href="#dot" transform="translate(9.026814,51.359135)" />   <use xlink:href="#dot" transform="translate(8.938429,49.735409)" />   <use xlink:href="#dot" transform="translate(10.781461,54.132862)" />   <use xlink:href="#dot" transform="translate(8.572931,49.602013)" />   <use xlink:href="#dot" transform="translate(9.802594,52.354794)" />   <use xlink:href="#dot" transform="translate(10.078648,52.543346)" />   <use xlink:href="#dot" transform="translate(9.799667,49.890438)" />   <use xlink:href="#dot" transform="translate(7.950153,51.616657)" />   <use xlink:href="#dot" transform="translate(8.237432,53.178417)" />   <use xlink:href="#dot" transform="translate(8.98586,51.274323)" />   <use xlink:href="#dot" transform="translate(9.281639,50.803242)" />   <use xlink:href="#dot" transform="translate(6.830106,50.979805)" />   <use xlink:href="#dot" transform="translate(8.825777,49.743202)" />   <use xlink:href="#dot" transform="translate(9.944072,53.582623)" />   <use xlink:href="#dot" transform="translate(10.762482,53.870342)" />   <use xlink:href="#dot" transform="translate(8.459371,50.613541)" />   <use xlink:href="#dot" transform="translate(8.926907,49.711105)" />   <use xlink:href="#dot" transform="translate(9.002974,49.719685)" />   <use xlink:href="#dot" transform="translate(8.938429,49.735409)" />   <use xlink:href="#dot" transform="translate(11.906388,51.192421)" />   <use xlink:href="#dot" transform="translate(12.750472,57.024432)" />   <use xlink:href="#dot" transform="translate(8.459371,50.613541)" />   <use xlink:href="#dot" transform="translate(11.474281,48.075481)" />   <use xlink:href="#dot" transform="translate(9.44958,51.902325)" />   <use xlink:href="#dot" transform="translate(10.195999,53.716011)" />   <use xlink:href="#dot" transform="translate(8.980894,50.398396)" />   <use xlink:href="#dot" transform="translate(8.825777,49.743202)" />   <use xlink:href="#dot" transform="translate(10.139008,53.705242)" />   <use xlink:href="#dot" transform="translate(7.950153,51.616657)" />   <use xlink:href="#dot" transform="translate(8.215714,49.604481)" />   <use xlink:href="#dot" transform="translate(7.950153,51.616657)" />   <use xlink:href="#dot" transform="translate(10.082424,52.550575)" />   <use xlink:href="#dot" transform="translate(8.848825,49.778515)" />   <use xlink:href="#dot" transform="translate(7.201894,50.57962)" />   <use xlink:href="#dot" transform="translate(7.866646,58.130066)" />   <use xlink:href="#dot" transform="translate(6.993348,51.221493)" />   <use xlink:href="#dot" transform="translate(12.639974,42.073253)" />   <use xlink:href="#dot" transform="translate(8.817932,44.695741)" />   <use xlink:href="#dot" transform="translate(7.758366,45.060272)" />   <use xlink:href="#dot" transform="translate(8.926907,49.711105)" />   <use xlink:href="#dot" transform="translate(9.144739,48.741348)" />   <use xlink:href="#dot" transform="translate(8.459371,50.613541)" />   <use xlink:href="#dot" transform="translate(9.032591,49.704266)" />   <use xlink:href="#dot" transform="translate(8.827766,49.744709)" />   <use xlink:href="#dot" transform="translate(12.382074,51.369114)" />   <use xlink:href="#dot" transform="translate(10.781461,54.132862)" />   <use xlink:href="#dot" transform="translate(9.154243,50.923424)" />   <use xlink:href="#dot" transform="translate(9.793054,52.08659)" />   <use xlink:href="#dot" transform="translate(9.957122,52.573563)" />   <use xlink:href="#dot" transform="translate(6.150949,51.235321)" />   <use xlink:href="#dot" transform="translate(10.359442,49.926998)" />   <use xlink:href="#dot" transform="translate(8.89987,49.804119)" />   <use xlink:href="#dot" transform="translate(12.391702,57.474388)" />   <use xlink:href="#dot" transform="translate(16.6072,56.669647)" />   <use xlink:href="#dot" transform="translate(14.188448,50.995842)" />   <use xlink:href="#dot" transform="translate(10.837844,45.892572)" />   <use xlink:href="#dot" transform="translate(8.737668,44.50445)" />   <use xlink:href="#dot" transform="translate(9.455279,48.829764)" />   <use xlink:href="#dot" transform="translate(8.564021,44.38669)" />   <use xlink:href="#dot" transform="translate(9.61132,54.348751)" />   <use xlink:href="#dot" transform="translate(9.417171,48.911896)" />   <use xlink:href="#dot" transform="translate(13.7899,51.123756)" />   <use xlink:href="#dot" transform="translate(9.002974,49.719685)" />   <use xlink:href="#dot" transform="translate(8.459371,50.613541)" />   <use xlink:href="#dot" transform="translate(6.898985,50.907417)" />   <use xlink:href="#dot" transform="translate(10.781461,54.132862)" />   <use xlink:href="#dot" transform="translate(11.71034,49.14032)" />   <use xlink:href="#dot" transform="translate(8.9221,49.815086)" />   <use xlink:href="#dot" transform="translate(10.726367,51.556789)" />   <use xlink:href="#dot" transform="translate(12.034415,57.762774)" />   <use xlink:href="#dot" transform="translate(8.847779,49.997303)" />   <use xlink:href="#dot" transform="translate(8.405095,49.01791)" />   <use xlink:href="#dot" transform="translate(8.908796,49.807541)" />   <use xlink:href="#dot" transform="translate(10.289898,50.955074)" />   <use xlink:href="#dot" transform="translate(7.986742,58.155304)" />   <use xlink:href="#dot" transform="translate(8.680931,50.071248)" />   <use xlink:href="#dot" transform="translate(10.224487,56.215931)" />   <use xlink:href="#dot" transform="translate(7.624165,49.37392)" />   <use xlink:href="#dot" transform="translate(10.781461,54.132862)" />   <use xlink:href="#dot" transform="translate(6.255362,51.360661)" />   <use xlink:href="#dot" transform="translate(8.980894,50.398396)" />   <use xlink:href="#dot" transform="translate(8.503332,50.585239)" />   <use xlink:href="#dot" transform="translate(8.827915,49.74469)" />   <use xlink:href="#dot" transform="translate(9.435711,51.150322)" />   <use xlink:href="#dot" transform="translate(10.088239,52.541336)" />   <use xlink:href="#dot" transform="translate(6.432838,50.861012)" />   <use xlink:href="#dot" transform="translate(17.961293,59.459138)" />   <use xlink:href="#dot" transform="translate(6.374373,59.662389)" />   <use xlink:href="#dot" transform="translate(10.144301,52.079315)" />   <use xlink:href="#dot" transform="translate(8.748194,44.512614)" />   <use xlink:href="#dot" transform="translate(9.029131,49.711361)" />   <use xlink:href="#dot" transform="translate(8.897909,49.751377)" />   <use xlink:href="#dot" transform="translate(9.893253,49.768459)" />   <use xlink:href="#dot" transform="translate(8.808922,48.818085)" />   <use xlink:href="#dot" transform="translate(6.898985,50.907417)" />   <use xlink:href="#dot" transform="translate(10.636479,47.56004)" />   <use xlink:href="#dot" transform="translate(8.926907,49.711105)" />   <use xlink:href="#dot" transform="translate(9.465859,48.941906)" />   <use xlink:href="#dot" transform="translate(12.739027,59.056885)" />   <use xlink:href="#dot" transform="translate(17.961293,59.459138)" />   <use xlink:href="#dot" transform="translate(9.281639,50.803242)" />   <use xlink:href="#dot" transform="translate(8.182991,50.413727)" />   <use xlink:href="#dot" transform="translate(7.942186,45.178552)" />   <use xlink:href="#dot" transform="translate(7.885906,45.510808)" />   <use xlink:href="#dot" transform="translate(7.899015,45.510033)" />   <use xlink:href="#dot" transform="translate(8.150643,45.532411)" />   <use xlink:href="#dot" transform="translate(8.808922,48.818085)" />   <use xlink:href="#dot" transform="translate(8.542793,50.171265)" />   <use xlink:href="#dot" transform="translate(10.414776,53.223129)" />   <use xlink:href="#dot" transform="translate(8.572931,49.602013)" />   <use xlink:href="#dot" transform="translate(9.895956,51.813457)" />   <use xlink:href="#dot" transform="translate(12.356402,51.146317)" />   <use xlink:href="#dot" transform="translate(9.997945,49.78384)" />   <use xlink:href="#dot" transform="translate(7.954241,58.100419)" />   <use xlink:href="#dot" transform="translate(8.812044,49.036716)" />   <use xlink:href="#dot" transform="translate(4.331883,50.929694)" />   <use xlink:href="#dot" transform="translate(8.755181,46.052986)" />   <use xlink:href="#dot" transform="translate(9.566737,55.865083)" />   <use xlink:href="#dot" transform="translate(8.569291,49.658344)" />   <use xlink:href="#dot" transform="translate(6.150949,51.235321)" />   <use xlink:href="#dot" transform="translate(11.540269,49.123966)" />   <use xlink:href="#dot" transform="translate(10.781461,54.132862)" />   <use xlink:href="#dot" transform="translate(9.439922,48.847702)" />   <use xlink:href="#dot" transform="translate(8.655902,54.285454)" />   <use xlink:href="#dot" transform="translate(9.895956,51.813457)" />   <use xlink:href="#dot" transform="translate(10.021859,51.72554)" />   <use xlink:href="#dot" transform="translate(10.781461,54.132862)" />   <use xlink:href="#dot" transform="translate(13.357203,55.69054)" />   <use xlink:href="#dot" transform="translate(13.36244,55.673949)" />   <use xlink:href="#dot" transform="translate(11.700676,49.186218)" />   <use xlink:href="#dot" transform="translate(10.822714,53.803261)" />   <use xlink:href="#dot" transform="translate(10.082809,52.55389)" />   <use xlink:href="#dot" transform="translate(4.328668,50.927588)" />   <use xlink:href="#dot" transform="translate(13.279856,52.551876)" />   <use xlink:href="#dot" transform="translate(8.459371,50.613541)" />   <use xlink:href="#dot" transform="translate(9.486523,53.570595)" />   <use xlink:href="#dot" transform="translate(10.050972,50.451328)" />   <use xlink:href="#dot" transform="translate(9.048443,51.060711)" />   <use xlink:href="#dot" transform="translate(8.694359,52.324089)" />   <use xlink:href="#dot" transform="translate(11.781037,57.965368)" />   <use xlink:href="#dot" transform="translate(15.623499,56.475587)" />   <use xlink:href="#dot" transform="translate(10.023084,47.754696)" />   <use xlink:href="#dot" transform="translate(8.220854,50.431629)" />   <use xlink:href="#dot" transform="translate(5.208881,60.625153)" />   <use xlink:href="#dot" transform="translate(8.67845,50.073515)" />   <use xlink:href="#dot" transform="translate(10.334294,52.474606)" />   <use xlink:href="#dot" transform="translate(13.671317,55.924825)" />   <use xlink:href="#dot" transform="translate(10.726367,51.556789)" />   <use xlink:href="#dot" transform="translate(7.254034,51.697247)" />   <use xlink:href="#dot" transform="translate(8.904634,49.751797)" />   <use xlink:href="#dot" transform="translate(10.431944,53.213779)" />   <use xlink:href="#dot" transform="translate(8.825777,49.743202)" />   <use xlink:href="#dot" transform="translate(7.515121,51.506981)" />   <use xlink:href="#dot" transform="translate(8.419781,52.154125)" />   <use xlink:href="#dot" transform="translate(8.459371,50.613541)" />   <use xlink:href="#dot" transform="translate(10.082809,52.55389)" />   <use xlink:href="#dot" transform="translate(9.611217,50.980659)" />   <use xlink:href="#dot" transform="translate(9.844558,53.864159)" />   <use xlink:href="#dot" transform="translate(10.002723,55.868907)" />   <use xlink:href="#dot" transform="translate(11.760414,49.166245)" />   <use xlink:href="#dot" transform="translate(7.790802,50.423801)" />   <use xlink:href="#dot" transform="translate(8.500472,55.925799)" />   <use xlink:href="#dot" transform="translate(8.572931,49.602013)" />   <use xlink:href="#dot" transform="translate(9.895956,51.813457)" />   <use xlink:href="#dot" transform="translate(9.728423,51.394783)" />   <use xlink:href="#dot" transform="translate(7.46521,51.415268)" />   <use xlink:href="#dot" transform="translate(8.825777,49.743202)" />   <use xlink:href="#dot" transform="translate(9.746566,51.406036)" />   <use xlink:href="#dot" transform="translate(8.552234,45.733684)" />   <use xlink:href="#dot" transform="translate(10.619677,59.806651)" />   <use xlink:href="#dot" transform="translate(8.876696,49.793621)" />   <use xlink:href="#dot" transform="translate(8.897799,49.751404)" />   <use xlink:href="#dot" transform="translate(10.343081,48.884884)" />   <use xlink:href="#dot" transform="translate(6.169864,51.241886)" />   <use xlink:href="#dot" transform="translate(10.781461,54.132862)" />   <use xlink:href="#dot" transform="translate(10.218454,54.3993)" />   <use xlink:href="#dot" transform="translate(13.362808,55.672333)" />   <use xlink:href="#dot" transform="translate(11.888224,58.266389)" />   <use xlink:href="#dot" transform="translate(10.434608,51.744251)" />   <use xlink:href="#dot" transform="translate(9.054623,51.359669)" />   <use xlink:href="#dot" transform="translate(9.724946,54.254204)" />   <use xlink:href="#dot" transform="translate(12.382074,51.369114)" />   <use xlink:href="#dot" transform="translate(8.897909,49.751377)" />   <use xlink:href="#dot" transform="translate(17.715137,58.974169)" />   <use xlink:href="#dot" transform="translate(5.97,49.46)" />   <use xlink:href="#dot" transform="translate(8.621178,49.326931)" />   <use xlink:href="#dot" transform="translate(8.825777,49.743202)" />   <use xlink:href="#dot" transform="translate(6.876926,50.98988)" />   <use xlink:href="#dot" transform="translate(8.956114,50.812092)" />   <use xlink:href="#dot" transform="translate(10.570226,52.261258)" />   <use xlink:href="#dot" transform="translate(10.932653,48.30213)" />   <use xlink:href="#dot" transform="translate(8.745536,45.70348)" />   <use xlink:href="#dot" transform="translate(9.387989,48.850258)" />   <use xlink:href="#dot" transform="translate(10.790042,53.865517)" />   <use xlink:href="#dot" transform="translate(8.82562,49.9897)" />   <use xlink:href="#dot" transform="translate(10.781461,54.132862)" />   <use xlink:href="#dot" transform="translate(6.094703,50.940399)" />   <use xlink:href="#dot" transform="translate(9.36842,48.904842)" />   <use xlink:href="#dot" transform="translate(10.253139,50.008057)" />   <use xlink:href="#dot" transform="translate(9.252291,51.108589)" />   <use xlink:href="#dot" transform="translate(8.459371,50.613541)" />   <use xlink:href="#dot" transform="translate(8.180952,49.417229)" />   <use xlink:href="#dot" transform="translate(8.851887,50.028641)" />   <use xlink:href="#dot" transform="translate(9.894347,49.768265)" />   <use xlink:href="#dot" transform="translate(6.06,49.72)" />   <use xlink:href="#dot" transform="translate(8.527586,47.422669)" />   <use xlink:href="#dot" transform="translate(10.773801,52.211273)" />   <use xlink:href="#dot" transform="translate(7.677529,49.405067)" />   <use xlink:href="#dot" transform="translate(6.271219,51.356842)" />   <use xlink:href="#dot" transform="translate(9.486523,53.570595)" />   <use xlink:href="#dot" transform="translate(8.98922,51.0415)" />   <use xlink:href="#dot" transform="translate(8.459371,50.613541)" />   <use xlink:href="#dot" transform="translate(10.781461,54.132862)" />   <use xlink:href="#dot" transform="translate(11.510839,48.035969)" />   <use xlink:href="#dot" transform="translate(10.130424,53.732975)" />   <use xlink:href="#dot" transform="translate(6.407003,51.276306)" />   <use xlink:href="#dot" transform="translate(8.384371,48.977627)" />   <use xlink:href="#dot" transform="translate(9.499695,52.502998)" />   <use xlink:href="#dot" transform="translate(16.74691,48.008938)" />   <use xlink:href="#dot" transform="translate(11.964032,57.839678)" />   <use xlink:href="#dot" transform="translate(6.06,49.72)" />   <use xlink:href="#dot" transform="translate(8.459371,50.613541)" />   <use xlink:href="#dot" transform="translate(7.078698,57.995551)" />   <use xlink:href="#dot" transform="translate(9.451751,48.834086)" />   <use xlink:href="#dot" transform="translate(8.614807,45.053678)" />   <use xlink:href="#dot" transform="translate(7.67348,44.907185)" />   <use xlink:href="#dot" transform="translate(7.78779,44.911933)" />   <use xlink:href="#dot" transform="translate(16.775948,56.961276)" />   <use xlink:href="#dot" transform="translate(15.880211,56.765765)" />   <use xlink:href="#dot" transform="translate(13.671317,55.924825)" />   <use xlink:href="#dot" transform="translate(8.980465,50.39703)" /><polygon class="region" points="-4.47953,53.3361 -4.48536,55.84856 5.208881,60.625153 12.594425,60.342386 17.961293,59.459138 18.792064,59.276089 16.74691,48.008938 13.013369,41.343411 7.6021,44.82099 -4.47953,53.3361 " />
		  </g>
		</svg>