<?xml version="1.0" encoding="UTF-8"?>
	<svg xmlns:xlink="http://www.w3.org/1999/xlink" 
	xmlns="http://www.w3.org/2000/svg" 
	width="360px" height="180px">
	   <style type="text/css">
		  <![CDATA[     
		  .region 
		  { 
			fill:blue; 
			opacity:0.4; 
			stroke:blue;
		  }
		  ]]>
	   </style>

	<circle id="dot" x="-2" y="-2" r="2" style="stroke:none; stroke-width:0; fill:black; opacity:0.7;"/>


	 <image x="0" y="0" width="360" height="180" xlink:href="map.jpg"/>

 
	 <g transform="translate(180,90) scale(1,-1)"><polygon class="region" points="-8.8463,39.029535593 -8.895,39.035535593 -8.9338,39.015635593 -9.0681,38.838335593 -9.1198,38.709035593 -9.4839,38.707635593 -9.4071,39.355235593 -9.07,39.582535593 -8.6087,40.727135593 -8.6562,40.858435593 -8.7224,40.667435593 -8.7514,40.646235593 -8.6431,41.145135593 -8.8938,42.108435593 -8.6062,42.288035593 -8.6074,42.347035593 -8.8646,42.254335593 -8.6602,42.419835593 -8.9353,42.462735593 -8.7406,42.651035593 -9.0357,42.521135593 -8.8758,42.822935593 -9.0844,42.739235593 -9.1708,42.943235593 -9.2654,42.882335593 -9.2049,43.157735593 -8.8366,43.345635593 -8.2997,43.403835593 -8.2052,43.282435593 -8.1664,43.414435593 -8.3071,43.443135593 -8.2027,43.458435593 -8.1578,43.505435593 -8.3306,43.456935593 -8.3171,43.566035593 -7.6768,43.791735593 -7.0494,43.481235593 -6.2358,43.598535593 -6.1021,43.485335593 -5.8444,43.661135593 -4.5085,43.383135593 -3.5872,43.513935593 -2.9783,43.310435593 -2.7501,43.453835593 -2.3496,43.301635593 -1.7891,43.356635593 -1.425,43.661435593 -1.2539,44.551135593 -1.0201,44.655335593 -1.1644,44.773335593 -1.2632,44.628435593 -1.1328,45.515435593 -1.061,45.567835593 -0.6775,45.077435593 -0.5586,45.035435593 -0.8241,45.489635593 -1.2346,45.688835593 -1.044,45.736435593 -1.1617,45.854235593 -0.9956,45.927335593 -1.2385,46.164635593 -1.1179,46.294535593 -1.8046,46.487035593 -2.1391,46.817035593 -1.9844,47.032435593 -2.2432,47.134535593 -2.009,47.316135593 -2.4915,47.269835593 -2.4778,47.512735593 -2.9102,47.540435593 -2.7331,47.540635593 -2.6566,47.609835593 -2.706,47.638435593 -2.9738,47.656635593 -3.1096,47.470035593 -3.1365,47.739335593 -3.2158,47.641035593 -3.3546,47.682935593 -3.2816,47.686335593 -3.2869,47.785035593 -3.8514,47.784435593 -4.1016,47.970535593 -4.1768,47.794835593 -4.3661,47.789635593 -4.4323,47.966835593 -4.7386,48.042135593 -4.2941,48.105535593 -4.5577,48.170635593 -4.6328,48.284435593 -4.5561,48.343035593 -4.5189,48.284535593 -4.1894,48.300035593 -4.4617,48.330435593 -4.2857,48.440635593 -4.7747,48.333435593 -4.7843,48.357335593 -4.7651,48.381435593 -4.7969,48.417335593 -4.7537,48.547135593 -4.0126,48.728835593 -3.6014,48.672435593 -3.5438,48.828235593 -3.0781,48.887435593 -2.6922,48.498035593 -2.3253,48.691235593 -2.2271,48.563935593 -1.8472,48.715635593 -1.3595,48.637835593 -1.5723,48.751235593 -1.5476,49.224835593 -1.8146,49.386735593 -1.9397,49.733535593 -1.2685,49.704235593 -1.1422,49.318535593 -0.2284,49.269335593 0.1311,49.404235593 0.3435,49.432335593 0.4814,49.476235593 0.069,49.517135593 0.2107,49.717435593 1.6714,50.186535593 1.5431,50.281635593 1.583,50.872535593 3.5115,51.410035593 4.239,51.352235593 3.4367,51.536835593 3.8402,51.606035593 4.2976,51.455535593 3.9883,51.589935593 4.3368,51.643035593 4.4031,51.693535593 3.8698,51.772535593 3.9799,51.844535593 4.3412,51.705135593 4.5003,51.684335593 4.6405,51.711435593 4.0598,51.840935593 4.0145,51.964035593 4.5845,52.461635593 5.4245,52.248735593 5.5337,52.267335593 5.8141,52.428335593 5.8782,52.509535593 5.8551,52.607735593 5.5919,52.665535593 5.7171,52.840135593 5.3613,52.887135593 5.4322,53.207135593 5.6149,53.313435593 6.8149,53.467135593 6.9033,53.353535593 7.2146,53.238435593 7.2658,53.331035593 7.0026,53.362235593 7.103,53.592435593 7.8667,53.717935593 8.0352,53.704435593 8.2056,53.406035593 8.2766,53.612735593 8.5569,53.542635593 8.4881,53.479635593 8.4984,53.363835593 8.5762,53.538935593 8.4854,53.683135593 8.6653,53.893435593 9.2816,53.857935593 9.5719,53.600035593 9.8291,53.534335593 9.3319,53.858735593 8.9196,53.929935593 8.8462,54.036335593 9.0215,54.089735593 8.8114,54.177035593 8.9645,54.314735593 8.5785,54.307035593 9.0495,54.476535593 8.8127,54.474635593 8.9739,54.539535593 8.7268,54.724835593 8.7116,54.677335593 8.6507,54.644035593 8.5345,54.630335593 8.7128,54.696735593 8.6124,54.884535593 8.4145,54.850135593 8.3422,54.882035593 8.2821,54.747435593 8.3005,54.920935593 8.4022,55.053935593 8.3729,54.899235593 8.645,54.896235593 8.6776,55.334735593 8.3075,55.594335593 8.3137,55.468335593 8.0773,55.561735593 8.1225,55.999135593 8.1819,55.838535593 8.3827,55.904535593 8.2224,56.101435593 8.1225,55.999135593 8.1268,56.546135593 8.1718,56.658535593 8.2279,56.703735593 8.3062,56.549635593 8.5555,56.555135593 8.2273,56.757935593 8.5897,57.104435593 9.3969,57.155035593 9.9536,57.589035593 10.6614,57.740035593 10.4359,57.593635593 10.5599,57.224335593 10.2927,56.951935593 10.3371,56.711035593 10.1898,56.701035593 10.9621,56.433835593 10.7042,56.134635593 10.3523,56.190535593 10.4588,56.290035593 10.2568,56.181235593 10.1972,55.840935593 9.8578,55.855235593 10.0517,55.829435593 10.0346,55.700135593 9.5445,55.707835593 9.8618,55.628035593 9.5018,55.495835593 9.6953,55.461635593 9.5158,55.252435593 9.7168,55.239035593 9.4281,55.027335593 9.7822,54.910935593 9.7443,54.840435593 9.6307,54.936335593 9.4233,54.832335593 9.96,54.782135593 10.0288,54.552935593 9.842,54.472435593 10.1992,54.456935593 10.1318,54.316335593 10.3069,54.436335593 10.7107,54.306435593 11.1357,54.390335593 11.0951,54.195435593 10.7589,54.053235593 10.8897,53.979335593 10.776,53.890935593 11.1785,54.014135593 11.4614,53.900135593 11.6912,54.153835593 12.0868,54.183935593 12.0899,54.111435593 12.1235,54.092135593 12.1531,54.094335593 12.0966,54.178035593 12.5283,54.485335593 12.9284,54.429235593 12.6966,54.433235593 12.4381,54.380435593 12.3665,54.268235593 13.0279,54.439235593 13.1065,54.284135593 13.4603,54.088135593 13.4965,54.125435593 13.7243,54.163735593 13.7466,54.028035593 13.9165,53.919935593 13.8242,53.872935593 13.8227,53.840635593 14.5809,53.582235593 14.5382,53.702335593 14.7609,53.926735593 14.8017,54.032135593 14.7312,54.024635593 16.1564,54.286535593 17.279,54.740535593 18.3319,54.836035593 18.7316,54.683635593 18.8295,54.611535593 18.4184,54.776035593 18.5842,54.432935593 18.9404,54.341735593 19.5151,54.409635593 19.893,54.628835593 19.6097,54.423835593 19.2319,54.339435593 19.3731,54.223135593 20.411,54.681635593 19.9046,54.634435593 19.9724,54.954835593 21.2157,54.923935593 21.3221,55.298835593 21.0656,55.796435593 21.004,56.559435593 21.0662,56.833335593 21.4097,57.036435593 21.4196,57.274835593 21.6954,57.561035593 22.609,57.761835593 22.599,57.621835593 23.1381,57.362635593 23.2643,57.092235593 23.6364,56.966135593 24.4091,57.254135593 24.3365,57.828135593 24.5765,58.333035593 24.3051,58.378235593 24.1188,58.232935593 23.7362,58.351635593 23.5026,58.572735593 23.5292,58.740635593 23.7628,58.762635593 23.463,58.773935593 23.4379,58.941735593 23.666,58.976435593 23.4183,59.026935593 23.5156,59.230735593 24.8013,59.447735593 24.8005,59.566735593 25.4372,59.491835593 25.6979,59.676435593 27.9096,59.403635593 28.089,59.533135593 28.1105,59.795435593 28.3783,59.660335593 28.486,59.834435593 28.8454,59.782135593 29.2269,59.995235593 30.2053,59.874135593 30.2402,59.984035593 29.8741,60.164035593 29.1446,60.161935593 28.6205,60.353735593 28.4477,60.547335593 28.7184,60.440235593 28.5548,60.601735593 28.7078,60.593235593 28.7125,60.772535593 28.2409,60.511835593 26.4502,60.493335593 26.5319,60.345135593 26.0725,60.436335593 26.1179,60.323235593 25.7905,60.237235593 25.677,60.381235593 24.847,60.211335593 24.4169,59.962835593 24.4833,60.061635593 24.313,60.087435593 23.3949,59.923235593 23.4863,59.999535593 23.47,60.024835593 23.2487,59.843835593 22.9236,59.808935593 23.233,60.033135593 23.0342,59.909435593 22.8855,59.923835593 22.8193,59.980435593 22.8198,60.020335593 22.9845,59.970435593 23.2641,60.062835593 22.8753,60.164035593 23.0405,60.325735593 22.9826,60.331835593 22.5365,60.212235593 22.6494,60.408135593 21.9009,60.556135593 21.8963,60.482035593 21.8314,60.501835593 21.7465,60.481935593 21.83,60.542335593 21.8557,60.650535593 21.5851,60.493735593 21.5766,60.565635593 21.4302,60.604235593 21.4475,60.787935593 21.2172,60.907535593 21.4457,60.910835593 21.3019,61.081835593 21.6175,61.227435593 21.4536,61.505335593 21.6346,61.506935593 21.4938,61.583135593 21.7237,61.551435593 21.2841,61.993735593 21.453,62.213635593 21.1124,62.485035593 21.233,62.606235593 21.0817,62.623935593 21.4733,63.056735593 21.6923,63.051335593 21.5451,63.264835593 22.0028,63.157735593 22.3667,63.285535593 22.2025,63.453735593 22.4054,63.437235593 22.2969,63.498835593 22.3246,63.572435593 22.4125,63.472035593 22.6141,63.722535593 22.8118,63.646435593 22.9368,63.714435593 22.878,63.801935593 22.6998,63.839035593 23.0098,63.779235593 23.0722,63.915235593 23.4231,63.940135593 23.4074,64.079735593 23.6202,64.045035593 24.5445,64.816735593 25.3303,64.830335593 25.2021,65.010035593 25.4908,64.969035593 25.2278,65.126535593 25.355,65.453635593 25.0502,65.622035593 24.2313,65.825135593 23.4714,65.847435593 23.4102,65.762835593 23.068,65.882535593 23.2339,65.774335593 23.129,65.755135593 23.1007,65.699935593 22.6355,65.913935593 22.692,65.757435593 22.3437,65.873635593 22.3535,65.742135593 22.1995,65.761035593 22.1472,65.612935593 22.304,65.662835593 22.4024,65.538535593 22.0206,65.597935593 21.7447,65.756735593 21.8235,65.671235593 22.1507,65.545335593 22.1897,65.550635593 22.0811,65.529135593 22.0717,65.505135593 21.8571,65.547935593 21.8234,65.531935593 21.9992,65.410535593 21.546,65.428335593 21.6434,65.345335593 21.5015,65.403335593 21.4252,65.360335593 21.7459,65.193235593 21.309,65.376935593 21.2401,65.334335593 21.5926,65.138835593 21.0046,64.846635593 21.6149,64.438135593 21.0752,64.228635593 20.6757,63.794835593 20.5048,63.837835593 20.4052,63.672935593 20.3194,63.785435593 20.3267,63.663735593 20.0302,63.669135593 19.6697,63.434135593 19.4475,63.573735593 19.5213,63.489735593 19.2747,63.463635593 19.0448,63.194435593 18.889,63.298235593 18.7256,63.291135593 18.9078,63.233935593 18.2151,63.014335593 18.4904,63.003435593 18.5594,62.964135593 18.1299,62.769135593 17.9617,62.799535593 17.7769,63.110035593 17.6961,63.151735593 17.609,63.172635593 17.9998,62.663335593 17.723,62.433635593 17.3408,62.475835593 17.3958,62.306935593 17.6693,62.232735593 17.5162,62.228035593 17.3119,61.856635593 17.4923,61.618835593 17.1248,61.722235593 17.2482,61.604435593 17.0498,61.575235593 17.2268,61.548735593 17.057,61.547435593 17.2821,61.281735593 17.1198,61.307535593 17.2478,61.010035593 17.0848,60.900635593 17.3587,60.757335593 17.1543,60.684235593 17.6183,60.647235593 17.7416,60.496535593 18.0189,60.590735593 18.2363,60.336835593 18.6123,60.250635593 18.3153,60.310435593 18.5921,60.050635593 18.7356,60.122735593 18.7637,60.108935593 18.7731,60.034235593 18.817,59.980335593 18.8227,60.118635593 19.092,59.880435593 18.85,59.947035593 18.953,59.851735593 18.7302,59.757135593 19.0944,59.755435593 18.2385,59.437135593 18.3366,59.385435593 17.9677,59.437835593 18.4757,59.170435593 18.1986,59.108935593 18.0504,59.025635593 18.0185,59.046935593 17.9039,58.851835593 17.6764,59.178235593 17.5144,58.779935593 17.0968,58.773335593 17.1448,58.664735593 16.9393,58.610535593 16.3581,58.663635593 16.1993,58.636235593 16.956,58.480935593 16.3176,58.492335593 16.8011,58.361335593 16.6372,58.346435593 16.8319,58.306935593 16.7055,58.262835593 16.8374,58.129035593 16.6201,58.201535593 16.8101,57.871435593 16.4817,57.891435593 16.5402,57.874435593 16.6589,57.763135593 16.4184,57.925835593 16.742,57.700635593 16.5405,57.728735593 16.6646,57.608235593 16.5815,57.650735593 16.5208,57.563535593 16.7153,57.488635593 16.4717,57.260535593 16.5859,57.045935593 15.8596,56.071035593 15.8356,56.164335593 15.5994,56.203535593 14.6972,56.159035593 14.7665,56.008435593 14.5469,56.056535593 14.2401,55.857735593 14.3627,55.554135593 14.1876,55.380235593 12.8141,55.379135593 13.0673,55.673035593 12.4485,56.293635593 12.7993,56.223035593 12.6197,56.417835593 12.8778,56.428635593 12.9353,56.582935593 12.3634,56.917435593 12.1231,57.429935593 11.9547,57.359035593 11.932,57.623635593 11.714,57.718035593 11.9203,58.352035593 11.5247,58.247935593 11.7178,58.433235593 11.5832,58.478535593 11.4717,58.274635593 11.4769,58.399935593 11.3625,58.343335593 11.4635,58.455135593 11.244,58.353635593 11.3509,58.484935593 11.1189,58.970035593 11.2268,59.134435593 10.8308,59.152635593 10.5922,59.429635593 10.6958,59.526035593 10.5885,59.762935593 10.6663,59.871435593 10.7466,59.711535593 10.7608,59.908335593 10.4839,59.838035593 10.6317,59.595235593 10.5142,59.516335593 10.4376,59.682735593 10.2882,59.752335593 10.2165,59.741435593 10.5291,59.309435593 10.3126,59.059835593 9.8486,58.959535593 9.7939,59.091235593 9.5179,59.128435593 9.7222,59.033435593 9.7531,58.991035593 9.0715,58.755835593 9.2464,58.724135593 8.2426,58.120635593 8.0664,58.114435593 8.1584,58.252135593 7.667,58.013335593 7.058,57.977935593 7.1441,58.068835593 6.8229,58.093335593 7.0503,58.137135593 6.8778,58.195435593 6.6315,58.066935593 6.9149,58.281135593 6.0502,58.373735593 5.4889,58.752835593 5.5809,59.037335593 5.7442,58.855635593 5.8896,58.972635593 6.1756,58.836235593 6.2877,58.843035593 6.1491,58.957235593 6.6535,59.057235593 6.2671,59.013035593 6.1112,58.947035593 6.0762,58.907835593 5.8881,59.071935593 6.2437,59.267635593 7.5376,58.736535593 8.3563,58.900235593 11.1401,60.537735593 12.436,60.701535593 13.0089,60.983135593 14.7639,62.491735593 15.8107,64.954835593 17.9659,66.863635593 19.7516,67.818135593 20.4923,67.776235593 22.9301,68.397735593 23.6669,67.824635593 28.0063,68.643335593 29.3982,69.134635593 30.3807,67.824635593 30.3807,67.415235593 29.6438,66.924035593 29.9131,66.609835593 31.2661,66.639635593 31.0038,67.581635593 31.3476,67.885835593 31.7575,67.740335593 32.357,67.154035593 31.8541,67.129135593 32.2273,67.112035593 32.4704,67.026335593 32.5442,66.910235593 32.4081,66.876235593 33.1783,66.536635593 32.8684,66.525135593 33.585,66.328735593 33.3439,66.311535593 33.0102,66.253935593 33.5966,66.305635593 34.8036,65.882235593 34.6164,65.772835593 34.7418,65.629935593 34.6651,65.461035593 34.281,65.371035593 34.9077,64.822935593 34.7366,64.743035593 34.9705,64.612435593 34.7816,64.512735593 35.333,64.297235593 35.6804,64.363335593 36.2875,63.979735593 37.3956,63.787035593 38.0071,63.942735593 37.9341,64.166335593 40.5995,64.590235593 59.1371,62.669835593 72.9807,64.506335593 87.4829,63.518335593 89.2814,62.479835593 89.5094,62.023835593 90.5226,61.631235593 89.9147,61.301935593 90.3327,60.554635593 92.3212,58.857435593 99.8319,58.616735593 108.5079,56.070935593 100.0725,56.045635593 96.0575,58.046835593 92.3718,55.729035593 91.1559,55.425035593 88.3948,52.423235593 85.9757,51.916635593 87.7109,49.142835593 86.8749,49.092235593 86.7736,48.724935593 86.5076,48.509535593 85.7983,48.446235593 85.6186,48.128635593 85.6457,47.451735593 84.6438,47.262135593 83.1545,47.532935593 81.4216,50.240735593 80.2255,50.447435593 74.2346,52.853935593 71.0935,55.678335593 65.0393,55.070435593 60.3657,55.589635593 54.9955,51.840635593 56.8573,50.346135593 55.8821,50.814735593 54.7042,51.042735593 53.7036,51.600035593 46.6741,52.676535593 41.4306,52.701935593 39.8347,51.245335593 36.0356,50.599635593 36.6936,49.852135593 37.2762,48.788235593 35.275,47.888935593 35.237,47.648335593 33.9198,47.521635593 33.9452,47.306335593 33.5525,46.875735593 32.172,46.571735593 31.8047,47.192335593 31.8553,46.635035593 31.5133,46.647735593 31.5488,46.774435593 31.6001,46.804035593 31.5986,46.840035593 31.4172,46.813535593 31.4378,46.659135593 30.7512,46.540035593 30.5508,46.166435593 29.8687,45.663035593 29.6389,45.831735593 29.6077,45.481835593 29.7681,45.333635593 29.5969,44.849735593 28.997,44.673535593 27.4647,44.657335593 27.1769,44.081835593 27.2089,42.770935593 27.4727,42.434235593 27.7364,42.412235593 28.224,41.532035593 29.1127,41.244835593 28.9924,41.015635593 27.5214,40.982735593 27.3181,40.711135593 26.7097,40.461935593 26.1953,40.044635593 26.2191,40.324535593 26.8201,40.653635593 26.1193,40.604135593 25.9524,40.850635593 25.1413,41.011735593 24.8097,40.854035593 24.4335,40.946235593 23.7036,40.699035593 23.9219,40.546235593 23.8857,40.409935593 24.0218,40.457735593 24.4049,40.145435593 23.7421,40.360035593 24.0033,40.114135593 23.9362,39.939135593 23.663,40.231435593 23.3469,40.232335593 23.7106,39.909535593 23.3602,39.957035593 23.3195,40.231535593 22.9005,40.382335593 22.9544,40.637635593 22.6471,40.551135593 22.5979,40.023235593 23.3532,39.189635593 23.2054,39.100135593 23.0602,39.096035593 23.2203,39.192335593 22.9388,39.361635593 22.8228,39.222235593 23.0583,39.020735593 22.5245,38.860435593 23.3146,38.644935593 23.3339,38.502735593 24.0831,38.170435593 24.0301,37.652235593 23.5308,38.047235593 22.9969,37.881935593 23.5184,37.432135593 23.1699,37.288635593 23.1229,37.451435593 22.7213,37.561735593 23.1977,36.438235593 22.6278,36.808835593 22.4831,36.387935593 22.1197,37.031235593 21.9327,36.984435593 21.8838,36.721235593 21.7058,36.819735593 21.5727,37.067435593 21.6529,37.436535593 21.1063,37.853335593 21.3713,38.215635593 21.6093,38.146435593 21.9503,38.332135593 22.8776,37.938935593 23.2275,38.154735593 22.6595,38.385335593 22.5538,38.286735593 22.4178,38.442435593 21.4908,38.301035593 21.3183,38.497235593 21.3366,38.385835593 21.2371,38.321535593 21.1411,38.305635593 21.1011,38.552235593 20.7326,38.855435593 20.7712,38.957035593 21.1736,38.869035593 21.1184,39.041235593 20.7307,38.952535593 19.9844,39.689935593 19.8726,40.041035593 19.4821,40.219935593 19.3032,40.427335593 19.4934,40.352535593 19.3216,40.655735593 19.3951,40.910535593 19.4228,40.917135593 19.4304,40.936435593 19.4609,40.946435593 19.4432,40.878535593 19.5361,40.912835593 19.4013,41.414435593 19.6172,41.617035593 19.6012,41.813835593 19.1769,41.937035593 18.5454,42.418135593 18.706,42.394635593 18.7584,42.490335593 18.5123,42.458335593 18.5227,42.394435593 17.8927,42.788235593 17.0036,43.007835593 17.2789,43.006435593 17.4747,42.911135593 17.6899,42.855535593 17.7144,42.877235593 16.885,43.399635593 15.9609,43.502535593 15.9559,43.686535593 15.8448,43.776035593 15.9991,43.804735593 15.9791,43.905235593 15.8281,43.843735593 15.8489,43.724635593 15.2233,44.111835593 15.1085,44.262835593 15.2917,44.245735593 15.3029,44.285935593 15.2588,44.319935593 15.2721,44.332635593 15.6266,44.146135593 14.9873,44.576835593 14.8447,45.113135593 14.5435,45.303535593 14.3242,45.350635593 13.9051,44.770035593 13.4932,45.486035593 13.8083,45.614035593 13.5467,45.797235593 13.5514,45.724235593 13.3977,45.675235593 13.1326,45.770935593 13.0992,45.633935593 12.1462,45.385535593 12.3596,45.006335593 12.5424,44.961735593 12.2429,44.722635593 12.3878,44.227035593 13.6271,43.551835593 13.9515,42.724335593 14.7287,42.093735593 15.5071,41.909135593 15.3053,41.882135593 15.3463,41.865135593 16.1486,41.911135593 16.1932,41.777135593 15.8972,41.619035593 15.9564,41.462935593 18.0164,40.640935593 18.5134,40.130335593 18.1701,39.850135593 17.8539,40.281935593 17.1296,40.519235593 16.8979,40.434235593 16.4881,39.778735593 17.1583,39.400635593 17.2137,39.025835593 16.6173,38.813835593 16.5764,38.424135593 16.0662,37.923335593 15.638,38.016735593 15.6378,38.230535593 15.9201,38.505135593 15.8476,38.655235593 16.2241,38.855535593 15.6627,40.039135593 15.3324,40.000035593 14.9016,40.246035593 14.9881,40.412935593 14.7919,40.663735593 14.3243,40.576435593 14.4565,40.743835593 14.0299,40.792635593 13.7105,41.250435593 13.0479,41.225435593 11.646,42.287935593 11.0998,42.393135593 11.1954,42.504435593 11.0859,42.638635593 10.7468,42.928735593 10.4932,42.938335593 10.5197,43.269035593 10.1879,43.941235593 8.8276,44.427935593 8.5,44.327735593 8.074,43.894135593 7.2435,43.702435593 6.7316,43.416035593 6.6436,43.175735593 6.1506,43.030035593 5.3537,43.214435593 5.3092,43.367635593 4.8444,43.341335593 4.8294,43.379235593 4.7407,43.428835593 4.7501,43.473435593 4.7347,43.521735593 4.7119,43.558435593 4.6801,43.581035593 4.7271,43.441435593 4.8323,43.339035593 4.0711,43.567735593 3.2255,43.211935593 2.9915,42.962235593 3.0398,42.556735593 3.3146,42.328335593 3.2571,42.245635593 3.1518,42.270235593 3.0395,42.173935593 3.1995,41.898035593 2.1186,41.297335593 0.9925,41.045635593 0.7075,40.803235593 0.857,40.724635593 0.7932,40.702235593 0.6844,40.729235593 0.5918,40.717935593 0.7836,40.699535593 0.8927,40.721935593 0.542,40.574435593 -0.3263,39.467935593 -0.1479,38.989435593 0.2306,38.733035593 -0.5033,38.330335593 -0.8582,37.720035593 -0.6946,37.627335593 -1.3208,37.559035593 -1.8234,37.269835593 -2.1241,36.737535593 -2.3569,36.846935593 -2.7079,36.691035593 -4.3984,36.724535593 -4.636,36.513835593 -5.1777,36.414035593 -5.3396,36.115235593 -5.6054,36.014435593 -6.0307,36.182735593 -6.4339,36.725335593 -6.3316,36.796935593 -6.3238,36.894735593 -6.2308,36.894535593 -6.1953,36.913835593 -6.0847,37.062835593 -6.3358,36.900735593 -6.3821,36.807935593 -6.9185,37.184535593 -6.8425,37.301435593 -6.9786,37.311935593 -6.9143,37.161735593 -7.3803,37.172335593 -7.4316,37.379835593 -7.4611,37.409835593 -7.4046,37.170935593 -7.8752,36.980835593 -8.5034,37.151935593 -8.9462,36.993035593 -8.7253,37.678735593 -8.9055,38.490935593 -8.8004,38.404035593 -8.6222,38.406135593 -8.7435,38.559435593 -9.2167,38.417335593 -9.2661,38.668535593 -9.0439,38.602735593 -8.9775,38.945135593 -8.9149,39.020735593 -8.8158,39.027035593 -8.7525,39.066135593 -8.7185,39.112135593 -8.8463,39.029535593 " /><polygon class="region" points="-4.7741,48.365435593 -4.7613,48.363535593 -4.7571,48.364735593 -4.766,48.368135593 -4.7741,48.365435593 " /><polygon class="region" points="13.3899,45.685735593 13.4392,45.689335593 13.4637,45.707035593 13.4007,45.725335593 13.3899,45.685735593 " /><polygon class="region" points="27.3814,48.410335593 27.4137,48.422435593 27.7136,48.458935593 27.2789,48.406035593 27.3814,48.410335593 " /><polygon class="region" points="26.7265,40.396835593 27.288,40.480435593 27.769,40.318135593 27.8835,40.383935593 27.6951,40.485835593 27.782,40.535435593 28.0374,40.489235593 27.9602,40.361035593 29.0598,40.370635593 29.1552,40.445235593 28.7856,40.544735593 29.9456,40.749635593 29.2659,40.811635593 29.0184,41.016235593 29.1571,41.224735593 31.2332,41.104035593 31.4049,41.323735593 32.5841,41.832635593 33.3394,42.025335593 34.7168,41.946835593 34.9458,42.101835593 35.2216,42.015735593 35.0921,41.917735593 35.2943,41.709535593 35.9815,41.736035593 36.4345,41.241135593 36.8123,41.358735593 37.53,41.021035593 37.6884,41.134235593 38.3549,40.908735593 39.3233,41.041335593 39.5698,40.794835593 39.5345,39.879135593 39.288,39.703135593 38.3069,39.617035593 36.3354,39.884335593 34.0966,40.753135593 33.0607,40.686335593 32.8602,40.285335593 32.8268,38.982135593 32.6932,38.781735593 31.5571,38.347335593 31.4902,38.079935593 32.3256,37.445135593 35.9678,37.244635593 36.2017,36.843635593 36.0129,36.931035593 35.3504,36.543035593 34.6562,36.805935593 33.9586,36.212235593 33.8787,36.313735593 33.6944,36.131735593 32.8081,36.019035593 32.3882,36.168335593 32.0261,36.544035593 31.0427,36.857435593 30.6211,36.847835593 30.4046,36.200135593 30.1883,36.305035593 29.6807,36.121335593 29.1192,36.374835593 29.0958,36.682135593 28.9287,36.754635593 28.8476,36.590235593 28.4611,36.882135593 28.034,36.563435593 28.1197,36.807535593 27.6774,36.659435593 27.3666,36.685035593 28.0341,36.788935593 28.0254,36.930235593 28.3324,37.045735593 27.2652,36.968135593 27.2551,37.127235593 27.4705,37.083835593 27.6131,37.274435593 27.4591,37.253735593 27.4156,37.415235593 27.1907,37.355035593 27.2168,37.588635593 27.0068,37.666035593 27.2398,37.732835593 27.2719,37.966235593 26.2342,38.275935593 26.5161,38.428035593 26.3935,38.450935593 26.4157,38.682235593 26.6781,38.315835593 26.7111,38.434735593 26.8128,38.359635593 27.1683,38.449935593 26.7233,38.652335593 27.0654,38.881035593 26.8196,38.943335593 26.8884,39.089735593 26.6107,39.281335593 26.9373,39.575235593 26.064,39.485435593 26.1828,40.000035593 26.7265,40.396835593 " /><polygon class="region" points="-5.8908,56.767035593 -5.6749,56.877735593 -5.9233,56.887135593 -5.8354,57.007235593 -5.6352,56.972035593 -5.5093,56.995635593 -5.8019,57.068435593 -5.3873,57.110135593 -5.6949,57.172535593 -5.4303,57.318235593 -5.5257,57.275735593 -5.734,57.284435593 -5.6632,57.347535593 -5.5267,57.358835593 -5.4404,57.417435593 -5.8254,57.368035593 -5.8455,57.575835593 -5.6493,57.512235593 -5.5131,57.540435593 -5.8197,57.639635593 -5.674,57.701335593 -5.814,57.860335593 -5.2181,57.842635593 -5.4064,57.927135593 -5.3596,57.938735593 -5.0736,57.820135593 -5.4582,58.077735593 -5.2406,58.154835593 -5.3098,58.155835593 -5.4068,58.237835593 -5.3775,58.267735593 -4.9445,58.218735593 -5.1826,58.355735593 -4.9913,58.428035593 -5.1282,58.491935593 -5.0123,58.626535593 -4.6609,58.553635593 -4.7532,58.448335593 -4.4453,58.557635593 -4.4818,58.444735593 -3.0266,58.642735593 -3.1099,58.374635593 -4.0915,57.958035593 -4.0212,57.858635593 -4.4083,57.921035593 -4.0581,57.816735593 -3.7789,57.867335593 -4.4673,57.481835593 -3.2897,57.727035593 -2.0098,57.700235593 -1.7759,57.473235593 -2.023,57.362835593 -2.0541,57.129035593 -2.5582,56.718435593 -2.4443,56.702235593 -2.5466,56.571035593 -3.3608,56.380835593 -2.8196,56.449835593 -2.8935,56.365135593 -2.6012,56.273735593 -3.4015,56.010135593 -3.6812,56.048235593 -3.8001,56.110235593 -3.8541,56.124135593 -3.8764,56.112935593 -3.7268,56.024135593 -3.0726,55.946335593 -2.6655,56.061235593 -1.645,55.586435593 -1.4758,54.989335593 -1.1781,54.696235593 -1.246,54.593235593 -0.596,54.491335593 -0.0819,54.120935593 -0.2038,53.976335593 0.1189,53.660535593 0.149,53.600135593 -0.2946,53.743735593 -0.6258,53.734735593 -0.7078,53.706935593 -0.3005,53.716035593 0.226,53.408435593 0.3395,53.103135593 0.0011,52.895235593 0.3673,52.790535593 0.5387,52.978535593 0.9711,52.982635593 1.6879,52.732135593 1.759,52.482335593 1.5731,52.088435593 1.3139,51.935235593 1.2773,51.991535593 1.1494,52.046235593 1.2718,51.959935593 1.0541,51.948135593 1.2827,51.949135593 1.2291,51.820535593 0.9622,51.852035593 0.6864,51.730935593 0.9286,51.747235593 0.8149,51.622235593 0.9245,51.595835593 0.5476,51.550135593 0.3445,51.448935593 0.8905,51.344935593 1.4246,51.394335593 1.3927,51.161735593 0.2376,50.737335593 0.0632,50.786735593 -0.1055,50.818035593 -0.2618,50.836935593 -0.2882,50.837635593 -0.7986,50.726535593 -1.3906,50.918635593 -1.3113,50.818535593 -1.5532,50.711535593 -1.9526,50.689435593 -2.048,50.736935593 -1.9575,50.601135593 -2.4273,50.642535593 -2.4655,50.518535593 -2.7986,50.721735593 -3.4838,50.693235593 -3.6584,50.221535593 -4.2052,50.428835593 -4.1954,50.320735593 -5.0393,50.209935593 -5.2023,49.961535593 -5.4949,50.130335593 -5.7187,50.064235593 -4.5714,50.783335593 -4.5327,51.024335593 -4.0774,51.081335593 -4.2333,51.192635593 -3.0128,51.220235593 -2.9792,51.391035593 -2.3511,51.804935593 -3.34,51.384335593 -3.8371,51.631135593 -4.3042,51.563835593 -4.0815,51.661335593 -4.3523,51.803535593 -4.9254,51.601235593 -5.1253,51.686235593 -4.9401,51.679035593 -4.9337,51.714035593 -5.2562,51.738735593 -5.1054,51.815235593 -5.317,51.908335593 -4.2119,52.265435593 -3.948,52.559935593 -4.1337,52.615735593 -3.9394,52.753335593 -4.1553,52.813035593 -4.0603,52.925635593 -4.7712,52.798035593 -4.3476,53.123735593 -3.8147,53.236935593 -3.8733,53.343735593 -3.0667,53.229035593 -3.2046,53.390335593 -3.0469,53.441335593 -2.9355,53.309835593 -2.7568,53.318435593 -3.1081,53.557035593 -2.8395,53.723035593 -3.0614,53.843135593 -3.0145,53.931035593 -2.982,53.864335593 -2.9446,53.851935593 -2.9172,53.862835593 -3.0014,53.930335593 -2.7947,54.231335593 -3.0354,54.246535593 -3.1533,54.065535593 -3.2276,54.270235593 -3.3257,54.191935593 -3.641,54.510735593 -3.4036,54.870035593 -3.0602,54.986335593 -3.6025,55.027235593 -3.6054,54.871535593 -3.9865,54.769935593 -4.0536,54.862235593 -4.1083,54.769635593 -4.2049,54.869135593 -4.4579,54.945335593 -4.3863,54.682935593 -4.8503,54.870635593 -4.9601,54.808335593 -4.8536,54.636335593 -4.9648,54.666035593 -5.1856,54.976835593 -4.9944,54.915735593 -4.9972,55.140535593 -4.6257,55.499235593 -4.9072,55.700735593 -4.8806,55.943935593 -4.4935,55.928535593 -4.8571,55.992035593 -4.7547,56.210535593 -4.9187,56.168335593 -4.9787,55.862735593 -5.1227,56.013835593 -5.0752,55.899535593 -5.1894,55.984035593 -5.3166,55.858435593 -5.294,56.049335593 -4.9226,56.274535593 -5.4415,56.034835593 -5.3148,55.784535593 -5.6071,55.428235593 -5.5192,55.367535593 -5.8044,55.303135593 -5.6757,55.684935593 -5.4814,55.805635593 -5.4366,55.857935593 -5.6686,55.807835593 -5.4849,56.260435593 -5.6651,56.297935593 -5.2468,56.558435593 -5.4142,56.545435593 -5.3259,56.652135593 -5,56.715535593 -5.2498,56.706235593 -5.0965,56.833935593 -5.2021,56.857535593 -5.3367,56.859535593 -5.1239,56.825535593 -5.6862,56.501435593 -6.0119,56.647635593 -5.5386,56.689035593 -6.2356,56.717735593 -5.8908,56.767035593 " /><polygon class="region" points="-3.0836,53.254435593 -3.0774,53.254435593 -3.0747,53.257335593 -3.0836,53.254435593 " /><polygon class="region" points="-1.4827,50.914935593 -1.4702,50.909935593 -1.4591,50.907335593 -1.4786,50.921635593 -1.4827,50.914935593 " /><polygon class="region" points="-2.0163,50.738035593 -2.008,50.724135593 -1.9916,50.725235593 -1.9995,50.736135593 -2.0163,50.738035593 " /><polygon class="region" points="9.0171,37.133335593 9.1385,36.940235593 9.0848,36.489035593 8.2722,35.975335593 5.3451,36.191835593 2.5637,36.043035593 -1.8385,34.535835593 -2.9843,33.878335593 -4.4568,31.784135593 -5.5719,30.816535593 -7.9333,29.685035593 -9.2617,28.684735593 -9.6716,28.651935593 -9.7208,29.291435593 -8.5565,30.406535593 -8.5729,30.521335593 -9.522,30.655635593 -9.5542,31.214235593 -9.1245,31.407635593 -8.2651,31.450535593 -6.9437,32.159635593 -6.6321,33.255435593 -6.7073,33.792535593 -6.3528,34.168535593 -5.4182,33.846235593 -4.505,34.007435593 -4.591,34.490835593 -5.6868,35.350235593 -5.4816,35.915635593 -4.779,35.247135593 -3.377,34.866835593 -3.3985,34.490835593 -3.8605,34.275935593 -3.6778,33.921435593 -3.3555,33.921435593 -2.335,34.909835593 -1.2831,35.370335593 -0.745,35.199835593 -0.3368,35.307335593 0.2067,36.116535593 1.0888,36.496635593 2.5484,36.592735593 2.9049,36.806135593 3.4903,36.774135593 3.907,36.925935593 4.7891,36.896035593 5.3003,36.642235593 6.4043,37.088635593 6.9334,36.885835593 7.3808,37.090435593 7.9499,36.846435593 8.7846,36.959535593 9.0171,37.133335593 " /><polygon class="region" points="7.6598,62.782635593 7.7118,62.789535593 7.6463,62.795235593 7.0358,62.726435593 7.9828,62.977935593 8.1583,62.815835593 8.5483,62.669835593 7.9812,63.044535593 7.8874,63.025935593 8.1028,63.121635593 8.3091,62.857935593 8.6856,62.820235593 8.4244,62.947535593 8.6488,62.990535593 8.3787,62.970035593 8.4929,63.017735593 8.2646,63.021335593 8.1751,63.129935593 8.6155,63.101035593 8.9786,63.211335593 8.5915,63.209935593 9.2835,63.261435593 9.7336,63.651535593 9.9807,63.449135593 9.8509,63.317335593 10.2748,63.329635593 10.0674,63.387935593 10.1892,63.456035593 10.801,63.422335593 10.9183,63.593035593 10.6362,63.549935593 10.7261,63.623435593 11.4539,63.778435593 11.0724,63.865635593 11.4907,64.009335593 11.2366,64.030435593 11.3849,64.110535593 11.3123,64.116135593 10.6014,63.813135593 11.048,63.886635593 10.9446,63.741935593 10.4277,63.573835593 9.9914,63.489635593 9.8097,63.665235593 10.1394,63.757835593 9.8528,63.723935593 10.2296,63.939435593 10.2282,64.203335593 10.6731,64.361035593 10.5196,64.443035593 10.8317,64.371935593 10.6497,64.450435593 10.9575,64.611835593 11.1554,64.444935593 11.3391,64.462635593 11.218,64.317635593 11.6821,64.465435593 11.4258,64.478335593 11.7541,64.531235593 12.0685,64.845635593 11.4043,64.475935593 11.0216,64.622135593 11.3652,64.551235593 11.4047,64.713635593 11.8477,64.795935593 11.6653,64.857535593 12.153,64.966035593 11.62,64.866835593 11.382,64.753835593 11.1868,64.739435593 11.9993,65.168635593 12.3416,65.114435593 12.0705,65.069435593 12.1763,65.047835593 12.4575,65.075335593 12.791,65.212535593 12.9556,65.328135593 12.494,65.131735593 12.3554,65.158435593 12.4351,65.268335593 12.2505,65.233035593 12.4384,65.364335593 12.2029,65.242835593 12.0336,65.206135593 11.9843,65.226635593 12.346,65.472735593 12.2121,65.487035593 12.2968,65.591335593 12.5425,65.455035593 12.5425,65.253735593 12.9924,65.928635593 13.2088,65.827235593 13.0035,65.946635593 13.1525,66.175935593 13.8239,66.141335593 13.5997,66.230135593 13.7909,66.194135593 14.1711,66.329035593 13.1781,66.201535593 13.5646,66.308835593 13.296,66.319435593 13.8899,66.733235593 15.1949,67.202335593 15.1641,66.525035593 13.9018,65.478235593 11.6456,64.205635593 11.3977,63.543635593 10.9888,63.216535593 9.8069,63.045935593 7.9596,62.029935593 6.2663,61.352535593 5.6503,61.325735593 5.7158,61.139835593 5.4046,61.070335593 4.9837,61.259235593 5.6331,61.372935593 4.9814,61.413935593 5.4737,61.490135593 5.2438,61.497335593 5.1588,61.536235593 5.4509,61.569235593 5.1918,61.605935593 5.4074,61.639035593 5.2026,61.633435593 5.3818,61.910035593 5.7755,61.853835593 5.6727,61.838635593 5.6401,61.817435593 5.6656,61.812935593 5.982,61.848235593 5.9121,61.727335593 5.9103,61.703635593 5.9242,61.689735593 6.0321,61.846835593 6.189,61.764335593 6.0768,61.849035593 6.4959,61.804835593 6.8387,61.867835593 5.3992,61.931435593 5.6441,62.173135593 5.9135,62.200735593 5.8502,62.012035593 5.9936,62.149035593 6.0826,62.059035593 6.311,62.060935593 5.9373,62.225235593 6.3387,62.380335593 6.5568,62.109135593 6.6589,62.196635593 6.4168,62.384935593 6.7298,62.455335593 7.0112,62.292635593 6.8845,62.090235593 7.2099,62.103835593 6.9689,62.119035593 7.0408,62.280435593 7.4303,62.256235593 7.0026,62.313235593 6.8785,62.457435593 6.624,62.522935593 6.4779,62.516735593 6.9982,62.656835593 7.5574,62.500035593 7.7872,62.575035593 7.5579,62.554335593 7.4027,62.630235593 8.1463,62.687335593 7.3523,62.696835593 7.6598,62.782635593 " /><polygon class="region" points="15.5312,38.301935593 15.6565,38.266135593 15.093,37.490935593 15.3389,37.009935593 15.0887,36.653035593 14.4963,36.789535593 14.288,37.045335593 13.7537,37.149735593 13.1677,37.494435593 12.6624,37.564935593 12.4266,37.798835593 12.73,38.192435593 12.9187,38.031235593 13.3162,38.227835593 13.7483,37.975535593 15.5312,38.301935593 " /><polygon class="region" points="11.1427,55.328735593 11.1538,55.592235593 10.9364,55.672835593 11.0861,55.664435593 11.1096,55.673435593 10.8812,55.744535593 11.5321,55.874135593 11.5203,55.930535593 11.3034,55.974735593 11.2888,55.999435593 11.7823,55.976235593 11.6131,55.783635593 11.7806,55.660635593 11.9109,55.934535593 12.0294,55.907635593 11.9349,55.654235593 12.0845,55.652735593 12.0452,55.929435593 11.8555,55.975835593 12.2996,56.120635593 12.6349,56.032635593 12.5975,55.687835593 12.196,55.469635593 12.4491,55.278035593 12.0169,55.148735593 12.171,54.993035593 11.1427,55.328735593 " /><polygon class="region" points="10.5183,55.545335593 10.4281,55.440835593 10.631,55.492835593 10.6216,55.624135593 10.7527,55.479935593 10.6682,55.452435593 10.5924,55.465635593 10.5464,55.446035593 10.8597,55.294435593 10.7463,55.069335593 10.0789,55.076235593 10.175,55.128735593 9.9781,55.135935593 9.6806,55.516435593 10.5183,55.545335593 " /><polygon class="region" points="21.9885,58.248435593 21.8438,58.288435593 22,58.349235593 21.8447,58.498335593 22.1027,58.418535593 22.5606,58.642335593 22.9589,58.615235593 23.3316,58.460235593 22.2994,58.205135593 22.0497,57.899735593 22.2186,58.137935593 21.9885,58.248435593 " /><polygon class="region" points="23.3241,39.039435593 23.5916,38.767135593 24.1509,38.657635593 24.2516,38.235335593 24.5866,38.161635593 24.558,37.981535593 24.2033,38.093635593 24.0522,38.391735593 23.6526,38.402735593 23.202,38.836535593 22.8337,38.832535593 23.3241,39.039435593 " /><polygon class="region" points="5.1231,60.651335593 5.1343,60.677635593 5.249,60.622035593 5.2704,60.622535593 4.9517,60.810935593 5.4669,60.635035593 5.2819,60.784235593 5.5889,60.874135593 5.0833,60.835235593 5.0171,60.966635593 5.1246,60.878435593 5.3075,60.991035593 5.0538,61.064435593 5.485,60.992635593 5.7362,61.100035593 5.7366,60.701535593 5.7134,60.765135593 5.2923,60.542435593 5.2085,60.621935593 5.1231,60.651335593 " /><polygon class="region" points="5.9314,59.773435593 6.0012,59.745435593 6.09,59.476735593 5.8607,59.547835593 5.6699,59.397535593 5.8726,59.336535593 5.6456,59.262635593 5.6232,59.408435593 5.488,59.273635593 5.3774,59.420935593 5.3543,59.269535593 5.3433,59.329035593 5.2351,59.437135593 5.4518,59.707935593 5.4601,59.482935593 5.5859,59.687235593 5.79,59.603935593 5.9314,59.773435593 " /><polygon class="region" points="4.7812,52.960635593 5.2919,52.739035593 5.0251,52.630235593 5.0142,52.376235593 4.5797,52.474335593 4.7812,52.960635593 " /><polygon class="region" points="17.0811,57.356535593 17.0825,57.173635593 16.4102,56.192835593 16.3808,56.526435593 17.0811,57.356535593 " /><polygon class="region" points="11.1614,54.955135593 11.7466,54.874335593 11.8641,54.686535593 11.4993,54.597235593 10.9637,54.802935593 11.1541,54.808835593 11.0198,54.888235593 11.1614,54.955135593 " /><polygon class="region" points="26.3333,39.389035593 26.6095,39.015135593 26.4839,39.121935593 26.5222,38.975535593 26.1633,39.010335593 26.0853,39.082535593 26.2576,39.208935593 26.0702,39.092235593 25.8323,39.192535593 26.3333,39.389035593 " /><polygon class="region" points="22.5833,59.068435593 23.0747,58.838935593 22.5642,58.688235593 22.3864,58.892435593 22.0444,58.924935593 22.5833,59.068435593 " /><polygon class="region" points="13.2297,54.486535593 13.1387,54.542435593 13.5067,54.485235593 13.2827,54.646035593 13.2272,54.587535593 13.1614,54.563935593 13.2554,54.661235593 13.4309,54.683835593 13.7673,54.342735593 13.1422,54.282635593 13.2671,54.383435593 13.2297,54.486535593 " /><polygon class="region" points="-6.2924,56.325135593 -6.1041,56.345435593 -5.9852,56.388835593 -6.1965,56.360635593 -5.9959,56.493935593 -6.3454,56.541735593 -6.1498,56.656435593 -5.65,56.433735593 -5.835,56.315435593 -6.3775,56.313835593 -6.2924,56.325135593 " /><polygon class="region" points="5.7639,52.415235593 5.4286,52.264135593 5.1356,52.380235593 5.6503,52.606635593 5.8614,52.535035593 5.7639,52.415235593 " /><polygon class="region" points="19.8504,60.413435593 20.288,60.281535593 19.9344,60.238935593 20.2425,60.001635593 19.7592,60.094835593 19.6493,60.291235593 19.839,60.201035593 19.9316,60.319435593 19.8504,60.413435593 " /><polygon class="region" points="5.2769,60.517935593 5.4649,60.421735593 5.4619,60.452335593 5.5508,60.425435593 5.7363,60.458635593 5.7598,60.393235593 5.649,60.368735593 5.4393,60.138035593 5.2044,60.283735593 5.351,60.382235593 5.2769,60.517935593 " /><polygon class="region" points="14.6176,53.838535593 13.8288,53.849635593 14.0483,53.994035593 13.7725,54.018135593 13.7536,54.157135593 14.3237,53.910135593 14.7625,54.023435593 14.6176,53.838535593 " /><polygon class="region" points="-6.1716,57.421535593 -6.0798,57.268335593 -5.6491,57.253335593 -6.0227,57.022135593 -5.8414,57.190735593 -6.2423,57.174035593 -6.1716,57.421535593 " /><polygon class="region" points="-4.5719,53.270335593 -4.4339,53.433535593 -4.047,53.314035593 -4.3474,53.133035593 -4.5719,53.270335593 " /><polygon class="region" points="22.968,60.282235593 22.8619,60.215935593 22.7667,60.006535593 22.3795,60.015135593 22.6239,60.151035593 22.421,60.158035593 22.4746,60.236335593 22.5462,60.200435593 22.968,60.282235593 " /><polygon class="region" points="25.9417,38.591735593 26.1612,38.538535593 26.0128,38.153535593 25.8696,38.247135593 25.9966,38.345235593 25.8293,38.545235593 25.9417,38.591735593 " /><polygon class="region" points="14.8793,55.235435593 15.1584,55.130835593 15.1213,55.015035593 14.6847,55.096535593 14.7517,55.289535593 14.8793,55.235435593 " /><polygon class="region" points="20.5422,38.471035593 20.8168,38.120035593 20.7926,38.064235593 20.5156,38.103535593 20.449,38.281735593 20.3396,38.181535593 20.5422,38.471035593 " /><polygon class="region" points="-3.2465,59.153635593 -3.0098,59.074435593 -3.1072,59.004535593 -2.7161,58.922035593 -3.3568,58.966235593 -3.2465,59.153635593 " /><polygon class="region" points="11.8257,54.964835593 12.1701,54.833535593 11.9766,54.562635593 11.7062,54.931535593 11.8257,54.964835593 " /><polygon class="region" points="-6.0681,35.417535593 -5.9876,35.178435593 -6.2523,34.985335593 -6.1156,35.219035593 -6.0681,35.417535593 " /><polygon class="region" points="19.7924,39.792035593 19.9527,39.780235593 19.8437,39.659435593 20.1081,39.364335593 19.6339,39.753635593 19.7924,39.792035593 " /><polygon class="region" points="-5.2951,55.713735593 -5.157,55.677435593 -5.0946,55.447335593 -5.3555,55.510635593 -5.2951,55.713735593 " /><polygon class="region" points="5.7288,60.370435593 5.899,60.020635593 5.8253,59.986435593 5.764,60.189835593 5.5839,60.155435593 5.7288,60.370435593 " /><polygon class="region" points="5.6131,60.689235593 5.6499,60.706135593 5.7329,60.679435593 5.7145,60.470535593 5.3459,60.536235593 5.6131,60.689235593 " /><polygon class="region" points="-5.8866,55.968035593 -6.0094,55.975435593 -5.6944,56.139535593 -5.9666,55.794435593 -6.0915,55.834935593 -5.8866,55.968035593 " /><polygon class="region" points="25.4354,40.017935593 25.349,39.782235593 25.2535,39.915935593 25.0463,39.835535593 25.0376,39.992935593 25.4354,40.017935593 " /><polygon class="region" points="14.5417,45.236935593 14.5929,45.237435593 14.8218,44.975535593 14.4331,45.073735593 14.5417,45.236935593 " /><polygon class="region" points="-1.4314,50.710035593 -1.2851,50.770735593 -1.0787,50.688135593 -1.5885,50.667335593 -1.4314,50.710035593 " /><polygon class="region" points="14.3877,44.957735593 14.3205,45.175935593 14.4822,44.964335593 14.4939,44.606935593 14.2944,44.913235593 14.3877,44.957735593 " /><polygon class="region" points="16.4389,43.391635593 16.8153,43.353235593 16.8969,43.301635593 16.5326,43.269235593 16.4389,43.391635593 " /><polygon class="region" points="9.7055,55.078835593 9.9595,55.011935593 10.0723,54.875735593 9.7877,54.906935593 9.8862,54.970735593 9.7055,55.078835593 " /><polygon class="region" points="20.7208,37.892035593 20.9094,37.807035593 20.9934,37.700235593 20.8094,37.654635593 20.6259,37.821135593 20.7208,37.892035593 " /><polygon class="region" points="24.6544,40.806235593 24.7895,40.741335593 24.6486,40.578335593 24.5153,40.664735593 24.6544,40.806235593 " /><polygon class="region" points="10.8866,54.984135593 10.7227,54.731235593 10.5927,54.845235593 10.9509,55.162835593 10.8866,54.984135593 " /><polygon class="region" points="5.2834,59.964935593 5.3543,59.977635593 5.4927,59.917035593 5.5345,59.791135593 5.33,59.787435593 5.2834,59.964935593 " /><polygon class="region" points="24.7528,65.083235593 24.8311,65.093935593 25.0608,65.042235593 24.5574,65.038835593 24.7528,65.083235593 " /><polygon class="region" points="16.5516,43.234635593 16.6984,43.163235593 17.1944,43.124635593 16.687,43.120835593 16.3733,43.195135593 16.5516,43.234635593 " /><polygon class="region" points="14.8416,44.612735593 14.9543,44.582035593 15.2526,44.327435593 15.1041,44.319335593 14.7334,44.704335593 14.8416,44.612735593 " /><polygon class="region" points="5.6651,60.075435593 5.7092,60.027735593 5.658,59.905535593 5.3688,59.989035593 5.6651,60.075435593 " /><polygon class="region" points="20.6794,38.837335593 20.7302,38.637835593 20.5498,38.567735593 20.6003,38.778535593 20.6794,38.837335593 " /><polygon class="region" points="23.1573,58.682035593 23.3582,58.650935593 23.4102,58.547635593 23.0738,58.603335593 23.1573,58.682035593 " /><polygon class="region" points="12.2427,55.050735593 12.5235,55.008235593 12.5564,54.958735593 12.1061,54.902835593 12.3555,54.983335593 12.2427,55.050735593 " /><polygon class="region" points="18.369,59.324835593 18.2325,59.336335593 18.4131,59.362035593 18.4735,59.320635593 18.4386,59.426435593 18.7585,59.349835593 18.5793,59.289935593 18.369,59.324835593 " /><polygon class="region" points="3.8636,51.761535593 3.834,51.738735593 4.1065,51.655835593 3.6815,51.692735593 3.8636,51.761535593 " /><polygon class="region" points="27.2881,36.907035593 27.3549,36.860035593 26.9274,36.709835593 27.0666,36.847135593 27.2881,36.907035593 " /><polygon class="region" points="16.6573,42.990835593 17.0388,42.979335593 17.2014,42.917835593 16.661,42.916735593 16.6573,42.990835593 " /><polygon class="region" points="5.9114,59.958935593 5.9651,59.828635593 5.8836,59.771235593 5.6644,59.852835593 5.9114,59.958935593 " /><polygon class="region" points="5.2623,59.402335593 5.3155,59.169735593 5.1913,59.147135593 5.1848,59.352635593 5.2623,59.402335593 " /><polygon class="region" points="23.0998,36.235435593 22.941,36.162635593 22.9253,36.380535593 22.9546,36.384735593 23.0998,36.235435593 " /><polygon class="region" points="26.3643,37.687435593 26.2343,37.574735593 25.9778,37.519035593 26.0822,37.640935593 26.3643,37.687435593 " /><polygon class="region" points="12.542,65.582635593 12.443,65.526635593 12.3604,65.633135593 12.5118,65.744735593 12.542,65.582635593 " /><polygon class="region" points="21.1974,63.303735593 21.2776,63.296735593 21.1981,63.253035593 21.1942,63.233435593 21.3907,63.279535593 21.4576,63.205735593 21.1682,63.183535593 21.0847,63.299735593 21.1498,63.274635593 21.2292,63.286735593 21.1974,63.303735593 " /><polygon class="region" points="11.2287,54.506035593 11.3154,54.402935593 11.0099,54.445335593 11.0689,54.535735593 11.2287,54.506035593 " /><polygon class="region" points="10.4251,42.813935593 10.4208,42.714935593 10.1003,42.780435593 10.4123,42.879535593 10.4251,42.813935593 " /><polygon class="region" points="36.8845,36.249335593 36.7984,36.335435593 36.9094,36.410235593 36.9706,36.324135593 36.8845,36.249335593 " /><polygon class="region" points="4.7996,53.011635593 4.7084,53.019235593 4.8591,53.182935593 4.9023,53.080735593 4.7996,53.011635593 " /><polygon class="region" points="-3.3843,58.924035593 -3.213,58.879435593 -3.1727,58.821235593 -3.2935,58.776435593 -3.3843,58.924035593 " /><polygon class="region" points="21.8251,60.487235593 21.9514,60.380435593 22.0514,60.355735593 21.7962,60.392635593 21.8251,60.487235593 " /><polygon class="region" points="6.3634,62.434435593 6.3611,62.458035593 6.2955,62.460435593 6.722,62.492235593 6.3634,62.434435593 " /><polygon class="region" points="-5.0902,55.864535593 -5.0242,55.844835593 -5.0077,55.729435593 -5.2196,55.902435593 -5.0902,55.864535593 " /><polygon class="region" points="5.1184,60.652435593 5.2292,60.564235593 4.8964,60.742935593 5.0219,60.717935593 5.1184,60.652435593 " /><polygon class="region" points="10.5464,55.992235593 10.6949,55.896935593 10.6254,55.768435593 10.5356,55.790935593 10.5464,55.992235593 " /><polygon class="region" points="4.9652,60.556635593 5.219,60.487135593 5.257,60.410335593 5.1654,60.393835593 4.9652,60.556635593 " /><polygon class="region" points="-2.2259,49.261035593 -2.0276,49.237535593 -2.0325,49.172435593 -2.2522,49.186335593 -2.2259,49.261035593 " /><polygon class="region" points="23.1945,59.051035593 23.3412,59.036035593 23.3881,58.974535593 23.1695,58.966335593 23.1945,59.051035593 " /><polygon class="region" points="4.9463,60.611835593 5.1425,60.595135593 5.2516,60.517535593 5.0741,60.537035593 4.9463,60.611835593 " /><polygon class="region" points="19.6181,60.283935593 19.6792,60.168435593 19.5508,60.146935593 19.5437,60.252335593 19.6181,60.283935593 " /><polygon class="region" points="18.4123,60.488935593 18.4846,60.363835593 18.5866,60.300535593 18.4091,60.370535593 18.4123,60.488935593 " /><polygon class="region" points="24.325,37.682035593 24.4113,37.651235593 24.2782,37.522235593 24.2711,37.616435593 24.325,37.682035593 " /><polygon class="region" points="12.6342,55.670435593 12.6704,55.587035593 12.5191,55.590035593 12.6161,55.698935593 12.6342,55.670435593 " /><polygon class="region" points="6.0781,62.352235593 6.1274,62.354235593 5.917,62.258335593 5.8145,62.253735593 6.0781,62.352235593 " /><polygon class="region" points="22.222,60.251235593 22.0968,60.320935593 22.3653,60.310135593 22.3619,60.291935593 22.222,60.251235593 " /><polygon class="region" points="10.5268,54.848435593 10.4178,54.818235593 10.2072,54.969935593 10.3729,54.884435593 10.5268,54.848435593 " /><polygon class="region" points="6.0106,59.446835593 6.0942,59.463935593 6.1133,59.406835593 5.9475,59.360135593 6.0106,59.446835593 " /><polygon class="region" points="8.485,55.181935593 8.5941,55.190835593 8.5696,55.082135593 8.4688,55.096535593 8.485,55.181935593 " /><polygon class="region" points="5.5289,53.431335593 5.1841,53.345135593 5.156,53.363935593 5.5778,53.448035593 5.5289,53.431335593 " /><polygon class="region" points="8.4985,54.754135593 8.5985,54.724135593 8.4001,54.707735593 8.4286,54.750735593 8.4985,54.754135593 " /><polygon class="region" points="0.7202,51.412535593 0.7432,51.449135593 0.9429,51.373535593 0.7624,51.371535593 0.7202,51.412535593 " /><polygon class="region" points="21.752,60.207335593 21.8275,60.213835593 21.9499,60.192535593 21.7041,60.134735593 21.752,60.207335593 " /><polygon class="region" points="26.8851,37.076135593 27.0399,37.017735593 27.0568,36.947735593 26.9442,36.928935593 26.8851,37.076135593 " /><polygon class="region" points="10.5288,54.992835593 10.6254,55.056535593 10.6962,54.994035593 10.5577,54.942635593 10.5288,54.992835593 " /><polygon class="region" points="20.6528,38.499735593 20.7107,38.436835593 20.6784,38.372935593 20.7691,38.320735593 20.7008,38.314935593 20.6195,38.464635593 20.6528,38.499735593 " /><polygon class="region" points="23.4972,38.007035593 23.5691,37.947035593 23.4436,37.876935593 23.4193,37.983235593 23.4972,38.007035593 " /><polygon class="region" points="14.723,44.854735593 14.7609,44.843935593 14.8664,44.708935593 14.656,44.790835593 14.723,44.854735593 " /><polygon class="region" points="21.5513,60.171035593 21.6057,60.185235593 21.6954,60.168935593 21.525,60.112435593 21.5513,60.171035593 " /><polygon class="region" points="-5.9972,57.462235593 -5.994,57.361035593 -6.0706,57.335735593 -6.0793,57.447235593 -5.9972,57.462235593 " /><polygon class="region" points="21.3799,60.595335593 21.4269,60.557835593 21.5384,60.527935593 21.4402,60.490535593 21.3799,60.595335593 " /><polygon class="region" points="18.344,59.284735593 18.5056,59.288435593 18.5277,59.275435593 18.6161,59.249635593 18.344,59.284735593 " /><polygon class="region" points="6.0096,59.293335593 6.1061,59.259235593 5.9266,59.233335593 5.9316,59.276735593 6.0096,59.293335593 " /><polygon class="region" points="23.4218,37.762735593 23.4879,37.777435593 23.565,37.770535593 23.4851,37.677535593 23.4218,37.762735593 " /><polygon class="region" points="22.2264,63.341935593 22.2499,63.305535593 22.2164,63.274835593 22.102,63.282835593 22.1567,63.252335593 22.059,63.281635593 22.2264,63.341935593 " /><polygon class="region" points="21.3278,63.372535593 21.3991,63.319435593 21.2371,63.333435593 21.242,63.357735593 21.3278,63.372535593 " /><polygon class="region" points="-2.9475,58.835135593 -2.8817,58.818535593 -2.9624,58.730835593 -3.0386,58.820235593 -2.9475,58.835135593 " /><polygon class="region" points="22.4125,60.358035593 22.4629,60.343035593 22.5246,60.344435593 22.3081,60.331235593 22.4125,60.358035593 " /><polygon class="region" points="8.4086,55.439435593 8.464,55.421835593 8.4804,55.341435593 8.3546,55.462735593 8.4086,55.439435593 " /><polygon class="region" points="5.8853,53.468535593 5.9744,53.465035593 5.6164,53.452535593 5.6335,53.470335593 5.8853,53.468535593 " /><polygon class="region" points="17.6797,59.064635593 17.7216,59.011935593 17.7099,58.901235593 17.6376,58.973035593 17.6797,59.064635593 " /><polygon class="region" points="-3.1202,59.176535593 -3.079,59.202635593 -2.9536,59.181235593 -3.0427,59.127935593 -3.1202,59.176535593 " /><polygon class="region" points="18.4309,59.097335593 18.5012,59.096235593 18.3652,59.019835593 18.3716,59.079035593 18.4309,59.097335593 " /><polygon class="region" points="18.598,59.534735593 18.6496,59.557235593 18.7633,59.543235593 18.6053,59.456235593 18.598,59.534735593 " /><polygon class="region" points="16.2062,43.414335593 16.3373,43.397435593 16.4,43.339535593 16.4006,43.328535593 16.2062,43.414335593 " /><polygon class="region" points="6.3612,62.433035593 6.2927,62.406435593 6.122,62.402635593 6.2921,62.451135593 6.2874,62.427835593 6.3612,62.433035593 " /><polygon class="region" points="22.7663,63.792235593 22.7674,63.718635593 22.6754,63.759035593 22.7152,63.778535593 22.7663,63.792235593 " /><polygon class="region" points="5.4386,60.043235593 5.3636,59.996035593 5.3369,60.030335593 5.3661,60.089035593 5.4386,60.043235593 " /><polygon class="region" points="22.2681,60.197735593 22.1935,60.208435593 22.3075,60.271735593 22.325,60.235435593 22.2681,60.197735593 " /><polygon class="region" points="22.1085,60.200035593 22.0268,60.148935593 21.9481,60.169235593 22.0668,60.218235593 22.1085,60.200035593 " /><polygon class="region" points="6.0633,59.386235593 6.1158,59.396835593 6.1445,59.313035593 6.0213,59.340335593 6.0633,59.386235593 " /><polygon class="region" points="26.7994,37.199335593 26.8566,37.184935593 26.8954,37.098935593 26.8254,37.115435593 26.7994,37.199335593 " /><polygon class="region" points="22.3718,60.293735593 22.465,60.306435593 22.4708,60.296235593 22.3313,60.238735593 22.3718,60.293735593 " /><polygon class="region" points="13.8595,40.758935593 13.9383,40.753635593 13.9628,40.719335593 13.8663,40.701535593 13.8595,40.758935593 " /><polygon class="region" points="11.2209,63.816535593 11.2373,63.809235593 11.0046,63.753435593 11.0539,63.802935593 11.2209,63.816535593 " /><polygon class="region" points="22.2038,65.546235593 22.3664,65.531435593 22.3891,65.513835593 22.2774,65.476035593 22.2038,65.546235593 " /><polygon class="region" points="8.5437,63.174535593 8.4854,63.159735593 8.3544,63.174435593 8.5764,63.205235593 8.5437,63.174535593 " /><polygon class="region" points="6.1627,53.472935593 6.1253,53.470735593 6.3395,53.506535593 6.2453,53.478135593 6.1627,53.472935593 " /><polygon class="region" points="8.6755,54.499835593 8.6171,54.498435593 8.5899,54.531535593 8.7102,54.560435593 8.6755,54.499835593 " /><polygon class="region" points="20.2562,60.138235593 20.3087,60.111035593 20.2664,60.062035593 20.2172,60.092535593 20.2562,60.138235593 " /><polygon class="region" points="18.1069,59.024235593 18.1718,59.034435593 18.2343,59.030935593 18.058,58.963835593 18.1069,59.024235593 " /><polygon class="region" points="21.2861,60.209935593 21.3221,60.234635593 21.3803,60.237635593 21.4707,60.207835593 21.2861,60.209935593 " /><polygon class="region" points="18.9848,59.807235593 19.0128,59.800035593 18.8897,59.791035593 18.9779,59.864635593 18.9848,59.807235593 " /><polygon class="region" points="11.4821,53.999135593 11.4574,53.957335593 11.3786,53.985035593 11.4493,54.021935593 11.4821,53.999135593 " /><polygon class="region" points="21.2596,60.583935593 21.303,60.562635593 21.3564,60.499435593 21.2421,60.514035593 21.2596,60.583935593 " /><polygon class="region" points="18.1106,59.379835593 18.1229,59.393935593 18.2702,59.374735593 18.1836,59.341835593 18.1106,59.379835593 " /><polygon class="region" points="21.2594,60.667735593 21.3135,60.669935593 21.3617,60.628135593 21.2918,60.584835593 21.2594,60.667735593 " /><polygon class="region" points="-4.5719,53.270335593 -4.6026,53.243835593 -4.7089,53.309835593 -4.631,53.321835593 -4.5719,53.270335593 " /><polygon class="region" points="4.9458,53.235435593 4.8547,53.222435593 5.0375,53.301035593 5.1015,53.301735593 4.9458,53.235435593 " /><polygon class="region" points="20.3957,60.260135593 20.4381,60.238135593 20.3809,60.193235593 20.3344,60.280735593 20.3957,60.260135593 " /><polygon class="region" points="22.0343,60.449535593 22.0754,60.443335593 21.9965,60.423735593 21.9284,60.486035593 22.0343,60.449535593 " /><polygon class="region" points="22.8809,65.735035593 22.9636,65.737335593 22.9868,65.692935593 22.9526,65.666135593 22.8809,65.735035593 " /><polygon class="region" points="8.3699,54.616035593 8.2952,54.668835593 8.3575,54.716035593 8.4016,54.632735593 8.3699,54.616035593 " /><polygon class="region" points="6.7513,53.625035593 6.8164,53.603735593 6.665,53.584735593 6.6676,53.603935593 6.7513,53.625035593 " /><polygon class="region" points="-6.166,56.938135593 -6.1162,56.927735593 -6.1429,56.873835593 -6.2102,56.891035593 -6.166,56.938135593 " /><polygon class="region" points="21.771,60.504835593 21.7365,60.494335593 21.7304,60.464535593 21.6987,60.471735593 21.7574,60.555035593 21.771,60.504835593 " /><polygon class="region" points="20.8832,63.805735593 20.909,63.815835593 20.954,63.793235593 20.8754,63.743735593 20.8832,63.805735593 " /><polygon class="region" points="20.9382,63.704735593 20.8654,63.684235593 20.9519,63.779235593 20.9579,63.761835593 20.9382,63.704735593 " /><polygon class="region" points="23.7219,65.758235593 23.7477,65.739635593 23.8107,65.745735593 23.6933,65.712335593 23.7219,65.758235593 " /><polygon class="region" points="-6.0106,57.325735593 -5.9514,57.320735593 -5.9194,57.298835593 -5.9835,57.276735593 -6.0106,57.325735593 " /><polygon class="region" points="16.8664,58.395735593 16.8358,58.358535593 16.9085,58.321235593 16.8511,58.319235593 16.7939,58.382035593 16.8664,58.395735593 " /><polygon class="region" points="21.1193,62.995435593 21.211,62.985835593 21.2219,62.948035593 21.1556,62.940935593 21.1193,62.995435593 " /><polygon class="region" points="20.7802,60.285435593 20.8128,60.285835593 20.8514,60.246935593 20.7782,60.228735593 20.7802,60.285435593 " /><polygon class="region" points="7.3472,62.649635593 7.2464,62.650135593 7.2284,62.662535593 7.3983,62.662235593 7.3472,62.649635593 " /><polygon class="region" points="18.6634,59.293035593 18.7169,59.292035593 18.5488,59.278535593 18.5577,59.286335593 18.6634,59.293035593 " /><polygon class="region" points="18.3595,58.963835593 18.2692,58.916935593 18.2311,58.943035593 18.3702,58.980435593 18.3595,58.963835593 " /><polygon class="region" points="18.715,60.213535593 18.7682,60.204035593 18.8143,60.160335593 18.7337,60.154935593 18.715,60.213535593 " /><polygon class="region" points="21.9961,63.390135593 22.0225,63.379235593 22.0958,63.376235593 21.9421,63.334535593 21.9961,63.390135593 " /><polygon class="region" points="17.8431,58.860635593 17.8806,58.813635593 17.7973,58.801235593 17.8351,58.888035593 17.8431,58.860635593 " /><polygon class="region" points="22.801,65.744235593 22.8246,65.706435593 22.7286,65.728235593 22.744,65.776635593 22.801,65.744235593 " /><polygon class="region" points="20.5371,60.047235593 20.5828,60.057035593 20.6175,60.033335593 20.5331,60.002735593 20.5371,60.047235593 " /><polygon class="region" points="18.9618,59.657735593 19.0027,59.630835593 18.8601,59.589735593 18.8963,59.622535593 18.9618,59.657735593 " /><polygon class="region" points="5.6851,62.196335593 5.8092,62.268735593 5.8008,62.217435593 5.6851,62.196335593 " /><polygon class="region" points="22.2031,60.429635593 22.2563,60.413735593 22.2693,60.401835593 22.1515,60.404935593 22.2031,60.429635593 " /><polygon class="region" points="7.1854,53.725235593 7.297,53.728935593 7.3445,53.725435593 7.1426,53.710335593 7.1854,53.725235593 " /><polygon class="region" points="22.2674,65.728635593 22.3196,65.724535593 22.3727,65.672935593 22.3297,65.661535593 22.2674,65.728635593 " /><polygon class="region" points="22.2941,60.355735593 22.2116,60.342735593 22.1447,60.353735593 22.2952,60.375535593 22.2941,60.355735593 " /><polygon class="region" points="22.37,60.171535593 22.3391,60.148835593 22.2899,60.147435593 22.3894,60.206935593 22.37,60.171535593 " /><polygon class="region" points="13.2267,54.486935593 13.2249,54.467035593 13.1208,54.448635593 13.1564,54.489035593 13.2267,54.486935593 " /><polygon class="region" points="22.1649,65.471435593 22.2321,65.459935593 22.2454,65.412235593 22.1574,65.431935593 22.1649,65.471435593 " /><polygon class="region" points="12.5241,65.562535593 12.5428,65.527635593 12.4661,65.520635593 12.4851,65.541535593 12.5241,65.562535593 " /><polygon class="region" points="18.5617,59.485735593 18.5836,59.472435593 18.5984,59.435635593 18.5188,59.496035593 18.5617,59.485735593 " /><polygon class="region" points="21.708,65.395535593 21.7794,65.387235593 21.8304,65.351635593 21.6585,65.400735593 21.708,65.395535593 " /><polygon class="region" points="20.3314,60.009235593 20.3558,60.019035593 20.4637,60.001635593 20.3027,59.993935593 20.3314,60.009235593 " /><polygon class="region" points="22.4383,60.381235593 22.3424,60.366135593 22.311,60.377335593 22.4806,60.404035593 22.4383,60.381235593 " /><polygon class="region" points="21.4413,63.039035593 21.4302,63.013535593 21.3439,63.041335593 21.4354,63.085135593 21.4413,63.039035593 " /><polygon class="region" points="-6.1636,56.481935593 -6.1446,56.474135593 -6.2717,56.480635593 -6.2244,56.503635593 -6.1636,56.481935593 " /><polygon class="region" points="6.1711,59.260535593 6.1321,59.279735593 6.1185,59.304935593 6.2258,59.275335593 6.1711,59.260535593 " /><polygon class="region" points="18.8378,59.597235593 18.7606,59.574935593 18.9599,59.666935593 18.8681,59.606735593 18.8378,59.597235593 " /><polygon class="region" points="15.6504,56.092535593 15.6713,56.119135593 15.7414,56.110935593 15.7102,56.070935593 15.6504,56.092535593 " /><polygon class="region" points="22.6036,65.587235593 22.6593,65.583735593 22.6019,65.554335593 22.5314,65.578535593 22.6036,65.587235593 " /><polygon class="region" points="21.999,63.323035593 22.0191,63.329735593 22.0639,63.300135593 21.9871,63.274235593 21.999,63.323035593 " /><polygon class="region" points="21.9529,60.312935593 21.9565,60.276135593 21.8746,60.308435593 21.9286,60.315435593 21.9529,60.312935593 " /><polygon class="region" points="22.3633,65.452135593 22.4298,65.447435593 22.312,65.430435593 22.2892,65.458935593 22.3633,65.452135593 " /><polygon class="region" points="7.4774,53.749035593 7.5711,53.758735593 7.6337,53.751535593 7.4785,53.721435593 7.4774,53.749035593 " /><polygon class="region" points="21.5904,60.256735593 21.6373,60.253735593 21.5556,60.220435593 21.584,60.273035593 21.6135,60.266435593 21.5904,60.256735593 " /><polygon class="region" points="21.6713,63.320135593 21.7001,63.306035593 21.6727,63.251035593 21.6366,63.294535593 21.6713,63.320135593 " /><polygon class="region" points="21.1299,62.852735593 21.1699,62.864335593 21.2306,62.858635593 21.1709,62.828435593 21.1299,62.852735593 " /><polygon class="region" points="21.761,65.284235593 21.7953,65.285535593 21.8716,65.248235593 21.7633,65.263835593 21.761,65.284235593 " /><polygon class="region" points="7.6763,53.765535593 7.6997,53.779335593 7.8141,53.776035593 7.6899,53.753535593 7.6763,53.765535593 " /><polygon class="region" points="20.4723,60.051435593 20.4829,60.057535593 20.5447,60.061535593 20.468,60.011735593 20.4723,60.051435593 " /><polygon class="region" points="18.7952,59.298235593 18.8242,59.292635593 18.7433,59.271035593 18.7472,59.286035593 18.7952,59.298235593 " /><polygon class="region" points="21.7134,63.311235593 21.7341,63.312435593 21.7912,63.278635593 21.7389,63.274435593 21.6901,63.324635593 21.7134,63.311235593 " /><polygon class="region" points="20.7677,60.320335593 20.7501,60.345935593 20.7921,60.364735593 20.803,60.346635593 20.7677,60.320335593 " /><polygon class="region" points="20.4602,60.031435593 20.4441,60.021735593 20.3836,60.021235593 20.4569,60.067035593 20.4602,60.031435593 " /><polygon class="region" points="18.2506,59.110335593 18.3301,59.108535593 18.3524,59.097635593 18.2413,59.077035593 18.2506,59.110335593 " /><polygon class="region" points="18.8664,59.433135593 18.9086,59.449735593 18.9383,59.441435593 18.8939,59.407735593 18.8664,59.433135593 " /><polygon class="region" points="21.9699,60.315735593 21.9123,60.327935593 22.0366,60.324535593 22.0082,60.307035593 21.9699,60.315735593 " /><polygon class="region" points="6.9798,53.684035593 7.0763,53.687935593 7.0912,53.680535593 6.8787,53.670435593 6.9798,53.684035593 " /><polygon class="region" points="20.9225,59.954835593 21.0049,59.956235593 21.0094,59.923735593 20.9798,59.924535593 20.9225,59.954835593 " /><polygon class="region" points="24.5907,65.687335593 24.5824,65.658435593 24.5132,65.677135593 24.6064,65.703735593 24.5907,65.687335593 " /><polygon class="region" points="7.8256,62.998735593 7.8559,63.005735593 7.8811,62.986435593 7.7906,62.979435593 7.8256,62.998735593 " /><polygon class="region" points="22.5822,65.476235593 22.5339,65.475135593 22.5096,65.503935593 22.5674,65.497235593 22.5822,65.476235593 " /><polygon class="region" points="22.1174,60.367635593 22.1332,60.378535593 22.2265,60.380935593 22.0993,60.352435593 22.1174,60.367635593 " /><polygon class="region" points="20.9179,59.922035593 20.9356,59.908935593 20.8573,59.933335593 20.9109,59.949635593 20.9179,59.922035593 " /><polygon class="region" points="16.7053,57.610435593 16.7384,57.620135593 16.7139,57.583635593 16.6606,57.578235593 16.7053,57.610435593 " /><polygon class="region" points="32.4267,67.072735593 32.3427,67.093535593 32.3293,67.102935593 32.4014,67.100735593 32.4267,67.072735593 " /><polygon class="region" points="22.0134,60.116935593 21.9527,60.112435593 21.927,60.128635593 21.9683,60.139435593 22.0134,60.116935593 " /><polygon class="region" points="35.8404,34.052735593 35.8157,34.074035593 35.8367,34.097035593 35.8601,34.076535593 35.8404,34.052735593 " /><polygon class="region" points="20.6713,60.220035593 20.6882,60.231835593 20.7234,60.200135593 20.6868,60.185935593 20.6713,60.220035593 " /><polygon class="region" points="16.7934,57.968435593 16.7605,57.992035593 16.8301,57.995635593 16.8194,57.975035593 16.7934,57.968435593 " /><polygon class="region" points="27.1412,36.953235593 27.1692,36.956235593 27.1755,36.920735593 27.1098,36.955235593 27.1412,36.953235593 " /><polygon class="region" points="21.7656,65.235235593 21.8314,65.227035593 21.8562,65.197935593 21.8278,65.203435593 21.7656,65.235235593 " /><polygon class="region" points="16.4568,56.788535593 16.4851,56.792235593 16.4836,56.767335593 16.4301,56.774535593 16.4568,56.788535593 " /><polygon class="region" points="16.711,57.851635593 16.7762,57.836635593 16.7976,57.805735593 16.7022,57.842435593 16.711,57.851635593 " /><polygon class="region" points="20.6428,60.139635593 20.6661,60.149735593 20.7014,60.121935593 20.6712,60.110335593 20.6428,60.139635593 " /><polygon class="region" points="22.5149,60.366335593 22.4614,60.348735593 22.4398,60.358735593 22.5346,60.375135593 22.5149,60.366335593 " /><polygon class="region" points="21.234,63.367035593 21.2108,63.362035593 21.1818,63.369635593 21.2589,63.390435593 21.234,63.367035593 " /><polygon class="region" points="21.0707,62.521235593 21.0569,62.571935593 21.0802,62.575435593 21.0958,62.564235593 21.0707,62.521235593 " /><polygon class="region" points="18.6824,59.193535593 18.7091,59.216935593 18.7608,59.207335593 18.6685,59.178535593 18.6824,59.193535593 " /><polygon class="region" points="22.202,60.433935593 22.1151,60.410535593 22.0888,60.425035593 22.1641,60.439335593 22.202,60.433935593 " /><polygon class="region" points="21.4194,60.721935593 21.3711,60.724535593 21.378,60.763335593 21.4247,60.743335593 21.4194,60.721935593 " /><polygon class="region" points="21.1596,62.915135593 21.209,62.905235593 21.2292,62.873135593 21.2017,62.878235593 21.1596,62.915135593 " /><polygon class="region" points="18.4835,60.225435593 18.5521,60.212035593 18.5592,60.188435593 18.5006,60.206935593 18.4835,60.225435593 " /><polygon class="region" points="16.8834,58.280135593 16.8548,58.275535593 16.8416,58.306135593 16.8923,58.296935593 16.8834,58.280135593 " /><polygon class="region" points="23.235,65.742735593 23.2856,65.744335593 23.3159,65.717235593 23.2599,65.715035593 23.235,65.742735593 " /><polygon class="region" points="35.6384,33.580235593 35.6155,33.597735593 35.6325,33.619035593 35.6543,33.603135593 35.6384,33.580235593 " /><polygon class="region" points="21.0392,62.741035593 21.0744,62.734335593 21.0762,62.709235593 21.041,62.709835593 21.0392,62.741035593 " /><polygon class="region" points="16.658,57.802235593 16.6756,57.812935593 16.7305,57.799435593 16.7115,57.782435593 16.658,57.802235593 " /><polygon class="region" points="22.6052,65.592735593 22.5539,65.602035593 22.5522,65.606135593 22.5859,65.621035593 22.6052,65.592735593 " /><polygon class="region" points="20.3225,60.214435593 20.3311,60.205535593 20.2587,60.178735593 20.3083,60.221735593 20.3225,60.214435593 " /><polygon class="region" points="22.0255,65.375535593 21.9984,65.361735593 21.9811,65.400035593 22.0231,65.384635593 22.0255,65.375535593 " /><polygon class="region" points="22.619,65.509335593 22.5563,65.523335593 22.5491,65.542435593 22.6223,65.522335593 22.619,65.509335593 " /><polygon class="region" points="32.0576,67.101735593 32.1536,67.101435593 32.1656,67.097235593 32.0966,67.087835593 32.0576,67.101735593 " /><polygon class="region" points="15.5301,56.108735593 15.5433,56.122935593 15.5801,56.113235593 15.5731,56.095935593 15.5301,56.108735593 " /><polygon class="region" points="6.8714,53.649235593 6.8956,53.656235593 6.9286,53.646835593 6.8989,53.625635593 6.8714,53.649235593 " /><polygon class="region" points="21.133,63.319835593 21.1512,63.321835593 21.1788,63.316235593 21.1628,63.294035593 21.1189,63.296835593 21.133,63.319835593 " /><polygon class="region" points="16.6038,57.588635593 16.6322,57.596035593 16.6707,57.558735593 16.6472,57.555635593 16.6038,57.588635593 " /><polygon class="region" points="20.8628,63.647035593 20.827,63.642235593 20.8153,63.636535593 20.8859,63.672735593 20.8628,63.647035593 " /><polygon class="region" points="17.6014,58.848035593 17.6322,58.854435593 17.7185,58.801035593 17.6686,58.810735593 17.6014,58.848035593 " /><polygon class="region" points="18.9139,59.410435593 18.9418,59.410135593 18.9548,59.370135593 18.9167,59.393235593 18.9139,59.410435593 " /><polygon class="region" points="18.6538,59.443835593 18.6907,59.464535593 18.7482,59.461235593 18.6707,59.442035593 18.6538,59.443835593 " /><polygon class="region" points="7.2716,62.729335593 7.3122,62.735435593 7.3502,62.729535593 7.2102,62.707835593 7.2716,62.729335593 " /><polygon class="region" points="19.8409,60.277535593 19.8139,60.294535593 19.8442,60.316035593 19.8596,60.302135593 19.8409,60.277535593 " /><polygon class="region" points="18.3274,59.414835593 18.3317,59.444835593 18.3646,59.432535593 18.3399,59.422835593 18.3274,59.414835593 " /><polygon class="region" points="21.2897,64.876135593 21.2501,64.893535593 21.2492,64.911635593 21.283,64.902735593 21.2897,64.876135593 " /><polygon class="region" points="18.0391,58.951735593 18.0258,58.934335593 18.0009,58.940535593 18.0456,58.974935593 18.0391,58.951735593 " /><polygon class="region" points="12.4552,65.125535593 12.4044,65.111135593 12.3779,65.116535593 12.3963,65.131835593 12.4552,65.125535593 " /><polygon class="region" points="15.4899,56.094235593 15.4587,56.092635593 15.4522,56.106635593 15.4958,56.116035593 15.4899,56.094235593 " /><polygon class="region" points="7.8532,53.786735593 7.8784,53.793335593 7.9234,53.791135593 7.9769,53.778935593 7.8532,53.786735593 " /><polygon class="region" points="18.1358,58.892635593 18.1549,58.890435593 18.1426,58.869235593 18.1106,58.858135593 18.1358,58.892635593 " /><polygon class="region" points="15.7258,56.130035593 15.7825,56.125335593 15.7836,56.117735593 15.7622,56.104335593 15.7258,56.130035593 " /><polygon class="region" points="22.3933,63.589335593 22.3546,63.609235593 22.3611,63.623635593 22.4006,63.602835593 22.3933,63.589335593 " /><polygon class="region" points="16.8983,58.267735593 16.9251,58.279335593 16.9274,58.275335593 16.8904,58.243735593 16.8983,58.267735593 " /><polygon class="region" points="22.6423,65.657035593 22.6102,65.656635593 22.6007,65.662835593 22.6279,65.688535593 22.6423,65.657035593 " /><polygon class="region" points="17.4416,58.757035593 17.473,58.750435593 17.4692,58.718235593 17.4527,58.724535593 17.4416,58.757035593 " /><polygon class="region" points="7.3899,53.739435593 7.431,53.733735593 7.4396,53.722735593 7.3678,53.729335593 7.3899,53.739435593 " /><polygon class="region" points="16.8118,58.058235593 16.8081,58.045835593 16.7815,58.052535593 16.7941,58.077235593 16.8118,58.058235593 " /><polygon class="region" points="23.7886,65.794935593 23.8129,65.781035593 23.8425,65.783535593 23.8253,65.772535593 23.7585,65.793035593 23.7886,65.794935593 " /><polygon class="region" points="18.4176,60.510035593 18.3825,60.511635593 18.3683,60.521235593 18.4139,60.529235593 18.4176,60.510035593 " /><polygon class="region" points="16.8241,58.094935593 16.8525,58.095435593 16.807,58.092235593 16.7986,58.110035593 16.8241,58.094935593 " /><polygon class="region" points="22.5839,63.761435593 22.6053,63.780735593 22.6465,63.770835593 22.6084,63.753035593 22.5839,63.761435593 " /><polygon class="region" points="12.3836,45.505835593 12.4159,45.508135593 12.4459,45.472535593 12.3863,45.490935593 12.3836,45.505835593 " /><polygon class="region" points="20.3359,60.336135593 20.3135,60.329235593 20.3045,60.343435593 20.3401,60.360835593 20.3359,60.336135593 " /><polygon class="region" points="18.5717,60.207035593 18.5901,60.214735593 18.6329,60.202035593 18.6142,60.190835593 18.5717,60.207035593 " /><polygon class="region" points="15.6341,56.096335593 15.6097,56.103935593 15.6425,56.128235593 15.6458,56.101635593 15.6341,56.096335593 " /><polygon class="region" points="18.2262,58.909235593 18.2041,58.909535593 18.1965,58.917535593 18.2298,58.934735593 18.2262,58.909235593 " /><polygon class="region" points="17.9086,58.838835593 17.9426,58.846835593 17.935,58.810835593 17.8958,58.848935593 17.9086,58.838835593 " /><polygon class="region" points="21.755,65.334135593 21.7696,65.336935593 21.8227,65.318135593 21.7806,65.319235593 21.755,65.334135593 " /><polygon class="region" points="18.0034,58.950735593 18.0036,58.976235593 18.0505,58.996935593 18.0493,58.988735593 18.0034,58.950735593 " /><polygon class="region" points="19.8915,60.289835593 19.8783,60.285635593 19.8571,60.310135593 19.8888,60.321135593 19.8915,60.289835593 " /><polygon class="region" points="16.684,57.767535593 16.7149,57.765935593 16.7267,57.732135593 16.7128,57.733935593 16.684,57.767535593 " /><polygon class="region" points="16.7082,57.812835593 16.6695,57.820335593 16.6676,57.838735593 16.6991,57.828435593 16.7082,57.812835593 " /><polygon class="region" points="18.1834,58.923135593 18.1563,58.910335593 18.2191,58.938635593 18.1999,58.931835593 18.1834,58.923135593 " /><polygon class="region" points="20.7878,63.608335593 20.7766,63.593235593 20.7536,63.600235593 20.7715,63.616835593 20.7878,63.608335593 " /><polygon class="region" points="16.8116,58.394335593 16.7855,58.389335593 16.7847,58.398035593 16.8278,58.410535593 16.8116,58.394335593 " /><polygon class="region" points="22.1122,65.501235593 22.0942,65.494035593 22.0816,65.516635593 22.1302,65.506435593 22.1122,65.501235593 " /><polygon class="region" points="23.2168,65.745435593 23.192,65.754435593 23.2459,65.755235593 23.2274,65.751235593 23.2168,65.745435593 " /><polygon class="region" points="21.4901,65.351235593 21.5121,65.355035593 21.5314,65.338535593 21.5009,65.336035593 21.4901,65.351235593 " /><polygon class="region" points="17.4781,58.758935593 17.4988,58.763435593 17.516,58.744435593 17.4966,58.739635593 17.4781,58.758935593 " /><polygon class="region" points="21.5834,65.090235593 21.5699,65.102635593 21.6092,65.095835593 21.6067,65.091735593 21.5834,65.090235593 " /><polygon class="region" points="16.9675,58.502535593 17.0044,58.499035593 17.008,58.496535593 16.9679,58.484935593 16.9675,58.502535593 " /><polygon class="region" points="16.8987,58.523935593 16.9139,58.531235593 16.9453,58.512135593 16.9258,58.510535593 16.8987,58.523935593 " /><polygon class="region" points="15.4526,56.155335593 15.4694,56.138535593 15.4719,56.125135593 15.429,56.148135593 15.4526,56.155335593 " /><polygon class="region" points="16.671,57.862535593 16.6606,57.848535593 16.6468,57.881235593 16.6745,57.871035593 16.671,57.862535593 " /><polygon class="region" points="22.6151,65.644035593 22.6384,65.648635593 22.6599,65.634735593 22.6196,65.636735593 22.6151,65.644035593 " /><polygon class="region" points="15.7914,56.082835593 15.7756,56.071135593 15.7534,56.069735593 15.7874,56.093535593 15.7914,56.082835593 " /><polygon class="region" points="5.904,62.242335593 5.88,62.233135593 5.8638,62.236235593 5.917,62.252435593 5.904,62.242335593 " /><polygon class="region" points="22.4437,63.564235593 22.4551,63.543635593 22.4197,63.575235593 22.4281,63.579735593 22.4437,63.564235593 " /><polygon class="region" points="17.4772,58.702035593 17.4811,58.727535593 17.4992,58.718135593 17.4928,58.707135593 17.4772,58.702035593 " /><polygon class="region" points="16.6585,58.430535593 16.6771,58.429035593 16.6929,58.416235593 16.6528,58.422135593 16.6585,58.430535593 " /><polygon class="region" points="21.9879,65.501435593 21.9927,65.508035593 22.0285,65.507535593 22.0205,65.493835593 21.9879,65.501435593 " /><polygon class="region" points="21.2722,60.223235593 21.2901,60.218835593 21.2519,60.214535593 21.2651,60.227235593 21.2722,60.223235593 " /><polygon class="region" points="22.2055,60.249635593 22.2273,60.247335593 22.183,60.244735593 22.1858,60.250035593 22.2055,60.249635593 " /><polygon class="region" points="10.5183,55.545335593 10.545,55.535835593 10.5664,55.518935593 10.5383,55.528735593 10.5183,55.545335593 " /><polygon class="region" points="10.6117,63.575435593 10.5919,63.569235593 10.644,63.589035593 10.6255,63.577335593 10.6117,63.575435593 " /><polygon class="region" points="23.2406,65.787735593 23.2272,65.788235593 23.2102,65.795635593 23.2512,65.793435593 23.2406,65.787735593 " /><polygon class="region" points="8.5447,63.151235593 8.5332,63.144135593 8.5041,63.148735593 8.5421,63.157835593 8.5447,63.151235593 " /><polygon class="region" points="13.356,54.552435593 13.3772,54.561335593 13.3898,54.541535593 13.3589,54.547935593 13.356,54.552435593 " /><polygon class="region" points="15.6592,56.157235593 15.6417,56.154635593 15.6385,56.165735593 15.6523,56.171435593 15.6592,56.157235593 " /><polygon class="region" points="17.6484,58.931835593 17.655,58.943435593 17.6688,58.920235593 17.6656,58.919635593 17.6484,58.931835593 " /><polygon class="region" points="17.5841,58.878535593 17.5782,58.875435593 17.5667,58.887235593 17.595,58.882135593 17.5841,58.878535593 " /><polygon class="region" points="6.318,62.436835593 6.3362,62.446635593 6.3446,62.434035593 6.3403,62.433235593 6.318,62.436835593 " /><polygon class="region" points="7.1242,62.713535593 7.1644,62.719535593 7.1816,62.713435593 7.1271,62.711635593 7.1242,62.713535593 " /><polygon class="region" points="21.9262,65.518635593 21.9651,65.513435593 21.9663,65.508935593 21.9515,65.508135593 21.9262,65.518635593 " /><polygon class="region" points="7.4327,62.665535593 7.4189,62.664735593 7.4126,62.666835593 7.4475,62.674135593 7.4327,62.665535593 " /><polygon class="region" points="6.8924,62.670935593 6.875,62.666135593 6.9164,62.681635593 6.9267,62.678535593 6.8924,62.670935593 " /><polygon class="region" points="6.5831,62.509135593 6.5747,62.509035593 6.5587,62.513435593 6.5938,62.513735593 6.5831,62.509135593 " /><polygon class="region" points="17.6423,59.027535593 17.6578,59.041235593 17.6555,59.019935593 17.6423,59.027535593 " /><polygon class="region" points="8.3887,62.914235593 8.3966,62.917135593 8.4092,62.903935593 8.3964,62.907735593 8.3887,62.914235593 " /><polygon class="region" points="5.4761,62.014635593 5.4665,62.012335593 5.4915,62.042335593 5.4918,62.035635593 5.4761,62.014635593 " /><polygon class="region" points="7.2151,62.720035593 7.193,62.717435593 7.2456,62.724635593 7.2457,62.721935593 7.2151,62.720035593 " /><polygon class="region" points="5.2111,61.570635593 5.2478,61.568435593 5.2534,61.564035593 5.2286,61.565535593 5.2111,61.570635593 " /><polygon class="region" points="5.9012,62.226635593 5.8906,62.225735593 5.8862,62.228835593 5.9057,62.235235593 5.9012,62.226635593 " /><polygon class="region" points="8.437,55.049835593 8.4635,55.047835593 8.4658,55.045535593 8.4502,55.042735593 8.437,55.049835593 " /><polygon class="region" points="32.2865,67.118935593 32.2982,67.121535593 32.3078,67.112835593 32.2967,67.113235593 32.2865,67.118935593 " /><polygon class="region" points="10.9907,54.381835593 11.0256,54.382135593 11.0142,54.377335593 10.9907,54.381835593 " /><polygon class="region" points="26.9724,60.475835593 26.9756,60.480935593 26.9923,60.466935593 26.9785,60.468335593 26.9724,60.475835593 " /><polygon class="region" points="5.8092,62.268735593 5.8367,62.284735593 5.8207,62.269935593 5.8092,62.268735593 " /><polygon class="region" points="11.1368,63.737735593 11.1193,63.734235593 11.1373,63.744535593 11.1368,63.737735593 " /><polygon class="region" points="6.4625,62.511935593 6.4364,62.507435593 6.4666,62.517435593 6.4625,62.511935593 " /><polygon class="region" points="5.1442,61.487135593 5.1473,61.494635593 5.1644,61.485735593 5.1576,61.484035593 5.1442,61.487135593 " /><polygon class="region" points="13.6927,54.289735593 13.7036,54.280835593 13.6918,54.281735593 13.6927,54.289735593 " /><polygon class="region" points="-4.7864,48.372035593 -4.7776,48.366735593 -4.7887,48.365035593 -4.7864,48.372035593 " /><polygon class="region" points="26.7147,40.395535593 26.7265,40.396835593 26.7112,40.391035593 26.7147,40.395535593 " /><polygon class="region" points="8.3155,63.168635593 8.3404,63.172335593 8.3328,63.168435593 8.3155,63.168635593 " /><polygon class="region" points="0.9699,51.814235593 0.9795,51.812535593 0.9815,51.810435593 0.9756,51.809735593 0.9699,51.814235593 " /><polygon class="region" points="-3.8376,56.108935593 -3.8292,56.110935593 -3.8331,56.105135593 -3.8376,56.108935593 " /><polygon class="region" points="20.2279,39.413035593 20.2318,39.406635593 20.2249,39.409735593 20.2279,39.413035593 " /><polygon class="region" points="0.6571,52.989835593 0.6623,52.991035593 0.6692,52.990235593 0.6624,52.987335593 0.6571,52.989835593 " /><polygon class="region" points="4.4154,51.698835593 4.4217,51.704535593 4.4273,51.703935593 4.4154,51.698835593 " /><polygon class="region" points="-4.4205,53.139835593 -4.4162,53.146735593 -4.4145,53.142135593 -4.4205,53.139835593 " /><polygon class="region" points="-5.2371,51.722435593 -5.2306,51.726735593 -5.2317,51.722735593 -5.2371,51.722435593 " /><polygon class="region" points="-3.0898,48.867435593 -3.0814,48.862835593 -3.0842,48.861935593 -3.0898,48.867435593 " /><polygon class="region" points="10.5303,54.846835593 10.5339,54.849635593 10.5378,54.847635593 10.5303,54.846835593 " /><polygon class="region" points="-3.7405,57.643435593 -3.7343,57.646735593 -3.7317,57.645635593 -3.7405,57.643435593 " /><polygon class="region" points="-5.7736,57.085835593 -5.7748,57.088135593 -5.771,57.088535593 -5.7736,57.085835593 " /><polygon class="region" points="5.1668,61.543235593 5.168,61.546335593 5.1694,61.545535593 5.1668,61.543235593 " />
		  </g>
		</svg>