<?xml version="1.0" encoding="UTF-8"?>
	<svg xmlns:xlink="http://www.w3.org/1999/xlink" 
	xmlns="http://www.w3.org/2000/svg" 
	width="360px" height="180px">
	   <style type="text/css">
		  <![CDATA[     
		  .region 
		  { 
			fill:blue; 
			opacity:0.4; 
			stroke:blue;
		  }
		  ]]>
	   </style>

	<circle id="dot" x="-2" y="-2" r="2" style="stroke:none; stroke-width:0; fill:black; opacity:0.7;"/>


	 <image x="0" y="0" width="360" height="180" xlink:href="map.jpg"/>

 
	 <g transform="translate(180,90) scale(1,-1)"><polygon class="region" points="148.195315964,-9.99151699 147.557681988,-9.68580207 147.448498088,-9.480536338 150.466341086,-10.301599267 149.723890565,-10.336538115 148.195315964,-9.99151699 " /><polygon class="region" points="152.641891479,-10.678028107 152.515090942,-10.629555702 152.877532959,-10.67666626 152.744781494,-10.723472595 152.641891479,-10.678028107 " /><polygon class="region" points="150.563754354,-9.4787535259999 150.540419449,-9.45621927 150.562953705,-9.4328843649999 150.58628861,-9.455418621 150.563754354,-9.4787535259999 " /><polygon class="region" points="150.777924188,-9.478287225 150.756417388,-9.4575183499999 150.777186263,-9.4360115499999 150.798693063,-9.456780425 150.777924188,-9.478287225 " /><polygon class="region" points="152.83644104,-9.264972687 152.65171814,-9.2068052289999 152.697387695,-9.0909996029999 152.464035034,-9.0426111219999 152.948776245,-9.087721825 152.969497681,-9.2562780379999 152.83644104,-9.264972687 " />
		  </g>
		</svg>