<?xml version="1.0" encoding="UTF-8"?>
	<svg xmlns:xlink="http://www.w3.org/1999/xlink" 
	xmlns="http://www.w3.org/2000/svg" 
	width="360px" height="180px">
	   <style type="text/css">
		  <![CDATA[     
		  .region 
		  { 
			fill:blue; 
			opacity:0.4; 
			stroke:blue;
		  }
		  ]]>
	   </style>

	<circle id="dot" x="-2" y="-2" r="2" style="stroke:none; stroke-width:0; fill:black; opacity:0.7;"/>


	 <image x="0" y="0" width="360" height="180" xlink:href="map.jpg"/>

 
	 <g transform="translate(180,90) scale(1,-1)">   <use xlink:href="#dot" transform="translate(150.306883,-10.41785)" />   <use xlink:href="#dot" transform="translate(150.306883,-10.41785)" />   <use xlink:href="#dot" transform="translate(150.306883,-10.41785)" />   <use xlink:href="#dot" transform="translate(150.621117,-10.31195)" />   <use xlink:href="#dot" transform="translate(150.306883,-10.41785)" />   <use xlink:href="#dot" transform="translate(152.833,-10.666)" />   <use xlink:href="#dot" transform="translate(147.49081109051,-9.3591531157703)" />   <use xlink:href="#dot" transform="translate(144.12280024277,-7.1435882309464)" />   <use xlink:href="#dot" transform="translate(152.73195046035,-10.668883806371)" />   <use xlink:href="#dot" transform="translate(141.11480620382,-5.4119036700956)" />   <use xlink:href="#dot" transform="translate(141.11480620382,-5.4119036700956)" />   <use xlink:href="#dot" transform="translate(144.87584113329,-6.7473057500616)" />   <use xlink:href="#dot" transform="translate(144.869049,-6.686284)" />   <use xlink:href="#dot" transform="translate(144.87584112798,-6.7613456310327)" />   <use xlink:href="#dot" transform="translate(144.869049,-6.686284)" />   <use xlink:href="#dot" transform="translate(144.833252,-6.497286)" />   <use xlink:href="#dot" transform="translate(150.233,-10.4971)" />   <use xlink:href="#dot" transform="translate(152.84274398832,-10.688529576619)" />   <use xlink:href="#dot" transform="translate(148.166,-8.933)" />   <use xlink:href="#dot" transform="translate(150.233,-10.4971)" />   <use xlink:href="#dot" transform="translate(150.56,-9.45617)" />   <use xlink:href="#dot" transform="translate(152.78074439405,-9.1625938883691)" />   <use xlink:href="#dot" transform="translate(152.84274398832,-10.688529576619)" />   <use xlink:href="#dot" transform="translate(150.56,-9.45617)" />   <use xlink:href="#dot" transform="translate(150.78677046412,-9.4541414449783)" />   <use xlink:href="#dot" transform="translate(150.56,-9.45617)" />   <use xlink:href="#dot" transform="translate(150.233,-10.4971)" />   <use xlink:href="#dot" transform="translate(152.66574633361,-10.647230032817)" />   <use xlink:href="#dot" transform="translate(152.94474221104,-9.216943349099)" />   <use xlink:href="#dot" transform="translate(150.233,-10.4971)" />   <use xlink:href="#dot" transform="translate(152.62874683045,-10.654529984391)" />   <use xlink:href="#dot" transform="translate(152.84274398832,-10.688529576619)" />   <use xlink:href="#dot" transform="translate(152.84274398832,-10.688529576619)" />   <use xlink:href="#dot" transform="translate(150.233,-10.4971)" />   <use xlink:href="#dot" transform="translate(150.233,-10.4971)" />   <use xlink:href="#dot" transform="translate(150.78677046412,-9.4541414449783)" />   <use xlink:href="#dot" transform="translate(150.56,-9.45617)" />   <use xlink:href="#dot" transform="translate(150.56,-9.45617)" />   <use xlink:href="#dot" transform="translate(152.62874683045,-10.654529984391)" />   <use xlink:href="#dot" transform="translate(150.233,-10.4971)" />   <use xlink:href="#dot" transform="translate(150.56,-9.45617)" />   <use xlink:href="#dot" transform="translate(152.6837461057,-10.672629795344)" />   <use xlink:href="#dot" transform="translate(150.23077793674,-10.499532527354)" />   <use xlink:href="#dot" transform="translate(152.94474221104,-9.216943349099)" />   <use xlink:href="#dot" transform="translate(150.233,-10.4971)" />   <use xlink:href="#dot" transform="translate(150.233,-10.4971)" />   <use xlink:href="#dot" transform="translate(152.94474221104,-9.216943349099)" />   <use xlink:href="#dot" transform="translate(152.78074439405,-9.1625938883691)" />   <use xlink:href="#dot" transform="translate(152.84274398832,-10.688529576619)" />   <use xlink:href="#dot" transform="translate(150.233,-10.4971)" />   <use xlink:href="#dot" transform="translate(150.233,-10.4971)" />   <use xlink:href="#dot" transform="translate(152.78074439405,-9.1625938883691)" />   <use xlink:href="#dot" transform="translate(150.233,-10.4971)" />   <use xlink:href="#dot" transform="translate(150.56,-9.45617)" />   <use xlink:href="#dot" transform="translate(152.66574633361,-10.647230032817)" />   <use xlink:href="#dot" transform="translate(150.233,-10.4971)" />   <use xlink:href="#dot" transform="translate(150.233,-10.4971)" />   <use xlink:href="#dot" transform="translate(152.6837461057,-10.672629795344)" />   <use xlink:href="#dot" transform="translate(150.233,-10.4971)" />   <use xlink:href="#dot" transform="translate(150.233,-10.4971)" />   <use xlink:href="#dot" transform="translate(150.56,-9.45617)" />   <use xlink:href="#dot" transform="translate(150.56,-9.45617)" />   <use xlink:href="#dot" transform="translate(150.56,-9.45617)" />   <use xlink:href="#dot" transform="translate(152.6837461057,-10.672629795344)" />   <use xlink:href="#dot" transform="translate(152.78074439405,-9.1625938883691)" />   <use xlink:href="#dot" transform="translate(152.78074439405,-9.1625938883691)" />   <use xlink:href="#dot" transform="translate(144.63729392106,-6.3689998712016)" />   <use xlink:href="#dot" transform="translate(150.233,-10.4971)" />   <use xlink:href="#dot" transform="translate(150.56,-9.45617)" />   <use xlink:href="#dot" transform="translate(150.233,-10.4971)" />   <use xlink:href="#dot" transform="translate(150.78677046412,-9.4541414449783)" />   <use xlink:href="#dot" transform="translate(152.6837461057,-10.672629795344)" />   <use xlink:href="#dot" transform="translate(152.62874683045,-10.654529984391)" />   <use xlink:href="#dot" transform="translate(152.66574633361,-10.647230032817)" />   <use xlink:href="#dot" transform="translate(150.56,-9.45617)" />   <use xlink:href="#dot" transform="translate(152.6837461057,-10.672629795344)" />   <use xlink:href="#dot" transform="translate(144.63729392106,-6.3689998712016)" />   <use xlink:href="#dot" transform="translate(150.233,-10.4971)" />   <use xlink:href="#dot" transform="translate(152.78074439405,-9.1625938883691)" />   <use xlink:href="#dot" transform="translate(150.233,-10.4971)" />   <use xlink:href="#dot" transform="translate(150.233,-10.4971)" />   <use xlink:href="#dot" transform="translate(152.78074439405,-9.1625938883691)" />   <use xlink:href="#dot" transform="translate(150.233,-10.4971)" />   <use xlink:href="#dot" transform="translate(150.56,-9.45617)" />   <use xlink:href="#dot" transform="translate(152.63874669667,-10.653529988692)" />   <use xlink:href="#dot" transform="translate(150.233,-10.4971)" />   <use xlink:href="#dot" transform="translate(152.84274398832,-10.688529576619)" />   <use xlink:href="#dot" transform="translate(150.233,-10.4971)" />   <use xlink:href="#dot" transform="translate(152.94474221104,-9.216943349099)" />   <use xlink:href="#dot" transform="translate(150.233,-10.4971)" />   <use xlink:href="#dot" transform="translate(150.233,-10.4971)" />   <use xlink:href="#dot" transform="translate(150.233,-10.4971)" />   <use xlink:href="#dot" transform="translate(150.789,-9.45763)" />   <use xlink:href="#dot" transform="translate(152.62874683045,-10.654529984391)" />   <use xlink:href="#dot" transform="translate(152.66574633361,-10.647230032817)" />   <use xlink:href="#dot" transform="translate(150.56,-9.45617)" />   <use xlink:href="#dot" transform="translate(152.68074613936,-10.65942991576)" />   <use xlink:href="#dot" transform="translate(142.34723221493,-3.1336584458467)" />   <use xlink:href="#dot" transform="translate(152.94474221104,-9.216943349099)" />   <use xlink:href="#dot" transform="translate(150.785,-9.46045)" />   <use xlink:href="#dot" transform="translate(150.56,-9.45617)" />   <use xlink:href="#dot" transform="translate(152.78074439405,-9.1625938883691)" />   <use xlink:href="#dot" transform="translate(150.233,-10.4971)" />   <use xlink:href="#dot" transform="translate(150.233,-10.4971)" />   <use xlink:href="#dot" transform="translate(150.56,-9.45617)" />   <use xlink:href="#dot" transform="translate(152.78074439405,-9.1625938883691)" />   <use xlink:href="#dot" transform="translate(152.76974496921,-10.697529529909)" /><polygon class="region" points="147.49081109051,-9.3591531157703 141.11480620382,-5.4119036700956 142.34723221493,-3.1336584458467 152.94474221104,-9.216943349099 152.84274398832,-10.688529576619 152.76974496921,-10.697529529909 150.23077793674,-10.499532527354 147.49081109051,-9.3591531157703 " />
		  </g>
		</svg>