<?xml version="1.0" encoding="UTF-8"?>
	<svg xmlns:xlink="http://www.w3.org/1999/xlink" 
	xmlns="http://www.w3.org/2000/svg" 
	width="360px" height="180px">
	   <style type="text/css">
		  <![CDATA[     
		  .region 
		  { 
			fill:blue; 
			opacity:0.4; 
			stroke:blue;
		  }
		  ]]>
	   </style>

	<circle id="dot" x="-2" y="-2" r="2" style="stroke:none; stroke-width:0; fill:black; opacity:0.7;"/>


	 <image x="0" y="0" width="360" height="180" xlink:href="map.jpg"/>

 
	 <g transform="translate(180,90) scale(1,-1)"><polygon class="region" points="-73.142589042,-10.342585108 -71.849375783,-11.029604652 -71.526072469,-11.75703711 -71.687724126,-12.444056653 -72.253504926,-12.60570831 -73.587131099,-12.120753338 -74.354976471,-11.595385452 -74.4358023,-11.070017566 -73.870021499,-10.585062594 -73.142589042,-10.342585108 " /><polygon class="region" points="-78.807817642,-0.39911735499993 -79.002240099,-0.42593424599994 -79.126268218,-0.24994840099993 -78.574845904,0.27298096700002 -78.807817642,-0.39911735499993 " /><polygon class="region" points="-79.337730032,-3.7298149759999 -79.590470076,-3.544472277 -79.374798572,-3.3153213049999 -79.145647599,-3.4568557289999 -79.337730032,-3.7298149759999 " /><polygon class="region" points="-76.597131622,3.447862812 -76.743546544,3.54198669 -76.649422666,3.726748377 -76.544840579,3.6674851940001 -76.597131622,3.447862812 " /><polygon class="region" points="-79.146748748,-4.9047707899999 -79.238086526,-4.816566924 -79.149882659,-4.7252291459999 -79.058544881,-4.813433013 -79.146748748,-4.9047707899999 " />
		  </g>
		</svg>