<?xml version="1.0" encoding="UTF-8"?>
	<svg xmlns:xlink="http://www.w3.org/1999/xlink" 
	xmlns="http://www.w3.org/2000/svg" 
	width="360px" height="180px">
	   <style type="text/css">
		  <![CDATA[     
		  .region 
		  { 
			fill:blue; 
			opacity:0.4; 
			stroke:blue;
		  }
		  ]]>
	   </style>

	<circle id="dot" x="-2" y="-2" r="2" style="stroke:none; stroke-width:0; fill:black; opacity:0.7;"/>


	 <image x="0" y="0" width="360" height="180" xlink:href="map.jpg"/>

 
	 <g transform="translate(180,90) scale(1,-1)">   <use xlink:href="#dot" transform="translate(11.387102,-4.040769)" />   <use xlink:href="#dot" transform="translate(14.907819,0.045086)" />   <use xlink:href="#dot" transform="translate(15.096452,0.724034)" />   <use xlink:href="#dot" transform="translate(10.186612,2.390664)" />   <use xlink:href="#dot" transform="translate(15.048103,0.744511)" />   <use xlink:href="#dot" transform="translate(16.25419,2.393115)" />   <use xlink:href="#dot" transform="translate(15.88699,2.509913)" />   <use xlink:href="#dot" transform="translate(9.235325,6.026456)" />   <use xlink:href="#dot" transform="translate(9.690293,6.082184)" />   <use xlink:href="#dot" transform="translate(9.25775,6.13231)" />   <use xlink:href="#dot" transform="translate(9.75964,6.12328)" />   <use xlink:href="#dot" transform="translate(9.34031,6.02111)" />   <use xlink:href="#dot" transform="translate(9.35672,6.26917)" />   <use xlink:href="#dot" transform="translate(9.45153,6.13944)" />   <use xlink:href="#dot" transform="translate(9.39881,6.09736)" />   <use xlink:href="#dot" transform="translate(9.45153,6.13944)" />   <use xlink:href="#dot" transform="translate(9.25775,6.13231)" />   <use xlink:href="#dot" transform="translate(9.25775,6.13231)" />   <use xlink:href="#dot" transform="translate(9.45647,6.01311)" />   <use xlink:href="#dot" transform="translate(9.55783,5.89828)" />   <use xlink:href="#dot" transform="translate(9.6,5.92)" />   <use xlink:href="#dot" transform="translate(9.63,5.88)" />   <use xlink:href="#dot" transform="translate(9.45647,6.01311)" />   <use xlink:href="#dot" transform="translate(9.55769,6.09903)" />   <use xlink:href="#dot" transform="translate(9.34031,6.02111)" />   <use xlink:href="#dot" transform="translate(9.42533,6.06158)" />   <use xlink:href="#dot" transform="translate(9.39881,6.09736)" />   <use xlink:href="#dot" transform="translate(9.33807,5.97143)" />   <use xlink:href="#dot" transform="translate(9.34031,5.13458)" />   <use xlink:href="#dot" transform="translate(9.52736,6.15586)" />   <use xlink:href="#dot" transform="translate(9.61078,6.19144)" />   <use xlink:href="#dot" transform="translate(9.61078,6.15328)" />   <use xlink:href="#dot" transform="translate(9.61078,6.19144)" />   <use xlink:href="#dot" transform="translate(9.61078,6.19144)" />   <use xlink:href="#dot" transform="translate(9.60156,6.12225)" />   <use xlink:href="#dot" transform="translate(9.61078,6.19144)" />   <use xlink:href="#dot" transform="translate(9.61078,6.19144)" />   <use xlink:href="#dot" transform="translate(9.60728,6.15328)" />   <use xlink:href="#dot" transform="translate(-80,40.5)" />   <use xlink:href="#dot" transform="translate(-80,40.5)" />   <use xlink:href="#dot" transform="translate(-83.0833,40.1667)" />   <use xlink:href="#dot" transform="translate(12.916667,0.5)" />   <use xlink:href="#dot" transform="translate(29.6169,-0.9939)" />   <use xlink:href="#dot" transform="translate(-87.83611,41.83333)" />   <use xlink:href="#dot" transform="translate(-121.502296,38.539822)" />   <use xlink:href="#dot" transform="translate(-117.15217442264,32.735709278007)" />   <use xlink:href="#dot" transform="translate(-122.44399571653,47.252779308619)" />   <use xlink:href="#dot" transform="translate(11.15,2.9)" />   <use xlink:href="#dot" transform="translate(9.40194,0.39)" />   <use xlink:href="#dot" transform="translate(14.1167,4.3333)" />   <use xlink:href="#dot" transform="translate(10.4167,3.0833)" />   <use xlink:href="#dot" transform="translate(14.25,3.75)" />   <use xlink:href="#dot" transform="translate(9.91667,2.95)" />   <use xlink:href="#dot" transform="translate(9.91667,2.95)" />   <use xlink:href="#dot" transform="translate(11.6,-0.8)" />   <use xlink:href="#dot" transform="translate(0,20)" />   <use xlink:href="#dot" transform="translate(10.53333,2.78333)" />   <use xlink:href="#dot" transform="translate(9.333333,-1.633333)" />   <use xlink:href="#dot" transform="translate(0,20)" />   <use xlink:href="#dot" transform="translate(11.6,-0.8)" />   <use xlink:href="#dot" transform="translate(11.51667,3.86667)" />   <use xlink:href="#dot" transform="translate(11.6,-0.8)" />   <use xlink:href="#dot" transform="translate(11.6,-0.8)" />   <use xlink:href="#dot" transform="translate(0,20)" />   <use xlink:href="#dot" transform="translate(11.6,-0.8)" />   <use xlink:href="#dot" transform="translate(12.1667,0.3167)" />   <use xlink:href="#dot" transform="translate(9.333333,-1.633333)" />   <use xlink:href="#dot" transform="translate(11.51667,3.86667)" />   <use xlink:href="#dot" transform="translate(9.333333,-1.633333)" />   <use xlink:href="#dot" transform="translate(9.333333,-1.633333)" />   <use xlink:href="#dot" transform="translate(11.6,-0.8)" />   <use xlink:href="#dot" transform="translate(12.133333,-5.233333)" />   <use xlink:href="#dot" transform="translate(9.333333,-1.633333)" />   <use xlink:href="#dot" transform="translate(29.14583,-3.40667)" />   <use xlink:href="#dot" transform="translate(9.333333,-1.633333)" />   <use xlink:href="#dot" transform="translate(0,20)" />   <use xlink:href="#dot" transform="translate(17.59,-0.64)" />   <use xlink:href="#dot" transform="translate(12.133333,-5.233333)" /><polygon class="region" points="-121.502296,38.539822 -122.44399571653,47.252779308619 -87.83611,41.83333 -80,40.5 0,20 29.6169,-0.9939 29.14583,-3.40667 12.133333,-5.233333 -117.15217442264,32.735709278007 -121.502296,38.539822 " />
		  </g>
		</svg>