<?xml version="1.0" encoding="UTF-8"?>
	<svg xmlns:xlink="http://www.w3.org/1999/xlink" 
	xmlns="http://www.w3.org/2000/svg" 
	width="360px" height="180px">
	   <style type="text/css">
		  <![CDATA[     
		  .region 
		  { 
			fill:blue; 
			opacity:0.4; 
			stroke:blue;
		  }
		  ]]>
	   </style>

	<circle id="dot" x="-2" y="-2" r="2" style="stroke:none; stroke-width:0; fill:black; opacity:0.7;"/>


	 <image x="0" y="0" width="360" height="180" xlink:href="map.jpg"/>

 
	 <g transform="translate(180,90) scale(1,-1)"><polygon class="region" points="10.4226,4.3528355920001 10.3925,4.3707355930001 10.4271,4.427635593 10.4407,4.3983355930001 10.4226,4.3528355920001 " /><polygon class="region" points="9.9541,5.6368355930001 9.9356,5.6470355920001 9.9442,5.6660355920001 9.965,5.6563355930001 9.9541,5.6368355930001 " /><polygon class="region" points="9.5088,6.293035592 9.797,6.1064355930001 9.5276,5.7930355930001 8.9113,6.3748355920001 9.0675,6.4198355930001 9.1293,6.285735592 9.3044,6.474335592 9.5088,6.293035592 " /><polygon class="region" points="14.9788,4.322335593 15.256,3.620635593 16.0124,3.8825355920001 16.2005,3.4172355920001 16.5527,3.2735355930001 16.8451,3.6638355920001 16.8781,4.253735593 17.5239,3.8825355920001 18.1354,4.0605355930001 18.6274,3.196035592 18.0731,2.224835593 18.0372,1.504035592 17.8142,1.023235593 17.9343,0.37483559300006 17.6994,-0.42196440799995 17.4133,-0.88216440699995 16.8324,-1.1618644079999 16.4942,-1.7949644079999 15.2965,-1.1353644069999 14.3116,-1.0214644069999 14.0367,-1.3482644069999 13.9922,-2.492164407 14.15,-3.099264407 12.7952,-3.4840644079999 12.14,-3.015964407 12.1338,-2.666564407 11.7051,-2.650864407 11.2567,-2.075664407 11.1213,-2.151764407 12.1741,-3.634164407 11.2036,-3.266364407 12.0185,-3.8699644069999 12.7081,-4.1627644069999 13.1475,-4.6518644079999 13.1825,-5.2807644069999 12.8399,-5.365464408 12.1837,-4.897464407 12.0568,-4.463164408 11.058927536,-3.8709232809999 9.624951363,-2.4087214469999 8.6957311630001,-0.64026713299995 8.842259407,-0.83406400699994 9.257222175,-0.46722435999993 9.350728035,0.35576078300005 9.476711273,0.14547370400004 9.749142647,0.10978496100006 9.926897049,0.18815983900004 9.5103120810001,0.28473773600007 9.314243316,0.51107573500002 9.503311157,0.66843998400003 9.61325264,0.51749372500006 9.665299416,1.061179399 9.3468647,1.1744179730001 9.8152751920001,1.9312345980001 9.892854632,3.2922351620001 10.4347,4.075135592 11.0684,4.163435592 11.4066,4.489535592 11.8037,4.256535592 12.8292,4.3961355930001 13.2537,4.8186355930001 13.3651,5.382835592 13.6038,5.343035592 13.5991,5.1395355920001 13.9889,4.8034355930001 14.9788,4.322335593 " />
		  </g>
		</svg>