<?xml version="1.0" encoding="UTF-8"?>
	<svg xmlns:xlink="http://www.w3.org/1999/xlink" 
	xmlns="http://www.w3.org/2000/svg" 
	width="360px" height="180px">
	   <style type="text/css">
		  <![CDATA[     
		  .region 
		  { 
			fill:blue; 
			opacity:0.4; 
			stroke:blue;
		  }
		  ]]>
	   </style>

	<circle id="dot" x="-2" y="-2" r="2" style="stroke:none; stroke-width:0; fill:black; opacity:0.7;"/>


	 <image x="0" y="0" width="360" height="180" xlink:href="map.jpg"/>

 
	 <g transform="translate(180,90) scale(1,-1)">   <use xlink:href="#dot" transform="translate(116.942477,-32.462533)" />   <use xlink:href="#dot" transform="translate(116.886543,-32.471132)" />   <use xlink:href="#dot" transform="translate(116.886182,-32.470858)" />   <use xlink:href="#dot" transform="translate(116.886548,-32.47083)" />   <use xlink:href="#dot" transform="translate(114.7,-28.8)" />   <use xlink:href="#dot" transform="translate(115.4,-30.6)" />   <use xlink:href="#dot" transform="translate(115.157044,-30.144633)" />   <use xlink:href="#dot" transform="translate(114.973328,-30.039042)" />   <use xlink:href="#dot" transform="translate(117.7042,-31.3289)" />   <use xlink:href="#dot" transform="translate(117.75,-31.4167)" />   <use xlink:href="#dot" transform="translate(117.7597,-31.4103)" />   <use xlink:href="#dot" transform="translate(117.6064,-31.2728)" />   <use xlink:href="#dot" transform="translate(117.6064,-31.2728)" />   <use xlink:href="#dot" transform="translate(117.4,-32.02)" />   <use xlink:href="#dot" transform="translate(116.883,-32.4)" />   <use xlink:href="#dot" transform="translate(116.917,-32.867)" />   <use xlink:href="#dot" transform="translate(117.717,-31.633)" />   <use xlink:href="#dot" transform="translate(117.733,-31.483)" />   <use xlink:href="#dot" transform="translate(117.717,-31.633)" />   <use xlink:href="#dot" transform="translate(118.2,-31.717)" />   <use xlink:href="#dot" transform="translate(117.7597,-31.4103)" />   <use xlink:href="#dot" transform="translate(117.7597,-31.4103)" />   <use xlink:href="#dot" transform="translate(117.75,-33.25)" />   <use xlink:href="#dot" transform="translate(117.75,-33.25)" />   <use xlink:href="#dot" transform="translate(117.75,-33.25)" />   <use xlink:href="#dot" transform="translate(117.75,-33.25)" />   <use xlink:href="#dot" transform="translate(118.4,-34)" />   <use xlink:href="#dot" transform="translate(118.416,-34)" />   <use xlink:href="#dot" transform="translate(117.75,-33.25)" />   <use xlink:href="#dot" transform="translate(117.75,-33.25)" />   <use xlink:href="#dot" transform="translate(117.75,-33.25)" />   <use xlink:href="#dot" transform="translate(117.75,-33.25)" />   <use xlink:href="#dot" transform="translate(116.32,-31.87)" />   <use xlink:href="#dot" transform="translate(119.15,-32.32)" />   <use xlink:href="#dot" transform="translate(119.15,-32.32)" />   <use xlink:href="#dot" transform="translate(116.6,-32.8)" />   <use xlink:href="#dot" transform="translate(116.67,-31.65)" />   <use xlink:href="#dot" transform="translate(115.82,-33.58)" />   <use xlink:href="#dot" transform="translate(116.38,-31.77)" />   <use xlink:href="#dot" transform="translate(116.38,-31.77)" />   <use xlink:href="#dot" transform="translate(114.62,-28.77)" />   <use xlink:href="#dot" transform="translate(118.27,-34.07)" />   <use xlink:href="#dot" transform="translate(118.38,-33.23)" />   <use xlink:href="#dot" transform="translate(115.066,-33.95)" />   <use xlink:href="#dot" transform="translate(117.009129,-31.62806702892)" />   <use xlink:href="#dot" transform="translate(117.009129,-31.62806702892)" />   <use xlink:href="#dot" transform="translate(117.13,-31.63)" />   <use xlink:href="#dot" transform="translate(117.13,-31.63)" />   <use xlink:href="#dot" transform="translate(115.9,-32.816)" />   <use xlink:href="#dot" transform="translate(144.720001,-36.740002)" />   <use xlink:href="#dot" transform="translate(151.216675,-33.86667)" />   <use xlink:href="#dot" transform="translate(151.21667,-33.86667)" />   <use xlink:href="#dot" transform="translate(151.21667,-33.86667)" />   <use xlink:href="#dot" transform="translate(118.7,-34.45)" />   <use xlink:href="#dot" transform="translate(117.233333,-31.666667)" />   <use xlink:href="#dot" transform="translate(116.72,-30.863056)" />   <use xlink:href="#dot" transform="translate(116.766667,-31.883333)" />   <use xlink:href="#dot" transform="translate(115.583333,-29.35)" />   <use xlink:href="#dot" transform="translate(117.366667,-32.75)" />   <use xlink:href="#dot" transform="translate(114.616667,-28.766667)" />   <use xlink:href="#dot" transform="translate(117.533333,-31.45)" />   <use xlink:href="#dot" transform="translate(116.6,-32.366667)" />   <use xlink:href="#dot" transform="translate(117.483333,-31.766667)" />   <use xlink:href="#dot" transform="translate(114.633333,-28.65)" />   <use xlink:href="#dot" transform="translate(116.533333,-30.766667)" />   <use xlink:href="#dot" transform="translate(117,-31.620001)" />   <use xlink:href="#dot" transform="translate(117,-31.620001)" />   <use xlink:href="#dot" transform="translate(114.683333,-27.833333)" />   <use xlink:href="#dot" transform="translate(118.9,-33.483333)" />   <use xlink:href="#dot" transform="translate(117.716667,-33.033333)" />   <use xlink:href="#dot" transform="translate(116.316667,-31.866667)" />   <use xlink:href="#dot" transform="translate(119.65,-31.3)" />   <use xlink:href="#dot" transform="translate(116.383333,-31.766667)" />   <use xlink:href="#dot" transform="translate(116.016667,-30.883333)" />   <use xlink:href="#dot" transform="translate(117.116667,-31.633333)" />   <use xlink:href="#dot" transform="translate(117.116667,-31.016667)" />   <use xlink:href="#dot" transform="translate(114.35,-27.75)" />   <use xlink:href="#dot" transform="translate(117.5,-31.983333)" />   <use xlink:href="#dot" transform="translate(117.75,-31.4)" />   <use xlink:href="#dot" transform="translate(116.316667,-31.883333)" />   <use xlink:href="#dot" transform="translate(115.45,-30.4)" />   <use xlink:href="#dot" transform="translate(116.283333,-31.45)" />   <use xlink:href="#dot" transform="translate(118.083333,-33.183333)" />   <use xlink:href="#dot" transform="translate(118.083333,-33.183333)" />   <use xlink:href="#dot" transform="translate(114.665278,-28.545556)" />   <use xlink:href="#dot" transform="translate(116.602778,-31.875)" />   <use xlink:href="#dot" transform="translate(115.842778,-28.878611)" />   <use xlink:href="#dot" transform="translate(117.7597,-31.4103)" />   <use xlink:href="#dot" transform="translate(117.7597,-31.4103)" />   <use xlink:href="#dot" transform="translate(117.7333,-31.5166)" />   <use xlink:href="#dot" transform="translate(114.616667,-28.766667)" />   <use xlink:href="#dot" transform="translate(114.633333,-28.65)" />   <use xlink:href="#dot" transform="translate(118.029167,-31.759167)" />   <use xlink:href="#dot" transform="translate(117.036111,-32.4275)" />   <use xlink:href="#dot" transform="translate(117.116667,-31.633333)" />   <use xlink:href="#dot" transform="translate(118.016667,-31.083333)" />   <use xlink:href="#dot" transform="translate(115.216667,-28.466667)" />   <use xlink:href="#dot" transform="translate(117.5,-31.983333)" />   <use xlink:href="#dot" transform="translate(114.35,-27.75)" />   <use xlink:href="#dot" transform="translate(115.7,-30.683333)" />   <use xlink:href="#dot" transform="translate(115.7,-30.683333)" />   <use xlink:href="#dot" transform="translate(115.133333,-29.25)" />   <use xlink:href="#dot" transform="translate(117.366667,-32.75)" />   <use xlink:href="#dot" transform="translate(118.666667,-31.883333)" />   <use xlink:href="#dot" transform="translate(118.083333,-33.183333)" />   <use xlink:href="#dot" transform="translate(117.1,-32.611111)" />   <use xlink:href="#dot" transform="translate(115.2,-30.15)" />   <use xlink:href="#dot" transform="translate(117.5,-31.983333)" />   <use xlink:href="#dot" transform="translate(117.716667,-33.033333)" />   <use xlink:href="#dot" transform="translate(117,-31.633333)" />   <use xlink:href="#dot" transform="translate(118.15,-31.883333)" />   <use xlink:href="#dot" transform="translate(114.966667,-29.25)" />   <use xlink:href="#dot" transform="translate(115.215,-28.92)" />   <use xlink:href="#dot" transform="translate(117.533333,-31.45)" />   <use xlink:href="#dot" transform="translate(117.472778,-31.778611)" />   <use xlink:href="#dot" transform="translate(116.083333,-30.05)" />   <use xlink:href="#dot" transform="translate(117,-31.620001)" />   <use xlink:href="#dot" transform="translate(118.7,-34.45)" />   <use xlink:href="#dot" transform="translate(117.633,-34.033)" />   <use xlink:href="#dot" transform="translate(114.616667,-28.766667)" />   <use xlink:href="#dot" transform="translate(117.3,-32.533333)" />   <use xlink:href="#dot" transform="translate(117.190278,-31.188056)" />   <use xlink:href="#dot" transform="translate(117.8,-31.116667)" />   <use xlink:href="#dot" transform="translate(114.641389,-28.569444)" />   <use xlink:href="#dot" transform="translate(114.670556,-28.5375)" />   <use xlink:href="#dot" transform="translate(117.116667,-31.633333)" />   <use xlink:href="#dot" transform="translate(115.983333,-31.666667)" />   <use xlink:href="#dot" transform="translate(115.2,-30.066667)" />   <use xlink:href="#dot" transform="translate(115.7,-29.166667)" />   <use xlink:href="#dot" transform="translate(117.5,-31.433333)" />   <use xlink:href="#dot" transform="translate(117.75,-31.4)" />   <use xlink:href="#dot" transform="translate(116.5,-30.466667)" />   <use xlink:href="#dot" transform="translate(121.3,-33.75)" />   <use xlink:href="#dot" transform="translate(117,-31.620001)" />   <use xlink:href="#dot" transform="translate(117,-31.620001)" />   <use xlink:href="#dot" transform="translate(120.169998,-25.26)" />   <use xlink:href="#dot" transform="translate(117.9336,-35.04888)" />   <use xlink:href="#dot" transform="translate(115.842778,-28.878611)" />   <use xlink:href="#dot" transform="translate(118.416667,-33)" />   <use xlink:href="#dot" transform="translate(118.466667,-33.1)" />   <use xlink:href="#dot" transform="translate(117.6,-31.55)" />   <use xlink:href="#dot" transform="translate(116.4,-31.783333)" />   <use xlink:href="#dot" transform="translate(117.05,-31.633333)" />   <use xlink:href="#dot" transform="translate(118.15,-31.883333)" />   <use xlink:href="#dot" transform="translate(118.466667,-33.1)" />   <use xlink:href="#dot" transform="translate(117.75,-32.5)" />   <use xlink:href="#dot" transform="translate(117.716667,-33.033333)" />   <use xlink:href="#dot" transform="translate(116.916667,-32.833333)" />   <use xlink:href="#dot" transform="translate(118.083333,-33.183333)" />   <use xlink:href="#dot" transform="translate(116.5,-31.716667)" />   <use xlink:href="#dot" transform="translate(114.633333,-28.416667)" />   <use xlink:href="#dot" transform="translate(116.666667,-30.383333)" />   <use xlink:href="#dot" transform="translate(115.166667,-29.166667)" />   <use xlink:href="#dot" transform="translate(114.366667,-28.316667)" />   <use xlink:href="#dot" transform="translate(117.241667,-33.041667)" />   <use xlink:href="#dot" transform="translate(117.190278,-31.188056)" />   <use xlink:href="#dot" transform="translate(114.670556,-28.5375)" />   <use xlink:href="#dot" transform="translate(117.405556,-31.991111)" />   <use xlink:href="#dot" transform="translate(119.800556,-33.758056)" />   <use xlink:href="#dot" transform="translate(116.883333,-30.183333)" />   <use xlink:href="#dot" transform="translate(118.7,-30.516667)" />   <use xlink:href="#dot" transform="translate(117.7597,-31.4103)" />   <use xlink:href="#dot" transform="translate(114.561667,-28.099444)" />   <use xlink:href="#dot" transform="translate(117.09,-30.757778)" />   <use xlink:href="#dot" transform="translate(117.072222,-33.128056)" />   <use xlink:href="#dot" transform="translate(115.666667,-29.166667)" />   <use xlink:href="#dot" transform="translate(114.683333,-27.833333)" />   <use xlink:href="#dot" transform="translate(115.016667,-29.233333)" />   <use xlink:href="#dot" transform="translate(116.883333,-30.183333)" />   <use xlink:href="#dot" transform="translate(118.083333,-33.183333)" />   <use xlink:href="#dot" transform="translate(115.15,-30.116667)" />   <use xlink:href="#dot" transform="translate(116.633333,-31.65)" />   <use xlink:href="#dot" transform="translate(117.493333,-31.668333)" />   <use xlink:href="#dot" transform="translate(117.9336,-35.04888)" />   <use xlink:href="#dot" transform="translate(117.09,-30.757778)" />   <use xlink:href="#dot" transform="translate(119.65,-31.291667)" />   <use xlink:href="#dot" transform="translate(120.016667,-33.5)" />   <use xlink:href="#dot" transform="translate(115.616667,-30.683333)" />   <use xlink:href="#dot" transform="translate(118.016667,-31.083333)" />   <use xlink:href="#dot" transform="translate(118.516667,-33.533333)" />   <use xlink:href="#dot" transform="translate(115.2,-30.066667)" />   <use xlink:href="#dot" transform="translate(116.5,-31.633333)" />   <use xlink:href="#dot" transform="translate(117.533333,-31.45)" />   <use xlink:href="#dot" transform="translate(117.75,-31.4)" />   <use xlink:href="#dot" transform="translate(115.333333,-28.333333)" />   <use xlink:href="#dot" transform="translate(119.766667,-32.383333)" />   <use xlink:href="#dot" transform="translate(118.7,-30.516667)" />   <use xlink:href="#dot" transform="translate(117.5,-32)" />   <use xlink:href="#dot" transform="translate(117.716667,-33.033333)" />   <use xlink:href="#dot" transform="translate(116.868333,-32.401111)" />   <use xlink:href="#dot" transform="translate(117.099722,-32.611111)" />   <use xlink:href="#dot" transform="translate(114.670556,-28.5375)" />   <use xlink:href="#dot" transform="translate(118.271667,-32.736389)" />   <use xlink:href="#dot" transform="translate(119.65,-31.291667)" />   <use xlink:href="#dot" transform="translate(119.075,-31.933333)" />   <use xlink:href="#dot" transform="translate(114.666667,-28.7)" />   <use xlink:href="#dot" transform="translate(114.616667,-28.766667)" />   <use xlink:href="#dot" transform="translate(116.083333,-30.05)" />   <use xlink:href="#dot" transform="translate(120.058333,-32.991667)" />   <use xlink:href="#dot" transform="translate(117.55,-31.866667)" />   <use xlink:href="#dot" transform="translate(117.5,-31.983333)" />   <use xlink:href="#dot" transform="translate(117.9336,-35.04888)" />   <use xlink:href="#dot" transform="translate(121.3,-33.75)" />   <use xlink:href="#dot" transform="translate(115.0333,-28.7)" />   <use xlink:href="#dot" transform="translate(116.083333,-30.05)" />   <use xlink:href="#dot" transform="translate(116.883333,-30.183333)" />   <use xlink:href="#dot" transform="translate(117.633333,-33.85)" />   <use xlink:href="#dot" transform="translate(114.633333,-28.65)" />   <use xlink:href="#dot" transform="translate(116.602778,-31.875)" />   <use xlink:href="#dot" transform="translate(115.7,-29.166667)" />   <use xlink:href="#dot" transform="translate(117,-31.633333)" />   <use xlink:href="#dot" transform="translate(116.383333,-31.766667)" />   <use xlink:href="#dot" transform="translate(115.433333,-29.2)" />   <use xlink:href="#dot" transform="translate(121.133333,-33.816667)" />   <use xlink:href="#dot" transform="translate(117.583333,-31.966667)" />   <use xlink:href="#dot" transform="translate(117.7597,-31.4103)" />   <use xlink:href="#dot" transform="translate(117.733333,-31.5)" />   <use xlink:href="#dot" transform="translate(114.733333,-28.95)" />   <use xlink:href="#dot" transform="translate(115.166667,-30.3)" />   <use xlink:href="#dot" transform="translate(117.894167,-32.910556)" />   <use xlink:href="#dot" transform="translate(114.670556,-28.5375)" />   <use xlink:href="#dot" transform="translate(117.190278,-31.188056)" />   <use xlink:href="#dot" transform="translate(118.466667,-33.1)" />   <use xlink:href="#dot" transform="translate(118.35,-32.366667)" />   <use xlink:href="#dot" transform="translate(116.883333,-32.383333)" />   <use xlink:href="#dot" transform="translate(114.633333,-28.633333)" />   <use xlink:href="#dot" transform="translate(116.016667,-29.883333)" />   <use xlink:href="#dot" transform="translate(119.075,-31.933333)" />   <use xlink:href="#dot" transform="translate(114.616667,-28.766667)" />   <use xlink:href="#dot" transform="translate(114.616667,-28.766667)" />   <use xlink:href="#dot" transform="translate(115.7,-29.166667)" />   <use xlink:href="#dot" transform="translate(114.933333,-29.25)" />   <use xlink:href="#dot" transform="translate(118.215,-31.445556)" />   <use xlink:href="#dot" transform="translate(116.316667,-31.866667)" />   <use xlink:href="#dot" transform="translate(117,-31.633333)" />   <use xlink:href="#dot" transform="translate(118.466667,-33.1)" />   <use xlink:href="#dot" transform="translate(117.366667,-32.75)" />   <use xlink:href="#dot" transform="translate(118.15,-32.666667)" />   <use xlink:href="#dot" transform="translate(117.75,-32.5)" />   <use xlink:href="#dot" transform="translate(116.533333,-30.766667)" />   <use xlink:href="#dot" transform="translate(117.533333,-31.45)" />   <use xlink:href="#dot" transform="translate(117.533333,-31.45)" />   <use xlink:href="#dot" transform="translate(117.116667,-31.633333)" />   <use xlink:href="#dot" transform="translate(114.633333,-28.65)" />   <use xlink:href="#dot" transform="translate(114.661111,-28.546944)" />   <use xlink:href="#dot" transform="translate(115.7,-30.683333)" />   <use xlink:href="#dot" transform="translate(114.933333,-29.25)" />   <use xlink:href="#dot" transform="translate(116.166667,-31.466667)" />   <use xlink:href="#dot" transform="translate(116.733333,-31.666667)" />   <use xlink:href="#dot" transform="translate(116.733333,-31.666667)" />   <use xlink:href="#dot" transform="translate(117.716667,-33.033333)" />   <use xlink:href="#dot" transform="translate(117.716667,-33.033333)" />   <use xlink:href="#dot" transform="translate(117.55,-33.683333)" />   <use xlink:href="#dot" transform="translate(117.75,-32.5)" />   <use xlink:href="#dot" transform="translate(119.8225,-33.785278)" />   <use xlink:href="#dot" transform="translate(118.083333,-33.183333)" />   <use xlink:href="#dot" transform="translate(117.9336,-35.04888)" />   <use xlink:href="#dot" transform="translate(118.7,-34.45)" />   <use xlink:href="#dot" transform="translate(117.633,-34.033)" />   <use xlink:href="#dot" transform="translate(118.05,-34.05)" />   <use xlink:href="#dot" transform="translate(115.15,-28.233333)" />   <use xlink:href="#dot" transform="translate(115.666667,-29.166667)" />   <use xlink:href="#dot" transform="translate(118.215,-31.445556)" />   <use xlink:href="#dot" transform="translate(114.35,-27.75)" />   <use xlink:href="#dot" transform="translate(114.633333,-28.416667)" />   <use xlink:href="#dot" transform="translate(116.033333,-31.883333)" />   <use xlink:href="#dot" transform="translate(118.383333,-32.383333)" />   <use xlink:href="#dot" transform="translate(118.416667,-33)" />   <use xlink:href="#dot" transform="translate(117.366667,-32.75)" />   <use xlink:href="#dot" transform="translate(117.5,-31.433333)" />   <use xlink:href="#dot" transform="translate(116.35,-31.833333)" />   <use xlink:href="#dot" transform="translate(116.316667,-31.866667)" />   <use xlink:href="#dot" transform="translate(118.15,-31.883333)" />   <use xlink:href="#dot" transform="translate(117.233333,-31.666667)" />   <use xlink:href="#dot" transform="translate(116.016667,-29.883333)" />   <use xlink:href="#dot" transform="translate(116.018611,-30.258611)" />   <use xlink:href="#dot" transform="translate(115.033333,-28.7)" />   <use xlink:href="#dot" transform="translate(117.3,-32.533333)" />   <use xlink:href="#dot" transform="translate(117.9336,-35.04888)" />   <use xlink:href="#dot" transform="translate(115.329722,-28.722222)" />   <use xlink:href="#dot" transform="translate(118.271667,-32.736389)" />   <use xlink:href="#dot" transform="translate(117.099722,-32.611111)" />   <use xlink:href="#dot" transform="translate(115.7925,-30.1375)" />   <use xlink:href="#dot" transform="translate(114.556111,-28.102222)" />   <use xlink:href="#dot" transform="translate(114.641389,-28.569444)" />   <use xlink:href="#dot" transform="translate(114.641389,-28.569444)" />   <use xlink:href="#dot" transform="translate(114.665278,-28.545556)" />   <use xlink:href="#dot" transform="translate(117.3,-32.533333)" />   <use xlink:href="#dot" transform="translate(119.515556,-31.418056)" />   <use xlink:href="#dot" transform="translate(117,-31.633333)" />   <use xlink:href="#dot" transform="translate(118.583333,-31.75)" />   <use xlink:href="#dot" transform="translate(118.216667,-33.083333)" />   <use xlink:href="#dot" transform="translate(115.166667,-30.116667)" />   <use xlink:href="#dot" transform="translate(116.016667,-31.666667)" />   <use xlink:href="#dot" transform="translate(117.7597,-31.4103)" />   <use xlink:href="#dot" transform="translate(115.329722,-28.722222)" />   <use xlink:href="#dot" transform="translate(114.641389,-28.569444)" />   <use xlink:href="#dot" transform="translate(115,-28.733333)" />   <use xlink:href="#dot" transform="translate(118.466667,-33.1)" />   <use xlink:href="#dot" transform="translate(118.683333,-33.016667)" /><polygon class="region" points="114.366667,-28.316667 114.35,-27.75 120.169998,-25.26 151.216675,-33.86667 144.720001,-36.740002 117.9336,-35.04888 115.066,-33.95 114.366667,-28.316667 " />
		  </g>
		</svg>