<?xml version="1.0" encoding="UTF-8"?>
	<svg xmlns:xlink="http://www.w3.org/1999/xlink" 
	xmlns="http://www.w3.org/2000/svg" 
	width="360px" height="180px">
	   <style type="text/css">
		  <![CDATA[     
		  .region 
		  { 
			fill:blue; 
			opacity:0.4; 
			stroke:blue;
		  }
		  ]]>
	   </style>

	<circle id="dot" x="-2" y="-2" r="2" style="stroke:none; stroke-width:0; fill:black; opacity:0.7;"/>


	 <image x="0" y="0" width="360" height="180" xlink:href="map.jpg"/>

 
	 <g transform="translate(180,90) scale(1,-1)">   <use xlink:href="#dot" transform="translate(8.823973,50.439384)" />   <use xlink:href="#dot" transform="translate(12.66819,51.315567)" />   <use xlink:href="#dot" transform="translate(11.730347,51.981487)" />   <use xlink:href="#dot" transform="translate(8.823973,50.439384)" />   <use xlink:href="#dot" transform="translate(14.461663,51.337547)" />   <use xlink:href="#dot" transform="translate(9.964653,54.481285)" />   <use xlink:href="#dot" transform="translate(8.823973,50.439384)" />   <use xlink:href="#dot" transform="translate(8.823973,50.439384)" />   <use xlink:href="#dot" transform="translate(8.823973,50.439384)" />   <use xlink:href="#dot" transform="translate(8.484049,49.314083)" />   <use xlink:href="#dot" transform="translate(10.647113,52.226418)" />   <use xlink:href="#dot" transform="translate(10.908743,49.749249)" />   <use xlink:href="#dot" transform="translate(9.181228,51.788227)" />   <use xlink:href="#dot" transform="translate(8.484049,49.314083)" />   <use xlink:href="#dot" transform="translate(10.841565,47.951042)" />   <use xlink:href="#dot" transform="translate(8.448061,52.461384)" />   <use xlink:href="#dot" transform="translate(11.352294,54.860255)" />   <use xlink:href="#dot" transform="translate(8.144005,49.087181)" />   <use xlink:href="#dot" transform="translate(9.910612,52.009624)" />   <use xlink:href="#dot" transform="translate(8.826427,49.764843)" />   <use xlink:href="#dot" transform="translate(11.578436,49.286461)" />   <use xlink:href="#dot" transform="translate(9.910612,52.009624)" />   <use xlink:href="#dot" transform="translate(8.484049,49.314083)" />   <use xlink:href="#dot" transform="translate(8.476869,49.988651)" />   <use xlink:href="#dot" transform="translate(14.461663,51.337547)" />   <use xlink:href="#dot" transform="translate(14.097819,55.55717)" />   <use xlink:href="#dot" transform="translate(11.076364,53.568325)" />   <use xlink:href="#dot" transform="translate(9.551939,52.461384)" />   <use xlink:href="#dot" transform="translate(19.373853,46.893573)" />   <use xlink:href="#dot" transform="translate(10.708114,53.798893)" />   <use xlink:href="#dot" transform="translate(14.354045,55.550412)" />   <use xlink:href="#dot" transform="translate(9.910612,52.009624)" />   <use xlink:href="#dot" transform="translate(14.845523,55.127657)" />   <use xlink:href="#dot" transform="translate(12.322901,51.083321)" />   <use xlink:href="#dot" transform="translate(8.476869,49.988651)" />   <use xlink:href="#dot" transform="translate(13.65008,55.563688)" />   <use xlink:href="#dot" transform="translate(7.641286,47.586182)" />   <use xlink:href="#dot" transform="translate(12.520115,54.010178)" />   <use xlink:href="#dot" transform="translate(11.754186,55.942239)" />   <use xlink:href="#dot" transform="translate(8.823973,50.439384)" />   <use xlink:href="#dot" transform="translate(9.551939,52.461384)" />   <use xlink:href="#dot" transform="translate(13.841637,55.551545)" />   <use xlink:href="#dot" transform="translate(13.650098,55.5651)" />   <use xlink:href="#dot" transform="translate(15.478943,56.162885)" />   <use xlink:href="#dot" transform="translate(13.300955,53.57428)" />   <use xlink:href="#dot" transform="translate(13.777318,55.551702)" />   <use xlink:href="#dot" transform="translate(14.136877,55.633525)" />   <use xlink:href="#dot" transform="translate(23.665976,52.932362)" />   <use xlink:href="#dot" transform="translate(8.82562,49.9897)" />   <use xlink:href="#dot" transform="translate(13.389821,55.592653)" />   <use xlink:href="#dot" transform="translate(11.471658,55.367137)" />   <use xlink:href="#dot" transform="translate(9.83412,54.905097)" />   <use xlink:href="#dot" transform="translate(10.690099,53.349663)" />   <use xlink:href="#dot" transform="translate(10.690099,53.349663)" />   <use xlink:href="#dot" transform="translate(13.649281,55.562606)" />   <use xlink:href="#dot" transform="translate(11.054648,53.119171)" />   <use xlink:href="#dot" transform="translate(11.577907,55.377885)" />   <use xlink:href="#dot" transform="translate(8.82562,49.9897)" />   <use xlink:href="#dot" transform="translate(8.82562,49.9897)" />   <use xlink:href="#dot" transform="translate(10.328661,53.803696)" />   <use xlink:href="#dot" transform="translate(10.690099,53.349663)" />   <use xlink:href="#dot" transform="translate(9.834051,54.904744)" />   <use xlink:href="#dot" transform="translate(13.520992,55.573993)" />   <use xlink:href="#dot" transform="translate(13.775575,55.552927)" />   <use xlink:href="#dot" transform="translate(9.910612,52.009624)" />   <use xlink:href="#dot" transform="translate(23.57242,52.737797)" />   <use xlink:href="#dot" transform="translate(14.147361,55.627185)" />   <use xlink:href="#dot" transform="translate(13.646972,55.562778)" />   <use xlink:href="#dot" transform="translate(8.82562,49.9897)" />   <use xlink:href="#dot" transform="translate(8.823973,50.439384)" />   <use xlink:href="#dot" transform="translate(8.82562,49.9897)" />   <use xlink:href="#dot" transform="translate(11.054648,53.119171)" />   <use xlink:href="#dot" transform="translate(13.635986,55.5575)" />   <use xlink:href="#dot" transform="translate(14.268023,55.671968)" />   <use xlink:href="#dot" transform="translate(11.521602,48.163071)" />   <use xlink:href="#dot" transform="translate(8.82562,49.9897)" />   <use xlink:href="#dot" transform="translate(9.839373,54.90203)" />   <use xlink:href="#dot" transform="translate(10.857742,48.400654)" />   <use xlink:href="#dot" transform="translate(11.298282,50.641678)" />   <use xlink:href="#dot" transform="translate(9.551939,52.461384)" />   <use xlink:href="#dot" transform="translate(13.7765,55.552612)" />   <use xlink:href="#dot" transform="translate(11.351946,54.870069)" />   <use xlink:href="#dot" transform="translate(14.892923,55.212019)" />   <use xlink:href="#dot" transform="translate(10.690099,53.349663)" />   <use xlink:href="#dot" transform="translate(8.484049,49.314083)" />   <use xlink:href="#dot" transform="translate(12.878403,54.466511)" />   <use xlink:href="#dot" transform="translate(8.822284,50.88903)" />   <use xlink:href="#dot" transform="translate(9.170441,48.865337)" />   <use xlink:href="#dot" transform="translate(8.476869,49.988651)" />   <use xlink:href="#dot" transform="translate(11.353848,54.860521)" />   <use xlink:href="#dot" transform="translate(11.578436,49.286461)" />   <use xlink:href="#dot" transform="translate(9.551939,52.461384)" />   <use xlink:href="#dot" transform="translate(11.176165,47.945187)" />   <use xlink:href="#dot" transform="translate(14.08517,55.406324)" />   <use xlink:href="#dot" transform="translate(9.833701,54.905717)" />   <use xlink:href="#dot" transform="translate(14.884245,55.209948)" />   <use xlink:href="#dot" transform="translate(14.129368,55.671978)" />   <use xlink:href="#dot" transform="translate(13.910969,55.635477)" />   <use xlink:href="#dot" transform="translate(9.969977,54.705929)" />   <use xlink:href="#dot" transform="translate(8.147846,48.862312)" />   <use xlink:href="#dot" transform="translate(12.296622,51.532429)" />   <use xlink:href="#dot" transform="translate(8.82562,49.9897)" />   <use xlink:href="#dot" transform="translate(12.322901,51.083321)" />   <use xlink:href="#dot" transform="translate(11.718918,55.911634)" />   <use xlink:href="#dot" transform="translate(14.155167,55.615164)" />   <use xlink:href="#dot" transform="translate(14.743908,55.108128)" />   <use xlink:href="#dot" transform="translate(11.729438,55.92172)" />   <use xlink:href="#dot" transform="translate(9.833701,54.905717)" />   <use xlink:href="#dot" transform="translate(14.892923,55.212019)" />   <use xlink:href="#dot" transform="translate(23.752714,52.729065)" />   <use xlink:href="#dot" transform="translate(10.690099,53.349663)" />   <use xlink:href="#dot" transform="translate(9.910612,52.009624)" />   <use xlink:href="#dot" transform="translate(10.690099,53.349663)" />   <use xlink:href="#dot" transform="translate(10.690099,53.349663)" />   <use xlink:href="#dot" transform="translate(13.621801,55.494963)" />   <use xlink:href="#dot" transform="translate(11.353848,54.860521)" />   <use xlink:href="#dot" transform="translate(10.690099,53.349663)" />   <use xlink:href="#dot" transform="translate(8.456328,51.787109)" />   <use xlink:href="#dot" transform="translate(12.785137,48.844185)" />   <use xlink:href="#dot" transform="translate(11.298282,50.641678)" />   <use xlink:href="#dot" transform="translate(13.775386,55.552592)" />   <use xlink:href="#dot" transform="translate(13.39636,55.587414)" />   <use xlink:href="#dot" transform="translate(13.91246,55.637277)" />   <use xlink:href="#dot" transform="translate(16.80788,47.818111)" />   <use xlink:href="#dot" transform="translate(9.551939,52.461384)" />   <use xlink:href="#dot" transform="translate(11.054648,53.119171)" />   <use xlink:href="#dot" transform="translate(11.298282,50.641678)" />   <use xlink:href="#dot" transform="translate(10.172091,47.959827)" />   <use xlink:href="#dot" transform="translate(8.476869,49.988651)" />   <use xlink:href="#dot" transform="translate(11.495385,55.370034)" />   <use xlink:href="#dot" transform="translate(12.23603,51.379812)" />   <use xlink:href="#dot" transform="translate(10.328661,53.803696)" />   <use xlink:href="#dot" transform="translate(10.849605,48.175854)" />   <use xlink:href="#dot" transform="translate(8.82562,49.9897)" />   <use xlink:href="#dot" transform="translate(13.649281,55.562606)" />   <use xlink:href="#dot" transform="translate(16.802387,47.761021)" />   <use xlink:href="#dot" transform="translate(8.476869,49.988651)" />   <use xlink:href="#dot" transform="translate(11.352294,54.860255)" />   <use xlink:href="#dot" transform="translate(14.172747,55.747245)" />   <use xlink:href="#dot" transform="translate(13.606907,55.491182)" />   <use xlink:href="#dot" transform="translate(9.551939,52.461384)" />   <use xlink:href="#dot" transform="translate(11.857408,48.155209)" />   <use xlink:href="#dot" transform="translate(14.720833,55.085605)" />   <use xlink:href="#dot" transform="translate(15.478969,56.163045)" />   <use xlink:href="#dot" transform="translate(11.352294,54.860255)" />   <use xlink:href="#dot" transform="translate(11.453533,53.56118)" />   <use xlink:href="#dot" transform="translate(8.82562,49.9897)" />   <use xlink:href="#dot" transform="translate(10.328661,53.803696)" />   <use xlink:href="#dot" transform="translate(9.578821,54.483749)" />   <use xlink:href="#dot" transform="translate(8.82562,49.9897)" />   <use xlink:href="#dot" transform="translate(9.910612,52.009624)" />   <use xlink:href="#dot" transform="translate(11.466619,53.785683)" />   <use xlink:href="#dot" transform="translate(9.17438,49.9897)" />   <use xlink:href="#dot" transform="translate(10.690099,53.349663)" />   <use xlink:href="#dot" transform="translate(9.176027,50.439384)" />   <use xlink:href="#dot" transform="translate(9.551939,52.461384)" />   <use xlink:href="#dot" transform="translate(12.478398,48.163071)" />   <use xlink:href="#dot" transform="translate(11.427882,53.112144)" />   <use xlink:href="#dot" transform="translate(14.09136,55.648511)" />   <use xlink:href="#dot" transform="translate(13.685355,53.354389)" />   <use xlink:href="#dot" transform="translate(8.140115,49.312038)" />   <use xlink:href="#dot" transform="translate(10.690099,53.349663)" />   <use xlink:href="#dot" transform="translate(9.170441,48.865337)" />   <use xlink:href="#dot" transform="translate(11.577907,55.377885)" />   <use xlink:href="#dot" transform="translate(13.635986,55.5575)" />   <use xlink:href="#dot" transform="translate(14.268903,55.670474)" />   <use xlink:href="#dot" transform="translate(11.495385,55.370034)" />   <use xlink:href="#dot" transform="translate(10.328661,53.803696)" />   <use xlink:href="#dot" transform="translate(15.478475,56.162865)" />   <use xlink:href="#dot" transform="translate(8.484049,49.314083)" />   <use xlink:href="#dot" transform="translate(10.726624,54.248085)" />   <use xlink:href="#dot" transform="translate(13.828306,55.550427)" />   <use xlink:href="#dot" transform="translate(5.137975,51.635986)" />   <use xlink:href="#dot" transform="translate(11.729438,55.92172)" />   <use xlink:href="#dot" transform="translate(8.484049,49.314083)" />   <use xlink:href="#dot" transform="translate(9.964653,54.481285)" />   <use xlink:href="#dot" transform="translate(12.520115,54.010178)" />   <use xlink:href="#dot" transform="translate(8.823973,50.439384)" />   <use xlink:href="#dot" transform="translate(14.145106,55.715794)" />   <use xlink:href="#dot" transform="translate(11.298282,50.641678)" />   <use xlink:href="#dot" transform="translate(15.479356,56.16282)" />   <use xlink:href="#dot" transform="translate(11.166782,47.720413)" />   <use xlink:href="#dot" transform="translate(15.478475,56.162875)" />   <use xlink:href="#dot" transform="translate(15.479796,56.16318)" />   <use xlink:href="#dot" transform="translate(8.82562,49.9897)" />   <use xlink:href="#dot" transform="translate(9.910612,52.009624)" />   <use xlink:href="#dot" transform="translate(15.480506,56.163865)" />   <use xlink:href="#dot" transform="translate(13.710411,56.16347)" />   <use xlink:href="#dot" transform="translate(14.19437,55.721)" />   <use xlink:href="#dot" transform="translate(7.641286,47.586182)" />   <use xlink:href="#dot" transform="translate(8.833263,47.740753)" />   <use xlink:href="#dot" transform="translate(8.140115,49.312038)" />   <use xlink:href="#dot" transform="translate(11.882683,48.604473)" />   <use xlink:href="#dot" transform="translate(13.69214,55.556158)" />   <use xlink:href="#dot" transform="translate(13.808013,55.551255)" />   <use xlink:href="#dot" transform="translate(1.225,46.678)" />   <use xlink:href="#dot" transform="translate(8.833263,47.740753)" />   <use xlink:href="#dot" transform="translate(11.869967,48.379845)" />   <use xlink:href="#dot" transform="translate(15.479796,56.16318)" />   <use xlink:href="#dot" transform="translate(15.479122,56.163125)" />   <use xlink:href="#dot" transform="translate(9.959402,54.256634)" />   <use xlink:href="#dot" transform="translate(9.964653,54.481285)" />   <use xlink:href="#dot" transform="translate(5.131345,51.617937)" />   <use xlink:href="#dot" transform="translate(14.009092,55.524894)" />   <use xlink:href="#dot" transform="translate(11.602176,49.735741)" />   <use xlink:href="#dot" transform="translate(13.931585,55.451537)" />   <use xlink:href="#dot" transform="translate(9.833701,54.905717)" />   <use xlink:href="#dot" transform="translate(10.328661,53.803696)" />   <use xlink:href="#dot" transform="translate(9.915205,52.234364)" />   <use xlink:href="#dot" transform="translate(8.831068,48.415527)" />   <use xlink:href="#dot" transform="translate(9.833701,54.905717)" />   <use xlink:href="#dot" transform="translate(10.015259,54.954456)" />   <use xlink:href="#dot" transform="translate(11.298282,50.641678)" />   <use xlink:href="#dot" transform="translate(8.476869,49.988651)" />   <use xlink:href="#dot" transform="translate(8.831068,48.415527)" />   <use xlink:href="#dot" transform="translate(11.298282,50.641678)" />   <use xlink:href="#dot" transform="translate(10.825778,47.501392)" />   <use xlink:href="#dot" transform="translate(11.298282,50.641678)" />   <use xlink:href="#dot" transform="translate(9.910612,52.009624)" />   <use xlink:href="#dot" transform="translate(6.322901,51.083321)" />   <use xlink:href="#dot" transform="translate(8.831068,48.415527)" />   <use xlink:href="#dot" transform="translate(10.328661,53.803696)" />   <use xlink:href="#dot" transform="translate(13.879798,55.530563)" />   <use xlink:href="#dot" transform="translate(18.893052,48.876428)" />   <use xlink:href="#dot" transform="translate(9.166737,47.740753)" />   <use xlink:href="#dot" transform="translate(11.298282,50.641678)" />   <use xlink:href="#dot" transform="translate(8.484049,49.314083)" />   <use xlink:href="#dot" transform="translate(14.239609,55.618659)" />   <use xlink:href="#dot" transform="translate(11.298282,50.641678)" />   <use xlink:href="#dot" transform="translate(9.964653,54.481285)" />   <use xlink:href="#dot" transform="translate(8.831068,48.415527)" />   <use xlink:href="#dot" transform="translate(7.641286,47.586182)" />   <use xlink:href="#dot" transform="translate(9.901607,51.560116)" />   <use xlink:href="#dot" transform="translate(9.83811,54.898695)" />   <use xlink:href="#dot" transform="translate(8.115723,50.660992)" />   <use xlink:href="#dot" transform="translate(8.144005,49.087181)" />   <use xlink:href="#dot" transform="translate(9.915205,52.234364)" />   <use xlink:href="#dot" transform="translate(9.910612,52.009624)" />   <use xlink:href="#dot" transform="translate(9.910612,52.009624)" />   <use xlink:href="#dot" transform="translate(9.843574,54.902746)" />   <use xlink:href="#dot" transform="translate(9.842154,54.9027)" />   <use xlink:href="#dot" transform="translate(10.699045,53.57428)" />   <use xlink:href="#dot" transform="translate(9.176027,50.439384)" />   <use xlink:href="#dot" transform="translate(9.833701,54.905717)" />   <use xlink:href="#dot" transform="translate(9.910612,52.009624)" />   <use xlink:href="#dot" transform="translate(9.910612,52.009624)" />   <use xlink:href="#dot" transform="translate(9.181228,51.788227)" />   <use xlink:href="#dot" transform="translate(9.910612,52.009624)" />   <use xlink:href="#dot" transform="translate(9.166737,47.740753)" />   <use xlink:href="#dot" transform="translate(9.176027,50.439384)" />   <use xlink:href="#dot" transform="translate(11.087442,53.792889)" />   <use xlink:href="#dot" transform="translate(9.178577,51.113842)" />   <use xlink:href="#dot" transform="translate(9.834123,54.904855)" />   <use xlink:href="#dot" transform="translate(9.842105,54.902733)" />   <use xlink:href="#dot" transform="translate(11.298282,50.641678)" />   <use xlink:href="#dot" transform="translate(9.178577,51.113842)" />   <use xlink:href="#dot" transform="translate(8.823973,50.439384)" />   <use xlink:href="#dot" transform="translate(11.054648,53.119171)" />   <use xlink:href="#dot" transform="translate(11.298282,50.641678)" />   <use xlink:href="#dot" transform="translate(8.439459,53.135582)" />   <use xlink:href="#dot" transform="translate(9.181228,51.788227)" />   <use xlink:href="#dot" transform="translate(9.910612,52.009624)" />   <use xlink:href="#dot" transform="translate(9.910612,52.009624)" />   <use xlink:href="#dot" transform="translate(13.685355,53.354389)" />   <use xlink:href="#dot" transform="translate(9.8347,54.903111)" />   <use xlink:href="#dot" transform="translate(9.833701,54.905717)" />   <use xlink:href="#dot" transform="translate(9.910612,52.009624)" />   <use xlink:href="#dot" transform="translate(9.839149,54.89896)" />   <use xlink:href="#dot" transform="translate(9.834487,54.903264)" />   <use xlink:href="#dot" transform="translate(8.481686,49.538948)" />   <use xlink:href="#dot" transform="translate(9.910612,52.009624)" />   <use xlink:href="#dot" transform="translate(10.54059,49.08007)" />   <use xlink:href="#dot" transform="translate(8.816947,52.23777)" />   <use xlink:href="#dot" transform="translate(9.771884,54.92569)" />   <use xlink:href="#dot" transform="translate(9.833701,54.905717)" />   <use xlink:href="#dot" transform="translate(11.521602,48.163071)" />   <use xlink:href="#dot" transform="translate(8.439459,53.135582)" />   <use xlink:href="#dot" transform="translate(10.328661,53.803696)" />   <use xlink:href="#dot" transform="translate(12.309846,51.30788)" />   <use xlink:href="#dot" transform="translate(8.823973,50.439384)" />   <use xlink:href="#dot" transform="translate(9.910612,52.009624)" />   <use xlink:href="#dot" transform="translate(8.147846,48.862312)" />   <use xlink:href="#dot" transform="translate(6.645107,51.764774)" />   <use xlink:href="#dot" transform="translate(9.915205,52.234364)" />   <use xlink:href="#dot" transform="translate(9.833701,54.905717)" />   <use xlink:href="#dot" transform="translate(9.834487,54.903202)" />   <use xlink:href="#dot" transform="translate(9.178577,51.113842)" />   <use xlink:href="#dot" transform="translate(8.47193,50.438316)" />   <use xlink:href="#dot" transform="translate(9.178577,51.113842)" />   <use xlink:href="#dot" transform="translate(10.841565,47.951042)" />   <use xlink:href="#dot" transform="translate(9.834592,54.903382)" />   <use xlink:href="#dot" transform="translate(9.175199,50.214546)" />   <use xlink:href="#dot" transform="translate(13.309901,53.349663)" />   <use xlink:href="#dot" transform="translate(9.181228,51.788227)" />   <use xlink:href="#dot" transform="translate(13.908544,55.602474)" />   <use xlink:href="#dot" transform="translate(9.843574,54.902746)" />   <use xlink:href="#dot" transform="translate(9.178577,51.113842)" />   <use xlink:href="#dot" transform="translate(9.833701,54.905717)" />   <use xlink:href="#dot" transform="translate(8.823973,50.439384)" />   <use xlink:href="#dot" transform="translate(9.910612,52.009624)" /><polygon class="region" points="19.373853,46.893573 1.225,46.678 5.137975,51.635986 9.771884,54.92569 11.754186,55.942239 13.710411,56.16347 15.480506,56.163865 23.665976,52.932362 23.752714,52.729065 19.373853,46.893573 " />
		  </g>
		</svg>