<?xml version="1.0" encoding="UTF-8"?>
	<svg xmlns:xlink="http://www.w3.org/1999/xlink" 
	xmlns="http://www.w3.org/2000/svg" 
	width="360px" height="180px">
	   <style type="text/css">
		  <![CDATA[     
		  .region 
		  { 
			fill:blue; 
			opacity:0.4; 
			stroke:blue;
		  }
		  ]]>
	   </style>

	<circle id="dot" x="-2" y="-2" r="2" style="stroke:none; stroke-width:0; fill:black; opacity:0.7;"/>


	 <image x="0" y="0" width="360" height="180" xlink:href="map.jpg"/>

 
	 <g transform="translate(180,90) scale(1,-1)"><polygon class="region" points="-8.8463,39.029535593 -8.895,39.035535593 -8.9338,39.015635593 -9.0681,38.838335593 -9.1198,38.709035593 -9.4839,38.707635593 -9.4071,39.355235593 -9.07,39.582535593 -8.6087,40.727135593 -8.6562,40.858435593 -8.7224,40.667435593 -8.7514,40.646235593 -8.6431,41.145135593 -8.8938,42.108435593 -8.6062,42.288035593 -8.6074,42.347035593 -8.8646,42.254335593 -8.6602,42.419835593 -8.9353,42.462735593 -8.7406,42.651035593 -9.0357,42.521135593 -8.8758,42.822935593 -9.0844,42.739235593 -9.1708,42.943235593 -9.2654,42.882335593 -9.2049,43.157735593 -8.8366,43.345635593 -8.2997,43.403835593 -8.2052,43.282435593 -8.1664,43.414435593 -8.3071,43.443135593 -8.2027,43.458435593 -8.1578,43.505435593 -8.3306,43.456935593 -8.3171,43.566035593 -7.6768,43.791735593 -7.0494,43.481235593 -6.2358,43.598535593 -6.1021,43.485335593 -5.8444,43.661135593 -4.5085,43.383135593 -3.5872,43.513935593 -2.9783,43.310435593 -2.7501,43.453835593 -2.3496,43.301635593 -1.7891,43.356635593 -1.425,43.661435593 -1.2539,44.551135593 -1.0201,44.655335593 -1.1644,44.773335593 -1.2632,44.628435593 -1.1328,45.515435593 -1.061,45.567835593 -0.6775,45.077435593 -0.5586,45.035435593 -0.8241,45.489635593 -1.2346,45.688835593 -1.044,45.736435593 -1.1617,45.854235593 -0.9956,45.927335593 -1.2385,46.164635593 -1.1179,46.294535593 -1.8046,46.487035593 -2.1391,46.817035593 -1.9844,47.032435593 -2.2432,47.134535593 -2.009,47.316135593 -2.4915,47.269835593 -2.4778,47.512735593 -2.9102,47.540435593 -2.7331,47.540635593 -2.6566,47.609835593 -2.706,47.638435593 -2.9738,47.656635593 -3.1096,47.470035593 -3.1365,47.739335593 -3.2158,47.641035593 -3.3546,47.682935593 -3.2816,47.686335593 -3.2869,47.785035593 -3.8514,47.784435593 -4.1016,47.970535593 -4.1768,47.794835593 -4.3661,47.789635593 -4.4323,47.966835593 -4.7386,48.042135593 -4.2941,48.105535593 -4.5577,48.170635593 -4.6328,48.284435593 -4.5561,48.343035593 -4.5189,48.284535593 -4.1894,48.300035593 -4.4617,48.330435593 -4.2857,48.440635593 -4.7747,48.333435593 -4.7843,48.357335593 -4.7651,48.381435593 -4.7969,48.417335593 -4.7537,48.547135593 -4.0126,48.728835593 -3.6014,48.672435593 -3.5438,48.828235593 -3.0781,48.887435593 -2.6922,48.498035593 -2.3253,48.691235593 -2.2271,48.563935593 -1.8472,48.715635593 -1.3595,48.637835593 -1.5723,48.751235593 -1.5476,49.224835593 -1.8146,49.386735593 -1.9425,49.732635593 -1.2685,49.704235593 -1.1422,49.318535593 -0.2284,49.269335593 0.433,49.456035593 0.069,49.517135593 0.2107,49.717435593 1.6714,50.186535593 1.5431,50.281635593 1.583,50.872535593 3.5115,51.410035593 4.239,51.352235593 3.6925,51.448335593 4.2746,51.448135593 4.0522,51.551035593 4.9189,51.798635593 5.3044,52.293135593 5.8501,52.461535593 5.8551,52.607735593 5.673,52.607735593 6.4838,53.050535593 8.0488,53.113135593 8.7999,53.363535593 9.2131,53.864635593 9.5913,53.588935593 9.8291,53.534335593 9.2208,53.890335593 9.3633,54.365035593 9.1129,55.241435593 9.4259,55.742235593 10.2396,56.430735593 10.5526,56.305535593 10.2396,56.180335593 10.0928,55.886835593 9.8578,55.855235593 10.0517,55.829435593 10.0346,55.700135593 9.5445,55.707835593 9.8618,55.628035593 9.5018,55.495835593 9.6953,55.461635593 9.5158,55.252435593 9.7168,55.239035593 9.4281,55.027335593 9.7822,54.910935593 9.7443,54.840435593 9.6307,54.936335593 9.4233,54.832335593 9.96,54.782135593 10.0288,54.552935593 9.842,54.472435593 10.1992,54.456935593 10.1318,54.316335593 10.3069,54.436335593 10.7107,54.306435593 11.1357,54.390335593 11.0951,54.195435593 10.7589,54.053235593 10.8897,53.979335593 10.776,53.890935593 11.1785,54.014135593 11.4614,53.900135593 11.6912,54.153835593 12.0868,54.183935593 12.0899,54.111435593 12.1235,54.092135593 12.1531,54.094335593 12.0966,54.178035593 12.5283,54.485335593 12.9284,54.429235593 12.6966,54.433235593 12.4381,54.380435593 12.3665,54.268235593 13.0279,54.439235593 13.1065,54.284135593 13.4603,54.088135593 13.4965,54.125435593 13.7243,54.163735593 13.7466,54.028035593 13.9165,53.919935593 13.8242,53.872935593 13.8227,53.840635593 14.5809,53.582235593 14.5382,53.702335593 14.7609,53.926735593 14.8017,54.032135593 14.7312,54.024635593 17.981,54.833335593 18.3319,54.836035593 18.7845,54.652435593 18.3947,54.743735593 18.7815,54.354235593 19.6623,54.454935593 19.2319,54.339435593 19.3731,54.223135593 19.794,54.443535593 22.846,54.426935593 23.5244,54.125435593 25.2549,54.709235593 27.5332,53.025335593 31.0001,51.613835593 32.065,52.431035593 35.3585,52.331935593 36.1758,51.737635593 36.0285,50.622835593 36.25,50.004135593 35.1604,48.394535593 33.7241,48.072635593 34.0954,47.553035593 32.7087,46.686335593 32.3847,46.102235593 31.7801,46.273335593 32.0659,46.394635593 31.7089,46.436935593 31.5386,46.548435593 31.5139,46.575135593 32.3253,46.464535593 32.4231,46.497735593 31.9973,46.646535593 31.9752,46.879035593 31.879,46.634135593 31.4303,46.632935593 31.5044,46.663035593 31.6075,46.813835593 31.5915,46.851535593 31.4172,46.813535593 31.4116,46.625535593 30.7512,46.540035593 30.4712,46.075735593 30.2476,45.886135593 29.7277,45.587335593 29.8806,45.678135593 29.7401,45.615735593 29.6389,45.831735593 29.6004,45.565935593 29.7176,45.579335593 29.6077,45.481835593 29.7681,45.333635593 29.6147,44.862935593 29.0966,44.757135593 28.656,44.339735593 28.5903,43.492135593 28.0973,43.375235593 27.907,43.193635593 27.9073,42.710135593 27.4551,42.481435593 27.7364,42.412235593 28.224,41.532035593 29.1127,41.244835593 28.9978,41.019135593 27.5214,40.982735593 27.3181,40.711135593 26.7097,40.461935593 26.1953,40.044635593 26.2191,40.324535593 26.8201,40.653635593 26.1193,40.604135593 25.9524,40.850635593 25.1413,41.011735593 24.8097,40.854035593 24.4335,40.946235593 23.7036,40.699035593 23.9219,40.546235593 23.8857,40.409935593 24.0218,40.457735593 24.4049,40.145435593 23.7421,40.360035593 24.0033,40.114135593 23.9362,39.939135593 23.663,40.231435593 23.3469,40.232335593 23.7106,39.909535593 23.3602,39.957035593 23.3195,40.231535593 22.9005,40.382335593 22.9544,40.637635593 22.6446,40.548335593 22.5979,40.023235593 23.3532,39.189635593 23.2054,39.100135593 23.0602,39.096035593 23.2203,39.192335593 22.9388,39.361635593 22.8228,39.222235593 23.0583,39.020735593 22.5245,38.860435593 23.3146,38.644935593 23.3339,38.502735593 24.0831,38.170435593 24.0301,37.652235593 23.5308,38.047235593 22.9969,37.881935593 23.5184,37.432135593 23.2701,37.402835593 23.1699,37.288635593 23.1229,37.451435593 22.7213,37.561735593 23.1977,36.438235593 22.6278,36.808835593 22.4831,36.387935593 22.1197,37.031235593 21.9327,36.984435593 21.8838,36.721235593 21.7058,36.819735593 21.5727,37.067435593 21.6529,37.436535593 21.1063,37.853335593 21.3713,38.215635593 21.6093,38.146435593 21.9503,38.332135593 22.8776,37.938935593 23.2275,38.154735593 22.6595,38.385335593 22.5538,38.286735593 22.4178,38.442435593 21.4908,38.301035593 21.3183,38.497235593 21.3366,38.385835593 21.2371,38.321535593 21.1411,38.305635593 21.1011,38.552235593 20.7326,38.855435593 20.7712,38.957035593 21.1736,38.869035593 21.1184,39.041235593 20.7307,38.952535593 19.9844,39.689935593 19.8726,40.041035593 19.4821,40.219935593 19.3032,40.427335593 19.4934,40.352535593 19.3216,40.655735593 19.3951,40.910535593 19.4228,40.917135593 19.4304,40.936435593 19.4609,40.946435593 19.4432,40.878535593 19.5361,40.912835593 19.4013,41.414435593 19.6172,41.617035593 19.6012,41.813835593 19.1769,41.937035593 18.5454,42.418135593 18.706,42.394635593 18.7584,42.490335593 18.5123,42.458335593 18.5227,42.394435593 17.8927,42.788235593 17.0036,43.007835593 17.2789,43.006435593 17.4747,42.911135593 17.6899,42.855535593 17.7144,42.877235593 16.885,43.399635593 15.9609,43.502535593 15.9559,43.686535593 15.8448,43.776035593 15.9991,43.804735593 15.9791,43.905235593 15.8281,43.843735593 15.8489,43.724635593 15.2233,44.111835593 15.1085,44.262835593 15.2917,44.245735593 15.3029,44.285935593 15.2588,44.319935593 15.2721,44.332635593 15.6266,44.146135593 14.9873,44.576835593 14.8447,45.113135593 14.5435,45.303535593 14.3242,45.350635593 13.9051,44.770035593 13.5194,45.436435593 14.058,45.539035593 14.2458,45.789435593 14.1206,45.914635593 11.8045,47.103935593 10.9908,47.291735593 8.6121,47.103935593 7.861,46.853535593 6.7342,46.102435593 6.4213,44.913035593 5.9834,44.724635593 5.212,44.594935593 5.0589,45.621735593 4.9238,45.720835593 4.2752,44.730035593 3.1663,44.474935593 2.5403,44.099335593 0.4503,44.563535593 -0.9386,44.283535593 -1.1966,43.937735593 -1.1802,43.564435593 -0.2085,43.196635593 0.0553,42.756635593 -0.3818,41.736735593 -2.7925,39.418735593 -2.6601,39.127335593 -1.8653,38.822735593 -1.7064,38.584235593 -1.9316,38.292835593 -2.4614,38.465035593 -3.6535,38.425335593 -4.1171,38.094235593 -5.8788,37.471635593 -6.3688,37.471635593 -6.7397,37.696835593 -6.9626,38.615735593 -7.918,38.860135593 -8.4512,38.495735593 -8.7988,37.448235593 -8.7253,37.678735593 -8.8892,37.957035593 -8.7721,38.283135593 -8.9055,38.490935593 -8.8004,38.404035593 -8.6222,38.406135593 -8.7435,38.559435593 -9.2167,38.417335593 -9.2661,38.668535593 -9.0439,38.602735593 -8.9775,38.945135593 -8.9149,39.020735593 -8.8158,39.027035593 -8.7525,39.066135593 -8.7185,39.112135593 -8.8463,39.029535593 " /><polygon class="region" points="-4.7741,48.365435593 -4.7613,48.363535593 -4.7571,48.364735593 -4.766,48.368135593 -4.7741,48.365435593 " /><polygon class="region" points="19.6414,49.742435593 18.1705,49.619935593 18.0071,49.238535593 18.1296,48.761935593 18.6063,48.394135593 19.3281,48.353335593 21.3982,48.789135593 22.9367,48.489035593 23.1142,48.285235593 23.1142,47.713235593 22.3924,47.032235593 22.0519,46.147035593 21.7523,45.084735593 21.8477,44.717035593 22.6376,44.771535593 23.5773,45.084735593 26.1649,45.084735593 26.6824,45.384335593 26.5871,46.541935593 26.0435,47.669835593 25.089,48.448635593 23.1823,49.265835593 19.6414,49.742435593 " /><polygon class="region" points="26.7265,40.396835593 27.288,40.480435593 27.769,40.318135593 27.8835,40.383935593 27.6951,40.485835593 27.782,40.535435593 28.0374,40.489235593 27.9602,40.361035593 29.0598,40.370635593 29.1552,40.445235593 28.7856,40.544735593 29.9456,40.749635593 29.2659,40.811635593 29.0184,41.016235593 29.1571,41.224735593 31.2332,41.104035593 31.4049,41.323735593 32.2769,41.722935593 33.3394,42.025335593 34.7168,41.946835593 35.0183,42.096135593 35.2216,42.015735593 35.0921,41.917735593 35.2943,41.709535593 36.068,41.684235593 36.4031,41.250035593 36.8123,41.358735593 37.53,41.021035593 37.6884,41.134235593 38.3549,40.908735593 39.4258,41.105535593 40.1825,40.912535593 41.4014,41.377935593 41.7158,41.705835593 41.7583,42.009235593 41.4332,42.739035593 40.8654,43.073535593 40.2949,43.170835593 38.7799,44.281935593 38.2079,44.413435593 37.7972,44.734035593 37.4576,44.705535593 37.2168,45.000035593 36.5997,45.189235593 36.9836,45.336635593 40.0995,44.592335593 41.9682,45.042635593 44.6474,43.736735593 45.6381,43.511635593 46.7188,43.826835593 47.4617,43.736735593 47.4842,42.948735593 48.9252,41.462835593 48.9027,41.215135593 49.2854,40.719835593 48.4073,40.652335593 45.6643,41.444135593 45.9946,40.854935593 46.8727,40.247035593 47.0078,39.931835593 46.9265,39.701235593 46.5491,39.512535593 46.1246,39.771935593 45.8149,40.282735593 45.0933,40.617535593 44.8509,41.092835593 43.7693,40.854935593 42.8766,41.515535593 42.5803,41.504735593 42.0167,41.324435593 40.8668,40.298635593 38.3981,39.498235593 36.6282,38.449835593 34.2731,37.450335593 33.8903,37.043735593 31.8804,36.589035593 30.6794,36.887135593 30.4173,36.208235593 30.1883,36.305035593 29.6807,36.121335593 29.1192,36.374835593 29.0958,36.682135593 28.9287,36.754635593 28.8476,36.590235593 28.4611,36.882135593 28.034,36.563435593 28.1197,36.807535593 27.6774,36.659435593 27.3666,36.685035593 28.0341,36.788935593 28.0254,36.930235593 28.3315,37.050435593 27.2652,36.968135593 27.2551,37.127235593 27.4705,37.083835593 27.6131,37.274435593 27.4591,37.253735593 27.4156,37.415235593 27.1907,37.355035593 27.2168,37.588635593 27.0068,37.666035593 27.2398,37.732835593 27.2719,37.966235593 26.2342,38.275935593 26.5161,38.428035593 26.3935,38.450935593 26.4157,38.682235593 26.6781,38.315835593 26.7111,38.434735593 26.8128,38.359635593 27.1683,38.449935593 26.7233,38.652335593 27.0654,38.881035593 26.8196,38.943335593 26.8884,39.089735593 26.6107,39.281335593 26.9373,39.575235593 26.064,39.485435593 26.1828,40.000035593 26.7265,40.396835593 " /><polygon class="region" points="24.9801,45.749035593 23.3156,45.726435593 23.1523,45.907935593 23.3156,46.579435593 23.7331,47.160135593 24.2775,47.287235593 25.6023,46.270935593 25.4571,45.907935593 24.9801,45.749035593 " /><polygon class="region" points="48.3139,38.974335593 48.3529,39.169535593 48.7823,38.675135593 49.0965,37.578335593 49.8395,37.401435593 50.9599,36.729235593 51.7265,36.540535593 53.7432,36.646735593 53.6488,36.068835593 53.3776,35.927335593 52.894,36.009835593 51.8916,36.399035593 51.1014,36.422635593 50.382,36.858935593 49.2381,37.035835593 48.6248,37.755335593 48.47,38.649035593 48.0276,38.857235593 48.3139,38.974335593 " /><polygon class="region" points="23.7842,35.552935593 24.1704,35.595735593 24.0727,35.493035593 24.329,35.353835593 25.7717,35.343135593 25.8134,35.114535593 26.3067,35.317635593 26.317,35.185135593 26.1321,35.002135593 24.7386,34.925135593 24.7398,35.082035593 24.3913,35.193835593 23.5894,35.234235593 23.5967,35.627435593 23.7148,35.509635593 23.7473,35.692735593 23.7842,35.552935593 " /><polygon class="region" points="33.8565,44.952535593 34.6284,45.193835593 35.0305,45.049035593 34.1259,44.431235593 33.7401,44.391635593 33.3817,44.588835593 33.8565,44.952535593 " /><polygon class="region" points="23.3241,39.039435593 23.5916,38.767135593 24.1509,38.657635593 24.2516,38.235335593 24.5866,38.161635593 24.558,37.981535593 24.2033,38.093635593 24.0522,38.391735593 23.6526,38.402735593 23.6008,38.571235593 23.202,38.836535593 22.8337,38.832535593 23.3241,39.039435593 " /><polygon class="region" points="14.3189,55.491135593 14.1742,55.377335593 12.9969,55.392635593 13.9954,55.867335593 14.2472,55.867335593 14.3189,55.491135593 " /><polygon class="region" points="10.1857,55.592135593 10.8165,55.204935593 10.7789,55.103235593 10.0789,55.076235593 10.175,55.128735593 9.9781,55.135935593 9.6806,55.516435593 10.1857,55.592135593 " /><polygon class="region" points="11.1614,54.955135593 11.7466,54.874335593 11.8641,54.686535593 11.4993,54.597235593 10.9637,54.802935593 11.1541,54.808835593 11.0198,54.888235593 11.1614,54.955135593 " /><polygon class="region" points="13.356,54.552435593 13.3506,54.519035593 13.5067,54.485235593 13.2827,54.646035593 13.2272,54.587535593 13.1606,54.566935593 13.2554,54.661235593 13.4309,54.683835593 13.6662,54.574735593 13.5729,54.469235593 13.7673,54.342735593 13.728,54.275435593 13.1422,54.282635593 13.273,54.481035593 13.1387,54.542435593 13.356,54.552435593 " /><polygon class="region" points="12.366,55.249235593 12.0327,55.165635593 12.1854,55.112335593 12.0505,54.959635593 11.6579,55.074235593 11.8297,55.041235593 11.7265,55.109735593 12.3148,55.402635593 12.4566,55.332635593 12.366,55.249235593 " /><polygon class="region" points="14.6176,53.838535593 13.8288,53.849635593 14.0483,53.994035593 13.7725,54.018135593 13.7536,54.157135593 14.3237,53.910135593 14.7625,54.023435593 14.6176,53.838535593 " /><polygon class="region" points="14.8793,55.235435593 15.1584,55.130835593 15.1213,55.015035593 14.6847,55.096535593 14.7517,55.289535593 14.8793,55.235435593 " /><polygon class="region" points="20.5422,38.471035593 20.8168,38.120035593 20.7926,38.064235593 20.5156,38.103535593 20.449,38.281735593 20.3396,38.181535593 20.5422,38.471035593 " /><polygon class="region" points="11.8257,54.964835593 12.1701,54.833535593 11.9766,54.562635593 11.9144,54.718535593 11.7062,54.931535593 11.8257,54.964835593 " /><polygon class="region" points="19.7924,39.792035593 19.9527,39.780235593 19.8437,39.659435593 20.1081,39.364335593 19.6339,39.753635593 19.7924,39.792035593 " /><polygon class="region" points="25.4354,40.017935593 25.349,39.782235593 25.2535,39.915935593 25.0463,39.835535593 25.0376,39.992935593 25.4354,40.017935593 " /><polygon class="region" points="14.5417,45.236935593 14.5929,45.237435593 14.8218,44.975535593 14.4331,45.073735593 14.5417,45.236935593 " /><polygon class="region" points="14.3877,44.957735593 14.3205,45.175935593 14.4822,44.964335593 14.4939,44.606935593 14.2944,44.913235593 14.3877,44.957735593 " /><polygon class="region" points="16.4389,43.391635593 16.8153,43.353235593 16.8969,43.301635593 16.5326,43.269235593 16.4389,43.391635593 " /><polygon class="region" points="9.7055,55.078835593 9.9595,55.011935593 10.0723,54.875735593 9.7877,54.906935593 9.8862,54.970735593 9.7055,55.078835593 " /><polygon class="region" points="20.7208,37.892035593 20.9094,37.807035593 20.9934,37.700235593 20.8094,37.654635593 20.6259,37.821135593 20.7208,37.892035593 " /><polygon class="region" points="24.6544,40.806235593 24.7895,40.741335593 24.6486,40.578335593 24.5153,40.664735593 24.6544,40.806235593 " /><polygon class="region" points="10.8866,54.984135593 10.7227,54.731235593 10.5927,54.845235593 10.9509,55.162835593 10.8866,54.984135593 " /><polygon class="region" points="24.7343,37.990035593 24.9567,37.900435593 24.9589,37.688935593 24.7109,37.878135593 24.7343,37.990035593 " /><polygon class="region" points="16.5516,43.234635593 16.6984,43.163235593 17.1944,43.124635593 16.687,43.120835593 16.3733,43.195135593 16.5516,43.234635593 " /><polygon class="region" points="14.8416,44.612735593 14.9543,44.582035593 15.2526,44.327435593 15.1041,44.319335593 14.7334,44.704335593 14.8416,44.612735593 " /><polygon class="region" points="20.6794,38.837335593 20.7302,38.637835593 20.5498,38.567735593 20.6003,38.778535593 20.6794,38.837335593 " /><polygon class="region" points="12.2427,55.050735593 12.5235,55.008235593 12.5564,54.958735593 12.1061,54.902835593 12.3555,54.983335593 12.2427,55.050735593 " /><polygon class="region" points="25.9097,40.241835593 26.0155,40.154235593 25.6685,40.129935593 25.7872,40.216735593 25.9097,40.241835593 " /><polygon class="region" points="16.6573,42.990835593 17.0388,42.979335593 17.2014,42.917835593 16.661,42.916735593 16.6573,42.990835593 " /><polygon class="region" points="23.0998,36.235435593 22.941,36.162635593 22.9253,36.380535593 22.9546,36.384735593 23.0998,36.235435593 " /><polygon class="region" points="11.2287,54.506035593 11.3154,54.402935593 11.0099,54.445335593 11.0689,54.535735593 11.2287,54.506035593 " /><polygon class="region" points="24.4618,38.967235593 24.5861,38.926735593 24.6817,38.777635593 24.5368,38.784735593 24.4618,38.967235593 " /><polygon class="region" points="24.9745,37.671435593 25.2369,37.626235593 25.2506,37.576535593 25.1684,37.532035593 24.9745,37.671435593 " /><polygon class="region" points="25.5004,40.509435593 25.6643,40.500035593 25.6961,40.431335593 25.5537,40.412035593 25.5004,40.509435593 " /><polygon class="region" points="24.325,37.682035593 24.4113,37.651235593 24.2782,37.522235593 24.2711,37.616435593 24.325,37.682035593 " /><polygon class="region" points="10.5268,54.848435593 10.4178,54.818235593 10.2072,54.969935593 10.3729,54.884435593 10.5268,54.848435593 " /><polygon class="region" points="10.5288,54.992835593 10.6254,55.056535593 10.6962,54.994035593 10.5577,54.942635593 10.5288,54.992835593 " /><polygon class="region" points="20.6528,38.499735593 20.7107,38.436835593 20.6784,38.372935593 20.7691,38.320735593 20.7008,38.314935593 20.6195,38.464635593 20.6528,38.499735593 " /><polygon class="region" points="24.4305,37.445435593 24.4852,37.400635593 24.3695,37.306535593 24.3746,37.436335593 24.4305,37.445435593 " /><polygon class="region" points="23.4972,38.007035593 23.5691,37.947035593 23.4436,37.876935593 23.4193,37.983235593 23.4972,38.007035593 " /><polygon class="region" points="14.723,44.854735593 14.7609,44.843935593 14.8664,44.708935593 14.656,44.790835593 14.723,44.854735593 " /><polygon class="region" points="23.6135,39.204435593 23.7871,39.130335593 23.7822,39.106935593 23.6575,39.090135593 23.6135,39.204435593 " /><polygon class="region" points="25.314,37.491935593 25.4048,37.495935593 25.465,37.467435593 25.3113,37.404635593 25.314,37.491935593 " /><polygon class="region" points="23.4218,37.762735593 23.4879,37.777435593 23.565,37.770535593 23.4851,37.677535593 23.4218,37.762735593 " /><polygon class="region" points="24.9412,37.435635593 24.884,37.365335593 24.8781,37.515935593 24.939,37.491135593 24.9412,37.435635593 " /><polygon class="region" points="24.4747,37.209735593 24.534,37.192935593 24.5094,37.114735593 24.4188,37.127435593 24.4747,37.209735593 " /><polygon class="region" points="16.2062,43.414335593 16.3373,43.397435593 16.4,43.339535593 16.4006,43.328535593 16.2062,43.414335593 " /><polygon class="region" points="23.9473,39.275635593 23.9238,39.183835593 23.8309,39.143935593 23.9552,39.293035593 23.9473,39.275635593 " /><polygon class="region" points="23.4831,37.355435593 23.5836,37.363435593 23.3683,37.298635593 23.4488,37.346335593 23.4831,37.355435593 " /><polygon class="region" points="23.4466,39.204235593 23.5149,39.194935593 23.5103,39.163035593 23.3945,39.152635593 23.4466,39.204235593 " /><polygon class="region" points="24.9935,39.544035593 25.0561,39.529535593 24.9876,39.466935593 24.9729,39.497535593 24.9935,39.544035593 " /><polygon class="region" points="23.4871,37.542435593 23.5259,37.523835593 23.4275,37.521235593 23.477,37.558235593 23.4871,37.542435593 " /><polygon class="region" points="23.1002,37.281235593 23.1614,37.270235593 23.1692,37.245335593 23.1298,37.240135593 23.1002,37.281235593 " /><polygon class="region" points="24.1104,37.651735593 24.1086,37.686635593 24.1428,37.756635593 24.1558,37.723835593 24.1104,37.651735593 " /><polygon class="region" points="24.2821,37.990535593 24.2735,37.980435593 24.2321,37.988635593 24.2563,38.026335593 24.2821,37.990535593 " /><polygon class="region" points="24.7065,37.623535593 24.7434,37.596235593 24.6559,37.606235593 24.6867,37.609035593 24.7065,37.623535593 " /><polygon class="region" points="23.3369,37.338335593 23.3621,37.340235593 23.3117,37.321535593 23.2824,37.338335593 23.3369,37.338335593 " /><polygon class="region" points="23.3482,37.683035593 23.3409,37.714535593 23.3736,37.708335593 23.3744,37.698035593 23.3482,37.683035593 " /><polygon class="region" points="25.246,35.450335593 25.2457,35.426335593 25.1909,35.450935593 25.2217,35.468435593 25.246,35.450335593 " /><polygon class="region" points="23.9003,37.495335593 23.9309,37.486935593 23.9475,37.466835593 23.9177,37.463435593 23.9003,37.495335593 " /><polygon class="region" points="13.356,54.552435593 13.3772,54.561335593 13.3898,54.541535593 13.3589,54.547935593 13.356,54.552435593 " /><polygon class="region" points="10.9907,54.381835593 11.0256,54.382135593 11.0142,54.377335593 10.9907,54.381835593 " /><polygon class="region" points="13.6927,54.289735593 13.7036,54.280835593 13.6918,54.281735593 13.6927,54.289735593 " /><polygon class="region" points="-4.7864,48.372035593 -4.7776,48.366735593 -4.7887,48.365035593 -4.7864,48.372035593 " /><polygon class="region" points="26.7147,40.395535593 26.7265,40.396835593 26.7112,40.391035593 26.7147,40.395535593 " /><polygon class="region" points="20.2279,39.413035593 20.2318,39.406635593 20.2249,39.409735593 20.2279,39.413035593 " /><polygon class="region" points="10.1936,55.599735593 10.1996,55.593135593 10.1914,55.597135593 10.1936,55.599735593 " /><polygon class="region" points="-3.0898,48.867435593 -3.0814,48.862835593 -3.0842,48.861935593 -3.0898,48.867435593 " /><polygon class="region" points="10.5303,54.846835593 10.5339,54.849635593 10.5378,54.847635593 10.5303,54.846835593 " /><polygon class="region" points="25.4338,57.398235593 25.4587,57.276135593 24.6565,57.128335593 25.3375,57.517335593 25.4338,57.398235593 " />
		  </g>
		</svg>