<?xml version="1.0" encoding="UTF-8"?>
	<svg xmlns:xlink="http://www.w3.org/1999/xlink" 
	xmlns="http://www.w3.org/2000/svg" 
	width="360px" height="180px">
	   <style type="text/css">
		  <![CDATA[     
		  .region 
		  { 
			fill:blue; 
			opacity:0.4; 
			stroke:blue;
		  }
		  ]]>
	   </style>

	<circle id="dot" x="-2" y="-2" r="2" style="stroke:none; stroke-width:0; fill:black; opacity:0.7;"/>


	 <image x="0" y="0" width="360" height="180" xlink:href="map.jpg"/>

 
	 <g transform="translate(180,90) scale(1,-1)"><polygon class="region" points="-95.100317845,33.039143156 -94.045311077,32.879026832 -94.041704482,31.993673856 -93.587091523,31.167362487 -93.390914605,31.366868763 -92.947263057,31.346565773 -92.718883512,31.51773372 -92.658483589,31.387832021 -92.163807996,31.47174943 -91.991122084,31.225213832 -91.69092948,31.201922231 -91.662114421,30.970396038 -91.571418476,31.2271494 -91.226335618,31.371655686 -91.059737455,31.338211164 -91.060653365,30.999330754 -90.550063423,30.999839607 -90.549757889,31.349197366 -90.263625842,31.348415117 -90.263565143,31.00143589 -88.886141187,30.908809771 -88.88690436,30.422847332 -88.958068848,30.451807022 -89.018486664,30.40352011 -88.91333731,30.414551156 -88.859279142,30.390085752 -89.402549744,30.389989853 -89.43931573,30.184492565 -89.650840759,30.163650513 -90.151641938,30.400446146 -90.428077539,30.157400531 -90.135787895,30.019714271 -89.735534421,30.172708133 -89.852920849,29.997839007 -89.65134406,29.863296934 -89.572219567,29.995612725 -89.43913269,30.060819626 -89.339089324,29.777351434 -89.51864624,29.840925217 -89.422126622,29.728057173 -89.625984192,29.768426895 -89.562050922,29.654456735 -89.775596565,29.601094791 -88.995483807,29.173631879 -89.411361487,28.92028654 -89.462882402,29.248418828 -90.178382731,29.569616643 -90.042205823,29.442809027 -90.095543119,29.209632978 -89.951416274,29.256877801 -90.180862538,29.092865555 -90.511665629,29.35178223 -90.644722,29.130357738 -90.898300171,29.328683853 -91.022903442,29.30657959 -91.062011898,29.176523542 -91.013633504,29.339149111 -91.223091125,29.385475159 -91.26632685,29.471822896 -91.212921143,29.5812397 -91.249679565,29.629709244 -91.285758972,29.468397141 -91.42993136,29.515029677 -91.387466526,29.658932202 -91.438354541,29.535911149 -91.55258186,29.514257235 -91.577827454,29.750379932 -91.863418609,29.698312806 -91.942359646,29.836402846 -92.207145864,29.744705443 -92.041809271,29.582624503 -92.611999512,29.573087692 -93.335884094,29.760456085 -93.235656738,29.867378235 -93.311561537,30.065080831 -93.440040718,29.861100926 -93.346267989,29.752508579 -93.831283454,29.688667415 -93.745399475,29.996528625 -93.859992981,29.988136292 -93.959198254,29.828220849 -93.835380554,29.67276001 -94.761054993,29.356880188 -94.46408844,29.553384781 -94.779106186,29.525667225 -94.728492818,29.784013696 -94.969436646,29.697025299 -95.077636735,29.540838175 -94.813568134,29.358127598 -95.216331482,29.22180748 -95.194587759,29.019142219 -95.392654528,28.862432493 -96.362861633,28.395338058 -95.976020851,28.653442694 -96.228660583,28.57314682 -96.148872375,28.757671356 -96.363761877,28.620517874 -96.389717102,28.72322464 -96.441604759,28.763859264 -96.374069492,28.617849554 -96.487442017,28.563159943 -96.661064118,28.717296845 -96.397338989,28.432983768 -96.665840048,28.309393235 -96.793823177,28.480274467 -96.782928467,28.224184036 -97.207855225,28.087966919 -97.037635797,28.110280489 -97.024833679,28.027610779 -97.391242981,27.811649323 -97.241531404,27.686931849 -97.41633606,27.317329407 -97.613601748,27.278434651 -97.671394413,27.370870825 -97.77837379,27.451158367 -97.653267082,27.299329464 -97.775512695,27.270088196 -97.4234237,27.25966984 -97.586204527,26.847568042 -97.461967468,26.364933014 -97.143371721,25.964863336 -97.203147947,25.628858891 -97.529602051,25.015586881 -97.396232599,25.405921952 -97.546920776,25.462064743 -97.567512512,25.276086807 -97.72181709,25.428918523 -97.762832642,25.365514755 -97.770256079,24.952785336 -97.642143766,24.922103365 -97.786376987,24.773143809 -97.74320989,24.483138851 -97.863861053,24.558458471 -97.776275635,23.999998093 -97.740707437,24.022296558 -97.744598338,24.220773798 -97.675804154,24.511430667 -97.855293215,22.558431731 -97.722732615,21.998805465 -97.331573516,21.575891526 -97.419517415,21.216293364 -97.187011861,20.705789658 -96.396547419,19.73430058 -97.510254799,19.634321534 -98.951361652,20.812473781 -99.182533696,21.266440784 -99.081393769,21.729173494 -99.42294572,24.120037145 -100.315191704,25.835906805 -99.579362244,27.618093494 -100.287231454,28.277471291 -100.674674968,29.102411327 -101.40336987,29.770597698 -102.31425471,29.879465027 -102.671072912,29.743692076 -102.86749613,29.221909754 -103.149513231,28.975682655 -103.719078106,29.182949259 -103.795618935,30.397461523 -103.44215767,30.663495578 -102.570946146,30.057124483 -102.571555486,30.279594798 -102.371655681,30.282264494 -102.372890188,30.599734933 -101.768277443,30.660006916 -101.645554913,30.556276136 -101.757628708,30.288316588 -100.949935086,30.290036451 -100.957387107,30.703846039 -100.116407563,30.704732379 -100.237362599,32.082180129 -98.925022627,32.080951792 -98.476922347,32.298249112 -98.576381398,32.954588696 -98.426651098,33.005435664 -96.298906202,32.982232726 -96.301592096,32.842905059 -96.077210602,32.839497966 -95.939869875,32.981865737 -95.100317845,33.039143156 " /><polygon class="region" points="-92.066724331,33.011515572 -92.988632893,33.016720137 -92.978309916,33.375527844 -92.224426427,33.253438331 -92.066724331,33.011515572 " /><polygon class="region" points="-106.372709589,32.00158479 -105.997285212,32.0018273 -105.94900359,31.409510122 -106.635436524,31.869305763 -106.618735438,32.001025104 -106.372709589,32.00158479 " /><polygon class="region" points="-96.885700759,33.881692713 -96.416400534,33.770425742 -96.382703689,33.399338327 -96.94479024,33.417044057 -96.885700759,33.881692713 " /><polygon class="region" points="-92.064534765,33.008787993 -91.43762323,33.005598135 -91.437630868,33.000093391 -91.655688286,32.622986116 -91.912043771,32.50755454 -92.064534765,33.008787993 " /><polygon class="region" points="-89.403543347,31.794782482 -88.945205719,31.821970337 -88.94383269,31.433656114 -89.397623368,31.434285768 -89.403543347,31.794782482 " /><polygon class="region" points="-91.897300809,29.638757741 -91.811225837,29.559859729 -91.706360171,29.552559063 -92.027809063,29.571901525 -91.897300809,29.638757741 " /><polygon class="region" points="-91.2317736,29.352201589 -91.194396973,29.25528717 -91.13394928,29.211111069 -91.263313204,29.23103723 -91.343483172,29.297889507 -91.355804443,29.328193665 -91.2317736,29.352201589 " /><polygon class="region" points="-90.917662668,29.191789873 -90.854606628,29.189872742 -90.841469028,29.140695796 -90.886848556,29.11584671 -90.917662668,29.191789873 " /><polygon class="region" points="-89.724676499,30.022265814 -89.773566923,30.065776992 -89.676811218,30.104581833 -89.727760315,30.057209015 -89.724676499,30.022265814 " /><polygon class="region" points="-90.990402222,29.220638275 -90.961479808,29.17670371 -91.009414673,29.168811798 -91.025260716,29.211782121 -90.990402222,29.220638275 " /><polygon class="region" points="-89.668425705,30.137252849 -89.639648438,30.136207581 -89.731712225,30.110258227 -89.723091297,30.121625344 -89.668425705,30.137252849 " /><polygon class="region" points="-90.897926197,29.212618775 -90.942123583,29.171592851 -90.9643247,29.186355514 -90.934631123,29.21541352 -90.897926197,29.212618775 " />
		  </g>
		</svg>