<?xml version="1.0" encoding="UTF-8"?>
	<svg xmlns:xlink="http://www.w3.org/1999/xlink" 
	xmlns="http://www.w3.org/2000/svg" 
	width="360px" height="180px">
	   <style type="text/css">
		  <![CDATA[     
		  .region 
		  { 
			fill:blue; 
			opacity:0.4; 
			stroke:blue;
		  }
		  ]]>
	   </style>

	<circle id="dot" x="-2" y="-2" r="2" style="stroke:none; stroke-width:0; fill:black; opacity:0.7;"/>


	 <image x="0" y="0" width="360" height="180" xlink:href="map.jpg"/>

 
	 <g transform="translate(180,90) scale(1,-1)"><polygon class="region" points="-37.100746155,-11.076663971 -38.317596436,-12.934181213 -38.532100677,-13.016701698 -38.49805069,-12.721985817 -38.648094177,-12.620979309 -38.80368042,-12.835187912 -38.734241486,-13.022317886 -38.685787201,-12.878168106 -38.58959198,-12.972101212 -38.944084167,-13.2433424 -38.886226654,-13.659123421 -39.075248718,-13.88656044 -38.921916962,-13.919828415 -39.061450958,-14.715538025 -38.857074738,-15.86001873 -39.212112427,-17.154607773 -39.135345459,-17.691141129 -39.562931061,-18.090854645 -39.721466064,-18.492767334 -39.80519104,-19.650215149 -40.151313782,-19.956037521 -40.401931763,-20.605695724 -40.756248474,-20.866031647 -41.065460205,-21.495420456 -40.990142822,-22.013877869 -41.96181488,-22.538225174 -41.863887787,-22.758634567 -42.017993927,-22.997972488 -43.049945831,-22.981931686 -43.083713531,-22.679719925 -43.287204742,-22.806335449 -43.155788422,-22.783943176 -43.187030792,-22.995481491 -43.549385071,-23.080722809 -44.001308441,-23.100046158 -43.555473328,-23.054826736 -43.839683533,-22.906253815 -44.233558655,-23.060422897 -44.406982422,-22.945045471 -44.712490082,-23.18970108 -44.497821808,-23.302398682 -45.050430298,-23.417833328 -45.409679413,-23.631856918 -45.411937714,-23.824636459 -45.93429184,-23.771089554 -46.936599731,-24.281074524 -47.859535217,-24.996442795 -48.212669373,-25.470071793 -48.121013641,-25.26684761 -48.316940308,-25.363388062 -48.433383942,-25.236698151 -48.476154327,-25.485044479 -48.738864899,-25.37392807 -48.349964142,-25.580591202 -48.585708618,-26.171947479 -48.713733673,-26.242883682 -48.794532776,-26.072647095 -48.837348938,-26.156553268 -48.723125458,-26.361555099 -48.493301392,-26.224025726 -48.695358276,-26.657737732 -48.606872559,-27.122493744 -48.469459534,-27.147735596 -48.616306305,-27.268762589 -48.646194458,-28.231969833 -48.81319809,-28.605062485 -49.618852801,-29.211160539 -49.745406043,-29.168976125 -49.217860168,-27.086558196 -49.217860168,-26.114763163 -48.745845437,-23.75468951 -48.468189714,-23.28267478 -47.885112694,-22.533004325 -46.413537357,-21.394615858 -42.109873638,-18.39593404 -40.638298302,-16.119157105 -39.777565558,-12.620694985 -38.389286939,-11.232416366 -37.528554195,-10.899229497 -37.100746155,-11.076663971 " /><polygon class="region" points="-55.657527864,-27.822038652 -55.716071586,-27.576155021 -55.364809256,-27.207329574 -54.527634037,-26.914610966 -54.410546593,-26.738979801 -54.613915543,-26.056209795 -54.538556909,-25.199939784 -54.372269542,-24.950508732 -53.977337044,-24.929722811 -53.665548229,-25.387013072 -53.623976387,-26.634168329 -54.247554016,-27.278531879 -55.657527864,-27.822038652 " /><polygon class="region" points="-55.951999534,-26.904385302 -56.263788348,-26.945957143 -56.450861637,-26.800455697 -56.513219399,-26.197663989 -56.035143218,-25.844303333 -55.577852957,-25.802731491 -55.43235151,-26.260021752 -55.577852957,-26.634168329 -55.951999534,-26.904385302 " />
		  </g>
		</svg>