<?xml version="1.0" encoding="UTF-8"?>
	<svg xmlns:xlink="http://www.w3.org/1999/xlink" 
	xmlns="http://www.w3.org/2000/svg" 
	width="360px" height="180px">
	   <style type="text/css">
		  <![CDATA[     
		  .region 
		  { 
			fill:blue; 
			opacity:0.4; 
			stroke:blue;
		  }
		  ]]>
	   </style>

	<circle id="dot" x="-2" y="-2" r="2" style="stroke:none; stroke-width:0; fill:black; opacity:0.7;"/>


	 <image x="0" y="0" width="360" height="180" xlink:href="map.jpg"/>

 
	 <g transform="translate(180,90) scale(1,-1)">   <use xlink:href="#dot" transform="translate(-40.563056,-19.855)" />   <use xlink:href="#dot" transform="translate(-40.563056,-19.855)" />   <use xlink:href="#dot" transform="translate(-38.176914,-12.233903)" />   <use xlink:href="#dot" transform="translate(-47.001652,-24.312468)" />   <use xlink:href="#dot" transform="translate(-40.551111,-19.937778)" />   <use xlink:href="#dot" transform="translate(-47.001652,-24.312468)" />   <use xlink:href="#dot" transform="translate(-40.074722,-19.864722)" />   <use xlink:href="#dot" transform="translate(-40.074444,-19.864722)" />   <use xlink:href="#dot" transform="translate(-39.933333,-19.466667)" />   <use xlink:href="#dot" transform="translate(-39.933333,-19.466667)" />   <use xlink:href="#dot" transform="translate(-40.52,-19.96)" />   <use xlink:href="#dot" transform="translate(-40.52,-19.96)" />   <use xlink:href="#dot" transform="translate(-48.35,-23.4)" />   <use xlink:href="#dot" transform="translate(-48.35,-23.4)" />   <use xlink:href="#dot" transform="translate(-48.35,-23.4)" />   <use xlink:href="#dot" transform="translate(-48.35,-23.4)" />   <use xlink:href="#dot" transform="translate(-48.35,-23.4)" />   <use xlink:href="#dot" transform="translate(-40.600278,-19.935556)" />   <use xlink:href="#dot" transform="translate(-40.600278,-19.935556)" />   <use xlink:href="#dot" transform="translate(-40.600278,-19.935556)" />   <use xlink:href="#dot" transform="translate(-40.600278,-19.935556)" />   <use xlink:href="#dot" transform="translate(-40.600278,-19.935556)" />   <use xlink:href="#dot" transform="translate(-40.600278,-19.935556)" />   <use xlink:href="#dot" transform="translate(-40.600278,-19.935556)" />   <use xlink:href="#dot" transform="translate(-40.600278,-19.935556)" />   <use xlink:href="#dot" transform="translate(-40.600278,-19.935556)" />   <use xlink:href="#dot" transform="translate(-40.600278,-19.935556)" />   <use xlink:href="#dot" transform="translate(-40.600278,-19.935556)" />   <use xlink:href="#dot" transform="translate(-40.600278,-19.935556)" />   <use xlink:href="#dot" transform="translate(-40.600278,-19.935556)" />   <use xlink:href="#dot" transform="translate(-40.600278,-19.935556)" />   <use xlink:href="#dot" transform="translate(-40.600278,-19.935556)" />   <use xlink:href="#dot" transform="translate(-40.600278,-19.935556)" />   <use xlink:href="#dot" transform="translate(-40.600278,-19.935556)" />   <use xlink:href="#dot" transform="translate(-39.551111,-18.087222)" />   <use xlink:href="#dot" transform="translate(-40.600278,-19.935556)" />   <use xlink:href="#dot" transform="translate(-40.600278,-19.935556)" />   <use xlink:href="#dot" transform="translate(-40.072222,-19.391111)" />   <use xlink:href="#dot" transform="translate(-40.072222,-19.391111)" />   <use xlink:href="#dot" transform="translate(-47.819722,-22.25)" />   <use xlink:href="#dot" transform="translate(-40.533333,-19.95)" />   <use xlink:href="#dot" transform="translate(-39.732222,-18.593333)" />   <use xlink:href="#dot" transform="translate(-40.072222,-19.391111)" />   <use xlink:href="#dot" transform="translate(-40.533333,-19.95)" />   <use xlink:href="#dot" transform="translate(-39.778333,-19.118611)" />   <use xlink:href="#dot" transform="translate(-40.533333,-19.95)" />   <use xlink:href="#dot" transform="translate(-40.072222,-19.391111)" />   <use xlink:href="#dot" transform="translate(-40.072222,-19.391111)" />   <use xlink:href="#dot" transform="translate(-40.072222,-19.391111)" />   <use xlink:href="#dot" transform="translate(-39.958333,-19.422222)" />   <use xlink:href="#dot" transform="translate(-39.958333,-19.422222)" />   <use xlink:href="#dot" transform="translate(-40.600278,-19.935556)" />   <use xlink:href="#dot" transform="translate(-40.600278,-19.935556)" />   <use xlink:href="#dot" transform="translate(-40.600278,-19.935556)" />   <use xlink:href="#dot" transform="translate(-40.600278,-19.935556)" />   <use xlink:href="#dot" transform="translate(-40.600278,-19.935556)" />   <use xlink:href="#dot" transform="translate(-40.600278,-19.935556)" />   <use xlink:href="#dot" transform="translate(-40.600278,-19.935556)" />   <use xlink:href="#dot" transform="translate(-40.600278,-19.935556)" />   <use xlink:href="#dot" transform="translate(-40.072222,-19.391111)" />   <use xlink:href="#dot" transform="translate(-40.600278,-19.935556)" />   <use xlink:href="#dot" transform="translate(-39.551111,-18.087222)" />   <use xlink:href="#dot" transform="translate(-40.600278,-19.935556)" />   <use xlink:href="#dot" transform="translate(-40.600278,-19.935556)" />   <use xlink:href="#dot" transform="translate(-40.600278,-19.935556)" />   <use xlink:href="#dot" transform="translate(-40.600278,-19.935556)" />   <use xlink:href="#dot" transform="translate(-40.600278,-19.935556)" />   <use xlink:href="#dot" transform="translate(-40.600278,-19.935556)" />   <use xlink:href="#dot" transform="translate(-40.600278,-19.935833)" />   <use xlink:href="#dot" transform="translate(-45.069722,-23.430278)" />   <use xlink:href="#dot" transform="translate(-40.600278,-19.935556)" />   <use xlink:href="#dot" transform="translate(-40.600278,-19.935556)" />   <use xlink:href="#dot" transform="translate(-40.600278,-19.935556)" />   <use xlink:href="#dot" transform="translate(-47.23,-24.57)" />   <use xlink:href="#dot" transform="translate(-47.5518,-24.56737753649)" />   <use xlink:href="#dot" transform="translate(-47.49173,-24.324182123725)" />   <use xlink:href="#dot" transform="translate(-45.069722,-23.430278)" />   <use xlink:href="#dot" transform="translate(-45.069722,-23.430278)" />   <use xlink:href="#dot" transform="translate(-45.069722,-23.430278)" />   <use xlink:href="#dot" transform="translate(-45.069722,-23.430278)" />   <use xlink:href="#dot" transform="translate(-45.069722,-23.430278)" />   <use xlink:href="#dot" transform="translate(-45.069722,-23.430278)" />   <use xlink:href="#dot" transform="translate(-45.069722,-23.430278)" />   <use xlink:href="#dot" transform="translate(-46.941944,-22.372222)" />   <use xlink:href="#dot" transform="translate(-47.259722,-22.82)" />   <use xlink:href="#dot" transform="translate(-45.069722,-23.430278)" />   <use xlink:href="#dot" transform="translate(-46.13,-23.850278)" />   <use xlink:href="#dot" transform="translate(-46.26667,-24)" />   <use xlink:href="#dot" transform="translate(-46.26667,-24)" />   <use xlink:href="#dot" transform="translate(-46.26667,-24)" />   <use xlink:href="#dot" transform="translate(-46.26667,-24)" />   <use xlink:href="#dot" transform="translate(-46.419722,-23.89)" />   <use xlink:href="#dot" transform="translate(-46.26667,-24)" />   <use xlink:href="#dot" transform="translate(-43.2075,-22.903056)" />   <use xlink:href="#dot" transform="translate(-43.2075,-22.903056)" />   <use xlink:href="#dot" transform="translate(-43.2075,-22.903056)" />   <use xlink:href="#dot" transform="translate(-40.600278,-19.935556)" />   <use xlink:href="#dot" transform="translate(-43.2075,-22.903056)" />   <use xlink:href="#dot" transform="translate(-40.600278,-19.935556)" />   <use xlink:href="#dot" transform="translate(-40.600278,-19.935556)" />   <use xlink:href="#dot" transform="translate(-40.600278,-19.935556)" />   <use xlink:href="#dot" transform="translate(-40.600278,-19.935556)" />   <use xlink:href="#dot" transform="translate(-48.439722,-22.88)" />   <use xlink:href="#dot" transform="translate(-48.439722,-22.88)" />   <use xlink:href="#dot" transform="translate(-40.600278,-19.935556)" />   <use xlink:href="#dot" transform="translate(-54.43333,-25.68333)" />   <use xlink:href="#dot" transform="translate(-54.43333,-25.68333)" />   <use xlink:href="#dot" transform="translate(-54.4167,-25.7167)" />   <use xlink:href="#dot" transform="translate(-44.5,-22.38333)" />   <use xlink:href="#dot" transform="translate(-44.5,-22.38333)" />   <use xlink:href="#dot" transform="translate(-46.93333,-23.61667)" />   <use xlink:href="#dot" transform="translate(-53.693267,-26.169922)" />   <use xlink:href="#dot" transform="translate(-45.069722,-23.430278)" />   <use xlink:href="#dot" transform="translate(-46.15,-23.85)" />   <use xlink:href="#dot" transform="translate(-54.343888,-26.036031)" />   <use xlink:href="#dot" transform="translate(-40.3,-19.58333)" />   <use xlink:href="#dot" transform="translate(-54.319289,-25.68029)" />   <use xlink:href="#dot" transform="translate(-54.457684,-25.667045)" />   <use xlink:href="#dot" transform="translate(-46.6167,-23.5333)" />   <use xlink:href="#dot" transform="translate(-54.319289,-25.68029)" />   <use xlink:href="#dot" transform="translate(-47.549722,-24.700278)" />   <use xlink:href="#dot" transform="translate(-45.069722,-23.430278)" />   <use xlink:href="#dot" transform="translate(-53.641208,-26.257608)" />   <use xlink:href="#dot" transform="translate(-46.3333,-23.5333)" />   <use xlink:href="#dot" transform="translate(-45.069722,-23.430278)" />   <use xlink:href="#dot" transform="translate(-46.250449,-23.988273)" /><polygon class="region" points="-54.343888,-26.036031 -54.457684,-25.667045 -38.176914,-12.233903 -39.778333,-19.118611 -40.074444,-19.864722 -43.2075,-22.903056 -47.23,-24.57 -47.549722,-24.700278 -53.641208,-26.257608 -54.343888,-26.036031 " />
		  </g>
		</svg>