<?xml version="1.0" encoding="UTF-8"?>
	<svg xmlns:xlink="http://www.w3.org/1999/xlink" 
	xmlns="http://www.w3.org/2000/svg" 
	width="360px" height="180px">
	   <style type="text/css">
		  <![CDATA[     
		  .region 
		  { 
			fill:blue; 
			opacity:0.4; 
			stroke:blue;
		  }
		  ]]>
	   </style>

	<circle id="dot" x="-2" y="-2" r="2" style="stroke:none; stroke-width:0; fill:black; opacity:0.7;"/>


	 <image x="0" y="0" width="360" height="180" xlink:href="map.jpg"/>

 
	 <g transform="translate(180,90) scale(1,-1)"><polygon class="region" points="175.466578531,-38.384719288 175.483375116,-38.40016529 175.467854493,-38.417222002 175.450879553,-38.401611986 175.466578531,-38.384719288 " /><polygon class="region" points="175.364364624,-36.467918396 175.605163574,-36.757694244 175.818862915,-36.726665497 175.576975067,-37.152825492 175.364364624,-36.467918396 " /><polygon class="region" points="175.837721597,-37.26030016 175.8851411,-37.328844922 175.722979587,-37.404695004 175.683470565,-37.338985169 175.837721597,-37.26030016 " /><polygon class="region" points="174.702526732,-38.424888634 174.686049561,-38.408748035 174.701934698,-38.392360311 174.718580545,-38.408326897 174.702526732,-38.424888634 " /><polygon class="region" points="175.40133667,-36.742443085 175.395050049,-36.746360779 175.392471313,-36.742248535 175.40788269,-36.741054535 175.40133667,-36.742443085 " /><polygon class="region" points="175.415145874,-36.766944885 175.411132812,-36.764667511 175.410110474,-36.754722595 175.417144775,-36.763278961 175.415145874,-36.766944885 " />
		  </g>
		</svg>