<?xml version="1.0" encoding="UTF-8"?>
	<svg xmlns:xlink="http://www.w3.org/1999/xlink" 
	xmlns="http://www.w3.org/2000/svg" 
	width="360px" height="180px">
	   <style type="text/css">
		  <![CDATA[     
		  .region 
		  { 
			fill:blue; 
			opacity:0.4; 
			stroke:blue;
		  }
		  ]]>
	   </style>

	<circle id="dot" x="-2" y="-2" r="2" style="stroke:none; stroke-width:0; fill:black; opacity:0.7;"/>


	 <image x="0" y="0" width="360" height="180" xlink:href="map.jpg"/>

 
	 <g transform="translate(180,90) scale(1,-1)">   <use xlink:href="#dot" transform="translate(-73.05,-41.1167)" />   <use xlink:href="#dot" transform="translate(-71.05624,-16.50289)" />   <use xlink:href="#dot" transform="translate(-70.33333,-18.48333)" />   <use xlink:href="#dot" transform="translate(-67.377439,-26.994017)" />   <use xlink:href="#dot" transform="translate(-67.377439,-26.994017)" />   <use xlink:href="#dot" transform="translate(-67.377439,-26.994017)" />   <use xlink:href="#dot" transform="translate(-67.377439,-26.994017)" />   <use xlink:href="#dot" transform="translate(-67.377439,-26.994017)" />   <use xlink:href="#dot" transform="translate(-67.377439,-26.994017)" />   <use xlink:href="#dot" transform="translate(-65.961137,-27.102419)" />   <use xlink:href="#dot" transform="translate(-67.377439,-26.994017)" />   <use xlink:href="#dot" transform="translate(-67.377439,-26.994017)" />   <use xlink:href="#dot" transform="translate(-67.377439,-26.994017)" />   <use xlink:href="#dot" transform="translate(-67.377439,-26.994017)" />   <use xlink:href="#dot" transform="translate(-67.377439,-26.994017)" />   <use xlink:href="#dot" transform="translate(-67.377439,-26.994017)" />   <use xlink:href="#dot" transform="translate(-67.377439,-26.994017)" />   <use xlink:href="#dot" transform="translate(-67.377439,-26.994017)" />   <use xlink:href="#dot" transform="translate(-67.377439,-26.994017)" />   <use xlink:href="#dot" transform="translate(-67.377439,-26.994017)" />   <use xlink:href="#dot" transform="translate(-67.377439,-26.994017)" />   <use xlink:href="#dot" transform="translate(-67.377439,-26.994017)" />   <use xlink:href="#dot" transform="translate(-67.377439,-26.994017)" />   <use xlink:href="#dot" transform="translate(-67.377439,-26.994017)" />   <use xlink:href="#dot" transform="translate(-67.377439,-26.994017)" />   <use xlink:href="#dot" transform="translate(-67.377439,-26.994017)" /><polygon class="region" points="-65.961137,-27.102419 -73.05,-41.1167 -71.05624,-16.50289 -65.961137,-27.102419 " />
		  </g>
		</svg>