<?xml version="1.0" encoding="UTF-8"?>
	<svg xmlns:xlink="http://www.w3.org/1999/xlink" 
	xmlns="http://www.w3.org/2000/svg" 
	width="360px" height="180px">
	   <style type="text/css">
		  <![CDATA[     
		  .region 
		  { 
			fill:blue; 
			opacity:0.4; 
			stroke:blue;
		  }
		  ]]>
	   </style>

	<circle id="dot" x="-2" y="-2" r="2" style="stroke:none; stroke-width:0; fill:black; opacity:0.7;"/>


	 <image x="0" y="0" width="360" height="180" xlink:href="map.jpg"/>

 
	 <g transform="translate(180,90) scale(1,-1)">   <use xlink:href="#dot" transform="translate(-74.01736,45.98328)" />   <use xlink:href="#dot" transform="translate(-78.922863,44.083177)" />   <use xlink:href="#dot" transform="translate(-76.378698,45.181004)" />   <use xlink:href="#dot" transform="translate(-73.99142,45.97629)" />   <use xlink:href="#dot" transform="translate(-74.018691,45.993299)" />   <use xlink:href="#dot" transform="translate(-77.32581,44.543219)" />   <use xlink:href="#dot" transform="translate(-77.326863,44.547684)" />   <use xlink:href="#dot" transform="translate(-64.452358,45.400404)" />   <use xlink:href="#dot" transform="translate(-94.351533,46.410675)" />   <use xlink:href="#dot" transform="translate(-73.98483,45.997623)" />   <use xlink:href="#dot" transform="translate(-74.79072,44.156289)" />   <use xlink:href="#dot" transform="translate(-79.443941,46.306535)" />   <use xlink:href="#dot" transform="translate(-68.92128,46.121962)" />   <use xlink:href="#dot" transform="translate(-79.699225,47.740395)" />   <use xlink:href="#dot" transform="translate(-78.519,45.5844)" />   <use xlink:href="#dot" transform="translate(-67.93353,44.4565)" />   <use xlink:href="#dot" transform="translate(-78.339306,45.591996)" />   <use xlink:href="#dot" transform="translate(-76.253793,44.892876)" />   <use xlink:href="#dot" transform="translate(-73.791069,44.076706)" />   <use xlink:href="#dot" transform="translate(-93.884138,46.90405)" />   <use xlink:href="#dot" transform="translate(-77.148963,44.449184)" />   <use xlink:href="#dot" transform="translate(-93.901322,46.905272)" />   <use xlink:href="#dot" transform="translate(-75.81356,45.002923)" />   <use xlink:href="#dot" transform="translate(-85.808167,46.282428)" />   <use xlink:href="#dot" transform="translate(-78.695927,45.542758)" />   <use xlink:href="#dot" transform="translate(-93.663,45.4116)" />   <use xlink:href="#dot" transform="translate(-71.816619,44.655361)" />   <use xlink:href="#dot" transform="translate(-80.399609,43.961802)" />   <use xlink:href="#dot" transform="translate(-84.351139,46.511293)" />   <use xlink:href="#dot" transform="translate(-84.352341,46.511566)" />   <use xlink:href="#dot" transform="translate(-93.663,45.4116)" />   <use xlink:href="#dot" transform="translate(-93.663,45.4116)" />   <use xlink:href="#dot" transform="translate(-84.357941,46.511094)" />   <use xlink:href="#dot" transform="translate(-93.663,45.4116)" />   <use xlink:href="#dot" transform="translate(-93.663,45.4116)" />   <use xlink:href="#dot" transform="translate(-70.316581,45.496762)" />   <use xlink:href="#dot" transform="translate(-93.663,45.4116)" />   <use xlink:href="#dot" transform="translate(-78.34407,45.617047)" />   <use xlink:href="#dot" transform="translate(-91.195687,47.376438)" />   <use xlink:href="#dot" transform="translate(-89.345875,45.059164)" />   <use xlink:href="#dot" transform="translate(-79.530287,44.777653)" />   <use xlink:href="#dot" transform="translate(-75.821502,45.066689)" />   <use xlink:href="#dot" transform="translate(-75.247372,44.591705)" />   <use xlink:href="#dot" transform="translate(-77.326832,44.836102)" />   <use xlink:href="#dot" transform="translate(-84.351225,46.640726)" />   <use xlink:href="#dot" transform="translate(-69.999744,44.61434)" />   <use xlink:href="#dot" transform="translate(-78.335094,45.602921)" />   <use xlink:href="#dot" transform="translate(-70.00018,44.614759)" />   <use xlink:href="#dot" transform="translate(-75.79751,45.012251)" />   <use xlink:href="#dot" transform="translate(-91.187437,47.378435)" />   <use xlink:href="#dot" transform="translate(-69.186665,44.553051)" />   <use xlink:href="#dot" transform="translate(-80.403399,43.947094)" />   <use xlink:href="#dot" transform="translate(-75.821555,45.066697)" />   <use xlink:href="#dot" transform="translate(-65.135239,45.63213)" />   <use xlink:href="#dot" transform="translate(-78.309646,45.981725)" />   <use xlink:href="#dot" transform="translate(-84.353694,46.511646)" />   <use xlink:href="#dot" transform="translate(-83.975866,46.334184)" />   <use xlink:href="#dot" transform="translate(-75.295401,44.592056)" />   <use xlink:href="#dot" transform="translate(-81.567812,45.198116)" />   <use xlink:href="#dot" transform="translate(-69.168571,44.504294)" />   <use xlink:href="#dot" transform="translate(-77.356116,44.503912)" />   <use xlink:href="#dot" transform="translate(-76.943007,44.510003)" />   <use xlink:href="#dot" transform="translate(-72.578702,44.176946)" />   <use xlink:href="#dot" transform="translate(-93.473881,49.90036)" />   <use xlink:href="#dot" transform="translate(-79.384664,46.30079)" />   <use xlink:href="#dot" transform="translate(-72.585017,44.204231)" />   <use xlink:href="#dot" transform="translate(-72.413382,44.296983)" />   <use xlink:href="#dot" transform="translate(-72.417875,44.304661)" />   <use xlink:href="#dot" transform="translate(-72.582029,44.394258)" />   <use xlink:href="#dot" transform="translate(-78.383846,45.522758)" />   <use xlink:href="#dot" transform="translate(-77.315737,44.537724)" />   <use xlink:href="#dot" transform="translate(-77.739597,45.704663)" />   <use xlink:href="#dot" transform="translate(-67.714083,45.204331999057)" />   <use xlink:href="#dot" transform="translate(-66.124366,45.815233)" />   <use xlink:href="#dot" transform="translate(-66.1048,45.8083)" />   <use xlink:href="#dot" transform="translate(-66.124366,45.815233)" />   <use xlink:href="#dot" transform="translate(-90.53,47.8322)" />   <use xlink:href="#dot" transform="translate(-90.53,47.8322)" />   <use xlink:href="#dot" transform="translate(-90.53,47.8322)" />   <use xlink:href="#dot" transform="translate(-90.53,47.8322)" />   <use xlink:href="#dot" transform="translate(-90.53,47.8322)" />   <use xlink:href="#dot" transform="translate(-90.53,47.8322)" />   <use xlink:href="#dot" transform="translate(-90.53,47.8322)" />   <use xlink:href="#dot" transform="translate(-90.53,47.8322)" />   <use xlink:href="#dot" transform="translate(-95.33603,50.743234)" />   <use xlink:href="#dot" transform="translate(-67.013276,45.167515)" />   <use xlink:href="#dot" transform="translate(-77.313323,44.540431)" />   <use xlink:href="#dot" transform="translate(-67.32173,46.205696)" />   <use xlink:href="#dot" transform="translate(-71.184603,45.140431)" />   <use xlink:href="#dot" transform="translate(-67.71014,46.34216)" />   <use xlink:href="#dot" transform="translate(-78.231247,44.422119)" />   <use xlink:href="#dot" transform="translate(-75.813389,45.050085)" />   <use xlink:href="#dot" transform="translate(-75.813303,45.065563)" />   <use xlink:href="#dot" transform="translate(-58.178444,49.051933)" />   <use xlink:href="#dot" transform="translate(-65.9127,47.8789)" />   <use xlink:href="#dot" transform="translate(-80.045786,43.920772)" />   <use xlink:href="#dot" transform="translate(-65.207786,46.082625)" />   <use xlink:href="#dot" transform="translate(-67.33268,45.21204)" />   <use xlink:href="#dot" transform="translate(-66.05699,47.7511)" />   <use xlink:href="#dot" transform="translate(-66.07725,47.73565)" />   <use xlink:href="#dot" transform="translate(-65.98333,47.79557)" />   <use xlink:href="#dot" transform="translate(-66.07725,47.73565)" />   <use xlink:href="#dot" transform="translate(-66.05699,47.7511)" />   <use xlink:href="#dot" transform="translate(-65.98333,47.79557)" />   <use xlink:href="#dot" transform="translate(-65.93928,46.82864)" />   <use xlink:href="#dot" transform="translate(-65.99166,47.80024)" />   <use xlink:href="#dot" transform="translate(-66.07725,47.73565)" />   <use xlink:href="#dot" transform="translate(-66.07725,47.73565)" />   <use xlink:href="#dot" transform="translate(-65.98333,47.79557)" />   <use xlink:href="#dot" transform="translate(-66.05699,47.7511)" />   <use xlink:href="#dot" transform="translate(-75.815192,45.059327)" />   <use xlink:href="#dot" transform="translate(-75.809268,45.0536)" />   <use xlink:href="#dot" transform="translate(-76.688261,45.149622)" />   <use xlink:href="#dot" transform="translate(-65.97309,47.7964)" />   <use xlink:href="#dot" transform="translate(-75.817079,45.060652)" />   <use xlink:href="#dot" transform="translate(-75.814934,45.061804)" />   <use xlink:href="#dot" transform="translate(-79.926339,45.598302)" />   <use xlink:href="#dot" transform="translate(-66.07759,47.73568)" />   <use xlink:href="#dot" transform="translate(-76.043,45.601)" />   <use xlink:href="#dot" transform="translate(-73.980215,44.267258)" />   <use xlink:href="#dot" transform="translate(-79.619207,46.120994)" />   <use xlink:href="#dot" transform="translate(-74.48289,45.643219999057)" />   <use xlink:href="#dot" transform="translate(-76.54335,44.834448)" />   <use xlink:href="#dot" transform="translate(-69.813168,44.726454)" />   <use xlink:href="#dot" transform="translate(-56.116,52.769)" />   <use xlink:href="#dot" transform="translate(-55.929,52.415)" />   <use xlink:href="#dot" transform="translate(-63.668333,53.491388999098)" />   <use xlink:href="#dot" transform="translate(-55.929167,52.415277999089)" />   <use xlink:href="#dot" transform="translate(-63.668,53.491)" />   <use xlink:href="#dot" transform="translate(-56.116389,52.769166999092)" />   <use xlink:href="#dot" transform="translate(-69.92615,44.63398)" />   <use xlink:href="#dot" transform="translate(-69.92615,44.63398)" />   <use xlink:href="#dot" transform="translate(-69.92615,44.63398)" />   <use xlink:href="#dot" transform="translate(-78.483606,45.976488)" />   <use xlink:href="#dot" transform="translate(-88.329253,45.524281)" />   <use xlink:href="#dot" transform="translate(-88.669,44.0725)" />   <use xlink:href="#dot" transform="translate(-77.3285,43.5921)" />   <use xlink:href="#dot" transform="translate(-78.703611,53.727499999101)" />   <use xlink:href="#dot" transform="translate(-77.066944,52.224999999087)" />   <use xlink:href="#dot" transform="translate(-77.102778,52.294166999088)" />   <use xlink:href="#dot" transform="translate(-77.103,52.294)" />   <use xlink:href="#dot" transform="translate(-78.122222,49.448610999068)" />   <use xlink:href="#dot" transform="translate(-77.769444,52.077777999086)" />   <use xlink:href="#dot" transform="translate(-77.597,45.382)" />   <use xlink:href="#dot" transform="translate(-77.066667,52.258888999087)" />   <use xlink:href="#dot" transform="translate(-77.769,52.078)" />   <use xlink:href="#dot" transform="translate(-77.421,53.218)" />   <use xlink:href="#dot" transform="translate(-93.6035,47.3423)" />   <use xlink:href="#dot" transform="translate(-77.438,51.415)" />   <use xlink:href="#dot" transform="translate(-84.1063,46.4119)" />   <use xlink:href="#dot" transform="translate(-78.122,49.449)" />   <use xlink:href="#dot" transform="translate(-78.358,51.329)" />   <use xlink:href="#dot" transform="translate(-85.4339,42.596)" />   <use xlink:href="#dot" transform="translate(-78.704,53.728)" />   <use xlink:href="#dot" transform="translate(-77.420833,53.218055999096)" />   <use xlink:href="#dot" transform="translate(-77.067,52.225)" />   <use xlink:href="#dot" transform="translate(-77.067,52.259)" />   <use xlink:href="#dot" transform="translate(-71.661833,46.875777999059)" />   <use xlink:href="#dot" transform="translate(-78.358333,51.32888899908)" />   <use xlink:href="#dot" transform="translate(-77.4375,51.414721999081)" />   <use xlink:href="#dot" transform="translate(-93.6035,47.3423)" />   <use xlink:href="#dot" transform="translate(-93.6035,47.3423)" />   <use xlink:href="#dot" transform="translate(-65.97,45.35)" />   <use xlink:href="#dot" transform="translate(-65.95,45.4)" />   <use xlink:href="#dot" transform="translate(-65.95,45.4)" />   <use xlink:href="#dot" transform="translate(-80.9338,42.7507)" />   <use xlink:href="#dot" transform="translate(-80.9338,42.7507)" />   <use xlink:href="#dot" transform="translate(-78.2622,44.529)" />   <use xlink:href="#dot" transform="translate(-85.4339,42.596)" />   <use xlink:href="#dot" transform="translate(-80.3667,45.4333)" />   <use xlink:href="#dot" transform="translate(-90.4345,45.3005)" />   <use xlink:href="#dot" transform="translate(-85.4339,42.596)" />   <use xlink:href="#dot" transform="translate(-85.4339,42.596)" />   <use xlink:href="#dot" transform="translate(-85.4339,42.596)" />   <use xlink:href="#dot" transform="translate(-80.3667,45.4333)" />   <use xlink:href="#dot" transform="translate(-80.3667,45.4333)" />   <use xlink:href="#dot" transform="translate(-82.4342,46.3017)" />   <use xlink:href="#dot" transform="translate(-65.93,45.41)" />   <use xlink:href="#dot" transform="translate(-65.93,45.41)" />   <use xlink:href="#dot" transform="translate(-65.93,45.41)" />   <use xlink:href="#dot" transform="translate(-65.93,45.41)" />   <use xlink:href="#dot" transform="translate(-65.93,45.41)" />   <use xlink:href="#dot" transform="translate(-65.93,45.41)" />   <use xlink:href="#dot" transform="translate(-65.93,45.41)" />   <use xlink:href="#dot" transform="translate(-65.93,45.41)" />   <use xlink:href="#dot" transform="translate(-65.93,45.41)" />   <use xlink:href="#dot" transform="translate(-66.12,45.27)" />   <use xlink:href="#dot" transform="translate(-71.481389,46.073888999057)" />   <use xlink:href="#dot" transform="translate(-79.8682,44.7059)" />   <use xlink:href="#dot" transform="translate(-66.77,45.18)" />   <use xlink:href="#dot" transform="translate(-66.77,45.18)" />   <use xlink:href="#dot" transform="translate(-90.4345,45.3005)" />   <use xlink:href="#dot" transform="translate(-65.57,45.38)" />   <use xlink:href="#dot" transform="translate(-65.57,45.38)" />   <use xlink:href="#dot" transform="translate(-65.57,45.38)" />   <use xlink:href="#dot" transform="translate(-65.57,45.38)" />   <use xlink:href="#dot" transform="translate(-65.73,46.88)" />   <use xlink:href="#dot" transform="translate(-80.3667,45.4333)" />   <use xlink:href="#dot" transform="translate(-64.3,46.28)" />   <use xlink:href="#dot" transform="translate(-64.82,46.15)" />   <use xlink:href="#dot" transform="translate(-65.57,45.38)" />   <use xlink:href="#dot" transform="translate(-65.73,46.88)" />   <use xlink:href="#dot" transform="translate(-65.57,45.38)" />   <use xlink:href="#dot" transform="translate(-65.57,45.38)" />   <use xlink:href="#dot" transform="translate(-65.57,45.38)" />   <use xlink:href="#dot" transform="translate(-65.73,46.88)" />   <use xlink:href="#dot" transform="translate(-65.57,45.38)" />   <use xlink:href="#dot" transform="translate(-65.57,45.38)" />   <use xlink:href="#dot" transform="translate(-65.73,46.88)" />   <use xlink:href="#dot" transform="translate(-65.57,45.38)" />   <use xlink:href="#dot" transform="translate(-64.3,46.28)" />   <use xlink:href="#dot" transform="translate(-64.82,46.15)" />   <use xlink:href="#dot" transform="translate(-65.73,46.88)" />   <use xlink:href="#dot" transform="translate(-65.57,45.38)" />   <use xlink:href="#dot" transform="translate(-65.57,45.38)" />   <use xlink:href="#dot" transform="translate(-65.57,45.38)" />   <use xlink:href="#dot" transform="translate(-65.57,45.38)" />   <use xlink:href="#dot" transform="translate(-65.73,46.88)" />   <use xlink:href="#dot" transform="translate(-65.57,45.38)" />   <use xlink:href="#dot" transform="translate(-65.57,45.38)" />   <use xlink:href="#dot" transform="translate(-65.57,45.38)" />   <use xlink:href="#dot" transform="translate(-65.57,45.38)" />   <use xlink:href="#dot" transform="translate(-64.82,46.15)" />   <use xlink:href="#dot" transform="translate(-65.57,45.38)" />   <use xlink:href="#dot" transform="translate(-65.57,45.38)" />   <use xlink:href="#dot" transform="translate(-65.57,45.38)" />   <use xlink:href="#dot" transform="translate(-65.57,45.38)" />   <use xlink:href="#dot" transform="translate(-80.3667,45.4333)" />   <use xlink:href="#dot" transform="translate(-64.3,46.28)" />   <use xlink:href="#dot" transform="translate(-64.3,46.28)" />   <use xlink:href="#dot" transform="translate(-64.82,46.15)" />   <use xlink:href="#dot" transform="translate(-64.82,46.15)" />   <use xlink:href="#dot" transform="translate(-65.57,45.38)" />   <use xlink:href="#dot" transform="translate(-65.57,45.38)" />   <use xlink:href="#dot" transform="translate(-65.73,46.88)" />   <use xlink:href="#dot" transform="translate(-64.82,46.15)" />   <use xlink:href="#dot" transform="translate(-65.57,45.38)" />   <use xlink:href="#dot" transform="translate(-82.4342,46.3017)" />   <use xlink:href="#dot" transform="translate(-64.82,46.15)" />   <use xlink:href="#dot" transform="translate(-64.82,46.15)" />   <use xlink:href="#dot" transform="translate(-65.57,45.38)" />   <use xlink:href="#dot" transform="translate(-65.57,45.38)" />   <use xlink:href="#dot" transform="translate(-64.82,46.15)" />   <use xlink:href="#dot" transform="translate(-65.73,46.88)" />   <use xlink:href="#dot" transform="translate(-65.73,46.88)" />   <use xlink:href="#dot" transform="translate(-65.73,46.88)" />   <use xlink:href="#dot" transform="translate(-65.73,46.88)" />   <use xlink:href="#dot" transform="translate(-65.57,45.38)" />   <use xlink:href="#dot" transform="translate(-65.73,46.88)" />   <use xlink:href="#dot" transform="translate(-65.57,45.38)" />   <use xlink:href="#dot" transform="translate(-65.73,46.88)" />   <use xlink:href="#dot" transform="translate(-65.57,45.38)" />   <use xlink:href="#dot" transform="translate(-65.57,45.38)" />   <use xlink:href="#dot" transform="translate(-65.57,45.38)" />   <use xlink:href="#dot" transform="translate(-65.57,45.38)" />   <use xlink:href="#dot" transform="translate(-65.73,46.88)" />   <use xlink:href="#dot" transform="translate(-65.57,45.38)" />   <use xlink:href="#dot" transform="translate(-65.57,45.38)" />   <use xlink:href="#dot" transform="translate(-65.73,46.88)" />   <use xlink:href="#dot" transform="translate(-64.317,46.217)" />   <use xlink:href="#dot" transform="translate(-64.82,46.15)" />   <use xlink:href="#dot" transform="translate(-65.57,45.38)" />   <use xlink:href="#dot" transform="translate(-64.3,46.28)" />   <use xlink:href="#dot" transform="translate(-64.82,46.15)" />   <use xlink:href="#dot" transform="translate(-65.57,45.38)" />   <use xlink:href="#dot" transform="translate(-65.73,46.88)" />   <use xlink:href="#dot" transform="translate(-65.73,46.88)" />   <use xlink:href="#dot" transform="translate(-65.73,46.88)" />   <use xlink:href="#dot" transform="translate(-65.73,46.88)" />   <use xlink:href="#dot" transform="translate(-65.57,45.38)" />   <use xlink:href="#dot" transform="translate(-65.57,45.38)" />   <use xlink:href="#dot" transform="translate(-65.57,45.38)" />   <use xlink:href="#dot" transform="translate(-65.57,45.38)" />   <use xlink:href="#dot" transform="translate(-65.57,45.38)" />   <use xlink:href="#dot" transform="translate(-65.57,45.38)" />   <use xlink:href="#dot" transform="translate(-64.82,46.15)" />   <use xlink:href="#dot" transform="translate(-65.57,45.38)" />   <use xlink:href="#dot" transform="translate(-65.57,45.38)" />   <use xlink:href="#dot" transform="translate(-65.57,45.38)" />   <use xlink:href="#dot" transform="translate(-65.73,46.88)" />   <use xlink:href="#dot" transform="translate(-81.335,45.108333)" />   <use xlink:href="#dot" transform="translate(-64.3,46.28)" />   <use xlink:href="#dot" transform="translate(-65.57,45.38)" />   <use xlink:href="#dot" transform="translate(-64.82,46.15)" />   <use xlink:href="#dot" transform="translate(-64.82,46.15)" />   <use xlink:href="#dot" transform="translate(-65.57,45.38)" />   <use xlink:href="#dot" transform="translate(-65.73,46.88)" />   <use xlink:href="#dot" transform="translate(-64.82,46.15)" />   <use xlink:href="#dot" transform="translate(-64.82,46.15)" />   <use xlink:href="#dot" transform="translate(-65.57,45.38)" />   <use xlink:href="#dot" transform="translate(-65.57,45.38)" />   <use xlink:href="#dot" transform="translate(-65.73,46.88)" />   <use xlink:href="#dot" transform="translate(-65.57,45.38)" />   <use xlink:href="#dot" transform="translate(-65.73,46.88)" />   <use xlink:href="#dot" transform="translate(-65.73,46.88)" />   <use xlink:href="#dot" transform="translate(-80.3667,45.4333)" />   <use xlink:href="#dot" transform="translate(-65.57,45.38)" />   <use xlink:href="#dot" transform="translate(-65.57,45.38)" />   <use xlink:href="#dot" transform="translate(-65.57,45.38)" />   <use xlink:href="#dot" transform="translate(-65.57,45.38)" /><polygon class="region" points="-94.351533,46.410675 -95.33603,50.743234 -78.704,53.728 -63.668333,53.491388999098 -56.116389,52.769166999092 -56.116,52.769 -55.929,52.415 -58.178444,49.051933 -64.452358,45.400404 -67.93353,44.4565 -80.9338,42.7507 -85.4339,42.596 -93.663,45.4116 -94.351533,46.410675 " />
		  </g>
		</svg>