<?xml version="1.0" encoding="UTF-8"?>
	<svg xmlns:xlink="http://www.w3.org/1999/xlink" 
	xmlns="http://www.w3.org/2000/svg" 
	width="360px" height="180px">
	   <style type="text/css">
		  <![CDATA[     
		  .region 
		  { 
			fill:blue; 
			opacity:0.4; 
			stroke:blue;
		  }
		  ]]>
	   </style>

	<circle id="dot" x="-2" y="-2" r="2" style="stroke:none; stroke-width:0; fill:black; opacity:0.7;"/>


	 <image x="0" y="0" width="360" height="180" xlink:href="map.jpg"/>

 
	 <g transform="translate(180,90) scale(1,-1)"><polygon class="region" points="-109.765967481,32.311768515 -109.670412274,32.426813161 -110.128009731,32.426701552 -110.15217193,32.171884675 -109.810719379,31.87332156 -109.812313392,31.722919312 -110.036442288,31.723949492 -109.715915482,31.365950568 -109.975817305,30.381368141 -110.465502028,29.960011519 -110.907294681,30.013181597 -111.262663206,30.392756158 -111.650900599,31.601417569 -111.439820965,32.172189621 -111.217262847,32.190150896 -111.217262572,32.226353903 -111.766775571,32.374279052 -111.773873081,32.792081471 -112.151626404,32.723119775 -112.202996756,32.506660174 -113.333144453,32.504844747 -113.333018296,32.038500677 -113.789286116,32.181427289 -114.025932207,31.491382759 -114.956016541,31.91462326 -114.841202377,31.581549023 -115.100424873,32.009854546 -115.214305041,32.679124085 -114.812607558,32.567880535 -114.526069568,32.757014992 -114.467818219,32.971575458 -114.705693861,33.0880911 -114.72448449,33.404987632 -114.523421503,33.553010208 -114.433384976,34.087334243 -114.130421512,34.262687636 -114.634367002,34.8749787 -114.752813467,36.090708841 -114.153322687,36.023860331 -114.006115994,36.196844012 -113.645785739,35.823886644 -113.333241609,35.803019145 -113.333381284,35.528019115 -112.876083156,35.820333568 -112.875146966,36.150671589 -112.600256085,36.107765924 -112.525010732,35.948231072 -112.404313423,36.020334837 -112.554922235,36.223333048 -112.567224954,36.319094108 -112.488877927,36.342754093 -112.510269179,36.357719538 -112.8751539,36.157390729 -112.63783328,36.389190002 -112.465229342,36.368422469 -112.521696928,36.248045349 -112.204907279,36.098189217 -111.832682712,36.103663007 -112.129729973,35.931724232 -111.856346862,35.367311264 -112.007444187,34.975752324 -111.5513824,34.802474576 -111.544947929,34.415405404 -109.858684374,34.108773448 -109.782768394,33.476419346 -109.347064239,33.777437573 -109.04605305,33.777744573 -109.045170599,34.591644667 -107.722652679,34.584115053 -107.711010842,33.4772539 -107.996204825,33.479933288 -107.999639888,33.204096992 -107.837939534,33.185415149 -107.663975237,32.60659136 -108.224934343,32.517701613 -108.213083268,31.81713797 -108.039854446,31.747930159 -107.971526345,31.269633453 -108.051242463,30.666068561 -108.392882968,30.677456578 -108.629754671,31.333084381 -109.049344375,31.331749908 -109.047982997,32.013520741 -109.761842488,31.905178206 -109.56908698,32.015185301 -109.739132876,32.079416961 -109.765967481,32.311768515 " />
		  </g>
		</svg>