<?xml version="1.0" encoding="UTF-8"?>
	<svg xmlns:xlink="http://www.w3.org/1999/xlink" 
	xmlns="http://www.w3.org/2000/svg" 
	width="360px" height="180px">
	   <style type="text/css">
		  <![CDATA[     
		  .region 
		  { 
			fill:blue; 
			opacity:0.4; 
			stroke:blue;
		  }
		  ]]>
	   </style>

	<circle id="dot" x="-2" y="-2" r="2" style="stroke:none; stroke-width:0; fill:black; opacity:0.7;"/>


	 <image x="0" y="0" width="360" height="180" xlink:href="map.jpg"/>

 
	 <g transform="translate(180,90) scale(1,-1)"><polygon class="region" points="-84.725922273,45.785716428 -83.375915527,45.264404297 -83.252220489,45.020473484 -83.587890625,45.120433807 -83.304916382,44.878868103 -83.321373163,44.334367677 -83.901413785,43.912863862 -83.966705322,43.376953125 -83.842140021,43.649475215 -83.65919508,43.596709941 -83.397674561,43.912109375 -82.786110503,44.020831761 -82.41852589,43.003441825 -82.509964478,42.626000061 -82.799133863,42.64629036 -83.247154236,41.939517975 -83.491043091,41.93547821 -83.328789077,41.884415435 -83.421310357,41.736171796 -86.810737679,41.758791739 -86.155403137,42.645298004 -86.528159883,43.626503557 -86.390213013,43.757698059 -86.503700256,44.068889618 -86.1953125,44.355484009 -86.248618451,44.694015985 -85.543174744,45.206806183 -85.625611319,44.769430996 -85.479072849,44.987907056 -85.566162109,44.754573822 -85.412246361,44.893558388 -85.372673035,44.797393799 -85.29019928,44.793991089 -85.367141724,45.262058258 -85.014656067,45.20942688 -85.250602722,45.322246552 -84.911086754,45.391723215 -85.110976765,45.574023555 -85.003799419,45.758888038 -84.725922273,45.785716428 " /><polygon class="region" points="-78.064224961,43.369384134 -77.535728421,43.234946214 -76.83529161,43.293593464 -78.853219181,42.794779907 -78.890067599,43.050591472 -79.060447395,43.082393503 -79.037406861,43.266307816 -78.064224961,43.369384134 " /><polygon class="region" points="-87.884643429,47.465999106 -87.707832645,47.40586514 -87.955017641,47.377425293 -88.415260315,46.973644257 -88.39349346,47.18486092 -88.616371234,47.138843841 -88.368111043,47.389716825 -87.884643429,47.465999106 " /><polygon class="region" points="-78.56585906,54.175432622 -77.812110244,53.911620536 -77.446121216,53.495834351 -75.75588246,53.64780845 -76.036865234,53.522781372 -75.84703064,53.427257538 -75.340461731,53.591194153 -75.601524353,53.636447906 -74.686012268,53.641399384 -74.829902649,53.569484711 -74.840423584,53.525920868 -74.495615453,53.723183332 -70.802246255,52.554872667 -67.410376583,52.19684198 -65.036067813,52.68677871 -64.546131082,52.649091269 -64.244631556,52.875215914 -63.717007385,52.950590796 -62.247197193,53.101340559 -61.719573022,52.988278236 -60.66432468,53.365152644 -60.549521126,53.266749598 -60.754821951,53.239616346 -59.759826101,52.988278236 -57.159392685,53.063653118 -56.820205718,52.573716388 -57.159392685,52.19684198 -58.365390791,51.895342453 -59.194514489,51.216968519 -59.602241516,50.463428497 -60.152309418,50.19052124 -60.288272858,50.339103699 -60.342427309,50.201454649 -60.863433838,50.295070648 -61.74509669,50.081348922 -61.57433988,50.171466628 -62.80380249,50.31306076 -63.400314088,50.194542845 -63.738395691,50.324378967 -66.453712284,50.261457916 -66.448776361,50.121382265 -67.136179382,49.801633937 -67.365518073,49.315703091 -68.041838047,49.299898164 -68.275809351,49.171710829 -68.1920932,49.099397386 -69.071851879,48.768940717 -69.73221492,48.142180326 -69.910607154,47.764141331 -70.502656159,47.438324384 -70.717003302,47.109795833 -70.975662995,46.999679152 -71.20390969,46.846343898 -71.242857852,46.770611638 -71.88819181,46.684958609 -73.152619362,46.112663494 -73.474151856,45.713433025 -73.606825964,45.416518935 -74.015556743,45.416500324 -73.94010956,45.33079189 -74.163437758,45.300399515 -74.575087764,45.055103745 -74.853164733,45.031211156 -75.301864618,44.853946538 -75.762900235,44.543820231 -75.95265914,44.377342718 -76.624076142,44.24124586 -77.010635376,44.047561646 -76.988273621,44.202884674 -77.324859619,44.163162231 -77.554008484,44.097385406 -77.563735962,44.26467514 -77.788146973,44.284549713 -77.569458008,44.256977081 -77.577049255,44.051456451 -77.060516357,44.166835785 -77.1277771,44.007511139 -77.099754333,44.039703369 -77.015769958,44.029968262 -76.84590931,44.10953805 -77.038665771,43.921073914 -76.865776062,43.937953949 -77.122695923,43.843631744 -77.675140381,44.034049988 -79.090026855,43.820861816 -79.792457304,43.308033746 -79.063262244,43.255421041 -79.112946545,43.044474775 -78.927551482,42.883048964 -80.206672228,42.779135825 -80.444511414,42.607833862 -80.06545281,42.539439596 -81.32775116,42.645198822 -81.849181806,42.24813554 -82.396423795,42.108703851 -82.505264259,41.901715135 -83.103050232,42.041122437 -83.102111726,42.25023751 -82.443459045,42.308972281 -82.407439463,42.47436204 -82.575531565,42.552081263 -82.414680763,42.99763544 -81.706100464,43.390674591 -81.750274041,44.068219314 -81.268379211,44.635173798 -81.365279852,44.995506002 -81.722312601,45.219969718 -81.279533525,45.23848712 -81.150840931,44.899165154 -80.956283686,44.953647656 -81.135353403,44.742604415 -80.900878494,44.789107895 -80.937820655,44.576636142 -80.64463069,44.718611959 -80.098670959,44.463050842 -79.969161849,44.665001476 -80.115486306,44.807998638 -79.734192697,44.731170472 -79.687919617,44.828990936 -80.086723189,45.082771369 -79.873504639,45.094390869 -80.180389404,45.222389221 -80.106818661,45.307827027 -80.379516616,45.434810673 -80.735321184,45.94439429 -81.676544189,45.933944702 -81.540229984,46.085465178 -83.100226773,46.162373588 -84.043853738,46.312347051 -84.170852074,46.542603123 -84.516807556,46.46869278 -84.592285313,46.562991312 -84.420844264,46.686066109 -84.55672302,46.811797415 -84.358329926,46.880081928 -84.777168274,46.97045517 -84.583229065,47.298072815 -85.039657008,47.589503822 -84.846229097,47.944691246 -85.851921357,47.970933102 -86.429801021,48.772526839 -87.287017902,48.760086354 -88.25821634,49.010758431 -88.094215239,48.775836507 -88.203658768,48.586868799 -88.342834094,48.642708028 -88.561744572,48.407383037 -88.303718567,48.750011444 -88.341766381,48.814582934 -88.496116638,48.834354401 -88.754203796,48.345508575 -88.94641082,48.301803156 -88.776138306,48.572120667 -89.144523339,48.476757976 -89.509994507,47.990756989 -90.721435461,47.620448044 -92.078628846,46.776820109 -91.79312929,46.690535981 -90.853134155,46.961513519 -90.744102659,46.883404047 -90.935325623,46.583629608 -90.691589355,46.655845642 -90.796951294,46.726383209 -90.408195496,46.560462952 -89.312400818,46.841915131 -88.630104065,47.223518372 -88.44405365,46.998603821 -88.484191895,46.752174377 -88.125641028,46.961300178 -88.233940559,46.885805949 -88.276099968,46.819079883 -87.778846741,46.874027252 -87.292640627,46.484351089 -86.640625554,46.408682659 -86.154953087,46.662649928 -84.949951648,46.770526576 -84.996406555,46.474441528 -84.579177856,46.410182953 -84.299964496,46.483578682 -84.265404704,46.196124308 -84.022049617,46.128497165 -83.9008255,45.948379517 -84.652610039,46.048474375 -84.75254121,45.831703776 -85.508598328,46.087238312 -86.263793945,45.943401337 -86.607345624,45.596389807 -86.714248024,45.682026517 -86.538825989,45.886672974 -86.966056449,45.66589004 -86.966926575,45.914989471 -87.594624678,45.097682816 -87.735084534,45.187965393 -87.645248413,45.333042145 -87.647949219,45.366420746 -87.664924622,45.373775482 -87.743743896,45.186130524 -87.621330136,44.974164026 -87.81729126,44.946525574 -87.978147239,44.678527755 -88.228881505,44.672513132 -88.248663706,44.852487186 -88.735920643,44.856138065 -89.425722851,45.118948771 -89.428491596,45.55527444 -90.043200442,45.555122352 -90.043552174,45.120612481 -90.197759818,45.033599215 -91.650284569,44.856117933 -91.540003412,45.63776574 -92.527928616,45.728606711 -92.884018185,45.644271943 -92.645219861,45.40578784 -93.018551411,45.298438957 -92.987311618,44.892378858 -93.170212265,44.897513789 -93.424932292,45.215225787 -94.093616431,45.449240115 -94.277987981,45.777053024 -95.139499041,45.774407669 -95.145119979,46.107983996 -96.266417765,46.109051325 -96.067556292,47.501333317 -95.549539405,47.501686635 -95.600582301,49.38912764 -96.354331117,50.218251338 -96.414399903,50.626315734 -96.305871504,50.620035585 -96.245910645,50.575748444 -96.151107788,50.561218262 -96.139976501,50.53370285 -96.125823975,50.520259857 -96.093269348,50.517566681 -96.064750671,50.471679688 -96.004989624,50.461025238 -96.001625061,50.300460815 -96.060638428,50.232624054 -96.069076538,50.199123383 -96.058334351,50.163181305 -95.754570007,50.402694702 -95.976402283,50.384223938 -95.977684021,50.464519501 -96.381378174,50.710273743 -96.316643676,51.085062476 -95.449832538,51.461936884 -93.686313374,50.946641191 -92.69864936,51.160437358 -92.490974682,51.309272029 -92.853605521,52.303149143 -92.558128541,52.612056895 -92.510212156,52.969434516 -92.133337748,53.308621483 -91.643401017,53.383996365 -90.625840116,52.441810345 -90.022841063,52.140310818 -90.060528504,51.801123851 -90.437402912,51.27349968 -90.475090352,50.595125746 -90.286653148,50.029814134 -89.8720913,49.766002048 -88.93299107,49.683334759 -88.905769348,49.5259552 -89.061759949,49.577384949 -88.966400146,49.472019196 -88.601135254,49.6469841 -88.806602478,49.463783264 -88.608818054,49.402515411 -88.546600342,49.562561035 -88.315587514,49.316168717 -88.137413025,49.381317139 -88.161128572,49.58260691 -88.0254067,49.502189962 -87.686219733,49.803689489 -87.53546997,49.728314607 -86.706346272,50.180563897 -85.952597456,50.067501574 -85.236536081,49.728314607 -84.555557251,49.754997253 -84.282226563,50.159156799 -84.502792358,50.53276825 -84.428604126,50.759719849 -84.593612671,50.865272522 -84.497497559,51.103820801 -83.400283813,51.488601685 -82.926391602,51.87915802 -81.54669776,52.340021594 -81.393615723,52.115879059 -80.671028137,51.798252106 -80.419021334,51.330504522 -79.798508346,51.167411242 -79.618064584,51.250922284 -79.739365017,51.315098988 -79.738601685,51.377643585 -79.315383944,51.669875672 -79.267448657,51.510142317 -78.987662426,51.465051284 -78.952812983,51.206671692 -78.863357544,51.168113708 -78.899520874,51.394882202 -78.681465149,51.489971161 -79.044608371,51.7692831 -78.454947485,52.255067052 -78.580382424,52.251037154 -78.506584167,52.485675812 -78.876540623,52.735931192 -78.703277588,52.765205383 -78.91798264,52.911731375 -78.784866333,52.963394165 -78.99018885,53.011429669 -78.890852655,53.398133569 -79.12489145,53.487800343 -78.892400792,53.547693519 -79.156211853,53.688705444 -78.937766946,53.833792569 -79.127297832,54.064306719 -78.56585906,54.175432622 " /><polygon class="region" points="-94.036384583,49.315711975 -94.120437622,49.410060883 -93.970649719,49.388240814 -93.824645996,49.422374725 -94.328384399,49.518440247 -94.429115295,49.59759903 -94.374740601,49.579833984 -94.224914551,49.592624664 -94.499427795,49.771343231 -94.921714783,49.67805481 -94.773963928,49.629562378 -94.833396912,49.611564636 -94.864944458,49.575756073 -94.918235779,49.562217712 -95.1641922,49.647731781 -95.121253967,49.440189362 -94.604164124,49.645427704 -94.916816711,49.389862061 -95.155982971,49.394138336 -94.917320251,49.32011795 -94.941596985,49.206756592 -95.276229858,49.142478943 -95.322006226,48.929138184 -94.682701111,48.834857941 -94.25188446,49.047912598 -94.304573059,49.135677338 -94.006370544,49.045280457 -93.943733215,49.084602356 -94.272659302,49.209030151 -94.140449524,49.253578186 -94.15171814,49.27803421 -94.531929016,49.249164581 -94.69304657,49.360004425 -94.738166809,49.448253632 -94.691925049,49.496967316 -94.311607361,49.4920578 -94.34526062,49.374763489 -94.21484375,49.42118454 -94.058631897,49.258384705 -94.127792358,49.198757172 -94.038513184,49.237747192 -94.036384583,49.315711975 " /><polygon class="region" points="-65.559278974,49.248971735 -64.401092529,48.999210358 -64.16815246,48.744190414 -64.54786453,48.873979353 -64.633881587,48.826774051 -64.409372667,48.822779691 -64.176850348,48.619719631 -64.227119575,48.495301222 -65.251075745,48.004047394 -65.91179657,48.19959259 -66.784691652,47.986426118 -66.36907323,48.065310121 -65.831336913,47.903933163 -65.619789124,47.645431519 -65.108763415,47.826950759 -64.682396727,47.726751501 -64.979019165,47.280109406 -65.365127563,47.090858459 -64.806519117,47.076149025 -64.872033224,46.771583447 -64.910164216,46.88240935 -65.001593873,46.836524668 -64.722443815,46.687396656 -64.56149292,46.212444305 -63.778106689,46.115772247 -64.098609924,46.052848816 -64.27919816,45.832817695 -64.554960411,45.72178323 -64.495306826,45.803386995 -64.547423999,45.859184529 -64.528968811,45.924240112 -64.557516979,45.975399884 -64.782357365,45.591240091 -66.464172719,45.058346062 -67.039825261,45.168133633 -66.958199324,44.808468538 -67.200753668,44.639301453 -67.57816433,44.659106903 -67.570718263,44.530075164 -67.852325439,44.559440613 -67.904617993,44.393025088 -68.034813486,44.486401686 -68.055732513,44.330658311 -68.267692566,44.493976593 -68.181840419,44.327682222 -68.336738189,44.224674525 -68.48690033,44.454776764 -68.531692505,44.227619171 -68.835470345,44.310978372 -68.838265888,44.702082436 -69.385763942,44.754081567 -69.634015526,44.700666664 -69.606564598,44.577176994 -70.040136268,44.589091872 -70.48127044,44.031954603 -70.625149716,44.17107652 -70.859516131,44.094624674 -70.716109949,43.96214796 -70.958196158,43.785235502 -71.01088766,44.28452038 -71.337771477,44.084791842 -71.76417451,44.404691668 -72.060397555,44.286171006 -72.2048279,43.770337027 -72.783888426,43.928778693 -72.953722565,44.161559448 -72.810214151,44.547639425 -73.229268696,44.722984564 -73.192604631,44.906624777 -73.340452331,44.946579806 -73.433110047,43.589315801 -73.247141764,43.536642949 -73.274708873,42.941905087 -73.635933417,42.941186454 -73.602039904,43.308738757 -73.774686695,43.225573359 -73.891329885,43.398600937 -74.16231663,43.365682666 -74.097069464,42.982868105 -74.760919471,43.047418314 -74.764152959,42.8614468 -75.889991791,42.723819103 -75.990600085,43.185483993 -76.709288365,43.324740334 -76.207145691,43.55317688 -76.302078256,43.862431245 -76.067535201,43.992947503 -76.20614624,44.079353333 -76.283279122,43.965240615 -76.376342592,44.105877083 -75.863067627,44.362327576 -75.302131451,44.841536666 -74.48541267,45.041748797 -73.75853633,45.400296148 -73.508110343,45.411696729 -73.155220765,46.040427312 -72.170759987,46.54180052 -71.361580482,46.712028268 -70.49102763,47.016212105 -69.437980782,48.006328961 -68.825128087,48.370355486 -66.746041906,49.081954862 -65.559278974,49.248971735 " /><polygon class="region" points="-73.165978912,45.913619544 -73.158944238,45.907230216 -73.158454323,45.918467829 -73.165978912,45.913619544 " />
		  </g>
		</svg>