<?xml version="1.0" encoding="UTF-8"?>
	<svg xmlns:xlink="http://www.w3.org/1999/xlink" 
	xmlns="http://www.w3.org/2000/svg" 
	width="360px" height="180px">
	   <style type="text/css">
		  <![CDATA[     
		  .region 
		  { 
			fill:blue; 
			opacity:0.4; 
			stroke:blue;
		  }
		  ]]>
	   </style>

	<circle id="dot" x="-2" y="-2" r="2" style="stroke:none; stroke-width:0; fill:black; opacity:0.7;"/>


	 <image x="0" y="0" width="360" height="180" xlink:href="map.jpg"/>

 
	 <g transform="translate(180,90) scale(1,-1)"><polygon class="region" points="-94.432934991,35.380751469 -94.448705686,34.935746303 -94.142264675,35.099350138 -93.704915517,35.019765497 -93.710638051,34.747172851 -92.969152022,34.772005916 -92.981427634,34.63700087 -92.685004472,34.46921112 -92.677185216,34.149810802 -92.335993894,34.062665424 -92.475150029,33.969905302 -92.333179227,33.79308981 -92.584094825,33.801188927 -92.765097373,33.493606699 -92.224426427,33.253438331 -92.064534765,33.008787993 -91.438737124,32.980973658 -92.006363384,32.379148646 -91.904209512,31.92736976 -92.312759184,31.927442713 -92.415301886,32.49505024 -92.77666516,32.454652027 -92.80365004,32.178159466 -92.940563173,32.147835828 -92.973254972,31.714541521 -92.695149361,31.402053649 -92.196598163,31.477938983 -92.076583863,31.355838487 -92.231135669,31.320692892 -92.20818005,30.962326412 -92.824083248,30.891800955 -92.879775458,31.317288984 -93.390914605,31.366868763 -93.556063533,31.241566087 -93.526600277,30.931727662 -93.739500751,30.539504854 -93.700417422,30.059515992 -93.959198254,29.828220849 -93.835380554,29.67276001 -94.770225525,29.356431961 -94.46408844,29.553384781 -94.779106186,29.525667225 -94.728492818,29.784013696 -94.969436646,29.697025299 -95.07763672,29.540838208 -94.813568134,29.358127598 -95.216329853,29.221788575 -95.194587759,29.019142219 -95.50746692,28.819265003 -95.871873503,29.228893605 -96.309567736,28.963287818 -96.666337884,29.251709666 -96.568745213,29.337216656 -96.78665678,29.57412664 -97.31705186,29.784659709 -97.027066065,30.053832214 -97.337648808,30.402838439 -97.159858331,30.456962549 -97.316606476,30.754521727 -96.594541859,31.22331011 -96.932596693,31.71123741 -96.718163209,31.819270169 -96.898119333,32.074858299 -96.451598312,32.359971444 -96.074877497,32.357101911 -96.077210602,32.839497966 -95.937810414,32.840985441 -95.864058128,33.217406055 -95.313796328,33.366124525 -95.311155181,33.879339358 -95.943613063,33.885673215 -96.34953878,33.686870307 -96.616681194,33.842899519 -96.631519356,34.013229746 -96.408846388,34.158961645 -96.40918885,34.415349428 -96.090884509,34.508288249 -96.008655276,35.149136721 -95.488094121,35.299201282 -95.351021699,35.058801369 -94.929212912,35.057202127 -94.81567494,35.324949656 -94.432934991,35.380751469 " /><polygon class="region" points="-94.243917988,34.192386231 -94.091548322,34.18659131 -93.964020452,33.667723052 -93.483124022,33.475670606 -93.455757136,33.959004049 -93.822979258,34.008821912 -93.935645942,34.349737876 -94.255315545,34.355346157 -94.243917988,34.192386231 " /><polygon class="region" points="-93.237687677,32.71686255 -93.179866472,32.586083704 -92.880528417,32.585106699 -92.72444246,33.014587307 -93.239388366,33.018078561 -93.237687677,32.71686255 " /><polygon class="region" points="-93.567009458,32.195029578 -93.350562876,31.898732004 -93.121107809,31.972509882 -93.213672015,32.235587979 -93.567009458,32.195029578 " /><polygon class="region" points="-88.598981414,47.11602807 -88.44405365,46.998603821 -88.473251418,46.74817267 -88.125641028,46.961300178 -88.233940559,46.885805949 -88.276124416,46.819109986 -87.814529419,46.884765625 -87.359329224,46.498645782 -86.649917603,46.40921402 -86.154953087,46.662649928 -84.949951648,46.770526576 -84.996408772,46.474445225 -84.299964496,46.483578682 -84.265404704,46.196124308 -83.887237975,45.982620176 -84.652610039,46.048474375 -84.75254121,45.831703776 -85.517143877,46.086033367 -86.263793945,45.943401337 -86.607345624,45.596389807 -86.714248024,45.682026517 -86.538825989,45.886672974 -86.966056449,45.66589004 -86.966926575,45.914989471 -87.594624678,45.097682816 -87.735084534,45.187965393 -87.645248413,45.333042145 -87.647949219,45.366420746 -87.664924622,45.373775482 -87.743743896,45.186130524 -87.621330136,44.974164026 -88.121508979,45.026075314 -88.428298657,45.376909882 -88.425361163,45.722498888 -88.059056573,45.713152747 -88.097964962,45.91675468 -90.117643902,46.336570925 -90.414523042,46.560005584 -89.312400818,46.841915131 -88.652305603,47.218898773 -88.622642517,47.222625732 -88.637603706,47.163547159 -88.617897034,47.127120972 -88.598981414,47.11602807 " /><polygon class="region" points="-91.551459121,46.752946412 -91.551415097,46.157037763 -92.049764426,46.157320786 -92.031303593,45.639982797 -92.884018185,45.644271943 -92.289731041,46.070628367 -92.288126889,46.667895155 -91.551459121,46.752946412 " /><polygon class="region" points="-72.239449022,41.161513454 -72.647645569,40.915626221 -72.496658503,40.870673867 -72.60369873,40.811214447 -74.031051636,40.572753906 -73.942672729,40.777126312 -73.637846767,40.89910131 -72.64288402,40.980518776 -72.239449022,41.161513454 " /><polygon class="region" points="-88.925877639,45.379946624 -88.678053232,45.378664756 -88.639892608,45.117140138 -89.425722851,45.118948771 -89.427286317,45.470713958 -88.925877639,45.379946624 " /><polygon class="region" points="-91.851359314,33.789381254 -91.450301758,33.779984994 -91.456337013,33.388862476 -91.988448444,33.395153653 -91.976233485,33.790380874 -91.851359314,33.789381254 " /><polygon class="region" points="-92.299195992,41.949983488 -92.767243894,41.861757192 -92.769500822,42.296426266 -92.299401026,42.297478381 -92.299195992,41.949983488 " /><polygon class="region" points="-87.884643429,47.465999106 -87.707832645,47.40586514 -87.955017641,47.377425293 -88.415260315,46.973644257 -88.39349346,47.18486092 -88.616371234,47.138843841 -88.368111043,47.389716825 -87.884643429,47.465999106 " /><polygon class="region" points="-95.388589894,42.646516523 -95.8582171,42.561128932 -95.856956635,42.909004928 -95.387642693,42.909335622 -95.388589894,42.646516523 " /><polygon class="region" points="-87.162787654,31.000566915 -87.31357823,30.849414826 -87.173210092,30.423103655 -87.423004311,30.30461872 -87.316810981,30.312592124 -87.547217598,30.273420613 -87.340995789,30.42276001 -87.601197975,31.000143496 -87.162787654,31.000566915 " /><polygon class="region" points="-95.3842706,41.159558151 -95.383508749,40.902273336 -95.8352913,40.926681115 -95.878478868,41.15898715 -95.3842706,41.159558151 " /><polygon class="region" points="-87.907041563,38.850511824 -87.91197009,38.569982639 -88.300583689,38.635112005 -88.260446626,38.848203992 -87.907041563,38.850511824 " /><polygon class="region" points="-83.129302979,41.611831665 -82.945922852,41.515247345 -83.080062866,41.505348206 -83.060783386,41.472324371 -82.880507889,41.520171441 -82.83143577,41.591963592 -82.707001042,41.498913386 -83.063765365,41.456924394 -83.414827945,41.500297491 -83.41637689,41.619668041 -83.129302979,41.611831665 " /><polygon class="region" points="-71.896107039,41.078356202 -71.859977734,41.072021474 -72.013626099,40.995700836 -72.442702089,40.850216157 -72.501097464,40.879688338 -71.896107039,41.078356202 " /><polygon class="region" points="-70.597999573,41.458141327 -70.484734616,41.346726445 -70.782722218,41.300949231 -70.845741064,41.346107069 -70.597999573,41.458141327 " /><polygon class="region" points="-70.025046778,41.365912601 -69.970749994,41.282465908 -69.985343933,41.24754715 -70.243873596,41.279121399 -70.025046778,41.365912601 " /><polygon class="region" points="-71.227051171,41.649719355 -71.241149902,41.486198425 -71.36652474,41.452159765 -71.28024292,41.626628876 -71.227051171,41.649719355 " /><polygon class="region" points="-71.574119056,41.183654405 -71.561256409,41.151687622 -71.624518966,41.164119975 -71.586555036,41.233943933 -71.574119056,41.183654405 " /><polygon class="region" points="-73.261837017,44.74627779 -73.31876959,44.665214846 -73.306318075,44.595156153 -73.351953369,44.701151405 -73.261837017,44.74627779 " /><polygon class="region" points="-73.231740644,44.897496579 -73.29216735,44.771392324 -73.323484642,44.767022116 -73.266040663,44.897343135 -73.231740644,44.897496579 " /><polygon class="region" points="-73.337644222,44.910055409 -73.316128313,44.892922885 -73.345166379,44.827407107 -73.366721449,44.846175413 -73.337644222,44.910055409 " /><polygon class="region" points="-62.394388962,45.678131857 -62.37012713,45.676809328 -62.459784557,45.650476327 -62.443064348,45.667762866 -62.394388962,45.678131857 " /><polygon class="region" points="-73.412239364,44.607974718 -73.433468086,44.622342563 -73.415745879,44.636012376 -73.405502924,44.627602834 -73.412239364,44.607974718 " /><polygon class="region" points="-62.700477705,45.764583577 -62.725099539,45.748107666 -62.743218827,45.757719917 -62.743179723,45.76011012 -62.700477705,45.764583577 " /><polygon class="region" points="-75.367376937,44.779689709 -75.412876341,44.757193464 -75.421266751,44.747803929 -75.405180321,44.766956189 -75.361918617,44.787925794 -75.367376937,44.779689709 " /><polygon class="region" points="-73.210946447,44.836807103 -73.234657975,44.819096434 -73.238216841,44.823507268 -73.218787465,44.846226655 -73.210946447,44.836807103 " /><polygon class="region" points="-64.173349892,48.756342888 -64.170277941,48.75247669 -64.218678165,48.785367937 -64.207345082,48.781595807 -64.173349892,48.756342888 " /><polygon class="region" points="-73.202928279,44.768034795 -73.20863284,44.765950224 -73.213943546,44.766735104 -73.194588035,44.775053392 -73.202928279,44.768034795 " /><polygon class="region" points="-73.245860146,44.688615362 -73.251160255,44.693130643 -73.246894079,44.707973332 -73.242982323,44.703598499 -73.245860146,44.688615362 " /><polygon class="region" points="-75.311723822,44.833654936 -75.310777051,44.826506011 -75.325503766,44.821158381 -75.315503259,44.835760703 -75.311723822,44.833654936 " /><polygon class="region" points="-73.252527267,44.806918058 -73.259435711,44.806203729 -73.244760079,44.812629366 -73.24634687,44.809063997 -73.252527267,44.806918058 " /><polygon class="region" points="-73.20631264,44.799166015 -73.212504673,44.797427805 -73.20919467,44.808069981 -73.20473739,44.803719337 -73.20631264,44.799166015 " /><polygon class="region" points="-64.963670138,48.183736994 -64.967945913,48.179595698 -64.969690024,48.183187336 -64.963670138,48.183736994 " /><polygon class="region" points="-64.909591844,46.824206338 -64.909805477,46.823655027 -64.911594015,46.829112137 -64.909439055,46.826844976 -64.909591844,46.824206338 " /><polygon class="region" points="-75.984219338,44.304445692 -75.9860034,44.303444586 -75.985275269,44.30411911 -75.984219338,44.304445692 " /><polygon class="region" points="-64.077846841,46.152311543 -64.078229854,46.151909062 -64.078330145,46.152106353 -64.077846841,46.152311543 " /><polygon class="region" points="-65.559278974,49.248971735 -64.401092529,48.999210358 -64.224182122,48.790916739 -64.573917768,48.892709264 -64.483782124,48.827726404 -64.553367615,48.814289093 -64.602493286,48.831954956 -64.62109375,48.834392548 -64.633881587,48.826774051 -64.563789438,48.807230695 -64.407995792,48.819112709 -64.21434021,48.518642426 -65.248303227,48.013008577 -65.904530699,48.202618716 -66.784691652,47.986426118 -66.36907323,48.065310121 -65.831336913,47.903933163 -65.639697189,47.618653538 -64.809745789,47.801876068 -64.675312621,47.713120645 -64.979019165,47.280109406 -65.467077104,47.047112584 -64.806519117,47.076149025 -65.00159353,46.836526586 -64.722443815,46.687396656 -64.56149292,46.212444305 -63.795095126,46.133705028 -63.809337191,46.083665362 -64.059081771,46.065109313 -64.098610152,46.052848588 -64.105827332,46.015319824 -63.248256683,45.806411743 -63.39020544,45.756572378 -63.269096375,45.691612244 -63.034168504,45.737582913 -63.129095707,45.802527576 -63.114819734,45.805373216 -62.641956934,45.714878369 -62.787221267,45.665920378 -62.755594755,45.601843122 -61.916299247,45.882105917 -61.974174363,45.627409996 -61.488293989,45.693834844 -61.239762041,45.488502954 -61.618179823,45.464728858 -61.524990068,45.357349689 -61.068691963,45.352924921 -60.972629547,45.329090118 -60.98604639,45.278626548 -61.477287402,45.158087802 -61.818759856,45.251035474 -61.667198427,45.101306833 -62,45.140762329 -61.899903313,45.036963962 -62.460435575,44.82303619 -62.48303552,44.893186727 -62.513073231,44.913913851 -62.539944192,44.913570153 -62.549258831,44.78712497 -62.884786949,44.815304097 -62.809547337,44.710358159 -63.605648246,44.677021324 -63.525391486,44.504424484 -63.650389733,44.430652963 -63.941836585,44.506573625 -63.894847685,44.687992363 -64.089309395,44.468181996 -64.307081576,44.567291764 -64.251571094,44.256054985 -64.618133989,44.155990086 -64.840575875,43.815075677 -65.056449912,43.832073312 -65.032104977,43.696228641 -65.381476085,43.747627158 -65.474861145,43.452838898 -65.731659176,43.49458348 -65.86239624,43.81212616 -66.009811401,43.846500397 -66.019080423,43.68362098 -66.174712607,43.862786182 -66.122648662,44.339366889 -65.850982666,44.568309784 -66.203804016,44.373176575 -66.110641009,44.496437074 -64.399391174,45.282974243 -64.502563637,45.331412903 -64.336571615,45.296775914 -64.403922825,45.146087452 -64.148231503,45.043193108 -64.205084789,44.948783913 -64.103370284,44.995013271 -64.169212492,45.190090062 -63.346381837,45.36783205 -64.948684589,45.324874882 -64.287139893,45.791427612 -64.554960411,45.72178323 -64.495306826,45.803386995 -64.547423999,45.859184529 -64.528968811,45.924240112 -64.557516979,45.975399884 -64.782357365,45.591240091 -65.57819981,45.30009909 -66.05216254,45.282603849 -66.464172719,45.058346062 -67.039825261,45.168133633 -66.954811516,44.813446665 -67.200753668,44.639301453 -67.578163576,44.659107014 -67.570718263,44.530075164 -67.852325439,44.559440613 -67.904617993,44.393025088 -68.034813486,44.486401686 -68.058615503,44.329995059 -68.267692566,44.493976593 -68.181840419,44.327682222 -68.342828614,44.224034265 -68.48690049,44.454776713 -68.531692505,44.227619171 -68.835470345,44.310978372 -68.7625668,44.362158304 -68.812933757,44.536445741 -69.063201904,44.443763733 -68.95351539,44.34400584 -69.211897951,43.940768681 -69.433058791,44.00095383 -69.838073113,43.704609679 -70.049445642,43.742340943 -69.946884155,43.865978241 -70.178588061,43.799148505 -70.209976862,43.562492507 -70.362602614,43.563991456 -70.819198217,42.899315049 -70.830322392,42.685535834 -70.595490415,42.637436374 -71.055458069,42.306137085 -70.769835954,42.251189009 -70.605300903,42.005580902 -70.718238144,42.002230548 -70.341216804,41.709110152 -70.012825012,41.80821228 -70.251174927,42.063644409 -70.077833677,42.048832213 -69.940795898,41.819000244 -69.932105858,41.680098743 -69.996337891,41.558437347 -70.166908264,41.68920517 -70.694564819,41.525085449 -70.611404458,41.765346657 -70.718970904,41.760694027 -71.202110291,41.459770203 -71.177528174,41.716440527 -71.306739807,41.656974792 -71.385047559,41.806838888 -71.488418579,41.364688873 -72.956565857,41.307498932 -73.659613462,41.001877301 -74.278885268,40.49206562 -73.984764099,40.445472717 -74.100793326,39.758060619 -74.063842773,40 -74.307136536,39.499279022 -74.411902992,39.544220404 -74.864013672,38.938800812 -74.974539366,38.93808368 -74.895133804,39.157272326 -75.148986938,39.181305708 -75.586762288,39.641563625 -75.393342357,39.051250531 -75.08618899,38.780464625 -75.060890198,38.606163025 -75.285797433,38.586741866 -75.067353088,38.598998554 -75.051345859,38.442081758 -75.196815883,38.438758407 -75.098969172,38.321178368 -75.687531494,37.638081543 -75.67360027,37.480782171 -75.809089661,37.513912201 -75.949241714,37.116878508 -76.025344684,37.305519559 -75.839667278,37.55588887 -75.944915771,37.566631317 -75.643166392,37.973214572 -75.89789603,37.929325705 -75.751785278,38.084438324 -75.959998684,38.131123202 -75.859321402,38.346904319 -75.90998008,38.339950556 -75.940972493,38.240600334 -75.973609296,38.230491776 -75.960403112,38.340081833 -76.013542545,38.373272828 -76.036201477,38.214859009 -76.336799622,38.470626831 -76.133918762,38.536384583 -76.274124281,38.538070784 -76.29053497,38.628008644 -76.051116611,38.558158761 -75.9825973,38.579943521 -76.175971173,38.663055516 -76.094963944,38.763755252 -76.206030601,38.665905424 -76.249207023,38.800803726 -76.298255241,38.715950126 -76.260589881,38.812468886 -76.350669861,38.685005188 -76.305144614,38.823352872 -76.254570007,38.857975006 -76.175323774,38.742590929 -76.072830766,38.888943318 -76.299476611,38.980022847 -76.379569643,38.847107002 -76.312530518,39.027233124 -76.23500061,38.963970184 -76.158882029,38.983645627 -76.147224513,38.999470107 -76.121566731,39.162833675 -76.210983269,39.049930887 -76.277854836,39.147841822 -75.945525974,39.580657422 -76.221908569,39.344329834 -76.216842651,39.464042664 -76.282127722,39.436580718 -76.28067771,39.293610118 -76.31241627,39.380535451 -76.413474681,39.37997166 -76.440552256,39.18729455 -76.479660034,39.268348694 -76.628044686,39.256229637 -76.398468018,39.01404953 -76.613182068,39.069961548 -76.459022522,38.937366486 -76.611206124,38.971397158 -76.32476779,38.038342024 -76.922584534,38.2891922 -77.022117645,38.491046233 -77.24593384,38.372475502 -77.170013428,38.600704193 -77.227088928,38.650360107 -77.284065803,38.33892429 -77.040886317,38.393833095 -76.956825268,38.207759866 -76.245254517,37.877700806 -76.363762573,37.602905728 -76.52186556,37.640217105 -76.594947833,37.769627509 -76.875068815,37.986309123 -76.906334108,37.975021008 -76.57358551,37.627506256 -76.304543054,37.55297809 -76.403236389,37.530391693 -76.274086265,37.306866835 -76.46321106,37.243186951 -76.78653717,37.515274048 -76.808921886,37.493332117 -76.298805237,37.122348785 -76.30594635,37.000141144 -76.648407281,37.211961 -76.947700186,37.224418966 -76.685424805,37.188419342 -76.446785865,36.904830088 -76.000961304,36.925365448 -75.877281189,36.592151642 -75.870484131,36.549458415 -75.89021878,36.550316751 -75.919868469,36.675491333 -75.974571228,36.713382721 -75.909279367,36.485389385 -76.039818763,36.497542497 -75.7981194,36.073762198 -76.140289307,36.287643433 -76.071061431,36.13816453 -76.724196971,35.955863643 -76.055115772,35.984226163 -76.037062734,35.644467015 -75.831466675,35.966121674 -75.731651306,35.624893188 -76.153259276,35.321438126 -76.584144592,35.503860474 -76.578010204,35.38327706 -76.920005548,35.458583727 -76.471428641,35.259121239 -76.940399037,34.971908498 -76.303115915,35.009741861 -76.517218885,34.719658579 -76.952316042,34.728485572 -77.060097184,34.677288635 -76.761977318,34.713656178 -76.682809102,34.695011897 -77.459564543,34.475384694 -77.846160889,34.215457916 -77.935676575,33.938400269 -77.930419931,34.102459011 -77.972534565,34.167607411 -78.01890564,33.889900208 -78.778625135,33.772198045 -79.179458618,33.206184387 -79.198837544,33.298748883 -79.288101196,33.283500671 -79.187927655,33.174251243 -79.910857398,32.669354513 -80.546306426,32.51240212 -80.469627834,32.3984027 -80.640411377,32.256874084 -80.838088989,32.475208282 -80.674217702,32.217723791 -80.904966968,32.051546083 -81.118479395,32.117359712 -81.289938206,32.563831735 -82.002288994,32.60701428 -82.315489597,32.833849145 -82.232492542,33.23115974 -82.431873866,33.655390683 -83.40617935,33.698359439 -83.505877429,33.817762157 -83.68068421,33.597004125 -83.982349236,33.786282149 -84.115828917,33.6145251 -84.986255481,33.455856092 -84.667973591,32.563584264 -84.957118906,32.373954478 -85.314424044,33.488079448 -85.643492826,33.49600263 -85.653189297,33.10657751 -86.898467547,33.049851316 -87.528072026,33.692456284 -87.531497496,33.867951694 -88.205000023,34.058679603 -88.420517029,32.308702036 -87.927306571,32.31057498 -88.110971259,32.005845249 -87.667739442,31.991253571 -87.62007242,31.827097075 -86.906958716,31.830578058 -86.908705806,31.961456158 -86.303247357,32.051393902 -86.148169163,31.791081645 -86.18681067,30.994247794 -86.700040276,30.999945123 -86.763316652,31.261043602 -87.805354531,31.319913665 -87.943968968,31.162488232 -88.430816895,31.113981218 -88.424454212,30.997332148 -88.837405992,31.000145706 -88.886637206,30.677548639 -89.340199133,30.647356556 -89.322029114,30.306468964 -89.747642173,30.176064059 -90.243686365,30.357392274 -90.348073476,31.00095147 -90.566847601,30.999795749 -90.570303979,30.649901809 -90.910305677,30.650409453 -90.826681928,30.999008202 -91.175602095,30.999773375 -91.305016173,30.652729207 -91.593597127,30.748853065 -91.527131696,30.810128315 -91.549553691,30.916590012 -91.661893327,30.859827735 -91.653882148,31.256555891 -91.406490583,31.579089491 -91.518975006,31.626858534 -91.263351864,31.750942278 -91.339170435,31.84129587 -91.000511214,32.14491913 -91.164256,32.19703322 -90.992569178,32.201862593 -90.877536365,32.371273764 -91.114666026,32.487148379 -91.002814617,32.624213831 -91.153101591,32.625972591 -91.074833568,32.923289836 -91.209282386,32.918250624 -91.203621264,33.121758283 -91.057171357,33.440418945 -91.241957373,33.444516207 -91.215331218,33.703990394 -90.989561238,33.778695136 -91.090304051,33.9998803 -90.872361598,34.090404925 -91.11998896,34.11890541 -91.056308024,34.33655398 -91.447759965,34.610745607 -91.387367056,34.903388718 -90.408080238,34.904181266 -90.39908516,35.147911209 -91.042406523,35.148091087 -91.039827564,35.3541691 -91.348022612,35.445235727 -91.426252579,35.100647104 -92.1196366,35.066574326 -92.240176103,35.712267143 -92.418629772,35.715857082 -92.411442392,36.062509195 -92.891217188,36.114325905 -92.85395551,36.496508471 -93.869457449,36.498093249 -93.869297749,36.307167908 -93.661967741,36.30478332 -93.550956307,36.12617562 -92.944758623,36.115275863 -92.849746519,35.463495138 -92.479305012,35.455590403 -92.614021508,35.078648749 -93.042078525,35.075185545 -92.921857988,35.169711731 -93.071916077,35.120322035 -93.299699483,35.326862012 -93.164906538,35.728576617 -93.696170635,35.768464739 -93.708317246,35.375226398 -94.061776752,35.199777819 -94.071243897,35.446143693 -94.299958777,35.353384024 -94.473727397,35.638569277 -95.128645103,35.639062666 -95.127774847,35.812062633 -95.269013494,35.814317456 -95.208871999,36.075297314 -95.44064588,36.076549048 -95.434960727,36.511650188 -95.007003067,36.511317401 -95.087296152,37.674507676 -94.615997481,37.673549197 -94.612096388,38.475792498 -94.064803998,38.447203658 -94.108875432,39.143403483 -93.111844133,39.38213624 -93.282378249,39.465500186 -93.269392765,39.700862328 -92.299415614,39.605606615 -92.290046174,39.954224601 -91.954707076,39.950954896 -91.943032958,40.606476021 -91.717713851,40.60115416 -91.716987802,41.161939388 -91.486900534,41.162160345 -91.483756752,41.422195411 -91.368556734,41.423507535 -91.364755488,42.296367 -92.065606127,42.297375035 -92.081670606,43.213182978 -92.554257256,43.21288998 -92.552776317,43.502736026 -93.050050771,43.50342734 -93.05029372,43.851783314 -92.080448146,43.850850924 -92.080279309,44.194846435 -91.85772237,44.194235753 -92.080675395,44.409103459 -92.035289209,44.581036137 -91.649918845,44.683605445 -92.134894778,44.684517871 -92.135009652,44.539414005 -92.315247778,44.540730362 -92.243198561,44.455788124 -92.551530034,44.369522779 -92.551378005,44.197219932 -93.040351765,44.198441485 -93.038832449,44.517095659 -92.79129005,44.545198179 -92.764243712,44.862234654 -92.136534512,44.857938263 -92.15619368,45.20968842 -91.542430669,45.206692978 -91.540003412,45.63776574 -90.678248351,45.638416981 -90.678836377,45.377853812 -90.92541725,45.379585969 -90.922549521,45.031078466 -90.314584597,45.033862543 -90.316218406,44.424741568 -91.165484799,44.596988052 -91.151334026,44.071034885 -89.898142534,44.249317935 -89.963196732,43.872329075 -89.786475931,43.64106569 -89.59994369,43.642709688 -89.597646456,44.245781458 -89.724602767,44.24790635 -89.844837111,44.684927137 -88.605020279,44.678292562 -88.886154281,43.983317399 -89.165769481,43.982951348 -89.245417863,43.757234806 -89.245212015,43.642957399 -89.006893253,43.63318014 -89.011875904,42.847085002 -88.54122702,42.844483132 -88.400728399,43.543495892 -88.160784611,43.543095264 -88.162188165,43.891447363 -87.724484474,43.887217158 -87.787197786,43.536678406 -88.040183314,43.54227125 -88.062170561,43.367290212 -88.069906773,42.844723295 -87.821192832,42.844555673 -87.775733746,42.697644008 -88.186960669,42.671832515 -88.301580894,42.497904076 -87.795280689,42.498307027 -87.571982366,41.787633677 -87.298057175,41.617930964 -86.605278083,41.8949271 -86.155403137,42.645298004 -86.528159883,43.626503557 -86.390213013,43.757698059 -86.503700256,44.068889618 -86.195312967,44.355484428 -86.251617031,44.686188607 -86.066139221,44.897953033 -85.535064928,45.206638179 -85.625611319,44.769430996 -85.479072849,44.987907056 -85.566162109,44.754573822 -85.412246361,44.893558388 -85.372673035,44.797393799 -85.29019928,44.793991089 -85.377822794,45.234515396 -85.009819031,45.213565826 -85.250602722,45.322246552 -84.911086754,45.391723215 -85.107902372,45.51634644 -85.003799419,45.758888038 -84.725922273,45.785716428 -83.384460785,45.274573965 -83.252220489,45.020473484 -83.587890625,45.120433807 -83.304916382,44.878868103 -83.321373163,44.334367677 -83.901413378,43.91286426 -83.966705322,43.376953125 -83.831619263,43.656497955 -83.679252072,43.585654341 -83.397674561,43.912109375 -82.891998187,44.07337525 -82.634940807,43.847100642 -82.413688726,42.965077208 -82.452461605,42.929410152 -82.470549648,42.886452635 -82.524222557,42.609086005 -82.799133863,42.64629036 -82.75291369,42.583881928 -82.885559699,42.386058998 -83.068831977,42.308182001 -83.138663746,42.232417967 -83.247154236,41.939517975 -83.491043091,41.93547821 -83.328789077,41.884415435 -83.421310357,41.736171796 -84.80674941,41.695785933 -84.813834823,39.916840957 -84.485506929,39.918389973 -84.478861505,39.568436813 -84.815062733,39.567639297 -84.819143833,39.106829316 -84.319465036,39.022287207 -84.291901219,39.249810265 -84.006815234,39.255402922 -83.976962838,39.569028507 -84.113822112,39.577764156 -84.051088079,39.880067418 -84.426159809,39.919313186 -84.339188311,40.481171138 -83.520001464,40.509477247 -83.670507613,39.550054248 -83.590958217,39.378509012 -83.373107908,39.377055815 -83.261754098,40.049656381 -82.762228346,40.125600838 -82.744948807,40.349636752 -83.022352256,40.418633607 -82.957985633,40.645198619 -82.627361603,40.709458279 -82.623447499,40.550269284 -82.336698522,40.555209751 -82.436679639,41.065167377 -81.877876083,41.274669539 -81.969744043,41.51140828 -79.128723145,42.568538666 -78.851143138,42.789793248 -78.890067599,43.050591472 -79.060447395,43.082393503 -79.037384148,43.141560719 -79.052345985,43.261309892 -76.721206893,43.317317298 -76.20714573,43.553177134 -76.302078125,43.862431014 -76.067535201,43.992947503 -76.20614624,44.079353333 -76.283279122,43.965240615 -76.376862782,44.104284819 -75.865247072,44.354950312 -75.296411179,44.838246681 -74.485773849,45.036639555 -73.752014266,45.401634061 -73.513130808,45.406535409 -73.147774663,46.041987486 -72.667892794,46.193561718 -72.241974455,46.424047123 -72.16479574,46.53876766 -71.362538678,46.714176564 -70.503886458,47.008061508 -69.515578099,47.936665295 -68.818637608,48.365745518 -66.746041906,49.081954862 -65.559278974,49.248971735 " /><polygon class="region" points="-87.316698077,38.231316366 -87.072977222,38.232247162 -86.90623457,38.906878498 -87.242123095,38.910307952 -87.237988081,39.260711689 -88.00853963,39.174979153 -88.013857064,39.379495385 -88.472239107,39.374139622 -88.473657955,39.652043837 -87.965671253,39.686750227 -87.960468254,39.482665182 -87.530848122,39.476630181 -87.532320472,39.882026876 -88.463846732,39.87774696 -88.459322318,40.397371904 -87.09344628,40.476104049 -86.930045374,41.237078977 -88.244126629,41.203387426 -88.26247441,41.725120594 -88.604526826,41.720688008 -88.587239652,41.110556013 -88.930558615,41.106649886 -89.048161993,40.926090932 -89.167931204,41.584464292 -90.18938899,41.586223639 -90.431988205,41.456233093 -90.439572082,41.152111179 -89.456221872,40.934147902 -89.660370527,40.567544232 -89.871262998,40.513130966 -89.986882384,40.711398229 -90.446522953,40.714706012 -90.439618003,41.064082378 -90.786446382,41.069675126 -90.788903754,40.635935845 -90.447194459,40.62851584 -90.450368751,40.277010552 -90.909719511,40.283148931 -90.911619493,40.104905173 -90.514942299,39.98584668 -90.581164034,39.521489411 -89.701576808,39.524189512 -89.595739386,37.955140302 -89.151577789,37.951508385 -89.154400878,37.600680341 -88.409070767,37.602629354 -88.454617094,37.089002297 -88.900365535,37.334959268 -89.177021778,37.058965173 -89.178975182,36.650808242 -88.057023921,36.496634013 -88.157713375,36.867337726 -87.76452194,36.974688919 -87.680868217,37.149008324 -86.674346216,36.999729005 -86.617737927,37.183898138 -86.074328464,37.05304426 -86.056720426,37.16692638 -85.686584379,37.182124517 -85.657044442,37.421985287 -85.894303515,37.469948184 -85.68277015,37.749230603 -85.905251624,37.989392391 -86.359071785,38.197811451 -86.617692298,37.850470215 -86.820620137,37.998379766 -87.124138306,37.783452513 -87.451184789,37.939342591 -87.466320988,38.203483924 -87.316698077,38.231316366 " /><polygon class="region" points="-88.823167682,34.996780198 -89.354088627,34.995880172 -89.244702421,34.076189868 -88.201147284,34.089228392 -88.097932051,34.896241483 -88.823167682,34.996780198 " /><polygon class="region" points="-80.611069441,40.352096754 -80.883778673,39.618490753 -81.588605005,39.586678429 -81.639751236,39.752516748 -82.076367344,39.770613247 -82.05734714,39.458662494 -81.844715144,39.450018587 -81.721541968,39.215865774 -81.056052046,39.474804244 -80.812940547,39.108104422 -80.5331036,39.193025043 -80.391881833,39.646392694 -80.517267108,39.721191975 -80.519199434,40.401299438 -80.611069441,40.352096754 " /><polygon class="region" points="-90.38528296,35.990568018 -91.031983994,35.884613343 -91.036462973,35.442198845 -90.063165303,35.399838739 -89.855445916,35.638288673 -89.954769842,35.729477076 -89.64555987,35.891494047 -90.38528296,35.990568018 " /><polygon class="region" points="-79.906094682,39.300205406 -80.302397842,39.102245897 -80.394633124,38.728510813 -80.679207433,38.503371234 -80.62735929,38.354080932 -80.360880257,38.2264359 -80.184121324,38.522789235 -80.280073694,38.696196264 -79.825713313,39.105218519 -79.906094682,39.300205406 " /><polygon class="region" points="-73.255799598,45.215907387 -73.386882901,44.933823417 -73.379713282,44.69698684 -73.446580181,44.70942981 -73.320432288,44.270953015 -73.432462441,44.189196195 -73.458018115,44.031386874 -73.416225918,44.027552489 -73.411010742,43.848190307 -73.367523194,43.774677276 -73.435157776,43.64661026 -73.427917481,43.628944397 -73.34892273,43.771507263 -73.394630432,43.824066162 -73.370567322,43.875675202 -73.392894204,44.018281821 -73.423946032,44.051300037 -73.218854235,44.423932528 -73.313495846,44.551969557 -73.138283145,44.798987001 -73.226824829,44.9426138 -73.07621787,45.043344933 -73.14832232,45.08371644 -73.294542905,44.846093399 -73.255799598,45.215907387 " /><polygon class="region" points="-81.866156226,37.541814146 -81.992929715,37.465480615 -81.678981783,37.20315135 -81.305626709,37.422638044 -81.866156226,37.541814146 " /><polygon class="region" points="-84.005151923,39.146629201 -84.052917497,38.772505216 -83.705394275,38.638668785 -83.673238002,39.020109546 -83.871061828,39.020799832 -83.865836199,39.24705638 -84.005151923,39.146629201 " /><polygon class="region" points="-81.938039193,38.026688903 -82.195637395,37.963851876 -82.081954822,37.701530198 -81.608573675,37.790304119 -81.938039193,38.026688903 " /><polygon class="region" points="-81.002584276,41.133998868 -81.08713735,40.901284631 -80.518010912,40.899599553 -80.518187158,41.133305478 -81.002584276,41.133998868 " /><polygon class="region" points="-75.166833417,38.288615577 -75.16696131,38.27898369 -75.159049327,38.300106484 -75.161705647,38.296821247 -75.166833417,38.288615577 " /><polygon class="region" points="-71.354817906,46.73877658 -71.695648392,46.668116585 -71.880222112,46.690508313 -72.853146599,46.264539447 -73.162264112,46.064801257 -73.468839364,45.714732824 -74.055451653,45.458949316 -74.609489734,45.643040136 -74.929343285,45.648298274 -75.024266543,45.598407712 -75.210735327,45.596832057 -75.673111191,45.47314512 -75.806614559,45.379901879 -76.095037217,45.536570909 -76.232444064,45.516848165 -76.240209895,45.475870847 -76.372378972,45.464691407 -76.408889548,45.514088016 -76.657957654,45.561664892 -76.69201722,45.711144553 -76.759768792,45.755008575 -76.768845134,45.751954841 -76.749799397,45.849539405 -76.808655835,45.897018339 -77.237844501,45.92758141 -77.258726925,46.015044045 -77.560086759,46.167153964 -77.688598015,46.203354912 -77.033405834,45.784981736 -76.784133166,45.862691834 -76.791276807,45.75029225 -76.662320393,45.559033758 -76.348735358,45.443009465 -76.094379937,45.511689421 -75.813590423,45.352886898 -74.648215312,45.63540222 -73.95046456,45.330262792 -74.947240153,45.022715355 -75.427843582,44.775732681 -75.95265914,44.377342718 -76.62407632,44.241245355 -77.010635376,44.047561646 -76.988273621,44.202884674 -77.324859619,44.163162231 -77.554008484,44.097385406 -77.563735962,44.26467514 -77.788146973,44.284549713 -77.569458008,44.256977081 -77.577049255,44.051456451 -77.060516357,44.166835785 -77.1277771,44.007511139 -77.099754333,44.039703369 -77.015769958,44.029968262 -76.84590931,44.10953805 -77.038665389,43.92107533 -76.865776062,43.937953949 -77.122695923,43.843631744 -77.675140239,44.034049542 -78.931930542,43.857334137 -79.792457307,43.308034941 -79.063262244,43.255421041 -79.112946545,43.044474775 -78.927551482,42.883048964 -80.206672228,42.779135825 -80.444511414,42.607833862 -80.06545281,42.539439596 -81.32775116,42.645198822 -81.849181806,42.24813554 -82.396423795,42.108703851 -82.505264259,41.901715135 -83.106956155,42.044611988 -83.064621243,42.303767173 -82.443459045,42.308972281 -82.407439463,42.47436204 -82.575531565,42.552081263 -82.483429253,42.551018107 -82.502472596,42.658896496 -82.40281758,42.971961245 -82.414680763,42.99763544 -81.706100464,43.390674591 -81.750274041,44.068219314 -81.268379211,44.635173798 -81.365279852,44.995506002 -81.715858459,45.225765228 -81.279533525,45.23848712 -81.150840931,44.899165154 -80.956283686,44.953647656 -81.135352891,44.74260585 -80.900878494,44.789107895 -80.937820655,44.576636142 -80.64463069,44.718611959 -80.098670959,44.463050842 -79.969161849,44.665001476 -80.115486229,44.80799863 -79.702178734,44.759399765 -80.102157592,45.113418542 -79.873505597,45.094390689 -80.386962242,45.453189951 -80.272086626,45.705329814 -80.506347671,46.173851904 -80.311130133,46.290982426 -78.72714715,46.358578269 -77.701587472,46.180255387 -78.071126941,46.254248364 -71.354817906,46.73877658 " /><polygon class="region" points="-60.547279762,47.025297518 -60.311123502,46.851951792 -60.633403216,46.216906257 -60.431145814,46.301201718 -61.144927651,45.9729022 -60.748224017,46.077710946 -61.10626175,45.912098285 -61.146670416,45.852268195 -61.028823304,45.909927387 -60.92119341,45.877508276 -61.182342257,45.717353211 -60.748512268,45.695907593 -60.36686713,46.037716098 -60.80828476,45.956455231 -60.336441203,46.214068852 -60.675783941,46.08836071 -60.371039743,46.333675225 -60.231682194,46.12446238 -60.143081734,46.272930055 -59.8269888,46.188754019 -59.978149414,46.038738251 -59.796531194,45.958878261 -60.696640015,45.571537018 -61.334538253,45.567135677 -61.552631651,46.0413976 -60.547279762,47.025297518 " /><polygon class="region" points="-84.082108935,46.833780878 -83.922592405,46.74405283 -83.695387193,46.27306252 -84.083877989,46.32790737 -84.1106115,46.525874508 -84.589660955,46.529595153 -84.420532227,46.681491852 -84.567558661,46.686486323 -84.552375793,46.820713043 -84.082108935,46.833780878 " /><polygon class="region" points="-61.041253446,46.611628753 -61.056737777,46.620303926 -61.029667595,46.651908083 -61.026716197,46.644595779 -61.041253446,46.611628753 " />
		  </g>
		</svg>