<?xml version="1.0" encoding="UTF-8"?>
	<svg xmlns:xlink="http://www.w3.org/1999/xlink" 
	xmlns="http://www.w3.org/2000/svg" 
	width="360px" height="180px">
	   <style type="text/css">
		  <![CDATA[     
		  .region 
		  { 
			fill:blue; 
			opacity:0.4; 
			stroke:blue;
		  }
		  ]]>
	   </style>

	<circle id="dot" x="-2" y="-2" r="2" style="stroke:none; stroke-width:0; fill:black; opacity:0.7;"/>


	 <image x="0" y="0" width="360" height="180" xlink:href="map.jpg"/>

 
	 <g transform="translate(180,90) scale(1,-1)"><polygon class="region" points="142.540390015,-10.697472572 142.467895508,-10.979055405 142.59588623,-10.872666359 142.787719727,-11.080471992 142.857223511,-11.849971771 143.246032715,-11.976083755 143.081695557,-12.342971802 143.440750122,-12.611332893 143.353271484,-12.899806023 143.546051025,-12.844583511 143.532440186,-13.74980545 143.772918701,-14.383972168 143.949798584,-14.517250061 144.519561768,-14.169805527 144.682830811,-14.551194191 145.352081299,-14.954722404 145.217330933,-15.457111359 145.476196289,-16.078861237 145.405715942,-16.43911171 145.776306152,-16.992944717 145.959472656,-16.895805359 145.924728394,-17.218639374 146.146392822,-17.652805328 146.016799927,-18.245527267 146.336135501,-18.540572112 145.467987,-18.251645 144.795412,-17.808118 144.224809,-17.218027 143.01918,-14.573076 142.127948,-13.855212 141.496344857,-13.735906924 141.628173828,-13.373250008 141.69190979,-13.457027435 141.784942627,-13.371472359 141.655609131,-13.33833313 141.600479126,-12.957611084 141.806915283,-12.677166939 141.929916382,-12.895472527 142.023391724,-12.725889206 141.827529907,-12.648722649 141.989746094,-12.592055321 142.0415802,-12.551610947 141.818725586,-12.599778175 141.726394653,-12.386500359 141.592605591,-12.556944847 141.882247925,-11.95633316 141.894439697,-12.229083061 141.89781189,-12.239417076 141.929504395,-12.257555962 141.957687378,-12.044555664 142.020523071,-12.07463932 142.063446045,-11.985027313 142.149917603,-12.019749641 142.072479248,-11.974611282 142.043395996,-11.987028122 142.016784668,-12.044305801 141.940078735,-11.973833084 142.096832275,-11.740194321 142.13369751,-10.963222504 142.540390015,-10.697472572 " /><polygon class="region" points="142.003200638,-8.2179424349999 143.108978271,-8.455361366 143.424865723,-8.962555885 142.640579224,-9.3337497709999 142.218048096,-9.148638725 142.256195068,-8.9715833659999 142.199310303,-8.9095830919999 142.139190674,-8.90344429 142.250946045,-8.978750229 142.169830322,-9.1584720609999 142.025970459,-8.97424984 142.042358398,-9.1701393129999 141.122192383,-9.2303609849999 141.067597546,-7.663510973 141.674006957,-7.8540967879999 142.003200638,-8.2179424349999 " /><polygon class="region" points="142.232391357,-10.638028145 142.269729614,-10.729000092 142.153137207,-10.769361496 142.123306274,-10.650694847 142.232391357,-10.638028145 " /><polygon class="region" points="142.280395508,-10.123555183 142.347671509,-10.174444199 142.278640747,-10.261333466 142.189193726,-10.195666313 142.280395508,-10.123555183 " /><polygon class="region" points="142.184997559,-10.064833641 142.191299438,-10.145055771 142.137466431,-10.176638603 142.092025757,-10.110250473 142.184997559,-10.064833641 " /><polygon class="region" points="142.668746948,-9.3778333659999 142.703048706,-9.384860992 142.75843811,-9.3695554729999 142.8019104,-9.383360863 142.600357056,-9.411333084 142.668746948,-9.3778333659999 " /><polygon class="region" points="142.243301392,-9.2591943739999 142.294937134,-9.2670001979999 142.132659912,-9.2672777179999 142.221801758,-9.232500076 142.243301392,-9.2591943739999 " /><polygon class="region" points="142.308944702,-10.574999809 142.326522827,-10.617388725 142.269165039,-10.644361496 142.239807129,-10.608055115 142.308944702,-10.574999809 " /><polygon class="region" points="142.224365234,-10.544249535 142.211364746,-10.571971893 142.181549072,-10.563471794 142.217193604,-10.523388863 142.224365234,-10.544249535 " /><polygon class="region" points="142.319976807,-9.5708885189999 142.284576416,-9.574194908 142.259002686,-9.558111191 142.292282104,-9.5548334119999 142.319976807,-9.5708885189999 " /><polygon class="region" points="142.849975586,-10.017416954 142.867385864,-10.035499573 142.861465454,-10.056305885 142.828384399,-10.029166222 142.849975586,-10.017416954 " /><polygon class="region" points="142.31980896,-10.544083595 142.30329895,-10.544221878 142.280166626,-10.527416229 142.315994263,-10.510305405 142.31980896,-10.544083595 " /><polygon class="region" points="142.715423584,-9.376889229 142.698410034,-9.378889084 142.671020508,-9.3695278169999 142.696365356,-9.361916542 142.715423584,-9.376889229 " /><polygon class="region" points="142.92855835,-9.865083694 142.902328491,-9.8648891449999 142.901168823,-9.849888802 142.93850708,-9.852999687 142.92855835,-9.865083694 " /><polygon class="region" points="142.18397522,-9.9715003969999 142.167800903,-9.957111359 142.179748535,-9.9418611529999 142.201385498,-9.950416565 142.18397522,-9.9715003969999 " /><polygon class="region" points="142.660720825,-10.650250435 142.640335083,-10.653666496 142.641860962,-10.622833252 142.664718628,-10.63041687 142.660720825,-10.650250435 " /><polygon class="region" points="142.13772583,-10.386750221 142.126251221,-10.373971939 142.128173828,-10.356027603 142.141082764,-10.372249603 142.13772583,-10.386750221 " /><polygon class="region" points="142.645309448,-9.776583672 142.625671387,-9.778277397 142.628494263,-9.760749817 142.64616394,-9.763583183 142.645309448,-9.776583672 " />
		  </g>
		</svg>