<?xml version="1.0" encoding="UTF-8"?>
	<svg xmlns:xlink="http://www.w3.org/1999/xlink" 
	xmlns="http://www.w3.org/2000/svg" 
	width="360px" height="180px">
	   <style type="text/css">
		  <![CDATA[     
		  .region 
		  { 
			fill:blue; 
			opacity:0.4; 
			stroke:blue;
		  }
		  ]]>
	   </style>

	<circle id="dot" x="-2" y="-2" r="2" style="stroke:none; stroke-width:0; fill:black; opacity:0.7;"/>


	 <image x="0" y="0" width="360" height="180" xlink:href="map.jpg"/>

 
	 <g transform="translate(180,90) scale(1,-1)"><polygon class="region" points="-83.539222092,9.9177960980001 -83.391048591,9.770275343 -83.907371231,9.9458642060001 -83.720032928,10.015708103 -83.539222092,9.9177960980001 " /><polygon class="region" points="-84.888599353,10.394328684 -85.044239243,10.546781409 -85.075579699,10.662581736 -84.91622145,10.538813496 -84.888599353,10.394328684 " /><polygon class="region" points="-85.882054629,12.787019828 -85.927243746,12.83065845 -85.883605123,12.875847567 -85.838416007,12.832208944 -85.882054629,12.787019828 " /><polygon class="region" points="-85.018105874,13.423876345 -85.045251054,13.45009014 -85.019037258,13.47723532 -84.991892079,13.451021525 -85.018105874,13.423876345 " /><polygon class="region" points="-84.61760217,10.266683853 -84.63587697,10.284331623 -84.618229201,10.302606423 -84.599954401,10.284958653 -84.61760217,10.266683853 " /><polygon class="region" points="-83.184539707,9.9272210230001 -83.198897746,9.94108642 -83.185032349,9.955444459 -83.17067431,9.9415790620001 -83.184539707,9.9272210230001 " />
		  </g>
		</svg>