<?xml version="1.0" encoding="UTF-8"?>
	<svg xmlns:xlink="http://www.w3.org/1999/xlink" 
	xmlns="http://www.w3.org/2000/svg" 
	width="360px" height="180px">
	   <style type="text/css">
		  <![CDATA[     
		  .region 
		  { 
			fill:blue; 
			opacity:0.4; 
			stroke:blue;
		  }
		  ]]>
	   </style>

	<circle id="dot" x="-2" y="-2" r="2" style="stroke:none; stroke-width:0; fill:black; opacity:0.7;"/>


	 <image x="0" y="0" width="360" height="180" xlink:href="map.jpg"/>

 
	 <g transform="translate(180,90) scale(1,-1)">   <use xlink:href="#dot" transform="translate(-83.649713986385,9.9011348608805)" />   <use xlink:href="#dot" transform="translate(-83.72473,9.91038)" />   <use xlink:href="#dot" transform="translate(-83.72473,9.91038)" />   <use xlink:href="#dot" transform="translate(-83.72473,9.91038)" />   <use xlink:href="#dot" transform="translate(-83.43333,9.85)" />   <use xlink:href="#dot" transform="translate(-83.74625,9.9)" />   <use xlink:href="#dot" transform="translate(-83.649713986385,9.9011348608805)" />   <use xlink:href="#dot" transform="translate(-83.649713986385,9.9011348608805)" />   <use xlink:href="#dot" transform="translate(-83.76638692127,10.001129328976)" />   <use xlink:href="#dot" transform="translate(-84.9333,10.5333)" />   <use xlink:href="#dot" transform="translate(-83.648443591707,9.892869988921)" />   <use xlink:href="#dot" transform="translate(-83.648443591707,9.892869988921)" />   <use xlink:href="#dot" transform="translate(-83.649713986385,9.9011348608805)" />   <use xlink:href="#dot" transform="translate(-83.649713986385,9.9011348608805)" />   <use xlink:href="#dot" transform="translate(-83.649713986385,9.9011348608805)" />   <use xlink:href="#dot" transform="translate(-83.648443591707,9.892869988921)" />   <use xlink:href="#dot" transform="translate(-83.648443591707,9.892869988921)" />   <use xlink:href="#dot" transform="translate(-83.648443591707,9.892869988921)" />   <use xlink:href="#dot" transform="translate(-84.56461,10.38333)" />   <use xlink:href="#dot" transform="translate(-84.56461,10.38333)" />   <use xlink:href="#dot" transform="translate(-84.56461,10.38333)" />   <use xlink:href="#dot" transform="translate(-84.56461,10.38333)" />   <use xlink:href="#dot" transform="translate(-84.56461,10.38333)" />   <use xlink:href="#dot" transform="translate(-84.56461,10.38333)" />   <use xlink:href="#dot" transform="translate(-84.56461,10.38333)" />   <use xlink:href="#dot" transform="translate(-84.9376,10.49543)" />   <use xlink:href="#dot" transform="translate(-84.9376,10.49543)" />   <use xlink:href="#dot" transform="translate(-84.9376,10.49543)" />   <use xlink:href="#dot" transform="translate(-84.166396747429,10.234446156716)" />   <use xlink:href="#dot" transform="translate(-84.166396747429,10.234446156716)" />   <use xlink:href="#dot" transform="translate(-83.8,9.8833)" />   <use xlink:href="#dot" transform="translate(-83.8,9.8833)" />   <use xlink:href="#dot" transform="translate(-83.8,9.8833)" />   <use xlink:href="#dot" transform="translate(-83.648443591707,9.892869988921)" />   <use xlink:href="#dot" transform="translate(-83.72090350187,9.903009761675)" />   <use xlink:href="#dot" transform="translate(-83.72090350187,9.903009761675)" />   <use xlink:href="#dot" transform="translate(-83.72090350187,9.903009761675)" />   <use xlink:href="#dot" transform="translate(-83.72090350187,9.903009761675)" />   <use xlink:href="#dot" transform="translate(-83.648443591707,9.892869988921)" />   <use xlink:href="#dot" transform="translate(-83.72090350187,9.903009761675)" />   <use xlink:href="#dot" transform="translate(-83.648443591707,9.892869988921)" />   <use xlink:href="#dot" transform="translate(-83.648443591707,9.892869988921)" />   <use xlink:href="#dot" transform="translate(-83.7833,9.9)" />   <use xlink:href="#dot" transform="translate(-83.727243474015,9.9068395342724)" />   <use xlink:href="#dot" transform="translate(-83.727243474015,9.9068395342724)" />   <use xlink:href="#dot" transform="translate(-83.727243474015,9.9068395342724)" />   <use xlink:href="#dot" transform="translate(-83.727243474015,9.9068395342724)" />   <use xlink:href="#dot" transform="translate(-83.614853705176,9.877860822161)" />   <use xlink:href="#dot" transform="translate(-83.727243474015,9.9068395342724)" />   <use xlink:href="#dot" transform="translate(-83.727243474015,9.9068395342724)" />   <use xlink:href="#dot" transform="translate(-83.721223487884,9.9050396206695)" />   <use xlink:href="#dot" transform="translate(-83.727243474015,9.9068395342724)" />   <use xlink:href="#dot" transform="translate(-83.727243474015,9.9068395342724)" />   <use xlink:href="#dot" transform="translate(-83.769941332825,10.213948223952)" />   <use xlink:href="#dot" transform="translate(-83.727243474015,9.9068395342724)" />   <use xlink:href="#dot" transform="translate(-83.721223487884,9.9050396206695)" />   <use xlink:href="#dot" transform="translate(-83.727243474015,9.9068395342724)" />   <use xlink:href="#dot" transform="translate(-83.727243474015,9.9068395342724)" />   <use xlink:href="#dot" transform="translate(-83.727243474015,9.9068395342724)" />   <use xlink:href="#dot" transform="translate(-83.721223487884,9.9050396206695)" />   <use xlink:href="#dot" transform="translate(-83.727243474015,9.9068395342724)" />   <use xlink:href="#dot" transform="translate(-83.727243474015,9.9068395342724)" />   <use xlink:href="#dot" transform="translate(-83.727243474015,9.9068395342724)" />   <use xlink:href="#dot" transform="translate(-83.721223487884,9.9050396206695)" />   <use xlink:href="#dot" transform="translate(-83.614853705176,9.877860822161)" />   <use xlink:href="#dot" transform="translate(-83.614853705176,9.877860822161)" />   <use xlink:href="#dot" transform="translate(-83.721223487884,9.9050396206695)" />   <use xlink:href="#dot" transform="translate(-83.727243474015,9.9068395342724)" />   <use xlink:href="#dot" transform="translate(-83.614853705176,9.877860822161)" />   <use xlink:href="#dot" transform="translate(-83.614853705176,9.877860822161)" />   <use xlink:href="#dot" transform="translate(-83.614853705176,9.877860822161)" />   <use xlink:href="#dot" transform="translate(-83.614853705176,9.877860822161)" />   <use xlink:href="#dot" transform="translate(-83.614853705176,9.877860822161)" />   <use xlink:href="#dot" transform="translate(-83.614853705176,9.877860822161)" />   <use xlink:href="#dot" transform="translate(-83.614853705176,9.877860822161)" />   <use xlink:href="#dot" transform="translate(-83.614853705176,9.877860822161)" />   <use xlink:href="#dot" transform="translate(-83.614853705176,9.877860822161)" />   <use xlink:href="#dot" transform="translate(-83.614853705176,9.877860822161)" />   <use xlink:href="#dot" transform="translate(-83.614853705176,9.877860822161)" />   <use xlink:href="#dot" transform="translate(-83.614853705176,9.877860822161)" />   <use xlink:href="#dot" transform="translate(-83.614853705176,9.877860822161)" />   <use xlink:href="#dot" transform="translate(-83.6833,9.9)" />   <use xlink:href="#dot" transform="translate(-83.6833,9.9)" />   <use xlink:href="#dot" transform="translate(-83.6833,9.9)" />   <use xlink:href="#dot" transform="translate(-83.6833,9.9)" />   <use xlink:href="#dot" transform="translate(-83.6833,9.9)" />   <use xlink:href="#dot" transform="translate(-84.989619701064,10.485617673167)" />   <use xlink:href="#dot" transform="translate(-84.989619701064,10.485617673167)" />   <use xlink:href="#dot" transform="translate(-84.989619701064,10.485617673167)" />   <use xlink:href="#dot" transform="translate(-84.989619701064,10.485617673167)" />   <use xlink:href="#dot" transform="translate(-84.989619701064,10.485617673167)" />   <use xlink:href="#dot" transform="translate(-84.989619701064,10.485617673167)" />   <use xlink:href="#dot" transform="translate(-84.989619701064,10.485617673167)" />   <use xlink:href="#dot" transform="translate(-84.989619701064,10.485617673167)" />   <use xlink:href="#dot" transform="translate(-84.989619701064,10.485617673167)" />   <use xlink:href="#dot" transform="translate(-84.989619701064,10.485617673167)" />   <use xlink:href="#dot" transform="translate(-84.989619701064,10.485617673167)" />   <use xlink:href="#dot" transform="translate(-83.8,9.8833)" />   <use xlink:href="#dot" transform="translate(-84.989619701064,10.485617673167)" />   <use xlink:href="#dot" transform="translate(-84.989619701064,10.485617673167)" />   <use xlink:href="#dot" transform="translate(-83.8,9.8833)" />   <use xlink:href="#dot" transform="translate(-84.989619701064,10.485617673167)" />   <use xlink:href="#dot" transform="translate(-84.989619701064,10.485617673167)" />   <use xlink:href="#dot" transform="translate(-84.994439719757,10.483357862297)" />   <use xlink:href="#dot" transform="translate(-84.994439719757,10.483357862297)" />   <use xlink:href="#dot" transform="translate(-84.994439719757,10.483357862297)" />   <use xlink:href="#dot" transform="translate(-84.994439719757,10.483357862297)" />   <use xlink:href="#dot" transform="translate(-84.994439719757,10.483357862297)" />   <use xlink:href="#dot" transform="translate(-84.994439719757,10.483357862297)" />   <use xlink:href="#dot" transform="translate(-84.994439719757,10.483357862297)" />   <use xlink:href="#dot" transform="translate(-84.994439719757,10.483357862297)" />   <use xlink:href="#dot" transform="translate(-84.994439719757,10.483357862297)" />   <use xlink:href="#dot" transform="translate(-84.994439719757,10.483357862297)" />   <use xlink:href="#dot" transform="translate(-84.994439719757,10.483357862297)" />   <use xlink:href="#dot" transform="translate(-84.994439719757,10.483357862297)" />   <use xlink:href="#dot" transform="translate(-84.994439719757,10.483357862297)" />   <use xlink:href="#dot" transform="translate(-84.994439719757,10.483357862297)" />   <use xlink:href="#dot" transform="translate(-84.994439719757,10.483357862297)" />   <use xlink:href="#dot" transform="translate(-84.994439719757,10.483357862297)" />   <use xlink:href="#dot" transform="translate(-84.994439719757,10.483357862297)" />   <use xlink:href="#dot" transform="translate(-84.994439719757,10.483357862297)" />   <use xlink:href="#dot" transform="translate(-84.994439719757,10.483357862297)" />   <use xlink:href="#dot" transform="translate(-84.994439719757,10.483357862297)" />   <use xlink:href="#dot" transform="translate(-84.994439719757,10.483357862297)" />   <use xlink:href="#dot" transform="translate(-84.994439719757,10.483357862297)" />   <use xlink:href="#dot" transform="translate(-84.994439719757,10.483357862297)" />   <use xlink:href="#dot" transform="translate(-84.994439719757,10.483357862297)" />   <use xlink:href="#dot" transform="translate(-84.994439719757,10.483357862297)" />   <use xlink:href="#dot" transform="translate(-84.994439719757,10.483357862297)" />   <use xlink:href="#dot" transform="translate(-84.994439719757,10.483357862297)" />   <use xlink:href="#dot" transform="translate(-84.994439719757,10.483357862297)" />   <use xlink:href="#dot" transform="translate(-84.994439719757,10.483357862297)" />   <use xlink:href="#dot" transform="translate(-84.994439719757,10.483357862297)" />   <use xlink:href="#dot" transform="translate(-84.994439719757,10.483357862297)" />   <use xlink:href="#dot" transform="translate(-83.5833,9.85)" />   <use xlink:href="#dot" transform="translate(-83.4333,9.85)" />   <use xlink:href="#dot" transform="translate(-83.648443591707,9.892869988921)" />   <use xlink:href="#dot" transform="translate(-83.8,9.8833)" />   <use xlink:href="#dot" transform="translate(-83.6833,9.9)" />   <use xlink:href="#dot" transform="translate(-85.0833,10.6167)" />   <use xlink:href="#dot" transform="translate(-83.6833,9.9)" />   <use xlink:href="#dot" transform="translate(-85.1,10.4333)" />   <use xlink:href="#dot" transform="translate(-85.1,10.4333)" />   <use xlink:href="#dot" transform="translate(-85.1,10.4333)" />   <use xlink:href="#dot" transform="translate(-83.6833,9.9)" />   <use xlink:href="#dot" transform="translate(-83.648443591707,9.892869988921)" />   <use xlink:href="#dot" transform="translate(-83.648443591707,9.892869988921)" />   <use xlink:href="#dot" transform="translate(-83.648443591707,9.892869988921)" />   <use xlink:href="#dot" transform="translate(-83.8,9.8833)" />   <use xlink:href="#dot" transform="translate(-83.4333,9.85)" />   <use xlink:href="#dot" transform="translate(-83.648443591707,9.892869988921)" />   <use xlink:href="#dot" transform="translate(-83.8,9.8833)" />   <use xlink:href="#dot" transform="translate(-83.6833,9.9)" />   <use xlink:href="#dot" transform="translate(-83.2833,10.0333)" />   <use xlink:href="#dot" transform="translate(-84.9376,10.49543)" />   <use xlink:href="#dot" transform="translate(-83.2833,10.0333)" />   <use xlink:href="#dot" transform="translate(-83.649713949377,9.8844657409335)" />   <use xlink:href="#dot" transform="translate(-83.2833,10.0333)" />   <use xlink:href="#dot" transform="translate(-83.649713949377,9.8844657409335)" />   <use xlink:href="#dot" transform="translate(-83.649713949377,9.8844657409335)" />   <use xlink:href="#dot" transform="translate(-83.2833,10.0333)" /><polygon class="region" points="-83.8,9.8833 -85.1,10.4333 -85.0833,10.6167 -83.769941332825,10.213948223952 -83.2833,10.0333 -83.4333,9.85 -83.5833,9.85 -83.8,9.8833 " />
		  </g>
		</svg>