<?xml version="1.0" encoding="UTF-8"?>
	<svg xmlns:xlink="http://www.w3.org/1999/xlink" 
	xmlns="http://www.w3.org/2000/svg" 
	width="360px" height="180px">
	   <style type="text/css">
		  <![CDATA[     
		  .region 
		  { 
			fill:blue; 
			opacity:0.4; 
			stroke:blue;
		  }
		  ]]>
	   </style>

	<circle id="dot" x="-2" y="-2" r="2" style="stroke:none; stroke-width:0; fill:black; opacity:0.7;"/>


	 <image x="0" y="0" width="360" height="180" xlink:href="map.jpg"/>

 
	 <g transform="translate(180,90) scale(1,-1)">   <use xlink:href="#dot" transform="translate(102.567122,27.879767)" />   <use xlink:href="#dot" transform="translate(102.567122,27.879767)" />   <use xlink:href="#dot" transform="translate(102.567122,27.879767)" />   <use xlink:href="#dot" transform="translate(102.567122,27.879767)" />   <use xlink:href="#dot" transform="translate(102.567122,27.879767)" />   <use xlink:href="#dot" transform="translate(102.567122,27.879767)" />   <use xlink:href="#dot" transform="translate(102.567122,27.879767)" />   <use xlink:href="#dot" transform="translate(102.567122,27.879767)" />   <use xlink:href="#dot" transform="translate(102.567122,27.879767)" />   <use xlink:href="#dot" transform="translate(102.567122,27.879767)" />   <use xlink:href="#dot" transform="translate(102.567122,27.879767)" />   <use xlink:href="#dot" transform="translate(102.567122,27.879767)" />   <use xlink:href="#dot" transform="translate(102.567122,27.879767)" />   <use xlink:href="#dot" transform="translate(102.567122,27.879767)" />   <use xlink:href="#dot" transform="translate(102.567122,27.879767)" />   <use xlink:href="#dot" transform="translate(102.567122,27.879767)" />   <use xlink:href="#dot" transform="translate(102.567122,27.879767)" />   <use xlink:href="#dot" transform="translate(102.567122,27.879767)" />   <use xlink:href="#dot" transform="translate(102.567122,27.879767)" />   <use xlink:href="#dot" transform="translate(102.567122,27.879767)" />   <use xlink:href="#dot" transform="translate(102.567122,27.879767)" />   <use xlink:href="#dot" transform="translate(102.567122,27.879767)" />   <use xlink:href="#dot" transform="translate(102.567122,27.879767)" />   <use xlink:href="#dot" transform="translate(102.567122,27.879767)" />   <use xlink:href="#dot" transform="translate(102.567122,27.879767)" />   <use xlink:href="#dot" transform="translate(102.567122,27.879767)" />   <use xlink:href="#dot" transform="translate(102.567122,27.879767)" />   <use xlink:href="#dot" transform="translate(102.567122,27.879767)" />   <use xlink:href="#dot" transform="translate(102.567122,27.879767)" />   <use xlink:href="#dot" transform="translate(102.567122,27.879767)" />   <use xlink:href="#dot" transform="translate(102.567122,27.879767)" />   <use xlink:href="#dot" transform="translate(102.567122,27.879767)" />   <use xlink:href="#dot" transform="translate(102.567122,27.879767)" />   <use xlink:href="#dot" transform="translate(102.567122,27.879767)" />   <use xlink:href="#dot" transform="translate(102.567122,27.879767)" />   <use xlink:href="#dot" transform="translate(102.567122,27.879767)" />   <use xlink:href="#dot" transform="translate(102.567122,27.879767)" />   <use xlink:href="#dot" transform="translate(102.567122,27.879767)" />   <use xlink:href="#dot" transform="translate(102.567122,27.879767)" />   <use xlink:href="#dot" transform="translate(102.567122,27.879767)" />   <use xlink:href="#dot" transform="translate(102.517334,27.889333)" />   <use xlink:href="#dot" transform="translate(102.597878,27.95316)" />   <use xlink:href="#dot" transform="translate(102.566063,27.881)" />   <use xlink:href="#dot" transform="translate(102.517334,27.889333)" />   <use xlink:href="#dot" transform="translate(102.517334,27.889333)" />   <use xlink:href="#dot" transform="translate(102.566666,27.881)" />   <use xlink:href="#dot" transform="translate(102.517333,27.889333)" />   <use xlink:href="#dot" transform="translate(102.517334,27.889333)" />   <use xlink:href="#dot" transform="translate(102.517334,27.889333)" />   <use xlink:href="#dot" transform="translate(102.517334,27.889333)" />   <use xlink:href="#dot" transform="translate(102.517334,27.889333)" />   <use xlink:href="#dot" transform="translate(102.517334,27.889333)" />   <use xlink:href="#dot" transform="translate(102.517334,27.889333)" />   <use xlink:href="#dot" transform="translate(102.517334,27.889333)" />   <use xlink:href="#dot" transform="translate(102.509163,27.855)" />   <use xlink:href="#dot" transform="translate(102.517334,27.889333)" />   <use xlink:href="#dot" transform="translate(102.517334,27.889333)" />   <use xlink:href="#dot" transform="translate(102.566063,27.881)" />   <use xlink:href="#dot" transform="translate(102.517334,27.889333)" />   <use xlink:href="#dot" transform="translate(102.48148,27.84426)" />   <use xlink:href="#dot" transform="translate(102.517334,27.889333)" />   <use xlink:href="#dot" transform="translate(102.517334,27.889333)" />   <use xlink:href="#dot" transform="translate(102.517334,27.889333)" />   <use xlink:href="#dot" transform="translate(102.517334,27.889333)" />   <use xlink:href="#dot" transform="translate(102.517334,27.889333)" />   <use xlink:href="#dot" transform="translate(102.566063,27.881)" />   <use xlink:href="#dot" transform="translate(102.566063,27.881)" />   <use xlink:href="#dot" transform="translate(102.509163,27.855)" />   <use xlink:href="#dot" transform="translate(102.517334,27.889333)" />   <use xlink:href="#dot" transform="translate(102.842537,28.01355)" />   <use xlink:href="#dot" transform="translate(102.517334,27.889333)" />   <use xlink:href="#dot" transform="translate(102.517334,27.889333)" />   <use xlink:href="#dot" transform="translate(102.517334,27.889333)" />   <use xlink:href="#dot" transform="translate(102.517334,27.889333)" />   <use xlink:href="#dot" transform="translate(102.517334,27.889333)" />   <use xlink:href="#dot" transform="translate(102.597878,27.95316)" />   <use xlink:href="#dot" transform="translate(102.509163,27.855)" />   <use xlink:href="#dot" transform="translate(102.517334,27.889333)" />   <use xlink:href="#dot" transform="translate(102.566063,27.881)" />   <use xlink:href="#dot" transform="translate(102.517334,27.889333)" />   <use xlink:href="#dot" transform="translate(102.517334,27.889333)" />   <use xlink:href="#dot" transform="translate(102.517334,27.889333)" />   <use xlink:href="#dot" transform="translate(102.517334,27.889333)" />   <use xlink:href="#dot" transform="translate(102.597878,27.95316)" />   <use xlink:href="#dot" transform="translate(102.597878,27.95316)" />   <use xlink:href="#dot" transform="translate(102.566666,27.881)" />   <use xlink:href="#dot" transform="translate(102.566666,27.881)" />   <use xlink:href="#dot" transform="translate(102.517334,27.889333)" />   <use xlink:href="#dot" transform="translate(102.517334,27.889333)" />   <use xlink:href="#dot" transform="translate(102.517334,27.889333)" />   <use xlink:href="#dot" transform="translate(102.517334,27.889333)" />   <use xlink:href="#dot" transform="translate(102.517334,27.889333)" />   <use xlink:href="#dot" transform="translate(102.517334,27.889333)" />   <use xlink:href="#dot" transform="translate(102.517334,27.889333)" />   <use xlink:href="#dot" transform="translate(102.517334,27.889333)" />   <use xlink:href="#dot" transform="translate(102.517334,27.889333)" />   <use xlink:href="#dot" transform="translate(102.517334,27.889333)" />   <use xlink:href="#dot" transform="translate(102.517334,27.889333)" />   <use xlink:href="#dot" transform="translate(102.517334,27.889333)" />   <use xlink:href="#dot" transform="translate(102.517334,27.889333)" />   <use xlink:href="#dot" transform="translate(102.517334,27.889333)" />   <use xlink:href="#dot" transform="translate(102.517334,27.889333)" />   <use xlink:href="#dot" transform="translate(102.517334,27.889333)" />   <use xlink:href="#dot" transform="translate(102.517334,27.889333)" />   <use xlink:href="#dot" transform="translate(102.566666,27.881)" />   <use xlink:href="#dot" transform="translate(102.517334,27.889333)" />   <use xlink:href="#dot" transform="translate(102.517334,27.889333)" />   <use xlink:href="#dot" transform="translate(102.517334,27.889333)" />   <use xlink:href="#dot" transform="translate(102.517334,27.889333)" />   <use xlink:href="#dot" transform="translate(102.517334,27.889333)" />   <use xlink:href="#dot" transform="translate(102.566063,27.881)" />   <use xlink:href="#dot" transform="translate(102.517334,27.889333)" />   <use xlink:href="#dot" transform="translate(102.517334,27.889333)" />   <use xlink:href="#dot" transform="translate(102.517334,27.889333)" />   <use xlink:href="#dot" transform="translate(102.517334,27.889333)" />   <use xlink:href="#dot" transform="translate(102.517334,27.889333)" />   <use xlink:href="#dot" transform="translate(102.517334,27.889333)" />   <use xlink:href="#dot" transform="translate(102.517334,27.889333)" />   <use xlink:href="#dot" transform="translate(102.566666,27.881)" />   <use xlink:href="#dot" transform="translate(102.517334,27.889333)" />   <use xlink:href="#dot" transform="translate(102.517334,27.889333)" />   <use xlink:href="#dot" transform="translate(102.517334,27.889333)" />   <use xlink:href="#dot" transform="translate(102.517334,27.889333)" />   <use xlink:href="#dot" transform="translate(102.517334,27.889333)" />   <use xlink:href="#dot" transform="translate(102.517334,27.889333)" />   <use xlink:href="#dot" transform="translate(102.566666,27.881)" />   <use xlink:href="#dot" transform="translate(102.517334,27.889333)" />   <use xlink:href="#dot" transform="translate(102.517334,27.889333)" />   <use xlink:href="#dot" transform="translate(102.566063,27.881)" />   <use xlink:href="#dot" transform="translate(102.517334,27.889333)" />   <use xlink:href="#dot" transform="translate(102.48148,27.84426)" />   <use xlink:href="#dot" transform="translate(102.517334,27.889333)" />   <use xlink:href="#dot" transform="translate(102.517334,27.889333)" />   <use xlink:href="#dot" transform="translate(102.517334,27.889333)" />   <use xlink:href="#dot" transform="translate(102.517334,27.889333)" />   <use xlink:href="#dot" transform="translate(102.517334,27.889333)" />   <use xlink:href="#dot" transform="translate(102.517334,27.889333)" />   <use xlink:href="#dot" transform="translate(102.517334,27.889333)" />   <use xlink:href="#dot" transform="translate(102.517334,27.889333)" />   <use xlink:href="#dot" transform="translate(102.509163,27.855)" />   <use xlink:href="#dot" transform="translate(102.517334,27.889333)" />   <use xlink:href="#dot" transform="translate(102.566063,27.881)" />   <use xlink:href="#dot" transform="translate(102.517334,27.889333)" />   <use xlink:href="#dot" transform="translate(102.509163,27.855)" />   <use xlink:href="#dot" transform="translate(102.509163,27.855)" />   <use xlink:href="#dot" transform="translate(102.48148,27.84426)" />   <use xlink:href="#dot" transform="translate(102.517334,27.889333)" />   <use xlink:href="#dot" transform="translate(102.517334,27.889333)" />   <use xlink:href="#dot" transform="translate(102.517334,27.889333)" />   <use xlink:href="#dot" transform="translate(102.517334,27.889333)" />   <use xlink:href="#dot" transform="translate(102.517334,27.889333)" />   <use xlink:href="#dot" transform="translate(102.509163,27.855)" />   <use xlink:href="#dot" transform="translate(102.566063,27.881)" />   <use xlink:href="#dot" transform="translate(102.517334,27.889333)" />   <use xlink:href="#dot" transform="translate(102.566666,27.881)" />   <use xlink:href="#dot" transform="translate(102.566666,27.881)" />   <use xlink:href="#dot" transform="translate(102.517334,27.889333)" />   <use xlink:href="#dot" transform="translate(102.509163,27.855)" />   <use xlink:href="#dot" transform="translate(102.517334,27.889333)" />   <use xlink:href="#dot" transform="translate(102.517334,27.889333)" />   <use xlink:href="#dot" transform="translate(102.517334,27.889333)" />   <use xlink:href="#dot" transform="translate(102.517334,27.889333)" />   <use xlink:href="#dot" transform="translate(102.517334,27.889333)" />   <use xlink:href="#dot" transform="translate(102.517334,27.889333)" />   <use xlink:href="#dot" transform="translate(102.566063,27.881)" />   <use xlink:href="#dot" transform="translate(102.517334,27.889333)" />   <use xlink:href="#dot" transform="translate(102.566666,27.881)" />   <use xlink:href="#dot" transform="translate(102.517334,27.889333)" />   <use xlink:href="#dot" transform="translate(102.517334,27.889333)" />   <use xlink:href="#dot" transform="translate(102.509163,27.855)" />   <use xlink:href="#dot" transform="translate(102.566063,27.881)" />   <use xlink:href="#dot" transform="translate(102.566063,27.881)" />   <use xlink:href="#dot" transform="translate(102.566063,27.881)" />   <use xlink:href="#dot" transform="translate(102.517334,27.889333)" />   <use xlink:href="#dot" transform="translate(102.517334,27.889333)" />   <use xlink:href="#dot" transform="translate(102.517334,27.889333)" />   <use xlink:href="#dot" transform="translate(102.517334,27.889333)" />   <use xlink:href="#dot" transform="translate(102.517334,27.889333)" />   <use xlink:href="#dot" transform="translate(102.517334,27.889333)" />   <use xlink:href="#dot" transform="translate(102.517334,27.889333)" />   <use xlink:href="#dot" transform="translate(102.597878,27.95316)" />   <use xlink:href="#dot" transform="translate(102.509163,27.855)" />   <use xlink:href="#dot" transform="translate(102.566063,27.881)" />   <use xlink:href="#dot" transform="translate(102.517334,27.889333)" />   <use xlink:href="#dot" transform="translate(102.517334,27.889333)" />   <use xlink:href="#dot" transform="translate(102.517334,27.889333)" />   <use xlink:href="#dot" transform="translate(102.517334,27.889333)" />   <use xlink:href="#dot" transform="translate(102.517334,27.889333)" />   <use xlink:href="#dot" transform="translate(102.842537,28.01355)" />   <use xlink:href="#dot" transform="translate(102.517333,27.889333)" />   <use xlink:href="#dot" transform="translate(102.517334,27.889333)" />   <use xlink:href="#dot" transform="translate(102.517334,27.889333)" />   <use xlink:href="#dot" transform="translate(102.597878,27.95316)" />   <use xlink:href="#dot" transform="translate(102.566666,27.881)" />   <use xlink:href="#dot" transform="translate(102.517334,27.889333)" />   <use xlink:href="#dot" transform="translate(102.517334,27.889333)" />   <use xlink:href="#dot" transform="translate(102.509163,27.855)" />   <use xlink:href="#dot" transform="translate(102.517334,27.889333)" />   <use xlink:href="#dot" transform="translate(102.517334,27.889333)" />   <use xlink:href="#dot" transform="translate(102.517334,27.889333)" />   <use xlink:href="#dot" transform="translate(102.597878,27.95316)" />   <use xlink:href="#dot" transform="translate(102.566063,27.881)" />   <use xlink:href="#dot" transform="translate(102.566063,27.881)" />   <use xlink:href="#dot" transform="translate(102.517334,27.889333)" />   <use xlink:href="#dot" transform="translate(102.517334,27.889333)" />   <use xlink:href="#dot" transform="translate(102.517334,27.889333)" />   <use xlink:href="#dot" transform="translate(102.517334,27.889333)" />   <use xlink:href="#dot" transform="translate(102.517334,27.889333)" />   <use xlink:href="#dot" transform="translate(102.566666,27.881)" />   <use xlink:href="#dot" transform="translate(102.517334,27.889333)" />   <use xlink:href="#dot" transform="translate(102.517334,27.889333)" />   <use xlink:href="#dot" transform="translate(102.517334,27.889333)" />   <use xlink:href="#dot" transform="translate(102.517334,27.889333)" />   <use xlink:href="#dot" transform="translate(102.517334,27.889333)" />   <use xlink:href="#dot" transform="translate(102.517334,27.889333)" />   <use xlink:href="#dot" transform="translate(102.566666,27.881)" />   <use xlink:href="#dot" transform="translate(102.517334,27.889333)" />   <use xlink:href="#dot" transform="translate(102.517334,27.889333)" />   <use xlink:href="#dot" transform="translate(102.517334,27.889333)" />   <use xlink:href="#dot" transform="translate(102.509163,27.855)" />   <use xlink:href="#dot" transform="translate(102.517334,27.889333)" />   <use xlink:href="#dot" transform="translate(102.566667,27.881)" />   <use xlink:href="#dot" transform="translate(102.509163,27.855)" />   <use xlink:href="#dot" transform="translate(102.517334,27.889333)" />   <use xlink:href="#dot" transform="translate(102.517334,27.889333)" />   <use xlink:href="#dot" transform="translate(102.517334,27.889333)" />   <use xlink:href="#dot" transform="translate(102.517334,27.889333)" />   <use xlink:href="#dot" transform="translate(102.566666,27.881)" />   <use xlink:href="#dot" transform="translate(102.517334,27.889333)" />   <use xlink:href="#dot" transform="translate(102.517334,27.889333)" />   <use xlink:href="#dot" transform="translate(102.517334,27.889333)" />   <use xlink:href="#dot" transform="translate(102.517334,27.889333)" />   <use xlink:href="#dot" transform="translate(102.517334,27.889333)" />   <use xlink:href="#dot" transform="translate(102.566666,27.881)" />   <use xlink:href="#dot" transform="translate(102.517334,27.889333)" />   <use xlink:href="#dot" transform="translate(102.517334,27.889333)" />   <use xlink:href="#dot" transform="translate(102.597878,27.95316)" />   <use xlink:href="#dot" transform="translate(102.517334,27.889333)" />   <use xlink:href="#dot" transform="translate(102.566666,27.881)" />   <use xlink:href="#dot" transform="translate(102.517334,27.889333)" />   <use xlink:href="#dot" transform="translate(102.517334,27.889333)" />   <use xlink:href="#dot" transform="translate(102.517334,27.889333)" />   <use xlink:href="#dot" transform="translate(102.566063,27.881)" />   <use xlink:href="#dot" transform="translate(102.566063,27.881)" />   <use xlink:href="#dot" transform="translate(102.566063,27.881)" />   <use xlink:href="#dot" transform="translate(102.517334,27.889333)" />   <use xlink:href="#dot" transform="translate(102.517334,27.889333)" />   <use xlink:href="#dot" transform="translate(102.517334,27.889333)" />   <use xlink:href="#dot" transform="translate(102.566666,27.881)" />   <use xlink:href="#dot" transform="translate(102.517334,27.889333)" />   <use xlink:href="#dot" transform="translate(102.517334,27.889333)" />   <use xlink:href="#dot" transform="translate(102.517334,27.889333)" />   <use xlink:href="#dot" transform="translate(102.517334,27.889333)" />   <use xlink:href="#dot" transform="translate(102.517334,27.889333)" />   <use xlink:href="#dot" transform="translate(102.517334,27.889333)" />   <use xlink:href="#dot" transform="translate(102.566666,27.881)" />   <use xlink:href="#dot" transform="translate(102.509163,27.855)" />   <use xlink:href="#dot" transform="translate(102.517334,27.889333)" />   <use xlink:href="#dot" transform="translate(102.517334,27.889333)" />   <use xlink:href="#dot" transform="translate(102.517334,27.889333)" />   <use xlink:href="#dot" transform="translate(102.517334,27.889333)" />   <use xlink:href="#dot" transform="translate(102.517334,27.889333)" />   <use xlink:href="#dot" transform="translate(102.517334,27.889333)" />   <use xlink:href="#dot" transform="translate(102.517334,27.889333)" />   <use xlink:href="#dot" transform="translate(102.517334,27.889333)" />   <use xlink:href="#dot" transform="translate(102.517334,27.889333)" />   <use xlink:href="#dot" transform="translate(102.517334,27.889333)" />   <use xlink:href="#dot" transform="translate(102.597878,27.95316)" />   <use xlink:href="#dot" transform="translate(102.566666,27.881)" />   <use xlink:href="#dot" transform="translate(102.517334,27.889333)" />   <use xlink:href="#dot" transform="translate(102.517334,27.889333)" />   <use xlink:href="#dot" transform="translate(102.517334,27.889333)" />   <use xlink:href="#dot" transform="translate(102.517334,27.889333)" />   <use xlink:href="#dot" transform="translate(102.517334,27.889333)" />   <use xlink:href="#dot" transform="translate(102.517334,27.889333)" />   <use xlink:href="#dot" transform="translate(102.517334,27.889333)" />   <use xlink:href="#dot" transform="translate(102.517334,27.889333)" />   <use xlink:href="#dot" transform="translate(102.517334,27.889333)" />   <use xlink:href="#dot" transform="translate(102.566666,27.881)" />   <use xlink:href="#dot" transform="translate(102.517334,27.889333)" />   <use xlink:href="#dot" transform="translate(102.517334,27.889333)" />   <use xlink:href="#dot" transform="translate(102.517334,27.889333)" />   <use xlink:href="#dot" transform="translate(102.517334,27.889333)" />   <use xlink:href="#dot" transform="translate(102.517334,27.889333)" />   <use xlink:href="#dot" transform="translate(102.517334,27.889333)" />   <use xlink:href="#dot" transform="translate(102.517334,27.889333)" />   <use xlink:href="#dot" transform="translate(103.289,29.585833)" />   <use xlink:href="#dot" transform="translate(102.517334,27.889333)" />   <use xlink:href="#dot" transform="translate(102.517334,27.889333)" />   <use xlink:href="#dot" transform="translate(102.566666,27.881)" />   <use xlink:href="#dot" transform="translate(102.566666,27.881)" />   <use xlink:href="#dot" transform="translate(102.517334,27.889333)" />   <use xlink:href="#dot" transform="translate(102.517334,27.889333)" />   <use xlink:href="#dot" transform="translate(102.509163,27.855)" />   <use xlink:href="#dot" transform="translate(102.509163,27.855)" />   <use xlink:href="#dot" transform="translate(102.509163,27.855)" />   <use xlink:href="#dot" transform="translate(102.517334,27.889333)" />   <use xlink:href="#dot" transform="translate(102.517334,27.889333)" />   <use xlink:href="#dot" transform="translate(102.517334,27.889333)" />   <use xlink:href="#dot" transform="translate(102.517334,27.889333)" /><polygon class="region" points="102.509163,27.855 102.48148,27.84426 103.289,29.585833 102.842537,28.01355 102.567122,27.879767 102.509163,27.855 " />
		  </g>
		</svg>