<?xml version="1.0" encoding="UTF-8"?>
	<svg xmlns:xlink="http://www.w3.org/1999/xlink" 
	xmlns="http://www.w3.org/2000/svg" 
	width="360px" height="180px">
	   <style type="text/css">
		  <![CDATA[     
		  .region 
		  { 
			fill:blue; 
			opacity:0.4; 
			stroke:blue;
		  }
		  ]]>
	   </style>

	<circle id="dot" x="-2" y="-2" r="2" style="stroke:none; stroke-width:0; fill:black; opacity:0.7;"/>


	 <image x="0" y="0" width="360" height="180" xlink:href="map.jpg"/>

 
	 <g transform="translate(180,90) scale(1,-1)"><polygon class="region" points="-62.43788147,9.9347419740001 -62.332176208,9.810458183 -62.149738312,10.008916855 -61.811038971,9.7556819920001 -61.578079224,9.7879829410001 -61.630428314,9.9023237230001 -60.867591858,9.456407547 -60.782855988,9.311544418 -60.956783295,9.198073387 -60.846229553,8.973092079 -61.012779236,8.8292360310001 -60.822235107,8.867904663 -60.916648865,8.7351341250001 -60.782047272,8.7184791560001 -60.984710693,8.5711183550001 -60.046165466,8.5879907610001 -59.112667084,8.0214500430001 -58.476528168,7.3513450620001 -58.614517212,6.4188904760001 -58.473255157,6.811151028 -58.29284668,6.8896622660001 -57.236293793,6.184621334 -57.14112854,5.816272736 -56.956851959,5.99902916 -55.913414001,5.7807216640001 -55.82717514,5.953795433 -55.105117798,5.8771762850001 -55.037296295,6.004546165 -54.024242401,5.823860645 -54.021652222,5.6157226560001 -53.825553894,5.7687659260001 -52.931980133,5.458015919 -51.944534302,4.50854063 -51.907917023,4.660140514 -51.799381256,4.6086230280001 -51.662490845,4.205050945 -51.529296875,4.1711010930001 -51.544593811,4.3966193200001 -51.23242569,4.1244554520001 -50.864534472,2.758743576 -50.969890128,2.337320952 -51.653075877,0.91154199800007 -53.138262287,-0.87068169499997 -54.356115144,-1.7320898139999 -57.801747618,-2.771720301 -59.227526572,-3.039053855 -60.475083157,-2.9796463989999 -60.92063908,-2.2073494649999 -60.980046537,-0.51423695699998 -60.475083157,3.9413222760001 -60.683009255,6.228509348 -61.633528558,7.2087323800001 -62.138491937,8.0998442260001 -62.465232948,9.169178442 -62.456078491,10.051168003 -62.43788147,9.9347419740001 " /><polygon class="region" points="-71.634960732,-6.4503429979999 -72.972562909,-6.5395164769999 -75.781527479,-6.271996041 -77.252889873,-5.023567343 -77.698757265,-4.1764192979999 -77.743344004,-1.7241486419999 -76.985369437,-0.029852551999966 -76.494915306,0.46060157900007 -75.112726391,0.86188223200003 -74.220991607,0.86188223200003 -71.367440297,0.19308114400008 -69.53938399,-1.0999342929999 -69.182690076,-1.81332212 -69.227276815,-3.150924297 -69.450210511,-4.08724582 -69.985251382,-5.291087779 -70.832399427,-6.0936490839999 -71.634960732,-6.4503429979999 " />
		  </g>
		</svg>