<?xml version="1.0" encoding="UTF-8"?>
	<svg xmlns:xlink="http://www.w3.org/1999/xlink" 
	xmlns="http://www.w3.org/2000/svg" 
	width="360px" height="180px">
	   <style type="text/css">
		  <![CDATA[     
		  .region 
		  { 
			fill:blue; 
			opacity:0.4; 
			stroke:blue;
		  }
		  ]]>
	   </style>

	<circle id="dot" x="-2" y="-2" r="2" style="stroke:none; stroke-width:0; fill:black; opacity:0.7;"/>


	 <image x="0" y="0" width="360" height="180" xlink:href="map.jpg"/>

 
	 <g transform="translate(180,90) scale(1,-1)">   <use xlink:href="#dot" transform="translate(35.788061,33.005962)" />   <use xlink:href="#dot" transform="translate(35.650702,33.088516)" />   <use xlink:href="#dot" transform="translate(22.781022,40.565991)" />   <use xlink:href="#dot" transform="translate(34.855859,32.173309)" />   <use xlink:href="#dot" transform="translate(44.301101,40.065759)" />   <use xlink:href="#dot" transform="translate(44.391073,40.034012)" />   <use xlink:href="#dot" transform="translate(26.2125,39.20667)" />   <use xlink:href="#dot" transform="translate(32.894524,36.08091)" />   <use xlink:href="#dot" transform="translate(35.729008,33.082251)" />   <use xlink:href="#dot" transform="translate(44.275369,40.1706)" />   <use xlink:href="#dot" transform="translate(35.760057,32.9099)" />   <use xlink:href="#dot" transform="translate(23.163133,41.719625)" />   <use xlink:href="#dot" transform="translate(35.220265,33.07614)" />   <use xlink:href="#dot" transform="translate(28.530742,43.689697)" />   <use xlink:href="#dot" transform="translate(27.4333,37.0333)" />   <use xlink:href="#dot" transform="translate(23.163133,41.719625)" />   <use xlink:href="#dot" transform="translate(35.746128,32.904551)" />   <use xlink:href="#dot" transform="translate(35.746128,32.904551)" />   <use xlink:href="#dot" transform="translate(35.746128,32.904551)" />   <use xlink:href="#dot" transform="translate(35.746128,32.904551)" />   <use xlink:href="#dot" transform="translate(34.823539,32.180154)" />   <use xlink:href="#dot" transform="translate(46.69806,37.91083)" />   <use xlink:href="#dot" transform="translate(34.831827,32.227973)" />   <use xlink:href="#dot" transform="translate(34.773322,32.035707)" />   <use xlink:href="#dot" transform="translate(35.149212,30.124308)" />   <use xlink:href="#dot" transform="translate(34.574688,31.666937)" />   <use xlink:href="#dot" transform="translate(34.772268,32.034802)" />   <use xlink:href="#dot" transform="translate(34.772281,32.032096)" />   <use xlink:href="#dot" transform="translate(34.893717,32.433742)" />   <use xlink:href="#dot" transform="translate(35.018459,32.786563)" />   <use xlink:href="#dot" transform="translate(35.39044,33.024607)" />   <use xlink:href="#dot" transform="translate(34.842645,31.906063)" />   <use xlink:href="#dot" transform="translate(34.774377,32.036612)" />   <use xlink:href="#dot" transform="translate(34.895875,32.42473)" />   <use xlink:href="#dot" transform="translate(35.030203,32.785678)" />   <use xlink:href="#dot" transform="translate(35.169187,32.242946)" />   <use xlink:href="#dot" transform="translate(34.893717,32.433742)" />   <use xlink:href="#dot" transform="translate(34.784122,31.75618)" />   <use xlink:href="#dot" transform="translate(34.807277,32.017782)" />   <use xlink:href="#dot" transform="translate(34.791945,32.132261)" />   <use xlink:href="#dot" transform="translate(34.840566,31.897039)" />   <use xlink:href="#dot" transform="translate(34.805683,32.141323)" />   <use xlink:href="#dot" transform="translate(34.963943,32.012765)" />   <use xlink:href="#dot" transform="translate(34.970979,32.159771)" />   <use xlink:href="#dot" transform="translate(34.89805,32.410307)" />   <use xlink:href="#dot" transform="translate(34.744367,31.684797)" />   <use xlink:href="#dot" transform="translate(34.829716,32.225262)" />   <use xlink:href="#dot" transform="translate(34.845373,32.290235)" />   <use xlink:href="#dot" transform="translate(34.791945,32.132261)" />   <use xlink:href="#dot" transform="translate(34.791945,32.132261)" />   <use xlink:href="#dot" transform="translate(34.893717,32.433742)" />   <use xlink:href="#dot" transform="translate(34.829716,32.225262)" />   <use xlink:href="#dot" transform="translate(34.932983,32.102883)" />   <use xlink:href="#dot" transform="translate(34.791945,32.132261)" />   <use xlink:href="#dot" transform="translate(34.744367,31.684797)" />   <use xlink:href="#dot" transform="translate(34.963943,32.012765)" />   <use xlink:href="#dot" transform="translate(34.791945,32.132261)" />   <use xlink:href="#dot" transform="translate(34.744367,31.684797)" />   <use xlink:href="#dot" transform="translate(34.970979,32.159771)" />   <use xlink:href="#dot" transform="translate(34.791945,32.132261)" />   <use xlink:href="#dot" transform="translate(34.808963,32.117887)" />   <use xlink:href="#dot" transform="translate(34.970979,32.159771)" />   <use xlink:href="#dot" transform="translate(34.805683,32.141323)" />   <use xlink:href="#dot" transform="translate(34.926758,32.059583)" />   <use xlink:href="#dot" transform="translate(34.784122,31.75618)" />   <use xlink:href="#dot" transform="translate(34.626041,31.717683)" />   <use xlink:href="#dot" transform="translate(34.757062,31.895871)" />   <use xlink:href="#dot" transform="translate(34.840566,31.897039)" />   <use xlink:href="#dot" transform="translate(34.829716,32.225262)" />   <use xlink:href="#dot" transform="translate(34.845373,32.290235)" />   <use xlink:href="#dot" transform="translate(34.744367,31.684797)" />   <use xlink:href="#dot" transform="translate(34.805683,32.141323)" />   <use xlink:href="#dot" transform="translate(34.824603,32.179256)" />   <use xlink:href="#dot" transform="translate(34.894768,32.437352)" />   <use xlink:href="#dot" transform="translate(34.932983,32.102883)" />   <use xlink:href="#dot" transform="translate(34.805683,32.141323)" />   <use xlink:href="#dot" transform="translate(34.845373,32.290235)" />   <use xlink:href="#dot" transform="translate(34.791945,32.132261)" />   <use xlink:href="#dot" transform="translate(34.89805,32.410307)" />   <use xlink:href="#dot" transform="translate(34.829716,32.225262)" />   <use xlink:href="#dot" transform="translate(34.845373,32.290235)" />   <use xlink:href="#dot" transform="translate(34.88098,32.427398)" />   <use xlink:href="#dot" transform="translate(34.829716,32.225262)" />   <use xlink:href="#dot" transform="translate(34.791945,32.132261)" />   <use xlink:href="#dot" transform="translate(34.88098,32.427398)" />   <use xlink:href="#dot" transform="translate(34.88098,32.427398)" />   <use xlink:href="#dot" transform="translate(34.649047,31.752055)" />   <use xlink:href="#dot" transform="translate(34.805683,32.141323)" />   <use xlink:href="#dot" transform="translate(34.784122,31.75618)" />   <use xlink:href="#dot" transform="translate(23.15,41.733333)" />   <use xlink:href="#dot" transform="translate(23.447392,42.599183)" />   <use xlink:href="#dot" transform="translate(36.225814,36.372383)" />   <use xlink:href="#dot" transform="translate(49.4622,37.4711)" />   <use xlink:href="#dot" transform="translate(49.4622,37.4711)" />   <use xlink:href="#dot" transform="translate(49.4622,37.4711)" />   <use xlink:href="#dot" transform="translate(49.4622,37.4711)" />   <use xlink:href="#dot" transform="translate(49.4622,37.4711)" />   <use xlink:href="#dot" transform="translate(49.4622,37.4711)" />   <use xlink:href="#dot" transform="translate(22.950001,43.900002)" />   <use xlink:href="#dot" transform="translate(22.950001,43.900002)" />   <use xlink:href="#dot" transform="translate(22.950001,43.900002)" />   <use xlink:href="#dot" transform="translate(34.7667,32.0167)" />   <use xlink:href="#dot" transform="translate(34.7667,32.0167)" />   <use xlink:href="#dot" transform="translate(34.7667,32.0167)" />   <use xlink:href="#dot" transform="translate(35.3833,32.0333)" />   <use xlink:href="#dot" transform="translate(35.3833,32.0333)" />   <use xlink:href="#dot" transform="translate(35.3833,32.0333)" />   <use xlink:href="#dot" transform="translate(35.3833,32.0333)" />   <use xlink:href="#dot" transform="translate(35.3833,32.0333)" />   <use xlink:href="#dot" transform="translate(35.3833,32.0333)" />   <use xlink:href="#dot" transform="translate(34.897256,32.409408)" />   <use xlink:href="#dot" transform="translate(47.6333,39.9833)" />   <use xlink:href="#dot" transform="translate(44.6333,40.1333)" />   <use xlink:href="#dot" transform="translate(44.7,41.7)" />   <use xlink:href="#dot" transform="translate(44.85,41.6833)" />   <use xlink:href="#dot" transform="translate(44.6667,41.7833)" />   <use xlink:href="#dot" transform="translate(44.6333,40.1833)" />   <use xlink:href="#dot" transform="translate(44.21,41.7)" />   <use xlink:href="#dot" transform="translate(44.6333,40.0667)" />   <use xlink:href="#dot" transform="translate(48,41.9667)" />   <use xlink:href="#dot" transform="translate(48.5167,41.8833)" />   <use xlink:href="#dot" transform="translate(44.6333,40.1333)" />   <use xlink:href="#dot" transform="translate(44.6333,40.1333)" />   <use xlink:href="#dot" transform="translate(47.5167,42.75)" />   <use xlink:href="#dot" transform="translate(48.65,40.65)" />   <use xlink:href="#dot" transform="translate(44.9333,40)" />   <use xlink:href="#dot" transform="translate(43.2667,41.8667)" />   <use xlink:href="#dot" transform="translate(48.9167,40)" />   <use xlink:href="#dot" transform="translate(48.5333,39.45)" />   <use xlink:href="#dot" transform="translate(46.0333,39.5167)" />   <use xlink:href="#dot" transform="translate(48.75,38.65)" />   <use xlink:href="#dot" transform="translate(48.5167,41.8833)" />   <use xlink:href="#dot" transform="translate(43.7667,40.6667)" />   <use xlink:href="#dot" transform="translate(48.8833,39.1667)" />   <use xlink:href="#dot" transform="translate(48.5333,39.45)" />   <use xlink:href="#dot" transform="translate(47.4,42.7167)" />   <use xlink:href="#dot" transform="translate(47.9833,41.5833)" />   <use xlink:href="#dot" transform="translate(48.9167,41.5167)" />   <use xlink:href="#dot" transform="translate(44.5333,40.1833)" />   <use xlink:href="#dot" transform="translate(44.5167,40.1667)" />   <use xlink:href="#dot" transform="translate(44.5167,40.1667)" />   <use xlink:href="#dot" transform="translate(45.3667,39.1833)" />   <use xlink:href="#dot" transform="translate(45.05,41.5667)" />   <use xlink:href="#dot" transform="translate(47.6,42.6167)" />   <use xlink:href="#dot" transform="translate(48.5333,39.45)" />   <use xlink:href="#dot" transform="translate(48.8167,38.7667)" />   <use xlink:href="#dot" transform="translate(44.8167,41.5833)" />   <use xlink:href="#dot" transform="translate(44.5333,40.1833)" />   <use xlink:href="#dot" transform="translate(44.6333,40.1333)" />   <use xlink:href="#dot" transform="translate(48.75,38.65)" />   <use xlink:href="#dot" transform="translate(49.3,39.3833)" />   <use xlink:href="#dot" transform="translate(44.6333,40.0667)" />   <use xlink:href="#dot" transform="translate(44.6333,40.1333)" />   <use xlink:href="#dot" transform="translate(46.2667,39.4)" />   <use xlink:href="#dot" transform="translate(48.8167,38.5333)" />   <use xlink:href="#dot" transform="translate(44.9333,40)" />   <use xlink:href="#dot" transform="translate(45.5,39.5333)" />   <use xlink:href="#dot" transform="translate(49.3,39.3833)" />   <use xlink:href="#dot" transform="translate(47.4,42.7167)" />   <use xlink:href="#dot" transform="translate(44.5333,40.1833)" />   <use xlink:href="#dot" transform="translate(44.6333,40.1333)" />   <use xlink:href="#dot" transform="translate(49.0833,39.5833)" />   <use xlink:href="#dot" transform="translate(48.7167,38.8833)" />   <use xlink:href="#dot" transform="translate(48,42.0667)" />   <use xlink:href="#dot" transform="translate(47.55,40.75)" />   <use xlink:href="#dot" transform="translate(44.85,41.6833)" />   <use xlink:href="#dot" transform="translate(44.7,41.7)" />   <use xlink:href="#dot" transform="translate(44.7667,41.7833)" />   <use xlink:href="#dot" transform="translate(48.8333,38.7833)" />   <use xlink:href="#dot" transform="translate(48.8833,39.1667)" />   <use xlink:href="#dot" transform="translate(48,41.9667)" />   <use xlink:href="#dot" transform="translate(44.85,41.6833)" />   <use xlink:href="#dot" transform="translate(46.0333,39.5167)" />   <use xlink:href="#dot" transform="translate(48.9167,41.5167)" />   <use xlink:href="#dot" transform="translate(47.3,42.9667)" />   <use xlink:href="#dot" transform="translate(48.5333,39.45)" />   <use xlink:href="#dot" transform="translate(47.8,42.5667)" />   <use xlink:href="#dot" transform="translate(44.7167,41.7)" />   <use xlink:href="#dot" transform="translate(44.2333,40.1833)" />   <use xlink:href="#dot" transform="translate(47.75,42.4833)" />   <use xlink:href="#dot" transform="translate(44.5333,40.1833)" />   <use xlink:href="#dot" transform="translate(44.85,41.6833)" />   <use xlink:href="#dot" transform="translate(44.6333,40.1333)" />   <use xlink:href="#dot" transform="translate(44.8167,41.5833)" />   <use xlink:href="#dot" transform="translate(48.8167,38.7667)" />   <use xlink:href="#dot" transform="translate(44.85,41.6833)" />   <use xlink:href="#dot" transform="translate(44.6667,41.7833)" />   <use xlink:href="#dot" transform="translate(46.1833,39.7)" />   <use xlink:href="#dot" transform="translate(48.8666,38.6333)" />   <use xlink:href="#dot" transform="translate(46.3833,40.4667)" />   <use xlink:href="#dot" transform="translate(46.4333,41.1833)" />   <use xlink:href="#dot" transform="translate(44.5333,40.1833)" />   <use xlink:href="#dot" transform="translate(47.6,42.6167)" />   <use xlink:href="#dot" transform="translate(47.5167,42.6667)" />   <use xlink:href="#dot" transform="translate(45.5,39.5333)" />   <use xlink:href="#dot" transform="translate(45.1667,39.75)" />   <use xlink:href="#dot" transform="translate(48.5333,39.45)" />   <use xlink:href="#dot" transform="translate(44.85,41.6833)" />   <use xlink:href="#dot" transform="translate(45.3667,39.1833)" />   <use xlink:href="#dot" transform="translate(44.55,39.95)" />   <use xlink:href="#dot" transform="translate(44.85,41.6833)" />   <use xlink:href="#dot" transform="translate(48.5167,41.8833)" />   <use xlink:href="#dot" transform="translate(48.9167,40)" />   <use xlink:href="#dot" transform="translate(46.9,42.4833)" />   <use xlink:href="#dot" transform="translate(44.85,41.6833)" />   <use xlink:href="#dot" transform="translate(44.85,41.6833)" />   <use xlink:href="#dot" transform="translate(48.8667,39.05)" />   <use xlink:href="#dot" transform="translate(44.5333,40.1833)" />   <use xlink:href="#dot" transform="translate(48.8833,39.1667)" />   <use xlink:href="#dot" transform="translate(44.6333,40.1333)" />   <use xlink:href="#dot" transform="translate(48.4167,41.8333)" />   <use xlink:href="#dot" transform="translate(45.1667,39.75)" />   <use xlink:href="#dot" transform="translate(47.7333,40.6667)" />   <use xlink:href="#dot" transform="translate(44.5667,40.2333)" />   <use xlink:href="#dot" transform="translate(48.8833,39.1667)" />   <use xlink:href="#dot" transform="translate(45,40.0167)" />   <use xlink:href="#dot" transform="translate(44.95,41.5833)" />   <use xlink:href="#dot" transform="translate(44.6333,40.1833)" />   <use xlink:href="#dot" transform="translate(44.6333,40.0667)" />   <use xlink:href="#dot" transform="translate(48.5333,39.45)" />   <use xlink:href="#dot" transform="translate(45.1667,39.75)" />   <use xlink:href="#dot" transform="translate(46.9333,40.7667)" />   <use xlink:href="#dot" transform="translate(48.8167,38.7667)" />   <use xlink:href="#dot" transform="translate(48.75,38.65)" /><polygon class="region" points="35.149212,30.124308 22.781022,40.565991 22.950001,43.900002 28.530742,43.689697 47.3,42.9667 47.8,42.5667 48.9167,41.5167 49.3,39.3833 49.4622,37.4711 35.149212,30.124308 " />
		  </g>
		</svg>