<?xml version="1.0" encoding="UTF-8"?>
	<svg xmlns:xlink="http://www.w3.org/1999/xlink" 
	xmlns="http://www.w3.org/2000/svg" 
	width="360px" height="180px">
	   <style type="text/css">
		  <![CDATA[     
		  .region 
		  { 
			fill:blue; 
			opacity:0.4; 
			stroke:blue;
		  }
		  ]]>
	   </style>

	<circle id="dot" x="-2" y="-2" r="2" style="stroke:none; stroke-width:0; fill:black; opacity:0.7;"/>


	 <image x="0" y="0" width="360" height="180" xlink:href="map.jpg"/>

 
	 <g transform="translate(180,90) scale(1,-1)"><polygon class="region" points="-49.594976023,-24.590864761 -48.940244036,-25.000072254 -49.063006283,-26.80058522 -48.735640289,-27.987286948 -48.811962128,-28.602285385 -49.70167923,-29.308300018 -50.847648621,-31.205324173 -52.070968628,-32.187854767 -52.012348175,-31.945705414 -52.091804504,-31.836755753 -51.85092926,-31.865369797 -51.233509064,-31.457830429 -51.166316986,-31.062969208 -50.704612732,-30.755987167 -50.725166321,-30.37128067 -50.569248199,-30.471473694 -50.601352692,-30.194105148 -50.921058655,-30.439598083 -51.294513702,-30.006797791 -51.293331146,-30.294919968 -51.092376709,-30.371377945 -51.268630981,-30.488945007 -51.30166626,-30.616678238 -51.27904129,-30.793453217 -51.288585663,-30.815921783 -51.374542236,-30.6354599 -51.435909271,-31.087944031 -51.949272156,-31.347982407 -52.030529022,-31.693037033 -52.252998352,-31.845155716 -52.106323242,-31.952074051 -52.262817383,-32.061714172 -52.08240509,-32.033443451 -52.083683014,-32.185638428 -52.634162903,-33.125953674 -53.435791016,-33.80450058 -53.778038025,-34.401878357 -54.947158813,-34.980815887 -55.460945129,-34.735210419 -56.158035278,-34.938770294 -56.887744904,-34.666851044 -57.023095611,-34.436584997 -56.861635218,-33.925293753 -56.440044192,-33.790743426 -56.709144847,-33.342242335 -57.094855785,-33.414002509 -57.202496047,-33.925293753 -58.126408294,-33.790743426 -58.415990705,-33.885881797 -58.375793945,-33.4054687 -57.695847247,-33.100051746 -56.87060524,-33.07314168 -55.54304201,-32.517000328 -55.256001312,-32.490090262 -55.273941356,-32.804041026 -55.04969081,-33.297392226 -54.870290374,-33.360182379 -54.224448803,-33.431942553 -53.2086753,-32.900087149 -53.103196076,-32.687430742 -53.506847058,-32.499060284 -53.731097603,-32.095409302 -54.134748585,-31.853218713 -54.385909196,-31.79042856 -54.65500985,-32.077469258 -55.121450985,-31.808368604 -55.569952076,-31.781458538 -56.036393211,-31.252227251 -55.973603058,-30.758876051 -56.108153385,-30.597415658 -56.825755131,-30.041274306 -57.139705894,-30.041274306 -57.256316178,-30.193764677 -57.36395644,-30.077154393 -55.30130718,-27.902756173 -55.267565481,-27.32914729 -54.693956598,-26.742041727 -54.357848062,-25.88060985 -53.024769674,-25.280160355 -51.722854983,-24.427181764 -50.126945763,-23.895212024 -49.676817522,-24.058895021 -49.594976023,-24.590864761 " /><polygon class="region" points="-58.390796661,-33.413722992 -58.400302887,-33.41828537 -58.40267175,-33.418267655 -58.387987009,-33.411274921 -58.390796661,-33.413722992 " />
		  </g>
		</svg>