<?xml version="1.0" encoding="UTF-8"?>
	<svg xmlns:xlink="http://www.w3.org/1999/xlink" 
	xmlns="http://www.w3.org/2000/svg" 
	width="360px" height="180px">
	   <style type="text/css">
		  <![CDATA[     
		  .region 
		  { 
			fill:blue; 
			opacity:0.4; 
			stroke:blue;
		  }
		  ]]>
	   </style>

	<circle id="dot" x="-2" y="-2" r="2" style="stroke:none; stroke-width:0; fill:black; opacity:0.7;"/>


	 <image x="0" y="0" width="360" height="180" xlink:href="map.jpg"/>

 
	 <g transform="translate(180,90) scale(1,-1)">   <use xlink:href="#dot" transform="translate(-44.66,-10.157778)" />   <use xlink:href="#dot" transform="translate(-51.394167,-20.395556)" />   <use xlink:href="#dot" transform="translate(-51.394167,-20.395556)" />   <use xlink:href="#dot" transform="translate(-51.394167,-20.395556)" />   <use xlink:href="#dot" transform="translate(-51.394167,-20.395556)" />   <use xlink:href="#dot" transform="translate(-51.394167,-20.395556)" />   <use xlink:href="#dot" transform="translate(-51.394167,-20.395556)" />   <use xlink:href="#dot" transform="translate(-47.865556,-20.498333)" />   <use xlink:href="#dot" transform="translate(-47.868333,-20.502778)" />   <use xlink:href="#dot" transform="translate(-48.35,-23.4)" />   <use xlink:href="#dot" transform="translate(-48.35,-23.4)" />   <use xlink:href="#dot" transform="translate(-48.35,-23.4)" />   <use xlink:href="#dot" transform="translate(-48.35,-23.4)" />   <use xlink:href="#dot" transform="translate(-48.35,-23.4)" />   <use xlink:href="#dot" transform="translate(-48.276944,-18.918611)" />   <use xlink:href="#dot" transform="translate(-48.119722,-22.280278)" />   <use xlink:href="#dot" transform="translate(-48.119722,-22.280278)" />   <use xlink:href="#dot" transform="translate(-56.382,-21.102)" />   <use xlink:href="#dot" transform="translate(-56.429,-21.436)" />   <use xlink:href="#dot" transform="translate(-49.369722,-20.82)" />   <use xlink:href="#dot" transform="translate(-49.369722,-20.82)" />   <use xlink:href="#dot" transform="translate(-49.369722,-20.82)" />   <use xlink:href="#dot" transform="translate(-47.56,-22.41)" />   <use xlink:href="#dot" transform="translate(-47.56,-22.41)" />   <use xlink:href="#dot" transform="translate(-49.369722,-20.82)" />   <use xlink:href="#dot" transform="translate(-49.369722,-20.82)" />   <use xlink:href="#dot" transform="translate(-49.369722,-20.82)" />   <use xlink:href="#dot" transform="translate(-49.369722,-20.82)" />   <use xlink:href="#dot" transform="translate(-49.369722,-20.82)" />   <use xlink:href="#dot" transform="translate(-49.369722,-20.82)" />   <use xlink:href="#dot" transform="translate(-49.369722,-20.82)" />   <use xlink:href="#dot" transform="translate(-49.369722,-20.82)" />   <use xlink:href="#dot" transform="translate(-49.369722,-20.82)" />   <use xlink:href="#dot" transform="translate(-52.158333,-14.050278)" />   <use xlink:href="#dot" transform="translate(-52.158333,-14.050278)" />   <use xlink:href="#dot" transform="translate(-65.58333,-24.48333)" />   <use xlink:href="#dot" transform="translate(-65.58333,-24.48333)" />   <use xlink:href="#dot" transform="translate(-57.15,-22.3333)" />   <use xlink:href="#dot" transform="translate(-57.15,-22.3333)" />   <use xlink:href="#dot" transform="translate(-57.15,-22.3333)" />   <use xlink:href="#dot" transform="translate(-57.15,-22.3333)" />   <use xlink:href="#dot" transform="translate(-57.34315,-22.4333)" />   <use xlink:href="#dot" transform="translate(-57.15,-22.3333)" />   <use xlink:href="#dot" transform="translate(-57.15,-22.3333)" />   <use xlink:href="#dot" transform="translate(-57.6,-22.45)" />   <use xlink:href="#dot" transform="translate(-57.15,-22.3333)" />   <use xlink:href="#dot" transform="translate(-57.15,-22.3333)" />   <use xlink:href="#dot" transform="translate(-57.15,-22.3333)" />   <use xlink:href="#dot" transform="translate(-57.15,-22.3333)" />   <use xlink:href="#dot" transform="translate(-57.15,-22.3333)" />   <use xlink:href="#dot" transform="translate(-65.58333,-24.48333)" />   <use xlink:href="#dot" transform="translate(-57.678889,-16.070833)" />   <use xlink:href="#dot" transform="translate(-57.678889,-16.070833)" />   <use xlink:href="#dot" transform="translate(-57.678889,-16.070833)" />   <use xlink:href="#dot" transform="translate(-48.439722,-22.88)" />   <use xlink:href="#dot" transform="translate(-48.439722,-22.88)" />   <use xlink:href="#dot" transform="translate(-50.24,-20.280278)" />   <use xlink:href="#dot" transform="translate(-50.24,-20.280278)" />   <use xlink:href="#dot" transform="translate(-50.24,-20.280278)" />   <use xlink:href="#dot" transform="translate(-50.24,-20.280278)" />   <use xlink:href="#dot" transform="translate(-50.24,-20.280278)" />   <use xlink:href="#dot" transform="translate(-50.24,-20.280278)" />   <use xlink:href="#dot" transform="translate(-50.24,-20.280278)" />   <use xlink:href="#dot" transform="translate(-50.24,-20.280278)" />   <use xlink:href="#dot" transform="translate(-57.15,-22.3333)" />   <use xlink:href="#dot" transform="translate(-57.15,-22.3333)" />   <use xlink:href="#dot" transform="translate(-57.15,-22.3333)" />   <use xlink:href="#dot" transform="translate(-57.15,-22.3333)" />   <use xlink:href="#dot" transform="translate(-57.15,-22.3333)" />   <use xlink:href="#dot" transform="translate(-57.15,-22.3333)" />   <use xlink:href="#dot" transform="translate(-57.15,-22.3333)" />   <use xlink:href="#dot" transform="translate(-57.15,-22.3333)" />   <use xlink:href="#dot" transform="translate(-57.15,-22.3333)" />   <use xlink:href="#dot" transform="translate(-57.15,-22.3333)" />   <use xlink:href="#dot" transform="translate(-57.15,-22.3333)" />   <use xlink:href="#dot" transform="translate(-57.15,-22.3333)" />   <use xlink:href="#dot" transform="translate(-57.15,-22.3333)" />   <use xlink:href="#dot" transform="translate(-57.15,-22.3333)" />   <use xlink:href="#dot" transform="translate(-57.15,-22.3333)" />   <use xlink:href="#dot" transform="translate(-57.15,-22.3333)" />   <use xlink:href="#dot" transform="translate(-57.15,-22.3333)" />   <use xlink:href="#dot" transform="translate(-57.15,-22.3333)" />   <use xlink:href="#dot" transform="translate(-57.15,-22.3333)" />   <use xlink:href="#dot" transform="translate(-57.15,-22.3333)" />   <use xlink:href="#dot" transform="translate(-57.15,-22.3333)" />   <use xlink:href="#dot" transform="translate(-57.15,-22.3333)" />   <use xlink:href="#dot" transform="translate(-57.15,-22.3333)" />   <use xlink:href="#dot" transform="translate(-57.15,-22.3333)" />   <use xlink:href="#dot" transform="translate(-50.24,-20.280278)" />   <use xlink:href="#dot" transform="translate(-50.24,-20.280278)" />   <use xlink:href="#dot" transform="translate(-50.24,-20.280278)" />   <use xlink:href="#dot" transform="translate(-53.759167,-20.443333)" />   <use xlink:href="#dot" transform="translate(-50.24,-20.280278)" />   <use xlink:href="#dot" transform="translate(-50.5,-18.9333)" />   <use xlink:href="#dot" transform="translate(-50.5,-18.9333)" />   <use xlink:href="#dot" transform="translate(-57.26,-23.49)" />   <use xlink:href="#dot" transform="translate(-57.26,-23.49)" />   <use xlink:href="#dot" transform="translate(-57.26,-23.49)" />   <use xlink:href="#dot" transform="translate(-57.59,-22.76)" />   <use xlink:href="#dot" transform="translate(-57.59,-22.76)" />   <use xlink:href="#dot" transform="translate(-57.59,-22.76)" />   <use xlink:href="#dot" transform="translate(-57.59,-22.76)" />   <use xlink:href="#dot" transform="translate(-57.59,-22.76)" />   <use xlink:href="#dot" transform="translate(-57.59,-22.76)" />   <use xlink:href="#dot" transform="translate(-57.59,-22.76)" />   <use xlink:href="#dot" transform="translate(-56.096667,-15.596111)" />   <use xlink:href="#dot" transform="translate(-54.646389,-20.443056)" />   <use xlink:href="#dot" transform="translate(-56.43,-22.2)" />   <use xlink:href="#dot" transform="translate(-49.06,-22.31)" />   <use xlink:href="#dot" transform="translate(-49.06,-22.31)" />   <use xlink:href="#dot" transform="translate(-49.06,-22.31)" />   <use xlink:href="#dot" transform="translate(-49.06,-22.31)" />   <use xlink:href="#dot" transform="translate(-48.97,-21.13)" />   <use xlink:href="#dot" transform="translate(-56.333333,-14.733333)" />   <use xlink:href="#dot" transform="translate(-56.333333,-14.733333)" />   <use xlink:href="#dot" transform="translate(-56.333333,-14.733333)" />   <use xlink:href="#dot" transform="translate(-56.333333,-14.733333)" />   <use xlink:href="#dot" transform="translate(-56.333333,-14.733333)" />   <use xlink:href="#dot" transform="translate(-56.08333,-15.58333)" />   <use xlink:href="#dot" transform="translate(-56.333333,-14.733333)" />   <use xlink:href="#dot" transform="translate(-56.08333,-15.58333)" />   <use xlink:href="#dot" transform="translate(-56.08333,-15.58333)" />   <use xlink:href="#dot" transform="translate(-56.08333,-15.58333)" />   <use xlink:href="#dot" transform="translate(-61.35,-16.95)" />   <use xlink:href="#dot" transform="translate(-56.5167,-20.2)" />   <use xlink:href="#dot" transform="translate(-56.5167,-20.2)" /><polygon class="region" points="-48.35,-23.4 -65.58333,-24.48333 -61.35,-16.95 -56.333333,-14.733333 -44.66,-10.157778 -47.56,-22.41 -48.35,-23.4 " />
		  </g>
		</svg>