<?xml version="1.0" encoding="UTF-8"?>
	<svg xmlns:xlink="http://www.w3.org/1999/xlink" 
	xmlns="http://www.w3.org/2000/svg" 
	width="360px" height="180px">
	   <style type="text/css">
		  <![CDATA[     
		  .region 
		  { 
			fill:blue; 
			opacity:0.4; 
			stroke:blue;
		  }
		  ]]>
	   </style>

	<circle id="dot" x="-2" y="-2" r="2" style="stroke:none; stroke-width:0; fill:black; opacity:0.7;"/>


	 <image x="0" y="0" width="360" height="180" xlink:href="map.jpg"/>

 
	 <g transform="translate(180,90) scale(1,-1)"><polygon class="region" points="-59.926803649,-11.514198718 -56.124782925,-11.149621388 -50.604040503,-11.514198718 -45.708287789,-13.649580221 -41.854184589,-16.253704005 -41.072947453,-18.857827789 -42.947916578,-21.409869097 -46.593689875,-23.5452506 -49.458226038,-23.493168124 -50.812370405,-22.816095941 -52.128459061,-22.534076943 -52.945003661,-22.922907705 -54.216051674,-24.432277221 -54.81185543,-24.869199975 -55.68570094,-24.869199975 -57.234790706,-24.154235468 -58.108636215,-23.002348206 -58.58527922,-22.088782446 -58.903041223,-19.467245918 -58.664719721,-19.109763665 -57.790874212,-19.109763665 -57.751153961,-18.235918155 -61.524577751,-18.156477655 -62.716185264,-16.72654864 -63.31198902,-15.495220877 -62.755905514,-15.098018372 -60.068522911,-15.098018372 -60.343463455,-13.441250318 -59.56222632,-12.243353378 -59.926803649,-11.514198718 " />
		  </g>
		</svg>