<?xml version="1.0" encoding="UTF-8"?>
	<svg xmlns:xlink="http://www.w3.org/1999/xlink" 
	xmlns="http://www.w3.org/2000/svg" 
	width="360px" height="180px">
	   <style type="text/css">
		  <![CDATA[     
		  .region 
		  { 
			fill:blue; 
			opacity:0.4; 
			stroke:blue;
		  }
		  ]]>
	   </style>

	<circle id="dot" x="-2" y="-2" r="2" style="stroke:none; stroke-width:0; fill:black; opacity:0.7;"/>


	 <image x="0" y="0" width="360" height="180" xlink:href="map.jpg"/>

 
	 <g transform="translate(180,90) scale(1,-1)"><polygon class="region" points="-78.308282393,-2.180279812 -78.244055786,-2.556005464 -78.539498178,-2.584907437 -78.414256294,-2.681247347 -78.542709508,-2.7711645969999 -78.481694232,-2.787221249 -78.433524276,-2.9349424449999 -78.725755339,-3.2560754809999 -78.684008044,-3.43269865 -78.786770615,-3.33957007 -78.780347955,-3.583631177 -78.960182454,-3.512981909 -78.931280481,-3.988258801 -79.075790347,-3.985047471 -79.043677044,-3.4840799359999 -78.841363231,-3.3781060339999 -78.894781766,-3.19210813 -78.642260749,-3.1244109359999 -78.497750883,-2.8514478559999 -78.597302124,-2.79364391 -78.459214919,-2.6876700079999 -78.55555483,-2.5720621149999 -78.411044964,-2.5271034899999 -78.481694232,-2.3280010079999 -78.308282393,-2.180279812 " />
		  </g>
		</svg>