<?xml version="1.0" encoding="UTF-8"?>
	<svg xmlns:xlink="http://www.w3.org/1999/xlink" 
	xmlns="http://www.w3.org/2000/svg" 
	width="360px" height="180px">
	   <style type="text/css">
		  <![CDATA[     
		  .region 
		  { 
			fill:blue; 
			opacity:0.4; 
			stroke:blue;
		  }
		  ]]>
	   </style>

	<circle id="dot" x="-2" y="-2" r="2" style="stroke:none; stroke-width:0; fill:black; opacity:0.7;"/>


	 <image x="0" y="0" width="360" height="180" xlink:href="map.jpg"/>

 
	 <g transform="translate(180,90) scale(1,-1)">   <use xlink:href="#dot" transform="translate(145.085938,-37.641289)" />   <use xlink:href="#dot" transform="translate(148.2,-36.1)" />   <use xlink:href="#dot" transform="translate(148.2,-36.1)" />   <use xlink:href="#dot" transform="translate(148.2,-36.1)" />   <use xlink:href="#dot" transform="translate(148.2,-36.1)" />   <use xlink:href="#dot" transform="translate(148.2,-36.1)" />   <use xlink:href="#dot" transform="translate(148.3,-36)" />   <use xlink:href="#dot" transform="translate(148.3,-36)" />   <use xlink:href="#dot" transform="translate(148.3,-36)" />   <use xlink:href="#dot" transform="translate(148.2,-36.1)" />   <use xlink:href="#dot" transform="translate(148.2,-36.1)" />   <use xlink:href="#dot" transform="translate(148.2,-36.1)" />   <use xlink:href="#dot" transform="translate(148.2,-36.1)" />   <use xlink:href="#dot" transform="translate(148.2,-36.1)" />   <use xlink:href="#dot" transform="translate(148.3,-36)" />   <use xlink:href="#dot" transform="translate(148.2,-36.1)" />   <use xlink:href="#dot" transform="translate(148.2,-36.1)" />   <use xlink:href="#dot" transform="translate(148.2,-36.1)" />   <use xlink:href="#dot" transform="translate(148.2,-36.1)" />   <use xlink:href="#dot" transform="translate(148.2,-36.1)" />   <use xlink:href="#dot" transform="translate(148.2,-36.1)" />   <use xlink:href="#dot" transform="translate(148.2,-36.1)" />   <use xlink:href="#dot" transform="translate(148.3,-36)" />   <use xlink:href="#dot" transform="translate(148.2,-36.1)" />   <use xlink:href="#dot" transform="translate(148.2,-36.1)" />   <use xlink:href="#dot" transform="translate(148.3,-36)" />   <use xlink:href="#dot" transform="translate(148.2,-36.1)" />   <use xlink:href="#dot" transform="translate(148.2,-36.1)" />   <use xlink:href="#dot" transform="translate(148.2,-36.1)" />   <use xlink:href="#dot" transform="translate(148.2,-36.1)" />   <use xlink:href="#dot" transform="translate(148.2,-36.1)" />   <use xlink:href="#dot" transform="translate(148.2,-36.1)" />   <use xlink:href="#dot" transform="translate(148.2,-36.1)" />   <use xlink:href="#dot" transform="translate(148.2,-36.1)" />   <use xlink:href="#dot" transform="translate(148.2,-36.1)" />   <use xlink:href="#dot" transform="translate(148.2,-36.1)" />   <use xlink:href="#dot" transform="translate(148.2,-36.1)" />   <use xlink:href="#dot" transform="translate(148.2,-36.1)" />   <use xlink:href="#dot" transform="translate(148.2,-36.1)" />   <use xlink:href="#dot" transform="translate(148.3,-36)" />   <use xlink:href="#dot" transform="translate(148.2,-36.1)" />   <use xlink:href="#dot" transform="translate(148.2,-36.1)" />   <use xlink:href="#dot" transform="translate(148.2,-36.1)" />   <use xlink:href="#dot" transform="translate(148.3,-36)" />   <use xlink:href="#dot" transform="translate(148.3,-36)" />   <use xlink:href="#dot" transform="translate(148.3,-36)" />   <use xlink:href="#dot" transform="translate(148.2,-36.1)" />   <use xlink:href="#dot" transform="translate(148.2,-36.1)" />   <use xlink:href="#dot" transform="translate(148.2,-36.1)" />   <use xlink:href="#dot" transform="translate(148.2,-36.1)" />   <use xlink:href="#dot" transform="translate(148.2,-36.1)" />   <use xlink:href="#dot" transform="translate(148.2,-36.1)" />   <use xlink:href="#dot" transform="translate(148.2,-36.1)" />   <use xlink:href="#dot" transform="translate(148.2,-36.1)" />   <use xlink:href="#dot" transform="translate(148.2,-36.1)" />   <use xlink:href="#dot" transform="translate(148.3,-36)" />   <use xlink:href="#dot" transform="translate(148.2,-36.1)" />   <use xlink:href="#dot" transform="translate(148.2,-36.1)" />   <use xlink:href="#dot" transform="translate(148.2,-36.1)" />   <use xlink:href="#dot" transform="translate(148.2,-36.1)" />   <use xlink:href="#dot" transform="translate(148.2,-36.1)" />   <use xlink:href="#dot" transform="translate(148.2,-36.1)" />   <use xlink:href="#dot" transform="translate(148.2,-36.1)" />   <use xlink:href="#dot" transform="translate(148.2,-36.1)" />   <use xlink:href="#dot" transform="translate(148.2,-36.1)" />   <use xlink:href="#dot" transform="translate(148.2,-36.1)" />   <use xlink:href="#dot" transform="translate(148.2,-36.1)" />   <use xlink:href="#dot" transform="translate(148.2,-36.100000035198)" />   <use xlink:href="#dot" transform="translate(148.2,-36.100000035198)" />   <use xlink:href="#dot" transform="translate(148.3,-36)" />   <use xlink:href="#dot" transform="translate(148.3,-36)" />   <use xlink:href="#dot" transform="translate(148.3,-36)" />   <use xlink:href="#dot" transform="translate(148.3,-36)" />   <use xlink:href="#dot" transform="translate(148.3,-36)" />   <use xlink:href="#dot" transform="translate(148.3,-36)" />   <use xlink:href="#dot" transform="translate(148.2,-36.1)" />   <use xlink:href="#dot" transform="translate(148.2,-36.1)" />   <use xlink:href="#dot" transform="translate(148.3,-36)" />   <use xlink:href="#dot" transform="translate(148.2,-36.1)" />   <use xlink:href="#dot" transform="translate(148.3,-36)" />   <use xlink:href="#dot" transform="translate(148.2,-36.1)" />   <use xlink:href="#dot" transform="translate(148.2,-36.1)" />   <use xlink:href="#dot" transform="translate(148.2,-36.1)" />   <use xlink:href="#dot" transform="translate(148.2,-36.1)" />   <use xlink:href="#dot" transform="translate(148.3,-36)" />   <use xlink:href="#dot" transform="translate(148.3,-36)" />   <use xlink:href="#dot" transform="translate(148.3,-36)" />   <use xlink:href="#dot" transform="translate(148.3,-36)" />   <use xlink:href="#dot" transform="translate(148.3,-36)" />   <use xlink:href="#dot" transform="translate(148.3,-36)" />   <use xlink:href="#dot" transform="translate(148.3,-36)" />   <use xlink:href="#dot" transform="translate(148.2,-36.1)" />   <use xlink:href="#dot" transform="translate(148.3,-36)" />   <use xlink:href="#dot" transform="translate(148.2,-36.1)" />   <use xlink:href="#dot" transform="translate(148.3,-36)" />   <use xlink:href="#dot" transform="translate(148.3,-36)" />   <use xlink:href="#dot" transform="translate(148.3,-36)" />   <use xlink:href="#dot" transform="translate(148.2,-36.1)" />   <use xlink:href="#dot" transform="translate(148.2,-36.1)" />   <use xlink:href="#dot" transform="translate(148.3,-36)" />   <use xlink:href="#dot" transform="translate(148.3,-36)" />   <use xlink:href="#dot" transform="translate(148.3,-36)" />   <use xlink:href="#dot" transform="translate(148.3,-36)" />   <use xlink:href="#dot" transform="translate(148.2,-36.1)" />   <use xlink:href="#dot" transform="translate(148.2,-36.1)" />   <use xlink:href="#dot" transform="translate(148.3,-36)" />   <use xlink:href="#dot" transform="translate(148.2,-36.1)" />   <use xlink:href="#dot" transform="translate(148.3,-36)" />   <use xlink:href="#dot" transform="translate(148.2,-36.100000035198)" />   <use xlink:href="#dot" transform="translate(148.4,-36.400000035556)" />   <use xlink:href="#dot" transform="translate(148.2,-36.100000035198)" />   <use xlink:href="#dot" transform="translate(148.2,-36.100000035198)" />   <use xlink:href="#dot" transform="translate(148.4,-36.300000035438)" />   <use xlink:href="#dot" transform="translate(148.4,-36.400000035556)" />   <use xlink:href="#dot" transform="translate(148.4,-36.300000035438)" />   <use xlink:href="#dot" transform="translate(148.4,-36.100000035198)" />   <use xlink:href="#dot" transform="translate(148.3,-36.100000035198)" />   <use xlink:href="#dot" transform="translate(148.4,-36.000000035077)" />   <use xlink:href="#dot" transform="translate(148.8,-35.3)" />   <use xlink:href="#dot" transform="translate(148.8,-35.3)" />   <use xlink:href="#dot" transform="translate(148.8,-35.3)" />   <use xlink:href="#dot" transform="translate(148.8,-35.3)" />   <use xlink:href="#dot" transform="translate(148.8,-35.3)" />   <use xlink:href="#dot" transform="translate(148.6,-35.5)" />   <use xlink:href="#dot" transform="translate(148.8,-35.3)" />   <use xlink:href="#dot" transform="translate(148.6,-35.5)" />   <use xlink:href="#dot" transform="translate(148.6,-35.5)" />   <use xlink:href="#dot" transform="translate(148.6,-35.5)" />   <use xlink:href="#dot" transform="translate(148.4,-36.2)" />   <use xlink:href="#dot" transform="translate(148.6,-35.5)" />   <use xlink:href="#dot" transform="translate(148.6,-35.5)" />   <use xlink:href="#dot" transform="translate(148.6,-35.5)" />   <use xlink:href="#dot" transform="translate(148.6,-35.5)" />   <use xlink:href="#dot" transform="translate(148.4,-36.2)" />   <use xlink:href="#dot" transform="translate(148.4,-36.2)" />   <use xlink:href="#dot" transform="translate(148.6,-35.5)" />   <use xlink:href="#dot" transform="translate(148.6,-35.5)" />   <use xlink:href="#dot" transform="translate(148.6,-35.5)" />   <use xlink:href="#dot" transform="translate(148.4,-36.2)" />   <use xlink:href="#dot" transform="translate(148.6,-35.5)" />   <use xlink:href="#dot" transform="translate(148.8,-35.3)" />   <use xlink:href="#dot" transform="translate(148.4,-36.1)" />   <use xlink:href="#dot" transform="translate(148.7917,-35.625)" />   <use xlink:href="#dot" transform="translate(148.4,-36.1)" />   <use xlink:href="#dot" transform="translate(148.7917,-35.625)" />   <use xlink:href="#dot" transform="translate(148.4,-36.1)" />   <use xlink:href="#dot" transform="translate(148.7917,-35.625)" />   <use xlink:href="#dot" transform="translate(148.7917,-35.625)" />   <use xlink:href="#dot" transform="translate(148.8,-35.3)" />   <use xlink:href="#dot" transform="translate(148.8,-35.3)" />   <use xlink:href="#dot" transform="translate(148.7917,-35.625)" />   <use xlink:href="#dot" transform="translate(148.7917,-35.625)" />   <use xlink:href="#dot" transform="translate(148.8,-35.3)" />   <use xlink:href="#dot" transform="translate(148.8,-35.3)" />   <use xlink:href="#dot" transform="translate(148.8,-35.3)" />   <use xlink:href="#dot" transform="translate(148.8,-35.3)" />   <use xlink:href="#dot" transform="translate(148.8,-35.3)" />   <use xlink:href="#dot" transform="translate(148.4,-36.1)" />   <use xlink:href="#dot" transform="translate(148.8,-35.3)" />   <use xlink:href="#dot" transform="translate(148.8,-35.3)" />   <use xlink:href="#dot" transform="translate(148.7917,-35.625)" />   <use xlink:href="#dot" transform="translate(148.7917,-35.625)" />   <use xlink:href="#dot" transform="translate(148.8,-35.3)" />   <use xlink:href="#dot" transform="translate(148.7917,-35.625)" />   <use xlink:href="#dot" transform="translate(148.8,-35.3)" />   <use xlink:href="#dot" transform="translate(148.7917,-35.625)" />   <use xlink:href="#dot" transform="translate(148.4,-36.1)" />   <use xlink:href="#dot" transform="translate(148.4,-36.1)" />   <use xlink:href="#dot" transform="translate(148.4,-36.1)" />   <use xlink:href="#dot" transform="translate(148.4,-36.1)" />   <use xlink:href="#dot" transform="translate(148.4,-36.1)" />   <use xlink:href="#dot" transform="translate(148.4,-36.1)" />   <use xlink:href="#dot" transform="translate(148.4,-36.1)" />   <use xlink:href="#dot" transform="translate(148.4,-36.1)" />   <use xlink:href="#dot" transform="translate(148.4,-36.1)" />   <use xlink:href="#dot" transform="translate(148.4,-36.1)" />   <use xlink:href="#dot" transform="translate(148.4,-36.1)" />   <use xlink:href="#dot" transform="translate(148.4,-36.1)" />   <use xlink:href="#dot" transform="translate(148.4,-36.1)" />   <use xlink:href="#dot" transform="translate(148.4,-36.1)" />   <use xlink:href="#dot" transform="translate(148.4,-36.1)" />   <use xlink:href="#dot" transform="translate(148.4,-36.1)" />   <use xlink:href="#dot" transform="translate(148.4,-36.1)" />   <use xlink:href="#dot" transform="translate(148.4,-36.1)" />   <use xlink:href="#dot" transform="translate(148.4,-36.1)" />   <use xlink:href="#dot" transform="translate(148.4,-36.400000035556)" />   <use xlink:href="#dot" transform="translate(148.4,-36.400000035556)" />   <use xlink:href="#dot" transform="translate(148.4,-36.000000035077)" />   <use xlink:href="#dot" transform="translate(148.4,-36.200000035318)" />   <use xlink:href="#dot" transform="translate(148.4,-36.2)" />   <use xlink:href="#dot" transform="translate(148.7,-35.4)" />   <use xlink:href="#dot" transform="translate(148.4,-36.2)" />   <use xlink:href="#dot" transform="translate(148.8167,-35.4)" />   <use xlink:href="#dot" transform="translate(148.4,-36.4)" />   <use xlink:href="#dot" transform="translate(148.4,-36.4)" />   <use xlink:href="#dot" transform="translate(148.4,-36.4)" />   <use xlink:href="#dot" transform="translate(148.8,-35.3)" />   <use xlink:href="#dot" transform="translate(148.8,-35.3)" />   <use xlink:href="#dot" transform="translate(148.4,-36.4)" />   <use xlink:href="#dot" transform="translate(148.4,-36.4)" />   <use xlink:href="#dot" transform="translate(148.3,-36.7)" />   <use xlink:href="#dot" transform="translate(148.3,-36.7)" />   <use xlink:href="#dot" transform="translate(148.3,-36.7)" />   <use xlink:href="#dot" transform="translate(148.4,-36.3)" />   <use xlink:href="#dot" transform="translate(148.4,-36.200000035318)" />   <use xlink:href="#dot" transform="translate(148.3,-36.7)" />   <use xlink:href="#dot" transform="translate(148.4,-36.3)" />   <use xlink:href="#dot" transform="translate(148.3,-36.7)" />   <use xlink:href="#dot" transform="translate(148.4,-36.4)" />   <use xlink:href="#dot" transform="translate(148.4,-36.4)" />   <use xlink:href="#dot" transform="translate(148.4,-36.4)" />   <use xlink:href="#dot" transform="translate(148.4,-36.400000035556)" />   <use xlink:href="#dot" transform="translate(148.43399,-36.45)" />   <use xlink:href="#dot" transform="translate(148.43399,-36.45)" />   <use xlink:href="#dot" transform="translate(148.43399,-36.45)" />   <use xlink:href="#dot" transform="translate(148.3,-36.5)" />   <use xlink:href="#dot" transform="translate(148.3,-36.5)" />   <use xlink:href="#dot" transform="translate(148.3,-36.5)" />   <use xlink:href="#dot" transform="translate(148.3,-36.5)" />   <use xlink:href="#dot" transform="translate(148.3,-36.5)" />   <use xlink:href="#dot" transform="translate(148.3,-36.5)" />   <use xlink:href="#dot" transform="translate(148.3,-36.5)" />   <use xlink:href="#dot" transform="translate(148.3,-36.5)" />   <use xlink:href="#dot" transform="translate(148.3,-36.5)" />   <use xlink:href="#dot" transform="translate(148.4,-36.4)" />   <use xlink:href="#dot" transform="translate(148.8,-35.4)" />   <use xlink:href="#dot" transform="translate(148.8,-35.4)" />   <use xlink:href="#dot" transform="translate(148.4,-36.4)" />   <use xlink:href="#dot" transform="translate(148.4,-36.4)" />   <use xlink:href="#dot" transform="translate(148.4,-36.400000035556)" />   <use xlink:href="#dot" transform="translate(148.5,-35.9)" />   <use xlink:href="#dot" transform="translate(149.1,-35)" />   <use xlink:href="#dot" transform="translate(148.4,-36.4)" />   <use xlink:href="#dot" transform="translate(148.4,-36.4)" />   <use xlink:href="#dot" transform="translate(148.4,-36.4)" />   <use xlink:href="#dot" transform="translate(148.4,-36.4)" />   <use xlink:href="#dot" transform="translate(148.4,-36.4)" />   <use xlink:href="#dot" transform="translate(148.4,-36.4)" />   <use xlink:href="#dot" transform="translate(148.4,-36.4)" />   <use xlink:href="#dot" transform="translate(148.4,-36.4)" />   <use xlink:href="#dot" transform="translate(148.4,-36.4)" />   <use xlink:href="#dot" transform="translate(148.4,-36.4)" />   <use xlink:href="#dot" transform="translate(148.4,-36.4)" />   <use xlink:href="#dot" transform="translate(148.4,-36.4)" />   <use xlink:href="#dot" transform="translate(148.4,-36.4)" />   <use xlink:href="#dot" transform="translate(148.4,-36.4)" />   <use xlink:href="#dot" transform="translate(148.4,-36.4)" />   <use xlink:href="#dot" transform="translate(148.4,-36.4)" />   <use xlink:href="#dot" transform="translate(148.4,-36.4)" />   <use xlink:href="#dot" transform="translate(148.4,-36.4)" />   <use xlink:href="#dot" transform="translate(148.4,-36.4)" />   <use xlink:href="#dot" transform="translate(148.4,-36.4)" />   <use xlink:href="#dot" transform="translate(148.4,-36.4)" />   <use xlink:href="#dot" transform="translate(148.4,-36.4)" />   <use xlink:href="#dot" transform="translate(148.4,-36.4)" />   <use xlink:href="#dot" transform="translate(148.4,-36.4)" />   <use xlink:href="#dot" transform="translate(148.4,-36.4)" />   <use xlink:href="#dot" transform="translate(148.4,-36.4)" />   <use xlink:href="#dot" transform="translate(148.4,-36.4)" />   <use xlink:href="#dot" transform="translate(148.4,-36.4)" />   <use xlink:href="#dot" transform="translate(148.4,-36.4)" />   <use xlink:href="#dot" transform="translate(148.4,-36.4)" />   <use xlink:href="#dot" transform="translate(148.4,-36.4)" />   <use xlink:href="#dot" transform="translate(148.4,-36.4)" />   <use xlink:href="#dot" transform="translate(148.4,-36.4)" />   <use xlink:href="#dot" transform="translate(148.4,-36.4)" />   <use xlink:href="#dot" transform="translate(148.4,-36.4)" />   <use xlink:href="#dot" transform="translate(148.4,-36.4)" />   <use xlink:href="#dot" transform="translate(148.4,-36.4)" />   <use xlink:href="#dot" transform="translate(148.4,-36.4)" />   <use xlink:href="#dot" transform="translate(148.4,-36.4)" />   <use xlink:href="#dot" transform="translate(148.78333,-35.41667)" />   <use xlink:href="#dot" transform="translate(148.78333,-35.41667)" />   <use xlink:href="#dot" transform="translate(148.4,-36.4)" />   <use xlink:href="#dot" transform="translate(148.78333,-35.41667)" />   <use xlink:href="#dot" transform="translate(148.78333,-35.41667)" />   <use xlink:href="#dot" transform="translate(148.78333,-35.41667)" />   <use xlink:href="#dot" transform="translate(148.78333,-35.41667)" />   <use xlink:href="#dot" transform="translate(148.78333,-35.41667)" />   <use xlink:href="#dot" transform="translate(148.78333,-35.41667)" />   <use xlink:href="#dot" transform="translate(148.78333,-35.41667)" />   <use xlink:href="#dot" transform="translate(148.78333,-35.41667)" />   <use xlink:href="#dot" transform="translate(148.4,-36.4)" />   <use xlink:href="#dot" transform="translate(148.78333,-35.41667)" />   <use xlink:href="#dot" transform="translate(148.78333,-35.41667)" />   <use xlink:href="#dot" transform="translate(148.4,-36.4)" />   <use xlink:href="#dot" transform="translate(148.4,-36.4)" />   <use xlink:href="#dot" transform="translate(148.4,-36.4)" />   <use xlink:href="#dot" transform="translate(148.4,-36.4)" />   <use xlink:href="#dot" transform="translate(148.4,-36.4)" />   <use xlink:href="#dot" transform="translate(148.4,-36.4)" />   <use xlink:href="#dot" transform="translate(148.4,-36.4)" />   <use xlink:href="#dot" transform="translate(148.4,-36.4)" />   <use xlink:href="#dot" transform="translate(148.78333,-35.41667)" />   <use xlink:href="#dot" transform="translate(148.4,-36.4)" />   <use xlink:href="#dot" transform="translate(148.78333,-35.41667)" />   <use xlink:href="#dot" transform="translate(148.78333,-35.41667)" />   <use xlink:href="#dot" transform="translate(148.4,-36)" />   <use xlink:href="#dot" transform="translate(148.4,-36)" />   <use xlink:href="#dot" transform="translate(148.4,-36)" /><polygon class="region" points="148.3,-36.7 145.085938,-37.641289 149.1,-35 148.43399,-36.45 148.3,-36.7 " />
		  </g>
		</svg>