<?xml version="1.0" encoding="UTF-8"?>
	<svg xmlns:xlink="http://www.w3.org/1999/xlink" 
	xmlns="http://www.w3.org/2000/svg" 
	width="360px" height="180px">
	   <style type="text/css">
		  <![CDATA[     
		  .region 
		  { 
			fill:blue; 
			opacity:0.4; 
			stroke:blue;
		  }
		  ]]>
	   </style>

	<circle id="dot" x="-2" y="-2" r="2" style="stroke:none; stroke-width:0; fill:black; opacity:0.7;"/>


	 <image x="0" y="0" width="360" height="180" xlink:href="map.jpg"/>

 
	 <g transform="translate(180,90) scale(1,-1)">   <use xlink:href="#dot" transform="translate(-96.648093750238,17.210453181366)" />   <use xlink:href="#dot" transform="translate(-96.648093750238,17.210453181366)" />   <use xlink:href="#dot" transform="translate(-96.648093750238,17.210453181366)" />   <use xlink:href="#dot" transform="translate(-96.648093750238,17.210453181366)" />   <use xlink:href="#dot" transform="translate(-96.648093750238,17.210453181366)" />   <use xlink:href="#dot" transform="translate(-96.648093750238,17.210453181366)" />   <use xlink:href="#dot" transform="translate(-96.648093750238,17.210453181366)" />   <use xlink:href="#dot" transform="translate(-96.648093750238,17.210453181366)" />   <use xlink:href="#dot" transform="translate(-96.648093750238,17.210453181366)" />   <use xlink:href="#dot" transform="translate(-96.648093750238,17.210453181366)" />   <use xlink:href="#dot" transform="translate(-96.648093750238,17.210453181366)" />   <use xlink:href="#dot" transform="translate(-96.648093750238,17.210453181366)" />   <use xlink:href="#dot" transform="translate(-96.648093750238,17.210453181366)" />   <use xlink:href="#dot" transform="translate(-96.648093750238,17.210453181366)" />   <use xlink:href="#dot" transform="translate(-96.648093750238,17.210453181366)" />   <use xlink:href="#dot" transform="translate(-96.648093750238,17.210453181366)" />   <use xlink:href="#dot" transform="translate(-96.648093750238,17.210453181366)" />   <use xlink:href="#dot" transform="translate(-96.648093750238,17.210453181366)" />   <use xlink:href="#dot" transform="translate(-96.648093750238,17.210453181366)" />   <use xlink:href="#dot" transform="translate(-96.648093750238,17.210453181366)" />   <use xlink:href="#dot" transform="translate(-96.648093750238,17.210453181366)" />   <use xlink:href="#dot" transform="translate(-96.648093750238,17.210453181366)" />   <use xlink:href="#dot" transform="translate(-96.648093750238,17.210453181366)" />   <use xlink:href="#dot" transform="translate(-96.648093750238,17.210453181366)" />   <use xlink:href="#dot" transform="translate(-96.648093750238,17.210453181366)" />   <use xlink:href="#dot" transform="translate(-96.648093750238,17.210453181366)" />   <use xlink:href="#dot" transform="translate(-96.648093750238,17.210453181366)" />   <use xlink:href="#dot" transform="translate(-96.648093750238,17.210453181366)" />   <use xlink:href="#dot" transform="translate(-96.648093750238,17.210453181366)" />   <use xlink:href="#dot" transform="translate(-96.648093750238,17.210453181366)" />   <use xlink:href="#dot" transform="translate(-96.648093750238,17.210453181366)" />   <use xlink:href="#dot" transform="translate(-96.648093750238,17.210453181366)" />   <use xlink:href="#dot" transform="translate(-96.648093750238,17.210453181366)" />   <use xlink:href="#dot" transform="translate(-96.648093750238,17.210453181366)" />   <use xlink:href="#dot" transform="translate(-96.648093750238,17.210453181366)" />   <use xlink:href="#dot" transform="translate(-96.648093750238,17.210453181366)" />   <use xlink:href="#dot" transform="translate(-96.648093750238,17.210453181366)" />   <use xlink:href="#dot" transform="translate(-96.648093750238,17.210453181366)" />   <use xlink:href="#dot" transform="translate(-96.648093750238,17.210453181366)" />   <use xlink:href="#dot" transform="translate(-96.648093750238,17.210453181366)" />   <use xlink:href="#dot" transform="translate(-96.648093750238,17.210453181366)" />   <use xlink:href="#dot" transform="translate(-96.648093750238,17.210453181366)" />   <use xlink:href="#dot" transform="translate(-96.648093750238,17.210453181366)" />   <use xlink:href="#dot" transform="translate(-96.648093750238,17.210453181366)" />   <use xlink:href="#dot" transform="translate(-96.648093750238,17.210453181366)" />   <use xlink:href="#dot" transform="translate(-96.648093750238,17.210453181366)" />   <use xlink:href="#dot" transform="translate(-96.648093750238,17.210453181366)" />   <use xlink:href="#dot" transform="translate(-96.648093750238,17.210453181366)" />   <use xlink:href="#dot" transform="translate(-96.648093750238,17.210453181366)" />   <use xlink:href="#dot" transform="translate(-96.648093750238,17.210453181366)" />   <use xlink:href="#dot" transform="translate(-96.648093750238,17.210453181366)" />   <use xlink:href="#dot" transform="translate(-96.648093750238,17.210453181366)" />   <use xlink:href="#dot" transform="translate(-96.648093750238,17.210453181366)" />   <use xlink:href="#dot" transform="translate(-96.648093750238,17.210453181366)" />   <use xlink:href="#dot" transform="translate(-96.648093750238,17.210453181366)" />   <use xlink:href="#dot" transform="translate(-96.648093750238,17.210453181366)" />   <use xlink:href="#dot" transform="translate(-96.648093750238,17.210453181366)" />   <use xlink:href="#dot" transform="translate(-96.648093750238,17.210453181366)" />   <use xlink:href="#dot" transform="translate(-96.648093750238,17.210453181366)" />   <use xlink:href="#dot" transform="translate(-96.648093750238,17.210453181366)" />   <use xlink:href="#dot" transform="translate(-96.648093750238,17.210453181366)" />   <use xlink:href="#dot" transform="translate(-96.648093750238,17.210453181366)" />   <use xlink:href="#dot" transform="translate(-96.710038604626,17.010740741782)" />   <use xlink:href="#dot" transform="translate(-96.695038604972,17.127402093536)" />   <use xlink:href="#dot" transform="translate(-96.695038604972,17.127402093536)" />   <use xlink:href="#dot" transform="translate(-96.695038604972,17.127402093536)" />   <use xlink:href="#dot" transform="translate(-96.695038604972,17.127402093536)" />   <use xlink:href="#dot" transform="translate(-96.695038604972,17.127402093536)" />   <use xlink:href="#dot" transform="translate(-96.695038604972,17.127402093536)" />   <use xlink:href="#dot" transform="translate(-96.695038604972,17.127402093536)" />   <use xlink:href="#dot" transform="translate(-96.990045019201,16.95074288499)" />   <use xlink:href="#dot" transform="translate(-96.990045019201,16.95074288499)" />   <use xlink:href="#dot" transform="translate(-96.675,17.175)" />   <use xlink:href="#dot" transform="translate(-96.675,17.308333)" />   <use xlink:href="#dot" transform="translate(-96.675,17.175)" />   <use xlink:href="#dot" transform="translate(-96.675,17.175)" />   <use xlink:href="#dot" transform="translate(-96.675,17.175)" />   <use xlink:href="#dot" transform="translate(-96.661981928387,17.161289535584)" />   <use xlink:href="#dot" transform="translate(-96.661981928387,17.161289535584)" /><polygon class="region" points="-96.710038604626,17.010740741782 -96.990045019201,16.95074288499 -96.675,17.308333 -96.648093750238,17.210453181366 -96.661981928387,17.161289535584 -96.710038604626,17.010740741782 " />
		  </g>
		</svg>