<?xml version="1.0" encoding="UTF-8"?>
	<svg xmlns:xlink="http://www.w3.org/1999/xlink" 
	xmlns="http://www.w3.org/2000/svg" 
	width="360px" height="180px">
	   <style type="text/css">
		  <![CDATA[     
		  .region 
		  { 
			fill:blue; 
			opacity:0.4; 
			stroke:blue;
		  }
		  ]]>
	   </style>

	<circle id="dot" x="-2" y="-2" r="2" style="stroke:none; stroke-width:0; fill:black; opacity:0.7;"/>


	 <image x="0" y="0" width="360" height="180" xlink:href="map.jpg"/>

 
	 <g transform="translate(180,90) scale(1,-1)"><polygon class="region" points="-89.333663969,14.422561317 -89.149186943,14.362643187 -89.103569214,14.57609644 -88.973699574,14.230318751 -89.393494564,14.330363352 -89.460190964,14.5353567 -89.29835411,14.632458812 -89.333663969,14.422561317 " /><polygon class="region" points="-88.154055476,14.250582889 -88.397015053,14.387907867 -88.401240437,14.548472457 -88.17940778,14.49776785 -88.154055476,14.250582889 " /><polygon class="region" points="-89.442674324,13.690150521 -89.264295431,13.688937059 -89.2048358,13.637971661 -89.499707032,13.63069089 -89.442674324,13.690150521 " /><polygon class="region" points="-87.825821864,14.097311677 -87.89777722,14.123381598 -87.85441166,14.241281716 -87.789363318,14.216888589 -87.825821864,14.097311677 " /><polygon class="region" points="-88.772977672,14.522279213 -88.843708885,14.606849142 -88.749913146,14.66681691 -88.723773349,14.609924412 -88.772977672,14.522279213 " /><polygon class="region" points="-87.401937134,14.077342147 -87.499120965,14.123821371 -87.488557505,14.229455969 -87.420951362,14.19776559 -87.401937134,14.077342147 " /><polygon class="region" points="-87.049438439,14.124736772 -87.134814386,14.166747159 -87.113131606,14.261609323 -87.044017743,14.219598936 -87.049438439,14.124736772 " /><polygon class="region" points="-89.053153068,13.782373622 -89.121106932,13.851540948 -89.01553575,13.880664033 -88.986412665,13.81392363 -89.053153068,13.782373622 " /><polygon class="region" points="-88.174303316,13.716846682 -88.262279301,13.738082264 -88.272897092,13.79723853 -88.175820143,13.810889976 -88.174303316,13.716846682 " /><polygon class="region" points="-88.172786489,13.971673672 -88.081776849,13.953471744 -88.054473958,13.886731342 -88.203123035,13.923135198 -88.172786489,13.971673672 " /><polygon class="region" points="-87.103645389,13.891646883 -87.15785234,13.937722791 -87.072476393,13.995995264 -87.046728091,13.94449866 -87.103645389,13.891646883 " /><polygon class="region" points="-88.01884319,14.007623312 -88.103350869,14.009736004 -88.124477789,14.071004071 -88.042082802,14.094243683 -88.01884319,14.007623312 " />
		  </g>
		</svg>