<?xml version="1.0" encoding="UTF-8"?>
	<svg xmlns:xlink="http://www.w3.org/1999/xlink" 
	xmlns="http://www.w3.org/2000/svg" 
	width="360px" height="180px">
	   <style type="text/css">
		  <![CDATA[     
		  .region 
		  { 
			fill:blue; 
			opacity:0.4; 
			stroke:blue;
		  }
		  ]]>
	   </style>

	<circle id="dot" x="-2" y="-2" r="2" style="stroke:none; stroke-width:0; fill:black; opacity:0.7;"/>


	 <image x="0" y="0" width="360" height="180" xlink:href="map.jpg"/>

 
	 <g transform="translate(180,90) scale(1,-1)"><polygon class="region" points="142.769668579,54.333667755 142.993392944,54.078834534 142.809310913,53.868362427 143.200469971,53.312084198 143.256271362,53.164943695 143.319107056,52.85194397 143.147201538,53.36322403 143.023391724,53.251220703 143.090744019,53.038166046 143.326309204,52.838806152 143.316940308,52.60036087 143.266143799,52.42224884 143.174728394,52.329334259 143.285354614,52.645500183 143.116363525,52.358196259 143.188140869,51.836582184 143.094528198,51.808971405 143.026199341,51.726581573 143.194076538,51.832138062 143.208465576,51.897914886 143.316772461,51.696777344 143.202941895,51.511417389 143.335357666,51.50422287 143.32572937,51.614749908 143.357910156,51.647666931 143.370910645,51.625026703 143.787414551,50.318832397 144.391586304,49.044555664 144.690170288,48.863193512 144.751586914,48.652332306 144.032806396,49.259918213 143.405975342,49.30947113 142.981719971,49.127750397 142.536132812,47.787612915 143.023529053,47.254055023 143.099365234,46.9090271 143.479278564,46.822776794 143.617492676,46.367862701 143.414886475,46.021640778 143.307418823,46.504196167 142.780715942,46.599250793 142.690216064,46.750583649 142.409088135,46.579666138 142.082275391,45.889305115 141.812942505,46.584056854 142.058944702,47.080360413 141.967468262,47.613414764 142.206115723,47.983028412 141.842300415,48.769611359 142.138412476,49.515609741 142.040161133,50.551528931 142.249420166,51.146583557 141.934005737,51.641082764 141.671340942,51.748085022 141.824996948,51.776111603 141.626083374,51.887390137 141.623382568,52.319248199 141.91986084,53.051860809 141.757217407,53.372833252 142.245864868,53.532112122 142.230941772,53.375331879 142.457885742,53.3722229 142.671524048,53.50958252 142.482635498,53.655082703 142.789642334,53.702777863 142.689865112,53.843860626 142.582885742,53.691417694 142.683502197,53.948139191 142.25680542,54.29372406 142.567443848,54.209583282 142.704971313,54.249137878 142.656860352,54.401916504 142.769668579,54.333667755 " /><polygon class="region" points="141.940139771,45.523139954 143.015197754,44.54511261 144.343643188,43.963527679 144.794311523,43.933361053 145.343887329,44.337776184 145.06388855,43.803001404 145.354141235,43.573417664 145.192382812,43.620666504 145.393783569,43.295139313 145.287521362,43.348861694 145.227523804,43.331027985 145.511444092,43.223667145 145.653442383,43.388362885 145.820892334,43.380027771 145.516418457,43.15605545 144.967285156,42.978637695 144.861419678,43.086112976 144.780303955,42.930557251 144.266418457,42.998638153 143.919784546,42.869750977 143.412521362,42.438610077 143.248336792,41.920696259 141.81602478,42.607749939 141.431549072,42.57591629 141.003112793,42.295749664 140.706939697,42.580001831 140.476364136,42.581611633 140.293411255,42.247249603 141.194137573,41.80052948 140.649520874,41.817222595 140.416366577,41.516387939 140.081604004,41.41827774 139.983856201,41.605445862 140.144577026,41.926029205 139.776062012,42.257862091 139.826049805,42.610443115 140.521697998,42.98658371 140.34513855,43.330471039 141.168548584,43.143112183 141.424743652,43.324890137 141.331192017,43.727470398 141.644332886,43.947971344 141.79309082,44.613609314 141.568466187,45.206195831 141.648895264,45.450084686 141.940139771,45.523139954 " /><polygon class="region" points="148.763473511,45.549331665 148.900253296,45.506278992 148.848587036,45.328029633 147.913299561,44.958805084 147.666946411,44.999500275 147.210632324,44.565582275 146.855255127,44.453777313 147.188171387,44.691749573 147.11277771,44.820720673 147.873809814,45.217723846 147.916549683,45.424804687 148.257339478,45.255584717 148.763473511,45.549331665 " /><polygon class="region" points="146.280197144,44.434276581 146.577636719,44.452136993 145.9453125,44.148666382 145.544418335,43.654499054 145.432922363,43.71736145 146.08392334,44.475917816 146.280197144,44.434276581 " /><polygon class="region" points="146.828445435,43.888442993 146.913299561,43.814056396 146.588272095,43.745304108 146.59286499,43.809165955 146.828445435,43.888442993 " /><polygon class="region" points="141.201141357,45.257110596 141.325256348,45.192222595 141.286087036,45.107112885 141.141113281,45.162971497 141.201141357,45.257110596 " /><polygon class="region" points="141.008392334,45.432777405 141.069854736,45.421779633 141.049118042,45.271720886 140.967285156,45.462665558 141.008392334,45.432777405 " /><polygon class="region" points="145.407394409,43.290000916 145.45980835,43.275081635 145.475616455,43.273029327 145.457473755,43.261890411 145.388061523,43.285362244 145.407394409,43.290000916 " />
		  </g>
		</svg>