<?xml version="1.0" encoding="UTF-8"?>
	<svg xmlns:xlink="http://www.w3.org/1999/xlink" 
	xmlns="http://www.w3.org/2000/svg" 
	width="360px" height="180px">
	   <style type="text/css">
		  <![CDATA[     
		  .region 
		  { 
			fill:blue; 
			opacity:0.4; 
			stroke:blue;
		  }
		  ]]>
	   </style>

	<circle id="dot" x="-2" y="-2" r="2" style="stroke:none; stroke-width:0; fill:black; opacity:0.7;"/>


	 <image x="0" y="0" width="360" height="180" xlink:href="map.jpg"/>

 
	 <g transform="translate(180,90) scale(1,-1)"><polygon class="region" points="98.683104786,25.778407763 102.511181246,22.954416932 102.385670543,22.766150876 101.632606321,22.515129469 101.067808155,21.762065247 100.56576534,21.51104384 98.934126193,24.084013264 97.835907537,25.182231921 98.243817323,25.590141708 98.400705703,25.558764032 98.557594082,25.841163115 98.683104786,25.778407763 " /><polygon class="region" points="102.919027304,28.650829665 102.10327146,28.571020919 101.915005404,30.139904714 102.228782163,30.892968936 102.887713357,31.426389426 104.331086449,31.740166185 104.331086449,31.489144778 103.138734765,30.296793094 103.353740739,29.339125937 102.919027304,28.650829665 " /><polygon class="region" points="99.87545647,29.857505631 99.687190415,29.606484224 99.091014573,29.6378619 99.091014573,30.265415418 99.49892436,30.547814501 99.87545647,30.108527038 99.87545647,29.857505631 " /><polygon class="region" points="103.855426896,22.349071755 104.10712429,22.266833993 104.259139547,21.823248487 103.877855376,21.985231958 103.743284493,22.239421405 103.855426896,22.349071755 " /><polygon class="region" points="104.904581378,22.64562611 104.717677373,22.687991018 104.747582014,22.842498329 105.193659573,23.014450013 104.904581378,22.64562611 " />
		  </g>
		</svg>