<?xml version="1.0" encoding="UTF-8"?>
	<svg xmlns:xlink="http://www.w3.org/1999/xlink" 
	xmlns="http://www.w3.org/2000/svg" 
	width="360px" height="180px">
	   <style type="text/css">
		  <![CDATA[     
		  .region 
		  { 
			fill:blue; 
			opacity:0.4; 
			stroke:blue;
		  }
		  ]]>
	   </style>

	<circle id="dot" x="-2" y="-2" r="2" style="stroke:none; stroke-width:0; fill:black; opacity:0.7;"/>


	 <image x="0" y="0" width="360" height="180" xlink:href="map.jpg"/>

 
	 <g transform="translate(180,90) scale(1,-1)"><polygon class="region" points="-61.683529753,-28.429394351 -61.466567783,-27.480582039 -61.304496826,-24.779234956 -61.019444832,-23.867068575 -60.354323513,-23.011912594 -57.451759876,-19.925899349 -56.101375152,-20.089582346 -55.364801665,-20.539710587 -54.832831925,-21.194442575 -54.669148928,-21.849174563 -54.832831925,-22.258382055 -56.265058148,-23.404163034 -57.574522124,-25.491121244 -58.155557098,-26.764054594 -58.648504296,-27.184509558 -58.60017614,-27.30532995 -58.155557098,-27.247336162 -57.019845414,-27.508308208 -56.367415298,-27.426150342 -56.075823189,-27.648501794 -56.309323382,-28.184178707 -57.345483969,-29.183982782 -59.036061769,-30.274678136 -59.454161654,-30.365569416 -60.981135151,-32.474247101 -62.460387548,-33.360163768 -62.599870703,-33.006806439 -62.209317867,-32.40237943 -61.948949309,-31.267916429 -61.683529753,-28.429394351 " />
		  </g>
		</svg>