<?xml version="1.0" encoding="UTF-8"?>
	<svg xmlns:xlink="http://www.w3.org/1999/xlink" 
	xmlns="http://www.w3.org/2000/svg" 
	width="360px" height="180px">
	   <style type="text/css">
		  <![CDATA[     
		  .region 
		  { 
			fill:blue; 
			opacity:0.4; 
			stroke:blue;
		  }
		  ]]>
	   </style>

	<circle id="dot" x="-2" y="-2" r="2" style="stroke:none; stroke-width:0; fill:black; opacity:0.7;"/>


	 <image x="0" y="0" width="360" height="180" xlink:href="map.jpg"/>

 
	 <g transform="translate(180,90) scale(1,-1)">   <use xlink:href="#dot" transform="translate(14.400907,45.700612)" />   <use xlink:href="#dot" transform="translate(11.339376,45.983552)" />   <use xlink:href="#dot" transform="translate(12.434496,47.698845)" />   <use xlink:href="#dot" transform="translate(10.209974,47.428772)" />   <use xlink:href="#dot" transform="translate(10.994525,47.59618)" />   <use xlink:href="#dot" transform="translate(12.047236,47.425647)" />   <use xlink:href="#dot" transform="translate(13.839123,46.403417)" />   <use xlink:href="#dot" transform="translate(12.285976,47.735802)" />   <use xlink:href="#dot" transform="translate(10.502422,47.611984)" />   <use xlink:href="#dot" transform="translate(7.91088,46.652966)" />   <use xlink:href="#dot" transform="translate(11.721868,47.133869)" />   <use xlink:href="#dot" transform="translate(11.72366,47.154926)" />   <use xlink:href="#dot" transform="translate(12.373507,47.724133)" />   <use xlink:href="#dot" transform="translate(7.403025,46.8046)" />   <use xlink:href="#dot" transform="translate(12.814267,47.747593)" />   <use xlink:href="#dot" transform="translate(10.650129,47.561123)" />   <use xlink:href="#dot" transform="translate(11.65478,47.110439)" />   <use xlink:href="#dot" transform="translate(11.71027,47.16444)" />   <use xlink:href="#dot" transform="translate(10.634637,47.562454)" />   <use xlink:href="#dot" transform="translate(11.209059,47.559238)" />   <use xlink:href="#dot" transform="translate(11.72366,47.154926)" />   <use xlink:href="#dot" transform="translate(10.71815,47.463379)" />   <use xlink:href="#dot" transform="translate(15.76626,47.782799)" />   <use xlink:href="#dot" transform="translate(11.71027,47.16444)" />   <use xlink:href="#dot" transform="translate(11.613321,47.400208)" />   <use xlink:href="#dot" transform="translate(11.320167,47.377242)" />   <use xlink:href="#dot" transform="translate(11.321566,47.377296)" />   <use xlink:href="#dot" transform="translate(8.036979,46.719948)" />   <use xlink:href="#dot" transform="translate(11.820747,46.311085)" />   <use xlink:href="#dot" transform="translate(12.820852,46.973225)" />   <use xlink:href="#dot" transform="translate(6.983852,46.432199)" />   <use xlink:href="#dot" transform="translate(6.983835,46.432496)" />   <use xlink:href="#dot" transform="translate(10.310497,47.54945)" />   <use xlink:href="#dot" transform="translate(10.45711,47.474148)" />   <use xlink:href="#dot" transform="translate(10.156622,47.529499)" />   <use xlink:href="#dot" transform="translate(10.436137,47.456481)" />   <use xlink:href="#dot" transform="translate(11.788898,46.322069)" />   <use xlink:href="#dot" transform="translate(10.22725,47.404099)" />   <use xlink:href="#dot" transform="translate(10.303888,47.474636)" />   <use xlink:href="#dot" transform="translate(15.179672,47.570042)" />   <use xlink:href="#dot" transform="translate(14.986725,45.234992)" />   <use xlink:href="#dot" transform="translate(15.179672,47.570042)" />   <use xlink:href="#dot" transform="translate(9.846846,47.054893)" />   <use xlink:href="#dot" transform="translate(8.255697,46.979797)" />   <use xlink:href="#dot" transform="translate(12.428191,46.098234)" />   <use xlink:href="#dot" transform="translate(13.693385,47.79932)" />   <use xlink:href="#dot" transform="translate(12.285976,47.735802)" />   <use xlink:href="#dot" transform="translate(11.279612,47.383705)" />   <use xlink:href="#dot" transform="translate(9.426098,46.61705)" />   <use xlink:href="#dot" transform="translate(8.045517,46.610875)" />   <use xlink:href="#dot" transform="translate(8.010967,46.598328)" />   <use xlink:href="#dot" transform="translate(12.204394,46.221191)" />   <use xlink:href="#dot" transform="translate(11.061172,47.445736)" />   <use xlink:href="#dot" transform="translate(11.655722,47.442543)" />   <use xlink:href="#dot" transform="translate(10.243872,47.390652)" />   <use xlink:href="#dot" transform="translate(11.046066,47.463146)" />   <use xlink:href="#dot" transform="translate(11.050937,47.439297)" />   <use xlink:href="#dot" transform="translate(10.479841,47.514301)" />   <use xlink:href="#dot" transform="translate(11.299773,47.443356)" />   <use xlink:href="#dot" transform="translate(11.540292,47.574142)" />   <use xlink:href="#dot" transform="translate(10.040501,47.574135)" />   <use xlink:href="#dot" transform="translate(10.209974,47.428772)" />   <use xlink:href="#dot" transform="translate(11.409492,47.039257)" />   <use xlink:href="#dot" transform="translate(10.302773,47.5252)" />   <use xlink:href="#dot" transform="translate(11.295962,47.430149)" />   <use xlink:href="#dot" transform="translate(12.189589,47.31596)" />   <use xlink:href="#dot" transform="translate(10.230091,47.392246)" />   <use xlink:href="#dot" transform="translate(10.310497,47.54945)" />   <use xlink:href="#dot" transform="translate(11.650143,47.454327)" />   <use xlink:href="#dot" transform="translate(13.615231,47.459766)" />   <use xlink:href="#dot" transform="translate(12.563283,47.763618)" />   <use xlink:href="#dot" transform="translate(10.282688,47.486935)" />   <use xlink:href="#dot" transform="translate(10.249006,47.42638)" />   <use xlink:href="#dot" transform="translate(12.391849,47.753464)" />   <use xlink:href="#dot" transform="translate(11.299773,47.443356)" />   <use xlink:href="#dot" transform="translate(12.510262,47.750175)" />   <use xlink:href="#dot" transform="translate(10.486429,47.448696)" />   <use xlink:href="#dot" transform="translate(12.285976,47.735802)" />   <use xlink:href="#dot" transform="translate(12.313356,47.010284)" />   <use xlink:href="#dot" transform="translate(12.496498,47.118999)" />   <use xlink:href="#dot" transform="translate(10.209974,47.428772)" />   <use xlink:href="#dot" transform="translate(10.342383,47.483799)" />   <use xlink:href="#dot" transform="translate(11.409492,47.039257)" />   <use xlink:href="#dot" transform="translate(10.310497,47.54945)" />   <use xlink:href="#dot" transform="translate(10.412292,47.421001)" />   <use xlink:href="#dot" transform="translate(11.409492,47.039257)" />   <use xlink:href="#dot" transform="translate(10.365257,47.504448)" />   <use xlink:href="#dot" transform="translate(10.35676,47.485367)" />   <use xlink:href="#dot" transform="translate(10.257454,47.493023)" />   <use xlink:href="#dot" transform="translate(11.574244,47.348427)" />   <use xlink:href="#dot" transform="translate(10.300541,47.449566)" />   <use xlink:href="#dot" transform="translate(11.956899,47.674133)" />   <use xlink:href="#dot" transform="translate(7.907238,46.589659)" />   <use xlink:href="#dot" transform="translate(11.574244,47.348427)" />   <use xlink:href="#dot" transform="translate(10.402117,47.459557)" />   <use xlink:href="#dot" transform="translate(11.423206,47.656138)" />   <use xlink:href="#dot" transform="translate(10.129652,47.457691)" />   <use xlink:href="#dot" transform="translate(11.656286,47.453987)" />   <use xlink:href="#dot" transform="translate(10.109181,47.654995)" />   <use xlink:href="#dot" transform="translate(10.297898,47.493465)" />   <use xlink:href="#dot" transform="translate(11.563797,47.402531)" />   <use xlink:href="#dot" transform="translate(10.234108,47.597481)" />   <use xlink:href="#dot" transform="translate(10.779463,47.582481)" />   <use xlink:href="#dot" transform="translate(11.71027,47.16444)" />   <use xlink:href="#dot" transform="translate(11.279612,47.383705)" />   <use xlink:href="#dot" transform="translate(14.366464,47.770565)" />   <use xlink:href="#dot" transform="translate(11.851657,46.511168)" />   <use xlink:href="#dot" transform="translate(10.636139,47.570969)" />   <use xlink:href="#dot" transform="translate(10.209974,47.428772)" />   <use xlink:href="#dot" transform="translate(11.613321,47.400208)" />   <use xlink:href="#dot" transform="translate(10.418833,47.473518)" />   <use xlink:href="#dot" transform="translate(11.409492,47.039257)" />   <use xlink:href="#dot" transform="translate(10.672874,47.150734)" />   <use xlink:href="#dot" transform="translate(10.939338,47.578106)" />   <use xlink:href="#dot" transform="translate(10.999374,47.554054)" />   <use xlink:href="#dot" transform="translate(10.581207,47.423443)" />   <use xlink:href="#dot" transform="translate(12.328548,47.708492)" />   <use xlink:href="#dot" transform="translate(11.689711,47.399498)" />   <use xlink:href="#dot" transform="translate(12.189408,47.125851)" />   <use xlink:href="#dot" transform="translate(11.299773,47.443356)" />   <use xlink:href="#dot" transform="translate(12.189408,47.125851)" />   <use xlink:href="#dot" transform="translate(12.189408,47.125851)" />   <use xlink:href="#dot" transform="translate(12.189408,47.125851)" />   <use xlink:href="#dot" transform="translate(12.189408,47.125851)" />   <use xlink:href="#dot" transform="translate(12.189408,47.125851)" />   <use xlink:href="#dot" transform="translate(12.953743,47.503422)" />   <use xlink:href="#dot" transform="translate(10.363036,47.235455)" />   <use xlink:href="#dot" transform="translate(10.387368,47.055679)" />   <use xlink:href="#dot" transform="translate(10.379033,47.513172)" />   <use xlink:href="#dot" transform="translate(11.707649,47.455719)" />   <use xlink:href="#dot" transform="translate(11.700096,47.422398)" />   <use xlink:href="#dot" transform="translate(10.310497,47.54945)" />   <use xlink:href="#dot" transform="translate(10.365257,47.504448)" />   <use xlink:href="#dot" transform="translate(12.954941,46.601807)" />   <use xlink:href="#dot" transform="translate(11.630917,47.421001)" />   <use xlink:href="#dot" transform="translate(14.749403,46.516113)" />   <use xlink:href="#dot" transform="translate(11.490326,47.463455)" />   <use xlink:href="#dot" transform="translate(11.025885,47.541492)" />   <use xlink:href="#dot" transform="translate(11.027494,47.547634)" />   <use xlink:href="#dot" transform="translate(8.205585,46.658272)" />   <use xlink:href="#dot" transform="translate(10.290468,47.374157)" />   <use xlink:href="#dot" transform="translate(11.762,47.564999)" />   <use xlink:href="#dot" transform="translate(11.892014,47.606163)" />   <use xlink:href="#dot" transform="translate(10.310497,47.54945)" />   <use xlink:href="#dot" transform="translate(10.805054,47.468948)" />   <use xlink:href="#dot" transform="translate(10.805054,47.468948)" />   <use xlink:href="#dot" transform="translate(8.023527,46.734324)" />   <use xlink:href="#dot" transform="translate(10.361326,47.42524)" />   <use xlink:href="#dot" transform="translate(10.207147,47.324165)" />   <use xlink:href="#dot" transform="translate(12.934685,47.548264)" />   <use xlink:href="#dot" transform="translate(10.349741,47.378895)" />   <use xlink:href="#dot" transform="translate(11.844,47.627998)" />   <use xlink:href="#dot" transform="translate(10.063648,47.476723)" />   <use xlink:href="#dot" transform="translate(10.411949,47.478233)" />   <use xlink:href="#dot" transform="translate(10.412292,47.421001)" />   <use xlink:href="#dot" transform="translate(7.871644,46.550007)" />   <use xlink:href="#dot" transform="translate(10.332212,47.491689)" />   <use xlink:href="#dot" transform="translate(11.046066,47.463146)" />   <use xlink:href="#dot" transform="translate(10.431519,47.493546)" />   <use xlink:href="#dot" transform="translate(13.789043,46.380451)" />   <use xlink:href="#dot" transform="translate(10.207147,47.324165)" />   <use xlink:href="#dot" transform="translate(10.411949,47.478233)" />   <use xlink:href="#dot" transform="translate(10.22501,47.483685)" />   <use xlink:href="#dot" transform="translate(10.232204,47.270523)" />   <use xlink:href="#dot" transform="translate(11.550804,47.223934)" />   <use xlink:href="#dot" transform="translate(8.253036,47.092767)" />   <use xlink:href="#dot" transform="translate(11.354027,47.480785)" />   <use xlink:href="#dot" transform="translate(12.273788,47.607552)" />   <use xlink:href="#dot" transform="translate(11.089763,47.498148)" />   <use xlink:href="#dot" transform="translate(9.99052,47.162174)" />   <use xlink:href="#dot" transform="translate(10.012756,47.827775)" />   <use xlink:href="#dot" transform="translate(10.206642,47.285053)" />   <use xlink:href="#dot" transform="translate(12.068143,46.946686)" />   <use xlink:href="#dot" transform="translate(10.231423,47.316677)" />   <use xlink:href="#dot" transform="translate(12.625,47.04167)" />   <use xlink:href="#dot" transform="translate(12.625,47.04167)" />   <use xlink:href="#dot" transform="translate(12.625,47.04167)" />   <use xlink:href="#dot" transform="translate(12.625,47.04167)" />   <use xlink:href="#dot" transform="translate(12.625,47.04167)" />   <use xlink:href="#dot" transform="translate(12.625,47.04167)" />   <use xlink:href="#dot" transform="translate(12.625,47.04167)" />   <use xlink:href="#dot" transform="translate(12.625,47.04167)" />   <use xlink:href="#dot" transform="translate(12.625,47.04167)" />   <use xlink:href="#dot" transform="translate(12.625,47.04167)" />   <use xlink:href="#dot" transform="translate(12.625,47.04167)" />   <use xlink:href="#dot" transform="translate(12.625,47.04167)" />   <use xlink:href="#dot" transform="translate(12.625,47.04167)" />   <use xlink:href="#dot" transform="translate(8.765803,46.974668)" />   <use xlink:href="#dot" transform="translate(8.765803,46.974668)" />   <use xlink:href="#dot" transform="translate(10.65,47.25833)" />   <use xlink:href="#dot" transform="translate(10.65,47.25833)" />   <use xlink:href="#dot" transform="translate(10.65,47.25833)" />   <use xlink:href="#dot" transform="translate(7.6833,46.5)" />   <use xlink:href="#dot" transform="translate(7.6833,46.5)" />   <use xlink:href="#dot" transform="translate(7.6833,46.5)" />   <use xlink:href="#dot" transform="translate(7.6833,46.5)" />   <use xlink:href="#dot" transform="translate(7.6833,46.5)" />   <use xlink:href="#dot" transform="translate(7.6833,46.5)" />   <use xlink:href="#dot" transform="translate(7.6833,46.5)" />   <use xlink:href="#dot" transform="translate(7.6833,46.5)" />   <use xlink:href="#dot" transform="translate(7.6833,46.5)" />   <use xlink:href="#dot" transform="translate(7.6833,46.5)" />   <use xlink:href="#dot" transform="translate(7.6833,46.5)" />   <use xlink:href="#dot" transform="translate(7.6833,46.5)" />   <use xlink:href="#dot" transform="translate(7.6833,46.5)" />   <use xlink:href="#dot" transform="translate(7.6833,46.5)" />   <use xlink:href="#dot" transform="translate(10.290468,47.374157)" />   <use xlink:href="#dot" transform="translate(9.650502,47.091541)" />   <use xlink:href="#dot" transform="translate(10.883333,47.4)" />   <use xlink:href="#dot" transform="translate(18.33333,43.16667)" />   <use xlink:href="#dot" transform="translate(18.33333,43.16667)" />   <use xlink:href="#dot" transform="translate(15.716667,47.7)" />   <use xlink:href="#dot" transform="translate(11.483333,47.65)" />   <use xlink:href="#dot" transform="translate(8.05,46.61667)" />   <use xlink:href="#dot" transform="translate(8.05,46.61667)" />   <use xlink:href="#dot" transform="translate(8.05,46.61667)" />   <use xlink:href="#dot" transform="translate(8.05,46.61667)" />   <use xlink:href="#dot" transform="translate(8.05,46.61667)" />   <use xlink:href="#dot" transform="translate(8.05,46.61667)" />   <use xlink:href="#dot" transform="translate(8.05,46.61667)" />   <use xlink:href="#dot" transform="translate(8.05,46.61667)" />   <use xlink:href="#dot" transform="translate(8.05,46.61667)" />   <use xlink:href="#dot" transform="translate(8.05,46.61667)" />   <use xlink:href="#dot" transform="translate(8.05,46.61667)" />   <use xlink:href="#dot" transform="translate(8.05,46.61667)" />   <use xlink:href="#dot" transform="translate(8.05,46.61667)" />   <use xlink:href="#dot" transform="translate(8.05,46.61667)" />   <use xlink:href="#dot" transform="translate(8.05,46.61667)" />   <use xlink:href="#dot" transform="translate(8.05,46.61667)" />   <use xlink:href="#dot" transform="translate(8.05,46.61667)" />   <use xlink:href="#dot" transform="translate(8.05,46.61667)" />   <use xlink:href="#dot" transform="translate(8.05,46.61667)" />   <use xlink:href="#dot" transform="translate(8.05,46.61667)" />   <use xlink:href="#dot" transform="translate(8.05,46.61667)" />   <use xlink:href="#dot" transform="translate(7.566667,46.483333)" />   <use xlink:href="#dot" transform="translate(7.716667,46.6)" />   <use xlink:href="#dot" transform="translate(10.03944,47.69222)" />   <use xlink:href="#dot" transform="translate(10.03944,47.69222)" />   <use xlink:href="#dot" transform="translate(10.03944,47.69222)" />   <use xlink:href="#dot" transform="translate(9.64306,46.75278)" />   <use xlink:href="#dot" transform="translate(9.64306,46.75278)" />   <use xlink:href="#dot" transform="translate(9.64306,46.75278)" />   <use xlink:href="#dot" transform="translate(13.03391,47.60319)" />   <use xlink:href="#dot" transform="translate(13.03391,47.60319)" />   <use xlink:href="#dot" transform="translate(13.03391,47.60319)" />   <use xlink:href="#dot" transform="translate(9.65,46.46667)" />   <use xlink:href="#dot" transform="translate(9.65,46.46667)" />   <use xlink:href="#dot" transform="translate(9.65,46.46667)" />   <use xlink:href="#dot" transform="translate(10.31667,47.55)" />   <use xlink:href="#dot" transform="translate(10.31667,47.55)" />   <use xlink:href="#dot" transform="translate(10.31667,47.55)" />   <use xlink:href="#dot" transform="translate(11.38333,47.25)" />   <use xlink:href="#dot" transform="translate(11.38333,47.25)" />   <use xlink:href="#dot" transform="translate(11.38333,47.25)" />   <use xlink:href="#dot" transform="translate(10.03944,47.69222)" />   <use xlink:href="#dot" transform="translate(10.03944,47.69222)" />   <use xlink:href="#dot" transform="translate(10.03944,47.69222)" />   <use xlink:href="#dot" transform="translate(7.01667,46.25)" />   <use xlink:href="#dot" transform="translate(11.38333,47.25)" />   <use xlink:href="#dot" transform="translate(7.01667,46.25)" />   <use xlink:href="#dot" transform="translate(8.726199,47.108483)" />   <use xlink:href="#dot" transform="translate(7.11667,46.25)" />   <use xlink:href="#dot" transform="translate(-110.450588,30.116825)" />   <use xlink:href="#dot" transform="translate(7.199239,46.360062)" />   <use xlink:href="#dot" transform="translate(7.7,45.0666)" />   <use xlink:href="#dot" transform="translate(8.285645,46.639142)" />   <use xlink:href="#dot" transform="translate(7.91667,46.6)" />   <use xlink:href="#dot" transform="translate(6.95,50.933333)" />   <use xlink:href="#dot" transform="translate(7.91667,46.6)" />   <use xlink:href="#dot" transform="translate(-110.450588,30.116825)" />   <use xlink:href="#dot" transform="translate(7.91667,46.6)" />   <use xlink:href="#dot" transform="translate(8.285645,46.639142)" />   <use xlink:href="#dot" transform="translate(11.38333,47.25)" />   <use xlink:href="#dot" transform="translate(13.905994,48.138986)" /><polygon class="region" points="18.33333,43.16667 -110.450588,30.116825 6.95,50.933333 15.76626,47.782799 18.33333,43.16667 " />
		  </g>
		</svg>