<?xml version="1.0" encoding="UTF-8"?>
	<svg xmlns:xlink="http://www.w3.org/1999/xlink" 
	xmlns="http://www.w3.org/2000/svg" 
	width="360px" height="180px">
	   <style type="text/css">
		  <![CDATA[     
		  .region 
		  { 
			fill:blue; 
			opacity:0.4; 
			stroke:blue;
		  }
		  ]]>
	   </style>

	<circle id="dot" x="-2" y="-2" r="2" style="stroke:none; stroke-width:0; fill:black; opacity:0.7;"/>


	 <image x="0" y="0" width="360" height="180" xlink:href="map.jpg"/>

 
	 <g transform="translate(180,90) scale(1,-1)"><polygon class="region" points="-56.539761436,-16.846157989 -55.144222778,-16.744045404 -49.937141288,-17.243354588 -45.80000805,-17.956653422 -43.303462131,-20.025220041 -45.37202875,-21.237828059 -48.795863154,-22.236446427 -50.772382163,-24.636505224 -51.263382015,-24.763801482 -52.218911594,-25.503566317 -53.651913636,-26.936568359 -53.94841147,-25.633792795 -54.505191767,-25.540996079 -54.727903886,-25.782267541 -54.820700602,-26.617437987 -55.284684183,-27.081421568 -55.284684183,-27.452608433 -55.229006153,-27.768117268 -54.356717021,-27.43404909 -53.961095658,-27.667542178 -53.998686581,-29.165616368 -55.352526803,-31.038196175 -55.77458862,-31.025124225 -56.333585087,-30.497183117 -56.64413868,-30.512710797 -57.367063268,-31.57580267 -57.929830555,-32.77276457 -58.431755066,-33.093006134 -58.555839539,-33.722229004 -58.370452881,-34.112327576 -58.548980713,-34.435783386 -57.257461909,-35.243198284 -57.465552933,-35.451289309 -57.751262239,-35.451289309 -58.715531145,-35.165580003 -59.965509356,-34.272738423 -61.322628558,-32.66562358 -62.644034096,-32.594196254 -63.536875675,-32.237059622 -63.715443991,-31.951350316 -64.001153297,-30.272808146 -64.786853887,-29.272825577 -64.901870667,-23.563211845 -63.608303002,-21.951524624 -62.536893106,-21.522960665 -62.309799304,-21.244254636 -62.082442726,-20.448506612 -61.589266169,-19.770388846 -61.558442634,-19.27721229 -62.2365604,-18.167565037 -63.469501791,-16.934623646 -66.336090526,-15.054388024 -67.1991495,-14.006387841 -66.952561222,-13.235799471 -66.521031735,-12.619328776 -65.935384574,-12.434387567 -65.411384483,-12.557681706 -64.394207835,-13.112505332 -60.849501334,-13.944740772 -60.541265986,-14.12968198 -60.294677708,-14.776976211 -60.171383569,-16.256505881 -58.321971482,-16.287329415 -56.539761436,-16.846157989 " />
		  </g>
		</svg>