<?xml version="1.0" encoding="UTF-8"?>
	<svg xmlns:xlink="http://www.w3.org/1999/xlink" 
	xmlns="http://www.w3.org/2000/svg" 
	width="360px" height="180px">
	   <style type="text/css">
		  <![CDATA[     
		  .region 
		  { 
			fill:blue; 
			opacity:0.4; 
			stroke:blue;
		  }
		  ]]>
	   </style>

	<circle id="dot" x="-2" y="-2" r="2" style="stroke:none; stroke-width:0; fill:black; opacity:0.7;"/>


	 <image x="0" y="0" width="360" height="180" xlink:href="map.jpg"/>

 
	 <g transform="translate(180,90) scale(1,-1)"><polygon class="region" points="135.383348764,-3.958329915 135.525015438,-3.974996582 135.425015433,-4.016663251 135.383348764,-3.9916632499999 135.333348762,-4.0666632539999 135.600015442,-4.0666632539999 135.366682097,-4.1499965909999 135.508348771,-4.208329928 135.825015454,-4.233329929 135.75001545,-4.049996586 135.866682123,-3.9833299159999 135.958348794,-4.1749965929999 136.541682158,-4.0583299199999 136.7000155,-4.199996594 136.691682166,-4.0749965869999 136.7000155,-4.0749965869999 137.650015549,-4.424996606 137.605446659,-4.254605768 137.641682215,-4.208329928 137.758348888,-4.4166632719999 137.825015558,-4.216663261 137.908348896,-4.424996606 137.975015566,-4.2583299299999 138.150015575,-4.3749966029999 138.187515577,-4.250093235 138.416682256,-4.474996608 138.441682257,-4.3249966 138.841682278,-4.599996615 139.283348968,-4.599996615 139.025015621,-4.3749966029999 139.033348955,-4.3416632679999 139.341682304,-4.5833299469999 139.600015651,-4.4999966099999 139.741682325,-4.783329958 139.966682337,-4.69999662 139.958349003,-4.858329962 140.175015681,-4.949996633 140.208349016,-4.749996623 140.466682363,-5.14166331 140.741682377,-4.8833299629999 141.083349062,-5.216663314 141.216682402,-5.14166331 141.858349102,-5.483329994 141.791682432,-5.291663317 141.950015774,-5.333329986 141.966682441,-5.449996659 142.066682446,-5.2666633159999 142.283349124,-5.2666633159999 142.080490634,-5.1541633099999 142.116682449,-5.058329972 142.408349131,-5.174996645 142.233349122,-5.0083299689999 142.350015794,-5.016663303 142.550015805,-5.224996647 142.508349136,-5.016663303 142.658349144,-5.016663303 142.858349154,-5.091663307 142.858349154,-5.249996649 143.133349169,-5.20832998 143.191682505,-5.2749966499999 142.933349158,-5.374996655 142.666682478,-5.133329976 142.78334915,-5.34166332 142.608349141,-5.2666633159999 142.584809915,-5.427159337 142.350015794,-5.20832998 142.520615169,-5.4384640659999 142.175015785,-5.358329988 142.091682448,-5.4749966599999 142.216682454,-5.4249966579999 142.183349119,-5.641663336 142.658349144,-5.958330019 142.675015811,-6.1749966969999 143.058349165,-6.29166337 142.88888301,-6.161031852 142.779746041,-5.911436706 143.141682502,-6.299996703 143.316835099,-6.229373938 143.60001586,-6.466663379 143.641682528,-6.3166633709999 143.725015866,-6.5166633809999 144.166682556,-6.5999967189999 144.124576434,-5.982359561 144.266682561,-6.158330029 144.66309168,-6.1917569519999 144.633349247,-6.3333300379999 144.800015922,-6.233330033 145.158349274,-6.4083300419999 145.033349268,-6.2833300359999 145.041682601,-6.191663364 145.216682611,-6.458330045 144.933349262,-6.3999967089999 144.88334926,-6.4499967109999 144.983349265,-6.6333300539999 145.216682611,-6.6333300539999 145.208349277,-6.808330063 145.294915443,-6.704926331 145.350015951,-6.858330066 145.39168262,-6.649996722 145.52501596,-6.7999967289999 145.683349302,-6.549996716 145.925015981,-6.616663387 145.45834929,-6.9499967369999 145.666682634,-6.9166634019999 145.650015966,-7.124996746 145.758349305,-7.041663409 145.675015968,-7.224996752 145.866682644,-7.599996771 145.864342963,-7.3708300929999 146.011358352,-7.092579956 146.158349326,-7.016663407 146.050015987,-6.9166634019999 146.258349332,-6.758330061 146.083349322,-6.758330061 146.133349325,-6.42499671 146.008064488,-6.387020634 146.091682656,-6.233330033 145.986639112,-6.372062951 145.808349308,-6.0499966899999 145.300015948,-5.883330015 144.991682599,-5.5749966659999 144.81668259,-5.6999966719999 144.650015914,-5.5749966659999 144.634179325,-5.678106412 144.491682573,-5.674996671 144.125015887,-5.416663324 144.233296329,-5.6003720329999 144.016682548,-5.491663328 144.01850343,-5.5360236819999 143.983349213,-5.599996667 143.958349212,-5.608330001 143.93334921,-5.3083299849999 144.158349222,-5.291663317 144.016682548,-5.2749966499999 143.891682541,-5.0416633039999 143.803051352,-5.2842902699999 143.60001586,-5.058329972 143.491682521,-5.166663311 143.375015848,-5.133329976 143.541682523,-5.058329972 143.525015856,-4.9916633019999 143.233349174,-4.908329964 142.941682492,-5.0499966379999 142.616682475,-4.974996634 142.666682478,-4.874996629 142.550015805,-4.9666633009999 142.416682465,-4.9249966319999 142.400015797,-4.983329968 142.300015792,-4.8416632939999 141.800015766,-4.891663297 141.658349092,-4.741663289 141.705549615,-4.9388638199999 141.50001575,-4.9583299669999 141.666682425,-5.024996637 141.533349085,-5.016663303 141.650878388,-5.194399722 141.43334908,-5.1249966419999 141.533349085,-5.0833299729999 141.425015746,-4.9333299649999 140.750015711,-4.716663287 140.900015719,-4.683329952 140.591682369,-4.349996602 140.450015695,-4.441663273 140.264593933,-4.058628992 140.070932424,-4.125779875 140.225403257,-4.337682758 140.125015678,-4.4499966069999 139.825015663,-4.2999965989999 139.883348999,-3.941663247 139.716682324,-4.1833299259999 139.600015651,-4.0333299189999 139.441682309,-4.241663263 139.241682299,-4.199996594 139.475015644,-3.9083299119999 139.2666823,-3.9833299159999 139.275015634,-3.824996574 139.121611899,-3.866893142 139.183348963,-3.733329903 138.683348936,-3.691663234 139.06668229,-3.499996557 138.271319903,-3.254624027 138.463965177,-3.6709987639999 137.791682223,-3.341663216 137.350015534,-3.491663224 137.633348882,-3.7083299019999 137.250015528,-3.7249965689999 137.225015527,-3.474996556 136.933348845,-3.54999656 136.925015511,-3.3999965519999 136.637976312,-3.35631674 139.329381245,-2.7641847749999 141.06161499,-2.6091389659999 142.536468506,-3.2353055479999 143.513473511,-3.441194534 144.086868286,-3.835333347 144.529006958,-3.8183889389999 144.483215332,-3.9863610269999 145.322021484,-4.382333279 145.80480957,-4.8493056299999 145.732894897,-5.422888756 145.987884521,-5.4693889619999 146.043789684,-5.6999966719999 145.758349305,-5.7416633409999 146.11822485,-5.949996685 146.479477263,-7.116663413 146.058349321,-7.124996746 145.933349315,-7.3666634259999 146.108349324,-7.5333301009999 146.305088022,-7.311359468 146.586293848,-7.541663435 146.866963847,-9.0203341869999 146.596923828,-8.999638557 146.620742798,-8.791722298 146.282058716,-8.309082985 145.813034058,-7.902583122 144.863494873,-7.778999805 144.928085327,-7.6195554729999 144.810501099,-7.5580554009999 144.829940796,-7.6351389879999 144.785079956,-7.6842498779999 144.645782471,-7.5247778889999 144.598388672,-7.651444435 144.532867432,-7.5460557939999 144.559921265,-7.4738335609999 144.519271851,-7.430805683 144.543548584,-7.682888985 144.513671875,-7.6816387179999 144.46383667,-7.5772500039999 144.465911865,-7.599583149 144.438476562,-7.579027653 144.429748535,-7.5278334619999 144.390396118,-7.4867777819999 144.515777588,-7.8047223089999 144.273162842,-7.572472095 144.115890503,-7.7866110799999 143.820281982,-7.6494998929999 143.761688232,-7.5244998929999 143.644699097,-7.4696946139999 143.69468689,-7.432111263 143.692886353,-7.3712501529999 143.680664062,-7.3593335149999 143.636276245,-7.3566942209999 143.645645142,-7.329333305 143.632659912,-7.299499989 143.570251465,-7.2642779349999 143.542831421,-7.27038908 143.503387451,-7.3011665339999 143.585449219,-7.2729721069999 143.639083862,-7.367249966 143.682525635,-7.367833138 143.626281738,-7.4587221149999 143.922058105,-8.003694534 143.77041626,-7.882027626 143.871200562,-8.0485277179999 143.493530273,-8.0015277859999 143.339828491,-7.8294167519999 143.244857788,-7.846611023 143.611419678,-8.236416817 142.974197388,-8.341666222 142.677078247,-8.268472672 142.446777344,-8.3174161909999 142.352798462,-8.1506662369999 142.152938843,-8.2237501139999 142.361862183,-8.182499886 142.456283569,-8.3698329929999 143.108978271,-8.455361366 143.394729614,-8.744222641 143.407775879,-8.9820833209999 142.911201233,-9.183282715 139.691154389,-6.656364809 138.246115139,-5.870243086 138.3959198,-5.8280835149999 138.405227661,-5.7310833929999 138.427078247,-5.757527828 138.459854126,-5.771999836 138.407104492,-5.700222015 138.33505249,-5.83544445 138.165893555,-5.782805443 138.212646484,-5.6688890459999 138.061187744,-5.7310833929999 138.176727295,-5.442611217 138.121826172,-5.523833275 138.073410034,-5.529611111 137.87449646,-5.3596668239999 137.993560791,-5.290222168 138.00213623,-5.2651944159999 137.781661987,-5.3396945 137.834640503,-5.2936944959999 137.856781006,-5.2471113199999 137.764358521,-5.311333179 137.824584961,-5.225999832 137.811477661,-5.1732501979999 137.839950562,-5.1690001489999 137.861801147,-5.1408057209999 137.861938477,-5.120500088 137.805969238,-5.1709165569999 137.819549561,-5.219305515 137.754196167,-5.274916649 137.690170288,-5.2274723049999 137.753860474,-5.1327223779999 137.720031738,-5.1102499959999 137.555557251,-5.175305367 137.672561646,-5.10727787 137.552749634,-5.135250092 137.695999146,-4.984499931 137.637771606,-4.887388706 137.505477905,-5.144472122 137.550613403,-4.993500233 137.434112549,-5.1040835379999 137.492248535,-4.9239721299999 137.455474854,-4.8919720649999 137.404754639,-5.106472015 137.437637329,-4.924139023 137.340133667,-5.041722298 137.294937134,-5.000750065 137.369384766,-4.965250015 137.401687622,-4.8885555269999 137.298339844,-4.96488905 137.288894653,-5.0191388129999 137.252975464,-4.9543056489999 137.345581055,-4.8822779659999 137.197113037,-4.9915275569999 137.058364868,-4.809444427 137.063339233,-4.918555737 136.929077148,-4.8989720339999 137.001998901,-4.8519444469999 136.990280151,-4.813694477 136.956497192,-4.8034167289999 136.826828003,-4.9016113279999 136.877441406,-4.7833056449999 136.742446899,-4.8663887979999 135.93560791,-4.489472389 135.205688477,-4.447666645 134.63041687,-4.1111664769999 134.947219849,-3.9142498969999 134.516921997,-4.024861336 134.343719482,-3.864361048 134.318756104,-4.0268335339999 134.124862671,-3.889805555 134.154998779,-3.7370278839999 133.981338501,-3.859750032 133.847366333,-3.5531110759999 133.825531006,-3.718138933 133.632247925,-3.4712221619999 133.709716797,-3.40958333 133.701583862,-3.153138876 133.851837158,-3.017138958 133.929412842,-3.112333298 133.860748291,-2.9120278359999 133.661300659,-3.119583368 133.661590576,-3.390944481 133.419692993,-3.3941388129999 133.590438843,-3.565166712 133.420776367,-3.694722176 133.44732666,-3.596027851 133.441360474,-3.574555635 133.468032837,-3.563527822 133.473632812,-3.525611162 133.349060059,-3.5584445 133.457687378,-3.8640277389999 133.280227661,-3.842250109 133.406921387,-3.9081945419999 133.250106812,-4.069139004 132.899673462,-4.086805344 132.723617554,-3.6400833129999 132.929641724,-3.549777746 132.837051392,-3.296666622 132.65663147,-3.315694332 132.343994141,-2.948361158 131.973358154,-2.934222221 132.055725098,-2.804638863 131.942642212,-2.7816667559999 132.18699646,-2.669222116 132.721557617,-2.813694477 133.237335205,-2.4078333379999 133.395996094,-2.525833368 133.276687622,-2.7039444449999 133.446029663,-2.503777742 133.447860718,-2.677083254 133.48135376,-2.513111115 133.554382324,-2.660833359 133.680557251,-2.5561945439999 133.640029907,-2.809694529 133.70892334,-2.5026388169999 133.751968384,-2.5161387919999 133.805526733,-2.6402223109999 133.837051392,-2.6693332199999 133.860061646,-2.391305447 134.02897644,-2.4693889619999 134.051467896,-2.3292500969999 133.86517334,-2.330388784 133.986419678,-2.08355546 133.644393921,-2.231916666 132.303939819,-2.2909722329999 132.040664673,-2.0854721069999 132.226715088,-1.961472273 132.016494751,-2.0226387979999 131.918838501,-1.8696389199999 132.129272461,-1.6080278159999 131.907104492,-1.715194464 131.880081177,-1.633972168 131.982772827,-1.5524166819999 131.986495972,-1.4248055219999 131.800720215,-1.6151388879999 131.698364258,-1.3877222539999 131.526809692,-1.482972264 131.558197021,-1.3887777329999 131.540222168,-1.3601388929999 131.582473755,-1.360805511 131.585998535,-1.34263885 131.53024292,-1.355861068 131.447998047,-1.517666698 131.431167603,-1.4115555289999 131.299255371,-1.3373610969999 131.281311035,-1.511000037 130.979157913,-1.456602135 131.244415283,-1.08988893 131.226501465,-0.82805556099993 131.83190918,-0.70947223899998 132.419189453,-0.34325000599995 132.961715698,-0.43994444599997 133.420196533,-0.73600000099998 133.995300293,-0.72352778899994 134.290939331,-1.354138851 134.089752197,-1.6639722589999 134.136077881,-2.2111389639999 134.464035034,-2.8575556279999 134.483108521,-2.529138803 134.64100647,-2.479611158 134.695968628,-2.9665277 134.862716675,-2.8902778629999 134.811340332,-3.1345276829999 134.989059448,-3.3205277919999 136.291682145,-3.32095512 136.108348802,-3.4416632209999 136.537281523,-3.6658718099999 136.041682132,-3.4499965549999 136.066682133,-3.649996565 136.310021176,-3.705952582 136.208348807,-3.824996574 135.975015462,-3.8749965769999 135.941682127,-3.583329895 135.775015451,-3.7999965729999 135.375015431,-3.7916632389999 135.466682102,-3.8749965769999 135.383348764,-3.958329915 " /><polygon class="region" points="146.616682684,-8.166663467 146.625016017,-8.166663467 146.625016017,-8.1583301339999 146.616682684,-8.1583301339999 146.616682684,-8.166663467 " /><polygon class="region" points="132.750015294,-1.2333297719999 132.758348627,-1.2333297719999 132.758348627,-1.2249964389999 132.750015294,-1.2249964389999 132.750015294,-1.2333297719999 " /><polygon class="region" points="141.158349066,-4.791663291 141.166682399,-4.791663291 141.166682399,-4.783329958 141.158349066,-4.783329958 141.158349066,-4.791663291 " /><polygon class="region" points="146.791682693,-8.4583301489999 146.800016026,-8.4583301489999 146.800016026,-8.449996816 146.791682693,-8.449996816 146.791682693,-8.4583301489999 " /><polygon class="region" points="141.733349096,-5.483329994 141.741682429,-5.483329994 141.741682429,-5.4749966599999 141.733349096,-5.4749966599999 141.733349096,-5.483329994 " /><polygon class="region" points="146.416682673,-7.0583300759999 146.425016007,-7.0583300759999 146.425016007,-7.049996743 146.416682673,-7.049996743 146.416682673,-7.0583300759999 " /><polygon class="region" points="146.416682673,-7.5249967669999 146.425016007,-7.5249967669999 146.425016007,-7.516663434 146.416682673,-7.516663434 146.416682673,-7.5249967669999 " /><polygon class="region" points="142.500015802,-4.9333299649999 142.508349136,-4.9333299649999 142.508349136,-4.9249966319999 142.500015802,-4.9249966319999 142.500015802,-4.9333299649999 " /><polygon class="region" points="132.500015281,-0.63332974099995 132.508348614,-0.63332974099995 132.508348614,-0.62499640699997 132.500015281,-0.62499640699997 132.500015281,-0.63332974099995 " /><polygon class="region" points="141.558349086,-5.5083299949999 141.56668242,-5.5083299949999 141.56668242,-5.4999966619999 141.558349086,-5.4999966619999 141.558349086,-5.5083299949999 " /><polygon class="region" points="132.866681966,-1.166663102 132.8750153,-1.166663102 132.8750153,-1.158329769 132.866681966,-1.158329769 132.866681966,-1.166663102 " /><polygon class="region" points="143.708349199,-6.7833300619999 143.716682532,-6.7833300619999 143.716682532,-6.774996728 143.708349199,-6.774996728 143.708349199,-6.7833300619999 " /><polygon class="region" points="145.358349285,-4.816663293 145.366682618,-4.816663293 145.366682618,-4.8083299589999 145.358349285,-4.8083299589999 145.358349285,-4.816663293 " /><polygon class="region" points="141.175015733,-3.2083298749999 141.183349067,-3.2083298749999 141.183349067,-3.199996542 141.175015733,-3.199996542 141.175015733,-3.2083298749999 " /><polygon class="region" points="141.658349092,-5.558329998 141.666682425,-5.558329998 141.666682425,-5.5499966639999 141.658349092,-5.5499966639999 141.658349092,-5.558329998 " /><polygon class="region" points="143.80001587,-4.9333299649999 143.808349204,-4.9333299649999 143.808349204,-4.9249966319999 143.80001587,-4.9249966319999 143.80001587,-4.9333299649999 " /><polygon class="region" points="146.075015989,-6.0416633569999 146.083349322,-6.0416633569999 146.083349322,-6.033330023 146.075015989,-6.033330023 146.075015989,-6.0416633569999 " /><polygon class="region" points="140.075015676,-4.358329935 140.08334901,-4.358329935 140.08334901,-4.349996602 140.075015676,-4.349996602 140.075015676,-4.358329935 " /><polygon class="region" points="142.541682471,-4.9333299649999 142.550015805,-4.9333299649999 142.550015805,-4.9249966319999 142.541682471,-4.9249966319999 142.541682471,-4.9333299649999 " /><polygon class="region" points="145.716682637,-5.749996675 145.72501597,-5.749996675 145.72501597,-5.7416633409999 145.716682637,-5.7416633409999 145.716682637,-5.749996675 " /><polygon class="region" points="142.350015794,-5.366663321 142.358349128,-5.366663321 142.358349128,-5.358329988 142.350015794,-5.358329988 142.350015794,-5.366663321 " /><polygon class="region" points="144.566682577,-5.633330002 144.57501591,-5.633330002 144.57501591,-5.6249966679999 144.566682577,-5.6249966679999 144.566682577,-5.633330002 " /><polygon class="region" points="135.191682088,-3.6833298999999 135.200015421,-3.6833298999999 135.200015421,-3.6749965659999 135.191682088,-3.6749965659999 135.191682088,-3.6833298999999 " /><polygon class="region" points="139.675015655,-3.9999965829999 139.683348989,-3.9999965829999 139.683348989,-3.9916632499999 139.675015655,-3.9916632499999 139.675015655,-3.9999965829999 " /><polygon class="region" points="137.816682225,-4.2999965989999 137.825015558,-4.2999965989999 137.825015558,-4.291663265 137.816682225,-4.291663265 137.816682225,-4.2999965989999 " /><polygon class="region" points="145.250015946,-4.666663285 145.258349279,-4.666663285 145.258349279,-4.6583299509999 145.250015946,-4.6583299509999 145.250015946,-4.666663285 " /><polygon class="region" points="142.316682459,-5.299996651 142.325015793,-5.299996651 142.325015793,-5.291663317 142.316682459,-5.291663317 142.316682459,-5.299996651 " /><polygon class="region" points="135.466682102,-3.9833299159999 135.475015436,-3.9833299159999 135.475015436,-3.974996582 135.466682102,-3.974996582 135.466682102,-3.9833299159999 " /><polygon class="region" points="145.291682614,-4.7666632899999 145.300015948,-4.7666632899999 145.300015948,-4.758329956 145.291682614,-4.758329956 145.291682614,-4.7666632899999 " /><polygon class="region" points="136.575015493,-4.1749965929999 136.583348827,-4.1749965929999 136.583348827,-4.166663259 136.575015493,-4.166663259 136.575015493,-4.1749965929999 " /><polygon class="region" points="135.30834876,-4.016663251 135.316682094,-4.016663251 135.316682094,-4.008329917 135.30834876,-4.008329917 135.30834876,-4.016663251 " /><polygon class="region" points="138.433348923,-4.4916632759999 138.441682257,-4.4916632759999 138.441682257,-4.483329942 138.433348923,-4.483329942 138.433348923,-4.4916632759999 " /><polygon class="region" points="144.758349253,-6.758330061 144.766682587,-6.758330061 144.766682587,-6.7499967269999 144.758349253,-6.7499967269999 144.758349253,-6.758330061 " /><polygon class="region" points="144.658349248,-6.9749967389999 144.666682582,-6.9749967389999 144.666682582,-6.966663405 144.658349248,-6.966663405 144.658349248,-6.9749967389999 " /><polygon class="region" points="145.366682618,-6.8666633999999 145.375015952,-6.8666633999999 145.375015952,-6.858330066 145.366682618,-6.858330066 145.366682618,-6.8666633999999 " /><polygon class="region" points="139.833348996,-3.816663241 139.84168233,-3.816663241 139.84168233,-3.808329907 139.833348996,-3.808329907 139.833348996,-3.816663241 " /><polygon class="region" points="139.84168233,-3.8333299079999 139.850015664,-3.8333299079999 139.850015664,-3.824996574 139.84168233,-3.824996574 139.84168233,-3.8333299079999 " /><polygon class="region" points="145.425015955,-7.041663409 145.433349289,-7.041663409 145.433349289,-7.033330075 145.425015955,-7.033330075 145.425015955,-7.041663409 " /><polygon class="region" points="139.950015669,-4.1916632599999 139.958349003,-4.1916632599999 139.958349003,-4.1833299259999 139.950015669,-4.1833299259999 139.950015669,-4.1916632599999 " /><polygon class="region" points="144.550015909,-5.091663307 144.558349243,-5.091663307 144.558349243,-5.0833299729999 144.550015909,-5.0833299729999 144.550015909,-5.091663307 " /><polygon class="region" points="145.566682629,-6.808330063 145.575015963,-6.808330063 145.575015963,-6.7999967289999 145.566682629,-6.7999967289999 145.566682629,-6.808330063 " /><polygon class="region" points="145.841682643,-5.641663336 145.850015977,-5.641663336 145.850015977,-5.633330002 145.841682643,-5.633330002 145.841682643,-5.641663336 " /><polygon class="region" points="144.166682556,-5.3166633189999 144.17501589,-5.3166633189999 144.17501589,-5.3083299849999 144.166682556,-5.3083299849999 144.166682556,-5.3166633189999 " /><polygon class="region" points="144.083349218,-5.2333299809999 144.091682552,-5.2333299809999 144.091682552,-5.224996647 144.083349218,-5.224996647 144.083349218,-5.2333299809999 " /><polygon class="region" points="141.025015725,-3.158329873 141.033349059,-3.158329873 141.033349059,-3.149996539 141.025015725,-3.149996539 141.025015725,-3.158329873 " /><polygon class="region" points="141.033349059,-5.2749966499999 141.041682393,-5.2749966499999 141.041682393,-5.2666633159999 141.033349059,-5.2666633159999 141.033349059,-5.2749966499999 " /><polygon class="region" points="141.075015728,-5.2333299809999 141.083349062,-5.2333299809999 141.083349062,-5.224996647 141.075015728,-5.224996647 141.075015728,-5.2333299809999 " /><polygon class="region" points="143.983349213,-5.1083299749999 143.991682547,-5.1083299749999 143.991682547,-5.099996641 143.983349213,-5.099996641 143.983349213,-5.1083299749999 " /><polygon class="region" points="142.258349123,-5.3166633189999 142.266682457,-5.3166633189999 142.266682457,-5.3083299849999 142.258349123,-5.3083299849999 142.258349123,-5.3166633189999 " /><polygon class="region" points="141.091682395,-5.3083299849999 141.100015729,-5.3083299849999 141.100015729,-5.299996651 141.091682395,-5.299996651 141.091682395,-5.3083299849999 " /><polygon class="region" points="143.783349202,-6.7916633959999 143.791682536,-6.7916633959999 143.791682536,-6.7833300619999 143.783349202,-6.7833300619999 143.783349202,-6.7916633959999 " /><polygon class="region" points="144.516682574,-6.6749967229999 144.525015908,-6.6749967229999 144.525015908,-6.666663389 144.516682574,-6.666663389 144.516682574,-6.6749967229999 " /><polygon class="region" points="141.166682399,-4.8083299589999 141.175015733,-4.8083299589999 141.175015733,-4.7999966249999 141.166682399,-4.7999966249999 141.166682399,-4.8083299589999 " /><polygon class="region" points="146.083349322,-7.5749967699999 146.091682656,-7.5749967699999 146.091682656,-7.5666634359999 146.083349322,-7.5666634359999 146.083349322,-7.5749967699999 " /><polygon class="region" points="146.10001599,-6.258330035 146.108349324,-6.258330035 146.108349324,-6.2499967009999 146.10001599,-6.2499967009999 146.10001599,-6.258330035 " /><polygon class="region" points="143.575015858,-4.9999966359999 143.583349192,-4.9999966359999 143.583349192,-4.9916633019999 143.575015858,-4.9916633019999 143.575015858,-4.9999966359999 " /><polygon class="region" points="143.375015848,-4.9916633019999 143.383349182,-4.9916633019999 143.383349182,-4.983329968 143.375015848,-4.983329968 143.375015848,-4.9916633019999 " /><polygon class="region" points="141.383349077,-4.7666632899999 141.391682411,-4.7666632899999 141.391682411,-4.758329956 141.383349077,-4.758329956 141.383349077,-4.7666632899999 " /><polygon class="region" points="142.458349133,-4.9166632979999 142.466682467,-4.9166632979999 142.466682467,-4.908329964 142.458349133,-4.908329964 142.458349133,-4.9166632979999 " /><polygon class="region" points="143.366682514,-6.5249967149999 143.375015848,-6.5249967149999 143.375015848,-6.5166633809999 143.366682514,-6.5166633809999 143.366682514,-6.5249967149999 " /><polygon class="region" points="143.35834918,-4.874996629 143.366682514,-4.874996629 143.366682514,-4.866663295 143.35834918,-4.866663295 143.35834918,-4.874996629 " /><polygon class="region" points="141.475015749,-4.8083299589999 141.483349083,-4.8083299589999 141.483349083,-4.7999966249999 141.475015749,-4.7999966249999 141.475015749,-4.8083299589999 " /><polygon class="region" points="143.35834918,-6.566663384 143.366682514,-6.566663384 143.366682514,-6.5583300499999 143.35834918,-6.5583300499999 143.35834918,-6.566663384 " /><polygon class="region" points="141.491682416,-4.816663293 141.50001575,-4.816663293 141.50001575,-4.8083299589999 141.491682416,-4.8083299589999 141.491682416,-4.816663293 " /><polygon class="region" points="146.341682669,-7.424996762 146.350016003,-7.424996762 146.350016003,-7.4166634279999 146.341682669,-7.4166634279999 146.341682669,-7.424996762 " /><polygon class="region" points="143.341682513,-6.4499967109999 143.350015847,-6.4499967109999 143.350015847,-6.4416633769999 143.341682513,-6.4416633769999 143.341682513,-6.4499967109999 " /><polygon class="region" points="143.125015835,-6.849996732 143.133349169,-6.849996732 143.133349169,-6.841663398 143.125015835,-6.841663398 143.125015835,-6.849996732 " /><polygon class="region" points="141.608349089,-5.5416633309999 141.616682423,-5.5416633309999 141.616682423,-5.533329997 141.608349089,-5.533329997 141.608349089,-5.5416633309999 " /><polygon class="region" points="146.408349339,-7.008330074 146.416682673,-7.008330074 146.416682673,-6.99999674 146.408349339,-6.99999674 146.408349339,-7.008330074 " /><polygon class="region" points="142.800015818,-4.9583299669999 142.808349152,-4.9583299669999 142.808349152,-4.949996633 142.800015818,-4.949996633 142.800015818,-4.9583299669999 " /><polygon class="region" points="142.641682476,-4.516663277 142.65001581,-4.516663277 142.65001581,-4.508329943 142.641682476,-4.508329943 142.641682476,-4.516663277 " /><polygon class="region" points="132.650015288,-1.016663095 132.658348622,-1.016663095 132.658348622,-1.008329761 132.650015288,-1.008329761 132.650015288,-1.016663095 " /><polygon class="region" points="146.575016015,-7.749996779 146.583349349,-7.749996779 146.583349349,-7.741663445 146.575016015,-7.741663445 146.575016015,-7.749996779 " /><polygon class="region" points="142.508349136,-3.3666632169999 142.51668247,-3.3666632169999 142.51668247,-3.358329883 142.508349136,-3.358329883 142.508349136,-3.3666632169999 " /><polygon class="region" points="141.966682441,-5.491663328 141.975015775,-5.491663328 141.975015775,-5.483329994 141.966682441,-5.483329994 141.966682441,-5.491663328 " /><polygon class="region" points="141.975015775,-5.6249966679999 141.983349109,-5.6249966679999 141.983349109,-5.616663334 141.975015775,-5.616663334 141.975015775,-5.6249966679999 " /><polygon class="region" points="142.083349114,-3.374996551 142.091682448,-3.374996551 142.091682448,-3.3666632169999 142.083349114,-3.3666632169999 142.083349114,-3.374996551 " /><polygon class="region" points="146.600016016,-8.124996799 146.60834935,-8.124996799 146.60834935,-8.1166634649999 146.600016016,-8.1166634649999 146.600016016,-8.124996799 " /><polygon class="region" points="142.100015781,-3.374996551 142.108349115,-3.374996551 142.108349115,-3.3666632169999 142.100015781,-3.3666632169999 142.100015781,-3.374996551 " /><polygon class="region" points="144.247676212,-6.3541633729999 144.258349227,-6.3583300399999 144.266682561,-6.3583300399999 144.266682561,-6.349996706 144.247676212,-6.3541633729999 " /><polygon class="region" points="144.600015912,-6.7999967289999 144.616682579,-6.7999967289999 144.616682579,-6.7916633959999 144.600015912,-6.7916633959999 144.600015912,-6.7999967289999 " /><polygon class="region" points="145.250015946,-4.716663287 145.266682613,-4.716663287 145.266682613,-4.708329954 145.250015946,-4.708329954 145.250015946,-4.716663287 " /><polygon class="region" points="144.116682553,-6.9083300679999 144.133349221,-6.9083300679999 144.133349221,-6.8999967349999 144.116682553,-6.8999967349999 144.116682553,-6.9083300679999 " /><polygon class="region" points="141.591682422,-5.533329997 141.600015755,-5.533329997 141.600015755,-5.5166633289999 141.591682422,-5.5166633289999 141.591682422,-5.533329997 " /><polygon class="region" points="144.57501591,-6.7999967289999 144.591682578,-6.7999967289999 144.591682578,-6.7916633959999 144.57501591,-6.7916633959999 144.57501591,-6.7999967289999 " /><polygon class="region" points="139.875015665,-3.891663244 139.891682333,-3.891663244 139.891682333,-3.883329911 139.875015665,-3.883329911 139.875015665,-3.891663244 " /><polygon class="region" points="144.191682557,-6.766663394 144.208349225,-6.766663394 144.208349225,-6.758330061 144.191682557,-6.758330061 144.191682557,-6.766663394 " /><polygon class="region" points="143.283349176,-4.866663295 143.29168251,-4.866663295 143.29168251,-4.8499966279999 143.283349176,-4.8499966279999 143.283349176,-4.866663295 " /><polygon class="region" points="141.083349062,-5.2749966499999 141.100015729,-5.2749966499999 141.100015729,-5.2666633159999 141.083349062,-5.2666633159999 141.083349062,-5.2749966499999 " /><polygon class="region" points="142.475015801,-5.2333299809999 142.491682468,-5.2333299809999 142.491682468,-5.224996647 142.475015801,-5.224996647 142.475015801,-5.2333299809999 " /><polygon class="region" points="141.008349058,-5.2333299809999 141.025015725,-5.2333299809999 141.025015725,-5.224996647 141.008349058,-5.224996647 141.008349058,-5.2333299809999 " /><polygon class="region" points="144.391682568,-6.758330061 144.408349235,-6.758330061 144.408349235,-6.7499967269999 144.391682568,-6.7499967269999 144.391682568,-6.758330061 " /><polygon class="region" points="141.683349093,-3.2833298789999 141.691682427,-3.2833298789999 141.691682427,-3.266663212 141.683349093,-3.266663212 141.683349093,-3.2833298789999 " /><polygon class="region" points="144.975015931,-6.741663393 144.991682599,-6.741663393 144.991682599,-6.733330059 144.975015931,-6.733330059 144.975015931,-6.741663393 " /><polygon class="region" points="144.466682571,-6.274996702 144.483349239,-6.274996702 144.483349239,-6.266663368 144.466682571,-6.266663368 144.466682571,-6.274996702 " /><polygon class="region" points="141.325015741,-4.3833299369999 141.325015741,-4.3749966029999 141.333349075,-4.366663269 141.316682407,-4.3749966029999 141.325015741,-4.3833299369999 " /><polygon class="region" points="138.916682282,-3.658329899 138.93334895,-3.658329899 138.93334895,-3.649996565 138.916682282,-3.649996565 138.916682282,-3.658329899 " /><polygon class="region" points="144.57501591,-7.0249967409999 144.591682578,-7.0249967409999 144.591682578,-7.016663407 144.57501591,-7.016663407 144.57501591,-7.0249967409999 " /><polygon class="region" points="144.366682566,-6.274996702 144.383349234,-6.274996702 144.383349234,-6.266663368 144.366682566,-6.266663368 144.366682566,-6.274996702 " /><polygon class="region" points="146.616682684,-8.133330132 146.616682684,-8.1499968 146.625016017,-8.1499968 146.625016017,-8.124996799 146.616682684,-8.133330132 " /><polygon class="region" points="144.550015909,-6.9833300719999 144.566682577,-6.9833300719999 144.566682577,-6.9749967389999 144.550015909,-6.966663405 144.550015909,-6.9833300719999 " /><polygon class="region" points="142.133349116,-3.391663218 142.150015784,-3.391663218 142.150015784,-3.374996551 142.14168245,-3.374996551 142.133349116,-3.391663218 " /><polygon class="region" points="144.425015903,-6.499996714 144.433349236,-6.5083300479999 144.44168257,-6.5083300479999 144.44168257,-6.49166338 144.425015903,-6.499996714 " /><polygon class="region" points="144.341682565,-6.758330061 144.350015899,-6.758330061 144.350015899,-6.741663393 144.333349231,-6.741663393 144.341682565,-6.758330061 " /><polygon class="region" points="139.958349003,-4.208329928 139.975015671,-4.208329928 139.975015671,-4.1916632599999 139.966682337,-4.1916632599999 139.958349003,-4.208329928 " /><polygon class="region" points="139.975015671,-4.166663259 139.991682338,-4.158329925 139.988633632,-4.1432277919999 139.975015671,-4.1499965909999 139.975015671,-4.166663259 " /><polygon class="region" points="132.750015294,-1.2749964409999 132.758348627,-1.2749964409999 132.758348627,-1.241663106 132.750015294,-1.241663106 132.750015294,-1.2749964409999 " /><polygon class="region" points="144.416682569,-6.4416633769999 144.433349236,-6.4499967109999 144.44168257,-6.4333300439999 144.416682569,-6.4333300439999 144.416682569,-6.4416633769999 " /><polygon class="region" points="144.741682586,-6.4333300439999 144.758349253,-6.4416633769999 144.758349253,-6.42499671 144.741682586,-6.42499671 144.741682586,-6.4333300439999 " /><polygon class="region" points="144.558349243,-6.5083300479999 144.57501591,-6.5166633809999 144.57501591,-6.499996714 144.558349243,-6.499996714 144.558349243,-6.5083300479999 " /><polygon class="region" points="144.400015901,-6.258330035 144.416682569,-6.266663368 144.416682569,-6.2499967009999 144.400015901,-6.2499967009999 144.400015901,-6.258330035 " /><polygon class="region" points="144.433349236,-6.258330035 144.450015904,-6.266663368 144.450015904,-6.2499967009999 144.433349236,-6.2499967009999 144.433349236,-6.258330035 " /><polygon class="region" points="144.433349236,-6.4749967129999 144.450015904,-6.4833300459999 144.458349238,-6.466663379 144.433349236,-6.466663379 144.433349236,-6.4749967129999 " /><polygon class="region" points="144.525015908,-6.616663387 144.541682575,-6.608330053 144.516682574,-6.5999967189999 144.516682574,-6.608330053 144.525015908,-6.616663387 " /><polygon class="region" points="144.350015899,-6.3166633709999 144.341682565,-6.3166633709999 144.341682565,-6.3333300379999 144.358349232,-6.3333300379999 144.350015899,-6.3166633709999 " /><polygon class="region" points="144.925015929,-6.6416633879999 144.925015929,-6.658330055 144.941682596,-6.649996722 144.941682596,-6.6333300539999 144.925015929,-6.6416633879999 " /><polygon class="region" points="144.125015887,-6.8666633999999 144.150015888,-6.8749967329999 144.150015888,-6.858330066 144.125015887,-6.858330066 144.125015887,-6.8666633999999 " /><polygon class="region" points="132.716681959,-0.53332973599993 132.733348626,-0.51666306799996 132.725015292,-0.50832973499996 132.708348625,-0.51666306799996 132.716681959,-0.53332973599993 " /><polygon class="region" points="141.375015744,-5.374996655 141.36668241,-5.3833299889999 141.383349077,-5.3916633229999 141.391682411,-5.374996655 141.375015744,-5.374996655 " /><polygon class="region" points="146.23334933,-7.4083300949999 146.23334933,-7.424996762 146.250015998,-7.4166634279999 146.241682664,-7.399996761 146.23334933,-7.4083300949999 " /><polygon class="region" points="144.383349234,-6.62499672 144.383349234,-6.6333300539999 144.3750159,-6.6416633879999 144.391682568,-6.6416633879999 144.400015901,-6.616663387 144.383349234,-6.62499672 " /><polygon class="region" points="132.566681951,-0.78332974899996 132.591681952,-0.78332974899996 132.591681952,-0.76666308099993 132.575015285,-0.76666308099993 132.566681951,-0.78332974899996 " /><polygon class="region" points="144.533349242,-6.466663379 144.525015908,-6.4749967129999 144.558349243,-6.458330045 144.533349242,-6.458330045 144.533349242,-6.466663379 " /><polygon class="region" points="145.133349273,-6.7916633959999 145.15001594,-6.774996728 145.125015939,-6.766663394 145.125015939,-6.7833300619999 145.133349273,-6.7916633959999 " /><polygon class="region" points="145.39168262,-6.766663394 145.408349287,-6.758330061 145.400015953,-6.733330059 145.39168262,-6.733330059 145.39168262,-6.766663394 " /><polygon class="region" points="134.191682036,-3.0416632 134.216682037,-3.033329866 134.208348703,-3.0166631989999 134.191682036,-3.024996533 134.191682036,-3.0416632 " /><polygon class="region" points="143.775015869,-6.766663394 143.80001587,-6.774996728 143.808349204,-6.758330061 143.775015869,-6.758330061 143.775015869,-6.766663394 " /><polygon class="region" points="144.458349238,-6.7833300619999 144.450015904,-6.7833300619999 144.450015904,-6.7999967289999 144.475015905,-6.7916633959999 144.458349238,-6.7833300619999 " /><polygon class="region" points="145.975015983,-6.1999966979999 145.991682651,-6.1999966979999 145.983349317,-6.1749966969999 145.96668265,-6.183330031 145.975015983,-6.1999966979999 " /><polygon class="region" points="141.083349062,-4.783329958 141.091682395,-4.7666632899999 141.075015728,-4.749996623 141.066682394,-4.7666632899999 141.083349062,-4.783329958 " /><polygon class="region" points="141.116682397,-3.2083298749999 141.133349064,-3.191663208 141.100015729,-3.191663208 141.100015729,-3.199996542 141.116682397,-3.2083298749999 " /><polygon class="region" points="142.150015784,-3.4083298859999 142.183349119,-3.4083298859999 142.183349119,-3.3999965519999 142.158349118,-3.391663218 142.150015784,-3.4083298859999 " /><polygon class="region" points="143.35834918,-6.466663379 143.375015848,-6.4833300459999 143.391682515,-6.4833300459999 143.383349182,-6.458330045 143.35834918,-6.466663379 " /><polygon class="region" points="144.358349232,-6.416663376 144.350015899,-6.4333300439999 144.3750159,-6.42499671 144.366682566,-6.4083300419999 144.358349232,-6.416663376 " /><polygon class="region" points="144.916682595,-6.69166339 144.916682595,-6.7083300579999 144.941682596,-6.699996724 144.941682596,-6.683330057 144.916682595,-6.69166339 " /><polygon class="region" points="141.475015749,-4.666663285 141.466682415,-4.683329952 141.483349083,-4.6916632859999 141.491682416,-4.666663285 141.475015749,-4.666663285 " /><polygon class="region" points="135.150015419,-3.7999965729999 135.166682086,-3.824996574 135.191682088,-3.824996574 135.141682085,-3.7916632389999 135.150015419,-3.7999965729999 " /><polygon class="region" points="144.166682556,-6.8749967329999 144.17501589,-6.858330066 144.158349222,-6.858330066 144.158349222,-6.891663401 144.183349223,-6.891663401 144.166682556,-6.8749967329999 " /><polygon class="region" points="144.44168257,-6.5249967149999 144.44168257,-6.541663383 144.466682571,-6.541663383 144.458349238,-6.5166633809999 144.44168257,-6.5249967149999 " /><polygon class="region" points="144.250015893,-6.383330041 144.258349227,-6.3999967089999 144.275015895,-6.3999967089999 144.266682561,-6.3666633739999 144.250015893,-6.383330041 " /><polygon class="region" points="144.283349229,-6.274996702 144.30834923,-6.266663368 144.300015896,-6.2416633669999 144.283349229,-6.2499967009999 144.283349229,-6.274996702 " /><polygon class="region" points="143.591682526,-6.5249967149999 143.591682526,-6.541663383 143.616682527,-6.533330049 143.616682527,-6.5166633809999 143.591682526,-6.5249967149999 " /><polygon class="region" points="141.708349094,-3.2833298789999 141.708349094,-3.299996547 141.733349096,-3.299996547 141.725015762,-3.274996546 141.708349094,-3.2833298789999 " /><polygon class="region" points="143.391682515,-6.5583300499999 143.42501585,-6.5583300499999 143.433349184,-6.541663383 143.400015849,-6.533330049 143.391682515,-6.5583300499999 " /><polygon class="region" points="143.400015849,-6.5166633809999 143.433349184,-6.5249967149999 143.441682518,-6.533330049 143.441682518,-6.5083300479999 143.400015849,-6.5166633809999 " /><polygon class="region" points="144.625015913,-5.566663332 144.641682581,-5.566663332 144.633349247,-5.524996663 144.616682579,-5.5416633309999 144.625015913,-5.566663332 " /><polygon class="region" points="141.400015745,-4.166663259 141.425015746,-4.1916632599999 141.441682414,-4.1833299259999 141.416682412,-4.1499965909999 141.400015745,-4.166663259 " /><polygon class="region" points="144.183349223,-6.7999967289999 144.17501589,-6.808330063 144.216682558,-6.816663397 144.208349225,-6.7916633959999 144.183349223,-6.7999967289999 " /><polygon class="region" points="144.633349247,-6.924996736 144.633349247,-6.9416634039999 144.666682582,-6.9416634039999 144.658349248,-6.9166634019999 144.633349247,-6.924996736 " /><polygon class="region" points="146.191682661,-7.616663439 146.216682663,-7.616663439 146.208349329,-7.591663437 146.191682661,-7.599996771 146.191682661,-7.616663439 " /><polygon class="region" points="139.358348972,-4.1749965929999 139.350015638,-4.1916632599999 139.375015639,-4.199996594 139.383348973,-4.1749965929999 139.358348972,-4.1749965929999 " /><polygon class="region" points="142.983349161,-4.908329964 142.991682495,-4.9333299649999 143.008349162,-4.9249966319999 143.008349162,-4.891663297 142.983349161,-4.908329964 " /><polygon class="region" points="145.425015955,-6.774996728 145.45834929,-6.758330061 145.45834929,-6.741663393 145.425015955,-6.741663393 145.425015955,-6.774996728 " /><polygon class="region" points="145.250015946,-6.883330067 145.258349279,-6.858330066 145.225015944,-6.8999967349999 145.250015946,-6.9083300679999 145.250015946,-6.883330067 " /><polygon class="region" points="143.683349197,-5.091663307 143.683349197,-5.1166633079999 143.716682532,-5.1083299749999 143.700015865,-5.0833299729999 143.683349197,-5.091663307 " /><polygon class="region" points="144.566682577,-6.374996707 144.558349243,-6.391663375 144.591682578,-6.3999967089999 144.591682578,-6.3666633739999 144.566682577,-6.374996707 " /><polygon class="region" points="135.366682097,-3.883329911 135.400015432,-3.8749965769999 135.358348763,-3.849996576 135.350015429,-3.8749965769999 135.366682097,-3.883329911 " /><polygon class="region" points="141.883349103,-5.358329988 141.866682436,-5.3833299889999 141.891682437,-5.3999966559999 141.900015771,-5.374996655 141.883349103,-5.358329988 " /><polygon class="region" points="143.108349167,-4.8499966279999 143.100015834,-4.8833299629999 143.125015835,-4.8833299629999 143.133349169,-4.858329962 143.108349167,-4.8499966279999 " /><polygon class="region" points="145.208349277,-5.683330005 145.216682611,-5.7083300059999 145.250015946,-5.6666633369999 145.216682611,-5.6666633369999 145.208349277,-5.683330005 " /><polygon class="region" points="145.891682646,-7.6416634399999 145.916682647,-7.658330108 145.916682647,-7.599996771 145.891682646,-7.6083301049999 145.891682646,-7.6416634399999 " /><polygon class="region" points="144.44168257,-6.9083300679999 144.458349238,-6.924996736 144.491682573,-6.8999967349999 144.450015904,-6.883330067 144.44168257,-6.9083300679999 " /><polygon class="region" points="143.250015841,-6.383330041 143.250015841,-6.391663375 143.300015844,-6.391663375 143.29168251,-6.3583300399999 143.250015841,-6.383330041 " /><polygon class="region" points="146.050015987,-6.224996699 146.03334932,-6.2083300319999 146.008349319,-6.2499967009999 146.03334932,-6.258330035 146.050015987,-6.224996699 " /><polygon class="region" points="146.066682655,-6.341663372 146.116682658,-6.341663372 146.10001599,-6.299996703 146.058349321,-6.3249967049999 146.066682655,-6.341663372 " /><polygon class="region" points="144.033349216,-6.8249967309999 144.025015882,-6.858330066 144.075015884,-6.849996732 144.050015883,-6.816663397 144.033349216,-6.8249967309999 " /><polygon class="region" points="144.525015908,-6.7083300579999 144.533349242,-6.741663393 144.566682577,-6.724996726 144.566682577,-6.699996724 144.525015908,-6.7083300579999 " /><polygon class="region" points="144.250015893,-6.841663398 144.200015891,-6.8333300649999 144.191682557,-6.858330066 144.250015893,-6.8666633999999 144.250015893,-6.841663398 " /><polygon class="region" points="142.100015781,-5.608330001 142.083349114,-5.5749966659999 142.033349111,-5.5916633329999 142.041682445,-5.608330001 142.100015781,-5.608330001 " /><polygon class="region" points="143.625015861,-4.949996633 143.608349193,-4.9666633009999 143.60001586,-4.9999966359999 143.650015862,-4.9916633019999 143.625015861,-4.949996633 " /><polygon class="region" points="135.275015425,-3.891663244 135.316682094,-3.883329911 135.258348758,-3.8333299079999 135.250015424,-3.8666632429999 135.275015425,-3.891663244 " /><polygon class="region" points="144.458349238,-6.616663387 144.50834924,-6.5916633849999 144.366682566,-6.583330052 144.433349236,-6.5916633849999 144.458349238,-6.616663387 " /><polygon class="region" points="144.250015893,-6.608330053 144.300015896,-6.616663387 144.341682565,-6.583330052 144.24168256,-6.583330052 144.250015893,-6.608330053 " /><polygon class="region" points="143.566682525,-6.566663384 143.608349193,-6.5999967189999 143.675015863,-6.608330053 143.583349192,-6.541663383 143.566682525,-6.566663384 " /><polygon class="region" points="145.883349312,-7.658330108 145.850015977,-7.6416634399999 145.916682647,-7.7249967779999 145.925015981,-7.6916634429999 145.883349312,-7.658330108 " /><polygon class="region" points="143.841682539,-4.9916633019999 143.883349208,-4.9666633009999 143.858349206,-4.89999663 143.825015871,-4.949996633 143.841682539,-4.9916633019999 " /><polygon class="region" points="143.458349186,-6.9916634059999 143.458349186,-7.049996743 143.500015854,-7.049996743 143.508349188,-7.008330074 143.458349186,-6.9916634059999 " /><polygon class="region" points="141.241682403,-4.508329943 141.283349072,-4.5333299449999 141.291682406,-4.408329938 141.233349069,-4.433329939 141.241682403,-4.508329943 " /><polygon class="region" points="132.500015281,-0.66666307599996 132.483348613,-0.69166307799998 132.625015287,-0.69999641099997 132.563882472,-0.63612922099998 132.500015281,-0.66666307599996 " /><polygon class="region" points="143.175015837,-6.4083300419999 143.15834917,-6.4416633769999 143.208349172,-6.4749967129999 143.233349174,-6.4416633769999 143.175015837,-6.4083300419999 " /><polygon class="region" points="144.466682571,-6.3666633739999 144.500015907,-6.3999967089999 144.541682575,-6.383330041 144.491682573,-6.308330037 144.466682571,-6.3666633739999 " /><polygon class="region" points="136.200015474,-4.208329928 136.208348807,-4.1749965929999 136.12501547,-4.1916632599999 136.183348806,-4.249996596 136.200015474,-4.208329928 " /><polygon class="region" points="132.558348617,-3.033329866 132.591681952,-2.966663196 132.52754112,-2.9378429029999 132.505946881,-2.9620113 132.558348617,-3.033329866 " /><polygon class="region" points="141.56668242,-5.4583299929999 141.583349088,-5.4749966599999 141.691682427,-5.5166633289999 141.641682424,-5.4333299919999 141.56668242,-5.4583299929999 " /><polygon class="region" points="141.791682432,-5.5749966659999 141.808349099,-5.5916633329999 141.950015774,-5.599996667 141.900015771,-5.5416633309999 141.791682432,-5.5749966659999 " /><polygon class="region" points="142.791682484,-6.583330052 142.800015818,-6.6333300539999 142.875015822,-6.616663387 142.858349154,-6.5583300499999 142.791682484,-6.583330052 " /><polygon class="region" points="132.666681956,-0.76666308099993 132.658348622,-0.83332975199994 132.80834863,-0.79166308299995 132.766681961,-0.76666308099993 132.666681956,-0.76666308099993 " /><polygon class="region" points="144.566682577,-6.6416633879999 144.658349248,-6.658330055 144.700015917,-6.683330057 144.611317589,-6.5794329569999 144.566682577,-6.6416633879999 " /><polygon class="region" points="134.591682056,-2.8666631909999 134.616682058,-2.7833298529999 134.608348724,-2.616663178 134.558348721,-2.683329848 134.591682056,-2.8666631909999 " /><polygon class="region" points="141.416682412,-4.816663293 141.308349073,-4.7749966239999 141.225015736,-4.7666632899999 141.466682415,-4.8833299629999 141.475015749,-4.858329962 141.441682414,-4.816663293 141.425015746,-4.8083299589999 141.416682412,-4.816663293 " /><polygon class="region" points="144.283349229,-6.8249967309999 144.383349234,-6.9166634019999 144.433349236,-6.7999967289999 144.316682564,-6.774996728 144.283349229,-6.8249967309999 " /><polygon class="region" points="144.725015918,-6.549996716 144.758349253,-6.649996722 144.866682592,-6.5916633849999 144.783349255,-6.533330049 144.725015918,-6.549996716 " /><polygon class="region" points="140.641682372,-3.7916632389999 140.566682368,-3.858329909 140.841682382,-3.7999965729999 140.668440186,-3.819880811 140.641682372,-3.7916632389999 " /><polygon class="region" points="132.900015302,-1.1833297699999 132.908348635,-1.2999964429999 133.083348644,-1.1166630999999 132.983348639,-1.091663098 132.900015302,-1.1833297699999 " /><polygon class="region" points="132.266681935,-0.67499640999995 132.441681944,-0.68332974399993 132.466681946,-0.60832973999993 132.200015265,-0.59166307199996 132.266681935,-0.67499640999995 " /><polygon class="region" points="143.958349212,-6.7999967289999 144.133349221,-6.7999967289999 144.200015891,-6.6749967229999 143.93334921,-6.6416633879999 143.958349212,-6.7999967289999 " /><polygon class="region" points="143.233349174,-6.8249967309999 143.216682506,-6.958330071 143.341682513,-6.924996736 143.250015841,-6.733330059 142.983349161,-6.7166633919999 143.233349174,-6.8249967309999 " /><polygon class="region" points="132.858348633,-0.59166307199996 132.633348621,-0.69166307799998 132.858348633,-0.67499640999995 132.933348637,-0.71666307899994 133.016681974,-0.72499641299993 133.058348643,-0.75832974799994 133.258348654,-0.76666308099993 133.008348641,-0.53332973599993 132.858348633,-0.59166307199996 " /><polygon class="region" points="144.100015886,-4.9999966359999 144.008349214,-4.9666633009999 144.791682588,-5.649996669 144.791682588,-5.4666633269999 144.583349244,-5.333329986 144.700015917,-5.3166633189999 144.641682581,-5.1583299769999 144.100015886,-4.9999966359999 " /><polygon class="region" points="133.175015316,-1.04999643 133.445299347,-1.169611609 133.31668199,-1.208329771 133.499902418,-1.328961695 133.366681993,-1.399996448 133.75834868,-1.3916631139999 134.000015359,-1.6583297949999 134.02501536,-1.291663109 134.133348699,-1.366663113 134.008348693,-1.04999643 133.766682013,-0.96666309199998 133.875600273,-1.15705566 133.725015345,-1.2249964389999 133.625015339,-0.92499642299993 133.558348669,-1.024996428 133.491681999,-0.88332975399993 133.466681998,-0.99999642699993 133.125015313,-0.87499641999995 133.253786275,-0.93160856499998 133.100015312,-1.016663095 133.302607282,-1.0000457639999 133.175015316,-1.04999643 " /><polygon class="region" points="132.925015303,-0.69166307799998 132.933348637,-0.64999640899992 132.94168197,-0.64999640899992 132.94168197,-0.68332974399993 132.925015303,-0.69166307799998 " /><polygon class="region" points="141.416682412,-4.816663293 141.425015746,-4.816663293 141.420830769,-4.8356767619999 141.406436644,-4.829011723 141.416682412,-4.816663293 " /><polygon class="region" points="132.958348638,-0.63332974099995 132.958348638,-0.62499640699997 132.975015305,-0.62499640699997 132.975015305,-0.63332974099995 132.958348638,-0.63332974099995 " /><polygon class="region" points="144.608349246,-5.4583299929999 144.608349246,-5.441663325 144.616682579,-5.441663325 144.616682579,-5.4583299929999 144.608349246,-5.4583299929999 " /><polygon class="region" points="143.375015848,-6.4749967129999 143.375015848,-6.466663379 143.383349182,-6.466663379 143.383349182,-6.4749967129999 143.375015848,-6.4749967129999 " /><polygon class="region" points="132.94168197,-0.64999640899992 132.94168197,-0.64166307499994 132.950015304,-0.64166307499994 132.950015304,-0.64999640899992 132.94168197,-0.64999640899992 " /><polygon class="region" points="132.950015304,-0.64166307499994 132.950015304,-0.63332974099995 132.958348638,-0.63332974099995 132.958348638,-0.64166307499994 132.950015304,-0.64166307499994 " /><polygon class="region" points="133.750015346,-1.2333297719999 133.750015346,-1.2249964389999 133.75834868,-1.2249964389999 133.75834868,-1.2333297719999 133.750015346,-1.2333297719999 " /><polygon class="region" points="132.916681969,-0.69999641099997 132.916681969,-0.69166307799998 132.925015303,-0.69166307799998 132.925015303,-0.69999641099997 132.916681969,-0.69999641099997 " />
		  </g>
		</svg>