<?xml version="1.0" encoding="UTF-8"?>
	<svg xmlns:xlink="http://www.w3.org/1999/xlink" 
	xmlns="http://www.w3.org/2000/svg" 
	width="360px" height="180px">
	   <style type="text/css">
		  <![CDATA[     
		  .region 
		  { 
			fill:blue; 
			opacity:0.4; 
			stroke:blue;
		  }
		  ]]>
	   </style>

	<circle id="dot" x="-2" y="-2" r="2" style="stroke:none; stroke-width:0; fill:black; opacity:0.7;"/>


	 <image x="0" y="0" width="360" height="180" xlink:href="map.jpg"/>

 
	 <g transform="translate(180,90) scale(1,-1)"><polygon class="region" points="-51.298447115,-30.056412949 -51.561622985,-29.475549397 -50.535272082,-28.569945659 -49.347926731,-24.868221917 -48.509800601,-23.750720411 -47.095656156,-22.855095596 -46.332443351,-22.125227902 -45.563964322,-20.662638782 -44.919433523,-18.976942847 -43.459943109,-14.034507155 -42.778227841,-12.79502485 -42.003551401,-12.082322525 -39.741496194,-11.462581372 -38.718923292,-10.687904931 -38.130169197,-10.501982586 -36.146997509,-8.8286814739999 -35.155411665,-8.735720301 -35.166854858,-8.966179848 -35.689426422,-9.668279648 -37.162719727,-11.116233826 -38.317596436,-12.934181213 -38.532100677,-13.016701698 -38.49805069,-12.721985817 -38.717617035,-12.627303123 -38.769332886,-12.995077133 -38.685787201,-12.878168106 -38.58959198,-12.972101212 -38.944084167,-13.2433424 -38.886226654,-13.659123421 -39.075248718,-13.88656044 -38.921916962,-13.919828415 -39.061450958,-14.715538025 -38.857074738,-15.86001873 -39.212112427,-17.154607773 -39.135345459,-17.691141129 -39.562931061,-18.090854645 -39.721466064,-18.492767334 -39.80519104,-19.650215149 -40.151313782,-19.956037521 -40.401931763,-20.605695724 -40.756248474,-20.866031647 -41.065460205,-21.495420456 -40.990142822,-22.013877869 -41.96181488,-22.538225174 -41.863887787,-22.758634567 -42.017993927,-22.997972488 -43.049945831,-22.981931686 -43.083713531,-22.679719925 -43.287204742,-22.806335449 -43.155788422,-22.783943176 -43.187030792,-22.995481491 -43.549385071,-23.080722809 -44.001308441,-23.100046158 -43.555473328,-23.054826736 -43.839683533,-22.906253815 -44.233558655,-23.060422897 -44.406982422,-22.945045471 -44.712490082,-23.18970108 -44.497821808,-23.302398682 -45.050430298,-23.417833328 -45.409679413,-23.631856918 -45.411937714,-23.824636459 -45.93429184,-23.771089554 -46.936599731,-24.281074524 -47.859535217,-24.996442795 -48.212669373,-25.470071793 -48.121013641,-25.26684761 -48.316940308,-25.363388062 -48.433383942,-25.236698151 -48.476154327,-25.485044479 -48.738864899,-25.37392807 -48.349964142,-25.580591202 -48.585708618,-26.171947479 -48.713733673,-26.242883682 -48.794532776,-26.072647095 -48.837348938,-26.156553268 -48.723125458,-26.361555099 -48.493301392,-26.224025726 -48.695358276,-26.657737732 -48.606872559,-27.122493744 -48.469459534,-27.147735596 -48.612071991,-27.242954254 -48.575172424,-27.887662888 -48.760784149,-28.534755707 -49.369983673,-28.919563293 -50.208069391,-30.197945258 -51.298447115,-30.056412949 " />
		  </g>
		</svg>