<?xml version="1.0" encoding="UTF-8"?>
	<svg xmlns:xlink="http://www.w3.org/1999/xlink" 
	xmlns="http://www.w3.org/2000/svg" 
	width="360px" height="180px">
	   <style type="text/css">
		  <![CDATA[     
		  .region 
		  { 
			fill:blue; 
			opacity:0.4; 
			stroke:blue;
		  }
		  ]]>
	   </style>

	<circle id="dot" x="-2" y="-2" r="2" style="stroke:none; stroke-width:0; fill:black; opacity:0.7;"/>


	 <image x="0" y="0" width="360" height="180" xlink:href="map.jpg"/>

 
	 <g transform="translate(180,90) scale(1,-1)">   <use xlink:href="#dot" transform="translate(-40.563056,-19.855)" />   <use xlink:href="#dot" transform="translate(-40.563056,-19.855)" />   <use xlink:href="#dot" transform="translate(-40.563056,-19.855)" />   <use xlink:href="#dot" transform="translate(-40.563056,-19.855)" />   <use xlink:href="#dot" transform="translate(-40.600278,-19.935556)" />   <use xlink:href="#dot" transform="translate(-44.439722,-22.670278)" />   <use xlink:href="#dot" transform="translate(-48.759722,-24.22)" />   <use xlink:href="#dot" transform="translate(-46.144444,-22.755556)" />   <use xlink:href="#dot" transform="translate(-54.83,-23.63)" />   <use xlink:href="#dot" transform="translate(-46.561389,-21.788056)" />   <use xlink:href="#dot" transform="translate(-46.561389,-21.788056)" />   <use xlink:href="#dot" transform="translate(-46.561389,-21.788056)" />   <use xlink:href="#dot" transform="translate(-46.561389,-21.788056)" />   <use xlink:href="#dot" transform="translate(-46.561389,-21.788056)" />   <use xlink:href="#dot" transform="translate(-40.6,-19.9167)" />   <use xlink:href="#dot" transform="translate(-40.6,-19.9167)" />   <use xlink:href="#dot" transform="translate(-40.6,-19.9167)" />   <use xlink:href="#dot" transform="translate(-46.561389,-21.788056)" />   <use xlink:href="#dot" transform="translate(-46.561389,-21.788056)" />   <use xlink:href="#dot" transform="translate(-46.561389,-21.788056)" />   <use xlink:href="#dot" transform="translate(-46.561389,-21.788056)" />   <use xlink:href="#dot" transform="translate(-46.561389,-21.788056)" />   <use xlink:href="#dot" transform="translate(-46.561389,-21.788056)" />   <use xlink:href="#dot" transform="translate(-46.561389,-21.788056)" />   <use xlink:href="#dot" transform="translate(-46.561389,-21.788056)" />   <use xlink:href="#dot" transform="translate(-46.561389,-21.788056)" />   <use xlink:href="#dot" transform="translate(-46.561389,-21.788056)" />   <use xlink:href="#dot" transform="translate(-46.561389,-21.788056)" />   <use xlink:href="#dot" transform="translate(-46.561389,-21.788056)" />   <use xlink:href="#dot" transform="translate(-45.165278,-22.613333)" />   <use xlink:href="#dot" transform="translate(-46.88,-23.180278)" />   <use xlink:href="#dot" transform="translate(-44.446667,-22.469167)" />   <use xlink:href="#dot" transform="translate(-44.446667,-22.469167)" />   <use xlink:href="#dot" transform="translate(-48.9891,-25.4)" />   <use xlink:href="#dot" transform="translate(-44.73,-22.37)" />   <use xlink:href="#dot" transform="translate(-44.73,-22.37)" />   <use xlink:href="#dot" transform="translate(-44.73,-22.37)" />   <use xlink:href="#dot" transform="translate(-45.63,-22.82)" />   <use xlink:href="#dot" transform="translate(-44.73,-22.37)" />   <use xlink:href="#dot" transform="translate(-42.98,-22.43)" />   <use xlink:href="#dot" transform="translate(-42.9458,-22.4478)" />   <use xlink:href="#dot" transform="translate(-42.98,-22.43)" />   <use xlink:href="#dot" transform="translate(-42.98,-22.43)" />   <use xlink:href="#dot" transform="translate(-42.9458,-22.4478)" />   <use xlink:href="#dot" transform="translate(-42.98,-22.43)" />   <use xlink:href="#dot" transform="translate(-42.98,-22.43)" />   <use xlink:href="#dot" transform="translate(-42.9458,-22.4478)" />   <use xlink:href="#dot" transform="translate(-42.98,-22.43)" />   <use xlink:href="#dot" transform="translate(-42.9458,-22.4478)" />   <use xlink:href="#dot" transform="translate(-42.98,-22.43)" />   <use xlink:href="#dot" transform="translate(-42.9458,-22.4478)" />   <use xlink:href="#dot" transform="translate(-42.98,-22.43)" />   <use xlink:href="#dot" transform="translate(-42.98,-22.43)" />   <use xlink:href="#dot" transform="translate(-44.73,-22.37)" />   <use xlink:href="#dot" transform="translate(-44.73,-22.37)" />   <use xlink:href="#dot" transform="translate(-44.73,-22.37)" />   <use xlink:href="#dot" transform="translate(-44.73,-22.37)" />   <use xlink:href="#dot" transform="translate(-44.73,-22.37)" />   <use xlink:href="#dot" transform="translate(-44.73,-22.37)" />   <use xlink:href="#dot" transform="translate(-44.73,-22.37)" />   <use xlink:href="#dot" transform="translate(-44.73,-22.37)" />   <use xlink:href="#dot" transform="translate(-44.73,-22.37)" />   <use xlink:href="#dot" transform="translate(-44.65,-22.82)" />   <use xlink:href="#dot" transform="translate(-44.65,-22.82)" />   <use xlink:href="#dot" transform="translate(-44.65,-22.82)" />   <use xlink:href="#dot" transform="translate(-44.65,-22.82)" />   <use xlink:href="#dot" transform="translate(-44.65,-22.82)" />   <use xlink:href="#dot" transform="translate(-44.65,-22.82)" />   <use xlink:href="#dot" transform="translate(-44.65,-22.82)" />   <use xlink:href="#dot" transform="translate(-45.83,-23.63)" />   <use xlink:href="#dot" transform="translate(-44.65,-22.82)" />   <use xlink:href="#dot" transform="translate(-44.65,-22.82)" />   <use xlink:href="#dot" transform="translate(-45.83,-23.63)" />   <use xlink:href="#dot" transform="translate(-45.83,-23.63)" />   <use xlink:href="#dot" transform="translate(-45.83,-23.63)" />   <use xlink:href="#dot" transform="translate(-45.83,-23.63)" />   <use xlink:href="#dot" transform="translate(-45.83,-23.63)" />   <use xlink:href="#dot" transform="translate(-45.83,-23.63)" />   <use xlink:href="#dot" transform="translate(-45.83,-23.63)" />   <use xlink:href="#dot" transform="translate(-45.83,-23.63)" />   <use xlink:href="#dot" transform="translate(-45.83,-23.63)" />   <use xlink:href="#dot" transform="translate(-45.83,-23.63)" />   <use xlink:href="#dot" transform="translate(-45.83,-23.63)" />   <use xlink:href="#dot" transform="translate(-45.83,-23.63)" />   <use xlink:href="#dot" transform="translate(-45.83,-23.63)" />   <use xlink:href="#dot" transform="translate(-45.83,-23.63)" />   <use xlink:href="#dot" transform="translate(-45.83,-23.63)" />   <use xlink:href="#dot" transform="translate(-45.83,-23.63)" />   <use xlink:href="#dot" transform="translate(-48.75,-22.1667)" />   <use xlink:href="#dot" transform="translate(-48.75,-22.1667)" />   <use xlink:href="#dot" transform="translate(-48.75,-22.1667)" />   <use xlink:href="#dot" transform="translate(-43.744722,-19.513611)" />   <use xlink:href="#dot" transform="translate(-43.744722,-19.513611)" />   <use xlink:href="#dot" transform="translate(-43.714167,-19.169167)" />   <use xlink:href="#dot" transform="translate(-43.714167,-19.169167)" />   <use xlink:href="#dot" transform="translate(-43.714167,-19.169167)" />   <use xlink:href="#dot" transform="translate(-43.714167,-19.169167)" />   <use xlink:href="#dot" transform="translate(-43.714167,-19.169167)" />   <use xlink:href="#dot" transform="translate(-43.744722,-19.513611)" />   <use xlink:href="#dot" transform="translate(-43.744722,-19.513611)" />   <use xlink:href="#dot" transform="translate(-44.569722,-22.64)" />   <use xlink:href="#dot" transform="translate(-44.569722,-22.64)" />   <use xlink:href="#dot" transform="translate(-44.569722,-22.64)" />   <use xlink:href="#dot" transform="translate(-43.2333,-22.9)" />   <use xlink:href="#dot" transform="translate(-43.23333,-22.93333)" />   <use xlink:href="#dot" transform="translate(-43.23333,-22.93333)" />   <use xlink:href="#dot" transform="translate(-43.23333,-22.93333)" />   <use xlink:href="#dot" transform="translate(-43.23333,-22.93333)" />   <use xlink:href="#dot" transform="translate(-43.1667,-22.5167)" />   <use xlink:href="#dot" transform="translate(-43.1667,-22.5167)" />   <use xlink:href="#dot" transform="translate(-44.75,-22.5667)" />   <use xlink:href="#dot" transform="translate(-44.75,-22.5667)" />   <use xlink:href="#dot" transform="translate(-44.75,-22.5667)" />   <use xlink:href="#dot" transform="translate(-44.75,-22.5667)" />   <use xlink:href="#dot" transform="translate(-44.75,-22.5667)" />   <use xlink:href="#dot" transform="translate(-44.75,-22.5667)" />   <use xlink:href="#dot" transform="translate(-44.75,-22.5667)" />   <use xlink:href="#dot" transform="translate(-44.75,-22.5667)" />   <use xlink:href="#dot" transform="translate(-44.75,-22.5667)" />   <use xlink:href="#dot" transform="translate(-44.75,-22.5667)" />   <use xlink:href="#dot" transform="translate(-44.75,-22.5667)" />   <use xlink:href="#dot" transform="translate(-44.75,-22.5667)" />   <use xlink:href="#dot" transform="translate(-44.75,-22.5667)" />   <use xlink:href="#dot" transform="translate(-44.75,-22.5667)" />   <use xlink:href="#dot" transform="translate(-44.75,-22.5667)" />   <use xlink:href="#dot" transform="translate(-44.75,-22.5667)" />   <use xlink:href="#dot" transform="translate(-44.75,-22.5667)" />   <use xlink:href="#dot" transform="translate(-44.75,-22.5667)" />   <use xlink:href="#dot" transform="translate(-44.9667,-22.3833)" />   <use xlink:href="#dot" transform="translate(-44.9667,-22.3833)" />   <use xlink:href="#dot" transform="translate(-44.3,-23)" /><polygon class="region" points="-48.9891,-25.4 -54.83,-23.63 -43.714167,-19.169167 -40.563056,-19.855 -40.600278,-19.935556 -43.23333,-22.93333 -48.9891,-25.4 " />
		  </g>
		</svg>