<?xml version="1.0" encoding="UTF-8"?>
	<svg xmlns:xlink="http://www.w3.org/1999/xlink" 
	xmlns="http://www.w3.org/2000/svg" 
	width="360px" height="180px">
	   <style type="text/css">
		  <![CDATA[     
		  .region 
		  { 
			fill:blue; 
			opacity:0.4; 
			stroke:blue;
		  }
		  ]]>
	   </style>

	<circle id="dot" x="-2" y="-2" r="2" style="stroke:none; stroke-width:0; fill:black; opacity:0.7;"/>


	 <image x="0" y="0" width="360" height="180" xlink:href="map.jpg"/>

 
	 <g transform="translate(180,90) scale(1,-1)">   <use xlink:href="#dot" transform="translate(-105.025833,19.481944)" />   <use xlink:href="#dot" transform="translate(-105.038,19.488)" />   <use xlink:href="#dot" transform="translate(-105.025833,19.481944)" />   <use xlink:href="#dot" transform="translate(-105.025833,19.481944)" />   <use xlink:href="#dot" transform="translate(-105.038,19.483333)" />   <use xlink:href="#dot" transform="translate(-105.058333,19.493056)" />   <use xlink:href="#dot" transform="translate(-105.025833,19.481944)" />   <use xlink:href="#dot" transform="translate(-105.038,19.483333)" />   <use xlink:href="#dot" transform="translate(-105.0325,19.488333)" />   <use xlink:href="#dot" transform="translate(-105.0325,19.488333)" />   <use xlink:href="#dot" transform="translate(-105.038,19.483333)" />   <use xlink:href="#dot" transform="translate(-105.038,19.483333)" />   <use xlink:href="#dot" transform="translate(-105.025833,19.481944)" />   <use xlink:href="#dot" transform="translate(-104.391111,19.228611)" />   <use xlink:href="#dot" transform="translate(-105.034691,19.4883)" />   <use xlink:href="#dot" transform="translate(-105.034691,19.4883)" />   <use xlink:href="#dot" transform="translate(-105.034691,19.4883)" />   <use xlink:href="#dot" transform="translate(-103.640759,19.305679)" />   <use xlink:href="#dot" transform="translate(-105.015833,19.526667)" />   <use xlink:href="#dot" transform="translate(-105.015833,19.526667)" />   <use xlink:href="#dot" transform="translate(-105.015833,19.526667)" />   <use xlink:href="#dot" transform="translate(-105.015833,19.526667)" />   <use xlink:href="#dot" transform="translate(-104.996667,19.526667)" />   <use xlink:href="#dot" transform="translate(-104.996667,19.526667)" />   <use xlink:href="#dot" transform="translate(-104.996667,19.526667)" />   <use xlink:href="#dot" transform="translate(-104.996667,19.526667)" />   <use xlink:href="#dot" transform="translate(-103.8333,19.0833)" />   <use xlink:href="#dot" transform="translate(-103.9343855792,19.315887395565)" />   <use xlink:href="#dot" transform="translate(-103.8333,19.0833)" />   <use xlink:href="#dot" transform="translate(-103.9343855792,19.315887395565)" />   <use xlink:href="#dot" transform="translate(-104.283333,19.084724)" />   <use xlink:href="#dot" transform="translate(-104.283333,19.075695)" />   <use xlink:href="#dot" transform="translate(-104.283333,19.084724)" />   <use xlink:href="#dot" transform="translate(-104.283333,19.066667)" />   <use xlink:href="#dot" transform="translate(-104.283333,19.075695)" />   <use xlink:href="#dot" transform="translate(-104.28722286849,19.089616872651)" />   <use xlink:href="#dot" transform="translate(-104.283333,19.075695)" />   <use xlink:href="#dot" transform="translate(-104.283333,19.084724)" />   <use xlink:href="#dot" transform="translate(-104.283333,19.084724)" />   <use xlink:href="#dot" transform="translate(-104.283333,19.075695)" />   <use xlink:href="#dot" transform="translate(-104.233333,19.225695)" />   <use xlink:href="#dot" transform="translate(-104.233333,19.225695)" />   <use xlink:href="#dot" transform="translate(-103.882873,19.134743)" />   <use xlink:href="#dot" transform="translate(-103.930833,19.166667)" />   <use xlink:href="#dot" transform="translate(-103.930833,19.166667)" />   <use xlink:href="#dot" transform="translate(-103.930833,19.166667)" />   <use xlink:href="#dot" transform="translate(-103.89906906374,19.135311059678)" />   <use xlink:href="#dot" transform="translate(-103.89906906374,19.135311059678)" />   <use xlink:href="#dot" transform="translate(-103.8333,19.0833)" />   <use xlink:href="#dot" transform="translate(-103.8333,19.0833)" />   <use xlink:href="#dot" transform="translate(-103.8333,19.0833)" />   <use xlink:href="#dot" transform="translate(-103.8333,19.0833)" />   <use xlink:href="#dot" transform="translate(-103.8333,19.0833)" />   <use xlink:href="#dot" transform="translate(-103.8333,19.0833)" />   <use xlink:href="#dot" transform="translate(-103.8333,19.0833)" />   <use xlink:href="#dot" transform="translate(-103.8333,19.0833)" />   <use xlink:href="#dot" transform="translate(-103.8333,19.0833)" />   <use xlink:href="#dot" transform="translate(-103.96444,18.93417)" />   <use xlink:href="#dot" transform="translate(-103.91,19.159722)" />   <use xlink:href="#dot" transform="translate(-103.91,19.159722)" />   <use xlink:href="#dot" transform="translate(-104.958,19.483)" />   <use xlink:href="#dot" transform="translate(-105.018799,19.526671)" />   <use xlink:href="#dot" transform="translate(-105.008,19.408)" />   <use xlink:href="#dot" transform="translate(-104.958333,19.483333)" />   <use xlink:href="#dot" transform="translate(-104.958,19.483)" />   <use xlink:href="#dot" transform="translate(-104.958,19.483)" />   <use xlink:href="#dot" transform="translate(-105.059722,19.515833)" />   <use xlink:href="#dot" transform="translate(-104.958333,19.483333)" />   <use xlink:href="#dot" transform="translate(-104.958333,19.483333)" />   <use xlink:href="#dot" transform="translate(-103.949722,18.93)" />   <use xlink:href="#dot" transform="translate(-104.958333,19.483333)" />   <use xlink:href="#dot" transform="translate(-103.949722,18.93)" />   <use xlink:href="#dot" transform="translate(-104.958333,19.483333)" />   <use xlink:href="#dot" transform="translate(-104.958333,19.483333)" />   <use xlink:href="#dot" transform="translate(-104.958333,19.483333)" />   <use xlink:href="#dot" transform="translate(-104.958333,19.483333)" />   <use xlink:href="#dot" transform="translate(-104.958,19.483)" />   <use xlink:href="#dot" transform="translate(-105.008333,19.408333)" />   <use xlink:href="#dot" transform="translate(-105.008333,19.408333)" /><polygon class="region" points="-105.058333,19.493056 -105.059722,19.515833 -105.018799,19.526671 -104.996667,19.526667 -103.640759,19.305679 -103.949722,18.93 -103.96444,18.93417 -104.283333,19.066667 -105.008,19.408 -105.008333,19.408333 -105.058333,19.493056 " />
		  </g>
		</svg>