<?xml version="1.0" encoding="UTF-8"?>
	<svg xmlns:xlink="http://www.w3.org/1999/xlink" 
	xmlns="http://www.w3.org/2000/svg" 
	width="360px" height="180px">
	   <style type="text/css">
		  <![CDATA[     
		  .region 
		  { 
			fill:blue; 
			opacity:0.4; 
			stroke:blue;
		  }
		  ]]>
	   </style>

	<circle id="dot" x="-2" y="-2" r="2" style="stroke:none; stroke-width:0; fill:black; opacity:0.7;"/>


	 <image x="0" y="0" width="360" height="180" xlink:href="map.jpg"/>

 
	 <g transform="translate(180,90) scale(1,-1)"><polygon class="region" points="132.356338501,-11.166975975 132.672546387,-11.515586853 132.915618897,-11.33348465 133.156494141,-11.713266372 133.534820556,-11.764043808 133.493667603,-11.881198883 133.911239624,-11.741051674 133.829864502,-11.862760544 134.123962402,-11.900726318 134.177001953,-12.13672638 134.243087768,-11.989396095 134.578796386,-12.13066864 134.748931885,-11.95177269 135.250259399,-12.329842567 135.154907227,-12.2309618 135.33454895,-12.251355172 135.21989441,-12.189231873 135.36289978,-12.089596749 135.908889771,-11.95410347 135.645996094,-12.199981689 135.708068848,-12.307461739 136.038803101,-12.067225457 135.924423218,-12.226036072 136.0572052,-12.241404533 135.935653686,-12.423357963 136.017227173,-12.495091438 136.296066284,-12.406208039 136.388046265,-12.240375519 136.164077758,-12.166649818 136.563079834,-11.877714157 136.439727784,-12.001198768 136.645217896,-12.271049499 136.77935791,-12.163327217 136.973999023,-12.344327927 136.724411011,-12.479063988 136.615844726,-12.842479706 136.461532593,-12.779971122 136.659408569,-13.005592346 136.451828003,-12.979290962 136.563812256,-13.062939644 136.462341309,-13.250365257 136.318740844,-13.307515144 136.334228516,-13.049180985 136.176864624,-13.283195495 136.136703491,-13.129497528 136.044189454,-13.308376313 135.910430908,-13.275520325 135.873184204,-13.710345268 136.07762146,-13.659985542 135.535140991,-14.658287049 135.416213989,-14.735064507 135.26524353,-14.678240776 134.969345093,-14.788217545 135.374389649,-14.724766732 135.406799316,-14.954256058 135.699569702,-15.091691017 135.627731324,-15.199975014 135.536102295,-15.226180077 135.543167115,-15.242362022 135.483840942,-15.271554947 135.413177491,-15.329035759 135.414382935,-15.342144012 135.63154602,-15.228279113 135.740951538,-15.119615555 136.5388031,-15.742168427 136.720916748,-15.698509216 136.576370239,-15.907593727 136.438766479,-15.903031349 136.417633057,-15.925499916 136.418579102,-15.944326401 136.575836182,-15.912635803 136.673385621,-15.816418648 136.712539673,-15.934102058 137.113310945,-15.954514395 137.7101623,-16.884342255 139.500716362,-18.586473895 140.473363013,-19.912810237 140.650207858,-20.531767197 140.650207858,-21.261252185 140.473363013,-21.460202636 139.92072287,-21.194935368 139.14702667,-20.31071114 136.958571706,-18.520157077 134.10694857,-16.486441353 133.421674793,-16.24327969 132.449028142,-16.154857268 130.857424532,-17.149609524 130.017411515,-17.436982398 128.44791351,-17.724355272 125.706818402,-17.658038455 123.916264341,-18.188572992 123.429941016,-18.166467387 123.41447665,-17.334282143 123.565567016,-17.63133049 123.697135925,-17.250862122 123.595649719,-17.016454697 123.942695617,-17.284894943 123.792350769,-17.011861801 123.922554016,-17.102685929 123.823379517,-16.961393356 123.948158264,-16.86857605 123.951812745,-16.821123123 123.776428222,-16.905117035 123.500305175,-16.665388107 123.613670349,-16.561265945 123.422668457,-16.509225845 123.705497741,-16.424972534 123.554283142,-16.18024826 123.773880005,-16.170316696 123.867240906,-16.451770782 123.881813049,-16.309347152 123.983352661,-16.422410965 124,-16.384799958 123.907707214,-16.215677261 124.117164612,-16.284893036 124.397315979,-16.56888771 124.383956909,-16.350597382 124.449066162,-16.414072037 124.829841613,-16.437934875 124.906539917,-16.427135468 124.939300537,-16.398925781 124.391021729,-16.343183518 124.438659668,-16.066581726 124.528747558,-16.210535049 124.551589966,-16.20230484 124.607818603,-15.893919945 124.776809692,-15.805704117 124.799629212,-15.663559914 124.499282837,-16.002603531 124.361679077,-15.671573639 124.478279113,-15.472571373 124.681091309,-15.48735714 124.677482605,-15.254055977 125.29360199,-15.607025146 125.069404602,-15.440311432 125.106002808,-15.271170617 124.876785278,-15.309821129 125.052719116,-15.163995743 124.874763489,-15.264698029 124.833786011,-15.162986756 125.068054199,-14.978345871 125.170906067,-15.173552513 125.508552551,-15.167163848 125.361053467,-15.1114645 125.487808228,-14.990303993 125.182815552,-14.962301254 125.325119018,-14.881527901 125.136596679,-14.749127388 125.356346131,-14.507545472 125.441802979,-14.655052185 125.598747253,-14.559154511 125.60030365,-14.230884552 125.732795716,-14.282568931 125.647407532,-14.650568962 125.734703064,-14.406919479 125.907173156,-14.657509804 126.159217834,-14.150741577 126.009147644,-13.921927452 126.212516785,-13.971587181 126.22277832,-14.265763283 126.534843445,-13.93185997 126.449531555,-14.092937469 126.569137573,-14.24050045 126.703811646,-13.971928596 126.926895142,-14.000331879 126.743186951,-13.792671203 126.870475769,-13.746883392 127.144760132,-13.988210678 127.424369812,-13.945135117 128.23361206,-14.736326218 128.074829101,-14.885882378 128.071029663,-15.446676254 127.864212036,-15.577080726 127.843132019,-15.607053757 127.869850159,-15.650463104 128.094589233,-15.468666077 128.122848511,-15.188938141 128.250961304,-15.303074837 128.292266846,-15.456236839 128.327789306,-15.503335953 128.342056274,-15.492604256 128.200515747,-15.062180519 128.453460693,-15.053397179 128.406356812,-14.872553825 128.511383057,-15.01111126 128.379699707,-14.818344116 128.521041871,-14.765644074 129.09211731,-14.902314186 129.183670044,-14.986745834 129.193557739,-15.120429993 129.106643676,-15.240756035 129.125961303,-15.280594826 129.307861328,-15.10984993 129.287261963,-14.857423782 129.587234497,-15.228458405 129.641403198,-14.834636688 129.763641357,-14.840790749 129.799758911,-14.746792794 129.620681763,-14.683203697 129.806762695,-14.531609535 129.520645142,-14.545713424 129.362442017,-14.334080696 129.474914551,-14.050016404 129.522613526,-14.207326889 129.740539551,-13.978152275 129.812561036,-13.500292778 130.272781372,-13.330177308 130.123275757,-12.966158866 130.336746216,-12.891205787 130.349868775,-12.669074058 130.627609253,-12.777632713 130.751983643,-12.722182274 130.589553833,-12.680967331 130.547668457,-12.63038826 130.58052063,-12.403337478 130.968475342,-12.673621178 130.818008422,-12.40404129 131.037887573,-12.375236511 130.997375488,-12.169862747 131.215484619,-12.220152855 131.288299561,-12.044290542 131.463150024,-12.28320694 132.774734497,-12.162091255 132.580307007,-11.785905838 132.728820801,-11.612200737 132.544326782,-11.603512764 132.548782349,-11.445842743 132.112792969,-11.536168098 131.755630493,-11.300887108 131.998962402,-11.124361992 132.169219971,-11.420018196 132.137680054,-11.122786522 132.2815094,-11.27041912 132.356338501,-11.166975975 " /><polygon class="region" points="144.499710083,-14.166768074 144.682846069,-14.551202774 145.352096558,-14.954710007 145.217346192,-15.45711422 145.47618103,-16.078857422 145.405227661,-16.437057495 145.776306153,-16.992958069 145.959472656,-16.895814896 145.924728393,-17.218652725 146.146392822,-17.652805328 146.016815186,-18.24553299 146.334106445,-18.533506393 146.261642456,-18.866724014 146.82295227,-19.288627625 147.019577026,-19.18340683 147.126037598,-19.445497513 147.441467285,-19.419549942 147.397857666,-19.299060821 147.656463623,-19.82311058 147.821380615,-19.70989418 147.873260498,-19.887117386 148.258117675,-19.983289718 148.337936401,-20.153625488 148.556625367,-20.070447922 148.769073487,-20.242910385 148.927032471,-20.535564422 148.794662475,-20.420450211 148.667892456,-20.44393158 148.692291259,-20.692073822 149.221939087,-21.068170547 149.127593994,-21.148382187 149.164535523,-21.330459595 149.29423523,-21.276615143 149.294006348,-21.538091659 149.481567383,-21.535419464 149.424362183,-21.848976135 149.600692749,-22.276451111 149.500656128,-22.34033966 149.704513549,-22.385433197 149.70085144,-22.45703125 149.630126953,-22.538078308 149.630767822,-22.589334488 149.807266235,-22.385852814 150.035720825,-22.65820694 150.045303344,-22.663799286 150.058486939,-22.658081055 149.910339355,-22.349912644 150.037780762,-22.130893707 150.629211426,-22.663469315 150.532028198,-22.385196686 150.668655396,-22.353471756 150.834060669,-22.686143875 150.768157663,-23.06846536 150.423309326,-23.257848739 147.921493202,-26.271426775 147.550933443,-26.292013428 147.200960338,-26.106733549 146.686294006,-24.995054272 146.706880659,-24.603907861 147.283306951,-24.192174795 148.003839815,-22.504069227 148.168533041,-21.804123016 147.900906549,-21.001243539 146.809813926,-20.116017449 146.501014127,-20.054257489 146.171627674,-20.136604102 145.162881664,-20.980656886 144.401175493,-21.021830192 144.215895614,-20.671857087 144.051202388,-18.921991559 144.277655574,-17.85148559 144.38058884,-15.689886997 144.082696204,-14.452132206 144.499710083,-14.166768074 " /><polygon class="region" points="119.322898865,-19.992460251 120.192190849,-20.486072573 120.27221871,-21.030262035 119.215850932,-24.679532542 118.895739484,-25.175705287 118.511605746,-25.3997833 117.999427429,-25.239727576 117.59928812,-23.543136901 116.911048506,-23.575148047 116.414875762,-24.119337508 115.742641721,-25.287744294 115.4065247,-25.527827879 115.038396536,-25.511822307 114.638257225,-25.06366628 114.638257225,-24.53548239 115.134429969,-23.062969729 115.246468976,-21.581755672 116.815887451,-20.53015709 116.876716614,-20.72767067 117.180870056,-20.594549179 117.347503662,-20.765806198 117.656402588,-20.713472367 118.181373596,-20.338745117 118.674964905,-20.33999443 119.095970154,-19.965759277 119.322898865,-19.992460251 " /><polygon class="region" points="142.970233746,-22.919378482 142.557144814,-22.756658424 142.380107285,-22.349499982 142.542827342,-21.936411049 142.949985784,-21.75937352 143.363074716,-21.922093578 143.540112246,-22.329252021 143.377392188,-22.742340953 142.970233746,-22.919378482 " /><polygon class="region" points="124.522949219,-15.297677994 124.492607116,-15.286987305 124.568412781,-15.249523163 124.656448365,-15.400430679 124.466575622,-15.405420304 124.522949219,-15.297677994 " /><polygon class="region" points="115.392723084,-20.728240967 115.472259522,-20.782161713 115.325447083,-20.895322799 115.319976806,-20.822162629 115.392723084,-20.728240967 " /><polygon class="region" points="124.880805969,-15 124.882232666,-14.95997715 124.934440613,-14.950298309 124.958282471,-15.031935692 124.880805969,-15 " /><polygon class="region" points="116.820320129,-20.522367478 116.8411026,-20.468929291 116.883979797,-20.42709732 116.86958313,-20.518724441 116.820320129,-20.522367478 " /><polygon class="region" points="116.507225036,-20.623783111 116.463676453,-20.608751297 116.586357116,-20.577457428 116.554801941,-20.622745514 116.507225036,-20.623783111 " /><polygon class="region" points="136.727920533,-13.688005447 136.726852417,-13.844575882 136.923110962,-13.806853294 136.714736938,-13.938707352 136.703582763,-14.174906731 136.915084839,-14.142878532 136.947219849,-14.309846878 136.323638916,-14.2475214 136.408905029,-13.831300736 136.727920533,-13.688005447 " /><polygon class="region" points="123.699699402,-16.112688065 123.783569336,-16.115320206 123.79373169,-16.151151657 123.679786682,-16.113594055 123.699699402,-16.112688065 " /><polygon class="region" points="116.949310303,-20.421676636 116.852813721,-20.381425857 116.832504273,-20.355804443 116.840789795,-20.353780746 116.949310303,-20.421676636 " /><polygon class="region" points="136.997650146,-15.587038994 137.079421997,-15.668164253 137.073608399,-15.846201897 136.929656983,-15.727987289 136.997650146,-15.587038994 " /><polygon class="region" points="136.609054565,-15.527880669 136.586120605,-15.646533012 136.49269104,-15.640878678 136.52218628,-15.530801773 136.609054565,-15.527880669 " /><polygon class="region" points="136.764633179,-15.642970085 136.834899903,-15.688464164 136.73701477,-15.761568069 136.733795166,-15.649298668 136.764633179,-15.642970085 " /><polygon class="region" points="136.881072998,-15.513105392 136.902481079,-15.589995385 136.842239379,-15.645617485 136.840270996,-15.544366836 136.881072998,-15.513105392 " /><polygon class="region" points="116.589828491,-20.50393486 116.567520142,-20.487924575 116.608695984,-20.456027985 116.620742798,-20.476104737 116.589828491,-20.50393486 " /><polygon class="region" points="136.754852295,-11.044947624 136.681091308,-11.250039101 136.477661133,-11.453159332 136.71194458,-11.053912163 136.754852295,-11.044947624 " /><polygon class="region" points="136.376968384,-11.585162162 136.261932373,-11.664495468 136.158432007,-11.694925308 136.259597778,-11.574047089 136.376968384,-11.585162162 " /><polygon class="region" points="136.462234497,-11.495998383 136.427108765,-11.546655655 136.366394043,-11.555124282 136.468154907,-11.468690872 136.462234497,-11.495998383 " />
		  </g>
		</svg>