<?xml version="1.0" encoding="UTF-8"?>
	<svg xmlns:xlink="http://www.w3.org/1999/xlink" 
	xmlns="http://www.w3.org/2000/svg" 
	width="360px" height="180px">
	   <style type="text/css">
		  <![CDATA[     
		  .region 
		  { 
			fill:blue; 
			opacity:0.4; 
			stroke:blue;
		  }
		  ]]>
	   </style>

	<circle id="dot" x="-2" y="-2" r="2" style="stroke:none; stroke-width:0; fill:black; opacity:0.7;"/>


	 <image x="0" y="0" width="360" height="180" xlink:href="map.jpg"/>

 
	 <g transform="translate(180,90) scale(1,-1)">   <use xlink:href="#dot" transform="translate(21.71053,-18.14423)" />   <use xlink:href="#dot" transform="translate(23.66223,-18.31794)" />   <use xlink:href="#dot" transform="translate(23.65211,-17.59426)" />   <use xlink:href="#dot" transform="translate(134.567322,-14.505285)" />   <use xlink:href="#dot" transform="translate(134.567316,-14.505286)" />   <use xlink:href="#dot" transform="translate(134.568954,-14.506446)" />   <use xlink:href="#dot" transform="translate(134.568953,-14.506446)" />   <use xlink:href="#dot" transform="translate(134.568953,-14.506446)" />   <use xlink:href="#dot" transform="translate(132.30571,-14.03187)" />   <use xlink:href="#dot" transform="translate(132.30571,-14.03187)" />   <use xlink:href="#dot" transform="translate(132.30626,-14.03207)" />   <use xlink:href="#dot" transform="translate(132.43745,-14.25365)" />   <use xlink:href="#dot" transform="translate(132.30571,-14.03187)" />   <use xlink:href="#dot" transform="translate(134.568954,-14.506446)" />   <use xlink:href="#dot" transform="translate(132.39261,-14.12953)" />   <use xlink:href="#dot" transform="translate(134.876206,-14.71879)" />   <use xlink:href="#dot" transform="translate(132.39261,-14.12953)" />   <use xlink:href="#dot" transform="translate(132.30571,-14.03187)" />   <use xlink:href="#dot" transform="translate(132.39247,-14.12976)" />   <use xlink:href="#dot" transform="translate(132.30571,-14.03187)" />   <use xlink:href="#dot" transform="translate(132.39261,-14.12953)" />   <use xlink:href="#dot" transform="translate(132.30571,-14.03187)" />   <use xlink:href="#dot" transform="translate(132.39261,-14.12953)" />   <use xlink:href="#dot" transform="translate(132.39261,-14.12953)" />   <use xlink:href="#dot" transform="translate(132.39261,-14.12953)" />   <use xlink:href="#dot" transform="translate(132.39261,-14.12953)" />   <use xlink:href="#dot" transform="translate(132.39261,-14.12953)" />   <use xlink:href="#dot" transform="translate(132.30571,-14.03187)" />   <use xlink:href="#dot" transform="translate(132.39261,-14.12953)" />   <use xlink:href="#dot" transform="translate(132.39247,-14.12976)" />   <use xlink:href="#dot" transform="translate(132.39261,-14.12953)" />   <use xlink:href="#dot" transform="translate(132.39261,-14.12953)" />   <use xlink:href="#dot" transform="translate(132.39261,-14.12953)" />   <use xlink:href="#dot" transform="translate(132.39261,-14.12953)" />   <use xlink:href="#dot" transform="translate(132.39261,-14.12953)" />   <use xlink:href="#dot" transform="translate(132.39247,-14.12976)" />   <use xlink:href="#dot" transform="translate(132.39261,-14.12953)" />   <use xlink:href="#dot" transform="translate(132.39261,-14.12953)" />   <use xlink:href="#dot" transform="translate(132.30626,-14.03207)" />   <use xlink:href="#dot" transform="translate(134.876308,-14.719472)" />   <use xlink:href="#dot" transform="translate(132.55809,-14.26281)" />   <use xlink:href="#dot" transform="translate(132.30571,-14.03187)" />   <use xlink:href="#dot" transform="translate(132.39261,-14.12953)" />   <use xlink:href="#dot" transform="translate(132.39261,-14.12953)" />   <use xlink:href="#dot" transform="translate(132.55877,-14.26316)" />   <use xlink:href="#dot" transform="translate(134.876312,-14.719472)" />   <use xlink:href="#dot" transform="translate(132.39247,-14.12976)" />   <use xlink:href="#dot" transform="translate(132.39247,-14.12976)" />   <use xlink:href="#dot" transform="translate(137.04015,-15.8289)" />   <use xlink:href="#dot" transform="translate(137.040282,-15.832263)" />   <use xlink:href="#dot" transform="translate(137.04015,-15.8289)" />   <use xlink:href="#dot" transform="translate(137.040282,-15.832263)" />   <use xlink:href="#dot" transform="translate(137.040282,-15.832263)" />   <use xlink:href="#dot" transform="translate(136.564403,-15.548032)" />   <use xlink:href="#dot" transform="translate(137.04015,-15.8289)" />   <use xlink:href="#dot" transform="translate(137.04015,-15.8289)" />   <use xlink:href="#dot" transform="translate(137.04015,-15.8289)" />   <use xlink:href="#dot" transform="translate(133.78864,-12.22494)" />   <use xlink:href="#dot" transform="translate(137.04015,-15.8289)" />   <use xlink:href="#dot" transform="translate(137.0425,-15.8358)" />   <use xlink:href="#dot" transform="translate(137.04015,-15.8289)" />   <use xlink:href="#dot" transform="translate(137.040282,-15.832263)" />   <use xlink:href="#dot" transform="translate(137.04015,-15.8289)" />   <use xlink:href="#dot" transform="translate(137.040282,-15.832263)" />   <use xlink:href="#dot" transform="translate(137.040282,-15.832263)" />   <use xlink:href="#dot" transform="translate(137.04015,-15.8289)" />   <use xlink:href="#dot" transform="translate(137.04015,-15.8289)" />   <use xlink:href="#dot" transform="translate(137.04015,-15.8289)" />   <use xlink:href="#dot" transform="translate(137.04015,-15.8289)" />   <use xlink:href="#dot" transform="translate(137.04015,-15.8289)" />   <use xlink:href="#dot" transform="translate(137.04015,-15.8289)" />   <use xlink:href="#dot" transform="translate(137.040282,-15.832263)" />   <use xlink:href="#dot" transform="translate(137.0425,-15.8358)" />   <use xlink:href="#dot" transform="translate(137.04015,-15.8289)" />   <use xlink:href="#dot" transform="translate(131.1116,-15.59471)" />   <use xlink:href="#dot" transform="translate(137.040282,-15.832263)" />   <use xlink:href="#dot" transform="translate(137.040282,-15.832263)" />   <use xlink:href="#dot" transform="translate(137.0425,-15.8358)" />   <use xlink:href="#dot" transform="translate(137.040282,-15.832263)" />   <use xlink:href="#dot" transform="translate(137.040282,-15.832263)" />   <use xlink:href="#dot" transform="translate(137.04015,-15.8289)" />   <use xlink:href="#dot" transform="translate(137.04015,-15.8289)" />   <use xlink:href="#dot" transform="translate(137.04015,-15.8289)" />   <use xlink:href="#dot" transform="translate(136.576684,-15.530841)" />   <use xlink:href="#dot" transform="translate(137.040282,-15.832263)" />   <use xlink:href="#dot" transform="translate(137.04015,-15.8289)" />   <use xlink:href="#dot" transform="translate(137.040282,-15.832263)" />   <use xlink:href="#dot" transform="translate(137.040282,-15.832263)" />   <use xlink:href="#dot" transform="translate(137.04015,-15.8289)" />   <use xlink:href="#dot" transform="translate(137.040282,-15.832263)" />   <use xlink:href="#dot" transform="translate(137.040282,-15.832263)" />   <use xlink:href="#dot" transform="translate(137.04015,-15.8289)" />   <use xlink:href="#dot" transform="translate(137.040282,-15.832263)" />   <use xlink:href="#dot" transform="translate(137.04015,-15.8289)" />   <use xlink:href="#dot" transform="translate(137.040282,-15.832263)" />   <use xlink:href="#dot" transform="translate(131.31367,-15.39433)" />   <use xlink:href="#dot" transform="translate(131.24315,-15.35201)" />   <use xlink:href="#dot" transform="translate(131.31367,-15.39433)" />   <use xlink:href="#dot" transform="translate(131.25333,-15.39736)" />   <use xlink:href="#dot" transform="translate(131.31367,-15.39433)" />   <use xlink:href="#dot" transform="translate(131.24315,-15.35201)" />   <use xlink:href="#dot" transform="translate(131.1116,-15.59471)" />   <use xlink:href="#dot" transform="translate(131.25333,-15.39736)" />   <use xlink:href="#dot" transform="translate(131.25333,-15.39736)" />   <use xlink:href="#dot" transform="translate(131.22624,-15.34171)" />   <use xlink:href="#dot" transform="translate(132.57843,-13.49857)" />   <use xlink:href="#dot" transform="translate(132.704418,-13.565461)" />   <use xlink:href="#dot" transform="translate(132.90365,-13.94383)" />   <use xlink:href="#dot" transform="translate(132.90289,-13.94278)" />   <use xlink:href="#dot" transform="translate(132.894719,-13.343168)" />   <use xlink:href="#dot" transform="translate(132.892396,-13.344911)" />   <use xlink:href="#dot" transform="translate(132.69644,-13.26008)" />   <use xlink:href="#dot" transform="translate(132.938551,-13.042396)" />   <use xlink:href="#dot" transform="translate(131.9709,-14.4872)" />   <use xlink:href="#dot" transform="translate(137.249007,-16.805686)" />   <use xlink:href="#dot" transform="translate(136.50729,-13.90038)" />   <use xlink:href="#dot" transform="translate(133.953679,-12.601662)" />   <use xlink:href="#dot" transform="translate(136.50729,-13.90038)" />   <use xlink:href="#dot" transform="translate(136.50729,-13.90038)" />   <use xlink:href="#dot" transform="translate(136.50729,-13.90038)" />   <use xlink:href="#dot" transform="translate(137.24462,-16.81579)" />   <use xlink:href="#dot" transform="translate(136.50729,-13.90038)" />   <use xlink:href="#dot" transform="translate(136.50729,-13.90038)" />   <use xlink:href="#dot" transform="translate(131.9709,-14.4872)" />   <use xlink:href="#dot" transform="translate(136.50729,-13.90038)" />   <use xlink:href="#dot" transform="translate(136.50729,-13.90038)" />   <use xlink:href="#dot" transform="translate(137.246633,-16.80838)" />   <use xlink:href="#dot" transform="translate(136.50729,-13.90038)" />   <use xlink:href="#dot" transform="translate(136.50729,-13.90038)" />   <use xlink:href="#dot" transform="translate(134.09288,-12.546153)" />   <use xlink:href="#dot" transform="translate(137.42216,-16.73576)" />   <use xlink:href="#dot" transform="translate(137.249007,-16.805686)" />   <use xlink:href="#dot" transform="translate(137.24462,-16.81579)" />   <use xlink:href="#dot" transform="translate(137.249007,-16.805686)" />   <use xlink:href="#dot" transform="translate(134.061083,-12.548363)" />   <use xlink:href="#dot" transform="translate(137.249007,-16.805686)" />   <use xlink:href="#dot" transform="translate(131.9709,-14.4872)" />   <use xlink:href="#dot" transform="translate(136.50729,-13.90038)" />   <use xlink:href="#dot" transform="translate(137.545053,-16.819624)" />   <use xlink:href="#dot" transform="translate(137.545053,-16.819624)" />   <use xlink:href="#dot" transform="translate(137.545053,-16.819624)" />   <use xlink:href="#dot" transform="translate(137.040282,-15.832263)" />   <use xlink:href="#dot" transform="translate(137.476231,-16.732622)" />   <use xlink:href="#dot" transform="translate(137.476231,-16.732622)" />   <use xlink:href="#dot" transform="translate(134.26666,-14.13262)" />   <use xlink:href="#dot" transform="translate(137.304564,-16.698701)" />   <use xlink:href="#dot" transform="translate(137.304564,-16.698701)" />   <use xlink:href="#dot" transform="translate(137.545053,-16.819624)" />   <use xlink:href="#dot" transform="translate(137.040282,-15.832263)" />   <use xlink:href="#dot" transform="translate(134.26666,-14.13262)" />   <use xlink:href="#dot" transform="translate(137.040282,-15.832263)" />   <use xlink:href="#dot" transform="translate(137.040282,-15.832263)" />   <use xlink:href="#dot" transform="translate(137.040282,-15.832263)" />   <use xlink:href="#dot" transform="translate(137.476231,-16.732622)" />   <use xlink:href="#dot" transform="translate(137.249007,-16.805686)" />   <use xlink:href="#dot" transform="translate(137.545053,-16.819624)" />   <use xlink:href="#dot" transform="translate(137.545053,-16.819624)" />   <use xlink:href="#dot" transform="translate(137.040282,-15.832263)" />   <use xlink:href="#dot" transform="translate(137.04015,-15.8289)" />   <use xlink:href="#dot" transform="translate(137.545053,-16.819624)" />   <use xlink:href="#dot" transform="translate(137.04015,-15.8289)" />   <use xlink:href="#dot" transform="translate(137.545053,-16.819624)" />   <use xlink:href="#dot" transform="translate(137.476231,-16.732622)" />   <use xlink:href="#dot" transform="translate(134.186773,-14.134427)" />   <use xlink:href="#dot" transform="translate(134.26666,-14.13262)" />   <use xlink:href="#dot" transform="translate(137.545053,-16.819624)" />   <use xlink:href="#dot" transform="translate(137.304564,-16.698701)" />   <use xlink:href="#dot" transform="translate(137.545053,-16.819624)" />   <use xlink:href="#dot" transform="translate(136.50729,-13.90038)" />   <use xlink:href="#dot" transform="translate(136.50729,-13.90038)" />   <use xlink:href="#dot" transform="translate(134.061472,-12.548008)" />   <use xlink:href="#dot" transform="translate(137.545053,-16.819624)" />   <use xlink:href="#dot" transform="translate(137.040282,-15.832263)" />   <use xlink:href="#dot" transform="translate(137.304564,-16.698701)" />   <use xlink:href="#dot" transform="translate(137.040282,-15.832263)" />   <use xlink:href="#dot" transform="translate(137.304564,-16.698701)" />   <use xlink:href="#dot" transform="translate(134.186773,-14.134427)" />   <use xlink:href="#dot" transform="translate(137.040282,-15.832263)" />   <use xlink:href="#dot" transform="translate(136.50729,-13.90038)" />   <use xlink:href="#dot" transform="translate(134.025148,-12.607788)" />   <use xlink:href="#dot" transform="translate(137.476231,-16.732622)" />   <use xlink:href="#dot" transform="translate(137.545053,-16.819624)" />   <use xlink:href="#dot" transform="translate(137.545053,-16.819624)" />   <use xlink:href="#dot" transform="translate(137.476231,-16.732622)" />   <use xlink:href="#dot" transform="translate(137.040282,-15.832263)" />   <use xlink:href="#dot" transform="translate(137.04015,-15.8289)" />   <use xlink:href="#dot" transform="translate(137.545053,-16.819624)" />   <use xlink:href="#dot" transform="translate(137.040282,-15.832263)" />   <use xlink:href="#dot" transform="translate(137.04015,-15.8289)" />   <use xlink:href="#dot" transform="translate(137.04015,-15.8289)" />   <use xlink:href="#dot" transform="translate(134.057102,-12.69476)" />   <use xlink:href="#dot" transform="translate(137.04015,-15.8289)" />   <use xlink:href="#dot" transform="translate(137.476231,-16.732622)" />   <use xlink:href="#dot" transform="translate(137.04015,-15.8289)" />   <use xlink:href="#dot" transform="translate(137.040282,-15.832263)" />   <use xlink:href="#dot" transform="translate(137.545053,-16.819624)" />   <use xlink:href="#dot" transform="translate(137.249007,-16.805686)" />   <use xlink:href="#dot" transform="translate(137.476231,-16.732622)" />   <use xlink:href="#dot" transform="translate(137.040282,-15.832263)" />   <use xlink:href="#dot" transform="translate(137.04015,-15.8289)" />   <use xlink:href="#dot" transform="translate(137.040282,-15.832263)" />   <use xlink:href="#dot" transform="translate(137.04015,-15.8289)" />   <use xlink:href="#dot" transform="translate(134.052915,-12.551409)" />   <use xlink:href="#dot" transform="translate(134.061472,-12.548008)" />   <use xlink:href="#dot" transform="translate(137.476231,-16.732622)" />   <use xlink:href="#dot" transform="translate(137.304564,-16.698701)" />   <use xlink:href="#dot" transform="translate(137.304564,-16.698701)" />   <use xlink:href="#dot" transform="translate(137.040282,-15.832263)" />   <use xlink:href="#dot" transform="translate(137.476231,-16.732622)" />   <use xlink:href="#dot" transform="translate(137.545053,-16.819624)" />   <use xlink:href="#dot" transform="translate(137.04015,-15.8289)" />   <use xlink:href="#dot" transform="translate(137.040282,-15.832263)" />   <use xlink:href="#dot" transform="translate(137.476231,-16.732622)" />   <use xlink:href="#dot" transform="translate(137.04015,-15.8289)" />   <use xlink:href="#dot" transform="translate(137.04015,-15.8289)" />   <use xlink:href="#dot" transform="translate(137.04015,-15.8289)" />   <use xlink:href="#dot" transform="translate(137.040282,-15.832263)" />   <use xlink:href="#dot" transform="translate(137.304564,-16.698701)" />   <use xlink:href="#dot" transform="translate(130.5822,-13.0984)" />   <use xlink:href="#dot" transform="translate(129.950338,-14.417259)" />   <use xlink:href="#dot" transform="translate(129.98184,-14.523247)" />   <use xlink:href="#dot" transform="translate(131.05251,-14.32122)" />   <use xlink:href="#dot" transform="translate(136.50729,-13.90038)" />   <use xlink:href="#dot" transform="translate(133.29008,-12.79437)" />   <use xlink:href="#dot" transform="translate(133.29008,-12.79437)" />   <use xlink:href="#dot" transform="translate(130.70074,-13.87196)" />   <use xlink:href="#dot" transform="translate(130.70074,-13.87196)" />   <use xlink:href="#dot" transform="translate(133.30168,-12.78238)" />   <use xlink:href="#dot" transform="translate(133.29008,-12.79437)" />   <use xlink:href="#dot" transform="translate(134.423702,-14.696733)" />   <use xlink:href="#dot" transform="translate(134.423706,-14.696733)" />   <use xlink:href="#dot" transform="translate(134.423702,-14.696733)" />   <use xlink:href="#dot" transform="translate(134.423702,-14.696733)" />   <use xlink:href="#dot" transform="translate(134.423706,-14.696733)" />   <use xlink:href="#dot" transform="translate(134.423702,-14.696733)" />   <use xlink:href="#dot" transform="translate(132.790118,-12.865445)" />   <use xlink:href="#dot" transform="translate(132.588495,-13.570222)" />   <use xlink:href="#dot" transform="translate(134.37735,-20.192567)" />   <use xlink:href="#dot" transform="translate(132.930791,-12.475853)" />   <use xlink:href="#dot" transform="translate(132.937286,-12.546261)" />   <use xlink:href="#dot" transform="translate(132.928851,-12.547317)" />   <use xlink:href="#dot" transform="translate(134.3751,-20.192567)" />   <use xlink:href="#dot" transform="translate(132.953868,-12.515488)" />   <use xlink:href="#dot" transform="translate(137.42469,-16.36546)" />   <use xlink:href="#dot" transform="translate(132.95782,-12.40887)" />   <use xlink:href="#dot" transform="translate(137.423902,-16.363583)" />   <use xlink:href="#dot" transform="translate(137.42322,-16.36707)" />   <use xlink:href="#dot" transform="translate(137.42412,-16.36653)" />   <use xlink:href="#dot" transform="translate(137.42188,-16.36825)" />   <use xlink:href="#dot" transform="translate(132.99188,-12.5838)" />   <use xlink:href="#dot" transform="translate(137.42412,-16.36653)" />   <use xlink:href="#dot" transform="translate(137.42451,-16.36478)" />   <use xlink:href="#dot" transform="translate(137.42188,-16.36825)" />   <use xlink:href="#dot" transform="translate(132.94221,-12.43386)" />   <use xlink:href="#dot" transform="translate(137.42322,-16.36707)" />   <use xlink:href="#dot" transform="translate(137.42188,-16.36825)" />   <use xlink:href="#dot" transform="translate(137.42469,-16.36546)" />   <use xlink:href="#dot" transform="translate(137.42469,-16.36546)" />   <use xlink:href="#dot" transform="translate(137.423902,-16.363583)" />   <use xlink:href="#dot" transform="translate(132.99324,-12.58674)" />   <use xlink:href="#dot" transform="translate(137.423902,-16.363583)" />   <use xlink:href="#dot" transform="translate(132.95125,-12.43465)" />   <use xlink:href="#dot" transform="translate(137.42469,-16.36546)" />   <use xlink:href="#dot" transform="translate(137.42469,-16.36546)" />   <use xlink:href="#dot" transform="translate(132.897547,-12.502808)" />   <use xlink:href="#dot" transform="translate(137.42322,-16.36707)" />   <use xlink:href="#dot" transform="translate(137.42451,-16.36478)" />   <use xlink:href="#dot" transform="translate(137.42469,-16.36546)" />   <use xlink:href="#dot" transform="translate(137.42322,-16.36707)" />   <use xlink:href="#dot" transform="translate(132.852155,-12.78253)" />   <use xlink:href="#dot" transform="translate(137.37953,-16.53256)" />   <use xlink:href="#dot" transform="translate(137.37647,-16.53333)" />   <use xlink:href="#dot" transform="translate(137.37953,-16.53256)" />   <use xlink:href="#dot" transform="translate(137.42309,-16.36793)" />   <use xlink:href="#dot" transform="translate(137.37647,-16.53333)" />   <use xlink:href="#dot" transform="translate(137.37953,-16.53256)" />   <use xlink:href="#dot" transform="translate(137.37953,-16.53256)" />   <use xlink:href="#dot" transform="translate(137.42309,-16.36793)" />   <use xlink:href="#dot" transform="translate(137.37953,-16.53256)" />   <use xlink:href="#dot" transform="translate(137.18275,-16.48066)" />   <use xlink:href="#dot" transform="translate(137.37473,-16.5265)" />   <use xlink:href="#dot" transform="translate(137.37953,-16.53256)" />   <use xlink:href="#dot" transform="translate(137.37721,-16.53915)" />   <use xlink:href="#dot" transform="translate(137.37953,-16.53256)" />   <use xlink:href="#dot" transform="translate(137.37163,-16.53318)" />   <use xlink:href="#dot" transform="translate(137.37953,-16.53256)" />   <use xlink:href="#dot" transform="translate(137.37953,-16.53256)" />   <use xlink:href="#dot" transform="translate(137.37473,-16.5265)" />   <use xlink:href="#dot" transform="translate(137.37953,-16.53256)" />   <use xlink:href="#dot" transform="translate(137.37856,-16.53471)" />   <use xlink:href="#dot" transform="translate(137.37647,-16.53333)" />   <use xlink:href="#dot" transform="translate(137.37647,-16.53333)" />   <use xlink:href="#dot" transform="translate(137.37953,-16.53256)" />   <use xlink:href="#dot" transform="translate(137.37953,-16.53256)" />   <use xlink:href="#dot" transform="translate(137.37473,-16.5265)" />   <use xlink:href="#dot" transform="translate(137.37721,-16.53915)" />   <use xlink:href="#dot" transform="translate(137.18275,-16.48066)" />   <use xlink:href="#dot" transform="translate(137.5479,-16.71977)" />   <use xlink:href="#dot" transform="translate(137.37953,-16.53256)" />   <use xlink:href="#dot" transform="translate(137.37953,-16.53256)" /><polygon class="region" points="23.66223,-18.31794 21.71053,-18.14423 23.65211,-17.59426 133.78864,-12.22494 136.50729,-13.90038 137.42451,-16.36478 137.5479,-16.71977 137.545053,-16.819624 134.37735,-20.192567 134.3751,-20.192567 23.66223,-18.31794 " />
		  </g>
		</svg>