<?xml version="1.0" encoding="UTF-8"?>
	<svg xmlns:xlink="http://www.w3.org/1999/xlink" 
	xmlns="http://www.w3.org/2000/svg" 
	width="360px" height="180px">
	   <style type="text/css">
		  <![CDATA[     
		  .region 
		  { 
			fill:blue; 
			opacity:0.4; 
			stroke:blue;
		  }
		  ]]>
	   </style>

	<circle id="dot" x="-2" y="-2" r="2" style="stroke:none; stroke-width:0; fill:black; opacity:0.7;"/>


	 <image x="0" y="0" width="360" height="180" xlink:href="map.jpg"/>

 
	 <g transform="translate(180,90) scale(1,-1)"><polygon class="region" points="-71.942901148,12.268272084 -71.931129455,12.156235695 -72.175987244,12.219427109 -72.240394592,11.901659966 -73.277786255,11.288807869 -74.106124878,11.351082802 -74.295280457,10.992257118 -74.861083985,11.11297226 -75.259002686,10.805981636 -75.512504578,10.576473236 -75.507659912,10.303489685 -75.586990357,10.296926499 -75.698829651,10.146650315 -75.688400269,10.131695747 -75.621139526,10.199005127 -75.540878296,10.245358467 -75.516304016,10.239344597 -75.699874878,9.7038393020001 -75.568023682,9.6193380350001 -75.623199463,9.409775734 -76.089408875,9.33380413 -76.337020874,8.9235992430001 -76.936614991,8.5528974530001 -76.765045166,8.396164894 -76.808914187,7.901226998 -76.931556702,7.9368290900001 -76.841651916,8.1355514520001 -76.933540344,8.0989580150001 -77.872451783,9.1150817870001 -78.561691284,9.442838669 -79.063049316,9.448180199 -78.971687317,9.564364433 -79.632652283,9.616992951 -79.805854797,9.3746318820001 -81.087112427,8.8044433590001 -81.515686035,8.799556732 -81.889343267,9.187259673 -81.781959533,8.947772979 -82.111785888,8.927643776 -82.268791198,9.0107030840001 -82.175247192,9.1939125060001 -82.321556091,9.1866531370001 -82.398406982,9.2629194260001 -82.343643188,9.428858755 -82.786911011,9.660383225 -83.56060175,10.676629747 -83.192244008,10.817551925 -82.623506824,10.745862364 -81.054387876,9.854609023 -79.793827319,10.51236754 -78.705417977,10.47520626 -77.595619467,10.015359345 -77.066330719,9.5923598000001 -76.225984702,11.123945815 -75.258843938,11.91954969 -74.223509972,12.242711014 -73.622808248,12.172307638 -72.916714555,12.55289572 -72.371839299,12.503885777 -71.942901148,12.268272084 " /><polygon class="region" points="-82.299102835,9.433448728 -82.337303162,9.410572052 -82.246376038,9.331456185 -82.238021851,9.3878135680001 -82.299102835,9.433448728 " /><polygon class="region" points="-82.140686052,9.231087663 -82.16279602,9.159180641 -82.105422973,9.1278486250001 -82.07467652,9.170610417 -82.140686052,9.231087663 " /><polygon class="region" points="-82.204620362,9.3586101540001 -82.21875763,9.3465003960001 -82.156364441,9.309783935 -82.157867431,9.2498388290001 -82.084846497,9.289402008 -82.204620362,9.3586101540001 " /><polygon class="region" points="-82.261336079,9.234758603 -82.240409851,9.2515916830001 -82.296211243,9.2936649320001 -82.295600891,9.234136581 -82.261336079,9.234758603 " /><polygon class="region" points="-75.57787995,10.372999205 -75.589500428,10.359019279 -75.585815429,10.32406044 -75.540557861,10.352057457 -75.57787995,10.372999205 " /><polygon class="region" points="-82.056457519,9.1791763310001 -82.067054748,9.1486167900001 -82.027763366,9.1266212460001 -82.010787964,9.1414155960001 -82.056457519,9.1791763310001 " /><polygon class="region" points="-82.179133535,9.3047505050001 -82.18585968,9.315468788 -82.223655701,9.333505631 -82.211013794,9.307729721 -82.179133535,9.3047505050001 " /><polygon class="region" points="-81.567123413,9.093575478 -81.543075562,9.092226028 -81.541755676,9.095470429 -81.567428588,9.1080484390001 -81.567123413,9.093575478 " /><polygon class="region" points="-82.161697364,9.126593873 -82.157867431,9.1409225460001 -82.16457367,9.151865006 -82.176338196,9.1420068740001 -82.161697364,9.126593873 " /><polygon class="region" points="-75.847320535,9.806905715 -75.853569031,9.7949523930001 -75.820297241,9.7971925730001 -75.841537475,9.8013858800001 -75.847320535,9.806905715 " /><polygon class="region" points="-76.17918396,9.400384903 -76.19141388,9.3863534920001 -76.185165405,9.380383491 -76.174316406,9.390506744 -76.17918396,9.400384903 " /><polygon class="region" points="-82.333023078,9.236523629 -82.341079712,9.23829937 -82.352645874,9.2380790710001 -82.327087402,9.221465111 -82.333023078,9.236523629 " /><polygon class="region" points="-75.905914306,9.6899070740001 -75.89377594,9.6914892200001 -75.899620056,9.720273971 -75.900154113,9.694542885 -75.905914306,9.6899070740001 " /><polygon class="region" points="-75.757003784,10.179571152 -75.741012573,10.177032471 -75.726402283,10.183920861 -75.749122619,10.187614441 -75.757003784,10.179571152 " /><polygon class="region" points="-77.762207032,9.0071516030001 -77.759368896,8.9982099540001 -77.748062134,8.998744011 -77.753913879,9.009963989 -77.762207032,9.0071516030001 " /><polygon class="region" points="-77.72379303,8.929975509 -77.71408844,8.927511215 -77.731498726,8.942331306 -77.73425293,8.9395561220001 -77.72379303,8.929975509 " /><polygon class="region" points="-77.714698791,8.9164791110001 -77.70728302,8.9123916630001 -77.697387695,8.916131019 -77.705047607,8.922514915 -77.714698791,8.9164791110001 " /><polygon class="region" points="-76.943763477,8.2062348200001 -76.938606262,8.208675385 -76.952033997,8.2269926070001 -76.952697754,8.219413758 -76.943763477,8.2062348200001 " /><polygon class="region" points="-78.799127666,9.509946497 -78.808425904,9.5072660450001 -78.807846067,9.49646854 -78.793159485,9.506735802 -78.799127666,9.509946497 " /><polygon class="region" points="-76.924064674,8.528598824 -76.917633057,8.533215523 -76.936347961,8.544401169 -76.936798095,8.541643143 -76.924064674,8.528598824 " /><polygon class="region" points="-82.232324489,9.35304827 -82.237915039,9.3489732740001 -82.238197326,9.335420609 -82.233459473,9.340605736 -82.232324489,9.35304827 " /><polygon class="region" points="-75.787841797,10.164411545 -75.794334412,10.174531937 -75.800590515,10.17269516 -75.797805784,10.166485786 -75.787841797,10.164411545 " /><polygon class="region" points="-79.557111853,9.642624879 -79.561065674,9.6436891560001 -79.571144104,9.6366605760001 -79.562110901,9.6356296540001 -79.557111853,9.642624879 " /><polygon class="region" points="-74.190383993,11.315961861 -74.193115235,11.326789856 -74.198242188,11.326591492 -74.199882507,11.32430172 -74.190383993,11.315961861 " /><polygon class="region" points="-78.24723816,9.3125982290001 -78.242576599,9.305731774 -78.236824035,9.3051290510001 -78.243934631,9.314973831 -78.24723816,9.3125982290001 " /><polygon class="region" points="-75.938087463,9.428547859 -75.930915832,9.4225721350001 -75.928375246,9.4267091720001 -75.935081482,9.432684899 -75.938087463,9.428547859 " /><polygon class="region" points="-77.929642565,9.134817417 -77.929237366,9.141331673 -77.936897278,9.145412445 -77.937561035,9.1421899800001 -77.929642565,9.134817417 " /><polygon class="region" points="-75.669143677,10.178816795 -75.671928406,10.174450874 -75.671691895,10.170310974 -75.663345337,10.176513672 -75.669143677,10.178816795 " /><polygon class="region" points="-78.885768154,9.593268613 -78.88847351,9.590554238 -78.879867554,9.586278916 -78.880867004,9.593164444 -78.885768154,9.593268613 " /><polygon class="region" points="-82.236994464,9.2448024990001 -82.242446899,9.2426729200001 -82.237754822,9.234991074 -82.234207153,9.2385921480001 -82.236994464,9.2448024990001 " /><polygon class="region" points="-75.826591531,9.8083390530001 -75.828216552,9.8056411740001 -75.817810058,9.8007783890001 -75.818016052,9.8048458100001 -75.826591531,9.8083390530001 " /><polygon class="region" points="-82.206260681,9.2200956340001 -82.21660614,9.2183237080001 -82.21585083,9.212079048 -82.210159301,9.2161788940001 -82.206260681,9.2200956340001 " /><polygon class="region" points="-82.332084656,9.293032646 -82.337867737,9.2933826450001 -82.328796386,9.2844619750001 -82.328941345,9.2883720400001 -82.332084656,9.293032646 " /><polygon class="region" points="-82.18888855,9.259692192 -82.181541443,9.2570085520001 -82.176307678,9.264019966 -82.178604126,9.2647581100001 -82.18888855,9.259692192 " /><polygon class="region" points="-75.908409119,9.727141381 -75.901924133,9.7259931570001 -75.901000976,9.7308197020001 -75.904708862,9.7344980240001 -75.908409119,9.727141381 " /><polygon class="region" points="-79.588356018,9.626317978 -79.587127685,9.62104702 -79.579833985,9.629189492 -79.579834022,9.629189479 -79.588356018,9.626317978 " /><polygon class="region" points="-78.237365722,9.297709465 -78.234794616,9.299171448 -78.236083982,9.3038530430001 -78.239509576,9.3006868470001 -78.237365722,9.297709465 " /><polygon class="region" points="-75.872055051,9.7822933200001 -75.866264343,9.781931878 -75.865119934,9.7847929000001 -75.871383667,9.785159111 -75.872055051,9.7822933200001 " /><polygon class="region" points="-68.680953678,13.154814992 -68.144519508,13.172388371 -67.182008102,12.752604996 -66.688201895,12.861258029 -65.915523875,12.75870595 -65.358260408,12.401090918 -64.843288704,12.766150762 -64.197103947,12.699514121 -63.779023141,12.426738772 -63.57158676,12.074252317 -63.529103953,10.771139385 -63.598682712,10.631981866 -65.132494414,10.595425361 -67.812133267,11.265335075 -69.16293482,11.814441397 -69.514362866,12.242744328 -69.62418413,12.868725536 -69.265075872,13.277546196 -68.680953678,13.154814992 " /><polygon class="region" points="-63.934513084,11.108886729 -64.047523499,10.986579895 -64.205802905,11.079553603 -64.406654358,10.968809128 -63.89397049,10.879716873 -63.776969909,10.994605065 -63.934513084,11.108886729 " /><polygon class="region" points="-69.134582519,12.269155502 -68.956489564,12.104356763 -68.733947755,12.041252138 -69.150192261,12.385671616 -69.134582519,12.269155502 " /><polygon class="region" points="-68.299560547,12.185246467 -68.27456665,12.13485241 -68.274421692,12.050683022 -68.23902893,12.018631936 -68.195404053,12.215084076 -68.401626587,12.292933464 -68.299560547,12.185246467 " /><polygon class="region" points="-65.284164429,10.87707901 -65.196380615,10.893964767 -65.216087342,10.950863838 -65.417480468,10.913884163 -65.284164429,10.87707901 " /><polygon class="region" points="-64.610527039,11.897472381 -64.640998841,11.829051018 -64.572067261,11.810477256 -64.559928894,11.85927391 -64.610527039,11.897472381 " /><polygon class="region" points="-63.991657262,10.795627532 -63.956886291,10.742582321 -63.892482758,10.73303318 -63.912124634,10.784731865 -63.991657262,10.795627532 " /><polygon class="region" points="-66.096641544,11.815442079 -66.106094357,11.829355243 -66.19722748,11.815626142 -66.132369995,11.773251534 -66.096641544,11.815442079 " /><polygon class="region" points="-64.155670166,10.830674172 -64.214012154,10.824544898 -64.223228454,10.801758766 -64.153244018,10.798722265 -64.155670166,10.830674172 " /><polygon class="region" points="-66.5824191,11.779820197 -66.609260559,11.826928139 -66.699127189,11.77232074 -66.669784546,11.758171082 -66.5824191,11.779820197 " /><polygon class="region" points="-66.753013611,11.771461487 -66.724212647,11.781686783 -66.855186462,11.751382828 -66.819152832,11.743309021 -66.753013611,11.771461487 " /><polygon class="region" points="-66.714728218,11.855234048 -66.704048157,11.867008209 -66.817077631,11.870964059 -66.714042663,11.863442421 -66.714728218,11.855234048 " /><polygon class="region" points="-68.295768737,12.157025339 -68.314498902,12.158769608 -68.325668335,12.143628121 -68.297271729,12.136990547 -68.295768737,12.157025339 " /><polygon class="region" points="-66.097961461,11.830606464 -66.081977842,11.864330291 -66.0909729,11.876664162 -66.111557007,11.835767746 -66.097961461,11.830606464 " /><polygon class="region" points="-67.66708651,11.97691976 -67.647079467,11.968780518 -67.628639221,11.969285965 -67.666015625,11.984823227 -67.66708651,11.97691976 " /><polygon class="region" points="-66.671483685,11.949435966 -66.660148621,11.95926857 -66.688201904,11.961935997 -66.683174133,11.952105522 -66.671483685,11.949435966 " /><polygon class="region" points="-68.646644617,11.973197075 -68.640678403,11.990325929 -68.650886534,11.998876571 -68.652435302,11.994478226 -68.646644617,11.973197075 " /><polygon class="region" points="-66.591032988,11.806780415 -66.582962036,11.813654899 -66.590568543,11.825068474 -66.594032288,11.822039604 -66.591032988,11.806780415 " /><polygon class="region" points="-66.638587952,11.89650631 -66.646286011,11.895497322 -66.626976014,11.882148743 -66.628715515,11.890638351 -66.638587952,11.89650631 " /><polygon class="region" points="-66.932907103,11.822867391 -66.926048279,11.83330059 -66.944213867,11.830775261 -66.94013977,11.822546959 -66.932907103,11.822867391 " /><polygon class="region" points="-66.609535178,11.868778161 -66.611755371,11.858865738 -66.604148865,11.847681998 -66.601432807,11.854611408 -66.609535178,11.868778161 " /><polygon class="region" points="-66.766624451,11.886511803 -66.775070191,11.889862061 -66.791412353,11.889897347 -66.784584046,11.885609627 -66.766624451,11.886511803 " /><polygon class="region" points="-66.685409546,11.869522095 -66.681602478,11.863588333 -66.68762207,11.878696442 -66.685409546,11.869522095 " /><polygon class="region" points="-63.732001284,11.183444604 -63.731685639,11.189634323 -63.740776062,11.194684028 -63.738666534,11.186637879 -63.732001284,11.183444604 " /><polygon class="region" points="-66.935142522,11.850435266 -66.923477172,11.850810052 -66.922363281,11.854732513 -66.934310913,11.857574463 -66.935142522,11.850435266 " /><polygon class="region" points="-66.887481689,11.899315834 -66.872779847,11.899954796 -66.872573852,11.901797295 -66.884506225,11.904180527 -66.887481689,11.899315834 " /><polygon class="region" points="-65.417831333,10.958504738 -65.412445068,10.954616546 -65.407592773,10.95855999 -65.415771484,10.962871551 -65.417831333,10.958504738 " /><polygon class="region" points="-64.404403685,11.72463226 -64.40274811,11.719578742 -64.396224976,11.722129822 -64.400688172,11.728783607 -64.404403685,11.72463226 " /><polygon class="region" points="-64.422221164,11.786097603 -64.418411253,11.784371374 -64.413764954,11.788986206 -64.423568725,11.790330886 -64.422221164,11.786097603 " /><polygon class="region" points="-65.428295686,10.952788464 -65.424324036,10.95660305 -65.426681519,10.960265159 -65.43359375,10.951708794 -65.428295686,10.952788464 " /><polygon class="region" points="-66.715393067,11.877914429 -66.720718384,11.878911018 -66.721740723,11.875431061 -66.715133667,11.875617983 -66.715393067,11.877914429 " />
		  </g>
		</svg>