<?xml version="1.0" encoding="UTF-8"?>
	<svg xmlns:xlink="http://www.w3.org/1999/xlink" 
	xmlns="http://www.w3.org/2000/svg" 
	width="360px" height="180px">
	   <style type="text/css">
		  <![CDATA[     
		  .region 
		  { 
			fill:blue; 
			opacity:0.4; 
			stroke:blue;
		  }
		  ]]>
	   </style>

	<circle id="dot" x="-2" y="-2" r="2" style="stroke:none; stroke-width:0; fill:black; opacity:0.7;"/>


	 <image x="0" y="0" width="360" height="180" xlink:href="map.jpg"/>

 
	 <g transform="translate(180,90) scale(1,-1)">   <use xlink:href="#dot" transform="translate(4.5325,51.01401)" />   <use xlink:href="#dot" transform="translate(9.200271,53.201233)" />   <use xlink:href="#dot" transform="translate(5.61085,51.17476)" />   <use xlink:href="#dot" transform="translate(9.200271,53.201233)" />   <use xlink:href="#dot" transform="translate(5.40115,51.2692)" />   <use xlink:href="#dot" transform="translate(4.5325,51.01401)" />   <use xlink:href="#dot" transform="translate(4.822916,52.40053)" />   <use xlink:href="#dot" transform="translate(12.373481,55.690883)" />   <use xlink:href="#dot" transform="translate(12.21483,55.687384)" />   <use xlink:href="#dot" transform="translate(5.52713,50.95175)" />   <use xlink:href="#dot" transform="translate(4.26525,51.11896)" />   <use xlink:href="#dot" transform="translate(5.52713,50.95175)" />   <use xlink:href="#dot" transform="translate(12.21483,55.687384)" />   <use xlink:href="#dot" transform="translate(12.373481,55.690883)" />   <use xlink:href="#dot" transform="translate(10.486852,55.080809)" />   <use xlink:href="#dot" transform="translate(8.919278,55.629008)" />   <use xlink:href="#dot" transform="translate(8.542213,54.576141)" />   <use xlink:href="#dot" transform="translate(10.486852,55.080809)" />   <use xlink:href="#dot" transform="translate(12.21483,55.687384)" />   <use xlink:href="#dot" transform="translate(8.91853,55.988414)" />   <use xlink:href="#dot" transform="translate(21.230918,64.859255)" />   <use xlink:href="#dot" transform="translate(12.367482,55.780626)" />   <use xlink:href="#dot" transform="translate(11.305815,55.697239)" />   <use xlink:href="#dot" transform="translate(4.17393,50.92823)" />   <use xlink:href="#dot" transform="translate(10.486852,55.080809)" />   <use xlink:href="#dot" transform="translate(11.305815,55.697239)" />   <use xlink:href="#dot" transform="translate(4.25599,51.33205)" />   <use xlink:href="#dot" transform="translate(11.565198,54.793176)" />   <use xlink:href="#dot" transform="translate(12.526896,55.783931)" />   <use xlink:href="#dot" transform="translate(28.976147,41.249359)" />   <use xlink:href="#dot" transform="translate(11.581981,48.089741)" />   <use xlink:href="#dot" transform="translate(19.21278,58.07917)" />   <use xlink:href="#dot" transform="translate(42,42)" />   <use xlink:href="#dot" transform="translate(49.45,37.466667)" />   <use xlink:href="#dot" transform="translate(49.966667,37.4)" />   <use xlink:href="#dot" transform="translate(49.9,37.2)" />   <use xlink:href="#dot" transform="translate(49.9,37.2)" />   <use xlink:href="#dot" transform="translate(49.9,37.2)" />   <use xlink:href="#dot" transform="translate(49.9,37.2)" />   <use xlink:href="#dot" transform="translate(29.683333,45.15)" />   <use xlink:href="#dot" transform="translate(29.666667,44.916667)" />   <use xlink:href="#dot" transform="translate(22.4,44.7)" />   <use xlink:href="#dot" transform="translate(49.966667,37.4)" /><polygon class="region" points="28.976147,41.249359 4.17393,50.92823 4.25599,51.33205 4.822916,52.40053 8.91853,55.988414 21.230918,64.859255 49.966667,37.4 49.9,37.2 28.976147,41.249359 " />
		  </g>
		</svg>