<?xml version="1.0" encoding="UTF-8"?>
	<svg xmlns:xlink="http://www.w3.org/1999/xlink" 
	xmlns="http://www.w3.org/2000/svg" 
	width="360px" height="180px">
	   <style type="text/css">
		  <![CDATA[     
		  .region 
		  { 
			fill:blue; 
			opacity:0.4; 
			stroke:blue;
		  }
		  ]]>
	   </style>

	<circle id="dot" x="-2" y="-2" r="2" style="stroke:none; stroke-width:0; fill:black; opacity:0.7;"/>


	 <image x="0" y="0" width="360" height="180" xlink:href="map.jpg"/>

 
	 <g transform="translate(180,90) scale(1,-1)"><polygon class="region" points="41.593408881,48.125353326 42.0125,47.9625 42.157766046,47.710543824 42.1,47.595833333 42.180075277,47.509655219 42.404875737,47.622430116 42.645833333,47.441666667 42.070833334,47.391666667 41.841666667,46.958333334 41.120833334,47.254166667 40.706591118,46.954519992 40.364953783,47.079519992 39.716666667,46.9375 39.570833333,46.85 39.6125,46.679166666 39.109245131,46.641052585 38.458258735,46.219620768 38.593257904,46.043239594 38.421684265,46.038350762 38.8625,45.795833333 38.403420003,45.854733954 38.158931817,45.661584303 38.35200653,45.450617642 38.607373555,45.570177375 39.0375,45.345833333 39.025,45.454166667 39.753412543,45.282556491 39.383333334,45.145833334 39.675567288,44.828229438 39.528547499,44.421823798 39.311932712,44.367516751 39.695833333,43.95 41.618622843,43.221400621 42.123257785,43.212146674 41.866666667,42.9875 42.186838785,42.953267077 42.218408882,42.808686659 42.486926778,42.938180542 43.328364054,42.907598199 43.161591593,42.704793972 42.895833334,42.766666667 42.796400621,42.623043823 43.049382528,42.368826972 42.912146674,42.089953614 43.154166666,41.9875 43.120833333,41.841666667 41.958333333,41.7 41.717233954,41.548043823 42.087146674,41.489924452 41.902424452,41.146186659 41.368622844,41.086932712 40.515854221,40.517334663 39.717585585,40.508919271 39.333333334,40.695833334 39,40.633333334 38.905329726,40.466300795 38.1875,40.5 38.053165691,40.338165622 37.68528951,40.342233954 37.574149237,40.536649238 35.8625,41.016666667 35.616251628,41.228196547 35.777424452,41.403813341 34.095833333,41.766666666 33.86471049,41.546400622 31.906620449,41.317019992 31.588749864,40.945655992 31.699338786,40.859232923 31.273043823,40.629733955 30.825,40.6375 30.9375,40.795833333 30.52008667,40.979733955 30.098290168,40.637858073 30.215529548,40.829431153 30.022916667,40.887031386 29.510415989,40.899986098 29.420215861,40.833802626 29.533333333,40.766666667 29.350813463,40.75482822 29.054166667,41.079166667 28.82008667,41.138067288 28.782766045,40.993622844 28.73258667,40.978599379 28.540762838,41.27435557 28.159548272,41.241099379 28.081265937,41.49583469 26.7875,42.2875 26.72561832,42.45732727 27.090958319,42.64255405 27.075396051,42.769865587 27.706377157,42.921400622 27.711695353,43.099265205 27.163409085,43.100623576 27.06994595,43.270124817 26.858333333,43.2625 26.761649068,43.507482401 26.236604987,43.716029697 25.985075548,43.687146674 25.741666667,43.341666667 25.354166667,43.316666667 24.920833334,43.620833333 24.749432712,43.511285061 24.482429843,42.763145616 24.129166667,42.775 24.01160041,43.103505452 23.621447415,43.246744961 23.716666666,43.391666667 23.606377156,43.524432712 22.533333333,43.470833333 22.178976554,44.463240748 22.534087127,44.674417991 22.412980281,44.742049086 22.174436495,44.481485874 22.104166667,44.591666667 22.254152086,44.83125 22.1125,45.15 22.533333333,45.120833333 22.816666666,45.275 23.04255405,44.767375013 23.453813341,44.556591119 23.0625,44.525 23.168741184,44.408795166 23.667135959,44.311882528 23.829166667,44.375 23.781591119,44.541313341 24.482395362,44.16226129 24.515815735,44.540815905 24.595833333,44.3125 25.305042182,43.841416422 26,44.0375 25.975,44.254166667 26.453315735,44.163350762 26.465770298,44.457659573 26.101742214,44.616313341 26.560543824,44.661932712 27.562103949,44.413467746 27.553430515,44.899245537 27.020364041,44.786882528 26.679166667,45.183333334 27.153255886,45.025617133 27.745833333,45.354166666 27.725,46.016666667 27.8625,46.204166666 28.143027751,46.033367242 28.29095815,46.136612617 28.664855149,45.466099764 28.871684095,46.015815735 29.166666666,45.654166667 29.375,45.966666667 29.591010878,45.975959778 29.620266045,46.16471049 29.358686659,46.489924452 29.658333333,47.0125 29.92278951,46.542233955 30.2625,46.516666667 29.958333334,47.258333333 29.545833333,47.733333333 30.118765937,47.566668023 30.993408882,46.850353326 31.093112946,46.876377106 30.997602462,46.907253265 30.978240601,47.06562268 31.132687717,46.871736992 31.265753174,47.270225864 31.614242214,46.783686659 31.754166667,46.941666667 31.550353326,47.189924452 31.87278951,47.586932712 32.320833333,47.333333333 32.6,47.666666666 32.914035373,47.049432712 33.5125,47.383333334 33.404219903,47.073739285 33.528240288,46.971759711 33.362103949,46.800967746 33.166666666,46.7875 33.171970621,46.737235514 33.651716106,46.728813341 34.064952935,47.041312663 33.916099379,46.696579996 34.086808946,46.513297526 33.716666666,46.383333333 33.684006077,46.221692234 34.543659211,46.198703766 34.481899261,45.95885849 34.671476068,46.399084473 34.358976067,46.752134874 34.744120449,47.017019992 35.169971381,47.028358968 35.029166666,46.929166667 35.228813341,46.835757786 35.275,46.608333334 35.625919596,46.911795722 36.291666666,47.041666667 36.576956176,47.328599379 37.5125,47.5875 38.0625,47.570833333 38.316666667,47.8 38.632482402,47.719982402 38.558329942,47.522403293 38.802951728,47.328599379 38.845833334,47.566666666 39.1625,47.633333333 39.108333333,47.875 39.494091119,47.896186659 39.613637288,48.058597989 40.704166667,48.029166666 41.058333333,47.808333333 41.593408881,48.125353326 " /><polygon class="region" points="32.982585889,45.354581114 32.983571612,45.354451878 32.982864041,45.354784308 32.982585889,45.354581114 " /><polygon class="region" points="33.13802268,45.414536525 33.140406438,45.415560139 33.138637288,45.416931322 33.13802268,45.414536525 " /><polygon class="region" points="33.021594457,45.369306017 33.026374817,45.369430542 33.029995704,45.370567116 33.022839694,45.370215692 33.021594457,45.369306017 " /><polygon class="region" points="31.000988006,46.657634736 31.000850762,46.655017429 31.004166666,46.654166666 31.004105106,46.654406605 31.000988006,46.657634736 " /><polygon class="region" points="38.479784308,47.147993639 38.479166667,47.145833333 38.482643127,47.149242402 38.481558192,47.150422071 38.479784308,47.147993639 " /><polygon class="region" points="33.051809937,45.358377699 33.054822117,45.364622328 33.058380325,45.368572574 33.05443573,45.365539551 33.051809937,45.358377699 " /><polygon class="region" points="32.82453342,45.551641337 32.827777778,45.55 32.828812323,45.552081299 32.827669441,45.554421658 32.82453342,45.551641337 " /><polygon class="region" points="32.87453342,46.043307834 32.877777777,46.041666667 32.878812323,46.043747965 32.877669271,46.046088325 32.87453342,46.043307834 " /><polygon class="region" points="33.18703342,46.189141168 33.190277778,46.1875 33.191312324,46.189581299 33.190169271,46.191921658 33.18703342,46.189141168 " /><polygon class="region" points="32.350850932,46.515815904 32.35,46.5125 32.353315735,46.513350762 32.354166666,46.516666667 32.350850932,46.515815904 " /><polygon class="region" points="32.367517598,46.524149237 32.366666666,46.520833334 32.369982402,46.521684096 32.370833333,46.525 32.367517598,46.524149237 " /><polygon class="region" points="39.255017429,47.249149068 39.254166667,47.245833333 39.257482571,47.246684265 39.258333333,47.25 39.255017429,47.249149068 " /><polygon class="region" points="32.321684266,46.503315905 32.320833333,46.5 32.324149068,46.500850762 32.325,46.504166667 32.321684266,46.503315905 " /><polygon class="region" points="32.359184265,46.519982571 32.358333333,46.516666667 32.361649068,46.517517429 32.3625,46.520833334 32.359184265,46.519982571 " /><polygon class="region" points="29.711649238,45.240815735 29.708333333,45.241666667 29.709184095,45.238350932 29.7125,45.2375 29.711649238,45.240815735 " /><polygon class="region" points="33.558333334,44.620833333 33.559184096,44.617517429 33.5625,44.616666667 33.561649237,44.619982571 33.558333334,44.620833333 " /><polygon class="region" points="33.545833334,44.620833333 33.546400621,44.618622843 33.548785061,44.616099379 33.55,44.620833333 33.545833334,44.620833333 " /><polygon class="region" points="33.166099379,45.431377157 33.163714939,45.433900621 33.1625,45.429166667 33.166666666,45.429166667 33.166099379,45.431377157 " /><polygon class="region" points="33.5375,44.620833333 33.538067287,44.618622843 33.540451728,44.616099379 33.541666667,44.620833333 33.5375,44.620833333 " /><polygon class="region" points="31.016666666,46.604166667 31.024248929,46.604940118 31.024491384,46.607760413 31.016666666,46.60663076 31.016666666,46.604166667 " /><polygon class="region" points="29.619618395,45.470266045 29.625411309,45.476174927 29.622048272,45.479733955 29.616255358,45.473825074 29.619618395,45.470266045 " /><polygon class="region" points="30.66004299,46.328917492 30.658691406,46.326709663 30.666666667,46.320833333 30.666500919,46.321970663 30.66004299,46.328917492 " /><polygon class="region" points="35.078251817,46.150617472 35.074382527,46.146779039 35.081944444,46.145833334 35.083043416,46.148692831 35.078251817,46.150617472 " /><polygon class="region" points="31.882715691,46.29855245 31.886111112,46.295833333 31.891836039,46.302990384 31.884849379,46.304784139 31.882715691,46.29855245 " /><polygon class="region" points="31.008347914,46.64375 31.012146675,46.639924452 31.01636936,46.627903613 31.01647377,46.636745453 31.008347914,46.64375 " /><polygon class="region" points="33.145086822,45.408438115 33.148257785,45.408686659 33.158333333,45.420833333 33.147198506,45.412742964 33.145086822,45.408438115 " /><polygon class="region" points="33.052187081,45.350206261 33.052720322,45.345552075 33.061339993,45.341649882 33.06315545,45.34906328 33.052187081,45.350206261 " /><polygon class="region" points="32.329524739,46.50662367 32.34494595,46.50904168 32.345833333,46.5125 32.335075548,46.512146674 32.329524739,46.50662367 " /><polygon class="region" points="32.00540924,46.890262604 32.007009231,46.874660166 32.011761305,46.875879585 32.013067288,46.884079997 32.00540924,46.890262604 " /><polygon class="region" points="33.513714939,44.625567288 33.5125,44.620833333 33.533333334,44.620833333 33.532426961,44.624365234 33.513714939,44.625567288 " /><polygon class="region" points="33.016956015,45.31464833 33.01874627,45.313125441 33.024051582,45.316831462 33.025812445,45.328130934 33.033377414,45.330466885 33.027397342,45.337496568 33.016956015,45.31464833 " /><polygon class="region" points="32.945215861,45.351367866 32.956173028,45.346450975 32.964559842,45.345230314 32.958510671,45.354044417 32.945215861,45.351367866 " /><polygon class="region" points="29.770111762,45.434081353 29.775411309,45.447008261 29.772048272,45.450567288 29.762371148,45.444970194 29.770111762,45.434081353 " /><polygon class="region" points="38.479173863,47.166691796 38.507058896,47.180307422 38.508333334,47.183333333 38.497839864,47.182715691 38.479173863,47.166691796 " /><polygon class="region" points="35.063180542,46.143736097 35.061194525,46.149856229 35.040986125,46.138267348 35.065277778,46.1375 35.063180542,46.143736097 " /><polygon class="region" points="33.170833333,45.433333333 33.183155992,45.430416361 33.2,45.445833333 33.189456177,45.445266045 33.170833333,45.433333333 " /><polygon class="region" points="29.633027818,45.474055142 29.641850111,45.459442478 29.652777778,45.454166667 29.64909261,45.469925774 29.633027818,45.474055142 " /><polygon class="region" points="32.299059211,46.479696316 32.283016629,46.478016154 32.3125,46.466666667 32.311423407,46.478559706 32.299059211,46.479696316 " /><polygon class="region" points="32.036882358,46.390298801 32.038427565,46.378883871 32.058333333,46.391666667 32.05,46.4 32.036882358,46.390298801 " /><polygon class="region" points="36.628891602,40.964414605 36.629027778,40.952083334 36.63899292,40.984052192 36.63555881,41.021130643 36.679969482,41.047672255 36.674589979,41.07373291 36.632886149,41.02434733 36.628891602,40.964414605 " /><polygon class="region" points="24.582733894,44.027672302 24.582355907,43.98294118 24.622330852,43.91584038 24.622687771,43.949033861 24.582733894,44.027672302 " /><polygon class="region" points="37.207206726,45.222614288 37.236598969,45.204078674 37.276985168,45.21912384 37.263370514,45.22902298 37.207206726,45.222614288 " /><polygon class="region" points="29.34586662,41.006949106 29.365713975,41.024716254 29.361590212,41.052986747 29.385075548,41.025353326 29.434339193,41.007617459 29.445972222,41.039861112 29.373336046,41.074724935 29.309399143,41.016075304 29.348329535,40.96222168 29.34586662,41.006949106 " /><polygon class="region" points="40.547306061,47.207923889 40.506187439,47.205055237 40.604869842,47.194168091 40.569816589,47.198757171 40.547306061,47.207923889 " /><polygon class="region" points="42.891246796,42.27936554 42.942089081,42.278446198 42.962135315,42.304321289 42.933162689,42.316013337 42.891246796,42.27936554 " /><polygon class="region" points="38.121879578,45.832736969 38.092582702,45.822601319 38.101623535,45.749828339 38.118610382,45.765880584 38.121879578,45.832736969 " /><polygon class="region" points="30.002845764,45.904094696 29.969120026,45.897609711 29.963253021,45.871879577 30.006725311,45.864383698 30.002845764,45.904094696 " /><polygon class="region" points="28.73353386,41.050819397 28.726007461,41.017059326 28.77338028,40.994804383 28.764287949,41.049423218 28.73353386,41.050819397 " /><polygon class="region" points="37.733673095,45.539924622 37.747447968,45.491668701 37.789966583,45.497207642 37.788570404,45.512973785 37.733673095,45.539924622 " /><polygon class="region" points="40.681926727,47.211849213 40.678791046,47.189609527 40.74666214,47.141902924 40.718097687,47.19581604 40.681926727,47.211849213 " /><polygon class="region" points="24.525357734,44.105878194 24.470602453,44.157961518 24.574109007,44.041962794 24.570480008,44.064924452 24.525357734,44.105878194 " /><polygon class="region" points="38.315151215,45.939926148 38.285358429,45.918586731 38.314682007,45.876178742 38.340030671,45.891376495 38.315151215,45.939926148 " /><polygon class="region" points="31.416049195,46.642135959 31.493877157,46.658900621 31.591666667,46.8 31.454166666,46.754166666 31.416049195,46.642135959 " /><polygon class="region" points="33.84595608,46.174069806 33.763092719,46.08008372 33.877031792,46.021476068 33.924228584,46.02160475 33.84595608,46.174069806 " /><polygon class="region" points="41.857766045,42.53528951 41.675358073,42.410042996 41.9625,42.458333334 42.058333334,42.679166666 41.857766045,42.53528951 " /><polygon class="region" points="38.171489292,45.082373386 38.155017599,44.746684096 38.408333334,44.645833333 38.457766046,44.935543824 38.33528951,44.817233954 38.171489292,45.082373386 " /><polygon class="region" points="28.954912186,44.824382782 28.838117642,45.028167046 28.722575548,44.933686659 28.443622843,45.029733955 28.360788472,45.178808933 28.275,45.195833334 28.735075548,44.717019992 28.954912186,44.824382782 " /><polygon class="region" points="33.938972473,46.084342957 34.246186659,45.468383111 34.141666666,45.2875 34.829166667,45.733333333 34.578681946,45.737861633 34.775691986,45.905254364 34.490921021,45.78665924 34.654102325,45.940288544 34.397605896,45.885807037 34.350772857,46.040103912 34.110683441,46.06917572 34.186851502,46.024635315 34.220844269,45.948619843 34.148571014,45.938297272 33.938972473,46.084342957 " /><polygon class="region" points="27.570833333,42.45 27.732584296,42.411791653 27.995071072,42.065942043 28.1,41.629166667 29.11210395,41.24069892 29.041099379,41.157118394 29.058333334,41.079166667 29.253844876,41.238142734 31.248043823,41.104733955 31.40015725,41.319826762 32.575823805,41.828446791 33.324253337,42.021400622 34.727210489,41.946400621 34.94320204,42.100567287 35.213104926,42.021736653 35.091061741,41.925540501 35.289456177,41.713067288 35.975452423,41.738243103 36.43258667,41.245266046 36.653029548,41.387764655 37.529166667,41.025 37.682864041,41.138117472 38.43125,40.912968614 39.407345242,41.108900622 40.122916666,40.912514581 41.40221049,41.383900621 41.774646675,41.830908881 41.440676201,42.736880832 40.86471049,43.074432712 40.335075548,43.146186659 38.75,44.3 38.206122844,44.413067288 37.828145684,44.719972737 37.481198459,44.692309571 37.233333333,44.991666667 36.595266046,45.192881606 36.9875,45.2875 36.764580621,45.41185218 36.7,45.333333333 36.620373366,45.305049642 36.784157987,45.445143297 37.553457981,45.396720717 37.609228855,45.661822849 37.972839864,46.036882528 38.1125,45.958333333 38.283333333,46.266666666 37.91028951,46.408900621 37.726354641,46.691762628 38.591666666,46.666666666 38.510543823,46.749432712 38.392289056,46.726002333 38.450724623,46.857450019 39.299642267,47.030878363 39.086753336,47.288067288 38.096620856,47.024395073 37.5375,47.079166667 36.767300415,46.628523763 36.815485297,46.724757216 36.61863539,46.778586833 36.164583333,46.496325684 36.214924452,46.662146674 35.885075548,46.649646674 35.160443116,46.129834662 34.983100383,46.079966905 35.21238912,46.188477919 35.354746501,46.361342028 35.185416666,46.478560384 34.812513733,46.156250678 35.356122843,45.371400621 35.531591119,45.287853326 35.836753336,45.475567288 35.98258667,45.370266045 36.344620768,45.487574599 36.648311361,45.378893534 36.420266045,45.286285061 36.406377157,45.067233955 35.842135959,44.995215861 35.529166667,45.125 35.084070163,44.791049195 34.606122844,44.770266046 33.971302626,44.386882528 33.374382527,44.582864041 33.6125,44.904166666 33.48971049,45.149432712 32.478549025,45.39105106 33.167881606,45.792233954 33.683333333,45.854166666 33.603164672,46.148998006 33.50857917,46.024344551 33.208333333,46.1875 32.54139862,46.071633572 33.083988783,46.015730116 32.937745836,46.007677884 32.514544339,46.067322116 32.050839234,46.167381795 32.216126167,46.136895073 32.241666666,46.175 31.916988457,46.296476237 31.774357266,46.263524034 32.025224812,46.444408162 31.699382528,46.432652792 31.539569431,46.542347209 31.508617486,46.577541775 31.583422512,46.536819458 32.008809068,46.490986125 32.311185201,46.49574212 31.980273098,46.654463365 31.978406963,46.876382846 31.80221049,46.608900621 30.764456176,46.549432712 30.469982401,46.067517429 29.625,45.504166667 29.788029649,45.455107456 29.594618394,44.824432712 29.089242215,44.749646674 28.645833333,44.329166667 28.586920166,43.485302056 28.092542691,43.374272156 27.9125,43.183333333 27.90354343,42.700987074 27.449646674,42.472546387 27.570833333,42.45 " /><polygon class="region" points="50.35,47.2 50.433333333,47.2375 50.565529548,47.024735514 51.4625,47.075 51.35,47.5 51.058333334,47.529166667 51.453398302,48.030138313 51.425617473,48.318826972 51.696463691,48.742063056 51.53269043,48.845511543 51.545250448,49.090747071 51.129166667,49.308333334 51.179166666,49.854166666 50.924332004,50.404534234 51.058963691,50.617063056 50.711882358,50.441197374 50.9875,50.795833333 50.920833333,51.175 50.19412045,51.049646674 49.983729214,51.22819892 50.985786947,51.454519992 51.39241333,51.270266045 51.1625,51.604166666 52.552031623,52.0701906 53.328420004,52.117233954 54.45,51.85 54.779166666,52.4 55.366666667,52.041666666 55.3375,51.729166667 55.1375,51.541666667 55.35,51.241666666 54.94412028,51.392019993 54.479166667,51.25 53.614582655,51.470819431 53.4625,51.070833334 52.808333334,51.166666666 52.806173197,51.345215691 52.320172119,51.009232924 51.7,50.975 51.425053236,50.740405952 51.404166667,50.325 51.766666667,50.454166667 51.538319905,50.075771925 51.865529378,49.816931322 51.8375,49.575 52.092309401,49.603251139 51.975,49.408333333 52.341059197,48.953253174 52.107766045,48.746579997 52.183333333,48.266666667 52.064583333,48.40777181 51.845833333,48.358333334 52.086885749,48.215754869 52.254166667,47.7875 51.945215692,47.934069993 52.33660041,47.611838785 52.444982401,47.305017598 52.149080573,47.511795722 51.995833334,47.5 52.454166667,47.020833334 52.675,47.195833333 53.01595832,47.09494595 53.238130357,46.661092462 53.150561523,46.577083333 53.488117472,46.440667046 53.474100409,46.254827881 53.250765652,46.207561238 53.236979505,46.07607015 53.182333713,45.974382527 53.153549194,45.985649618 53.3875,45.654166667 53.182677884,45.674133301 53.125782606,45.520379808 54.012031216,45.510416666 53.836425442,45.254939101 53.230381605,45.325567288 53.067386542,45.253389994 53.071488783,45.034269883 52.557487827,44.900700887 52.225,44.879166666 52.448043823,45.211932712 52.1125,45.2125 52.18688168,44.976006063 51.903163995,44.846493191 51.731377157,45.216099379 51.4125,45.154166667 51.561649916,44.824432712 52.111913215,44.71768392 51.742566257,44.503505452 51.820164998,44.346615262 51.4625,44.2375 51.033333334,44.375 50.995833334,44.083333333 51.253813341,43.981591119 51.47993198,43.396125963 51.8625,43.158333333 52.309332615,43.433815341 52.896400621,43.277951728 52.688154771,42.921707832 53.05,42.8125 53.15,42.4625 53.419982571,42.461649238 53.474382528,42.264660306 52.846456909,42.028257413 53.091099379,41.793877157 53.161649238,41.409184265 52.977623495,41.537449816 52.8125,41.545833334 53.303431532,40.911697388 53.216666667,40.425 53.308333334,40.233333334 53.9875,40.070833333 53.726742215,40.062146674 53.620847914,39.827083333 54.138067288,39.63179796 53.841666666,39.2375 54.288067288,38.786285062 54.028549025,38.646570163 54.091666667,38.195833333 54.954166667,37.975 54.229280599,37.657174513 54.066666667,37.429166667 54.665872531,37.282539198 54.763467746,36.892062717 55.007641262,36.692596435 54.570833333,36.520833333 53.369116889,36.462146674 53.111362712,36.675264486 53.066099378,36.22991333 53.392019992,35.910049778 53.207435438,35.738230388 52.204166667,36.25 51.214583334,36.158801948 50.268877157,36.682766046 49.393622844,36.733900621 49.253813341,36.94337972 49.423287964,37.149643962 49.133333333,37 48.909065755,37.150881279 48.5375,37.904166667 48.679166667,38.3125 47.963067287,38.881122843 48.420833333,39.0375 47.896186659,39.410757785 48.051956177,39.770266046 48.529976231,40.007645331 48.945833333,39.908333333 49.053381687,40.070056492 48.4375,40.966666667 47.875850932,41.180017599 47.908686659,41.455881076 47.316666667,41.816666666 47.287102593,42.082162137 47.479519992,42.28087972 46.879166667,42.775 47.057750448,43.4032469 46.875850762,43.424149068 46.7,43.125 46.727452426,43.595479669 46.459232924,43.45767212 46.364924452,43.208686659 46.095833334,43.3125 46.133333334,43.504166666 46.370833333,43.525 46.628426446,43.800700378 46.453586833,44.41886461 45.968826803,44.711882528 45.504166667,44.754166667 46.12008667,45.075567288 47.008754137,44.975892808 47.003770616,45.153198921 46.741666666,45.304166666 46.325321791,45.392309401 46.110412768,45.263125441 45.737235514,45.451137119 45.929166667,45.433333333 45.988989088,45.617322116 46.175,45.479166667 46.733333333,45.554166667 46.663409255,46.020209757 47.278429836,46.138117472 47.598257785,46.121186659 47.753292083,46.237133027 47.620266045,46.327951728 47.850040351,46.40154046 46.826249864,46.970818075 46.367500474,46.896516588 46.574432712,47.327210489 46.089456177,47.383900622 46.0875,47.558333333 45.805093045,47.500926378 45.845364719,47.78125 45.699646674,47.930882263 45.80744595,48.05345832 45.301214939,47.945266046 44.966666666,48.216666667 44.729838562,47.950896877 44.591099379,48.46471049 44.391666666,48.45 44.258333334,48.725 44.53528951,49.095266045 44.882022898,49.141465516 44.645002778,48.939659288 44.702785797,48.819436306 45.1375,49.066666667 45.18404914,49.407527838 45.5375,49.5875 45.962533908,48.73052775 47.004166667,48.075 46.954207018,47.951530457 47.220541043,47.705032518 47.64375,47.687031216 48.036649068,47.407482401 48.004166666,47.041666667 48.225617642,47.14213596 48.071589999,47.490712484 48.39508667,47.667233955 48.599432712,47.47721049 48.55,47.275 48.945833333,47.025 49.116666667,47.245833333 49.291028849,47.180072361 49.187232462,47.469884745 49.429166666,47.466666667 50.244998847,46.762255859 50.150744968,47.057303195 50.35,47.2 " /><polygon class="region" points="53.069918484,46.075617472 53.066049194,46.071779039 53.073611111,46.070833334 53.074710083,46.073692831 53.069918484,46.075617472 " /><polygon class="region" points="53.132715861,46.563445706 53.140277777,46.5625 53.14137675,46.565359497 53.136585151,46.567284139 53.132715861,46.563445706 " /><polygon class="region" points="53.205615235,46.050604926 53.203561741,46.044277615 53.206944444,46.041666667 53.208879937,46.04658983 53.205615235,46.050604926 " /><polygon class="region" points="53.170365397,46.007272 53.171661377,46.000712755 53.177777778,46 53.178105333,46.00880127 53.170365397,46.007272 " /><polygon class="region" points="53.178972032,46.04490492 53.17996521,46.038184271 53.190277778,46.0375 53.189349026,46.046438259 53.178972032,46.04490492 " /><polygon class="region" points="53.205170017,46.104771593 53.206944444,46.091666667 53.216820611,46.097036404 53.215878974,46.103408135 53.205170017,46.104771593 " /><polygon class="region" points="53.061882527,46.055112372 53.069444445,46.054166667 53.075617472,46.064816284 53.070364041,46.067284139 53.061882527,46.055112372 " /><polygon class="region" points="53.132690429,46.138415527 53.152721829,46.132766046 53.154733955,46.138551839 53.134614393,46.146476237 53.132690429,46.138415527 " /><polygon class="region" points="53.116099379,46.542982992 53.140277777,46.541666667 53.142233955,46.546323988 53.11753201,46.549373373 53.116099379,46.542982992 " /><polygon class="region" points="53.704325019,45.293198141 53.719444444,45.2875 53.725617472,45.298632134 53.703866916,45.30326216 53.704325019,45.293198141 " /><polygon class="region" points="53.203207059,46.075567288 53.191099379,46.059548272 53.211111111,46.054166667 53.208900621,46.073529731 53.203207059,46.075567288 " /><polygon class="region" points="50.891657511,47.056849162 50.896819051,47.050594754 50.93806254,47.054749213 50.936652629,47.061884223 50.891657511,47.056849162 " /><polygon class="region" points="46.568877156,44.911932712 46.506175995,44.940032959 46.445358276,44.942131043 46.594547272,44.899204254 46.568877156,44.911932712 " /><polygon class="region" points="47.240814209,45.87834549 47.179950714,45.875522613 47.252685547,45.844444275 47.319843292,45.874271393 47.240814209,45.87834549 " /><polygon class="region" points="47.348606109,45.954105377 47.376693725,45.948001862 47.373939514,45.980194092 47.348781586,45.986186982 47.348606109,45.954105377 " /><polygon class="region" points="47.745449066,46.335781097 47.679470062,46.329509735 47.838619232,46.315910339 47.752700805,46.327693939 47.745449066,46.335781097 " /><polygon class="region" points="47.295615283,45.930662884 47.258333333,45.895833333 47.408641816,45.88627243 47.288917235,45.900203194 47.295615283,45.930662884 " /><polygon class="region" points="48.679908441,39.442044309 48.66261673,39.437911987 48.675727845,39.362041473 48.720020295,39.391033172 48.73298645,39.409721374 48.679908441,39.442044309 " /><polygon class="region" points="47.561310714,46.115766311 47.554166666,46.10106102 47.366203308,46.096691131 47.49710846,46.074958801 47.616859436,46.102806091 47.561310714,46.115766311 " /><polygon class="region" points="54.127460479,37.398548126 54.103111267,37.363136291 54.172168732,37.259471893 54.178474426,37.31042862 54.127460479,37.398548126 " /><polygon class="region" points="51.912014008,48.413963318 51.965995789,48.488536835 51.840847016,48.512775421 51.855651856,48.431705475 51.912014008,48.413963318 " /><polygon class="region" points="49.46028951,40.433900621 49.5375,40.375 49.682561578,40.392373997 49.429166666,40.4875 49.46028951,40.433900621 " /><polygon class="region" points="51.50325114,47.05769043 51.578549195,47.135339695 51.544696045,47.271097988 51.461832004,47.179828728 51.50325114,47.05769043 " /><polygon class="region" points="31.568698459,46.26730957 31.693698459,46.225642903 32.041049533,46.172935316 31.827031793,46.196476237 31.614531792,46.238142904 31.525642904,46.29369846 31.524366251,46.371476237 31.568698459,46.26730957 " /><polygon class="region" points="31.720228407,46.428379313 31.753701104,46.407302857 31.777777778,46.370833333 31.755074056,46.375907389 31.720228407,46.428379313 " /><polygon class="region" points="29.128549195,40.839506361 29.104092068,40.861287434 29.128697374,40.879784139 29.142284139,40.871302626 29.128549195,40.839506361 " /><polygon class="region" points="29.513509793,44.77430759 29.482766046,44.776214939 29.588067288,44.819370863 29.548043823,44.783900621 29.513509793,44.77430759 " /><polygon class="region" points="29.079044935,40.880314467 29.096302626,40.888117472 29.107774523,40.872913275 29.049382528,40.879782444 29.079044935,40.880314467 " /><polygon class="region" points="36.524432712,45.286753336 36.543877156,45.282766046 36.586111111,45.245833334 36.554843818,45.255062188 36.524432712,45.286753336 " /><polygon class="region" points="38.320152792,46.759100681 38.336766731,46.775680542 38.362706672,46.767594401 38.344444444,46.758333333 38.320152792,46.759100681 " /><polygon class="region" points="29.036882528,40.907717557 29.038584391,40.917284139 29.05755344,40.915963745 29.056944445,40.9 29.036882528,40.907717557 " /><polygon class="region" points="53.204166667,46.6125 53.222916666,46.620437283 53.238029649,46.611348131 53.20993042,46.604168701 53.204166667,46.6125 " /><polygon class="region" points="33.211716037,46.071617296 33.191850111,46.080275811 33.189264255,46.092271593 33.212653944,46.077963596 33.211716037,46.071617296 " /><polygon class="region" points="33.5335456,45.873869324 33.527777778,45.866666666 33.520215861,45.867612542 33.542284139,45.881596714 33.5335456,45.873869324 " /><polygon class="region" points="31.403586833,46.599207221 31.415841675,46.603438992 31.417229208,46.59641588 31.409228177,46.592371623 31.403586833,46.599207221 " /><polygon class="region" points="33.176186794,45.799170261 33.170228407,45.798444451 33.171836684,45.808938429 33.182545641,45.807574633 33.176186794,45.799170261 " /><polygon class="region" points="27.682677883,42.434183756 27.684639486,42.442322116 27.7003184,42.440778605 27.694444445,42.433333334 27.682677883,42.434183756 " /><polygon class="region" points="33.511882528,45.856173198 33.506944444,45.85 33.499382528,45.856055535 33.50761278,45.863117642 33.511882528,45.856173198 " /><polygon class="region" points="29.137493558,40.852714708 29.144381375,40.858339776 29.15058492,40.850743612 29.142519803,40.84656033 29.137493558,40.852714708 " /><polygon class="region" points="30.195454576,45.257377625 30.206015693,45.258938429 30.206944444,45.25 30.200811429,45.250749546 30.195454576,45.257377625 " /><polygon class="region" points="31.728599379,46.277850342 31.73494551,46.279733954 31.740277778,46.270833333 31.730030144,46.271468438 31.728599379,46.277850342 " /><polygon class="region" points="28.999266561,40.863233439 28.998611111,40.8625 28.98684455,40.863350423 28.995029026,40.871488783 28.999266561,40.863233439 " /><polygon class="region" points="36.666666667,45.320833333 36.675642734,45.319917806 36.673718771,45.311857266 36.667417738,45.313470798 36.666666667,45.320833333 " /><polygon class="region" points="38.432865228,40.932272 38.440605333,40.933801269 38.440277778,40.925 38.434161377,40.925712755 38.432865228,40.932272 " /><polygon class="region" points="29.107865397,40.823938666 29.115605333,40.825467936 29.115277778,40.816666666 29.109161377,40.817379421 29.107865397,40.823938666 " /><polygon class="region" points="28.966198731,40.878105333 28.973938667,40.879634602 28.973611111,40.870833333 28.96749471,40.871546088 28.966198731,40.878105333 " /><polygon class="region" points="31.966198731,46.203105333 31.973938666,46.204634603 31.973611111,46.195833333 31.967494711,46.196546088 31.966198731,46.203105333 " /><polygon class="region" points="36.216049025,46.561052449 36.218182712,46.567284139 36.225169373,46.565490384 36.219444444,46.558333334 36.216049025,46.561052449 " /><polygon class="region" points="31.5577535,46.569073147 31.559076945,46.578344727 31.561595323,46.578842163 31.561111111,46.566666667 31.5577535,46.569073147 " /><polygon class="region" points="38.42365977,46.7171875 38.425,46.7125 38.41328142,46.713189698 38.412949795,46.715855578 38.42365977,46.7171875 " /><polygon class="region" points="36.7,45.333333333 36.71171858,45.332643636 36.712050205,45.329977926 36.70134023,45.328645833 36.7,45.333333333 " /><polygon class="region" points="32.024344551,46.21751709 32.028374227,46.221488783 32.037251791,46.219845581 32.036111111,46.216666666 32.024344551,46.21751709 " /><polygon class="region" points="53.236844551,45.313350593 53.240874226,45.317322117 53.249751791,45.315678914 53.248611111,45.3125 53.236844551,45.313350593 " /><polygon class="region" points="53.25613539,45.311920166 53.2625,45.3125 53.261247762,45.307753499 53.253586832,45.309491306 53.25613539,45.311920166 " /><polygon class="region" points="32.289468723,46.566086832 32.295833333,46.566666667 32.294581096,46.561920166 32.286920166,46.563657972 32.289468723,46.566086832 " /><polygon class="region" points="38.425,46.7125 38.432499525,46.711816746 38.433008999,46.70923801 38.426214769,46.707895576 38.425,46.7125 " /><polygon class="region" points="53.254166667,46.191666666 53.255381605,46.196400621 53.258333334,46.191666666 53.254166667,46.191666666 " /><polygon class="region" points="53.1875,46.604166667 53.190815905,46.603315904 53.191666667,46.6 53.188350762,46.600850762 53.1875,46.604166667 " /><polygon class="region" points="53.216666667,45.304166666 53.221400622,45.302951728 53.217841593,45.299588691 53.216666667,45.304166666 " /><polygon class="region" points="53.512088691,45.307158407 53.516666666,45.308333333 53.515451728,45.303599379 53.512088691,45.307158407 " /><polygon class="region" points="53.258333334,46.191666666 53.263067288,46.190451728 53.25950826,46.187088691 53.258333334,46.191666666 " /><polygon class="region" points="53.228700087,45.297474671 53.231835937,45.300254991 53.23297899,45.297914632 53.231944444,45.295833333 53.228700087,45.297474671 " /><polygon class="region" points="38.544451596,57.729292312 38.303235135,57.524447157 38.465913052,57.81587677 38.145833333,57.608333333 37.916666667,57.854166667 37.761052111,57.707690599 37.009330919,57.809010315 37.408333333,58.041666667 37.16606174,58.47995402 37.374420166,58.598031277 37.095833334,58.579166667 37.138117472,58.422201199 36.978379652,58.309085083 36.548287116,58.391313341 36.375,58.608333333 36.653549025,58.881173028 36.566706849,59.115136379 36.991666667,59.008333333 37.0625,59.075 37.423043823,59.133900622 37.6875,59.404166667 37.50356174,59.756015862 38.095833333,59.591666667 38.069115669,59.948788002 38.133333333,60.004166667 38.470833334,59.8375 38.90345832,59.874112617 39.016313341,59.589242215 38.729938083,59.325771416 39.100913493,59.029774306 39.704166667,58.979166667 39.509301079,58.903770617 39.596654595,58.717357042 40.211496989,58.799396091 40.078549025,58.69536404 40.150631883,58.521827189 40.642410617,58.229923842 41.1619595,58.250604926 42.101956177,57.979733954 42.518877156,58.074432712 42.985416667,57.71713545 43.462750244,57.763375515 43.743622843,58.203599379 44.079166667,58.070833333 44.383333333,58.166666667 44.301742215,57.912853326 44.848257785,57.949646675 44.9125,57.804166667 44.220833333,57.533333333 44.07963545,57.227083333 44.225,57.070833333 44.075,56.916666667 44.35,56.904166667 44.525875515,56.487249756 44.951742215,56.246186659 45.3625,56.345833333 45.331245253,56.503563775 46.016666667,56.5125 46.05,56.675 46.340451728,56.770266045 46.228898621,56.950800239 46.366666667,57.175 46.811932712,57.06471049 46.6375,56.858333334 47.120098199,56.507530721 46.9125,56.35 47.314710489,56.300567288 47.6375,56.575 47.4125,56.920833334 48.2625,57.108333333 48.725,56.704166667 48.191666667,56.220833333 48.865774197,55.996569994 49.820833333,56.291666667 49.708333334,56.4625 49.866099378,56.51471049 49.37984314,56.746644423 49.346684096,57.086649238 50.466666667,57.641666667 50.9,57.079166666 51.208333333,56.995833333 50.995833334,56.804166667 51.085339695,56.725617473 51.925,56.495833334 51.778549025,56.352798801 52.158333333,56.175 52.4125,56.333333333 53.004166666,56.154166666 53.408333333,56.720833333 53.204166667,56.983333333 54.001716952,57.012146674 54.116666667,57.458333333 54.748750305,57.454344007 54.636587185,57.791056993 54.333333333,57.8375 54.354733954,57.973043823 55.029166667,58.170833333 55.075567288,58.373785061 54.483299086,58.777631294 55.074073622,58.905093044 54.957345242,59.200567287 55.583333334,59.333333333 55.35,59.666666667 55.396400621,59.898785061 54.803902011,60.088637289 55.091666667,60.1875 54.229825168,60.317592027 55.441666667,60.4875 54.8,61 55.074253337,61.163067288 55.486504449,61.096446398 55.705908882,61.291313341 56.214924452,61.137146675 56.266666667,60.770833333 56.911932712,60.51471049 56.536753336,60.417233955 56.549382358,60.308802625 56.736882358,60.252160306 56.638051012,60.11875 56.844896104,59.907766045 57.216313341,59.889924452 57.125,59.5 57.379733954,59.17991333 56.521537611,58.232413737 56.573747287,58.128608398 56.61854438,58.121421577 56.580697157,58.1561301 56.641525065,58.219169379 56.899302843,58.305731201 56.855720486,58.164980604 57.095026042,58.215552843 57.174724935,58.159297146 56.847363823,58.14778049 56.816610591,58.274554602 56.622066524,58.157494318 56.963965115,57.995830621 56.684377777,57.942648223 56.817919379,57.896391602 56.758578667,57.871691362 56.818592665,57.850931803 56.833191732,57.837518989 56.772883843,57.796683892 56.860722114,57.809476183 56.878747288,57.788074544 56.767636177,57.783052843 56.650141601,57.946842312 56.796547303,57.986130549 56.792475098,58.033215499 56.558333333,58.116666667 56.394091119,57.758686659 55.858333333,57.708333333 56.053438314,56.967507935 54.979166667,56.970833333 54.987858073,56.805876329 55.237141927,56.66837633 54.67745107,56.529519992 54.350788201,56.220178223 54.417666287,56.049382528 55.05508389,55.863092889 55.654166666,56.175 55.925,56.058333334 55.9375,55.7625 56.319119602,55.828812662 56.1,55.345833333 56.359232924,54.958994548 56.770266045,55.01471049 56.557677375,54.588459947 55.991666667,54.679166667 55.318408881,54.308686659 54.808333333,54.616666667 55.111861504,54.905154419 55.152424452,55.224646675 54.676956177,55.232766046 54.492354668,55.128357272 54.529166667,54.95 54.321684265,54.900850762 54.1375,55.0125 54.241666667,55.270833333 53.995833333,55.4 52.920833333,55.320833333 53.195266045,55.681122844 53.110757786,55.757980008 52.576742215,55.653813341 52.358333334,55.341666667 51.344117567,55.275353326 51.073043823,55.063067288 50.785416667,55.216105143 50.120833334,55.066666667 50.132466635,54.920177884 49.745833334,54.845833333 49.7125,54.658333334 50.233900621,54.009079997 49.912858581,53.668378025 50.4375,53.4 50.690752326,53.453562588 50.395437452,52.917634413 50.050614251,52.944921536 49.808333333,52.725 48.868408881,52.762146674 48.824432712,52.513246663 48.962142266,52.41004503 48.435075548,52.291313341 48.5125,52.029166667 48.125,51.9625 47.83605211,51.624357266 46.446568468,51.553364054 46.533318753,51.335416667 46.337853326,51.126742215 46.633333333,50.983333334 46.275355699,50.87745463 46.346505228,50.634230211 47.220833333,50.6625 47.254166667,50.5125 46.997575548,50.491313341 46.908333333,50.325 47.254166667,50.025 46.591666667,49.825 46.301342434,49.97552948 45.476956177,49.824432712 45.545833333,49.6875 45.18404914,49.407527838 45.1375,49.066666667 44.702785797,48.819436306 44.645002778,48.939659288 44.882022898,49.141465516 44.53528951,49.095266045 44.258333334,48.725 44.391666666,48.45 44.596400621,48.45491333 44.649240621,47.954882813 44.331122843,48.041099379 44.116666667,47.716666667 43.420833334,47.808333333 43.6375,47.570833333 43.353251139,47.40476515 42.696739027,47.370195686 42.553745016,47.184510803 42.739924452,46.692019992 42.242517599,47.092517429 42.236612617,47.307624817 42.045833334,47.3375 42.645833333,47.441666667 42.633333333,47.516666667 42.404875737,47.622430116 42.163437365,47.521896702 41.833333333,48.116666666 41.425782606,48.120173136 41.051956176,47.808900621 40.704166667,48.029166666 38.117443339,48.30905321 37.791666667,48.8 37.183333333,48.679166667 36.662858073,48.830876329 37.225,49.004166666 36.975353326,49.214924452 37.220477294,49.268378533 37.464456176,49.828599379 38.266666667,49.85 38.607980008,49.789924452 38.561882358,49.462969123 38.73123864,49.333793132 39.4125,49.245833334 39.629166667,48.879166667 40.0375,48.779166667 40.499082947,49.02440728 40.829166666,48.570833333 41.218408881,48.437853326 41.95,48.729166667 42.141666666,48.570833333 41.938403489,48.463145616 42.466197543,48.249382528 42.555908881,48.449646674 42.795266045,48.49778951 42.757766045,48.893877157 42.380908881,48.887853326 42.224432712,48.999062771 42.2875,49.129166667 41.588302612,49.050735135 41.638067287,49.232118395 41.414672851,49.349394904 39.746568467,49.763302612 39.7375,49.895833333 39.978280301,49.965894063 39.883333333,50.095833334 39.572993639,49.908950975 39.451158651,50.012613932 39.6625,50.225 39.525731744,50.209229872 39.334078301,50.509363471 39.368877156,50.799432712 38.0875,50.970833333 38.195833333,51.341666667 38.358333333,51.241666666 38.483333334,51.354166667 38.204823473,51.609147474 38.4125,51.691666666 38.254166667,51.916666667 38.533333333,51.9625 38.274432712,52.31741333 38.650617642,52.48849962 38.608333333,52.845833334 38.895833334,52.9 38.782715691,52.984139675 38.991666666,53.125 38.608956909,53.428257412 39.091666666,53.595833333 39.554166666,53.4125 39.296521335,53.278357103 39.558333333,53.145833333 39.338350762,52.890815904 39.454166666,52.766666667 39.188161214,52.659232924 39.577424452,52.703813341 39.695833333,52.625 39.583729384,52.517634413 39.829166667,52.429166667 39.425013224,51.480662367 39.823043823,51.446400622 40.1625,51.625 40.096753099,51.492249552 40.404166666,51.266666666 40.262540181,51.048469713 40.358333333,50.870833333 40.920833333,51.0125 40.625,50.483333333 40.935075548,49.992019993 41.6,50.2625 41.511932712,50.375746663 41.645480008,50.560075548 41.466666667,51.125 41.291023763,51.170511542 41.446450806,51.715298801 41.212079197,51.915773689 41.854166667,51.904166667 42.141666666,51.45 42.378357103,51.495145332 42.43126136,51.362959798 42.54508667,51.608900621 42.816049025,51.502160136 42.220215692,50.619465467 42.545833334,50.229166667 42.9125,50.395833333 43.15,50.220833333 42.979166667,50.1 43.167148844,49.882334052 42.978922526,49.68416782 43.029166667,49.529166667 43.369117568,49.708686659 44.133333333,49.779166667 44.204166667,49.5 44.494091119,49.504519993 45.241666667,50.0625 45.108258735,50.463712565 45.225850762,50.786649238 45.59910041,50.81740214 45.803808594,51.010042996 45.50221049,51.332766045 45.066666667,51.45 45.674645657,51.535046895 45.570266045,51.617603896 45.713117472,51.788236661 45.475959947,52.049344211 45.836866252,52.200642904 46.166666667,52.116666666 46.370833333,52.341666667 46.675,52.125 47.202453613,52.354519992 47.608333333,52.320833333 47.529166667,52.825 47.266666667,52.920833333 47.860543823,53.017233954 48.055144077,53.332514784 48.599644979,53.593379551 48.565815735,53.890815735 47.957392545,54.175529649 47.635075548,54.125353325 47.479519992,54.364242215 48.21153344,54.496499973 47.770833333,54.6375 48.27721049,54.675567288 48.545833333,54.858333333 48.192327881,55.292566257 48.433900621,55.500937229 47.675,55.6375 46.9875,55.2625 46.466666667,55.5375 46.717233954,55.873785062 46.491666667,56.029166667 45.285416328,55.545847575 44.328697543,55.758950975 43.888399591,55.708994547 43.570833333,55.929166667 43.370833334,55.770833333 42.500750054,55.657592265 42.425,55.466666667 42.608333333,55.345833333 42.629519992,55.094117228 42.150279914,55.028235202 42.041666667,54.8625 42.132677375,54.559293281 41.720833333,54.529166667 41.711702134,54.326014201 41.5125,54.275 41.289213053,53.403813341 41.061753337,53.508900621 40.795833333,53.4 40.554166667,53.825 40.644091119,54.182980008 39.801214939,54.111932712 39.120833333,54.4375 38.743622844,54.296400621 38.603813341,54.42328559 38.654166666,54.704166667 36.778697544,54.263117472 36.849343872,54.138400947 36.346759711,53.919906955 36.444775899,53.758702596 36.235493469,53.546450975 35.834184265,53.659184265 35.796400621,53.848043823 35.991666667,53.854166666 36.091666667,54.045833333 35.753916422,54.288375516 35.895833333,54.5 35.8,54.666666667 36.471083578,54.642542182 36.483333333,54.779166666 36.714924452,54.742019992 36.76755405,54.899291653 37.124149237,54.992517429 36.259010315,55.525997755 37.045833334,55.575 37.242233954,55.871579997 37.051742215,56.024646674 37.77721049,55.957766046 38.551742215,55.629519992 39.341666667,55.704166666 39.178207058,55.457766045 39.675,55.408333333 39.7,55.175 40.262853325,55.01421441 40.079852295,54.890886434 40.1,54.6625 40.632717217,54.842534383 40.45,55.104166667 40.575,55.795833333 41.295833333,55.445833333 41.53823683,55.470215691 41.620215861,55.614660136 41.495266045,55.736285061 41.994972737,55.884354146 41.830028789,56.27435947 42.366666667,56.195833333 42.969982571,56.459184096 42.758333333,56.6625 42.892271593,56.869771322 42.309332954,56.936882528 42.353206889,57.195177375 39.77008667,57.261932712 39.192327881,57.534232923 39.118750678,57.758319431 38.766197544,57.875617642 38.544451596,57.729292312 " /><polygon class="region" points="37.256326972,58.628549194 37.299264866,58.638302612 37.26611946,58.681787536 37.225,58.654166667 37.256326972,58.628549194 " /><polygon class="region" points="54.969203949,60.29139328 54.990886688,60.286216736 55.006618499,60.314575196 55.069656372,60.315444946 55.142444611,60.359909058 54.998420716,60.343318939 54.969203949,60.29139328 " /><polygon class="region" points="37.05777359,59.001487732 37.132778168,59.010547638 37.13608551,59.028747559 37.057575226,59.044063568 37.05777359,59.001487732 " /><polygon class="region" points="44.202449799,48.479751587 44.282089233,48.481266021 44.149578095,48.585449219 44.140022278,48.539344788 44.202449799,48.479751587 " /><polygon class="region" points="37.48607666,49.176381361 37.578330621,49.206418796 37.627775065,49.312443305 37.559207085,49.404934014 37.6935574,49.499707845 37.689970161,49.55499722 37.555202908,49.426571587 37.48607666,49.176381361 " /><polygon class="region" points="39.77410041,58.042327881 40.088246663,58.091099379 40.149233501,58.14075453 39.808333334,58.429166666 39.475,58.325 39.683900621,58.200746664 39.520833333,58.091666667 39.77410041,58.042327881 " /><polygon class="region" points="50.514660135,56.170215861 50.36028951,56.236932712 49.4875,55.8875 50.011753337,55.636932713 50.832482402,55.867517598 50.845833333,56.016666667 50.514660135,56.170215861 " /><polygon class="region" points="17.625,49.5 17.941313341,49.264924452 17.9125,49.016666666 17.233333334,48.416666667 17.229827881,48.196732924 17.579166667,48.166666667 17.688117473,48.06713579 17.584305149,48.004934862 17.977087911,47.887965054 17.822916667,48.408318753 18.154733955,48.157118395 18.123257786,47.858686659 18.196568468,48.445030721 18.999291653,48.736612616 19.119913737,48.550582886 18.758333333,48.2375 18.87916531,47.96040073 19.011876424,47.950909255 18.9375,48.075 19.224032253,48.229562717 19.275,48.466666666 19.781619602,48.274645996 19.75,48.066666666 19.191666666,47.845833334 19.354166667,47.458333334 20.002056885,47.192334663 20.125,47.3125 20.055173407,47.545022414 20.282766045,47.67278951 20.233333333,48.091666666 20.978379313,48.003561571 21.276956176,48.432766046 21.705303955,48.324735515 22.320833333,48.6 22.428431532,48.159135946 22.033994547,47.759232924 22.670083279,47.624258932 22.766099379,47.481122843 22.629180399,47.352084181 22.825,47.0125 22.390529547,47.154431152 21.079166666,47.008333334 21.403315904,47.192517599 21.267135959,47.417284309 20.845215861,47.364816284 20.87008667,47.149432712 20.613271416,47.295061917 20.55,47.054166667 21.341666667,46.316666666 20.845096503,46.546450805 20.546229214,46.125967747 21.7,46.004166667 20.468408881,45.478813341 20.504166667,45.316666666 21.1875,44.941666666 21.802424452,45.320480008 22.215652466,44.945035468 22.171497493,44.481485874 22.25989284,44.62828205 22.412980281,44.742049086 22.534087127,44.674417991 22.27771809,44.620942241 22.199417114,44.196752929 21.979807366,44.211637709 21.671810574,43.911681451 21.668622843,43.800567288 22.066666667,43.708333333 21.986649068,43.405017599 20.829166667,43.291666667 20.808333333,43.5625 21.095833333,43.358333334 21.291099379,43.535543823 20.495833334,44.133333333 20.453187561,44.645200602 19.638714939,44.516099378 19.160786947,44.654519993 18.891666667,44.525 18.23162045,44.762853325 17.571752251,44.588085937 17.452074517,44.778704834 17.084031168,44.804945543 16.683333333,45.225 16.797915988,45.383319431 17.363246664,45.382766045 17.48682624,45.538396369 17.441666666,45.758333333 16.9,45.991666667 17.108854166,46.105507067 17.055534532,46.371450806 17.432699585,46.454809571 17.629166667,46.241666666 18.328315735,46.175850932 18.420833333,46.583333334 18.192580329,46.496439955 17.250041961,46.74716568 17.899961472,46.88861084 17.8875,47.058333334 18.035956658,47.099949816 18.774120246,46.934072198 18.6375,47.133333333 18.753813341,47.256591119 18.48971049,47.445266046 18.075834486,47.441910807 17.8125,47.170833333 17.225,47.4875 16.834250387,47.267259555 16.183333333,47.566666666 16.284552002,47.887701416 15.808333333,47.783333333 15.751367865,47.933950975 15.569091118,47.787853326 14.7625,47.725 14.757558695,47.915927463 14.292517599,48.063350763 14.257937453,48.211532254 14.05,47.9375 13.898984104,48.116078017 13.608333333,48.129166667 13.436917115,48.457413737 12.065729438,48.282766045 11.8625,48.575 12.477424452,48.700353326 12.754166667,49.041666667 13.168750678,48.862513902 13.58125,48.979152086 14.372575548,48.483686659 15.529166667,48.758333334 16.545833333,48.641666667 16.654886034,48.948908488 17.278449503,49.146819729 17.271684096,49.294982401 17.625,49.5 " /><polygon class="region" points="16.826324463,47.928211212 16.691625595,47.747833252 16.804391861,47.662826538 16.755449295,47.739330292 16.826324463,47.928211212 " /><polygon class="region" points="19.248006185,47.354771762 19.329166667,47.054166667 19.579166667,47.058333334 19.508333334,47.2625 19.248006185,47.354771762 " /><polygon class="region" points="19.292233954,46.935543823 19.161932712,46.66741333 19.425,46.433333333 19.679733954,46.727951728 19.570124986,46.94494595 19.292233954,46.935543823 " /><polygon class="region" points="30.835543823,54.833900621 31.492284139,54.51150038 31.170364041,54.349382528 30.734244961,54.457719252 30.467304315,54.224094306 30.928315904,53.807482401 30.933950806,53.563236661 30.588204278,53.361580573 30.758333334,53.233333334 30.5,53.154166667 30.405325487,52.600113933 30.843622843,52.200567288 31.404784139,52.098632134 31.2875,51.929166667 31.818408882,51.621186659 32.528267076,51.700661214 32.4375,51.920833334 32.817207337,51.975605096 32.979733955,51.940451728 32.820654636,51.855409071 32.915920003,51.699432712 33.591666666,51.508333334 33.723257786,51.075353325 32.708333333,51.125 32.9,50.9625 32.688629151,50.878644138 32.253697544,51.029784139 31.825,50.754166666 31.642331611,50.815665351 31.961932712,50.36471049 31.850354851,50.21837972 32.442652893,49.759050496 33.135493639,49.795215692 33.067528279,49.616997783 33.653697374,49.345215692 34.119639418,49.47928738 34.314242214,49.296186659 35.108333333,49.408333333 35.03821106,49.03827752 35.654733955,48.755103895 35.470266045,48.003420003 35.870833333,47.733333333 35.6375,47.629166666 35.757433743,47.438161215 35.479166666,47.129166666 34.161562772,47.167233954 33.651716106,46.728813341 33.171970621,46.737235514 33.528240288,46.971759711 33.404219903,47.073739285 33.5125,47.383333334 33.804166667,47.579166666 33.529872301,47.742473687 33.450621541,47.846743096 33.500735134,47.970030721 33.999149068,48.199149238 34.01741333,47.674432712 34.301742214,48.041313341 34.602424452,47.904519992 34.929166667,48.054166666 34.961649238,48.228315905 34.395833334,48.266666667 33.88258667,48.554733954 33.529166667,48.616666667 33.237030708,48.482715861 32.831591119,48.707980007 31.433333333,48.954166666 31.0125,49.229166667 31.486791653,49.359220717 31.45,49.633333334 30.7625,49.583333333 30.632715691,49.77400038 30.753212992,50.032776896 30.410412768,49.900535922 30.233333333,50.104166667 29.970833333,50.116666667 30.345763651,50.281882731 30.079166666,50.4 30.2875,50.554166667 29.984068298,50.575804647 30.225,50.829166667 30.053770786,51.032365587 29.504166667,51.045833334 29.369797092,51.428581747 28.25,51.35 28.596794976,51.895166185 28.870833333,52.025 28.838419765,52.391083781 29.163350763,52.736649238 29.549080404,52.653462389 29.479784139,52.393673028 29.7,52.245833333 29.820364041,52.396450805 30.024295552,52.334157986 29.890866767,52.832579888 29.532766046,53.307118394 29.925,53.370833333 30.041105143,53.760416667 29.879784308,53.881326803 30.153571404,54.101026917 29.942517599,54.384184096 29.957715692,54.687969293 30.835543823,54.833900621 " /><polygon class="region" points="33.555683136,47.778205872 33.582744599,47.812267304 33.543125153,47.842327118 33.506145477,47.845661163 33.555683136,47.778205872 " /><polygon class="region" points="31.698791504,50.518730164 31.774730682,50.465156555 31.706022263,50.363037109 31.75982666,50.295681 31.792013168,50.460601806 31.654724121,50.595321655 31.698791504,50.518730164 " /><polygon class="region" points="31.435786946,50.787853326 31.292271593,50.473006185 31.404166666,50.241666666 31.666666667,50.429166667 31.435786946,50.787853326 " /><polygon class="region" points="45.9125,41.245833333 46.433333333,41.408333333 47.235416667,40.979635281 47.703315905,41.228315735 47.508900621,40.943877157 47.675567288,40.767626275 47.491099379,40.497048272 47.6375,40.295833334 47.978237406,40.296536254 48.258333333,40.625 48.35,40.175 48.4,40.379166666 48.519982402,40.192517429 48.483686659,40.456591119 48.610757786,40.545480007 49.054166667,39.991666666 48.529976231,40.007645331 48.06028951,39.774432712 47.9,39.416666667 47.804166667,39.658333333 47.346732924,39.646494548 47.590779284,39.842375183 47.606377157,40.053599379 46.7375,39.658333333 46.456591119,39.966313341 45.884548272,39.807766046 45.933333333,40.3 45.235757785,40.616313341 44.625,40.691666667 44.858333333,40.841666666 44.754166667,41.008333333 44.940949504,41.071819729 44.945437283,41.407365587 44.186562771,41.754733954 43.245833333,41.866666667 44.02278951,42.599432713 44.641666667,42.495833334 45.0125,42.6 45.225,42.3875 44.991099379,42.340451728 44.884086778,41.934283786 45.367404853,41.475723605 45.9125,41.245833333 " /><polygon class="region" points="30.112968783,48.552083334 30.859079997,48.186932712 31.476742214,48.557980008 31.89494595,48.457624986 31.990992907,47.905063035 31.795215861,47.360339864 31.550353326,47.189924452 31.591666667,46.825 31.320250448,47.236580234 30.109470452,47.871097989 29.503813341,47.843379551 29.662466091,47.005527751 29.374291653,46.54255405 28.754973687,46.750705634 27.995833333,47.291666667 28.679166666,47.379166667 28.716934035,47.678218078 28.484020996,47.944838629 28.941666667,48.270833333 29.743877157,48.350567288 29.779166667,48.533333333 30.020172119,48.534232923 30.029166666,48.745833334 30.112968783,48.552083334 " /><polygon class="region" points="30.503599379,40.96028951 30.9375,40.795833333 30.825,40.6375 31.411649238,40.565815905 31.520833333,40.091666667 31.752441135,40.039403754 31.020833333,39.65 30.728697544,39.725617642 30.554166666,39.516666666 30.324253337,39.892233954 29.858333334,39.7875 29.379166667,39.908333333 29.266666667,40.05 29.344819132,40.311702135 29.158333333,40.425 29.688018799,40.408081055 29.708729384,40.544865587 29.858333334,40.483333333 29.920236375,40.530268012 29.812853326,40.556591119 29.9375,40.8625 30.215529548,40.829431153 30.070480008,40.718382433 30.071186659,40.672575548 30.098290168,40.637858073 30.503599379,40.96028951 " /><polygon class="region" points="34.875,41.6375 35.785788303,41.399642266 35.616251628,41.228196547 35.858333333,41.029166667 35.096732924,40.899338786 35.075,40.358333333 33.9625,40.2375 33.824432712,40.609079997 34.057766046,40.823043823 33.608333333,40.858333333 33.872575548,41.107980007 34.162141927,41.139209662 33.963067288,41.34778951 34.043408882,41.466313341 34.290755717,41.313117133 34.421684265,41.515815735 34.752092149,41.475461832 34.875,41.6375 " /><polygon class="region" points="46.289456177,44.211932712 46.454377916,43.697085063 46.370833333,43.525 46.133333334,43.504166666 46.095833334,43.3125 46.364924452,43.208686659 46.466666667,43.4125 46.295266045,43.021579997 46.4625,42.866666667 46.206377157,42.800567288 45.695833334,43.029166667 45.677424452,43.437146674 44.556620449,43.545480008 43.870833334,43.929166667 45.208333334,43.858333334 45.387239584,44.078406101 45.853157552,44.013096789 46.289456177,44.211932712 " /><polygon class="region" points="39.039924452,45.846186659 40.923043824,45.574432712 41.411802165,45.284112209 41.025735135,45.311697388 40.916666666,45 40.125887383,45.128458319 40.308333334,44.870833333 40.199376424,44.546742418 39.792340427,44.778270128 39.554834663,44.520020887 39.519750299,44.099470351 39.311932712,44.367516751 39.528547499,44.421823798 39.475353326,44.523257786 39.675567288,44.828229438 39.379519992,45.135757785 39.770202975,45.256314257 39.029166666,45.454166667 39.2875,45.445833333 39.155908881,45.616313341 39.803813341,45.527424452 39.185289511,45.658900621 39.039924452,45.846186659 " /><polygon class="region" points="30.054960802,46.867460802 30.129152086,46.760416667 29.95758667,46.524432712 29.709065416,46.869952053 30.054960802,46.867460802 " /><polygon class="region" points="38.545379609,57.727979832 38.552363823,57.72416938 38.553994954,57.709184028 38.579586046,57.708886176 38.557483249,57.703599379 38.549586046,57.710814345 38.545379609,57.727979832 " /><polygon class="region" points="46.5,49.883333333 46.504733955,49.882118395 46.501174927,49.878755358 46.5,49.883333333 " /><polygon class="region" points="56.682877061,57.966025934 56.683023255,57.965372789 56.672080621,57.965836046 56.681012912,57.966663954 56.682877061,57.966025934 " /><polygon class="region" points="38.544451596,57.729292312 38.545379609,57.727979832 38.545125597,57.728063829 38.544451596,57.729292312 " />
		  </g>
		</svg>