<?xml version="1.0" encoding="UTF-8"?>
	<svg xmlns:xlink="http://www.w3.org/1999/xlink" 
	xmlns="http://www.w3.org/2000/svg" 
	width="360px" height="180px">
	   <style type="text/css">
		  <![CDATA[     
		  .region 
		  { 
			fill:blue; 
			opacity:0.4; 
			stroke:blue;
		  }
		  ]]>
	   </style>

	<circle id="dot" x="-2" y="-2" r="2" style="stroke:none; stroke-width:0; fill:black; opacity:0.7;"/>


	 <image x="0" y="0" width="360" height="180" xlink:href="map.jpg"/>

 
	 <g transform="translate(180,90) scale(1,-1)">   <use xlink:href="#dot" transform="translate(-67.10035,39.53995)" />   <use xlink:href="#dot" transform="translate(-67.33165,39.55065)" />   <use xlink:href="#dot" transform="translate(-67.4164,40.0697)" />   <use xlink:href="#dot" transform="translate(-67.1255,39.899167)" />   <use xlink:href="#dot" transform="translate(-67.417428,40.110736)" />   <use xlink:href="#dot" transform="translate(-67.56861,39.955331)" />   <use xlink:href="#dot" transform="translate(-67.451944,40.0075)" />   <use xlink:href="#dot" transform="translate(-67.413333,39.903611)" />   <use xlink:href="#dot" transform="translate(-67.406389,39.843611)" />   <use xlink:href="#dot" transform="translate(-67.428611,39.961389)" />   <use xlink:href="#dot" transform="translate(-67.454722,39.820278)" />   <use xlink:href="#dot" transform="translate(-67.441667,39.991667)" />   <use xlink:href="#dot" transform="translate(-67.358333,39.925)" />   <use xlink:href="#dot" transform="translate(-67.516667,39.933333)" />   <use xlink:href="#dot" transform="translate(-67.35,39.916667)" />   <use xlink:href="#dot" transform="translate(-67.525,39.941667)" />   <use xlink:href="#dot" transform="translate(-67.433333,39.983333)" />   <use xlink:href="#dot" transform="translate(168.667,-24.683)" />   <use xlink:href="#dot" transform="translate(167.417,-25.683)" />   <use xlink:href="#dot" transform="translate(-59,41.150002)" />   <use xlink:href="#dot" transform="translate(-59,41.15)" />   <use xlink:href="#dot" transform="translate(-55.7,41.9667)" />   <use xlink:href="#dot" transform="translate(-55.7,41.966667)" />   <use xlink:href="#dot" transform="translate(-22.866667,42.05)" />   <use xlink:href="#dot" transform="translate(-77.408333,32.091667)" />   <use xlink:href="#dot" transform="translate(-79.675,30.141667)" />   <use xlink:href="#dot" transform="translate(-76.875,31.758333)" />   <use xlink:href="#dot" transform="translate(-78.725,30.125)" />   <use xlink:href="#dot" transform="translate(-57.383333,23.266667)" />   <use xlink:href="#dot" transform="translate(-63.7833,39.8667)" />   <use xlink:href="#dot" transform="translate(-63.7833,39.8667)" />   <use xlink:href="#dot" transform="translate(-59.4667,41.8)" />   <use xlink:href="#dot" transform="translate(-56.9833,39.7417)" />   <use xlink:href="#dot" transform="translate(-42.916667,31.85)" />   <use xlink:href="#dot" transform="translate(-56.9833,39.7333)" />   <use xlink:href="#dot" transform="translate(-52.366667,27.633333)" />   <use xlink:href="#dot" transform="translate(-66.133333,30.45)" />   <use xlink:href="#dot" transform="translate(-56.9833,39.7417)" />   <use xlink:href="#dot" transform="translate(-63.25,31.016667)" />   <use xlink:href="#dot" transform="translate(-46.066667,30.783333)" />   <use xlink:href="#dot" transform="translate(-56.9833,39.7333)" />   <use xlink:href="#dot" transform="translate(-39.483333,33.066667)" />   <use xlink:href="#dot" transform="translate(-42.8,31.883333)" />   <use xlink:href="#dot" transform="translate(-30.266667,35.333333)" />   <use xlink:href="#dot" transform="translate(-59.4667,41.8)" />   <use xlink:href="#dot" transform="translate(-60.9,28.683333)" />   <use xlink:href="#dot" transform="translate(-46.133333,30.75)" />   <use xlink:href="#dot" transform="translate(-42.766667,31.916667)" />   <use xlink:href="#dot" transform="translate(-35.4,34.333333)" />   <use xlink:href="#dot" transform="translate(-23.866667,41.033333)" />   <use xlink:href="#dot" transform="translate(-30.65,38.988333)" />   <use xlink:href="#dot" transform="translate(-65.251667,36.656667)" />   <use xlink:href="#dot" transform="translate(-65.815,36.703333)" />   <use xlink:href="#dot" transform="translate(-63.375,37.308333)" />   <use xlink:href="#dot" transform="translate(-65.125,36.375)" />   <use xlink:href="#dot" transform="translate(-71.891667,34.025)" />   <use xlink:href="#dot" transform="translate(-32.683333,7.916667)" />   <use xlink:href="#dot" transform="translate(-21.916667,-0.531667)" />   <use xlink:href="#dot" transform="translate(-62.438333,36.085)" />   <use xlink:href="#dot" transform="translate(-63.67,32.23)" />   <use xlink:href="#dot" transform="translate(-63.82,31.68)" />   <use xlink:href="#dot" transform="translate(-155.105,-25.006667)" />   <use xlink:href="#dot" transform="translate(-154.89,-25.105)" />   <use xlink:href="#dot" transform="translate(-155.128333,-24.246667)" />   <use xlink:href="#dot" transform="translate(-155.45,-25.253333)" />   <use xlink:href="#dot" transform="translate(-155.403333,-25.508333)" />   <use xlink:href="#dot" transform="translate(-155.393333,-25.506667)" />   <use xlink:href="#dot" transform="translate(-155.378333,-25.293333)" />   <use xlink:href="#dot" transform="translate(-63.9,31.67)" />   <use xlink:href="#dot" transform="translate(-63.9,31.67)" />   <use xlink:href="#dot" transform="translate(-63.78,31.68)" />   <use xlink:href="#dot" transform="translate(-63.8,31.85)" />   <use xlink:href="#dot" transform="translate(-63.07,31.6)" />   <use xlink:href="#dot" transform="translate(-63.8,31.85)" />   <use xlink:href="#dot" transform="translate(-63.8,31.85)" />   <use xlink:href="#dot" transform="translate(5.4,-30.116667)" />   <use xlink:href="#dot" transform="translate(-52.033333,-38.633333)" />   <use xlink:href="#dot" transform="translate(-9.033333,-13.116667)" />   <use xlink:href="#dot" transform="translate(-9,-13.166667)" />   <use xlink:href="#dot" transform="translate(-14.2,-8.183333)" />   <use xlink:href="#dot" transform="translate(-6.1,-15.75)" />   <use xlink:href="#dot" transform="translate(-4.3,-18.6)" />   <use xlink:href="#dot" transform="translate(2.933333,-27.233333)" />   <use xlink:href="#dot" transform="translate(-0.308333,-27.558333)" />   <use xlink:href="#dot" transform="translate(-64.18,32.15)" />   <use xlink:href="#dot" transform="translate(-64.17,32.43)" />   <use xlink:href="#dot" transform="translate(-64.17,32.18)" />   <use xlink:href="#dot" transform="translate(-63.92,32.13)" />   <use xlink:href="#dot" transform="translate(-64.15,32.13)" />   <use xlink:href="#dot" transform="translate(-64.23,32.42)" />   <use xlink:href="#dot" transform="translate(-63.75,32.07)" />   <use xlink:href="#dot" transform="translate(-63.57,31.75)" />   <use xlink:href="#dot" transform="translate(-63.78,31.77)" />   <use xlink:href="#dot" transform="translate(-64.37,31.88)" />   <use xlink:href="#dot" transform="translate(-21.741667,24.008333)" />   <use xlink:href="#dot" transform="translate(-21.858333,26.258333)" />   <use xlink:href="#dot" transform="translate(-21.925,24.091667)" />   <use xlink:href="#dot" transform="translate(-21.958333,26.191667)" />   <use xlink:href="#dot" transform="translate(-47.491667,30.891667)" />   <use xlink:href="#dot" transform="translate(-47.475,30.791667)" />   <use xlink:href="#dot" transform="translate(-47.658333,32.325)" />   <use xlink:href="#dot" transform="translate(-18.033333,29.666667)" />   <use xlink:href="#dot" transform="translate(-21.766667,20.066667)" />   <use xlink:href="#dot" transform="translate(-19.433333,26.166667)" />   <use xlink:href="#dot" transform="translate(-42.5,-30.016667)" />   <use xlink:href="#dot" transform="translate(-27.183333,-9.9)" />   <use xlink:href="#dot" transform="translate(-24.683333,4.133333)" />   <use xlink:href="#dot" transform="translate(-45.133333,-32.183333)" />   <use xlink:href="#dot" transform="translate(-45.05,-32.133333)" />   <use xlink:href="#dot" transform="translate(-63.67,31.85)" />   <use xlink:href="#dot" transform="translate(-67.441667,28.758333)" />   <use xlink:href="#dot" transform="translate(-67.575,31.658333)" />   <use xlink:href="#dot" transform="translate(-67.408333,28.591667)" />   <use xlink:href="#dot" transform="translate(-5.916667,-16.183333)" />   <use xlink:href="#dot" transform="translate(-17.316667,31.683333)" />   <use xlink:href="#dot" transform="translate(-21.966667,19.183333)" />   <use xlink:href="#dot" transform="translate(3,-27)" />   <use xlink:href="#dot" transform="translate(-25,4)" />   <use xlink:href="#dot" transform="translate(-155.485,28.395)" />   <use xlink:href="#dot" transform="translate(-18,30)" />   <use xlink:href="#dot" transform="translate(-0.391667,-27.525)" />   <use xlink:href="#dot" transform="translate(-45,-32)" />   <use xlink:href="#dot" transform="translate(-14,-8)" />   <use xlink:href="#dot" transform="translate(-19,26)" />   <use xlink:href="#dot" transform="translate(-21,24)" />   <use xlink:href="#dot" transform="translate(-155.261667,-24.108333)" />   <use xlink:href="#dot" transform="translate(-27,-10)" />   <use xlink:href="#dot" transform="translate(-16,34)" />   <use xlink:href="#dot" transform="translate(-22,20)" />   <use xlink:href="#dot" transform="translate(-63.7833,39.866665)" />   <use xlink:href="#dot" transform="translate(-45,-32)" />   <use xlink:href="#dot" transform="translate(-4,-19)" />   <use xlink:href="#dot" transform="translate(5,-30)" />   <use xlink:href="#dot" transform="translate(-59.4667,41.799999)" />   <use xlink:href="#dot" transform="translate(-56.9833,39.733334)" />   <use xlink:href="#dot" transform="translate(-155.06,-25.133333)" />   <use xlink:href="#dot" transform="translate(-43,-30)" />   <use xlink:href="#dot" transform="translate(-56.9833,39.741665)" />   <use xlink:href="#dot" transform="translate(-39.175,-33.225)" />   <use xlink:href="#dot" transform="translate(-154.921667,-25.295)" />   <use xlink:href="#dot" transform="translate(-52,-39)" />   <use xlink:href="#dot" transform="translate(-22,19)" />   <use xlink:href="#dot" transform="translate(-9,-13)" />   <use xlink:href="#dot" transform="translate(-17,32)" />   <use xlink:href="#dot" transform="translate(-6,-16)" />   <use xlink:href="#dot" transform="translate(-9,-13)" /><polygon class="region" points="-155.45,-25.253333 -155.485,28.395 -59.4667,41.8 -55.7,41.9667 -22.866667,42.05 168.667,-24.683 167.417,-25.683 -52,-39 -155.403333,-25.508333 -155.45,-25.253333 " />
		  </g>
		</svg>