<?xml version="1.0" encoding="UTF-8"?>
	<svg xmlns:xlink="http://www.w3.org/1999/xlink" 
	xmlns="http://www.w3.org/2000/svg" 
	width="360px" height="180px">
	   <style type="text/css">
		  <![CDATA[     
		  .region 
		  { 
			fill:blue; 
			opacity:0.4; 
			stroke:blue;
		  }
		  ]]>
	   </style>

	<circle id="dot" x="-2" y="-2" r="2" style="stroke:none; stroke-width:0; fill:black; opacity:0.7;"/>


	 <image x="0" y="0" width="360" height="180" xlink:href="map.jpg"/>

 
	 <g transform="translate(180,90) scale(1,-1)">   <use xlink:href="#dot" transform="translate(-123.973494,45.223581)" />   <use xlink:href="#dot" transform="translate(147.966,-43.133)" />   <use xlink:href="#dot" transform="translate(-67.2637,40.09735)" />   <use xlink:href="#dot" transform="translate(-67.22255,39.46495)" />   <use xlink:href="#dot" transform="translate(-67.385833,39.796333)" />   <use xlink:href="#dot" transform="translate(-165.918274,54.280808)" />   <use xlink:href="#dot" transform="translate(-67.250806,39.92506)" />   <use xlink:href="#dot" transform="translate(159.066,-31.533)" />   <use xlink:href="#dot" transform="translate(159.066,-31.533)" />   <use xlink:href="#dot" transform="translate(-67.417428,40.110736)" />   <use xlink:href="#dot" transform="translate(-67.3492,40.0896)" />   <use xlink:href="#dot" transform="translate(-67.3492,40.0896)" />   <use xlink:href="#dot" transform="translate(-67.5968,39.6716)" />   <use xlink:href="#dot" transform="translate(-67.56861,39.955331)" />   <use xlink:href="#dot" transform="translate(-67.5687,39.9304)" />   <use xlink:href="#dot" transform="translate(-67.56861,39.955331)" />   <use xlink:href="#dot" transform="translate(-62.26542,42.81884)" />   <use xlink:href="#dot" transform="translate(50.067167,-42.4024)" />   <use xlink:href="#dot" transform="translate(178.114042,-38.676933)" />   <use xlink:href="#dot" transform="translate(30.470833,-30.723333)" />   <use xlink:href="#dot" transform="translate(-70.257222,39.597222)" />   <use xlink:href="#dot" transform="translate(-58.9375,43.808333)" />   <use xlink:href="#dot" transform="translate(-118.325008,33.345449)" />   <use xlink:href="#dot" transform="translate(-58.8892,43.825556)" />   <use xlink:href="#dot" transform="translate(-58.9606,43.896667)" />   <use xlink:href="#dot" transform="translate(-58.9744,43.899722)" />   <use xlink:href="#dot" transform="translate(-87.228111,26.272667)" />   <use xlink:href="#dot" transform="translate(-165.753056,54.350833)" />   <use xlink:href="#dot" transform="translate(-166.033611,54.342222)" />   <use xlink:href="#dot" transform="translate(44.111,-13.941)" />   <use xlink:href="#dot" transform="translate(41.92,-16.08)" />   <use xlink:href="#dot" transform="translate(46.01,-13.67)" />   <use xlink:href="#dot" transform="translate(-67.392222,39.926667)" />   <use xlink:href="#dot" transform="translate(-67.4525,39.8757)" />   <use xlink:href="#dot" transform="translate(-67.392222,39.926667)" />   <use xlink:href="#dot" transform="translate(-166.0202,54.59856)" />   <use xlink:href="#dot" transform="translate(-175.3261,58.35606)" />   <use xlink:href="#dot" transform="translate(42.02,-18.64)" />   <use xlink:href="#dot" transform="translate(40.99,-22.8)" />   <use xlink:href="#dot" transform="translate(41.52,-18.64)" />   <use xlink:href="#dot" transform="translate(41.99,-18.12)" />   <use xlink:href="#dot" transform="translate(40.99,-22.8)" />   <use xlink:href="#dot" transform="translate(41.52,-18.64)" />   <use xlink:href="#dot" transform="translate(40.92,-22.02)" />   <use xlink:href="#dot" transform="translate(41.99,-18.12)" />   <use xlink:href="#dot" transform="translate(40.46,-20.3)" />   <use xlink:href="#dot" transform="translate(40.46,-20.3)" />   <use xlink:href="#dot" transform="translate(40.46,-20.3)" />   <use xlink:href="#dot" transform="translate(41.52,-18.64)" />   <use xlink:href="#dot" transform="translate(40.46,-20.3)" />   <use xlink:href="#dot" transform="translate(-168.83,55.93)" />   <use xlink:href="#dot" transform="translate(-168.5,56.11)" />   <use xlink:href="#dot" transform="translate(-168.83,56.11)" />   <use xlink:href="#dot" transform="translate(-15,55)" />   <use xlink:href="#dot" transform="translate(-165.5,54.58)" />   <use xlink:href="#dot" transform="translate(-165.83,54.41)" />   <use xlink:href="#dot" transform="translate(-173.83,52.3)" />   <use xlink:href="#dot" transform="translate(-169.5,56.28)" />   <use xlink:href="#dot" transform="translate(-174.83,52.14)" />   <use xlink:href="#dot" transform="translate(-169.16,56.28)" />   <use xlink:href="#dot" transform="translate(-164.5,55.25)" />   <use xlink:href="#dot" transform="translate(-168.5,55.93)" />   <use xlink:href="#dot" transform="translate(-165.83,54.58)" />   <use xlink:href="#dot" transform="translate(-166.16,54.91)" />   <use xlink:href="#dot" transform="translate(56.1406,-0.7856)" />   <use xlink:href="#dot" transform="translate(56.1406,-0.7856)" />   <use xlink:href="#dot" transform="translate(55.2202,0.1392)" />   <use xlink:href="#dot" transform="translate(56.1406,-0.7856)" />   <use xlink:href="#dot" transform="translate(53.4249,-2.1673)" />   <use xlink:href="#dot" transform="translate(54.8904,-3.553)" />   <use xlink:href="#dot" transform="translate(53.4521,-1.7892)" />   <use xlink:href="#dot" transform="translate(53.2926,-4.7912)" />   <use xlink:href="#dot" transform="translate(53.4521,-1.7892)" />   <use xlink:href="#dot" transform="translate(54.9387,-3.5584)" />   <use xlink:href="#dot" transform="translate(53.4521,-1.7892)" />   <use xlink:href="#dot" transform="translate(53.4521,-1.7892)" />   <use xlink:href="#dot" transform="translate(53.4521,-1.7892)" />   <use xlink:href="#dot" transform="translate(53.4521,-1.7892)" />   <use xlink:href="#dot" transform="translate(54.9387,-3.5584)" />   <use xlink:href="#dot" transform="translate(53.4521,-1.7892)" />   <use xlink:href="#dot" transform="translate(53.4521,-1.7892)" />   <use xlink:href="#dot" transform="translate(54.8904,-3.553)" />   <use xlink:href="#dot" transform="translate(53.241,-4.9088)" />   <use xlink:href="#dot" transform="translate(53.4521,-1.7892)" />   <use xlink:href="#dot" transform="translate(53.4521,-1.7892)" />   <use xlink:href="#dot" transform="translate(-67.3825,39.803889)" />   <use xlink:href="#dot" transform="translate(31,-29.85)" />   <use xlink:href="#dot" transform="translate(-67.454722,39.820278)" />   <use xlink:href="#dot" transform="translate(178.3628,-39.4088)" />   <use xlink:href="#dot" transform="translate(54.1432,-3.4906)" />   <use xlink:href="#dot" transform="translate(54.923,-3.3866)" />   <use xlink:href="#dot" transform="translate(55.9758,-2.6205)" />   <use xlink:href="#dot" transform="translate(55.5191,-3.0429)" />   <use xlink:href="#dot" transform="translate(54.923,-3.3866)" />   <use xlink:href="#dot" transform="translate(55.9342,-2.4532)" />   <use xlink:href="#dot" transform="translate(54.1432,-3.4906)" />   <use xlink:href="#dot" transform="translate(55.2398,-2.5201)" />   <use xlink:href="#dot" transform="translate(55.2398,-2.5201)" />   <use xlink:href="#dot" transform="translate(54.923,-3.3866)" />   <use xlink:href="#dot" transform="translate(55.5191,-3.0429)" />   <use xlink:href="#dot" transform="translate(55.9342,-2.4532)" />   <use xlink:href="#dot" transform="translate(55.9758,-2.6205)" />   <use xlink:href="#dot" transform="translate(55.5191,-3.0429)" />   <use xlink:href="#dot" transform="translate(41.2069,-21.6241)" />   <use xlink:href="#dot" transform="translate(40.9908,-22.8758)" />   <use xlink:href="#dot" transform="translate(40.1578,-20.1362)" />   <use xlink:href="#dot" transform="translate(39.9909,-22.9519)" />   <use xlink:href="#dot" transform="translate(40.9908,-22.8758)" />   <use xlink:href="#dot" transform="translate(41.2069,-21.6241)" />   <use xlink:href="#dot" transform="translate(39.9909,-22.9519)" />   <use xlink:href="#dot" transform="translate(39.9909,-22.9519)" />   <use xlink:href="#dot" transform="translate(-12,49)" />   <use xlink:href="#dot" transform="translate(148.469,-38.2722)" />   <use xlink:href="#dot" transform="translate(148.469,-38.2722)" />   <use xlink:href="#dot" transform="translate(-165.83,54.74)" />   <use xlink:href="#dot" transform="translate(-165.5,55.08)" />   <use xlink:href="#dot" transform="translate(-167.83,55.25)" />   <use xlink:href="#dot" transform="translate(-165.5,54.58)" />   <use xlink:href="#dot" transform="translate(-168.5,56.11)" />   <use xlink:href="#dot" transform="translate(-166.5,54.41)" />   <use xlink:href="#dot" transform="translate(-169.5,56.11)" />   <use xlink:href="#dot" transform="translate(-165.83,54.41)" />   <use xlink:href="#dot" transform="translate(-169.83,56.11)" />   <use xlink:href="#dot" transform="translate(-166.83,54.41)" />   <use xlink:href="#dot" transform="translate(-168.16,55.42)" />   <use xlink:href="#dot" transform="translate(-165.83,54.91)" />   <use xlink:href="#dot" transform="translate(-165.5,54.74)" />   <use xlink:href="#dot" transform="translate(-168.83,55.93)" />   <use xlink:href="#dot" transform="translate(-169.5,56.28)" />   <use xlink:href="#dot" transform="translate(-166.83,54.58)" />   <use xlink:href="#dot" transform="translate(-166.5,54.58)" />   <use xlink:href="#dot" transform="translate(-165.83,54.58)" />   <use xlink:href="#dot" transform="translate(-163.83,55.76)" />   <use xlink:href="#dot" transform="translate(-168.83,55.76)" />   <use xlink:href="#dot" transform="translate(-168.83,56.11)" />   <use xlink:href="#dot" transform="translate(-165.16,54.58)" />   <use xlink:href="#dot" transform="translate(-168.83,55.59)" />   <use xlink:href="#dot" transform="translate(58.2,-3.66)" />   <use xlink:href="#dot" transform="translate(58.2,-3.66)" />   <use xlink:href="#dot" transform="translate(59.52,-3.75)" />   <use xlink:href="#dot" transform="translate(58.35,-3.92)" />   <use xlink:href="#dot" transform="translate(58.2,-3.66)" />   <use xlink:href="#dot" transform="translate(58.2,-3.66)" />   <use xlink:href="#dot" transform="translate(58.2,-3.66)" />   <use xlink:href="#dot" transform="translate(58.35,-3.92)" />   <use xlink:href="#dot" transform="translate(58.35,-3.92)" />   <use xlink:href="#dot" transform="translate(58.2,-3.66)" />   <use xlink:href="#dot" transform="translate(58.2,-3.66)" />   <use xlink:href="#dot" transform="translate(58.35,-3.92)" />   <use xlink:href="#dot" transform="translate(58.2,-3.66)" />   <use xlink:href="#dot" transform="translate(58.35,-3.92)" />   <use xlink:href="#dot" transform="translate(58.2,-3.66)" />   <use xlink:href="#dot" transform="translate(58.2,-3.66)" />   <use xlink:href="#dot" transform="translate(59.52,-3.75)" />   <use xlink:href="#dot" transform="translate(58.35,-3.92)" />   <use xlink:href="#dot" transform="translate(58.2,-3.66)" />   <use xlink:href="#dot" transform="translate(59.52,-3.75)" />   <use xlink:href="#dot" transform="translate(58.35,-3.92)" />   <use xlink:href="#dot" transform="translate(58.2,-3.66)" />   <use xlink:href="#dot" transform="translate(58.35,-3.92)" />   <use xlink:href="#dot" transform="translate(59.8,-3.8)" />   <use xlink:href="#dot" transform="translate(55.9414,-0.5432)" />   <use xlink:href="#dot" transform="translate(59.8,-3.8)" />   <use xlink:href="#dot" transform="translate(55.9414,-0.5432)" />   <use xlink:href="#dot" transform="translate(55.4453,0.5519)" />   <use xlink:href="#dot" transform="translate(54.8248,1.7722)" />   <use xlink:href="#dot" transform="translate(54.3508,2.2017)" />   <use xlink:href="#dot" transform="translate(55.4453,0.5519)" />   <use xlink:href="#dot" transform="translate(54.26,-3.48)" />   <use xlink:href="#dot" transform="translate(57.55,-2.95)" />   <use xlink:href="#dot" transform="translate(54,-4.46)" />   <use xlink:href="#dot" transform="translate(58.06,-3.49)" />   <use xlink:href="#dot" transform="translate(52.01,-3)" />   <use xlink:href="#dot" transform="translate(53,-4.67)" />   <use xlink:href="#dot" transform="translate(53,-4.67)" />   <use xlink:href="#dot" transform="translate(53,-2)" />   <use xlink:href="#dot" transform="translate(53,-2)" />   <use xlink:href="#dot" transform="translate(53,-4.67)" />   <use xlink:href="#dot" transform="translate(53,-2)" />   <use xlink:href="#dot" transform="translate(58.06,-3.49)" />   <use xlink:href="#dot" transform="translate(52.01,-3)" />   <use xlink:href="#dot" transform="translate(-68.091667,40.075)" />   <use xlink:href="#dot" transform="translate(53,-4.67)" />   <use xlink:href="#dot" transform="translate(58.06,-3.49)" />   <use xlink:href="#dot" transform="translate(53,-4.67)" />   <use xlink:href="#dot" transform="translate(-67.241667,40.291667)" />   <use xlink:href="#dot" transform="translate(53,-4.67)" />   <use xlink:href="#dot" transform="translate(52.01,-3)" />   <use xlink:href="#dot" transform="translate(53,-2)" />   <use xlink:href="#dot" transform="translate(52.01,-3)" />   <use xlink:href="#dot" transform="translate(53,-2)" />   <use xlink:href="#dot" transform="translate(-23.997667,7.732167)" />   <use xlink:href="#dot" transform="translate(-23.997667,7.732167)" />   <use xlink:href="#dot" transform="translate(-23.997667,7.732167)" />   <use xlink:href="#dot" transform="translate(57.5386,-5.4579)" />   <use xlink:href="#dot" transform="translate(56.826,-4.4669)" />   <use xlink:href="#dot" transform="translate(57.368,-6.4696)" />   <use xlink:href="#dot" transform="translate(58.1005,-6.2597)" />   <use xlink:href="#dot" transform="translate(55.5193,-5.6222)" />   <use xlink:href="#dot" transform="translate(58.1005,-6.2597)" />   <use xlink:href="#dot" transform="translate(55.5193,-5.6222)" />   <use xlink:href="#dot" transform="translate(57.368,-6.4696)" />   <use xlink:href="#dot" transform="translate(57.5386,-5.4579)" />   <use xlink:href="#dot" transform="translate(57.5386,-5.4579)" />   <use xlink:href="#dot" transform="translate(56.826,-4.4669)" />   <use xlink:href="#dot" transform="translate(57.5386,-5.4579)" />   <use xlink:href="#dot" transform="translate(56.9257,-4.9349)" />   <use xlink:href="#dot" transform="translate(57.368,-6.4696)" />   <use xlink:href="#dot" transform="translate(57.5386,-5.4579)" />   <use xlink:href="#dot" transform="translate(56.9257,-4.9349)" />   <use xlink:href="#dot" transform="translate(56.826,-4.4669)" />   <use xlink:href="#dot" transform="translate(56.826,-4.4669)" />   <use xlink:href="#dot" transform="translate(56.826,-4.4669)" />   <use xlink:href="#dot" transform="translate(-165.83,54.58)" />   <use xlink:href="#dot" transform="translate(-173.83,52.46)" />   <use xlink:href="#dot" transform="translate(-165.16,54.91)" />   <use xlink:href="#dot" transform="translate(-166.16,54.41)" />   <use xlink:href="#dot" transform="translate(-165.16,55.08)" />   <use xlink:href="#dot" transform="translate(-166.83,54.41)" />   <use xlink:href="#dot" transform="translate(-174.83,52.3)" />   <use xlink:href="#dot" transform="translate(-166.16,54.91)" />   <use xlink:href="#dot" transform="translate(-164.83,55.08)" />   <use xlink:href="#dot" transform="translate(-168.83,55.93)" />   <use xlink:href="#dot" transform="translate(-168.5,55.93)" />   <use xlink:href="#dot" transform="translate(-165.5,54.41)" />   <use xlink:href="#dot" transform="translate(-165.5,54.74)" />   <use xlink:href="#dot" transform="translate(-168.5,55.76)" />   <use xlink:href="#dot" transform="translate(-164.83,54.91)" />   <use xlink:href="#dot" transform="translate(-165.5,54.58)" />   <use xlink:href="#dot" transform="translate(-174.5,52.3)" />   <use xlink:href="#dot" transform="translate(-165.83,54.74)" />   <use xlink:href="#dot" transform="translate(-165.5,54.91)" />   <use xlink:href="#dot" transform="translate(-167.83,55.25)" />   <use xlink:href="#dot" transform="translate(-165.83,54.41)" />   <use xlink:href="#dot" transform="translate(-175.5,52.14)" />   <use xlink:href="#dot" transform="translate(139.167,35.1333)" />   <use xlink:href="#dot" transform="translate(62,-0.45)" />   <use xlink:href="#dot" transform="translate(-123.0262,37.91628)" />   <use xlink:href="#dot" transform="translate(54.62,-2.27)" />   <use xlink:href="#dot" transform="translate(54.62,-2.27)" />   <use xlink:href="#dot" transform="translate(55.11,-3.17)" />   <use xlink:href="#dot" transform="translate(54.9,-3.27)" />   <use xlink:href="#dot" transform="translate(54.9,-3.27)" />   <use xlink:href="#dot" transform="translate(54.4,-3.91)" />   <use xlink:href="#dot" transform="translate(54.55,-3.53)" />   <use xlink:href="#dot" transform="translate(53.67,-2)" />   <use xlink:href="#dot" transform="translate(53.12,-2.37)" />   <use xlink:href="#dot" transform="translate(53.12,-2.37)" />   <use xlink:href="#dot" transform="translate(54.9,-3.27)" />   <use xlink:href="#dot" transform="translate(54.62,-2.27)" />   <use xlink:href="#dot" transform="translate(54.55,-3.53)" />   <use xlink:href="#dot" transform="translate(54.4,-3.91)" />   <use xlink:href="#dot" transform="translate(54.62,-2.27)" />   <use xlink:href="#dot" transform="translate(54.55,-3.53)" />   <use xlink:href="#dot" transform="translate(53.67,-2)" />   <use xlink:href="#dot" transform="translate(54.55,-3.53)" />   <use xlink:href="#dot" transform="translate(54.55,-3.53)" />   <use xlink:href="#dot" transform="translate(54.9,-3.27)" />   <use xlink:href="#dot" transform="translate(53.67,-2)" />   <use xlink:href="#dot" transform="translate(54.55,-3.53)" />   <use xlink:href="#dot" transform="translate(54.62,-2.27)" />   <use xlink:href="#dot" transform="translate(55.11,-3.17)" />   <use xlink:href="#dot" transform="translate(53.67,-2)" />   <use xlink:href="#dot" transform="translate(55.11,-3.17)" />   <use xlink:href="#dot" transform="translate(54.9,-3.27)" />   <use xlink:href="#dot" transform="translate(54.9,-3.27)" />   <use xlink:href="#dot" transform="translate(53.12,-2.37)" />   <use xlink:href="#dot" transform="translate(54.62,-2.27)" />   <use xlink:href="#dot" transform="translate(53.12,-2.37)" />   <use xlink:href="#dot" transform="translate(53.12,-2.37)" />   <use xlink:href="#dot" transform="translate(54.62,-2.27)" />   <use xlink:href="#dot" transform="translate(54.62,-2.27)" />   <use xlink:href="#dot" transform="translate(53.67,-2)" />   <use xlink:href="#dot" transform="translate(54.9,-3.27)" />   <use xlink:href="#dot" transform="translate(53.12,-2.37)" />   <use xlink:href="#dot" transform="translate(53.12,-2.37)" />   <use xlink:href="#dot" transform="translate(53.67,-2)" />   <use xlink:href="#dot" transform="translate(55.11,-3.17)" />   <use xlink:href="#dot" transform="translate(54.55,-3.53)" />   <use xlink:href="#dot" transform="translate(54.55,-3.53)" />   <use xlink:href="#dot" transform="translate(53.12,-2.37)" />   <use xlink:href="#dot" transform="translate(53.78,-3.46)" />   <use xlink:href="#dot" transform="translate(55.11,-3.17)" />   <use xlink:href="#dot" transform="translate(53.12,-2.37)" />   <use xlink:href="#dot" transform="translate(53.67,-2)" />   <use xlink:href="#dot" transform="translate(55.11,-3.17)" />   <use xlink:href="#dot" transform="translate(55.11,-3.17)" />   <use xlink:href="#dot" transform="translate(54.9,-3.27)" />   <use xlink:href="#dot" transform="translate(54.4,-3.91)" />   <use xlink:href="#dot" transform="translate(56.08,-3.68)" />   <use xlink:href="#dot" transform="translate(55.65,-2.73)" />   <use xlink:href="#dot" transform="translate(54.58,-2.93)" />   <use xlink:href="#dot" transform="translate(55.85,-0.32)" />   <use xlink:href="#dot" transform="translate(55.65,-2.73)" />   <use xlink:href="#dot" transform="translate(55.85,-0.32)" />   <use xlink:href="#dot" transform="translate(-176.5525,-44.7692)" />   <use xlink:href="#dot" transform="translate(55.65,-2.73)" />   <use xlink:href="#dot" transform="translate(55.65,-2.73)" />   <use xlink:href="#dot" transform="translate(55.65,-2.73)" />   <use xlink:href="#dot" transform="translate(55.65,-2.73)" /><polygon class="region" points="147.966,-43.133 -176.5525,-44.7692 -175.5,52.14 -175.3261,58.35606 -15,55 139.167,35.1333 178.114042,-38.676933 178.3628,-39.4088 147.966,-43.133 " />
		  </g>
		</svg>