<?xml version="1.0" encoding="UTF-8"?>
	<svg xmlns:xlink="http://www.w3.org/1999/xlink" 
	xmlns="http://www.w3.org/2000/svg" 
	width="360px" height="180px">
	   <style type="text/css">
		  <![CDATA[     
		  .region 
		  { 
			fill:blue; 
			opacity:0.4; 
			stroke:blue;
		  }
		  ]]>
	   </style>

	<circle id="dot" x="-2" y="-2" r="2" style="stroke:none; stroke-width:0; fill:black; opacity:0.7;"/>


	 <image x="0" y="0" width="360" height="180" xlink:href="map.jpg"/>

 
	 <g transform="translate(180,90) scale(1,-1)"><polygon class="region" points="55.557610819,-2.874638691 56.069895455,-2.9859219219999 56.422020233,-3.297347569 56.798416588,-4.1613007899999 56.792334185,-4.908106534 57.188568238,-5.231873521 57.107437086,-5.3205352859999 56.683823823,-5.116205016 56.576305923,-5.2435286109999 56.629684491,-5.7189339769999 56.445916585,-6.1498486209999 56.302985927,-6.142540358 56.36973667,-5.560571782 56.204935041,-5.463535233 56.274499235,-6.08664694 55.746588205,-6.6563636029999 55.370804628,-6.78354071 55.000519986,-6.689484165 54.513085622,-6.0637470629999 53.655959858,-6.9325086339999 53.600517173,-7.466816749 53.30080786,-7.885444182 52.79797604,-8.082853455 52.236675036,-7.930092268 51.899167958,-7.5120163629999 51.836880639,-6.936141344 52.14582407,-6.3060247069999 52.159286899,-5.6509669559999 52.545512807,-4.611033348 52.898747999,-4.299162349 53.299007332,-4.2055773129999 53.699301405,-4.300495917 54.04500125,-4.6045634979999 54.388477685,-4.097755919 54.317232727,-3.597368081 54.535046194,-3.1153734289999 54.978585154,-2.837018208 55.557610819,-2.874638691 " /><polygon class="region" points="54.355088631,-4.769196528 54.100999301,-4.700260874 54.576185815,-5.478901101 54.702162644,-5.2795034219999 54.355088631,-4.769196528 " /><polygon class="region" points="55.427124023,-4.602240563 55.365913391,-4.643517017 55.447555542,-4.6783304209999 55.534446716,-4.8025379179999 55.427124023,-4.602240563 " /><polygon class="region" points="55.709518433,-4.29019785 55.725193024,-4.34922266 55.791126251,-4.330508709 55.776485443,-4.3127288819999 55.709518433,-4.29019785 " /><polygon class="region" points="55.226299286,-4.5055189139999 55.257530213,-4.504471302 55.246864319,-4.4661908149999 55.207595825,-4.4690537459999 55.226299286,-4.5055189139999 " /><polygon class="region" points="55.838855743,-4.337546349 55.820232392,-4.349017143 55.836917877,-4.3760175699999 55.85371399,-4.3610854149999 55.838855743,-4.337546349 " /><polygon class="region" points="53.677532196,-5.6839857099999 53.657348633,-5.6860814099999 53.652927398,-5.693320752 53.700149536,-5.6779189109999 53.677532196,-5.6839857099999 " /><polygon class="region" points="52.747535706,-7.005046845 52.759548187,-6.9967274659999 52.735729218,-6.9924435619999 52.735671997,-6.9998006819999 52.747535706,-7.005046845 " /><polygon class="region" points="55.722854614,-4.282170773 55.731563568,-4.2870326039999 55.742385864,-4.2753124239999 55.712547302,-4.275229931 55.722854614,-4.282170773 " /><polygon class="region" points="55.873764038,-4.331185341 55.874729157,-4.313447476 55.860488892,-4.3166365619999 55.862308502,-4.321940422 55.873764038,-4.331185341 " /><polygon class="region" points="55.245254516,-4.398449421 55.259967804,-4.3925080299999 55.251747131,-4.379117966 55.247707367,-4.3806552889999 55.245254516,-4.398449421 " /><polygon class="region" points="53.335067749,-5.420146465 53.328178406,-5.4299745559999 53.341232299,-5.437720299 53.343608856,-5.431221008 53.335067749,-5.420146465 " /><polygon class="region" points="53.058689118,-6.225930214 53.041912079,-6.226780415 53.041126251,-6.2323188779999 53.063468933,-6.2334098819999 53.058689118,-6.225930214 " /><polygon class="region" points="55.944496155,-4.5937800409999 55.951393128,-4.5901112559999 55.932598114,-4.5767016409999 55.931209564,-4.5810761449999 55.944496155,-4.5937800409999 " /><polygon class="region" points="53.234596253,-5.670582295 53.243988037,-5.6689801219999 53.247077941,-5.6636157039999 53.224853516,-5.661976814 53.234596253,-5.670582295 " /><polygon class="region" points="55.667488098,-3.8147623539999 55.67646408,-3.8039591309999 55.672580719,-3.798418284 55.668216706,-3.8002491 55.667488098,-3.8147623539999 " /><polygon class="region" points="53.316425324,-5.765756607 53.305896759,-5.7678456309999 53.313789368,-5.780544758 53.319660187,-5.7663702959999 53.316425324,-5.765756607 " /><polygon class="region" points="52.735752105,-7.171729087 52.74143219,-7.1683821679999 52.730987549,-7.155059814 52.728115082,-7.1604118339999 52.735752105,-7.171729087 " /><polygon class="region" points="55.497596741,-4.610289574 55.505638122,-4.608701229 55.505661011,-4.6017899509999 55.494171143,-4.6035985949999 55.497596741,-4.610289574 " /><polygon class="region" points="55.395111084,-5.8618531229999 55.389122009,-5.864597321 55.401050567,-5.8747668259999 55.400840759,-5.868548393 55.395111084,-5.8618531229999 " /><polygon class="region" points="55.207141876,-3.72578168 55.214031219,-3.7230401039999 55.213840485,-3.711519241 55.207862854,-3.715646267 55.207141876,-3.72578168 " /><polygon class="region" points="55.666149139,-4.2048287389999 55.657886505,-4.2057270999999 55.656959534,-4.2082586289999 55.671642303,-4.2110652919999 55.666149139,-4.2048287389999 " /><polygon class="region" points="53.310455323,-5.756464004 53.317382812,-5.7576808929999 53.319526673,-5.7511873249999 53.302600861,-5.7550382609999 53.310455323,-5.756464004 " /><polygon class="region" points="55.498435974,-4.635865211 55.504863739,-4.636806011 55.505111694,-4.6305866239999 55.494781494,-4.630094529 55.498435974,-4.635865211 " /><polygon class="region" points="55.914615631,-4.3349757189999 55.90908432,-4.342564583 55.912284851,-4.348563194 55.917354583,-4.3402819629999 55.914615631,-4.3349757189999 " /><polygon class="region" points="53.294773102,-5.40751934 53.287693024,-5.409527302 53.302940368,-5.412619591 53.302440644,-5.408745766 53.294773102,-5.40751934 " /><polygon class="region" points="53.301986695,-5.1142787929999 53.292434692,-5.1152424809999 53.292575836,-5.12114048 53.296272277,-5.1217908859999 53.301986695,-5.1142787929999 " /><polygon class="region" points="53.145774841,-6.1822652819999 53.14919281,-6.180805683 53.153087616,-6.1703634269999 53.145572663,-6.1737594599999 53.145774841,-6.1822652819999 " /><polygon class="region" points="55.863086701,-4.2889957429999 55.871562957,-4.2940859789999 55.861961365,-4.279085159 55.860805512,-4.2823076249999 55.863086701,-4.2889957429999 " /><polygon class="region" points="55.404617309,-4.676814556 55.403957367,-4.667136193 55.394069672,-4.6710214619999 55.404834747,-4.6798100469999 55.404617309,-4.676814556 " /><polygon class="region" points="52.744052887,-7.1623463629999 52.753948212,-7.161890507 52.754314423,-7.157745362 52.742115021,-7.15825367 52.744052887,-7.1623463629999 " /><polygon class="region" points="55.370670318,-4.6633448599999 55.364025116,-4.659176827 55.361038208,-4.659628391 55.362857819,-4.6651635169999 55.370670318,-4.6633448599999 " /><polygon class="region" points="55.852535248,-4.285281658 55.856887818,-4.2885189049999 55.853240967,-4.278832435 55.849788666,-4.2832012179999 55.852535248,-4.285281658 " /><polygon class="region" points="55.660766601,-4.324146271 55.657535553,-4.3285284039999 55.662807464,-4.3303866389999 55.663967133,-4.327164173 55.660766601,-4.324146271 " /><polygon class="region" points="53.030918121,-5.887023449 53.032310486,-5.8874511719999 53.036808014,-5.883205414 53.028301239,-5.8831729889999 53.030918121,-5.887023449 " /><polygon class="region" points="55.647392273,-4.343014717 55.64188385,-4.34253788 55.643245697,-4.3485322 55.645999909,-4.348079205 55.647392273,-4.343014717 " /><polygon class="region" points="52.753940583,-7.062596798 52.757652283,-7.0636610989999 52.760375977,-7.0619897839999 52.754772187,-7.0586700439999 52.753940583,-7.062596798 " /><polygon class="region" points="46.347622459,-8.4240238269999 46.841023963,-8.511130352 47.237428982,-8.8217793429999 47.942680953,-8.831770422 48.329315999,-9.0949829849999 48.659568765,-10.097264217 48.30253218,-10.840156006 47.712681684,-11.002993739 47.269547961,-10.859802032 46.946945146,-10.545105153 46.253907173,-10.64107794 45.5459626,-10.054134038 45.308573366,-9.479843214 45.394475085,-8.951999276 45.764492103,-8.552998567 46.347622459,-8.4240238269999 " /><polygon class="region" points="46.441127777,-9.350948333 46.477603912,-9.3949394219999 46.216537475,-9.441023827 46.518383026,-9.3919334409999 46.441127777,-9.350948333 " /><polygon class="region" points="46.295200348,-9.3382873539999 46.275676727,-9.350583076 46.435798645,-9.347377777 46.393375397,-9.3393135069999 46.295200348,-9.3382873539999 " /><polygon class="region" points="46.206775665,-9.3766756059999 46.240859985,-9.364624023 46.234981537,-9.3411417 46.200149536,-9.35701561 46.206775665,-9.3766756059999 " /><polygon class="region" points="46.483409881,-9.75063324 46.499198913,-9.747265816 46.501430512,-9.718766213 46.48273468,-9.746720314 46.483409881,-9.75063324 " /><polygon class="region" points="47.736400604,-10.106676101 47.755672455,-10.1108284 47.755916596,-10.08599186 47.742916107,-10.082532883 47.736400604,-10.106676101 " /><polygon class="region" points="47.50541687,-9.714676857 47.508556366,-9.7146873479999 47.522850036,-9.6935386649999 47.508102417,-9.695567131 47.50541687,-9.714676857 " /><polygon class="region" points="47.63388443,-9.74394703 47.648727417,-9.7405147549999 47.653587341,-9.722500801 47.64553833,-9.7214021679999 47.63388443,-9.74394703 " /><polygon class="region" points="46.249313354,-9.344906807 46.252986908,-9.350215912 46.270629882,-9.343197822 46.24030304,-9.341863632 46.249313354,-9.344906807 " /><polygon class="region" points="46.25296402,-9.392512321 46.25479126,-9.396891594 46.265480041,-9.390749931 46.255786896,-9.385174752 46.25296402,-9.392512321 " /><polygon class="region" points="47.595134735,-9.753561974 47.591060638,-9.75399971 47.570419312,-9.757885933 47.58851242,-9.7588377 47.595134735,-9.753561974 " /><polygon class="region" points="47.652301788,-9.6988096229999 47.65460968,-9.713261605 47.657344818,-9.706000328 47.652301788,-9.6988096229999 " /><polygon class="region" points="51.207882354,-9.2197905109999 50.827596447,-9.4131556579999 50.42462374,-9.2756372059999 50.235020181,-8.88805659 50.372166538,-8.475127932 50.960926416,-8.3113319679999 51.153111576,-8.422059955 51.342715136,-8.8091627069999 51.207882354,-9.2197905109999 " /><polygon class="region" points="51.043823242,-9.243749619 51.0493927,-9.249457359 51.049297332,-9.221186637 51.039924621,-9.231404305 51.043823242,-9.243749619 " /><polygon class="region" points="50.719905854,-9.3317985539999 50.731208801,-9.3275470739999 50.72600174,-9.3165655129999 50.717269897,-9.3230895999999 50.719905854,-9.3317985539999 " />
		  </g>
		</svg>