<?xml version="1.0" encoding="UTF-8"?>
	<svg xmlns:xlink="http://www.w3.org/1999/xlink" 
	xmlns="http://www.w3.org/2000/svg" 
	width="360px" height="180px">
	   <style type="text/css">
		  <![CDATA[     
		  .region 
		  { 
			fill:blue; 
			opacity:0.4; 
			stroke:blue;
		  }
		  ]]>
	   </style>

	<circle id="dot" x="-2" y="-2" r="2" style="stroke:none; stroke-width:0; fill:black; opacity:0.7;"/>


	 <image x="0" y="0" width="360" height="180" xlink:href="map.jpg"/>

 
	 <g transform="translate(180,90) scale(1,-1)"><polygon class="region" points="-0.75833333299994,37.8 -0.76991780599997,37.833976068 -0.85833333299996,37.716666666 -0.72435709699994,37.638948059 -0.75897623699996,37.778532918 -0.74195726199997,37.782514954 -0.71768086799995,37.604964532 -1.3229254829999,37.562038167 -1.775,37.245833333 -1.6492914839999,37.528279283 -1.075618489,37.951005893 -1.2083333329999,38.183333333 -0.9625,38.6 -1.154166666,38.783333333 -0.64338277199994,38.724646674 -0.35452473899994,38.851709662 -0.31289604999995,39.107365587 -0.84998677499993,39.463995701 -0.65359937899996,39.646579997 -0.84131198399996,39.985786777 -0.1,39.945833333 0.083686660000069,40.197546387 -0.066666666999936,40.670833334 0.28333333300003,40.7625 0.52083333300004,40.604166667 0.55056728800002,40.746885173 0.50307148700006,40.795753479 0.51725143200002,40.862449646 0.54778890400007,40.76236516 1.044982571,41.267517599 1.0769561770001,41.466099379 1.395833333,41.558333334 1.781256442,41.354723274 2.188714938,41.846400621 2.6190911190001,41.916313341 2.919771321,41.774394904 3.104696317,41.907181464 3.1125,42.2 3.238117473,41.950469292 3.047416857,41.777663167 2.106591119,41.283686659 0.99362284300003,41.041099379 0.70844726600006,40.807174683 0.87836405500002,40.732598199 0.87391187900005,40.69619378 0.55390201200004,40.578029378 -0.32083333299994,39.508333333 -0.18298000799996,39.035075548 0.23667297400004,38.733653429 -0.50301038999993,38.333548991 -0.75833333299994,37.8 " /><polygon class="region" points="0.85370008700005,40.726641168 0.85694444500007,40.725 0.85797899000005,40.727081299 0.85683593800007,40.729421658 0.85370008700005,40.726641168 " /><polygon class="region" points="-0.98333333399995,37.595833334 -0.98333333399995,37.591666667 -0.97859937899994,37.594618394 -0.98333333399995,37.595833334 " /><polygon class="region" points="0.74142829000004,40.767408244 0.76944444500003,40.766666667 0.77514512800002,40.773959012 0.73735928000002,40.784013876 0.74142829000004,40.767408244 " /><polygon class="region" points="-2.011285061,37.308900621 -1.7708333329999,37.241666666 -2.136753336,36.724432712 -2.875850084,36.903599379 -2.995833333,37.095833334 -2.916666666,37.320833333 -2.2625,37.204166666 -2.011285061,37.308900621 " /><polygon class="region" points="-0.77982211599993,37.695587497 -0.77054375499995,37.704822117 -0.76388888899993,37.6875 -0.77471957699993,37.688282946 -0.77982211599993,37.695587497 " /><polygon class="region" points="3.216626315,42.048520236 3.2283226860001,42.053112453 3.231944444,42.0375 3.225859239,42.038226318 3.216626315,42.048520236 " /><polygon class="region" points="-0.46344536599997,38.1657213 -0.48673163499996,38.163164605 -0.48742879199995,38.170004612 -0.47441914799992,38.17133077 -0.46344536599997,38.1657213 " /><polygon class="region" points="0.69112464100004,39.893597582 0.68008219400002,39.89226871 0.67862464100006,39.897455682 0.68643120700005,39.904708692 0.69112464100004,39.893597582 " /><polygon class="region" points="-0.71306728799993,37.732017178 -0.70672132699997,37.733900621 -0.70138888899993,37.725 -0.71163669199996,37.725634935 -0.71306728799993,37.732017178 " /><polygon class="region" points="3.1833333330001,41.866666667 3.1923095710001,41.865751139 3.1903856060001,41.857690429 3.184084405,41.859304131 3.1833333330001,41.866666667 " /><polygon class="region" points="0.66619856100004,39.878105333 0.67393866700007,39.879634773 0.67361111100007,39.870833333 0.66749471000003,39.871546088 0.66619856100004,39.878105333 " /><polygon class="region" points="-0.80450981999996,37.702932739 -0.79884813099994,37.704696147 -0.79305555599996,37.695833333 -0.79893391899998,37.69645267 -0.80450981999996,37.702932739 " /><polygon class="region" points="-0.4625,38.1625 -0.45500047499996,38.161816746 -0.45449116999993,38.15923801 -0.46128540099994,38.157895576 -0.4625,38.1625 " /><polygon class="region" points="0.66606157100006,39.890111118 0.66811523400003,39.896438429 0.67137976800007,39.892423164 0.66606157100006,39.890111118 " /><polygon class="region" points="-0.13395080499993,38.500945706 -0.13008151499997,38.504784139 -0.12528991699997,38.502859497 -0.12638888899994,38.5 -0.13395080499993,38.500945706 " /><polygon class="region" points="-0.75046657999997,37.664141337 -0.74733072899994,37.666921658 -0.74618767599998,37.664581299 -0.74722222199995,37.6625 -0.75046657999997,37.664141337 " /><polygon class="region" points="-0.65046657899995,37.655808004 -0.64733072899998,37.658588324 -0.64618767599995,37.656247966 -0.64722222199992,37.654166666 -0.65046657899995,37.655808004 " /><polygon class="region" points="-2.6791666669999,36.916666667 -2.4683780249999,36.887141588 -2.4220482719999,36.807766045 -2.6990627709999,36.678599379 -3,36.741666666 -2.841666667,36.904166667 -2.697915988,36.737513563 -2.6791666669999,36.916666667 " /><polygon class="region" points="-1.5522104899999,40.792233954 -1.2019561769999,41.032766045 -0.51862284299995,40.388067288 -0.2125,40.866666666 -0.079166666999924,40.854166666 -0.20833333299993,40.925 0.025617642000043,41.144833713 -0.053448807999928,41.252139214 0.36997189000004,41.375331116 0.54369828900002,41.7451906 0.725,41.675 0.70073784700003,41.982557847 1.089953613,41.849646674 1.470833333,41.9875 1.137857734,42.230878364 1.2982838950001,42.437853325 1.4791666670001,42.279166667 2.2562491520001,42.441653103 3.1125,42.204166666 3.104696317,41.907181464 2.919771321,41.774394904 2.6190911190001,41.916313341 2.188714938,41.846400621 1.781256442,41.354723274 1.395833333,41.558333334 1.0769561770001,41.466099379 1.044982571,41.267517599 0.54778890400007,40.76236516 0.51725143200002,40.862449646 0.52083333300004,40.604166667 0.28333333300003,40.7625 -0.066666666999936,40.670833334 0.083686660000069,40.197546387 -0.1,39.945833333 -0.84131198399996,39.985786777 -0.65359937899996,39.646579997 -0.84998677499993,39.463995701 -0.31289604999995,39.107365587 -0.35452473899994,38.851709662 -0.64338277199994,38.724646674 -1.154166666,38.783333333 -0.9625,38.6 -1.2083333329999,38.183333333 -1.075618489,37.951005893 -1.6492914839999,37.528279283 -1.7708333329999,37.241666666 -2.756591118,37.229519992 -2.874338786,37.415767076 -2.684184095,37.969982401 -2.979166666,37.816666667 -2.783926053,38.165749444 -3.2488307959999,37.939529419 -3.2616490679999,38.044982401 -2.7841047499999,38.20910475 -2.9281989199999,38.341270616 -2.388161214,38.592566257 -2.45221049,38.920266046 -2.3083333339999,38.820833333 -2.0125,39.016666666 -2.188117642,38.709701199 -1.995833333,38.725 -1.9152988009999,38.983950805 -1.7279201929999,38.874807061 -1.5660490249999,38.987969293 -1.599149068,39.157482402 -1.0295213479999,39.260046557 -1.5708333329999,39.641666667 -1.538350932,39.915815735 -1.666666666,39.983333333 -1.5339350379999,40.127089437 -2.1958333329999,40.854166666 -2.025937229,40.963067288 -1.5522104899999,40.792233954 " /><polygon class="region" points="3.023043823,43.224432712 3.2375,43.2125 3.041049195,42.974530707 3.0378533260001,42.626742215 3.329784139,42.32400038 3.265454102,42.233258735 3.06758016,42.271440972 3.040649753,42.474412706 2.5186228430001,42.333900621 2.0125,42.533333334 3.023043823,43.224432712 " />
		  </g>
		</svg>