<?xml version="1.0" encoding="UTF-8"?>
	<svg xmlns:xlink="http://www.w3.org/1999/xlink" 
	xmlns="http://www.w3.org/2000/svg" 
	width="360px" height="180px">
	   <style type="text/css">
		  <![CDATA[     
		  .region 
		  { 
			fill:blue; 
			opacity:0.4; 
			stroke:blue;
		  }
		  ]]>
	   </style>

	<circle id="dot" x="-2" y="-2" r="2" style="stroke:none; stroke-width:0; fill:black; opacity:0.7;"/>


	 <image x="0" y="0" width="360" height="180" xlink:href="map.jpg"/>

 
	 <g transform="translate(180,90) scale(1,-1)">   <use xlink:href="#dot" transform="translate(-0.7,38.14)" />   <use xlink:href="#dot" transform="translate(-0.52,38.24)" />   <use xlink:href="#dot" transform="translate(3.19,42.05)" />   <use xlink:href="#dot" transform="translate(0.92,41.04)" />   <use xlink:href="#dot" transform="translate(-0.52,38.24)" />   <use xlink:href="#dot" transform="translate(-0.55,38.35)" />   <use xlink:href="#dot" transform="translate(-0.52,38.24)" />   <use xlink:href="#dot" transform="translate(-0.52,38.24)" />   <use xlink:href="#dot" transform="translate(-0.52,38.24)" />   <use xlink:href="#dot" transform="translate(-0.61103,38.17391)" />   <use xlink:href="#dot" transform="translate(-0.74294,37.947464)" />   <use xlink:href="#dot" transform="translate(-0.04,38.88)" />   <use xlink:href="#dot" transform="translate(-0.7,38.14)" />   <use xlink:href="#dot" transform="translate(0.820851,40.947024)" />   <use xlink:href="#dot" transform="translate(-2.862989,36.721705)" />   <use xlink:href="#dot" transform="translate(-0.62,38.16)" />   <use xlink:href="#dot" transform="translate(-0.65,38.02)" />   <use xlink:href="#dot" transform="translate(0.4,40.37)" />   <use xlink:href="#dot" transform="translate(0.4,40.36)" />   <use xlink:href="#dot" transform="translate(-0.77,38.18)" />   <use xlink:href="#dot" transform="translate(-0.57,38.19)" />   <use xlink:href="#dot" transform="translate(-0.3,39.33)" />   <use xlink:href="#dot" transform="translate(-0.26,39.62)" />   <use xlink:href="#dot" transform="translate(-0.25,39.62)" />   <use xlink:href="#dot" transform="translate(-0.25,39.62)" />   <use xlink:href="#dot" transform="translate(-0.91,38.52)" />   <use xlink:href="#dot" transform="translate(-0.26,39.62)" />   <use xlink:href="#dot" transform="translate(-0.89,38.64)" />   <use xlink:href="#dot" transform="translate(0.13,38.69)" />   <use xlink:href="#dot" transform="translate(0.009,39.95)" />   <use xlink:href="#dot" transform="translate(-0.62,38.16)" />   <use xlink:href="#dot" transform="translate(0.21,40.18)" />   <use xlink:href="#dot" transform="translate(-0.31,39.34)" />   <use xlink:href="#dot" transform="translate(0.4,40.37)" />   <use xlink:href="#dot" transform="translate(3.18,42.23)" />   <use xlink:href="#dot" transform="translate(0.81,40.77)" />   <use xlink:href="#dot" transform="translate(-0.68,37.610001)" />   <use xlink:href="#dot" transform="translate(-0.87,38.689999)" />   <use xlink:href="#dot" transform="translate(1.16,41.040001)" />   <use xlink:href="#dot" transform="translate(-0.79,37.700001)" />   <use xlink:href="#dot" transform="translate(0.93,40.77)" />   <use xlink:href="#dot" transform="translate(-0.02,39.939999)" />   <use xlink:href="#dot" transform="translate(0.24,40.209999)" />   <use xlink:href="#dot" transform="translate(-0.77,38.150002)" />   <use xlink:href="#dot" transform="translate(-0.66,38.150002)" />   <use xlink:href="#dot" transform="translate(0.12,40.119999)" />   <use xlink:href="#dot" transform="translate(0.69,40.669998)" />   <use xlink:href="#dot" transform="translate(3.18,42.049999)" />   <use xlink:href="#dot" transform="translate(0.81,40.68)" />   <use xlink:href="#dot" transform="translate(-0.54,38.240002)" />   <use xlink:href="#dot" transform="translate(-2.94,36.82)" />   <use xlink:href="#dot" transform="translate(0.7,40.580002)" />   <use xlink:href="#dot" transform="translate(-0.13,40.029999)" />   <use xlink:href="#dot" transform="translate(-0.79,37.610001)" />   <use xlink:href="#dot" transform="translate(0.92,41.040001)" />   <use xlink:href="#dot" transform="translate(-2.94,36.73)" />   <use xlink:href="#dot" transform="translate(-0.06,38.950001)" />   <use xlink:href="#dot" transform="translate(0.69,40.759998)" />   <use xlink:href="#dot" transform="translate(-1,38.25)" />   <use xlink:href="#dot" transform="translate(0.35,40.400002)" />   <use xlink:href="#dot" transform="translate(-0.26,39.580002)" />   <use xlink:href="#dot" transform="translate(0.81,40.860001)" />   <use xlink:href="#dot" transform="translate(-1,38.16)" />   <use xlink:href="#dot" transform="translate(-0.76,38.509998)" />   <use xlink:href="#dot" transform="translate(-0.9,37.700001)" />   <use xlink:href="#dot" transform="translate(-0.27,39.310001)" />   <use xlink:href="#dot" transform="translate(-0.06,38.860001)" />   <use xlink:href="#dot" transform="translate(3.06,42.23)" />   <use xlink:href="#dot" transform="translate(0.93,40.68)" />   <use xlink:href="#dot" transform="translate(-0.79,37.790001)" />   <use xlink:href="#dot" transform="translate(0.4,40.37)" />   <use xlink:href="#dot" transform="translate(-0.25,39.62)" />   <use xlink:href="#dot" transform="translate(-0.25,39.62)" />   <use xlink:href="#dot" transform="translate(0.4,40.36)" />   <use xlink:href="#dot" transform="translate(0.4,40.37)" />   <use xlink:href="#dot" transform="translate(0.16,40.15)" />   <use xlink:href="#dot" transform="translate(0.16,40.15)" />   <use xlink:href="#dot" transform="translate(-0.31,39.34)" />   <use xlink:href="#dot" transform="translate(-0.3,39.32)" />   <use xlink:href="#dot" transform="translate(-0.31,39.34)" />   <use xlink:href="#dot" transform="translate(-0.3,39.33)" />   <use xlink:href="#dot" transform="translate(-0.3,39.33)" />   <use xlink:href="#dot" transform="translate(-0.81,38.5)" />   <use xlink:href="#dot" transform="translate(0.4,40.36)" />   <use xlink:href="#dot" transform="translate(-0.26,39.62)" />   <use xlink:href="#dot" transform="translate(0.4,40.36)" />   <use xlink:href="#dot" transform="translate(-0.58,38.19)" />   <use xlink:href="#dot" transform="translate(0.13,38.69)" />   <use xlink:href="#dot" transform="translate(-0.26,39.63)" />   <use xlink:href="#dot" transform="translate(-0.26,39.62)" />   <use xlink:href="#dot" transform="translate(-0.31,39.34)" />   <use xlink:href="#dot" transform="translate(0.21,40.18)" />   <use xlink:href="#dot" transform="translate(0.19,40.27)" />   <use xlink:href="#dot" transform="translate(-0.31,39.34)" />   <use xlink:href="#dot" transform="translate(-0.58,38.19)" />   <use xlink:href="#dot" transform="translate(0.4,40.37)" />   <use xlink:href="#dot" transform="translate(0.4,40.36)" />   <use xlink:href="#dot" transform="translate(0.21,40.18)" />   <use xlink:href="#dot" transform="translate(0.4,40.37)" />   <use xlink:href="#dot" transform="translate(-2.266667,30.316667)" />   <use xlink:href="#dot" transform="translate(0.4,40.37)" />   <use xlink:href="#dot" transform="translate(0.4,40.36)" />   <use xlink:href="#dot" transform="translate(-0.3,39.33)" />   <use xlink:href="#dot" transform="translate(0.21,40.18)" />   <use xlink:href="#dot" transform="translate(-0.25,39.62)" />   <use xlink:href="#dot" transform="translate(-0.26,39.62)" />   <use xlink:href="#dot" transform="translate(0.18,40.18)" />   <use xlink:href="#dot" transform="translate(-0.73,38.18)" />   <use xlink:href="#dot" transform="translate(-0.76,38.2)" />   <use xlink:href="#dot" transform="translate(-0.72,38.17)" />   <use xlink:href="#dot" transform="translate(-0.77,38.19)" />   <use xlink:href="#dot" transform="translate(0.4,40.37)" />   <use xlink:href="#dot" transform="translate(-0.58,38.19)" />   <use xlink:href="#dot" transform="translate(0.4,40.36)" />   <use xlink:href="#dot" transform="translate(-0.26,39.62)" />   <use xlink:href="#dot" transform="translate(0.21,40.18)" />   <use xlink:href="#dot" transform="translate(0.21,40.18)" />   <use xlink:href="#dot" transform="translate(0.4,40.37)" />   <use xlink:href="#dot" transform="translate(0.18,40.18)" />   <use xlink:href="#dot" transform="translate(0.35,40.4)" />   <use xlink:href="#dot" transform="translate(-0.26,39.62)" />   <use xlink:href="#dot" transform="translate(0.24,40.21)" />   <use xlink:href="#dot" transform="translate(-0.26,39.62)" />   <use xlink:href="#dot" transform="translate(-0.26,39.62)" />   <use xlink:href="#dot" transform="translate(-0.26,39.58)" />   <use xlink:href="#dot" transform="translate(0.35,40.4)" />   <use xlink:href="#dot" transform="translate(-0.26,39.58)" />   <use xlink:href="#dot" transform="translate(-0.26,39.62)" />   <use xlink:href="#dot" transform="translate(-0.31,39.33)" />   <use xlink:href="#dot" transform="translate(0.24,40.21)" />   <use xlink:href="#dot" transform="translate(-0.31,39.33)" />   <use xlink:href="#dot" transform="translate(-0.31,39.33)" />   <use xlink:href="#dot" transform="translate(-0.54,38.24)" />   <use xlink:href="#dot" transform="translate(-0.76,38.51)" />   <use xlink:href="#dot" transform="translate(-0.31,39.33)" />   <use xlink:href="#dot" transform="translate(-0.31,39.33)" />   <use xlink:href="#dot" transform="translate(-0.31,39.33)" />   <use xlink:href="#dot" transform="translate(-0.31,39.33)" />   <use xlink:href="#dot" transform="translate(-0.31,39.33)" />   <use xlink:href="#dot" transform="translate(-0.31,39.33)" />   <use xlink:href="#dot" transform="translate(0.35,40.4)" />   <use xlink:href="#dot" transform="translate(-0.31,39.33)" />   <use xlink:href="#dot" transform="translate(-0.26,39.58)" />   <use xlink:href="#dot" transform="translate(-0.31,39.33)" />   <use xlink:href="#dot" transform="translate(-0.31,39.33)" />   <use xlink:href="#dot" transform="translate(-0.31,39.33)" />   <use xlink:href="#dot" transform="translate(0.35,40.4)" />   <use xlink:href="#dot" transform="translate(-0.87,38.69)" />   <use xlink:href="#dot" transform="translate(-0.26,39.58)" />   <use xlink:href="#dot" transform="translate(0.35,40.4)" />   <use xlink:href="#dot" transform="translate(-0.27,39.31)" />   <use xlink:href="#dot" transform="translate(-0.31,39.33)" />   <use xlink:href="#dot" transform="translate(-0.31,39.33)" />   <use xlink:href="#dot" transform="translate(-0.87,38.69)" />   <use xlink:href="#dot" transform="translate(-0.13,40.03)" />   <use xlink:href="#dot" transform="translate(0.35,40.4)" />   <use xlink:href="#dot" transform="translate(-0.27,39.31)" />   <use xlink:href="#dot" transform="translate(-0.87,38.69)" />   <use xlink:href="#dot" transform="translate(-0.26,39.58)" />   <use xlink:href="#dot" transform="translate(0.12,40.12)" />   <use xlink:href="#dot" transform="translate(-0.26,39.58)" />   <use xlink:href="#dot" transform="translate(-0.54,38.24)" />   <use xlink:href="#dot" transform="translate(-0.87,38.69)" />   <use xlink:href="#dot" transform="translate(0.12,40.12)" />   <use xlink:href="#dot" transform="translate(0.35,40.4)" />   <use xlink:href="#dot" transform="translate(0.35,40.4)" />   <use xlink:href="#dot" transform="translate(0.35,40.4)" />   <use xlink:href="#dot" transform="translate(-0.27,39.31)" />   <use xlink:href="#dot" transform="translate(-0.27,39.31)" />   <use xlink:href="#dot" transform="translate(0.35,40.4)" />   <use xlink:href="#dot" transform="translate(0.35,40.4)" />   <use xlink:href="#dot" transform="translate(-0.26,39.58)" />   <use xlink:href="#dot" transform="translate(-0.27,39.31)" />   <use xlink:href="#dot" transform="translate(-0.54,38.24)" />   <use xlink:href="#dot" transform="translate(-0.27,39.31)" />   <use xlink:href="#dot" transform="translate(0.35,40.4)" />   <use xlink:href="#dot" transform="translate(0.35,40.4)" />   <use xlink:href="#dot" transform="translate(-0.76,38.51)" />   <use xlink:href="#dot" transform="translate(0.35,40.4)" />   <use xlink:href="#dot" transform="translate(0.35,40.4)" />   <use xlink:href="#dot" transform="translate(-0.26,39.58)" />   <use xlink:href="#dot" transform="translate(-0.26,39.58)" />   <use xlink:href="#dot" transform="translate(-0.27,39.31)" />   <use xlink:href="#dot" transform="translate(-0.26,39.58)" />   <use xlink:href="#dot" transform="translate(-0.26,39.58)" />   <use xlink:href="#dot" transform="translate(-0.27,39.31)" />   <use xlink:href="#dot" transform="translate(0.35,40.4)" />   <use xlink:href="#dot" transform="translate(-0.26,39.58)" />   <use xlink:href="#dot" transform="translate(0.35,40.4)" />   <use xlink:href="#dot" transform="translate(-0.27,39.31)" />   <use xlink:href="#dot" transform="translate(-0.27,39.31)" />   <use xlink:href="#dot" transform="translate(0.24,40.21)" />   <use xlink:href="#dot" transform="translate(0.35,40.4)" />   <use xlink:href="#dot" transform="translate(-0.26,39.58)" />   <use xlink:href="#dot" transform="translate(-0.26,39.58)" />   <use xlink:href="#dot" transform="translate(0.35,40.4)" />   <use xlink:href="#dot" transform="translate(-0.27,39.31)" />   <use xlink:href="#dot" transform="translate(-0.27,39.31)" />   <use xlink:href="#dot" transform="translate(-0.26,39.58)" />   <use xlink:href="#dot" transform="translate(0.35,40.4)" />   <use xlink:href="#dot" transform="translate(-0.27,39.31)" />   <use xlink:href="#dot" transform="translate(-0.27,39.31)" />   <use xlink:href="#dot" transform="translate(0.35,40.4)" />   <use xlink:href="#dot" transform="translate(-0.27,39.31)" />   <use xlink:href="#dot" transform="translate(-0.27,39.31)" />   <use xlink:href="#dot" transform="translate(-0.27,39.31)" />   <use xlink:href="#dot" transform="translate(-0.26,39.58)" />   <use xlink:href="#dot" transform="translate(0.35,40.4)" />   <use xlink:href="#dot" transform="translate(-0.27,39.31)" />   <use xlink:href="#dot" transform="translate(-0.27,39.31)" />   <use xlink:href="#dot" transform="translate(0.35,40.4)" />   <use xlink:href="#dot" transform="translate(0.35,40.4)" />   <use xlink:href="#dot" transform="translate(0.24,40.21)" />   <use xlink:href="#dot" transform="translate(-0.27,39.31)" />   <use xlink:href="#dot" transform="translate(-0.26,39.58)" />   <use xlink:href="#dot" transform="translate(-0.76,38.51)" />   <use xlink:href="#dot" transform="translate(-0.26,39.58)" />   <use xlink:href="#dot" transform="translate(-0.26,39.58)" />   <use xlink:href="#dot" transform="translate(-0.27,39.31)" />   <use xlink:href="#dot" transform="translate(0.35,40.4)" />   <use xlink:href="#dot" transform="translate(-0.27,39.31)" />   <use xlink:href="#dot" transform="translate(-0.26,39.58)" />   <use xlink:href="#dot" transform="translate(-0.26,39.58)" />   <use xlink:href="#dot" transform="translate(-0.26,39.58)" />   <use xlink:href="#dot" transform="translate(-0.26,39.58)" />   <use xlink:href="#dot" transform="translate(-0.76,38.51)" />   <use xlink:href="#dot" transform="translate(-0.26,39.58)" />   <use xlink:href="#dot" transform="translate(-0.26,39.58)" />   <use xlink:href="#dot" transform="translate(0.35,40.4)" />   <use xlink:href="#dot" transform="translate(-0.26,39.58)" />   <use xlink:href="#dot" transform="translate(-0.27,39.31)" />   <use xlink:href="#dot" transform="translate(-0.26,39.58)" />   <use xlink:href="#dot" transform="translate(-0.26,39.58)" />   <use xlink:href="#dot" transform="translate(0.24,40.21)" />   <use xlink:href="#dot" transform="translate(0.35,40.4)" />   <use xlink:href="#dot" transform="translate(0.24,40.21)" />   <use xlink:href="#dot" transform="translate(-0.27,39.31)" />   <use xlink:href="#dot" transform="translate(-0.27,39.31)" />   <use xlink:href="#dot" transform="translate(-0.26,39.58)" />   <use xlink:href="#dot" transform="translate(-0.76,38.51)" />   <use xlink:href="#dot" transform="translate(-0.26,39.58)" />   <use xlink:href="#dot" transform="translate(0.35,40.4)" />   <use xlink:href="#dot" transform="translate(-0.27,39.31)" />   <use xlink:href="#dot" transform="translate(0.35,40.4)" />   <use xlink:href="#dot" transform="translate(0.24,40.21)" />   <use xlink:href="#dot" transform="translate(0.35,40.4)" />   <use xlink:href="#dot" transform="translate(0.35,40.4)" />   <use xlink:href="#dot" transform="translate(0.35,40.4)" />   <use xlink:href="#dot" transform="translate(-0.27,39.31)" />   <use xlink:href="#dot" transform="translate(-0.26,39.58)" />   <use xlink:href="#dot" transform="translate(-0.26,39.58)" />   <use xlink:href="#dot" transform="translate(-0.26,39.58)" />   <use xlink:href="#dot" transform="translate(0.24,40.21)" />   <use xlink:href="#dot" transform="translate(-0.27,39.31)" />   <use xlink:href="#dot" transform="translate(0.35,40.4)" />   <use xlink:href="#dot" transform="translate(0.24,40.21)" />   <use xlink:href="#dot" transform="translate(-0.26,39.58)" />   <use xlink:href="#dot" transform="translate(-0.27,39.31)" />   <use xlink:href="#dot" transform="translate(0.35,40.4)" />   <use xlink:href="#dot" transform="translate(-0.27,39.31)" />   <use xlink:href="#dot" transform="translate(0.35,40.4)" />   <use xlink:href="#dot" transform="translate(0.24,40.21)" />   <use xlink:href="#dot" transform="translate(-0.27,39.31)" />   <use xlink:href="#dot" transform="translate(0.35,40.4)" />   <use xlink:href="#dot" transform="translate(-0.27,39.31)" />   <use xlink:href="#dot" transform="translate(-0.26,39.58)" />   <use xlink:href="#dot" transform="translate(0.35,40.4)" />   <use xlink:href="#dot" transform="translate(0.24,40.21)" />   <use xlink:href="#dot" transform="translate(-0.26,39.58)" />   <use xlink:href="#dot" transform="translate(-0.26,39.58)" />   <use xlink:href="#dot" transform="translate(0.35,40.4)" />   <use xlink:href="#dot" transform="translate(-0.27,39.31)" />   <use xlink:href="#dot" transform="translate(-0.27,39.31)" />   <use xlink:href="#dot" transform="translate(0.24,40.21)" />   <use xlink:href="#dot" transform="translate(-0.27,39.31)" />   <use xlink:href="#dot" transform="translate(-0.26,39.58)" />   <use xlink:href="#dot" transform="translate(0.24,40.21)" />   <use xlink:href="#dot" transform="translate(0.24,40.21)" />   <use xlink:href="#dot" transform="translate(-0.27,39.31)" />   <use xlink:href="#dot" transform="translate(-0.26,39.58)" />   <use xlink:href="#dot" transform="translate(-0.76,38.51)" />   <use xlink:href="#dot" transform="translate(0.35,40.4)" />   <use xlink:href="#dot" transform="translate(-0.26,39.58)" />   <use xlink:href="#dot" transform="translate(-0.76,38.51)" />   <use xlink:href="#dot" transform="translate(0.35,40.4)" />   <use xlink:href="#dot" transform="translate(-0.26,39.58)" />   <use xlink:href="#dot" transform="translate(-0.26,39.58)" />   <use xlink:href="#dot" transform="translate(0.35,40.4)" />   <use xlink:href="#dot" transform="translate(-0.26,39.58)" />   <use xlink:href="#dot" transform="translate(-6.351629,36.860406)" />   <use xlink:href="#dot" transform="translate(0.841594,40.715298)" />   <use xlink:href="#dot" transform="translate(0.195336,40.220266)" />   <use xlink:href="#dot" transform="translate(-0.55,38.183333)" />   <use xlink:href="#dot" transform="translate(0.58,40.71)" />   <use xlink:href="#dot" transform="translate(0.58,40.71)" />   <use xlink:href="#dot" transform="translate(0.58,40.71)" />   <use xlink:href="#dot" transform="translate(0.58,40.71)" />   <use xlink:href="#dot" transform="translate(0.58,40.71)" />   <use xlink:href="#dot" transform="translate(-1.13054,37.99238)" />   <use xlink:href="#dot" transform="translate(1.7925,41.7598)" /><polygon class="region" points="-2.266667,30.316667 -6.351629,36.860406 1.7925,41.7598 3.06,42.23 3.18,42.23 3.19,42.05 -2.266667,30.316667 " />
		  </g>
		</svg>