<?xml version="1.0" encoding="UTF-8"?>
	<svg xmlns:xlink="http://www.w3.org/1999/xlink" 
	xmlns="http://www.w3.org/2000/svg" 
	width="360px" height="180px">
	   <style type="text/css">
		  <![CDATA[     
		  .region 
		  { 
			fill:blue; 
			opacity:0.4; 
			stroke:blue;
		  }
		  ]]>
	   </style>

	<circle id="dot" x="-2" y="-2" r="2" style="stroke:none; stroke-width:0; fill:black; opacity:0.7;"/>


	 <image x="0" y="0" width="360" height="180" xlink:href="map.jpg"/>

 
	 <g transform="translate(180,90) scale(1,-1)"><polygon class="region" points="93.650353326,24.394091119 93.575,23.654166667 93.484072197,23.584213087 93.4,23.783333333 93.291666667,23.645833334 93.105908881,23.728813341 92.981122843,23.438067288 92.954166667,24.229166666 93.650353326,24.394091119 " /><polygon class="region" points="95.8625,24.895833334 95.907766045,24.68528951 95.6875,24.3625 95.379166667,24.454166667 95.3375,24.908333334 95.8625,24.895833334 " /><polygon class="region" points="93.404798381,23.759327189 93.55,22.883333333 93.42991333,22.641099379 93.3,22.8125 93.092021688,22.797546047 93.064924452,23.128813341 92.9375,22.941666667 92.842135451,23.364583334 92.926956177,23.545266046 93.07047526,23.497543165 93.105908881,23.728813341 93.291666667,23.645833334 93.404798381,23.759327189 " /><polygon class="region" points="93.954166666,25.2625 93.65,24.425 93.195833333,24.2 93.180086263,24.528583781 93.613714938,25.121400621 93.954166666,25.2625 " />
		  </g>
		</svg>