<?xml version="1.0" encoding="UTF-8"?>
	<svg xmlns:xlink="http://www.w3.org/1999/xlink" 
	xmlns="http://www.w3.org/2000/svg" 
	width="360px" height="180px">
	   <style type="text/css">
		  <![CDATA[     
		  .region 
		  { 
			fill:blue; 
			opacity:0.4; 
			stroke:blue;
		  }
		  ]]>
	   </style>

	<circle id="dot" x="-2" y="-2" r="2" style="stroke:none; stroke-width:0; fill:black; opacity:0.7;"/>


	 <image x="0" y="0" width="360" height="180" xlink:href="map.jpg"/>

 
	 <g transform="translate(180,90) scale(1,-1)"><polygon class="region" points="103.625,10.491666667 103.470165337,10.635234239 103.707766046,10.839456177 103.657482571,11.074149237 103.5,11.175 103.427976481,10.892348565 103.120742119,10.867981635 103.132457818,11.350250244 103.047575548,11.445480008 102.988208347,11.25505405 102.640740289,12.178240289 102.583655124,12.041023763 102.292417399,12.184074232 101.760757786,12.703813341 101.246739027,12.658971151 101.025,12.866666667 101.1125,13.179166667 101.452453613,13.154521688 101.566666666,13.329166667 101.72721049,13.183900622 101.9875,13.3375 102.935075548,12.146186659 103.143801541,12.083976237 103.2375,12.254166667 103.791666666,11.929166667 103.791666666,11.633333333 103.9625,11.575 104.09202474,11.172543166 104.326956177,10.975567288 104.520833333,11.025 104.891666667,10.541666667 105.2625,10.7375 105.416666667,10.529166667 105.409248861,10.69230957 105.920833334,10.945833334 105.899205865,11.249205865 105.616666666,11.379166667 105.9375,11.4125 105.983333334,11.933333334 106.3,11.8 106.570040046,11.945113797 106.682980007,11.798257786 106.621684265,11.313350932 107.241666667,10.825 106.970833333,10.866666667 106.833333334,10.708333333 106.6875,10.220833333 106.791099379,10.101956177 106.558333333,9.9958333330001 106.691099379,9.8769561770001 106.466666667,9.9291666670001 106.575567288,9.7343309190001 106.532365587,9.5753958810001 106.371829224,9.529779392 105.754166667,9.9 105.746438259,9.638828701 105.580103895,9.671463521 105.629166666,9.5125 105.345833333,9.216666667 105.129519992,9.264242215 105.207980008,9.4357577860001 104.990622288,10.095237562 104.601076593,10.141049195 104.582766046,10.248043823 104.507482402,10.349149238 104.245080397,10.565953573 103.858333333,10.654166666 103.799277411,10.455008952 103.625,10.491666667 " /><polygon class="region" points="101.954709579,12.563278114 101.954726173,12.563197812 101.954733954,12.563246663 101.954709579,12.563278114 " /><polygon class="region" points="102.274353795,12.383518079 102.274681091,12.383278846 102.274779919,12.383396254 102.274353795,12.383518079 " /><polygon class="region" points="103.691958443,11.069348608 103.692233955,11.069618394 103.692004473,11.06967729 103.691958443,11.069348608 " /><polygon class="region" points="102.984511277,11.644766078 102.984725952,11.644394875 102.984745321,11.644973588 102.984511277,11.644766078 " /><polygon class="region" points="102.997164091,11.646075428 102.99754461,11.646115323 102.997281901,11.646438429 102.997164091,11.646075428 " /><polygon class="region" points="102.279177535,12.331592617 102.279733955,12.332118395 102.279198203,12.332255892 102.279177535,12.331592617 " /><polygon class="region" points="102.058068848,12.484470621 102.058575728,12.484340527 102.05856464,12.485110343 102.058068848,12.484470621 " /><polygon class="region" points="102.958804134,11.676834976 102.95988448,11.678495602 102.959184096,11.678315904 102.958804134,11.676834976 " /><polygon class="region" points="101.957321495,12.590856953 101.958686882,12.588694291 101.958900621,12.590451728 101.957321495,12.590856953 " /><polygon class="region" points="103.679519088,11.064918221 103.683135986,11.067392349 103.683778502,11.069189458 103.67952474,11.064957004 103.679519088,11.064918221 " /><polygon class="region" points="102.965278626,11.625849724 102.962828524,11.627497346 102.965375403,11.624202486 102.965278626,11.625849724 " /><polygon class="region" points="102.280755537,12.324350218 102.280776978,12.324278832 102.283381051,12.32064756 102.282339647,12.324705336 102.280755537,12.324350218 " /><polygon class="region" points="102.260475158,12.350859642 102.258709198,12.357745169 102.258950976,12.352006361 102.260475158,12.350859642 " /><polygon class="region" points="102.333493242,12.33085155 102.337821961,12.333475113 102.336972821,12.336034983 102.336932712,12.33528951 102.333493242,12.33085155 " /><polygon class="region" points="102.346476067,12.364531792 102.345833334,12.366666667 102.342363135,12.365214003 102.348700099,12.362073273 102.346476067,12.364531792 " /><polygon class="region" points="102.223323399,12.420695297 102.225502014,12.418296814 102.228876919,12.419526164 102.224084981,12.421450805 102.223323399,12.420695297 " /><polygon class="region" points="106.48703342,9.8433080040001 106.490277778,9.841666666 106.491312324,9.843747965 106.49016944,9.846088324 106.48703342,9.8433080040001 " /><polygon class="region" points="103.020366753,11.52247467 103.023611111,11.520833333 103.024645657,11.522914632 103.023502604,11.525254992 103.020366753,11.52247467 " /><polygon class="region" points="102.273029724,12.346396529 102.277566684,12.342328395 102.279241266,12.344620768 102.273029724,12.346396529 " /><polygon class="region" points="102.27923584,12.376975059 102.283299425,12.376361084 102.279330255,12.381794765 102.27923584,12.376975059 " /><polygon class="region" points="102.962514581,11.602083334 102.966936545,11.597630419 102.966370756,11.607260664 102.966313341,11.605908882 102.962514581,11.602083334 " /><polygon class="region" points="102.268894324,12.304747259 102.278068542,12.305394173 102.27842722,12.309212847 102.27278951,12.307766046 102.268894324,12.304747259 " /><polygon class="region" points="102.288017338,12.314182451 102.288520813,12.313480377 102.299842834,12.306124687 102.304953837,12.305639991 102.288017338,12.314182451 " /><polygon class="region" points="102.070833333,12.533333333 102.078267076,12.533994547 102.079166666,12.5375 102.071732923,12.536838785 102.070833333,12.533333333 " /><polygon class="region" points="102.266049025,12.402160305 102.257859851,12.411135587 102.271342453,12.385719176 102.267284309,12.393673028 102.266049025,12.402160305 " /><polygon class="region" points="103.0875,11.445833334 103.095475261,11.451709832 103.095833333,11.454166667 103.087858073,11.448290168 103.0875,11.445833334 " /><polygon class="region" points="103.720833334,10.55 103.721191406,10.547542996 103.729166667,10.541666667 103.72839525,10.549228584 103.720833334,10.55 " /><polygon class="region" points="102.309228854,12.311822849 102.308114591,12.307480854 102.328638717,12.329031186 102.326956177,12.328599379 102.309228854,12.311822849 " /><polygon class="region" points="103.070833333,11.445833334 103.082118395,11.441099379 103.083333333,11.445833334 103.070833333,11.445833334 " /><polygon class="region" points="102.057766045,12.50491333 102.060490329,12.499905003 102.067657471,12.514048576 102.066364815,12.521606739 102.057766045,12.50491333 " /><polygon class="region" points="102.232715691,12.422201199 102.239647004,12.420219527 102.257666371,12.427919741 102.253697544,12.429784139 102.232715691,12.422201199 " /><polygon class="region" points="103.032081096,11.511920166 103.041666667,11.516666667 103.050283475,11.509162224 103.040804715,11.520025634 103.034548272,11.521400621 103.032081096,11.511920166 " /><polygon class="region" points="102.9625,11.570833333 102.965815904,11.571684265 102.974493701,11.59498038 102.962853326,11.589924452 102.9625,11.570833333 " /><polygon class="region" points="102.990414429,11.520253499 103.014953613,11.533686659 103.042233955,11.536285061 103.000999281,11.542148675 102.990414429,11.520253499 " /><polygon class="region" points="106.454733954,9.893622844 106.445266046,9.8906172010001 106.494444445,9.85 106.495340813,9.8521341960001 106.454733954,9.893622844 " /><polygon class="region" points="98.470833333,8.279166667 98.333333334,8.1791666670001 98.475630188,8.0503963890001 98.399369812,7.9795630560001 98.416626655,7.801327514 98.368685743,7.8368696420001 98.301231215,7.7541375050001 98.30065545,8.125245836 98.203599379,8.549253336 98.213213942,8.5908209900001 98.329166667,8.454166666 98.530017598,8.6574825710001 98.794123501,8.666308594 98.845418295,8.305136787 99.307677883,7.9729556610001 99.375013224,7.5223290340001 99.529166667,7.3791666670001 99.845833333,7.5 100.41028951,6.525567288 100.608333334,6.4708333340001 100.620833333,7.1625 100.781122844,6.975567288 100.989242215,6.862853326 101.289660306,6.9535491940001 101.558497111,6.848362901 101.636882528,6.718826972 101.533333333,6.8 101.336895074,6.5755405 101.4875,5.8666666670001 101.140767076,5.6173278810001 100.955908881,5.774646675 100.866666667,5.4291666670001 100.425,5.1708333340001 100.595833334,5.0458333330001 100.502452257,4.8829800080001 100.721098328,4.992308553 100.808333333,4.8583333330001 100.8,4.595833333 100.619933743,4.450661214 100.616666667,4.791666666 100.484110005,4.8632198760001 100.359007094,5.084229872 100.341313341,5.998257785 100.091666667,6.5458333340001 99.778692627,6.836490885 99.711884223,6.8589508060001 99.695100572,6.8137159560001 99.661882528,6.815667046 99.66722819,7.0395833330001 99.702798801,7.0702158610001 99.7375,7.1333333330001 99.392338392,7.305004205 99.134548272,7.783900622 99.066780599,7.4969921540001 98.999357096,7.875321791 99.061449517,7.857690599 99.0625,7.9125 98.763366699,8.0201778840001 98.699878099,8.2488522 98.713117642,8.2819654680001 98.621470981,8.259239027 98.637311507,8.3793956160001 98.470833333,8.279166667 " /><polygon class="region" points="98.569918893,8.355581918 98.570266723,8.355567932 98.570912911,8.3563080540001 98.569918893,8.355581918 " /><polygon class="region" points="98.608367242,8.390305583 98.608662109,8.3899019300001 98.610173594,8.3917502310001 98.608367242,8.390305583 " /><polygon class="region" points="98.434232923,8.3160054530001 98.433854103,8.314529292 98.436047571,8.3161668610001 98.434232923,8.3160054530001 " /><polygon class="region" points="98.475315155,8.3220612260001 98.474374122,8.3183944370001 98.475837708,8.3209152220001 98.475315155,8.3220612260001 " /><polygon class="region" points="98.503599378,8.359548272 98.505138545,8.359153255 98.505279387,8.3611357240001 98.503599378,8.359548272 " /><polygon class="region" points="100.010848999,6.5895714760001 100.011804481,6.5889566110001 100.0125,6.591666666 100.011072364,6.591666666 100.010848999,6.5895714760001 " /><polygon class="region" points="100.64953342,4.584974501 100.652112581,4.5836698250001 100.65266944,4.5877549910001 100.64953342,4.584974501 " /><polygon class="region" points="100.653700086,4.572474501 100.656944445,4.5708333330001 100.657456937,4.5718643660001 100.656161391,4.574656767 100.653700086,4.572474501 " /><polygon class="region" points="98.457866753,8.2433078340001 98.461111111,8.2416666670001 98.462145657,8.2437479650001 98.461002774,8.2460883250001 98.457866753,8.2433078340001 " /><polygon class="region" points="99.728700087,6.9308078340001 99.731944445,6.9291666670001 99.732978991,6.9312479660001 99.731835937,6.9335883250001 99.728700087,6.9308078340001 " /><polygon class="region" points="99.580017429,7.3699824010001 99.579166667,7.3666666670001 99.582482572,7.3675175980001 99.583333334,7.3708333340001 99.580017429,7.3699824010001 " /><polygon class="region" points="99.071684095,7.932482571 99.070833333,7.9291666670001 99.074149238,7.9300175990001 99.075,7.9333333330001 99.071684095,7.932482571 " /><polygon class="region" points="99.584548272,7.363067288 99.583333334,7.3583333340001 99.5875,7.3583333340001 99.586932712,7.3605438230001 99.584548272,7.363067288 " /><polygon class="region" points="99.070833333,7.6916666670001 99.071732924,7.688161214 99.079166667,7.6875 99.078267076,7.6910054520001 99.070833333,7.6916666670001 " /><polygon class="region" points="98.7,8.3041666670001 98.707975261,8.310042996 98.708333334,8.3125 98.700358073,8.3066236710001 98.7,8.3041666670001 " /><polygon class="region" points="99.007766045,7.922048272 99.0125,7.9208333330001 99.015508694,7.9119201660001 99.0172465,7.9195810950001 99.011325074,7.925411309 99.007766045,7.922048272 " /><polygon class="region" points="99.5,7.3541666670001 99.503559027,7.35507999 99.504166667,7.3708333340001 99.500607639,7.36992001 99.5,7.3541666670001 " /><polygon class="region" points="98.486013037,8.315978968 98.481579946,8.312942734 98.484176975,8.300453695 98.486762152,8.300775486 98.486013037,8.315978968 " /><polygon class="region" points="99.050915527,7.696476068 99.05,7.6875 99.066666667,7.6916666670001 99.065633816,7.6950970120001 99.050915527,7.696476068 " /><polygon class="region" points="99.69106174,6.959662204 99.702777778,6.954166667 99.703379652,6.9659040670001 99.692899238,6.967271593 99.69106174,6.959662204 " /><polygon class="region" points="99.575468614,7.3520833330001 99.575,7.3625 99.570833333,7.333333334 99.578698053,7.3479166660001 99.575468614,7.3520833330001 " /><polygon class="region" points="99.04099867,7.834145779 99.046244642,7.851174927 99.042881605,7.854733955 99.024979655,7.8363028640001 99.04099867,7.834145779 " /><polygon class="region" points="98.304166667,8.2 98.314242215,8.187853326 98.329166667,8.1791666670001 98.319123501,8.1954752610001 98.304166667,8.2 " /><polygon class="region" points="98.974357096,7.930082194 99.002777777,7.925 99.003879123,7.927998861 98.982496474,7.938142903 98.974357096,7.930082194 " /><polygon class="region" points="99.55,7.2916666670001 99.562141927,7.297543165 99.570833333,7.329166667 99.554733955,7.310543823 99.55,7.2916666670001 " /><polygon class="region" points="101.386711121,6.841516018 101.404586792,6.81987238 101.430313111,6.8548793800001 101.377838134,6.8796753880001 101.386711121,6.841516018 " /><polygon class="region" points="102.665186471,5.204963037 102.614953613,5.4746424360001 102.45625,5.350014581 102.4,5.579166667 102.090131293,5.491632419 101.779166667,5.7625 101.799432712,6.0313771560001 101.591666666,6.2958333330001 101.639118582,6.711846178 103.095437283,5.4156989200001 103.182766045,5.2813771570001 103.44069146,4.779743449 103.1875,4.9875 102.9,4.7958333330001 102.854562446,5.151299802 102.742439379,5.143354851 102.750714247,5.175426321 102.722839864,5.150617472 102.701064182,5.193747719 102.679992329,5.183910773 102.675969238,5.197948023 102.670030043,5.203431532 102.669123544,5.203520031 102.668475206,5.20404774 102.665186471,5.204963037 " /><polygon class="region" points="103.125,5.325 103.128315905,5.325850932 103.129166667,5.329166666 103.125850762,5.328315735 103.125,5.325 " /><polygon class="region" points="103.13528951,5.3422339540001 103.131235081,5.3453760780001 103.124432712,5.3387149380001 103.13660041,5.338161214 103.13528951,5.3422339540001 " /><polygon class="region" points="99.195846557,9.6068376330001 99.212146674,9.602424452 99.250604926,9.472827318 99.317271593,9.3922073360001 99.266344876,9.224357266 99.833068848,9.3114245950001 99.9375,8.7833333340001 99.579922485,8.8950744630001 99.301163059,8.5829674620001 98.920833333,8.7625 99.029166667,9.154166667 98.850850763,9.519982402 99.195846557,9.6068376330001 " /><polygon class="region" points="99.77856174,9.3151111180001 99.783879937,9.317423164 99.780615234,9.3214384290001 99.77856174,9.3151111180001 " /><polygon class="region" points="99.35472819,9.1020833330001 99.37599962,8.999382527 99.529166667,8.904166666 99.466270616,9.1698655870001 99.35472819,9.1020833330001 " /><polygon class="region" points="100.086932712,8.4230438230001 100.254809401,8.313133748 100.21575114,7.920190599 99.720833333,7.7916666670001 99.704166667,8.4208333330001 99.981620449,8.291313341 100.086932712,8.4230438230001 " /><polygon class="region" points="104.023785062,10.078599379 104.044122992,9.986882528 103.832738579,10.361732992 103.983931817,10.453403727 104.023785062,10.078599379 " /><polygon class="region" points="100.1875,5.3125 100.176161872,5.4798094010001 100.350642734,5.4240844720001 100.328313531,5.316932679 100.278116353,5.2410239330001 100.1875,5.3125 " /><polygon class="region" points="100.303700087,5.3183080040001 100.306944445,5.3166666660001 100.30797899,5.318747966 100.306836107,5.3210883240001 100.303700087,5.3183080040001 " /><polygon class="region" points="100.307866753,5.3266413370001 100.311111111,5.325 100.312145657,5.327081299 100.311002774,5.3294216580001 100.307866753,5.3266413370001 " /><polygon class="region" points="100.049357266,9.5949607000001 100.090938144,9.5781314430001 100.075642734,9.467828539 99.926024035,9.416023932 99.90823093,9.5679519650001 100.049357266,9.5949607000001 " /><polygon class="region" points="102.391086832,11.980418905 102.291011217,11.980655585 102.243590461,12.167322116 102.445224169,11.942535739 102.391086832,11.980418905 " /><polygon class="region" points="99.992473009,9.804784308 100.066663275,9.7860477020001 100.077777778,9.6625 99.97210456,9.703549025 99.992473009,9.804784308 " /><polygon class="region" points="102.566689724,11.722244601 102.612484741,11.688749864 102.594444444,11.558333333 102.524357266,11.608655124 102.566689724,11.722244601 " /><polygon class="region" points="98.525158352,8.115135024 98.611699762,8.04903734 98.598611111,7.8875 98.588117642,8.008802626 98.525158352,8.115135024 " /><polygon class="region" points="103.200475735,10.775680542 103.31581387,10.7123369 103.269444444,10.65 103.181805759,10.731700304 103.200475735,10.775680542 " /><polygon class="region" points="98.558333333,8.125 98.585790168,8.121191406 98.6375,8.1875 98.620092096,8.0799129910001 98.558333333,8.125 " /><polygon class="region" points="99.45,7.2458333330001 99.390717231,7.2048351710001 99.357967461,7.2219965620001 99.385418023,7.2828852330001 99.45,7.2458333330001 " /><polygon class="region" points="103.302951728,10.620266046 103.342322117,10.579412503 103.328299967,10.541011216 103.279822117,10.589544339 103.302951728,10.620266046 " /><polygon class="region" points="103.003599378,5.747048272 102.996633572,5.728898621 102.999569024,5.8214887830001 103.046450806,5.7906670460001 103.003599378,5.747048272 " /><polygon class="region" points="98.977006362,7.8506174720001 98.996450806,7.8444654680001 99.000617472,7.8049034970001 98.986132134,7.774382528 98.977006362,7.8506174720001 " /><polygon class="region" points="98.978700087,7.839141167 98.981944444,7.8375 98.98297899,7.839581299 98.981835938,7.841921658 98.978700087,7.839141167 " /><polygon class="region" points="98.98703342,7.8016411670001 98.990277777,7.8 98.991312323,7.8020812990001 98.990169271,7.804421658 98.98703342,7.8016411670001 " /><polygon class="region" points="99.807715861,10.119995117 99.853609891,10.110423109 99.827777778,10.054166667 99.824382528,10.102160305 99.807715861,10.119995117 " /><polygon class="region" points="99.665921699,9.5343634710001 99.712676663,9.549020725 99.708616808,9.5091622250001 99.658348592,9.513749864 99.665921699,9.5343634710001 " /><polygon class="region" points="102.441086833,11.817345852 102.465991381,11.825920952 102.473747762,11.842246501 102.513079834,11.815873887 102.441086833,11.817345852 " /><polygon class="region" points="99.663734605,9.682640415 99.67796936,9.7125205150001 99.681965467,9.6035490250001 99.657715861,9.6367633400001 99.663734605,9.682640415 " /><polygon class="region" points="99.553574286,7.111662123 99.560872735,7.129387749 99.615277778,7.079166666 99.563238526,7.0925960970001 99.553574286,7.111662123 " /><polygon class="region" points="98.764493985,7.7493950740001 98.769675361,7.7410868330001 98.755930753,7.7881049260001 98.794069248,7.724395074 98.764817471,7.716061741 98.764493985,7.7493950740001 " /><polygon class="region" points="104.024228753,9.904938083 104.007715691,9.909332954 104.005243259,10.004784139 104.029784309,9.9713026260001 104.024228753,9.904938083 " /><polygon class="region" points="102.771394857,5.90625 102.767282274,5.882715691 102.736882358,5.885222202 102.755534532,5.925617642 102.771394857,5.90625 " /><polygon class="region" points="103.808258735,10.415454101 103.796781752,10.399732462 103.78406406,10.440817261 103.82392646,10.428990682 103.808258735,10.415454101 " /><polygon class="region" points="99.307715861,7.356173197 99.283950805,7.3645065310001 99.281017049,7.3922843080001 99.316118368,7.372919719 99.307715861,7.356173197 " /><polygon class="region" points="103.151288859,10.270010376 103.120215861,10.303697374 103.134701199,10.325617472 103.154784139,10.315667046 103.151288859,10.270010376 " /><polygon class="region" points="99.949394905,9.379707336 99.956339349,9.358938429 99.924879286,9.3595272490001 99.942995369,9.3964384290001 99.949394905,9.379707336 " /><polygon class="region" points="101.449382528,12.527006362 101.441366916,12.582428996 101.450925361,12.583617825 101.471450805,12.571302626 101.449382528,12.527006362 " /><polygon class="region" points="102.732665337,5.897890218 102.711832004,5.892472331 102.71762458,5.9423346630001 102.729834663,5.9406149970001 102.732665337,5.897890218 " /><polygon class="region" points="98.311882358,7.4645063610001 98.313117641,7.5021603050001 98.338117642,7.519860501 98.336882358,7.510339695 98.311882358,7.4645063610001 " /><polygon class="region" points="104.503511217,10.116420831 104.521488783,10.103920831 104.506944444,10.079166667 104.491011217,10.144516669 104.503511217,10.116420831 " /><polygon class="region" points="99.867322116,6.6771223280001 99.865907796,6.663552178 99.841011217,6.651016574 99.855363634,6.7006554490001 99.867322116,6.6771223280001 " /><polygon class="region" points="98.557690599,8.135468208 98.532690599,8.1455115420001 98.534205967,8.1881429040001 98.542309401,8.1520317920001 98.557690599,8.135468208 " /><polygon class="region" points="103.177951728,10.832766045 103.190757582,10.836876425 103.199184503,10.82166002 103.176530287,10.812540351 103.177951728,10.832766045 " /><polygon class="region" points="98.370011733,7.5883216010001 98.350468784,7.5979166670001 98.382470364,7.616029188 98.383534749,7.611281332 98.370011733,7.5883216010001 " /><polygon class="region" points="98.384244453,7.7783311630001 98.359293112,7.779822455 98.353599379,7.786649916 98.386600409,7.795172119 98.384244453,7.7783311630001 " /><polygon class="region" points="99.196621705,7.4381805420001 99.203117879,7.436565823 99.219444444,7.4 99.195152791,7.4007675170001 99.196621705,7.4381805420001 " /><polygon class="region" points="99.066023763,7.197864957 99.049357096,7.2036732990001 99.077872721,7.233286879 99.082450019,7.217426555 99.066023763,7.197864957 " /><polygon class="region" points="102.392182413,11.78125 102.394444445,11.770833333 102.376683214,11.81309238 102.396425713,11.796444024 102.392182413,11.78125 " /><polygon class="region" points="104.54089542,10.113271417 104.532715691,10.113445706 104.546832954,10.154784139 104.558950976,10.153207737 104.54089542,10.113271417 " /><polygon class="region" points="102.482677883,11.935377672 102.466011217,11.93001709 102.478547159,11.96315545 102.483988783,11.960553996 102.482677883,11.935377672 " /><polygon class="region" points="104.524279107,10.138220893 104.515998671,10.13854031 104.52879893,10.192334662 104.538167996,10.171001858 104.524279107,10.138220893 " /><polygon class="region" points="104.561932712,10.014456176 104.550983514,10.013127645 104.542405362,10.036620415 104.557522413,10.040659926 104.561932712,10.014456176 " /><polygon class="region" points="103.686678399,4.7924882670001 103.670266046,4.803420003 103.675714111,4.8199876580001 103.692233955,4.815451728 103.686678399,4.7924882670001 " /><polygon class="region" points="98.495215691,8.1645063610001 98.482715691,8.1828640410001 98.49105106,8.204784139 98.496450975,8.202381388 98.495215691,8.1645063610001 " /><polygon class="region" points="102.365986124,11.918736097 102.348611111,11.9 102.340986125,11.901064385 102.347258505,11.921058146 102.365986124,11.918736097 " /><polygon class="region" points="99.670061917,9.375771247 99.661882528,9.3759458760001 99.670217556,9.408950975 99.679784139,9.3963024560001 99.670061917,9.375771247 " /><polygon class="region" points="103.070165337,10.902056884 103.078692627,10.907496812 103.089665392,10.886832004 103.062259929,10.888290066 103.070165337,10.902056884 " /><polygon class="region" points="102.941049195,9.9186730280001 102.925839911,9.9131968180001 102.913571167,9.938117473 102.942284139,9.9236321340001 102.941049195,9.9186730280001 " /><polygon class="region" points="98.511932712,8.1936228430001 98.495266045,8.2220482720001 98.501535373,8.2422339550001 98.513067288,8.2174133300001 98.511932712,8.1936228430001 " /><polygon class="region" points="104.324867588,10.311505466 104.312246704,10.300821601 104.321909417,10.325655449 104.342322116,10.324144829 104.324867588,10.311505466 " /><polygon class="region" points="98.363563029,7.7368845620001 98.365707058,7.7505672880001 98.388067288,7.742516751 98.386435615,7.738115098 98.363563029,7.7368845620001 " /><polygon class="region" points="102.878574287,9.9282575820001 102.885872735,9.937721083 102.906944445,9.9125 102.89260966,9.9131388340001 102.878574287,9.9282575820001 " /><polygon class="region" points="103.07434455,5.6187110060001 103.058530002,5.6092358060001 103.054944187,5.6281200830001 103.065364923,5.633251275 103.07434455,5.6187110060001 " /><polygon class="region" points="99.15339525,7.6091045800001 99.142284139,7.6145065310001 99.139350383,7.642284309 99.149205526,7.640875753 99.15339525,7.6091045800001 " /><polygon class="region" points="99.257561917,7.2966045810001 99.250707669,7.296613397 99.24658983,7.332560222 99.263117472,7.308802456 99.257561917,7.2966045810001 " /><polygon class="region" points="102.391011217,11.908087498 102.393816291,11.91315545 102.420204162,11.902074178 102.406211005,11.892322117 102.391011217,11.908087498 " /><polygon class="region" points="98.593577915,8.28260125 98.590277777,8.279166667 98.570614285,8.2799367260001 98.587410821,8.2965138750001 98.593577915,8.28260125 " /><polygon class="region" points="99.524830797,6.836712646 99.545031399,6.837916734 99.545644125,6.827635023 99.525734456,6.8215535480001 99.524830797,6.836712646 " /><polygon class="region" points="100.390920512,5.2549128210001 100.382690599,5.255159335 100.38403049,5.286749946 100.396476068,5.266988457 100.390920512,5.2549128210001 " /><polygon class="region" points="104.336882358,10.435339694 104.331944445,10.429166667 104.312510512,10.436054145 104.324232483,10.446450806 104.336882358,10.435339694 " /><polygon class="region" points="103.55613539,10.503586832 103.571413167,10.492554389 103.55948961,10.483117675 103.545395575,10.498785401 103.55613539,10.503586832 " /><polygon class="region" points="102.526288859,11.832510376 102.516703458,11.834698148 102.526367865,11.858950806 102.533950975,11.850838556 102.526288859,11.832510376 " /><polygon class="region" points="103.270099894,5.209066772 103.257677883,5.218846639 103.259201728,5.23815545 103.271326362,5.2296449450001 103.270099894,5.209066772 " /><polygon class="region" points="98.774357266,7.677031792 98.757690599,7.678844876 98.763415528,7.7006429040001 98.770190599,7.693801541 98.774357266,7.677031792 " /><polygon class="region" points="99.767948744,6.7784603540001 99.758179389,6.7862969290001 99.767995538,6.7964382590001 99.779771593,6.7880405 99.767948744,6.7784603540001 " /><polygon class="region" points="104.320833333,10.283333333 104.338350932,10.299149238 104.354733954,10.302631293 104.335543824,10.283900621 104.320833333,10.283333333 " /><polygon class="region" points="99.13697035,7.5269183680001 99.130255466,7.5256169640001 99.117963664,7.5463628140001 99.12809177,7.5452075540001 99.13697035,7.5269183680001 " /><polygon class="region" points="99.145061917,7.57160458 99.136882528,7.5717792090001 99.139350383,7.596450975 99.150617473,7.5948406640001 99.145061917,7.57160458 " /><polygon class="region" points="102.528549025,11.714506531 102.517025249,11.709157138 102.513256666,11.728393555 102.519387309,11.729156155 102.528549025,11.714506531 " /><polygon class="region" points="103.07849867,10.931223551 103.073611111,10.925 103.057665337,10.925805664 103.078998142,10.946501329 103.07849867,10.931223551 " /><polygon class="region" points="103.983333333,9.9166666670001 103.999366251,9.925642904 104.004809401,9.9231153700001 103.994917806,9.8993570960001 103.983333333,9.9166666670001 " /><polygon class="region" points="102.492577786,11.949164496 102.486932712,11.948142836 102.489035373,11.971400621 102.504200914,11.95570204 102.492577786,11.949164496 " /><polygon class="region" points="99.478549194,7.0270063610001 99.471571181,7.025776164 99.46776123,7.054784139 99.474222479,7.0532589380001 99.478549194,7.0270063610001 " /><polygon class="region" points="102.232728238,12.289817641 102.244504632,12.300604926 102.254771762,12.288405355 102.239576213,12.283866713 102.232728238,12.289817641 " /><polygon class="region" points="102.907766046,5.789456177 102.892578803,5.788111708 102.889035373,5.804733954 102.908900621,5.794618395 102.907766046,5.789456177 " /><polygon class="region" points="100.316669719,5.8777808300001 100.324384393,5.883950806 100.337347412,5.8775878910001 100.331944444,5.8708333330001 100.316669719,5.8777808300001 " /><polygon class="region" points="103.407895576,10.6112854 103.41875,10.616174316 103.433340115,10.607562934 103.409181722,10.604776679 103.407895576,10.6112854 " /><polygon class="region" points="99.682715861,9.464506531 99.666049194,9.4638678650001 99.667639499,9.475617642 99.678814358,9.474167718 99.682715861,9.464506531 " /><polygon class="region" points="104.571159024,10.15757548 104.594869317,10.158988783 104.59554596,10.153070068 104.571569146,10.150695122 104.571159024,10.15757548 " /><polygon class="region" points="103.06994595,10.911791653 103.055381605,10.903599379 103.045516629,10.913650512 103.051535373,10.920867581 103.06994595,10.911791653 " /><polygon class="region" points="98.483333333,8.2833333340001 98.495833333,8.270833334 98.495021057,8.257874214 98.478511217,8.268155585 98.483333333,8.2833333340001 " /><polygon class="region" points="102.959713406,10.370124648 102.949382528,10.367612373 102.970060221,10.37841017 102.970888604,10.371750895 102.959713406,10.370124648 " /><polygon class="region" points="98.678549025,8.107238769 98.687969123,8.1089508060001 98.700128004,8.1029388420001 98.680085924,8.095544434 98.678549025,8.107238769 " /><polygon class="region" points="99.707677883,9.6008505930001 99.70918613,9.6214887830001 99.715898641,9.6198701640001 99.719444445,9.6 99.707677883,9.6008505930001 " /><polygon class="region" points="99.432561917,7.100771416 99.425737847,7.100776164 99.422683716,7.125617472 99.428396606,7.12404107 99.432561917,7.100771416 " /><polygon class="region" points="98.676918369,8.125529649 98.683333334,8.125 98.676643541,8.1125091550001 98.666137186,8.1239000100001 98.676918369,8.125529649 " /><polygon class="region" points="102.411894904,11.931160482 102.405221219,11.933712768 102.401764085,11.950604926 102.413105096,11.942207167 102.411894904,11.931160482 " /><polygon class="region" points="99.813788859,6.7116770420001 99.803549195,6.714389038 99.828388469,6.7201171880001 99.828686524,6.7177208790001 99.813788859,6.7116770420001 " /><polygon class="region" points="99.94934455,9.310513305 99.951284959,9.316596137 99.967322116,9.314517042 99.961111111,9.3 99.94934455,9.310513305 " /><polygon class="region" points="101.682690429,12.612178209 101.690791151,12.621083578 101.694444444,12.595833333 101.688330417,12.596633233 101.682690429,12.612178209 " /><polygon class="region" points="104.33684455,10.397877672 104.327777778,10.3875 104.320670234,10.388450453 104.330655755,10.408988783 104.33684455,10.397877672 " /><polygon class="region" points="98.478382874,7.7507839620001 98.470903015,7.755617269 98.482404921,7.7710279680001 98.483777195,7.7617418080001 98.478382874,7.7507839620001 " /><polygon class="region" points="98.6375,8.1875 98.628599379,8.192881605 98.636649916,8.2047339550001 98.642233955,8.2026638460001 98.6375,8.1875 " /><polygon class="region" points="98.396831767,7.75749749 98.387168036,7.7607493090001 98.403349135,7.7659003370001 98.404604424,7.759547933 98.396831767,7.75749749 " /><polygon class="region" points="98.441049025,7.9578640410001 98.442822605,7.961639065 98.45326216,7.966966417 98.452777778,7.95 98.441049025,7.9578640410001 " /><polygon class="region" points="103.072345649,10.974200779 103.068114557,10.983976237 103.083976237,10.982429674 103.077134875,10.975642903 103.072345649,10.974200779 " /><polygon class="region" points="98.799707031,7.973790826 98.811071777,7.9791439480001 98.817251586,7.971576945 98.800822618,7.967310587 98.799707031,7.973790826 " /><polygon class="region" points="100.074266561,6.459066772 100.062246704,6.4591549350001 100.067742751,6.47565545 100.075144281,6.473794217 100.074266561,6.459066772 " /><polygon class="region" points="99.678549194,9.4270065310001 99.673611111,9.4208333330001 99.666049194,9.426888869 99.673638916,9.437466091 99.678549194,9.4270065310001 " /><polygon class="region" points="98.799382358,7.9513678660001 98.800883654,7.9573947480001 98.811595493,7.962799751 98.811111111,7.9458333330001 98.799382358,7.9513678660001 " /><polygon class="region" points="104.582766046,10.168622843 104.575892639,10.167355008 104.572187974,10.183429294 104.583900622,10.177951728 104.582766046,10.168622843 " /><polygon class="region" points="103.545049371,10.517450629 103.537390815,10.527661133 103.545157877,10.53393826 103.550604926,10.53162401 103.545049371,10.517450629 " /><polygon class="region" points="99.674357097,9.76869829 99.666023763,9.7676593350001 99.671748861,9.7923094010001 99.675642903,9.788316685 99.674357097,9.76869829 " /><polygon class="region" points="99.886882358,9.3051125420001 99.888228353,9.320056661 99.894958666,9.3208938600001 99.894444444,9.3041666660001 99.886882358,9.3051125420001 " /><polygon class="region" points="100.040845066,6.0549882670001 100.033131917,6.059552002 100.038714939,6.0714006210001 100.04603475,6.065447998 100.040845066,6.0549882670001 " /><polygon class="region" points="98.774178399,7.809154935 98.766465251,7.813718668 98.772048272,7.8255672880001 98.779368082,7.8196146650001 98.774178399,7.809154935 " /><polygon class="region" points="102.670291307,5.9560975810001 102.659248861,5.954768711 102.657791307,5.959955682 102.665597873,5.967208693 102.670291307,5.9560975810001 " /><polygon class="region" points="99.665976969,9.5573715210001 99.666666667,9.5416666670001 99.65769043,9.542582194 99.65922682,9.558976068 99.665976969,9.5573715210001 " /><polygon class="region" points="98.324746704,7.750821601 98.330481466,7.7625912140001 98.336706543,7.766939629 98.336111111,7.75 98.324746704,7.750821601 " /><polygon class="region" points="103.191737874,10.807504611 103.206051636,10.80896369 103.208710056,10.804699029 103.192432319,10.800689697 103.191737874,10.807504611 " /><polygon class="region" points="103.066605971,11.065791829 103.077083334,11.063061524 103.08739997,11.065153334 103.081944444,11.058333334 103.066605971,11.065791829 " /><polygon class="region" points="103.057715861,10.956173028 103.052777777,10.95 103.047181193,10.963117472 103.058950806,10.961527845 103.057715861,10.956173028 " /><polygon class="region" points="103.166049194,10.250945706 103.167623902,10.263117472 103.174793158,10.261468506 103.173611111,10.25 103.166049194,10.250945706 " /><polygon class="region" points="98.695215691,8.206173028 98.690277778,8.2 98.683367242,8.211138916 98.690278625,8.216666667 98.695215691,8.206173028 " /><polygon class="region" points="98.595215691,8.210339694 98.587201437,8.2092393670001 98.589350382,8.2256174730001 98.596450975,8.223658244 98.595215691,8.210339694 " /><polygon class="region" points="100.174382358,5.22355228 100.175745137,5.236725531 100.182458665,5.237560527 100.183629353,5.2281485670001 100.174382358,5.22355228 " /><polygon class="region" points="98.607728238,8.351328871 98.609566074,8.3589382600001 98.621344672,8.350666978 98.619444444,8.3458333340001 98.607728238,8.351328871 " /><polygon class="region" points="98.61589542,8.1882714170001 98.607715691,8.188445705 98.609290399,8.200617473 98.617204623,8.198796929 98.61589542,8.1882714170001 " /><polygon class="region" points="104.099228753,9.842438083 104.091049025,9.8426123730001 104.092623732,9.8547841390001 104.100537957,9.8529635950001 104.099228753,9.842438083 " /><polygon class="region" points="98.711728753,8.104938083 98.703549025,8.1051123730001 98.705123732,8.117284139 98.713037957,8.115463596 98.711728753,8.104938083 " /><polygon class="region" points="104.324228753,10.350771417 104.316049025,10.350945706 104.317623732,10.363117472 104.325537957,10.361296929 104.324228753,10.350771417 " /><polygon class="region" points="98.682562086,8.0716047500001 98.674382358,8.07177904 98.675957066,8.0839508060001 98.68387129,8.082130262 98.682562086,8.0716047500001 " /><polygon class="region" points="99.70339525,7.0841047500001 99.695215861,7.084279039 99.696790568,7.0964508060001 99.704704793,7.0946302630001 99.70339525,7.0841047500001 " /><polygon class="region" points="99.59089525,6.8257714170001 99.582715861,6.825945705 99.584290568,6.8381174730001 99.592204793,6.8362969290001 99.59089525,6.8257714170001 " /><polygon class="region" points="101.70339525,12.563271416 101.695215861,12.563445706 101.696790568,12.575617472 101.704704793,12.573796929 101.70339525,12.563271416 " /><polygon class="region" points="99.982715691,9.3728398640001 99.977777778,9.3666666660001 99.97053477,9.3675725300001 99.976367866,9.3797843080001 99.982715691,9.3728398640001 " /><polygon class="region" points="100.282715691,5.7426125420001 100.284061686,5.757556661 100.286445957,5.7578533600001 100.292137146,5.7465038720001 100.282715691,5.7426125420001 " /><polygon class="region" points="99.941472032,9.707404921 99.951849196,9.7089384290001 99.952777777,9.7 99.94246521,9.700684441 99.941472032,9.707404921 " /><polygon class="region" points="99.949805366,6.5532382540001 99.96018236,6.5547715930001 99.961111111,6.5458333340001 99.950798543,6.5465176050001 99.949805366,6.5532382540001 " /><polygon class="region" points="99.895833333,9.4333333330001 99.892493185,9.440785556 99.90313619,9.4461449520001 99.904604425,9.4387147690001 99.895833333,9.4333333330001 " /><polygon class="region" points="98.520215691,7.956173028 98.511882358,7.952719116 98.513534546,7.963117472 98.521450975,7.9612698020001 98.520215691,7.956173028 " /><polygon class="region" points="102.607715691,5.825945876 102.609553358,5.8339509750001 102.621197001,5.832400004 102.615277777,5.825 102.607715691,5.825945876 " /><polygon class="region" points="100.05800137,6.4482493080001 100.065623983,6.4545403380001 100.065277778,6.4416666670001 100.05800137,6.4482493080001 " /><polygon class="region" points="98.88684455,7.423900858 98.895587497,7.4339887830001 98.89975586,7.431681654 98.890277778,7.4208333340001 98.88684455,7.423900858 " /><polygon class="region" points="102.445638699,11.903238254 102.453238254,11.904361301 102.452777778,11.891666667 102.446649848,11.896396552 102.445638699,11.903238254 " /><polygon class="region" points="99.587305366,6.8615715870001 99.59490492,6.862694635 99.594444444,6.85 99.588316515,6.854729885 99.587305366,6.8615715870001 " /><polygon class="region" points="99.541472032,6.9157382540001 99.549071587,6.916861301 99.548611111,6.904166667 99.542483181,6.908896552 99.541472032,6.9157382540001 " /><polygon class="region" points="103.62278951,10.491099379 103.62437405,10.48003201 103.617982992,10.478599379 103.616099379,10.48494534 103.62278951,10.491099379 " /><polygon class="region" points="99.574432712,6.9820170080001 99.580778673,6.983900621 99.586111111,6.975 99.575863309,6.975635104 99.574432712,6.9820170080001 " /><polygon class="region" points="98.620215691,8.0342790390001 98.621790399,8.0464508060001 98.629747009,8.0384565570001 98.620215691,8.0342790390001 " /><polygon class="region" points="104.32009396,10.294594319 104.320833333,10.2875 104.307677883,10.288324652 104.315857442,10.296488783 104.32009396,10.294594319 " /><polygon class="region" points="100.299266561,5.809066773 100.298611112,5.8083333330001 100.28684455,5.8091839260001 100.295029195,5.8173221160001 100.299266561,5.809066773 " /><polygon class="region" points="98.491049024,8.240219116 98.492411804,8.253392198 98.495022075,8.2537167020001 98.49640486,8.242600166 98.491049024,8.240219116 " /><polygon class="region" points="98.3,7.7416666670001 98.300915528,7.7506429040001 98.308976067,7.7487189400001 98.307362535,7.742417738 98.3,7.7416666670001 " /><polygon class="region" points="99.645215861,7.151889038 99.653244358,7.158777704 99.652777778,7.145833333 99.645215861,7.151889038 " /><polygon class="region" points="102.678698561,5.965605333 102.686438667,5.9671347720001 102.686111111,5.958333333 102.67999471,5.959046088 102.678698561,5.965605333 " /><polygon class="region" points="99.470365397,7.273938667 99.478105333,7.2754681060001 99.477777777,7.266666667 99.471661377,7.267379422 99.470365397,7.273938667 " /><polygon class="region" points="103.149532064,5.644772 103.157272,5.6463014390001 103.156944444,5.6375 103.150828043,5.638212755 103.149532064,5.644772 " /><polygon class="region" points="99.187032064,7.653105333 99.194772,7.6546347720001 99.194444444,7.645833333 99.188328043,7.646546088 99.187032064,7.653105333 " /><polygon class="region" points="99.22869873,7.407272 99.236438667,7.4088014390001 99.236111111,7.4 99.22999471,7.400712755 99.22869873,7.407272 " /><polygon class="region" points="99.71619873,9.353105333 99.723938666,9.3546347720001 99.723611111,9.345833333 99.71749471,9.346546088 99.71619873,9.353105333 " /><polygon class="region" points="99.42869873,9.2697719990001 99.436438666,9.2713014390001 99.436111111,9.2625 99.429994711,9.263212755 99.42869873,9.2697719990001 " /><polygon class="region" points="99.31619873,7.473938666 99.323938666,7.4754681060001 99.323611111,7.466666667 99.31749471,7.467379422 99.31619873,7.473938666 " /><polygon class="region" points="104.041198561,9.8239386660001 104.048938667,9.8254679360001 104.048611111,9.8166666660001 104.04249471,9.8173794210001 104.041198561,9.8239386660001 " /><polygon class="region" points="98.441198561,8.1281053330001 98.448938666,8.1296346030001 98.448611111,8.1208333330001 98.44249471,8.1215460880001 98.441198561,8.1281053330001 " /><polygon class="region" points="98.791198561,7.819772 98.798938666,7.82130127 98.798611111,7.8125 98.79249471,7.8132127550001 98.791198561,7.819772 " /><polygon class="region" points="102.128698561,12.398938666 102.136438666,12.400467937 102.136111111,12.391666667 102.129994711,12.392379422 102.128698561,12.398938666 " /><polygon class="region" points="103.149532064,10.853105333 103.157272,10.854634603 103.156944444,10.845833333 103.150828043,10.846546088 103.149532064,10.853105333 " /><polygon class="region" points="99.578698731,7.1364386660001 99.586438667,7.1379679360001 99.586111111,7.1291666660001 99.57999471,7.1298794210001 99.578698731,7.1364386660001 " /><polygon class="region" points="99.82869873,6.657272 99.836438666,6.658801269 99.836111112,6.65 99.82999471,6.650712755 99.82869873,6.657272 " /><polygon class="region" points="99.845365397,6.5697719990001 99.853105333,6.57130127 99.852777778,6.5625 99.846661377,6.5632127550001 99.845365397,6.5697719990001 " /><polygon class="region" points="102.937032064,10.369772 102.944772,10.371301269 102.944444445,10.3625 102.938328044,10.363212755 102.937032064,10.369772 " /><polygon class="region" points="99.470365397,6.978105333 99.478105333,6.979634603 99.477777777,6.9708333340001 99.471661377,6.9715460890001 99.470365397,6.978105333 " /><polygon class="region" points="99.524532064,6.7989386670001 99.532272,6.8004679360001 99.531944444,6.7916666670001 99.525828044,6.7923794220001 99.524532064,6.7989386670001 " /><polygon class="region" points="103.65799018,4.848766073 103.663651869,4.8505296500001 103.669444444,4.841666666 103.66356608,4.8422858340001 103.65799018,4.848766073 " /><polygon class="region" points="99.907990011,9.3154327390001 99.9136517,9.3171961470001 99.919444444,9.3083333330001 99.913565911,9.3089526700001 99.907990011,9.3154327390001 " /><polygon class="region" points="99.928549025,9.7402189470001 99.930682712,9.7464509750001 99.937669373,9.7446570500001 99.931944444,9.7375 99.928549025,9.7402189470001 " /><polygon class="region" points="98.761882358,7.6527191160001 98.764016045,7.6589508060001 98.771002706,7.65715705 98.765277778,7.65 98.761882358,7.6527191160001 " /><polygon class="region" points="98.657715691,8.186052449 98.659849379,8.192284139 98.666836039,8.1904903830001 98.661111111,8.1833333330001 98.657715691,8.186052449 " /><polygon class="region" points="100.053549025,6.07355245 100.055682712,6.079784139 100.062669373,6.077990384 100.056944444,6.070833334 100.053549025,6.07355245 " /><polygon class="region" points="99.832715861,6.5818857830001 99.834849379,6.588117472 99.84183587,6.586323717 99.836111112,6.579166667 99.832715861,6.5818857830001 " /><polygon class="region" points="98.457753499,8.023239814 98.459076945,8.032511393 98.461595154,8.03300883 98.461111111,8.020833333 98.457753499,8.023239814 " /><polygon class="region" points="100.086920166,6.4274064800001 100.088243611,6.4366780600001 100.09076182,6.4371754970001 100.090277778,6.425 100.086920166,6.4274064800001 " /><polygon class="region" points="98.861920166,7.6107398140001 98.863243612,7.620011393 98.86576199,7.620508999 98.865277778,7.6083333330001 98.861920166,7.6107398140001 " /><polygon class="region" points="103.066086833,5.65240648 103.067410279,5.66167806 103.069928656,5.6621756660001 103.069444444,5.65 103.066086833,5.65240648 " /><polygon class="region" points="104.312703111,10.282503934 104.320833333,10.283333333 104.313328891,10.274716526 104.312703111,10.282503934 " /><polygon class="region" points="103.5625,10.504166667 103.563415527,10.513142904 103.571476237,10.51121894 103.564634874,10.504809571 103.5625,10.504166667 " /><polygon class="region" points="98.297864956,7.741023763 98.299084473,7.73269043 98.291023933,7.7346143940001 98.297864956,7.741023763 " /><polygon class="region" points="98.683333334,8.125 98.684248861,8.1339762370001 98.692309401,8.1320522730001 98.685468377,8.1256429040001 98.683333334,8.125 " /><polygon class="region" points="102.420190599,12.052370199 102.425844998,12.05480957 102.427777778,12.045833333 102.420190599,12.052370199 " /><polygon class="region" points="99.716023763,9.594036696 99.721678331,9.5964760680001 99.723611111,9.5875 99.716023763,9.594036696 " /><polygon class="region" points="99.274357097,7.548203363 99.280011664,7.5506427340001 99.281944445,7.541666666 99.274357097,7.548203363 " /><polygon class="region" points="102.257715691,12.021779039 102.259553359,12.029784139 102.266091241,12.022949558 102.265277778,12.020833333 102.257715691,12.021779039 " /><polygon class="region" points="98.657715691,8.113445706 98.659553359,8.121450806 98.666091241,8.114616224 98.665277778,8.1125 98.657715691,8.113445706 " /><polygon class="region" points="104.466049025,10.017612372 104.467886692,10.025617473 104.474424574,10.018782891 104.473611111,10.016666667 104.466049025,10.017612372 " /><polygon class="region" points="98.511882358,7.888445706 98.513720025,7.896450805 98.520257907,7.8896162250001 98.519444445,7.8875 98.511882358,7.888445706 " /><polygon class="region" points="104.528549025,10.138445706 104.530386692,10.146450805 104.536924574,10.139616225 104.536111111,10.1375 104.528549025,10.138445706 " /><polygon class="region" points="100.324382358,5.359279209 100.326220025,5.3672843090001 100.332757907,5.3604493890001 100.331944444,5.3583333330001 100.324382358,5.359279209 " /><polygon class="region" points="102.020215861,12.459279039 102.022053358,12.467284139 102.028591241,12.460449558 102.027777778,12.458333333 102.020215861,12.459279039 " /><polygon class="region" points="99.141049194,7.5592792090001 99.142886692,7.5672843080001 99.149424574,7.560449389 99.148611111,7.5583333330001 99.141049194,7.5592792090001 " /><polygon class="region" points="99.678549194,9.350945876 99.680386691,9.358950975 99.686924574,9.3521160550001 99.686111111,9.35 99.678549194,9.350945876 " /><polygon class="region" points="103.157715861,5.6217792090001 103.159553359,5.6297843080001 103.166091241,5.6229493880001 103.165277778,5.6208333340001 103.157715861,5.6217792090001 " /><polygon class="region" points="98.395177883,8.10501709 98.39920756,8.108988783 98.408085124,8.1073455810001 98.406944445,8.1041666670001 98.395177883,8.10501709 " /><polygon class="region" points="103.057677884,5.596683926 103.061707561,5.60065545 103.070585124,5.5990122470001 103.069444444,5.5958333340001 103.057677884,5.596683926 " /><polygon class="region" points="103.982424927,9.9255720350001 103.983333333,9.9166666670001 103.974357266,9.917582194 103.982424927,9.9255720350001 " /><polygon class="region" points="98.774382358,7.946779039 98.782391866,7.954763794 98.781944445,7.9458333330001 98.774382358,7.946779039 " /><polygon class="region" points="102.103549024,12.421779039 102.111558532,12.429763794 102.111111111,12.420833333 102.103549024,12.421779039 " /><polygon class="region" points="98.607715691,8.2426123720001 98.615725199,8.250597127 98.615277777,8.2416666670001 98.607715691,8.2426123720001 " /><polygon class="region" points="103.045215861,11.000945706 103.05322503,11.008930461 103.052777777,11 103.045215861,11.000945706 " /><polygon class="region" points="99.895833333,9.4333333330001 99.900579834,9.432081096 99.898842028,9.4244201660001 99.896413167,9.4269687230001 99.895833333,9.4333333330001 " /><polygon class="region" points="98.470833333,8.279166667 98.475579834,8.277914429 98.473842028,8.270253499 98.471413168,8.272802056 98.470833333,8.279166667 " /><polygon class="region" points="98.733333334,8.1791666670001 98.738079834,8.1779144280001 98.736342027,8.1702535000001 98.733913167,8.172802056 98.733333334,8.1791666670001 " /><polygon class="region" points="98.725,8.1875 98.725915528,8.1964762370001 98.729166667,8.1875 98.725,8.1875 " /><polygon class="region" points="99.182895576,7.6779518980001 99.1875,7.6791666670001 99.186816745,7.6716671410001 99.18423801,7.671157667 99.182895576,7.6779518980001 " /><polygon class="region" points="103.236285401,10.258771091 103.2375,10.254166666 103.230000475,10.254849921 103.22949117,10.257428657 103.236285401,10.258771091 " /><polygon class="region" points="103.2375,10.254166666 103.244999525,10.253483412 103.245508829,10.250904677 103.2387146,10.249562243 103.2375,10.254166666 " /><polygon class="region" points="100.186285231,5.317104424 100.1875,5.3125 100.180000475,5.3131832550001 100.179491001,5.315761821 100.186285231,5.317104424 " /><polygon class="region" points="98.720395575,8.186285401 98.725,8.1875 98.724316745,8.180000475 98.721738179,8.1794911700001 98.720395575,8.186285401 " /><polygon class="region" points="98.729166667,8.1875 98.732672119,8.18660041 98.733333334,8.1791666670001 98.729827881,8.180066257 98.729166667,8.1875 " /><polygon class="region" points="100.282728238,5.769277785 100.284781901,5.775605096 100.288046435,5.77158983 100.282728238,5.769277785 " /><polygon class="region" points="103.057728407,5.773444451 103.059781901,5.779771763 103.063046604,5.775756496 103.057728407,5.773444451 " /><polygon class="region" points="103.028561741,5.735944451 103.030615235,5.7422717630001 103.033879938,5.7382564970001 103.028561741,5.735944451 " /><polygon class="region" points="99.245228407,7.3776111170001 99.247281901,7.3839384290001 99.250546604,7.379923164 99.245228407,7.3776111170001 " /><polygon class="region" points="99.711895074,9.798444451 99.713948567,9.8047717630001 99.71721327,9.8007564970001 99.711895074,9.798444451 " /><polygon class="region" points="99.649395073,9.4442777850001 99.651448567,9.4506050950001 99.65471327,9.4465898300001 99.649395073,9.4442777850001 " /><polygon class="region" points="102.666061571,5.9401111180001 102.668115235,5.9464384290001 102.671379767,5.9424231630001 102.666061571,5.9401111180001 " /><polygon class="region" points="100.099394904,6.452610948 100.101448567,6.45893826 100.104713101,6.454923164 100.099394904,6.452610948 " /><polygon class="region" points="104.341061571,10.423444282 104.343115234,10.429771593 104.346379768,10.425756497 104.341061571,10.423444282 " /><polygon class="region" points="99.39106174,7.073444282 99.393115234,7.079771593 99.396379937,7.075756497 99.39106174,7.073444282 " /><polygon class="region" points="101.56606174,12.556777615 101.568115234,12.563104926 101.571379937,12.55908983 101.56606174,12.556777615 " /><polygon class="region" points="102.336894904,12.185944282 102.338948567,12.192271593 102.342213101,12.188256497 102.336894904,12.185944282 " /><polygon class="region" points="102.470228237,11.915110948 102.472281901,11.92143826 102.475546434,11.917423164 102.470228237,11.915110948 " /><polygon class="region" points="98.945228407,7.881777615 98.947281901,7.888104926 98.950546604,7.8840898300001 98.945228407,7.881777615 " /><polygon class="region" points="104.520228238,10.244277615 104.522281901,10.250604927 104.525546434,10.24658983 104.520228238,10.244277615 " /><polygon class="region" points="102.457728237,11.831777615 102.459781901,11.838104926 102.463046434,11.83408983 102.457728237,11.831777615 " /><polygon class="region" points="101.507728407,12.581777615 101.509781901,12.588104926 101.513046604,12.58408983 101.507728407,12.581777615 " /><polygon class="region" points="98.420228237,8.115110949 98.422281901,8.1214382590001 98.425546434,8.1174231630001 98.420228237,8.115110949 " /><polygon class="region" points="103.545228407,10.735944282 103.547281901,10.742271593 103.550546603,10.738256496 103.545228407,10.735944282 " /><polygon class="region" points="98.674394905,8.048444282 98.676448568,8.0547715930001 98.679713101,8.0507564960001 98.674394905,8.048444282 " /><polygon class="region" points="98.574394904,8.1484442820001 98.576448568,8.154771593 98.5797131,8.150756497 98.574394904,8.1484442820001 " /><polygon class="region" points="99.503561741,6.798444282 99.505615235,6.8047715930001 99.508879937,6.8007564970001 99.503561741,6.798444282 " /><polygon class="region" points="104.524394905,10.123444281 104.526448568,10.129771593 104.529713101,10.125756497 104.524394905,10.123444281 " /><polygon class="region" points="101.511895074,12.602610949 101.513948567,12.608938259 101.51721327,12.604923163 101.511895074,12.602610949 " /><polygon class="region" points="104.395228238,10.144277615 104.397281901,10.150604926 104.400546434,10.14658983 104.395228238,10.144277615 " /><polygon class="region" points="99.978561741,6.556777615 99.980615235,6.5631049260001 99.983879937,6.5590898310001 99.978561741,6.556777615 " /><polygon class="region" points="98.624394905,8.0776109490001 98.626448568,8.083938259 98.629713101,8.079923163 98.624394905,8.0776109490001 " /><polygon class="region" points="98.611894905,7.744277615 98.613948568,7.7506049260001 98.617213101,7.7465898300001 98.611894905,7.744277615 " /><polygon class="region" points="102.524382358,11.634279209 102.528251648,11.638117642 102.533043586,11.63619283 102.531944445,11.633333333 102.524382358,11.634279209 " /><polygon class="region" points="99.916049025,9.342612542 99.919918314,9.346450975 99.924710253,9.3445261630001 99.923611111,9.341666666 99.916049025,9.342612542 " /><polygon class="region" points="104.495215691,9.9717790390001 104.499084981,9.9756174730001 104.503876919,9.9736928300001 104.502777778,9.970833333 104.495215691,9.9717790390001 " /><polygon class="region" points="98.682715691,8.0884457060001 98.686584981,8.0922841390001 98.69137692,8.0903594970001 98.690277778,8.0875 98.682715691,8.0884457060001 " /><polygon class="region" points="98.711882358,8.142612372 98.715751648,8.1464508060001 98.720543586,8.1445261640001 98.719444444,8.141666667 98.711882358,8.142612372 " /><polygon class="region" points="104.303549025,10.255112373 104.307418315,10.258950806 104.312210252,10.257026163 104.311111111,10.254166666 104.303549025,10.255112373 " /><polygon class="region" points="104.328549025,10.450945706 104.332418314,10.454784139 104.337210252,10.452859497 104.336111112,10.45 104.328549025,10.450945706 " /><polygon class="region" points="104.466049025,10.071779039 104.469918314,10.075617472 104.474710253,10.073692831 104.473611111,10.070833334 104.466049025,10.071779039 " /><polygon class="region" points="98.453549025,8.0926123730001 98.457418315,8.0964508060001 98.462210252,8.0945261640001 98.461111111,8.091666667 98.453549025,8.0926123730001 " /><polygon class="region" points="104.232715692,10.209279039 104.236584982,10.213117472 104.241376919,10.21119283 104.240277778,10.208333333 104.232715692,10.209279039 " /><polygon class="region" points="104.303549025,10.363445706 104.307418315,10.367284139 104.312210252,10.365359497 104.311111111,10.3625 104.303549025,10.363445706 " /><polygon class="region" points="99.566049194,6.892612372 99.569918484,6.8964508060001 99.574710083,6.8945261640001 99.573611111,6.891666667 99.566049194,6.892612372 " /><polygon class="region" points="99.970215861,6.584279039 99.974085151,6.588117472 99.97887675,6.5861928300001 99.977777778,6.583333333 99.970215861,6.584279039 " /><polygon class="region" points="99.749382528,6.759279039 99.753251818,6.763117472 99.758043416,6.76119283 99.756944445,6.7583333330001 99.749382528,6.759279039 " /><polygon class="region" points="102.878549195,10.234279039 102.882418484,10.238117472 102.887210083,10.23619283 102.886111111,10.233333333 102.878549195,10.234279039 " /><polygon class="region" points="103.536882527,10.555112372 103.540751817,10.558950805 103.545543416,10.557026164 103.544444444,10.554166667 103.536882527,10.555112372 " /><polygon class="region" points="104.52458869,10.273825073 104.529166667,10.275 104.527951728,10.270266045 104.52458869,10.273825073 " /><polygon class="region" points="98.508333333,8.258333334 98.513067288,8.257118395 98.50950826,8.253755357 98.508333333,8.258333334 " /><polygon class="region" points="98.632922024,8.2321584060001 98.6375,8.2333333340001 98.636285062,8.2285993790001 98.632922024,8.2321584060001 " /><polygon class="region" points="98.507158407,8.2629113090001 98.508333333,8.258333334 98.503599378,8.2595482720001 98.507158407,8.2629113090001 " /><polygon class="region" points="99.45,7.2458333330001 99.454733955,7.244618395 99.451174927,7.241255358 99.45,7.2458333330001 " /><polygon class="region" points="102.445833333,11.958333334 102.447048272,11.963067287 102.450411309,11.95950826 102.445833333,11.958333334 " /><polygon class="region" points="98.903700086,8.0308078350001 98.906835938,8.033588324 98.907978991,8.031247966 98.906944445,8.029166666 98.903700086,8.0308078350001 " /><polygon class="region" points="101.441200087,12.514141168 101.444335937,12.516921658 101.44547899,12.514581299 101.444444444,12.5125 101.441200087,12.514141168 " /><polygon class="region" points="100.853700087,6.972474501 100.856835938,6.975254992 100.85797899,6.972914632 100.856944444,6.9708333340001 100.853700087,6.972474501 " /><polygon class="region" points="99.953700087,6.5391411680001 99.956835938,6.541921658 99.95797899,6.5395812990001 99.956944444,6.5375 99.953700087,6.5391411680001 " /><polygon class="region" points="99.291200087,9.3391413370001 99.294335937,9.341921658 99.295478991,9.339581299 99.294444445,9.3375 99.291200087,9.3391413370001 " /><polygon class="region" points="99.66203342,9.7016413370001 99.665169271,9.7044216580001 99.666312324,9.702081299 99.665277778,9.7 99.66203342,9.7016413370001 " /><polygon class="region" points="99.695366754,9.480808003 99.698502604,9.483588325 99.699645657,9.481247965 99.698611111,9.4791666670001 99.695366754,9.480808003 " /><polygon class="region" points="102.51203342,11.959974501 102.515169441,11.962754992 102.516312324,11.960414632 102.515277778,11.958333334 102.51203342,11.959974501 " /><polygon class="region" points="104.503700087,10.151641168 104.506836107,10.154421658 104.50797899,10.152081299 104.506944444,10.15 104.503700087,10.151641168 " /><polygon class="region" points="102.382866754,11.822474501 102.386002774,11.825254991 102.387145657,11.822914632 102.386111111,11.820833333 102.382866754,11.822474501 " /><polygon class="region" points="98.528700087,7.7974745010001 98.531836107,7.800254991 98.53297899,7.7979146320001 98.531944444,7.7958333340001 98.528700087,7.7974745010001 " /><polygon class="region" points="98.61203342,8.2349745010001 98.615169441,8.237754991 98.616312323,8.2354146320001 98.615277777,8.2333333340001 98.61203342,8.2349745010001 " /><polygon class="region" points="100.295366753,5.476641337 100.298502774,5.479421658 100.299645657,5.4770812990001 100.298611112,5.475 100.295366753,5.476641337 " /><polygon class="region" points="102.665186471,5.204963037 102.666035427,5.2045639630001 102.667003914,5.2037269640001 102.664667448,5.203955066 102.665186471,5.204963037 " />
		  </g>
		</svg>