<?xml version="1.0" encoding="UTF-8"?>
	<svg xmlns:xlink="http://www.w3.org/1999/xlink" 
	xmlns="http://www.w3.org/2000/svg" 
	width="360px" height="180px">
	   <style type="text/css">
		  <![CDATA[     
		  .region 
		  { 
			fill:blue; 
			opacity:0.4; 
			stroke:blue;
		  }
		  ]]>
	   </style>

	<circle id="dot" x="-2" y="-2" r="2" style="stroke:none; stroke-width:0; fill:black; opacity:0.7;"/>


	 <image x="0" y="0" width="360" height="180" xlink:href="map.jpg"/>

 
	 <g transform="translate(180,90) scale(1,-1)">   <use xlink:href="#dot" transform="translate(114.603,4.7678)" />   <use xlink:href="#dot" transform="translate(115.088,4.7308)" />   <use xlink:href="#dot" transform="translate(114.677,4.8)" />   <use xlink:href="#dot" transform="translate(115.077,4.7286)" />   <use xlink:href="#dot" transform="translate(114.602,4.767)" />   <use xlink:href="#dot" transform="translate(114.673,4.8)" />   <use xlink:href="#dot" transform="translate(114.177,4.574)" />   <use xlink:href="#dot" transform="translate(115.086,4.725)" />   <use xlink:href="#dot" transform="translate(114.588,4.7533)" />   <use xlink:href="#dot" transform="translate(115.073,4.724)" />   <use xlink:href="#dot" transform="translate(114.609,4.785)" />   <use xlink:href="#dot" transform="translate(114.604,4.7747)" />   <use xlink:href="#dot" transform="translate(114.616,4.7858)" />   <use xlink:href="#dot" transform="translate(114.189,4.57)" />   <use xlink:href="#dot" transform="translate(114.183,4.567)" />   <use xlink:href="#dot" transform="translate(114.192,4.5722)" />   <use xlink:href="#dot" transform="translate(114.586,4.752)" />   <use xlink:href="#dot" transform="translate(114.183,4.5781)" />   <use xlink:href="#dot" transform="translate(110.42,1.55)" />   <use xlink:href="#dot" transform="translate(115,4.83)" />   <use xlink:href="#dot" transform="translate(114.454167,3.691667)" />   <use xlink:href="#dot" transform="translate(114.454167,3.691667)" />   <use xlink:href="#dot" transform="translate(114.755278,3.323889)" />   <use xlink:href="#dot" transform="translate(109.383333,-0.016667)" />   <use xlink:href="#dot" transform="translate(109.27,0.02)" />   <use xlink:href="#dot" transform="translate(111.368103,2.155489)" />   <use xlink:href="#dot" transform="translate(109.669039,1.95)" /><polygon class="region" points="109.383333,-0.016667 109.27,0.02 109.669039,1.95 114.183,4.5781 114.609,4.785 114.673,4.8 115,4.83 115.088,4.7308 114.755278,3.323889 109.383333,-0.016667 " />
		  </g>
		</svg>