<?xml version="1.0" encoding="UTF-8"?>
	<svg xmlns:xlink="http://www.w3.org/1999/xlink" 
	xmlns="http://www.w3.org/2000/svg" 
	width="360px" height="180px">
	   <style type="text/css">
		  <![CDATA[     
		  .region 
		  { 
			fill:blue; 
			opacity:0.4; 
			stroke:blue;
		  }
		  ]]>
	   </style>

	<circle id="dot" x="-2" y="-2" r="2" style="stroke:none; stroke-width:0; fill:black; opacity:0.7;"/>


	 <image x="0" y="0" width="360" height="180" xlink:href="map.jpg"/>

 
	 <g transform="translate(180,90) scale(1,-1)">   <use xlink:href="#dot" transform="translate(151.296587,-33.798996)" />   <use xlink:href="#dot" transform="translate(153.3976,-29.6981)" />   <use xlink:href="#dot" transform="translate(153.3976,-29.6981)" />   <use xlink:href="#dot" transform="translate(151.297193,-33.799171)" />   <use xlink:href="#dot" transform="translate(118,9.26403)" />   <use xlink:href="#dot" transform="translate(153.428192,-27.933269)" />   <use xlink:href="#dot" transform="translate(46.995717,-25.039117)" />   <use xlink:href="#dot" transform="translate(146.6,-17.916)" />   <use xlink:href="#dot" transform="translate(146.6,-17.916)" />   <use xlink:href="#dot" transform="translate(146.6,-17.916)" />   <use xlink:href="#dot" transform="translate(153.2676,-30.2019)" />   <use xlink:href="#dot" transform="translate(153.2676,-30.2019)" />   <use xlink:href="#dot" transform="translate(40.682769,-11.890694)" />   <use xlink:href="#dot" transform="translate(153.2676,-30.2019)" />   <use xlink:href="#dot" transform="translate(153.2676,-30.2019)" />   <use xlink:href="#dot" transform="translate(130.197,31.4289)" />   <use xlink:href="#dot" transform="translate(159.066453,-31.517825)" />   <use xlink:href="#dot" transform="translate(152.48595,-24.0438)" />   <use xlink:href="#dot" transform="translate(152.47632,-24.052834)" />   <use xlink:href="#dot" transform="translate(152.48033,-24.04735)" />   <use xlink:href="#dot" transform="translate(152.47629,-24.05385)" />   <use xlink:href="#dot" transform="translate(146.76575,-18.55385)" />   <use xlink:href="#dot" transform="translate(147.00308,-18.882433)" />   <use xlink:href="#dot" transform="translate(147.13564,-19.155582)" />   <use xlink:href="#dot" transform="translate(147.00319,-18.881733)" />   <use xlink:href="#dot" transform="translate(146.76982,-18.554567)" />   <use xlink:href="#dot" transform="translate(146.80893,-18.66665)" />   <use xlink:href="#dot" transform="translate(147.14073,-19.15695)" />   <use xlink:href="#dot" transform="translate(146.76811,-18.556383)" />   <use xlink:href="#dot" transform="translate(147.0018,-18.880917)" />   <use xlink:href="#dot" transform="translate(146.8088,-18.66825)" />   <use xlink:href="#dot" transform="translate(146.76807,-18.554417)" />   <use xlink:href="#dot" transform="translate(147.003,-18.88305)" />   <use xlink:href="#dot" transform="translate(147.13257,-19.152117)" />   <use xlink:href="#dot" transform="translate(121.752,-15.0853)" />   <use xlink:href="#dot" transform="translate(121.741,-15.1031)" />   <use xlink:href="#dot" transform="translate(121.752,-15.0853)" />   <use xlink:href="#dot" transform="translate(121.741,-15.1031)" />   <use xlink:href="#dot" transform="translate(121.752,-15.0853)" />   <use xlink:href="#dot" transform="translate(121.741,-15.1031)" />   <use xlink:href="#dot" transform="translate(121.74116,-15.10299)" />   <use xlink:href="#dot" transform="translate(121.75266,-15.08533)" />   <use xlink:href="#dot" transform="translate(121.741,-15.1031)" />   <use xlink:href="#dot" transform="translate(121.741,-15.1031)" />   <use xlink:href="#dot" transform="translate(121.75266,-15.08533)" />   <use xlink:href="#dot" transform="translate(121.741,-15.1031)" />   <use xlink:href="#dot" transform="translate(121.74116,-15.10299)" />   <use xlink:href="#dot" transform="translate(121.741,-15.1031)" />   <use xlink:href="#dot" transform="translate(121.75266,-15.08533)" />   <use xlink:href="#dot" transform="translate(121.752,-15.0853)" />   <use xlink:href="#dot" transform="translate(130.197,31.4289)" />   <use xlink:href="#dot" transform="translate(151.467,-33.5)" />   <use xlink:href="#dot" transform="translate(147.00157,-18.8828)" />   <use xlink:href="#dot" transform="translate(146.97528,-18.981817)" />   <use xlink:href="#dot" transform="translate(146.72832,-18.985382)" />   <use xlink:href="#dot" transform="translate(147.00317,-18.88211)" />   <use xlink:href="#dot" transform="translate(147.13365,-19.1527)" />   <use xlink:href="#dot" transform="translate(147.00346,-18.88161)" />   <use xlink:href="#dot" transform="translate(146.31543,-18.23478)" />   <use xlink:href="#dot" transform="translate(147.00221,-18.88085)" />   <use xlink:href="#dot" transform="translate(147.00542,-18.88316)" />   <use xlink:href="#dot" transform="translate(146.94914,-18.90466)" />   <use xlink:href="#dot" transform="translate(146.80821,-18.667019)" />   <use xlink:href="#dot" transform="translate(147.1357,-19.15546)" />   <use xlink:href="#dot" transform="translate(146.81064,-18.66648)" />   <use xlink:href="#dot" transform="translate(146.80818,-18.66701)" />   <use xlink:href="#dot" transform="translate(146.80862,-18.6669)" />   <use xlink:href="#dot" transform="translate(147.0022,-18.8808)" />   <use xlink:href="#dot" transform="translate(146.80807,-18.66551)" />   <use xlink:href="#dot" transform="translate(147.00314,-18.88145)" />   <use xlink:href="#dot" transform="translate(146.80632,-18.66656)" />   <use xlink:href="#dot" transform="translate(147.13368,-19.15272)" />   <use xlink:href="#dot" transform="translate(146.80861,-18.66688)" />   <use xlink:href="#dot" transform="translate(146.80806,-18.66555)" />   <use xlink:href="#dot" transform="translate(147.00323,-18.88216)" />   <use xlink:href="#dot" transform="translate(147.00307,-18.88213)" />   <use xlink:href="#dot" transform="translate(146.0706,-16.80147)" />   <use xlink:href="#dot" transform="translate(146.07077,-16.8016)" />   <use xlink:href="#dot" transform="translate(146.05972,-16.79409)" />   <use xlink:href="#dot" transform="translate(145.91849,-16.60851)" />   <use xlink:href="#dot" transform="translate(146.315,-18.2348)" />   <use xlink:href="#dot" transform="translate(146.06198,-16.79782)" />   <use xlink:href="#dot" transform="translate(146.0668,-16.79858)" />   <use xlink:href="#dot" transform="translate(146.02934,-16.80145)" />   <use xlink:href="#dot" transform="translate(146.02934,-16.8013)" />   <use xlink:href="#dot" transform="translate(143.28069,-11.908596)" />   <use xlink:href="#dot" transform="translate(143.6756,-13.047131)" />   <use xlink:href="#dot" transform="translate(144.54547,-14.015315)" />   <use xlink:href="#dot" transform="translate(144.54547,-14.015315)" />   <use xlink:href="#dot" transform="translate(144.54195,-14.013206)" />   <use xlink:href="#dot" transform="translate(144.54195,-14.013206)" />   <use xlink:href="#dot" transform="translate(143.6756,-13.047131)" />   <use xlink:href="#dot" transform="translate(143.28069,-11.908596)" />   <use xlink:href="#dot" transform="translate(143.5574,-12.356633)" />   <use xlink:href="#dot" transform="translate(143.5574,-12.356633)" />   <use xlink:href="#dot" transform="translate(146.1,-17.416667)" />   <use xlink:href="#dot" transform="translate(146.4,-18.716667)" />   <use xlink:href="#dot" transform="translate(148.26225,-19.8159)" />   <use xlink:href="#dot" transform="translate(152.34305,-22.147284)" />   <use xlink:href="#dot" transform="translate(152.34305,-22.147284)" />   <use xlink:href="#dot" transform="translate(148.26337,-19.819756)" />   <use xlink:href="#dot" transform="translate(147.9305,-19.61445)" />   <use xlink:href="#dot" transform="translate(148.29474,-19.93018)" />   <use xlink:href="#dot" transform="translate(148.26337,-19.819756)" />   <use xlink:href="#dot" transform="translate(148.26225,-19.8159)" />   <use xlink:href="#dot" transform="translate(147.93152,-19.61799)" />   <use xlink:href="#dot" transform="translate(148.29474,-19.93018)" />   <use xlink:href="#dot" transform="translate(147.93254,-19.621557)" />   <use xlink:href="#dot" transform="translate(147.9305,-19.61445)" />   <use xlink:href="#dot" transform="translate(147.93254,-19.621557)" />   <use xlink:href="#dot" transform="translate(147.93152,-19.61799)" />   <use xlink:href="#dot" transform="translate(113.57368,-22.6759)" />   <use xlink:href="#dot" transform="translate(113.577,-23.09315)" />   <use xlink:href="#dot" transform="translate(113.81922,-22.09671)" />   <use xlink:href="#dot" transform="translate(113.57986,-23.10226)" />   <use xlink:href="#dot" transform="translate(113.57368,-22.6759)" />   <use xlink:href="#dot" transform="translate(113.57131,-22.68614)" />   <use xlink:href="#dot" transform="translate(113.577,-23.09315)" />   <use xlink:href="#dot" transform="translate(113.57986,-23.10226)" />   <use xlink:href="#dot" transform="translate(113.57131,-22.68614)" />   <use xlink:href="#dot" transform="translate(113.81588,-22.10772)" />   <use xlink:href="#dot" transform="translate(113.81922,-22.09671)" />   <use xlink:href="#dot" transform="translate(113.57425,-23.08104)" />   <use xlink:href="#dot" transform="translate(113.57425,-23.08104)" />   <use xlink:href="#dot" transform="translate(113.81133,-22.11817)" />   <use xlink:href="#dot" transform="translate(113.81588,-22.10772)" />   <use xlink:href="#dot" transform="translate(113.81133,-22.11817)" />   <use xlink:href="#dot" transform="translate(146.6163,-18.914232)" />   <use xlink:href="#dot" transform="translate(148.265,-19.815)" />   <use xlink:href="#dot" transform="translate(146.56259,-18.125462)" />   <use xlink:href="#dot" transform="translate(146.30228,-17.032038)" />   <use xlink:href="#dot" transform="translate(146.55649,-18.127077)" />   <use xlink:href="#dot" transform="translate(146.30228,-17.032038)" />   <use xlink:href="#dot" transform="translate(146.10947,-17.05397)" />   <use xlink:href="#dot" transform="translate(146.10947,-17.05397)" />   <use xlink:href="#dot" transform="translate(146.56259,-18.125462)" />   <use xlink:href="#dot" transform="translate(146.6163,-18.914232)" />   <use xlink:href="#dot" transform="translate(146.55649,-18.127077)" />   <use xlink:href="#dot" transform="translate(151.46059,-22.60296)" />   <use xlink:href="#dot" transform="translate(150.95996,-20.928633)" />   <use xlink:href="#dot" transform="translate(150.95996,-20.928633)" />   <use xlink:href="#dot" transform="translate(150.95949,-20.931229)" />   <use xlink:href="#dot" transform="translate(151.46059,-22.60296)" />   <use xlink:href="#dot" transform="translate(150.95949,-20.931229)" />   <use xlink:href="#dot" transform="translate(149.18153,-19.36174)" />   <use xlink:href="#dot" transform="translate(149.18153,-19.36174)" />   <use xlink:href="#dot" transform="translate(149.44868,-19.394651)" />   <use xlink:href="#dot" transform="translate(149.44868,-19.394651)" />   <use xlink:href="#dot" transform="translate(149.16364,-20.18279)" />   <use xlink:href="#dot" transform="translate(149.16364,-20.18279)" />   <use xlink:href="#dot" transform="translate(146.52084,-17.444813)" />   <use xlink:href="#dot" transform="translate(147.00392,-18.486412)" />   <use xlink:href="#dot" transform="translate(146.52084,-17.444813)" />   <use xlink:href="#dot" transform="translate(146.42229,-18.07068)" />   <use xlink:href="#dot" transform="translate(146.31421,-18.241196)" />   <use xlink:href="#dot" transform="translate(146.31471,-18.233295)" />   <use xlink:href="#dot" transform="translate(147.00392,-18.486412)" />   <use xlink:href="#dot" transform="translate(145.525,-15.775)" />   <use xlink:href="#dot" transform="translate(145.815,-16.595)" />   <use xlink:href="#dot" transform="translate(146.355,-18.775)" />   <use xlink:href="#dot" transform="translate(146.565,-18.535)" />   <use xlink:href="#dot" transform="translate(146.12822,-17.11288)" />   <use xlink:href="#dot" transform="translate(145.74924,-16.50415)" />   <use xlink:href="#dot" transform="translate(146.14664,-17.11938)" />   <use xlink:href="#dot" transform="translate(146.12822,-17.11288)" />   <use xlink:href="#dot" transform="translate(145.74007,-16.48726)" />   <use xlink:href="#dot" transform="translate(145.74007,-16.48726)" />   <use xlink:href="#dot" transform="translate(146.14664,-17.11938)" />   <use xlink:href="#dot" transform="translate(145.74924,-16.50415)" />   <use xlink:href="#dot" transform="translate(143.24095,-11.75643)" />   <use xlink:href="#dot" transform="translate(143.24107,-11.75636)" />   <use xlink:href="#dot" transform="translate(143.2412,-11.75646)" />   <use xlink:href="#dot" transform="translate(143.24107,-11.75636)" />   <use xlink:href="#dot" transform="translate(143.24095,-11.75643)" />   <use xlink:href="#dot" transform="translate(143.2412,-11.75646)" />   <use xlink:href="#dot" transform="translate(146.92732,-18.50216)" />   <use xlink:href="#dot" transform="translate(146.76633,-18.557)" />   <use xlink:href="#dot" transform="translate(147.00266,-18.88216)" />   <use xlink:href="#dot" transform="translate(146.92732,-18.50216)" />   <use xlink:href="#dot" transform="translate(147.00266,-18.88216)" />   <use xlink:href="#dot" transform="translate(146.76633,-18.557)" />   <use xlink:href="#dot" transform="translate(146.92732,-18.50216)" />   <use xlink:href="#dot" transform="translate(147.02213,-18.45036)" />   <use xlink:href="#dot" transform="translate(150.167,-36.633)" />   <use xlink:href="#dot" transform="translate(146.76834,-18.55283)" />   <use xlink:href="#dot" transform="translate(150.166,-36.633)" />   <use xlink:href="#dot" transform="translate(147.00859,-18.4695)" />   <use xlink:href="#dot" transform="translate(146.76834,-18.55283)" />   <use xlink:href="#dot" transform="translate(147.00859,-18.4695)" />   <use xlink:href="#dot" transform="translate(147.02213,-18.45036)" />   <use xlink:href="#dot" transform="translate(146.87366,-18.4665)" />   <use xlink:href="#dot" transform="translate(146.87366,-18.4665)" />   <use xlink:href="#dot" transform="translate(146.87466,-18.46766)" />   <use xlink:href="#dot" transform="translate(146.86008,-18.47213)" />   <use xlink:href="#dot" transform="translate(146.86008,-18.47213)" />   <use xlink:href="#dot" transform="translate(146.87466,-18.46766)" />   <use xlink:href="#dot" transform="translate(137.12516,-4.96183)" />   <use xlink:href="#dot" transform="translate(136.72585,-13.14085)" />   <use xlink:href="#dot" transform="translate(136.53835,-14.41915)" />   <use xlink:href="#dot" transform="translate(136.555,-14.4383)" />   <use xlink:href="#dot" transform="translate(136.74,-13.3392)" />   <use xlink:href="#dot" transform="translate(136.55585,-14.42335)" />   <use xlink:href="#dot" transform="translate(136.75585,-13.31415)" />   <use xlink:href="#dot" transform="translate(136.7358,-13.3058)" />   <use xlink:href="#dot" transform="translate(136.5683,-14.44165)" />   <use xlink:href="#dot" transform="translate(136.1575,-14.36333)" />   <use xlink:href="#dot" transform="translate(136.58585,-14.4525)" />   <use xlink:href="#dot" transform="translate(136.3633,-14.48085)" />   <use xlink:href="#dot" transform="translate(136.41415,-14.4433)" />   <use xlink:href="#dot" transform="translate(137.568335,-15.256665)" />   <use xlink:href="#dot" transform="translate(139.25334,-15.73333)" />   <use xlink:href="#dot" transform="translate(141.50999,-12.47333)" />   <use xlink:href="#dot" transform="translate(140.10249,-16.55583)" />   <use xlink:href="#dot" transform="translate(143.056665,-10.15167)" />   <use xlink:href="#dot" transform="translate(141.36833,-12.5)" />   <use xlink:href="#dot" transform="translate(138.66167,-16.100835)" />   <use xlink:href="#dot" transform="translate(139.995825,-15.7125)" />   <use xlink:href="#dot" transform="translate(141.520005,-12.76917)" />   <use xlink:href="#dot" transform="translate(141.50999,-12.47333)" />   <use xlink:href="#dot" transform="translate(138.88167,-16.33667)" />   <use xlink:href="#dot" transform="translate(138.48583,-16.07)" />   <use xlink:href="#dot" transform="translate(138.41832,-16.37)" />   <use xlink:href="#dot" transform="translate(139.97665,-16.74667)" />   <use xlink:href="#dot" transform="translate(138.88333,-16.3625)" />   <use xlink:href="#dot" transform="translate(139.457495,-15.94667)" />   <use xlink:href="#dot" transform="translate(141.49001,-12.58667)" />   <use xlink:href="#dot" transform="translate(139.44667,-15.94667)" />   <use xlink:href="#dot" transform="translate(138.92,-16.33834)" />   <use xlink:href="#dot" transform="translate(138.934165,-16.337505)" />   <use xlink:href="#dot" transform="translate(138.894175,-16.338335)" />   <use xlink:href="#dot" transform="translate(139.96249,-16.745)" />   <use xlink:href="#dot" transform="translate(140.114165,-16.3975)" />   <use xlink:href="#dot" transform="translate(141.504995,-12.489165)" />   <use xlink:href="#dot" transform="translate(143.00833,-10.17333)" />   <use xlink:href="#dot" transform="translate(141.53833,-12.71)" />   <use xlink:href="#dot" transform="translate(143.07,-10.14333)" />   <use xlink:href="#dot" transform="translate(140.07001,-16.41333)" />   <use xlink:href="#dot" transform="translate(139.24333,-15.65833)" />   <use xlink:href="#dot" transform="translate(139.239995,-15.735)" />   <use xlink:href="#dot" transform="translate(138.53334,-16.04333)" />   <use xlink:href="#dot" transform="translate(137.57167,-15.24333)" />   <use xlink:href="#dot" transform="translate(138.11333,-15.18667)" />   <use xlink:href="#dot" transform="translate(140.00499,-15.7)" />   <use xlink:href="#dot" transform="translate(141.51167,-12.78167)" />   <use xlink:href="#dot" transform="translate(140.22334,-16.48167)" />   <use xlink:href="#dot" transform="translate(141.53833,-12.694165)" />   <use xlink:href="#dot" transform="translate(141.493335,-12.558335)" />   <use xlink:href="#dot" transform="translate(139.48,-15.91333)" />   <use xlink:href="#dot" transform="translate(138.67667,-16.1)" />   <use xlink:href="#dot" transform="translate(139.37166,-15.675)" />   <use xlink:href="#dot" transform="translate(138.42334,-16.3675)" />   <use xlink:href="#dot" transform="translate(138.432495,-16.368335)" />   <use xlink:href="#dot" transform="translate(138.770835,-16.330835)" />   <use xlink:href="#dot" transform="translate(136.69,-15.04167)" />   <use xlink:href="#dot" transform="translate(140.045,-16.61)" />   <use xlink:href="#dot" transform="translate(138.75083,-16.36333)" />   <use xlink:href="#dot" transform="translate(139.463335,-15.9125)" />   <use xlink:href="#dot" transform="translate(138.46501,-16.36167)" />   <use xlink:href="#dot" transform="translate(140.05916,-16.655)" />   <use xlink:href="#dot" transform="translate(141.36583,-12.488335)" />   <use xlink:href="#dot" transform="translate(140.10333,-16.38833)" />   <use xlink:href="#dot" transform="translate(138.75833,-16.33167)" />   <use xlink:href="#dot" transform="translate(138.115,-15.175835)" />   <use xlink:href="#dot" transform="translate(137.584995,-15.42)" />   <use xlink:href="#dot" transform="translate(138.49166,-16.363335)" />   <use xlink:href="#dot" transform="translate(139.2525,-15.661665)" />   <use xlink:href="#dot" transform="translate(138.355,-15.87667)" />   <use xlink:href="#dot" transform="translate(142.987495,-10.20667)" />   <use xlink:href="#dot" transform="translate(138.47665,-16.365)" />   <use xlink:href="#dot" transform="translate(137.57333,-15.42)" />   <use xlink:href="#dot" transform="translate(137.78833,-15.45833)" />   <use xlink:href="#dot" transform="translate(140.045,-16.61)" />   <use xlink:href="#dot" transform="translate(137.77416,-15.4575)" />   <use xlink:href="#dot" transform="translate(139.38333,-15.6775)" />   <use xlink:href="#dot" transform="translate(138.83584,-16.3625)" />   <use xlink:href="#dot" transform="translate(140.125,-16.52833)" />   <use xlink:href="#dot" transform="translate(140.10333,-16.54333)" />   <use xlink:href="#dot" transform="translate(136.764165,-15.03917)" />   <use xlink:href="#dot" transform="translate(138.89999,-16.36333)" />   <use xlink:href="#dot" transform="translate(138.85001,-16.36167)" />   <use xlink:href="#dot" transform="translate(140.14,-16.52833)" />   <use xlink:href="#dot" transform="translate(142.96666,-10.235)" />   <use xlink:href="#dot" transform="translate(140.08333,-16.68)" />   <use xlink:href="#dot" transform="translate(140.066665,-16.40833)" />   <use xlink:href="#dot" transform="translate(141.504995,-12.489165)" />   <use xlink:href="#dot" transform="translate(140.03,-16.608335)" />   <use xlink:href="#dot" transform="translate(138.765,-16.36333)" />   <use xlink:href="#dot" transform="translate(138.355835,-15.88917)" />   <use xlink:href="#dot" transform="translate(140.03,-16.608335)" />   <use xlink:href="#dot" transform="translate(143.143345,-10.046665)" />   <use xlink:href="#dot" transform="translate(138.543335,-16.045)" />   <use xlink:href="#dot" transform="translate(138.48666,-16.08167)" />   <use xlink:href="#dot" transform="translate(140.224995,-16.4975)" />   <use xlink:href="#dot" transform="translate(130.48417,-10.581665)" />   <use xlink:href="#dot" transform="translate(130.57666,-11.06)" />   <use xlink:href="#dot" transform="translate(136.22749,-14.38083)" />   <use xlink:href="#dot" transform="translate(130.56333,-11.060835)" />   <use xlink:href="#dot" transform="translate(130.47501,-10.585)" />   <use xlink:href="#dot" transform="translate(44.913857,12.793144)" />   <use xlink:href="#dot" transform="translate(136.8666,-14.595165)" /><polygon class="region" points="46.995717,-25.039117 40.682769,-11.890694 44.913857,12.793144 130.197,31.4289 159.066453,-31.517825 150.167,-36.633 150.166,-36.633 46.995717,-25.039117 " />
		  </g>
		</svg>