<?xml version="1.0" encoding="UTF-8"?>
	<svg xmlns:xlink="http://www.w3.org/1999/xlink" 
	xmlns="http://www.w3.org/2000/svg" 
	width="360px" height="180px">
	   <style type="text/css">
		  <![CDATA[     
		  .region 
		  { 
			fill:blue; 
			opacity:0.4; 
			stroke:blue;
		  }
		  ]]>
	   </style>

	<circle id="dot" x="-2" y="-2" r="2" style="stroke:none; stroke-width:0; fill:black; opacity:0.7;"/>


	 <image x="0" y="0" width="360" height="180" xlink:href="map.jpg"/>

 
	 <g transform="translate(180,90) scale(1,-1)"><polygon class="region" points="37.321834564,24.621778488 37.460693359,24.43752861 37.427112579,24.367389679 37.518917084,24.270305634 37.947444916,24.206417084 38.600193024,23.571722031 39.13747406,22.399805069 39.044418335,21.833694458 38.946166992,21.913110733 39.08147049,21.70233345 39.137500763,21.76241684 39.195526123,21.095222473 39.453529358,20.823444366 39.677722931,20.432527542 40.109390259,20.268972397 40.790138245,19.733110428 41.636138916,17.997028351 42.30714035,17.449417114 42.368499756,17.017139435 42.368305206,17.181804657 42.709640503,16.742527008 42.806804657,15.283444405 42.696804047,15.367111206 42.596084595,15.232832909 42.842472076,15.152111053 42.938388824,14.92669487 43.464916229,12.671833038 43.967498779,12.591305733 44.577804565,12.811306 45.036140442,12.750833511 45.669445038,13.346833229 46.696804047,13.425167084 47.383750916,13.644055367 47.967971802,14.043972015 48.686473846,14.039028168 49.08152771,14.505083084 49.571918488,14.732805252 52.129081726,15.585000038 52.280874,15.400126091 52.344874,14.893026091 52.064474,14.496126091 49.768474,13.799326091 48.975274,13.158626091 48.111774,13.048326091 46.872074,12.515526091 46.100974,12.481326091 45.402274,11.904226091 44.343774,11.705226091 44.620674,11.331726091 45.632174,11.771626091 46.433774,11.679426091 47.246874,12.080526091 48.968074,12.192326091 49.823574,12.425626091 50.598574,12.892126091 51.330574,12.777626091 51.843474,13.143826091 52.594874,13.108126091 52.951274,13.461826091 53.495174,13.641126091 54.336874,13.598126091 55.121774,13.248826091 55.426874,12.607426091 55.241274,11.980926091 54.477974,11.495926091 53.293774,11.188226091 51.081761963,11.327316331 51.284751892,11.833666801 51.054359436,11.872555733 50.955860138,11.921833038 50.858612061,11.943721771 50.798778534,11.983555794 50.773777008,11.984360695 50.269859314,11.584278107 49.422027588,11.333527565 48.529998779,11.309721947 48.024581909,11.114999771 47.422084808,11.17538929 46.44966507,10.680722237 45.807415009,10.867527962 44.961029053,10.41708374 44.564582825,10.379611015 43.857082367,10.767389297 43.503276825,11.370666504 43.248943329,11.47274971 43.154026031,11.612250328 42.560749054,11.490055084 42.525859833,11.586166382 43.372806549,11.985416412 43.321083069,12.479305267 43.290554047,12.463694572 43.015220642,12.886027336 42.918834686,12.784832954 42.782554626,12.840806007 42.726333618,12.96044445 42.738193512,13.036611557 42.545333862,13.22286129 42.383861542,13.207055092 42.227390289,13.634388924 41.681694031,13.943528175 41.183750153,14.618805885 40.774112701,14.704805374 40.521110535,15.021416664 40.209609985,14.944360733 40.019001007,15.233499527 40.085109711,15.326389313 39.891887665,15.460000038 39.870250702,15.498861313 39.817501068,15.079111099 39.710029602,15.090250015 38.577720642,18.027889252 38.258304596,18.205638885 38.307167053,18.261194229 38.271083832,18.295194626 38.114887238,18.258666992 37.945720673,18.558639526 37.409389496,18.873945236 37.197498322,19.638584137 37.10552597,21.216611862 37.314998627,21.06388855 36.972583771,21.395915985 36.891109467,22.064138412 36.434444427,22.360750198 36.253612518,22.609027863 35.945972443,22.682138443 35.758666992,22.909166336 35.669082642,22.940999985 35.487388611,23.492889404 35.474555969,23.930194855 35.79486084,23.903804779 35.444196871,24.172512903 36.675774,24.625726091 37.321834564,24.621778488 " /><polygon class="region" points="37.143574,23.291926091 37.168274,23.133526091 37.657974,22.589626091 37.784874,21.948926091 38.163774,21.381326091 38.123474,20.128626091 38.911774,19.383226091 39.856674,17.440426091 40.616474,17.368426091 40.223174,18.104526091 40.029074,18.885126091 38.719174,19.747226091 38.078474,21.661526091 38.044974,22.344926091 37.143574,23.291926091 " /><polygon class="region" points="53.795387268,12.306694031 54.134166718,12.349444389 54.529472351,12.551750183 53.547138214,12.714471817 53.302970886,12.537027359 53.795387268,12.306694031 " /><polygon class="region" points="40.019195557,15.867111206 39.92150116,15.723694801 40.010082245,15.721750259 40.075359344,15.640722275 39.936164856,15.719528198 39.959693909,15.614138603 40.418972015,15.557360649 40.159111023,15.626138687 40.019195557,15.867111206 " /><polygon class="region" points="42.080276489,16.820638657 42.032138824,16.715833664 41.746360779,16.895082474 42.186916351,16.59213829 42.080276489,16.820638657 " /><polygon class="region" points="41.922748566,16.960250854 41.832637787,16.899166107 41.991138458,16.755083084 41.916915894,16.849666595 41.922748566,16.960250854 " /><polygon class="region" points="52.301612854,12.157777786 52.391387939,12.206277847 52.063304901,12.242166519 52.155193329,12.194639206 52.301612854,12.157777786 " /><polygon class="region" points="42.706390381,14.034028053 42.679862976,13.989110947 42.77399826,13.905555725 42.779335022,14.046805382 42.706390381,14.034028053 " /><polygon class="region" points="42.595859528,15.441666603 42.554748535,15.393333435 42.532527924,15.308028221 42.574054718,15.265028 42.595859528,15.441666603 " /><polygon class="region" points="40.090778351,16.081361771 40.041610718,16.113500595 39.987472534,16.001722336 40.113529205,15.976528168 40.090778351,16.081361771 " /><polygon class="region" points="42.776000977,13.778194427 42.701248169,13.734472275 42.666000366,13.651527405 42.732498169,13.683028221 42.776000977,13.778194427 " /><polygon class="region" points="40.339668274,15.032250404 40.29069519,15.05297184 40.266418457,14.969778061 40.348331451,15.003555298 40.339668274,15.032250404 " /><polygon class="region" points="53.069442749,12.129583359 53.067749023,12.179055214 52.980361938,12.162917137 53.028694153,12.140916824 53.069442749,12.129583359 " /><polygon class="region" points="40.293556213,15.195944786 40.232666016,15.170555115 40.249832153,15.10597229 40.275665283,15.116416931 40.293556213,15.195944786 " /><polygon class="region" points="41.661750793,16.911193848 41.676528931,16.897888184 41.723278046,16.935527802 41.674415588,16.966999054 41.661750793,16.911193848 " /><polygon class="region" points="40.174221039,16.189722061 40.113666534,16.118749619 40.135807037,16.084972382 40.197055817,16.156166077 40.174221039,16.189722061 " /><polygon class="region" points="41.796222687,16.71736145 41.777667999,16.736639023 41.715751648,16.732778549 41.825443268,16.682888031 41.796222687,16.71736145 " /><polygon class="region" points="37.285640717,20.842472076 37.251525879,20.838167191 37.252750397,20.750610352 37.268333435,20.760416031 37.285640717,20.842472076 " /><polygon class="region" points="42.38727951,15.743499756 42.383640289,15.701360703 42.481250763,15.702638626 42.47952652,15.716416359 42.38727951,15.743499756 " /><polygon class="region" points="40.202526093,15.693833351 40.175445557,15.728805542 40.153583527,15.659639359 40.195777893,15.667471886 40.202526093,15.693833351 " /><polygon class="region" points="42.909500122,12.962694168 42.890777588,12.932833672 42.944526672,12.906083107 42.960361481,12.930916786 42.909500122,12.962694168 " /><polygon class="region" points="38.944805145,22.022417068 38.928527832,22.009555817 38.95677948,21.915138245 38.979167938,21.955165863 38.944805145,22.022417068 " /><polygon class="region" points="41.621944427,16.823028564 41.571193695,16.899250031 41.564529419,16.903610229 41.581443787,16.832666397 41.621944427,16.823028564 " /><polygon class="region" points="40.174610138,16.546388626 40.128334045,16.520889282 40.132026672,16.474611282 40.183971405,16.509277344 40.174610138,16.546388626 " /><polygon class="region" points="39.467887878,16.037500381 39.477165222,16.08855629 39.42672348,16.153778076 39.464279175,16.093999863 39.467887878,16.037500381 " /><polygon class="region" points="40.005138397,20.250360489 40.020442963,20.22958374 40.19430542,20.163944244 40.075668335,20.23374939 40.005138397,20.250360489 " /><polygon class="region" points="39.883720398,16.349721909 39.857582092,16.327667236 39.906082153,16.301971436 39.91702652,16.322526932 39.883720398,16.349721909 " /><polygon class="region" points="40.16588974,16.059778214 40.128501892,16.052110672 40.162971497,16.017749786 40.188610077,16.040222168 40.16588974,16.059778214 " /><polygon class="region" points="35.700164795,23.216972351 35.692276001,23.24036026 35.584026337,23.225915909 35.723415375,23.192638397 35.700164795,23.216972351 " /><polygon class="region" points="41.990528107,16.63580513 42.028999329,16.606805801 42.041248322,16.651082993 42.006748199,16.656888962 41.990528107,16.63580513 " /><polygon class="region" points="42.304138184,16.298610687 42.328109741,16.277694702 42.342861176,16.304222107 42.32988739,16.320083618 42.304138184,16.298610687 " /><polygon class="region" points="38.4727211,18.140806198 38.450027466,18.197305679 38.414222717,18.191999435 38.420665741,18.150554657 38.4727211,18.140806198 " /><polygon class="region" points="42.172416687,15.08275032 42.157333374,15.065500259 42.178443909,15.034472466 42.187362671,15.068805695 42.172416687,15.08275032 " /><polygon class="region" points="40.244140625,15.246472359 40.228000641,15.230250359 40.234279633,15.211388588 40.269832611,15.227277756 40.244140625,15.246472359 " /><polygon class="region" points="40.78169632,15.496610641 40.797943115,15.485472679 40.830307007,15.509583473 40.815498352,15.522527695 40.78169632,15.496610641 " /><polygon class="region" points="39.655250549,15.902555466 39.636585236,15.92277813 39.609249115,15.895805359 39.650943756,15.890194893 39.655250549,15.902555466 " /><polygon class="region" points="42.035526276,16.553527832 42.055667877,16.531888962 42.07194519,16.561250687 42.043193817,16.571638107 42.035526276,16.553527832 " /><polygon class="region" points="41.058944702,18.563472748 41.07169342,18.565361023 41.064334869,18.604639053 41.042221069,18.590084076 41.058944702,18.563472748 " /><polygon class="region" points="41.840610504,17.021694183 41.880584717,17.00683403 41.934528351,16.958944321 41.930053711,16.983055115 41.886890411,17.010944366 41.840610504,17.021694183 " /><polygon class="region" points="43.396194458,12.644611359 43.42533493,12.630999565 43.43769455,12.64252758 43.412139893,12.664722443 43.396194458,12.644611359 " /><polygon class="region" points="42.446529388,16.285388947 42.464473724,16.266277313 42.506053925,16.272249222 42.461860657,16.30850029 42.446529388,16.285388947 " /><polygon class="region" points="40.222499847,16.260110855 40.200305939,16.248332977 40.234779358,16.231416702 40.240333557,16.239749908 40.222499847,16.260110855 " /><polygon class="region" points="37.397335052,19.049055099 37.389583588,19.052055359 37.400054932,18.949249268 37.408611298,18.997444153 37.397335052,19.049055099 " /><polygon class="region" points="42.803001404,13.876194 42.775081635,13.864639282 42.773303986,13.838944435 42.785831451,13.843360901 42.803001404,13.876194 " /><polygon class="region" points="37.992027283,18.778249741 37.998748779,18.769193649 38.028137207,18.770471573 38.008861542,18.790555954 37.992027283,18.778249741 " /><polygon class="region" points="41.846553802,15.563471794 41.838306427,15.566111565 41.818359375,15.539916992 41.849388123,15.540527344 41.846553802,15.563471794 " /><polygon class="region" points="42.862998962,13.005666733 42.863945007,13.040111542 42.837417603,13.037055969 42.835029602,13.018694878 42.862998962,13.005666733 " /><polygon class="region" points="42.297748566,15.689332962 42.287387848,15.713777542 42.302581787,15.659444809 42.30450058,15.661277771 42.297748566,15.689332962 " /><polygon class="region" points="53.29908371,12.120499611 53.274501801,12.130639076 53.246917725,12.121555328 53.293804169,12.111083031 53.29908371,12.120499611 " /><polygon class="region" points="42.92691803,14.584500313 42.942638397,14.610444069 42.897220612,14.618916512 42.898723602,14.609027863 42.92691803,14.584500313 " /><polygon class="region" points="42.368583679,16.219888687 42.356887817,16.201583862 42.371166229,16.179027557 42.383693695,16.199861526 42.368583679,16.219888687 " /><polygon class="region" points="42.581611633,15.644666672 42.597415924,15.623361588 42.635139465,15.62769413 42.596389771,15.651583672 42.581611633,15.644666672 " /><polygon class="region" points="42.042110443,15.218305588 42.043109894,15.180417061 42.051612854,15.180083275 42.059192657,15.202722549 42.042110443,15.218305588 " /><polygon class="region" points="40.050167084,15.957777977 40.029529572,15.954444885 40.015445709,15.937749863 40.050777435,15.937138557 40.050167084,15.957777977 " /><polygon class="region" points="42.358501434,15.53255558 42.3777771,15.489666939 42.40669632,15.469444275 42.379112244,15.528861046 42.358501434,15.53255558 " /><polygon class="region" points="40.140472412,15.80008316 40.114639282,15.798583031 40.111305237,15.792416573 40.133750916,15.776472092 40.140472412,15.80008316 " /><polygon class="region" points="41.791473389,16.95913887 41.812473297,16.974250793 41.779335022,16.990139008 41.786026001,16.986221313 41.791473389,16.95913887 " /><polygon class="region" points="40.136695862,15.853750229 40.104278564,15.868332863 40.098331451,15.862416267 40.130249023,15.84505558 40.136695862,15.853750229 " /><polygon class="region" points="40.297164917,15.115139008 40.313446045,15.109777451 40.335803986,15.137666702 40.326831818,15.139555931 40.297164917,15.115139008 " /><polygon class="region" points="36.17905426,23.615499496 36.182304382,23.594278336 36.208694458,23.607694626 36.190471649,23.623416901 36.17905426,23.615499496 " /><polygon class="region" points="36.193637848,22.648555756 36.200084686,22.669416428 36.167221069,22.682888031 36.190303802,22.659500122 36.193637848,22.648555756 " /><polygon class="region" points="42.85477829,12.946805954 42.841720581,12.984722137 42.828971863,12.986527443 42.842639923,12.941778183 42.85477829,12.946805954 " /><polygon class="region" points="42.949359894,12.899582863 42.924999237,12.901305199 42.958499908,12.865083694 42.942443848,12.892999649 42.949359894,12.899582863 " /><polygon class="region" points="40.582748413,15.55158329 40.559360504,15.560222626 40.560165405,15.537278175 40.579082489,15.533721924 40.582748413,15.55158329 " /><polygon class="region" points="39.74955368,15.488361359 39.739192963,15.45794487 39.75725174,15.426833153 39.75,15.461555481 39.74955368,15.488361359 " /><polygon class="region" points="40.489612579,15.004361153 40.496833801,14.989417076 40.515110016,15.001694679 40.50005722,15.015555382 40.489612579,15.004361153 " /><polygon class="region" points="36.64408493,22.282138824 36.627750397,22.25138855 36.658527374,22.24741745 36.642360687,22.272443771 36.64408493,22.282138824 " /><polygon class="region" points="42.20936203,16.29344368 42.210388184,16.307222366 42.196193695,16.323944092 42.189666748,16.294195175 42.20936203,16.29344368 " /><polygon class="region" points="38.339611053,18.213861465 38.332000732,18.221305847 38.296611786,18.224306107 38.317165375,18.207250595 38.339611053,18.213861465 " /><polygon class="region" points="42.971832275,12.929583549 42.963417053,12.91455555 42.991333008,12.901027679 42.97858429,12.925805092 42.971832275,12.929583549 " /><polygon class="region" points="41.753444672,16.806694031 41.732723236,16.811750412 41.720085144,16.800971985 41.747470856,16.793611526 41.753444672,16.806694031 " /><polygon class="region" points="40.068443298,16.18327713 40.061222076,16.170360565 40.056526184,16.165277481 40.078056335,16.171443939 40.079582214,16.201444626 40.068443298,16.18327713 " /><polygon class="region" points="40.612304687,19.621139526 40.640472412,19.613027573 40.643112183,19.616945267 40.586750031,19.635000229 40.612304687,19.621139526 " /><polygon class="region" points="42.031528473,16.850610733 42.000305176,16.847221375 41.98241806,16.837388992 42.029834747,16.836139679 42.031528473,16.850610733 " /><polygon class="region" points="40.788917542,15.580527306 40.785694122,15.56127739 40.803890228,15.556111336 40.807304382,15.569389343 40.788917542,15.580527306 " /><polygon class="region" points="41.730278015,17.064332962 41.748390198,17.056528091 41.766998291,17.061332703 41.741973877,17.074222565 41.730278015,17.064332962 " /><polygon class="region" points="37.725971222,18.768388748 37.719612122,18.771917343 37.698665619,18.770526886 37.741085052,18.751693726 37.725971222,18.768388748 " /><polygon class="region" points="40.009029388,15.521499634 40.010250092,15.527000427 39.979084015,15.548222542 39.980220795,15.53674984 40.009029388,15.521499634 " /><polygon class="region" points="36.040279388,22.721055984 36.062221527,22.726249695 36.060638428,22.763000488 36.034805298,22.737833023 36.040279388,22.721055984 " /><polygon class="region" points="38.983333588,22.029193878 38.961666107,22.029111862 38.965415955,21.996778488 38.971279144,21.999860764 38.983333588,22.029193878 " /><polygon class="region" points="40.759109497,15.483916283 40.736946106,15.491861343 40.741722107,15.465000153 40.749053955,15.464249611 40.759109497,15.483916283 " /><polygon class="region" points="41.877529144,16.649305344 41.867778778,16.663555145 41.837112427,16.672306061 41.855167389,16.652999878 41.877529144,16.649305344 " /><polygon class="region" points="43.469139099,11.448111534 43.450611115,11.431860924 43.455165863,11.420861244 43.472026825,11.433221817 43.469139099,11.448111534 " /><polygon class="region" points="40.47719574,15.064805984 40.493721008,15.061055183 40.506778717,15.071749687 40.467029572,15.064194679 40.47719574,15.064805984 " /><polygon class="region" points="40.37758255,15.477972031 40.357528687,15.488194466 40.331695557,15.483055115 40.377998352,15.470861435 40.37758255,15.477972031 " /><polygon class="region" points="41.053081512,18.468500137 41.081665039,18.507278442 41.079666138,18.52063942 41.066360474,18.511083603 41.053081512,18.468500137 " /><polygon class="region" points="40.762332916,14.845388412 40.756111145,14.835110664 40.766777039,14.841472626 40.766639709,14.855250359 40.739776611,14.864388466 40.762332916,14.845388412 " /><polygon class="region" points="39.605056763,20.532417297 39.609916687,20.534082413 39.582748413,20.579971313 39.579750061,20.565444946 39.605056763,20.532417297 " /><polygon class="region" points="40.130332947,19.957445145 40.143001556,19.954555511 40.112861633,19.981445313 40.116638184,19.968139648 40.130332947,19.957445145 " /><polygon class="region" points="42.482749939,15.489333153 42.492584229,15.497528076 42.528694153,15.496749878 42.498054504,15.505361557 42.482749939,15.489333153 " /><polygon class="region" points="40.408195496,15.021361351 40.421195984,15.025416374 40.423416138,15.037805557 40.399028778,15.032194138 40.408195496,15.021361351 " /><polygon class="region" points="40.724582672,19.679138184 40.749305725,19.679222107 40.749416351,19.644861221 40.752445221,19.681722641 40.724582672,19.679138184 " /><polygon class="region" points="38.788528442,23.066305161 38.774944305,23.035417557 38.79183197,23.065834045 38.795276642,23.110834122 38.788528442,23.066305161 " /><polygon class="region" points="36.109554291,22.706443787 36.111415863,22.692499161 36.137664795,22.715723038 36.127998352,22.721639633 36.109554291,22.706443787 " /><polygon class="region" points="38.707221985,23.232915878 38.723804474,23.195278168 38.742832184,23.178833008 38.715583801,23.230472565 38.707221985,23.232915878 " /><polygon class="region" points="39.534999847,16.33275032 39.568084717,16.345777512 39.566776276,16.355167389 39.52960968,16.343471527 39.534999847,16.33275032 " /><polygon class="region" points="40.753276825,15.736971855 40.768501282,15.74580574 40.734806061,15.740305901 40.735279083,15.737555504 40.753276825,15.736971855 " /><polygon class="region" points="40.989612579,15.57333374 40.983860016,15.563750267 40.992778778,15.55288887 41.005889893,15.564944267 40.989612579,15.57333374 " /><polygon class="region" points="40.274806976,15.98516655 40.294723511,15.984389305 40.288471222,16.002277374 40.276527405,15.997528076 40.274806976,15.98516655 " /><polygon class="region" points="42.953056335,14.518444061 42.957084656,14.520222664 42.946361542,14.560333252 42.935916901,14.540499687 42.953056335,14.518444061 " /><polygon class="region" points="40,16.193527222 40.024887085,16.220750809 40.019138336,16.225749969 39.998722076,16.203971863 40,16.193527222 " /><polygon class="region" points="40.601276398,15.902166367 40.594276428,15.883166313 40.601081848,15.872361183 40.610443115,15.890639305 40.601276398,15.902166367 " /><polygon class="region" points="42.928359985,12.843777657 42.932582855,12.82741642 42.952667236,12.823444366 42.937026978,12.842277527 42.928359985,12.843777657 " /><polygon class="region" points="41.614555359,16.83955574 41.623138428,16.835193634 41.580860138,16.896499634 41.592166901,16.86938858 41.614555359,16.83955574 " /><polygon class="region" points="42.261360168,16.333389282 42.235805511,16.314250946 42.237304688,16.294971466 42.244556427,16.301361084 42.261360168,16.333389282 " /><polygon class="region" points="36.204498291,22.782083511 36.207164764,22.788139343 36.244525909,22.78386116 36.20930481,22.810749054 36.204498291,22.782083511 " /><polygon class="region" points="37.730304718,19.225889206 37.727443695,19.237333298 37.699638367,19.243360519 37.705890656,19.234443665 37.730304718,19.225889206 " /><polygon class="region" points="38.933776855,22.877166748 38.941612244,22.883249283 38.913696289,22.907167435 38.923027039,22.884111404 38.933776855,22.877166748 " /><polygon class="region" points="38.358333588,18.227556229 38.367721558,18.226583481 38.340248108,18.241693497 38.340637207,18.234111786 38.358333588,18.227556229 " /><polygon class="region" points="37.424720764,24.455749512 37.432304382,24.432222366 37.447444916,24.424417496 37.431915283,24.452054977 37.424720764,24.455749512 " /><polygon class="region" points="40.03427887,20.257972717 40.03125,20.250999451 40.087001801,20.234861374 40.057167053,20.25702858 40.03427887,20.257972717 " /><polygon class="region" points="37.521305084,18.739055634 37.50283432,18.764944077 37.491443634,18.76625061 37.493251801,18.75802803 37.521305084,18.739055634 " /><polygon class="region" points="40.270584106,15.805166245 40.277053833,15.819582939 40.250694275,15.808250427 40.254001617,15.805944443 40.270584106,15.805166245 " /><polygon class="region" points="42.005195618,16.805416107 41.993999481,16.795360565 42.010139465,16.777639389 42.017307281,16.790250778 42.005195618,16.805416107 " /><polygon class="region" points="42.808193207,12.864832878 42.8097229,12.872611046 42.785556793,12.871805191 42.791778564,12.864138603 42.808193207,12.864832878 " /><polygon class="region" points="39.057472229,22.253639221 39.064304352,22.257444382 39.069194794,22.276222229 39.062610626,22.295360565 39.057472229,22.253639221 " /><polygon class="region" points="40.14422226,15.943139076 40.159332275,15.931166649 40.161472321,15.932055473 40.135112762,15.957471848 40.14422226,15.943139076 " /><polygon class="region" points="37.683639526,18.763055801 37.695304871,18.773082733 37.685806274,18.787305832 37.67672348,18.781972885 37.683639526,18.763055801 " /><polygon class="region" points="38.174804687,18.836666107 38.161472321,18.838693619 38.149360657,18.829721451 38.171749115,18.821193695 38.174804687,18.836666107 " /><polygon class="region" points="39.964832306,16.160528183 39.976860046,16.172306061 39.971832275,16.182916641 39.962528229,16.176445007 39.964832306,16.160528183 " /><polygon class="region" points="42.026359558,15.204944611 42.018695831,15.196749687 42.031944275,15.175944328 42.033638,15.179389 42.026359558,15.204944611 " /><polygon class="region" points="40.696277618,15.821749687 40.683917999,15.815416336 40.685417175,15.79338932 40.690860748,15.792444229 40.696277618,15.821749687 " /><polygon class="region" points="42.364612579,16.281389236 42.345584869,16.271389008 42.346721649,16.26219368 42.356445312,16.260778427 42.364612579,16.281389236 " /><polygon class="region" points="38.951665994,22.667965484 38.955028534,22.660610199 38.98474884,22.685333252 38.952194214,22.680194855 38.951665994,22.667965484 " /><polygon class="region" points="38.236721039,23.940694809 38.24861145,23.942943573 38.19430542,23.9715271 38.21030426,23.954639435 38.236721039,23.940694809 " /><polygon class="region" points="38.650501251,23.346611023 38.659416199,23.306583405 38.66852951,23.309249878 38.656028748,23.344554901 38.650501251,23.346611023 " /><polygon class="region" points="38.167388916,23.89263916 38.201473236,23.883527756 38.221748352,23.868473053 38.200138092,23.888750076 38.167388916,23.89263916 " /><polygon class="region" points="40.823776245,19.428527832 40.8176651,19.471221924 40.80714035,19.483055115 40.815750122,19.440361023 40.823776245,19.428527832 " /><polygon class="region" points="42.609416962,15.755555153 42.606834412,15.739305496 42.623832703,15.769583702 42.614776611,15.765805244 42.609416962,15.755555153 " /><polygon class="region" points="40.488803864,15.84252739 40.497081757,15.838805199 40.509723663,15.851111412 40.49861145,15.856222153 40.488803864,15.84252739 " /><polygon class="region" points="41.905303955,17.100721359 41.906417847,17.089389801 41.927165985,17.077611923 41.918609619,17.091611862 41.905303955,17.100721359 " /><polygon class="region" points="36.137554169,22.682695389 36.139221191,22.698583603 36.131889343,22.70249939 36.125946045,22.681638718 36.137554169,22.682695389 " /><polygon class="region" points="40.184307098,15.037444115 40.173610687,15.028778076 40.17830658,15.01772213 40.189445496,15.028916359 40.184307098,15.037444115 " /><polygon class="region" points="38.494415283,18.139249802 38.489112854,18.140306473 38.47580719,18.123472214 38.503749847,18.128639221 38.494415283,18.139249802 " /><polygon class="region" points="41.957942963,16.30188942 41.970779419,16.304861069 41.961807251,16.325971603 41.956306458,16.315444946 41.957942963,16.30188942 " /><polygon class="region" points="40.729057312,15.658694267 40.712471008,15.656277657 40.712112427,15.639082909 40.717334747,15.640194893 40.729057312,15.658694267 " /><polygon class="region" points="36.318637848,22.704889297 36.359832764,22.668832779 36.369194031,22.666444778 36.322917938,22.705028534 36.318637848,22.704889297 " /><polygon class="region" points="42.717529297,13.603694916 42.734695435,13.604861259 42.739498138,13.628444672 42.732692719,13.630167007 42.717529297,13.603694916 " /><polygon class="region" points="40.565582275,15.839777946 40.565917969,15.820500374 40.575889587,15.821361542 40.575279236,15.837416649 40.565582275,15.839777946 " /><polygon class="region" points="43.367473602,11.492888451 43.356277466,11.466805458 43.334999084,11.447638512 43.35994339,11.464221954 43.367473602,11.492888451 " /><polygon class="region" points="39.818889618,16.32611084 39.806972504,16.329889297 39.797916412,16.311889648 39.801750183,16.309389114 39.818889618,16.32611084 " /><polygon class="region" points="40.644054413,15.698249817 40.652832031,15.700027466 40.64963913,15.719305992 40.641304016,15.711111069 40.644054413,15.698249817 " /><polygon class="region" points="40.800167084,15.632749557 40.77986145,15.642277718 40.778778076,15.62211132 40.798721313,15.630000114 40.800167084,15.632749557 " /><polygon class="region" points="40.074165344,15.195388794 40.082000732,15.20661068 40.048168182,15.197555542 40.052612305,15.191111565 40.074165344,15.195388794 " /><polygon class="region" points="37.425998688,24.430250168 37.417640686,24.437944412 37.41305542,24.447889328 37.411750793,24.430944443 37.425998688,24.430250168 " /><polygon class="region" points="40.368694305,15.896166801 40.358917236,15.885222435 40.349666595,15.881138802 40.371723175,15.882611275 40.368694305,15.896166801 " /><polygon class="region" points="40.843193054,15.491138458 40.852470398,15.49588871 40.845249176,15.512694359 40.83972168,15.500778198 40.843193054,15.491138458 " /><polygon class="region" points="39.896694183,15.482944489 39.901000977,15.494860649 39.893444061,15.501749992 39.884887695,15.489388466 39.896694183,15.482944489 " /><polygon class="region" points="40.882583618,19.312805176 40.887611389,19.305221558 40.877498627,19.34794426 40.874526978,19.340333939 40.882583618,19.312805176 " /><polygon class="region" points="42.163722992,15.029138565 42.155555725,15.037055969 42.14899826,15.022194862 42.161472321,15.017222404 42.163722992,15.029138565 " /><polygon class="region" points="38.457862854,18.110111237 38.448806763,18.116111755 38.467193604,18.093250275 38.469696045,18.1060009 38.457862854,18.110111237 " /><polygon class="region" points="37.400470734,24.417554855 37.418640137,24.410638809 37.42244339,24.400028229 37.419029236,24.419137955 37.400470734,24.417554855 " /><polygon class="region" points="39.957279205,16.143444061 39.968334198,16.134471893 39.968193054,16.154167175 39.964889526,16.153055191 39.957279205,16.143444061 " /><polygon class="region" points="36.155723572,22.753665924 36.139888763,22.744417191 36.1301651,22.730472565 36.139362335,22.728471756 36.155723572,22.753665924 " /><polygon class="region" points="41.914585114,16.619638443 41.920528412,16.618944168 41.909168243,16.638250351 41.89938736,16.630916595 41.914585114,16.619638443 " /><polygon class="region" points="36.616359711,22.312334061 36.623943329,22.316083908 36.606056213,22.337028503 36.615970612,22.304582596 36.616359711,22.312334061 " /><polygon class="region" points="40.893417358,19.271749496 40.904998779,19.276388168 40.895027161,19.28808403 40.887054443,19.284610748 40.893417358,19.271749496 " /><polygon class="region" points="40.352584839,15.808666229 40.354946136,15.806361198 40.370609283,15.811083794 40.35716629,15.822388649 40.352584839,15.808666229 " /><polygon class="region" points="40.177944183,15.905388832 40.168914795,15.902444839 40.166053772,15.898333549 40.190750122,15.908305168 40.177944183,15.905388832 " /><polygon class="region" points="41.276668549,15.261944771 41.285083771,15.250389099 41.297416687,15.253972054 41.29202652,15.259972572 41.276668549,15.261944771 " /><polygon class="region" points="39.754581451,16.300388336 39.74294281,16.301416397 39.743526459,16.292028427 39.758972168,16.290582657 39.754581451,16.300388336 " /><polygon class="region" points="42.756111145,16.384332657 42.756721497,16.373806 42.777194977,16.359111786 42.759029388,16.397888184 42.756111145,16.384332657 " /><polygon class="region" points="41.703472137,16.918306351 41.714668274,16.916000366 41.727554321,16.926805496 41.713249207,16.926111221 41.703472137,16.918306351 " /><polygon class="region" points="39.606971741,15.933638573 39.606304169,15.943750381 39.595165253,15.957055092 39.595611572,15.942166328 39.606971741,15.933638573 " /><polygon class="region" points="36.099029541,22.727306366 36.101196289,22.736499786 36.126804352,22.736888885 36.102748871,22.742389679 36.093166351,22.724222183 36.099029541,22.727306366 " /><polygon class="region" points="39.008335114,22.050693512 39.013305664,22.047555923 39.027610779,22.06108284 39.020610809,22.066972733 39.008335114,22.050693512 " /><polygon class="region" points="42.916248322,12.992028236 42.925693512,12.980166435 42.936248779,12.980916977 42.918888092,12.995666504 42.916248322,12.992028236 " /><polygon class="region" points="42.821220398,12.956360817 42.815250397,12.964027405 42.797554016,12.956250191 42.816444397,12.949777603 42.821220398,12.956360817 " /><polygon class="region" points="41.982582092,13.893221855 41.96900177,13.880277634 41.969444275,13.876583099 41.987888336,13.886027336 41.982582092,13.893221855 " /><polygon class="region" points="40.198471069,20.16305542 40.202888489,20.158500671 40.22561264,20.157943726 40.204250336,20.168388367 40.198471069,20.16305542 " /><polygon class="region" points="39.47833252,20.274360657 39.488414764,20.267583847 39.46497345,20.289833069 39.466083527,20.281110764 39.47833252,20.274360657 " /><polygon class="region" points="39.946361542,15.971055984 39.936668396,15.976805687 39.939445496,15.958000183 39.943000793,15.958666801 39.946361542,15.971055984 " /><polygon class="region" points="40.172863007,15.275028229 40.162471771,15.273694038 40.158138275,15.259944916 40.168556213,15.264277458 40.172863007,15.275028229 " /><polygon class="region" points="38.705471039,23.228639603 38.699085236,23.232666016 38.710109711,23.203556061 38.719387054,23.195028305 38.705471039,23.228639603 " /><polygon class="region" points="42.236862183,16.436500549 42.26525116,16.419527054 42.26902771,16.425443649 42.253860474,16.43627739 42.236862183,16.436500549 " /><polygon class="region" points="40.667751312,15.37230587 40.664028168,15.383360863 40.655056,15.386528015 40.657554626,15.367555618 40.667751312,15.37230587 " /><polygon class="region" points="40.787361145,14.778194427 40.809112549,14.784694672 40.808692932,14.790888786 40.800445557,14.791639328 40.787361145,14.778194427 " /><polygon class="region" points="41.085777283,15.370916367 41.073444366,15.36827755 41.075027466,15.359083176 41.085945129,15.363583565 41.085777283,15.370916367 " /><polygon class="region" points="40.563640594,15.910638809 40.555332184,15.910916328 40.558807373,15.898305893 40.568084717,15.901666641 40.563640594,15.910638809 " /><polygon class="region" points="40.316555023,15.073055267 40.333137512,15.078694344 40.338832855,15.087833405 40.326305389,15.083999634 40.316555023,15.073055267 " /><polygon class="region" points="42.959640503,12.944944382 42.963165283,12.945583344 42.976776123,12.930666924 42.974029541,12.950471878 42.959640503,12.944944382 " /><polygon class="region" points="40.082138062,15.179528236 40.089279175,15.190278053 40.088832855,15.197860718 40.074806213,15.178860664 40.082138062,15.179528236 " /><polygon class="region" points="42.885612488,12.868305206 42.877693176,12.87349987 42.87361145,12.866194725 42.888027191,12.858388901 42.885612488,12.868305206 " /><polygon class="region" points="43.199085236,11.731444359 43.209026337,11.725694656 43.206943512,11.714611053 43.213859558,11.729000092 43.199085236,11.731444359 " /><polygon class="region" points="40.789749146,14.747166634 40.785915375,14.743332863 40.809417725,14.758749962 40.804000854,14.761083603 40.789749146,14.747166634 " /><polygon class="region" points="40.270084381,15.087528229 40.261081696,15.085944176 40.254417419,15.075888634 40.272388458,15.080389023 40.270084381,15.087528229 " /><polygon class="region" points="38.875389099,22.945888519 38.871833801,22.956638336 38.853279114,22.966054916 38.866085052,22.951166153 38.875389099,22.945888519 " /><polygon class="region" points="42.187915802,13.615333557 42.196834564,13.614999771 42.201248169,13.631028175 42.198417664,13.630389214 42.187915802,13.615333557 " /><polygon class="region" points="38.228305817,23.544445038 38.222915649,23.54069519 38.238304138,23.510026932 38.228305817,23.544445038 " /><polygon class="region" points="37.961223602,23.756444931 37.971221924,23.754360199 37.947387695,23.772443771 37.946971893,23.769472122 37.961223602,23.756444931 " /><polygon class="region" points="36.547195435,22.381860733 36.538444519,22.396499634 36.529888153,22.405195236 36.544692993,22.379999161 36.559696198,22.370306015 36.547195435,22.381860733 " /><polygon class="region" points="41.98091507,16.597473145 41.988498688,16.607639313 41.96736145,16.599805832 41.970695496,16.594278336 41.98091507,16.597473145 " /><polygon class="region" points="39.936805725,15.89152813 39.932834625,15.904833794 39.923778534,15.891555786 39.936805725,15.89152813 " /><polygon class="region" points="36.82849884,22.148305893 36.841304779,22.150499344 36.828529358,22.161806107 36.824832916,22.150472641 36.82849884,22.148305893 " /><polygon class="region" points="43.452110291,11.500389099 43.451389313,11.491194725 43.464694977,11.511471748 43.45916748,11.508583069 43.452110291,11.500389099 " /><polygon class="region" points="40.734889984,19.537471771 40.740390778,19.535110474 40.733306885,19.555973053 40.729831696,19.547889709 40.734889984,19.537471771 " /><polygon class="region" points="36.626667023,22.353000641 36.618556976,22.346860886 36.633415222,22.340694427 36.63463974,22.343111038 36.626667023,22.353000641 " /><polygon class="region" points="40.879638672,14.74469471 40.893333435,14.742777824 40.898334503,14.749166489 40.887001038,14.75130558 40.879638672,14.74469471 " /><polygon class="region" points="42.679416656,15.711972237 42.673194885,15.690722466 42.674804687,15.687027931 42.684360504,15.709610939 42.679416656,15.711972237 " /><polygon class="region" points="40.069332123,15.229833603 40.081417084,15.233444214 40.082889557,15.244472504 40.067943573,15.234666824 40.069332123,15.229833603 " /><polygon class="region" points="41.914722443,17.101833344 41.914306641,17.098417282 41.932304382,17.082138062 41.931137085,17.088916779 41.914722443,17.101833344 " /><polygon class="region" points="36.084999084,22.694999695 36.074748993,22.708055496 36.061943054,22.702472687 36.063415527,22.700889587 36.084999084,22.694999695 " /><polygon class="region" points="42.97252655,12.896944046 42.964889526,12.904166222 42.962081909,12.904000282 42.966331482,12.890138626 42.97252655,12.896944046 " /><polygon class="region" points="40.092693329,16.480472565 40.080612183,16.47555542 40.083805084,16.466861725 40.091140747,16.470832825 40.092693329,16.480472565 " /><polygon class="region" points="40.170387268,16.22955513 40.166221619,16.234249115 40.157749176,16.213945389 40.159637451,16.213582993 40.170387268,16.22955513 " /><polygon class="region" points="40.07875061,15.882222176 40.085609436,15.875305176 40.082359314,15.895277977 40.07875061,15.882222176 " /><polygon class="region" points="38.9402771,22.430027008 38.94808197,22.433361053 38.947887421,22.446193695 38.938137054,22.444471359 38.9402771,22.430027008 " /><polygon class="region" points="43.197360992,11.725417137 43.184890747,11.730194092 43.180721283,11.72827816 43.194442749,11.720305443 43.197360992,11.725417137 " /><polygon class="region" points="40.7840271,15.69569397 40.775001526,15.694611549 40.77589035,15.683138847 40.779914856,15.68358326 40.7840271,15.69569397 " /><polygon class="region" points="40.172416687,15.179333687 40.164138794,15.173861504 40.163860321,15.164916992 40.172389984,15.171527863 40.172416687,15.179333687 " /><polygon class="region" points="39.319194794,16.609582901 39.328220367,16.609945297 39.328334808,16.618444443 39.315750122,16.616193771 39.319194794,16.609582901 " /><polygon class="region" points="39.8125,15.498389244 39.809165955,15.490139008 39.811248779,15.480722427 39.818389893,15.492860794 39.8125,15.498389244 " /><polygon class="region" points="42.21452713,13.621222496 42.214862823,13.60858345 42.213085175,13.598250389 42.219749451,13.604611397 42.21452713,13.621222496 " /><polygon class="region" points="37.61113739,18.737833023 37.586833954,18.736833572 37.58416748,18.734193802 37.617221832,18.732305527 37.61113739,18.737833023 " /><polygon class="region" points="40.218860626,16.319944382 40.23897171,16.338499069 40.236721039,16.341749191 40.232971191,16.339195251 40.218860626,16.319944382 " /><polygon class="region" points="42.438861847,16.361028671 42.444805145,16.362888336 42.458610535,16.36280632 42.436916351,16.364860535 42.431446075,16.357749939 42.438861847,16.361028671 " /><polygon class="region" points="42.399581909,16.889583588 42.407917023,16.884471893 42.415805817,16.891111374 42.407001495,16.895500183 42.399581909,16.889583588 " /><polygon class="region" points="40.252471924,15.925889015 40.23916626,15.92136097 40.236557007,15.917499542 40.246250153,15.916305542 40.252471924,15.925889015 " /><polygon class="region" points="42.402889252,16.096055984 42.41166687,16.096250534 42.415332794,16.108999252 42.402442932,16.102027893 42.402889252,16.096055984 " /><polygon class="region" points="40.730583191,15.427666664 40.728748322,15.438471794 40.719223022,15.428194046 40.72252655,15.425416946 40.730583191,15.427666664 " /><polygon class="region" points="38.748085022,23.140388489 38.760555267,23.141195297 38.761890411,23.144416809 38.743083954,23.147693634 38.748085022,23.140388489 " /><polygon class="region" points="41.214221954,18.417778015 41.221553802,18.413333893 41.23752594,18.420305252 41.219554901,18.424139023 41.214221954,18.417778015 " /><polygon class="region" points="41.638889313,17.020971298 41.652248383,17.020277023 41.653915405,17.026945114 41.645084381,17.028305054 41.638889313,17.020971298 " /><polygon class="region" points="39.906276703,15.705416679 39.910583496,15.716860771 39.897777557,15.715527534 39.896331787,15.705444336 39.906276703,15.705416679 " /><polygon class="region" points="39.479610443,20.766971588 39.476554871,20.768194199 39.463359833,20.762556076 39.473999023,20.758916855 39.479610443,20.766971588 " /><polygon class="region" points="42.474445343,16.262556076 42.491973877,16.255582809 42.497665405,16.257389069 42.484664917,16.264110565 42.474445343,16.262556076 " /><polygon class="region" points="42.564918518,15.70661068 42.541473389,15.707139015 42.540943146,15.702777863 42.561332703,15.703666687 42.564918518,15.70661068 " /><polygon class="region" points="41.936473846,13.87488842 41.94127655,13.881944656 41.940582275,13.884027481 41.928890228,13.869444847 41.936473846,13.87488842 " /><polygon class="region" points="39.070526123,22.262861252 39.07233429,22.258083344 39.076026917,22.281639099 39.072639465,22.277334213 39.070526123,22.262861252 " /><polygon class="region" points="42.536056519,15.568638802 42.542861938,15.563972473 42.555500031,15.571611404 42.554584503,15.574138641 42.536056519,15.568638802 " /><polygon class="region" points="38.266304016,23.823055267 38.268722534,23.809638977 38.273334503,23.811027527 38.269054413,23.828695297 38.266304016,23.823055267 " /><polygon class="region" points="37.625556946,19.157222748 37.616584778,19.158166885 37.608470917,19.153610229 37.622333527,19.150028229 37.625556946,19.157222748 " /><polygon class="region" points="42.419387817,16.985721588 42.424972534,16.987194061 42.398029327,17.004249573 42.409889221,16.992666245 42.419387817,16.985721588 " /><polygon class="region" points="42.284526825,16.376443863 42.300971985,16.376722336 42.303890228,16.380695343 42.287029266,16.381971359 42.284526825,16.376443863 " /><polygon class="region" points="36.296806335,22.760749817 36.304862976,22.754972458 36.312332153,22.745222092 36.306915283,22.758361816 36.289527893,22.765193939 36.296806335,22.760749817 " /><polygon class="region" points="40.435832977,15.780221939 40.43724823,15.777000427 40.450553894,15.784028053 40.442749023,15.78797245 40.435832977,15.780221939 " /><polygon class="region" points="37.893527985,23.847249985 37.890499115,23.838945389 37.903694153,23.829584122 37.897388458,23.843194962 37.893527985,23.847249985 " /><polygon class="region" points="35.809249878,23.831611633 35.817832947,23.834583282 35.814167023,23.843860626 35.80563736,23.834943771 35.809249878,23.831611633 " /><polygon class="region" points="40.705528259,15.574417114 40.700584412,15.578583717 40.698112488,15.563249588 40.701442719,15.563666344 40.705528259,15.574417114 " /><polygon class="region" points="39.9090271,15.808610916 39.91166687,15.821222305 39.901473999,15.819417 39.901443481,15.812083244 39.9090271,15.808610916 " /><polygon class="region" points="36.242805481,22.90463829 36.267112732,22.906639099 36.276279449,22.910888672 36.264026642,22.913194656 36.242805481,22.90463829 " /><polygon class="region" points="41.900695801,16.433027267 41.890026093,16.436500549 41.906387329,16.424999237 41.900695801,16.433027267 " /><polygon class="region" points="38.921916962,22.56247139 38.930805206,22.563528061 38.932056427,22.576860428 38.929611206,22.57591629 38.921916962,22.56247139 " /><polygon class="region" points="40.402000427,19.98116684 40.403305054,19.972665787 40.413722992,19.973443985 40.411529541,19.977333069 40.402000427,19.98116684 " /><polygon class="region" points="42.88438797,12.977527618 42.87474823,12.97536087 42.88419342,12.962471962 42.882389069,12.970194817 42.88438797,12.977527618 " /><polygon class="region" points="41.53811264,18.143278122 41.538387299,18.134166718 41.540779114,18.15602684 41.533084869,18.154193878 41.53811264,18.143278122 " /><polygon class="region" points="36.24016571,23.565584183 36.240028381,23.57213974 36.229278564,23.573638916 36.22700119,23.567832947 36.24016571,23.565584183 " /><polygon class="region" points="42.857833862,12.877222061 42.847694397,12.872083664 42.862415314,12.868888855 42.857833862,12.877222061 " /><polygon class="region" points="40.659557343,19.701166153 40.666332245,19.703971863 40.65366745,19.71333313 40.652721405,19.710111618 40.659557343,19.701166153 " /><polygon class="region" points="40.889751434,19.48919487 40.894554138,19.495889664 40.88438797,19.499305725 40.882446289,19.496055603 40.889751434,19.48919487 " /><polygon class="region" points="36.52161026,22.404361725 36.511165619,22.411222458 36.506221771,22.405166626 36.521831512,22.39663887 36.52161026,22.404361725 " /><polygon class="region" points="40.494861603,15.745471954 40.496582031,15.752361298 40.478084564,15.752916336 40.494861603,15.745471954 " /><polygon class="region" points="40.91160965,19.097583771 40.916667938,19.10058403 40.910083771,19.115499496 40.908443451,19.102388382 40.91160965,19.097583771 " /><polygon class="region" points="41.58197403,16.686639786 41.595527649,16.688472748 41.596248627,16.691249847 41.577445984,16.690999985 41.58197403,16.686639786 " /><polygon class="region" points="36.639499664,22.292583466 36.625389099,22.293582916 36.624027252,22.290082932 36.626415253,22.284860611 36.639499664,22.292583466 " /><polygon class="region" points="36.270889282,22.765333176 36.263442993,22.77441597 36.24835968,22.775999069 36.262805939,22.771749496 36.270889282,22.765333176 " /><polygon class="region" points="37.403388977,24.454694748 37.410167694,24.454805374 37.413860321,24.465084076 37.409584045,24.464221954 37.403388977,24.454694748 " /><polygon class="region" points="40.636081696,15.600805283 40.634166718,15.598278046 40.645721436,15.590194702 40.645778656,15.597305298 40.636081696,15.600805283 " /><polygon class="region" points="40.128250122,15.238055229 40.12474823,15.24588871 40.118057251,15.231222153 40.123722076,15.229833603 40.128250122,15.238055229 " /><polygon class="region" points="40.921276093,19.149583817 40.913806915,19.143333435 40.906082153,19.14261055 40.915779114,19.138750076 40.921276093,19.149583817 " /><polygon class="region" points="42.146057129,15.091805458 42.142444611,15.085416794 42.147834778,15.081889153 42.153556824,15.086416245 42.146057129,15.091805458 " /><polygon class="region" points="42.491973877,15.724527359 42.503082275,15.724139214 42.503360748,15.726888657 42.497055054,15.732500076 42.491973877,15.724527359 " /><polygon class="region" points="39.108001709,21.333694458 39.116359711,21.333110809 39.119750977,21.334999084 39.113998413,21.343416214 39.108001709,21.333694458 " /><polygon class="region" points="40.024860382,16.157749176 40.032501221,16.164722443 40.033554077,16.171112061 40.01877594,16.159305573 40.024860382,16.157749176 " /><polygon class="region" points="43.231609344,13.269721985 43.235363007,13.270083427 43.230361938,13.289860725 43.227085114,13.281416893 43.231609344,13.269721985 " /><polygon class="region" points="40.137584686,15.156555176 40.133110046,15.160694122 40.128582001,15.157055855 40.135417938,15.148528099 40.137584686,15.156555176 " /><polygon class="region" points="38.387638092,23.691389084 38.392276764,23.694250107 38.384109497,23.710443497 38.382583618,23.702054977 38.387638092,23.691389084 " /><polygon class="region" points="42.577667236,13.167750359 42.586166382,13.155444145 42.589694977,13.155860901 42.592334747,13.159972191 42.577667236,13.167750359 " /><polygon class="region" points="42.545082092,16.682388306 42.550777435,16.679361343 42.554027557,16.698860168 42.546916962,16.69169426 42.545082092,16.682388306 " /><polygon class="region" points="40.835334778,19.413833618 40.843860626,19.403888702 40.846862793,19.406723022 40.838832855,19.418111801 40.835334778,19.413833618 " /><polygon class="region" points="40.20816803,15.980694771 40.196777344,15.978888512 40.192722321,15.974333763 40.194610596,15.972027779 40.20816803,15.980694771 " /><polygon class="region" points="39.975666046,16.090917587 39.98400116,16.087944031 39.986499786,16.096694946 39.980335236,16.098693848 39.975666046,16.090917587 " /><polygon class="region" points="35.510665894,23.809972763 35.511890411,23.816804886 35.503582001,23.798944473 35.512748718,23.804861069 35.510665894,23.809972763 " /><polygon class="region" points="40.340888977,15.160139084 40.337970734,15.14683342 40.344112396,15.146333694 40.346027374,15.151389122 40.340888977,15.160139084 " /><polygon class="region" points="39.910499573,15.695305824 39.910751343,15.699417114 39.897251129,15.699250221 39.906917572,15.691194534 39.910499573,15.695305824 " /><polygon class="region" points="40.639057159,19.725889206 40.644165039,19.71855545 40.649276733,19.718584061 40.647304535,19.725471497 40.639057159,19.725889206 " /><polygon class="region" points="38.664196014,23.294000626 38.670307159,23.284778595 38.662223816,23.302000046 38.664196014,23.294000626 " /><polygon class="region" points="35.606304169,23.829666138 35.603111267,23.831361771 35.598777771,23.813611984 35.601722717,23.812610626 35.606304169,23.829666138 " /><polygon class="region" points="36.091140747,22.689638138 36.098499298,22.689861298 36.10194397,22.692556381 36.091945648,22.697471619 36.091140747,22.689638138 " /><polygon class="region" points="38.681640625,23.262556076 38.674720764,23.265832901 38.685081482,23.247804642 38.686889648,23.249526978 38.681640625,23.262556076 " /><polygon class="region" points="42.913722992,14.93599987 42.922306061,14.941638947 42.918609619,14.946971893 42.914081573,14.943805695 42.913722992,14.93599987 " /><polygon class="region" points="44.71855545,12.736000061 44.714000702,12.740777969 44.703777313,12.736916542 44.716026306,12.732972145 44.71855545,12.736000061 " /><polygon class="region" points="38.367668152,23.674612045 38.376693726,23.669445038 38.367889404,23.686611176 38.365055084,23.68350029 38.367668152,23.674612045 " /><polygon class="region" points="42.439167023,16.799388885 42.443416595,16.792722702 42.446750641,16.793167114 42.448223114,16.801416397 42.439167023,16.799388885 " /><polygon class="region" points="39.025306702,22.241167068 39.020557404,22.22016716 39.028999329,22.240804672 39.025306702,22.241167068 " /><polygon class="region" points="40.092388153,15.203110695 40.098278046,15.199861526 40.103527069,15.209722519 40.092639923,15.206999779 40.092388153,15.203110695 " /><polygon class="region" points="38.769054413,23.130722046 38.77463913,23.129499435 38.778804779,23.129554749 38.762695313,23.137695313 38.769054413,23.130722046 " /><polygon class="region" points="42.208694458,16.761499405 42.208667755,16.753915787 42.211582184,16.769527435 42.208694458,16.761499405 " /><polygon class="region" points="39.754859924,16.317832947 39.744888306,16.318666458 39.744220734,16.314971924 39.75138855,16.309778214 39.754859924,16.317832947 " /><polygon class="region" points="38.435359955,23.580360413 38.431777954,23.576084137 38.451805115,23.583555222 38.449054718,23.583944321 38.435359955,23.580360413 " /><polygon class="region" points="42.81672287,13.882444382 42.813835144,13.87650013 42.81414032,13.866389275 42.818973541,13.874833107 42.81672287,13.882444382 " /><polygon class="region" points="42.711555481,13.948694229 42.711639404,13.954444885 42.707889557,13.938416481 42.709999084,13.938611031 42.711555481,13.948694229 " /><polygon class="region" points="42.897251129,12.848138809 42.911529541,12.845417023 42.903888702,12.853111267 42.897251129,12.848138809 " /><polygon class="region" points="48.328304291,13.987083435 48.329444885,13.995333672 48.32497406,13.995083809 48.321472168,13.989333153 48.328304291,13.987083435 " /><polygon class="region" points="42.778194427,13.786472321 42.77980423,13.777694702 42.781581879,13.777000427 42.786834717,13.782666206 42.778194427,13.786472321 " /><polygon class="region" points="38.553638458,23.44572258 38.554195404,23.439805984 38.563472748,23.432361603 38.564334869,23.436582565 38.553638458,23.44572258 " /><polygon class="region" points="42.14025116,13.659777641 42.143222809,13.652638435 42.149860382,13.658055305 42.144054413,13.663888931 42.14025116,13.659777641 " /><polygon class="region" points="40.909053802,19.132083893 40.897777557,19.132055283 40.898082733,19.127361298 40.912387848,19.130556107 40.909053802,19.132083893 " /><polygon class="region" points="41.058666229,19.120666504 41.065944672,19.11700058 41.068359375,19.11838913 41.062278748,19.126888275 41.058666229,19.120666504 " /><polygon class="region" points="36.54069519,22.406665802 36.53950119,22.404249191 36.552581787,22.393888474 36.545917511,22.403833389 36.54069519,22.406665802 " /><polygon class="region" points="36.18447113,22.712165833 36.180000305,22.70911026 36.16986084,22.707834244 36.18372345,22.702693939 36.18447113,22.712165833 " /><polygon class="region" points="39.9727211,16.053194046 39.967556,16.047416687 39.973110199,16.037834167 39.974723816,16.044055939 39.9727211,16.053194046 " /><polygon class="region" points="39.149333954,16.607471466 39.153251648,16.616945267 39.148612976,16.619667053 39.146446228,16.60855484 39.149333954,16.607471466 " /><polygon class="region" points="35.721359253,22.891000748 35.725498199,22.888139725 35.714916229,22.904750824 35.721359253,22.891000748 " /><polygon class="region" points="42.268611908,16.141889572 42.268196106,16.138305664 42.280971527,16.147777557 42.273166656,16.145833969 42.268611908,16.141889572 " /><polygon class="region" points="38.749248505,23.152915955 38.755889893,23.151388168 38.747722626,23.161888123 38.747138977,23.155445099 38.749248505,23.152915955 " /><polygon class="region" points="41.566501617,18.118804932 41.571777344,18.113056183 41.574890137,18.120195389 41.569862366,18.123416901 41.566501617,18.118804932 " /><polygon class="region" points="40.459445953,15.596805573 40.463222504,15.597027779 40.464248657,15.608499527 40.461166382,15.608722687 40.459445953,15.596805573 " /><polygon class="region" points="43.139251709,12.716888428 43.141666412,12.713277817 43.148639679,12.715499878 43.148082733,12.719861031 43.139251709,12.716888428 " /><polygon class="region" points="37.143501282,21.14283371 37.150917053,21.148500443 37.13558197,21.14263916 37.143501282,21.14283371 " /><polygon class="region" points="40.766803741,19.627471924 40.772609711,19.618528366 40.768890381,19.633472443 40.766803741,19.627471924 " /><polygon class="region" points="42.741695404,13.651166916 42.738998413,13.643388748 42.741306305,13.640610695 42.746807098,13.646499634 42.741695404,13.651166916 " /><polygon class="region" points="38.759140015,22.938055038 38.765083313,22.937221527 38.77066803,22.943500519 38.762748718,22.943611145 38.759140015,22.938055038 " /><polygon class="region" points="42.586971283,15.915249825 42.587860107,15.911333084 42.5989151,15.921527863 42.597057343,15.924055099 42.586971283,15.915249825 " /><polygon class="region" points="42.797332764,13.710611343 42.800056458,13.704360962 42.802890778,13.704777718 42.799057007,13.715639114 42.797332764,13.710611343 " /><polygon class="region" points="40.756942749,14.820194244 40.762611389,14.818778038 40.762695312,14.82863903 40.758888245,14.825222015 40.756942749,14.820194244 " /><polygon class="region" points="40.548667908,19.818222046 40.556221008,19.814832687 40.551528931,19.824443817 40.548667908,19.818222046 " /><polygon class="region" points="42.61555481,15.409972191 42.62455368,15.410778046 42.622528076,15.417694092 42.617248535,15.413389206 42.61555481,15.409972191 " /><polygon class="region" points="40.621387482,15.597444534 40.613582611,15.598416328 40.610473633,15.594305992 40.618526459,15.593333244 40.621387482,15.597444534 " /><polygon class="region" points="36.868972778,22.109249115 36.866054535,22.113666534 36.880054474,22.101638794 36.868972778,22.109249115 " /><polygon class="region" points="38.674999237,23.276388168 38.682971954,23.264694214 38.673526764,23.282278061 38.674999237,23.276388168 " /><polygon class="region" points="39.744720459,20.294610977 39.748664856,20.297193527 39.744804382,20.304861069 39.742862701,20.298528671 39.744720459,20.294610977 " /><polygon class="region" points="37.92930603,23.799612045 37.925361633,23.798610687 37.935585022,23.787111282 37.936027527,23.789417267 37.92930603,23.799612045 " /><polygon class="region" points="36.244525909,22.649860382 36.240749359,22.65205574 36.23658371,22.641000748 36.24180603,22.642139435 36.244525909,22.649860382 " /><polygon class="region" points="36.26619339,22.601110458 36.260139465,22.607666016 36.258750916,22.607639313 36.265220642,22.596195221 36.26619339,22.601110458 " /><polygon class="region" points="42.778278351,12.871222496 42.771972656,12.872694016 42.782165527,12.86288929 42.778278351,12.871222496 " /><polygon class="region" points="38.35080719,23.520305634 38.353668213,23.513166428 38.360748291,23.526388168 38.354804993,23.526721954 38.35080719,23.520305634 " /><polygon class="region" points="35.729362488,22.89283371 35.732112885,22.900777817 35.72600174,22.903249741 35.725860596,22.899139404 35.729362488,22.89283371 " /><polygon class="region" points="36.114776611,22.75022316 36.11277771,22.757667542 36.106388092,22.75944519 36.111362457,22.747528076 36.114776611,22.75022316 " /><polygon class="region" points="42.56785965,13.189722061 42.570110321,13.182110786 42.57213974,13.193583488 42.56785965,13.189722061 " /><polygon class="region" points="40.240139008,15.056444168 40.244667053,15.060777664 40.243499756,15.063555717 40.233776093,15.057639122 40.240139008,15.056444168 " /><polygon class="region" points="37.608943939,19.185194016 37.600833893,19.186944962 37.598056793,19.183610916 37.609306335,19.181638718 37.608943939,19.185194016 " /><polygon class="region" points="42.340751648,16.355833054 42.331665039,16.351917267 42.330417633,16.34916687 42.345664978,16.353834152 42.340751648,16.355833054 " /><polygon class="region" points="48.466445923,13.980221748 48.459640503,13.977000237 48.460361481,13.972416878 48.466693878,13.975417137 48.466445923,13.980221748 " /><polygon class="region" points="37.684444427,18.750694275 37.67572403,18.753610611 37.685112,18.745027542 37.684444427,18.750694275 " /><polygon class="region" points="42.252334595,16.615139008 42.256362915,16.621915817 42.252861023,16.626167297 42.251083374,16.624916077 42.252334595,16.615139008 " /><polygon class="region" points="38.695999146,23.251333237 38.701248169,23.238332748 38.703056335,23.23919487 38.701999664,23.247638702 38.695999146,23.251333237 " /><polygon class="region" points="40.579582214,19.768304825 40.585861206,19.769472122 40.57491684,19.775167465 40.574695587,19.771944046 40.579582214,19.768304825 " /><polygon class="region" points="42.892944336,12.968916893 42.9010849,12.96463871 42.891139984,12.974444389 42.892944336,12.968916893 " /><polygon class="region" points="38.403915405,23.546499252 38.401779175,23.537166595 38.410720825,23.549139023 38.403915405,23.546499252 " /><polygon class="region" points="37.815582275,19.227027893 37.809249878,19.226360321 37.810359955,19.215749741 37.81294632,19.216054916 37.815582275,19.227027893 " /><polygon class="region" points="38.635612488,23.36158371 38.643665314,23.346082687 38.644001007,23.352832794 38.635612488,23.36158371 " /><polygon class="region" points="39.882637024,16.051389694 39.885055542,16.047971725 39.889915466,16.059278488 39.885917664,16.056472778 39.882637024,16.051389694 " /><polygon class="region" points="40.866443634,19.372110367 40.870944977,19.378305435 40.86541748,19.382083893 40.867443085,19.37638855 40.866443634,19.372110367 " /><polygon class="region" points="41.155860901,18.854528427 41.159500122,18.847415924 41.159721375,18.860527039 41.155860901,18.854528427 " /><polygon class="region" points="37.937194824,23.810583115 37.935028076,23.818305969 37.928001404,23.818695068 37.937194824,23.810583115 " /><polygon class="region" points="39.856140137,16.133499146 39.851833344,16.136444092 39.85055542,16.124027252 39.856140137,16.133499146 " /><polygon class="region" points="40.74458313,19.674222946 40.738803864,19.673221588 40.740943909,19.664749146 40.744083405,19.665750504 40.74458313,19.674222946 " /><polygon class="region" points="40.093112946,15.259111404 40.098110199,15.265055656 40.098361969,15.271694183 40.092887878,15.26483345 40.093112946,15.259111404 " /><polygon class="region" points="37.685276031,18.737304687 37.678222656,18.738193512 37.676109314,18.736610413 37.685974121,18.731138229 37.685276031,18.737304687 " /><polygon class="region" points="38.411972046,18.145195007 38.40883255,18.148611069 38.402862549,18.140806198 38.407470703,18.137916565 38.411972046,18.145195007 " /><polygon class="region" points="39.920028687,15.708582878 39.928585052,15.714972496 39.928806305,15.718388557 39.926445007,15.71863842 39.920028687,15.708582878 " /><polygon class="region" points="38.478527069,18.144388199 38.484359741,18.146083832 38.483112335,18.154888153 38.48116684,18.154054642 38.478527069,18.144388199 " /><polygon class="region" points="38.528305054,23.453361511 38.53125,23.441999435 38.533416748,23.450500488 38.528305054,23.453361511 " /><polygon class="region" points="36.364471436,22.573833466 36.361610413,22.575834274 36.359443665,22.565416336 36.361362457,22.566249847 36.364471436,22.573833466 " /><polygon class="region" points="41.420776367,17.790082932 41.422889709,17.788415909 41.433361053,17.791500092 41.428081512,17.794027328 41.420776367,17.790082932 " /><polygon class="region" points="38.410388947,23.518304825 38.410057068,23.510694504 38.411445618,23.509860992 38.415390015,23.520500183 38.410388947,23.518304825 " /><polygon class="region" points="38.622444153,23.247749329 38.616973877,23.24597168 38.624862671,23.238916397 38.626220703,23.240638733 38.622444153,23.247749329 " /><polygon class="region" points="36.151943207,22.729804993 36.142612457,22.725610733 36.14447403,22.721776962 36.153804779,22.726583481 36.151943207,22.729804993 " /><polygon class="region" points="37.507583618,18.747528076 37.504501343,18.740749359 37.50725174,18.738222122 37.509918213,18.739833832 37.507583618,18.747528076 " /><polygon class="region" points="38.992389679,22.037527084 38.996192932,22.028583527 38.998500824,22.027334213 38.995555878,22.040555954 38.992389679,22.037527084 " /><polygon class="region" points="40.576278687,14.962082863 40.579360962,14.961610794 40.590026855,14.967971802 40.587665558,14.968889236 40.576278687,14.962082863 " /><polygon class="region" points="40.938915253,19.04769516 40.945915222,19.047250748 40.946861267,19.047861099 40.937000275,19.053861618 40.938915253,19.04769516 " /><polygon class="region" points="36.292110443,22.908666611 36.283500671,22.909082413 36.282112122,22.907722473 36.294418335,22.904083252 36.292110443,22.908666611 " /><polygon class="region" points="38.149501801,23.993249893 38.156082153,23.991750717 38.157360077,23.99338913 38.151138306,23.998111725 38.149501801,23.993249893 " /><polygon class="region" points="38.557556152,23.430166245 38.550140381,23.435112 38.553970337,23.426721573 38.557556152,23.430166245 " /><polygon class="region" points="42.347610474,16.590610504 42.357666016,16.580499649 42.359584808,16.581417084 42.353668213,16.58855629 42.347610474,16.590610504 " /><polygon class="region" points="40.708362579,19.655195236 40.705192566,19.65766716 40.702083588,19.651556015 40.70488739,19.650527954 40.708362579,19.655195236 " /><polygon class="region" points="40.701442719,19.650194168 40.69947052,19.647193909 40.704723358,19.642749786 40.705776215,19.64422226 40.701442719,19.650194168 " /><polygon class="region" points="38.621555328,23.382083893 38.62480545,23.378334045 38.622833252,23.388027191 38.621555328,23.382083893 " /><polygon class="region" points="38.618999481,23.398111343 38.622722626,23.393527985 38.620304108,23.401500702 38.618999481,23.398111343 " /><polygon class="region" points="39.920722961,16 39.91991806,16.002666473 39.917556763,16 39.920722961,16 " /><polygon class="region" points="39.897083282,16.321638107 39.890415192,16.323638916 39.895805359,16.329416275 39.90083313,16.326944351 39.897083282,16.321638107 " />
		  </g>
		</svg>