<?xml version="1.0" encoding="UTF-8"?>
	<svg xmlns:xlink="http://www.w3.org/1999/xlink" 
	xmlns="http://www.w3.org/2000/svg" 
	width="360px" height="180px">
	   <style type="text/css">
		  <![CDATA[     
		  .region 
		  { 
			fill:blue; 
			opacity:0.4; 
			stroke:blue;
		  }
		  ]]>
	   </style>

	<circle id="dot" x="-2" y="-2" r="2" style="stroke:none; stroke-width:0; fill:black; opacity:0.7;"/>


	 <image x="0" y="0" width="360" height="180" xlink:href="map.jpg"/>

 
	 <g transform="translate(180,90) scale(1,-1)"><polygon class="region" points="25.543826972,-8.846450806 25.729733955,-8.9615024139999 25.695833333,-9.183333333 25.425,-9.1916666659999 25.275,-9.483333334 25.441308593,-9.7482903379999 24.9125,-10.020833334 25.028601752,-10.357220629 24.799432712,-10.553420003 24.9875,-11.254166667 25.354166667,-11.195833333 25.329166667,-11.504166666 25.022931926,-11.383331298 24.4375,-11.470833333 24.279166667,-11.3875 24.387853326,-11.102450901 24.145833333,-11.041666666 24.129166667,-10.654166666 23.883900621,-10.460543823 24.166197883,-9.91875 24.14226515,-9.563415528 24.444618395,-9.417233955 24.404784309,-9.1186730279999 24.729166667,-8.920833333 25.065767076,-9.0243387859999 25.222575548,-8.846186659 25.543826972,-8.846450806 " /><polygon class="region" points="28.107766046,-5.8977895099999 28.496362813,-6.1615592109999 28.710757785,-6.853813341 27.885075548,-6.628813341 27.325035943,-6.031694709 28.107766046,-5.8977895099999 " /><polygon class="region" points="26.422917345,-0.50001390199998 26.825,-0.55416666699995 27.217271593,-0.85362616599997 27.099228583,-1.074228584 26.628267076,-1.291005452 26.170833333,-1.2083333329999 26.645833333,-1.8166666669999 26.516666666,-1.9458333339999 25.808333334,-1.408333334 26.433333333,-0.775 26.422917345,-0.50001390199998 " /><polygon class="region" points="23.144091118,-4.221186659 23.599531385,-4.6770833329999 22.941666667,-5.541666667 22.858333333,-4.354166666 22.991666667,-4.170833334 23.144091118,-4.221186659 " /><polygon class="region" points="18.8375,-9.808333333 19.307433743,-10.042327881 19.332424249,-10.845209757 18.963714939,-10.717233955 18.828459676,-10.384111192 18.713415696,-10.403568183 18.850353326,-9.977453613 18.645833334,-9.829166667 18.8375,-9.808333333 " /><polygon class="region" points="25.081377157,0.58693271200002 25.616666666,0.525 25.699985419,0.30625 25.521186659,0.19409111800007 25.545833333,-0.2375 25.129960802,0.042460802000051 24.991666667,0.42083333300008 25.081377157,0.58693271200002 " /><polygon class="region" points="28.325919766,-5.1160837809999 28.542233955,-5.4220482719999 28.595214166,-5.7948428679999 28.445833333,-5.875 27.975,-5.666666666 27.954522366,-5.2767120359999 28.325919766,-5.1160837809999 " /><polygon class="region" points="28.932980007,-4.268408882 29.082873874,-5.2229285339999 28.964950901,-5.271186659 28.684037611,-5.0615804029999 28.6625,-4.7625 28.470833333,-4.7375 28.625614251,-4.4300782939999 28.932980007,-4.268408882 " /><polygon class="region" points="26.431591119,-11.287853325 26.803431532,-11.479969279 26.65,-11.7125 26.704166667,-12.008333333 26.458988784,-11.868788995 26.529166667,-11.741666667 26.3375,-11.504166666 26.431591119,-11.287853325 " /><polygon class="region" points="26.615815735,-3.509184095 26.528007847,-3.958219401 26.145833333,-3.904166666 26.054166666,-3.6916666669999 26.615815735,-3.509184095 " /><polygon class="region" points="26.204166667,-4.158333334 26.204784309,-4.437969123 26.154166667,-4.5125 26.082980008,-4.19412045 26.204166667,-4.158333334 " /><polygon class="region" points="19.78971049,3.0410993790001 20.0125,2.783333333 19.755017429,2.4241492370001 19.76339959,1.875661214 20.309332615,2.3338155110001 20.929166667,2.266666667 20.977083333,1.9541812470001 21.441666666,2.0583333340001 21.333691406,2.281623671 21.677450901,2.437853325 22.010416667,2.204635281 22.188350932,2.6616492380001 22.378315735,2.753315905 22.758333334,1.9916666670001 23.279166666,2.1125 23.520833333,1.9791666670001 23.528304375,1.7673073670001 23.270833333,1.566666667 23.778505452,1.8574337430001 23.685415989,1.162513733 24.272916667,0.96713528100003 24.9375,1.070833334 25.041666666,0.3 24.415864054,0.52426486500002 23.430145602,0.47146606500007 23.304166666,1.0083333330001 22.988098484,1.217582363 23.075,1.35 22.281260511,1.811968994 22.1625,1.6875 21.570833333,1.829166667 21.252424452,1.687853326 20.080162218,1.7535536020001 19.297575548,1.5246466740001 18.938095771,1.223990037 18.910964627,0.94943271200003 18.421188863,0.85245293500003 18.375667996,0.62164577900006 18.566666667,0.64166666700004 18.216666667,-0.0875 18.366666666,-0.22083333299997 18.420833333,-0.70833333299993 18.803372532,-0.87003919799997 18.25662045,-1.3086866589999 17.754166667,-1.0833333329999 17.68971049,-0.90056728799993 17.19680108,-1.033729383 17.045833333,-1.4541666669999 17.204166667,-1.8208333329999 16.915660604,-2.0702150129999 16.641666667,-1.8666666669999 16.724093289,-2.2831734549999 16.413350932,-2.5050175989999 16.442916362,-2.7748226589999 16.638350931,-3.0449825709999 16.804166667,-2.7416666669999 17.150913493,-3.1243923609999 17.785407172,-3.0795549179999 18.545833333,-3.470833333 19.483333334,-3.804166666 19.87085673,-3.7512617319999 20.295833333,-4.0083333329999 21.129166667,-3.779166667 21.525,-3.933333333 22.559242587,-3.738123576 22.966666667,-3.8208333329999 22.833333333,-5.3208333329999 23.039228439,-5.7086882589999 22.946720717,-5.65904168 22.919894749,-6.086616346 22.645833334,-5.9291666669999 22.166666667,-5.329166667 22.108333333,-4.904166667 21.75,-4.791666666 21.641666667,-4.3833333329999 21.341666667,-4.3166666659999 21.108333333,-4.5166666669999 20.370833333,-4.304166666 20.616666666,-5.108333334 20.549338786,-5.38660041 20.314242214,-5.449646674 20.283333333,-4.5583333339999 19.8875,-4.1625 19.713276503,-4.332613457 19.361753336,-3.9369327119999 18.831173198,-4.2993823589999 18.373862881,-3.745568847 17.372575548,-3.3586866589999 17.467252604,-3.774081082 17.692233955,-3.949149916 17.662503391,-4.244263373 17.479166666,-4.5 17.404166666,-4.108333334 17.1875,-3.9125 16.817566257,-4.3631612139999 16.767019992,-5.752424452 17.020833333,-6.475 18.175,-8.4375 18.641197882,-8.81875 18.334074402,-8.900750054 18.192392307,-9.228354899 18.716666667,-9.2583333329999 18.675,-9.670833333 18.853599378,-9.7855438239999 18.140920003,-9.983900622 17.879521518,-9.84412028 17.770266046,-9.4742533369999 17.9125,-9.045833334 17.558333333,-8.358333333 17.166666667,-8.3166666659999 17.294936456,-7.6381720649999 17.0875,-7.720833334 17.0875,-7.375 16.788415697,-7.4119015159999 16.491666666,-6.779166667 16.328599379,-6.3387149389999 16.5875,-5.8625 16.059031169,-5.761721123 16.1125,-5.229166666 16.279166667,-5.4625 16.429166667,-5.4416666669999 16.295833333,-4.325 16.42565545,-4.020587497 16.070164151,-3.8576904299999 15.76176317,-3.946450806 15.566666667,-3.779166667 15.259548272,-3.8422339539999 15.2,-3.716666667 15.386970351,-3.6605814619999 15.308691406,-3.4975429959999 15.796568468,-3.000802613 15.967207336,-3.079771593 16.175,-2.9458333329999 15.5547838,-2.3842442829999 15.99910024,-2.1742645259999 16.135416667,-1.937968784 16.315767076,-2.0160054519999 16.6375,-1.6375 16.465907457,-1.08422309 15.980066257,-1.116005452 15.72589959,-0.91316121399996 16.251214939,-1.0422339539999 16.704166667,-0.99166666699995 16.79508667,-0.80776604499994 17.045440674,-0.88225436799996 17.337146674,-0.52742445199993 17.346400621,-0.13454827199996 17.199432712,-0.007586669999966 17.258333334,0.3 17.409701199,0.35895080600005 17.600353326,0.24337972000006 17.5,-0.14166666699992 17.7125,-0.57083333399993 18.125250244,0.065791151000042 17.938409084,0.12854309000005 17.744385444,-0.40480940099997 17.700060696,-0.16822357199993 17.846732923,0.12850545300006 18.236932712,0.48945617700002 18.43404185,1.24494595 18.791666666,1.441666667 19.104166667,1.958333334 19.449197387,2.0840684680001 19.208987427,2.209314304 19.340876261,2.3009402810001 19.304166666,2.583333333 19.518408881,2.9454800080001 19.78971049,3.0410993790001 " /><polygon class="region" points="28.121178182,-3.815824042 28.333333333,-3.8916666659999 28.149382358,-4.059332954 28.1375,-4.225 28.350353326,-4.2941204489999 28.245833333,-4.45 28.553253343,-4.404774136 28.649432713,-4.6022104899999 28.472048272,-4.742233954 28.6625,-4.7625 28.817517598,-5.249149238 29.075,-5.166666666 29.179519993,-5.364953613 28.920833333,-5.5708333329999 29.247937951,-5.87502891 28.8875,-6.091666666 29.153813341,-6.873257785 28.970833334,-7.154166667 28.366666667,-5.9625 28.075,-5.858333333 27.325,-6 27.716666667,-6.525 26.958333333,-6.7583333329999 27.098982408,-7.017196316 27.507482571,-6.9716840959999 27.632665337,-7.2716457789999 27.325,-7.9583333329999 27.410411919,-8.137034946 27.691666667,-8.166666667 27.853549194,-8.46049347 27.045833333,-9.1 27.225,-9.675 27.465757582,-9.604790242 27.833333333,-9.8375 27.738144599,-10.078262838 27.920833333,-10.466666667 27.483691406,-10.560043166 27.7375,-10.8625 27.525,-10.879166667 27.545833333,-11.216666667 27.002083334,-11.632864719 26.329166667,-11.191666667 26.359040324,-10.950776503 26.929166666,-10.670833333 26.679166667,-10.479166667 26.961594306,-10.178529019 26.825,-9.8791666669999 27.045480007,-9.526742215 26.635415988,-9.454180569 26.323257785,-9.666313341 25.880381606,-9.696400621 25.5875,-9.3208333329999 25.729733955,-8.9615024139999 25.512146674,-8.7982871159999 25.969982401,-8.657482401 26.058333333,-8.3208333329999 26.245833334,-8.208333334 26.564924452,-8.1128533259999 26.634142897,-8.2451453309999 26.645833333,-8.2458333339999 26.775,-7.916666666 26.433333333,-7.733333334 26.433333333,-7.416666666 26.691666667,-7.270833334 26.704519992,-6.768408881 26.979166667,-6.4291666669999 26.750604079,-6.378163656 26.903429837,-6.0965788099999 26.570833333,-6.2541666669999 26.82819892,-6.049604119 26.908333333,-5.7125 26.729166667,-5.5125 26.054166666,-5.675 26.475,-4.8708333329999 26.183333333,-4.5083333329999 26.188350932,-4.292517599 26.6625,-4.4375 26.980908881,-4.1253533249999 27.370833333,-4.0375 27.444091119,-4.1579800079999 27.740529378,-3.895568678 27.845833333,-4.0083333329999 28.121178182,-3.815824042 " /><polygon class="region" points="28.325,-5.1125 27.954522366,-5.2767120359999 27.975,-5.666666666 28.445833333,-5.875 28.595214166,-5.7948428679999 28.542233955,-5.4220482719999 28.325,-5.1125 " /><polygon class="region" points="26.314242215,-8.603813341 26.320833334,-8.596689763 26.304166667,-8.5875 26.304166667,-8.595833334 26.314242215,-8.603813341 " /><polygon class="region" points="25.116099378,0.077210489000038 25.363637289,-0.22526465599998 25.665920003,-0.13276604599997 25.929166667,-0.29583333299996 25.746186659,-0.56007554799993 25.804166667,-0.87916666699994 26.266666667,-0.9375 25.808333334,-1.408333334 25.962379286,-2.052972752 26.488067288,-2.524253336 26.275,-2.558333333 26.067021518,-3.3107869469999 26.213637119,-3.475264485 26.404077488,-3.357652791 26.7875,-3.4583333329999 25.805017429,-3.7758507629999 25.570833333,-4.1 25.691666667,-4.5708333339999 25.416666667,-4.8791666669999 25.230381605,-4.808900621 25.057766046,-4.178229438 25.458333334,-3.979166667 25.696476237,-3.380614556 25.283333333,-3.0625 25.4875,-1.841666667 25.308900621,-1.635543824 25.35,-1.408333334 24.870847914,-0.81041666699997 25.120833333,-0.375 24.832967462,-0.21366322799997 25.116099378,0.077210489000038 " /><polygon class="region" points="25.425,-0.375 25.420833334,-0.38333333299994 25.433333334,-0.38333333299994 25.429166667,-0.375 25.425,-0.375 " /><polygon class="region" points="28.794091119,-2.2920199919999 28.954166667,-2.3291666669999 28.844829559,-2.3883018499999 28.859138489,-2.497721672 29.0375,-2.3208333339999 28.954733955,-2.493622844 28.971827189,-2.5122055059999 29.320215861,-2.5061731979999 29.566313341,-3.072575548 29.536932713,-3.542603895 29.854797024,-3.922241041 29.620833333,-4.8083333329999 29.662866593,-4.414028168 29.37055397,-3.8897218709999 29.333480835,-3.357252359 29.1541996,-3.366291046 29.103402462,-3.9335976589999 29.004166667,-3.8791666659999 28.8125,-2.554166666 28.624432712,-2.501214939 28.794091119,-2.2920199919999 " /><polygon class="region" points="29.893914795,-5.27552965 30.114456177,-5.466099379 30.327424452,-5.400353326 30.774094306,-5.583971151 30.666666667,-6.0708333329999 30.218877156,-5.733900621 29.930776068,-5.7540096509999 29.739559173,-5.429529666 29.893914795,-5.27552965 " /><polygon class="region" points="26.825353326,-1.289924452 26.841666666,-1.55 26.71028951,-1.504733954 26.559018792,-1.750630357 26.425,-1.395833334 26.1625,-1.283333333 26.775,-1.1625 26.825353326,-1.289924452 " /><polygon class="region" points="29.650353326,-4.860757786 29.646186659,-4.914213054 29.594234466,-4.9185481069999 29.60668008,-4.813096328 29.650353326,-4.860757786 " />
		  </g>
		</svg>