<?xml version="1.0" encoding="UTF-8"?>
	<svg xmlns:xlink="http://www.w3.org/1999/xlink" 
	xmlns="http://www.w3.org/2000/svg" 
	width="360px" height="180px">
	   <style type="text/css">
		  <![CDATA[     
		  .region 
		  { 
			fill:blue; 
			opacity:0.4; 
			stroke:blue;
		  }
		  ]]>
	   </style>

	<circle id="dot" x="-2" y="-2" r="2" style="stroke:none; stroke-width:0; fill:black; opacity:0.7;"/>


	 <image x="0" y="0" width="360" height="180" xlink:href="map.jpg"/>

 
	 <g transform="translate(180,90) scale(1,-1)"><polygon class="region" points="32.258993656,-28.941415091 32.27110182,-29.747858121 30.834719271,-31.728170428 29.05344072,-33.323618068 27.503305013,-34.336332079 24.95379366,-35.10614007 23.799870529,-34.917150694 21.62088306,-35.293940728 21.61597914,-35.511667288 21.86998308,-35.526803848 22.00238874,-35.350941328 22.139554538,-35.653547946 22.005182041,-35.744074288 22.239337896,-35.835668495 22.185313722,-35.959604139 22.03743096,-35.799883468 21.910572684,-36.140248228 21.812342057,-36.032354357 21.705143091,-36.153824661 21.834759175,-36.257767998 21.675839129,-36.274885266 21.728347652,-36.459096507 21.011410774,-36.46299702 21.203601972,-36.612484723 20.94569928,-36.705230008 20.94649278,-36.562674304 20.246968446,-36.382418009 20.055551832,-36.218889754 20.28236922,-36.152927008 19.882817358,-35.991635275 20.01570264,-35.941232608 19.68681276,-35.825404228 19.6858485,-35.690868268 18.689889151,-35.298919609 18.607471467,-34.072288514 18.858131408,-34.151561737 18.82176786,-34.385028928 19.137973785,-34.307884216 19.36583514,-34.506164608 19.294328689,-34.633506774 20.00533104,-34.839828491 20.526809758,-34.4714012 21.8195496,-34.381137868 22.264307023,-34.051433564 23.409641266,-34.106903077 23.651117325,-33.978469848 24.836408618,-34.214511869 24.771940304,-34.108039911 25.007934571,-33.958282471 25.627048492,-34.050819397 25.58731842,-33.84577179 25.847145101,-33.714203016 26.466182709,-33.77935791 27.105545044,-33.529754639 28.50596802,-32.610138028 29.448787688,-31.64257431 29.99856384,-31.308633809 31.446220346,-29.185434391 32.157057453,-28.752814337 32.258993656,-28.941415091 " /><polygon class="region" points="20.28847284,-36.252186388 20.39997996,-36.266672248 20.373674666,-36.205216069 20.28847284,-36.252186388 " /><polygon class="region" points="21.266588232,-36.433322395 21.253385525,-36.394548924 21.248567624,-36.373184898 21.219433995,-36.409448875 21.266588232,-36.433322395 " /><polygon class="region" points="22.368573755,-35.516154228 22.327578937,-35.62891237 22.327302795,-35.47845561 22.368573755,-35.516154228 " /><polygon class="region" points="21.706984165,-36.495217953 21.725038579,-36.547812698 21.661671271,-36.533886999 21.692781591,-36.503933105 21.706984165,-36.495217953 " /><polygon class="region" points="20.648363677,-36.591095334 20.661953247,-36.630725198 20.596917748,-36.616417803 20.648363677,-36.591095334 " />
		  </g>
		</svg>