<?xml version="1.0" encoding="UTF-8"?>
	<svg xmlns:xlink="http://www.w3.org/1999/xlink" 
	xmlns="http://www.w3.org/2000/svg" 
	width="360px" height="180px">
	   <style type="text/css">
		  <![CDATA[     
		  .region 
		  { 
			fill:blue; 
			opacity:0.4; 
			stroke:blue;
		  }
		  ]]>
	   </style>

	<circle id="dot" x="-2" y="-2" r="2" style="stroke:none; stroke-width:0; fill:black; opacity:0.7;"/>


	 <image x="0" y="0" width="360" height="180" xlink:href="map.jpg"/>

 
	 <g transform="translate(180,90) scale(1,-1)">   <use xlink:href="#dot" transform="translate(26.704833,-33.689167)" />   <use xlink:href="#dot" transform="translate(26.9007,-33.6034)" />   <use xlink:href="#dot" transform="translate(26.9007,-33.6034)" />   <use xlink:href="#dot" transform="translate(26.5464,-33.7506)" />   <use xlink:href="#dot" transform="translate(26.9007,-33.6034)" />   <use xlink:href="#dot" transform="translate(26.9007,-33.6034)" />   <use xlink:href="#dot" transform="translate(26.5464,-33.7506)" />   <use xlink:href="#dot" transform="translate(32.1098,-28.7907)" />   <use xlink:href="#dot" transform="translate(30.3475,-30.8942)" />   <use xlink:href="#dot" transform="translate(26.6741,-33.6914)" />   <use xlink:href="#dot" transform="translate(26.6249,-33.7188)" />   <use xlink:href="#dot" transform="translate(32.1098,-28.7907)" />   <use xlink:href="#dot" transform="translate(26.6249,-33.7188)" />   <use xlink:href="#dot" transform="translate(32.1098,-28.7907)" />   <use xlink:href="#dot" transform="translate(26.9007,-33.6034)" />   <use xlink:href="#dot" transform="translate(26.5464,-33.7506)" />   <use xlink:href="#dot" transform="translate(26.6741,-33.6914)" />   <use xlink:href="#dot" transform="translate(30.2264,-31.0571)" />   <use xlink:href="#dot" transform="translate(30.3475,-30.8942)" />   <use xlink:href="#dot" transform="translate(30.3733,-30.8661)" />   <use xlink:href="#dot" transform="translate(30.4921,-30.6997)" />   <use xlink:href="#dot" transform="translate(30.4921,-30.6997)" />   <use xlink:href="#dot" transform="translate(26.9007,-33.6034)" />   <use xlink:href="#dot" transform="translate(24.8969,-34.0974)" />   <use xlink:href="#dot" transform="translate(24.8431,-34.1423)" />   <use xlink:href="#dot" transform="translate(25.5764,-34.0483)" />   <use xlink:href="#dot" transform="translate(25.5764,-34.0483)" />   <use xlink:href="#dot" transform="translate(25.7036,-34.0314)" />   <use xlink:href="#dot" transform="translate(25.5764,-34.0483)" />   <use xlink:href="#dot" transform="translate(25.5764,-34.0483)" />   <use xlink:href="#dot" transform="translate(25.5764,-34.0483)" />   <use xlink:href="#dot" transform="translate(26.5464,-33.7506)" />   <use xlink:href="#dot" transform="translate(26.5878,-33.7266)" />   <use xlink:href="#dot" transform="translate(24.8969,-34.0974)" />   <use xlink:href="#dot" transform="translate(24.8969,-34.0974)" />   <use xlink:href="#dot" transform="translate(30.2264,-31.0571)" />   <use xlink:href="#dot" transform="translate(30.2264,-31.0571)" />   <use xlink:href="#dot" transform="translate(30.2264,-31.0571)" />   <use xlink:href="#dot" transform="translate(25.5764,-34.0483)" />   <use xlink:href="#dot" transform="translate(25.8531,-33.7213)" />   <use xlink:href="#dot" transform="translate(30.2264,-31.0571)" />   <use xlink:href="#dot" transform="translate(24.8431,-34.1423)" />   <use xlink:href="#dot" transform="translate(25.8531,-33.7213)" />   <use xlink:href="#dot" transform="translate(30.2264,-31.0571)" />   <use xlink:href="#dot" transform="translate(26.5464,-33.7506)" />   <use xlink:href="#dot" transform="translate(25.8531,-33.7213)" />   <use xlink:href="#dot" transform="translate(24.8969,-34.0974)" />   <use xlink:href="#dot" transform="translate(30.2264,-31.0571)" />   <use xlink:href="#dot" transform="translate(30.2264,-31.0571)" />   <use xlink:href="#dot" transform="translate(30.2264,-31.0571)" />   <use xlink:href="#dot" transform="translate(24.8969,-34.0974)" />   <use xlink:href="#dot" transform="translate(25.8531,-33.7213)" />   <use xlink:href="#dot" transform="translate(30.2264,-31.0571)" />   <use xlink:href="#dot" transform="translate(30.2264,-31.0571)" />   <use xlink:href="#dot" transform="translate(26.8295,-33.6318)" />   <use xlink:href="#dot" transform="translate(25.8531,-33.7213)" />   <use xlink:href="#dot" transform="translate(24.8431,-34.1423)" />   <use xlink:href="#dot" transform="translate(30.2264,-31.0571)" />   <use xlink:href="#dot" transform="translate(18.4669,-34.35)" />   <use xlink:href="#dot" transform="translate(18.4669,-34.35)" />   <use xlink:href="#dot" transform="translate(30.2264,-31.0571)" />   <use xlink:href="#dot" transform="translate(25.5764,-34.0483)" />   <use xlink:href="#dot" transform="translate(18.4669,-34.35)" />   <use xlink:href="#dot" transform="translate(26.3262,-33.7679)" />   <use xlink:href="#dot" transform="translate(18.4669,-34.35)" />   <use xlink:href="#dot" transform="translate(25.5764,-34.0483)" />   <use xlink:href="#dot" transform="translate(25.7698,-33.7991)" />   <use xlink:href="#dot" transform="translate(26.9007,-33.6034)" />   <use xlink:href="#dot" transform="translate(26.9007,-33.6034)" />   <use xlink:href="#dot" transform="translate(26.9007,-33.6034)" />   <use xlink:href="#dot" transform="translate(24.8969,-34.0974)" />   <use xlink:href="#dot" transform="translate(26.6741,-33.6914)" />   <use xlink:href="#dot" transform="translate(26.5464,-33.7506)" />   <use xlink:href="#dot" transform="translate(26.9007,-33.6034)" />   <use xlink:href="#dot" transform="translate(26.9007,-33.6034)" />   <use xlink:href="#dot" transform="translate(24.8431,-34.1423)" />   <use xlink:href="#dot" transform="translate(24.8969,-34.0974)" />   <use xlink:href="#dot" transform="translate(26.9007,-33.6034)" />   <use xlink:href="#dot" transform="translate(30.4129,-30.8067)" />   <use xlink:href="#dot" transform="translate(30.4591,-30.7426)" />   <use xlink:href="#dot" transform="translate(26.9007,-33.6034)" />   <use xlink:href="#dot" transform="translate(30.4591,-30.7426)" />   <use xlink:href="#dot" transform="translate(25.8531,-33.7213)" />   <use xlink:href="#dot" transform="translate(25.8531,-33.7213)" />   <use xlink:href="#dot" transform="translate(26.9007,-33.6034)" />   <use xlink:href="#dot" transform="translate(30.5187,-30.6625)" />   <use xlink:href="#dot" transform="translate(30.5187,-30.6625)" />   <use xlink:href="#dot" transform="translate(30.5187,-30.6625)" />   <use xlink:href="#dot" transform="translate(25.8531,-33.7213)" />   <use xlink:href="#dot" transform="translate(30.5187,-30.6625)" />   <use xlink:href="#dot" transform="translate(24.8969,-34.0974)" />   <use xlink:href="#dot" transform="translate(25.7698,-33.7991)" />   <use xlink:href="#dot" transform="translate(26.9007,-33.6034)" />   <use xlink:href="#dot" transform="translate(30.5187,-30.6625)" />   <use xlink:href="#dot" transform="translate(30.5187,-30.6625)" />   <use xlink:href="#dot" transform="translate(30.4591,-30.7426)" />   <use xlink:href="#dot" transform="translate(26.9007,-33.6034)" />   <use xlink:href="#dot" transform="translate(30.5187,-30.6625)" />   <use xlink:href="#dot" transform="translate(30.5187,-30.6625)" />   <use xlink:href="#dot" transform="translate(30.5187,-30.6625)" />   <use xlink:href="#dot" transform="translate(26.9007,-33.6034)" />   <use xlink:href="#dot" transform="translate(25.8531,-33.7213)" />   <use xlink:href="#dot" transform="translate(26.9007,-33.6034)" />   <use xlink:href="#dot" transform="translate(30.5187,-30.6625)" />   <use xlink:href="#dot" transform="translate(30.5187,-30.6625)" />   <use xlink:href="#dot" transform="translate(28.1165,-32.8338)" />   <use xlink:href="#dot" transform="translate(30.5187,-30.6625)" />   <use xlink:href="#dot" transform="translate(26.9007,-33.6034)" />   <use xlink:href="#dot" transform="translate(30.4129,-30.8067)" />   <use xlink:href="#dot" transform="translate(30.4591,-30.7426)" />   <use xlink:href="#dot" transform="translate(30.5187,-30.6625)" />   <use xlink:href="#dot" transform="translate(25.8531,-33.7213)" />   <use xlink:href="#dot" transform="translate(26.9007,-33.6034)" />   <use xlink:href="#dot" transform="translate(30.5187,-30.6625)" />   <use xlink:href="#dot" transform="translate(30.5187,-30.6625)" />   <use xlink:href="#dot" transform="translate(24.8969,-34.0974)" />   <use xlink:href="#dot" transform="translate(30.5187,-30.6625)" />   <use xlink:href="#dot" transform="translate(30.5187,-30.6625)" />   <use xlink:href="#dot" transform="translate(30.5187,-30.6625)" />   <use xlink:href="#dot" transform="translate(30.5187,-30.6625)" />   <use xlink:href="#dot" transform="translate(26.876,-33.6215)" />   <use xlink:href="#dot" transform="translate(30.5187,-30.6625)" />   <use xlink:href="#dot" transform="translate(30.5187,-30.6625)" />   <use xlink:href="#dot" transform="translate(30.5187,-30.6625)" />   <use xlink:href="#dot" transform="translate(25.8531,-33.7213)" />   <use xlink:href="#dot" transform="translate(30.5187,-30.6625)" />   <use xlink:href="#dot" transform="translate(25.8531,-33.7213)" />   <use xlink:href="#dot" transform="translate(30.5187,-30.6625)" />   <use xlink:href="#dot" transform="translate(25.8531,-33.7213)" />   <use xlink:href="#dot" transform="translate(25.8531,-33.7213)" />   <use xlink:href="#dot" transform="translate(26.8295,-33.6318)" />   <use xlink:href="#dot" transform="translate(26.876,-33.6215)" />   <use xlink:href="#dot" transform="translate(26.5464,-33.7506)" />   <use xlink:href="#dot" transform="translate(26.876,-33.6215)" />   <use xlink:href="#dot" transform="translate(25.8531,-33.7213)" />   <use xlink:href="#dot" transform="translate(25.8531,-33.7213)" />   <use xlink:href="#dot" transform="translate(26.876,-33.6215)" />   <use xlink:href="#dot" transform="translate(28.1165,-32.8338)" />   <use xlink:href="#dot" transform="translate(28.1165,-32.8338)" />   <use xlink:href="#dot" transform="translate(26.3262,-33.7679)" />   <use xlink:href="#dot" transform="translate(26.876,-33.6215)" />   <use xlink:href="#dot" transform="translate(24.8969,-34.0974)" />   <use xlink:href="#dot" transform="translate(26.9007,-33.6034)" />   <use xlink:href="#dot" transform="translate(24.8969,-34.0974)" />   <use xlink:href="#dot" transform="translate(25.8531,-33.7213)" />   <use xlink:href="#dot" transform="translate(30.759,-30.2788)" />   <use xlink:href="#dot" transform="translate(25.8531,-33.7213)" />   <use xlink:href="#dot" transform="translate(30.8318,-30.153)" />   <use xlink:href="#dot" transform="translate(25.8531,-33.7213)" />   <use xlink:href="#dot" transform="translate(26.9007,-33.6034)" />   <use xlink:href="#dot" transform="translate(30.6777,-30.4137)" />   <use xlink:href="#dot" transform="translate(25.8531,-33.7213)" />   <use xlink:href="#dot" transform="translate(30.7464,-30.3061)" />   <use xlink:href="#dot" transform="translate(26.9007,-33.6034)" />   <use xlink:href="#dot" transform="translate(26.9007,-33.6034)" />   <use xlink:href="#dot" transform="translate(26.9007,-33.6034)" />   <use xlink:href="#dot" transform="translate(25.8531,-33.7213)" />   <use xlink:href="#dot" transform="translate(26.9007,-33.6034)" />   <use xlink:href="#dot" transform="translate(26.876,-33.6215)" />   <use xlink:href="#dot" transform="translate(26.876,-33.6215)" />   <use xlink:href="#dot" transform="translate(25.8531,-33.7213)" />   <use xlink:href="#dot" transform="translate(26.9007,-33.6034)" />   <use xlink:href="#dot" transform="translate(25.7698,-33.7991)" />   <use xlink:href="#dot" transform="translate(26.876,-33.6215)" />   <use xlink:href="#dot" transform="translate(25.8531,-33.7213)" />   <use xlink:href="#dot" transform="translate(25.7698,-33.7991)" />   <use xlink:href="#dot" transform="translate(25.7036,-34.0314)" />   <use xlink:href="#dot" transform="translate(26.9007,-33.6034)" />   <use xlink:href="#dot" transform="translate(26.876,-33.6215)" />   <use xlink:href="#dot" transform="translate(25.8531,-33.7213)" />   <use xlink:href="#dot" transform="translate(21.4254,-34.3852)" />   <use xlink:href="#dot" transform="translate(26.3262,-33.7679)" />   <use xlink:href="#dot" transform="translate(26.3262,-33.7679)" />   <use xlink:href="#dot" transform="translate(26.9007,-33.6034)" />   <use xlink:href="#dot" transform="translate(26.9007,-33.6034)" />   <use xlink:href="#dot" transform="translate(28.1165,-32.8338)" />   <use xlink:href="#dot" transform="translate(26.5464,-33.7506)" />   <use xlink:href="#dot" transform="translate(27.1124,-33.5244)" />   <use xlink:href="#dot" transform="translate(26.9007,-33.6034)" />   <use xlink:href="#dot" transform="translate(26.935,-33.5828)" />   <use xlink:href="#dot" transform="translate(26.9007,-33.6034)" />   <use xlink:href="#dot" transform="translate(28.1165,-32.8338)" />   <use xlink:href="#dot" transform="translate(26.6741,-33.6914)" />   <use xlink:href="#dot" transform="translate(26.6741,-33.6914)" />   <use xlink:href="#dot" transform="translate(25.8531,-33.7213)" />   <use xlink:href="#dot" transform="translate(26.6741,-33.6914)" />   <use xlink:href="#dot" transform="translate(26.6741,-33.6914)" />   <use xlink:href="#dot" transform="translate(26.6741,-33.6914)" />   <use xlink:href="#dot" transform="translate(24.8431,-34.1423)" />   <use xlink:href="#dot" transform="translate(26.3262,-33.7679)" />   <use xlink:href="#dot" transform="translate(26.9007,-33.6034)" />   <use xlink:href="#dot" transform="translate(26.876,-33.6215)" />   <use xlink:href="#dot" transform="translate(24.8431,-34.1423)" />   <use xlink:href="#dot" transform="translate(26.876,-33.6215)" />   <use xlink:href="#dot" transform="translate(26.6741,-33.6914)" />   <use xlink:href="#dot" transform="translate(26.9007,-33.6034)" />   <use xlink:href="#dot" transform="translate(28.1165,-32.8338)" />   <use xlink:href="#dot" transform="translate(27.483,-33.2969)" />   <use xlink:href="#dot" transform="translate(26.9007,-33.6034)" />   <use xlink:href="#dot" transform="translate(26.8295,-33.6318)" />   <use xlink:href="#dot" transform="translate(26.9007,-33.6034)" />   <use xlink:href="#dot" transform="translate(24.8685,-34.1965)" />   <use xlink:href="#dot" transform="translate(26.7602,-33.6483)" />   <use xlink:href="#dot" transform="translate(27.9195,-33.0284)" />   <use xlink:href="#dot" transform="translate(24.8685,-34.1965)" />   <use xlink:href="#dot" transform="translate(25.5764,-34.0483)" />   <use xlink:href="#dot" transform="translate(26.3262,-33.7679)" />   <use xlink:href="#dot" transform="translate(25.5764,-34.0483)" />   <use xlink:href="#dot" transform="translate(26.6741,-33.6914)" />   <use xlink:href="#dot" transform="translate(24.8685,-34.1965)" />   <use xlink:href="#dot" transform="translate(26.6741,-33.6914)" />   <use xlink:href="#dot" transform="translate(27.9195,-33.0284)" />   <use xlink:href="#dot" transform="translate(26.7602,-33.6483)" />   <use xlink:href="#dot" transform="translate(26.876,-33.6215)" />   <use xlink:href="#dot" transform="translate(26.3262,-33.7679)" />   <use xlink:href="#dot" transform="translate(27.9195,-33.0284)" />   <use xlink:href="#dot" transform="translate(26.7602,-33.6483)" />   <use xlink:href="#dot" transform="translate(26.6741,-33.6914)" />   <use xlink:href="#dot" transform="translate(26.6741,-33.6914)" />   <use xlink:href="#dot" transform="translate(25.5764,-34.0483)" />   <use xlink:href="#dot" transform="translate(28.6581,-32.4786)" />   <use xlink:href="#dot" transform="translate(28.3653,-32.7072)" />   <use xlink:href="#dot" transform="translate(25.5764,-34.0483)" />   <use xlink:href="#dot" transform="translate(27.9195,-33.0284)" />   <use xlink:href="#dot" transform="translate(26.6741,-33.6914)" />   <use xlink:href="#dot" transform="translate(25.7698,-33.7991)" />   <use xlink:href="#dot" transform="translate(27.0099,-33.5692)" />   <use xlink:href="#dot" transform="translate(27.0099,-33.5692)" />   <use xlink:href="#dot" transform="translate(27.9195,-33.0284)" />   <use xlink:href="#dot" transform="translate(26.6741,-33.6914)" />   <use xlink:href="#dot" transform="translate(26.9007,-33.6034)" />   <use xlink:href="#dot" transform="translate(26.8295,-33.6318)" />   <use xlink:href="#dot" transform="translate(28.6581,-32.4786)" />   <use xlink:href="#dot" transform="translate(26.935,-33.5828)" />   <use xlink:href="#dot" transform="translate(26.3262,-33.7679)" />   <use xlink:href="#dot" transform="translate(26.3262,-33.7679)" />   <use xlink:href="#dot" transform="translate(26.7934,-33.6417)" />   <use xlink:href="#dot" transform="translate(24.8685,-34.1965)" />   <use xlink:href="#dot" transform="translate(26.8295,-33.6318)" />   <use xlink:href="#dot" transform="translate(26.876,-33.6215)" />   <use xlink:href="#dot" transform="translate(26.9007,-33.6034)" />   <use xlink:href="#dot" transform="translate(26.3262,-33.7679)" />   <use xlink:href="#dot" transform="translate(26.6741,-33.6914)" />   <use xlink:href="#dot" transform="translate(24.8685,-34.1965)" />   <use xlink:href="#dot" transform="translate(26.8295,-33.6318)" />   <use xlink:href="#dot" transform="translate(27.9195,-33.0284)" />   <use xlink:href="#dot" transform="translate(27.9195,-33.0284)" />   <use xlink:href="#dot" transform="translate(26.6741,-33.6914)" />   <use xlink:href="#dot" transform="translate(25.8531,-33.7213)" />   <use xlink:href="#dot" transform="translate(24.8969,-34.0974)" />   <use xlink:href="#dot" transform="translate(25.8531,-33.7213)" />   <use xlink:href="#dot" transform="translate(24.8969,-34.0974)" />   <use xlink:href="#dot" transform="translate(25.8531,-33.7213)" />   <use xlink:href="#dot" transform="translate(25.8531,-33.7213)" />   <use xlink:href="#dot" transform="translate(27.0099,-33.5692)" />   <use xlink:href="#dot" transform="translate(26.7368,-33.6552)" />   <use xlink:href="#dot" transform="translate(24.8431,-34.1423)" />   <use xlink:href="#dot" transform="translate(26.8295,-33.6318)" />   <use xlink:href="#dot" transform="translate(25.8531,-33.7213)" />   <use xlink:href="#dot" transform="translate(25.8531,-33.7213)" />   <use xlink:href="#dot" transform="translate(25.8531,-33.7213)" />   <use xlink:href="#dot" transform="translate(25.8531,-33.7213)" />   <use xlink:href="#dot" transform="translate(26.935,-33.5828)" />   <use xlink:href="#dot" transform="translate(25.8531,-33.7213)" />   <use xlink:href="#dot" transform="translate(26.7602,-33.6483)" />   <use xlink:href="#dot" transform="translate(28.1165,-32.8338)" />   <use xlink:href="#dot" transform="translate(26.8295,-33.6318)" />   <use xlink:href="#dot" transform="translate(28.1165,-32.8338)" />   <use xlink:href="#dot" transform="translate(30.2264,-31.0571)" />   <use xlink:href="#dot" transform="translate(30.825,-30.25)" />   <use xlink:href="#dot" transform="translate(25.5764,-34.0483)" />   <use xlink:href="#dot" transform="translate(25.5764,-34.0483)" />   <use xlink:href="#dot" transform="translate(25.2212,-33.9705)" />   <use xlink:href="#dot" transform="translate(25.5764,-34.0483)" />   <use xlink:href="#dot" transform="translate(25.5764,-34.0483)" />   <use xlink:href="#dot" transform="translate(26.9007,-33.6034)" />   <use xlink:href="#dot" transform="translate(30.5365,-30.6405)" />   <use xlink:href="#dot" transform="translate(26.9007,-33.6034)" />   <use xlink:href="#dot" transform="translate(30.2264,-31.0571)" />   <use xlink:href="#dot" transform="translate(25.8531,-33.7213)" />   <use xlink:href="#dot" transform="translate(26.9007,-33.6034)" />   <use xlink:href="#dot" transform="translate(26.9007,-33.6034)" />   <use xlink:href="#dot" transform="translate(26.9007,-33.6034)" />   <use xlink:href="#dot" transform="translate(26.9007,-33.6034)" />   <use xlink:href="#dot" transform="translate(26.3262,-33.7679)" />   <use xlink:href="#dot" transform="translate(25.8531,-33.7213)" />   <use xlink:href="#dot" transform="translate(25.8531,-33.7213)" />   <use xlink:href="#dot" transform="translate(26.3262,-33.7679)" />   <use xlink:href="#dot" transform="translate(26.9007,-33.6034)" />   <use xlink:href="#dot" transform="translate(26.3262,-33.7679)" />   <use xlink:href="#dot" transform="translate(26.3262,-33.7679)" />   <use xlink:href="#dot" transform="translate(25.8531,-33.7213)" />   <use xlink:href="#dot" transform="translate(26.3262,-33.7679)" />   <use xlink:href="#dot" transform="translate(26.5464,-33.7506)" />   <use xlink:href="#dot" transform="translate(26.9007,-33.6034)" />   <use xlink:href="#dot" transform="translate(26.5464,-33.7506)" />   <use xlink:href="#dot" transform="translate(26.9007,-33.6034)" />   <use xlink:href="#dot" transform="translate(26.9007,-33.6034)" />   <use xlink:href="#dot" transform="translate(26.6249,-33.7188)" />   <use xlink:href="#dot" transform="translate(26.9007,-33.6034)" /><polygon class="region" points="21.4254,-34.3852 18.4669,-34.35 32.1098,-28.7907 30.2264,-31.0571 28.6581,-32.4786 28.3653,-32.7072 27.9195,-33.0284 27.483,-33.2969 27.1124,-33.5244 27.0099,-33.5692 26.704833,-33.689167 26.5464,-33.7506 25.7036,-34.0314 24.8685,-34.1965 21.4254,-34.3852 " />
		  </g>
		</svg>