<?xml version="1.0" encoding="UTF-8"?>
	<svg xmlns:xlink="http://www.w3.org/1999/xlink" 
	xmlns="http://www.w3.org/2000/svg" 
	width="360px" height="180px">
	   <style type="text/css">
		  <![CDATA[     
		  .region 
		  { 
			fill:blue; 
			opacity:0.4; 
			stroke:blue;
		  }
		  ]]>
	   </style>

	<circle id="dot" x="-2" y="-2" r="2" style="stroke:none; stroke-width:0; fill:black; opacity:0.7;"/>


	 <image x="0" y="0" width="360" height="180" xlink:href="map.jpg"/>

 
	 <g transform="translate(180,90) scale(1,-1)"><polygon class="region" points="18.230908881,0.046186659000057 19.107864719,0.11875 18.954166667,-0.625 18.25662045,-1.3086866589999 17.328916422,-0.81579115099993 17.595833333,-0.6625 17.584548272,-0.29943271199994 17.7125,-0.57083333399993 18.103812324,-0.010786437999968 18.200807699,0.30330471500002 18.283566793,0.36175096300002 18.230908881,0.046186659000057 " /><polygon class="region" points="23.675357734,1.1725448610001 24.4625,0.97916666700007 24.494674513,0.52928059900006 23.430145602,0.47146606500007 23.274432712,0.95098809100006 23.675357734,1.1725448610001 " /><polygon class="region" points="23.545152792,2.706263902 23.694286347,2.701158046 24.179166666,2.220833333 23.042634413,2.396229383 23.129166667,2.658333333 23.545152792,2.706263902 " /><polygon class="region" points="16.48697052,-1.872751702 16.629166667,-1.85 16.73400133,-2.2248316449999 16.4125,-2.5083333329999 16.217233955,-2.0894561769999 16.48697052,-1.872751702 " /><polygon class="region" points="20.825353325,-0.23575778499998 20.894618395,-0.33806728799993 20.726535373,-0.32973395499994 20.709548272,-0.12026604599993 20.825353325,-0.23575778499998 " /><polygon class="region" points="23.3625,3.1625 23.770437453,3.124032254 24.0375,2.5708333330001 24.425353325,2.2933797200001 24.183333333,2.2291666670001 23.846745131,2.421447415 23.632981013,2.64206862 23.687093734,2.6776447300001 23.694286347,2.701158046 23.678637695,2.709001329 23.129166667,2.658333333 23.025353326,2.426742215 23.562038167,1.8479078500001 23.270833333,1.566666667 23.812485419,1.78125 23.568826972,1.054784139 23.229166667,1.025 22.656591118,1.6954800080001 21.570833333,1.829166667 21.252424452,1.687853326 20.164953782,1.7670199930001 19.670364041,1.650617642 19.005086263,1.2909623890001 18.910964627,0.94943271200003 18.421188863,0.85245293500003 18.404166666,0.60416666700007 19.234470621,0.57473551500004 19.761753336,0.72556728800004 20.217566257,0.52982788100007 20.553262838,0.56602206800005 20.787853326,0.22671305300003 20.736697387,-0.70343153199997 20.070833333,-0.27083333299993 19.9,-0.2875 19.835786946,-0.50451999199993 19.604166667,-0.3375 19.022575548,-0.34964667399993 19.089592149,0.14537150000007 18.204166667,0.0625 18.43404185,1.24494595 19.607766046,2.3227895100001 19.458333333,2.454166667 19.530908881,2.9538133410001 19.870833333,3.0375 20.0125,2.7875 19.755017429,2.4241492370001 19.775,1.875 20.309332615,2.3338155110001 20.929166667,2.266666667 20.977083333,1.9541812470001 21.441666666,2.0583333340001 21.333691406,2.281623671 21.677450901,2.437853325 22.010416667,2.204635281 22.188350932,2.6616492380001 22.884548272,3.0755672880001 23.3625,3.1625 " /><polygon class="region" points="16.720480007,-2.3274244519999 16.641666667,-1.8708333339999 16.442046271,-1.827083333 16.636285061,-1.6422339539999 16.6,-1.2416666669999 16.465907457,-1.08422309 15.980066257,-1.116005452 15.72589959,-0.91316121399996 16.251214939,-1.0422339539999 16.704166667,-0.99166666699995 16.79508667,-0.80776604499994 17.045440674,-0.88225436799996 17.337146674,-0.52742445199993 17.258333334,0.3 17.495833333,0.34166666600004 17.595833333,-0.6625 17.338161214,-0.76339958999995 17.075744968,-1.288530137 17.204519993,-1.602453613 17.09099867,-2.170020887 16.720480007,-2.3274244519999 " />
		  </g>
		</svg>