<?xml version="1.0" encoding="UTF-8"?>
	<svg xmlns:xlink="http://www.w3.org/1999/xlink" 
	xmlns="http://www.w3.org/2000/svg" 
	width="360px" height="180px">
	   <style type="text/css">
		  <![CDATA[     
		  .region 
		  { 
			fill:blue; 
			opacity:0.4; 
			stroke:blue;
		  }
		  ]]>
	   </style>

	<circle id="dot" x="-2" y="-2" r="2" style="stroke:none; stroke-width:0; fill:black; opacity:0.7;"/>


	 <image x="0" y="0" width="360" height="180" xlink:href="map.jpg"/>

 
	 <g transform="translate(180,90) scale(1,-1)"><polygon class="region" points="19.378599379,-7.36028951 19.608509996,-8.1740207239999 19.4375,-9.0208333329999 19.6875,-9.5041666669999 19.571295166,-9.577074517 19.553599379,-10.23258667 19.666005452,-10.611600409 19.31155938,-11.02552965 19.375567288,-10.299149916 19.170833333,-9.970833334 19.433597819,-9.513637289 19.241099379,-8.8512149379999 19.378599379,-7.36028951 " /><polygon class="region" points="17.495833333,-3.3333333329999 18.05,-3.5541666669999 17.971186659,-3.8440911189999 18.170833334,-4.1416666669999 17.642517429,-4.182482401 17.692233955,-3.949149916 17.3625,-3.5666666669999 17.495833333,-3.3333333329999 " /><polygon class="region" points="20.825353325,-0.23575778499998 20.894618395,-0.33806728799993 20.726535373,-0.32973395499994 20.709548272,-0.12026604599993 20.825353325,-0.23575778499998 " /><polygon class="region" points="18.230908881,0.046186659000057 20.451214939,0.17140062200002 20.6875,0.10416666700007 20.778599379,-0.33945617699993 20.709470452,-0.70859798899994 20.070833333,-0.27083333299993 19.9,-0.2875 19.835786946,-0.50451999199993 19.604166667,-0.3375 19.004166667,-0.3375 18.803372532,-0.87003919799997 18.25662045,-1.3086866589999 17.754166667,-1.0833333329999 17.68971049,-0.90056728799993 17.37278951,-0.90890062099993 17.071436225,-1.306254747 17.204166667,-1.8208333329999 16.915660604,-2.0702150129999 16.641666667,-1.8666666669999 16.724093289,-2.2831734549999 16.4125,-2.5083333329999 16.638350931,-3.0449825709999 16.804166667,-2.7416666669999 17.150913493,-3.1243923609999 17.785407172,-3.0795549179999 18.545833333,-3.470833333 19.483333334,-3.804166666 19.87085673,-3.7512617319999 20.295480007,-4.0017422139999 20.300354682,-5.435784912 20.504168701,-5.5020985919999 20.213234118,-6.155047607 20.2,-6.7708333329999 19.904166667,-6.7125 19.949646674,-6.460075548 19.775,-6.2416666669999 19.504976061,-6.3215213349999 19.683699205,-7.1113369409999 19.445565117,-7.117466905 19.141666667,-7.533333333 19.225,-7.029166666 18.957624987,-7.2991126169999 18.875,-7.2125 19.233900621,-6.065920003 19.157980008,-5.535075548 18.967022366,-5.405880398 19.155303956,-5.224735514 19.257766045,-5.314456177 19.529166667,-6.0791666659999 19.878279283,-5.782624987 20.046186659,-5.069117567 19.8875,-4.1625 19.713276503,-4.332613457 19.361753336,-3.9369327119999 18.831173198,-4.2993823589999 18.373862881,-3.745568847 17.438550483,-3.32019043 17.259007093,-3.396729872 17.145833333,-3.7666666669999 16.571759711,-3.750926378 16.441666667,-4.075 16.08130171,-3.858976237 15.929166667,-3.9916666669999 15.5875,-3.783333333 15.199432712,-3.7759880909999 15.796568468,-3.000802613 15.967207336,-3.079771593 16.175,-2.9458333329999 15.5547838,-2.3842442829999 15.99910024,-2.1742645259999 16.135416667,-1.937968784 16.315767076,-2.0160054519999 16.6375,-1.6375 16.465907457,-1.08422309 15.980066257,-1.116005452 15.72589959,-0.91316121399996 16.251214939,-1.0422339539999 16.704166667,-0.99166666699995 16.79508667,-0.80776604499994 17.045440674,-0.88225436799996 17.337146674,-0.52742445199993 17.346400621,-0.13454827199996 17.195833333,-0.070833333999929 17.354635959,0.34228413900007 17.595480007,0.25659111800007 17.5,-0.14166666699992 17.703167386,-0.57548200799994 18.103812324,-0.010786437999968 18.200807699,0.30330471500002 18.283566793,0.36175096300002 18.230908881,0.046186659000057 " />
		  </g>
		</svg>