<?xml version="1.0" encoding="UTF-8"?>
	<svg xmlns:xlink="http://www.w3.org/1999/xlink" 
	xmlns="http://www.w3.org/2000/svg" 
	width="360px" height="180px">
	   <style type="text/css">
		  <![CDATA[     
		  .region 
		  { 
			fill:blue; 
			opacity:0.4; 
			stroke:blue;
		  }
		  ]]>
	   </style>

	<circle id="dot" x="-2" y="-2" r="2" style="stroke:none; stroke-width:0; fill:black; opacity:0.7;"/>


	 <image x="0" y="0" width="360" height="180" xlink:href="map.jpg"/>

 
	 <g transform="translate(180,90) scale(1,-1)">   <use xlink:href="#dot" transform="translate(-84.9676,47.9029)" />   <use xlink:href="#dot" transform="translate(-88.3202,46.8902)" />   <use xlink:href="#dot" transform="translate(-84.9721,47.9019)" />   <use xlink:href="#dot" transform="translate(-83.9817,45.905)" />   <use xlink:href="#dot" transform="translate(-84.005,45.6033)" />   <use xlink:href="#dot" transform="translate(-82.92,44.3233)" />   <use xlink:href="#dot" transform="translate(-83.9783,45.6183)" />   <use xlink:href="#dot" transform="translate(-84.445,45.8633)" />   <use xlink:href="#dot" transform="translate(-84.0117,45.5883)" />   <use xlink:href="#dot" transform="translate(-86.6,43.9333)" />   <use xlink:href="#dot" transform="translate(-86.6333,43.9333)" />   <use xlink:href="#dot" transform="translate(-86.4167,42.6833)" />   <use xlink:href="#dot" transform="translate(-86.6333,43.9333)" />   <use xlink:href="#dot" transform="translate(-86.6,42.1833)" />   <use xlink:href="#dot" transform="translate(-86.3333,42.6833)" />   <use xlink:href="#dot" transform="translate(-86.6167,43.9167)" />   <use xlink:href="#dot" transform="translate(-86.3167,42.6833)" />   <use xlink:href="#dot" transform="translate(-86.2833,42.6833)" />   <use xlink:href="#dot" transform="translate(-86.3333,42.6833)" />   <use xlink:href="#dot" transform="translate(-86.3167,42.7)" />   <use xlink:href="#dot" transform="translate(-86.3333,42.6833)" />   <use xlink:href="#dot" transform="translate(-86.35,42.6833)" />   <use xlink:href="#dot" transform="translate(-86.25,42.7)" />   <use xlink:href="#dot" transform="translate(-86.4167,42.6833)" />   <use xlink:href="#dot" transform="translate(-86.3667,42.6833)" />   <use xlink:href="#dot" transform="translate(-86.5,42.7)" />   <use xlink:href="#dot" transform="translate(-86.3667,42.7167)" />   <use xlink:href="#dot" transform="translate(-86.5833,42.6833)" />   <use xlink:href="#dot" transform="translate(-86.4167,42.7)" />   <use xlink:href="#dot" transform="translate(-86.3167,42.7)" />   <use xlink:href="#dot" transform="translate(-86.6,42.6833)" />   <use xlink:href="#dot" transform="translate(-86.35,42.6833)" />   <use xlink:href="#dot" transform="translate(-86.2167,42.7)" />   <use xlink:href="#dot" transform="translate(-86.3667,42.6833)" />   <use xlink:href="#dot" transform="translate(-86.5833,42.6833)" />   <use xlink:href="#dot" transform="translate(-86.4167,42.6833)" />   <use xlink:href="#dot" transform="translate(-86.4167,42.6833)" />   <use xlink:href="#dot" transform="translate(-86.3,42.6833)" />   <use xlink:href="#dot" transform="translate(-86.5,42.6833)" />   <use xlink:href="#dot" transform="translate(-86.4167,42.6833)" />   <use xlink:href="#dot" transform="translate(-86.3167,42.6833)" />   <use xlink:href="#dot" transform="translate(-86.4167,42.6833)" />   <use xlink:href="#dot" transform="translate(-86.3167,42.75)" />   <use xlink:href="#dot" transform="translate(-86.3667,42.6833)" />   <use xlink:href="#dot" transform="translate(-86.35,42.7167)" />   <use xlink:href="#dot" transform="translate(-86.3,42.6833)" />   <use xlink:href="#dot" transform="translate(-86.3333,42.6833)" />   <use xlink:href="#dot" transform="translate(-86.3,42.6833)" />   <use xlink:href="#dot" transform="translate(-86.3,42.6833)" />   <use xlink:href="#dot" transform="translate(-86.25,42.6833)" />   <use xlink:href="#dot" transform="translate(-86.3333,42.7)" />   <use xlink:href="#dot" transform="translate(-86.4,42.7167)" />   <use xlink:href="#dot" transform="translate(-86.35,42.7167)" />   <use xlink:href="#dot" transform="translate(-86.3167,42.7)" />   <use xlink:href="#dot" transform="translate(-86.4,42.7)" />   <use xlink:href="#dot" transform="translate(-86.2667,42.7)" />   <use xlink:href="#dot" transform="translate(-86.2833,42.7)" />   <use xlink:href="#dot" transform="translate(-86.3,42.6833)" />   <use xlink:href="#dot" transform="translate(-86.3167,42.6833)" />   <use xlink:href="#dot" transform="translate(-86.3,42.75)" />   <use xlink:href="#dot" transform="translate(-86.35,42.7167)" />   <use xlink:href="#dot" transform="translate(-85.0333,45.4)" />   <use xlink:href="#dot" transform="translate(-86.3333,44.4833)" />   <use xlink:href="#dot" transform="translate(-86.0667,45.8167)" />   <use xlink:href="#dot" transform="translate(-86.3333,44.45)" />   <use xlink:href="#dot" transform="translate(-85.0667,45.4)" />   <use xlink:href="#dot" transform="translate(-85.0167,45.4)" />   <use xlink:href="#dot" transform="translate(-85.0667,45.4)" />   <use xlink:href="#dot" transform="translate(-86.3667,44.4833)" />   <use xlink:href="#dot" transform="translate(-87.25,44.7)" />   <use xlink:href="#dot" transform="translate(-86.0667,45.75)" />   <use xlink:href="#dot" transform="translate(-86.35,44.4667)" />   <use xlink:href="#dot" transform="translate(-86.3333,44.4833)" />   <use xlink:href="#dot" transform="translate(-86.0833,45.8167)" />   <use xlink:href="#dot" transform="translate(-86.0333,45.7833)" />   <use xlink:href="#dot" transform="translate(-86.3333,42.9833)" />   <use xlink:href="#dot" transform="translate(-86.3333,42.9833)" />   <use xlink:href="#dot" transform="translate(-86.3333,43)" />   <use xlink:href="#dot" transform="translate(-86.3833,43.0167)" />   <use xlink:href="#dot" transform="translate(-86.6333,42.15)" />   <use xlink:href="#dot" transform="translate(-86.35,43.05)" />   <use xlink:href="#dot" transform="translate(-86.65,42.2)" />   <use xlink:href="#dot" transform="translate(-86.55,43.0167)" />   <use xlink:href="#dot" transform="translate(-86.7,42.2)" />   <use xlink:href="#dot" transform="translate(-86.6833,42.2333)" />   <use xlink:href="#dot" transform="translate(-86.7667,43.15)" />   <use xlink:href="#dot" transform="translate(-86.3333,43.0333)" />   <use xlink:href="#dot" transform="translate(-86.35,43.04)" />   <use xlink:href="#dot" transform="translate(-86.55,43.0167)" />   <use xlink:href="#dot" transform="translate(-87.7833,43.1333)" />   <use xlink:href="#dot" transform="translate(-86.2833,42.9667)" />   <use xlink:href="#dot" transform="translate(-86.4,43.05)" />   <use xlink:href="#dot" transform="translate(-81.883,44.483)" />   <use xlink:href="#dot" transform="translate(-86.45,43.05)" />   <use xlink:href="#dot" transform="translate(-87.6,42.8833)" />   <use xlink:href="#dot" transform="translate(-86.35,43.0667)" />   <use xlink:href="#dot" transform="translate(-86.4833,42.9833)" />   <use xlink:href="#dot" transform="translate(-86.3333,43)" />   <use xlink:href="#dot" transform="translate(-86.3167,43)" />   <use xlink:href="#dot" transform="translate(-86.3667,42.9667)" />   <use xlink:href="#dot" transform="translate(-86.3833,42.9667)" />   <use xlink:href="#dot" transform="translate(-86.45,43.05)" />   <use xlink:href="#dot" transform="translate(-86.4333,42.9667)" />   <use xlink:href="#dot" transform="translate(-86.7,42.2333)" />   <use xlink:href="#dot" transform="translate(-86.6833,42.25)" />   <use xlink:href="#dot" transform="translate(-86.6833,42.2833)" />   <use xlink:href="#dot" transform="translate(-86.55,43.0167)" />   <use xlink:href="#dot" transform="translate(-86.6167,42.2167)" />   <use xlink:href="#dot" transform="translate(-86.55,43.0167)" />   <use xlink:href="#dot" transform="translate(-81.883333,44.483333)" /><polygon class="region" points="-87.7833,43.1333 -88.3202,46.8902 -84.9721,47.9019 -84.9676,47.9029 -81.883,44.483 -86.6333,42.15 -86.7,42.2 -87.6,42.8833 -87.7833,43.1333 " />
		  </g>
		</svg>