<?xml version="1.0" encoding="UTF-8"?>
	<svg xmlns:xlink="http://www.w3.org/1999/xlink" 
	xmlns="http://www.w3.org/2000/svg" 
	width="360px" height="180px">
	   <style type="text/css">
		  <![CDATA[     
		  .region 
		  { 
			fill:blue; 
			opacity:0.4; 
			stroke:blue;
		  }
		  ]]>
	   </style>

	<circle id="dot" x="-2" y="-2" r="2" style="stroke:none; stroke-width:0; fill:black; opacity:0.7;"/>


	 <image x="0" y="0" width="360" height="180" xlink:href="map.jpg"/>

 
	 <g transform="translate(180,90) scale(1,-1)"><polygon class="region" points="-85.381103515,46.100273132 -84.763621203,45.803708801 -85.106109619,45.59249115 -84.919998169,45.401931763 -85.38583374,45.267768859 -85.528335571,44.771659851 -85.494995117,44.997215271 -85.655838013,44.85610199 -85.556106567,45.21749115 -86.265014649,44.700546265 -86.546386719,43.641662598 -86.233810425,43.24401474 -86.341666667,42.216666666 -86.61028951,41.863067288 -87.397781372,41.637214661 -87.817504883,42.240829468 -87.765014648,42.786384583 -87.909729004,43.233879089 -87.325836181,44.794998169 -87.593612671,44.851104737 -87.937774658,44.539161682 -87.989440918,44.716934204 -86.995833334,45.925 -86.973892212,45.684158325 -86.55027771,45.890548706 -86.713897705,45.684715271 -86.62361145,45.604995727 -86.279724121,45.939987183 -85.381103515,46.100273132 " /><polygon class="region" points="-75.807381456,44.491330091 -75.862074652,44.354763726 -76.369767795,44.104656033 -76.281174045,43.961193983 -76.27486952,44.051708374 -76.196252713,44.080750665 -76.199121908,43.968284709 -76.070157877,44.013658515 -76.013752712,44.001458062 -76.295408257,43.859508463 -76.225953505,43.535448134 -76.925388183,43.215886231 -78.101572265,43.376458062 -79.371371053,43.160330675 -79.890162108,43.282940403 -79.096085001,43.824214139 -77.603440755,44.037575073 -77.152102051,43.838925239 -76.859557834,43.933405491 -77.049580621,43.918680285 -76.844199219,44.111747437 -76.993202582,44.039228515 -77.110570204,44.042515394 -77.136529134,44.008931953 -77.065697157,44.173035685 -77.606811252,44.063250055 -76.950589735,44.244491848 -77.021111111,44.050177748 -75.807381456,44.491330091 " /><polygon class="region" points="-82.664418538,43.828637186 -82.583302697,43.529321864 -82.720833333,43.491666666 -82.925,43.754166667 -82.664418538,43.828637186 " /><polygon class="region" points="-84.843622844,46.411932712 -84.579733955,46.27721049 -84.538142904,46.143698459 -84.596137033,46.038554868 -84.622545031,46.228808933 -84.93212382,46.250149875 -84.843622844,46.411932712 " /><polygon class="region" points="-83.309432983,45.117492676 -83.317230224,45.072219848 -83.277089945,45.03389011 -83.375,45.116666667 -83.309432983,45.117492676 " /><polygon class="region" points="-83.384203084,45.192314826 -83.4375,45.2125 -83.41230121,45.29647716 -83.385559082,45.276382446 -83.384203084,45.192314826 " /><polygon class="region" points="-84.162563243,46.542943134 -84.049728393,46.32610321 -81.541381836,46.090545655 -81.670272827,45.946380615 -80.805557251,45.94582367 -80.400283814,45.606658935 -80.349990844,45.382766724 -80.059432984,45.382766724 -80.129440308,45.237495422 -79.988601685,45.148330688 -80.099990845,45.123321533 -79.659729004,44.751663208 -80.103881836,44.819992065 -79.987503052,44.682769775 -80.08972168,44.468048096 -80.649993897,44.726097107 -80.942214966,44.595268249 -80.892776489,44.791107178 -81.132766724,44.758049011 -80.948608398,44.963607788 -81.150283813,44.911376953 -81.283615112,45.249160767 -81.695266724,45.264717102 -81.349731445,44.973045349 -81.264175415,44.634994507 -81.744995117,44.083877563 -81.715835571,43.403045655 -82.175552368,43.071662903 -82.552951728,43.028599379 -82.720833333,43.491666666 -82.583302697,43.529321864 -82.630279541,43.790550232 -82.933333334,43.745833333 -82.929369269,44.066855606 -83.396957397,43.92137909 -83.671936035,43.601661682 -83.946380615,43.729988098 -83.853607178,43.991661072 -83.333328247,44.335548401 -83.303878784,44.824165344 -83.46055603,45.006103515 -83.267227173,45.037498474 -83.388900757,45.281105042 -84.763621203,45.803708801 -84.766049195,45.981965468 -85.104166667,46.179166667 -84.891666666,46.35 -84.914634874,46.238142904 -84.604166667,46.208333333 -84.653689837,46.05450724 -83.90361023,45.969711304 -84.261947632,46.20804596 -84.387559965,46.522171636 -84.162563243,46.542943134 " />
		  </g>
		</svg>