<?xml version="1.0" encoding="UTF-8"?>
	<svg xmlns:xlink="http://www.w3.org/1999/xlink" 
	xmlns="http://www.w3.org/2000/svg" 
	width="360px" height="180px">
	   <style type="text/css">
		  <![CDATA[     
		  .region 
		  { 
			fill:blue; 
			opacity:0.4; 
			stroke:blue;
		  }
		  ]]>
	   </style>

	<circle id="dot" x="-2" y="-2" r="2" style="stroke:none; stroke-width:0; fill:black; opacity:0.7;"/>


	 <image x="0" y="0" width="360" height="180" xlink:href="map.jpg"/>

 
	 <g transform="translate(180,90) scale(1,-1)">   <use xlink:href="#dot" transform="translate(55.523014,-4.736741)" />   <use xlink:href="#dot" transform="translate(34.037286,26.555422)" />   <use xlink:href="#dot" transform="translate(120.95,13.51186)" />   <use xlink:href="#dot" transform="translate(33.896599,26.985723)" />   <use xlink:href="#dot" transform="translate(33.896599,26.985723)" />   <use xlink:href="#dot" transform="translate(73.471,1.84819)" />   <use xlink:href="#dot" transform="translate(35.090527,24.709469)" />   <use xlink:href="#dot" transform="translate(35.090527,24.709469)" />   <use xlink:href="#dot" transform="translate(42.0585,16.5641)" />   <use xlink:href="#dot" transform="translate(35.090527,24.709469)" />   <use xlink:href="#dot" transform="translate(159.142672,-9.014513)" />   <use xlink:href="#dot" transform="translate(-153.925,-16.8254)" />   <use xlink:href="#dot" transform="translate(-153.925,-16.8254)" />   <use xlink:href="#dot" transform="translate(-153.925,-16.8254)" />   <use xlink:href="#dot" transform="translate(-151.76,-16.535)" />   <use xlink:href="#dot" transform="translate(-149.892695,-17.486458)" />   <use xlink:href="#dot" transform="translate(-151.768815,-16.529104)" />   <use xlink:href="#dot" transform="translate(-151.764405,-16.530791)" />   <use xlink:href="#dot" transform="translate(125.230188,1.464447)" />   <use xlink:href="#dot" transform="translate(-147.67,-23.85)" />   <use xlink:href="#dot" transform="translate(33.6792,27.385)" />   <use xlink:href="#dot" transform="translate(-86.4,16.3833)" />   <use xlink:href="#dot" transform="translate(124.105511,11.347094)" />   <use xlink:href="#dot" transform="translate(81.084702,8.860526)" />   <use xlink:href="#dot" transform="translate(179.261512,-18.08369)" />   <use xlink:href="#dot" transform="translate(178.965323,-17.447268)" />   <use xlink:href="#dot" transform="translate(43.335833,11.958783)" />   <use xlink:href="#dot" transform="translate(42.648433,11.556567)" />   <use xlink:href="#dot" transform="translate(34.638117,28.184617)" />   <use xlink:href="#dot" transform="translate(39.755,-4.01999)" />   <use xlink:href="#dot" transform="translate(118.695,4.21972)" />   <use xlink:href="#dot" transform="translate(145.997,-16.4268)" />   <use xlink:href="#dot" transform="translate(145.995188,-16.45488)" />   <use xlink:href="#dot" transform="translate(125.138,1.67807)" />   <use xlink:href="#dot" transform="translate(121.956661,-0.422853)" />   <use xlink:href="#dot" transform="translate(131.773667,2.929117)" />   <use xlink:href="#dot" transform="translate(130.167,31.4167)" />   <use xlink:href="#dot" transform="translate(-149.834,-17.6063)" />   <use xlink:href="#dot" transform="translate(-149.834,-17.6063)" />   <use xlink:href="#dot" transform="translate(-149.891,-17.4897)" />   <use xlink:href="#dot" transform="translate(134.54753,7.60717)" />   <use xlink:href="#dot" transform="translate(134.48625,7.32356)" />   <use xlink:href="#dot" transform="translate(-149.834,-17.6063)" />   <use xlink:href="#dot" transform="translate(134.38392,7.23769)" />   <use xlink:href="#dot" transform="translate(134.69025,8.09197)" />   <use xlink:href="#dot" transform="translate(-138.886,-21.7819)" />   <use xlink:href="#dot" transform="translate(-138.995,-21.8614)" />   <use xlink:href="#dot" transform="translate(55.397,-4.6611)" />   <use xlink:href="#dot" transform="translate(55.371,-4.6403)" />   <use xlink:href="#dot" transform="translate(55.377201,-4.6378)" />   <use xlink:href="#dot" transform="translate(55.406833,-4.674667)" />   <use xlink:href="#dot" transform="translate(55.375198,-4.6366)" />   <use xlink:href="#dot" transform="translate(145.7345,15.2455)" />   <use xlink:href="#dot" transform="translate(145.7345,15.2455)" />   <use xlink:href="#dot" transform="translate(145.734497,15.2455)" />   <use xlink:href="#dot" transform="translate(145.743833,15.242)" />   <use xlink:href="#dot" transform="translate(179.1188,-16.237083)" />   <use xlink:href="#dot" transform="translate(63.494167,-19.683056)" />   <use xlink:href="#dot" transform="translate(63.398333,-19.659444)" />   <use xlink:href="#dot" transform="translate(63.342778,-19.828889)" />   <use xlink:href="#dot" transform="translate(-176.203,-13.3389)" />   <use xlink:href="#dot" transform="translate(-176.179,-13.3681)" />   <use xlink:href="#dot" transform="translate(166.076,-10.22)" />   <use xlink:href="#dot" transform="translate(166.308,-10.27)" />   <use xlink:href="#dot" transform="translate(166.275,-10.275)" />   <use xlink:href="#dot" transform="translate(169.006,-18.8275)" />   <use xlink:href="#dot" transform="translate(57.533333,-20.049999)" />   <use xlink:href="#dot" transform="translate(57.391667,-20.208333)" />   <use xlink:href="#dot" transform="translate(57.391666,-20.208334)" />   <use xlink:href="#dot" transform="translate(35,29.516667)" />   <use xlink:href="#dot" transform="translate(-175.343,-21.1342)" />   <use xlink:href="#dot" transform="translate(98.374444,7.608611)" />   <use xlink:href="#dot" transform="translate(98.368056,7.586111)" />   <use xlink:href="#dot" transform="translate(98.479167,7.761111)" />   <use xlink:href="#dot" transform="translate(-174.383,-19.28)" />   <use xlink:href="#dot" transform="translate(98.395833,7.786111)" />   <use xlink:href="#dot" transform="translate(-174.971,-21.3375)" />   <use xlink:href="#dot" transform="translate(166.358333,-22.204167)" />   <use xlink:href="#dot" transform="translate(43.266666,-11.383333)" />   <use xlink:href="#dot" transform="translate(34.9775,29.456)" />   <use xlink:href="#dot" transform="translate(-149.85166,-17.49333)" />   <use xlink:href="#dot" transform="translate(-149.832222,-17.473056)" />   <use xlink:href="#dot" transform="translate(73.5,4.167)" />   <use xlink:href="#dot" transform="translate(44.0575,-12.671944)" />   <use xlink:href="#dot" transform="translate(123.15,9.55)" />   <use xlink:href="#dot" transform="translate(43.266667,-11.666667)" />   <use xlink:href="#dot" transform="translate(177.083,-12.5)" />   <use xlink:href="#dot" transform="translate(177.083,-12.5)" />   <use xlink:href="#dot" transform="translate(177.083,-12.5)" />   <use xlink:href="#dot" transform="translate(132.533,33.217)" />   <use xlink:href="#dot" transform="translate(34.333333,27.75)" />   <use xlink:href="#dot" transform="translate(121.767,-14.067)" />   <use xlink:href="#dot" transform="translate(178.507778,-18.775)" />   <use xlink:href="#dot" transform="translate(178.485,-18.738333)" />   <use xlink:href="#dot" transform="translate(178.5225,-18.755278)" />   <use xlink:href="#dot" transform="translate(178.389167,-18.144167)" />   <use xlink:href="#dot" transform="translate(119.333,-17.333)" />   <use xlink:href="#dot" transform="translate(178,-18)" />   <use xlink:href="#dot" transform="translate(177.07,-17.75)" />   <use xlink:href="#dot" transform="translate(-149.867,-17.483)" />   <use xlink:href="#dot" transform="translate(59.430556,22.65)" />   <use xlink:href="#dot" transform="translate(-159.75,-21.25)" />   <use xlink:href="#dot" transform="translate(-149.85678,-17.50105)" />   <use xlink:href="#dot" transform="translate(158.199,7.0083)" />   <use xlink:href="#dot" transform="translate(158.17,7.0056)" />   <use xlink:href="#dot" transform="translate(71.781111,-5.4225)" />   <use xlink:href="#dot" transform="translate(144.6,-13.933)" />   <use xlink:href="#dot" transform="translate(144.016,-11.6)" />   <use xlink:href="#dot" transform="translate(144.016,-11.6)" />   <use xlink:href="#dot" transform="translate(144.016667,-11.6)" />   <use xlink:href="#dot" transform="translate(144.6,-13.933333)" />   <use xlink:href="#dot" transform="translate(144.6,-13.933)" />   <use xlink:href="#dot" transform="translate(71,-5)" />   <use xlink:href="#dot" transform="translate(71.758333,-5.384167)" />   <use xlink:href="#dot" transform="translate(71,-5)" />   <use xlink:href="#dot" transform="translate(71.366111,-6.175278)" />   <use xlink:href="#dot" transform="translate(71.77,-5.411111)" />   <use xlink:href="#dot" transform="translate(71.758333,-5.429167)" />   <use xlink:href="#dot" transform="translate(71,-5)" />   <use xlink:href="#dot" transform="translate(71,-5)" />   <use xlink:href="#dot" transform="translate(72,-5)" />   <use xlink:href="#dot" transform="translate(71,-5)" />   <use xlink:href="#dot" transform="translate(71,-5)" />   <use xlink:href="#dot" transform="translate(35,29.516667)" />   <use xlink:href="#dot" transform="translate(144.37,-1.23)" />   <use xlink:href="#dot" transform="translate(144.988,-1.5083)" />   <use xlink:href="#dot" transform="translate(34.966667,29.75)" />   <use xlink:href="#dot" transform="translate(58.5783,23.625)" />   <use xlink:href="#dot" transform="translate(59.6,-16.7)" />   <use xlink:href="#dot" transform="translate(59.6,-16.4)" />   <use xlink:href="#dot" transform="translate(59.5,-16.6)" />   <use xlink:href="#dot" transform="translate(59.6,-16.42)" />   <use xlink:href="#dot" transform="translate(59.62,-16.47)" />   <use xlink:href="#dot" transform="translate(59.58,-16.47)" />   <use xlink:href="#dot" transform="translate(59.57,-16.75)" />   <use xlink:href="#dot" transform="translate(-149,-17)" />   <use xlink:href="#dot" transform="translate(43.248641,-11.696886)" />   <use xlink:href="#dot" transform="translate(145.616,-14.583)" />   <use xlink:href="#dot" transform="translate(145.6,-14.583)" />   <use xlink:href="#dot" transform="translate(162.352162,11.545123)" />   <use xlink:href="#dot" transform="translate(40.599445,-12.489166)" />   <use xlink:href="#dot" transform="translate(57.616665,-20.466667)" />   <use xlink:href="#dot" transform="translate(172.933,1.8)" />   <use xlink:href="#dot" transform="translate(172.933,1.8)" />   <use xlink:href="#dot" transform="translate(172.883,1.966)" />   <use xlink:href="#dot" transform="translate(162.25,11.5)" />   <use xlink:href="#dot" transform="translate(39.566667,-4.25)" />   <use xlink:href="#dot" transform="translate(162.348097,11.553899)" />   <use xlink:href="#dot" transform="translate(57.783333,-20.233334)" />   <use xlink:href="#dot" transform="translate(57.766666,-20.266666)" />   <use xlink:href="#dot" transform="translate(59.616665,-16.450001)" />   <use xlink:href="#dot" transform="translate(59.616665,-16.450001)" />   <use xlink:href="#dot" transform="translate(57.299999,-20.466667)" />   <use xlink:href="#dot" transform="translate(39.25,-6.666667)" />   <use xlink:href="#dot" transform="translate(162.348097,11.553899)" />   <use xlink:href="#dot" transform="translate(162.348097,11.553899)" />   <use xlink:href="#dot" transform="translate(34.95,29.55)" />   <use xlink:href="#dot" transform="translate(39.9,15.5083)" />   <use xlink:href="#dot" transform="translate(39.4417,16.13)" />   <use xlink:href="#dot" transform="translate(162.354167,11.361111)" />   <use xlink:href="#dot" transform="translate(162.094722,11.458333)" />   <use xlink:href="#dot" transform="translate(72.3769,-7.2617)" />   <use xlink:href="#dot" transform="translate(46.4383,-9.3633)" />   <use xlink:href="#dot" transform="translate(46.2067,-9.3917)" />   <use xlink:href="#dot" transform="translate(33.8986,27.2428)" />   <use xlink:href="#dot" transform="translate(33.8144,27.2897)" />   <use xlink:href="#dot" transform="translate(33.8986,27.2428)" />   <use xlink:href="#dot" transform="translate(34.2667,26.1333)" />   <use xlink:href="#dot" transform="translate(166.83,-11.7)" />   <use xlink:href="#dot" transform="translate(34.283333,26.1)" />   <use xlink:href="#dot" transform="translate(48.3817,-13.4361)" />   <use xlink:href="#dot" transform="translate(73.5167,4.1833)" />   <use xlink:href="#dot" transform="translate(46,-9)" />   <use xlink:href="#dot" transform="translate(53,-5)" />   <use xlink:href="#dot" transform="translate(146.633,-19.016)" />   <use xlink:href="#dot" transform="translate(45.2914,-12.8167)" />   <use xlink:href="#dot" transform="translate(41.9,16.8)" />   <use xlink:href="#dot" transform="translate(53.3286,-5.4139)" />   <use xlink:href="#dot" transform="translate(46.2481,-9.3806)" />   <use xlink:href="#dot" transform="translate(37.233333,19.616667)" />   <use xlink:href="#dot" transform="translate(173,1.5)" />   <use xlink:href="#dot" transform="translate(173,1.5)" />   <use xlink:href="#dot" transform="translate(144.662222,13.241111)" />   <use xlink:href="#dot" transform="translate(144.7625,13.481389)" />   <use xlink:href="#dot" transform="translate(138.169444,9.646667)" />   <use xlink:href="#dot" transform="translate(138.193056,9.594444)" />   <use xlink:href="#dot" transform="translate(138.15,9.608056)" />   <use xlink:href="#dot" transform="translate(93.5,8)" />   <use xlink:href="#dot" transform="translate(73.514866,4.197081)" />   <use xlink:href="#dot" transform="translate(145.734167,15.106667)" />   <use xlink:href="#dot" transform="translate(138.072222,9.523611)" />   <use xlink:href="#dot" transform="translate(145.791944,15.1725)" />   <use xlink:href="#dot" transform="translate(40.766666,-14.216666)" />   <use xlink:href="#dot" transform="translate(139.666667,9.918056)" />   <use xlink:href="#dot" transform="translate(40.766666,-14.216666)" />   <use xlink:href="#dot" transform="translate(40.766666,-14.216666)" />   <use xlink:href="#dot" transform="translate(134.696389,8.07)" />   <use xlink:href="#dot" transform="translate(140.4,8.116667)" />   <use xlink:href="#dot" transform="translate(154.767778,1.026667)" />   <use xlink:href="#dot" transform="translate(46.333332,-9.433333)" />   <use xlink:href="#dot" transform="translate(144.444722,7.244444)" />   <use xlink:href="#dot" transform="translate(55.450001,-4.616667)" />   <use xlink:href="#dot" transform="translate(40.116665,-3.2)" />   <use xlink:href="#dot" transform="translate(40.116665,-3.2)" />   <use xlink:href="#dot" transform="translate(39.666668,-4.083333)" />   <use xlink:href="#dot" transform="translate(122.266667,7)" />   <use xlink:href="#dot" transform="translate(119.238333,10.933333)" />   <use xlink:href="#dot" transform="translate(-170.75,-14.366)" />   <use xlink:href="#dot" transform="translate(167.166,-15.5)" />   <use xlink:href="#dot" transform="translate(39.467,15.617)" />   <use xlink:href="#dot" transform="translate(40.766666,-14.216666)" />   <use xlink:href="#dot" transform="translate(80.283333,13.083333)" />   <use xlink:href="#dot" transform="translate(96.83333,-12.2)" />   <use xlink:href="#dot" transform="translate(130.76667,-0.05)" />   <use xlink:href="#dot" transform="translate(-171.676654,-2.816047)" />   <use xlink:href="#dot" transform="translate(38.633333,18.7)" />   <use xlink:href="#dot" transform="translate(37.233333,19.65)" />   <use xlink:href="#dot" transform="translate(-149.9,-17.533)" />   <use xlink:href="#dot" transform="translate(-149.576804,-17.527488)" />   <use xlink:href="#dot" transform="translate(37.233333,19.65)" />   <use xlink:href="#dot" transform="translate(37.233333,19.65)" />   <use xlink:href="#dot" transform="translate(39.13333,21.46667)" />   <use xlink:href="#dot" transform="translate(33.933333,26.733333)" />   <use xlink:href="#dot" transform="translate(-171.769801,-13.825273)" />   <use xlink:href="#dot" transform="translate(119.35,-17.36667)" />   <use xlink:href="#dot" transform="translate(-171.73,-13.83)" />   <use xlink:href="#dot" transform="translate(-174.686667,-4.663333)" />   <use xlink:href="#dot" transform="translate(33.833333,27.233333)" />   <use xlink:href="#dot" transform="translate(-152.5,-20)" />   <use xlink:href="#dot" transform="translate(-140,-8.933)" />   <use xlink:href="#dot" transform="translate(162.087941,11.45468)" /><polygon class="region" points="-175.343,-21.1342 -176.203,-13.3389 -174.686667,-4.663333 -171.676654,-2.816047 -86.4,16.3833 34.966667,29.75 132.533,33.217 162.348097,11.553899 172.883,1.966 179.1188,-16.237083 179.261512,-18.08369 178.507778,-18.775 166.358333,-22.204167 -147.67,-23.85 -174.971,-21.3375 -175.343,-21.1342 " />
		  </g>
		</svg>