<?xml version="1.0" encoding="UTF-8"?>
	<svg xmlns:xlink="http://www.w3.org/1999/xlink" 
	xmlns="http://www.w3.org/2000/svg" 
	width="360px" height="180px">
	   <style type="text/css">
		  <![CDATA[     
		  .region 
		  { 
			fill:blue; 
			opacity:0.4; 
			stroke:blue;
		  }
		  ]]>
	   </style>

	<circle id="dot" x="-2" y="-2" r="2" style="stroke:none; stroke-width:0; fill:black; opacity:0.7;"/>


	 <image x="0" y="0" width="360" height="180" xlink:href="map.jpg"/>

 
	 <g transform="translate(180,90) scale(1,-1)"><polygon class="region" points="-77.318622844,0.15359937900007 -76.504901801,0.099197387000061 -76.386600409,-0.24933878499996 -75.701742215,-0.24201999199994 -75.258333334,-0.64583333299993 -76.094833713,-0.40771569099996 -77.248257785,-0.68714667499995 -77.325,-0.6125 -76.980908881,-0.50381334099996 -76.978813341,-0.36495378299998 -77.118379381,-0.11702423099996 -77.433862813,-0.10935075599997 -77.370648209,0.065559500000063 -77.298988342,0.044719324000027 -77.079330444,0.041946780000046 -77.318622844,0.15359937900007 " /><polygon class="region" points="-78.028257412,-3.966043091 -77.754733955,-4.043877156 -78.123257785,-4.2829800079999 -78.158333333,-3.979166667 -78.028257412,-3.966043091 " /><polygon class="region" points="-75.720205519,-6.338408068 -75.721568807,-6.4408667669999 -75.85,-6.5083333329999 -75.845833333,-6.720833333 -76.045833333,-6.8083333339999 -76.253463746,-6.640737407 -75.720205519,-6.338408068 " /><polygon class="region" points="-76.339456177,-3.688067288 -76.291666666,-3.6916666669999 -76.329166666,-3.8125 -76.437146674,-3.7149244519999 -76.339456177,-3.688067288 " />
		  </g>
		</svg>