<?xml version="1.0" encoding="UTF-8"?>
	<svg xmlns:xlink="http://www.w3.org/1999/xlink" 
	xmlns="http://www.w3.org/2000/svg" 
	width="360px" height="180px">
	   <style type="text/css">
		  <![CDATA[     
		  .region 
		  { 
			fill:blue; 
			opacity:0.4; 
			stroke:blue;
		  }
		  ]]>
	   </style>

	<circle id="dot" x="-2" y="-2" r="2" style="stroke:none; stroke-width:0; fill:black; opacity:0.7;"/>


	 <image x="0" y="0" width="360" height="180" xlink:href="map.jpg"/>

 
	 <g transform="translate(180,90) scale(1,-1)">   <use xlink:href="#dot" transform="translate(-76.425,-0.255)" />   <use xlink:href="#dot" transform="translate(-76.425,-0.2833)" />   <use xlink:href="#dot" transform="translate(-75.3,-0.6333)" />   <use xlink:href="#dot" transform="translate(-75.3,-0.6333)" />   <use xlink:href="#dot" transform="translate(-76.5,-0.1833)" />   <use xlink:href="#dot" transform="translate(-77.0483,-0.5433)" />   <use xlink:href="#dot" transform="translate(-76.9833,-0.41)" />   <use xlink:href="#dot" transform="translate(-76.6367,-0.4417)" />   <use xlink:href="#dot" transform="translate(-77.0483,-0.5433)" />   <use xlink:href="#dot" transform="translate(-76.6367,-0.4417)" />   <use xlink:href="#dot" transform="translate(-76.3867,-0.5267)" />   <use xlink:href="#dot" transform="translate(-76.9017,-0.4633)" />   <use xlink:href="#dot" transform="translate(-77.783333,-4.016667)" />   <use xlink:href="#dot" transform="translate(-77.78,-4.02)" />   <use xlink:href="#dot" transform="translate(-77.783333,-4.016667)" />   <use xlink:href="#dot" transform="translate(-77.783333,-4.016667)" />   <use xlink:href="#dot" transform="translate(-77.78333,-4.01667)" /><polygon class="region" points="-77.78333,-4.01667 -77.783333,-4.016667 -77.0483,-0.5433 -76.9833,-0.41 -76.5,-0.1833 -75.3,-0.6333 -77.78,-4.02 -77.78333,-4.01667 " />
		  </g>
		</svg>