<?xml version="1.0" encoding="UTF-8"?>
	<svg xmlns:xlink="http://www.w3.org/1999/xlink" 
	xmlns="http://www.w3.org/2000/svg" 
	width="360px" height="180px">
	   <style type="text/css">
		  <![CDATA[     
		  .region 
		  { 
			fill:blue; 
			opacity:0.4; 
			stroke:blue;
		  }
		  ]]>
	   </style>

	<circle id="dot" x="-2" y="-2" r="2" style="stroke:none; stroke-width:0; fill:black; opacity:0.7;"/>


	 <image x="0" y="0" width="360" height="180" xlink:href="map.jpg"/>

 
	 <g transform="translate(180,90) scale(1,-1)">   <use xlink:href="#dot" transform="translate(-155.996409,19.636882)" />   <use xlink:href="#dot" transform="translate(-156.438506,20.6176)" />   <use xlink:href="#dot" transform="translate(-82.85974,24.69691)" />   <use xlink:href="#dot" transform="translate(-82.87774,24.66398)" />   <use xlink:href="#dot" transform="translate(-82.9613,24.56852)" />   <use xlink:href="#dot" transform="translate(-82.84258,24.71496)" />   <use xlink:href="#dot" transform="translate(-82.92306,24.62035)" />   <use xlink:href="#dot" transform="translate(-82.94043,24.6391)" />   <use xlink:href="#dot" transform="translate(-83.0088,24.70501)" />   <use xlink:href="#dot" transform="translate(-82.90277,24.60734)" />   <use xlink:href="#dot" transform="translate(-82.8107,24.72435)" />   <use xlink:href="#dot" transform="translate(-82.8719,24.60679)" />   <use xlink:href="#dot" transform="translate(-82.95756,24.63837)" />   <use xlink:href="#dot" transform="translate(-82.94318,24.58912)" />   <use xlink:href="#dot" transform="translate(-82.78785,24.72367)" />   <use xlink:href="#dot" transform="translate(-82.85898,24.62863)" />   <use xlink:href="#dot" transform="translate(-82.94541,24.63121)" />   <use xlink:href="#dot" transform="translate(-82.8666,24.65804)" />   <use xlink:href="#dot" transform="translate(-82.97281,24.61894)" />   <use xlink:href="#dot" transform="translate(-83.02558,24.67969)" />   <use xlink:href="#dot" transform="translate(-83.0244,24.66155)" />   <use xlink:href="#dot" transform="translate(-82.8324,24.65349)" />   <use xlink:href="#dot" transform="translate(-82.80151,24.66106)" />   <use xlink:href="#dot" transform="translate(-82.93536,24.55096)" />   <use xlink:href="#dot" transform="translate(-82.85444,24.72297)" />   <use xlink:href="#dot" transform="translate(-82.90698,24.58201)" />   <use xlink:href="#dot" transform="translate(-82.90674,24.58185)" />   <use xlink:href="#dot" transform="translate(-82.91727,24.59642)" />   <use xlink:href="#dot" transform="translate(-82.94299,24.54212)" />   <use xlink:href="#dot" transform="translate(-82.96973,24.61995)" />   <use xlink:href="#dot" transform="translate(-82.99144,24.67719)" />   <use xlink:href="#dot" transform="translate(-83.02176,24.66657)" />   <use xlink:href="#dot" transform="translate(-82.83241,24.65357)" />   <use xlink:href="#dot" transform="translate(-82.9025,24.61122)" />   <use xlink:href="#dot" transform="translate(-82.85003,24.72221)" />   <use xlink:href="#dot" transform="translate(-82.94888,24.56779)" />   <use xlink:href="#dot" transform="translate(-82.98186,24.69314)" />   <use xlink:href="#dot" transform="translate(-82.99029,24.68324)" />   <use xlink:href="#dot" transform="translate(-82.87169,24.59865)" />   <use xlink:href="#dot" transform="translate(-82.80761,24.72118)" />   <use xlink:href="#dot" transform="translate(-82.92908,24.64423)" />   <use xlink:href="#dot" transform="translate(-82.94641,24.58856)" />   <use xlink:href="#dot" transform="translate(-83.02176,24.66657)" />   <use xlink:href="#dot" transform="translate(-82.86125,24.70163)" />   <use xlink:href="#dot" transform="translate(-82.81432,24.72439)" />   <use xlink:href="#dot" transform="translate(-82.81093,24.7243)" />   <use xlink:href="#dot" transform="translate(-82.80768,24.72118)" />   <use xlink:href="#dot" transform="translate(-82.90111,24.62183)" />   <use xlink:href="#dot" transform="translate(-82.94105,24.56527)" />   <use xlink:href="#dot" transform="translate(-82.90421,24.57709)" />   <use xlink:href="#dot" transform="translate(-82.94038,24.63908)" />   <use xlink:href="#dot" transform="translate(-82.8225,24.65445)" />   <use xlink:href="#dot" transform="translate(-82.80654,24.72403)" />   <use xlink:href="#dot" transform="translate(-82.85963,24.69694)" />   <use xlink:href="#dot" transform="translate(-82.85437,24.72285)" />   <use xlink:href="#dot" transform="translate(-82.80991,24.72734)" />   <use xlink:href="#dot" transform="translate(-82.87341,24.60046)" />   <use xlink:href="#dot" transform="translate(-82.93111,24.61138)" />   <use xlink:href="#dot" transform="translate(-82.88096,24.59167)" />   <use xlink:href="#dot" transform="translate(-82.80547,24.71769)" />   <use xlink:href="#dot" transform="translate(-82.80683,24.71991)" />   <use xlink:href="#dot" transform="translate(-82.93128,24.64283)" />   <use xlink:href="#dot" transform="translate(-82.85053,24.71854)" />   <use xlink:href="#dot" transform="translate(-82.86854,24.65717)" />   <use xlink:href="#dot" transform="translate(-82.99839,24.69556)" />   <use xlink:href="#dot" transform="translate(-83.0244,24.66155)" />   <use xlink:href="#dot" transform="translate(-82.87161,24.59852)" />   <use xlink:href="#dot" transform="translate(-82.86242,24.62097)" />   <use xlink:href="#dot" transform="translate(-82.88107,24.59177)" />   <use xlink:href="#dot" transform="translate(-82.80542,24.71759)" />   <use xlink:href="#dot" transform="translate(-82.91734,24.59659)" />   <use xlink:href="#dot" transform="translate(-82.95508,24.54613)" />   <use xlink:href="#dot" transform="translate(-83.02558,24.67969)" />   <use xlink:href="#dot" transform="translate(-82.98818,24.71494)" />   <use xlink:href="#dot" transform="translate(-82.88835,24.58288)" />   <use xlink:href="#dot" transform="translate(-82.96069,24.64911)" />   <use xlink:href="#dot" transform="translate(-82.91272,24.5757)" />   <use xlink:href="#dot" transform="translate(-82.85609,24.63791)" />   <use xlink:href="#dot" transform="translate(-82.80673,24.7198)" />   <use xlink:href="#dot" transform="translate(-83.02053,24.66255)" />   <use xlink:href="#dot" transform="translate(-82.81766,24.7248)" />   <use xlink:href="#dot" transform="translate(-82.94013,24.64482)" />   <use xlink:href="#dot" transform="translate(-82.95488,24.546)" />   <use xlink:href="#dot" transform="translate(-82.88764,24.5864)" />   <use xlink:href="#dot" transform="translate(-82.97867,24.69394)" />   <use xlink:href="#dot" transform="translate(-82.99505,24.6789)" />   <use xlink:href="#dot" transform="translate(-82.99314,24.68375)" />   <use xlink:href="#dot" transform="translate(-82.80419,24.72293)" />   <use xlink:href="#dot" transform="translate(-82.85821,24.66313)" />   <use xlink:href="#dot" transform="translate(-83.02019,24.67841)" />   <use xlink:href="#dot" transform="translate(-82.99974,24.69778)" />   <use xlink:href="#dot" transform="translate(-82.99718,24.6984)" />   <use xlink:href="#dot" transform="translate(-83.01255,24.70544)" />   <use xlink:href="#dot" transform="translate(-82.872,24.6069)" />   <use xlink:href="#dot" transform="translate(-82.9025,24.61115)" />   <use xlink:href="#dot" transform="translate(-82.83903,24.72352)" />   <use xlink:href="#dot" transform="translate(-82.94887,24.56783)" />   <use xlink:href="#dot" transform="translate(-82.92508,24.61646)" />   <use xlink:href="#dot" transform="translate(-82.87047,24.61113)" />   <use xlink:href="#dot" transform="translate(-82.96538,24.62957)" />   <use xlink:href="#dot" transform="translate(-82.99505,24.6789)" />   <use xlink:href="#dot" transform="translate(-82.84163,24.68923)" />   <use xlink:href="#dot" transform="translate(-82.80141,24.66101)" />   <use xlink:href="#dot" transform="translate(-82.99448,24.6772)" />   <use xlink:href="#dot" transform="translate(-82.81426,24.72437)" />   <use xlink:href="#dot" transform="translate(-82.89694,24.61876)" />   <use xlink:href="#dot" transform="translate(-82.81198,24.66263)" />   <use xlink:href="#dot" transform="translate(-82.96955,24.61997)" />   <use xlink:href="#dot" transform="translate(-82.97868,24.69397)" />   <use xlink:href="#dot" transform="translate(-83.02607,24.67962)" />   <use xlink:href="#dot" transform="translate(-82.85309,24.72283)" />   <use xlink:href="#dot" transform="translate(-82.87087,24.59766)" />   <use xlink:href="#dot" transform="translate(-82.93714,24.63027)" />   <use xlink:href="#dot" transform="translate(-82.96273,24.62478)" />   <use xlink:href="#dot" transform="translate(-82.88747,24.58659)" />   <use xlink:href="#dot" transform="translate(-82.95708,24.64759)" />   <use xlink:href="#dot" transform="translate(-83.02053,24.66255)" />   <use xlink:href="#dot" transform="translate(-83.01021,24.68072)" />   <use xlink:href="#dot" transform="translate(-82.91306,24.57572)" />   <use xlink:href="#dot" transform="translate(-82.96631,24.63315)" />   <use xlink:href="#dot" transform="translate(-82.87287,24.66729)" />   <use xlink:href="#dot" transform="translate(-83.00958,24.7002)" />   <use xlink:href="#dot" transform="translate(-82.98834,24.71489)" />   <use xlink:href="#dot" transform="translate(-83.01021,24.68072)" />   <use xlink:href="#dot" transform="translate(-82.844,24.7132)" />   <use xlink:href="#dot" transform="translate(-83.01801,24.67824)" />   <use xlink:href="#dot" transform="translate(-82.92519,24.56931)" />   <use xlink:href="#dot" transform="translate(-82.83911,24.72343)" />   <use xlink:href="#dot" transform="translate(-82.92924,24.64414)" />   <use xlink:href="#dot" transform="translate(-82.94784,24.54366)" />   <use xlink:href="#dot" transform="translate(-82.87232,24.60006)" />   <use xlink:href="#dot" transform="translate(-82.87433,24.59156)" />   <use xlink:href="#dot" transform="translate(-82.94014,24.64471)" />   <use xlink:href="#dot" transform="translate(-82.78425,24.72298)" />   <use xlink:href="#dot" transform="translate(-82.85604,24.64221)" />   <use xlink:href="#dot" transform="translate(-82.84838,24.69383)" />   <use xlink:href="#dot" transform="translate(-82.90277,24.60734)" />   <use xlink:href="#dot" transform="translate(-82.95332,24.54764)" />   <use xlink:href="#dot" transform="translate(-82.85004,24.72208)" />   <use xlink:href="#dot" transform="translate(-82.94097,24.56519)" />   <use xlink:href="#dot" transform="translate(-82.85067,24.71857)" />   <use xlink:href="#dot" transform="translate(-82.86862,24.65709)" />   <use xlink:href="#dot" transform="translate(-82.84195,24.68833)" />   <use xlink:href="#dot" transform="translate(-82.8708,24.59758)" />   <use xlink:href="#dot" transform="translate(-83.01121,24.69374)" />   <use xlink:href="#dot" transform="translate(-82.95745,24.65183)" />   <use xlink:href="#dot" transform="translate(-82.94338,24.58925)" />   <use xlink:href="#dot" transform="translate(-82.96883,24.63093)" />   <use xlink:href="#dot" transform="translate(-82.86258,24.62085)" />   <use xlink:href="#dot" transform="translate(-82.86463,24.61952)" />   <use xlink:href="#dot" transform="translate(-82.90118,24.62184)" />   <use xlink:href="#dot" transform="translate(-82.9335,24.63332)" />   <use xlink:href="#dot" transform="translate(-82.87371,24.60276)" />   <use xlink:href="#dot" transform="translate(-82.94029,24.56468)" />   <use xlink:href="#dot" transform="translate(-82.94328,24.57724)" />   <use xlink:href="#dot" transform="translate(-82.96262,24.62483)" />   <use xlink:href="#dot" transform="translate(-82.99981,24.69761)" />   <use xlink:href="#dot" transform="translate(-82.99428,24.71494)" />   <use xlink:href="#dot" transform="translate(-82.95744,24.63825)" />   <use xlink:href="#dot" transform="translate(-82.83388,24.72058)" />   <use xlink:href="#dot" transform="translate(-82.94263,24.62953)" />   <use xlink:href="#dot" transform="translate(-82.78411,24.723)" />   <use xlink:href="#dot" transform="translate(-82.86656,24.65791)" />   <use xlink:href="#dot" transform="translate(-82.99314,24.68375)" />   <use xlink:href="#dot" transform="translate(-82.99547,24.69742)" />   <use xlink:href="#dot" transform="translate(-82.99547,24.69744)" />   <use xlink:href="#dot" transform="translate(-82.80657,24.72401)" />   <use xlink:href="#dot" transform="translate(-82.98708,24.72227)" />   <use xlink:href="#dot" transform="translate(-82.92723,24.58179)" />   <use xlink:href="#dot" transform="translate(-82.93711,24.63043)" />   <use xlink:href="#dot" transform="translate(-82.93345,24.63338)" />   <use xlink:href="#dot" transform="translate(-82.92835,24.55083)" />   <use xlink:href="#dot" transform="translate(-82.90414,24.57722)" />   <use xlink:href="#dot" transform="translate(-82.94632,24.58861)" />   <use xlink:href="#dot" transform="translate(-82.99274,24.68183)" />   <use xlink:href="#dot" transform="translate(-82.84827,24.69381)" />   <use xlink:href="#dot" transform="translate(-82.90216,24.61427)" />   <use xlink:href="#dot" transform="translate(-82.871,24.61019)" />   <use xlink:href="#dot" transform="translate(-82.81653,24.71864)" />   <use xlink:href="#dot" transform="translate(-82.84247,24.71481)" />   <use xlink:href="#dot" transform="translate(-82.81462,24.71971)" />   <use xlink:href="#dot" transform="translate(-82.9654,24.62957)" />   <use xlink:href="#dot" transform="translate(-82.95693,24.64763)" />   <use xlink:href="#dot" transform="translate(-82.98378,24.70396)" />   <use xlink:href="#dot" transform="translate(-82.99029,24.68324)" />   <use xlink:href="#dot" transform="translate(-82.9479,24.54353)" />   <use xlink:href="#dot" transform="translate(-82.83385,24.72065)" />   <use xlink:href="#dot" transform="translate(-82.96134,24.5686)" />   <use xlink:href="#dot" transform="translate(-82.8643,24.61934)" />   <use xlink:href="#dot" transform="translate(-82.94307,24.54199)" />   <use xlink:href="#dot" transform="translate(-83.01801,24.67824)" />   <use xlink:href="#dot" transform="translate(-82.85366,24.66156)" />   <use xlink:href="#dot" transform="translate(-83.02019,24.67841)" />   <use xlink:href="#dot" transform="translate(-83.01337,24.701)" />   <use xlink:href="#dot" transform="translate(-82.92468,24.57056)" />   <use xlink:href="#dot" transform="translate(-82.92688,24.58207)" />   <use xlink:href="#dot" transform="translate(-82.94267,24.62948)" />   <use xlink:href="#dot" transform="translate(-82.95522,24.65252)" />   <use xlink:href="#dot" transform="translate(-82.81803,24.72703)" />   <use xlink:href="#dot" transform="translate(-82.85821,24.66312)" />   <use xlink:href="#dot" transform="translate(-82.80449,24.72623)" />   <use xlink:href="#dot" transform="translate(-82.92516,24.61627)" />   <use xlink:href="#dot" transform="translate(-82.933,24.60866)" />   <use xlink:href="#dot" transform="translate(-82.85367,24.66136)" />   <use xlink:href="#dot" transform="translate(-82.81659,24.71884)" />   <use xlink:href="#dot" transform="translate(-82.96061,24.64922)" />   <use xlink:href="#dot" transform="translate(-82.87777,24.6641)" />   <use xlink:href="#dot" transform="translate(-82.81782,24.72474)" />   <use xlink:href="#dot" transform="translate(-82.93112,24.61147)" />   <use xlink:href="#dot" transform="translate(-82.85615,24.64232)" />   <use xlink:href="#dot" transform="translate(-82.99441,24.71511)" />   <use xlink:href="#dot" transform="translate(-83.01337,24.701)" />   <use xlink:href="#dot" transform="translate(-82.99274,24.68183)" />   <use xlink:href="#dot" transform="translate(-82.88846,24.58297)" />   <use xlink:href="#dot" transform="translate(-82.94323,24.57739)" />   <use xlink:href="#dot" transform="translate(-82.81797,24.72701)" />   <use xlink:href="#dot" transform="translate(-82.80435,24.72624)" />   <use xlink:href="#dot" transform="translate(-82.85759,24.63125)" />   <use xlink:href="#dot" transform="translate(-82.82244,24.6544)" />   <use xlink:href="#dot" transform="translate(-82.84209,24.68827)" />   <use xlink:href="#dot" transform="translate(-83.01213,24.68256)" />   <use xlink:href="#dot" transform="translate(-83.01124,24.69393)" />   <use xlink:href="#dot" transform="translate(-82.92509,24.56908)" />   <use xlink:href="#dot" transform="translate(-82.87334,24.60037)" />   <use xlink:href="#dot" transform="translate(-82.89683,24.61881)" />   <use xlink:href="#dot" transform="translate(-83.01213,24.68256)" />   <use xlink:href="#dot" transform="translate(-83.01299,24.68566)" />   <use xlink:href="#dot" transform="translate(-82.8532,24.72291)" />   <use xlink:href="#dot" transform="translate(-82.81084,24.66871)" />   <use xlink:href="#dot" transform="translate(-82.95334,24.54777)" />   <use xlink:href="#dot" transform="translate(-82.88459,24.58932)" />   <use xlink:href="#dot" transform="translate(-82.80971,24.66958)" />   <use xlink:href="#dot" transform="translate(-82.87287,24.66716)" />   <use xlink:href="#dot" transform="translate(-83.02607,24.67962)" />   <use xlink:href="#dot" transform="translate(-82.86137,24.7017)" />   <use xlink:href="#dot" transform="translate(-82.90212,24.61438)" />   <use xlink:href="#dot" transform="translate(-82.844,24.7132)" />   <use xlink:href="#dot" transform="translate(-82.98729,24.72224)" />   <use xlink:href="#dot" transform="translate(-82.85894,24.62851)" />   <use xlink:href="#dot" transform="translate(-82.81466,24.71959)" />   <use xlink:href="#dot" transform="translate(-82.94767,24.63213)" />   <use xlink:href="#dot" transform="translate(-82.94773,24.63216)" />   <use xlink:href="#dot" transform="translate(-83.01248,24.70549)" />   <use xlink:href="#dot" transform="translate(-82.93549,24.55095)" />   <use xlink:href="#dot" transform="translate(-83.00891,24.69718)" />   <use xlink:href="#dot" transform="translate(-82.80421,24.72275)" />   <use xlink:href="#dot" transform="translate(-82.95765,24.6517)" />   <use xlink:href="#dot" transform="translate(-82.79814,24.72669)" />   <use xlink:href="#dot" transform="translate(-82.87047,24.61129)" />   <use xlink:href="#dot" transform="translate(-82.812,24.66267)" />   <use xlink:href="#dot" transform="translate(-82.80981,24.66948)" />   <use xlink:href="#dot" transform="translate(-82.9284,24.55088)" />   <use xlink:href="#dot" transform="translate(-83.01299,24.68566)" />   <use xlink:href="#dot" transform="translate(-82.99723,24.69845)" />   <use xlink:href="#dot" transform="translate(-82.98184,24.6933)" />   <use xlink:href="#dot" transform="translate(-82.92463,24.57066)" />   <use xlink:href="#dot" transform="translate(-82.78807,24.72353)" />   <use xlink:href="#dot" transform="translate(-82.96633,24.63333)" />   <use xlink:href="#dot" transform="translate(-82.92727,24.58163)" />   <use xlink:href="#dot" transform="translate(-82.87223,24.59995)" />   <use xlink:href="#dot" transform="translate(-82.8846,24.58933)" />   <use xlink:href="#dot" transform="translate(-82.93293,24.60877)" />   <use xlink:href="#dot" transform="translate(-83.00943,24.70013)" />   <use xlink:href="#dot" transform="translate(-83.0088,24.70501)" />   <use xlink:href="#dot" transform="translate(-82.87096,24.61007)" />   <use xlink:href="#dot" transform="translate(-82.99448,24.6772)" />   <use xlink:href="#dot" transform="translate(-82.79827,24.72661)" />   <use xlink:href="#dot" transform="translate(-82.85601,24.63783)" />   <use xlink:href="#dot" transform="translate(-82.96876,24.63096)" />   <use xlink:href="#dot" transform="translate(-82.92947,24.61359)" />   <use xlink:href="#dot" transform="translate(-82.8575,24.63131)" />   <use xlink:href="#dot" transform="translate(-82.93114,24.64292)" />   <use xlink:href="#dot" transform="translate(-82.94522,24.6311)" />   <use xlink:href="#dot" transform="translate(-83.00891,24.69718)" />   <use xlink:href="#dot" transform="translate(-82.95505,24.65239)" />   <use xlink:href="#dot" transform="translate(-82.81,24.72742)" />   <use xlink:href="#dot" transform="translate(-82.92698,24.58212)" />   <use xlink:href="#dot" transform="translate(-82.92942,24.61373)" />   <use xlink:href="#dot" transform="translate(-82.87435,24.59145)" />   <use xlink:href="#dot" transform="translate(-82.92324,24.62026)" />   <use xlink:href="#dot" transform="translate(-82.97283,24.61905)" />   <use xlink:href="#dot" transform="translate(-82.99144,24.67719)" />   <use xlink:href="#dot" transform="translate(-82.84152,24.68923)" />   <use xlink:href="#dot" transform="translate(-82.87381,24.60271)" />   <use xlink:href="#dot" transform="translate(-82.81067,24.66872)" />   <use xlink:href="#dot" transform="translate(-82.94012,24.56466)" />   <use xlink:href="#dot" transform="translate(-82.81892,24.64112)" />   <use xlink:href="#dot" transform="translate(-82.92491,24.69669)" />   <use xlink:href="#dot" transform="translate(-83.00996,24.65077)" />   <use xlink:href="#dot" transform="translate(-83.06887,24.66428)" />   <use xlink:href="#dot" transform="translate(-83.05825,24.69084)" />   <use xlink:href="#dot" transform="translate(-83.06023,24.68772)" />   <use xlink:href="#dot" transform="translate(-83.03348,24.70197)" />   <use xlink:href="#dot" transform="translate(-81.90479,24.44746)" />   <use xlink:href="#dot" transform="translate(-82.88343,24.68749)" />   <use xlink:href="#dot" transform="translate(-82.77591,24.70857)" />   <use xlink:href="#dot" transform="translate(-83.10295,24.63482)" />   <use xlink:href="#dot" transform="translate(-83.04222,24.63715)" />   <use xlink:href="#dot" transform="translate(-83.00996,24.65077)" />   <use xlink:href="#dot" transform="translate(-83.03338,24.65269)" /><polygon class="region" points="-155.996409,19.636882 -156.438506,20.6176 -82.98708,24.72227 -82.81,24.72742 -82.79814,24.72669 -82.78411,24.723 -81.90479,24.44746 -155.996409,19.636882 " />
		  </g>
		</svg>