<?xml version="1.0" encoding="UTF-8"?>
	<svg xmlns:xlink="http://www.w3.org/1999/xlink" 
	xmlns="http://www.w3.org/2000/svg" 
	width="360px" height="180px">
	   <style type="text/css">
		  <![CDATA[     
		  .region 
		  { 
			fill:blue; 
			opacity:0.4; 
			stroke:blue;
		  }
		  ]]>
	   </style>

	<circle id="dot" x="-2" y="-2" r="2" style="stroke:none; stroke-width:0; fill:black; opacity:0.7;"/>


	 <image x="0" y="0" width="360" height="180" xlink:href="map.jpg"/>

 
	 <g transform="translate(180,90) scale(1,-1)">   <use xlink:href="#dot" transform="translate(33.9114,26.9932)" />   <use xlink:href="#dot" transform="translate(103.701,4.87306)" />   <use xlink:href="#dot" transform="translate(103.675,4.80691)" />   <use xlink:href="#dot" transform="translate(138.881517,35.049011)" />   <use xlink:href="#dot" transform="translate(138.832417,35.104398)" />   <use xlink:href="#dot" transform="translate(33.9075,27.0412)" />   <use xlink:href="#dot" transform="translate(102.255,11.9023)" />   <use xlink:href="#dot" transform="translate(102.316,11.8911)" />   <use xlink:href="#dot" transform="translate(120.9399,13.5136)" />   <use xlink:href="#dot" transform="translate(139.0347,-15.8876)" />   <use xlink:href="#dot" transform="translate(49.198333,29.102917)" />   <use xlink:href="#dot" transform="translate(119.070842,-8.126962)" />   <use xlink:href="#dot" transform="translate(119.71158,-8.630378)" />   <use xlink:href="#dot" transform="translate(49.179817,29.213333)" />   <use xlink:href="#dot" transform="translate(48.885933,29.011533)" />   <use xlink:href="#dot" transform="translate(98.0983,9.33932)" />   <use xlink:href="#dot" transform="translate(98.7704,7.7636)" />   <use xlink:href="#dot" transform="translate(42.30625,16.83585)" />   <use xlink:href="#dot" transform="translate(34.0026,26.8424)" />   <use xlink:href="#dot" transform="translate(145.986,-16.9326)" />   <use xlink:href="#dot" transform="translate(146.009,-16.5223)" />   <use xlink:href="#dot" transform="translate(146.390427,-17.488876)" />   <use xlink:href="#dot" transform="translate(110.459,-5.81917)" />   <use xlink:href="#dot" transform="translate(110.459,-5.81917)" />   <use xlink:href="#dot" transform="translate(110.459,-5.81917)" />   <use xlink:href="#dot" transform="translate(113.287085,-7.077733)" />   <use xlink:href="#dot" transform="translate(116.324944,-8.650979)" />   <use xlink:href="#dot" transform="translate(113.287085,-7.077733)" />   <use xlink:href="#dot" transform="translate(116.324944,-8.650979)" />   <use xlink:href="#dot" transform="translate(116.324944,-8.650979)" />   <use xlink:href="#dot" transform="translate(116.324944,-8.650979)" />   <use xlink:href="#dot" transform="translate(104.925232,-5.878809)" />   <use xlink:href="#dot" transform="translate(113.287085,-7.077733)" />   <use xlink:href="#dot" transform="translate(116.324944,-8.650979)" />   <use xlink:href="#dot" transform="translate(122.514903,-3.972201)" />   <use xlink:href="#dot" transform="translate(110.459,-5.81917)" />   <use xlink:href="#dot" transform="translate(110.459,-5.81917)" />   <use xlink:href="#dot" transform="translate(130.0435,32.1554)" />   <use xlink:href="#dot" transform="translate(104.063,2.88653)" />   <use xlink:href="#dot" transform="translate(99.8503,10.103)" />   <use xlink:href="#dot" transform="translate(39.161489,21.515028)" />   <use xlink:href="#dot" transform="translate(120.307333,13.928333)" />   <use xlink:href="#dot" transform="translate(32.560817,-28.161367)" />   <use xlink:href="#dot" transform="translate(109.190667,12.242194)" />   <use xlink:href="#dot" transform="translate(108.286389,10.935389)" />   <use xlink:href="#dot" transform="translate(102.746,5.91256)" />   <use xlink:href="#dot" transform="translate(166.442,-22.309)" />   <use xlink:href="#dot" transform="translate(166.442,-22.309)" />   <use xlink:href="#dot" transform="translate(166.442,-22.309)" />   <use xlink:href="#dot" transform="translate(166.442,-22.309)" />   <use xlink:href="#dot" transform="translate(39.38075,-4.647817)" />   <use xlink:href="#dot" transform="translate(48.128167,-13.497167)" />   <use xlink:href="#dot" transform="translate(130.183,31.4189)" />   <use xlink:href="#dot" transform="translate(134.66667,8.33333)" />   <use xlink:href="#dot" transform="translate(130.197,31.4289)" />   <use xlink:href="#dot" transform="translate(152.50024,-24.0469)" />   <use xlink:href="#dot" transform="translate(152.49983,-24.047382)" />   <use xlink:href="#dot" transform="translate(152.49634,-24.0421)" />   <use xlink:href="#dot" transform="translate(146.94757,-18.901016)" />   <use xlink:href="#dot" transform="translate(146.76575,-18.55385)" />   <use xlink:href="#dot" transform="translate(146.76982,-18.554567)" />   <use xlink:href="#dot" transform="translate(146.9053,-18.915083)" />   <use xlink:href="#dot" transform="translate(147.13564,-19.155582)" />   <use xlink:href="#dot" transform="translate(146.8088,-18.66825)" />   <use xlink:href="#dot" transform="translate(146.76811,-18.556383)" />   <use xlink:href="#dot" transform="translate(146.94693,-18.89865)" />   <use xlink:href="#dot" transform="translate(147.1339,-19.153683)" />   <use xlink:href="#dot" transform="translate(121.752,-15.0853)" />   <use xlink:href="#dot" transform="translate(121.752,-15.0853)" />   <use xlink:href="#dot" transform="translate(120.099,-18.4253)" />   <use xlink:href="#dot" transform="translate(121.75266,-15.08533)" />   <use xlink:href="#dot" transform="translate(130.672,31.2772)" />   <use xlink:href="#dot" transform="translate(130.672,31.2772)" />   <use xlink:href="#dot" transform="translate(-123.385,48.4148)" />   <use xlink:href="#dot" transform="translate(39.1,-5.05)" />   <use xlink:href="#dot" transform="translate(39.124475,-5.298138)" />   <use xlink:href="#dot" transform="translate(39.12836,-5.2936)" />   <use xlink:href="#dot" transform="translate(39.129667,-5.300121)" />   <use xlink:href="#dot" transform="translate(35.806667,-20.246667)" />   <use xlink:href="#dot" transform="translate(39.103916,-5.29707)" />   <use xlink:href="#dot" transform="translate(37.14,-18.265)" />   <use xlink:href="#dot" transform="translate(40.033333,-16.39)" />   <use xlink:href="#dot" transform="translate(121.22,23.1)" />   <use xlink:href="#dot" transform="translate(130.197,31.4289)" />   <use xlink:href="#dot" transform="translate(21.833158,-34.6791)" />   <use xlink:href="#dot" transform="translate(146.90565,-18.915033)" />   <use xlink:href="#dot" transform="translate(166.431,-22.298)" />   <use xlink:href="#dot" transform="translate(146.9204,-18.91601)" />   <use xlink:href="#dot" transform="translate(146.91522,-18.91521)" />   <use xlink:href="#dot" transform="translate(96.688843,-3.401647)" />   <use xlink:href="#dot" transform="translate(146.94826,-18.90068)" />   <use xlink:href="#dot" transform="translate(130.197,31.4289)" />   <use xlink:href="#dot" transform="translate(146.94122,-18.9008)" />   <use xlink:href="#dot" transform="translate(146.9488,-18.90036)" />   <use xlink:href="#dot" transform="translate(166.476,-22.269)" />   <use xlink:href="#dot" transform="translate(166.476,-22.269)" />   <use xlink:href="#dot" transform="translate(146.90567,-18.91538)" />   <use xlink:href="#dot" transform="translate(166.425,-22.292)" />   <use xlink:href="#dot" transform="translate(146.07039,-16.60466)" />   <use xlink:href="#dot" transform="translate(146.06612,-16.61501)" />   <use xlink:href="#dot" transform="translate(146.00533,-16.61371)" />   <use xlink:href="#dot" transform="translate(146.06828,-16.60552)" />   <use xlink:href="#dot" transform="translate(145.9708,-16.54254)" />   <use xlink:href="#dot" transform="translate(146.00237,-16.615)" />   <use xlink:href="#dot" transform="translate(151.96753,-22.922834)" />   <use xlink:href="#dot" transform="translate(151.97105,-22.924877)" />   <use xlink:href="#dot" transform="translate(151.96753,-22.922834)" />   <use xlink:href="#dot" transform="translate(151.97495,-22.927048)" />   <use xlink:href="#dot" transform="translate(151.97105,-22.924877)" />   <use xlink:href="#dot" transform="translate(151.97495,-22.927048)" />   <use xlink:href="#dot" transform="translate(146.44266,-16.894163)" />   <use xlink:href="#dot" transform="translate(146.44266,-16.894163)" />   <use xlink:href="#dot" transform="translate(150.91843,-21.817316)" />   <use xlink:href="#dot" transform="translate(151.42847,-22.493784)" />   <use xlink:href="#dot" transform="translate(151.42847,-22.493784)" />   <use xlink:href="#dot" transform="translate(150.91843,-21.817316)" />   <use xlink:href="#dot" transform="translate(146.406,-17.045279)" />   <use xlink:href="#dot" transform="translate(146.406,-17.045279)" />   <use xlink:href="#dot" transform="translate(147.27106,-18.362764)" />   <use xlink:href="#dot" transform="translate(147.27106,-18.362764)" />   <use xlink:href="#dot" transform="translate(145.58464,-15.404597)" />   <use xlink:href="#dot" transform="translate(145.58464,-15.404597)" />   <use xlink:href="#dot" transform="translate(120.64,24.52)" />   <use xlink:href="#dot" transform="translate(120.39,24.83)" />   <use xlink:href="#dot" transform="translate(115.166,-8.75)" />   <use xlink:href="#dot" transform="translate(115.166,-8.75)" />   <use xlink:href="#dot" transform="translate(115.166,-8.75)" />   <use xlink:href="#dot" transform="translate(139.883333,-16.633333)" />   <use xlink:href="#dot" transform="translate(139.883333,-16.65)" />   <use xlink:href="#dot" transform="translate(146.92732,-18.50216)" />   <use xlink:href="#dot" transform="translate(146.92732,-18.50216)" />   <use xlink:href="#dot" transform="translate(146.92732,-18.50216)" />   <use xlink:href="#dot" transform="translate(100.5172,12.9906)" />   <use xlink:href="#dot" transform="translate(147.02213,-18.45036)" />   <use xlink:href="#dot" transform="translate(147.02213,-18.45036)" />   <use xlink:href="#dot" transform="translate(120.95683,13.5015)" />   <use xlink:href="#dot" transform="translate(120.957,13.5014)" />   <use xlink:href="#dot" transform="translate(146.87366,-18.4665)" />   <use xlink:href="#dot" transform="translate(146.87366,-18.4665)" />   <use xlink:href="#dot" transform="translate(146,-16)" />   <use xlink:href="#dot" transform="translate(136.64585,-13.12085)" />   <use xlink:href="#dot" transform="translate(140.066665,-16.40833)" />   <use xlink:href="#dot" transform="translate(138.67667,-16.1)" />   <use xlink:href="#dot" transform="translate(137.507495,-15.17583)" />   <use xlink:href="#dot" transform="translate(141.36583,-12.488335)" />   <use xlink:href="#dot" transform="translate(138.355,-15.87667)" />   <use xlink:href="#dot" transform="translate(138.48666,-16.08167)" />   <use xlink:href="#dot" transform="translate(137.57083,-15.33917)" />   <use xlink:href="#dot" transform="translate(140.07001,-16.41333)" />   <use xlink:href="#dot" transform="translate(138.48583,-16.07)" />   <use xlink:href="#dot" transform="translate(141.36833,-12.5)" />   <use xlink:href="#dot" transform="translate(141.27917,-12.555)" />   <use xlink:href="#dot" transform="translate(140.14917,-16.455835)" />   <use xlink:href="#dot" transform="translate(137.89667,-15.04)" />   <use xlink:href="#dot" transform="translate(141.28,-12.53833)" />   <use xlink:href="#dot" transform="translate(140.15668,-16.465)" />   <use xlink:href="#dot" transform="translate(137.51833,-15.16833)" />   <use xlink:href="#dot" transform="translate(137.56833,-15.35167)" />   <use xlink:href="#dot" transform="translate(138.66167,-16.100835)" />   <use xlink:href="#dot" transform="translate(138.355835,-15.88917)" />   <use xlink:href="#dot" transform="translate(137.909165,-15.035835)" />   <use xlink:href="#dot" transform="translate(115.6875,-19.913335)" />   <use xlink:href="#dot" transform="translate(118.366665,-19.05833)" />   <use xlink:href="#dot" transform="translate(116.665,-19.7325)" />   <use xlink:href="#dot" transform="translate(118.4375,-18.87917)" />   <use xlink:href="#dot" transform="translate(117.72,-20.10583)" />   <use xlink:href="#dot" transform="translate(117.05417,-19.995)" />   <use xlink:href="#dot" transform="translate(116.98,-19.95333)" />   <use xlink:href="#dot" transform="translate(117.82583,-20.055)" />   <use xlink:href="#dot" transform="translate(117.455835,-20.02667)" />   <use xlink:href="#dot" transform="translate(115.631665,-19.8575)" />   <use xlink:href="#dot" transform="translate(116.434165,-20.375)" />   <use xlink:href="#dot" transform="translate(118.400835,-18.90917)" />   <use xlink:href="#dot" transform="translate(117.205835,-20.361665)" />   <use xlink:href="#dot" transform="translate(118.744165,-18.81333)" />   <use xlink:href="#dot" transform="translate(117.723335,-19.838335)" />   <use xlink:href="#dot" transform="translate(117.55083,-20.17333)" />   <use xlink:href="#dot" transform="translate(117.8275,-19.62667)" />   <use xlink:href="#dot" transform="translate(116.731665,-19.551665)" />   <use xlink:href="#dot" transform="translate(116.54417,-20.33)" />   <use xlink:href="#dot" transform="translate(116.77,-19.45917)" />   <use xlink:href="#dot" transform="translate(116.025,-20.50417)" />   <use xlink:href="#dot" transform="translate(117.735,-19.245)" />   <use xlink:href="#dot" transform="translate(117.830835,-19.71333)" />   <use xlink:href="#dot" transform="translate(115.90833,-20.039165)" />   <use xlink:href="#dot" transform="translate(117.788335,-19.115)" />   <use xlink:href="#dot" transform="translate(117.9375,-19.2525)" />   <use xlink:href="#dot" transform="translate(116.158335,-19.920835)" />   <use xlink:href="#dot" transform="translate(115.396665,-20.1425)" />   <use xlink:href="#dot" transform="translate(116.14833,-20.20417)" />   <use xlink:href="#dot" transform="translate(116.340835,-19.69)" />   <use xlink:href="#dot" transform="translate(118.6475,-18.8275)" />   <use xlink:href="#dot" transform="translate(115.789165,-20.09333)" />   <use xlink:href="#dot" transform="translate(116.556665,-20.17583)" />   <use xlink:href="#dot" transform="translate(118.64,-18.605835)" />   <use xlink:href="#dot" transform="translate(116.501665,-20.2475)" />   <use xlink:href="#dot" transform="translate(118.44333,-19.01583)" />   <use xlink:href="#dot" transform="translate(117.695835,-19.38083)" />   <use xlink:href="#dot" transform="translate(116.275,-20.385835)" />   <use xlink:href="#dot" transform="translate(116.80167,-19.818335)" />   <use xlink:href="#dot" transform="translate(117.034165,-20.05)" />   <use xlink:href="#dot" transform="translate(117.418335,-19.8475)" />   <use xlink:href="#dot" transform="translate(118.265,-19.951665)" />   <use xlink:href="#dot" transform="translate(139.387495,-15.96917)" />   <use xlink:href="#dot" transform="translate(137.650825,-15.423335)" />   <use xlink:href="#dot" transform="translate(137.672495,-15.4525)" />   <use xlink:href="#dot" transform="translate(137.715005,-15.406665)" />   <use xlink:href="#dot" transform="translate(139.329995,-16.030835)" />   <use xlink:href="#dot" transform="translate(139.36916,-16.019165)" />   <use xlink:href="#dot" transform="translate(136.86084,-15.018335)" />   <use xlink:href="#dot" transform="translate(136.90666,-15.026665)" />   <use xlink:href="#dot" transform="translate(125.248,-13.219)" />   <use xlink:href="#dot" transform="translate(129.315,-10.117)" />   <use xlink:href="#dot" transform="translate(129.586,-10.106)" />   <use xlink:href="#dot" transform="translate(116.54667,-20.040835)" />   <use xlink:href="#dot" transform="translate(116.061665,-20.13417)" />   <use xlink:href="#dot" transform="translate(116.5475,-19.97)" />   <use xlink:href="#dot" transform="translate(115.7625,-19.951665)" />   <use xlink:href="#dot" transform="translate(117.2525,-19.588335)" />   <use xlink:href="#dot" transform="translate(117.04167,-20.02167)" />   <use xlink:href="#dot" transform="translate(118.865835,-18.97833)" />   <use xlink:href="#dot" transform="translate(115.946665,-20.2325)" />   <use xlink:href="#dot" transform="translate(116.671665,-19.521665)" />   <use xlink:href="#dot" transform="translate(115.778335,-20.16)" />   <use xlink:href="#dot" transform="translate(115.985,-19.941665)" />   <use xlink:href="#dot" transform="translate(118.7325,-19.235)" />   <use xlink:href="#dot" transform="translate(116.696665,-19.690835)" />   <use xlink:href="#dot" transform="translate(117.131665,-19.768335)" />   <use xlink:href="#dot" transform="translate(115.63667,-20.148335)" />   <use xlink:href="#dot" transform="translate(116.516665,-19.7075)" />   <use xlink:href="#dot" transform="translate(116.77,-19.7975)" />   <use xlink:href="#dot" transform="translate(115.68333,-20.015)" />   <use xlink:href="#dot" transform="translate(118.04,-19.411665)" />   <use xlink:href="#dot" transform="translate(117.610835,-19.31417)" />   <use xlink:href="#dot" transform="translate(118.22917,-19.758335)" />   <use xlink:href="#dot" transform="translate(117.580835,-19.4775)" />   <use xlink:href="#dot" transform="translate(117.604165,-19.255835)" />   <use xlink:href="#dot" transform="translate(118.001665,-19.225835)" />   <use xlink:href="#dot" transform="translate(118.1,-19.689165)" />   <use xlink:href="#dot" transform="translate(118.615835,-19.27)" />   <use xlink:href="#dot" transform="translate(48.200001,-13.383333)" />   <use xlink:href="#dot" transform="translate(118.536665,-19.374165)" />   <use xlink:href="#dot" transform="translate(118.1525,-18.963335)" />   <use xlink:href="#dot" transform="translate(118.025835,-19.406665)" />   <use xlink:href="#dot" transform="translate(32.549809,29.956953)" />   <use xlink:href="#dot" transform="translate(129.33633,-10.12632)" />   <use xlink:href="#dot" transform="translate(129.33633,-10.12632)" />   <use xlink:href="#dot" transform="translate(129.33633,-10.12632)" />   <use xlink:href="#dot" transform="translate(117.333,-19.833)" />   <use xlink:href="#dot" transform="translate(141.18333,-12.67166)" />   <use xlink:href="#dot" transform="translate(141.18,-12.61)" />   <use xlink:href="#dot" transform="translate(140.70667,-12.565)" />   <use xlink:href="#dot" transform="translate(141.215,-12.60167)" />   <use xlink:href="#dot" transform="translate(141.0716,-12.65)" />   <use xlink:href="#dot" transform="translate(141.07166,-12.65)" />   <use xlink:href="#dot" transform="translate(140.76,-12.68833)" />   <use xlink:href="#dot" transform="translate(141.18833,-12.54833)" />   <use xlink:href="#dot" transform="translate(141.09167,-12.66166)" />   <use xlink:href="#dot" transform="translate(141.215,-12.65166)" />   <use xlink:href="#dot" transform="translate(139.70667,-11.11)" />   <use xlink:href="#dot" transform="translate(140.02833,-11.28167)" />   <use xlink:href="#dot" transform="translate(140.0283,-11.2816)" />   <use xlink:href="#dot" transform="translate(141.016667,-12.533333)" />   <use xlink:href="#dot" transform="translate(97.6775,8.660833)" />   <use xlink:href="#dot" transform="translate(109.45,18.266667)" />   <use xlink:href="#dot" transform="translate(49.8117,27.7283)" />   <use xlink:href="#dot" transform="translate(134.393,-10.507)" />   <use xlink:href="#dot" transform="translate(134.327,-10.44)" />   <use xlink:href="#dot" transform="translate(120.46,22.46)" />   <use xlink:href="#dot" transform="translate(120.46,22.46)" />   <use xlink:href="#dot" transform="translate(118.0475,-19.836665)" />   <use xlink:href="#dot" transform="translate(118.778335,-19.055835)" />   <use xlink:href="#dot" transform="translate(116.5825,-19.879165)" />   <use xlink:href="#dot" transform="translate(118.164165,-19.388335)" />   <use xlink:href="#dot" transform="translate(117.99667,-19.801665)" />   <use xlink:href="#dot" transform="translate(116.789165,-20.210835)" />   <use xlink:href="#dot" transform="translate(118.18,-19.285835)" />   <use xlink:href="#dot" transform="translate(115.505835,-20.2225)" />   <use xlink:href="#dot" transform="translate(117.205,-19.40083)" />   <use xlink:href="#dot" transform="translate(116.2575,-20.226665)" />   <use xlink:href="#dot" transform="translate(118.27333,-19.188335)" />   <use xlink:href="#dot" transform="translate(118.194165,-19.465)" />   <use xlink:href="#dot" transform="translate(117.0925,-19.56)" />   <use xlink:href="#dot" transform="translate(117.011665,-19.538335)" />   <use xlink:href="#dot" transform="translate(116.593335,-19.948335)" />   <use xlink:href="#dot" transform="translate(116.965,-19.761665)" />   <use xlink:href="#dot" transform="translate(118.6025,-18.98)" />   <use xlink:href="#dot" transform="translate(118.51,-19.17333)" />   <use xlink:href="#dot" transform="translate(116.351665,-20.04667)" />   <use xlink:href="#dot" transform="translate(117.605835,-19.65167)" />   <use xlink:href="#dot" transform="translate(118.1625,-19.058335)" />   <use xlink:href="#dot" transform="translate(118.70167,-18.943335)" />   <use xlink:href="#dot" transform="translate(117.43917,-19.5875)" />   <use xlink:href="#dot" transform="translate(116.879165,-19.54417)" />   <use xlink:href="#dot" transform="translate(116.1225,-20.14167)" />   <use xlink:href="#dot" transform="translate(117.48583,-19.901665)" />   <use xlink:href="#dot" transform="translate(116.820835,-19.99)" />   <use xlink:href="#dot" transform="translate(116.1425,-20.285)" />   <use xlink:href="#dot" transform="translate(115.76833,-20.278335)" />   <use xlink:href="#dot" transform="translate(118.115835,-19.1475)" /><polygon class="region" points="21.833158,-34.6791 -123.385,48.4148 138.832417,35.104398 138.881517,35.049011 166.476,-22.269 166.442,-22.309 152.49983,-24.047382 21.833158,-34.6791 " />
		  </g>
		</svg>