<?xml version="1.0" encoding="UTF-8"?>
	<svg xmlns:xlink="http://www.w3.org/1999/xlink" 
	xmlns="http://www.w3.org/2000/svg" 
	width="360px" height="180px">
	   <style type="text/css">
		  <![CDATA[     
		  .region 
		  { 
			fill:blue; 
			opacity:0.4; 
			stroke:blue;
		  }
		  ]]>
	   </style>

	<circle id="dot" x="-2" y="-2" r="2" style="stroke:none; stroke-width:0; fill:black; opacity:0.7;"/>


	 <image x="0" y="0" width="360" height="180" xlink:href="map.jpg"/>

 
	 <g transform="translate(180,90) scale(1,-1)"><polygon class="region" points="168.175661214,-44.982433743 168.421301005,-45.080785605 168.364242214,-45.312146675 168.675,-45.241666666 168.734470452,-45.375264485 168.770833333,-45.0125 169.208333333,-45.051991959 168.670215692,-45.669465467 168.841666667,-45.875 169.224149238,-45.455017429 169.208686659,-45.698257785 169.437865872,-45.757170274 169.379166667,-45.908333333 169.579696317,-46.169892544 169.458333334,-46.295833333 169.727210489,-46.288067288 169.819478692,-46.454262628 169.359183417,-46.642233954 169.002074517,-46.678704834 168.620833333,-46.479166667 168.714583334,-46.275014581 168.266666666,-46.375 168.458333334,-45.6875 168.27819892,-46.220437453 168.139456177,-45.958900622 168.012030877,-46.375617642 167.829166667,-46.170833333 167.225,-46.2625 167.417233955,-45.978229438 167.199395074,-45.83254598 167.691666666,-45.6125 168.103505453,-45.240767076 168.175661214,-44.982433743 " /><polygon class="region" points="169.679166667,-46.475 169.680017429,-46.478315735 169.683333333,-46.479166667 169.682482571,-46.475850932 169.679166667,-46.475 " /><polygon class="region" points="169.6875,-46.479166667 169.688361952,-46.482525634 169.694618395,-46.483900621 169.695833333,-46.479166667 169.6875,-46.479166667 " /><polygon class="region" points="169.141666666,-46.6375 169.158597819,-46.628029548 169.133333333,-46.608333333 169.145364719,-46.63125 169.141666666,-46.6375 " /><polygon class="region" points="168.163421631,-45.271312713 168.168685913,-45.199474335 168.140014649,-45.178253174 168.156265259,-45.200309753 168.163421631,-45.271312713 " /><polygon class="region" points="167.496566772,-45.812770843 167.336563111,-45.835853577 167.340362549,-45.875759125 167.409576416,-45.896881103 167.496566772,-45.812770843 " /><polygon class="region" points="167.575,-47.116666666 167.55769043,-47.08894789 167.617449951,-47.038206652 167.707052273,-47.046476237 167.787331475,-46.682665337 168.167334662,-46.89262458 168.006802707,-46.870165337 167.972162034,-46.942271593 168.23360138,-47.013300239 168.211518521,-47.125344849 167.450964356,-47.278202311 167.575,-47.116666666 " /><polygon class="region" points="167.582866754,-47.235858833 167.586111111,-47.2375 167.587145657,-47.235418702 167.586002604,-47.233078342 167.582866754,-47.235858833 " /><polygon class="region" points="168.128549195,-46.878220961 168.136111111,-46.879166667 168.137210083,-46.87630717 168.132418484,-46.874382528 168.128549195,-46.878220961 " /><polygon class="region" points="168.132677883,-46.89498291 168.144444445,-46.895833334 168.145585123,-46.892654419 168.13670756,-46.891011216 168.132677883,-46.89498291 " /><polygon class="region" points="167.929166667,-46.9625 167.956591119,-46.953813341 167.9625,-46.9375 167.956122843,-46.938067287 167.929166667,-46.9625 " /><polygon class="region" points="167.640929837,-47.207715861 167.62036404,-47.211882527 167.600786675,-47.232686361 167.654466417,-47.219928995 167.640929837,-47.207715861 " /><polygon class="region" points="167.599382528,-46.760493469 167.64502767,-46.750715637 167.665966119,-46.786509026 167.603549194,-46.790667046 167.599382528,-46.760493469 " /><polygon class="region" points="167.388483005,-47.234316339 167.433087497,-47.216011217 167.442322116,-47.217863634 167.398611111,-47.275 167.388483005,-47.234316339 " /><polygon class="region" points="166.581173197,-48.025617642 166.606965468,-48.007715691 166.633087836,-48.042858548 166.562479486,-48.036302863 166.581173197,-48.025617642 " /><polygon class="region" points="168.150998433,-46.938335842 168.121813117,-46.941064454 168.107753499,-46.927914429 168.13136461,-46.921413167 168.150998433,-46.938335842 " /><polygon class="region" points="167.351830377,-47.234025404 167.383164808,-47.207665337 167.400667996,-47.216498142 167.389609782,-47.224332004 167.351830377,-47.234025404 " /><polygon class="region" points="168.224791294,-46.910031467 168.236635674,-46.89940762 168.254719374,-46.911836412 168.225827027,-46.916047838 168.224791294,-46.910031467 " /><polygon class="region" points="168.216681925,-46.842916531 168.204916043,-46.853461711 168.225642904,-46.826002672 168.224262831,-46.840634155 168.216681925,-46.842916531 " /><polygon class="region" points="167.409259711,-47.140740289 167.407333713,-47.163117472 167.395215861,-47.16154107 167.396507433,-47.138498603 167.409259711,-47.140740289 " /><polygon class="region" points="166.501288859,-48.063322788 166.491049024,-48.065720792 166.521450975,-48.051850382 166.519874573,-48.057563273 166.501288859,-48.063322788 " /><polygon class="region" points="167.316011217,-47.228316244 167.32892083,-47.216011217 167.337728204,-47.217777846 167.327777778,-47.229166667 167.316011217,-47.228316244 " /><polygon class="region" points="167.513447401,-47.133999295 167.533333334,-47.133333333 167.52539639,-47.142297024 167.513447401,-47.133999295 " /><polygon class="region" points="167.545262316,-47.113438246 167.557395087,-47.111928982 167.556944444,-47.125 167.546613227,-47.124299113 167.545262316,-47.113438246 " /><polygon class="region" points="168.220638699,-46.863428412 168.231015693,-46.861895073 168.231944445,-46.870833334 168.221631876,-46.870149061 168.220638699,-46.863428412 " /><polygon class="region" points="167.503486125,-47.170011054 167.516577487,-47.161819458 167.521484375,-47.164873929 167.519444444,-47.170833333 167.503486125,-47.170011054 " /><polygon class="region" points="168.257954577,-46.863455539 168.268515693,-46.861895073 168.269444445,-46.870833334 168.263311429,-46.870083957 168.257954577,-46.863455539 " /><polygon class="region" points="167.4125,-47.141666667 167.413415527,-47.132690429 167.421476237,-47.134614393 167.419862536,-47.140915596 167.4125,-47.141666667 " /><polygon class="region" points="167.533333334,-47.133333333 167.534248861,-47.124357096 167.542309571,-47.12628106 167.540695868,-47.132582262 167.533333334,-47.133333333 " /><polygon class="region" points="168.241666666,-46.820833333 168.250642904,-46.821748861 168.24871894,-46.829809401 168.242417738,-46.828195868 168.241666666,-46.820833333 " /><polygon class="region" points="167.449532064,-47.201061333 167.457272,-47.199532064 167.456944444,-47.208333333 167.450828044,-47.207620578 167.449532064,-47.201061333 " /><polygon class="region" points="168.240837267,-46.812703112 168.241666666,-46.820833333 168.233049859,-46.813328892 168.240837267,-46.812703112 " /><polygon class="region" points="167.598785401,-46.749562242 167.6,-46.754166667 167.592500475,-46.753483412 167.59199117,-46.750904847 167.598785401,-46.749562242 " /><polygon class="region" points="167.7112854,-46.695395576 167.7125,-46.7 167.705000475,-46.699316746 167.704491171,-46.69673818 167.7112854,-46.695395576 " /><polygon class="region" points="168.436882358,-47.999054294 168.440751648,-47.995215861 168.445543586,-47.997140503 168.444444444,-48 168.436882358,-47.999054294 " /><polygon class="region" points="167.99953342,-46.902525499 168.002669271,-46.899745009 168.003812324,-46.902085367 168.002777778,-46.904166667 167.99953342,-46.902525499 " />
		  </g>
		</svg>