<?xml version="1.0" encoding="UTF-8"?>
	<svg xmlns:xlink="http://www.w3.org/1999/xlink" 
	xmlns="http://www.w3.org/2000/svg" 
	width="360px" height="180px">
	   <style type="text/css">
		  <![CDATA[     
		  .region 
		  { 
			fill:blue; 
			opacity:0.4; 
			stroke:blue;
		  }
		  ]]>
	   </style>

	<circle id="dot" x="-2" y="-2" r="2" style="stroke:none; stroke-width:0; fill:black; opacity:0.7;"/>


	 <image x="0" y="0" width="360" height="180" xlink:href="map.jpg"/>

 
	 <g transform="translate(180,90) scale(1,-1)">   <use xlink:href="#dot" transform="translate(167.673169,-45.956126)" />   <use xlink:href="#dot" transform="translate(168.959036,-46.045563)" />   <use xlink:href="#dot" transform="translate(168.946973,-46.024252)" />   <use xlink:href="#dot" transform="translate(167.893197,-45.369384)" />   <use xlink:href="#dot" transform="translate(169.03797,-46.20682)" />   <use xlink:href="#dot" transform="translate(167.901916,-45.358513)" />   <use xlink:href="#dot" transform="translate(167.671709,-45.967562)" />   <use xlink:href="#dot" transform="translate(168.965373,-46.062358)" />   <use xlink:href="#dot" transform="translate(168.955981,-46.039082)" />   <use xlink:href="#dot" transform="translate(167.670706,-45.716663)" />   <use xlink:href="#dot" transform="translate(168.63716,-46.479865)" />   <use xlink:href="#dot" transform="translate(168.63716,-46.479865)" />   <use xlink:href="#dot" transform="translate(167.686638,-46.016654)" />   <use xlink:href="#dot" transform="translate(169.071722,-45.175417)" />   <use xlink:href="#dot" transform="translate(169.044741,-45.162007)" />   <use xlink:href="#dot" transform="translate(169.043764,-45.149488)" />   <use xlink:href="#dot" transform="translate(168.302616,-46.199567)" />   <use xlink:href="#dot" transform="translate(168.570186,-46.347619)" />   <use xlink:href="#dot" transform="translate(168.462442,-45.501394)" />   <use xlink:href="#dot" transform="translate(168.080097,-45.60377)" />   <use xlink:href="#dot" transform="translate(168.462596,-45.500247)" />   <use xlink:href="#dot" transform="translate(169.053196,-45.148398)" />   <use xlink:href="#dot" transform="translate(168.944681,-45.212055)" />   <use xlink:href="#dot" transform="translate(169.0268,-45.145636)" />   <use xlink:href="#dot" transform="translate(168.977409,-45.144237)" />   <use xlink:href="#dot" transform="translate(169.01808,-45.198378)" />   <use xlink:href="#dot" transform="translate(169.043166,-45.149103)" />   <use xlink:href="#dot" transform="translate(168.9443,-45.212222)" />   <use xlink:href="#dot" transform="translate(168.994287,-45.153739)" />   <use xlink:href="#dot" transform="translate(169.053196,-45.148398)" />   <use xlink:href="#dot" transform="translate(169.053196,-45.148398)" />   <use xlink:href="#dot" transform="translate(168.946024,-45.210534)" />   <use xlink:href="#dot" transform="translate(168.947056,-45.204677)" />   <use xlink:href="#dot" transform="translate(168.954497,-45.201224)" />   <use xlink:href="#dot" transform="translate(168.811011,-45.870653)" />   <use xlink:href="#dot" transform="translate(168.813999,-45.912338)" />   <use xlink:href="#dot" transform="translate(167.886609,-45.390105)" />   <use xlink:href="#dot" transform="translate(168.78223,-45.726937)" />   <use xlink:href="#dot" transform="translate(167.879422,-45.39078)" />   <use xlink:href="#dot" transform="translate(168.336673,-45.220758)" />   <use xlink:href="#dot" transform="translate(168.80838,-45.726278)" />   <use xlink:href="#dot" transform="translate(168.336535,-45.227874)" />   <use xlink:href="#dot" transform="translate(168.336819,-45.221008)" />   <use xlink:href="#dot" transform="translate(168.814407,-45.911703)" />   <use xlink:href="#dot" transform="translate(168.33625,-45.220949)" />   <use xlink:href="#dot" transform="translate(168.787189,-45.712942)" />   <use xlink:href="#dot" transform="translate(168.336603,-45.220999)" />   <use xlink:href="#dot" transform="translate(168.34231,-45.222986)" />   <use xlink:href="#dot" transform="translate(167.852426,-45.411813)" />   <use xlink:href="#dot" transform="translate(168.752196,-46.38758)" />   <use xlink:href="#dot" transform="translate(168.692654,-46.062415)" />   <use xlink:href="#dot" transform="translate(168.247839,-45.820607)" />   <use xlink:href="#dot" transform="translate(168.694406,-45.9601)" />   <use xlink:href="#dot" transform="translate(168.645012,-46.332431)" />   <use xlink:href="#dot" transform="translate(168.645012,-46.332431)" />   <use xlink:href="#dot" transform="translate(168.661277,-46.332513)" />   <use xlink:href="#dot" transform="translate(168.661277,-46.332513)" />   <use xlink:href="#dot" transform="translate(168.661277,-46.332513)" />   <use xlink:href="#dot" transform="translate(168.661277,-46.332513)" />   <use xlink:href="#dot" transform="translate(168.645012,-46.332431)" />   <use xlink:href="#dot" transform="translate(168.601439,-45.886493)" />   <use xlink:href="#dot" transform="translate(168.029913,-44.92883)" />   <use xlink:href="#dot" transform="translate(168.081208,-45.458852)" />   <use xlink:href="#dot" transform="translate(168.138104,-45.351986)" />   <use xlink:href="#dot" transform="translate(169.017952,-45.198391)" />   <use xlink:href="#dot" transform="translate(168.977957,-45.14404)" />   <use xlink:href="#dot" transform="translate(168.947249,-45.204657)" />   <use xlink:href="#dot" transform="translate(169.043214,-45.14915)" />   <use xlink:href="#dot" transform="translate(168.954539,-45.201171)" />   <use xlink:href="#dot" transform="translate(169.043214,-45.14915)" />   <use xlink:href="#dot" transform="translate(168.086108,-45.388724)" />   <use xlink:href="#dot" transform="translate(169.043214,-45.14915)" />   <use xlink:href="#dot" transform="translate(168.729349,-45.915635)" />   <use xlink:href="#dot" transform="translate(168.977957,-45.14404)" />   <use xlink:href="#dot" transform="translate(168.994461,-45.153799)" />   <use xlink:href="#dot" transform="translate(168.977957,-45.14404)" />   <use xlink:href="#dot" transform="translate(168.994461,-45.153799)" />   <use xlink:href="#dot" transform="translate(168.947249,-45.204657)" />   <use xlink:href="#dot" transform="translate(168.107148,-45.367017)" />   <use xlink:href="#dot" transform="translate(168.954539,-45.201171)" />   <use xlink:href="#dot" transform="translate(168.947249,-45.204657)" />   <use xlink:href="#dot" transform="translate(168.954539,-45.201171)" />   <use xlink:href="#dot" transform="translate(168.107275,-45.367023)" />   <use xlink:href="#dot" transform="translate(168.140846,-45.349933)" />   <use xlink:href="#dot" transform="translate(168.994461,-45.153799)" />   <use xlink:href="#dot" transform="translate(168.796393,-45.95828)" />   <use xlink:href="#dot" transform="translate(168.138043,-45.351947)" />   <use xlink:href="#dot" transform="translate(169.017952,-45.198391)" />   <use xlink:href="#dot" transform="translate(169.017952,-45.198391)" />   <use xlink:href="#dot" transform="translate(169.213065,-46.465289)" />   <use xlink:href="#dot" transform="translate(169.158536,-46.393386)" />   <use xlink:href="#dot" transform="translate(169.15531,-46.39548)" />   <use xlink:href="#dot" transform="translate(168.644598,-46.359111)" />   <use xlink:href="#dot" transform="translate(169.296484,-46.337296)" />   <use xlink:href="#dot" transform="translate(168.644598,-46.359111)" />   <use xlink:href="#dot" transform="translate(168.645012,-46.332431)" />   <use xlink:href="#dot" transform="translate(168.138699,-45.351975)" />   <use xlink:href="#dot" transform="translate(168.684817,-46.334416)" />   <use xlink:href="#dot" transform="translate(169.4881,-46.348406)" />   <use xlink:href="#dot" transform="translate(169.570067,-46.500544)" />   <use xlink:href="#dot" transform="translate(169.484225,-46.350751)" />   <use xlink:href="#dot" transform="translate(169.568596,-46.497657)" />   <use xlink:href="#dot" transform="translate(169.570125,-46.500437)" />   <use xlink:href="#dot" transform="translate(169.618267,-46.400984)" />   <use xlink:href="#dot" transform="translate(169.465864,-46.349697)" />   <use xlink:href="#dot" transform="translate(169.620388,-46.402088)" />   <use xlink:href="#dot" transform="translate(168.570186,-46.347619)" />   <use xlink:href="#dot" transform="translate(169.570404,-46.504055)" />   <use xlink:href="#dot" transform="translate(169.548577,-46.503404)" />   <use xlink:href="#dot" transform="translate(169.567138,-46.498056)" />   <use xlink:href="#dot" transform="translate(169.566649,-46.498168)" />   <use xlink:href="#dot" transform="translate(169.516213,-46.496357)" />   <use xlink:href="#dot" transform="translate(169.56773,-46.497983)" />   <use xlink:href="#dot" transform="translate(169.469457,-46.350046)" />   <use xlink:href="#dot" transform="translate(169.569611,-46.501179)" />   <use xlink:href="#dot" transform="translate(169.486035,-46.349219)" />   <use xlink:href="#dot" transform="translate(169.569818,-46.50078)" />   <use xlink:href="#dot" transform="translate(169.544509,-46.495193)" />   <use xlink:href="#dot" transform="translate(169.056979,-45.897634)" />   <use xlink:href="#dot" transform="translate(168.684817,-46.334416)" />   <use xlink:href="#dot" transform="translate(168.684817,-46.334416)" />   <use xlink:href="#dot" transform="translate(168.753514,-45.925636)" />   <use xlink:href="#dot" transform="translate(168.477741,-45.626977)" />   <use xlink:href="#dot" transform="translate(168.13032,-45.580639)" />   <use xlink:href="#dot" transform="translate(168.246931,-46.319181)" />   <use xlink:href="#dot" transform="translate(168.335593,-45.766592)" />   <use xlink:href="#dot" transform="translate(168.090844,-45.650959)" />   <use xlink:href="#dot" transform="translate(169.017371,-45.198696)" />   <use xlink:href="#dot" transform="translate(169.017371,-45.198696)" />   <use xlink:href="#dot" transform="translate(169.017371,-45.198696)" />   <use xlink:href="#dot" transform="translate(168.818762,-45.738939)" />   <use xlink:href="#dot" transform="translate(169.017371,-45.198696)" />   <use xlink:href="#dot" transform="translate(169.017952,-45.198391)" />   <use xlink:href="#dot" transform="translate(168.954539,-45.201171)" />   <use xlink:href="#dot" transform="translate(169.053196,-45.148398)" />   <use xlink:href="#dot" transform="translate(168.947249,-45.204657)" />   <use xlink:href="#dot" transform="translate(169.026457,-45.145624)" />   <use xlink:href="#dot" transform="translate(169.043214,-45.14915)" />   <use xlink:href="#dot" transform="translate(169.043214,-45.14915)" />   <use xlink:href="#dot" transform="translate(169.017952,-45.198391)" />   <use xlink:href="#dot" transform="translate(169.026457,-45.145624)" />   <use xlink:href="#dot" transform="translate(168.947249,-45.204657)" />   <use xlink:href="#dot" transform="translate(169.017952,-45.198391)" />   <use xlink:href="#dot" transform="translate(168.994461,-45.153799)" />   <use xlink:href="#dot" transform="translate(168.954539,-45.201171)" />   <use xlink:href="#dot" transform="translate(168.977957,-45.14404)" />   <use xlink:href="#dot" transform="translate(168.977957,-45.14404)" />   <use xlink:href="#dot" transform="translate(169.026457,-45.145624)" />   <use xlink:href="#dot" transform="translate(168.977957,-45.14404)" />   <use xlink:href="#dot" transform="translate(169.053196,-45.148398)" />   <use xlink:href="#dot" transform="translate(169.026457,-45.145624)" />   <use xlink:href="#dot" transform="translate(168.947249,-45.204657)" />   <use xlink:href="#dot" transform="translate(168.994461,-45.153799)" />   <use xlink:href="#dot" transform="translate(168.994461,-45.153799)" />   <use xlink:href="#dot" transform="translate(169.017952,-45.198391)" />   <use xlink:href="#dot" transform="translate(168.954539,-45.201171)" />   <use xlink:href="#dot" transform="translate(169.043214,-45.14915)" />   <use xlink:href="#dot" transform="translate(169.053196,-45.148398)" />   <use xlink:href="#dot" transform="translate(168.750549,-45.957675)" />   <use xlink:href="#dot" transform="translate(168.159114,-45.658741)" />   <use xlink:href="#dot" transform="translate(168.015406,-45.953383)" />   <use xlink:href="#dot" transform="translate(168.343039,-45.635834)" />   <use xlink:href="#dot" transform="translate(167.642656,-46.10308)" />   <use xlink:href="#dot" transform="translate(168.736018,-45.904975)" />   <use xlink:href="#dot" transform="translate(167.661347,-46.080037)" />   <use xlink:href="#dot" transform="translate(168.955405,-46.038954)" />   <use xlink:href="#dot" transform="translate(168.88995,-45.302978)" />   <use xlink:href="#dot" transform="translate(168.910642,-45.287794)" />   <use xlink:href="#dot" transform="translate(167.670852,-45.714389)" />   <use xlink:href="#dot" transform="translate(168.889724,-45.303817)" />   <use xlink:href="#dot" transform="translate(168.991636,-46.510554)" />   <use xlink:href="#dot" transform="translate(168.085439,-45.420656)" />   <use xlink:href="#dot" transform="translate(168.814473,-45.958604)" />   <use xlink:href="#dot" transform="translate(168.788537,-45.927563)" />   <use xlink:href="#dot" transform="translate(168.782646,-45.915478)" />   <use xlink:href="#dot" transform="translate(168.764393,-45.910066)" />   <use xlink:href="#dot" transform="translate(168.754156,-45.898391)" />   <use xlink:href="#dot" transform="translate(168.817871,-45.960553)" />   <use xlink:href="#dot" transform="translate(168.813196,-45.955928)" />   <use xlink:href="#dot" transform="translate(167.860401,-45.5899)" />   <use xlink:href="#dot" transform="translate(169.211142,-46.325243)" />   <use xlink:href="#dot" transform="translate(169.400968,-46.442094)" />   <use xlink:href="#dot" transform="translate(168.126058,-45.968426)" />   <use xlink:href="#dot" transform="translate(168.018301,-45.745029)" />   <use xlink:href="#dot" transform="translate(168.05671,-45.744667)" />   <use xlink:href="#dot" transform="translate(168.03351,-45.747493)" />   <use xlink:href="#dot" transform="translate(169.551906,-46.400797)" />   <use xlink:href="#dot" transform="translate(168.608509,-45.324967)" />   <use xlink:href="#dot" transform="translate(168.750572,-45.957681)" />   <use xlink:href="#dot" transform="translate(168.729453,-45.939242)" />   <use xlink:href="#dot" transform="translate(168.019522,-45.959831)" />   <use xlink:href="#dot" transform="translate(168.023724,-45.952843)" />   <use xlink:href="#dot" transform="translate(168.023322,-45.948697)" />   <use xlink:href="#dot" transform="translate(168.023287,-45.948804)" />   <use xlink:href="#dot" transform="translate(168.020949,-45.96466)" />   <use xlink:href="#dot" transform="translate(168.015321,-45.953172)" />   <use xlink:href="#dot" transform="translate(168.025065,-45.972461)" />   <use xlink:href="#dot" transform="translate(167.647801,-46.049125)" />   <use xlink:href="#dot" transform="translate(168.818111,-45.960615)" />   <use xlink:href="#dot" transform="translate(168.814473,-45.958604)" />   <use xlink:href="#dot" transform="translate(168.302434,-46.199759)" />   <use xlink:href="#dot" transform="translate(168.185997,-46.057173)" />   <use xlink:href="#dot" transform="translate(168.085733,-45.420218)" />   <use xlink:href="#dot" transform="translate(168.749161,-45.897706)" />   <use xlink:href="#dot" transform="translate(168.254259,-45.782129)" />   <use xlink:href="#dot" transform="translate(168.962217,-46.107624)" />   <use xlink:href="#dot" transform="translate(168.962217,-46.107624)" />   <use xlink:href="#dot" transform="translate(168.97683,-45.144136)" />   <use xlink:href="#dot" transform="translate(168.994835,-45.153731)" />   <use xlink:href="#dot" transform="translate(168.97683,-45.144136)" />   <use xlink:href="#dot" transform="translate(168.994835,-45.153731)" />   <use xlink:href="#dot" transform="translate(168.97683,-45.144136)" />   <use xlink:href="#dot" transform="translate(168.994835,-45.153731)" />   <use xlink:href="#dot" transform="translate(168.994835,-45.153731)" />   <use xlink:href="#dot" transform="translate(169.16824,-46.355206)" />   <use xlink:href="#dot" transform="translate(168.247734,-45.776601)" />   <use xlink:href="#dot" transform="translate(169.217056,-46.30578)" />   <use xlink:href="#dot" transform="translate(168.782679,-46.185374)" />   <use xlink:href="#dot" transform="translate(168.210122,-45.790961)" />   <use xlink:href="#dot" transform="translate(169.104055,-46.419279)" />   <use xlink:href="#dot" transform="translate(168.730447,-46.178576)" />   <use xlink:href="#dot" transform="translate(168.085181,-45.742671)" />   <use xlink:href="#dot" transform="translate(168.907584,-45.268622)" />   <use xlink:href="#dot" transform="translate(168.880581,-45.296405)" />   <use xlink:href="#dot" transform="translate(168.903422,-45.302525)" />   <use xlink:href="#dot" transform="translate(168.813381,-45.955862)" />   <use xlink:href="#dot" transform="translate(168.255749,-45.303481)" />   <use xlink:href="#dot" transform="translate(168.215829,-45.646988)" />   <use xlink:href="#dot" transform="translate(167.931377,-45.535219)" />   <use xlink:href="#dot" transform="translate(168.114689,-45.362211)" />   <use xlink:href="#dot" transform="translate(168.209295,-45.326762)" />   <use xlink:href="#dot" transform="translate(167.868561,-45.548248)" />   <use xlink:href="#dot" transform="translate(168.085531,-45.420435)" />   <use xlink:href="#dot" transform="translate(168.166088,-45.408618)" />   <use xlink:href="#dot" transform="translate(168.131065,-45.438484)" />   <use xlink:href="#dot" transform="translate(168.100916,-45.366139)" />   <use xlink:href="#dot" transform="translate(168.178268,-45.537926)" />   <use xlink:href="#dot" transform="translate(167.932835,-45.53586)" />   <use xlink:href="#dot" transform="translate(167.969246,-45.518486)" />   <use xlink:href="#dot" transform="translate(168.031467,-45.487259)" />   <use xlink:href="#dot" transform="translate(168.215485,-45.36118)" />   <use xlink:href="#dot" transform="translate(169.256082,-46.326904)" />   <use xlink:href="#dot" transform="translate(169.296608,-46.336875)" />   <use xlink:href="#dot" transform="translate(168.709232,-45.360739)" />   <use xlink:href="#dot" transform="translate(167.901605,-45.358615)" />   <use xlink:href="#dot" transform="translate(167.926471,-45.337154)" />   <use xlink:href="#dot" transform="translate(169.00421,-45.953783)" />   <use xlink:href="#dot" transform="translate(168.682278,-45.381984)" />   <use xlink:href="#dot" transform="translate(169.037499,-45.934554)" />   <use xlink:href="#dot" transform="translate(168.979518,-46.554329)" />   <use xlink:href="#dot" transform="translate(168.991592,-46.510394)" />   <use xlink:href="#dot" transform="translate(169.199598,-46.542733)" />   <use xlink:href="#dot" transform="translate(169.374069,-46.322878)" />   <use xlink:href="#dot" transform="translate(169.55399,-46.400223)" />   <use xlink:href="#dot" transform="translate(168.381677,-45.802834)" />   <use xlink:href="#dot" transform="translate(168.892109,-46.589946)" />   <use xlink:href="#dot" transform="translate(169.492383,-46.343513)" />   <use xlink:href="#dot" transform="translate(169.145447,-46.475127)" />   <use xlink:href="#dot" transform="translate(168.082755,-45.612637)" />   <use xlink:href="#dot" transform="translate(168.093902,-45.637671)" />   <use xlink:href="#dot" transform="translate(168.081929,-45.605175)" />   <use xlink:href="#dot" transform="translate(169.491086,-46.343475)" />   <use xlink:href="#dot" transform="translate(169.573251,-46.382767)" />   <use xlink:href="#dot" transform="translate(168.892072,-46.590089)" />   <use xlink:href="#dot" transform="translate(169.145447,-46.475127)" />   <use xlink:href="#dot" transform="translate(169.441569,-46.303294)" />   <use xlink:href="#dot" transform="translate(169.552637,-46.401084)" />   <use xlink:href="#dot" transform="translate(169.601347,-46.391669)" />   <use xlink:href="#dot" transform="translate(169.19962,-46.542598)" />   <use xlink:href="#dot" transform="translate(169.358576,-46.218848)" />   <use xlink:href="#dot" transform="translate(169.547813,-46.351425)" />   <use xlink:href="#dot" transform="translate(169.473495,-46.312343)" />   <use xlink:href="#dot" transform="translate(169.374069,-46.322878)" />   <use xlink:href="#dot" transform="translate(168.90601,-46.577957)" />   <use xlink:href="#dot" transform="translate(168.991698,-46.510601)" />   <use xlink:href="#dot" transform="translate(169.540793,-46.361127)" />   <use xlink:href="#dot" transform="translate(169.098914,-46.545668)" />   <use xlink:href="#dot" transform="translate(167.843661,-46.907384)" />   <use xlink:href="#dot" transform="translate(168.79941,-45.956672)" />   <use xlink:href="#dot" transform="translate(168.409051,-45.683549)" />   <use xlink:href="#dot" transform="translate(168.73603,-45.905107)" />   <use xlink:href="#dot" transform="translate(168.387264,-45.727738)" />   <use xlink:href="#dot" transform="translate(168.34366,-45.635642)" />   <use xlink:href="#dot" transform="translate(168.159082,-45.658831)" />   <use xlink:href="#dot" transform="translate(168.420586,-45.735406)" />   <use xlink:href="#dot" transform="translate(168.427618,-45.637889)" />   <use xlink:href="#dot" transform="translate(168.391454,-45.724099)" />   <use xlink:href="#dot" transform="translate(168.415924,-45.682809)" />   <use xlink:href="#dot" transform="translate(169.311166,-46.33086)" />   <use xlink:href="#dot" transform="translate(169.317076,-46.340047)" />   <use xlink:href="#dot" transform="translate(168.033619,-45.487432)" />   <use xlink:href="#dot" transform="translate(168.276443,-45.166718)" />   <use xlink:href="#dot" transform="translate(168.502066,-45.988554)" />   <use xlink:href="#dot" transform="translate(168.94634,-45.169478)" />   <use xlink:href="#dot" transform="translate(168.976711,-45.144124)" />   <use xlink:href="#dot" transform="translate(168.984564,-45.180398)" />   <use xlink:href="#dot" transform="translate(168.269456,-45.142997)" />   <use xlink:href="#dot" transform="translate(168.273218,-45.159376)" />   <use xlink:href="#dot" transform="translate(169.043094,-45.188562)" />   <use xlink:href="#dot" transform="translate(168.930172,-45.217875)" /><polygon class="region" points="167.843661,-46.907384 167.642656,-46.10308 167.670852,-45.714389 168.029913,-44.92883 169.053196,-45.148398 169.071722,-45.175417 169.620388,-46.402088 169.570404,-46.504055 167.843661,-46.907384 " />
		  </g>
		</svg>