<?xml version="1.0" encoding="UTF-8"?>
	<svg xmlns:xlink="http://www.w3.org/1999/xlink" 
	xmlns="http://www.w3.org/2000/svg" 
	width="360px" height="180px">
	   <style type="text/css">
		  <![CDATA[     
		  .region 
		  { 
			fill:blue; 
			opacity:0.4; 
			stroke:blue;
		  }
		  ]]>
	   </style>

	<circle id="dot" x="-2" y="-2" r="2" style="stroke:none; stroke-width:0; fill:black; opacity:0.7;"/>


	 <image x="0" y="0" width="360" height="180" xlink:href="map.jpg"/>

 
	 <g transform="translate(180,90) scale(1,-1)">   <use xlink:href="#dot" transform="translate(169.916751,-45.888214)" />   <use xlink:href="#dot" transform="translate(169.913025,-45.889851)" />   <use xlink:href="#dot" transform="translate(169.913119,-45.890258)" />   <use xlink:href="#dot" transform="translate(169.917097,-45.888242)" />   <use xlink:href="#dot" transform="translate(169.913104,-45.89006)" />   <use xlink:href="#dot" transform="translate(169.930739,-45.891192)" />   <use xlink:href="#dot" transform="translate(169.938479,-45.895064)" />   <use xlink:href="#dot" transform="translate(169.931498,-45.9398)" />   <use xlink:href="#dot" transform="translate(169.887694,-45.971935)" />   <use xlink:href="#dot" transform="translate(169.894068,-45.879472)" />   <use xlink:href="#dot" transform="translate(169.89377,-45.879977)" />   <use xlink:href="#dot" transform="translate(169.887076,-45.880297)" />   <use xlink:href="#dot" transform="translate(169.888137,-45.879506)" />   <use xlink:href="#dot" transform="translate(170.012843,-45.87878)" />   <use xlink:href="#dot" transform="translate(170.009951,-45.873583)" />   <use xlink:href="#dot" transform="translate(170.465895,-45.806816)" />   <use xlink:href="#dot" transform="translate(170.465895,-45.806816)" />   <use xlink:href="#dot" transform="translate(170.465895,-45.806816)" />   <use xlink:href="#dot" transform="translate(170.458746,-45.810219)" />   <use xlink:href="#dot" transform="translate(170.464311,-45.801508)" />   <use xlink:href="#dot" transform="translate(170.464311,-45.801508)" />   <use xlink:href="#dot" transform="translate(169.847918,-45.740743)" />   <use xlink:href="#dot" transform="translate(169.847109,-45.729808)" />   <use xlink:href="#dot" transform="translate(169.81474,-45.621143)" />   <use xlink:href="#dot" transform="translate(169.81474,-45.621143)" />   <use xlink:href="#dot" transform="translate(170.458746,-45.810219)" />   <use xlink:href="#dot" transform="translate(169.884072,-45.592358)" />   <use xlink:href="#dot" transform="translate(169.846598,-45.73852)" />   <use xlink:href="#dot" transform="translate(169.847918,-45.740743)" />   <use xlink:href="#dot" transform="translate(169.847109,-45.729808)" />   <use xlink:href="#dot" transform="translate(169.884072,-45.592358)" />   <use xlink:href="#dot" transform="translate(169.81474,-45.621143)" />   <use xlink:href="#dot" transform="translate(169.846598,-45.73852)" />   <use xlink:href="#dot" transform="translate(170.464311,-45.801508)" />   <use xlink:href="#dot" transform="translate(169.884072,-45.592358)" />   <use xlink:href="#dot" transform="translate(170.458746,-45.810219)" />   <use xlink:href="#dot" transform="translate(169.847109,-45.729808)" />   <use xlink:href="#dot" transform="translate(169.847918,-45.740743)" />   <use xlink:href="#dot" transform="translate(169.846598,-45.73852)" />   <use xlink:href="#dot" transform="translate(169.903393,-45.586445)" />   <use xlink:href="#dot" transform="translate(169.903393,-45.586445)" />   <use xlink:href="#dot" transform="translate(169.903393,-45.586445)" />   <use xlink:href="#dot" transform="translate(169.903393,-45.586445)" />   <use xlink:href="#dot" transform="translate(170.065417,-45.877101)" />   <use xlink:href="#dot" transform="translate(170.091012,-45.596122)" />   <use xlink:href="#dot" transform="translate(169.903756,-45.574047)" />   <use xlink:href="#dot" transform="translate(169.903756,-45.574047)" />   <use xlink:href="#dot" transform="translate(169.81474,-45.621143)" />   <use xlink:href="#dot" transform="translate(169.908513,-45.584202)" />   <use xlink:href="#dot" transform="translate(169.884072,-45.592358)" />   <use xlink:href="#dot" transform="translate(169.903393,-45.586445)" />   <use xlink:href="#dot" transform="translate(169.903393,-45.586445)" />   <use xlink:href="#dot" transform="translate(169.903393,-45.586445)" />   <use xlink:href="#dot" transform="translate(169.822974,-45.747037)" />   <use xlink:href="#dot" transform="translate(169.884072,-45.592358)" />   <use xlink:href="#dot" transform="translate(169.884072,-45.592358)" />   <use xlink:href="#dot" transform="translate(169.81474,-45.621143)" />   <use xlink:href="#dot" transform="translate(169.808583,-45.753809)" />   <use xlink:href="#dot" transform="translate(169.908513,-45.584202)" />   <use xlink:href="#dot" transform="translate(169.908513,-45.584202)" />   <use xlink:href="#dot" transform="translate(169.81474,-45.621143)" />   <use xlink:href="#dot" transform="translate(169.908513,-45.584202)" />   <use xlink:href="#dot" transform="translate(169.816776,-45.752183)" />   <use xlink:href="#dot" transform="translate(169.901663,-45.588345)" />   <use xlink:href="#dot" transform="translate(169.899166,-45.588045)" />   <use xlink:href="#dot" transform="translate(169.847774,-45.740316)" />   <use xlink:href="#dot" transform="translate(169.901663,-45.588345)" />   <use xlink:href="#dot" transform="translate(169.901663,-45.588345)" />   <use xlink:href="#dot" transform="translate(169.899166,-45.588045)" />   <use xlink:href="#dot" transform="translate(169.899166,-45.588045)" />   <use xlink:href="#dot" transform="translate(169.901663,-45.588345)" />   <use xlink:href="#dot" transform="translate(169.908513,-45.584202)" />   <use xlink:href="#dot" transform="translate(169.903393,-45.586445)" />   <use xlink:href="#dot" transform="translate(169.903393,-45.586445)" />   <use xlink:href="#dot" transform="translate(169.908513,-45.584202)" />   <use xlink:href="#dot" transform="translate(169.81474,-45.621143)" />   <use xlink:href="#dot" transform="translate(169.899166,-45.588045)" />   <use xlink:href="#dot" transform="translate(169.81474,-45.621143)" />   <use xlink:href="#dot" transform="translate(169.899166,-45.588045)" />   <use xlink:href="#dot" transform="translate(169.899166,-45.588045)" />   <use xlink:href="#dot" transform="translate(169.903393,-45.586445)" />   <use xlink:href="#dot" transform="translate(169.908513,-45.584202)" />   <use xlink:href="#dot" transform="translate(170.217298,-45.829484)" />   <use xlink:href="#dot" transform="translate(169.81474,-45.621143)" />   <use xlink:href="#dot" transform="translate(170.218908,-45.830827)" />   <use xlink:href="#dot" transform="translate(170.128559,-45.824589)" />   <use xlink:href="#dot" transform="translate(169.908513,-45.584202)" />   <use xlink:href="#dot" transform="translate(169.903393,-45.586445)" />   <use xlink:href="#dot" transform="translate(169.901663,-45.588345)" />   <use xlink:href="#dot" transform="translate(169.901663,-45.588345)" />   <use xlink:href="#dot" transform="translate(169.899166,-45.588045)" />   <use xlink:href="#dot" transform="translate(169.931183,-45.9399)" />   <use xlink:href="#dot" transform="translate(169.884072,-45.592358)" />   <use xlink:href="#dot" transform="translate(169.943638,-45.752503)" />   <use xlink:href="#dot" transform="translate(169.884072,-45.592358)" />   <use xlink:href="#dot" transform="translate(169.896829,-45.771682)" />   <use xlink:href="#dot" transform="translate(169.884072,-45.592358)" />   <use xlink:href="#dot" transform="translate(169.950208,-45.908157)" />   <use xlink:href="#dot" transform="translate(169.943647,-45.751108)" />   <use xlink:href="#dot" transform="translate(170.208699,-45.820821)" />   <use xlink:href="#dot" transform="translate(170.458333,-45.810238)" />   <use xlink:href="#dot" transform="translate(169.846276,-45.741852)" />   <use xlink:href="#dot" transform="translate(169.970782,-45.964949)" />   <use xlink:href="#dot" transform="translate(169.824387,-45.731768)" />   <use xlink:href="#dot" transform="translate(169.808517,-45.753852)" />   <use xlink:href="#dot" transform="translate(169.89574,-45.769177)" />   <use xlink:href="#dot" transform="translate(169.816783,-45.752048)" />   <use xlink:href="#dot" transform="translate(169.848406,-45.744069)" />   <use xlink:href="#dot" transform="translate(169.980939,-45.726403)" />   <use xlink:href="#dot" transform="translate(169.827228,-45.629105)" />   <use xlink:href="#dot" transform="translate(169.943871,-45.751744)" />   <use xlink:href="#dot" transform="translate(170.457743,-45.810495)" />   <use xlink:href="#dot" transform="translate(169.899166,-45.588045)" />   <use xlink:href="#dot" transform="translate(169.901663,-45.588345)" />   <use xlink:href="#dot" transform="translate(169.901663,-45.588345)" />   <use xlink:href="#dot" transform="translate(169.901663,-45.588345)" />   <use xlink:href="#dot" transform="translate(169.899166,-45.588045)" />   <use xlink:href="#dot" transform="translate(169.899166,-45.588045)" />   <use xlink:href="#dot" transform="translate(169.884072,-45.592358)" />   <use xlink:href="#dot" transform="translate(169.81474,-45.621143)" />   <use xlink:href="#dot" transform="translate(169.884072,-45.592358)" />   <use xlink:href="#dot" transform="translate(169.847918,-45.740743)" />   <use xlink:href="#dot" transform="translate(169.846598,-45.73852)" />   <use xlink:href="#dot" transform="translate(169.903393,-45.586445)" />   <use xlink:href="#dot" transform="translate(169.903393,-45.586445)" />   <use xlink:href="#dot" transform="translate(169.847918,-45.740743)" />   <use xlink:href="#dot" transform="translate(169.903393,-45.586445)" />   <use xlink:href="#dot" transform="translate(169.847918,-45.740743)" />   <use xlink:href="#dot" transform="translate(169.847109,-45.729808)" />   <use xlink:href="#dot" transform="translate(170.065417,-45.877101)" />   <use xlink:href="#dot" transform="translate(169.908513,-45.584202)" />   <use xlink:href="#dot" transform="translate(169.938114,-45.895378)" />   <use xlink:href="#dot" transform="translate(169.81474,-45.621143)" />   <use xlink:href="#dot" transform="translate(169.846598,-45.73852)" />   <use xlink:href="#dot" transform="translate(169.81474,-45.621143)" />   <use xlink:href="#dot" transform="translate(169.81474,-45.621143)" />   <use xlink:href="#dot" transform="translate(169.884072,-45.592358)" />   <use xlink:href="#dot" transform="translate(169.847109,-45.729808)" />   <use xlink:href="#dot" transform="translate(169.847109,-45.729808)" />   <use xlink:href="#dot" transform="translate(169.908513,-45.584202)" />   <use xlink:href="#dot" transform="translate(169.908513,-45.584202)" />   <use xlink:href="#dot" transform="translate(169.903393,-45.586445)" />   <use xlink:href="#dot" transform="translate(169.847109,-45.729808)" />   <use xlink:href="#dot" transform="translate(169.846598,-45.73852)" />   <use xlink:href="#dot" transform="translate(170.458746,-45.810219)" />   <use xlink:href="#dot" transform="translate(170.465895,-45.806816)" />   <use xlink:href="#dot" transform="translate(170.465895,-45.806816)" />   <use xlink:href="#dot" transform="translate(170.458746,-45.810219)" />   <use xlink:href="#dot" transform="translate(170.465895,-45.806816)" />   <use xlink:href="#dot" transform="translate(170.458746,-45.810219)" />   <use xlink:href="#dot" transform="translate(170.464311,-45.801508)" />   <use xlink:href="#dot" transform="translate(169.809708,-45.768687)" />   <use xlink:href="#dot" transform="translate(169.810198,-45.768439)" />   <use xlink:href="#dot" transform="translate(170.464311,-45.801508)" />   <use xlink:href="#dot" transform="translate(169.794489,-45.762838)" />   <use xlink:href="#dot" transform="translate(169.774191,-45.714636)" />   <use xlink:href="#dot" transform="translate(169.774943,-45.756437)" />   <use xlink:href="#dot" transform="translate(169.789447,-45.72862)" />   <use xlink:href="#dot" transform="translate(169.796585,-45.747695)" />   <use xlink:href="#dot" transform="translate(169.818046,-45.758817)" />   <use xlink:href="#dot" transform="translate(169.779363,-45.733569)" />   <use xlink:href="#dot" transform="translate(169.808583,-45.754052)" />   <use xlink:href="#dot" transform="translate(169.757673,-45.701515)" />   <use xlink:href="#dot" transform="translate(169.798142,-45.74582)" />   <use xlink:href="#dot" transform="translate(170.464311,-45.801508)" />   <use xlink:href="#dot" transform="translate(169.780201,-45.732826)" />   <use xlink:href="#dot" transform="translate(169.797783,-45.671389)" />   <use xlink:href="#dot" transform="translate(169.814183,-45.687121)" />   <use xlink:href="#dot" transform="translate(169.846366,-45.741845)" />   <use xlink:href="#dot" transform="translate(169.854846,-45.620559)" />   <use xlink:href="#dot" transform="translate(169.82901,-45.634087)" />   <use xlink:href="#dot" transform="translate(169.941022,-45.944204)" />   <use xlink:href="#dot" transform="translate(169.943597,-45.750837)" />   <use xlink:href="#dot" transform="translate(170.457427,-45.810353)" />   <use xlink:href="#dot" transform="translate(170.404345,-45.607404)" />   <use xlink:href="#dot" transform="translate(170.464311,-45.801508)" />   <use xlink:href="#dot" transform="translate(170.464311,-45.801508)" />   <use xlink:href="#dot" transform="translate(170.464311,-45.801508)" />   <use xlink:href="#dot" transform="translate(170.458746,-45.810219)" />   <use xlink:href="#dot" transform="translate(170.465895,-45.806816)" />   <use xlink:href="#dot" transform="translate(170.465895,-45.806816)" />   <use xlink:href="#dot" transform="translate(169.902884,-45.586855)" />   <use xlink:href="#dot" transform="translate(170.458746,-45.810219)" />   <use xlink:href="#dot" transform="translate(170.465895,-45.806816)" />   <use xlink:href="#dot" transform="translate(170.458746,-45.810219)" />   <use xlink:href="#dot" transform="translate(170.465895,-45.806816)" />   <use xlink:href="#dot" transform="translate(169.847109,-45.729808)" />   <use xlink:href="#dot" transform="translate(169.847109,-45.729808)" />   <use xlink:href="#dot" transform="translate(169.846598,-45.73852)" />   <use xlink:href="#dot" transform="translate(169.84715,-45.606524)" />   <use xlink:href="#dot" transform="translate(169.847109,-45.729808)" />   <use xlink:href="#dot" transform="translate(169.887387,-45.593192)" />   <use xlink:href="#dot" transform="translate(169.902875,-45.587017)" />   <use xlink:href="#dot" transform="translate(169.814944,-45.621625)" />   <use xlink:href="#dot" transform="translate(169.84715,-45.606524)" />   <use xlink:href="#dot" transform="translate(169.847918,-45.740743)" />   <use xlink:href="#dot" transform="translate(169.847918,-45.740743)" />   <use xlink:href="#dot" transform="translate(169.846598,-45.73852)" />   <use xlink:href="#dot" transform="translate(169.84715,-45.606524)" />   <use xlink:href="#dot" transform="translate(169.84715,-45.606524)" />   <use xlink:href="#dot" transform="translate(169.814944,-45.621625)" />   <use xlink:href="#dot" transform="translate(169.814944,-45.621625)" />   <use xlink:href="#dot" transform="translate(169.902875,-45.587017)" />   <use xlink:href="#dot" transform="translate(169.814944,-45.621625)" />   <use xlink:href="#dot" transform="translate(169.887387,-45.593192)" />   <use xlink:href="#dot" transform="translate(169.847109,-45.729808)" />   <use xlink:href="#dot" transform="translate(169.887387,-45.593192)" />   <use xlink:href="#dot" transform="translate(169.902875,-45.587017)" />   <use xlink:href="#dot" transform="translate(169.846598,-45.73852)" />   <use xlink:href="#dot" transform="translate(169.814944,-45.621625)" />   <use xlink:href="#dot" transform="translate(169.847918,-45.740743)" />   <use xlink:href="#dot" transform="translate(169.938114,-45.895378)" />   <use xlink:href="#dot" transform="translate(170.065417,-45.877101)" />   <use xlink:href="#dot" transform="translate(170.458746,-45.810219)" />   <use xlink:href="#dot" transform="translate(170.458746,-45.810219)" />   <use xlink:href="#dot" transform="translate(169.847918,-45.740743)" />   <use xlink:href="#dot" transform="translate(169.847109,-45.729808)" />   <use xlink:href="#dot" transform="translate(170.465895,-45.806816)" />   <use xlink:href="#dot" transform="translate(170.464311,-45.801508)" />   <use xlink:href="#dot" transform="translate(169.847918,-45.740743)" />   <use xlink:href="#dot" transform="translate(170.465895,-45.806816)" />   <use xlink:href="#dot" transform="translate(170.458746,-45.810219)" />   <use xlink:href="#dot" transform="translate(169.847918,-45.740743)" />   <use xlink:href="#dot" transform="translate(169.846598,-45.73852)" />   <use xlink:href="#dot" transform="translate(170.464311,-45.801508)" />   <use xlink:href="#dot" transform="translate(169.847109,-45.729808)" />   <use xlink:href="#dot" transform="translate(169.846598,-45.73852)" />   <use xlink:href="#dot" transform="translate(170.464311,-45.801508)" />   <use xlink:href="#dot" transform="translate(170.458746,-45.810219)" />   <use xlink:href="#dot" transform="translate(169.846598,-45.73852)" />   <use xlink:href="#dot" transform="translate(170.465895,-45.806816)" />   <use xlink:href="#dot" transform="translate(169.847109,-45.729808)" />   <use xlink:href="#dot" transform="translate(169.938114,-45.895378)" />   <use xlink:href="#dot" transform="translate(170.065417,-45.877101)" />   <use xlink:href="#dot" transform="translate(169.941683,-45.943798)" />   <use xlink:href="#dot" transform="translate(169.972821,-45.97007)" />   <use xlink:href="#dot" transform="translate(169.928291,-45.969346)" />   <use xlink:href="#dot" transform="translate(170.218841,-45.830355)" />   <use xlink:href="#dot" transform="translate(169.928068,-45.971609)" />   <use xlink:href="#dot" transform="translate(170.129227,-45.8231)" />   <use xlink:href="#dot" transform="translate(169.938205,-45.90379)" />   <use xlink:href="#dot" transform="translate(169.952183,-45.90775)" />   <use xlink:href="#dot" transform="translate(170.458746,-45.810219)" />   <use xlink:href="#dot" transform="translate(170.458746,-45.810219)" />   <use xlink:href="#dot" transform="translate(170.458746,-45.810219)" />   <use xlink:href="#dot" transform="translate(169.847109,-45.729808)" />   <use xlink:href="#dot" transform="translate(169.847918,-45.740743)" />   <use xlink:href="#dot" transform="translate(169.847109,-45.729808)" />   <use xlink:href="#dot" transform="translate(170.465895,-45.806816)" />   <use xlink:href="#dot" transform="translate(169.846598,-45.73852)" />   <use xlink:href="#dot" transform="translate(170.065417,-45.877101)" />   <use xlink:href="#dot" transform="translate(170.464311,-45.801508)" />   <use xlink:href="#dot" transform="translate(170.465895,-45.806816)" />   <use xlink:href="#dot" transform="translate(169.846598,-45.73852)" />   <use xlink:href="#dot" transform="translate(169.847109,-45.729808)" />   <use xlink:href="#dot" transform="translate(170.464311,-45.801508)" />   <use xlink:href="#dot" transform="translate(169.847109,-45.729808)" />   <use xlink:href="#dot" transform="translate(169.847918,-45.740743)" />   <use xlink:href="#dot" transform="translate(169.846598,-45.73852)" />   <use xlink:href="#dot" transform="translate(169.847918,-45.740743)" />   <use xlink:href="#dot" transform="translate(170.464311,-45.801508)" />   <use xlink:href="#dot" transform="translate(170.465895,-45.806816)" />   <use xlink:href="#dot" transform="translate(169.847918,-45.740743)" />   <use xlink:href="#dot" transform="translate(169.938114,-45.895378)" />   <use xlink:href="#dot" transform="translate(169.846598,-45.73852)" />   <use xlink:href="#dot" transform="translate(169.845268,-45.725179)" />   <use xlink:href="#dot" transform="translate(169.863614,-45.736128)" />   <use xlink:href="#dot" transform="translate(169.855354,-45.629958)" />   <use xlink:href="#dot" transform="translate(169.809074,-45.754086)" />   <use xlink:href="#dot" transform="translate(169.876708,-45.625193)" />   <use xlink:href="#dot" transform="translate(169.870066,-45.732598)" />   <use xlink:href="#dot" transform="translate(169.817028,-45.752112)" />   <use xlink:href="#dot" transform="translate(169.877295,-45.68152)" />   <use xlink:href="#dot" transform="translate(169.980658,-45.72592)" />   <use xlink:href="#dot" transform="translate(169.861945,-45.715105)" />   <use xlink:href="#dot" transform="translate(169.805836,-45.747237)" />   <use xlink:href="#dot" transform="translate(169.884275,-45.706627)" />   <use xlink:href="#dot" transform="translate(170.465895,-45.806816)" />   <use xlink:href="#dot" transform="translate(170.465895,-45.806816)" />   <use xlink:href="#dot" transform="translate(170.464311,-45.801508)" />   <use xlink:href="#dot" transform="translate(169.847918,-45.740743)" />   <use xlink:href="#dot" transform="translate(170.464311,-45.801508)" />   <use xlink:href="#dot" transform="translate(170.458746,-45.810219)" />   <use xlink:href="#dot" transform="translate(169.847918,-45.740743)" />   <use xlink:href="#dot" transform="translate(170.458746,-45.810219)" />   <use xlink:href="#dot" transform="translate(170.458746,-45.810219)" />   <use xlink:href="#dot" transform="translate(169.846598,-45.73852)" />   <use xlink:href="#dot" transform="translate(169.847918,-45.740743)" />   <use xlink:href="#dot" transform="translate(170.464311,-45.801508)" />   <use xlink:href="#dot" transform="translate(170.465895,-45.806816)" />   <use xlink:href="#dot" transform="translate(169.846598,-45.73852)" />   <use xlink:href="#dot" transform="translate(169.846598,-45.73852)" />   <use xlink:href="#dot" transform="translate(169.847109,-45.729808)" />   <use xlink:href="#dot" transform="translate(170.065417,-45.877101)" />   <use xlink:href="#dot" transform="translate(169.847109,-45.729808)" />   <use xlink:href="#dot" transform="translate(169.938114,-45.895378)" />   <use xlink:href="#dot" transform="translate(169.847109,-45.729808)" />   <use xlink:href="#dot" transform="translate(170.40782,-45.601221)" />   <use xlink:href="#dot" transform="translate(170.405025,-45.608154)" />   <use xlink:href="#dot" transform="translate(170.464311,-45.801508)" /><polygon class="region" points="169.774943,-45.756437 169.757673,-45.701515 169.81474,-45.621143 169.903756,-45.574047 170.40782,-45.601221 170.465895,-45.806816 170.458746,-45.810219 169.972821,-45.97007 169.928068,-45.971609 169.887694,-45.971935 169.774943,-45.756437 " />
		  </g>
		</svg>