<?xml version="1.0" encoding="UTF-8"?>
	<svg xmlns:xlink="http://www.w3.org/1999/xlink" 
	xmlns="http://www.w3.org/2000/svg" 
	width="360px" height="180px">
	   <style type="text/css">
		  <![CDATA[     
		  .region 
		  { 
			fill:blue; 
			opacity:0.4; 
			stroke:blue;
		  }
		  ]]>
	   </style>

	<circle id="dot" x="-2" y="-2" r="2" style="stroke:none; stroke-width:0; fill:black; opacity:0.7;"/>


	 <image x="0" y="0" width="360" height="180" xlink:href="map.jpg"/>

 
	 <g transform="translate(180,90) scale(1,-1)"><polygon class="region" points="-108.981122843,33.307766045 -107.962853326,33.101742215 -108.34375,32.829635281 -108.95,32.9875 -109.0875,32.708333333 -109.374016995,32.699016995 -109.526017591,32.442278714 -109.849645827,32.555880399 -109.623290168,32.966308594 -109.3875,32.991666667 -109.375,33.220833333 -108.981122843,33.307766045 " /><polygon class="region" points="-113.081122843,35.857766046 -112.735543823,35.450567288 -112.350645616,35.49909651 -112.185543823,35.192233955 -111.6875,35.35 -111.758318753,35.147916667 -111.353364055,34.763235134 -111.000014581,34.860416667 -111.1,35.145833333 -110.9875,35.3 -111.449985419,35.33125 -111.248257785,35.474646675 -110.438350763,35.215815735 -110.6125,35 -110.204166667,35.070833333 -110.121186659,34.818408881 -110.316666667,34.641666667 -110.209242418,34.538123576 -110.466666666,34.308333333 -110.566666666,34.291666667 -110.5125,34.954166666 -110.958333333,34.495833333 -110.825692749,34.213240221 -111.142370945,33.688419427 -111.222355685,33.752952203 -111.083333333,33.358333333 -110.788350762,33.275850931 -110.745833334,33.558333334 -110.512969293,33.696450975 -109.830908881,33.358686659 -109.218408881,33.671186659 -109.291652086,33.802083333 -109.1125,33.945833334 -108.508333334,34.075 -108.392019993,34.019091118 -108.454166667,33.575 -107.795833333,33.7 -107.854166666,33.141666666 -109.091666666,33.341666667 -109.375,33.220833333 -109.47993927,32.896719699 -109.6125,32.975 -109.771416728,32.721696642 -110.282482572,32.594982571 -109.891681247,31.79375 -109.878902012,31.284470453 -110.491666666,31.229166667 -110.76880154,31.04230957 -111.295833334,31.620833333 -111.05,32.125 -111.146739028,32.395195516 -111.495833333,32.5875 -111.688161215,33.01160041 -111.953260972,33.025637818 -112.1875,33.258333333 -112.208940972,32.967580159 -112.377951728,32.903599379 -112.550637817,33.290760972 -112.716313341,33.285075548 -112.553813341,34.048257785 -112.354166666,34.233333333 -112.409306166,34.478511895 -112.983976237,34.895339965 -113.216666666,35.595833333 -113.081122843,35.857766046 " /><polygon class="region" points="-108.758900621,32.985543823 -108.421684095,32.899149238 -108.333333333,32.6625 -109.0875,32.404166667 -108.903523763,31.929800415 -109.0725491,31.507980007 -109.358333333,31.6375 -109.274382358,31.975819228 -109.744640944,32.296055094 -109.754166667,32.470833333 -109.526017591,32.442278714 -109.374016995,32.699016995 -109.155103896,32.646535237 -108.95,32.9875 -108.758900621,32.985543823 " />
		  </g>
		</svg>