<?xml version="1.0" encoding="UTF-8"?>
	<svg xmlns:xlink="http://www.w3.org/1999/xlink" 
	xmlns="http://www.w3.org/2000/svg" 
	width="360px" height="180px">
	   <style type="text/css">
		  <![CDATA[     
		  .region 
		  { 
			fill:blue; 
			opacity:0.4; 
			stroke:blue;
		  }
		  ]]>
	   </style>

	<circle id="dot" x="-2" y="-2" r="2" style="stroke:none; stroke-width:0; fill:black; opacity:0.7;"/>


	 <image x="0" y="0" width="360" height="180" xlink:href="map.jpg"/>

 
	 <g transform="translate(180,90) scale(1,-1)"><polygon class="region" points="29.308686659,-3.323257785 29.37055397,-3.8897218709999 29.662866593,-4.414028168 29.594234466,-4.9185481069999 29.778215408,-5.016597271 29.755051987,-5.394642098 29.950819016,-5.810018063 29.721597671,-6.24580574 29.947650909,-6.5044107429999 30.382482401,-6.609184265 30.570209758,-6.9884090849999 30.580307007,-7.5115823739999 31.150829315,-8.42650795 31.194843293,-8.7431955339999 31.047855377,-8.806126595 30.682819367,-8.486333847 30.527666092,-8.593616486 30.595500946,-8.1514320369999 30.293972015,-7.902952671 30.119438172,-7.2430081369999 29.547412872,-6.770243168 29.196853637,-6.083501339 29.389429092,-5.6257157329999 29.101970672,-5.0717720979999 29.105272293,-4.640602112 29.213693619,-4.507718086 29.191666666,-4.4291666669999 29.255939484,-4.161421775 29.241339264,-4.0602741989999 29.143476486,-4.340359688 29.042642594,-4.3102922439999 29.13350296,-3.432439089 29.308686659,-3.323257785 " />
		  </g>
		</svg>