<?xml version="1.0" encoding="UTF-8"?>
	<svg xmlns:xlink="http://www.w3.org/1999/xlink" 
	xmlns="http://www.w3.org/2000/svg" 
	width="360px" height="180px">
	   <style type="text/css">
		  <![CDATA[     
		  .region 
		  { 
			fill:blue; 
			opacity:0.4; 
			stroke:blue;
		  }
		  ]]>
	   </style>

	<circle id="dot" x="-2" y="-2" r="2" style="stroke:none; stroke-width:0; fill:black; opacity:0.7;"/>


	 <image x="0" y="0" width="360" height="180" xlink:href="map.jpg"/>

 
	 <g transform="translate(180,90) scale(1,-1)">   <use xlink:href="#dot" transform="translate(17.451544,60.572912)" />   <use xlink:href="#dot" transform="translate(11.4006,59.62305)" />   <use xlink:href="#dot" transform="translate(14.799304,56.975257)" />   <use xlink:href="#dot" transform="translate(11.102458,59.602465)" />   <use xlink:href="#dot" transform="translate(18.671097,59.756547)" />   <use xlink:href="#dot" transform="translate(17.342704,58.985558)" />   <use xlink:href="#dot" transform="translate(14.819974,58.332735)" />   <use xlink:href="#dot" transform="translate(9.944072,53.582623)" />   <use xlink:href="#dot" transform="translate(21.685717,65.787306)" />   <use xlink:href="#dot" transform="translate(11.102629,59.602006)" />   <use xlink:href="#dot" transform="translate(6.096846,50.930447)" />   <use xlink:href="#dot" transform="translate(20.89423,65.893178)" />   <use xlink:href="#dot" transform="translate(14.816067,58.332065)" />   <use xlink:href="#dot" transform="translate(17.159538,60.696581)" />   <use xlink:href="#dot" transform="translate(20.800724,63.614815)" />   <use xlink:href="#dot" transform="translate(11.249333,59.522671)" />   <use xlink:href="#dot" transform="translate(18.743312,59.486685)" />   <use xlink:href="#dot" transform="translate(15.522681,56.113708)" />   <use xlink:href="#dot" transform="translate(12.135242,58.947605)" />   <use xlink:href="#dot" transform="translate(17.436821,60.618458)" />   <use xlink:href="#dot" transform="translate(12.620479,53.185993)" />   <use xlink:href="#dot" transform="translate(18.794157,59.275194)" />   <use xlink:href="#dot" transform="translate(16.942523,58.490702)" />   <use xlink:href="#dot" transform="translate(17.67085,59.135917)" />   <use xlink:href="#dot" transform="translate(13.646191,56.941107)" />   <use xlink:href="#dot" transform="translate(4.24988,51.1073)" />   <use xlink:href="#dot" transform="translate(23.428197,65.781919)" />   <use xlink:href="#dot" transform="translate(3.60364,50.84264)" />   <use xlink:href="#dot" transform="translate(5.74574,51.03676)" />   <use xlink:href="#dot" transform="translate(18.060566,59.526088)" />   <use xlink:href="#dot" transform="translate(13.71623,52.937622)" />   <use xlink:href="#dot" transform="translate(18.026628,59.480563)" />   <use xlink:href="#dot" transform="translate(7.67759,52.2399)" />   <use xlink:href="#dot" transform="translate(10.877403,59.371041)" />   <use xlink:href="#dot" transform="translate(-90.8776,46.6489)" />   <use xlink:href="#dot" transform="translate(-90.8657,46.6761)" />   <use xlink:href="#dot" transform="translate(13.454266,60.151052)" />   <use xlink:href="#dot" transform="translate(6.451653,50.59164)" />   <use xlink:href="#dot" transform="translate(16.941355,57.196475)" />   <use xlink:href="#dot" transform="translate(14.837653,58.37806)" />   <use xlink:href="#dot" transform="translate(16.071202,59.229588)" />   <use xlink:href="#dot" transform="translate(16.297344,56.647157)" />   <use xlink:href="#dot" transform="translate(5.18416,51.22848)" />   <use xlink:href="#dot" transform="translate(15.541286,59.013619)" />   <use xlink:href="#dot" transform="translate(17.570849,62.533064)" />   <use xlink:href="#dot" transform="translate(5.18416,51.22848)" />   <use xlink:href="#dot" transform="translate(-90.873,46.6449)" />   <use xlink:href="#dot" transform="translate(16.950284,57.195804)" />   <use xlink:href="#dot" transform="translate(5.18416,51.22848)" />   <use xlink:href="#dot" transform="translate(16.942523,58.490702)" />   <use xlink:href="#dot" transform="translate(-90.8385,46.6238)" />   <use xlink:href="#dot" transform="translate(-90.9281,46.6095)" />   <use xlink:href="#dot" transform="translate(-90.7817,46.7052)" />   <use xlink:href="#dot" transform="translate(3.31958,50.84377)" />   <use xlink:href="#dot" transform="translate(-90.7893,46.6793)" />   <use xlink:href="#dot" transform="translate(-90.9181,46.6116)" />   <use xlink:href="#dot" transform="translate(-90.8642,46.6227)" />   <use xlink:href="#dot" transform="translate(-90.8571,46.6315)" />   <use xlink:href="#dot" transform="translate(-90.8513,46.6627)" />   <use xlink:href="#dot" transform="translate(14.003774,56.347563)" />   <use xlink:href="#dot" transform="translate(-90.8186,46.714)" />   <use xlink:href="#dot" transform="translate(-90.8039,46.6833)" />   <use xlink:href="#dot" transform="translate(-90.8858,46.6248)" />   <use xlink:href="#dot" transform="translate(-90.8046,46.7045)" />   <use xlink:href="#dot" transform="translate(-90.895,46.6417)" />   <use xlink:href="#dot" transform="translate(-90.8958,46.597)" />   <use xlink:href="#dot" transform="translate(-90.8967,46.6212)" />   <use xlink:href="#dot" transform="translate(5.48462,52.2417)" />   <use xlink:href="#dot" transform="translate(-90.9132,46.6376)" />   <use xlink:href="#dot" transform="translate(-90.8728,46.7373)" />   <use xlink:href="#dot" transform="translate(-90.8144,46.7081)" />   <use xlink:href="#dot" transform="translate(5.40115,51.2692)" />   <use xlink:href="#dot" transform="translate(5.40115,51.2692)" />   <use xlink:href="#dot" transform="translate(5.40115,51.2692)" />   <use xlink:href="#dot" transform="translate(5.48462,52.2417)" />   <use xlink:href="#dot" transform="translate(5.40115,51.2692)" />   <use xlink:href="#dot" transform="translate(5.858627,45.49677)" />   <use xlink:href="#dot" transform="translate(5.48462,52.2417)" />   <use xlink:href="#dot" transform="translate(17.125366,59.034572)" />   <use xlink:href="#dot" transform="translate(5.40115,51.2692)" />   <use xlink:href="#dot" transform="translate(13.597197,60.131892)" />   <use xlink:href="#dot" transform="translate(5.40115,51.2692)" />   <use xlink:href="#dot" transform="translate(5.40115,51.2692)" />   <use xlink:href="#dot" transform="translate(4.03366,51.01949)" />   <use xlink:href="#dot" transform="translate(5.40115,51.2692)" />   <use xlink:href="#dot" transform="translate(17.914365,59.57247)" />   <use xlink:href="#dot" transform="translate(11.597187,60.376026)" />   <use xlink:href="#dot" transform="translate(11.597187,60.376026)" />   <use xlink:href="#dot" transform="translate(12.205032,59.218235)" />   <use xlink:href="#dot" transform="translate(16.339034,58.075213)" />   <use xlink:href="#dot" transform="translate(14.785012,56.847683)" />   <use xlink:href="#dot" transform="translate(11.597187,60.376026)" />   <use xlink:href="#dot" transform="translate(14.450461,56.093713)" />   <use xlink:href="#dot" transform="translate(11.4006,59.62305)" />   <use xlink:href="#dot" transform="translate(8.952778,50.768055)" />   <use xlink:href="#dot" transform="translate(4.39812,51.28548)" />   <use xlink:href="#dot" transform="translate(3.60422,50.88761)" />   <use xlink:href="#dot" transform="translate(6.096846,50.930447)" />   <use xlink:href="#dot" transform="translate(2.77447,51.03743)" />   <use xlink:href="#dot" transform="translate(2.77447,51.03743)" />   <use xlink:href="#dot" transform="translate(2.77447,51.03743)" />   <use xlink:href="#dot" transform="translate(2.77447,51.03743)" />   <use xlink:href="#dot" transform="translate(2.77447,51.03743)" />   <use xlink:href="#dot" transform="translate(-3.08326,51.55887)" />   <use xlink:href="#dot" transform="translate(2.77447,51.03743)" />   <use xlink:href="#dot" transform="translate(4.22323,51.36538)" />   <use xlink:href="#dot" transform="translate(2.77447,51.03743)" />   <use xlink:href="#dot" transform="translate(4.32644,51.28631)" />   <use xlink:href="#dot" transform="translate(2.77447,51.03743)" />   <use xlink:href="#dot" transform="translate(18.19883,60.43367)" />   <use xlink:href="#dot" transform="translate(2.86036,51.1128)" />   <use xlink:href="#dot" transform="translate(3.86759,51.00327)" />   <use xlink:href="#dot" transform="translate(18.19883,60.43367)" />   <use xlink:href="#dot" transform="translate(18.189,60.42433)" />   <use xlink:href="#dot" transform="translate(18.19583,60.42433)" />   <use xlink:href="#dot" transform="translate(18.18833,60.42733)" />   <use xlink:href="#dot" transform="translate(18.19583,60.42433)" />   <use xlink:href="#dot" transform="translate(18.18717,60.42667)" />   <use xlink:href="#dot" transform="translate(18.19283,60.43367)" />   <use xlink:href="#dot" transform="translate(2.84375,50.9924)" />   <use xlink:href="#dot" transform="translate(18.19583,60.42433)" />   <use xlink:href="#dot" transform="translate(18.19283,60.43367)" />   <use xlink:href="#dot" transform="translate(18.189,60.42433)" />   <use xlink:href="#dot" transform="translate(4.24988,51.1073)" />   <use xlink:href="#dot" transform="translate(4.32644,51.28631)" />   <use xlink:href="#dot" transform="translate(4.32644,51.28631)" />   <use xlink:href="#dot" transform="translate(18.19283,60.43367)" />   <use xlink:href="#dot" transform="translate(4.39812,51.28548)" />   <use xlink:href="#dot" transform="translate(18.189,60.42433)" />   <use xlink:href="#dot" transform="translate(18.18717,60.42667)" />   <use xlink:href="#dot" transform="translate(4.27847,50.74634)" />   <use xlink:href="#dot" transform="translate(18.19883,60.43367)" />   <use xlink:href="#dot" transform="translate(3.67791,51.06705)" />   <use xlink:href="#dot" transform="translate(18.18717,60.42667)" />   <use xlink:href="#dot" transform="translate(4.95997,52.2342)" />   <use xlink:href="#dot" transform="translate(18.527438,60.191597)" />   <use xlink:href="#dot" transform="translate(-90.7296,46.8455)" />   <use xlink:href="#dot" transform="translate(2.6079,51.0234)" />   <use xlink:href="#dot" transform="translate(18.19583,60.42433)" />   <use xlink:href="#dot" transform="translate(18.189,60.42433)" />   <use xlink:href="#dot" transform="translate(-92.0255,46.7253)" />   <use xlink:href="#dot" transform="translate(18.18833,60.42733)" />   <use xlink:href="#dot" transform="translate(4.95997,52.2342)" />   <use xlink:href="#dot" transform="translate(18.19283,60.43367)" />   <use xlink:href="#dot" transform="translate(5.15394,51.18416)" />   <use xlink:href="#dot" transform="translate(5.15394,51.18416)" />   <use xlink:href="#dot" transform="translate(5.15394,51.18416)" />   <use xlink:href="#dot" transform="translate(5.15394,51.18416)" />   <use xlink:href="#dot" transform="translate(5.15394,51.18416)" />   <use xlink:href="#dot" transform="translate(5.15394,51.18416)" />   <use xlink:href="#dot" transform="translate(5.15394,51.18416)" />   <use xlink:href="#dot" transform="translate(5.15394,51.18416)" />   <use xlink:href="#dot" transform="translate(5.15394,51.18416)" />   <use xlink:href="#dot" transform="translate(5.15394,51.18416)" />   <use xlink:href="#dot" transform="translate(5.15394,51.18416)" />   <use xlink:href="#dot" transform="translate(5.15394,51.18416)" />   <use xlink:href="#dot" transform="translate(5.15394,51.18416)" />   <use xlink:href="#dot" transform="translate(5.15394,51.18416)" />   <use xlink:href="#dot" transform="translate(5.15394,51.18416)" />   <use xlink:href="#dot" transform="translate(5.15394,51.18416)" />   <use xlink:href="#dot" transform="translate(5.15394,51.18416)" />   <use xlink:href="#dot" transform="translate(11.624737,53.035435)" />   <use xlink:href="#dot" transform="translate(5.15394,51.18416)" />   <use xlink:href="#dot" transform="translate(5.15394,51.18416)" />   <use xlink:href="#dot" transform="translate(5.15394,51.18416)" />   <use xlink:href="#dot" transform="translate(5.15394,51.18416)" />   <use xlink:href="#dot" transform="translate(5.15394,51.18416)" />   <use xlink:href="#dot" transform="translate(16.942523,58.490702)" />   <use xlink:href="#dot" transform="translate(5.15394,51.18416)" />   <use xlink:href="#dot" transform="translate(5.15394,51.18416)" />   <use xlink:href="#dot" transform="translate(5.15394,51.18416)" />   <use xlink:href="#dot" transform="translate(5.15394,51.18416)" />   <use xlink:href="#dot" transform="translate(5.15394,51.18416)" />   <use xlink:href="#dot" transform="translate(5.15394,51.18416)" />   <use xlink:href="#dot" transform="translate(11.400205,59.622718)" />   <use xlink:href="#dot" transform="translate(5.15394,51.18416)" />   <use xlink:href="#dot" transform="translate(5.15394,51.18416)" />   <use xlink:href="#dot" transform="translate(5.15394,51.18416)" />   <use xlink:href="#dot" transform="translate(5.15394,51.18416)" />   <use xlink:href="#dot" transform="translate(5.15394,51.18416)" />   <use xlink:href="#dot" transform="translate(5.15394,51.18416)" />   <use xlink:href="#dot" transform="translate(5.15394,51.18416)" />   <use xlink:href="#dot" transform="translate(23.825808,52.088182)" />   <use xlink:href="#dot" transform="translate(18.1174,54.3227)" />   <use xlink:href="#dot" transform="translate(5.15394,51.18416)" />   <use xlink:href="#dot" transform="translate(5.15394,51.18416)" />   <use xlink:href="#dot" transform="translate(5.15394,51.18416)" />   <use xlink:href="#dot" transform="translate(5.15394,51.18416)" />   <use xlink:href="#dot" transform="translate(5.15394,51.18416)" />   <use xlink:href="#dot" transform="translate(5.15394,51.18416)" />   <use xlink:href="#dot" transform="translate(5.15394,51.18416)" />   <use xlink:href="#dot" transform="translate(14.243431,46.612659)" />   <use xlink:href="#dot" transform="translate(11.60418,52.999599)" />   <use xlink:href="#dot" transform="translate(5.15394,51.18416)" />   <use xlink:href="#dot" transform="translate(5.15394,51.18416)" />   <use xlink:href="#dot" transform="translate(5.15394,51.18416)" />   <use xlink:href="#dot" transform="translate(5.15394,51.18416)" />   <use xlink:href="#dot" transform="translate(5.15394,51.18416)" />   <use xlink:href="#dot" transform="translate(-90.9122,46.6329)" />   <use xlink:href="#dot" transform="translate(16.229357,63.872842)" />   <use xlink:href="#dot" transform="translate(-90.8613,46.6511)" />   <use xlink:href="#dot" transform="translate(16.229357,63.872842)" />   <use xlink:href="#dot" transform="translate(16.229357,63.872842)" />   <use xlink:href="#dot" transform="translate(16.229357,63.872842)" />   <use xlink:href="#dot" transform="translate(16.229357,63.872842)" />   <use xlink:href="#dot" transform="translate(-90.8035,46.6983)" />   <use xlink:href="#dot" transform="translate(16.229357,63.872842)" />   <use xlink:href="#dot" transform="translate(16.229357,63.872842)" />   <use xlink:href="#dot" transform="translate(16.229357,63.872842)" />   <use xlink:href="#dot" transform="translate(16.229357,63.872842)" />   <use xlink:href="#dot" transform="translate(-90.8979,46.6222)" />   <use xlink:href="#dot" transform="translate(-90.8469,46.7)" />   <use xlink:href="#dot" transform="translate(16.229357,63.872842)" />   <use xlink:href="#dot" transform="translate(-90.8638,46.6228)" />   <use xlink:href="#dot" transform="translate(16.229357,63.872842)" />   <use xlink:href="#dot" transform="translate(16.229357,63.872842)" />   <use xlink:href="#dot" transform="translate(16.229357,63.872842)" />   <use xlink:href="#dot" transform="translate(-90.9162,46.6125)" />   <use xlink:href="#dot" transform="translate(-90.828,46.6851)" />   <use xlink:href="#dot" transform="translate(16.229357,63.872842)" />   <use xlink:href="#dot" transform="translate(16.229357,63.872842)" />   <use xlink:href="#dot" transform="translate(16.229357,63.872842)" />   <use xlink:href="#dot" transform="translate(16.229357,63.872842)" />   <use xlink:href="#dot" transform="translate(-90.8024,46.7068)" />   <use xlink:href="#dot" transform="translate(16.229357,63.872842)" />   <use xlink:href="#dot" transform="translate(16.229357,63.872842)" />   <use xlink:href="#dot" transform="translate(16.229357,63.872842)" />   <use xlink:href="#dot" transform="translate(16.942523,58.490702)" />   <use xlink:href="#dot" transform="translate(-90.8891,46.6244)" />   <use xlink:href="#dot" transform="translate(16.229357,63.872842)" />   <use xlink:href="#dot" transform="translate(16.229357,63.872842)" />   <use xlink:href="#dot" transform="translate(16.229357,63.872842)" />   <use xlink:href="#dot" transform="translate(16.229357,63.872842)" />   <use xlink:href="#dot" transform="translate(-90.8569,46.6135)" />   <use xlink:href="#dot" transform="translate(3.60364,50.84264)" />   <use xlink:href="#dot" transform="translate(16.229357,63.872842)" />   <use xlink:href="#dot" transform="translate(16.229357,63.872842)" />   <use xlink:href="#dot" transform="translate(16.229357,63.872842)" />   <use xlink:href="#dot" transform="translate(-90.8666,46.6755)" />   <use xlink:href="#dot" transform="translate(-90.7711,46.6993)" />   <use xlink:href="#dot" transform="translate(16.229357,63.872842)" />   <use xlink:href="#dot" transform="translate(16.229357,63.872842)" />   <use xlink:href="#dot" transform="translate(16.229357,63.872842)" />   <use xlink:href="#dot" transform="translate(16.229357,63.872842)" />   <use xlink:href="#dot" transform="translate(16.229357,63.872842)" />   <use xlink:href="#dot" transform="translate(16.229357,63.872842)" />   <use xlink:href="#dot" transform="translate(16.229357,63.872842)" />   <use xlink:href="#dot" transform="translate(-90.8514,46.6744)" />   <use xlink:href="#dot" transform="translate(16.229357,63.872842)" />   <use xlink:href="#dot" transform="translate(18.422291,57.320392)" />   <use xlink:href="#dot" transform="translate(-90.9018,46.5939)" />   <use xlink:href="#dot" transform="translate(-90.893,46.6414)" />   <use xlink:href="#dot" transform="translate(-90.8409,46.6747)" />   <use xlink:href="#dot" transform="translate(18.272644,63.862037)" />   <use xlink:href="#dot" transform="translate(18.8525,59.57133)" />   <use xlink:href="#dot" transform="translate(22.43167,65.83833)" />   <use xlink:href="#dot" transform="translate(21.51633,65.04034)" />   <use xlink:href="#dot" transform="translate(17.14383,61.451)" />   <use xlink:href="#dot" transform="translate(18.1585,60.42117)" />   <use xlink:href="#dot" transform="translate(18.19233,60.412)" />   <use xlink:href="#dot" transform="translate(18.13983,60.454)" />   <use xlink:href="#dot" transform="translate(18.869,59.57917)" />   <use xlink:href="#dot" transform="translate(18.86,59.5745)" />   <use xlink:href="#dot" transform="translate(19.86683,63.5115)" />   <use xlink:href="#dot" transform="translate(18.85517,59.559)" />   <use xlink:href="#dot" transform="translate(18.58652,60.4093)" />   <use xlink:href="#dot" transform="translate(17.18483,61.455)" />   <use xlink:href="#dot" transform="translate(21.5445,65.0595)" />   <use xlink:href="#dot" transform="translate(21.53433,65.04984)" />   <use xlink:href="#dot" transform="translate(21.5495,65.04583)" />   <use xlink:href="#dot" transform="translate(21.514,65.04667)" />   <use xlink:href="#dot" transform="translate(17.63917,58.8315)" />   <use xlink:href="#dot" transform="translate(18.12867,60.43733)" />   <use xlink:href="#dot" transform="translate(19.847,63.54083)" />   <use xlink:href="#dot" transform="translate(19.794,63.53633)" />   <use xlink:href="#dot" transform="translate(11.129632,59.280503)" />   <use xlink:href="#dot" transform="translate(-90.774,46.8103)" />   <use xlink:href="#dot" transform="translate(18.6389,60.37462)" />   <use xlink:href="#dot" transform="translate(22.415,65.83833)" />   <use xlink:href="#dot" transform="translate(22.36,65.855)" />   <use xlink:href="#dot" transform="translate(17.13767,61.4655)" />   <use xlink:href="#dot" transform="translate(21.55167,65.06834)" />   <use xlink:href="#dot" transform="translate(17.6455,58.82683)" />   <use xlink:href="#dot" transform="translate(18.1415,60.43833)" />   <use xlink:href="#dot" transform="translate(19.8655,63.532)" />   <use xlink:href="#dot" transform="translate(17.64833,58.8425)" />   <use xlink:href="#dot" transform="translate(18.272644,63.862037)" />   <use xlink:href="#dot" transform="translate(-90.8741,46.7392)" />   <use xlink:href="#dot" transform="translate(18.85,59.5485)" />   <use xlink:href="#dot" transform="translate(17.63633,58.84217)" />   <use xlink:href="#dot" transform="translate(22.375,65.855)" />   <use xlink:href="#dot" transform="translate(17.19033,61.455)" />   <use xlink:href="#dot" transform="translate(17.1625,61.44867)" />   <use xlink:href="#dot" transform="translate(21.56633,65.04967)" />   <use xlink:href="#dot" transform="translate(21.53617,65.04633)" />   <use xlink:href="#dot" transform="translate(21.55817,65.0675)" />   <use xlink:href="#dot" transform="translate(18.81933,59.56183)" />   <use xlink:href="#dot" transform="translate(18.272644,63.862037)" />   <use xlink:href="#dot" transform="translate(18.272644,63.862037)" />   <use xlink:href="#dot" transform="translate(18.272644,63.862037)" /><polygon class="region" points="-90.9018,46.5939 -92.0255,46.7253 20.89423,65.893178 22.375,65.855 23.428197,65.781919 23.825808,52.088182 14.243431,46.612659 5.858627,45.49677 -90.9018,46.5939 " />
		  </g>
		</svg>