<?xml version="1.0" encoding="UTF-8"?>
	<svg xmlns:xlink="http://www.w3.org/1999/xlink" 
	xmlns="http://www.w3.org/2000/svg" 
	width="360px" height="180px">
	   <style type="text/css">
		  <![CDATA[     
		  .region 
		  { 
			fill:blue; 
			opacity:0.4; 
			stroke:blue;
		  }
		  ]]>
	   </style>

	<circle id="dot" x="-2" y="-2" r="2" style="stroke:none; stroke-width:0; fill:black; opacity:0.7;"/>


	 <image x="0" y="0" width="360" height="180" xlink:href="map.jpg"/>

 
	 <g transform="translate(180,90) scale(1,-1)">   <use xlink:href="#dot" transform="translate(120.831,13.6842)" />   <use xlink:href="#dot" transform="translate(120.43,17.285)" />   <use xlink:href="#dot" transform="translate(120.99,13.5234)" />   <use xlink:href="#dot" transform="translate(159.142672,-9.014513)" />   <use xlink:href="#dot" transform="translate(147.28406,-9.52492)" />   <use xlink:href="#dot" transform="translate(103.2956,10.6208)" />   <use xlink:href="#dot" transform="translate(103.297,10.6196)" />   <use xlink:href="#dot" transform="translate(-174.138,-18.6938)" />   <use xlink:href="#dot" transform="translate(-174.0836,-18.7162)" />   <use xlink:href="#dot" transform="translate(121.22,23.05)" />   <use xlink:href="#dot" transform="translate(121.38,23.09)" />   <use xlink:href="#dot" transform="translate(-179.945717,-16.839833)" />   <use xlink:href="#dot" transform="translate(-179.14125,-17.248167)" />   <use xlink:href="#dot" transform="translate(120.3483,12.3086)" />   <use xlink:href="#dot" transform="translate(179.97225,-16.531033)" />   <use xlink:href="#dot" transform="translate(-179.937683,-16.445017)" />   <use xlink:href="#dot" transform="translate(178.513317,-18.178767)" />   <use xlink:href="#dot" transform="translate(178.513317,-18.178767)" />   <use xlink:href="#dot" transform="translate(178.8943,-16.522717)" />   <use xlink:href="#dot" transform="translate(-178.525833,-16.835667)" />   <use xlink:href="#dot" transform="translate(178.525883,-16.83565)" />   <use xlink:href="#dot" transform="translate(-178.525833,-16.835667)" />   <use xlink:href="#dot" transform="translate(178.311317,-16.80185)" />   <use xlink:href="#dot" transform="translate(178.525883,-16.83565)" />   <use xlink:href="#dot" transform="translate(179.210917,-16.326567)" />   <use xlink:href="#dot" transform="translate(178.525883,-16.83565)" />   <use xlink:href="#dot" transform="translate(-178.525833,-16.835667)" />   <use xlink:href="#dot" transform="translate(109.298056,12.198333)" />   <use xlink:href="#dot" transform="translate(178.35285,-17.4907)" />   <use xlink:href="#dot" transform="translate(125.445,2.639)" />   <use xlink:href="#dot" transform="translate(125.503,-5.175)" />   <use xlink:href="#dot" transform="translate(109.203,12.27)" />   <use xlink:href="#dot" transform="translate(109.203,12.27)" />   <use xlink:href="#dot" transform="translate(120.86,13.65233)" />   <use xlink:href="#dot" transform="translate(120.3645,13.515)" />   <use xlink:href="#dot" transform="translate(120.95133,13.63082)" />   <use xlink:href="#dot" transform="translate(120.86,13.6522)" />   <use xlink:href="#dot" transform="translate(120.951,13.6308)" />   <use xlink:href="#dot" transform="translate(120.754,12.84549)" />   <use xlink:href="#dot" transform="translate(121.0165,12.19349)" />   <use xlink:href="#dot" transform="translate(120.754,12.8456)" />   <use xlink:href="#dot" transform="translate(162.875,-8.38)" />   <use xlink:href="#dot" transform="translate(98.4167,7.8)" />   <use xlink:href="#dot" transform="translate(98.2717,7.95)" />   <use xlink:href="#dot" transform="translate(98.7667,7.65)" />   <use xlink:href="#dot" transform="translate(-174,-18.6394)" />   <use xlink:href="#dot" transform="translate(124.117,12.9167)" />   <use xlink:href="#dot" transform="translate(167.005556,-22.333333)" />   <use xlink:href="#dot" transform="translate(167.005556,-22.333333)" />   <use xlink:href="#dot" transform="translate(123.3074,9.307)" />   <use xlink:href="#dot" transform="translate(123.15,9.55)" />   <use xlink:href="#dot" transform="translate(123.017,-12.167)" />   <use xlink:href="#dot" transform="translate(122,10)" />   <use xlink:href="#dot" transform="translate(121.956,20.4389)" />   <use xlink:href="#dot" transform="translate(179.396111,-17.811111)" />   <use xlink:href="#dot" transform="translate(178.521944,-18.173056)" />   <use xlink:href="#dot" transform="translate(179.756,-19.1606)" />   <use xlink:href="#dot" transform="translate(177.22,-17.78)" />   <use xlink:href="#dot" transform="translate(178.416667,-18.133333)" />   <use xlink:href="#dot" transform="translate(120.008262,16.340122)" />   <use xlink:href="#dot" transform="translate(120.046902,16.208245)" />   <use xlink:href="#dot" transform="translate(120.047374,16.192965)" />   <use xlink:href="#dot" transform="translate(120.042224,16.216204)" />   <use xlink:href="#dot" transform="translate(122.923,9.1083)" />   <use xlink:href="#dot" transform="translate(122.995,9.05167)" />   <use xlink:href="#dot" transform="translate(147.885,-6.6983)" />   <use xlink:href="#dot" transform="translate(150.365,-10.7617)" />   <use xlink:href="#dot" transform="translate(123.448,9.1778)" />   <use xlink:href="#dot" transform="translate(123.15,9.5717)" />   <use xlink:href="#dot" transform="translate(122.992,9.0522)" />   <use xlink:href="#dot" transform="translate(123.258,9.3833)" />   <use xlink:href="#dot" transform="translate(123.258,9.3833)" />   <use xlink:href="#dot" transform="translate(145.102,-1.5033)" />   <use xlink:href="#dot" transform="translate(145.032,-1.5417)" />   <use xlink:href="#dot" transform="translate(145.032,-1.5417)" />   <use xlink:href="#dot" transform="translate(106.58,-5.77)" />   <use xlink:href="#dot" transform="translate(106.571,-5.8569)" />   <use xlink:href="#dot" transform="translate(159.866,-9.366)" />   <use xlink:href="#dot" transform="translate(159.8,-9.15)" />   <use xlink:href="#dot" transform="translate(160.583,-8.4)" />   <use xlink:href="#dot" transform="translate(159.815351,-9.335536)" />   <use xlink:href="#dot" transform="translate(109.2,12.164722)" />   <use xlink:href="#dot" transform="translate(109.318056,12.1925)" />   <use xlink:href="#dot" transform="translate(101.451111,12.567222)" />   <use xlink:href="#dot" transform="translate(101.451111,12.567222)" />   <use xlink:href="#dot" transform="translate(93.5,8)" />   <use xlink:href="#dot" transform="translate(93.5,8)" />   <use xlink:href="#dot" transform="translate(93.5,8)" />   <use xlink:href="#dot" transform="translate(123.3,9.383333)" />   <use xlink:href="#dot" transform="translate(81.246733,8.574674)" />   <use xlink:href="#dot" transform="translate(81.19905,8.554375)" />   <use xlink:href="#dot" transform="translate(154.781111,1.0575)" />   <use xlink:href="#dot" transform="translate(154.780278,1.081111)" />   <use xlink:href="#dot" transform="translate(154.75,1.072222)" />   <use xlink:href="#dot" transform="translate(118.1167,6.1667)" />   <use xlink:href="#dot" transform="translate(118.1167,6.1667)" />   <use xlink:href="#dot" transform="translate(118.1167,6.1667)" />   <use xlink:href="#dot" transform="translate(118.1167,6.1667)" />   <use xlink:href="#dot" transform="translate(123.03596,9.044203)" />   <use xlink:href="#dot" transform="translate(123.3074,9.307)" />   <use xlink:href="#dot" transform="translate(123.3074,9.307)" />   <use xlink:href="#dot" transform="translate(121.706456,12.67914)" />   <use xlink:href="#dot" transform="translate(120.951624,13.503771)" />   <use xlink:href="#dot" transform="translate(123.152,11.4551)" />   <use xlink:href="#dot" transform="translate(97.915122,13.866499)" />   <use xlink:href="#dot" transform="translate(97.915637,13.830165)" />   <use xlink:href="#dot" transform="translate(123.3074,9.307)" />   <use xlink:href="#dot" transform="translate(123.3074,9.307)" />   <use xlink:href="#dot" transform="translate(92.943435,12.397054)" />   <use xlink:href="#dot" transform="translate(120.900463,14.577687)" />   <use xlink:href="#dot" transform="translate(120.024185,11.88699)" />   <use xlink:href="#dot" transform="translate(123.3074,9.307)" />   <use xlink:href="#dot" transform="translate(123.3074,9.307)" />   <use xlink:href="#dot" transform="translate(123.437184,7.372293)" />   <use xlink:href="#dot" transform="translate(123.903777,10.289022)" />   <use xlink:href="#dot" transform="translate(178.797054,-17.733013)" />   <use xlink:href="#dot" transform="translate(130.75,-0.233333)" />   <use xlink:href="#dot" transform="translate(178.43,-18.1664)" />   <use xlink:href="#dot" transform="translate(167.416,-16.5)" />   <use xlink:href="#dot" transform="translate(167.416,-16.5)" />   <use xlink:href="#dot" transform="translate(167.416,-16.5)" />   <use xlink:href="#dot" transform="translate(167.416,-16.5)" />   <use xlink:href="#dot" transform="translate(124.083,10.4667)" />   <use xlink:href="#dot" transform="translate(122.607235,0.265191)" />   <use xlink:href="#dot" transform="translate(127.4,0.8)" />   <use xlink:href="#dot" transform="translate(145.8,-5.15)" />   <use xlink:href="#dot" transform="translate(116,-5.966667)" />   <use xlink:href="#dot" transform="translate(150.366667,-5.166667)" />   <use xlink:href="#dot" transform="translate(155.55,-5.48333)" />   <use xlink:href="#dot" transform="translate(151.7,-10.76667)" />   <use xlink:href="#dot" transform="translate(99.90811,-1.0928)" />   <use xlink:href="#dot" transform="translate(125.15,12.6)" />   <use xlink:href="#dot" transform="translate(127.4,0.8)" />   <use xlink:href="#dot" transform="translate(99.90811,-1.0928)" />   <use xlink:href="#dot" transform="translate(122.607235,0.265191)" />   <use xlink:href="#dot" transform="translate(128.167,-3.833)" />   <use xlink:href="#dot" transform="translate(121.24,23.05)" />   <use xlink:href="#dot" transform="translate(121.25,23.1)" />   <use xlink:href="#dot" transform="translate(124.039609,13.040245)" /><polygon class="region" points="-179.14125,-17.248167 -179.945717,-16.839833 -179.937683,-16.445017 121.25,23.1 121.38,23.09 154.780278,1.081111 179.97225,-16.531033 179.756,-19.1606 167.005556,-22.333333 -174.0836,-18.7162 -179.14125,-17.248167 " />
		  </g>
		</svg>