<?xml version="1.0" encoding="UTF-8"?>
	<svg xmlns:xlink="http://www.w3.org/1999/xlink" 
	xmlns="http://www.w3.org/2000/svg" 
	width="360px" height="180px">
	   <style type="text/css">
		  <![CDATA[     
		  .region 
		  { 
			fill:blue; 
			opacity:0.4; 
			stroke:blue;
		  }
		  ]]>
	   </style>

	<circle id="dot" x="-2" y="-2" r="2" style="stroke:none; stroke-width:0; fill:black; opacity:0.7;"/>


	 <image x="0" y="0" width="360" height="180" xlink:href="map.jpg"/>

 
	 <g transform="translate(180,90) scale(1,-1)"><polygon class="region" points="31.600455081,-2.087388475 31.88053833,-1.1715389 31.696386177,-0.80944173099994 32.044438206,-0.32516465999993 31.970275065,-0.17944722499993 31.90416938,-0.26169657399993 32.018383382,-0.040121560999978 32.571453993,0.042619731000059 32.651181912,0.29055277500004 32.659589572,0.080558336000024 32.872709689,0.19835178000005 32.970722336,0.08327295600003 33.382813043,0.48938344400006 33.306113823,0.36704652600002 33.487435167,0.35990082600006 33.483558214,0.17667056600004 33.597502713,0.32333055300006 33.768454319,0.31416388600007 33.810786947,0.14131334100006 33.986806098,0.26154915700005 33.950546604,0.056646627000021 34.288212891,-0.40221123599997 34.347856717,-0.19455112099996 34.753809136,-0.091118434999942 34.833224826,-0.32425910099994 34.063336046,-0.56828165699994 34.193608399,-0.87400987399997 33.866500109,-1.252775065 33.986980523,-1.346334364 33.799458821,-1.328013374 33.934185927,-1.5208192279999 33.647790527,-1.4794249129999 33.706612142,-1.677124023 33.538058268,-1.6839325629999 33.645836046,-1.7852804899999 33.289373644,-1.935081652 33.564968804,-2.00397895 33.21211046,-2.0361159939999 33.360783149,-2.1750895189999 33.785583768,-2.0703816729999 33.838798286,-2.241979709 33.398374024,-2.5566639539999 32.926606174,-2.413894043 32.863613824,-2.635748969 33.01500841,-2.858325196 32.907351345,-2.797281901 32.772241211,-3.0419417319999 32.834157715,-2.4916471359999 32.667705892,-2.490808919 32.667857801,-2.363336046 32.523243002,-2.5589898009999 32.230251329,-2.2455305989999 32.056391601,-2.3983360459999 32.191072456,-2.520641547 31.93160411,-2.5995719439999 32.037898221,-2.7757769099999 31.895662466,-2.640630894 31.780288628,-2.865135634 31.861386176,-2.617252062 31.713453911,-2.543743218 31.755684679,-2.338404134 31.628360053,-2.344782172 31.700603028,-2.00722602 31.600455081,-2.087388475 " /><polygon class="region" points="32.772463489,-2.879027746 32.774427354,-2.8826931419999 32.772543403,-2.8793644199999 32.772463489,-2.879027746 " />
		  </g>
		</svg>