<?xml version="1.0" encoding="UTF-8"?>
	<svg xmlns:xlink="http://www.w3.org/1999/xlink" 
	xmlns="http://www.w3.org/2000/svg" 
	width="360px" height="180px">
	   <style type="text/css">
		  <![CDATA[     
		  .region 
		  { 
			fill:blue; 
			opacity:0.4; 
			stroke:blue;
		  }
		  ]]>
	   </style>

	<circle id="dot" x="-2" y="-2" r="2" style="stroke:none; stroke-width:0; fill:black; opacity:0.7;"/>


	 <image x="0" y="0" width="360" height="180" xlink:href="map.jpg"/>

 
	 <g transform="translate(180,90) scale(1,-1)">   <use xlink:href="#dot" transform="translate(-171.915,-4.455278)" />   <use xlink:href="#dot" transform="translate(-171.725,-2.78)" />   <use xlink:href="#dot" transform="translate(-171.265,-4.455278)" />   <use xlink:href="#dot" transform="translate(-171.725278,-2.806389)" />   <use xlink:href="#dot" transform="translate(-172.174167,-4.481389)" />   <use xlink:href="#dot" transform="translate(166.275,-10.275)" />   <use xlink:href="#dot" transform="translate(166.07616,-10.21416)" />   <use xlink:href="#dot" transform="translate(-174.465,-19.6031)" />   <use xlink:href="#dot" transform="translate(-174.971,-21.3375)" />   <use xlink:href="#dot" transform="translate(-174.971,-21.3375)" />   <use xlink:href="#dot" transform="translate(-174.439,-21.3042)" />   <use xlink:href="#dot" transform="translate(177.08,-12.5)" />   <use xlink:href="#dot" transform="translate(177.083,-12.5)" />   <use xlink:href="#dot" transform="translate(177.083,-12.5)" />   <use xlink:href="#dot" transform="translate(177.083,-12.5)" />   <use xlink:href="#dot" transform="translate(177.083,-12.5)" />   <use xlink:href="#dot" transform="translate(177.083,-12.5)" />   <use xlink:href="#dot" transform="translate(177.083,-12.5)" />   <use xlink:href="#dot" transform="translate(-178.25,-19.8)" />   <use xlink:href="#dot" transform="translate(178.4825,-18.73)" />   <use xlink:href="#dot" transform="translate(178.561667,-18.7475)" />   <use xlink:href="#dot" transform="translate(178.561667,-18.7475)" />   <use xlink:href="#dot" transform="translate(178.504167,-18.706667)" />   <use xlink:href="#dot" transform="translate(178.561667,-18.7475)" />   <use xlink:href="#dot" transform="translate(-149.833,-17.5)" />   <use xlink:href="#dot" transform="translate(-179.87,-18.9825)" />   <use xlink:href="#dot" transform="translate(-178.75,-21.63)" />   <use xlink:href="#dot" transform="translate(-178.55,-18.92)" />   <use xlink:href="#dot" transform="translate(177.07,-17.75)" />   <use xlink:href="#dot" transform="translate(176.9,-17.18)" />   <use xlink:href="#dot" transform="translate(176.9,-17.18)" />   <use xlink:href="#dot" transform="translate(158.17,7.0056)" />   <use xlink:href="#dot" transform="translate(158.197,7.58)" />   <use xlink:href="#dot" transform="translate(158.1,6.87)" />   <use xlink:href="#dot" transform="translate(157.907,6.7833)" />   <use xlink:href="#dot" transform="translate(158.234,7.0331)" />   <use xlink:href="#dot" transform="translate(158.32,7.02)" />   <use xlink:href="#dot" transform="translate(158.32,7.02)" />   <use xlink:href="#dot" transform="translate(172.983,1.733)" />   <use xlink:href="#dot" transform="translate(172.983,1.733)" />   <use xlink:href="#dot" transform="translate(172.933,1.8)" />   <use xlink:href="#dot" transform="translate(172.983,1.733)" />   <use xlink:href="#dot" transform="translate(172.933,1.8)" />   <use xlink:href="#dot" transform="translate(144.658611,13.279444)" />   <use xlink:href="#dot" transform="translate(138.193056,9.594444)" />   <use xlink:href="#dot" transform="translate(144.645278,13.240278)" />   <use xlink:href="#dot" transform="translate(134.49,7.295)" />   <use xlink:href="#dot" transform="translate(145.734167,15.106667)" />   <use xlink:href="#dot" transform="translate(139.748056,10.083889)" />   <use xlink:href="#dot" transform="translate(140.407778,8.132778)" />   <use xlink:href="#dot" transform="translate(154.728333,1.053333)" />   <use xlink:href="#dot" transform="translate(154.75583,1.03111)" />   <use xlink:href="#dot" transform="translate(154.753889,1.033333)" />   <use xlink:href="#dot" transform="translate(154.755833,1.031111)" />   <use xlink:href="#dot" transform="translate(158.355833,6.861389)" />   <use xlink:href="#dot" transform="translate(144.453333,7.242222)" />   <use xlink:href="#dot" transform="translate(-172.171,-4.4881)" />   <use xlink:href="#dot" transform="translate(-171.500278,-4.5375)" /><polygon class="region" points="-178.75,-21.63 -179.87,-18.9825 -171.725,-2.78 145.734167,15.106667 172.933,1.8 172.983,1.733 177.083,-12.5 178.561667,-18.7475 -178.75,-21.63 " />
		  </g>
		</svg>