<?xml version="1.0" encoding="UTF-8"?>
	<svg xmlns:xlink="http://www.w3.org/1999/xlink" 
	xmlns="http://www.w3.org/2000/svg" 
	width="360px" height="180px">
	   <style type="text/css">
		  <![CDATA[     
		  .region 
		  { 
			fill:blue; 
			opacity:0.4; 
			stroke:blue;
		  }
		  ]]>
	   </style>

	<circle id="dot" x="-2" y="-2" r="2" style="stroke:none; stroke-width:0; fill:black; opacity:0.7;"/>


	 <image x="0" y="0" width="360" height="180" xlink:href="map.jpg"/>

 
	 <g transform="translate(180,90) scale(1,-1)">   <use xlink:href="#dot" transform="translate(138.308,-35.4397)" />   <use xlink:href="#dot" transform="translate(138.308,-35.4397)" />   <use xlink:href="#dot" transform="translate(144.719,-38.1828)" />   <use xlink:href="#dot" transform="translate(144.774,-38.3586)" />   <use xlink:href="#dot" transform="translate(144.693,-38.1203)" />   <use xlink:href="#dot" transform="translate(144.693,-38.1203)" />   <use xlink:href="#dot" transform="translate(144.693,-38.1203)" />   <use xlink:href="#dot" transform="translate(144.693,-38.1203)" />   <use xlink:href="#dot" transform="translate(144.693,-38.1203)" />   <use xlink:href="#dot" transform="translate(144.693,-38.1203)" />   <use xlink:href="#dot" transform="translate(144.693,-38.1203)" />   <use xlink:href="#dot" transform="translate(144.693,-38.1203)" />   <use xlink:href="#dot" transform="translate(144.68,-38.12)" />   <use xlink:href="#dot" transform="translate(135.93,-34.77)" />   <use xlink:href="#dot" transform="translate(137.7481,-35.08186)" />   <use xlink:href="#dot" transform="translate(137.82,-34.88)" />   <use xlink:href="#dot" transform="translate(144.71,-38.1917)" />   <use xlink:href="#dot" transform="translate(144.714,-38.1963)" />   <use xlink:href="#dot" transform="translate(144.71,-38.1917)" />   <use xlink:href="#dot" transform="translate(144.714,-38.1963)" />   <use xlink:href="#dot" transform="translate(144.71,-38.1917)" />   <use xlink:href="#dot" transform="translate(144.71,-38.1917)" />   <use xlink:href="#dot" transform="translate(144.714,-38.1963)" />   <use xlink:href="#dot" transform="translate(144.693,-38.1203)" />   <use xlink:href="#dot" transform="translate(144.714,-38.1963)" />   <use xlink:href="#dot" transform="translate(144.714,-38.1963)" />   <use xlink:href="#dot" transform="translate(144.71,-38.1917)" />   <use xlink:href="#dot" transform="translate(144.693,-38.1203)" />   <use xlink:href="#dot" transform="translate(144.71,-38.1917)" />   <use xlink:href="#dot" transform="translate(144.693,-38.1203)" />   <use xlink:href="#dot" transform="translate(144.693,-38.1203)" />   <use xlink:href="#dot" transform="translate(144.71,-38.1917)" />   <use xlink:href="#dot" transform="translate(144.693,-38.1203)" />   <use xlink:href="#dot" transform="translate(144.693,-38.1203)" />   <use xlink:href="#dot" transform="translate(144.693,-38.1203)" />   <use xlink:href="#dot" transform="translate(144.693,-38.1203)" />   <use xlink:href="#dot" transform="translate(144.693,-38.1203)" />   <use xlink:href="#dot" transform="translate(144.71,-38.1917)" />   <use xlink:href="#dot" transform="translate(144.693,-38.1203)" />   <use xlink:href="#dot" transform="translate(144.693,-38.1203)" />   <use xlink:href="#dot" transform="translate(144.693,-38.1203)" />   <use xlink:href="#dot" transform="translate(144.71,-38.1917)" />   <use xlink:href="#dot" transform="translate(144.693,-38.1203)" />   <use xlink:href="#dot" transform="translate(144.714,-38.1963)" />   <use xlink:href="#dot" transform="translate(144.71,-38.1917)" />   <use xlink:href="#dot" transform="translate(144.71,-38.1917)" />   <use xlink:href="#dot" transform="translate(144.693,-38.1203)" />   <use xlink:href="#dot" transform="translate(144.71,-38.1917)" />   <use xlink:href="#dot" transform="translate(144.714,-38.1963)" />   <use xlink:href="#dot" transform="translate(144.71,-38.1917)" />   <use xlink:href="#dot" transform="translate(144.71,-38.1917)" />   <use xlink:href="#dot" transform="translate(144.71,-38.1917)" />   <use xlink:href="#dot" transform="translate(144.71,-38.1917)" />   <use xlink:href="#dot" transform="translate(144.693,-38.1203)" />   <use xlink:href="#dot" transform="translate(144.693,-38.1203)" />   <use xlink:href="#dot" transform="translate(144.692,-38.1227)" />   <use xlink:href="#dot" transform="translate(144.6,-38.12)" />   <use xlink:href="#dot" transform="translate(144.718,-38.1761)" />   <use xlink:href="#dot" transform="translate(144.6,-38.12)" />   <use xlink:href="#dot" transform="translate(144.693,-38.1203)" />   <use xlink:href="#dot" transform="translate(144.6,-38.12)" />   <use xlink:href="#dot" transform="translate(144.6,-38.12)" />   <use xlink:href="#dot" transform="translate(144.629,-38.1089)" />   <use xlink:href="#dot" transform="translate(144.629,-38.1089)" />   <use xlink:href="#dot" transform="translate(144.629,-38.1089)" />   <use xlink:href="#dot" transform="translate(144.629,-38.1089)" />   <use xlink:href="#dot" transform="translate(144.693,-38.1203)" />   <use xlink:href="#dot" transform="translate(144.6,-38.12)" />   <use xlink:href="#dot" transform="translate(144.58,-38.12)" />   <use xlink:href="#dot" transform="translate(144.6,-38.12)" />   <use xlink:href="#dot" transform="translate(144.58,-38.12)" />   <use xlink:href="#dot" transform="translate(144.6,-38.12)" />   <use xlink:href="#dot" transform="translate(144.58,-38.12)" />   <use xlink:href="#dot" transform="translate(144.6,-38.12)" />   <use xlink:href="#dot" transform="translate(144.693,-38.1203)" />   <use xlink:href="#dot" transform="translate(148.205,-40.33)" />   <use xlink:href="#dot" transform="translate(148.1666,-40.34)" />   <use xlink:href="#dot" transform="translate(148.205,-40.33)" />   <use xlink:href="#dot" transform="translate(144.987,-37.9217)" />   <use xlink:href="#dot" transform="translate(144.693,-38.1203)" />   <use xlink:href="#dot" transform="translate(144.726,-38.2004)" />   <use xlink:href="#dot" transform="translate(144.693,-38.1203)" />   <use xlink:href="#dot" transform="translate(144.693,-38.1203)" />   <use xlink:href="#dot" transform="translate(144.72,-38.165)" />   <use xlink:href="#dot" transform="translate(144.459,-38.1225)" />   <use xlink:href="#dot" transform="translate(144.693,-38.1203)" />   <use xlink:href="#dot" transform="translate(144.744,-38.1285)" />   <use xlink:href="#dot" transform="translate(144.71,-38.1917)" />   <use xlink:href="#dot" transform="translate(144.72,-38.165)" />   <use xlink:href="#dot" transform="translate(144.68,-38.12)" />   <use xlink:href="#dot" transform="translate(144.693,-38.1203)" />   <use xlink:href="#dot" transform="translate(144.717,-38.2052)" />   <use xlink:href="#dot" transform="translate(144.75,-38.2)" />   <use xlink:href="#dot" transform="translate(144.629,-38.1089)" />   <use xlink:href="#dot" transform="translate(144.718,-38.1761)" />   <use xlink:href="#dot" transform="translate(144.718,-38.1761)" />   <use xlink:href="#dot" transform="translate(144.718,-38.1761)" />   <use xlink:href="#dot" transform="translate(145.08,-38.17)" />   <use xlink:href="#dot" transform="translate(144.71,-38.1917)" />   <use xlink:href="#dot" transform="translate(146.32,-38.77)" />   <use xlink:href="#dot" transform="translate(147.892,-37.8822)" />   <use xlink:href="#dot" transform="translate(147.94099689573,-40.738599399346)" />   <use xlink:href="#dot" transform="translate(137.48,-34.5)" />   <use xlink:href="#dot" transform="translate(144.85,-37.87)" />   <use xlink:href="#dot" transform="translate(137.633,-35.65)" />   <use xlink:href="#dot" transform="translate(137.9167,-35.1667)" />   <use xlink:href="#dot" transform="translate(134.67,-33.2)" />   <use xlink:href="#dot" transform="translate(136.92,-34.5)" />   <use xlink:href="#dot" transform="translate(137.82,-34.88)" />   <use xlink:href="#dot" transform="translate(135,-34.7)" />   <use xlink:href="#dot" transform="translate(136.92,-34.5)" />   <use xlink:href="#dot" transform="translate(136.92,-34.5)" /><polygon class="region" points="135,-34.7 134.67,-33.2 147.892,-37.8822 148.205,-40.33 147.94099689573,-40.738599399346 135,-34.7 " />
		  </g>
		</svg>