<?xml version="1.0" encoding="UTF-8"?>
	<svg xmlns:xlink="http://www.w3.org/1999/xlink" 
	xmlns="http://www.w3.org/2000/svg" 
	width="360px" height="180px">
	   <style type="text/css">
		  <![CDATA[     
		  .region 
		  { 
			fill:blue; 
			opacity:0.4; 
			stroke:blue;
		  }
		  ]]>
	   </style>

	<circle id="dot" x="-2" y="-2" r="2" style="stroke:none; stroke-width:0; fill:black; opacity:0.7;"/>


	 <image x="0" y="0" width="360" height="180" xlink:href="map.jpg"/>

 
	 <g transform="translate(180,90) scale(1,-1)"><polygon class="region" points="13.60360241,14.445482254 13.736171723,14.38657856 13.699484825,14.354543686 13.728108406,14.318564415 13.764048576,14.397497177 13.732769966,14.419465065 13.741352081,14.441267967 13.794122696,14.370702744 13.760426521,14.377741814 13.744659424,14.32953167 13.891442299,14.104258537 13.847072601,14.345870018 14.011229515,14.077920913 13.974339485,14.143867493 14.033951759,14.142874718 14.005205155,14.234760284 14.062140464,14.258376121 14.268435478,14.10799408 14.133569714,13.964181952 14.250243187,13.82755661 14.187566757,13.896453857 14.170606614,13.854005814 14.108288765,13.907475472 14.081238747,13.868526459 14.283215473,13.520507333 14.267859056,13.758111572 15.086596001,14.178522068 14.925187111,13.459550858 15.269123671,13.912141927 15.654166666,13.275 15.566666667,13.333333333 15.55750868,13.091011217 14.995228407,12.921373833 15.225617472,12.629903497 15.117019992,12.405908881 15.258333333,12.029166666 15.041666667,12.1 15.225,11.6125 15.0125,11.475 14.500909254,11.728543091 14.515931532,11.542469279 13.730017429,10.919982571 13.499138387,10.204497612 13.308333334,10.1 12.991666666,10.8875 12.247575548,11.087853326 12.157980007,11.444091118 11.770833333,11.716666667 12.854166667,12.091666666 13.029166667,11.925 13.427006362,12.432715861 13.558773126,12.367429267 13.395177883,12.046079169 13.483333333,11.941666667 13.8,12.25 14.145833334,12.341666667 14.147027176,12.546981056 13.98344326,12.452829361 13.710624695,12.682332039 13.857312593,13.045824723 13.664242215,12.937853326 13.490583632,13.167196146 13.297083198,12.958348592 13.058333333,13.158333333 12.968381076,13.020480008 12.592142402,13.029847208 12.249382358,12.755166287 12.449313694,12.996672567 12.359220716,13.157624817 12.790551418,13.446683078 12.945480008,13.764242215 12.517634413,14.025395881 12.554166666,14.229166667 12.942803955,13.962235345 12.876742215,14.253813341 13.14144516,14.191376686 13.478870392,14.390969276 13.59767437,14.242740631 13.60360241,14.445482254 " /><polygon class="region" points="14.130417525,13.928418354 14.138681412,13.911217689 14.144542694,13.906815529 14.135542724,13.928535008 14.130417525,13.928418354 " /><polygon class="region" points="13.329166667,13.729166667 13.334332614,13.724517992 13.362962607,13.729621499 13.349606811,13.744940701 13.329166667,13.729166667 " /><polygon class="region" points="14.908333333,13.470833333 14.908686659,13.460075548 14.947084225,13.416484369 14.937479019,13.440354348 14.908333333,13.470833333 " /><polygon class="region" points="15.243668556,13.424066544 15.270833333,13.358333333 15.356895447,13.270944595 15.345294952,13.397066116 15.243668556,13.424066544 " /><polygon class="region" points="15.277160306,13.286882358 15.308818224,13.208544515 15.429166667,13.15 15.330138482,13.213268195 15.277160306,13.286882358 " /><polygon class="region" points="-5.285757786,11.041313341 -4.5875,9.716666667 -4.8752644849999,9.332196214 -4.7,8.8583333330001 -4.233333333,9.0125 -3.864924452,8.800353326 -3.538333469,8.8659630670001 -3.295833334,8.775 -3.1125,8.4375 -3.591666667,8.425 -3.7583333339999,8.225 -3.52447052,7.4801074550001 -3.8051074549999,7.3494705200001 -4.2258873829999,8.224291653 -4.6074825709999,8.328315904 -4.729166666,7.8791666670001 -5.1579755989999,8.1607883030001 -5.0911370169999,7.6967741230001 -5.3791666669999,7.208333333 -5.224646675,6.5392422150001 -4.891666667,6.45 -4.7375,6.6291666660001 -4.416666667,6.466666667 -4.604166667,5.9791666670001 -5.0149244519999,5.9045199930001 -5.2,6.1208333330001 -5.416666667,5.8833333330001 -5.671083578,6.0800421820001 -5.9244327119999,6.714456177 -5.529166667,6.9083333340001 -5.9125,7.395833334 -5.8288133409999,8.2850477430001 -5.9996458269999,8.6857866080001 -5.671302457,8.499382527 -5.363082886,8.6300862630001 -5.170479499,9.2774527660001 -4.9875,9.425 -5.0800476069999,9.620099216 -5.286649068,9.5425175980001 -5.275850931,9.8158157350001 -5.450708516,9.940779283 -5.687501695,9.793164232 -6.170833333,10.5375 -5.7019561769999,10.467233955 -5.3,10.791666667 -5.285757786,11.041313341 " /><polygon class="region" points="-8.418914795,13.957803854 -8.033333333,13.720833334 -8.141666667,13.566666667 -8.4791534419999,13.5639957 -8.2416666669999,13.225 -8.2475477429999,12.657980007 -7.3452660459999,13.048785061 -7.2336866589999,12.826742215 -7.566099379,12.431377157 -7.4881612139999,12.275899591 -7.8951276989999,12.157526313 -8.0354166669999,11.90472819 -8.325,12.041666666 -8.851956177,11.779733955 -9.0541666669999,11.8625 -9.4633032909999,11.484068468 -9.936362881,11.621097988 -10.068877157,11.475567288 -10.132482571,11.765815735 -9.679166666,11.9 -9.870144484,12.213547092 -9.720833333,12.7125 -9.8833333329999,12.829166667 -10,13.154166667 -9.9194885749999,13.541193601 -10.002171516,13.55534172 -10.039421082,13.576467514 -9.5666666669999,13.8875 -9.5666666669999,13.7 -8.889242214,13.225353325 -8.7875,13.633333334 -8.418914795,13.957803854 " /><polygon class="region" points="-3.6875,15.070833334 -3.7583333339999,14.8375 -3.309868706,14.916700914 -3.1341047499999,14.763271416 -3.479166667,14.258333333 -3.845833333,14.029166667 -3.7839006209999,13.789456177 -4.1645317919999,13.213142734 -4.8708333329999,13.4375 -5.7708333329999,13.225 -6.554166666,13.416666666 -6.283333333,13.504166667 -5.399239773,14.524294366 -5.275,14.441666667 -4.8157670759999,14.778505452 -4.275,14.720833333 -4.159507613,15.283067139 -4.0083333329999,15.279166667 -4.121893491,15.399869537 -3.6633873829999,15.345124817 -3.6875,15.070833334 " /><polygon class="region" points="-4.523287964,14.182977634 -4.68258667,14.003599379 -5.0708333339999,14.066666667 -5.2952660449999,13.893622844 -4.5666666669999,13.820833333 -4.3958333329999,14.033333333 -4.523287964,14.182977634 " /><polygon class="region" points="-0.95,8.2125 -0.9625,8.254166667 -0.93543260299992,8.2708346900001 -0.82671305299994,8.308686659 -0.73397623699998,8.310468207 -1.132736952,8.6706802190001 -1.4413109679999,8.030878703 -1.479771763,8.2922071670001 -1.25,8.5416666670001 -1.370833333,8.770833334 -1.0249575459999,8.8161073810001 -0.97795172799994,8.649432712 -0.85711919999994,8.5300420030001 -0.93714667399996,8.9982577860001 -0.46441853799996,8.867196316 -0.24201999199994,9.5190911190001 -1.625746663,9.457766045 -1.791666667,9.5458333330001 -1.6658640549999,9.928431532 -1.210046217,10.075353325 -1.0270840109999,9.9041804 -0.7,10.020833333 -0.19166666599995,9.891666667 0.081619602000046,10.287145996 0.77973395400005,9.621579997 0.60833333400006,9.441666667 0.56998240200005,9.0133507620001 0.13958333300008,8.725468614 -0.15755072699994,8.8909620490001 -0.28871493799994,8.457766045 -0.49583333399994,8.4375 -0.53333333399996,8.625 -0.85111165899997,8.5125 -0.43629520699994,8.1666666670001 -0.425,8.3625 0.025,8.375 -0.016666666999924,8.154166667 -0.27162613099995,8.126077352 -0.098891600999934,8.0538620340001 -0.05342735399995,7.7752784250001 0.032502713000042,8.086391602 0.1875,8.0952520650001 0.083691406000071,8.1857903370001 0.23683173300003,8.369929063 0.080289171000061,8.3855415850001 0.082764079000071,8.4435911730001 0.24131971500003,8.4068895130001 0.28306396500005,8.3297139480001 0.12721422000004,8.2178001570001 0.25082750100006,8.1140332030001 0.16241789600002,7.821027531 0.22472493500004,7.915390625 0.25396104600003,7.917022162 0.35,7.7416666670001 0.31181640600005,7.571574572 0.175,7.5375 0.15833333400002,7.445833334 0.30873209600003,7.5299972870001 0.20943088100006,6.8703065330001 0.31527506500004,6.717989367 0.07389160200006,6.306663954 0.08755466100007,6.4839743380001 0.033336453000061,6.4247379550001 0.003036024000039,6.346129015 -0.038891601999978,6.2758360460001 -0.071386176999965,6.2425377060001 -0.095824923999942,6.521385905 -0.61357421899993,6.7074810120001 -0.79948445699995,6.869721951 -0.41669657399996,6.71916938 -0.39415988499997,6.85239095 -0.07878431499995,6.598058268 0.18527468100007,6.7583229090001 -0.086968857999977,6.7696714950001 -0.10194173099995,6.825596246 0.10955173100007,6.894732802 -0.003052842999978,6.9232592770001 0.13118693000007,7.067638889 -0.1,7.1833333330001 0.18528550900004,7.291980795 -0.19221950899993,7.5402750650001 0.047519260000058,7.5353035480001 0.006587457000023,7.753147922 -0.068058674999975,7.658624403 -0.12992919899995,7.7161083980001 -0.15151055199993,7.650255805 -0.25366278799993,7.6736083980001 -0.29637498699998,7.6236249460001 -0.39280788899993,7.644997016 -0.45642971499996,7.5927804900001 -0.49740594899993,7.620781682 -0.54493570999995,7.5654272460001 -0.62749721999995,7.563810764 -0.26413675899994,7.7316639540001 -0.15969251799993,7.6997360570001 -0.32916666699992,7.8166666670001 -0.17590908499994,7.9702097580001 -0.69498257099997,7.7258509320001 -0.67140062099997,7.9134372290001 -0.51285773399997,8.0767123750001 -0.53678487099995,8.1201039630001 -0.69512905499994,7.9282472400001 -0.71340365999993,7.729812452 -0.7875,7.708333333 -0.75833333299994,8.041666666 -1.0583333339999,8.141666667 -0.70829170299993,8.281816608 -0.95,8.2125 " /><polygon class="region" points="-12.692517429,14.671684096 -12.45494317,14.590946791 -12.395833333,13.354166666 -12.101100668,13.291153124 -11.970833333,13.541666667 -11.420833333,13.583333333 -11.096186659,13.202424452 -11.2,13.145833333 -11.110916477,12.644329834 -11.733686659,12.339213054 -11.604166667,11.870833334 -12.007766045,12.37278951 -11.7375,12.466666666 -11.85504642,12.899261135 -12.59932624,12.919936795 -12.704166667,12.583333333 -12.533333333,12.358333334 -12.757118394,12.253599379 -12.8625,12.691666667 -13.232980008,12.772575548 -13.125353325,13.277424452 -13.31471049,13.279733954 -13.412146674,13.498257786 -12.692517429,14.671684096 " /><polygon class="region" points="3.750353325,8.935757785 4.141099379,8.2561228430001 3.958333333,7.6375 3.4506557890001,7.1342932800001 3.725,6.6625 4.2138147360001,6.584222794 4.220810414,6.4397721290001 3.876381397,6.6080551150001 3.3247541640001,6.4076778840001 3.3204800070001,6.673257785 3.0458333330001,6.9416666670001 3.124149238,7.2574824020001 2.6833333330001,7.7 3.083333333,8.6166666670001 3.750353325,8.935757785 " /><polygon class="region" points="2.526956177,10.186932713 2.803599379,9.97278951 2.5378533260001,9.164924452 2.657715691,7.964506531 2.4024537830001,7.678813341 2.2128533260001,7.8517422150001 2.145833333,8.425 1.629166667,8.6083333330001 1.570833334,8.9 1.6083333340001,9.0875 2.104166666,8.9875 2.2291666670001,9.1375 1.525,9.845833333 1.8215521920001,10.107295227 2.526956177,10.186932713 " /><polygon class="region" points="0.45833333300004,17.141666667 0.71306728700006,17.046579997 0.48368665900006,16.643408881 0.8,16.5625 0.35513085300005,15.953202481 0.30344984300007,15.629988607 -0.65,15.879166667 -0.87742445199996,15.733686659 -1.2121419269999,16.026709663 -1.169982402,16.261649238 -0.95918409599994,16.296684095 -0.92916666699995,16.445833334 -0.77083333299993,16.391666667 -0.78248257099995,16.565815904 -0.32083333299994,17.120833333 -0.004166666999936,17.179166667 0.032677375000048,16.955126614 -0.11631334099997,16.835075548 0.15245378300005,16.557980008 0.45833333300004,17.141666667 " /><polygon class="region" points="-0.28333333299997,16.066666666 -0.2625,16.0625 -0.26729024299993,16.086590915 -0.275,16.070833333 -0.28333333299997,16.066666666 " /><polygon class="region" points="0.25416666700005,15.845833333 0.28159111900004,15.842019993 0.29583333300008,15.858333333 0.2625,15.858333333 0.25416666700005,15.845833333 " /><polygon class="region" points="4.776956177,13.341099379 5.1121039500001,13.332365587 5.246507094,12.942563205 5.7,12.7625 6.0162014430001,12.435421414 5.9868442110001,12.284293281 5.243877157,12.482766046 4.9399244520001,12.267019992 4.1399537830001,12.383686659 4.05,12.0375 3.9,12.033333333 3.7416666670001,12.204166667 3.816666667,12.733333334 4.397839864,13.103549194 4.5857877940001,12.979522366 4.776956177,13.341099379 " /><polygon class="region" points="5.845833333,4.4125 5.575,4.6833333340001 5.7491004090001,4.563161214 6.045039198,4.9132941350001 5.7958333330001,5.2 6.25319892,5.296229214 6.3625,6.333333333 6.966666667,6.208333333 6.7631017050001,6.0282518180001 6.417280917,4.859245131 6.682118395,4.516099379 6.550461833,5.0770921490001 6.8857903370001,5.487141927 6.9242804630001,5.2591266210001 6.7080830890001,5.124124485 6.788192071,4.905160183 6.9375,4.7333333340001 6.9708333340001,4.8583333330001 7.2907067200001,4.820177544 7.586403741,4.45057746 7.3343404130001,4.4422661680001 7.3666666670001,4.5 7.3300265840001,4.538155449 7.134142728,4.3840213350001 7.236794366,4.56169298 7.169906955,4.6532402890001 7.1083333330001,4.6708333340001 7.1744327120001,4.4936228440001 7.030066257,4.4340688070001 7.003599379,4.6188771560001 6.966666667,4.6916666670001 6.987821791,4.37019043 6.8592976890001,4.396797689 6.838067288,4.6177151150001 6.7992701210001,4.6574513750001 6.7875,4.6625 6.829708693,4.6177754720001 6.8005420260001,4.539431085 6.87402615,4.358924357 6.658333333,4.5083333330001 6.6340699940001,4.3160491950001 6.2520833340001,4.2879686150001 6.2583333330001,4.416666666 6.0840625340001,4.2715599910001 6.091666667,4.408333333 6.064583333,4.283917236 5.845833333,4.4125 " /><polygon class="region" points="5.866200087,4.439141168 5.8687272070001,4.4381895070001 5.87047899,4.4395812990001 5.8693359380001,4.4419216580001 5.866200087,4.439141168 " /><polygon class="region" points="6.0953667540001,4.4224745010001 6.098611111,4.4208333330001 6.0996456570001,4.4229146330001 6.0985027740001,4.425254991 6.0953667540001,4.4224745010001 " /><polygon class="region" points="6.240169441,4.408588324 6.23703342,4.405807834 6.2402777780001,4.404166666 6.241312324,4.406247966 6.240169441,4.408588324 " /><polygon class="region" points="6.0912000870001,4.3599745010001 6.094444445,4.3583333330001 6.095478991,4.3604146320001 6.0943361070001,4.362754991 6.0912000870001,4.3599745010001 " /><polygon class="region" points="6.62453342,4.526641167 6.6277777780001,4.525 6.628812324,4.527081299 6.62766944,4.529421658 6.62453342,4.526641167 " /><polygon class="region" points="6.203700086,4.4266411680001 6.206944445,4.425 6.2079789910001,4.4270812990001 6.2068361070001,4.429421658 6.203700086,4.4266411680001 " /><polygon class="region" points="7.3953667540001,4.518307834 7.398611111,4.516666667 7.3996456570001,4.518747965 7.398502604,4.5210883250001 7.3953667540001,4.518307834 " /><polygon class="region" points="7.353700087,4.526641167 7.356944444,4.525 7.35797899,4.527081299 7.356835937,4.529421658 7.353700087,4.526641167 " /><polygon class="region" points="7.06203342,4.4683078350001 7.0652777780001,4.466666666 7.066312324,4.468747965 7.0651692710001,4.471088324 7.06203342,4.4683078350001 " /><polygon class="region" points="7.070366753,4.5058078340001 7.073611111,4.5041666670001 7.0746456570001,4.5062479650001 7.0735026040001,4.5085883250001 7.070366753,4.5058078340001 " /><polygon class="region" points="6.94953342,4.5558078340001 6.952777778,4.5541666670001 6.9538123240001,4.5562479650001 6.952669271,4.5585883250001 6.94953342,4.5558078340001 " /><polygon class="region" points="7.04953342,4.5474745 7.0527777780001,4.5458333330001 7.053812324,4.5479146320001 7.0526692710001,4.550254991 7.04953342,4.5474745 " /><polygon class="region" points="6.93703342,4.5641411670001 6.9402777780001,4.5625 6.941312324,4.5645812990001 6.9401692710001,4.5669216580001 6.93703342,4.5641411670001 " /><polygon class="region" points="7.053700086,4.530807834 7.0569444450001,4.529166667 7.057978991,4.531247965 7.0568359380001,4.533588325 7.053700086,4.530807834 " /><polygon class="region" points="6.3091842650001,4.428315904 6.3083333330001,4.425 6.3116490680001,4.425850763 6.3125,4.4291666660001 6.3091842650001,4.428315904 " /><polygon class="region" points="6.5416666670001,4.529166667 6.544982401,4.5300174290001 6.5458333340001,4.533333333 6.5425175990001,4.5324825710001 6.5416666670001,4.529166667 " /><polygon class="region" points="6.5541666670001,4.5083333330001 6.5550175990001,4.505017429 6.5583333340001,4.5041666670001 6.5574824010001,4.507482571 6.5541666670001,4.5083333330001 " /><polygon class="region" points="6.6625,4.516666667 6.665815735,4.5175174290001 6.666666666,4.520833333 6.6633509320001,4.5199825710001 6.6625,4.516666667 " /><polygon class="region" points="6.3833333330001,4.354166666 6.384184265,4.350850763 6.3875,4.35 6.386649069,4.3533159040001 6.3833333330001,4.354166666 " /><polygon class="region" points="6.3583333330001,4.375 6.3591842650001,4.371684096 6.3625,4.3708333330001 6.3616490680001,4.374149238 6.3583333330001,4.375 " /><polygon class="region" points="6.5625,4.5041666670001 6.563350932,4.500850762 6.5666666670001,4.5 6.5658157350001,4.503315905 6.5625,4.5041666670001 " /><polygon class="region" points="6.595833333,4.470833333 6.596684265,4.4675174280001 6.6,4.466666666 6.599149068,4.4699825710001 6.595833333,4.470833333 " /><polygon class="region" points="6.9208333340001,4.645833334 6.921684096,4.6425174290001 6.925,4.641666667 6.9241492370001,4.6449825710001 6.9208333340001,4.645833334 " /><polygon class="region" points="7.2541666670001,4.520833333 7.2550174290001,4.5175174290001 7.2583333330001,4.516666667 7.257482571,4.5199825710001 7.2541666670001,4.520833333 " /><polygon class="region" points="5.7,4.5458333330001 5.703315904,4.546684095 5.704166666,4.55 5.7008507630001,4.549149238 5.7,4.5458333330001 " /><polygon class="region" points="6.925,4.6375 6.925850762,4.6341840960001 6.9291666670001,4.633333334 6.928315904,4.6366492380001 6.925,4.6375 " /><polygon class="region" points="5.7199825710001,4.5158159050001 5.716666666,4.516666667 5.7175174290001,4.5133507620001 5.720833333,4.5125 5.7199825710001,4.5158159050001 " /><polygon class="region" points="7.2583333330001,4.5125 7.259184095,4.509184095 7.2625,4.5083333330001 7.2616492380001,4.5116492380001 7.2583333330001,4.5125 " /><polygon class="region" points="6.966666667,4.704166667 6.966666667,4.7 6.971400621,4.7029517280001 6.966666667,4.704166667 " /><polygon class="region" points="5.975,4.3875 5.975,4.3833333330001 5.979733955,4.386285061 5.975,4.3875 " /><polygon class="region" points="6.961932712,4.547048272 6.9678415930001,4.5412553580001 6.971400621,4.544618395 6.9654917400001,4.550411309 6.961932712,4.547048272 " /><polygon class="region" points="7.065451728,4.491099379 7.0712446430001,4.4970082610001 7.0678816060001,4.5005672880001 7.062088691,4.494658407 7.065451728,4.491099379 " /><polygon class="region" points="6.199394904,4.310944281 6.204713101,4.3132564970001 6.201448568,4.317271593 6.199394904,4.310944281 " /><polygon class="region" points="6.5875,4.4833333330001 6.5878580730001,4.4808763300001 6.595833333,4.475 6.5899568350001,4.48297526 6.5875,4.4833333330001 " /><polygon class="region" points="6.5708333330001,4.5 6.5711914070001,4.497542996 6.579166667,4.4916666670001 6.573290168,4.499641927 6.5708333330001,4.5 " /><polygon class="region" points="6.8899570040001,4.6996419270001 6.8878580730001,4.697542996 6.895833334,4.6916666670001 6.8954800070001,4.6940911180001 6.8899570040001,4.6996419270001 " /><polygon class="region" points="6.2958333330001,4.404166666 6.303808594,4.4100429960001 6.3041666670001,4.4125 6.296191406,4.406623671 6.2958333330001,4.404166666 " /><polygon class="region" points="6.7202660450001,4.605381605 6.725,4.6041666670001 6.725,4.6125 6.721641032,4.611638048 6.7202660450001,4.605381605 " /><polygon class="region" points="6.757766045,4.747048272 6.7625,4.7458333340001 6.7625,4.7541666670001 6.7591410320001,4.7533047150001 6.757766045,4.747048272 " /><polygon class="region" points="5.837980144,4.432279121 5.844834328,4.431625366 5.852348933,4.436793578 5.849530708,4.438117472 5.837980144,4.432279121 " /><polygon class="region" points="7.0713684080001,4.7283711750001 7.0715813530001,4.7257215720001 7.083333333,4.725 7.0824825710001,4.7283159040001 7.0713684080001,4.7283711750001 " /><polygon class="region" points="7.379827881,4.51160041 7.3791666670001,4.5041666670001 7.3880672880001,4.511285061 7.383333334,4.5125 7.379827881,4.51160041 " /><polygon class="region" points="6.100909255,4.4160430910001 6.1,4.4125 6.1125,4.416666666 6.100909255,4.4160430910001 " /><polygon class="region" points="7.049382528,4.561052449 7.0527777780001,4.5583333330001 7.058502536,4.5654903830001 7.051516045,4.567284139 7.049382528,4.561052449 " /><polygon class="region" points="6.2399551400001,4.4829756 6.2378577330001,4.480878364 6.25,4.470833333 6.2496466750001,4.473257786 6.2399551400001,4.4829756 " /><polygon class="region" points="6.9625,4.7333333340001 6.963107639,4.717580159 6.966666667,4.716666667 6.9660590280001,4.732419841 6.9625,4.7333333340001 " /><polygon class="region" points="6.220490011,4.423766073 6.226065911,4.417285834 6.2319444450001,4.416666666 6.2261516990001,4.42552965 6.220490011,4.423766073 " /><polygon class="region" points="6.345833333,4.45 6.345833333,4.4333333330001 6.350567288,4.448785061 6.345833333,4.45 " /><polygon class="region" points="6.25,4.466666666 6.250685628,4.4466135660001 6.2583333330001,4.4458333330001 6.2535054520001,4.465767076 6.25,4.466666666 " /><polygon class="region" points="6.9083333340001,4.675 6.917375013,4.6508873830001 6.9208333340001,4.65 6.916313341,4.669091118 6.9083333340001,4.675 " /><polygon class="region" points="6.257766045,4.426956177 6.261865234,4.421739705 6.2583333330001,4.4416666660001 6.257766045,4.426956177 " /><polygon class="region" points="6.725,4.825 6.734301079,4.8128960500001 6.7416666670001,4.8083333330001 6.7410430910001,4.8199242480001 6.725,4.825 " /><polygon class="region" points="6.9291666670001,4.6291666670001 6.937858073,4.6100429960001 6.95,4.6041666670001 6.9371466740001,4.6232577860001 6.9291666670001,4.6291666670001 " /><polygon class="region" points="6.692301432,4.5199269610001 6.691099378,4.501214938 6.7002646550001,4.5011372880001 6.7005672880001,4.5196183950001 6.692301432,4.5199269610001 " /><polygon class="region" points="6.757766045,4.7981428360001 6.761111111,4.7958333330001 6.779733955,4.807118394 6.768741184,4.812038167 6.757766045,4.7981428360001 " /><polygon class="region" points="6.7422902430001,4.7925757520001 6.7392422140001,4.803813341 6.73333096,4.7979315870001 6.7583333330001,4.779166667 6.7422902430001,4.7925757520001 " /><polygon class="region" points="7.086876424,4.715757582 7.0836886930001,4.689214749 7.104166666,4.6708333340001 7.088067288,4.6936228430001 7.086876424,4.715757582 " /><polygon class="region" points="6.7785993790001,4.698043823 6.7659581510001,4.7407792830001 6.7625,4.7416666670001 6.779166667,4.6708333340001 6.7785993790001,4.698043823 " /><polygon class="region" points="6.6,4.4625 6.5961866590001,4.4399244520001 6.595833333,4.3791666660001 6.6035993790001,4.4352895100001 6.6,4.4625 " /><polygon class="region" points="6.6964006210001,4.5313771570001 6.724541049,4.556237454 6.729733955,4.5946183950001 6.72145691,4.594924249 6.6964006210001,4.5313771570001 " /><polygon class="region" points="20.078599379,9.7012149390001 20.140529547,9.7085979890001 20.154166666,9.6041666670001 19.528523763,9.104488458 19.779166667,9.133333334 19.8625,8.9291666660001 19.108333334,8.7416666670001 19.159575738,8.491487969 18.7,8.5125 18.279166667,7.891666667 18.004166667,8.6875 18.184184265,9.0824825710001 18.3875,9.1666666670001 18.634270562,9.1119327120001 20.078599379,9.7012149390001 " /><polygon class="region" points="18.421494547,9.1133995910001 18.4125,9.1166666670001 18.382766045,9.0862850620001 18.399040222,9.083989122 18.421494547,9.1133995910001 " /><polygon class="region" points="-2.7625,7.3875 -2.5,7.158333333 -2.695480007,6.731591119 -2.545833333,6.4 -2.6916666669999,6.1 -3.0619327119999,5.98971049 -3.008347914,5.3229166670001 -3.208515447,5.2008023560001 -2.974143743,5.1088805200001 -2.965515137,5.198701381 -2.87195301,5.1843032840001 -2.851010561,5.139313698 -2.957426309,5.0792889590001 -3.7190911179999,5.187853326 -3.466666666,5.329166666 -3.3241202459999,6.249261135 -3.0048278809999,6.6508995900001 -3.058900621,6.988246664 -2.7625,7.3875 " /><polygon class="region" points="-6.783333334,7.9375 -6.9375,7.1833333330001 -6.829166667,6.4166666670001 -7.2054465059999,6.2118253580001 -7.368509929,6.4709280050001 -7.136581915,6.2919692130001 -7.1747353449999,6.5071960450001 -7.4029505409999,6.6673994280001 -7.408333333,6.9791666670001 -7.5866490679999,7.038350763 -7.7458333339999,7.5875 -6.783333334,7.9375 " /><polygon class="region" points="-14.134053209,14.275776503 -14.116666667,14.025 -14.545833334,13.6375 -14.617517429,13.146684095 -14.921567111,13.349208069 -15.853697882,13.43125 -14.815815905,14.182482401 -14.134053209,14.275776503 " /><polygon class="region" points="18.102424452,7.333686659 18.275,7.325 18.000353326,6.7649244520001 18.0875,6.05 17.907864041,5.945215691 17.85625,6.082864549 17.414242215,6.067019992 17.155066257,6.2964945470001 17.058691406,6.656623671 18.102424452,7.333686659 " /><polygon class="region" points="-2.5954369429999,11.616036479 -2.354166667,11.604166666 -2.216666667,11.204166666 -2.449646674,10.927424452 -2.496188015,10.560047743 -2.889242215,10.720480008 -3.229166667,10.495833334 -3.529166667,10.6 -3.5371466739999,10.814924452 -3.154166667,11.070833333 -3.116270616,11.332365587 -2.5954369429999,11.616036479 " /><polygon class="region" points="-15.504733954,16.731122843 -15.084184096,16.100850763 -15.775,15.895833334 -15.916666667,15.529166667 -16.327074517,15.392128499 -15.965720622,16.36191847 -15.771186659,16.460757785 -16.058333333,16.454166667 -16.470833333,16.075 -16.4375,16.604166666 -15.78248325,16.528599379 -15.420833334,16.883333334 -15.504733954,16.731122843 " /><polygon class="region" points="15.986579047,10.584008789 16.361838786,10.315767076 16.467881606,9.4160993780001 16.941666666,9.5458333330001 16.6125,9.1125 16.949149238,9.0741492380001 16.911584473,8.7672651500001 16.475,9.0708333330001 16.319933743,8.8589945470001 16.175353326,8.926742215 16.165815735,9.353315735 15.858333333,9.7375 16.146346877,9.7363993330001 16.029784308,10.337969292 15.729181926,10.559583198 15.986579047,10.584008789 " /><polygon class="region" points="6.997575548,8.2621466740001 7.1458353680001,8.218734742 6.904166667,7.654166667 7.346400622,7.607118395 6.9089508060001,7.1604934690001 6.937141927,6.7933763290001 6.7092453010001,6.932566664 6.6875,6.65 6.6958333330001,7.204166667 6.5046354510001,7.46875 6.695215691,7.5728398640001 6.6246466750001,7.739924452 6.054774136,7.9990865070001 6.997575548,8.2621466740001 " /><polygon class="region" points="14.904625448,10.202070787 15.396400621,9.7654517280001 15.341666667,9.3125 15.187961833,9.360407851 15.065770128,9.840992907 14.825,9.575 14.492634413,9.657937453 14.666666667,9.325 14.046684265,9.5508509320001 14.6625,9.9166666670001 14.639456177,10.153599379 14.904625448,10.202070787 " /><polygon class="region" points="4.6163425300001,10.999570667 4.7535033230001,10.963293076 4.7523770340001,10.668307304 4.5727517020001,10.146362983 4.811488003,10.13811815 4.8833333330001,10.366666667 5.2020833330001,10.533318753 5.569953749,10.499261136 5.3461866590001,10.285757785 5.331377157,9.863067288 4.5662589070001,9.8439445490001 4.3554077150001,10.418436051 4.4627690310001,10.397256851 4.432080269,10.654104233 4.686409452,10.657352877 4.6163425300001,10.999570667 " /><polygon class="region" points="-8.174357948,11.229876811 -8.1764082839999,11.233077257 -8.1919483779999,11.228002658 -8.2007000049999,11.219727919 -8.2116631399999,11.405592448 -8.1375,11.479166667 -8.245159573,11.453270298 -8.408686659,10.914215766 -8.309021335,10.267476061 -8.8142144089999,10.274646675 -8.716666667,11.141666666 -8.3208333329999,11.65 -8.0258192279999,11.526663412 -8.1608360459999,11.42416938 -8.174357948,11.229876811 " /><polygon class="region" points="8.496400621,8.22278951 8.6461914060001,7.739209832 8.870266046,7.8063771560001 8.95,7.3458333340001 7.7758873830001,7.363208516 8.4202660460001,7.8227895100001 8.4785993780001,8.1063771570001 8.3583333340001,8.191666667 8.496400621,8.22278951 " /><polygon class="region" points="1.636932713,7.321770562 1.937853325,6.8183797200001 1.9399244520001,6.2920199930001 1.430017429,6.600850763 1.324291653,7.015779283 0.92562357600002,7.188409254 0.99166666700006,7.329166667 1.4791666670001,7.1625 1.591666667,7.445833334 1.636932713,7.321770562 " /><polygon class="region" points="-14.062853325,12.147546387 -14.045833334,11.820833333 -14.229190063,11.861238437 -14.322575548,11.575353326 -14.806591119,11.537853326 -15.142271593,11.758874003 -15.020833333,11.945833334 -14.504166667,11.833333334 -14.062853325,12.147546387 " /><polygon class="region" points="-10.679166667,10.15 -10.470833334,9.6083333340001 -10.5125,9.291666666 -10.732118395,9.078599379 -10.661882527,9.311132134 -10.928704834,9.722925483 -10.816666667,10.2375 -10.679166667,10.15 " /><polygon class="region" points="1.649059381,14.12552948 2.050567287,13.702951728 2.1958333330001,13.2875 1.583333334,13.558333333 1.658333333,13.779166667 1.4670199920001,13.785757785 1.649059381,14.12552948 " /><polygon class="region" points="-10.524432712,13.310543823 -10.067135281,13.14375 -10.386336941,12.732967462 -10.475,13.033333333 -10.7875,13.220833334 -10.524432712,13.310543823 " /><polygon class="region" points="12.35,9.75 12.654166667,9.4333333330001 12.510757785,8.9670199930001 12.283793132,9.110428196 12.35,9.75 " /><polygon class="region" points="-4.1272087099999,15.356362343 -4.157956262,15.358840677 -4.147547743,15.400353326 -4.126731702,15.399960776 -4.1272087099999,15.356362343 " /><polygon class="region" points="-0.090380946999971,7.50595772 -0.076512721999961,7.4975566950001 -0.066201035999939,7.468777398 -0.078886175999969,7.4794417310001 -0.090380946999971,7.50595772 " /><polygon class="region" points="-4.133367538,15.294709206 -4.1682312319999,15.283843153 -4.1709181969999,15.286989194 -4.1441769599999,15.301823616 -4.133367538,15.294709206 " /><polygon class="region" points="6.253561571,4.3603271480001 6.24246521,4.3590176050001 6.247162035,4.379771593 6.2547717630001,4.3779340950001 6.253561571,4.3603271480001 " /><polygon class="region" points="-8.174357948,11.229876811 -8.1726567929999,11.224789767 -8.190365261,11.220004612 -8.1899959309999,11.228341742 -8.174357948,11.229876811 " /><polygon class="region" points="6.437062242,4.3112854 6.4416666670001,4.3125 6.440983412,4.305000475 6.438404846,4.3044911700001 6.437062242,4.3112854 " /><polygon class="region" points="-3.6875,15.070833334 -3.6827660459999,15.069618394 -3.686325073,15.066255357 -3.6875,15.070833334 " /><polygon class="region" points="-8.172083334,11.230138889 -8.169583334,11.23125 -8.17196346,11.235305569 -8.1688941789999,11.232708876 -8.1698772519999,11.230298394 -8.172083334,11.230138889 " /><polygon class="region" points="-0.091559261999976,7.507559078 -0.091113823999933,7.5074145510001 -0.090380946999971,7.50595772 -0.091559261999976,7.507559078 " /><polygon class="region" points="-8.172309153,11.230062441 -8.1723058019999,11.230113257 -8.172083334,11.230138889 -8.172309153,11.230062441 " /><polygon class="region" points="0.11416978600005,8.3777636720001 0.21510050400002,8.395267199 0.23683173300003,8.369929063 0.083691406000071,8.1857903370001 0.1875,8.0952520650001 0.032502713000042,8.086391602 -0.05342735399995,7.7752784250001 -0.098891600999934,8.0538620340001 -0.27162613099995,8.126077352 -0.016666666999924,8.154166667 0.025,8.375 -0.425,8.3625 -0.40889010999996,8.202089776 -0.43629520699994,8.1666666670001 -0.85111165899997,8.5125 -0.53333333399996,8.625 -0.49583333399994,8.4375 -0.28871493799994,8.457766045 -0.15755072699994,8.8909620490001 0.13958333300008,8.725468614 0.56998240200005,9.0133507620001 0.63433295400006,9.4589509750001 1.0242533370001,9.2702660460001 1.5,9.325 1.6649536140001,9.708686659 2.25,9.0708333330001 1.872910055,8.9755567760001 1.6083333340001,9.0875 1.629166667,8.6083333330001 2.145833333,8.425 2.333333333,7.704166667 2.4949824010001,7.700850932 2.675,8.0666666660001 2.5378533260001,9.164924452 2.8047339550001,9.9967705620001 2.5375,10.195833333 1.6875,10.041666667 1.571186659,10.397575548 2.266099379,11.764710489 2.0458333340001,11.945833334 1.8083333330001,11.804166667 1.6333333330001,12.058333333 0.87325778600007,12.216313341 0.3625,11.95 0.19223395500006,12.293622843 1.2541666660001,13.208333334 1,13.579166667 0.15035807300006,13.855876499 0.1875,14.141666667 0.40833333300003,14.25 0.44583333300005,14.983333334 -0.31666666599995,15.7375 -0.041666666999959,15.816666667 0.30344984300007,15.629988607 0.54223395500003,16.293877156 1.016666667,16.633333333 1.6333333330001,16.541666666 1.6041666670001,15.820833333 1.4166666670001,15.6375 1.6274244520001,15.521186659 2.0909200030001,15.808900621 2.3041666670001,15.545833334 2.466666667,15.183333333 2.437853325,14.751742215 2.7005672880001,14.419618395 2.645833333,13.991666667 2.966666667,13.75 2.9958333330001,13.895833333 3.098257785,13.771186659 3.775,14.158333334 3.4291666670001,12.6625 3.490451728,12.582766045 3.866312324,13.210046896 3.758333334,13.325 3.906591119,13.507980007 3.9840376110001,13.200919427 4.2458333340001,12.983333333 3.7504686140001,12.60625 3.7416666670001,12.204166667 3.9,12.033333333 4.05,12.0375 4.1142422140001,12.378813341 4.9399244520001,12.267019992 5.364924452,12.474646675 5.7809088820001,12.254519993 6.233950975,12.28650038 6.8208333330001,11.766666667 6.7031965470001,11.428751628 6.454166667,11.495833334 5.95,11.1375 6.0038124930001,10.835048421 5.7125,10.516666667 5.1916666670001,10.529166667 4.7813771570001,10.129733954 4.5727517020001,10.146362983 4.5576791080001,10.165353573 4.7523770340001,10.668307304 4.7535033230001,10.963293076 4.6163425300001,10.999570667 4.686409452,10.657352877 4.432080269,10.654104233 4.4627690310001,10.397256851 4.3554077150001,10.418436051 4.5662589070001,9.8439445490001 5.6440911180001,9.8954800070001 5.831616889,9.595480007 6.4441204500001,9.737853326 6.919091118,9.6871466740001 7.0428039550001,9.5289020120001 8.1276138310001,10.062555101 8.5345482720001,9.5577660450001 8.833333333,9.704166667 9.15,9.2416666670001 9.416666666,9.333333333 9.44412028,9.650353325 9.706173028,9.5214509750001 10.402083333,9.5791812480001 11.040920004,10.104733955 11.316666667,9.7333333330001 13.135251872,10.311970351 13.433333333,10.120833334 13.655325317,10.808219401 14.515931532,11.542469279 14.500909254,11.728543091 15.0125,11.475 15.274311998,11.684142897 15.041666667,12.095833333 15.258333333,12.029166666 15.117019992,12.405908881 15.225617472,12.629903497 14.995228407,12.921373833 15.55750868,13.091011217 15.538714939,13.213067288 15.75,12.983333333 15.391666667,12.954166666 15.375623575,12.621742418 15.862040202,11.84376136 15.783333333,11.6375 16.895086331,11.020097521 17.117435032,10.567638482 18.08244595,10.311791653 18.304166666,10.083333334 18.929166667,10.0125 18.934310235,9.778704665 19.5375,9.9291666670001 19.875705634,10.420069377 20.036528185,10.470064968 19.583333334,9.7958333330001 19.679166666,9.654166667 19.703511217,9.8405905830001 20.154166666,10.1 19.880093045,9.819906955 19.928372531,9.692460802 18.634270562,9.1119327120001 18.184184265,9.0824825710001 18.004166667,8.6875 18.292233954,8.011285061 18.066666667,7.6708333330001 18.395833333,7.454166667 18.349646675,7.2267422140001 18.166666667,7.3458333340001 17.945833333,7.1625 17.795833334,7.225 17.204166667,6.6333333330001 16.5,6.7875 16.1,6.520833334 15.925,6.6875 16.8875,7.875 16.845833334,8.145833333 17.054166666,8.225 17.348285591,8.746186659 17.595833333,8.675 17.65,8.9291666660001 17.477424452,9.1454800070001 16.6125,9.1125 16.941666666,9.5458333330001 16.467881606,9.4160993780001 16.361838786,10.315767076 16.031377157,10.611932712 15.729181926,10.559583198 16.029784308,10.337969292 16.146346877,9.7363993330001 15.858333333,9.7375 16.2,9.2 15.908333334,8.6125 15.271720717,8.4923750140001 14.998286947,9.329519992 14.658333334,9 14.059248861,8.9660681830001 14.003358832,8.71139228 13.868211806,8.8912230770001 13.829867893,8.794777561 13.717692057,8.7913935 13.810407851,8.916204834 13.291666667,8.8625 13.154635281,8.43125 13.449432712,8.268877156 13.404836019,7.667519633 13.5375,7.5541666660001 13.057539198,6.892460801 12.6125,7 12.460543823,7.332766045 12.23125,7.324985419 11.635046726,6.987145657 11.416666667,6.5375 10.6625,6.329166667 10.069091118,5.7878533260001 9.8991973880001,6.1534315320001 9.7333333330001,6.1166666670001 9.200013224,6.526495701 9.2547339540001,6.7757466630001 9.020833333,7.0625 8.870266046,7.8063771560001 8.6666666670001,7.7458333330001 8.4559088820001,8.2663133410001 8.3583333340001,8.191666667 8.4875,7.9125 8.020022075,7.50484297 7.6965416800001,7.424112617 7.4255927190001,6.7532494440001 7.392019992,5.830908881 7.591666666,5.641666667 7.3797339550001,5.276956177 7.799313694,4.8447787810001 7.742572361,4.6006378170001 7.9875,4.5416666670001 7.6134372290001,4.466099378 7.2907067200001,4.820177544 6.9708333340001,4.8583333330001 6.9375,4.7333333340001 6.788192071,4.905160183 6.7080830890001,5.124124485 6.9242804630001,5.2591266210001 6.8857903370001,5.487141927 6.550461833,5.0770921490001 6.682118395,4.516099379 6.417280917,4.859245131 6.7631017050001,6.0282518180001 6.9708333340001,6.204166666 6.3589945480001,6.334232924 6.3074824020001,6.7158159040001 6.130017599,6.750850762 5.9958333340001,7.175 6.2630672880001,7.35491333 6.15,7.9208333330001 6.4440911190001,7.8871466740001 6.6958333330001,7.575 6.5046354510001,7.46875 6.6958333330001,7.204166667 6.6125,6.708333333 6.731085035,6.9453036840001 6.931591118,6.7878533260001 6.9089508060001,7.1604934690001 7.346400622,7.607118395 6.904166667,7.654166667 7.1151709660001,8.2583201090001 6.114456177,8.0494327120001 5.740920003,7.711932712 5.3583333330001,7.8541666670001 5.1666666670001,7.766666667 5.075,8.0541666660001 4.8894561770001,7.988067288 4.5875,8.1875 4.3934088820001,8.000353326 3.9208333330001,8.825 3.6466840950001,8.940815904 3.083333333,8.6166666670001 2.6833333330001,7.7 3.124149238,7.2574824020001 3.0467597110001,6.938426378 3.3204800070001,6.673257785 3.263324653,6.4201778840001 3.4031670470001,6.3952158610001 1.8739824080001,6.3286370180001 1.937853325,6.8183797200001 1.591666667,7.445833334 1.4791666670001,7.1625 0.99166666700006,7.329166667 0.925,7.204166667 1.324291653,7.015779283 1.430017429,6.600850763 1.836838786,6.2866004090001 1.4470482720001,6.203599379 0.85482245500003,6.967626614 0.89109937900003,7.2272104900001 0.68818800200006,7.3299762300001 0.9625,7.6791666670001 0.72556728800004,7.906122843 0.78333333300003,8.254166667 0.44668223000002,8.1170945910001 0.40773485000005,7.77174903 0.27130865200007,7.7371889510001 0.25396104600003,7.917022162 0.16193271200007,7.825937229 0.25082750100006,8.1140332030001 0.12721937400005,8.2197247990001 0.28306396500005,8.3297139480001 0.24131971500003,8.4068895130001 0.085780572000033,8.446107178 0.11416978600005,8.3777636720001 " /><polygon class="region" points="4.5125,11.1375 4.522575548,11.129519992 4.528315735,11.130017429 4.525,11.141666666 4.5125,11.1375 " /><polygon class="region" points="4.625,9.829166666 4.6299156200001,9.796710408 4.633333334,9.7958333330001 4.6329800070001,9.8149244520001 4.625,9.829166666 " /><polygon class="region" points="12.925,9.333333333 12.929166666,9.3208333330001 12.954166666,9.333333333 12.9375,9.3375 12.925,9.333333333 " /><polygon class="region" points="2.5375145800001,6.44375 2.553420003,6.4244327120001 2.5666666660001,6.4291666670001 2.5583333330001,6.445833334 2.5375145800001,6.44375 " /><polygon class="region" points="8.0961866590001,7.8940911180001 8.1208333330001,7.895833334 8.129166667,7.9125 8.1083333330001,7.9125 8.0961866590001,7.8940911180001 " /><polygon class="region" points="13.820833333,9.375 13.829166666,9.3875 13.804166666,9.4125 13.80476515,9.392582363 13.820833333,9.375 " /><polygon class="region" points="3.9291666660001,9.895833333 3.95,9.8833333330001 3.953599379,9.9105438240001 3.9291666660001,9.908333333 3.9291666660001,9.895833333 " /><polygon class="region" points="2.844091119,13.128813341 2.880908881,13.112853326 2.8913085940001,13.118376329 2.875,13.141666667 2.844091119,13.128813341 " /><polygon class="region" points="4.6294558380001,9.7933235670001 4.620894804,9.833113269 4.6184088810001,9.832980008 4.6003533260001,9.814242215 4.6294558380001,9.7933235670001 " /><polygon class="region" points="2.3541666670001,6.4916666670001 2.383339597,6.4524079020001 2.408220096,6.4612739040001 2.373990038,6.4910708960001 2.3541666670001,6.4916666670001 " /><polygon class="region" points="13.914569646,8.924694389 13.952905545,8.921386109 13.950280491,8.90546814 13.966819545,8.899404293 13.94095832,8.9532792840001 13.914569646,8.924694389 " /><polygon class="region" points="15.023916965,10.850529649 15.05358766,10.83068107 15.066666667,10.845833333 15.017709351,10.8742964 15.000578139,10.838447063 15.023916965,10.850529649 " /><polygon class="region" points="10.770833333,8.095833333 10.800746663,8.078599378 10.816666667,8.0875 10.779166667,8.1333333330001 10.770833333,8.095833333 " /><polygon class="region" points="17.729166667,7.966666666 17.769091118,7.970480008 17.791666667,7.954166666 17.76471049,7.999432712 17.729166667,7.966666666 " /><polygon class="region" points="13.929519993,9.639242215 13.900809394,9.640978665 13.884548272,9.6077660460001 13.941666667,9.6 13.929519993,9.639242215 " /><polygon class="region" points="12.491666666,8.970833333 12.654166667,9.4333333330001 12.355908881,9.7621466740001 12.283793132,9.110428196 12.491666666,8.970833333 " /><polygon class="region" points="2.1958333330001,13.391666666 2.050567287,13.702951728 1.6,14.129166667 1.466666667,13.775 1.658333333,13.779166667 1.5967597120001,13.538426378 2.151956177,13.283900621 2.1958333330001,13.391666666 " /><polygon class="region" points="14.284253099,9.745250448 14.046684265,9.5508509320001 14.666666667,9.325 14.492634413,9.657937453 14.825,9.575 15.065770128,9.840992907 15.196684096,9.3466842660001 15.375,9.3708333330001 15.396400621,9.7654517280001 14.998257785,10.187146674 14.639456177,10.153599379 14.6625,9.9166666670001 14.284253099,9.745250448 " /><polygon class="region" points="-14.699100409,17.82017212 -14.608333333,17.85 -15.170480008,17.323257785 -15.457661438,16.905063544 -14.694091119,17.653813341 -14.104166667,17.841666666 -14.291918267,17.596606784 -14.108081733,17.507559882 -14.158333333,17.379166667 -14.504733955,17.134079997 -14.154166666,17.108333333 -13.960757786,16.683686659 -13.216666667,17.104166667 -13.0875,17.054166666 -13.195833334,16.779166667 -13.082334052,16.562017822 -12.717881606,16.766099379 -12.668750339,16.970819092 -12.150794135,16.999205865 -11.817532519,16.70029229 -11.587486437,15.714582317 -11.384257677,15.707682292 -11.246781922,15.449732632 -10.8625,15.55 -10.675736152,15.403408814 -10.879166667,15.05 -10.626013862,15.066056993 -10.383333334,14.670833333 -10.155381605,14.595266046 -9.8559088809999,14.732980008 -9.4199428979999,14.388196818 -8.2800706649999,14.361856418 -7.9541666659999,14.129166667 -8.045833333,13.8 -8.479166667,13.954166667 -8.7875,13.633333334 -8.889242214,13.225353325 -9.5666666669999,13.7 -9.5666666669999,13.8875 -10.039421082,13.576467514 -9.9194885749999,13.541193601 -10,13.154166667 -9.8833333329999,12.829166667 -9.720833333,12.7125 -9.870144484,12.213547092 -9.679166666,11.9 -10.033333334,11.841666667 -10.162038167,11.647925483 -10.048257785,11.467019992 -9.936362881,11.621097988 -9.4633032909999,11.484068468 -9.0541666669999,11.8625 -8.851956177,11.779733955 -8.266666667,12.033333333 -7.970833333,11.879166667 -7.8666798909999,11.505662367 -8.0329800069999,10.980908881 -7.875,10.866666667 -8.075,10.195833333 -7.65900133,9.443776449 -7.8333333329999,8.908333333 -8.482672119,8.932433743 -8.474735514,8.7428039550001 -8.741666666,8.5583333330001 -9.0645768909999,8.8161098900001 -9.259183417,8.6744327120001 -9.5,9.020833333 -10.182639907,8.9843790690001 -10.511584473,9.282690599 -10.466049194,9.846302456 -10.7375,10.25 -10.895480008,10.244091119 -10.95,9.6583333340001 -11.371739027,10.445195516 -11.595833333,10.545833334 -11.954166666,10.358333333 -12.2,10.483333334 -12.195124986,10.715779284 -11.8625,10.825 -11.963067288,10.946579997 -11.804181247,11.260416667 -12.249646674,11.380908881 -12.153599379,11.659183417 -12.279827881,12.115767076 -12.645833334,12.120833333 -12.933333333,11.870833334 -12.8875,12.0375 -13.292595927,12.445130412 -13.583333334,12.475 -14.066666667,12.8375 -14.041666667,13.1625 -14.525,13.204166667 -14.545833334,13.6375 -13.86992001,14.478559027 -13.730066257,14.363161214 -13.008333333,14.645833334 -12.804166666,14.533333334 -12.85476515,14.22174886 -13.195035808,13.94514228 -13.420266045,13.381122844 -13.125353325,13.277424452 -13.232980008,12.772575548 -12.8625,12.691666667 -12.836612617,12.300708347 -12.533333333,12.358333334 -12.704166667,12.583333333 -12.59932624,12.919936795 -11.85504642,12.899261135 -11.7375,12.466666666 -12.007766045,12.37278951 -11.616666667,11.866666667 -11.729166667,12.35 -11.209746127,12.574969144 -11.061932712,12.813246664 -11.2,13.141666667 -11.096186659,13.202424452 -11.406122843,13.578599379 -11.970833333,13.541666667 -12.101100668,13.291153124 -12.395833333,13.354166666 -12.45494317,14.590946791 -13.246538968,15.378359646 -13.4,15.354166667 -13.6375,15.854166667 -14.045833334,15.820833333 -14.55,16.054166666 -15.299188063,15.786828952 -15.325,15.620833333 -15.586600409,15.699338786 -15.869933743,15.396494548 -15.928324042,15.674655152 -15.775,15.895833334 -15.105908882,16.083686659 -15.208333333,16.166666666 -15.104166666,16.2875 -15.532980008,16.601742215 -15.420833334,16.883333334 -15.78248325,16.528599379 -16.40241623,16.523983002 -16.432864719,16.627083334 -16.257442474,17.048379899 -16.388306342,16.595215861 -15.143877157,17.628599379 -15.354166667,17.25 -14.699100409,17.82017212 " /><polygon class="region" points="-12.158333333,13.791666666 -12.130066257,13.796494547 -12.142327881,13.819933743 -12.15339525,13.820061917 -12.158333333,13.791666666 " /><polygon class="region" points="-10.525919596,13.304749552 -10.7875,13.220833334 -10.475,13.033333333 -10.386336941,12.732967462 -10.067135281,13.14375 -10.525919596,13.304749552 " /><polygon class="region" points="-8.174357948,11.229876811 -8.190365261,11.220004612 -8.1726567929999,11.224789767 -8.172309153,11.230062441 -8.1698772519999,11.230298394 -8.1688941789999,11.232708876 -8.1906669109999,11.297160644 -8.12621053,11.278485514 -8.1608360459999,11.42416938 -8.0258192279999,11.526663412 -8.3208333329999,11.65 -8.716666667,11.141666666 -8.8142144089999,10.274646675 -8.309021335,10.267476061 -8.408686659,10.914215766 -8.245159573,11.453270298 -8.1375,11.479166667 -8.2116631399999,11.405592448 -8.2007000049999,11.219727919 -8.174357948,11.229876811 " /><polygon class="region" points="-3.689924452,15.070480008 -3.6633873829999,15.345124817 -4.121893491,15.399869537 -4.0083333329999,15.279166667 -4.159507613,15.283067139 -4.275,14.720833333 -4.8157670759999,14.778505452 -5.275,14.441666667 -5.399239773,14.524294366 -6.283333333,13.504166667 -6.5535474989999,13.428176202 -6.354519992,13.222575548 -6.6550174289999,12.780017429 -7.325,12.845833334 -7.384079996,13.067233955 -7.779166667,12.775 -8.262501357,12.67290073 -8.2416666669999,13.225 -8.475,13.575 -8.1166666669999,13.579166667 -8.0833333329999,13.4 -7.983333333,13.358333333 -7.6895841809999,13.566652933 -7.58971049,13.413067288 -7.429166666,13.566666667 -7.164242214,13.542019993 -6.633686659,13.943408881 -6.8399244519999,14.741313341 -6.3642422149999,14.775353326 -6.345833334,15.054166667 -5.886285062,15.392233955 -5.4375,15.475 -5.247916328,15.270846897 -4.9133507619999,15.584184265 -5.2,15.775 -4.8208333329999,16.075 -4.874646674,16.264924452 -4.7381612139999,16.380066257 -4.9458333329999,16.516666666 -4.974438477,17.135416667 -4.696684096,17.071684095 -4.4882097039999,17.284321764 -4.529166667,17.570833333 -3.7369327119999,17.16929796 -3.552424452,16.833686659 -3.1125,16.945833333 -2.621752251,16.771419271 -1.233333333,17.445833333 -1.119091119,17.803813341 -0.98368665899994,17.789924452 -0.99900071899998,17.262017992 -0.6125,17.7125 -0.32916666699992,17.604166667 -0.15,17.970833333 -0.55,18.129166667 -0.65349833199997,18.349050564 -0.24778950999996,18.378599378 -0.20207078699997,18.150458781 0.1375,18.45 -0.004166666999936,17.179166667 -0.46179741699996,17.007400173 -0.77083333299993,16.391666667 -0.92916666699995,16.445833334 -1.233333333,16.145833333 -1.536686029,16.133592055 -1.245833333,15.9125 -1.9576765269999,15.736685859 -1.7065911189999,15.412853326 -1.529166667,15.5125 -1.1625,15.341666667 -1.2,15.020833334 -1.0166666669999,14.983333334 -1.65,14.920833333 -1.697575548,15.145480008 -2.7375,15.191666666 -2.7176344129999,14.996229383 -3.025,14.775 -3.309868706,14.916700914 -3.7583333339999,14.8375 -3.689924452,15.070480008 " /><polygon class="region" points="-4.167855447,15.292820809 -4.169763523,15.283979458 -4.1319856649999,15.296345711 -4.1441769599999,15.301823616 -4.167855447,15.292820809 " /><polygon class="region" points="-3.1207568469999,16.446104519 -3.1128533259999,16.452424452 -3.125,16.466666667 -3.128808594,16.451709663 -3.1207568469999,16.446104519 " /><polygon class="region" points="-4.147547743,15.400353326 -4.157956262,15.358840677 -4.1272087099999,15.356362343 -4.126731702,15.399960776 -4.147547743,15.400353326 " /><polygon class="region" points="-4.24063158,15.369750023 -4.262501357,15.31040073 -4.206234063,15.30416531 -4.226657867,15.318406105 -4.24063158,15.369750023 " /><polygon class="region" points="-2.793826972,15.325617642 -2.7991492369999,15.288350931 -2.7541666669999,15.270833333 -2.7545199919999,15.281591119 -2.793826972,15.325617642 " /><polygon class="region" points="-3.608689033,8.3975453690001 -2.95,8.3 -2.654166667,7.5083333330001 -3.058900621,6.988246664 -2.9881612139999,6.6883995900001 -3.3241202459999,6.249261135 -3.466666666,5.329166666 -3.6593326149999,5.1870179920001 -5.483333334,5.091666667 -5.32411623,5.2380518910001 -5.069402135,5.2046116290001 -5.003812324,5.9357866080001 -4.53789605,6.038467747 -4.416666667,6.466666667 -4.7458333329999,6.645833333 -4.891666667,6.45 -5.224646675,6.5392422150001 -5.3791666669999,7.208333333 -5.0911370169999,7.6967741230001 -5.1579755989999,8.1607883030001 -4.729166666,7.8791666670001 -4.6074825709999,8.328315904 -4.2258873829999,8.224291653 -3.8051074549999,7.3494705200001 -3.52447052,7.4801074550001 -3.783333333,8.0708333330001 -3.608689033,8.3975453690001 " /><polygon class="region" points="-4.098083656,5.2995667660001 -4.0886163709999,5.293069362 -4.0736837389999,5.292720317 -4.077494852,5.29610466 -4.098083656,5.2995667660001 " /><polygon class="region" points="-5.310089589,5.1207966800001 -5.3618345259999,5.117560387 -5.370215591,5.1143536540001 -5.3039169699999,5.120282135 -5.310089589,5.1207966800001 " /><polygon class="region" points="-5.0083333339999,5.1432626710001 -4.9815201759999,5.1423039430001 -4.9841359449999,5.1617648650001 -4.994982571,5.161649068 -5.0083333339999,5.1432626710001 " /><polygon class="region" points="-4.0879220969999,5.262002468 -4.133246228,5.2567143700001 -4.1280293789999,5.2372353440001 -4.0255456969999,5.250294288 -4.0879220969999,5.262002468 " /><polygon class="region" points="-4.221393524,5.2734728190001 -4.2107577849999,5.262853326 -4.138744942,5.2613815020001 -4.1436824799999,5.285062313 -4.221393524,5.2734728190001 " /><polygon class="region" points="-5.0639219289999,5.189702988 -5.241495882,5.203857982 -5.342885445,5.1383670120001 -5.1006368989999,5.139627804 -5.0639219289999,5.189702988 " /><polygon class="region" points="-6.0600755479999,10.237853326 -5.8660993789999,10.236285061 -5.667512173,9.7743823590001 -5.560046217,9.9670199930001 -5.275850931,9.8158157350001 -5.295833333,9.5541666670001 -5.0800476069999,9.620099216 -4.9875,9.425 -5.170479499,9.2774527660001 -5.363082886,8.6300862630001 -5.671302457,8.499382527 -5.9996458269999,8.6857866080001 -5.8288133409999,8.2850477430001 -5.9125,7.395833334 -5.529166667,6.9083333340001 -5.7,6.7583333330001 -6.0125,6.8 -6.2061228439999,7.061932713 -6.6115926099999,7.046740722 -6.595266045,7.79241333 -6.9416666659999,8.225 -6.887017823,8.624000719 -7.029166666,8.8625 -6.854166667,9.4291666670001 -6.5270673959999,9.22916531 -6.2625,9.4 -6.0600755479999,10.237853326 " /><polygon class="region" points="-3.503279284,11.557624817 -3.1003533259999,11.185757785 -3.5240802339999,10.836917114 -3.686844041,10.249040052 -3.45,10.029166667 -3.608333333,9.8083333330001 -3.3500142409999,9.610417005 -3.395568678,8.7844706220001 -4.025,8.8375 -4.229166667,9.0125 -4.7,8.8583333330001 -4.8752644849999,9.332196214 -4.5875,9.716666667 -5.1958333329999,11.025 -4.795833333,10.791666667 -4.2881547719999,11.084306166 -4.1416666669999,11.3875 -3.503279284,11.557624817 " /><polygon class="region" points="-4.2,9.254166667 -4.170833334,9.25 -4.1625,9.2625 -4.2,9.279166667 -4.2,9.254166667 " /><polygon class="region" points="-3.916666666,10.683333333 -3.870833333,10.695833333 -3.8833333329999,10.729166666 -3.8990802339999,10.720250448 -3.916666666,10.683333333 " /><polygon class="region" points="-16.492233954,12.630381605 -16.633740286,12.714068474 -16.770266046,12.581122844 -16.81610989,13.339576721 -16.667207167,13.492271762 -16.553216214,13.300753445 -16.359583198,13.266681925 -16.15,13.433333333 -16.512816705,13.365516154 -16.545833333,13.595833333 -16.646488783,13.666912503 -16.477275848,14.060695648 -16.512025834,13.877999306 -16.444028854,13.981269837 -16.050758193,13.745389472 -15.243801711,14.191023763 -14.90866428,14.136638387 -15.849338786,13.449100409 -15.358994548,13.357433743 -15.400899591,13.217327881 -15.801742215,13.092019993 -15.895833334,13.1875 -16.428813341,12.789924452 -16.371229384,12.563467746 -16.492233954,12.630381605 " /><polygon class="region" points="-16.458441273,13.270805634 -16.45835357,13.270754465 -16.458333333,13.270833334 -16.458441273,13.270805634 " /><polygon class="region" points="-16.459658048,13.258673284 -16.458333333,13.258333334 -16.458538951,13.259134701 -16.459658048,13.258673284 " /><polygon class="region" points="-16.4625,13.266666667 -16.459184096,13.267517599 -16.459092533,13.267874452 -16.462414733,13.266998984 -16.4625,13.266666667 " /><polygon class="region" points="-16.560957199,13.658958114 -16.559722222,13.658333334 -16.55870483,13.660449754 -16.559236527,13.660101891 -16.560957199,13.658958114 " /><polygon class="region" points="-16.482332156,12.674226408 -16.48202324,12.674045563 -16.479666733,12.672877078 -16.481884766,12.675604926 -16.482332156,12.674226408 " /><polygon class="region" points="-16.516394707,13.69396281 -16.513888889,13.691666667 -16.512854343,13.693747966 -16.513997396,13.696088325 -16.516394707,13.69396281 " /><polygon class="region" points="-16.547085572,13.661920166 -16.545024871,13.667362213 -16.554044563,13.663498745 -16.547085572,13.661920166 " /><polygon class="region" points="-16.717566257,12.741005453 -16.725,12.741666667 -16.716666667,12.7375 -16.717566257,12.741005453 " /><polygon class="region" points="-16.523966222,13.667994885 -16.522916667,13.66722819 -16.511882527,13.67400038 -16.516624176,13.674690521 -16.523966222,13.667994885 " /><polygon class="region" points="-16.633938259,13.677611117 -16.628620063,13.679923164 -16.631884765,13.683938429 -16.633938259,13.677611117 " /><polygon class="region" points="-16.76549341,12.715363391 -16.754733955,12.726956176 -16.754166667,12.729166667 -16.759761128,12.725325237 -16.76549341,12.715363391 " /><polygon class="region" points="-16.486902248,12.647579227 -16.484722222,12.645833333 -16.478997463,12.652990383 -16.485021819,12.654537114 -16.486902248,12.647579227 " /><polygon class="region" points="-16.775617472,12.790219116 -16.770261976,12.792600166 -16.772965229,12.803552523 -16.774255032,12.803392198 -16.775617472,12.790219116 " /><polygon class="region" points="-16.5750835,12.875412582 -16.570833333,12.866666667 -16.570833333,12.8875 -16.571427852,12.887347432 -16.5750835,12.875412582 " /><polygon class="region" points="-16.779784139,12.769385783 -16.774428643,12.771766832 -16.775811089,12.782883369 -16.778421699,12.782558865 -16.779784139,12.769385783 " /><polygon class="region" points="-16.487665176,13.858653068 -16.497896303,13.854124069 -16.490672811,13.846127828 -16.488109334,13.846702576 -16.487665176,13.858653068 " /><polygon class="region" points="-16.567553033,12.8575609 -16.570833333,12.858333334 -16.577677928,12.833684074 -16.571468777,12.838552179 -16.567553033,12.8575609 " /><polygon class="region" points="-16.595833333,12.741666667 -16.588204278,12.74675293 -16.582766045,12.773785062 -16.5875,12.775 -16.595833333,12.741666667 " /><polygon class="region" points="-16.589768893,12.783915662 -16.583935886,12.784247843 -16.579166667,12.829166667 -16.586593628,12.815966606 -16.589768893,12.783915662 " /><polygon class="region" points="-16.500579834,13.869581096 -16.492536418,13.871703085 -16.46699209,13.897766609 -16.481941223,13.892782211 -16.5048275,13.870538712 -16.504930496,13.863409042 -16.500579834,13.869581096 " /><polygon class="region" points="5.268877157,5.8964006210001 5.3506649450001,5.6425233630001 5.7283159040001,5.728315735 5.5583333340001,5.5583333340001 6.4,5.841666667 6.25319892,5.296229214 5.7958333330001,5.2 6.0583333340001,4.954166667 5.7491004090001,4.563161214 5.3508605960001,5.171854146 5.320177884,5.365469869 5.495507473,5.3549297760001 5.516666667,5.5 5.243622843,5.4380672880001 5.2049485950001,5.603500705 5.3762956410001,5.579030016 5.4048095700001,5.621155125 5.0797970240001,5.718685743 5.268877157,5.8964006210001 " /><polygon class="region" points="5.428700087,5.4558080030001 5.4319444440001,5.454166667 5.43297899,5.456247965 5.4318359380001,5.4585883250001 5.428700087,5.4558080030001 " /><polygon class="region" points="5.428700087,5.4474746700001 5.4319444440001,5.4458333330001 5.43297899,5.4479146320001 5.4318359380001,5.4502549910001 5.428700087,5.4474746700001 " /><polygon class="region" points="5.5203667540001,5.364141337 5.523611111,5.3625 5.5246456570001,5.3645812980001 5.523502604,5.366921658 5.5203667540001,5.364141337 " /><polygon class="region" points="5.5078667540001,5.359974671 5.511111111,5.3583333330001 5.5121456570001,5.3604146320001 5.5110026040001,5.362754991 5.5078667540001,5.359974671 " /><polygon class="region" points="5.466666667,5.6375 5.4675174290001,5.634184265 5.470833333,5.633333334 5.4699825710001,5.6366490680001 5.466666667,5.6375 " /><polygon class="region" points="5.15,5.783333333 5.1508507620001,5.7800175990001 5.154166667,5.779166666 5.1533159040001,5.782482402 5.15,5.783333333 " /><polygon class="region" points="5.4508507620001,5.1991490680001 5.45,5.195833334 5.4533159050001,5.196684265 5.454166667,5.2 5.4508507620001,5.1991490680001 " /><polygon class="region" points="5.65,5.529166667 5.6533159040001,5.530017598 5.654166667,5.5333333340001 5.6508507620001,5.532482402 5.65,5.529166667 " /><polygon class="region" points="5.529166667,5.4 5.5300174290001,5.396684265 5.5333333340001,5.395833333 5.532482572,5.399149068 5.529166667,5.4 " /><polygon class="region" points="5.395833333,5.4791666670001 5.395833333,5.475 5.4,5.475 5.3991492380001,5.478315735 5.395833333,5.4791666670001 " /><polygon class="region" points="5.3208333330001,5.716666666 5.321494547,5.7092329230001 5.325,5.708333333 5.3241492380001,5.715815735 5.3208333330001,5.716666666 " /><polygon class="region" points="5.458333333,5.175 5.4586914060001,5.172543165 5.466666667,5.1666666670001 5.460790338,5.174641927 5.458333333,5.175 " /><polygon class="region" points="5.5262149390001,5.6255672880001 5.525,5.6208333340001 5.5333333340001,5.6208333340001 5.5324713810001,5.6241923010001 5.5262149390001,5.6255672880001 " /><polygon class="region" points="5.419982571,5.4341842650001 5.4208333330001,5.4375 5.4297465,5.4405086950001 5.4125,5.4375 5.419982571,5.4341842650001 " /><polygon class="region" points="5.5607855910001,4.8288119850001 5.5541666670001,4.829166666 5.570833334,4.8166666660001 5.5704800070001,4.8190911190001 5.5607855910001,4.8288119850001 " /><polygon class="region" points="5.5375,4.8208333330001 5.544091119,4.821186659 5.55,4.829166666 5.5416666670001,4.829166666 5.5375,4.8208333330001 " /><polygon class="region" points="5.609184096,5.5449824020001 5.6274244520001,5.545480007 5.6375,5.5375 5.628267077,5.5492645260001 5.609184096,5.5449824020001 " /><polygon class="region" points="5.4833333330001,4.8666666660001 5.4920244,4.847545708 5.5083333330001,4.833333333 5.491313341,4.860757785 5.4833333330001,4.8666666660001 " /><polygon class="region" points="5.5875,4.8125 5.6083333340001,4.8208333330001 5.6166666670001,4.833333333 5.5883507620001,4.815815904 5.5875,4.8125 " /><polygon class="region" points="5.475,5.633333334 5.483916219,5.621753099 5.5112850620001,5.616099379 5.5125,5.6208333340001 5.475,5.633333334 " /><polygon class="region" points="5.458333333,4.916666666 5.4589006210001,4.906122844 5.4833333330001,4.8708333330001 5.4785993790001,4.885543824 5.458333333,4.916666666 " /><polygon class="region" points="5.404166667,5.641666667 5.4309088810001,5.637853326 5.458333333,5.6375 5.436753337,5.6547339540001 5.404166667,5.641666667 " /><polygon class="region" points="5.522575548,5.5079800070001 5.585046387,5.5038133410001 5.6041666670001,5.5333333340001 5.5823961040001,5.511932712 5.522575548,5.5079800070001 " /><polygon class="region" points="5.4048278810001,5.144933743 5.4053816050001,5.132766046 5.4708187520001,5.1395833330001 5.4625,5.154166667 5.4048278810001,5.144933743 " /><polygon class="region" points="-0.43971048999993,9.5994327120001 -0.23333333299996,9.4833333330001 -0.40451999299995,8.9850755480001 -0.62254909999996,8.8204800080001 -0.93714667399996,8.9982577860001 -0.85711919999994,8.5300420030001 -1.0249575459999,8.8161073810001 -1.304903327,8.782715861 -1.354166667,9.016666667 -1.795480007,9.130908881 -1.2583333329999,9.504166667 -1,9.4 -0.43971048999993,9.5994327120001 " /><polygon class="region" points="-16.478813341,16.064924452 -16.058333333,16.454166667 -15.771186659,16.460757785 -15.965720622,16.36191847 -16.32175293,15.463082885 -16.908333333,14.933333333 -17.076713054,14.978813341 -16.550353326,15.751742214 -16.521186659,16.29337972 -16.4375,16.5375 -16.478813341,16.064924452 " /><polygon class="region" points="-16.525,15.833333333 -16.524958537,15.832926919 -16.524878105,15.833333333 -16.525,15.833333333 " /><polygon class="region" points="-16.493835059,15.967073066 -16.492881605,15.966099379 -16.492240081,15.968599048 -16.493328095,15.967107772 -16.493835059,15.967073066 " /><polygon class="region" points="-16.514622462,15.879711383 -16.5125,15.879166667 -16.5125,15.883333334 -16.514607157,15.882792564 -16.514622462,15.879711383 " /><polygon class="region" points="-16.50781439,15.99807466 -16.507685838,15.996736506 -16.504166666,15.995833334 -16.504166666,16 -16.50781439,15.99807466 " /><polygon class="region" points="-16.508333333,15.967187128 -16.508333333,15.9625 -16.504827881,15.963399591 -16.504301267,15.969320084 -16.508333333,15.967187128 " /><polygon class="region" points="-16.503543091,16.015757582 -16.504166666,16.004166667 -16.5,16.016666667 -16.503543091,16.015757582 " /><polygon class="region" points="-16.504552387,15.980137022 -16.5,15.979166667 -16.504166666,15.991666667 -16.507125834,15.990907174 -16.504552387,15.980137022 " /><polygon class="region" points="-16.508333333,15.948809999 -16.504671044,15.940436097 -16.503599378,15.957118394 -16.508333333,15.958333334 -16.508333333,15.948809999 " /><polygon class="region" points="-16.51458112,15.888034105 -16.508333333,15.891666667 -16.508333333,15.929166667 -16.511705399,15.922732353 -16.51458112,15.888034105 " /><polygon class="region" points="-16.485581461,16.057803684 -16.502909342,16.050272963 -16.5,16.033333333 -16.492469279,16.034068468 -16.485581461,16.057803684 " /><polygon class="region" points="-0.95242445199995,8.2128533260001 -1.4375,8 -1.627083673,7.995847575 -1.695095995,8.265929498 -1.307118395,8.7047339550001 -1.2503533259999,8.5392422140001 -1.495048523,8.228389824 -1.4413109679999,8.030878703 -1.132736952,8.6706802190001 -0.73397623699998,8.310468207 -0.82671305299994,8.308686659 -0.93543260299992,8.2708346900001 -0.9625,8.254166667 -0.95242445199995,8.2128533260001 " /><polygon class="region" points="-4.523287964,14.182977634 -4.3958333329999,14.033333333 -4.5666666669999,13.820833333 -5.2952660449999,13.893622844 -5.0708333339999,14.066666667 -4.68258667,14.003599379 -4.523287964,14.182977634 " /><polygon class="region" points="15.05,14.408333333 15.279166667,13.925 14.963386366,13.586727397 14.981480598,13.419278145 14.895833333,13.629166667 15.092233954,14.16741333 14.820833333,14.291666666 15.05,14.408333333 " /><polygon class="region" points="-0.60515713099994,7.9547858340001 -0.67140062099997,7.9134372290001 -0.7125,7.7333333330001 -0.67443271199994,7.9730438230001 -0.49984164799997,8.1215304900001 -0.60515713099994,7.9547858340001 " /><polygon class="region" points="-0.95,8.2125 -0.94494594999998,8.2451249860001 -0.82157999699996,8.296400621 -0.70829170299993,8.281816608 -0.95,8.2125 " /><polygon class="region" points="-0.18215196399996,7.960182563 -0.32916666699992,7.8166666670001 -0.34964226599993,7.826711527 -0.29050801599993,7.941552734 -0.18215196399996,7.960182563 " /><polygon class="region" points="15.250383377,13.448133469 15.345294952,13.397066116 15.356895447,13.270944595 15.270833333,13.358333333 15.250383377,13.448133469 " /><polygon class="region" points="14.914663315,13.465848923 14.937479019,13.440354348 14.947084225,13.416484369 14.908686659,13.460075548 14.914663315,13.465848923 " /><polygon class="region" points="-16.658633084,13.649095493 -16.652507866,13.649857415 -16.624871826,13.627938673 -16.640829468,13.621530321 -16.658633084,13.649095493 " /><polygon class="region" points="-16.821450805,13.384279209 -16.813441637,13.392263964 -16.813888889,13.383333333 -16.821450805,13.384279209 " /><polygon class="region" points="-8.1720266679999,11.234346886 -8.179098036,11.239607747 -8.179716932,11.240777453 -8.1736386449999,11.236722819 -8.1720266679999,11.234346886 " /><polygon class="region" points="-8.1723058019999,11.230113257 -8.1720266679999,11.234346886 -8.169583334,11.23125 -8.1723058019999,11.230113257 " /><polygon class="region" points="0.11779560500003,8.3775242790001 0.11857028500003,8.378330621 0.12249172600002,8.3772142190001 0.11779560500003,8.3775242790001 " /><polygon class="region" points="-8.174357948,11.229876811 -8.1723058019999,11.230113257 -8.174056939,11.229470758 -8.174357948,11.229876811 " />
		  </g>
		</svg>