<?xml version="1.0" encoding="UTF-8"?>
	<svg xmlns:xlink="http://www.w3.org/1999/xlink" 
	xmlns="http://www.w3.org/2000/svg" 
	width="360px" height="180px">
	   <style type="text/css">
		  <![CDATA[     
		  .region 
		  { 
			fill:blue; 
			opacity:0.4; 
			stroke:blue;
		  }
		  ]]>
	   </style>

	<circle id="dot" x="-2" y="-2" r="2" style="stroke:none; stroke-width:0; fill:black; opacity:0.7;"/>


	 <image x="0" y="0" width="360" height="180" xlink:href="map.jpg"/>

 
	 <g transform="translate(180,90) scale(1,-1)"><polygon class="region" points="37.589660305,-10.283950975 38.244982402,-10.713350931 38.466666667,-11.066666666 38.479166667,-11.425 37.809041681,-11.700887383 37.629519992,-12.081591119 37.885786608,-12.000354173 38,-12.229166667 37.813067288,-12.559079997 37.680075751,-12.641043091 37.62278951,-12.450567288 36.9625,-13.058333333 36.578599379,-12.276214939 37.391653103,-11.672917006 36.988350762,-11.088350762 37.749432712,-10.998043823 37.820833333,-10.666666666 37.479875013,-10.18005405 37.589660305,-10.283950975 " /><polygon class="region" points="36.264456177,-11.720266045 36.166666667,-12.458333333 36.013155958,-12.446793111 35.721191406,-12.835043166 35.7125,-13.1125 35.254166667,-13.341666666 35.271601698,-12.480138313 36.264456177,-11.720266045 " /><polygon class="region" points="35.641313341,-14.281620449 36.224985419,-14.452083333 35.979216851,-14.868209839 36.1125,-15.1875 35.800704278,-15.230086263 35.789733887,-15.488785744 35.577083334,-15.213038805 35.279166667,-15.316666667 35.537146674,-14.939924452 35.425,-14.366666667 35.641313341,-14.281620449 " /><polygon class="region" points="33.562858073,-8.985042995 34.310788472,-9.183691068 34.627006531,-9.557715861 35.056301541,-9.4548095709999 35.304166667,-9.729166666 35.554166667,-9.679166666 35.63430108,-10.012104119 35.965779284,-10.09654168 35.8375,-10.466666667 35.947575548,-10.649646675 36.18971049,-10.521400621 36.525,-10.7625 36.9375,-10.391666667 37.475,-10.191666666 37.820833333,-10.666666666 37.754166666,-10.9875 36.988350762,-11.088350762 37.391653103,-11.672917006 36.578599379,-12.276214939 36.9625,-13.058333333 37.62278951,-12.450567288 37.680075751,-12.641043091 37.813067288,-12.559079997 38,-12.229166667 37.885786608,-12.000354173 37.629519992,-12.081591119 37.809041681,-11.700887383 38.479166667,-11.425 38.466666667,-11.066666666 38.151742215,-10.537853326 38.494091118,-10.433686659 38.67278951,-10.695266045 39.061600409,-10.604827881 39.216666667,-10.854166667 40.313415696,-10.41726515 40.52454834,-10.543747457 40.219860331,-10.841011895 39.759140354,-10.963205635 39.482598199,-11.540764025 38.792233955,-11.918622844 38.4375,-12.9 37.605908881,-13.079519992 36.500735135,-14.025802612 36.214924452,-14.449646674 35.627424452,-14.246186659 35.425,-14.366666667 35.537146674,-14.939924452 35.283333334,-15.329166667 35.577083334,-15.213038805 35.804172516,-15.485784531 35.800704278,-15.230086263 36.065529548,-15.166402181 36.295833333,-15.495833333 35.816666667,-15.8875 35.700579495,-16.46991272 35.949646675,-16.669091119 35.491666666,-17.654166667 35.320833334,-17.695833334 35.075353326,-17.435757786 35.1625,-16.841666666 34.430017599,-16.265815735 34.258333333,-15.916666667 34.600353326,-15.276713054 34.529166666,-14.545833334 34.355075921,-14.388123575 33.666666666,-14.620833333 33.304166667,-14.025 33,-14 32.686894904,-13.617207167 32.992312283,-13.225903659 33.394924249,-13.149376424 33.333900621,-12.58528951 33.85,-12.016666666 33.591313341,-11.523286946 33.920172119,-11.040767076 33.954166667,-10.691666667 33.575,-10.4375 33.220833333,-9.6166666669999 33.025926378,-9.640740288 33.049646674,-9.4975755479999 32.816666666,-9.35 32.885786946,-9.178813341 33.431591119,-9.157980008 33.562858073,-8.985042995 " /><polygon class="region" points="37.470833333,-10.8375 37.470833333,-10.841666667 37.4875,-10.845833334 37.466666667,-10.825 37.470833333,-10.8375 " /><polygon class="region" points="34.291666667,-11.679166667 34.292020501,-11.698285929 34.312563747,-11.70403504 34.314297112,-11.700066226 34.291666667,-11.679166667 " /><polygon class="region" points="35.870833333,-11.258333333 35.8875,-11.2625 35.879166666,-11.241666667 35.870833333,-11.241666667 35.870833333,-11.258333333 " /><polygon class="region" points="36.225,-13.5375 36.245833334,-13.554166667 36.258333334,-13.554166667 36.235543823,-13.533900622 36.225,-13.5375 " /><polygon class="region" points="34.849171622,-14.001014983 34.893622843,-14.045266046 34.914735314,-14.045546251 34.867584229,-13.998979569 34.849171622,-14.001014983 " /><polygon class="region" points="34.947575548,-13.704519992 34.927424452,-13.712146674 34.854138308,-13.710555672 34.974836071,-13.722242305 34.947575548,-13.704519992 " /><polygon class="region" points="34.217880249,-12.711528778 34.231085035,-12.770303853 34.274863714,-12.752461175 34.257335663,-12.745734215 34.217880249,-12.711528778 " /><polygon class="region" points="36.195590549,-11.786318631 35.271601698,-12.480138313 35.254166667,-13.341666666 35.7125,-13.1125 35.721191406,-12.835043166 36.013155958,-12.446793111 36.166666667,-12.458333333 36.329166666,-11.833333334 36.195590549,-11.786318631 " /><polygon class="region" points="39.436285061,-7.988067288 39.349114312,-8.300667996 39.020833333,-8.0833333329999 38.595595465,-8.844989692 37.908333333,-8.725 37.829166667,-8.904166667 37.413350762,-8.665815735 37.183333333,-8.3 37.2,-8.033333333 36.903420003,-7.6785993789999 36.292477587,-7.821840074 35.969982402,-8.294982401 35.661753337,-8.211932712 35.270833334,-8.604166667 35.029166666,-8.3875 35.548257786,-8.178813341 35.533333333,-8.0041666669999 35.367517429,-7.9466842649999 35.158333333,-8.1333333339999 34.785787116,-8.01631334 34.371783787,-8.290913222 34.28368666,-8.160075548 34.4125,-8.0833333329999 34.044982401,-7.692517429 33.825,-7.825 33.688117472,-7.385339695 33.821720717,-7.1923750129999 34.1125,-7.3 34.538714939,-7.0702660449999 34.699149068,-7.080017429 34.718622843,-7.286932712 35.358333334,-7.1875 35.551742214,-7.503813341 35.779733954,-7.384548272 35.695266046,-7.769618394 35.929166666,-7.8208333329999 36.020833333,-7.4333333329999 36.331326803,-7.5285491939999 36.704166667,-7.3875 36.658333334,-7.091666667 37.051742215,-7.437146675 37.290767076,-7.3673278799999 37.4875,-7.766666667 38.228844876,-7.2910237629999 38.795074293,-7.2757558189999 38.895833334,-7.733333334 39.1125,-7.675 39.264242214,-8.01631334 39.391666667,-7.9916666669999 39.37721049,-7.7672339539999 39.436285061,-7.988067288 " /><polygon class="region" points="39.432866753,-7.8191921659999 39.436111111,-7.8208333329999 39.437145657,-7.8187520339999 39.436002604,-7.8164116749999 39.432866753,-7.8191921659999 " /><polygon class="region" points="39.892322117,-7.7812110049999 39.736844551,-7.9389889189999 39.749254693,-7.982596503 39.588475545,-7.949536811 39.91315545,-7.6384365499999 39.892322117,-7.7812110049999 " /><polygon class="region" points="39.816049194,-7.977160306 39.781326972,-8.0285491939999 39.745215861,-8.019465468 39.754884508,-7.967444526 39.816049194,-7.977160306 " /><polygon class="region" points="39.33269043,-7.818801541 39.342464532,-7.7885142009999 39.371654511,-7.7924022669999 39.298452223,-7.861524937 39.33269043,-7.818801541 " /><polygon class="region" points="39.726512315,-8.071632555 39.714542304,-8.0451904289999 39.745083618,-8.046532525 39.745911323,-8.0568339029999 39.726512315,-8.071632555 " /><polygon class="region" points="39.813686795,-7.942496406 39.799395073,-7.935650973 39.811644152,-7.924395074 39.82143826,-7.9260420059999 39.813686795,-7.942496406 " /><polygon class="region" points="39.532587348,-7.949254014 39.522865126,-7.949357096 39.503523763,-7.944917806 39.51166314,-7.9368570959999 39.532587348,-7.949254014 " /><polygon class="region" points="39.686728583,-7.6242285829999 39.678549194,-7.624054294 39.680123902,-7.611882527 39.688038126,-7.613703071 39.686728583,-7.6242285829999 " /><polygon class="region" points="39.570365397,-8.380228 39.578105333,-8.378698561 39.577777778,-8.3875 39.571661377,-8.3867872449999 39.570365397,-8.380228 " /><polygon class="region" points="39.428523763,-8.3017966369999 39.434178331,-8.299357266 39.436111111,-8.308333333 39.428523763,-8.3017966369999 " /><polygon class="region" points="39.586882527,-8.278220791 39.590751817,-8.274382358 39.595543416,-8.2763071699999 39.594444444,-8.279166667 39.586882527,-8.278220791 " /><polygon class="region" points="39.678549194,-7.7032209609999 39.682418484,-7.6993825279999 39.687210083,-7.70130717 39.686111111,-7.704166667 39.678549194,-7.7032209609999 " />
		  </g>
		</svg>