<?xml version="1.0" encoding="UTF-8"?>
	<svg xmlns:xlink="http://www.w3.org/1999/xlink" 
	xmlns="http://www.w3.org/2000/svg" 
	width="360px" height="180px">
	   <style type="text/css">
		  <![CDATA[     
		  .region 
		  { 
			fill:blue; 
			opacity:0.4; 
			stroke:blue;
		  }
		  ]]>
	   </style>

	<circle id="dot" x="-2" y="-2" r="2" style="stroke:none; stroke-width:0; fill:black; opacity:0.7;"/>


	 <image x="0" y="0" width="360" height="180" xlink:href="map.jpg"/>

 
	 <g transform="translate(180,90) scale(1,-1)">   <use xlink:href="#dot" transform="translate(-64.6275,17.7338)" />   <use xlink:href="#dot" transform="translate(-64.6372,17.7608)" />   <use xlink:href="#dot" transform="translate(-64.6301,17.7351)" />   <use xlink:href="#dot" transform="translate(-64.6275,17.733778)" />   <use xlink:href="#dot" transform="translate(-64.6279,17.7343)" />   <use xlink:href="#dot" transform="translate(-64.630056,17.735111)" />   <use xlink:href="#dot" transform="translate(-64.637222,17.760778)" />   <use xlink:href="#dot" transform="translate(-64.627944,17.734306)" />   <use xlink:href="#dot" transform="translate(-68.8597,12.0663)" />   <use xlink:href="#dot" transform="translate(-77.9169,25.8267)" />   <use xlink:href="#dot" transform="translate(-77.9169,25.8267)" />   <use xlink:href="#dot" transform="translate(-77.9169,25.8267)" />   <use xlink:href="#dot" transform="translate(-77.9695,25.4225)" />   <use xlink:href="#dot" transform="translate(-71.4801,21.5374)" />   <use xlink:href="#dot" transform="translate(-71.4801,21.5374)" />   <use xlink:href="#dot" transform="translate(-71.4801,21.5374)" />   <use xlink:href="#dot" transform="translate(-71.4957,21.4982)" />   <use xlink:href="#dot" transform="translate(-68.9848,12.1331)" />   <use xlink:href="#dot" transform="translate(-68.985,12.1325)" />   <use xlink:href="#dot" transform="translate(-77.6681,25.7515)" />   <use xlink:href="#dot" transform="translate(-87.825996,18.288)" />   <use xlink:href="#dot" transform="translate(-88.033,16.372)" />   <use xlink:href="#dot" transform="translate(-88.033,16.372)" />   <use xlink:href="#dot" transform="translate(-88.033,16.372)" />   <use xlink:href="#dot" transform="translate(-87.782997,18.268999)" />   <use xlink:href="#dot" transform="translate(-86.258,20.726)" />   <use xlink:href="#dot" transform="translate(-88.033,16.372)" />   <use xlink:href="#dot" transform="translate(-87.288002,20.084999)" />   <use xlink:href="#dot" transform="translate(-86.291,21.754)" />   <use xlink:href="#dot" transform="translate(-64.62995,17.8094)" />   <use xlink:href="#dot" transform="translate(-64.625567,17.796683)" />   <use xlink:href="#dot" transform="translate(-64.620417,17.781817)" />   <use xlink:href="#dot" transform="translate(-64.637117,17.811067)" />   <use xlink:href="#dot" transform="translate(-64.613567,17.789917)" />   <use xlink:href="#dot" transform="translate(-76.1064,23.7521)" />   <use xlink:href="#dot" transform="translate(-76.1008,23.7812)" />   <use xlink:href="#dot" transform="translate(-76.1318,23.7682)" />   <use xlink:href="#dot" transform="translate(-76.1798,23.7481)" />   <use xlink:href="#dot" transform="translate(-76.1315,23.804)" />   <use xlink:href="#dot" transform="translate(-76.1115,23.7814)" />   <use xlink:href="#dot" transform="translate(-76.1466,23.7966)" />   <use xlink:href="#dot" transform="translate(-76.0897,23.7751)" />   <use xlink:href="#dot" transform="translate(-76.1189,23.7606)" />   <use xlink:href="#dot" transform="translate(-64.62915,17.78255)" />   <use xlink:href="#dot" transform="translate(-64.604417,17.785467)" />   <use xlink:href="#dot" transform="translate(-29.31035,-20.525417)" />   <use xlink:href="#dot" transform="translate(-64.627042,17.788889)" />   <use xlink:href="#dot" transform="translate(-64.614181,17.790219)" />   <use xlink:href="#dot" transform="translate(-64.611989,17.786711)" />   <use xlink:href="#dot" transform="translate(-64.6203,17.7894)" />   <use xlink:href="#dot" transform="translate(-64.612011,17.789381)" />   <use xlink:href="#dot" transform="translate(-64.612219,17.796667)" />   <use xlink:href="#dot" transform="translate(-64.6304,17.7895)" />   <use xlink:href="#dot" transform="translate(-64.612,17.7867)" />   <use xlink:href="#dot" transform="translate(-64.63,17.7862)" />   <use xlink:href="#dot" transform="translate(-64.6137,17.7885)" />   <use xlink:href="#dot" transform="translate(-64.615,17.785833)" />   <use xlink:href="#dot" transform="translate(-64.6215,17.7897)" />   <use xlink:href="#dot" transform="translate(-64.613731,17.78845)" />   <use xlink:href="#dot" transform="translate(-64.61373,17.78845)" />   <use xlink:href="#dot" transform="translate(-64.6172,17.7886)" />   <use xlink:href="#dot" transform="translate(-64.625,17.790278)" />   <use xlink:href="#dot" transform="translate(-64.625,17.7903)" />   <use xlink:href="#dot" transform="translate(-64.6276,17.7888)" />   <use xlink:href="#dot" transform="translate(-64.627639,17.788819)" />   <use xlink:href="#dot" transform="translate(-64.6211,17.7897)" />   <use xlink:href="#dot" transform="translate(-64.6247,17.79)" />   <use xlink:href="#dot" transform="translate(-64.630361,17.789519)" />   <use xlink:href="#dot" transform="translate(-64.624722,17.79)" />   <use xlink:href="#dot" transform="translate(-64.613561,17.786089)" />   <use xlink:href="#dot" transform="translate(-64.615,17.7858)" />   <use xlink:href="#dot" transform="translate(-64.6142,17.7902)" />   <use xlink:href="#dot" transform="translate(-64.621111,17.789722)" />   <use xlink:href="#dot" transform="translate(-64.6265,17.7899)" />   <use xlink:href="#dot" transform="translate(-64.621489,17.789722)" />   <use xlink:href="#dot" transform="translate(-64.6122,17.7967)" />   <use xlink:href="#dot" transform="translate(-64.612,17.7894)" />   <use xlink:href="#dot" transform="translate(-64.6118,17.7893)" />   <use xlink:href="#dot" transform="translate(-64.630289,17.7894)" />   <use xlink:href="#dot" transform="translate(-64.627,17.7889)" />   <use xlink:href="#dot" transform="translate(-64.617211,17.78855)" />   <use xlink:href="#dot" transform="translate(-64.6303,17.7894)" />   <use xlink:href="#dot" transform="translate(-64.6137,17.7885)" />   <use xlink:href="#dot" transform="translate(-64.62655,17.78985)" />   <use xlink:href="#dot" transform="translate(-64.630047,17.786211)" />   <use xlink:href="#dot" transform="translate(-64.6136,17.7861)" />   <use xlink:href="#dot" transform="translate(-64.620331,17.7894)" />   <use xlink:href="#dot" transform="translate(-64.617889,17.78925)" />   <use xlink:href="#dot" transform="translate(-64.6136,17.7898)" />   <use xlink:href="#dot" transform="translate(-64.6276,17.7931)" />   <use xlink:href="#dot" transform="translate(-64.6117,17.7897)" />   <use xlink:href="#dot" transform="translate(-64.6179,17.7894)" />   <use xlink:href="#dot" transform="translate(-64.626911,17.792661)" />   <use xlink:href="#dot" transform="translate(-64.6179,17.7894)" />   <use xlink:href="#dot" transform="translate(-64.614,17.79)" />   <use xlink:href="#dot" transform="translate(-64.611231,17.789919)" />   <use xlink:href="#dot" transform="translate(-64.6261,17.7929)" />   <use xlink:href="#dot" transform="translate(-64.613589,17.789767)" />   <use xlink:href="#dot" transform="translate(-64.613589,17.792631)" />   <use xlink:href="#dot" transform="translate(-64.614011,17.789961)" />   <use xlink:href="#dot" transform="translate(-64.6148,17.7885)" />   <use xlink:href="#dot" transform="translate(-64.627269,17.793269)" />   <use xlink:href="#dot" transform="translate(-64.6136,17.7926)" />   <use xlink:href="#dot" transform="translate(-64.6138,17.7905)" />   <use xlink:href="#dot" transform="translate(-64.62605,17.792919)" />   <use xlink:href="#dot" transform="translate(-64.6138,17.7905)" />   <use xlink:href="#dot" transform="translate(-64.63055,17.789789)" />   <use xlink:href="#dot" transform="translate(-64.61945,17.790989)" />   <use xlink:href="#dot" transform="translate(-64.6138,17.790489)" />   <use xlink:href="#dot" transform="translate(-64.6269,17.7927)" />   <use xlink:href="#dot" transform="translate(-64.6195,17.791)" />   <use xlink:href="#dot" transform="translate(-64.6305,17.7898)" />   <use xlink:href="#dot" transform="translate(-64.630739,17.790431)" />   <use xlink:href="#dot" transform="translate(-64.616361,17.784019)" />   <use xlink:href="#dot" transform="translate(-64.6136,17.7849)" />   <use xlink:href="#dot" transform="translate(-64.6112,17.7899)" />   <use xlink:href="#dot" transform="translate(-64.6273,17.7933)" />   <use xlink:href="#dot" transform="translate(-64.6179,17.7892)" />   <use xlink:href="#dot" transform="translate(-64.6138,17.7905)" />   <use xlink:href="#dot" transform="translate(-64.6307,17.7904)" />   <use xlink:href="#dot" transform="translate(-64.637,17.7986)" />   <use xlink:href="#dot" transform="translate(-64.6305,17.7893)" />   <use xlink:href="#dot" transform="translate(-64.614931,17.791611)" />   <use xlink:href="#dot" transform="translate(-64.614761,17.788511)" />   <use xlink:href="#dot" transform="translate(-64.613819,17.790519)" />   <use xlink:href="#dot" transform="translate(-64.611739,17.789731)" />   <use xlink:href="#dot" transform="translate(-64.627561,17.793069)" />   <use xlink:href="#dot" transform="translate(-64.6193,17.7909)" />   <use xlink:href="#dot" transform="translate(-64.6161,17.7842)" />   <use xlink:href="#dot" transform="translate(-64.613819,17.790519)" />   <use xlink:href="#dot" transform="translate(-64.616,17.7832)" />   <use xlink:href="#dot" transform="translate(-64.6367,17.7987)" />   <use xlink:href="#dot" transform="translate(-74.7379,35.5145)" />   <use xlink:href="#dot" transform="translate(-64.630531,17.789331)" />   <use xlink:href="#dot" transform="translate(-64.619261,17.790861)" />   <use xlink:href="#dot" transform="translate(-64.636969,17.798611)" />   <use xlink:href="#dot" transform="translate(-64.6149,17.7916)" />   <use xlink:href="#dot" transform="translate(-64.616131,17.7842)" />   <use xlink:href="#dot" transform="translate(-64.6164,17.784)" />   <use xlink:href="#dot" transform="translate(-64.636669,17.798669)" />   <use xlink:href="#dot" transform="translate(-64.613589,17.784911)" />   <use xlink:href="#dot" transform="translate(-64.616019,17.783181)" />   <use xlink:href="#dot" transform="translate(-75.0106,18.4114)" />   <use xlink:href="#dot" transform="translate(-75.004167,18.392222)" />   <use xlink:href="#dot" transform="translate(-75.0217,18.4169)" />   <use xlink:href="#dot" transform="translate(-37.45078,-20.1016)" />   <use xlink:href="#dot" transform="translate(-87.836389,18.185833)" />   <use xlink:href="#dot" transform="translate(-87.836389,18.185833)" />   <use xlink:href="#dot" transform="translate(-82.2865,24.450167)" />   <use xlink:href="#dot" transform="translate(-88.0667,16.7833)" />   <use xlink:href="#dot" transform="translate(-88.0667,16.7833)" />   <use xlink:href="#dot" transform="translate(-64.275,31.658333)" />   <use xlink:href="#dot" transform="translate(-64.225,31.625)" />   <use xlink:href="#dot" transform="translate(-64.358333,31.458333)" />   <use xlink:href="#dot" transform="translate(-64.275,31.441667)" />   <use xlink:href="#dot" transform="translate(-64.291667,31.591667)" />   <use xlink:href="#dot" transform="translate(-60.5508,11.3353)" />   <use xlink:href="#dot" transform="translate(-60.5017,11.3056)" />   <use xlink:href="#dot" transform="translate(-60.5517,11.3189)" />   <use xlink:href="#dot" transform="translate(-64.308333,31.891667)" />   <use xlink:href="#dot" transform="translate(-77.705,26.42)" />   <use xlink:href="#dot" transform="translate(-59.610001,13.076671)" />   <use xlink:href="#dot" transform="translate(-59.494476,13.201223)" />   <use xlink:href="#dot" transform="translate(-77.947475,33.776448)" />   <use xlink:href="#dot" transform="translate(-57.46667,41.25)" />   <use xlink:href="#dot" transform="translate(-87.977778,18.972778)" />   <use xlink:href="#dot" transform="translate(-61.506667,39.845)" />   <use xlink:href="#dot" transform="translate(-73.841667,21.691667)" />   <use xlink:href="#dot" transform="translate(-73.841667,21.691667)" />   <use xlink:href="#dot" transform="translate(-73.841667,21.691667)" />   <use xlink:href="#dot" transform="translate(-73.841667,21.691667)" />   <use xlink:href="#dot" transform="translate(-61.058333,39.036667)" />   <use xlink:href="#dot" transform="translate(-77.466667,25.916667)" />   <use xlink:href="#dot" transform="translate(-78.18,26.571667)" />   <use xlink:href="#dot" transform="translate(-77.833333,26.416667)" />   <use xlink:href="#dot" transform="translate(-78.18,26.571667)" />   <use xlink:href="#dot" transform="translate(-77.833333,26.416667)" />   <use xlink:href="#dot" transform="translate(-77.75,26.216667)" />   <use xlink:href="#dot" transform="translate(-77.926667,25.383333)" />   <use xlink:href="#dot" transform="translate(-78.545,26.403333)" />   <use xlink:href="#dot" transform="translate(-78.77,26.426667)" />   <use xlink:href="#dot" transform="translate(-78.545,26.403333)" />   <use xlink:href="#dot" transform="translate(-77.75,26.216667)" />   <use xlink:href="#dot" transform="translate(-77.598333,25.376667)" />   <use xlink:href="#dot" transform="translate(-77.466667,25.916667)" />   <use xlink:href="#dot" transform="translate(-77.466667,25.933333)" />   <use xlink:href="#dot" transform="translate(-77.915,25.376667)" />   <use xlink:href="#dot" transform="translate(-77.466667,25.933333)" />   <use xlink:href="#dot" transform="translate(-77.906667,25.378333)" />   <use xlink:href="#dot" transform="translate(-77.91,25.38)" />   <use xlink:href="#dot" transform="translate(-61.433333,12.6)" />   <use xlink:href="#dot" transform="translate(-77.14867,18.424245)" />   <use xlink:href="#dot" transform="translate(-79.408333,26.158333)" />   <use xlink:href="#dot" transform="translate(-78.941667,26.225)" />   <use xlink:href="#dot" transform="translate(-78.691667,26.391667)" />   <use xlink:href="#dot" transform="translate(-76.775,25.758333)" />   <use xlink:href="#dot" transform="translate(-75.591667,26.608333)" />   <use xlink:href="#dot" transform="translate(-78.725,26.341667)" />   <use xlink:href="#dot" transform="translate(-79.158333,26.225)" />   <use xlink:href="#dot" transform="translate(-76.508333,27.008333)" />   <use xlink:href="#dot" transform="translate(-79.241667,26.591667)" />   <use xlink:href="#dot" transform="translate(-78.591667,26.375)" />   <use xlink:href="#dot" transform="translate(-77.525,25.791667)" />   <use xlink:href="#dot" transform="translate(-88.075,16.8033)" />   <use xlink:href="#dot" transform="translate(-88.075,16.8033)" />   <use xlink:href="#dot" transform="translate(-72.393333,38.52)" />   <use xlink:href="#dot" transform="translate(-59.64716,13.191602)" />   <use xlink:href="#dot" transform="translate(-73.803333,37.016667)" />   <use xlink:href="#dot" transform="translate(-71.291667,37.015)" />   <use xlink:href="#dot" transform="translate(-73.636667,37.116667)" />   <use xlink:href="#dot" transform="translate(-65.731667,39.278333)" />   <use xlink:href="#dot" transform="translate(-64.01,39.466667)" />   <use xlink:href="#dot" transform="translate(-65.233333,39.778333)" />   <use xlink:href="#dot" transform="translate(-65.233333,39.778333)" />   <use xlink:href="#dot" transform="translate(-64.238333,39.501667)" />   <use xlink:href="#dot" transform="translate(-33.816667,-3.85)" />   <use xlink:href="#dot" transform="translate(-59.5,13.2)" />   <use xlink:href="#dot" transform="translate(-63,17)" />   <use xlink:href="#dot" transform="translate(-80.056609,19.673473)" />   <use xlink:href="#dot" transform="translate(-59.6425,13.191667)" />   <use xlink:href="#dot" transform="translate(-59.475,13.1825)" />   <use xlink:href="#dot" transform="translate(-59.651667,13.288889)" />   <use xlink:href="#dot" transform="translate(-81.345389,13.357497)" />   <use xlink:href="#dot" transform="translate(-78.725,30.125)" />   <use xlink:href="#dot" transform="translate(-79.358333,26.708333)" />   <use xlink:href="#dot" transform="translate(-79.591667,26.708333)" />   <use xlink:href="#dot" transform="translate(-79.508333,30.141667)" />   <use xlink:href="#dot" transform="translate(-78.358333,30.108333)" />   <use xlink:href="#dot" transform="translate(-78.058333,30.125)" />   <use xlink:href="#dot" transform="translate(-79.341667,30.125)" />   <use xlink:href="#dot" transform="translate(-75.091667,34.258333)" />   <use xlink:href="#dot" transform="translate(-75.425,34.558333)" />   <use xlink:href="#dot" transform="translate(-78.725,30.125)" />   <use xlink:href="#dot" transform="translate(-79.491667,26.591667)" />   <use xlink:href="#dot" transform="translate(-78.725,30.125)" />   <use xlink:href="#dot" transform="translate(-79.608333,26.741667)" />   <use xlink:href="#dot" transform="translate(-79.358333,26.708333)" />   <use xlink:href="#dot" transform="translate(-74.825,34.075)" />   <use xlink:href="#dot" transform="translate(-79.508333,30.141667)" />   <use xlink:href="#dot" transform="translate(-74.591667,33.858333)" />   <use xlink:href="#dot" transform="translate(-79.058333,30.108333)" />   <use xlink:href="#dot" transform="translate(-79.508333,30.141667)" />   <use xlink:href="#dot" transform="translate(-77.708333,32.341667)" />   <use xlink:href="#dot" transform="translate(-77.308333,32.025)" />   <use xlink:href="#dot" transform="translate(-74.358333,33.675)" />   <use xlink:href="#dot" transform="translate(-79.608333,26.691667)" />   <use xlink:href="#dot" transform="translate(-79.608333,26.741667)" />   <use xlink:href="#dot" transform="translate(-76.508333,31.491667)" />   <use xlink:href="#dot" transform="translate(-79.608333,26.691667)" />   <use xlink:href="#dot" transform="translate(-77.691667,32.325)" />   <use xlink:href="#dot" transform="translate(-75.091667,34.258333)" />   <use xlink:href="#dot" transform="translate(-79.608333,26.741667)" />   <use xlink:href="#dot" transform="translate(-76.625,31.625)" />   <use xlink:href="#dot" transform="translate(-56.9667,39.7167)" />   <use xlink:href="#dot" transform="translate(-56.9667,39.7167)" />   <use xlink:href="#dot" transform="translate(-74.858333,35.841667)" />   <use xlink:href="#dot" transform="translate(-59.6,13.083333)" />   <use xlink:href="#dot" transform="translate(-76.891667,31.775)" />   <use xlink:href="#dot" transform="translate(-76.725,31.591667)" />   <use xlink:href="#dot" transform="translate(-77.041667,31.875)" />   <use xlink:href="#dot" transform="translate(-77.183333,32.1)" />   <use xlink:href="#dot" transform="translate(-77.058333,32.175)" />   <use xlink:href="#dot" transform="translate(-75.008333,34.258333)" />   <use xlink:href="#dot" transform="translate(-79.141667,26.708333)" />   <use xlink:href="#dot" transform="translate(-79.525,26.725)" />   <use xlink:href="#dot" transform="translate(-75.141667,34.308333)" />   <use xlink:href="#dot" transform="translate(-79.491667,29.908333)" />   <use xlink:href="#dot" transform="translate(-77.375,32.008333)" />   <use xlink:href="#dot" transform="translate(-74.391667,33.741667)" />   <use xlink:href="#dot" transform="translate(-75.008333,34.258333)" />   <use xlink:href="#dot" transform="translate(-77.375,32.008333)" />   <use xlink:href="#dot" transform="translate(-78.541667,30.008333)" />   <use xlink:href="#dot" transform="translate(-79.758333,29.925)" />   <use xlink:href="#dot" transform="translate(-74.708333,33.975)" />   <use xlink:href="#dot" transform="translate(-78.541667,30.008333)" />   <use xlink:href="#dot" transform="translate(-75.141667,34.308333)" />   <use xlink:href="#dot" transform="translate(-38.958333,0.775)" />   <use xlink:href="#dot" transform="translate(-83.033333,10)" />   <use xlink:href="#dot" transform="translate(-33.641667,2.108333)" />   <use xlink:href="#dot" transform="translate(-44.625,8.558333)" />   <use xlink:href="#dot" transform="translate(-70.433333,36.546667)" />   <use xlink:href="#dot" transform="translate(-69.78,36.648333)" />   <use xlink:href="#dot" transform="translate(-71.308333,34.45)" />   <use xlink:href="#dot" transform="translate(-66.856667,38.306667)" />   <use xlink:href="#dot" transform="translate(-66.383333,37.316667)" />   <use xlink:href="#dot" transform="translate(-67.508333,36.975)" />   <use xlink:href="#dot" transform="translate(-68.383333,38.966667)" />   <use xlink:href="#dot" transform="translate(-79.9,9.366667)" />   <use xlink:href="#dot" transform="translate(-66.516667,37.033333)" />   <use xlink:href="#dot" transform="translate(-66.333333,37.175)" />   <use xlink:href="#dot" transform="translate(-65.158333,37.241667)" />   <use xlink:href="#dot" transform="translate(-68.941667,38.791667)" />   <use xlink:href="#dot" transform="translate(-79.3,25.733333)" />   <use xlink:href="#dot" transform="translate(-79.273426,25.731796)" />   <use xlink:href="#dot" transform="translate(-79.315812,25.750675)" />   <use xlink:href="#dot" transform="translate(-86.57336,16.32806)" />   <use xlink:href="#dot" transform="translate(-86.57336,16.32806)" />   <use xlink:href="#dot" transform="translate(-71.891667,34.025)" />   <use xlink:href="#dot" transform="translate(-65.475,20.191667)" />   <use xlink:href="#dot" transform="translate(-59.991667,32.158333)" /><polygon class="region" points="-88.033,16.372 -88.075,16.8033 -87.977778,18.972778 -86.291,21.754 -77.947475,33.776448 -72.393333,38.52 -57.46667,41.25 -33.641667,2.108333 -29.31035,-20.525417 -37.45078,-20.1016 -83.033333,10 -88.033,16.372 " />
		  </g>
		</svg>