<?xml version="1.0" encoding="UTF-8"?>
	<svg xmlns:xlink="http://www.w3.org/1999/xlink" 
	xmlns="http://www.w3.org/2000/svg" 
	width="360px" height="180px">
	   <style type="text/css">
		  <![CDATA[     
		  .region 
		  { 
			fill:blue; 
			opacity:0.4; 
			stroke:blue;
		  }
		  ]]>
	   </style>

	<circle id="dot" x="-2" y="-2" r="2" style="stroke:none; stroke-width:0; fill:black; opacity:0.7;"/>


	 <image x="0" y="0" width="360" height="180" xlink:href="map.jpg"/>

 
	 <g transform="translate(180,90) scale(1,-1)">   <use xlink:href="#dot" transform="translate(-77.244684,44.856922)" />   <use xlink:href="#dot" transform="translate(-77.312451,44.849852)" />   <use xlink:href="#dot" transform="translate(-85.6898,41.2867)" />   <use xlink:href="#dot" transform="translate(-88.444861,44.714753)" />   <use xlink:href="#dot" transform="translate(-87.913647,45.597622)" />   <use xlink:href="#dot" transform="translate(-87.148869,45.016411)" />   <use xlink:href="#dot" transform="translate(-93.6651,44.229)" />   <use xlink:href="#dot" transform="translate(-80.39547,42.59269)" />   <use xlink:href="#dot" transform="translate(-101.54616,42.4872)" />   <use xlink:href="#dot" transform="translate(-78.97551,42.95527)" />   <use xlink:href="#dot" transform="translate(-82.415,42.4295)" />   <use xlink:href="#dot" transform="translate(-89.67543,52.58578)" />   <use xlink:href="#dot" transform="translate(-87.14843,51.01104)" />   <use xlink:href="#dot" transform="translate(-80.39301,42.59053)" />   <use xlink:href="#dot" transform="translate(-78.94108,42.94956)" />   <use xlink:href="#dot" transform="translate(-93.6651,44.229)" />   <use xlink:href="#dot" transform="translate(-89.11236,53.19784)" />   <use xlink:href="#dot" transform="translate(-82.4133,42.47)" />   <use xlink:href="#dot" transform="translate(-89.1118,53.19576)" />   <use xlink:href="#dot" transform="translate(-82.4133,42.47)" />   <use xlink:href="#dot" transform="translate(-89.1118,53.19576)" />   <use xlink:href="#dot" transform="translate(-82.711944,42.297222)" />   <use xlink:href="#dot" transform="translate(-79.73502,43.40164)" />   <use xlink:href="#dot" transform="translate(-95.13424,48.75188)" />   <use xlink:href="#dot" transform="translate(-80.17843,43.75842)" />   <use xlink:href="#dot" transform="translate(-82.532222,42.310833)" />   <use xlink:href="#dot" transform="translate(-82.4133,42.47)" />   <use xlink:href="#dot" transform="translate(-84.79993,41.74756)" />   <use xlink:href="#dot" transform="translate(-75.693601,44.608095)" />   <use xlink:href="#dot" transform="translate(-82.40185,42.53094)" />   <use xlink:href="#dot" transform="translate(-75.69314,44.59394)" />   <use xlink:href="#dot" transform="translate(-73.452133,44.0511)" />   <use xlink:href="#dot" transform="translate(-68.5811,47.2347)" />   <use xlink:href="#dot" transform="translate(-93.5597,46.821)" />   <use xlink:href="#dot" transform="translate(-94.2326,46.3331)" />   <use xlink:href="#dot" transform="translate(-93.2273,48.3785)" />   <use xlink:href="#dot" transform="translate(-92.6062,46.3713)" />   <use xlink:href="#dot" transform="translate(-95.3843,47.9755)" />   <use xlink:href="#dot" transform="translate(-76.243056,44.491389)" />   <use xlink:href="#dot" transform="translate(-76.226389,44.737222)" />   <use xlink:href="#dot" transform="translate(-80.46412,42.59437)" />   <use xlink:href="#dot" transform="translate(-68.9875,44.9579)" />   <use xlink:href="#dot" transform="translate(-72.5004,43.7975)" />   <use xlink:href="#dot" transform="translate(-81.27229,44.66488)" />   <use xlink:href="#dot" transform="translate(-80.356653,42.658931)" />   <use xlink:href="#dot" transform="translate(-79.52376,44.61103)" />   <use xlink:href="#dot" transform="translate(-80.364104,42.654307)" />   <use xlink:href="#dot" transform="translate(-80.377423,42.660324)" />   <use xlink:href="#dot" transform="translate(-87.0785,41.2274)" />   <use xlink:href="#dot" transform="translate(-91.892,38.8853)" />   <use xlink:href="#dot" transform="translate(-69.287778,46.4925)" />   <use xlink:href="#dot" transform="translate(-92.5706,38.0138)" />   <use xlink:href="#dot" transform="translate(-81.823647,43.260368)" />   <use xlink:href="#dot" transform="translate(-85.69047,48.72056)" />   <use xlink:href="#dot" transform="translate(-66.86666,45.78333)" />   <use xlink:href="#dot" transform="translate(-85.83486,48.65231)" />   <use xlink:href="#dot" transform="translate(-92.7088,45.8937)" />   <use xlink:href="#dot" transform="translate(-92.651,45.9198)" />   <use xlink:href="#dot" transform="translate(-68.944722,45.766667)" />   <use xlink:href="#dot" transform="translate(-68.955,45.241389)" />   <use xlink:href="#dot" transform="translate(-95.2056,46.765)" />   <use xlink:href="#dot" transform="translate(-80.25036,43.289359999058)" />   <use xlink:href="#dot" transform="translate(-94.2614,47.5445)" />   <use xlink:href="#dot" transform="translate(-92.2392,47.3717)" />   <use xlink:href="#dot" transform="translate(-86.1169,46.2325)" />   <use xlink:href="#dot" transform="translate(-87.4072,45.6992)" />   <use xlink:href="#dot" transform="translate(-83.8728,44.2189)" />   <use xlink:href="#dot" transform="translate(-86.1094,46.4895)" />   <use xlink:href="#dot" transform="translate(-86.2161,42.0825)" />   <use xlink:href="#dot" transform="translate(-86.17,42.07)" />   <use xlink:href="#dot" transform="translate(-92.0496,46.7275)" />   <use xlink:href="#dot" transform="translate(-92.179,46.7206)" />   <use xlink:href="#dot" transform="translate(-85.406389,44.484167)" />   <use xlink:href="#dot" transform="translate(-85.994722,41.904167)" />   <use xlink:href="#dot" transform="translate(-97.1483,48.4381)" />   <use xlink:href="#dot" transform="translate(-81.626663,43.717776999058)" />   <use xlink:href="#dot" transform="translate(-82.563737229112,42.518953171734)" />   <use xlink:href="#dot" transform="translate(-81.83639,43.253539999058)" />   <use xlink:href="#dot" transform="translate(-87.0289,46.5242)" />   <use xlink:href="#dot" transform="translate(-73.24612,45.85723)" />   <use xlink:href="#dot" transform="translate(-83.9872,45.9663)" />   <use xlink:href="#dot" transform="translate(-83.49988,46.28366)" />   <use xlink:href="#dot" transform="translate(-83.49988,46.28366)" />   <use xlink:href="#dot" transform="translate(-83.612694,46.30875)" />   <use xlink:href="#dot" transform="translate(-80.4404943354,44.242502031729)" />   <use xlink:href="#dot" transform="translate(-80.389887796108,44.279785750668)" />   <use xlink:href="#dot" transform="translate(-80.482774622099,44.205337312323)" />   <use xlink:href="#dot" transform="translate(-83.612694,46.30875)" />   <use xlink:href="#dot" transform="translate(-88.011956,42.326933)" />   <use xlink:href="#dot" transform="translate(-92.2041,46.7048)" />   <use xlink:href="#dot" transform="translate(-92.1933,46.683)" />   <use xlink:href="#dot" transform="translate(-75.654167,45.055556)" />   <use xlink:href="#dot" transform="translate(-72.178889,45.342778)" />   <use xlink:href="#dot" transform="translate(-82.561404150415,42.505509314507)" />   <use xlink:href="#dot" transform="translate(-82.540292527555,42.503842340653)" />   <use xlink:href="#dot" transform="translate(-90.6764,46.4509)" />   <use xlink:href="#dot" transform="translate(-81.802222,43.274722)" />   <use xlink:href="#dot" transform="translate(-81.846111,43.246667)" />   <use xlink:href="#dot" transform="translate(-80.469722,43.2775)" />   <use xlink:href="#dot" transform="translate(-81.41029,46.19395)" />   <use xlink:href="#dot" transform="translate(-101.711111,42.458889)" />   <use xlink:href="#dot" transform="translate(-68.727222,44.613889)" />   <use xlink:href="#dot" transform="translate(-68.727222,44.613889)" />   <use xlink:href="#dot" transform="translate(-69.593011,45.291341)" />   <use xlink:href="#dot" transform="translate(-74.390278,45.18)" />   <use xlink:href="#dot" transform="translate(-72.509722,43.339444)" />   <use xlink:href="#dot" transform="translate(-67.408611,44.951667)" />   <use xlink:href="#dot" transform="translate(-67.845,45.281111)" />   <use xlink:href="#dot" transform="translate(-68.358056,46.373889)" />   <use xlink:href="#dot" transform="translate(-68.542222,46.119722)" />   <use xlink:href="#dot" transform="translate(-69.316111,46.178056)" />   <use xlink:href="#dot" transform="translate(-68.358056,46.373889)" />   <use xlink:href="#dot" transform="translate(-80.848333,46.291667)" />   <use xlink:href="#dot" transform="translate(-90.348952,47.987759)" />   <use xlink:href="#dot" transform="translate(-68.358333,46.373333)" />   <use xlink:href="#dot" transform="translate(-80.777778,46.840556)" />   <use xlink:href="#dot" transform="translate(-68.358333,46.373333)" />   <use xlink:href="#dot" transform="translate(-80.779444,46.839444)" />   <use xlink:href="#dot" transform="translate(-84.829876,43.586185)" />   <use xlink:href="#dot" transform="translate(-76.011944,45.603056)" />   <use xlink:href="#dot" transform="translate(-77.883333,45.766667)" />   <use xlink:href="#dot" transform="translate(-78.816667,46.016667)" />   <use xlink:href="#dot" transform="translate(-78.866667,45.9)" />   <use xlink:href="#dot" transform="translate(-89.668611,44.540278)" />   <use xlink:href="#dot" transform="translate(-79.083333,45.883333)" />   <use xlink:href="#dot" transform="translate(-84.444444,46.505556)" />   <use xlink:href="#dot" transform="translate(-77.764605,46.082869)" />   <use xlink:href="#dot" transform="translate(-77.659495,45.720774)" />   <use xlink:href="#dot" transform="translate(-79.11333,45.16833)" />   <use xlink:href="#dot" transform="translate(-88.078531,42.456006)" />   <use xlink:href="#dot" transform="translate(-88.14944,42.36472)" />   <use xlink:href="#dot" transform="translate(-88.086849,42.448663)" />   <use xlink:href="#dot" transform="translate(-88.090273,42.497147)" />   <use xlink:href="#dot" transform="translate(-88.087727,42.4188)" />   <use xlink:href="#dot" transform="translate(-84.26667,46.75)" />   <use xlink:href="#dot" transform="translate(-82.378333,46.673333)" />   <use xlink:href="#dot" transform="translate(-79.06167,45.315)" />   <use xlink:href="#dot" transform="translate(-93.50028,50.75006)" />   <use xlink:href="#dot" transform="translate(-79.666667,46.916667)" />   <use xlink:href="#dot" transform="translate(-80.75,47.283333)" />   <use xlink:href="#dot" transform="translate(-78.098326,45.650551)" />   <use xlink:href="#dot" transform="translate(-84.2,49.75)" />   <use xlink:href="#dot" transform="translate(-83.983333,49.766667)" />   <use xlink:href="#dot" transform="translate(-75.866667,45.486111)" />   <use xlink:href="#dot" transform="translate(-76.026389,45.597778)" />   <use xlink:href="#dot" transform="translate(-75.858333,45.477222)" />   <use xlink:href="#dot" transform="translate(-84.2,49.75)" />   <use xlink:href="#dot" transform="translate(-76.208889,45.659722)" />   <use xlink:href="#dot" transform="translate(-93.5,48.7)" />   <use xlink:href="#dot" transform="translate(-84.683333,48.566667)" />   <use xlink:href="#dot" transform="translate(-84.683333,48.566667)" />   <use xlink:href="#dot" transform="translate(-84.283333,46.633333)" />   <use xlink:href="#dot" transform="translate(-94.43333,49.85)" />   <use xlink:href="#dot" transform="translate(-80.616667,46.6)" />   <use xlink:href="#dot" transform="translate(-67.642153,44.72521)" />   <use xlink:href="#dot" transform="translate(-91.35,51.566667)" />   <use xlink:href="#dot" transform="translate(-81.716667,46.15)" />   <use xlink:href="#dot" transform="translate(-90.583333,50.183333)" />   <use xlink:href="#dot" transform="translate(-94.583333,52.65)" />   <use xlink:href="#dot" transform="translate(-80.525,47.883333)" />   <use xlink:href="#dot" transform="translate(-92.516667,49.2)" />   <use xlink:href="#dot" transform="translate(-88.084722,42.423611)" />   <use xlink:href="#dot" transform="translate(-83.166667,48.216667)" />   <use xlink:href="#dot" transform="translate(-82.49062,42.81005)" />   <use xlink:href="#dot" transform="translate(-86.9586,41.1313)" />   <use xlink:href="#dot" transform="translate(-87.0645,41.1495)" />   <use xlink:href="#dot" transform="translate(-86.5484,41.5662)" />   <use xlink:href="#dot" transform="translate(-80.7,47.333333)" />   <use xlink:href="#dot" transform="translate(-82.366667,49.333333)" />   <use xlink:href="#dot" transform="translate(-86.9546,41.4703)" />   <use xlink:href="#dot" transform="translate(-94.716667,50.616667)" />   <use xlink:href="#dot" transform="translate(-86.9791,41.2706)" />   <use xlink:href="#dot" transform="translate(-86.8486,41.3172)" />   <use xlink:href="#dot" transform="translate(-87.1374,41.2264)" />   <use xlink:href="#dot" transform="translate(-86.8117,41.2746)" />   <use xlink:href="#dot" transform="translate(-86.8578,41.3017)" />   <use xlink:href="#dot" transform="translate(-93.5,51.45)" />   <use xlink:href="#dot" transform="translate(-80.26196,42.60058)" />   <use xlink:href="#dot" transform="translate(-94.416667,49.95)" />   <use xlink:href="#dot" transform="translate(-80.628889,44.191111)" />   <use xlink:href="#dot" transform="translate(-93.35,50.55)" />   <use xlink:href="#dot" transform="translate(-81.816667,45.75)" />   <use xlink:href="#dot" transform="translate(-92.733333,49.733333)" />   <use xlink:href="#dot" transform="translate(-82.516667,46.283333)" />   <use xlink:href="#dot" transform="translate(-94.916667,51.316667)" />   <use xlink:href="#dot" transform="translate(-94.05,51.383333)" />   <use xlink:href="#dot" transform="translate(-93.1,49.383333)" />   <use xlink:href="#dot" transform="translate(-99.166667,49.566667)" />   <use xlink:href="#dot" transform="translate(-80.966667,47.45)" />   <use xlink:href="#dot" transform="translate(-99.083333,49.716667)" />   <use xlink:href="#dot" transform="translate(-80.966667,47.45)" />   <use xlink:href="#dot" transform="translate(-92.666667,49.716667)" />   <use xlink:href="#dot" transform="translate(-84.25,47.716667)" />   <use xlink:href="#dot" transform="translate(-79.283333,43.083333)" />   <use xlink:href="#dot" transform="translate(-87.766667,51.25)" />   <use xlink:href="#dot" transform="translate(-78.933333,45.2)" />   <use xlink:href="#dot" transform="translate(-86.1,48.8)" />   <use xlink:href="#dot" transform="translate(-92.883333,51.05)" />   <use xlink:href="#dot" transform="translate(-92.083333,50.683333)" />   <use xlink:href="#dot" transform="translate(-73.3264,43.812916)" />   <use xlink:href="#dot" transform="translate(-72.808481,44.900371)" />   <use xlink:href="#dot" transform="translate(-93.46219,37.85249)" />   <use xlink:href="#dot" transform="translate(-79.04163,43.81582)" />   <use xlink:href="#dot" transform="translate(-82.8103,40.1272)" />   <use xlink:href="#dot" transform="translate(-80.9925,43.063611)" />   <use xlink:href="#dot" transform="translate(-81.845278,43.247222)" />   <use xlink:href="#dot" transform="translate(-83.466667,46.3)" />   <use xlink:href="#dot" transform="translate(-90.216667,50.7)" />   <use xlink:href="#dot" transform="translate(-80.114167,45.430278)" />   <use xlink:href="#dot" transform="translate(-76.101389,45.597222)" />   <use xlink:href="#dot" transform="translate(-82.116667,47.883333)" />   <use xlink:href="#dot" transform="translate(-93.3,49.2)" />   <use xlink:href="#dot" transform="translate(-99.083333,49.716667)" />   <use xlink:href="#dot" transform="translate(-93.45,50.366667)" />   <use xlink:href="#dot" transform="translate(-81.961667,45.607222)" />   <use xlink:href="#dot" transform="translate(-86.016667,48.9)" />   <use xlink:href="#dot" transform="translate(-75.915278,45.981944)" />   <use xlink:href="#dot" transform="translate(-75.056944,46.072778)" />   <use xlink:href="#dot" transform="translate(-82.333333,49.85)" />   <use xlink:href="#dot" transform="translate(-99.25,49.65)" />   <use xlink:href="#dot" transform="translate(-81.516667,44.283333)" />   <use xlink:href="#dot" transform="translate(-81.533333,44.35)" />   <use xlink:href="#dot" transform="translate(-81.5,44.283333)" />   <use xlink:href="#dot" transform="translate(-81.516667,44.283333)" />   <use xlink:href="#dot" transform="translate(-81.5,44.283333)" />   <use xlink:href="#dot" transform="translate(-86.5,49.5)" />   <use xlink:href="#dot" transform="translate(-78.05,42.816667)" />   <use xlink:href="#dot" transform="translate(-83.60363,47.04622)" />   <use xlink:href="#dot" transform="translate(-88.8,48.4)" />   <use xlink:href="#dot" transform="translate(-90.683333,49.65)" />   <use xlink:href="#dot" transform="translate(-79.033333,45.083333)" />   <use xlink:href="#dot" transform="translate(-79.033333,45.083333)" />   <use xlink:href="#dot" transform="translate(-79.166667,44.716667)" />   <use xlink:href="#dot" transform="translate(-92.5037,37.2518)" />   <use xlink:href="#dot" transform="translate(-92.4313,37.7497)" />   <use xlink:href="#dot" transform="translate(-75.733333,45.258333)" />   <use xlink:href="#dot" transform="translate(-88.816667,51.116667)" />   <use xlink:href="#dot" transform="translate(-75.366667,45.516667)" />   <use xlink:href="#dot" transform="translate(-82.8202,40.1193)" />   <use xlink:href="#dot" transform="translate(-92.35,49.883333)" />   <use xlink:href="#dot" transform="translate(-92.283333,49.833333)" />   <use xlink:href="#dot" transform="translate(-92.35,49.883333)" />   <use xlink:href="#dot" transform="translate(-93.4333,38.0167)" />   <use xlink:href="#dot" transform="translate(-92.5005,38.2503)" />   <use xlink:href="#dot" transform="translate(-93.416,37.954)" />   <use xlink:href="#dot" transform="translate(-82.8202,40.1193)" />   <use xlink:href="#dot" transform="translate(-93.4333,38.05)" />   <use xlink:href="#dot" transform="translate(-93.4167,38.0667)" />   <use xlink:href="#dot" transform="translate(-99.7753,42.9653)" />   <use xlink:href="#dot" transform="translate(-80.466667,43.9)" />   <use xlink:href="#dot" transform="translate(-80.8,51.8)" />   <use xlink:href="#dot" transform="translate(-83.758022,44.039944)" />   <use xlink:href="#dot" transform="translate(-95.959987,48.111832)" />   <use xlink:href="#dot" transform="translate(-85.5003,44.2503)" />   <use xlink:href="#dot" transform="translate(-80.566667,43.483333)" />   <use xlink:href="#dot" transform="translate(-85.816667,49.483333)" />   <use xlink:href="#dot" transform="translate(-94.483333,50.116667)" />   <use xlink:href="#dot" transform="translate(-89.311111,46.020833)" />   <use xlink:href="#dot" transform="translate(-95.05,51.566667)" />   <use xlink:href="#dot" transform="translate(-90.75,48.316667)" />   <use xlink:href="#dot" transform="translate(-87.666667,51.716667)" />   <use xlink:href="#dot" transform="translate(-76.716667,44.916667)" />   <use xlink:href="#dot" transform="translate(-81.3,48.316667)" />   <use xlink:href="#dot" transform="translate(-82.533333,47.183333)" />   <use xlink:href="#dot" transform="translate(-74.461667,45.433333)" />   <use xlink:href="#dot" transform="translate(-91.683333,51.35)" />   <use xlink:href="#dot" transform="translate(-91.216667,51.316667)" />   <use xlink:href="#dot" transform="translate(-79.415,48.519722)" />   <use xlink:href="#dot" transform="translate(-90.55,52.416667)" />   <use xlink:href="#dot" transform="translate(-79.098889,48.207778)" />   <use xlink:href="#dot" transform="translate(-89.85,49.9)" />   <use xlink:href="#dot" transform="translate(-82.133333,47.716667)" />   <use xlink:href="#dot" transform="translate(-75.68,44.948333)" />   <use xlink:href="#dot" transform="translate(-80.783333,51.85)" />   <use xlink:href="#dot" transform="translate(-73.6,45.5)" />   <use xlink:href="#dot" transform="translate(-91.7353,38.9707)" />   <use xlink:href="#dot" transform="translate(-70.998611,46.340278)" />   <use xlink:href="#dot" transform="translate(-71.966667,45.476389)" />   <use xlink:href="#dot" transform="translate(-70.894444,45.7)" />   <use xlink:href="#dot" transform="translate(-71.95,45.590278)" />   <use xlink:href="#dot" transform="translate(-81.546667,47.408333)" />   <use xlink:href="#dot" transform="translate(-71.183333,45.575)" />   <use xlink:href="#dot" transform="translate(-84.291667,46.591667)" />   <use xlink:href="#dot" transform="translate(-81.9,48.483333)" />   <use xlink:href="#dot" transform="translate(-82.516667,50.1)" />   <use xlink:href="#dot" transform="translate(-88.733333,48.466667)" />   <use xlink:href="#dot" transform="translate(-88.666667,48.666667)" />   <use xlink:href="#dot" transform="translate(-85.929792,36.00759)" />   <use xlink:href="#dot" transform="translate(-75.722222,44.8625)" />   <use xlink:href="#dot" transform="translate(-95.633333,50.166667)" />   <use xlink:href="#dot" transform="translate(-95.916667,50.25)" />   <use xlink:href="#dot" transform="translate(-95.5,50.166667)" />   <use xlink:href="#dot" transform="translate(-95.683333,50.166667)" />   <use xlink:href="#dot" transform="translate(-90.383333,48.316667)" />   <use xlink:href="#dot" transform="translate(-95.5,50.166667)" />   <use xlink:href="#dot" transform="translate(-79.295,43.088333)" />   <use xlink:href="#dot" transform="translate(-93.1,48.7)" />   <use xlink:href="#dot" transform="translate(-80.073333,42.99)" />   <use xlink:href="#dot" transform="translate(-77.116667,44.56)" />   <use xlink:href="#dot" transform="translate(-84.933333,49.6)" /><polygon class="region" points="-92.5037,37.2518 -101.711111,42.458889 -99.25,49.65 -94.583333,52.65 -89.11236,53.19784 -80.783333,51.85 -68.5811,47.2347 -66.86666,45.78333 -67.408611,44.951667 -67.642153,44.72521 -85.929792,36.00759 -92.5037,37.2518 " />
		  </g>
		</svg>