<?xml version="1.0" encoding="UTF-8"?>
	<svg xmlns:xlink="http://www.w3.org/1999/xlink" 
	xmlns="http://www.w3.org/2000/svg" 
	width="360px" height="180px">
	   <style type="text/css">
		  <![CDATA[     
		  .region 
		  { 
			fill:blue; 
			opacity:0.4; 
			stroke:blue;
		  }
		  ]]>
	   </style>

	<circle id="dot" x="-2" y="-2" r="2" style="stroke:none; stroke-width:0; fill:black; opacity:0.7;"/>


	 <image x="0" y="0" width="360" height="180" xlink:href="map.jpg"/>

 
	 <g transform="translate(180,90) scale(1,-1)"><polygon class="region" points="33.629166666,-9 34.54960412,-9.3301344129999 34.66302948,-9.7490593799999 34.492019992,-9.910757786 34.891666667,-10.429166667 34.708333333,-10.620833333 34.908988783,-10.824754164 34.824432712,-10.940451728 35.116868083,-11.605385336 34.945833333,-12.058333333 35.1375,-12.554166667 34.896301948,-12.989583334 35.203315905,-13.025850762 35.246400622,-13.910543823 35.545833333,-14.704166666 35.316666667,-15.233333333 35.120833333,-15.258333333 34.943877157,-14.679733954 34.867603895,-14.854733955 34.579166666,-14.8 34.4,-14.391666667 33.666666666,-14.620833333 33.304166667,-14.025 33,-14 32.686894904,-13.617207167 33.015698921,-13.216270616 33.020833334,-12.65 33.4125,-12.525 33.85,-12.016666666 33.479166667,-11.2 33.708333333,-10.570833333 33.329519993,-10.073257785 33.426742214,-9.6753533259999 33.946299255,-9.6934820779999 33.300033908,-9.223638916 33.629166666,-9 " />
		  </g>
		</svg>