<?xml version="1.0" encoding="UTF-8"?>
	<svg xmlns:xlink="http://www.w3.org/1999/xlink" 
	xmlns="http://www.w3.org/2000/svg" 
	width="360px" height="180px">
	   <style type="text/css">
		  <![CDATA[     
		  .region 
		  { 
			fill:blue; 
			opacity:0.4; 
			stroke:blue;
		  }
		  ]]>
	   </style>

	<circle id="dot" x="-2" y="-2" r="2" style="stroke:none; stroke-width:0; fill:black; opacity:0.7;"/>


	 <image x="0" y="0" width="360" height="180" xlink:href="map.jpg"/>

 
	 <g transform="translate(180,90) scale(1,-1)"><polygon class="region" points="12.392570156,4.1714789500001 12.583333333,3.6875 11.859781222,3.4131427340001 11.803218248,2.8122324620001 11.338350762,2.8425174290001 11.369982571,2.9699825710001 11.116666666,3.1083333330001 11.135425144,3.4494447500001 10.525,3.2458333330001 10.312853326,3.5267422150001 11.10221049,3.6255672880001 11.397916666,3.966060554 11.652083334,3.8006061130001 11.896645779,4.015998671 12.074417115,3.938419766 12.131122844,4.199432712 12.392570156,4.1714789500001 " /><polygon class="region" points="12.947839695,4.5881174730001 13.126214939,4.1535993790001 13.488067288,3.986285061 13.420833333,3.7416666670001 13.719119602,3.6996459960001 13.770124986,3.4592207170001 13.6375,3.5 13.308333334,3.1833333330001 12.150732421,3.178106181 12.099205865,2.809127468 11.891666667,2.766666667 11.859781222,3.4131427340001 12.569696214,3.6705686780001 12.495833333,4.35 12.664242214,4.5746466740001 12.947839695,4.5881174730001 " /><polygon class="region" points="9.6899244520001,3.524646675 9.957482402,3.486649068 9.911484156,3.2694559830001 9.6414164220001,3.5449578180001 9.6899244520001,3.524646675 " />
		  </g>
		</svg>