<?xml version="1.0" encoding="UTF-8"?>
	<svg xmlns:xlink="http://www.w3.org/1999/xlink" 
	xmlns="http://www.w3.org/2000/svg" 
	width="360px" height="180px">
	   <style type="text/css">
		  <![CDATA[     
		  .region 
		  { 
			fill:blue; 
			opacity:0.4; 
			stroke:blue;
		  }
		  ]]>
	   </style>

	<circle id="dot" x="-2" y="-2" r="2" style="stroke:none; stroke-width:0; fill:black; opacity:0.7;"/>


	 <image x="0" y="0" width="360" height="180" xlink:href="map.jpg"/>

 
	 <g transform="translate(180,90) scale(1,-1)"><polygon class="region" points="22.377905104,36.687476603 21.829166667,37.183333333 21.992019993,37.418379551 21.816666667,37.595833334 22.058333333,37.691666666 22.174149069,37.567517599 22.242135451,37.947916666 22.41210378,38.042296855 22.411753336,37.899432712 22.612853326,37.972546218 22.450967746,37.696229214 22.571746657,37.546440802 22.724376424,37.632424079 23.203325398,36.432677884 22.777197944,36.799420166 22.541666667,36.720833333 22.3592453,36.899233331 22.559013875,36.654642402 22.483422513,36.382652791 22.377905104,36.687476603 " /><polygon class="region" points="22.936528185,36.492435032 22.979782444,36.513117473 22.990277777,36.454166667 22.932596503,36.457715861 22.936528185,36.492435032 " />
		  </g>
		</svg>