<?xml version="1.0" encoding="UTF-8"?>
	<svg xmlns:xlink="http://www.w3.org/1999/xlink" 
	xmlns="http://www.w3.org/2000/svg" 
	width="360px" height="180px">
	   <style type="text/css">
		  <![CDATA[     
		  .region 
		  { 
			fill:blue; 
			opacity:0.4; 
			stroke:blue;
		  }
		  ]]>
	   </style>

	<circle id="dot" x="-2" y="-2" r="2" style="stroke:none; stroke-width:0; fill:black; opacity:0.7;"/>


	 <image x="0" y="0" width="360" height="180" xlink:href="map.jpg"/>

 
	 <g transform="translate(180,90) scale(1,-1)">   <use xlink:href="#dot" transform="translate(152.35816,-41.10783)" />   <use xlink:href="#dot" transform="translate(-67.511667,39.911944)" />   <use xlink:href="#dot" transform="translate(-67.511667,39.911944)" />   <use xlink:href="#dot" transform="translate(-67.255833,39.869167)" />   <use xlink:href="#dot" transform="translate(-67.358333,39.925)" />   <use xlink:href="#dot" transform="translate(-67.35,39.916667)" />   <use xlink:href="#dot" transform="translate(15.266666,-30.766666)" />   <use xlink:href="#dot" transform="translate(143.502,39.0333)" />   <use xlink:href="#dot" transform="translate(168.333,-25.367)" />   <use xlink:href="#dot" transform="translate(52.065,10.033333)" />   <use xlink:href="#dot" transform="translate(-60.3333,41.966667)" />   <use xlink:href="#dot" transform="translate(-60.3333,41.9667)" />   <use xlink:href="#dot" transform="translate(149.259,-38.5022)" />   <use xlink:href="#dot" transform="translate(-57.1,41.8833)" />   <use xlink:href="#dot" transform="translate(-24.566667,31.6)" />   <use xlink:href="#dot" transform="translate(-24.833333,31.35)" />   <use xlink:href="#dot" transform="translate(-11.933333,56.316667)" />   <use xlink:href="#dot" transform="translate(-14.416667,42.3)" />   <use xlink:href="#dot" transform="translate(-69.586667,39.223333)" />   <use xlink:href="#dot" transform="translate(-72.083333,38.656667)" />   <use xlink:href="#dot" transform="translate(-27.133333,47.871667)" />   <use xlink:href="#dot" transform="translate(-27.533333,48.588333)" />   <use xlink:href="#dot" transform="translate(152.241667,-6.725)" />   <use xlink:href="#dot" transform="translate(-123.95,32.633333)" />   <use xlink:href="#dot" transform="translate(-23.866667,41.033333)" />   <use xlink:href="#dot" transform="translate(153.133,-33.066)" />   <use xlink:href="#dot" transform="translate(126.716667,10.333333)" />   <use xlink:href="#dot" transform="translate(-80.831667,-2.978333)" />   <use xlink:href="#dot" transform="translate(-13.483333,42.933333)" />   <use xlink:href="#dot" transform="translate(-93.825,26.03333)" />   <use xlink:href="#dot" transform="translate(-158.3,21.38)" />   <use xlink:href="#dot" transform="translate(-158.417,21.417)" />   <use xlink:href="#dot" transform="translate(-158.417,21.417)" />   <use xlink:href="#dot" transform="translate(-158.417,21.417)" />   <use xlink:href="#dot" transform="translate(-33.35,65.183333)" />   <use xlink:href="#dot" transform="translate(-18.35,55.316667)" />   <use xlink:href="#dot" transform="translate(-25.105,17.818333)" />   <use xlink:href="#dot" transform="translate(-158.375,21.375)" />   <use xlink:href="#dot" transform="translate(-63.925,32.058333)" />   <use xlink:href="#dot" transform="translate(-95.26667,27.21667)" />   <use xlink:href="#dot" transform="translate(-155.311667,0.113333)" />   <use xlink:href="#dot" transform="translate(-155,0.143333)" />   <use xlink:href="#dot" transform="translate(-158.375,21.375)" />   <use xlink:href="#dot" transform="translate(-158.3,21.38)" />   <use xlink:href="#dot" transform="translate(-158.3,21.383333)" />   <use xlink:href="#dot" transform="translate(-21.966667,20.45)" />   <use xlink:href="#dot" transform="translate(-23.2,14.083333)" />   <use xlink:href="#dot" transform="translate(-158.3,21.38)" />   <use xlink:href="#dot" transform="translate(-20.9,7.533333)" />   <use xlink:href="#dot" transform="translate(-158.3,21.38)" />   <use xlink:href="#dot" transform="translate(-158.417,21.417)" />   <use xlink:href="#dot" transform="translate(-158.415,21.415)" />   <use xlink:href="#dot" transform="translate(-140.7,0)" />   <use xlink:href="#dot" transform="translate(-93.625,-14.766667)" />   <use xlink:href="#dot" transform="translate(-87.116667,28.6)" />   <use xlink:href="#dot" transform="translate(-10.067,35.683)" />   <use xlink:href="#dot" transform="translate(-90.75,24.88333)" />   <use xlink:href="#dot" transform="translate(-23.133333,12.116667)" />   <use xlink:href="#dot" transform="translate(-19.9,10.866667)" />   <use xlink:href="#dot" transform="translate(-82.391667,23.566667)" />   <use xlink:href="#dot" transform="translate(114.798333,6.903333)" />   <use xlink:href="#dot" transform="translate(-118.088611,32.6025)" />   <use xlink:href="#dot" transform="translate(-87.8,26.192)" />   <use xlink:href="#dot" transform="translate(-93.49167,23.55833)" />   <use xlink:href="#dot" transform="translate(4.783333,3.916667)" />   <use xlink:href="#dot" transform="translate(4.783333,3.916667)" />   <use xlink:href="#dot" transform="translate(5.333333,-0.016667)" />   <use xlink:href="#dot" transform="translate(-89.98333,27.28333)" />   <use xlink:href="#dot" transform="translate(-78.85,-12.191667)" />   <use xlink:href="#dot" transform="translate(65.1,1.8)" />   <use xlink:href="#dot" transform="translate(64.95,5.8)" />   <use xlink:href="#dot" transform="translate(60.041667,-2.108333)" />   <use xlink:href="#dot" transform="translate(-90.7,26.5)" />   <use xlink:href="#dot" transform="translate(-92.25,25.5)" />   <use xlink:href="#dot" transform="translate(-80.0333,25.575)" />   <use xlink:href="#dot" transform="translate(-71.4167,39.2583)" />   <use xlink:href="#dot" transform="translate(-75.705,-16.146667)" />   <use xlink:href="#dot" transform="translate(-57.1,41.883335)" />   <use xlink:href="#dot" transform="translate(-89.933333,-1.766667)" />   <use xlink:href="#dot" transform="translate(-168.14,-9.908333)" /><polygon class="region" points="15.266666,-30.766666 -168.14,-9.908333 -158.417,21.417 -33.35,65.183333 143.502,39.0333 168.333,-25.367 152.35816,-41.10783 15.266666,-30.766666 " />
		  </g>
		</svg>