<?xml version="1.0" encoding="UTF-8"?>
	<svg xmlns:xlink="http://www.w3.org/1999/xlink" 
	xmlns="http://www.w3.org/2000/svg" 
	width="360px" height="180px">
	   <style type="text/css">
		  <![CDATA[     
		  .region 
		  { 
			fill:blue; 
			opacity:0.4; 
			stroke:blue;
		  }
		  ]]>
	   </style>

	<circle id="dot" x="-2" y="-2" r="2" style="stroke:none; stroke-width:0; fill:black; opacity:0.7;"/>


	 <image x="0" y="0" width="360" height="180" xlink:href="map.jpg"/>

 
	 <g transform="translate(180,90) scale(1,-1)">   <use xlink:href="#dot" transform="translate(138.186745,-35.544114)" />   <use xlink:href="#dot" transform="translate(138.014544,-35.599816)" />   <use xlink:href="#dot" transform="translate(138.783931,-35.491855)" />   <use xlink:href="#dot" transform="translate(138.161137,-35.401586)" />   <use xlink:href="#dot" transform="translate(138.752986,-35.519576)" />   <use xlink:href="#dot" transform="translate(138.782884,-35.409533)" />   <use xlink:href="#dot" transform="translate(137.646,-35.656)" />   <use xlink:href="#dot" transform="translate(138.604,-35.5886)" />   <use xlink:href="#dot" transform="translate(137.678569,-35.706701)" />   <use xlink:href="#dot" transform="translate(138.604,-35.5886)" />   <use xlink:href="#dot" transform="translate(137.479279,-34.49498)" />   <use xlink:href="#dot" transform="translate(138.6052,-35.5887)" />   <use xlink:href="#dot" transform="translate(138.604767,-35.588299)" />   <use xlink:href="#dot" transform="translate(138.1772,-35.5195)" />   <use xlink:href="#dot" transform="translate(138.188,-35.5189)" />   <use xlink:href="#dot" transform="translate(137.646,-35.656)" />   <use xlink:href="#dot" transform="translate(137.646,-35.656)" />   <use xlink:href="#dot" transform="translate(119.239703,-34.461952)" />   <use xlink:href="#dot" transform="translate(138.3213,-35.4151)" />   <use xlink:href="#dot" transform="translate(138.3213,-35.4151)" />   <use xlink:href="#dot" transform="translate(118.634,4.2325)" />   <use xlink:href="#dot" transform="translate(137.3,-34.335)" />   <use xlink:href="#dot" transform="translate(137.12674,-34.11704)" />   <use xlink:href="#dot" transform="translate(137.18075,-34.742)" />   <use xlink:href="#dot" transform="translate(40.1352,-3.25874)" />   <use xlink:href="#dot" transform="translate(151.222,-34.0009)" />   <use xlink:href="#dot" transform="translate(137.208545,-35.427613)" />   <use xlink:href="#dot" transform="translate(145.029,-38.4758)" />   <use xlink:href="#dot" transform="translate(144.714,-38.3203)" />   <use xlink:href="#dot" transform="translate(138.088747,-35.554898)" />   <use xlink:href="#dot" transform="translate(136.1333,-34.3667)" />   <use xlink:href="#dot" transform="translate(138.004716,-35.517317)" />   <use xlink:href="#dot" transform="translate(138.63,-35.62)" />   <use xlink:href="#dot" transform="translate(138.63,-35.58)" />   <use xlink:href="#dot" transform="translate(138.63,-35.58)" />   <use xlink:href="#dot" transform="translate(138.63,-35.58)" />   <use xlink:href="#dot" transform="translate(138.63,-35.58)" />   <use xlink:href="#dot" transform="translate(138.6,-35.6)" />   <use xlink:href="#dot" transform="translate(138.58,-35.6)" />   <use xlink:href="#dot" transform="translate(138.63,-35.58)" />   <use xlink:href="#dot" transform="translate(128.516665,-32.033335)" />   <use xlink:href="#dot" transform="translate(122.2,-34)" />   <use xlink:href="#dot" transform="translate(137.966,-35.733)" />   <use xlink:href="#dot" transform="translate(135.741665,-11.359305)" />   <use xlink:href="#dot" transform="translate(135.87,-34.73)" />   <use xlink:href="#dot" transform="translate(136.13,-34.37)" />   <use xlink:href="#dot" transform="translate(115.5,-32)" />   <use xlink:href="#dot" transform="translate(115.5,-32)" />   <use xlink:href="#dot" transform="translate(137.366,-35.416)" />   <use xlink:href="#dot" transform="translate(137.366,-35.416)" />   <use xlink:href="#dot" transform="translate(138.63,-35.55)" />   <use xlink:href="#dot" transform="translate(136.916,-34.5)" />   <use xlink:href="#dot" transform="translate(136,-34)" />   <use xlink:href="#dot" transform="translate(138.05,-35.833)" />   <use xlink:href="#dot" transform="translate(116,-34.8)" />   <use xlink:href="#dot" transform="translate(137.73,-35.13)" />   <use xlink:href="#dot" transform="translate(136.13,-34.37)" />   <use xlink:href="#dot" transform="translate(138.48,-35.27)" />   <use xlink:href="#dot" transform="translate(138.48,-35.27)" />   <use xlink:href="#dot" transform="translate(137.4619,-38.8039)" />   <use xlink:href="#dot" transform="translate(137.57,-34.07)" />   <use xlink:href="#dot" transform="translate(138.52,-35.05)" />   <use xlink:href="#dot" transform="translate(115.7,-32.1)" />   <use xlink:href="#dot" transform="translate(137.67,-35.92)" />   <use xlink:href="#dot" transform="translate(115.5,-32)" />   <use xlink:href="#dot" transform="translate(138.42,-35.35)" />   <use xlink:href="#dot" transform="translate(115.6,-31.8)" />   <use xlink:href="#dot" transform="translate(136.13,-34.37)" />   <use xlink:href="#dot" transform="translate(115.8,-31.9)" />   <use xlink:href="#dot" transform="translate(135.85,-34.78)" />   <use xlink:href="#dot" transform="translate(135.85,-34.78)" />   <use xlink:href="#dot" transform="translate(138.5,-34.85)" />   <use xlink:href="#dot" transform="translate(115.8,-32)" />   <use xlink:href="#dot" transform="translate(115.6,-31.8)" />   <use xlink:href="#dot" transform="translate(115.9,-32)" />   <use xlink:href="#dot" transform="translate(115.6,-31.8)" />   <use xlink:href="#dot" transform="translate(115.6,-31.8)" />   <use xlink:href="#dot" transform="translate(115.8,-31.9)" />   <use xlink:href="#dot" transform="translate(115.5,-32)" />   <use xlink:href="#dot" transform="translate(115.8,-32.1)" />   <use xlink:href="#dot" transform="translate(137.8,-34.92)" />   <use xlink:href="#dot" transform="translate(115.6,-31.8)" />   <use xlink:href="#dot" transform="translate(137.47,-34.83)" />   <use xlink:href="#dot" transform="translate(138.625104,-35.549721)" />   <use xlink:href="#dot" transform="translate(135.87,-34.73)" />   <use xlink:href="#dot" transform="translate(136.1333,-34.3667)" />   <use xlink:href="#dot" transform="translate(117.7,-35.1)" />   <use xlink:href="#dot" transform="translate(115.6,-31.8)" />   <use xlink:href="#dot" transform="translate(137.47,-34.83)" />   <use xlink:href="#dot" transform="translate(138.52,-35.05)" />   <use xlink:href="#dot" transform="translate(115.6,-31.6)" />   <use xlink:href="#dot" transform="translate(121.9,-33.9)" />   <use xlink:href="#dot" transform="translate(137.8167,-32.7833)" />   <use xlink:href="#dot" transform="translate(138.62,-35.58)" />   <use xlink:href="#dot" transform="translate(115.6,-31.8)" />   <use xlink:href="#dot" transform="translate(135.87,-34.73)" />   <use xlink:href="#dot" transform="translate(136.13,-34.37)" />   <use xlink:href="#dot" transform="translate(137.8167,-32.7833)" />   <use xlink:href="#dot" transform="translate(138.48,-35.27)" />   <use xlink:href="#dot" transform="translate(115.6,-31.8)" />   <use xlink:href="#dot" transform="translate(138.583333,-34.916667)" />   <use xlink:href="#dot" transform="translate(122.1,-34)" />   <use xlink:href="#dot" transform="translate(115.6,-31.8)" />   <use xlink:href="#dot" transform="translate(138.58,-35.6)" />   <use xlink:href="#dot" transform="translate(138.62,-35.58)" />   <use xlink:href="#dot" transform="translate(138.4833,-34.85)" />   <use xlink:href="#dot" transform="translate(115.6,-31.8)" />   <use xlink:href="#dot" transform="translate(138.4833,-34.85)" />   <use xlink:href="#dot" transform="translate(137.8,-34.92)" />   <use xlink:href="#dot" transform="translate(137.57,-34.07)" />   <use xlink:href="#dot" transform="translate(138.48,-35.27)" />   <use xlink:href="#dot" transform="translate(137.67,-35.92)" />   <use xlink:href="#dot" transform="translate(115.6,-31.8)" />   <use xlink:href="#dot" transform="translate(115.6,-31.8)" />   <use xlink:href="#dot" transform="translate(137.73,-35.13)" /><polygon class="region" points="116,-34.8 40.1352,-3.25874 118.634,4.2325 135.741665,-11.359305 151.222,-34.0009 145.029,-38.4758 137.4619,-38.8039 116,-34.8 " />
		  </g>
		</svg>