<?xml version="1.0" encoding="UTF-8"?>
	<svg xmlns:xlink="http://www.w3.org/1999/xlink" 
	xmlns="http://www.w3.org/2000/svg" 
	width="360px" height="180px">
	   <style type="text/css">
		  <![CDATA[     
		  .region 
		  { 
			fill:blue; 
			opacity:0.4; 
			stroke:blue;
		  }
		  ]]>
	   </style>

	<circle id="dot" x="-2" y="-2" r="2" style="stroke:none; stroke-width:0; fill:black; opacity:0.7;"/>


	 <image x="0" y="0" width="360" height="180" xlink:href="map.jpg"/>

 
	 <g transform="translate(180,90) scale(1,-1)"><polygon class="region" points="-74.744789124,9.768708229 -74.621426053,9.7365829460001 -74.595833333,9.55 -74.479166666,9.5625 -74.4625,9.1625 -74.241666667,9.1041666670001 -74.033239677,9.1786891900001 -73.954126485,9.6651362100001 -73.7375,9.641666667 -73.578599379,8.9977895100001 -73.429166667,8.9375 -73.6,8.904166666 -73.645833333,8.691666667 -73.470266046,8.4590799960001 -73.641916911,8.1699578180001 -73.50507999,8.1006074700001 -73.691099379,7.9772104900001 -73.5875,7.6125 -73.75,7.6791666670001 -73.6,7.5458333330001 -73.81598036,7.4699941000001 -73.816666667,7.341666667 -73.641666666,7.279166667 -73.7625,7.1875 -73.6625,7.154166666 -73.758333333,6.9208333340001 -73.961649068,6.936649237 -74.000755479,6.634292263 -74.295833334,6.4833333340001 -74.266666667,6.1166666670001 -74.47498542,5.947916666 -74.358317058,5.8224149920001 -74.649646674,5.352424452 -74.558333333,4.766666667 -74.733333334,4.2333333340001 -74.595833333,4.145833333 -74.866313341,3.8440911180001 -74.8875,3.541666666 -75.16585083,3.354811436 -75.333333333,3.583333333 -74.863238865,4.609212918 -75.083333333,4.708333334 -75.079519993,4.9808797200001 -74.884135946,5.025735135 -74.808686659,5.260075548 -75.020833333,5.3041666660001 -74.721752929,5.675582886 -74.749127197,6.175642903 -74.608333333,6.3083333330001 -74.716741266,6.4220458990001 -74.504166666,6.8041666670001 -74.062235514,7.092803955 -74.229166667,7.2875 -73.917773098,7.5586300320001 -74.025,7.6708333330001 -73.8375,7.9083333340001 -73.989593336,7.921294318 -74.049032253,7.9587292140001 -73.925735982,8.0617421470001 -74.2125,8.1125 -73.945266046,8.552951728 -74.154166667,8.6041666670001 -74.192797173,8.7880421950001 -74.461349487,8.718847274 -74.654166667,9.0416666670001 -74.791931152,8.638637288 -74.55,8.2 -74.583333333,7.883333334 -74.825746664,7.753599379 -75.244091118,7.862146674 -75.516931322,7.5928037850001 -75.44095815,8.124112617 -75.039242214,8.054519993 -74.862465752,8.184868707 -75.279166667,8.3083333340001 -75.126381533,8.621540085 -75.254166667,8.7458333340001 -75.092443509,8.7382849800001 -75.0125,8.9958333330001 -74.883201599,8.8356037140001 -75.004166666,9.0625 -74.866099379,9.2343214250001 -75.054166667,9.425 -74.808006287,9.4865493770001 -74.744789124,9.768708229 " /><polygon class="region" points="-73.830257962,9.154039068 -73.842774184,9.150985609 -73.853842774,9.1352087280001 -73.834335327,9.143102646 -73.830257962,9.154039068 " /><polygon class="region" points="-74.749644979,9.431620449 -74.75,9.425 -74.7375,9.4208333330001 -74.7375,9.4375 -74.749644979,9.431620449 " /><polygon class="region" points="-74.409759522,8.7530279160001 -74.399215698,8.7389574050001 -74.386185631,8.742428428 -74.39609842,8.7596319100001 -74.409759522,8.7530279160001 " /><polygon class="region" points="-73.935127258,8 -73.962081909,7.9876651760001 -73.967178345,7.9388332360001 -73.939483642,7.9470181460001 -73.935127258,8 " /><polygon class="region" points="-75.679733955,5.1345482720001 -76.133900622,3.67008667 -76.033989291,3.380067614 -76.685757785,3.3670199920001 -76.428315905,4.061649238 -76.267517429,4.1466840950001 -76.095480007,5.035757786 -75.7375,5.391666667 -75.6625,5.7 -75.829431322,6.0071960450001 -75.635047574,6.162146335 -75.379166666,5.825 -75.525,5.3791666670001 -75.358333333,5.195833334 -75.679733955,5.1345482720001 " /><polygon class="region" points="-73.768104553,7.4594717030001 -73.739089965,7.445290089 -73.791160583,7.4182462690001 -73.782691955,7.4704289430001 -73.768104553,7.4594717030001 " /><polygon class="region" points="-76.271746826,7.8964408030001 -76.282298964,7.896033894 -76.278119575,7.9502735730001 -76.270802205,7.948543231 -76.271746826,7.8964408030001 " /><polygon class="region" points="-76.079166667,8.329166667 -76.082979329,8.3441172280001 -76.062896051,8.3573655870001 -76.054166667,8.333333334 -76.079166667,8.329166667 " /><polygon class="region" points="-77.116666667,7.4208333340001 -77.116666667,7.4375 -77.091666667,7.4416666670001 -77.1,7.4083333340001 -77.116666667,7.4208333340001 " /><polygon class="region" points="-75.995833333,8.7208333340001 -75.994618395,8.725567288 -75.970833333,8.7291666670001 -75.979166667,8.7125 -75.995833333,8.7208333340001 " /><polygon class="region" points="-76.55,3.104166666 -76.562146674,3.114242215 -76.555107287,3.121362983 -76.550608317,3.1198686390001 -76.55,3.104166666 " /><polygon class="region" points="-74.834327698,9.499295235 -74.834054482,9.4939683320001 -74.835418701,9.516998291 -74.828041077,9.5119132990001 -74.834327698,9.499295235 " /><polygon class="region" points="-75.829166666,9.191666667 -75.8375,9.195833334 -75.820833333,9.208333334 -75.828813341,9.1982577850001 -75.829166666,9.191666667 " /><polygon class="region" points="-75.229166667,3.2458333330001 -75.232482401,3.2491490690001 -75.225,3.25 -75.225,3.2458333330001 -75.229166667,3.2458333330001 " />
		  </g>
		</svg>