<?xml version="1.0" encoding="UTF-8"?>
	<svg xmlns:xlink="http://www.w3.org/1999/xlink" 
	xmlns="http://www.w3.org/2000/svg" 
	width="360px" height="180px">
	   <style type="text/css">
		  <![CDATA[     
		  .region 
		  { 
			fill:blue; 
			opacity:0.4; 
			stroke:blue;
		  }
		  ]]>
	   </style>

	<circle id="dot" x="-2" y="-2" r="2" style="stroke:none; stroke-width:0; fill:black; opacity:0.7;"/>


	 <image x="0" y="0" width="360" height="180" xlink:href="map.jpg"/>

 
	 <g transform="translate(180,90) scale(1,-1)">   <use xlink:href="#dot" transform="translate(-75.741472,5.051667)" />   <use xlink:href="#dot" transform="translate(-75.730944,5.061972)" />   <use xlink:href="#dot" transform="translate(-74.885761,8.052007)" />   <use xlink:href="#dot" transform="translate(-75.09499,8.02242)" />   <use xlink:href="#dot" transform="translate(-75.30719,7.44356)" />   <use xlink:href="#dot" transform="translate(-75.09499,8.02242)" />   <use xlink:href="#dot" transform="translate(-75.856158,5.940483)" />   <use xlink:href="#dot" transform="translate(-73.550972,7.162528)" />   <use xlink:href="#dot" transform="translate(-74.398056,6.497222)" />   <use xlink:href="#dot" transform="translate(-74.812241,4.737993)" />   <use xlink:href="#dot" transform="translate(-74.819672,4.717283)" />   <use xlink:href="#dot" transform="translate(-74.812241,4.737993)" />   <use xlink:href="#dot" transform="translate(-74.819672,4.717283)" />   <use xlink:href="#dot" transform="translate(-74.398284,6.507578)" />   <use xlink:href="#dot" transform="translate(-74.398284,6.507578)" />   <use xlink:href="#dot" transform="translate(-73.227917,7.225944)" />   <use xlink:href="#dot" transform="translate(-74.713807,6.240318)" />   <use xlink:href="#dot" transform="translate(-74.461678,8.732034)" />   <use xlink:href="#dot" transform="translate(-75.670185,2.105352)" />   <use xlink:href="#dot" transform="translate(-73.882971,8.963128)" />   <use xlink:href="#dot" transform="translate(-74.082111,6.727806)" />   <use xlink:href="#dot" transform="translate(-74.104091,6.773917)" />   <use xlink:href="#dot" transform="translate(-75.8443,6.87246)" />   <use xlink:href="#dot" transform="translate(-75.09499,8.02242)" />   <use xlink:href="#dot" transform="translate(-74.474569,8.893719)" />   <use xlink:href="#dot" transform="translate(-75.795375,6.542559)" />   <use xlink:href="#dot" transform="translate(-73.625195,8.647533)" />   <use xlink:href="#dot" transform="translate(-73.735028,8.545306)" />   <use xlink:href="#dot" transform="translate(-74.5391,8.339134)" />   <use xlink:href="#dot" transform="translate(-75.09499,8.02242)" />   <use xlink:href="#dot" transform="translate(-74.792613,5.367585)" />   <use xlink:href="#dot" transform="translate(-74.885761,8.052007)" />   <use xlink:href="#dot" transform="translate(-75.30719,7.44356)" />   <use xlink:href="#dot" transform="translate(-73.924639,7.395)" />   <use xlink:href="#dot" transform="translate(-75.560778,2.447453)" />   <use xlink:href="#dot" transform="translate(-75.670185,2.105352)" />   <use xlink:href="#dot" transform="translate(-74.997181,8.00726)" />   <use xlink:href="#dot" transform="translate(-75.235052,7.75338)" />   <use xlink:href="#dot" transform="translate(-75.17326,8.006644)" />   <use xlink:href="#dot" transform="translate(-74.76721,8.096092)" />   <use xlink:href="#dot" transform="translate(-76.391794,3.7882)" />   <use xlink:href="#dot" transform="translate(-76.563412,3.120677)" />   <use xlink:href="#dot" transform="translate(-76.588771,3.12061)" />   <use xlink:href="#dot" transform="translate(-76.382286,3.835819)" />   <use xlink:href="#dot" transform="translate(-76.2303,4.23041)" />   <use xlink:href="#dot" transform="translate(-74.9045,9.044111)" />   <use xlink:href="#dot" transform="translate(-74.776722,5.658583)" />   <use xlink:href="#dot" transform="translate(-74.398284,6.507578)" />   <use xlink:href="#dot" transform="translate(-73.793361,7.238658)" />   <use xlink:href="#dot" transform="translate(-73.183569,7.432838)" />   <use xlink:href="#dot" transform="translate(-73.183569,7.432838)" />   <use xlink:href="#dot" transform="translate(-73.416025,7.105947)" />   <use xlink:href="#dot" transform="translate(-75.204311,7.961298)" />   <use xlink:href="#dot" transform="translate(-75.687469,7.084412)" />   <use xlink:href="#dot" transform="translate(-74.858611,5.308472)" />   <use xlink:href="#dot" transform="translate(-74.782261,5.696672)" />   <use xlink:href="#dot" transform="translate(-73.947972,7.473861)" />   <use xlink:href="#dot" transform="translate(-75.6833,2.1666)" />   <use xlink:href="#dot" transform="translate(-74.72652,5.73466)" />   <use xlink:href="#dot" transform="translate(-74.72652,5.73466)" />   <use xlink:href="#dot" transform="translate(-74.833333,5.25)" />   <use xlink:href="#dot" transform="translate(-74.398284,6.507578)" />   <use xlink:href="#dot" transform="translate(-74.398284,6.507578)" />   <use xlink:href="#dot" transform="translate(-75.840694,5.967028)" />   <use xlink:href="#dot" transform="translate(-74.871822,5.311658)" />   <use xlink:href="#dot" transform="translate(-74.745924,5.289215)" />   <use xlink:href="#dot" transform="translate(-74.745924,5.289215)" />   <use xlink:href="#dot" transform="translate(-74.871822,5.311658)" />   <use xlink:href="#dot" transform="translate(-74.745924,5.289215)" />   <use xlink:href="#dot" transform="translate(-74.871822,5.311658)" />   <use xlink:href="#dot" transform="translate(-74.871822,5.311658)" />   <use xlink:href="#dot" transform="translate(-74.871822,5.311658)" />   <use xlink:href="#dot" transform="translate(-75.1963,3.801322)" />   <use xlink:href="#dot" transform="translate(-74.72356,5.205236)" />   <use xlink:href="#dot" transform="translate(-74.370611,6.349194)" />   <use xlink:href="#dot" transform="translate(-76.475711,3.311199)" />   <use xlink:href="#dot" transform="translate(-74.731084,5.277648)" />   <use xlink:href="#dot" transform="translate(-74.731084,5.277648)" />   <use xlink:href="#dot" transform="translate(-76.475711,3.311199)" />   <use xlink:href="#dot" transform="translate(-74.493911,9.230581)" />   <use xlink:href="#dot" transform="translate(-76.600106,3.091906)" />   <use xlink:href="#dot" transform="translate(-74.2,5.916667)" />   <use xlink:href="#dot" transform="translate(-74.466667,5.966667)" />   <use xlink:href="#dot" transform="translate(-73.943402,7.436472)" />   <use xlink:href="#dot" transform="translate(-74.630861,5.759781)" />   <use xlink:href="#dot" transform="translate(-74.630861,5.759781)" />   <use xlink:href="#dot" transform="translate(-75.439536,2.672411)" />   <use xlink:href="#dot" transform="translate(-74.743918,9.227918)" />   <use xlink:href="#dot" transform="translate(-74.96667,10.35)" />   <use xlink:href="#dot" transform="translate(-74.96667,10.35)" />   <use xlink:href="#dot" transform="translate(-73.948828,7.978625)" />   <use xlink:href="#dot" transform="translate(-74.666667,5.483333)" />   <use xlink:href="#dot" transform="translate(-74.731084,5.277648)" />   <use xlink:href="#dot" transform="translate(-76.102911,4.400734)" />   <use xlink:href="#dot" transform="translate(-75.140833,10.393056)" />   <use xlink:href="#dot" transform="translate(-74.738413,5.197692)" />   <use xlink:href="#dot" transform="translate(-76.48424,3.495097)" />   <use xlink:href="#dot" transform="translate(-74.734444,5.235)" />   <use xlink:href="#dot" transform="translate(-75.555278,2.503333)" />   <use xlink:href="#dot" transform="translate(-76.6193,3.098)" />   <use xlink:href="#dot" transform="translate(-74.799444,3.878611)" />   <use xlink:href="#dot" transform="translate(-74.742966,9.232164)" />   <use xlink:href="#dot" transform="translate(-75.550567,2.499458)" />   <use xlink:href="#dot" transform="translate(-75.550567,2.499458)" />   <use xlink:href="#dot" transform="translate(-74.734444,5.235)" />   <use xlink:href="#dot" transform="translate(-74.398284,6.507578)" />   <use xlink:href="#dot" transform="translate(-75.584167,2.453056)" />   <use xlink:href="#dot" transform="translate(-74.396741,6.487301)" />   <use xlink:href="#dot" transform="translate(-75.667222,2.1675)" />   <use xlink:href="#dot" transform="translate(-75.889722,4.896111)" />   <use xlink:href="#dot" transform="translate(-75.584167,2.453056)" />   <use xlink:href="#dot" transform="translate(-74.74333,5.251389)" />   <use xlink:href="#dot" transform="translate(-74.734444,5.235)" />   <use xlink:href="#dot" transform="translate(-75.584167,2.453056)" />   <use xlink:href="#dot" transform="translate(-74.487199,4.240399)" />   <use xlink:href="#dot" transform="translate(-74.814167,4.196111)" />   <use xlink:href="#dot" transform="translate(-74.79056,4.266667)" />   <use xlink:href="#dot" transform="translate(-74.799444,3.878611)" />   <use xlink:href="#dot" transform="translate(-75.673611,2.175556)" />   <use xlink:href="#dot" transform="translate(-74.734444,5.235)" />   <use xlink:href="#dot" transform="translate(-75.555278,2.503333)" />   <use xlink:href="#dot" transform="translate(-76.48132,3.31045)" />   <use xlink:href="#dot" transform="translate(-76.6193,3.098)" />   <use xlink:href="#dot" transform="translate(-75.580731,2.41851)" />   <use xlink:href="#dot" transform="translate(-76.6193,3.098)" />   <use xlink:href="#dot" transform="translate(-73.966667,9)" />   <use xlink:href="#dot" transform="translate(-75.555278,2.503333)" />   <use xlink:href="#dot" transform="translate(-74.821111,4.1775)" />   <use xlink:href="#dot" transform="translate(-75.584167,2.453056)" />   <use xlink:href="#dot" transform="translate(-75.889722,4.896111)" />   <use xlink:href="#dot" transform="translate(-74.742966,9.232164)" />   <use xlink:href="#dot" transform="translate(-74.734444,5.235)" />   <use xlink:href="#dot" transform="translate(-75.584167,2.453056)" />   <use xlink:href="#dot" transform="translate(-75.555278,2.503333)" />   <use xlink:href="#dot" transform="translate(-75.8,9.4)" />   <use xlink:href="#dot" transform="translate(-74.833333,5.25)" />   <use xlink:href="#dot" transform="translate(-73.846667,7.069722)" />   <use xlink:href="#dot" transform="translate(-73.846667,7.069722)" />   <use xlink:href="#dot" transform="translate(-74.73072,5.23347)" />   <use xlink:href="#dot" transform="translate(-74.7729,3.88626)" />   <use xlink:href="#dot" transform="translate(-74.821111,4.189444)" />   <use xlink:href="#dot" transform="translate(-74.74618,5.68918)" />   <use xlink:href="#dot" transform="translate(-75.252718,4.041529)" />   <use xlink:href="#dot" transform="translate(-75.534167,2.501111)" />   <use xlink:href="#dot" transform="translate(-75.584167,2.453056)" />   <use xlink:href="#dot" transform="translate(-75.889722,4.896111)" />   <use xlink:href="#dot" transform="translate(-73.88757,6.99589)" />   <use xlink:href="#dot" transform="translate(-75.099973,8.646589)" />   <use xlink:href="#dot" transform="translate(-74.591331,4.519747)" /><polygon class="region" points="-75.670185,2.105352 -76.6193,3.098 -75.8,9.4 -75.140833,10.393056 -74.96667,10.35 -73.625195,8.647533 -73.183569,7.432838 -73.227917,7.225944 -74.487199,4.240399 -75.670185,2.105352 " />
		  </g>
		</svg>