<?xml version="1.0" encoding="UTF-8"?>
	<svg xmlns:xlink="http://www.w3.org/1999/xlink" 
	xmlns="http://www.w3.org/2000/svg" 
	width="360px" height="180px">
	   <style type="text/css">
		  <![CDATA[     
		  .region 
		  { 
			fill:blue; 
			opacity:0.4; 
			stroke:blue;
		  }
		  ]]>
	   </style>

	<circle id="dot" x="-2" y="-2" r="2" style="stroke:none; stroke-width:0; fill:black; opacity:0.7;"/>


	 <image x="0" y="0" width="360" height="180" xlink:href="map.jpg"/>

 
	 <g transform="translate(180,90) scale(1,-1)">   <use xlink:href="#dot" transform="translate(12.74488,-0.808)" />   <use xlink:href="#dot" transform="translate(11.462,-2.163333)" />   <use xlink:href="#dot" transform="translate(10.207833,-0.567667)" />   <use xlink:href="#dot" transform="translate(11.461667,-2.163611)" />   <use xlink:href="#dot" transform="translate(11.461667,-2.163611)" />   <use xlink:href="#dot" transform="translate(10.32475,-0.659833)" />   <use xlink:href="#dot" transform="translate(9.833333,1.466667)" />   <use xlink:href="#dot" transform="translate(10.466667,-0.883333)" />   <use xlink:href="#dot" transform="translate(11.676,-2.716)" />   <use xlink:href="#dot" transform="translate(10.2128,-0.5683)" />   <use xlink:href="#dot" transform="translate(10.283333,-0.716667)" />   <use xlink:href="#dot" transform="translate(10.466667,-0.883333)" />   <use xlink:href="#dot" transform="translate(10.283333,-0.716667)" />   <use xlink:href="#dot" transform="translate(11.46185,-2.1634)" />   <use xlink:href="#dot" transform="translate(10.216667,-0.616667)" />   <use xlink:href="#dot" transform="translate(10.466667,-0.883333)" />   <use xlink:href="#dot" transform="translate(10.216667,-0.633333)" />   <use xlink:href="#dot" transform="translate(9.833333,0.366667)" /><polygon class="region" points="10.216667,-0.633333 9.833333,0.366667 9.833333,1.466667 12.74488,-0.808 11.676,-2.716 10.216667,-0.633333 " />
		  </g>
		</svg>