<?xml version="1.0" encoding="UTF-8"?>
	<svg xmlns:xlink="http://www.w3.org/1999/xlink" 
	xmlns="http://www.w3.org/2000/svg" 
	width="360px" height="180px">
	   <style type="text/css">
		  <![CDATA[     
		  .region 
		  { 
			fill:blue; 
			opacity:0.4; 
			stroke:blue;
		  }
		  ]]>
	   </style>

	<circle id="dot" x="-2" y="-2" r="2" style="stroke:none; stroke-width:0; fill:black; opacity:0.7;"/>


	 <image x="0" y="0" width="360" height="180" xlink:href="map.jpg"/>

 
	 <g transform="translate(180,90) scale(1,-1)"><polygon class="region" points="10.010075548,-0.38785332599997 10.278206889,-0.29101070799993 10.466666667,0.00416666700005 10.208333333,0.32916666600005 10.578463067,0.60937601800003 10.6625,1.204166666 11.07011617,1.336513774 11.225,1.004166667 11.145204332,0.66766289600002 10.8625,0.3875 10.875,-0.079166666999924 11.75,0.27083333300004 11.370833333,-0.033333333999963 11.415687052,-0.75360344799998 11.175,-0.5125 10.733333333,-0.64583333299993 10.920025635,-1.186638048 10.520833334,-1.4125 10.302135044,-1.1464762369999 9.9833333330001,-1.279166667 9.766666666,-1.0375 9.0382849800001,-1.1034834119999 8.8928816060001,-0.99223395499996 9.199012247,-0.94928758399993 9.5741492380001,-0.56998240099995 9.5541666670001,-0.40833333299997 10.010075548,-0.38785332599997 " /><polygon class="region" points="10.270833333,-0.6 10.2875,-0.60416666699996 10.295833333,-0.5875 10.283333333,-0.58333333399997 10.270833333,-0.6 " /><polygon class="region" points="10.025,-0.3875 10.026214939,-0.38276604499993 10.029577976,-0.38632507399996 10.025,-0.3875 " />
		  </g>
		</svg>