<?xml version="1.0" encoding="UTF-8"?>
	<svg xmlns:xlink="http://www.w3.org/1999/xlink" 
	xmlns="http://www.w3.org/2000/svg" 
	width="360px" height="180px">
	   <style type="text/css">
		  <![CDATA[     
		  .region 
		  { 
			fill:blue; 
			opacity:0.4; 
			stroke:blue;
		  }
		  ]]>
	   </style>

	<circle id="dot" x="-2" y="-2" r="2" style="stroke:none; stroke-width:0; fill:black; opacity:0.7;"/>


	 <image x="0" y="0" width="360" height="180" xlink:href="map.jpg"/>

 
	 <g transform="translate(180,90) scale(1,-1)"><polygon class="region" points="-97.937305071,28.143783769 -97.933691067,28.114211697 -98.061612616,28.017375013 -97.800917054,28.036907281 -97.374680193,27.834480169 -97.396980286,27.631587982 -97.308638679,27.711555142 -97.246695963,27.699313694 -97.236894904,27.683874003 -97.265913052,27.67837677 -97.341313341,27.519091119 -97.40099962,27.291049025 -97.733333334,27.420833333 -97.720833334,27.266666667 -97.421582032,27.265953064 -97.549234857,26.93779263 -97.432677883,26.915730116 -97.430184936,26.778882853 -97.477044338,26.816011217 -97.5125,26.816666667 -97.292284308,26.111500379 -97.18528951,26.050567288 -97.334183418,26.542233955 -97.240451728,26.395266046 -97.213067288,26.385543823 -97.141666667,25.954166666 -97.233509488,25.842740207 -97.26713579,25.863117641 -97.3125,25.8 -97.55,25.733333333 -97.851742215,26.041313341 -98.4875,25.925 -98.391666666,26.158333333 -98.8,26.195833333 -98.854166666,26.3625 -99.74375,26.033802117 -100.165687731,26.229799397 -100.081591119,26.478813341 -99.7,26.504166666 -99.604166667,26.654166667 -99.150555556,26.55625 -99.149291653,26.736612617 -98.903599379,26.844807943 -99.266666666,26.85 -98.895228407,27.283874003 -99.008333333,27.6875 -98.895833333,28.0875 -98.6375,27.8 -98.426715766,28.100353325 -98.191666667,28.0125 -97.937305071,28.143783769 " /><polygon class="region" points="-97.53263456,27.414713939 -97.532531739,27.414758683 -97.532505297,27.41489624 -97.53263456,27.414713939 " /><polygon class="region" points="-97.514035727,27.425893138 -97.508625643,27.42630126 -97.508333333,27.429166667 -97.510543824,27.428599378 -97.514035727,27.425893138 " /><polygon class="region" points="-97.546299913,26.918307835 -97.543055556,26.916666666 -97.54202101,26.918747966 -97.543163893,26.921088324 -97.546299913,26.918307835 " /><polygon class="region" points="-98.079166667,28.025 -98.078315735,28.021684096 -98.075,28.020833333 -98.075850932,28.024149238 -98.079166667,28.025 " /><polygon class="region" points="-97.480463312,27.412991981 -97.471672058,27.40952301 -97.470833333,27.408333333 -97.471804979,27.411731805 -97.480463312,27.412991981 " /><polygon class="region" points="-98.070833333,28.020833333 -98.070266045,28.018622843 -98.067881605,28.016099379 -98.066666667,28.020833333 -98.070833333,28.020833333 " /><polygon class="region" points="-97.494989692,27.387262132 -97.483866731,27.389801165 -97.483333333,27.391666666 -97.489622328,27.391011217 -97.494989692,27.387262132 " /><polygon class="region" points="-97.484548272,27.091099379 -97.478755358,27.09700826 -97.482118395,27.100567288 -97.487911309,27.094658406 -97.484548272,27.091099379 " /><polygon class="region" points="-97.625567288,27.330381606 -97.619658407,27.324588691 -97.616099379,27.327951728 -97.62200826,27.333744643 -97.625567288,27.330381606 " /><polygon class="region" points="-97.308938429,26.260944281 -97.303620232,26.263256497 -97.306884766,26.267271593 -97.308938429,26.260944281 " /><polygon class="region" points="-97.450605096,27.073444282 -97.445286899,27.075756497 -97.448551433,27.079771593 -97.450605096,27.073444282 " /><polygon class="region" points="-97.7375,27.270833333 -97.73660041,27.26732788 -97.729166667,27.266666667 -97.730066257,27.27017212 -97.7375,27.270833333 " /><polygon class="region" points="-97.576214938,27.316099379 -97.570395575,27.322048103 -97.57173818,27.328842332 -97.579577976,27.319658407 -97.576214938,27.316099379 " /><polygon class="region" points="-97.5,27.429166667 -97.499894364,27.424704672 -97.491500855,27.425279617 -97.492133739,27.429629647 -97.5,27.429166667 " /><polygon class="region" points="-97.613067288,27.313714939 -97.59681956,27.303785197 -97.591099379,27.305482822 -97.592535909,27.311890836 -97.613067288,27.313714939 " /><polygon class="region" points="-97.511905416,26.844730292 -97.476388889,26.841666666 -97.47518141,26.845032077 -97.502866448,26.854210748 -97.511905416,26.844730292 " /><polygon class="region" points="-97.483976067,27.080082194 -97.463235135,27.070030721 -97.450915527,27.011857096 -97.455084737,27.086829292 -97.483976067,27.080082194 " /><polygon class="region" points="-97.490669251,25.781051636 -97.512626648,25.773914337 -97.516929626,25.758920669 -97.459579468,25.787807465 -97.490669251,25.781051636 " /><polygon class="region" points="-97.177044339,26.042322116 -97.211844551,26.018788994 -97.20543518,25.970892334 -97.163402596,25.990422934 -97.177044339,26.042322116 " /><polygon class="region" points="-97.386672974,27.574996948 -97.454177857,27.512496949 -97.428604126,27.484161377 -97.381668091,27.491939545 -97.386672974,27.574996948 " /><polygon class="region" points="-98.866666666,27.141666667 -98.304971313,26.966023424 -98.356122844,26.879733954 -98.523257786,26.891313341 -98.583333334,26.829166667 -98.113436889,26.782722643 -98.193379551,26.670480007 -97.474739075,26.825759888 -98.016912503,27.067322116 -98.866666666,27.141666667 " /><polygon class="region" points="-97.254771762,27.606160652 -97.195833333,27.625 -97.374357266,26.95619846 -97.225872634,26.40769043 -97.421476067,26.891032919 -97.387724813,27.263722908 -97.321438429,27.496374003 -97.254771762,27.606160652 " /><polygon class="region" points="-97.305428229,27.483309767 -97.299588691,27.488674927 -97.302951728,27.492233955 -97.311671109,27.478883362 -97.305428229,27.483309767 " /><polygon class="region" points="-97.263067288,27.56028951 -97.249432712,27.585997349 -97.261844041,27.582373556 -97.286932712,27.531377156 -97.284548272,27.520266045 -97.263067288,27.56028951 " /><polygon class="region" points="-97.3,26.275 -97.325504727,26.280096774 -97.311518351,26.2992669 -97.279920281,26.282533433 -97.286132134,26.257715861 -97.3,26.275 " /><polygon class="region" points="-97.30046658,26.284974501 -97.297222222,26.283333334 -97.296187676,26.285414632 -97.29733056,26.287754992 -97.30046658,26.284974501 " /><polygon class="region" points="-97.325,26.35 -97.317502509,26.349235365 -97.312249756,26.334208849 -97.320833334,26.333333334 -97.325,26.35 " /><polygon class="region" points="-97.32160458,26.38410475 -97.329784308,26.389389038 -97.328172302,26.400617472 -97.320513238,26.392879231 -97.32160458,26.38410475 " /><polygon class="region" points="-97.292284308,27.600945875 -97.288415019,27.604784309 -97.283623081,27.602859497 -97.284722222,27.6 -97.292284308,27.600945875 " /><polygon class="region" points="-97.367133247,27.789141337 -97.363997226,27.791921658 -97.362854343,27.789581299 -97.363888889,27.7875 -97.367133247,27.789141337 " />
		  </g>
		</svg>