<?xml version="1.0" encoding="UTF-8"?>
	<svg xmlns:xlink="http://www.w3.org/1999/xlink" 
	xmlns="http://www.w3.org/2000/svg" 
	width="360px" height="180px">
	   <style type="text/css">
		  <![CDATA[     
		  .region 
		  { 
			fill:blue; 
			opacity:0.4; 
			stroke:blue;
		  }
		  ]]>
	   </style>

	<circle id="dot" x="-2" y="-2" r="2" style="stroke:none; stroke-width:0; fill:black; opacity:0.7;"/>


	 <image x="0" y="0" width="360" height="180" xlink:href="map.jpg"/>

 
	 <g transform="translate(180,90) scale(1,-1)">   <use xlink:href="#dot" transform="translate(-98.1118,29.72727)" />   <use xlink:href="#dot" transform="translate(-97.93554,29.88409)" />   <use xlink:href="#dot" transform="translate(-97.48888,28.04771)" />   <use xlink:href="#dot" transform="translate(-96.97934,33.22442)" />   <use xlink:href="#dot" transform="translate(-97.175183,27.6728)" />   <use xlink:href="#dot" transform="translate(-97.1772,27.686033)" />   <use xlink:href="#dot" transform="translate(-97.450733,27.69725)" />   <use xlink:href="#dot" transform="translate(-96.935467,29.324083)" />   <use xlink:href="#dot" transform="translate(-97.5019,27.7093)" />   <use xlink:href="#dot" transform="translate(-97.401967,27.656867)" />   <use xlink:href="#dot" transform="translate(-97.29762,28.179185)" />   <use xlink:href="#dot" transform="translate(-95.579,29.352717)" />   <use xlink:href="#dot" transform="translate(-98.086089,28.333438)" />   <use xlink:href="#dot" transform="translate(-97.832645,27.537863)" />   <use xlink:href="#dot" transform="translate(-97.743074,27.682532)" />   <use xlink:href="#dot" transform="translate(-97.855077,27.465787)" />   <use xlink:href="#dot" transform="translate(-97.278368,28.292375)" />   <use xlink:href="#dot" transform="translate(-97.303837,28.208837)" />   <use xlink:href="#dot" transform="translate(-96.97934,33.22442)" />   <use xlink:href="#dot" transform="translate(-96.700658,28.578898)" />   <use xlink:href="#dot" transform="translate(-97.84539,29.83961)" />   <use xlink:href="#dot" transform="translate(-96.97934,33.22442)" />   <use xlink:href="#dot" transform="translate(-97.84539,29.83961)" />   <use xlink:href="#dot" transform="translate(-97.935204,29.883551)" />   <use xlink:href="#dot" transform="translate(-97.545849,28.044992)" />   <use xlink:href="#dot" transform="translate(-98.569699,29.256096)" />   <use xlink:href="#dot" transform="translate(-97.50377,28.04694)" />   <use xlink:href="#dot" transform="translate(-97.598837,28.050158)" />   <use xlink:href="#dot" transform="translate(-97.32489,27.99746)" />   <use xlink:href="#dot" transform="translate(-98.16389,29.1)" />   <use xlink:href="#dot" transform="translate(-97.961233,26.070017)" />   <use xlink:href="#dot" transform="translate(-98.137148,29.713206)" />   <use xlink:href="#dot" transform="translate(-97.961233,26.070017)" />   <use xlink:href="#dot" transform="translate(-97.930994,29.89151)" />   <use xlink:href="#dot" transform="translate(-97.961233,26.070017)" />   <use xlink:href="#dot" transform="translate(-97.483744,25.904835)" />   <use xlink:href="#dot" transform="translate(-97.896882,29.857091)" />   <use xlink:href="#dot" transform="translate(-97.483744,25.904835)" />   <use xlink:href="#dot" transform="translate(-97.844414,29.838489)" />   <use xlink:href="#dot" transform="translate(-97.961233,26.070017)" />   <use xlink:href="#dot" transform="translate(-97.961233,26.070017)" />   <use xlink:href="#dot" transform="translate(-97.896882,29.857091)" />   <use xlink:href="#dot" transform="translate(-100.978611,29.576944)" />   <use xlink:href="#dot" transform="translate(-98.976944,23.943611)" />   <use xlink:href="#dot" transform="translate(-98.876806,21.563917)" />   <use xlink:href="#dot" transform="translate(-98.416944,21.75)" />   <use xlink:href="#dot" transform="translate(-99.107223,23.9725)" />   <use xlink:href="#dot" transform="translate(-99.01667,24.213055)" />   <use xlink:href="#dot" transform="translate(-99.570831,24.35)" />   <use xlink:href="#dot" transform="translate(-98.474046,29.458594)" />   <use xlink:href="#dot" transform="translate(-98.742775,23.725)" />   <use xlink:href="#dot" transform="translate(-97.533505,25.985823)" />   <use xlink:href="#dot" transform="translate(-98.929361,21.436583)" />   <use xlink:href="#dot" transform="translate(-97.501056,25.911159)" />   <use xlink:href="#dot" transform="translate(-99.222778,23.704722)" />   <use xlink:href="#dot" transform="translate(-99.222778,23.704722)" />   <use xlink:href="#dot" transform="translate(-82.206111,28.7575)" />   <use xlink:href="#dot" transform="translate(-98.223213,26.292759)" />   <use xlink:href="#dot" transform="translate(-98.175952,26.306199)" />   <use xlink:href="#dot" transform="translate(-97.454785,25.878109)" />   <use xlink:href="#dot" transform="translate(-97.482481,25.90288)" />   <use xlink:href="#dot" transform="translate(-97.458199,26.022279)" />   <use xlink:href="#dot" transform="translate(-97.458199,26.022279)" />   <use xlink:href="#dot" transform="translate(-97.458199,26.022279)" />   <use xlink:href="#dot" transform="translate(-97.483744,25.904835)" />   <use xlink:href="#dot" transform="translate(-97.458199,26.022279)" />   <use xlink:href="#dot" transform="translate(-97.484115,25.905246)" />   <use xlink:href="#dot" transform="translate(-97.458199,26.022279)" />   <use xlink:href="#dot" transform="translate(-97.458199,26.022279)" />   <use xlink:href="#dot" transform="translate(-97.482481,25.90288)" />   <use xlink:href="#dot" transform="translate(-97.458199,26.022279)" />   <use xlink:href="#dot" transform="translate(-97.458199,26.022279)" />   <use xlink:href="#dot" transform="translate(-97.484115,25.905246)" />   <use xlink:href="#dot" transform="translate(-97.458199,26.022279)" />   <use xlink:href="#dot" transform="translate(-97.484115,25.905246)" />   <use xlink:href="#dot" transform="translate(-97.484115,25.905246)" />   <use xlink:href="#dot" transform="translate(-97.484115,25.905246)" />   <use xlink:href="#dot" transform="translate(-97.458199,26.022279)" />   <use xlink:href="#dot" transform="translate(-97.458199,26.022279)" />   <use xlink:href="#dot" transform="translate(-97.482481,25.90288)" />   <use xlink:href="#dot" transform="translate(-97.484477,25.9293)" />   <use xlink:href="#dot" transform="translate(-97.484115,25.905246)" />   <use xlink:href="#dot" transform="translate(-97.482481,25.90288)" />   <use xlink:href="#dot" transform="translate(-97.482481,25.90288)" />   <use xlink:href="#dot" transform="translate(-97.737352,29.711668)" />   <use xlink:href="#dot" transform="translate(-97.482481,25.90288)" />   <use xlink:href="#dot" transform="translate(-97.92287,29.86172)" />   <use xlink:href="#dot" transform="translate(-97.484115,25.905246)" />   <use xlink:href="#dot" transform="translate(-97.482481,25.90288)" />   <use xlink:href="#dot" transform="translate(-97.458199,26.022279)" />   <use xlink:href="#dot" transform="translate(-97.458199,26.022279)" />   <use xlink:href="#dot" transform="translate(-97.458199,26.022279)" />   <use xlink:href="#dot" transform="translate(-97.482481,25.90288)" />   <use xlink:href="#dot" transform="translate(-97.483744,25.904835)" />   <use xlink:href="#dot" transform="translate(-97.479894,26.024171)" />   <use xlink:href="#dot" transform="translate(-97.92287,29.86172)" />   <use xlink:href="#dot" transform="translate(-97.484115,25.905246)" />   <use xlink:href="#dot" transform="translate(-97.492046,25.914541)" />   <use xlink:href="#dot" transform="translate(-97.458199,26.022279)" />   <use xlink:href="#dot" transform="translate(-97.93204,29.87655)" />   <use xlink:href="#dot" transform="translate(-97.92287,29.86172)" />   <use xlink:href="#dot" transform="translate(-97.455014,25.877086)" />   <use xlink:href="#dot" transform="translate(-98.786227,26.361255)" />   <use xlink:href="#dot" transform="translate(-97.501056,25.911159)" />   <use xlink:href="#dot" transform="translate(-97.783868,26.480741)" />   <use xlink:href="#dot" transform="translate(-97.930454,29.870771)" />   <use xlink:href="#dot" transform="translate(-97.535583,25.9143)" />   <use xlink:href="#dot" transform="translate(-98.79919,24.94411)" />   <use xlink:href="#dot" transform="translate(-97.8298,27.464525)" />   <use xlink:href="#dot" transform="translate(-97.79212,26.343888)" />   <use xlink:href="#dot" transform="translate(-97.79212,26.343888)" />   <use xlink:href="#dot" transform="translate(-99.349444,25.720833)" />   <use xlink:href="#dot" transform="translate(-99.305,25.598889)" />   <use xlink:href="#dot" transform="translate(-99.9625,25.576389)" />   <use xlink:href="#dot" transform="translate(-99.195,26.065278)" />   <use xlink:href="#dot" transform="translate(-99.9625,25.576389)" />   <use xlink:href="#dot" transform="translate(-98.32569,26.208795)" />   <use xlink:href="#dot" transform="translate(-99.9625,25.576389)" />   <use xlink:href="#dot" transform="translate(-99.195,26.065278)" />   <use xlink:href="#dot" transform="translate(-99.195,26.065278)" />   <use xlink:href="#dot" transform="translate(-99.305,25.598889)" />   <use xlink:href="#dot" transform="translate(-99.9625,25.576389)" />   <use xlink:href="#dot" transform="translate(-99.349444,25.720833)" />   <use xlink:href="#dot" transform="translate(-99.188056,25.903889)" />   <use xlink:href="#dot" transform="translate(-99.8775,25.526667)" />   <use xlink:href="#dot" transform="translate(-99.349444,25.720833)" />   <use xlink:href="#dot" transform="translate(-99.305,25.598889)" />   <use xlink:href="#dot" transform="translate(-99.188056,25.903889)" />   <use xlink:href="#dot" transform="translate(-97.373611,25.84)" />   <use xlink:href="#dot" transform="translate(-99.195,26.065278)" />   <use xlink:href="#dot" transform="translate(-99.349444,25.720833)" />   <use xlink:href="#dot" transform="translate(-99.305,25.598889)" />   <use xlink:href="#dot" transform="translate(-99.9625,25.576389)" />   <use xlink:href="#dot" transform="translate(-99.9625,25.576389)" />   <use xlink:href="#dot" transform="translate(-99.8775,25.526667)" />   <use xlink:href="#dot" transform="translate(-97.717222,26.036111)" />   <use xlink:href="#dot" transform="translate(-99.195,26.065278)" />   <use xlink:href="#dot" transform="translate(-99.195,26.065278)" />   <use xlink:href="#dot" transform="translate(-99.9625,25.576389)" />   <use xlink:href="#dot" transform="translate(-99.8775,25.526667)" />   <use xlink:href="#dot" transform="translate(-99.349444,25.720833)" />   <use xlink:href="#dot" transform="translate(-99.305,25.598889)" />   <use xlink:href="#dot" transform="translate(-99.1875,25.788056)" />   <use xlink:href="#dot" transform="translate(-99.349444,25.720833)" />   <use xlink:href="#dot" transform="translate(-99.305,25.598889)" />   <use xlink:href="#dot" transform="translate(-99.188056,25.903889)" />   <use xlink:href="#dot" transform="translate(-99.9625,25.576389)" />   <use xlink:href="#dot" transform="translate(-99.195,26.065278)" />   <use xlink:href="#dot" transform="translate(-97.79212,26.343888)" />   <use xlink:href="#dot" transform="translate(-97.79212,26.343888)" />   <use xlink:href="#dot" transform="translate(-99.195,26.065278)" />   <use xlink:href="#dot" transform="translate(-99.195,26.065278)" />   <use xlink:href="#dot" transform="translate(-97.738533,26.453371)" />   <use xlink:href="#dot" transform="translate(-98.004466,26.492972)" />   <use xlink:href="#dot" transform="translate(-97.829846,27.464465)" />   <use xlink:href="#dot" transform="translate(-99.9625,25.576389)" />   <use xlink:href="#dot" transform="translate(-99.349444,25.720833)" />   <use xlink:href="#dot" transform="translate(-97.716613,27.433887)" />   <use xlink:href="#dot" transform="translate(-99.195,26.065278)" />   <use xlink:href="#dot" transform="translate(-99.9625,25.576389)" />   <use xlink:href="#dot" transform="translate(-99.9625,25.576389)" />   <use xlink:href="#dot" transform="translate(-99.1875,25.788056)" />   <use xlink:href="#dot" transform="translate(-99.305,25.598889)" />   <use xlink:href="#dot" transform="translate(-99.349444,25.720833)" />   <use xlink:href="#dot" transform="translate(-99.195,26.065278)" />   <use xlink:href="#dot" transform="translate(-99.305,25.598889)" />   <use xlink:href="#dot" transform="translate(-99.195,26.065278)" />   <use xlink:href="#dot" transform="translate(-99.9625,25.576389)" />   <use xlink:href="#dot" transform="translate(-95.177428,18.436958)" />   <use xlink:href="#dot" transform="translate(-97.930454,29.870771)" />   <use xlink:href="#dot" transform="translate(-98.327895,26.128145)" />   <use xlink:href="#dot" transform="translate(-97.934214,29.880861)" />   <use xlink:href="#dot" transform="translate(-97.930454,29.870771)" />   <use xlink:href="#dot" transform="translate(-97.931184,29.873292)" />   <use xlink:href="#dot" transform="translate(-97.940764,29.883211)" />   <use xlink:href="#dot" transform="translate(-97.934214,29.880861)" />   <use xlink:href="#dot" transform="translate(-97.845291,29.839672)" />   <use xlink:href="#dot" transform="translate(-97.930454,29.870771)" />   <use xlink:href="#dot" transform="translate(-97.898413,29.91202)" />   <use xlink:href="#dot" transform="translate(-97.930454,29.870771)" />   <use xlink:href="#dot" transform="translate(-98.402674,29.235531)" />   <use xlink:href="#dot" transform="translate(-97.831401,29.782864)" />   <use xlink:href="#dot" transform="translate(-97.934214,29.880861)" />   <use xlink:href="#dot" transform="translate(-97.940764,29.883211)" />   <use xlink:href="#dot" transform="translate(-97.845291,29.839672)" />   <use xlink:href="#dot" transform="translate(-97.845291,29.839672)" />   <use xlink:href="#dot" transform="translate(-97.940764,29.883211)" />   <use xlink:href="#dot" transform="translate(-97.930454,29.870771)" />   <use xlink:href="#dot" transform="translate(-97.831401,29.782864)" />   <use xlink:href="#dot" transform="translate(-98.377833,29.255071)" />   <use xlink:href="#dot" transform="translate(-97.93333,29.88333)" />   <use xlink:href="#dot" transform="translate(-97.834498,27.462984)" />   <use xlink:href="#dot" transform="translate(-97.91666,29.9)" />   <use xlink:href="#dot" transform="translate(-98.9275,26.236389)" />   <use xlink:href="#dot" transform="translate(-98.825,26.345278)" />   <use xlink:href="#dot" transform="translate(-97.508889,25.8875)" />   <use xlink:href="#dot" transform="translate(-97.952222,26.060556)" />   <use xlink:href="#dot" transform="translate(-98.5625,26.222778)" />   <use xlink:href="#dot" transform="translate(-97.717222,26.036111)" />   <use xlink:href="#dot" transform="translate(-99.025,26.405278)" />   <use xlink:href="#dot" transform="translate(-97.5536,26.0286)" />   <use xlink:href="#dot" transform="translate(-97.5536,26.0286)" />   <use xlink:href="#dot" transform="translate(-97.854843,27.476521)" />   <use xlink:href="#dot" transform="translate(-97.932075,29.892606)" />   <use xlink:href="#dot" transform="translate(-97.5536,26.0286)" />   <use xlink:href="#dot" transform="translate(-98.902474,24.040979)" />   <use xlink:href="#dot" transform="translate(-98.9275,26.236389)" />   <use xlink:href="#dot" transform="translate(-97.5536,26.0286)" />   <use xlink:href="#dot" transform="translate(-97.54,26.028)" />   <use xlink:href="#dot" transform="translate(-98.849763,26.362879)" />   <use xlink:href="#dot" transform="translate(-98.849763,26.362879)" />   <use xlink:href="#dot" transform="translate(-99.0075,26.143889)" />   <use xlink:href="#dot" transform="translate(-98.9575,26.295)" />   <use xlink:href="#dot" transform="translate(-98.9275,26.236389)" />   <use xlink:href="#dot" transform="translate(-98.9275,26.236389)" />   <use xlink:href="#dot" transform="translate(-98.9275,26.236389)" />   <use xlink:href="#dot" transform="translate(-98.902525,24.040922)" />   <use xlink:href="#dot" transform="translate(-98.9275,26.236389)" />   <use xlink:href="#dot" transform="translate(-98.9275,26.236389)" />   <use xlink:href="#dot" transform="translate(-97.54,26.028)" />   <use xlink:href="#dot" transform="translate(-98.9275,26.236389)" />   <use xlink:href="#dot" transform="translate(-98.9275,26.236389)" />   <use xlink:href="#dot" transform="translate(-98.9275,26.236389)" />   <use xlink:href="#dot" transform="translate(-98.9275,26.236389)" />   <use xlink:href="#dot" transform="translate(-98.9275,26.236389)" />   <use xlink:href="#dot" transform="translate(-98.9275,26.236389)" />   <use xlink:href="#dot" transform="translate(-98.9275,26.236389)" />   <use xlink:href="#dot" transform="translate(-98.9275,26.236389)" />   <use xlink:href="#dot" transform="translate(-97.8298,27.464525)" />   <use xlink:href="#dot" transform="translate(-99.021,22.714)" />   <use xlink:href="#dot" transform="translate(-97.729788,27.914028)" />   <use xlink:href="#dot" transform="translate(-98.713512,22.797347)" />   <use xlink:href="#dot" transform="translate(-97.729788,27.914028)" />   <use xlink:href="#dot" transform="translate(-99.258333,22.325)" />   <use xlink:href="#dot" transform="translate(-97.729788,27.914028)" />   <use xlink:href="#dot" transform="translate(-97.729788,27.914028)" />   <use xlink:href="#dot" transform="translate(-97.729788,27.914028)" />   <use xlink:href="#dot" transform="translate(-97.629071,27.895564)" />   <use xlink:href="#dot" transform="translate(-97.933333,29.875)" />   <use xlink:href="#dot" transform="translate(-97.933,29.875)" />   <use xlink:href="#dot" transform="translate(-97.729788,27.914028)" />   <use xlink:href="#dot" transform="translate(-97.729788,27.914028)" />   <use xlink:href="#dot" transform="translate(-97.729788,27.914028)" />   <use xlink:href="#dot" transform="translate(-98.135218,29.713586)" />   <use xlink:href="#dot" transform="translate(-99.041667,23.375)" />   <use xlink:href="#dot" transform="translate(-97.931624,29.874847)" />   <use xlink:href="#dot" transform="translate(-97.940764,29.883211)" />   <use xlink:href="#dot" transform="translate(-97.715768,29.682108)" />   <use xlink:href="#dot" transform="translate(-97.500556,25.905)" />   <use xlink:href="#dot" transform="translate(-97.501,25.905)" />   <use xlink:href="#dot" transform="translate(-97.931624,29.874847)" />   <use xlink:href="#dot" transform="translate(-97.931624,29.874847)" />   <use xlink:href="#dot" transform="translate(-97.715768,29.682108)" />   <use xlink:href="#dot" transform="translate(-97.926581,29.863897)" />   <use xlink:href="#dot" transform="translate(-97.926581,29.863897)" />   <use xlink:href="#dot" transform="translate(-97.940764,29.883211)" />   <use xlink:href="#dot" transform="translate(-97.715768,29.682108)" />   <use xlink:href="#dot" transform="translate(-97.940764,29.883211)" />   <use xlink:href="#dot" transform="translate(-97.940764,29.883211)" />   <use xlink:href="#dot" transform="translate(-97.940764,29.883211)" />   <use xlink:href="#dot" transform="translate(-97.715768,29.682108)" />   <use xlink:href="#dot" transform="translate(-97.940764,29.883211)" />   <use xlink:href="#dot" transform="translate(-97.896882,29.857091)" />   <use xlink:href="#dot" transform="translate(-97.931624,29.874847)" />   <use xlink:href="#dot" transform="translate(-97.940764,29.883211)" />   <use xlink:href="#dot" transform="translate(-97.931624,29.874847)" />   <use xlink:href="#dot" transform="translate(-97.803189,27.519722)" />   <use xlink:href="#dot" transform="translate(-97.743586,27.683238)" />   <use xlink:href="#dot" transform="translate(-99,26.215556)" />   <use xlink:href="#dot" transform="translate(-97.925,22.308333)" />   <use xlink:href="#dot" transform="translate(-97.875,22.308333)" />   <use xlink:href="#dot" transform="translate(-97.584974,29.590381)" />   <use xlink:href="#dot" transform="translate(-99,26.215556)" />   <use xlink:href="#dot" transform="translate(-97.940764,29.883211)" />   <use xlink:href="#dot" transform="translate(-97.930454,29.870771)" />   <use xlink:href="#dot" transform="translate(-97.93222,29.87528)" />   <use xlink:href="#dot" transform="translate(-97.954713,22.258933)" />   <use xlink:href="#dot" transform="translate(-97.954713,22.258933)" />   <use xlink:href="#dot" transform="translate(-97.954713,22.258933)" />   <use xlink:href="#dot" transform="translate(-97.954713,22.258933)" />   <use xlink:href="#dot" transform="translate(-97.95285,22.259561)" />   <use xlink:href="#dot" transform="translate(-97.954713,22.258933)" />   <use xlink:href="#dot" transform="translate(-97.954713,22.258933)" />   <use xlink:href="#dot" transform="translate(-97.954713,22.258933)" />   <use xlink:href="#dot" transform="translate(-97.954713,22.258933)" />   <use xlink:href="#dot" transform="translate(-98.825,26.345278)" />   <use xlink:href="#dot" transform="translate(-97.896883,29.85709)" />   <use xlink:href="#dot" transform="translate(-97.930454,29.870771)" />   <use xlink:href="#dot" transform="translate(-99.1625,26.0675)" />   <use xlink:href="#dot" transform="translate(-97.445813,25.939414)" />   <use xlink:href="#dot" transform="translate(-97.445813,25.939414)" />   <use xlink:href="#dot" transform="translate(-97.930454,29.870771)" />   <use xlink:href="#dot" transform="translate(-97.501625,25.916865)" />   <use xlink:href="#dot" transform="translate(-97.501625,25.916865)" />   <use xlink:href="#dot" transform="translate(-97.934214,29.880861)" />   <use xlink:href="#dot" transform="translate(-97.501625,25.916865)" />   <use xlink:href="#dot" transform="translate(-97.930454,29.870771)" />   <use xlink:href="#dot" transform="translate(-97.501625,25.916865)" />   <use xlink:href="#dot" transform="translate(-97.517256,26.116087)" />   <use xlink:href="#dot" transform="translate(-97.517255,26.116087)" /><polygon class="region" points="-99.258333,22.325 -100.978611,29.576944 -96.97934,33.22442 -82.206111,28.7575 -95.177428,18.436958 -98.929361,21.436583 -99.258333,22.325 " />
		  </g>
		</svg>