<?xml version="1.0" encoding="UTF-8"?>
	<svg xmlns:xlink="http://www.w3.org/1999/xlink" 
	xmlns="http://www.w3.org/2000/svg" 
	width="360px" height="180px">
	   <style type="text/css">
		  <![CDATA[     
		  .region 
		  { 
			fill:blue; 
			opacity:0.4; 
			stroke:blue;
		  }
		  ]]>
	   </style>

	<circle id="dot" x="-2" y="-2" r="2" style="stroke:none; stroke-width:0; fill:black; opacity:0.7;"/>


	 <image x="0" y="0" width="360" height="180" xlink:href="map.jpg"/>

 
	 <g transform="translate(180,90) scale(1,-1)">   <use xlink:href="#dot" transform="translate(120.77,14.5192)" />   <use xlink:href="#dot" transform="translate(118.716,9.7275)" />   <use xlink:href="#dot" transform="translate(30.5925,-30.721167)" />   <use xlink:href="#dot" transform="translate(39.103916,-5.29707)" />   <use xlink:href="#dot" transform="translate(121.51,22.06)" />   <use xlink:href="#dot" transform="translate(120.5333,12.6833)" />   <use xlink:href="#dot" transform="translate(120.5333,12.6917)" />   <use xlink:href="#dot" transform="translate(63.433334,-19.666668)" />   <use xlink:href="#dot" transform="translate(112.2,-26.5)" />   <use xlink:href="#dot" transform="translate(131.3,-9.7)" />   <use xlink:href="#dot" transform="translate(153.6,-27.766667)" />   <use xlink:href="#dot" transform="translate(153.6,-27.766667)" />   <use xlink:href="#dot" transform="translate(153.6,-27.766667)" />   <use xlink:href="#dot" transform="translate(130.033,-10.133)" />   <use xlink:href="#dot" transform="translate(129.503,-9.977)" />   <use xlink:href="#dot" transform="translate(121.42,23.12)" />   <use xlink:href="#dot" transform="translate(27.9,-33.033333)" />   <use xlink:href="#dot" transform="translate(120.75,22)" />   <use xlink:href="#dot" transform="translate(120.75,22)" />   <use xlink:href="#dot" transform="translate(121.9,21.39)" />   <use xlink:href="#dot" transform="translate(156.166667,-33.166667)" />   <use xlink:href="#dot" transform="translate(123.27332,24.81)" />   <use xlink:href="#dot" transform="translate(123.27332,24.81)" />   <use xlink:href="#dot" transform="translate(123.27332,24.81)" />   <use xlink:href="#dot" transform="translate(123.27332,24.81)" />   <use xlink:href="#dot" transform="translate(168.3,-24.733)" />   <use xlink:href="#dot" transform="translate(127.66583,27.88249)" />   <use xlink:href="#dot" transform="translate(129.27666,28.62499)" />   <use xlink:href="#dot" transform="translate(127.65166,27.883)" />   <use xlink:href="#dot" transform="translate(126.96166,28.44833)" />   <use xlink:href="#dot" transform="translate(128.665,27.90083)" />   <use xlink:href="#dot" transform="translate(130.25,30.07582)" />   <use xlink:href="#dot" transform="translate(127.08749,28.59083)" />   <use xlink:href="#dot" transform="translate(127.64833,27.9025)" />   <use xlink:href="#dot" transform="translate(128.665,27.90083)" />   <use xlink:href="#dot" transform="translate(145,-14)" />   <use xlink:href="#dot" transform="translate(145.6,-14.55)" />   <use xlink:href="#dot" transform="translate(153.783,-27.966)" />   <use xlink:href="#dot" transform="translate(152.933,-31.95)" />   <use xlink:href="#dot" transform="translate(153.083,-31.983)" />   <use xlink:href="#dot" transform="translate(153.466,-30.116)" />   <use xlink:href="#dot" transform="translate(153.083,-31.983)" />   <use xlink:href="#dot" transform="translate(153.566,-30.016)" />   <use xlink:href="#dot" transform="translate(153.316,-31.016)" />   <use xlink:href="#dot" transform="translate(153.166,-30.983)" />   <use xlink:href="#dot" transform="translate(153.666,-28.966)" />   <use xlink:href="#dot" transform="translate(153.083,-31.983)" />   <use xlink:href="#dot" transform="translate(153.25,-30.983)" />   <use xlink:href="#dot" transform="translate(118.045,-18.6433)" />   <use xlink:href="#dot" transform="translate(-158.333,21.35)" />   <use xlink:href="#dot" transform="translate(-158,21)" />   <use xlink:href="#dot" transform="translate(-158.233,21.383)" />   <use xlink:href="#dot" transform="translate(118.283,-17.983)" />   <use xlink:href="#dot" transform="translate(129.46,30.48666)" />   <use xlink:href="#dot" transform="translate(129.69499,30.69499)" />   <use xlink:href="#dot" transform="translate(152.49166,-33.033)" />   <use xlink:href="#dot" transform="translate(152.49166,-33.033)" />   <use xlink:href="#dot" transform="translate(128.66749,27.83416)" />   <use xlink:href="#dot" transform="translate(129.58166,30.55)" />   <use xlink:href="#dot" transform="translate(40.566666,-2.833333)" />   <use xlink:href="#dot" transform="translate(-155.801,19.0019)" />   <use xlink:href="#dot" transform="translate(129.366,29.833)" />   <use xlink:href="#dot" transform="translate(153.8,-29.033)" />   <use xlink:href="#dot" transform="translate(153.8,-29.033)" />   <use xlink:href="#dot" transform="translate(-158,21.433)" />   <use xlink:href="#dot" transform="translate(130.483,25.633)" />   <use xlink:href="#dot" transform="translate(130.25,24.316)" />   <use xlink:href="#dot" transform="translate(-158,21.433)" />   <use xlink:href="#dot" transform="translate(130.483,25.633)" />   <use xlink:href="#dot" transform="translate(121.76,25.16)" />   <use xlink:href="#dot" transform="translate(121.95,8.68)" />   <use xlink:href="#dot" transform="translate(122.5,15)" />   <use xlink:href="#dot" transform="translate(59.483,-3.8)" />   <use xlink:href="#dot" transform="translate(59.483,-3.8)" />   <use xlink:href="#dot" transform="translate(50.35,-9.45)" />   <use xlink:href="#dot" transform="translate(47.6,-11.533)" />   <use xlink:href="#dot" transform="translate(47.616,-12.05)" />   <use xlink:href="#dot" transform="translate(128.683,25.733)" />   <use xlink:href="#dot" transform="translate(46.8,-8.85)" />   <use xlink:href="#dot" transform="translate(-158.116667,21.6)" />   <use xlink:href="#dot" transform="translate(-158,21)" />   <use xlink:href="#dot" transform="translate(139.133333,35.15)" />   <use xlink:href="#dot" transform="translate(43.433,-23.017)" />   <use xlink:href="#dot" transform="translate(-157.168,21.2458)" />   <use xlink:href="#dot" transform="translate(-157.15,21.25)" />   <use xlink:href="#dot" transform="translate(-157.417,21.1667)" />   <use xlink:href="#dot" transform="translate(-157.15,21.25)" />   <use xlink:href="#dot" transform="translate(-157.133,21.25)" />   <use xlink:href="#dot" transform="translate(-157.133,21.25)" />   <use xlink:href="#dot" transform="translate(-157.417,21.1667)" />   <use xlink:href="#dot" transform="translate(-157.168,21.2458)" />   <use xlink:href="#dot" transform="translate(-158.2,21.6167)" />   <use xlink:href="#dot" transform="translate(-158.237,20.3317)" />   <use xlink:href="#dot" transform="translate(-158.488,20.9933)" />   <use xlink:href="#dot" transform="translate(-155.075404,19.736516)" />   <use xlink:href="#dot" transform="translate(39.566666,-4.25)" />   <use xlink:href="#dot" transform="translate(134.916,5.35)" />   <use xlink:href="#dot" transform="translate(133.833,7.65)" />   <use xlink:href="#dot" transform="translate(133.833,7.65)" />   <use xlink:href="#dot" transform="translate(39.383335,-4.65)" />   <use xlink:href="#dot" transform="translate(139.614609,34.979097)" />   <use xlink:href="#dot" transform="translate(168.133333,-24.733333)" />   <use xlink:href="#dot" transform="translate(-157.865711,21.291426)" />   <use xlink:href="#dot" transform="translate(-158.25,21.25)" />   <use xlink:href="#dot" transform="translate(-158.116667,21.616667)" />   <use xlink:href="#dot" transform="translate(113.35,-23.21667)" />   <use xlink:href="#dot" transform="translate(-157.865711,21.291426)" />   <use xlink:href="#dot" transform="translate(121.32,23.07)" />   <use xlink:href="#dot" transform="translate(115.333333,-31.083333)" />   <use xlink:href="#dot" transform="translate(114.21667,-21.53333)" />   <use xlink:href="#dot" transform="translate(139.921509,40.648674)" />   <use xlink:href="#dot" transform="translate(-158.116667,21.616667)" />   <use xlink:href="#dot" transform="translate(92.730345,11.658093)" />   <use xlink:href="#dot" transform="translate(54.9375,26.557)" />   <use xlink:href="#dot" transform="translate(168.133333,-24.733333)" />   <use xlink:href="#dot" transform="translate(113.2,-23.23333)" />   <use xlink:href="#dot" transform="translate(55,-20)" /><polygon class="region" points="-158.237,20.3317 -158.488,20.9933 -158.333,21.35 -158.2,21.6167 139.921509,40.648674 168.3,-24.733 156.166667,-33.166667 27.9,-33.033333 -155.801,19.0019 -158.237,20.3317 " />
		  </g>
		</svg>