<?xml version="1.0" encoding="UTF-8"?>
	<svg xmlns:xlink="http://www.w3.org/1999/xlink" 
	xmlns="http://www.w3.org/2000/svg" 
	width="360px" height="180px">
	   <style type="text/css">
		  <![CDATA[     
		  .region 
		  { 
			fill:blue; 
			opacity:0.4; 
			stroke:blue;
		  }
		  ]]>
	   </style>

	<circle id="dot" x="-2" y="-2" r="2" style="stroke:none; stroke-width:0; fill:black; opacity:0.7;"/>


	 <image x="0" y="0" width="360" height="180" xlink:href="map.jpg"/>

 
	 <g transform="translate(180,90) scale(1,-1)">   <use xlink:href="#dot" transform="translate(-144.33394,-27.64994)" />   <use xlink:href="#dot" transform="translate(-144.37666,-27.58166)" />   <use xlink:href="#dot" transform="translate(-144.333,-27.64583)" />   <use xlink:href="#dot" transform="translate(-144.32999,-27.64666)" />   <use xlink:href="#dot" transform="translate(-144.37666,-27.58166)" />   <use xlink:href="#dot" transform="translate(-143.51122,-27.89196)" />   <use xlink:href="#dot" transform="translate(-144.34333,-27.63999)" />   <use xlink:href="#dot" transform="translate(-144.37666,-27.58249)" />   <use xlink:href="#dot" transform="translate(-144.37832,-27.58249)" />   <use xlink:href="#dot" transform="translate(-105.3678,-26.4717)" />   <use xlink:href="#dot" transform="translate(-109.4288,-27.1332)" />   <use xlink:href="#dot" transform="translate(-109.4221,-27.109)" />   <use xlink:href="#dot" transform="translate(-109.4288,-27.1332)" />   <use xlink:href="#dot" transform="translate(-105.3646,-26.4722)" />   <use xlink:href="#dot" transform="translate(-105.3646,-26.4722)" />   <use xlink:href="#dot" transform="translate(-105.3614,-26.4692)" />   <use xlink:href="#dot" transform="translate(-105.3645,-26.4694)" />   <use xlink:href="#dot" transform="translate(-105.3641,-26.4743)" />   <use xlink:href="#dot" transform="translate(-105.3646,-26.4748)" />   <use xlink:href="#dot" transform="translate(-105.3585,-26.4739)" />   <use xlink:href="#dot" transform="translate(-105.3641,-26.4743)" />   <use xlink:href="#dot" transform="translate(-105.3646,-26.4722)" />   <use xlink:href="#dot" transform="translate(-105.3641,-26.4743)" />   <use xlink:href="#dot" transform="translate(-105.3645,-26.4694)" />   <use xlink:href="#dot" transform="translate(-105.3646,-26.4748)" />   <use xlink:href="#dot" transform="translate(-105.3646,-26.4722)" />   <use xlink:href="#dot" transform="translate(-105.3595,-26.4746)" />   <use xlink:href="#dot" transform="translate(-109.4288,-27.1332)" />   <use xlink:href="#dot" transform="translate(-105.3614,-26.4692)" />   <use xlink:href="#dot" transform="translate(-105.3595,-26.4746)" />   <use xlink:href="#dot" transform="translate(-105.3645,-26.4694)" />   <use xlink:href="#dot" transform="translate(-109.4221,-27.109)" />   <use xlink:href="#dot" transform="translate(-109.4221,-27.109)" />   <use xlink:href="#dot" transform="translate(-105.3641,-26.4743)" />   <use xlink:href="#dot" transform="translate(-105.3678,-26.4717)" />   <use xlink:href="#dot" transform="translate(-105.3641,-26.4743)" />   <use xlink:href="#dot" transform="translate(-109.4288,-27.1332)" />   <use xlink:href="#dot" transform="translate(-105.3641,-26.4743)" />   <use xlink:href="#dot" transform="translate(-109.4221,-27.109)" />   <use xlink:href="#dot" transform="translate(-105.3585,-26.4739)" />   <use xlink:href="#dot" transform="translate(-109.4374,-27.1452)" />   <use xlink:href="#dot" transform="translate(-109.4352,-27.1441)" />   <use xlink:href="#dot" transform="translate(-109.424,-27.1095)" />   <use xlink:href="#dot" transform="translate(-109.424,-27.1095)" />   <use xlink:href="#dot" transform="translate(-109.4375,-27.1478)" />   <use xlink:href="#dot" transform="translate(-109.4236,-27.1106)" />   <use xlink:href="#dot" transform="translate(-109.4374,-27.1452)" />   <use xlink:href="#dot" transform="translate(-109.4355,-27.1481)" />   <use xlink:href="#dot" transform="translate(-109.4375,-27.1478)" />   <use xlink:href="#dot" transform="translate(-109.4355,-27.1481)" />   <use xlink:href="#dot" transform="translate(-109.424,-27.1095)" />   <use xlink:href="#dot" transform="translate(-109.4355,-27.1481)" />   <use xlink:href="#dot" transform="translate(-109.424,-27.1095)" />   <use xlink:href="#dot" transform="translate(-109.4352,-27.1441)" />   <use xlink:href="#dot" transform="translate(-109.4352,-27.1441)" />   <use xlink:href="#dot" transform="translate(-109.4374,-27.1452)" />   <use xlink:href="#dot" transform="translate(-109.4355,-27.1481)" />   <use xlink:href="#dot" transform="translate(-109.4457,-27.1629)" />   <use xlink:href="#dot" transform="translate(-109.4457,-27.1629)" />   <use xlink:href="#dot" transform="translate(-109.4352,-27.1441)" />   <use xlink:href="#dot" transform="translate(-109.4236,-27.1106)" />   <use xlink:href="#dot" transform="translate(-144.326,-27.6503)" />   <use xlink:href="#dot" transform="translate(-144.362,-27.5781)" />   <use xlink:href="#dot" transform="translate(-144.312,-27.6425)" />   <use xlink:href="#dot" transform="translate(-144.294,-27.6083)" />   <use xlink:href="#dot" transform="translate(-144.304,-27.6369)" />   <use xlink:href="#dot" transform="translate(-144.365,-27.6342)" />   <use xlink:href="#dot" transform="translate(-144.316,-27.5794)" />   <use xlink:href="#dot" transform="translate(-144.303,-27.5925)" />   <use xlink:href="#dot" transform="translate(-144.303,-27.5925)" />   <use xlink:href="#dot" transform="translate(-144.312,-27.6286)" />   <use xlink:href="#dot" transform="translate(-144.38,-27.6)" />   <use xlink:href="#dot" transform="translate(-144.379,-27.6075)" />   <use xlink:href="#dot" transform="translate(-144.31,-27.5914)" />   <use xlink:href="#dot" transform="translate(-144.303,-27.6383)" />   <use xlink:href="#dot" transform="translate(-144.302,-27.6222)" />   <use xlink:href="#dot" transform="translate(-144.38,-27.605)" />   <use xlink:href="#dot" transform="translate(-144.588,-27.5903)" />   <use xlink:href="#dot" transform="translate(-144.346,-27.5678)" />   <use xlink:href="#dot" transform="translate(-144.3,-27.6253)" />   <use xlink:href="#dot" transform="translate(-144.381,-27.6072)" />   <use xlink:href="#dot" transform="translate(-144.383,-27.5867)" />   <use xlink:href="#dot" transform="translate(-144.304,-27.5917)" />   <use xlink:href="#dot" transform="translate(-144.304,-27.6367)" />   <use xlink:href="#dot" transform="translate(-144.33,-27.6481)" />   <use xlink:href="#dot" transform="translate(-144.319,-27.6111)" />   <use xlink:href="#dot" transform="translate(-144.314,-27.6397)" />   <use xlink:href="#dot" transform="translate(-144.333,-27.5714)" />   <use xlink:href="#dot" transform="translate(-144.312,-27.6069)" />   <use xlink:href="#dot" transform="translate(-144.34,-27.5664)" />   <use xlink:href="#dot" transform="translate(-79.8983,-26.3383)" />   <use xlink:href="#dot" transform="translate(-80.1094,-26.2897)" />   <use xlink:href="#dot" transform="translate(-80.1183,-26.275)" />   <use xlink:href="#dot" transform="translate(-79.9,-26.3267)" />   <use xlink:href="#dot" transform="translate(-80.1183,-26.275)" />   <use xlink:href="#dot" transform="translate(-79.8903,-26.3347)" />   <use xlink:href="#dot" transform="translate(-79.8903,-26.3347)" />   <use xlink:href="#dot" transform="translate(-80.1094,-26.2897)" />   <use xlink:href="#dot" transform="translate(-80.1242,-26.2786)" />   <use xlink:href="#dot" transform="translate(-80.775,-33.7161)" />   <use xlink:href="#dot" transform="translate(-78.9408,-33.6722)" />   <use xlink:href="#dot" transform="translate(-144.3,-27.6)" />   <use xlink:href="#dot" transform="translate(-144.3,-27.6)" />   <use xlink:href="#dot" transform="translate(-144.3,-27.6)" />   <use xlink:href="#dot" transform="translate(-144.3,-27.6)" />   <use xlink:href="#dot" transform="translate(-144.3,-27.6)" />   <use xlink:href="#dot" transform="translate(-144.3,-27.6)" />   <use xlink:href="#dot" transform="translate(-144.3,-27.6)" />   <use xlink:href="#dot" transform="translate(-109.333,-27.083)" /><polygon class="region" points="-143.51122,-27.89196 -144.588,-27.5903 -144.34,-27.5664 -105.3614,-26.4692 -80.1183,-26.275 -79.9,-26.3267 -79.8903,-26.3347 -78.9408,-33.6722 -80.775,-33.7161 -143.51122,-27.89196 " />
		  </g>
		</svg>