<?xml version="1.0" encoding="UTF-8"?>
	<svg xmlns:xlink="http://www.w3.org/1999/xlink" 
	xmlns="http://www.w3.org/2000/svg" 
	width="360px" height="180px">
	   <style type="text/css">
		  <![CDATA[     
		  .region 
		  { 
			fill:blue; 
			opacity:0.4; 
			stroke:blue;
		  }
		  ]]>
	   </style>

	<circle id="dot" x="-2" y="-2" r="2" style="stroke:none; stroke-width:0; fill:black; opacity:0.7;"/>


	 <image x="0" y="0" width="360" height="180" xlink:href="map.jpg"/>

 
	 <g transform="translate(180,90) scale(1,-1)"><polygon class="region" points="-148.522324537,-23.317382676 -148.52619991,-23.493351067 -148.227600109,-23.075191084 -147.785009022,-22.867552035 -147.106784589,-23.003842005 -146.702640162,-23.647899814 -146.878962829,-24.4727259 -147.381085093,-24.842483742 -147.976452307,-24.839477971 -148.436588776,-24.449339313 -148.590294416,-23.767343446 -149.040383713,-24.287673737 -149.717211896,-24.364660655 -150.180226185,-24.041731165 -150.400790574,-23.463113789 -150.176609829,-22.731433591 -149.508947904,-22.38191907 -148.830062876,-22.632039572 -148.522324537,-23.317382676 " /><polygon class="region" points="-149.486679077,-23.410388947 -149.431381225,-23.399278641 -149.422363281,-23.369199753 -149.49029541,-23.36969757 -149.486679077,-23.410388947 " /><polygon class="region" points="-147.641220093,-23.849807739 -147.680740356,-23.855707168 -147.697769165,-23.874967575 -147.619384766,-23.857656479 -147.641220093,-23.849807739 " /><polygon class="region" points="-147.611801148,-23.83482933 -147.597335816,-23.835243226 -147.583694458,-23.840230942 -147.594039917,-23.831388473 -147.611801148,-23.83482933 " /><polygon class="region" points="-147.603424072,-23.874368668 -147.596435547,-23.874458313 -147.591842651,-23.867639541 -147.603622436,-23.871156692 -147.603424072,-23.874368668 " /><polygon class="region" points="-147.620529175,-23.883087158 -147.617828369,-23.886333466 -147.611785889,-23.882513046 -147.615982055,-23.879020691 -147.620529175,-23.883087158 " /><polygon class="region" points="-147.685836792,-23.897317886 -147.689666748,-23.899833679 -147.684967041,-23.902187348 -147.681930542,-23.899707794 -147.685836792,-23.897317886 " /><polygon class="region" points="-150.53879348,-21.970456682 -150.487737546,-22.875027237 -151.107174737,-23.47224776 -151.632839582,-23.452715173 -152.053942595,-23.124218372 -152.447304914,-23.529336769 -153.035543096,-23.61604875 -153.463058386,-23.383777464 -153.727808696,-22.951155701 -153.655130586,-22.148349672 -153.091326879,-21.67396272 -152.565158398,-21.691538985 -152.160605194,-21.981337206 -151.759192248,-21.562142384 -151.261189255,-21.46818713 -150.817679995,-21.648171572 -150.53879348,-21.970456682 " /><polygon class="region" points="-151.344085693,-22.52435112 -151.316757202,-22.457962036 -151.361877441,-22.435304641 -151.368667602,-22.46310234 -151.344085693,-22.52435112 " /><polygon class="region" points="-152.870758057,-22.646539688 -152.844619751,-22.649406433 -152.834243775,-22.627643585 -152.858825684,-22.615303039 -152.870758057,-22.646539688 " /><polygon class="region" points="-129.831445149,-23.884740067 -129.847192883,-24.10925145 -129.280934532,-24.630201533 -129.205264664,-25.267418718 -129.587241701,-25.903922525 -130.281667465,-26.058364533 -130.871342038,-25.624288061 -131.005366611,-24.87500912 -131.575449036,-24.303995258 -131.627102386,-23.730581901 -131.291946453,-23.140787179 -130.673516715,-22.935836178 -130.094714609,-23.22161538 -129.831445149,-23.884740067 " /><polygon class="region" points="-130.108459472,-25.075939178 -130.094085693,-25.076471329 -130.086608886,-25.06996727 -130.111953735,-25.05900383 -130.108459472,-25.075939178 " /><polygon class="region" points="-130.74357605,-23.927749634 -130.731033325,-23.924768448 -130.729919433,-23.91781807 -130.74508667,-23.921684265 -130.74357605,-23.927749634 " /><polygon class="region" points="-108.33270355,-27.042941077 -108.598338553,-27.843558699 -109.312555904,-28.212603617 -109.955308697,-28.039372392 -110.336948957,-27.383137082 -110.151645969,-26.510332643 -109.529854034,-26.063812848 -108.685768103,-26.297900475 -108.33270355,-27.042941077 " /><polygon class="region" points="-109.438018799,-27.201105118 -109.238708496,-27.129562378 -109.22983551,-27.104362488 -109.396446228,-27.062532425 -109.438018799,-27.201105118 " /><polygon class="region" points="-143.400330473,-27.555702131 -143.626139846,-28.311657004 -144.267968526,-28.674164138 -144.955398637,-28.400586037 -145.274703158,-27.67850235 -145.050495953,-26.910337188 -144.393530456,-26.556515691 -143.720779425,-26.813705305 -143.400330473,-27.555702131 " /><polygon class="region" points="-144.337661743,-27.568424225 -144.378311158,-27.611923217 -144.326721191,-27.653572082 -144.296722412,-27.622247696 -144.337661743,-27.568424225 " /><polygon class="region" points="-127.392211624,-24.299235346 -127.613642887,-25.060384616 -128.232476542,-25.399657846 -128.924011165,-25.141126658 -129.242827529,-24.425277266 -129.008519154,-23.675394211 -128.352621769,-23.33151716 -127.701568512,-23.573530548 -127.392211624,-24.299235346 " /><polygon class="region" points="-128.311889648,-24.324562073 -128.344451905,-24.368915558 -128.291229248,-24.40706253 -128.293869019,-24.315864563 -128.311889648,-24.324562073 " /><polygon class="region" points="-123.876458119,-24.601794014 -124.098811155,-25.325663201 -124.720788309,-25.66727252 -125.394165015,-25.413881193 -125.698256579,-24.730153072 -125.477253714,-24.01222801 -124.843077322,-23.673034845 -124.183624421,-23.917297156 -123.876458119,-24.601794014 " /><polygon class="region" points="-124.801864624,-24.665201187 -124.779541015,-24.672565461 -124.772850036,-24.666713715 -124.784324646,-24.659948349 -124.801864624,-24.665201187 " />
		  </g>
		</svg>