<?xml version="1.0" encoding="UTF-8"?>
	<svg xmlns:xlink="http://www.w3.org/1999/xlink" 
	xmlns="http://www.w3.org/2000/svg" 
	width="360px" height="180px">
	   <style type="text/css">
		  <![CDATA[     
		  .region 
		  { 
			fill:blue; 
			opacity:0.4; 
			stroke:blue;
		  }
		  ]]>
	   </style>

	<circle id="dot" x="-2" y="-2" r="2" style="stroke:none; stroke-width:0; fill:black; opacity:0.7;"/>


	 <image x="0" y="0" width="360" height="180" xlink:href="map.jpg"/>

 
	 <g transform="translate(180,90) scale(1,-1)"><polygon class="region" points="31.558333333,38.054166667 32.041666667,38.054166667 32.121187846,37.451713393 32.308333333,37.304166666 32.641666667,37.533333334 33.011991131,37.608478816 32.8625,37.383333333 32.729166666,37.433333333 32.732482401,37.196684265 32.475,37.25 32.05,37.033333334 31.786697388,37.395098198 31.316666667,37.4125 31.295833334,37.729166666 31.50450325,37.577701568 31.719938278,37.683677673 31.282766046,38.050746664 31.5,38.158333333 31.558333333,38.054166667 " /><polygon class="region" points="33.896186659,37.747575548 33.987853326,37.705881076 34.068877157,37.338067288 33.760390218,37.346501329 33.583333333,37.6 33.896186659,37.747575548 " /><polygon class="region" points="32.398043824,39.436932713 32.853770616,39.486532253 33.014577569,39.171413167 33.298043824,39.232766045 33.925,38.829166667 34.153599378,38.52278951 33.990920004,38.361932712 33.5875,38.404166667 33.775,38.075 34.552424452,38.067019992 34.529166666,38.266666667 34.217402649,38.390908813 34.907418823,38.511897448 34.817354669,38.309142727 35.058900621,38.023785061 34.871477933,37.961596171 34.850617472,37.589506531 35.2125,37.075 34.833333334,37.179166667 34.760757786,37.424646674 34.405908881,37.353813341 34.063107469,37.040753174 34.22008667,36.549432712 33.839456176,36.654733955 33.720833333,36.929166667 33.428697374,36.653549194 32.575794135,36.979960802 32.475,37.25 32.732482401,37.196684265 32.729166666,37.433333333 32.8625,37.383333333 32.888467746,37.541270786 33.066558838,37.508838654 33.158657074,37.64434433 33.032153365,37.609499 33.095833334,37.8875 32.945147027,38.144778951 32.200468784,38.114583333 32.313067288,38.467603895 32.161932712,38.542603895 32.425,38.741666667 31.900875191,39.19863318 32.08258667,39.417233954 32.398043824,39.436932713 " /><polygon class="region" points="31.57898573,37.637064552 31.452371597,37.588562012 31.328977585,37.96194458 31.65328598,37.793758392 31.719938278,37.683677673 31.57898573,37.637064552 " />
		  </g>
		</svg>