<?xml version="1.0" encoding="UTF-8"?>
	<svg xmlns:xlink="http://www.w3.org/1999/xlink" 
	xmlns="http://www.w3.org/2000/svg" 
	width="360px" height="180px">
	   <style type="text/css">
		  <![CDATA[     
		  .region 
		  { 
			fill:blue; 
			opacity:0.4; 
			stroke:blue;
		  }
		  ]]>
	   </style>

	<circle id="dot" x="-2" y="-2" r="2" style="stroke:none; stroke-width:0; fill:black; opacity:0.7;"/>


	 <image x="0" y="0" width="360" height="180" xlink:href="map.jpg"/>

 
	 <g transform="translate(180,90) scale(1,-1)">   <use xlink:href="#dot" transform="translate(32.297917,-26.890167)" />   <use xlink:href="#dot" transform="translate(30.871167,-30.077833)" />   <use xlink:href="#dot" transform="translate(32.85,-26.933333)" />   <use xlink:href="#dot" transform="translate(32.415,-28.355833)" />   <use xlink:href="#dot" transform="translate(32.433333,-28.383056)" />   <use xlink:href="#dot" transform="translate(32.864444,-26.926111)" />   <use xlink:href="#dot" transform="translate(32.85,-26.916667)" />   <use xlink:href="#dot" transform="translate(32.85,-26.917)" />   <use xlink:href="#dot" transform="translate(32.539722,-28.1375)" />   <use xlink:href="#dot" transform="translate(32.485278,-28.218611)" />   <use xlink:href="#dot" transform="translate(32.546389,-28.133056)" />   <use xlink:href="#dot" transform="translate(32.887501,-26.621389)" />   <use xlink:href="#dot" transform="translate(32.875278,-26.628334)" />   <use xlink:href="#dot" transform="translate(32.888,-26.621)" />   <use xlink:href="#dot" transform="translate(31.743889,-28.747778)" />   <use xlink:href="#dot" transform="translate(31.847617,-28.8387)" />   <use xlink:href="#dot" transform="translate(32.546944,-28.132778)" />   <use xlink:href="#dot" transform="translate(32.266666,-27.049999)" />   <use xlink:href="#dot" transform="translate(32.316666,-27.016666)" />   <use xlink:href="#dot" transform="translate(32.25,-27.1)" />   <use xlink:href="#dot" transform="translate(32.316666,-27.016666)" />   <use xlink:href="#dot" transform="translate(32.283333,-27.033333)" />   <use xlink:href="#dot" transform="translate(32.299999,-27.133333)" />   <use xlink:href="#dot" transform="translate(32.200001,-27.216667)" />   <use xlink:href="#dot" transform="translate(32.25,-27.133333)" />   <use xlink:href="#dot" transform="translate(32.25,-27.133333)" />   <use xlink:href="#dot" transform="translate(32.316666,-27.016666)" />   <use xlink:href="#dot" transform="translate(32.283333,-26.983334)" />   <use xlink:href="#dot" transform="translate(32.266666,-27.049999)" />   <use xlink:href="#dot" transform="translate(32.284698,-26.983299)" />   <use xlink:href="#dot" transform="translate(32.283333,-27.033333)" />   <use xlink:href="#dot" transform="translate(32.283333,-27.033333)" />   <use xlink:href="#dot" transform="translate(32.299999,-27.133333)" />   <use xlink:href="#dot" transform="translate(32.316666,-27.016666)" />   <use xlink:href="#dot" transform="translate(32.299999,-27.133333)" />   <use xlink:href="#dot" transform="translate(32.283333,-26.866667)" />   <use xlink:href="#dot" transform="translate(32.283333,-27.033333)" />   <use xlink:href="#dot" transform="translate(32.200001,-27.216667)" />   <use xlink:href="#dot" transform="translate(32.200001,-27.216667)" />   <use xlink:href="#dot" transform="translate(32.283333,-27.033333)" />   <use xlink:href="#dot" transform="translate(32.283333,-27.033333)" />   <use xlink:href="#dot" transform="translate(32.299999,-27.133333)" />   <use xlink:href="#dot" transform="translate(32.299999,-27.133333)" />   <use xlink:href="#dot" transform="translate(32.283333,-27.033333)" />   <use xlink:href="#dot" transform="translate(32.283333,-27.033333)" />   <use xlink:href="#dot" transform="translate(32.299999,-27.133333)" />   <use xlink:href="#dot" transform="translate(32.299999,-27.133333)" />   <use xlink:href="#dot" transform="translate(32.200001,-27.216667)" />   <use xlink:href="#dot" transform="translate(32.200001,-27.216667)" />   <use xlink:href="#dot" transform="translate(32.233334,-26.866667)" />   <use xlink:href="#dot" transform="translate(32.546944,-28.132778)" />   <use xlink:href="#dot" transform="translate(32.299999,-27.133333)" />   <use xlink:href="#dot" transform="translate(32.299999,-27.133333)" />   <use xlink:href="#dot" transform="translate(32.200001,-27.216667)" />   <use xlink:href="#dot" transform="translate(32.283333,-27.033333)" />   <use xlink:href="#dot" transform="translate(32.283333,-27.033333)" />   <use xlink:href="#dot" transform="translate(32.283333,-26.983334)" />   <use xlink:href="#dot" transform="translate(32.299999,-26.966667)" />   <use xlink:href="#dot" transform="translate(32.283333,-26.866667)" />   <use xlink:href="#dot" transform="translate(32.283333,-26.983334)" />   <use xlink:href="#dot" transform="translate(32.266666,-27.049999)" />   <use xlink:href="#dot" transform="translate(32.25,-27.133333)" />   <use xlink:href="#dot" transform="translate(27.345833,-33.170834)" />   <use xlink:href="#dot" transform="translate(32.483334,-28.233334)" />   <use xlink:href="#dot" transform="translate(26.683332,-33.683334)" />   <use xlink:href="#dot" transform="translate(32.367222,-28.0125)" />   <use xlink:href="#dot" transform="translate(32.416668,-28.383333)" />   <use xlink:href="#dot" transform="translate(32.533333,-28.133333)" />   <use xlink:href="#dot" transform="translate(30.381945,-30.69861)" />   <use xlink:href="#dot" transform="translate(32.403333,-27.639722)" />   <use xlink:href="#dot" transform="translate(32.408901,-27.6544)" />   <use xlink:href="#dot" transform="translate(32.483334,-27.883055)" />   <use xlink:href="#dot" transform="translate(32.348611,-28.043056)" />   <use xlink:href="#dot" transform="translate(32.416668,-28.408333)" />   <use xlink:href="#dot" transform="translate(32.3167,-27.016701)" />   <use xlink:href="#dot" transform="translate(32.3167,-27.016701)" />   <use xlink:href="#dot" transform="translate(22.566668,-33.983334)" />   <use xlink:href="#dot" transform="translate(24.667,-34)" />   <use xlink:href="#dot" transform="translate(32.299999,-27.016701)" />   <use xlink:href="#dot" transform="translate(32.066666,-28.716667)" />   <use xlink:href="#dot" transform="translate(32.316666,-27.016666)" />   <use xlink:href="#dot" transform="translate(32.233334,-26.950001)" />   <use xlink:href="#dot" transform="translate(32.2533,-27.3433)" />   <use xlink:href="#dot" transform="translate(32.3167,-27.016701)" />   <use xlink:href="#dot" transform="translate(32.266701,-27.049999)" />   <use xlink:href="#dot" transform="translate(32.233334,-26.950001)" />   <use xlink:href="#dot" transform="translate(32.299999,-27.016666)" />   <use xlink:href="#dot" transform="translate(29.213888,-31.930555)" />   <use xlink:href="#dot" transform="translate(32.25,-27.183332)" />   <use xlink:href="#dot" transform="translate(31.467,-27.383)" />   <use xlink:href="#dot" transform="translate(30.83,-30.15)" />   <use xlink:href="#dot" transform="translate(22.799999,-34)" />   <use xlink:href="#dot" transform="translate(32.233334,-26.866667)" />   <use xlink:href="#dot" transform="translate(32.466667,-28.216667)" />   <use xlink:href="#dot" transform="translate(32,-27.416)" />   <use xlink:href="#dot" transform="translate(31,-29)" />   <use xlink:href="#dot" transform="translate(32,-28)" />   <use xlink:href="#dot" transform="translate(31.533333,-28.533333)" />   <use xlink:href="#dot" transform="translate(32.557918,-28.72652)" />   <use xlink:href="#dot" transform="translate(32.316667,-27.016667)" />   <use xlink:href="#dot" transform="translate(29.183332,-31.950001)" />   <use xlink:href="#dot" transform="translate(32.216667,-27.216667)" />   <use xlink:href="#dot" transform="translate(32.216667,-27.216667)" />   <use xlink:href="#dot" transform="translate(32.216667,-27.216667)" />   <use xlink:href="#dot" transform="translate(32.216667,-27.216667)" />   <use xlink:href="#dot" transform="translate(32.216667,-27.216667)" />   <use xlink:href="#dot" transform="translate(32.216667,-27.216667)" />   <use xlink:href="#dot" transform="translate(32.216667,-27.216667)" />   <use xlink:href="#dot" transform="translate(32.216667,-27.216667)" />   <use xlink:href="#dot" transform="translate(32.216667,-27.216667)" />   <use xlink:href="#dot" transform="translate(32.216667,-27.216667)" />   <use xlink:href="#dot" transform="translate(32.216667,-27.216667)" />   <use xlink:href="#dot" transform="translate(32.275,-26.983333)" />   <use xlink:href="#dot" transform="translate(32.25,-27.1)" />   <use xlink:href="#dot" transform="translate(32.275,-26.983333)" />   <use xlink:href="#dot" transform="translate(32.273611,-27.030556)" />   <use xlink:href="#dot" transform="translate(33.366667,-25.083333)" />   <use xlink:href="#dot" transform="translate(33.333333,-24.733333)" />   <use xlink:href="#dot" transform="translate(32.266667,-27.15)" />   <use xlink:href="#dot" transform="translate(32.183333,-27.233333)" />   <use xlink:href="#dot" transform="translate(32.35,-26.766667)" />   <use xlink:href="#dot" transform="translate(32.466667,-28.216667)" />   <use xlink:href="#dot" transform="translate(38.05,-7.8)" />   <use xlink:href="#dot" transform="translate(31.416667,-29.283333)" />   <use xlink:href="#dot" transform="translate(31,-29.883333)" />   <use xlink:href="#dot" transform="translate(31,-29.883333)" /><polygon class="region" points="22.799999,-34 22.566668,-33.983334 38.05,-7.8 32.557918,-28.72652 29.213888,-31.930555 26.683332,-33.683334 24.667,-34 22.799999,-34 " />
		  </g>
		</svg>