<?xml version="1.0" encoding="UTF-8"?>
	<svg xmlns:xlink="http://www.w3.org/1999/xlink" 
	xmlns="http://www.w3.org/2000/svg" 
	width="360px" height="180px">
	   <style type="text/css">
		  <![CDATA[     
		  .region 
		  { 
			fill:blue; 
			opacity:0.4; 
			stroke:blue;
		  }
		  ]]>
	   </style>

	<circle id="dot" x="-2" y="-2" r="2" style="stroke:none; stroke-width:0; fill:black; opacity:0.7;"/>


	 <image x="0" y="0" width="360" height="180" xlink:href="map.jpg"/>

 
	 <g transform="translate(180,90) scale(1,-1)"><polygon class="region" points="12.316313341,44.360757785 12.664456177,44.004733954 13.469982571,43.584184265 12.900758192,43.207889472 11.9125,43.795833334 12.316313341,44.360757785 " /><polygon class="region" points="13.307715861,45.739506531 13.382472738,45.688520813 13.328920831,45.742322117 13.120833333,45.758333333 13.245022922,45.713156806 12.434270562,45.424432712 12.388587274,45.446101549 12.329519992,45.114242214 12.554784309,44.965667046 12.387821791,44.78269043 12.315762837,44.841022068 12.271753099,44.824417114 12.3125,44.366666667 11.908333334,43.808333334 11.591666666,43.775 11.242357721,43.854964193 11.16875746,44.08696662 10.808333333,44 10.831377157,44.116099379 10.299253336,44.288067288 9.9658603240001,44.045215861 8.8666666660001,44.566666667 7.7102895100001,44.061932712 7.604166666,43.7875 7.208333333,43.85 6.7912707850001,44.274032254 6.284184265,44.438350763 6.607429844,44.667312283 6.683900621,44.946579997 6.1326905990001,45.274366252 6.2916666670001,45.825 6.5333333340001,45.925 6.720833333,45.729166667 7.0227895100001,45.916099379 7.4197730170001,45.909065755 7.3965403240001,46.240888808 7.678315905,46.042517429 7.9702660460001,46.540451728 8.574032254,46.62539605 8.6059077040001,46.991489131 8.9291666660001,46.795833333 9.374228583,46.895061917 9.312145318,46.593381077 9.0420247390001,46.493376329 9.5397104900001,46.371400621 10.55904185,47.140779284 10.902424452,46.892019993 10.825,47.133333333 10.949253337,47.242233955 11.166666666,46.958333334 12.198043823,47.091099379 12.213350932,46.875850762 13.957424079,46.582709757 13.679920451,46.511759101 13.825,46.375 13.729870945,46.28425293 14.004166667,46.2375 14.116666667,45.979166667 14.029166667,45.945833333 14.0125,45.9125 14.566308594,45.455876499 13.870833333,45.475 13.555172051,45.313149855 13.488956028,45.491626146 13.749382528,45.681326802 13.54905938,45.783862814 13.436493598,45.675647142 13.354635959,45.674382358 13.249382528,45.709332953 13.307715861,45.739506531 " /><polygon class="region" points="12.188331604,45.381660461 12.187351285,45.382222293 12.189023012,45.379933721 12.188331604,45.381660461 " /><polygon class="region" points="12.579900742,45.50845343 12.584039815,45.507677884 12.585967641,45.509462459 12.579900742,45.50845343 " /><polygon class="region" points="12.617513461,45.518091306 12.62126431,45.516011217 12.62275556,45.517166871 12.621386528,45.51777649 12.617513461,45.518091306 " /><polygon class="region" points="12.221367883,45.3995324 12.222499848,45.398605347 12.223925927,45.393102556 12.224223666,45.399268934 12.221367883,45.3995324 " /><polygon class="region" points="12.21203342,45.347474671 12.215277777,45.345833333 12.216312323,45.347914633 12.215169441,45.350254991 12.21203342,45.347474671 " /><polygon class="region" points="12.420366754,45.480808003 12.423611111,45.479166667 12.424645657,45.481247965 12.423502774,45.483588325 12.420366754,45.480808003 " /><polygon class="region" points="12.387033421,45.49747467 12.390277778,45.495833333 12.391312324,45.497914632 12.39016944,45.500254991 12.387033421,45.49747467 " /><polygon class="region" points="12.206836107,45.296088325 12.203700087,45.293308004 12.206944444,45.291666666 12.20797899,45.293747966 12.206836107,45.296088325 " /><polygon class="region" points="12.195366753,45.297474671 12.198611111,45.295833333 12.199645657,45.297914632 12.198502774,45.300254991 12.195366753,45.297474671 " /><polygon class="region" points="12.470366753,44.868307834 12.473611111,44.866666666 12.474645657,44.868747966 12.473502774,44.871088324 12.470366753,44.868307834 " /><polygon class="region" points="13.320366754,45.693308004 13.323611111,45.691666667 13.324645657,45.693747966 13.323502604,45.696088325 13.320366754,45.693308004 " /><polygon class="region" points="13.356835938,45.687754992 13.353700086,45.68497467 13.356944445,45.683333334 13.357978991,45.685414632 13.356835938,45.687754992 " /><polygon class="region" points="12.197983264,45.37864912 12.202244828,45.375599674 12.204733955,45.377951728 12.19865977,45.383854167 12.197983264,45.37864912 " /><polygon class="region" points="13.332418484,45.692284308 13.328549195,45.688445875 13.336111111,45.6875 13.337210083,45.690359497 13.332418484,45.692284308 " /><polygon class="region" points="12.207715691,45.393034532 12.215579713,45.390366878 12.212602742,45.40034104 12.20960456,45.400617642 12.207715691,45.393034532 " /><polygon class="region" points="12.51184455,45.480017259 12.523611111,45.479166667 12.52475179,45.482345581 12.515874227,45.483988783 12.51184455,45.480017259 " /><polygon class="region" points="13.779166667,45.608333334 13.790451728,45.603599379 13.791666666,45.608333334 13.779166667,45.608333334 " /><polygon class="region" points="13.370253499,45.722085571 13.3762146,45.716228909 13.38300883,45.717571513 13.371991306,45.729746501 13.370253499,45.722085571 " /><polygon class="region" points="12.428511217,45.000850423 12.440277778,45 12.441302151,45.006925456 12.436695862,45.008988783 12.428511217,45.000850423 " /><polygon class="region" points="12.37278951,45.050567288 12.382052104,45.041023763 12.363316345,45.061677043 12.361932712,45.055381605 12.37278951,45.050567288 " /><polygon class="region" points="12.39213172,45.514578756 12.404166667,45.508333333 12.408597989,45.528029548 12.39654185,45.528279283 12.39213172,45.514578756 " /><polygon class="region" points="12.195754944,45.34613048 12.206988865,45.341738553 12.212457716,45.361977413 12.199185149,45.359994314 12.195754944,45.34613048 " /><polygon class="region" points="12.507766045,44.948785061 12.516666666,44.941666666 12.532516479,44.961730618 12.524320645,44.963079834 12.507766045,44.948785061 " /><polygon class="region" points="12.388501994,45.041929796 12.366666667,45.025 12.38125,45.012514581 12.39547933,45.022547065 12.388501994,45.041929796 " /><polygon class="region" points="12.486882359,44.905112373 12.499382359,44.914506361 12.502403938,44.942134942 12.492404514,44.940891181 12.486882359,44.905112373 " /><polygon class="region" points="12.183333333,45.304166666 12.146043735,45.299079725 12.175321791,45.253523933 12.203560554,45.28125 12.183333333,45.304166666 12.211695184,45.332603963 12.183333333,45.304166666 " /><polygon class="region" points="12.463369751,45.492536418 12.497125753,45.549987793 12.480466885,45.495789253 12.599164962,45.525550842 12.497877672,45.566011217 12.463369751,45.492536418 " /><polygon class="region" points="12.3625,45.416666666 12.365920004,45.508900621 12.267434862,45.444861688 12.211978489,45.28834788 12.2375,45.1875 12.3625,45.416666666 " /><polygon class="region" points="12.245215691,45.243673197 12.238163249,45.239193386 12.235183716,45.258950975 12.246450976,45.246644253 12.245215691,45.243673197 " /><polygon class="region" points="12.528972032,45.507404921 12.539349196,45.508938429 12.540277778,45.5 12.52996521,45.500684442 12.528972032,45.507404921 " /><polygon class="region" points="12.290986125,44.800767348 12.295112949,44.804847209 12.316427273,44.80335829 12.315277778,44.8 12.290986125,44.800767348 " /><polygon class="region" points="12.537121413,45.528210958 12.547682529,45.529771762 12.548611112,45.520833333 12.542478265,45.521582879 12.537121413,45.528210958 " /><polygon class="region" points="12.411882358,44.82355245 12.413801236,44.829156833 12.419928826,44.833633084 12.420680746,44.82758789 12.411882358,44.82355245 " /><polygon class="region" points="13.166198731,45.732271999 13.173938667,45.733801439 13.173611111,45.725 13.16749471,45.725712755 13.166198731,45.732271999 " /><polygon class="region" points="12.328523933,45.402370029 12.334178331,45.404809401 12.336111111,45.395833333 12.328523933,45.402370029 " /><polygon class="region" points="12.511882358,45.542612542 12.513720025,45.550617642 12.520257907,45.543782721 12.519444445,45.541666667 12.511882358,45.542612542 " /><polygon class="region" points="12.3625,45.416666666 12.353523933,45.417582194 12.3625,45.420833333 12.3625,45.416666666 " /><polygon class="region" points="12.31606157,45.460944451 12.318115234,45.467271762 12.321379767,45.463256497 12.31606157,45.460944451 " /><polygon class="region" points="12.316049025,45.405112542 12.319918315,45.408950975 12.324710253,45.407026164 12.323611111,45.404166666 12.316049025,45.405112542 " /><polygon class="region" points="12.374382358,45.467612542 12.378251648,45.471450975 12.383043585,45.469526164 12.381944445,45.466666667 12.374382358,45.467612542 " /><polygon class="region" points="10.45,43.654166667 10.279166666,43.683333333 10.62278951,43.974432712 11.16875746,44.08696662 11.242357721,43.854964193 11.446450805,43.831965468 11.354827881,43.605066257 11.875,42.929166667 11.217380778,42.805012343 11.166931152,43.028029378 10.979166667,43.1 11.0875,43.2625 10.953315905,43.486649068 10.45,43.654166667 " /><polygon class="region" points="12.026956177,43.786932712 12.5875,43.3875 12.41875,43.017135281 12.332384745,43.229434035 11.917024401,43.389211527 12.026956177,43.786932712 " />
		  </g>
		</svg>