<?xml version="1.0" encoding="UTF-8"?>
	<svg xmlns:xlink="http://www.w3.org/1999/xlink" 
	xmlns="http://www.w3.org/2000/svg" 
	width="360px" height="180px">
	   <style type="text/css">
		  <![CDATA[     
		  .region 
		  { 
			fill:blue; 
			opacity:0.4; 
			stroke:blue;
		  }
		  ]]>
	   </style>

	<circle id="dot" x="-2" y="-2" r="2" style="stroke:none; stroke-width:0; fill:black; opacity:0.7;"/>


	 <image x="0" y="0" width="360" height="180" xlink:href="map.jpg"/>

 
	 <g transform="translate(180,90) scale(1,-1)"><polygon class="region" points="23.295917313,38.389210447 23.256124497,38.38306427 23.225273133,38.42389679 23.345413208,38.423137665 23.295917313,38.389210447 " /><polygon class="region" points="21.464519501,38.582492829 21.594841003,38.594387054 21.656160354,38.524494171 21.465150833,38.540946961 21.464519501,38.582492829 " /><polygon class="region" points="21.420581733,39.051644491 21.375804406,39.016589034 21.564441732,38.984542304 21.539625108,38.903615926 21.64471856,38.905875787 21.623643392,38.852801853 21.474018283,38.903368191 21.374400371,39.016071758 21.420581733,39.051644491 " /><polygon class="region" points="21.354436577,38.830269911 21.351005984,38.818248586 21.391192084,38.790563423 21.41263916,38.794634874 21.413344862,38.839776883 21.429260254,38.855443387 21.436674533,38.85888109 21.414704861,38.785188259 21.363958062,38.788361139 21.367638889,38.740694444 21.328295492,38.823670112 21.354436577,38.830269911 " /><polygon class="region" points="21.194509506,38.777065277 21.197446823,38.734989167 21.20523262,38.719177246 21.15807724,38.762924194 21.184366226,38.822818756 21.194509506,38.777065277 " /><polygon class="region" points="21.356992247,38.829016136 21.356927354,38.838481717 21.342043186,38.850245768 21.358950805,38.837969292 21.356992247,38.829016136 " /><polygon class="region" points="21.355251869,38.82927626 21.356992247,38.829016136 21.356988525,38.828844808 21.355588515,38.828865967 21.355251869,38.82927626 " /><polygon class="region" points="23.085075548,38.662853326 23.749345906,38.317469618 22.889242215,38.292019993 22.295833334,38.65 22.558164978,38.867334662 23.085075548,38.662853326 " /><polygon class="region" points="22.553700087,38.839141167 22.556944444,38.8375 22.55797899,38.839581299 22.556836107,38.841921658 22.553700087,38.839141167 " /><polygon class="region" points="23.115298801,38.628549194 23.121244642,38.63450826 23.117881605,38.638067288 23.103549194,38.630139499 23.115298801,38.628549194 " /><polygon class="region" points="23.248650326,38.432590151 23.256124497,38.38306427 23.349142075,38.411499024 23.282985687,38.404716492 23.248650326,38.432590151 " /><polygon class="region" points="23.0875,38.6625 23.088095771,38.682323201 23.099625651,38.686346435 23.107879299,38.677083334 23.0875,38.6625 " /><polygon class="region" points="23.382865397,38.523938666 23.390605333,38.525467937 23.390277777,38.516666667 23.384161377,38.517379422 23.382865397,38.523938666 " />
		  </g>
		</svg>