<?xml version="1.0" encoding="UTF-8"?>
	<svg xmlns:xlink="http://www.w3.org/1999/xlink" 
	xmlns="http://www.w3.org/2000/svg" 
	width="360px" height="180px">
	   <style type="text/css">
		  <![CDATA[     
		  .region 
		  { 
			fill:blue; 
			opacity:0.4; 
			stroke:blue;
		  }
		  ]]>
	   </style>

	<circle id="dot" x="-2" y="-2" r="2" style="stroke:none; stroke-width:0; fill:black; opacity:0.7;"/>


	 <image x="0" y="0" width="360" height="180" xlink:href="map.jpg"/>

 
	 <g transform="translate(180,90) scale(1,-1)"><polygon class="region" points="43.139456177,42.957766046 43.773257786,42.76631334 43.721732924,42.629827881 43.945833333,42.554166667 43.365751139,41.896431817 42.32154185,41.790779284 42.51595815,41.686612617 42.604784308,41.27963579 42.258333333,40.979166667 42.624646675,40.622575548 42.468877156,40.354733954 41.825,40.141666667 41.279166666,40.175 41.132396104,40.338067288 40.810543823,40.079733955 40.214951071,40.032980008 40.1875,40.495833333 39.533333333,40.245833334 38.785757786,40.507980007 37.68528951,40.342233954 37.574149237,40.536649238 35.929166666,41.020833333 35.401742215,40.942019993 34.416666667,41.1875 33.69508667,41.045266045 33.666666666,41.325 32.808686659,41.610075548 32.958333333,41.7125 32.8625,41.829166667 33.324253337,42.021400622 34.703420003,41.945266045 35.015920003,42.096400621 35.213104926,42.021736653 35.091061741,41.925540501 35.281122843,41.717233954 35.975452423,41.738243103 36.43258667,41.245266046 36.653029548,41.387764655 37.508333334,41.029166667 37.682864041,41.138117472 38.354166667,40.9125 38.720833333,40.954166667 39.164583334,41.083318753 39.293877156,41.054733955 39.407345242,41.108900622 40.181591119,40.917019993 41.520437283,41.48430108 41.774646675,41.830908881 41.554166667,42.395833333 41.9625,42.458333334 42.076214939,42.763067288 43.139456177,42.957766046 " /><polygon class="region" points="36.666666667,45.320833333 36.620373366,45.305049642 36.784157987,45.445143297 36.859018623,45.454796854 37.416666667,45.354166666 37.284316338,45.171816339 37.594982571,45.040815905 37.664242215,44.812853326 38.304166667,44.591666667 38.333333333,44.3875 37.828145684,44.719972737 37.456198459,44.704809571 37.152424452,45.028813341 36.635075548,45.137853325 36.992334663,45.296001688 36.666666667,45.320833333 " /><polygon class="region" points="41.435757786,42.996186659 41.903255039,42.978552585 41.974184503,42.675826688 41.550708347,42.400887383 41.440676201,42.736880832 41.145833334,42.8 41.435757786,42.996186659 " /><polygon class="region" points="27.985543823,41.971400622 28.1,41.629166667 28.716666666,41.275 28.159548272,41.241099379 28.116313341,41.464924452 27.77278951,41.613067288 27.691049195,41.817135789 27.985543823,41.971400622 " /><polygon class="region" points="40.644091119,43.337146674 41.227424452,43.287146674 41.3,43.004166667 41.141666667,42.804166667 40.86471049,43.074432712 40.581620449,43.087146675 40.518877157,43.141099378 40.335075548,43.146186659 40.283691406,43.180876499 40.644091119,43.337146674 " /><polygon class="region" points="38.333333333,44.3875 38.508333334,44.554166667 38.910543823,44.499432712 39.157596503,44.217559136 39.0395735,44.092127482 38.333333333,44.3875 " /><polygon class="region" points="39.482471381,43.788307699 40.040815735,43.786649068 39.957624987,43.459220717 39.918622844,43.417233954 39.482471381,43.788307699 " /><polygon class="region" points="40.285543823,43.632766045 40.433333333,43.558333333 40.279166667,43.1875 39.983333333,43.425 40.285543823,43.632766045 " /><polygon class="region" points="39.070833333,44.091666667 39.431591119,44.128813341 39.71176317,43.896725803 39.459184096,43.788350932 39.070833333,44.091666667 " /><polygon class="region" points="37.420490265,45.317539215 37.479240418,45.314781189 37.58221817,45.233711243 37.430805206,45.263408661 37.420490265,45.317539215 " /><polygon class="region" points="36.666666667,45.320833333 36.675642734,45.319917806 36.673718771,45.311857266 36.667417738,45.313470798 36.666666667,45.320833333 " /><polygon class="region" points="38.432865228,40.932272 38.440605333,40.933801269 38.440277778,40.925 38.434161377,40.925712755 38.432865228,40.932272 " /><polygon class="region" points="36.7,45.333333333 36.71171858,45.332643636 36.712050205,45.329977926 36.70134023,45.328645833 36.7,45.333333333 " /><polygon class="region" points="24.545833334,50.191666667 24.8375,50.729166666 24.3,50.916666667 24.308333333,51.15 24.091666667,51.3 23.720833333,51.325 24.290969849,51.996723768 24.116666667,52.191666667 24.486649068,52.040815904 24.495113458,51.850776672 24.026054382,51.578480191 24.05662045,51.545480008 24.870100233,51.959158325 24.858219401,52.336341349 24.291049024,52.697201199 24.441666667,52.85 24.991666667,52.733333333 25.110415989,53.095819431 25.640850152,52.81321479 25.857482571,53.025850763 25.762513224,53.243162367 25.889242215,53.324646674 26.466344875,53.136857096 27.494846938,53.209050496 27.438312446,53.4322976 27.715846083,53.491955905 27.636932712,53.760543823 27.171719699,53.913272603 27.14202474,54.052456835 27.978505452,54.36339959 27.95744595,54.736791653 27.587298584,54.752947998 27.833333333,55.120833334 28.4,55.120833334 28.295831977,54.881234063 28.5875,54.933333333 28.434067281,54.807541233 28.5125,54.691666667 29.083333333,54.379166666 29.384383817,54.583976237 29.74535319,54.496728516 29.959336006,55.070173476 30.1875,55.170833333 30.9125,55.2 31.078315905,55.136649237 31.0375,54.975 31.236665852,55.040973917 31.5125,54.791666666 32.078262329,54.858033583 32.020847914,55.014583333 32.183333334,55.133333334 32.025,55.241666666 32.232118394,55.220266046 32.354875183,55.490779283 32.65,55.479166667 32.906122843,55.720266045 33.452424452,55.645480008 33.834050496,55.175986227 34.183730401,55.107307604 34.033065287,54.870033095 34.266666667,54.745833333 33.945833334,54.5875 34.154166666,54.345833333 34.620833333,54.458333333 34.820207892,54.297920396 34.879604424,54.097048102 34.575,53.95 34.557715692,53.75463579 34.8,53.566666667 34.584548272,53.370266046 35.208333333,53.2 35.356122843,52.479733954 36.345833333,52.366666667 36.659548272,52.646400621 37.377424452,52.846186659 37.608333334,53.0625 37.605017429,53.553315735 38.239216613,53.637146674 38.157766045,53.907118394 38.443749322,54.0458196 39.054166666,53.916666666 39.283333334,53.770833334 39.2875,53.483333333 39.580908881,53.392019992 40.474000718,53.453684659 40.658333334,53.7125 40.795833333,53.4 41.083900622,53.502951728 41.145833334,53.229166667 41.020833333,53.1125 41.154733955,52.915451728 40.963426378,52.832406956 41.045833333,52.629166667 40.908801947,52.477083333 41.12036404,52.191049194 41.71579149,52.092249552 42.316666667,52.633333333 42.4875,53.116666667 42.979166667,53.108333333 43.3125,53.3375 43.582433743,53.286838786 43.526003011,53.067270575 44.106591119,52.996186659 44.4125,53.120833333 44.854166666,52.929166667 45.246991306,52.428586832 46.2875,52.270833333 46.166666667,52.116666666 45.836866252,52.200642904 45.462514242,52.035417006 45.713117472,51.788236661 45.57156745,51.609214274 45.8875,51.5375 45.649357096,51.258967082 45.803808594,51.010042996 45.491313341,50.647546386 45.6907213,50.463445366 44.850567288,49.798043823 44.766666667,49.629166667 44.991931152,49.451137119 44.258333334,48.725 44.475,48.504166666 44.175,48.241666667 44.354166667,48.045833333 44.121400621,47.743877157 44.35,47.7 44.261932712,47.484079997 44.382980008,47.301742214 44.170833333,47.125 44.337941997,46.602291192 43.871400621,46.56028951 44.3375,46.120833334 43.999260457,45.829867554 43.2,45.925 42.851742214,45.820480008 42.625,45.654166667 42.729733955,45.500746663 42.574376424,45.280075921 41.929166667,45.0875 42.166313341,44.889924452 42.108333334,44.75 42.416652086,44.589583334 42.229519993,44.527424452 42.362437609,44.230566746 42.020833334,43.85 42.45,43.6375 42.455017598,43.213350931 42.8625,43.179166667 43.145833333,42.966666667 42.076214939,42.763067288 41.848257786,42.392019993 41.553599379,42.42008667 41.974184503,42.675826688 41.903255039,42.978552585 41.400802613,42.995098199 41.145833334,42.8 41.3,43.004166667 41.219091118,43.291313341 40.610075548,43.337146674 40.280017599,43.184184265 40.425,43.570833333 40.223283386,43.646186659 39.951956177,43.396400621 40.040815735,43.786649068 39.463350763,43.784184265 39.682482571,43.990815735 39.070833333,44.091666667 39.1625,44.25 38.940815904,44.486649238 38.508333334,44.554166667 38.333333333,44.3875 38.304166667,44.591666667 37.664242215,44.812853326 37.594982571,45.040815905 37.284316338,45.171816339 37.283333333,45.325 37.553457981,45.396720717 37.609228855,45.661822849 37.972839864,46.036882528 38.1125,45.958333333 38.283333333,46.266666666 37.91028951,46.408900621 37.726354641,46.691762628 38.591666666,46.666666666 38.510543823,46.749432712 38.392289056,46.726002333 38.450724623,46.857450019 39.299642267,47.030878363 39.086753336,47.288067288 38.096620856,47.024395073 37.5375,47.079166667 36.767300415,46.628523763 36.815485297,46.724757216 36.61863539,46.778586833 36.164583333,46.496325684 36.214924452,46.662146674 35.885075548,46.649646674 35.160443116,46.129834662 34.983100383,46.079966905 35.21238912,46.188477919 35.354746501,46.361342028 35.185416666,46.478560384 34.812513733,46.156250678 35.356122843,45.371400621 35.531591119,45.287853326 35.836753336,45.475567288 35.98258667,45.370266045 36.344620768,45.487574599 36.648311361,45.378893534 36.420266045,45.286285061 36.406377157,45.067233955 35.842135959,44.995215861 35.529166667,45.125 35.084070163,44.791049195 34.606122844,44.770266046 33.971302626,44.386882528 33.374382527,44.582864041 33.6125,44.904166666 33.48971049,45.149432712 32.478549025,45.39105106 33.167881606,45.792233954 33.683333333,45.854166666 33.603164672,46.148998006 33.50857917,46.024344551 33.208333333,46.1875 32.54139862,46.071633572 33.083988783,46.015730116 32.937745836,46.007677884 32.514544339,46.067322116 32.050839234,46.167381795 32.216126167,46.136895073 32.241666666,46.175 31.916988457,46.296476237 31.774357266,46.263524034 32.025224812,46.444408162 31.699382528,46.432652792 31.539569431,46.542347209 31.508617486,46.577541775 31.583422512,46.536819458 32.008809068,46.490986125 32.311185201,46.49574212 31.980273098,46.654463365 31.978406963,46.876382846 31.80221049,46.608900621 30.776956177,46.553599379 30.469982401,46.067517429 29.625,45.504166667 29.788029649,45.455107456 29.594618394,44.824432712 29.089242215,44.749646674 28.645833333,44.329166667 28.586920166,43.485302056 28.092542691,43.374272156 27.9125,43.183333333 27.90354343,42.700987074 27.646683418,42.549432712 27.243408881,42.492019992 27.077452596,42.787146335 26.840529548,42.850264486 26.491666666,42.741666667 23.895833333,42.783333333 23.882624987,42.55505405 23.603523763,42.516344876 23.540920003,42.082766046 23.316666666,42.175 23.283333333,42.5625 22.826742215,42.828813341 22.2125,42.525 22.506591119,42.150353326 21.888238865,42.011786059 20.951742215,41.325353326 20.6875,41.4375 20.828813341,41.664242215 20.746218194,42.02293023 20.983900621,42.29241333 20.728251309,42.88690016 20.145833333,42.754166667 20.02916531,42.79790073 20.115931532,42.970030721 19.767441474,43.015927463 19.575,42.579166667 19.362523397,42.882071601 18.788761563,43.008309937 18.290676202,43.695214166 17.874175347,43.895128886 17.458333333,43.870833334 17.131591119,44.112146674 16.962853326,44.052424452 16.976956177,43.879733954 16.319091119,44.332980008 16.106122844,44.275567288 15.870833333,44.683333334 15.466666667,44.879166666 15.120437283,45.299032253 14.595833334,45.416666666 14.0125,45.9125 14.075,46.166666667 13.729870945,46.28425293 13.825,46.375 13.679920451,46.511759101 13.958333333,46.508333334 13.879166666,46.6125 14.095833334,46.804166667 13.321191407,47.160043166 15.404166667,47.641666666 15.466666667,47.845833334 15.255126953,47.779974365 14.876214938,47.991099379 15.120833333,48.141666667 15.116111925,48.347907172 14.791666666,48.5875 15.16595425,48.800772434 15.421732924,49.453505452 15.779166667,49.4 16.020833333,49.7375 16.569091119,49.742019992 16.5,49.941666667 16.808333334,50.054166667 16.8375,50.208333334 17.036917115,50.22824707 17.225,50.1 17.204166667,49.933333333 17.491934882,49.874199592 17.520833333,49.608333333 18.401742215,49.396186659 18.918758817,49.557871501 19.00758667,49.395266045 19.447839694,49.611882358 19.810493639,49.557715691 19.7625,49.204166667 20.049112617,49.195124817 20.1,48.995833333 21,49.233333334 21.05,49.425 21.329166667,49.466666666 22.904166666,49.004166666 22.546572537,49.482558696 23.661780125,49.717443339 23.564242215,50.062146674 24.293622844,49.671400622 25.157083469,49.825177341 24.545833334,50.191666667 " /><polygon class="region" points="32.982864041,45.354784308 32.982585889,45.354581114 32.983571612,45.354451878 32.982864041,45.354784308 " /><polygon class="region" points="33.13802268,45.414536525 33.140406438,45.415560139 33.138637288,45.416931322 33.13802268,45.414536525 " /><polygon class="region" points="33.022839694,45.370215692 33.021594457,45.369306017 33.029995704,45.370567116 33.022839694,45.370215692 " /><polygon class="region" points="31.000988006,46.657634736 31.000850762,46.655017429 31.004166666,46.654166666 31.004105106,46.654406605 31.000988006,46.657634736 " /><polygon class="region" points="38.481558192,47.150422071 38.479784308,47.147993639 38.479166667,47.145833333 38.482643127,47.149242402 38.481558192,47.150422071 " /><polygon class="region" points="33.057769775,45.368316651 33.05443573,45.365539551 33.051809937,45.358377699 33.058380325,45.368572574 33.057769775,45.368316651 " /><polygon class="region" points="32.82453342,45.551641337 32.827777778,45.55 32.828812323,45.552081299 32.827669441,45.554421658 32.82453342,45.551641337 " /><polygon class="region" points="32.87453342,46.043307834 32.877777777,46.041666667 32.878812323,46.043747965 32.877669271,46.046088325 32.87453342,46.043307834 " /><polygon class="region" points="33.18703342,46.189141168 33.190277778,46.1875 33.191312324,46.189581299 33.190169271,46.191921658 33.18703342,46.189141168 " /><polygon class="region" points="32.350850932,46.515815904 32.35,46.5125 32.353315735,46.513350762 32.354166666,46.516666667 32.350850932,46.515815904 " /><polygon class="region" points="32.367517598,46.524149237 32.366666666,46.520833334 32.369982402,46.521684096 32.370833333,46.525 32.367517598,46.524149237 " /><polygon class="region" points="39.254166667,47.245833333 39.257482571,47.246684265 39.258333333,47.25 39.255017429,47.249149068 39.254166667,47.245833333 " /><polygon class="region" points="32.359184265,46.519982571 32.358333333,46.516666667 32.361649068,46.517517429 32.3625,46.520833334 32.359184265,46.519982571 " /><polygon class="region" points="32.321684266,46.503315905 32.320833333,46.5 32.324149068,46.500850762 32.325,46.504166667 32.321684266,46.503315905 " /><polygon class="region" points="29.708333333,45.241666667 29.709184095,45.238350932 29.7125,45.2375 29.711649238,45.240815735 29.708333333,45.241666667 " /><polygon class="region" points="33.558333334,44.620833333 33.559184096,44.617517429 33.5625,44.616666667 33.561649237,44.619982571 33.558333334,44.620833333 " /><polygon class="region" points="33.545833334,44.620833333 33.546400621,44.618622843 33.548785061,44.616099379 33.55,44.620833333 33.545833334,44.620833333 " /><polygon class="region" points="33.166099379,45.431377157 33.163714939,45.433900621 33.1625,45.429166667 33.166666666,45.429166667 33.166099379,45.431377157 " /><polygon class="region" points="33.5375,44.620833333 33.538067287,44.618622843 33.540451728,44.616099379 33.541666667,44.620833333 33.5375,44.620833333 " /><polygon class="region" points="31.016666666,46.60663076 31.024248929,46.604940118 31.024491384,46.607760413 31.016666666,46.60663076 " /><polygon class="region" points="29.619618395,45.470266045 29.625411309,45.476174927 29.622048272,45.479733955 29.616255358,45.473825074 29.619618395,45.470266045 " /><polygon class="region" points="30.658333333,46.329166667 30.658691406,46.326709663 30.666666667,46.320833333 30.66004299,46.328917492 30.658333333,46.329166667 " /><polygon class="region" points="35.078251817,46.150617472 35.074382527,46.146779039 35.081944444,46.145833334 35.083043416,46.148692831 35.078251817,46.150617472 " /><polygon class="region" points="31.882715691,46.29855245 31.886111112,46.295833333 31.891836039,46.302990384 31.884849379,46.304784139 31.882715691,46.29855245 " /><polygon class="region" points="31.01647377,46.636745453 31.010961038,46.646381541 31.01636936,46.627903613 31.01647377,46.636745453 " /><polygon class="region" points="33.156122843,45.420266045 33.147198506,45.412742964 33.145086822,45.408438115 33.157975599,45.418378194 33.156122843,45.420266045 " /><polygon class="region" points="33.052187081,45.350206261 33.052720322,45.345552075 33.061339993,45.341649882 33.06315545,45.34906328 33.052187081,45.350206261 " /><polygon class="region" points="32.329524739,46.50662367 32.34494595,46.50904168 32.345833333,46.5125 32.335075548,46.512146674 32.329524739,46.50662367 " /><polygon class="region" points="32.00540924,46.890262604 32.007009231,46.874660166 32.011761305,46.875879585 32.013067288,46.884079997 32.00540924,46.890262604 " /><polygon class="region" points="33.513714939,44.625567288 33.5125,44.620833333 33.533333334,44.620833333 33.532426961,44.624365234 33.513714939,44.625567288 " /><polygon class="region" points="33.016956015,45.31464833 33.01874627,45.313125441 33.024051582,45.316831462 33.025812445,45.328130934 33.033377414,45.330466885 33.027397342,45.337496568 33.016956015,45.31464833 " /><polygon class="region" points="32.958510671,45.354044417 32.9493259,45.354784308 32.945215861,45.351367866 32.964559842,45.345230314 32.958510671,45.354044417 " /><polygon class="region" points="31.591666667,46.825 31.592019993,46.814242214 31.6,46.808333333 31.599646674,46.819091119 31.591666667,46.825 " /><polygon class="region" points="29.770111762,45.434081353 29.775411309,45.447008261 29.772048272,45.450567288 29.762371148,45.444970194 29.770111762,45.434081353 " /><polygon class="region" points="38.480325487,47.170719401 38.479173863,47.166691796 38.508333334,47.183333333 38.497839864,47.182715691 38.480325487,47.170719401 " /><polygon class="region" points="35.063180542,46.143736097 35.061194525,46.149856229 35.040986125,46.138267348 35.065277778,46.1375 35.063180542,46.143736097 " /><polygon class="region" points="33.171720717,45.436791484 33.178420003,45.428599378 33.2,45.445833333 33.189456177,45.445266045 33.171720717,45.436791484 " /><polygon class="region" points="29.633027818,45.474055142 29.641850111,45.459442478 29.652777778,45.454166667 29.64909261,45.469925774 29.633027818,45.474055142 " /><polygon class="region" points="32.299059211,46.479696316 32.283016629,46.478016154 32.3125,46.466666667 32.311423407,46.478559706 32.299059211,46.479696316 " /><polygon class="region" points="32.036882358,46.390298801 32.038427565,46.378883871 32.058333333,46.391666667 32.05,46.4 32.036882358,46.390298801 " /><polygon class="region" points="31.525,46.7625 31.454166666,46.754166666 31.417474365,46.63429362 31.591666667,46.8 31.525,46.7625 " /><polygon class="region" points="37.427345276,45.32749939 37.430805206,45.263408661 37.58221817,45.233711243 37.479240418,45.314781189 37.427345276,45.32749939 " /><polygon class="region" points="27.560339694,42.450617473 28.038130357,41.992426893 27.755017429,41.915815735 27.706249322,41.741680569 27.154181247,42.035416666 27.560339694,42.450617473 " /><polygon class="region" points="31.568698459,46.26730957 31.693698459,46.225642903 32.041049533,46.172935316 31.827031793,46.196476237 31.614531792,46.238142904 31.525642904,46.29369846 31.524366251,46.371476237 31.568698459,46.26730957 " /><polygon class="region" points="31.720228407,46.428379313 31.753701104,46.407302857 31.777777778,46.370833333 31.755074056,46.375907389 31.720228407,46.428379313 " /><polygon class="region" points="29.513509793,44.77430759 29.482766046,44.776214939 29.588067288,44.819370863 29.548043823,44.783900621 29.513509793,44.77430759 " /><polygon class="region" points="36.524432712,45.286753336 36.543877156,45.282766046 36.586111111,45.245833334 36.554843818,45.255062188 36.524432712,45.286753336 " /><polygon class="region" points="38.320152792,46.759100681 38.336766731,46.775680542 38.362706672,46.767594401 38.344444444,46.758333333 38.320152792,46.759100681 " /><polygon class="region" points="33.211716037,46.071617296 33.191850111,46.080275811 33.189264255,46.092271593 33.212653944,46.077963596 33.211716037,46.071617296 " /><polygon class="region" points="33.5335456,45.873869324 33.527777778,45.866666666 33.520215861,45.867612542 33.542284139,45.881596714 33.5335456,45.873869324 " /><polygon class="region" points="31.403586833,46.599207221 31.415841675,46.603438992 31.417229208,46.59641588 31.409228177,46.592371623 31.403586833,46.599207221 " /><polygon class="region" points="33.176186794,45.799170261 33.170228407,45.798444451 33.171836684,45.808938429 33.182545641,45.807574633 33.176186794,45.799170261 " /><polygon class="region" points="27.682677883,42.434183756 27.684639486,42.442322116 27.7003184,42.440778605 27.694444445,42.433333334 27.682677883,42.434183756 " /><polygon class="region" points="33.511882528,45.856173198 33.506944444,45.85 33.499382528,45.856055535 33.50761278,45.863117642 33.511882528,45.856173198 " /><polygon class="region" points="30.195454576,45.257377625 30.206015693,45.258938429 30.206944444,45.25 30.200811429,45.250749546 30.195454576,45.257377625 " /><polygon class="region" points="31.728599379,46.277850342 31.73494551,46.279733954 31.740277778,46.270833333 31.730030144,46.271468438 31.728599379,46.277850342 " /><polygon class="region" points="31.966198731,46.203105333 31.973938666,46.204634603 31.973611111,46.195833333 31.967494711,46.196546088 31.966198731,46.203105333 " /><polygon class="region" points="36.216049025,46.561052449 36.218182712,46.567284139 36.225169373,46.565490384 36.219444444,46.558333334 36.216049025,46.561052449 " /><polygon class="region" points="31.5577535,46.569073147 31.559076945,46.578344727 31.561595323,46.578842163 31.561111111,46.566666667 31.5577535,46.569073147 " /><polygon class="region" points="38.42365977,46.7171875 38.425,46.7125 38.41328142,46.713189698 38.412949795,46.715855578 38.42365977,46.7171875 " /><polygon class="region" points="32.024344551,46.21751709 32.028374227,46.221488783 32.037251791,46.219845581 32.036111111,46.216666666 32.024344551,46.21751709 " /><polygon class="region" points="32.289468723,46.566086832 32.295833333,46.566666667 32.294581096,46.561920166 32.286920166,46.563657972 32.289468723,46.566086832 " /><polygon class="region" points="38.425,46.7125 38.432499525,46.711816746 38.433008999,46.70923801 38.426214769,46.707895576 38.425,46.7125 " /><polygon class="region" points="24.544658406,50.196244642 24.545833334,50.191666667 24.541099379,50.192881606 24.544658406,50.196244642 " />
		  </g>
		</svg>