<?xml version="1.0" encoding="UTF-8"?>
	<svg xmlns:xlink="http://www.w3.org/1999/xlink" 
	xmlns="http://www.w3.org/2000/svg" 
	width="360px" height="180px">
	   <style type="text/css">
		  <![CDATA[     
		  .region 
		  { 
			fill:blue; 
			opacity:0.4; 
			stroke:blue;
		  }
		  ]]>
	   </style>

	<circle id="dot" x="-2" y="-2" r="2" style="stroke:none; stroke-width:0; fill:black; opacity:0.7;"/>


	 <image x="0" y="0" width="360" height="180" xlink:href="map.jpg"/>

 
	 <g transform="translate(180,90) scale(1,-1)">   <use xlink:href="#dot" transform="translate(179.0712,-17.122003)" />   <use xlink:href="#dot" transform="translate(178.429312,-17.350103)" />   <use xlink:href="#dot" transform="translate(34.4595,28.4377)" />   <use xlink:href="#dot" transform="translate(153.265929,-30.205489)" />   <use xlink:href="#dot" transform="translate(120.745556,22.000972)" />   <use xlink:href="#dot" transform="translate(120.99,13.5234)" />   <use xlink:href="#dot" transform="translate(35.5399,24.2531)" />   <use xlink:href="#dot" transform="translate(35.5399,24.2531)" />   <use xlink:href="#dot" transform="translate(-144.37999,-27.60166)" />   <use xlink:href="#dot" transform="translate(-147.68,-23.85)" />   <use xlink:href="#dot" transform="translate(-147.67,-23.85)" />   <use xlink:href="#dot" transform="translate(34.4197,25.8689)" />   <use xlink:href="#dot" transform="translate(125.223885,1.449011)" />   <use xlink:href="#dot" transform="translate(127.9146,26.6008)" />   <use xlink:href="#dot" transform="translate(127.7727,26.4438)" />   <use xlink:href="#dot" transform="translate(127.8647,26.6339)" />   <use xlink:href="#dot" transform="translate(127.8652,26.6346)" />   <use xlink:href="#dot" transform="translate(127.9146,26.6008)" />   <use xlink:href="#dot" transform="translate(127.8652,26.6346)" />   <use xlink:href="#dot" transform="translate(127.8647,26.6339)" />   <use xlink:href="#dot" transform="translate(150.0114,-16.9225)" />   <use xlink:href="#dot" transform="translate(150.0065,-16.9225)" />   <use xlink:href="#dot" transform="translate(149.9048,-16.9716)" />   <use xlink:href="#dot" transform="translate(150.0065,-16.9225)" />   <use xlink:href="#dot" transform="translate(153.5268,-27.4142)" />   <use xlink:href="#dot" transform="translate(153.52683,-27.41422)" />   <use xlink:href="#dot" transform="translate(153.52683,-27.41422)" />   <use xlink:href="#dot" transform="translate(153.5268,-27.4142)" />   <use xlink:href="#dot" transform="translate(-134.859,-23.2108)" />   <use xlink:href="#dot" transform="translate(-134.851,-23.143)" />   <use xlink:href="#dot" transform="translate(-134.851,-23.143)" />   <use xlink:href="#dot" transform="translate(129.675,28.4094)" />   <use xlink:href="#dot" transform="translate(129.675,28.4094)" />   <use xlink:href="#dot" transform="translate(129.965,28.285)" />   <use xlink:href="#dot" transform="translate(33.9518,27.1399)" />   <use xlink:href="#dot" transform="translate(130.474,30.2328)" />   <use xlink:href="#dot" transform="translate(33.955,27.1399)" />   <use xlink:href="#dot" transform="translate(131.765,2.8283)" />   <use xlink:href="#dot" transform="translate(59.589333,-16.839333)" />   <use xlink:href="#dot" transform="translate(130.413,30.2675)" />   <use xlink:href="#dot" transform="translate(130.472,30.2328)" />   <use xlink:href="#dot" transform="translate(120.744528,22.004417)" />   <use xlink:href="#dot" transform="translate(121.38,23.59)" />   <use xlink:href="#dot" transform="translate(121.28,22.4)" />   <use xlink:href="#dot" transform="translate(121.23,23.05)" />   <use xlink:href="#dot" transform="translate(121.23,23.05)" />   <use xlink:href="#dot" transform="translate(-157.483,2.01669)" />   <use xlink:href="#dot" transform="translate(121.23,23.05)" />   <use xlink:href="#dot" transform="translate(121.23,23.05)" />   <use xlink:href="#dot" transform="translate(32.6833,-27.5333)" />   <use xlink:href="#dot" transform="translate(32.683334,-27.516666)" />   <use xlink:href="#dot" transform="translate(-176.253,-13.3214)" />   <use xlink:href="#dot" transform="translate(-176.246,-13.2097)" />   <use xlink:href="#dot" transform="translate(124.073,24.4408)" />   <use xlink:href="#dot" transform="translate(32.693611,-27.522778)" />   <use xlink:href="#dot" transform="translate(165.83,-10.825)" />   <use xlink:href="#dot" transform="translate(165.792,-10.67)" />   <use xlink:href="#dot" transform="translate(167.18,-9.8917)" />   <use xlink:href="#dot" transform="translate(166.308,-10.27)" />   <use xlink:href="#dot" transform="translate(165.83,-10.7083)" />   <use xlink:href="#dot" transform="translate(165.83,-10.825)" />   <use xlink:href="#dot" transform="translate(165.83,-10.8083)" />   <use xlink:href="#dot" transform="translate(162.875,-8.38)" />   <use xlink:href="#dot" transform="translate(167.505,-13.6422)" />   <use xlink:href="#dot" transform="translate(167.159,-15.525)" />   <use xlink:href="#dot" transform="translate(167.652,-13.6719)" />   <use xlink:href="#dot" transform="translate(167.159,-15.525)" />   <use xlink:href="#dot" transform="translate(168.502,-17.8044)" />   <use xlink:href="#dot" transform="translate(169.497,-19.5258)" />   <use xlink:href="#dot" transform="translate(168.371,-16.8269)" />   <use xlink:href="#dot" transform="translate(168.471,-16.8383)" />   <use xlink:href="#dot" transform="translate(168.157,-16.6061)" />   <use xlink:href="#dot" transform="translate(168.108,-16.5917)" />   <use xlink:href="#dot" transform="translate(168.10833,-16.59166)" />   <use xlink:href="#dot" transform="translate(124.217,23.4667)" />   <use xlink:href="#dot" transform="translate(119.900002,16.299999)" />   <use xlink:href="#dot" transform="translate(32.883335,-26.833334)" />   <use xlink:href="#dot" transform="translate(32.683334,-27.516666)" />   <use xlink:href="#dot" transform="translate(-174.947,-21.4292)" />   <use xlink:href="#dot" transform="translate(135.332,33.7484)" />   <use xlink:href="#dot" transform="translate(120.35,22.31)" />   <use xlink:href="#dot" transform="translate(120.35,22.31)" />   <use xlink:href="#dot" transform="translate(43.375,-11.859445)" />   <use xlink:href="#dot" transform="translate(34.9775,29.456)" />   <use xlink:href="#dot" transform="translate(-149.87666,-17.49666)" />   <use xlink:href="#dot" transform="translate(121.946,21.1264)" />   <use xlink:href="#dot" transform="translate(121.956,20.4181)" />   <use xlink:href="#dot" transform="translate(121.917,20.4125)" />   <use xlink:href="#dot" transform="translate(121.917,20.4125)" />   <use xlink:href="#dot" transform="translate(121.917,20.4125)" />   <use xlink:href="#dot" transform="translate(121.84,20.2903)" />   <use xlink:href="#dot" transform="translate(121.19,23.01)" />   <use xlink:href="#dot" transform="translate(121.983,20.4186)" />   <use xlink:href="#dot" transform="translate(121.963,20.4189)" />   <use xlink:href="#dot" transform="translate(145.833,-15.816)" />   <use xlink:href="#dot" transform="translate(158.197,7.58)" />   <use xlink:href="#dot" transform="translate(158.33,5.85)" />   <use xlink:href="#dot" transform="translate(158.197,7.58)" />   <use xlink:href="#dot" transform="translate(71.75,-5.383)" />   <use xlink:href="#dot" transform="translate(32.683334,-27.516666)" />   <use xlink:href="#dot" transform="translate(-170.7247,-14.2872)" />   <use xlink:href="#dot" transform="translate(57.366665,-20.283333)" />   <use xlink:href="#dot" transform="translate(43.228542,-11.73104)" />   <use xlink:href="#dot" transform="translate(120.813,21.93)" />   <use xlink:href="#dot" transform="translate(120.829,21.9208)" />   <use xlink:href="#dot" transform="translate(-158,21.5)" />   <use xlink:href="#dot" transform="translate(55.523458,-4.739748)" />   <use xlink:href="#dot" transform="translate(47.666668,-10.083333)" />   <use xlink:href="#dot" transform="translate(127.681111,26.2125)" />   <use xlink:href="#dot" transform="translate(-172.32,-13.57)" />   <use xlink:href="#dot" transform="translate(130.2,32.46667)" />   <use xlink:href="#dot" transform="translate(121.38,23.59)" />   <use xlink:href="#dot" transform="translate(121.22,23.05)" />   <use xlink:href="#dot" transform="translate(121.38,23.59)" />   <use xlink:href="#dot" transform="translate(121.38,23.59)" /><polygon class="region" points="-174.947,-21.4292 -176.253,-13.3214 -176.246,-13.2097 -158,21.5 135.332,33.7484 158.197,7.58 179.0712,-17.122003 153.265929,-30.205489 -144.37999,-27.60166 -174.947,-21.4292 " />
		  </g>
		</svg>