<?xml version="1.0" encoding="UTF-8"?>
	<svg xmlns:xlink="http://www.w3.org/1999/xlink" 
	xmlns="http://www.w3.org/2000/svg" 
	width="360px" height="180px">
	   <style type="text/css">
		  <![CDATA[     
		  .region 
		  { 
			fill:blue; 
			opacity:0.4; 
			stroke:blue;
		  }
		  ]]>
	   </style>

	<circle id="dot" x="-2" y="-2" r="2" style="stroke:none; stroke-width:0; fill:black; opacity:0.7;"/>


	 <image x="0" y="0" width="360" height="180" xlink:href="map.jpg"/>

 
	 <g transform="translate(180,90) scale(1,-1)"><polygon class="region" points="10.055908881,5.629519992 10.466666667,5.154166667 10.429166667,5 10.787203301,4.869726902 10.852082994,4.6458475750001 11.245480007,4.6565911180001 11.245833333,4.408333333 11.491666667,4.2916666670001 11.492019992,4.1100463870001 11.35354309,3.838409255 11.028920831,3.7785112170001 10.820437452,3.9781989200001 10.45,4.016666666 10.27447052,3.811416965 10.457975261,3.3308764990001 9.9291666670001,3.2 9.649998644,3.568765937 9.9958333330001,3.725 10.064583164,3.995820279 10.31994595,4.0215418500001 10.479166667,4.391666666 10.224253336,4.5547339550001 10.069091118,4.212853325 9.779166666,4.033333333 9.588131375,4.1301662870001 9.554180569,4.543750679 9.845833333,5.020833333 9.774646675,5.310046217 10.055908881,5.629519992 " /><polygon class="region" points="4.239456177,8.3255672880001 4.3934088820001,8.000353326 4.5875,8.1875 4.8894561770001,7.988067288 5.075,8.0541666660001 5.1660993790001,7.7602895100001 5.10625,7.6375145810001 4.916666666,7.708333333 4.9868950740001,7.2603273180001 4.6382366610001,7.08660753 4.665889146,6.821879747 4.4375,6.591666666 4.2094874380001,6.419102669 3.8924999230001,6.507288456 4.0953631400001,6.497828961 4.0125,6.5541666670001 3.879166667,6.529166667 3.779784308,6.460339694 4.573862881,6.3544311520001 4.7625,6.1125 4.3563771570001,6.3702660450001 3.3723189830001,6.449437141 3.479166666,7.2333333330001 3.958333333,7.6375 4.1,8.316666667 4.239456177,8.3255672880001 " /><polygon class="region" points="7.04778951,8.2589006220001 7.1458353680001,8.218734742 6.904733955,7.67721049 6.971400621,7.38258667 6.7422756620001,7.119807603 6.6875,6.65 6.6958333330001,7.204166667 6.5046354510001,7.46875 6.695215691,7.5728398640001 6.6246466750001,7.739924452 6.054774136,7.9990865070001 7.04778951,8.2589006220001 " /><polygon class="region" points="7.545139907,5.4989274770001 8.1119110110001,4.8782484270001 8.110757786,4.554519993 7.742572361,4.6006378170001 7.799313694,4.8447787810001 7.4375,5.1041666670001 7.3755672880001,5.4147104900001 7.545139907,5.4989274770001 " /><polygon class="region" points="8.711932712,7.31471049 8.9905293780001,7.350264655 9.2547339540001,6.7757466630001 9.200013224,6.526495701 9.7333333330001,6.1166666670001 9.8991973880001,6.1534315320001 10.103813341,5.6642422150001 9.774646675,5.310046217 9.845833333,5.029166667 9.4458333330001,5.145833334 9.2375,4.925 8.8158525260001,5.5160098600001 8.2566189240001,5.6128533250001 8.1159861250001,5.079255845 8.3450981990001,4.6009026420001 8.2808810770001,4.532980007 7.997575548,4.5378533260001 8.158333333,4.6375 8.1119110110001,4.8782484270001 7.5461866590001,5.401742214 7.591666666,5.65 7.392019992,5.830908881 7.4375,6.8041666670001 7.6965416800001,7.424112617 8.711932712,7.31471049 " /><polygon class="region" points="8.3248474120001,4.560921224 8.3194444440001,4.5541666670001 8.316049025,4.5568857820001 8.3240954930001,4.5669664170001 8.3248474120001,4.560921224 " />
		  </g>
		</svg>