<?xml version="1.0" encoding="UTF-8"?>
	<svg xmlns:xlink="http://www.w3.org/1999/xlink" 
	xmlns="http://www.w3.org/2000/svg" 
	width="360px" height="180px">
	   <style type="text/css">
		  <![CDATA[     
		  .region 
		  { 
			fill:blue; 
			opacity:0.4; 
			stroke:blue;
		  }
		  ]]>
	   </style>

	<circle id="dot" x="-2" y="-2" r="2" style="stroke:none; stroke-width:0; fill:black; opacity:0.7;"/>


	 <image x="0" y="0" width="360" height="180" xlink:href="map.jpg"/>

 
	 <g transform="translate(180,90) scale(1,-1)">   <use xlink:href="#dot" transform="translate(115.662224,-8.337256)" />   <use xlink:href="#dot" transform="translate(153.390565,-29.930396)" />   <use xlink:href="#dot" transform="translate(115.595569,-8.277364)" />   <use xlink:href="#dot" transform="translate(153.391466,-29.929429)" />   <use xlink:href="#dot" transform="translate(113.956311,-21.908131)" />   <use xlink:href="#dot" transform="translate(179.0712,-17.122003)" />   <use xlink:href="#dot" transform="translate(123.688958,9.515133)" />   <use xlink:href="#dot" transform="translate(134.245555,7.270833)" />   <use xlink:href="#dot" transform="translate(152.712029,-24.110356)" />   <use xlink:href="#dot" transform="translate(152.718249,-24.115873)" />   <use xlink:href="#dot" transform="translate(120.836586,13.689114)" />   <use xlink:href="#dot" transform="translate(166.559444,-22.521389)" />   <use xlink:href="#dot" transform="translate(151.91059,-23.441433)" />   <use xlink:href="#dot" transform="translate(179.203425,-17.997433)" />   <use xlink:href="#dot" transform="translate(130.700569,-0.489401)" />   <use xlink:href="#dot" transform="translate(130.696217,-0.47605)" />   <use xlink:href="#dot" transform="translate(130.872683,-2.1045)" />   <use xlink:href="#dot" transform="translate(115.592715,-8.273648)" />   <use xlink:href="#dot" transform="translate(130.567717,-2.218933)" />   <use xlink:href="#dot" transform="translate(149.0582,-19.8083)" />   <use xlink:href="#dot" transform="translate(99.06365,7.212442)" />   <use xlink:href="#dot" transform="translate(149.0582,-19.8083)" />   <use xlink:href="#dot" transform="translate(114.234552,-21.88643)" />   <use xlink:href="#dot" transform="translate(148.9063,-20.0883)" />   <use xlink:href="#dot" transform="translate(148.9063,-20.0883)" />   <use xlink:href="#dot" transform="translate(149.1362,-19.8135)" />   <use xlink:href="#dot" transform="translate(149.0582,-19.8083)" />   <use xlink:href="#dot" transform="translate(149.1329,-19.8126)" />   <use xlink:href="#dot" transform="translate(148.9233,-20.0649)" />   <use xlink:href="#dot" transform="translate(149.1362,-19.8135)" />   <use xlink:href="#dot" transform="translate(149.1362,-19.8135)" />   <use xlink:href="#dot" transform="translate(73.366871,3.878691)" />   <use xlink:href="#dot" transform="translate(73.366871,3.878691)" />   <use xlink:href="#dot" transform="translate(149.1329,-19.8126)" />   <use xlink:href="#dot" transform="translate(149.1362,-19.8135)" />   <use xlink:href="#dot" transform="translate(149.1329,-19.8126)" />   <use xlink:href="#dot" transform="translate(179.866388,-16.970278)" />   <use xlink:href="#dot" transform="translate(119.708,15.1293)" />   <use xlink:href="#dot" transform="translate(98.374672,7.621505)" />   <use xlink:href="#dot" transform="translate(178.429312,-17.350103)" />   <use xlink:href="#dot" transform="translate(115.514313,-8.528589)" />   <use xlink:href="#dot" transform="translate(115.514313,-8.528589)" />   <use xlink:href="#dot" transform="translate(119.689102,-8.588042)" />   <use xlink:href="#dot" transform="translate(146.526367,-17.451706)" />   <use xlink:href="#dot" transform="translate(178.3639,-17.490605)" />   <use xlink:href="#dot" transform="translate(121.0979,13.540383)" />   <use xlink:href="#dot" transform="translate(121.098,13.5404)" />   <use xlink:href="#dot" transform="translate(152.3628,-23.8609)" />   <use xlink:href="#dot" transform="translate(149.1329,-19.8126)" />   <use xlink:href="#dot" transform="translate(152.4078,-23.8963)" />   <use xlink:href="#dot" transform="translate(152.3628,-23.8609)" />   <use xlink:href="#dot" transform="translate(152.3628,-23.8609)" />   <use xlink:href="#dot" transform="translate(151.7757,-23.2437)" />   <use xlink:href="#dot" transform="translate(151.0705,-23.1575)" />   <use xlink:href="#dot" transform="translate(152.3677,-23.8516)" />   <use xlink:href="#dot" transform="translate(151.8528,-23.4652)" />   <use xlink:href="#dot" transform="translate(146.4823,-18.5691)" />   <use xlink:href="#dot" transform="translate(151.6949,-23.2957)" />   <use xlink:href="#dot" transform="translate(149.1329,-19.8126)" />   <use xlink:href="#dot" transform="translate(152.4162,-23.8988)" />   <use xlink:href="#dot" transform="translate(152.4162,-23.8988)" />   <use xlink:href="#dot" transform="translate(151.6948,-23.3007)" />   <use xlink:href="#dot" transform="translate(146.4823,-18.5691)" />   <use xlink:href="#dot" transform="translate(152.3896,-23.9051)" />   <use xlink:href="#dot" transform="translate(151.7731,-23.2466)" />   <use xlink:href="#dot" transform="translate(149.0711,-19.7926)" />   <use xlink:href="#dot" transform="translate(124.122679,24.351476)" />   <use xlink:href="#dot" transform="translate(151.6949,-23.2957)" />   <use xlink:href="#dot" transform="translate(151.6966,-23.3036)" />   <use xlink:href="#dot" transform="translate(151.6966,-23.3036)" />   <use xlink:href="#dot" transform="translate(151.6966,-23.3036)" />   <use xlink:href="#dot" transform="translate(151.6949,-23.2957)" />   <use xlink:href="#dot" transform="translate(152.4162,-23.8988)" />   <use xlink:href="#dot" transform="translate(152.4162,-23.8988)" />   <use xlink:href="#dot" transform="translate(152.3936,-23.8993)" />   <use xlink:href="#dot" transform="translate(146.4823,-18.5691)" />   <use xlink:href="#dot" transform="translate(152.3972,-23.8982)" />   <use xlink:href="#dot" transform="translate(152.3936,-23.8993)" />   <use xlink:href="#dot" transform="translate(149.1362,-19.8135)" />   <use xlink:href="#dot" transform="translate(146.4823,-18.5691)" />   <use xlink:href="#dot" transform="translate(151.6966,-23.3036)" />   <use xlink:href="#dot" transform="translate(151.7731,-23.2466)" />   <use xlink:href="#dot" transform="translate(149.0711,-19.7926)" />   <use xlink:href="#dot" transform="translate(152.4078,-23.8963)" />   <use xlink:href="#dot" transform="translate(151.8528,-23.4652)" />   <use xlink:href="#dot" transform="translate(151.6948,-23.3007)" />   <use xlink:href="#dot" transform="translate(151.7731,-23.2466)" />   <use xlink:href="#dot" transform="translate(149.1362,-19.8135)" />   <use xlink:href="#dot" transform="translate(149.0711,-19.7926)" />   <use xlink:href="#dot" transform="translate(151.7731,-23.2466)" />   <use xlink:href="#dot" transform="translate(152.3936,-23.8993)" />   <use xlink:href="#dot" transform="translate(151.6948,-23.3007)" />   <use xlink:href="#dot" transform="translate(151.6948,-23.3007)" />   <use xlink:href="#dot" transform="translate(152.3628,-23.8609)" />   <use xlink:href="#dot" transform="translate(152.3936,-23.8993)" />   <use xlink:href="#dot" transform="translate(152.3645,-23.8584)" />   <use xlink:href="#dot" transform="translate(152.3645,-23.8584)" />   <use xlink:href="#dot" transform="translate(152.3677,-23.8516)" />   <use xlink:href="#dot" transform="translate(152.3896,-23.9051)" />   <use xlink:href="#dot" transform="translate(152.3677,-23.8516)" />   <use xlink:href="#dot" transform="translate(151.6949,-23.2957)" />   <use xlink:href="#dot" transform="translate(149.1362,-19.8135)" />   <use xlink:href="#dot" transform="translate(149.0788,-19.7952)" />   <use xlink:href="#dot" transform="translate(152.3972,-23.8982)" />   <use xlink:href="#dot" transform="translate(152.2889,-23.6682)" />   <use xlink:href="#dot" transform="translate(151.6949,-23.2957)" />   <use xlink:href="#dot" transform="translate(149.1329,-19.8126)" />   <use xlink:href="#dot" transform="translate(152.3972,-23.8982)" />   <use xlink:href="#dot" transform="translate(152.3645,-23.8584)" />   <use xlink:href="#dot" transform="translate(149.1329,-19.8126)" />   <use xlink:href="#dot" transform="translate(149.1362,-19.8135)" />   <use xlink:href="#dot" transform="translate(151.8528,-23.4652)" />   <use xlink:href="#dot" transform="translate(152.3645,-23.8584)" />   <use xlink:href="#dot" transform="translate(151.7757,-23.2437)" />   <use xlink:href="#dot" transform="translate(151.7232,-23.5329)" />   <use xlink:href="#dot" transform="translate(113.8184,-23.0447)" />   <use xlink:href="#dot" transform="translate(113.7523,-23.1287)" />   <use xlink:href="#dot" transform="translate(114.3769,-21.6508)" />   <use xlink:href="#dot" transform="translate(113.7625,-23.2019)" />   <use xlink:href="#dot" transform="translate(114.1695,-21.8524)" />   <use xlink:href="#dot" transform="translate(146.4568,-17.6553)" />   <use xlink:href="#dot" transform="translate(144.5002,-13.9807)" />   <use xlink:href="#dot" transform="translate(144.3855,-13.9568)" />   <use xlink:href="#dot" transform="translate(113.7792,-23.3325)" />   <use xlink:href="#dot" transform="translate(113.7792,-23.3325)" />   <use xlink:href="#dot" transform="translate(113.7943,-23.098)" />   <use xlink:href="#dot" transform="translate(114.1756,-21.8392)" />   <use xlink:href="#dot" transform="translate(146.5011,-17.5213)" />   <use xlink:href="#dot" transform="translate(146.2685,-16.7885)" />   <use xlink:href="#dot" transform="translate(145.9963,-16.9233)" />   <use xlink:href="#dot" transform="translate(145.4505,-14.6553)" />   <use xlink:href="#dot" transform="translate(144.378,-13.9606)" />   <use xlink:href="#dot" transform="translate(143.4037,-12.286)" />   <use xlink:href="#dot" transform="translate(144.4302,-10.4412)" />   <use xlink:href="#dot" transform="translate(121.598,15.8547)" />   <use xlink:href="#dot" transform="translate(113.7633,-23.2084)" />   <use xlink:href="#dot" transform="translate(114.1695,-21.8524)" />   <use xlink:href="#dot" transform="translate(113.7617,-23.1799)" />   <use xlink:href="#dot" transform="translate(113.7625,-23.2019)" />   <use xlink:href="#dot" transform="translate(146.4568,-17.6553)" />   <use xlink:href="#dot" transform="translate(146.2677,-16.7877)" />   <use xlink:href="#dot" transform="translate(144.5007,-13.9773)" />   <use xlink:href="#dot" transform="translate(113.7397,-23.092)" />   <use xlink:href="#dot" transform="translate(114.1756,-21.8392)" />   <use xlink:href="#dot" transform="translate(114.1593,-21.8665)" />   <use xlink:href="#dot" transform="translate(144.501,-13.9732)" />   <use xlink:href="#dot" transform="translate(145.4505,-14.6553)" />   <use xlink:href="#dot" transform="translate(144.4492,-10.4453)" />   <use xlink:href="#dot" transform="translate(113.7644,-22.869)" />   <use xlink:href="#dot" transform="translate(113.761,-23.1764)" />   <use xlink:href="#dot" transform="translate(113.761,-23.1764)" />   <use xlink:href="#dot" transform="translate(113.7794,-22.9288)" />   <use xlink:href="#dot" transform="translate(146.501,-17.5199)" />   <use xlink:href="#dot" transform="translate(146.2651,-16.7339)" />   <use xlink:href="#dot" transform="translate(146.2677,-16.7877)" />   <use xlink:href="#dot" transform="translate(144.4529,-10.4414)" />   <use xlink:href="#dot" transform="translate(114.1593,-21.8665)" />   <use xlink:href="#dot" transform="translate(145.9846,-16.9332)" />   <use xlink:href="#dot" transform="translate(144.4335,-10.447)" />   <use xlink:href="#dot" transform="translate(143.4023,-12.2906)" />   <use xlink:href="#dot" transform="translate(113.7794,-22.9288)" />   <use xlink:href="#dot" transform="translate(113.763,-23.2131)" />   <use xlink:href="#dot" transform="translate(113.7644,-22.869)" />   <use xlink:href="#dot" transform="translate(146.2685,-16.7885)" />   <use xlink:href="#dot" transform="translate(145.4508,-14.6571)" />   <use xlink:href="#dot" transform="translate(113.7599,-23.177)" />   <use xlink:href="#dot" transform="translate(113.7794,-22.9288)" />   <use xlink:href="#dot" transform="translate(113.7671,-23.1422)" />   <use xlink:href="#dot" transform="translate(113.763,-23.2131)" />   <use xlink:href="#dot" transform="translate(114.3908,-21.6368)" />   <use xlink:href="#dot" transform="translate(145.4485,-14.651)" />   <use xlink:href="#dot" transform="translate(145.4508,-14.6571)" />   <use xlink:href="#dot" transform="translate(113.7633,-23.2084)" />   <use xlink:href="#dot" transform="translate(113.7794,-22.9288)" />   <use xlink:href="#dot" transform="translate(143.4109,-12.2824)" />   <use xlink:href="#dot" transform="translate(113.7616,-23.1263)" />   <use xlink:href="#dot" transform="translate(113.7794,-22.9288)" />   <use xlink:href="#dot" transform="translate(113.7671,-23.1422)" />   <use xlink:href="#dot" transform="translate(114.3908,-21.6368)" />   <use xlink:href="#dot" transform="translate(114.1593,-21.8665)" />   <use xlink:href="#dot" transform="translate(146.5034,-17.5185)" />   <use xlink:href="#dot" transform="translate(146.501,-17.5199)" />   <use xlink:href="#dot" transform="translate(146.5034,-17.5185)" />   <use xlink:href="#dot" transform="translate(146.5011,-17.5213)" />   <use xlink:href="#dot" transform="translate(146.2678,-16.7296)" />   <use xlink:href="#dot" transform="translate(144.378,-13.9606)" />   <use xlink:href="#dot" transform="translate(143.4071,-12.2812)" />   <use xlink:href="#dot" transform="translate(144.4529,-10.4414)" />   <use xlink:href="#dot" transform="translate(144.4492,-10.4453)" />   <use xlink:href="#dot" transform="translate(143.4037,-12.286)" />   <use xlink:href="#dot" transform="translate(114.3908,-21.6368)" />   <use xlink:href="#dot" transform="translate(113.7943,-23.098)" />   <use xlink:href="#dot" transform="translate(113.7588,-23.1611)" />   <use xlink:href="#dot" transform="translate(146.501,-17.5199)" />   <use xlink:href="#dot" transform="translate(144.3855,-13.9568)" />   <use xlink:href="#dot" transform="translate(113.7943,-23.098)" />   <use xlink:href="#dot" transform="translate(113.7616,-23.1263)" />   <use xlink:href="#dot" transform="translate(113.7644,-22.869)" />   <use xlink:href="#dot" transform="translate(114.1695,-21.8524)" />   <use xlink:href="#dot" transform="translate(113.7807,-23.3192)" />   <use xlink:href="#dot" transform="translate(143.4109,-12.2824)" />   <use xlink:href="#dot" transform="translate(113.7556,-23.1214)" />   <use xlink:href="#dot" transform="translate(113.7943,-23.098)" />   <use xlink:href="#dot" transform="translate(114.3908,-21.6368)" />   <use xlink:href="#dot" transform="translate(114.1778,-21.8363)" />   <use xlink:href="#dot" transform="translate(114.1778,-21.8363)" />   <use xlink:href="#dot" transform="translate(146.4568,-17.6553)" />   <use xlink:href="#dot" transform="translate(144.378,-13.9606)" />   <use xlink:href="#dot" transform="translate(145.6632,-14.6645)" />   <use xlink:href="#dot" transform="translate(113.7792,-23.3325)" />   <use xlink:href="#dot" transform="translate(113.7644,-22.869)" />   <use xlink:href="#dot" transform="translate(113.764,-23.1776)" />   <use xlink:href="#dot" transform="translate(113.7617,-23.1799)" />   <use xlink:href="#dot" transform="translate(146.2685,-16.7885)" />   <use xlink:href="#dot" transform="translate(143.4023,-12.2906)" />   <use xlink:href="#dot" transform="translate(113.7671,-23.1422)" />   <use xlink:href="#dot" transform="translate(113.7792,-23.3325)" />   <use xlink:href="#dot" transform="translate(146.5034,-17.5185)" />   <use xlink:href="#dot" transform="translate(145.9846,-16.9332)" />   <use xlink:href="#dot" transform="translate(145.9996,-16.9921)" />   <use xlink:href="#dot" transform="translate(113.7523,-23.1287)" />   <use xlink:href="#dot" transform="translate(113.7404,-23.135)" />   <use xlink:href="#dot" transform="translate(113.761,-23.1764)" />   <use xlink:href="#dot" transform="translate(113.7644,-22.869)" />   <use xlink:href="#dot" transform="translate(114.1695,-21.8524)" />   <use xlink:href="#dot" transform="translate(113.7617,-23.1799)" />   <use xlink:href="#dot" transform="translate(145.6632,-14.6645)" />   <use xlink:href="#dot" transform="translate(114.1593,-21.8665)" />   <use xlink:href="#dot" transform="translate(146.2712,-16.7839)" />   <use xlink:href="#dot" transform="translate(143.4071,-12.2812)" />   <use xlink:href="#dot" transform="translate(124.79158,1.614291)" />   <use xlink:href="#dot" transform="translate(113.7635,-23.2)" />   <use xlink:href="#dot" transform="translate(113.7943,-23.098)" />   <use xlink:href="#dot" transform="translate(113.7616,-23.1263)" />   <use xlink:href="#dot" transform="translate(113.7556,-23.1214)" />   <use xlink:href="#dot" transform="translate(114.1756,-21.8392)" />   <use xlink:href="#dot" transform="translate(113.7556,-23.1214)" />   <use xlink:href="#dot" transform="translate(145.9963,-16.9233)" />   <use xlink:href="#dot" transform="translate(144.5007,-13.9773)" />   <use xlink:href="#dot" transform="translate(113.7556,-23.1214)" />   <use xlink:href="#dot" transform="translate(113.7635,-23.2)" />   <use xlink:href="#dot" transform="translate(113.7523,-23.1287)" />   <use xlink:href="#dot" transform="translate(113.761,-23.1764)" />   <use xlink:href="#dot" transform="translate(113.7599,-23.177)" />   <use xlink:href="#dot" transform="translate(113.7635,-23.2)" />   <use xlink:href="#dot" transform="translate(113.7635,-23.2)" />   <use xlink:href="#dot" transform="translate(113.7807,-23.3192)" />   <use xlink:href="#dot" transform="translate(143.403,-12.2809)" />   <use xlink:href="#dot" transform="translate(113.7599,-23.177)" />   <use xlink:href="#dot" transform="translate(113.7671,-23.1422)" />   <use xlink:href="#dot" transform="translate(114.1778,-21.8363)" />   <use xlink:href="#dot" transform="translate(146.5011,-17.5213)" />   <use xlink:href="#dot" transform="translate(113.7397,-23.092)" />   <use xlink:href="#dot" transform="translate(113.7633,-23.2084)" />   <use xlink:href="#dot" transform="translate(114.1756,-21.8392)" />   <use xlink:href="#dot" transform="translate(144.3855,-13.9568)" />   <use xlink:href="#dot" transform="translate(143.4109,-12.2824)" />   <use xlink:href="#dot" transform="translate(113.7792,-23.3325)" />   <use xlink:href="#dot" transform="translate(113.7397,-23.092)" />   <use xlink:href="#dot" transform="translate(113.7794,-22.9288)" />   <use xlink:href="#dot" transform="translate(113.7599,-23.177)" />   <use xlink:href="#dot" transform="translate(145.4505,-14.6553)" />   <use xlink:href="#dot" transform="translate(144.4492,-10.4453)" />   <use xlink:href="#dot" transform="translate(113.7807,-23.3192)" />   <use xlink:href="#dot" transform="translate(113.7943,-23.098)" />   <use xlink:href="#dot" transform="translate(113.7599,-23.177)" />   <use xlink:href="#dot" transform="translate(113.7599,-23.177)" />   <use xlink:href="#dot" transform="translate(146.5034,-17.5185)" />   <use xlink:href="#dot" transform="translate(144.5007,-13.9773)" />   <use xlink:href="#dot" transform="translate(143.4037,-12.286)" />   <use xlink:href="#dot" transform="translate(113.7556,-23.1214)" />   <use xlink:href="#dot" transform="translate(113.7588,-23.1611)" />   <use xlink:href="#dot" transform="translate(113.7588,-23.1611)" />   <use xlink:href="#dot" transform="translate(146.2685,-16.7885)" />   <use xlink:href="#dot" transform="translate(145.6632,-14.6645)" />   <use xlink:href="#dot" transform="translate(145.4505,-14.6553)" />   <use xlink:href="#dot" transform="translate(144.4529,-10.4414)" />   <use xlink:href="#dot" transform="translate(113.7792,-23.3325)" />   <use xlink:href="#dot" transform="translate(145.6632,-14.6645)" />   <use xlink:href="#dot" transform="translate(144.378,-13.9606)" />   <use xlink:href="#dot" transform="translate(143.4109,-12.2824)" />   <use xlink:href="#dot" transform="translate(113.7633,-23.2084)" />   <use xlink:href="#dot" transform="translate(113.7616,-23.1263)" />   <use xlink:href="#dot" transform="translate(114.3908,-21.6368)" />   <use xlink:href="#dot" transform="translate(113.7523,-23.1287)" />   <use xlink:href="#dot" transform="translate(145.9996,-16.9921)" />   <use xlink:href="#dot" transform="translate(144.3855,-13.9568)" />   <use xlink:href="#dot" transform="translate(113.7616,-23.1263)" />   <use xlink:href="#dot" transform="translate(114.1593,-21.8665)" />   <use xlink:href="#dot" transform="translate(113.7635,-23.2)" />   <use xlink:href="#dot" transform="translate(144.4302,-10.4412)" />   <use xlink:href="#dot" transform="translate(113.7625,-23.2019)" />   <use xlink:href="#dot" transform="translate(113.7588,-23.1611)" />   <use xlink:href="#dot" transform="translate(146.4568,-17.6553)" />   <use xlink:href="#dot" transform="translate(113.7807,-23.3192)" />   <use xlink:href="#dot" transform="translate(113.7635,-23.2)" />   <use xlink:href="#dot" transform="translate(114.1695,-21.8524)" />   <use xlink:href="#dot" transform="translate(113.7397,-23.092)" />   <use xlink:href="#dot" transform="translate(146.2651,-16.7339)" />   <use xlink:href="#dot" transform="translate(144.5007,-13.9773)" /><polygon class="region" points="113.7792,-23.3325 73.366871,3.878691 124.122679,24.351476 179.866388,-16.970278 179.203425,-17.997433 153.390565,-29.930396 113.7792,-23.3325 " />
		  </g>
		</svg>