<?xml version="1.0" encoding="UTF-8"?>
	<svg xmlns:xlink="http://www.w3.org/1999/xlink" 
	xmlns="http://www.w3.org/2000/svg" 
	width="360px" height="180px">
	   <style type="text/css">
		  <![CDATA[     
		  .region 
		  { 
			fill:blue; 
			opacity:0.4; 
			stroke:blue;
		  }
		  ]]>
	   </style>

	<circle id="dot" x="-2" y="-2" r="2" style="stroke:none; stroke-width:0; fill:black; opacity:0.7;"/>


	 <image x="0" y="0" width="360" height="180" xlink:href="map.jpg"/>

 
	 <g transform="translate(180,90) scale(1,-1)"><polygon class="region" points="-6.1574713819999,11.413307699 -5.916666667,11.316666667 -5.8440911189999,11.096186659 -5.358333333,11.0125 -5.3,10.791666667 -5.640767076,10.586838786 -5.783333333,10.220833333 -6.0791666659999,10.2375 -6.2625,9.4 -6.5857577849999,9.2336866590001 -6.7125,9.4291666670001 -6.9367916529999,9.35505405 -7.0954789899999,9.614953105 -6.654804484,10.042572361 -6.711897108,10.436470541 -6.4670216869999,10.497546387 -6.5079800079999,10.669091119 -6.333333334,10.841666667 -6.4458333339999,11.125 -6.9416666659999,10.8125 -7.093622844,10.125567288 -7.3423094,10.683655124 -7.075,11.2375 -6.572575548,11.187853326 -6.1574713819999,11.413307699 " /><polygon class="region" points="-13.267290243,11.771742588 -13.13125,11.350395881 -12.404166666,11.5375 -12.227951728,11.357766045 -11.862613932,11.332174513 -11.845833334,11.083333333 -11.634270562,11.192233954 -11.410043165,11.099641927 -11.325461833,10.552074517 -11.540983412,10.607499525 -11.58802948,10.465514798 -11.408083089,10.142542182 -11.752837965,9.992271762 -11.863334486,9.7497558600001 -12.132688734,9.750903829 -12.270833334,9.9208333330001 -12.117128499,10.360425483 -12.250899591,10.807672119 -12.486791653,10.86994595 -12.755908881,10.617019992 -13.019091119,10.754519993 -12.983333333,11.054166667 -13.18971049,10.942233955 -13.454166667,11.275 -13.48333469,11.68959927 -13.267290243,11.771742588 " /><polygon class="region" points="-5.001956176,11.011932712 -4.795833333,10.791666667 -4.479790242,10.965757582 -4.095833334,10.308333333 -4.13005405,10.088208516 -4.42848036,9.9906122850001 -4.5708333339999,9.716666667 -5.220833333,10.95 -5.001956176,11.011932712 " /><polygon class="region" points="-12.306591118,13.379519992 -12.088637288,13.300264655 -12.036932712,12.97278951 -11.776742215,12.708686659 -12.444465468,12.532715861 -12.592062717,12.89069892 -13.228498162,13.013449436 -12.306591118,13.379519992 " /><polygon class="region" points="-10.642284139,10.106326972 -10.470833334,9.6083333340001 -10.5125,9.291666666 -10.732118395,9.078599379 -10.661882527,9.311132134 -10.928704834,9.722925483 -10.816666667,10.2375 -10.642284139,10.106326972 " /><polygon class="region" points="-13.617517599,10.407482571 -13.482980007,10.297546387 -13.622549439,9.95452084 -14.061932712,10.031122843 -14.023257785,10.170480008 -13.800812276,10.107874214 -13.617517599,10.407482571 " /><polygon class="region" points="-14.014456176,10.107766046 -14.016338195,10.106079445 -14.004166667,10.1 -14.005017429,10.103315904 -14.014456176,10.107766046 " /><polygon class="region" points="-14.020833334,10.108333334 -14.021714274,10.111765883 -14.027205987,10.112617762 -14.022518939,10.10824265 -14.020833334,10.108333334 " /><polygon class="region" points="-14.019531928,10.012490167 -14.020424184,10.009884191 -14.016545597,10.014671703 -14.019531928,10.012490167 " /><polygon class="region" points="-14.012695086,10.01126297 -14.012964122,10.010531758 -14.012652588,10.010921224 -14.012695086,10.01126297 " /><polygon class="region" points="-11.056326972,10.504784139 -10.804733955,10.276956177 -11.100937229,10.153599379 -11.254166667,10.325 -11.056326972,10.504784139 " /><polygon class="region" points="-13.087146674,12.914242215 -12.592062717,12.89069892 -12.444465468,12.532715861 -11.977424452,12.707980007 -11.704166667,12.616666667 -11.771617296,12.417422147 -12.008900621,12.392413331 -11.708686659,11.956591118 -11.7875,11.616666666 -12.213464016,11.358984036 -12.404166666,11.5375 -12.909293619,11.325807698 -13.174344041,11.380126445 -13.195833334,11.758333333 -12.495833333,12.170833333 -12.529562717,12.357365587 -12.854166666,12.325 -12.8625,12.691666667 -13.229166667,12.766666667 -13.219982401,13.011649238 -13.087146674,12.914242215 " /><polygon class="region" points="-12.408686659,10.839924452 -12.195266046,10.627951728 -12.21755405,10.213208347 -12.841666666,10.441666667 -12.90144789,9.7368572660001 -13.294982401,9.6841842650001 -13.407766045,10.040451728 -13.61154853,9.992314317 -13.42721049,10.641099379 -12.989567397,10.754168023 -12.755908881,10.617019992 -12.408686659,10.839924452 " /><polygon class="region" points="-6.467435031,11.136528185 -6.333333334,10.841666667 -6.5079800079999,10.669091119 -6.4670216869999,10.497546387 -6.711897108,10.436470541 -6.654804484,10.042572361 -7.0980438239999,9.6380672880001 -7.212853326,9.7308795500001 -6.996400621,10.709079996 -6.467435031,11.136528185 " /><polygon class="region" points="-11.435075548,10.453813341 -11.100937229,10.153599379 -10.816666667,10.233333333 -10.925,9.6625 -11.154166667,9.8708333330001 -11.417557101,9.5381968180001 -11.625937229,9.688067287 -11.820833334,9.475 -11.925,9.6166666670001 -12.174112616,9.559041849 -11.408083089,10.142542182 -11.545480008,10.414242214 -11.435075548,10.453813341 " /><polygon class="region" points="-6.468408881,11.503813341 -6.2875,11.4125 -6.572575548,11.187853326 -7.075,11.2375 -6.983333333,11.404166667 -6.468408881,11.503813341 " />
		  </g>
		</svg>