<?xml version="1.0" encoding="UTF-8"?>
	<svg xmlns:xlink="http://www.w3.org/1999/xlink" 
	xmlns="http://www.w3.org/2000/svg" 
	width="360px" height="180px">
	   <style type="text/css">
		  <![CDATA[     
		  .region 
		  { 
			fill:blue; 
			opacity:0.4; 
			stroke:blue;
		  }
		  ]]>
	   </style>

	<circle id="dot" x="-2" y="-2" r="2" style="stroke:none; stroke-width:0; fill:black; opacity:0.7;"/>


	 <image x="0" y="0" width="360" height="180" xlink:href="map.jpg"/>

 
	 <g transform="translate(180,90) scale(1,-1)"><polygon class="region" points="26.95744595,-14.821541849 27.233333334,-14.870833333 27.070833333,-15.204166667 27.275120902,-15.697481024 27.7125,-15.5375 27.930303955,-15.729431152 28.475,-15.504166666 28.845833333,-15.670833333 28.916666667,-15.945833333 28.433333333,-16.158333333 28.198257785,-15.950353326 27.991666667,-16 28.066666667,-16.254166667 27.490779283,-15.767375013 27.291395794,-15.772969279 27.482980007,-16.431591119 27.239924452,-16.782980008 26.817517599,-16.825850932 26.874646675,-17.039924452 26.646186659,-17.389242215 26.925,-17.983333333 26.485417006,-18.479152425 26.225,-18.558333334 26.204166667,-18.725 25.820833334,-18.870833333 25.919906955,-19.007406955 25.354166667,-19.6 25.292019993,-19.789924452 25.446362983,-19.919892544 25.108900621,-20.610543824 25.47721049,-20.745266046 25.590920003,-20.424432712 25.813117472,-20.591197544 25.767507596,-20.850274658 25.95,-20.941666666 25.7625,-21.025 25.762853326,-21.264924452 26.329166667,-22.020833333 26.144696214,-21.949735514 26.116666667,-21.958333333 26.006377157,-21.921400621 25.945833333,-21.925 26.24778951,-22.232766046 26.565770297,-22.271507094 26.370833333,-22.5125 26.031377157,-22.233900621 24.892881605,-22.179733954 24.463464186,-21.994868977 24.271400621,-21.748043823 24.258333333,-21.258333334 24.083333334,-21.2375 24.361584303,-20.988098484 24.072045898,-21.095907932 23.917233955,-20.859548272 23.709079996,-20.975567288 23.213268365,-20.840695021 23.063067288,-20.71471049 23.116270616,-20.521801079 22.853697374,-20.424382358 22.983333333,-20.591666667 22.85744595,-20.761791483 22.405908882,-20.928813341 22.829733954,-20.117881605 22.449291484,-19.11755405 22.246684265,-19.244982571 22.195833334,-19.008333334 21.717327881,-18.703267076 21.944946967,-18.57993927 20.765767076,-18.292327881 20.305017598,-18.336649068 20.503637187,-18.014418538 20.2625,-17.933333333 20.18125,-18.16248542 19.467460801,-18.371627469 19.429166667,-18.616666667 19.056122843,-18.666099379 18.591666667,-18.2125 18.5625,-18.025 18.8125,-18.020833333 18.9,-17.854166666 18.450907559,-17.769925944 18.050244141,-17.350834487 17.958333333,-17.445833333 17.820833333,-17.108333333 17.482766045,-16.846579996 17.731258816,-16.646295166 18.004166667,-17.016666667 18.249013773,-17.04511617 18.441666667,-16.616666667 18.770833333,-16.470833333 18.949646674,-16.597575548 18.909135946,-16.932598199 19.373290338,-17.067024739 20.104872301,-17.761692979 20.783333333,-18.020833333 20.770833333,-17.891666667 21.21912028,-17.824646675 21.45911221,-17.978468832 23.0875,-18.154166667 23.094982571,-17.980017598 22.742327881,-17.896732924 23.288117472,-17.867666287 22.560075548,-17.682980008 22.513415527,-17.603523763 23.636590915,-17.716043091 24.0375,-17.470833333 23.971667819,-17.174755859 24.409248861,-16.92019043 24.283333333,-17.2625 24.778315735,-17.346684096 24.996507094,-17.661582778 25.482120769,-17.491592068 25.873785061,-17.567233955 26.2375,-17.3125 26.350899591,-16.788161214 26.614242214,-16.629519993 26.770833334,-16.725 26.970124987,-16.515779284 27.095833333,-15.975 26.7,-16.279166667 26.808333334,-16.025 26.616137187,-15.73655938 26.658333333,-15.3625 26.370833333,-15.183333333 26.491666666,-14.904166667 26.95744595,-14.821541849 " /><polygon class="region" points="24.733688185,-19.910047743 24.733333333,-19.916666667 24.7625,-19.891666667 24.75,-19.891666667 24.733688185,-19.910047743 " /><polygon class="region" points="19.1375,-18.2 19.15,-18.2 19.15,-18.191666666 19.1375,-18.191666666 19.1375,-18.2 " /><polygon class="region" points="29.206377157,-8.1339006219999 29.450264486,-8.251137119 29.491666667,-8.533333333 28.871630904,-9.1195490919999 29.130908882,-9.5246466739999 29.316313341,-9.3357577859999 29.238415527,-9.133931817 29.475,-9.145833334 29.748284234,-9.333686659 30.079166666,-9.216666666 30.280908881,-9.4121466739999 30.575,-9.3333333329999 30.745480007,-9.455908881 30.666666667,-9.7 30.97991333,-9.675567288 31.356591119,-9.083686659 31.830075921,-9.4452097569999 32.424149068,-9.630017429 32.415763177,-9.8243543839999 32.233333333,-9.970833334 31.604166667,-9.8208333329999 31.259184096,-9.9258509319999 31.1,-10.9 30.904166666,-10.604166666 30.711649069,-11.228315905 30.325459798,-11.514571804 30.482980008,-11.576742214 30.405017599,-11.740815905 31.049002415,-12.121510485 31.103813341,-12.377424452 30.8625,-12.95 30.536705865,-12.484127469 30.170833333,-12.575 30.130908881,-12.450353326 29.449149237,-13.307482571 28.793408881,-13.450353326 28.543877156,-13.720266046 28.141666667,-13.570833334 27.742634413,-13.817062717 27.778159926,-13.93668891 27.476956177,-13.999432712 27.437249756,-13.380042182 27.6,-13.1375 27.486932712,-12.59778951 27.331591119,-12.342019992 26.9,-12.216666667 27.041313341,-11.589242214 26.741666667,-11.129166667 26.945480008,-11.039242215 26.645266045,-10.832396104 26.963408067,-10.554794481 27.384548272,-10.541099379 27.741666666,-10.829166667 27.512853326,-10.893408881 27.458686659,-11.106591119 27.578813341,-11.156591119 27.208347235,-11.527082655 27.229790242,-11.782424249 27.651956177,-12.286932712 27.8,-12.270833334 28.235075548,-11.558686659 28.561649068,-11.494982571 28.487858073,-11.222542995 28.774149068,-10.984184096 28.45,-10.708333333 28.154166667,-10.695833333 28.558333334,-10.308333333 28.23811832,-10.21767256 28.583333334,-10.029166667 28.645480008,-9.785075548 28.2375,-9.304166666 27.971663073,-9.3576171879999 27.888167996,-9.238312446 28.529166667,-8.7666666659999 28.78528951,-8.350567288 29.206377157,-8.1339006219999 " /><polygon class="region" points="28.813609145,-8.570649889 28.823242354,-8.5753704639999 28.8625,-8.5041666669999 28.817517598,-8.5550175979999 28.813609145,-8.570649889 " /><polygon class="region" points="28.489997864,-9.4038629529999 28.504166667,-9.4291666669999 28.5032803,-9.3716057669999 28.4908638,-9.390283584 28.489997864,-9.4038629529999 " /><polygon class="region" points="29.726837159,-11.433042526 29.686546736,-11.438631192 29.719091119,-11.445480008 29.762388978,-11.402203217 29.726837159,-11.433042526 " /><polygon class="region" points="29.821400622,-12.131122843 29.82065385,-12.136775837 29.842205686,-12.124805535 29.829166667,-12.120833333 29.821400622,-12.131122843 " /><polygon class="region" points="28.527179718,-9.52859211 28.514924452,-9.512853325 28.507736169,-9.5122898989999 28.514560699,-9.5233411789999 28.527179718,-9.52859211 " /><polygon class="region" points="30.954166666,-10.15 30.9625,-10.15 30.954166666,-10.1375 30.954166666,-10.145833333 30.954166666,-10.15 " /><polygon class="region" points="15.182419841,-16.56310747 16.03404185,-17.486612616 16.483333333,-17.316666666 16.740931193,-17.445033434 16.125802612,-17.617401801 16.08971049,-17.882766045 15.929827881,-17.759232923 15.758333333,-18.204166666 14.758333333,-17.820833333 14.59369829,-17.920190429 13.113350762,-17.682482571 13.5625,-17.3375 13.370833333,-17.141666667 13.416666666,-16.820833333 13.525,-17.0875 14.007118395,-17.121400622 14.249986098,-17.027082655 14.03005405,-16.738208516 14.829166667,-16.9625 15.0375,-16.904166666 15.182419841,-16.56310747 " /><polygon class="region" points="15.595833333,-18 15.538350762,-18.065815735 15.691666666,-18.141666667 15.7125,-18.0875 15.595833333,-18 " /><polygon class="region" points="23.873959011,-13.871542698 23.917360094,-14.069787597 24.299200101,-14.163253614 24.326918369,-14.31197052 24.738067288,-14.355381605 24.441049533,-14.594922384 24.216099378,-14.553207058 24.329166667,-14.8125 25.311770969,-15.300729031 25.199082777,-15.532740614 24.733333333,-15.4875 25.040416802,-15.904151408 24.21567315,-14.838192071 23.9625,-14.979166667 23.528262668,-14.77564443 23.254970296,-14.846562704 23.004628499,-15.064574517 23.121400622,-15.459548272 22.972916667,-15.478698052 22.78671858,-15.192400445 22.563493517,-15.182641263 22.632980007,-14.968408881 22.378505452,-14.709232924 21.854166667,-14.533333334 22.179166667,-14.4625 22.1467453,-14.284099833 22.53971049,-14.271400621 22.825,-14.433333334 22.90221049,-14.732766045 23.095159234,-14.578168064 23.135075548,-14.250353326 23.361362711,-14.304431322 23.679166667,-14.120833333 23.622083198,-13.950177341 23.873959011,-13.871542698 " /><polygon class="region" points="16.54380171,-12.463142734 16.603813341,-14.60587955 16.896720717,-15.195124987 17.320833334,-15.5625 16.89661594,-15.495173815 16.283333333,-15.016666667 16.199646674,-14.285075548 16.008999464,-14.032477824 16.179166667,-13.179166667 16.045303853,-12.644892544 16.333333334,-12.591666667 16.439242215,-12.379519992 16.54380171,-12.463142734 " /><polygon class="region" points="21.480273099,-11.420536635 21.929434204,-11.774051582 21.3125,-11.941666666 20.858333334,-11.591666667 21.011811998,-11.915857103 20.7625,-12.075 20.708333333,-11.8375 20.154166666,-11.666666667 19.599013604,-12.015949504 19.342327881,-11.953267076 19.58528951,-11.654733955 20.297329033,-11.354179891 20.815503439,-11.575365872 21.480273099,-11.420536635 " /><polygon class="region" points="15.766099379,-14.493622843 15.895833334,-14.5125 15.933333334,-14.9125 15.155908882,-16.012146675 15.250567288,-15.30758667 15.125,-15.0375 14.879521688,-14.99412028 15.053813341,-14.831591119 14.946362983,-14.735251702 15.766099379,-14.493622843 " /><polygon class="region" points="23.229166667,-12.841666666 22.838350932,-13.340815904 23.339583334,-13.424603949 23.920225864,-13.075913493 23.991666667,-13.6875 24.262146675,-13.676742215 24.337146674,-14.177424452 23.917360094,-14.069787597 23.889583334,-13.875606113 23.63528951,-13.942233955 23.611132134,-14.171450975 23.0375,-14.3375 23.145157878,-14.444914076 22.90221049,-14.732766045 22.825,-14.433333334 22.53971049,-14.271400621 22.1467453,-14.284099833 22.154166667,-14.483333334 21.875850932,-14.492517599 22.407373555,-14.733989291 22.632980007,-14.968408881 22.563493517,-15.182641263 22.78671858,-15.192400445 22.950905694,-15.474362182 23.120141262,-15.469903565 23.004628499,-15.064574517 23.254970296,-14.846562704 23.528262668,-14.77564443 23.9625,-14.979166667 24.21567315,-14.838192071 24.583333333,-15.225 24.787853326,-15.735757786 25.040416802,-15.904151408 24.733333333,-15.4875 25.307766045,-15.448043823 25.631122844,-14.479733955 26.345833334,-14.6 26.241666667,-14.095833334 26.8625,-14.033333334 26.909127469,-13.859127469 27.031591119,-13.920480007 27.45,-13.604166667 27.408333333,-13.933333333 27.6,-14.008333334 28.141666667,-13.570833334 28.6625,-13.804166666 28.658333333,-13.941666667 28.292327881,-14.105066258 28.2,-14.375 28.329166667,-14.420833333 28.366666667,-14.508333334 28.0375,-14.816666667 28.295833333,-15.066666666 28.262858073,-15.414957004 28.445225864,-15.515753174 27.930303955,-15.729431152 27.7125,-15.5375 27.275120902,-15.697481024 27.070833333,-15.204166667 27.233333334,-14.870833333 26.491666666,-14.904166667 26.370833333,-15.183333333 26.658333333,-15.3625 26.616137187,-15.73655938 26.808333334,-16.025 26.529166667,-16.391666666 26.599645148,-16.639953783 26.3125,-16.8375 26.2375,-17.3125 25.873785061,-17.567233955 25.482120769,-17.491592068 25.000999281,-17.662982177 24.778315735,-17.346684096 24.283333333,-17.2625 24.43130171,-16.921476237 23.9625,-17.208333334 23.877424452,-17.037853326 23.563117472,-17.022993639 23.2906545,-16.421451484 22.366666666,-16.358333334 21.909301079,-16.057937453 21.858333334,-15.6875 21.554166666,-15.529166666 21.100631714,-14.924006145 20.883333334,-14.558333334 20.958333334,-14.433333334 20.238173761,-13.982436964 20.075,-13.554166667 19.65,-13.183333334 20.430908881,-13.503813341 21.070833333,-13.458333333 21.665509373,-13.249258762 21.46028951,-12.929733955 22.645833334,-13.058333333 22.620833333,-12.879166666 23.229166667,-12.841666666 " /><polygon class="region" points="26.160790168,-15.841308594 26.172575548,-15.825353325 26.204152933,-15.814582655 26.158333333,-15.8125 26.160790168,-15.841308594 " /><polygon class="region" points="31.61471049,-9.8255672879999 32.290770298,-9.9881737599999 32.595364549,-10.264583334 32.058333333,-10.725 31.745480008,-11.556591119 31.621188694,-11.539213731 31.3,-12.2375 31.101742214,-12.316313341 30.865663655,-11.967270575 30.405017599,-11.740815905 30.482980008,-11.576742214 30.325459798,-11.514571804 30.711649069,-11.228315905 30.904166666,-10.604166666 31.1,-10.9 31.250567288,-9.939456176 31.61471049,-9.8255672879999 " /><polygon class="region" points="27.791099379,-10.56028951 28.45,-10.708333333 28.7875,-11.041666666 28.487858073,-11.222542995 28.561649068,-11.494982571 28.235075548,-11.558686659 28.053432719,-11.953271824 27.658333334,-12.2875 27.229790242,-11.782424249 27.208347235,-11.527082655 27.578813341,-11.156591119 27.458686659,-11.106591119 27.512853326,-10.893408881 27.7375,-10.8625 27.483691406,-10.560043166 27.791099379,-10.56028951 " /><polygon class="region" points="13.391099379,-16.77278951 13.370833333,-17.141666667 13.5625,-17.3375 13.105303955,-17.683597819 12.704166667,-17.55 12.654166667,-17.266666667 12.358333334,-17.229166667 12.466313341,-17.689242215 12.433333333,-17.770833333 12.179166667,-17.333333333 11.758974542,-17.282516818 11.925,-17.0375 12.567615255,-17.09610087 13.391099379,-16.77278951 " /><polygon class="region" points="14.898257786,-15.000353326 15.125,-15.0375 15.250567288,-15.30758667 15.1375,-16 15.404166667,-15.875 15.5875,-15.504166666 15.304164632,-16.52756958 15.091666667,-16.641666667 15.0375,-16.904166666 14.806620449,-16.962853326 14.625,-16.558333333 14.974646674,-16.564924452 14.975567288,-15.574062771 14.881622653,-15.358692084 14.316666666,-15.291666667 14.898257786,-15.000353326 " /><polygon class="region" points="30.167517598,-12.574149069 30.494091119,-12.458686659 30.758333334,-12.679166667 30.754166667,-12.9125 30.608333333,-13.083333334 30.442517599,-13.021684095 30.279166667,-13.270833333 29.643408882,-13.437146674 29.583900621,-13.13528951 29.833333334,-12.7125 30.130908881,-12.450353326 30.167517598,-12.574149069 " /><polygon class="region" points="17.886590745,-14.646456909 18.129166667,-15.370833334 17.854166666,-16.170833333 18.145833334,-17.058333333 17.570833333,-16.591666667 17.582980007,-15.905908881 17.200623575,-15.561590915 17.420833333,-15.408333334 17.534184095,-15.757482571 17.833333333,-15.620833333 17.886590745,-14.646456909 " /><polygon class="region" points="26.643877156,-10.867233955 26.945480008,-11.039242215 26.741666667,-11.129166667 27.041313341,-11.589242214 26.85,-11.995833333 26.508333333,-11.95 26.3375,-11.504166666 26.34202067,-10.985047064 26.643877156,-10.867233955 " /><polygon class="region" points="20.357766045,-17.964456177 20.483333334,-17.95 20.479152086,-18.164583333 19.949149068,-18.799149068 19.860543823,-18.633900621 19.45,-18.595833334 19.467460801,-18.371627469 20.18125,-18.16248542 20.357766045,-17.964456177 " /><polygon class="region" points="29.325,-8.795833333 29.166666666,-9.079166667 29.316313341,-9.3357577859999 29.147575548,-9.532980008 28.871630904,-9.1195490919999 29.325,-8.795833333 " />
		  </g>
		</svg>