<?xml version="1.0" encoding="UTF-8"?>
	<svg xmlns:xlink="http://www.w3.org/1999/xlink" 
	xmlns="http://www.w3.org/2000/svg" 
	width="360px" height="180px">
	   <style type="text/css">
		  <![CDATA[     
		  .region 
		  { 
			fill:blue; 
			opacity:0.4; 
			stroke:blue;
		  }
		  ]]>
	   </style>

	<circle id="dot" x="-2" y="-2" r="2" style="stroke:none; stroke-width:0; fill:black; opacity:0.7;"/>


	 <image x="0" y="0" width="360" height="180" xlink:href="map.jpg"/>

 
	 <g transform="translate(180,90) scale(1,-1)">   <use xlink:href="#dot" transform="translate(18.756333,-13.773611)" />   <use xlink:href="#dot" transform="translate(19.044917,-13.135861)" />   <use xlink:href="#dot" transform="translate(18.893889,-13.089972)" />   <use xlink:href="#dot" transform="translate(19.120944,-16.052458)" />   <use xlink:href="#dot" transform="translate(22.485833,-18.979444)" />   <use xlink:href="#dot" transform="translate(20.062056,-17.511306)" />   <use xlink:href="#dot" transform="translate(19.534611,-17.048722)" />   <use xlink:href="#dot" transform="translate(20.060861,-17.513028)" />   <use xlink:href="#dot" transform="translate(20.064389,-17.514778)" />   <use xlink:href="#dot" transform="translate(23.189083,-17.534556)" />   <use xlink:href="#dot" transform="translate(24.389444,-17.543056)" />   <use xlink:href="#dot" transform="translate(30.25495,-11.968)" />   <use xlink:href="#dot" transform="translate(19.19425,-15.171222)" />   <use xlink:href="#dot" transform="translate(30.855,-12.204722)" />   <use xlink:href="#dot" transform="translate(22.251073,-14.53591)" />   <use xlink:href="#dot" transform="translate(30.228028,-11.938111)" />   <use xlink:href="#dot" transform="translate(30.25495,-11.968)" />   <use xlink:href="#dot" transform="translate(24.5225,-17.543167)" />   <use xlink:href="#dot" transform="translate(21.896222,-18.430361)" />   <use xlink:href="#dot" transform="translate(28.085833,-15.751944)" />   <use xlink:href="#dot" transform="translate(28.087222,-15.761667)" />   <use xlink:href="#dot" transform="translate(21.896222,-18.430361)" />   <use xlink:href="#dot" transform="translate(21.896222,-18.430361)" />   <use xlink:href="#dot" transform="translate(21.896111,-18.430278)" />   <use xlink:href="#dot" transform="translate(21.896111,-18.430278)" />   <use xlink:href="#dot" transform="translate(21.896111,-18.430278)" />   <use xlink:href="#dot" transform="translate(29.8472,-12.1156)" />   <use xlink:href="#dot" transform="translate(29.847099,-12.1155)" />   <use xlink:href="#dot" transform="translate(25.7,-17.7833)" />   <use xlink:href="#dot" transform="translate(25.7,-17.7833)" />   <use xlink:href="#dot" transform="translate(23.163056,-19.561944)" />   <use xlink:href="#dot" transform="translate(22.385278,-18.961389)" />   <use xlink:href="#dot" transform="translate(25.796944,-17.882778)" />   <use xlink:href="#dot" transform="translate(24.341944,-14.958333)" />   <use xlink:href="#dot" transform="translate(22.934722,-15.185278)" />   <use xlink:href="#dot" transform="translate(23.292778,-16.090556)" />   <use xlink:href="#dot" transform="translate(23.27,-16.087778)" />   <use xlink:href="#dot" transform="translate(22.940556,-15.166667)" />   <use xlink:href="#dot" transform="translate(28.356667,-12.847222)" />   <use xlink:href="#dot" transform="translate(22.865278,-15.143056)" />   <use xlink:href="#dot" transform="translate(22.927778,-15.203056)" />   <use xlink:href="#dot" transform="translate(22.900556,-15.186389)" />   <use xlink:href="#dot" transform="translate(25.170278,-17.786944)" />   <use xlink:href="#dot" transform="translate(25.796944,-17.882778)" />   <use xlink:href="#dot" transform="translate(22.935556,-15.182778)" />   <use xlink:href="#dot" transform="translate(25.780556,-17.864167)" />   <use xlink:href="#dot" transform="translate(22.900556,-15.186944)" />   <use xlink:href="#dot" transform="translate(22.922222,-15.195278)" />   <use xlink:href="#dot" transform="translate(30.142778,-12.448055)" />   <use xlink:href="#dot" transform="translate(30.602777,-12.513333)" />   <use xlink:href="#dot" transform="translate(21.787,-18.274)" />   <use xlink:href="#dot" transform="translate(21.882222,-18.413056)" />   <use xlink:href="#dot" transform="translate(23.081111,-19.5325)" />   <use xlink:href="#dot" transform="translate(21.912,-18.44)" />   <use xlink:href="#dot" transform="translate(23.077778,-19.5325)" />   <use xlink:href="#dot" transform="translate(23.08,-19.534)" />   <use xlink:href="#dot" transform="translate(21.795,-18.275)" />   <use xlink:href="#dot" transform="translate(21.88,-18.411)" />   <use xlink:href="#dot" transform="translate(23.087,-19.536)" />   <use xlink:href="#dot" transform="translate(21.899444,-18.428611)" />   <use xlink:href="#dot" transform="translate(22,-18.4)" />   <use xlink:href="#dot" transform="translate(21.9,-18.433332)" />   <use xlink:href="#dot" transform="translate(21.9,-18.433332)" />   <use xlink:href="#dot" transform="translate(21.9,-18.4333)" />   <use xlink:href="#dot" transform="translate(21.9,-18.4333)" />   <use xlink:href="#dot" transform="translate(22,-18.4)" />   <use xlink:href="#dot" transform="translate(21.9,-18.433332)" />   <use xlink:href="#dot" transform="translate(22,-18.4)" />   <use xlink:href="#dot" transform="translate(21.883301,-18.4167)" />   <use xlink:href="#dot" transform="translate(21.9,-18.433332)" />   <use xlink:href="#dot" transform="translate(21.783333,-18.266666)" />   <use xlink:href="#dot" transform="translate(22,-18.4)" />   <use xlink:href="#dot" transform="translate(14.633333,-17.450001)" />   <use xlink:href="#dot" transform="translate(14.633333,-17.450001)" />   <use xlink:href="#dot" transform="translate(14.633333,-17.450001)" />   <use xlink:href="#dot" transform="translate(19.3167,-17.8167)" />   <use xlink:href="#dot" transform="translate(19,-17.833334)" />   <use xlink:href="#dot" transform="translate(21.700001,-18.25)" />   <use xlink:href="#dot" transform="translate(18.616667,-17.616667)" />   <use xlink:href="#dot" transform="translate(18.466667,-17.466667)" />   <use xlink:href="#dot" transform="translate(22.377208,-18.962358)" />   <use xlink:href="#dot" transform="translate(23,-19.5)" />   <use xlink:href="#dot" transform="translate(23,-19.5)" />   <use xlink:href="#dot" transform="translate(23.105743,-15.283661)" />   <use xlink:href="#dot" transform="translate(22.935729,-15.333537)" />   <use xlink:href="#dot" transform="translate(22.913676,-15.191886)" />   <use xlink:href="#dot" transform="translate(23.094911,-15.288902)" />   <use xlink:href="#dot" transform="translate(23.097786,-15.288198)" />   <use xlink:href="#dot" transform="translate(22.913676,-15.191886)" />   <use xlink:href="#dot" transform="translate(22.983575,-15.350209)" />   <use xlink:href="#dot" transform="translate(23.119704,-15.644173)" />   <use xlink:href="#dot" transform="translate(22.682591,-14.986589)" />   <use xlink:href="#dot" transform="translate(22.682591,-14.986589)" />   <use xlink:href="#dot" transform="translate(22.951432,-15.153064)" />   <use xlink:href="#dot" transform="translate(22.383333,-18.950001)" />   <use xlink:href="#dot" transform="translate(23.483299,-19.9333)" />   <use xlink:href="#dot" transform="translate(22.4167,-18.8167)" />   <use xlink:href="#dot" transform="translate(22.35,-18.75)" />   <use xlink:href="#dot" transform="translate(23.516666,-19.916666)" />   <use xlink:href="#dot" transform="translate(22.4167,-18.8167)" />   <use xlink:href="#dot" transform="translate(22.4,-18.8167)" />   <use xlink:href="#dot" transform="translate(22.35,-18.75)" />   <use xlink:href="#dot" transform="translate(22.35,-18.75)" />   <use xlink:href="#dot" transform="translate(22.35,-18.75)" />   <use xlink:href="#dot" transform="translate(23.133301,-19.5333)" />   <use xlink:href="#dot" transform="translate(22.4167,-18.8167)" />   <use xlink:href="#dot" transform="translate(22.4167,-18.8167)" />   <use xlink:href="#dot" transform="translate(22.4167,-18.8167)" />   <use xlink:href="#dot" transform="translate(22.4167,-18.8167)" />   <use xlink:href="#dot" transform="translate(22.383301,-18.8167)" />   <use xlink:href="#dot" transform="translate(23.6667,-20.15)" />   <use xlink:href="#dot" transform="translate(22.4167,-18.8167)" />   <use xlink:href="#dot" transform="translate(23.483299,-19.9333)" />   <use xlink:href="#dot" transform="translate(23.483299,-19.9333)" />   <use xlink:href="#dot" transform="translate(19.716667,-17.866667)" />   <use xlink:href="#dot" transform="translate(19.716667,-17.866667)" />   <use xlink:href="#dot" transform="translate(23.15,-18.6)" />   <use xlink:href="#dot" transform="translate(23.1667,-19.5333)" />   <use xlink:href="#dot" transform="translate(23.483299,-19.9333)" />   <use xlink:href="#dot" transform="translate(23.4,-19.1667)" />   <use xlink:href="#dot" transform="translate(22.35,-18.75)" />   <use xlink:href="#dot" transform="translate(22.35,-18.75)" />   <use xlink:href="#dot" transform="translate(22.35,-18.799999)" />   <use xlink:href="#dot" transform="translate(22.416666,-18.816668)" />   <use xlink:href="#dot" transform="translate(22.4167,-18.8167)" />   <use xlink:href="#dot" transform="translate(23.4667,-19.9333)" />   <use xlink:href="#dot" transform="translate(22.416666,-18.816668)" />   <use xlink:href="#dot" transform="translate(22.416666,-18.816668)" />   <use xlink:href="#dot" transform="translate(23.133301,-19.5333)" />   <use xlink:href="#dot" transform="translate(23.133333,-19.533333)" />   <use xlink:href="#dot" transform="translate(23.35,-19.8167)" />   <use xlink:href="#dot" transform="translate(22.35,-18.75)" />   <use xlink:href="#dot" transform="translate(23.6667,-20.15)" />   <use xlink:href="#dot" transform="translate(23.35,-19.816668)" />   <use xlink:href="#dot" transform="translate(22.4167,-18.8167)" />   <use xlink:href="#dot" transform="translate(23.516701,-19.9167)" />   <use xlink:href="#dot" transform="translate(23.35,-19.816668)" />   <use xlink:href="#dot" transform="translate(23.35,-19.8167)" />   <use xlink:href="#dot" transform="translate(23.483299,-19.9333)" />   <use xlink:href="#dot" transform="translate(23.516701,-19.9167)" />   <use xlink:href="#dot" transform="translate(22.4167,-18.8167)" />   <use xlink:href="#dot" transform="translate(23.516701,-19.9167)" />   <use xlink:href="#dot" transform="translate(23.15,-18.6)" />   <use xlink:href="#dot" transform="translate(23.4667,-19.9333)" />   <use xlink:href="#dot" transform="translate(23.4667,-19.9333)" />   <use xlink:href="#dot" transform="translate(23.4,-19.166666)" />   <use xlink:href="#dot" transform="translate(22.35,-18.75)" />   <use xlink:href="#dot" transform="translate(22.416666,-18.816668)" />   <use xlink:href="#dot" transform="translate(23.35,-19.8167)" />   <use xlink:href="#dot" transform="translate(22.4,-18.799999)" />   <use xlink:href="#dot" transform="translate(22.416666,-18.816668)" />   <use xlink:href="#dot" transform="translate(22.4167,-18.8167)" />   <use xlink:href="#dot" transform="translate(22.4,-18.8333)" />   <use xlink:href="#dot" transform="translate(22.4,-18.783333)" />   <use xlink:href="#dot" transform="translate(23.6667,-20.15)" />   <use xlink:href="#dot" transform="translate(23.133301,-19.5333)" />   <use xlink:href="#dot" transform="translate(23.133301,-19.5333)" />   <use xlink:href="#dot" transform="translate(23.133333,-19.533333)" />   <use xlink:href="#dot" transform="translate(23.133301,-19.5333)" />   <use xlink:href="#dot" transform="translate(23.1667,-19.5333)" />   <use xlink:href="#dot" transform="translate(20.466667,-17.950001)" />   <use xlink:href="#dot" transform="translate(23.133333,-19.533333)" />   <use xlink:href="#dot" transform="translate(23.133301,-19.5333)" />   <use xlink:href="#dot" transform="translate(19.766666,-17.9)" />   <use xlink:href="#dot" transform="translate(23.1667,-19.5333)" />   <use xlink:href="#dot" transform="translate(23.516701,-19.9167)" />   <use xlink:href="#dot" transform="translate(23.133301,-19.5333)" />   <use xlink:href="#dot" transform="translate(20.866667,-18)" />   <use xlink:href="#dot" transform="translate(23.3167,-19.1833)" />   <use xlink:href="#dot" transform="translate(23.4,-19.166666)" />   <use xlink:href="#dot" transform="translate(23.3167,-19.1833)" />   <use xlink:href="#dot" transform="translate(23.3167,-19.1833)" />   <use xlink:href="#dot" transform="translate(23.25,-19.25)" />   <use xlink:href="#dot" transform="translate(23.3167,-19.1833)" />   <use xlink:href="#dot" transform="translate(23.3167,-19.1833)" />   <use xlink:href="#dot" transform="translate(23.4,-19.8333)" />   <use xlink:href="#dot" transform="translate(23.3167,-19.1833)" />   <use xlink:href="#dot" transform="translate(19.766666,-17.9)" />   <use xlink:href="#dot" transform="translate(23.316668,-19.183332)" />   <use xlink:href="#dot" transform="translate(19.766666,-17.9)" />   <use xlink:href="#dot" transform="translate(23.4,-19.1667)" />   <use xlink:href="#dot" transform="translate(22.083334,-18.616667)" />   <use xlink:href="#dot" transform="translate(23.4,-19.1667)" />   <use xlink:href="#dot" transform="translate(22.0833,-18.616699)" />   <use xlink:href="#dot" transform="translate(19.766666,-17.9)" />   <use xlink:href="#dot" transform="translate(22.200001,-18.75)" />   <use xlink:href="#dot" transform="translate(23.6667,-20.15)" />   <use xlink:href="#dot" transform="translate(23.6667,-20.15)" />   <use xlink:href="#dot" transform="translate(23.6667,-20.15)" />   <use xlink:href="#dot" transform="translate(23.516701,-19.9167)" />   <use xlink:href="#dot" transform="translate(23.516666,-19.916666)" />   <use xlink:href="#dot" transform="translate(23.35,-19.8167)" />   <use xlink:href="#dot" transform="translate(23.516701,-19.9167)" />   <use xlink:href="#dot" transform="translate(23.6667,-20.15)" />   <use xlink:href="#dot" transform="translate(14.65,-17.433333)" />   <use xlink:href="#dot" transform="translate(23.6667,-20.15)" />   <use xlink:href="#dot" transform="translate(23.483299,-19.9333)" />   <use xlink:href="#dot" transform="translate(23.4167,-19.983299)" />   <use xlink:href="#dot" transform="translate(22.083334,-18.616667)" />   <use xlink:href="#dot" transform="translate(28.25,-12.666667)" />   <use xlink:href="#dot" transform="translate(23.05,-19.53)" />   <use xlink:href="#dot" transform="translate(23.05,-19.53)" />   <use xlink:href="#dot" transform="translate(23.05,-19.53)" />   <use xlink:href="#dot" transform="translate(23.366699,-20.516701)" />   <use xlink:href="#dot" transform="translate(23.4167,-19.983299)" />   <use xlink:href="#dot" transform="translate(23.416666,-19.983334)" />   <use xlink:href="#dot" transform="translate(23.4167,-19.983299)" />   <use xlink:href="#dot" transform="translate(23.3333,-20)" />   <use xlink:href="#dot" transform="translate(20.766667,-18.016667)" />   <use xlink:href="#dot" transform="translate(20.766667,-18.016667)" />   <use xlink:href="#dot" transform="translate(23.57,-20.13)" />   <use xlink:href="#dot" transform="translate(23.25,-19.59)" />   <use xlink:href="#dot" transform="translate(24.05,-21.07)" />   <use xlink:href="#dot" transform="translate(24.35,-20.83)" />   <use xlink:href="#dot" transform="translate(24.35,-20.83)" />   <use xlink:href="#dot" transform="translate(29.11667,-10.13333)" />   <use xlink:href="#dot" transform="translate(29.025707,-10.461648)" />   <use xlink:href="#dot" transform="translate(23.433333,-20)" />   <use xlink:href="#dot" transform="translate(22.83,-20.42)" />   <use xlink:href="#dot" transform="translate(23.5,-20)" />   <use xlink:href="#dot" transform="translate(23.43,-19.98)" />   <use xlink:href="#dot" transform="translate(23.43,-19.98)" />   <use xlink:href="#dot" transform="translate(23.43,-19.98)" />   <use xlink:href="#dot" transform="translate(23.43,-19.98)" />   <use xlink:href="#dot" transform="translate(22.17,-19.33)" />   <use xlink:href="#dot" transform="translate(23.52,-19.92)" />   <use xlink:href="#dot" transform="translate(23.43,-19.98)" />   <use xlink:href="#dot" transform="translate(21.83,-18.37)" />   <use xlink:href="#dot" transform="translate(23.43,-19.98)" />   <use xlink:href="#dot" transform="translate(23.52,-19.92)" />   <use xlink:href="#dot" transform="translate(25.28,-17.08)" />   <use xlink:href="#dot" transform="translate(24.25,-17.47)" />   <use xlink:href="#dot" transform="translate(24.33,-17.92)" />   <use xlink:href="#dot" transform="translate(25.633333,-17.833333)" />   <use xlink:href="#dot" transform="translate(25.633333,-17.833333)" />   <use xlink:href="#dot" transform="translate(25.633333,-17.833333)" />   <use xlink:href="#dot" transform="translate(25.58,-17.83)" />   <use xlink:href="#dot" transform="translate(23.43,-19.98)" />   <use xlink:href="#dot" transform="translate(23.5,-20)" />   <use xlink:href="#dot" transform="translate(23.5,-20)" />   <use xlink:href="#dot" transform="translate(25.33,-17.83)" />   <use xlink:href="#dot" transform="translate(24.3,-17.4667)" />   <use xlink:href="#dot" transform="translate(25.83,-17.88)" />   <use xlink:href="#dot" transform="translate(25.7,-17.7833)" />   <use xlink:href="#dot" transform="translate(27.3667,-14.05)" />   <use xlink:href="#dot" transform="translate(28.633333,-10.366667)" />   <use xlink:href="#dot" transform="translate(26.95,-11.033333)" />   <use xlink:href="#dot" transform="translate(30.12,-11.22)" />   <use xlink:href="#dot" transform="translate(29.966667,-11.683333)" />   <use xlink:href="#dot" transform="translate(28.65,-8.783333)" />   <use xlink:href="#dot" transform="translate(27.3667,-14.05)" />   <use xlink:href="#dot" transform="translate(29.366667,-12.433333)" />   <use xlink:href="#dot" transform="translate(28.633333,-10.566667)" />   <use xlink:href="#dot" transform="translate(24.1,-10.9)" />   <use xlink:href="#dot" transform="translate(21,-11.833333)" />   <use xlink:href="#dot" transform="translate(29.366667,-12.433333)" />   <use xlink:href="#dot" transform="translate(28.633333,-12.766667)" />   <use xlink:href="#dot" transform="translate(29.55,-12.216667)" />   <use xlink:href="#dot" transform="translate(20.866667,-11.8)" />   <use xlink:href="#dot" transform="translate(23.5,-19.916667)" />   <use xlink:href="#dot" transform="translate(29.366667,-12.433333)" />   <use xlink:href="#dot" transform="translate(29.533333,-12.266667)" />   <use xlink:href="#dot" transform="translate(29.55,-12.216667)" />   <use xlink:href="#dot" transform="translate(27.3667,-14.05)" /><polygon class="region" points="24.05,-21.07 14.633333,-17.450001 18.893889,-13.089972 20.866667,-11.8 28.65,-8.783333 30.855,-12.204722 24.35,-20.83 24.05,-21.07 " />
		  </g>
		</svg>