<?xml version="1.0" encoding="UTF-8"?>
	<svg xmlns:xlink="http://www.w3.org/1999/xlink" 
	xmlns="http://www.w3.org/2000/svg" 
	width="360px" height="180px">
	   <style type="text/css">
		  <![CDATA[     
		  .region 
		  { 
			fill:blue; 
			opacity:0.4; 
			stroke:blue;
		  }
		  ]]>
	   </style>

	<circle id="dot" x="-2" y="-2" r="2" style="stroke:none; stroke-width:0; fill:black; opacity:0.7;"/>


	 <image x="0" y="0" width="360" height="180" xlink:href="map.jpg"/>

 
	 <g transform="translate(180,90) scale(1,-1)"><polygon class="region" points="113.978813341,23.947575548 114.033333334,23.795833333 113.433691406,23.285790168 113.432526313,23.109038968 112.871189032,23.172545539 113.045833333,23.308333333 112.982396105,23.492233955 113.441666667,23.533333334 113.6375,23.816666666 113.978813341,23.947575548 " /><polygon class="region" points="106.571684266,24.396684095 106.8875,24.2875 106.658802456,23.795215691 106.399432712,23.884079997 106.5,24.133333333 106.39947052,24.334273953 106.571684266,24.396684095 " /><polygon class="region" points="109.72721049,19.754733954 109.720833333,19.479166667 109.64778951,19.471400622 109.579166667,19.75 109.733333333,19.979166667 109.72721049,19.754733954 " /><polygon class="region" points="108.858333333,21.708333333 108.583333334,21.983333333 108.141666667,21.566666666 107.930908882,21.699646674 107.952738444,21.495783148 107.857539876,21.633606126 107.520833333,21.529166666 107.445833333,21.3 107.320833334,21.316666667 107.373999363,21.184000312 106.580066257,21.178505452 106.525661214,21.06339959 106.7625,20.820833333 106.526742215,20.907980008 106.65,20.616666666 106.233333333,20.545833333 106.55889757,20.334325155 106.185043166,20.262141927 106.1625,20.033333334 105.920303853,19.973657566 105.782596164,19.529904006 105.504166667,19.308333333 105.529834662,18.875812446 105.686688911,18.865659926 105.925,18.454166667 106.538105096,17.934149509 106.375590515,17.463514371 106.510416328,17.362514241 106.636600409,17.486838785 107.249432712,16.83971049 107.058333333,16.541666666 107.145833333,16.391666667 106.967881606,16.303599379 106.609347534,16.738297865 106.694982402,16.953315904 106.434242588,16.992290243 106.304166667,17.295833334 105.745833333,17.675 105.495833334,18.191666667 105.054790242,18.396742418 105.133333333,18.7125 104.281591119,19.120480008 103.9375,18.983333333 103.295833334,19.416666667 103.392370944,19.744913907 103.61471049,19.729733954 103.708333334,19.883333333 103.163155789,20.463459948 103.345833333,20.6375 103.058333333,20.995833333 103.149432712,21.543877157 102.645833333,21.270833333 102.662146674,21.794091118 102.516666666,22.0375 102.124080573,22.436795722 101.858333334,22.391666666 101.392517429,22.734184096 101.1125,23.1375 100.941313341,24.052424452 100.4,24.85 100.783333333,24.895833334 101.185339695,24.346450806 101.666666666,24.266666666 101.85758667,24.066099379 102.150919426,24.399295722 102.815815735,24.509184096 103.192375013,25.28244595 103.472917345,25.370819431 103.711341349,25.258447265 103.675,25.545833333 103.520833333,25.6125 103.604519993,25.985757785 104.074646674,26.318408881 103.841666666,26.420833333 103.966666667,26.6625 104.35,26.825 104.93710361,26.507702976 105.07745497,26.599642266 105.3375,26.229166667 105.73258667,26.157766045 105.979166667,26.304166667 106.058333333,26.1625 106.340583632,26.153637018 106.786753337,26.438067288 106.875,26.208333333 107.30786404,26.354784139 107.308333334,26.1375 107.593877157,26.058900621 107.9625,26.358333334 108.552916803,26.275015259 108.65,26.4875 108.803599379,26.38971049 108.733333333,26.183333333 109.4125,25.966666666 109.669826593,26.067477756 109.621970622,26.308597819 109.922993638,26.524382527 110.158333333,26.345833334 110.141666666,26.166666667 110.5625,26.0875 110.4625,25.916666667 110.633333333,25.825 110.675567288,25.546579996 110.525,25.520833333 110.558333333,25.2875 110.719913907,25.324295722 110.790920003,25.153599378 111.1125,25.291666667 111.458333333,25.125 111.523286946,24.641313341 111.756198459,24.841023763 112.114710489,24.725567288 112.183989292,25.186540222 112.407118394,25.145266045 112.514456177,25.436932712 113.208333334,25.691666667 113.439949545,25.362146674 113.828250461,25.491070217 114.025567288,25.444618394 114.026214939,25.253599379 114.833333333,25.495833333 115.081247288,25.11314799 115.428360325,25.074382528 115.554166666,25.204166667 115.870833334,25.025 115.716666667,24.566666667 115.346663073,24.295117188 115.2625,23.3875 114.355017598,23.065815905 114.2,22.625 114.029166667,22.5875 113.983333334,22.829166666 113.770833333,22.8625 113.753382704,23.190997484 113.4125,23.25 114.033333334,23.795833333 113.978315735,23.957482571 113.6375,23.816666666 113.441666667,23.533333334 112.982396105,23.492233955 113.045833333,23.308333333 112.850353326,23.226742215 113.090676202,23.157714166 113.1125,23 112.962855021,22.901712714 113.345833333,22.641666667 113.2125,22.379166666 113.061649238,22.611649238 112.920215861,22.631965468 112.941040717,21.967532179 112.563255988,21.90075904 112.398988342,22.129733955 112.065451728,21.820266046 111.8,21.8875 112.053963555,21.771662733 111.721712918,21.757594639 111.788117472,21.621302456 111.692027113,21.594745043 111.629903497,21.503549025 111.001956177,21.586932712 110.516666667,21.2125 110.625642734,21.21159651 110.56880171,21.09230957 110.342469279,21.424264866 110.011932712,21.177951728 110.154166666,20.625 109.862853326,20.772575548 109.78828498,21.011723158 109.995480008,21.206591119 109.566666667,21.7375 109.541328939,21.501123556 109.170364041,21.391049025 109.041049194,21.454973008 109.153869968,21.557226902 108.858333333,21.708333333 " /><polygon class="region" points="110.43703342,21.189141337 110.440277778,21.1875 110.441312324,21.189581299 110.44016944,21.191921658 110.43703342,21.189141337 " /><polygon class="region" points="111.820366754,21.705808003 111.823611111,21.704166667 111.824645657,21.706247965 111.823502604,21.708588325 111.820366754,21.705808003 " /><polygon class="region" points="109.574533421,21.643308003 109.577777778,21.641666667 109.578812324,21.643747965 109.577669271,21.646088325 109.574533421,21.643308003 " /><polygon class="region" points="110.620833333,21.320833334 110.623043823,21.321400622 110.625567288,21.323785062 110.620833333,21.325 110.620833333,21.320833334 " /><polygon class="region" points="109.575,21.729166667 109.575567288,21.726956176 109.577951728,21.724432712 109.579166667,21.729166667 109.575,21.729166667 " /><polygon class="region" points="111.470215861,21.525945876 111.477777778,21.525 111.478876749,21.527859497 111.474085151,21.529784308 111.470215861,21.525945876 " /><polygon class="region" points="110.470215692,21.159279209 110.477777778,21.158333333 110.478876919,21.16119283 110.474084981,21.163117642 110.470215692,21.159279209 " /><polygon class="region" points="111.786895073,21.769277784 111.79221327,21.77158983 111.788948567,21.775605096 111.786895073,21.769277784 " /><polygon class="region" points="106.1125,18.2625 106.1125,18.258333334 106.121400621,18.261285061 106.116666666,18.2625 106.1125,18.2625 " /><polygon class="region" points="111.811285061,21.745266046 111.8125,21.75 111.821413167,21.753008694 111.813752238,21.754746501 111.807922024,21.748825073 111.811285061,21.745266046 " /><polygon class="region" points="110.484553358,21.167284309 110.482715692,21.159279209 110.490277778,21.158333333 110.491091241,21.160449388 110.484553358,21.167284309 " /><polygon class="region" points="109.595253499,21.619073148 109.598611111,21.616666667 109.599095323,21.628842333 109.596576945,21.628344726 109.595253499,21.619073148 " /><polygon class="region" points="111.7,21.7625 111.708333333,21.7625 111.707457818,21.771083577 111.701261733,21.766690233 111.7,21.7625 " /><polygon class="region" points="110.524688382,21.182302857 110.529874505,21.172316996 110.531944445,21.170833333 110.532271999,21.183801439 110.524688382,21.182302857 " /><polygon class="region" points="110.491666667,21.216666667 110.501742215,21.212853326 110.5125,21.2125 110.492881606,21.221400621 110.491666667,21.216666667 " /><polygon class="region" points="110.462794494,21.207339647 110.475746664,21.203599379 110.483333334,21.2125 110.477424452,21.208686659 110.462794494,21.207339647 " /><polygon class="region" points="106.341666667,18.1125 106.345833334,18.1 106.35339525,18.100771417 106.354166667,18.108333333 106.341666667,18.1125 " /><polygon class="region" points="107.164561835,16.874470994 107.167517429,16.867517429 107.180160522,16.866300583 107.176231384,16.881776809 107.164561835,16.874470994 " /><polygon class="region" points="105.911932712,18.414456177 105.924646674,18.426742214 105.925,18.45 105.913067288,18.43971049 105.911932712,18.414456177 " /><polygon class="region" points="106.675617642,23.814506531 106.8875,24.2875 106.522575548,24.432980007 106.399432712,23.884079997 106.675617642,23.814506531 " /><polygon class="region" points="110.577951728,19.145266046 110.540451728,18.778599379 110.05221049,18.383900621 109.386656359,18.441212972 109.194799127,18.328599379 108.683970981,18.505072361 108.625768195,18.857361518 108.995819431,18.810417345 108.821560499,18.946609158 108.929166667,19.175 108.66317376,19.353270297 109.207624986,19.484220716 109.350655449,19.708579169 109.166011217,19.717248196 109.282677884,19.915590583 109.514924452,19.846186659 109.575850762,19.982482571 109.732677545,19.999040053 109.554166667,19.5875 109.69412028,19.470480007 109.746627469,19.790872532 110.18245358,19.854905362 110.385415988,20.083319431 110.608333333,19.929166667 110.698977831,20.082650079 110.936932712,19.651956177 110.577951728,19.145266046 " /><polygon class="region" points="109.270366753,19.772474671 109.273611111,19.770833333 109.274645657,19.772914632 109.273502604,19.775254991 109.270366753,19.772474671 " /><polygon class="region" points="109.5375,19.8625 109.538375516,19.853916423 109.554166667,19.858333333 109.554166667,19.8625 109.5375,19.8625 " /><polygon class="region" points="110.050735473,18.446704864 110.035575867,18.430557251 110.031585694,18.406618118 110.063468933,18.411186218 110.050735473,18.446704864 " /><polygon class="region" points="111.881135389,21.649420166 111.917918905,21.675579834 112.021413167,21.642620002 111.80506151,21.554871622 111.881135389,21.649420166 " /><polygon class="region" points="109.136882528,21.031173028 109.082715861,21.013867866 109.088471815,21.061731635 109.132547675,21.074244859 109.136882528,21.031173028 " /><polygon class="region" points="110.495215692,18.660339694 110.475811598,18.654839749 110.468517049,18.692284139 110.496450975,18.673632134 110.495215692,18.660339694 " /><polygon class="region" points="107.349533421,17.151855469 107.334651693,17.150485229 107.329703437,17.165394931 107.344561429,17.170296563 107.349533421,17.151855469 " /><polygon class="region" points="112.174534607,21.561656528 112.199171109,21.558616639 112.198611111,21.545833333 112.17575141,21.546514214 112.174534607,21.561656528 " /><polygon class="region" points="109.213788859,20.90334371 109.200033908,20.915305582 109.207717557,20.921450805 109.221450806,20.915298801 109.213788859,20.90334371 " /><polygon class="region" points="105.966137017,18.789418538 105.954696316,18.793585205 105.951342434,18.808862983 105.967196316,18.796933323 105.966137017,18.789418538 " /><polygon class="region" points="112.145228238,21.601993985 112.132728238,21.605495368 112.134047106,21.620039198 112.146438429,21.613175456 112.145228238,21.601993985 " /><polygon class="region" points="112.124382358,21.639506531 112.119444444,21.633333333 112.107715691,21.641197544 112.120364211,21.650617642 112.124382358,21.639506531 " /><polygon class="region" points="110.359622193,18.636677043 110.349382358,18.639389038 110.35134803,18.646450805 110.365890503,18.645101589 110.359622193,18.636677043 " /><polygon class="region" points="106.459331767,18.099164157 106.449668036,18.102415975 106.465849134,18.107567003 106.467104424,18.1012146 106.459331767,18.099164157 " /><polygon class="region" points="111.692664931,21.540830824 111.68300137,21.544082642 111.699182468,21.54923367 111.700437757,21.542881435 111.692664931,21.540830824 " /><polygon class="region" points="110.203549024,18.577006361 110.198611112,18.570833333 110.191049024,18.571779039 110.192623732,18.583950806 110.203549024,18.577006361 " /><polygon class="region" points="111.470303684,21.476918368 111.463566081,21.475619337 111.458316379,21.48171997 111.471362983,21.486176723 111.470303684,21.476918368 " /><polygon class="region" points="110.562279086,18.815039402 110.569381205,18.820839776 110.57558492,18.813243612 110.563318549,18.809001329 110.562279086,18.815039402 " /><polygon class="region" points="106.499228753,17.904938083 106.491049025,17.905112373 106.492623732,17.917284139 106.500537957,17.915463596 106.499228753,17.904938083 " /><polygon class="region" points="106.666049025,17.909279039 106.667886692,17.917284139 106.679530335,17.915733168 106.673611111,17.908333333 106.666049025,17.909279039 " /><polygon class="region" points="112.107865228,21.557272 112.115605333,21.558801439 112.115277777,21.55 112.109161377,21.550712755 112.107865228,21.557272 " /><polygon class="region" points="110.137031894,18.440605333 110.144772,18.442134603 110.144444445,18.433333333 110.138328044,18.434046088 110.137031894,18.440605333 " /><polygon class="region" points="110.282865228,18.653105334 110.290605333,18.654634603 110.290277777,18.645833334 110.284161377,18.646546089 110.282865228,18.653105334 " /><polygon class="region" points="108.986882528,18.32355245 108.988534546,18.333950806 108.995283339,18.327091132 108.986882528,18.32355245 " /><polygon class="region" points="108.949382527,18.321779039 108.951220025,18.329784139 108.957757907,18.322949558 108.956944444,18.320833333 108.949382527,18.321779039 " /><polygon class="region" points="112.157728238,21.602611118 112.159781901,21.608938429 112.163046434,21.604923163 112.157728238,21.602611118 " /><polygon class="region" points="110.499394904,18.760944282 110.501448567,18.767271593 110.504713101,18.763256497 110.499394904,18.760944282 " /><polygon class="region" points="106.161894904,18.310944282 106.163948568,18.317271593 106.167213101,18.313256497 106.161894904,18.310944282 " /><polygon class="region" points="106.111882528,18.280112373 106.115751817,18.283950805 106.120543416,18.282026163 106.119444445,18.279166667 106.111882528,18.280112373 " /><polygon class="region" points="111.932866753,21.597474671 111.936002604,21.600254991 111.937145657,21.597914632 111.936111111,21.595833333 111.932866753,21.597474671 " />
		  </g>
		</svg>