<?xml version="1.0" encoding="UTF-8"?>
	<svg xmlns:xlink="http://www.w3.org/1999/xlink" 
	xmlns="http://www.w3.org/2000/svg" 
	width="360px" height="180px">
	   <style type="text/css">
		  <![CDATA[     
		  .region 
		  { 
			fill:blue; 
			opacity:0.4; 
			stroke:blue;
		  }
		  ]]>
	   </style>

	<circle id="dot" x="-2" y="-2" r="2" style="stroke:none; stroke-width:0; fill:black; opacity:0.7;"/>


	 <image x="0" y="0" width="360" height="180" xlink:href="map.jpg"/>

 
	 <g transform="translate(180,90) scale(1,-1)">   <use xlink:href="#dot" transform="translate(-122.374938,37.74643)" />   <use xlink:href="#dot" transform="translate(-139.76775,59.83338)" />   <use xlink:href="#dot" transform="translate(-139.78108,59.5)" />   <use xlink:href="#dot" transform="translate(-139.76706,59.84246)" />   <use xlink:href="#dot" transform="translate(-139.76775,59.83338)" />   <use xlink:href="#dot" transform="translate(-139.78108,59.5)" />   <use xlink:href="#dot" transform="translate(-142.20567,60.00005)" />   <use xlink:href="#dot" transform="translate(-153.58193,59.47015)" />   <use xlink:href="#dot" transform="translate(-146.0725,60.30017)" />   <use xlink:href="#dot" transform="translate(-146.15468,60.30118)" />   <use xlink:href="#dot" transform="translate(-141.58443,59.93657)" />   <use xlink:href="#dot" transform="translate(-145.51485,60.24707)" />   <use xlink:href="#dot" transform="translate(-122.677667,47.927167)" />   <use xlink:href="#dot" transform="translate(-122.688667,48.450167)" />   <use xlink:href="#dot" transform="translate(-122.414333,47.688)" />   <use xlink:href="#dot" transform="translate(-154.3676,56.86617)" />   <use xlink:href="#dot" transform="translate(-142.2502,60.00184)" />   <use xlink:href="#dot" transform="translate(-122.350278,37.700833)" />   <use xlink:href="#dot" transform="translate(-122.303611,37.724444)" />   <use xlink:href="#dot" transform="translate(-141.31,60.08)" />   <use xlink:href="#dot" transform="translate(-141.3,60.08)" />   <use xlink:href="#dot" transform="translate(-141.33,60.03)" />   <use xlink:href="#dot" transform="translate(-122.256111,37.547778)" />   <use xlink:href="#dot" transform="translate(-122.183611,38.035833)" />   <use xlink:href="#dot" transform="translate(-122.268056,37.548056)" />   <use xlink:href="#dot" transform="translate(-122.2675,37.548611)" />   <use xlink:href="#dot" transform="translate(-122.245556,37.504167)" />   <use xlink:href="#dot" transform="translate(-146.1544,60.311)" />   <use xlink:href="#dot" transform="translate(-140.494,59.64692)" />   <use xlink:href="#dot" transform="translate(-139.8239,59.78456)" />   <use xlink:href="#dot" transform="translate(-139.8239,59.78456)" />   <use xlink:href="#dot" transform="translate(-141.9345,59.84297)" />   <use xlink:href="#dot" transform="translate(-141.25,59.71)" />   <use xlink:href="#dot" transform="translate(-123.916667,46.916667)" />   <use xlink:href="#dot" transform="translate(-124.088333,44.796667)" />   <use xlink:href="#dot" transform="translate(-123.916667,46.916667)" />   <use xlink:href="#dot" transform="translate(-122.67,37.831667)" />   <use xlink:href="#dot" transform="translate(-122.888801,48.578916)" />   <use xlink:href="#dot" transform="translate(-123.013993,48.992879)" />   <use xlink:href="#dot" transform="translate(-122.882869,48.646522)" />   <use xlink:href="#dot" transform="translate(-122.11833,37.50528)" />   <use xlink:href="#dot" transform="translate(-121.784648,36.807104)" />   <use xlink:href="#dot" transform="translate(-153.504167,57.850556)" />   <use xlink:href="#dot" transform="translate(-151.3,59.583333)" />   <use xlink:href="#dot" transform="translate(-139.816667,59.77)" />   <use xlink:href="#dot" transform="translate(-153.754167,59.513889)" />   <use xlink:href="#dot" transform="translate(-152.2,59.986667)" />   <use xlink:href="#dot" transform="translate(-122.933,48.65)" />   <use xlink:href="#dot" transform="translate(-122.933,48.65)" />   <use xlink:href="#dot" transform="translate(-152.195,59.942)" />   <use xlink:href="#dot" transform="translate(-151.303,59.607)" />   <use xlink:href="#dot" transform="translate(-151.787,59.573)" />   <use xlink:href="#dot" transform="translate(-146.81,60.467)" />   <use xlink:href="#dot" transform="translate(-151.45,57.457)" />   <use xlink:href="#dot" transform="translate(-139.737,59.797)" />   <use xlink:href="#dot" transform="translate(-146.942,59.825)" />   <use xlink:href="#dot" transform="translate(-146.865,60.565)" />   <use xlink:href="#dot" transform="translate(-146.342,61.102)" />   <use xlink:href="#dot" transform="translate(-146.865,60.565)" />   <use xlink:href="#dot" transform="translate(-139.737,59.797)" />   <use xlink:href="#dot" transform="translate(-146.865,60.565)" />   <use xlink:href="#dot" transform="translate(-151.45,57.457)" />   <use xlink:href="#dot" transform="translate(-121.61,38.163333)" />   <use xlink:href="#dot" transform="translate(-122.359059,37.739201)" />   <use xlink:href="#dot" transform="translate(-122.499444,38.111389)" />   <use xlink:href="#dot" transform="translate(-122.383331,38.066666)" />   <use xlink:href="#dot" transform="translate(-121.61,38.163333)" />   <use xlink:href="#dot" transform="translate(-130.2025,54.0775)" />   <use xlink:href="#dot" transform="translate(-122.58,37.666667)" />   <use xlink:href="#dot" transform="translate(-122.56,37.691667)" />   <use xlink:href="#dot" transform="translate(-122.58,37.716667)" />   <use xlink:href="#dot" transform="translate(-123.03014,37.68368)" />   <use xlink:href="#dot" transform="translate(-122.6,37.733333)" />   <use xlink:href="#dot" transform="translate(-122.38055,37.814231)" />   <use xlink:href="#dot" transform="translate(-122.442231,37.988411)" />   <use xlink:href="#dot" transform="translate(-123.141667,38.433333)" />   <use xlink:href="#dot" transform="translate(-122.440325,37.989842)" />   <use xlink:href="#dot" transform="translate(-124.416667,40.616667)" />   <use xlink:href="#dot" transform="translate(-123.016399,48.509049)" />   <use xlink:href="#dot" transform="translate(-122.443806,37.869541)" />   <use xlink:href="#dot" transform="translate(-123.000163,37.9596)" />   <use xlink:href="#dot" transform="translate(-122.25,47.616667)" />   <use xlink:href="#dot" transform="translate(-122.25,47.616667)" />   <use xlink:href="#dot" transform="translate(-122.2,47.5)" />   <use xlink:href="#dot" transform="translate(-122.25,47.616667)" />   <use xlink:href="#dot" transform="translate(-123.016399,48.509049)" />   <use xlink:href="#dot" transform="translate(-124.026667,46.261667)" />   <use xlink:href="#dot" transform="translate(-122.25,47.616667)" />   <use xlink:href="#dot" transform="translate(-122.25,47.616667)" />   <use xlink:href="#dot" transform="translate(-122.891278,48.652172)" />   <use xlink:href="#dot" transform="translate(-133.179918,56.681232)" />   <use xlink:href="#dot" transform="translate(-122.25,47.616667)" />   <use xlink:href="#dot" transform="translate(-122.25,47.616667)" />   <use xlink:href="#dot" transform="translate(-122.25,47.616667)" />   <use xlink:href="#dot" transform="translate(-122.25,47.616667)" />   <use xlink:href="#dot" transform="translate(-122.25,47.616667)" />   <use xlink:href="#dot" transform="translate(-124.183333,40.783333)" />   <use xlink:href="#dot" transform="translate(-124.300278,43.966944)" />   <use xlink:href="#dot" transform="translate(-124.233333,41.2)" />   <use xlink:href="#dot" transform="translate(-124.35,40.75)" />   <use xlink:href="#dot" transform="translate(-122.25,47.616667)" />   <use xlink:href="#dot" transform="translate(-122.366667,38.1)" />   <use xlink:href="#dot" transform="translate(-122.37454,37.875492)" />   <use xlink:href="#dot" transform="translate(-151.3,59.6)" />   <use xlink:href="#dot" transform="translate(-123.00184,48.540066)" />   <use xlink:href="#dot" transform="translate(-123.016399,48.509049)" />   <use xlink:href="#dot" transform="translate(-121.833333,49.5)" />   <use xlink:href="#dot" transform="translate(-121.833333,49.5)" />   <use xlink:href="#dot" transform="translate(-123.167,49.117)" />   <use xlink:href="#dot" transform="translate(-151.12,59.73)" />   <use xlink:href="#dot" transform="translate(-151.15,59.72)" />   <use xlink:href="#dot" transform="translate(-121.833333,49.5)" />   <use xlink:href="#dot" transform="translate(-122.05,38.116667)" />   <use xlink:href="#dot" transform="translate(-122.05,38.117)" />   <use xlink:href="#dot" transform="translate(-123,49.333333)" />   <use xlink:href="#dot" transform="translate(-123,49.333333)" />   <use xlink:href="#dot" transform="translate(-123.083333,49.25)" />   <use xlink:href="#dot" transform="translate(-124.333333,41.341667)" />   <use xlink:href="#dot" transform="translate(-141.533,59.917)" />   <use xlink:href="#dot" transform="translate(-141.533333,59.916667)" />   <use xlink:href="#dot" transform="translate(-123,48.5325)" />   <use xlink:href="#dot" transform="translate(-122.84167,48.6)" />   <use xlink:href="#dot" transform="translate(-123.7,48.917)" />   <use xlink:href="#dot" transform="translate(-123.7,48.916667)" />   <use xlink:href="#dot" transform="translate(-121.732796,38.062278)" />   <use xlink:href="#dot" transform="translate(-122.276183,37.752371)" />   <use xlink:href="#dot" transform="translate(-122.450679,37.99261)" />   <use xlink:href="#dot" transform="translate(-122.241933,37.763109)" />   <use xlink:href="#dot" transform="translate(-122.241933,37.763109)" />   <use xlink:href="#dot" transform="translate(-122.442965,37.993829)" />   <use xlink:href="#dot" transform="translate(-122.241933,37.763109)" />   <use xlink:href="#dot" transform="translate(-122.38745,38.056398)" />   <use xlink:href="#dot" transform="translate(-122.276183,37.752371)" />   <use xlink:href="#dot" transform="translate(-122.276183,37.752371)" />   <use xlink:href="#dot" transform="translate(-122.276183,37.752371)" />   <use xlink:href="#dot" transform="translate(-122.241933,37.763109)" />   <use xlink:href="#dot" transform="translate(-122.241933,37.763109)" />   <use xlink:href="#dot" transform="translate(-122.241933,37.763109)" />   <use xlink:href="#dot" transform="translate(-122.241933,37.763109)" />   <use xlink:href="#dot" transform="translate(-122.241933,37.763109)" />   <use xlink:href="#dot" transform="translate(-122.241933,37.763109)" />   <use xlink:href="#dot" transform="translate(-122.241933,37.763109)" />   <use xlink:href="#dot" transform="translate(-122.450679,37.99261)" />   <use xlink:href="#dot" transform="translate(-122.241933,37.763109)" />   <use xlink:href="#dot" transform="translate(-122.241933,37.763109)" />   <use xlink:href="#dot" transform="translate(-122.276183,37.752371)" />   <use xlink:href="#dot" transform="translate(-122.4479,38.000424)" />   <use xlink:href="#dot" transform="translate(-122.276183,37.752371)" />   <use xlink:href="#dot" transform="translate(-122.241933,37.763109)" />   <use xlink:href="#dot" transform="translate(-122.241933,37.763109)" />   <use xlink:href="#dot" transform="translate(-122.241933,37.763109)" />   <use xlink:href="#dot" transform="translate(-122.450947,38.006613)" />   <use xlink:href="#dot" transform="translate(-122.276183,37.752371)" />   <use xlink:href="#dot" transform="translate(-124.296239,40.631963)" />   <use xlink:href="#dot" transform="translate(-122.276183,37.752371)" />   <use xlink:href="#dot" transform="translate(-122.276183,37.752371)" />   <use xlink:href="#dot" transform="translate(-122.241933,37.763109)" />   <use xlink:href="#dot" transform="translate(-122.276183,37.752371)" />   <use xlink:href="#dot" transform="translate(-122.241933,37.763109)" />   <use xlink:href="#dot" transform="translate(-122.276183,37.752371)" />   <use xlink:href="#dot" transform="translate(-121.751328,38.02472)" />   <use xlink:href="#dot" transform="translate(-121.59355,38.17175)" />   <use xlink:href="#dot" transform="translate(-121.760255,38.024165)" />   <use xlink:href="#dot" transform="translate(-122.566667,37.616667)" />   <use xlink:href="#dot" transform="translate(-121.760255,38.024165)" />   <use xlink:href="#dot" transform="translate(-121.760255,38.024165)" />   <use xlink:href="#dot" transform="translate(-121.743027,38.086305)" />   <use xlink:href="#dot" transform="translate(-121.760255,38.024165)" />   <use xlink:href="#dot" transform="translate(-121.760255,38.024165)" />   <use xlink:href="#dot" transform="translate(-121.760255,38.024165)" />   <use xlink:href="#dot" transform="translate(-121.743027,38.086305)" />   <use xlink:href="#dot" transform="translate(-121.760255,38.024165)" />   <use xlink:href="#dot" transform="translate(-121.760255,38.024165)" />   <use xlink:href="#dot" transform="translate(-121.760255,38.024165)" />   <use xlink:href="#dot" transform="translate(-121.760255,38.024165)" />   <use xlink:href="#dot" transform="translate(-121.760255,38.024165)" />   <use xlink:href="#dot" transform="translate(-121.760255,38.024165)" />   <use xlink:href="#dot" transform="translate(-121.748261,38.084194)" />   <use xlink:href="#dot" transform="translate(-121.760255,38.024165)" />   <use xlink:href="#dot" transform="translate(-121.743027,38.086305)" />   <use xlink:href="#dot" transform="translate(-121.760255,38.024165)" />   <use xlink:href="#dot" transform="translate(-121.748261,38.084194)" />   <use xlink:href="#dot" transform="translate(-121.748261,38.084194)" />   <use xlink:href="#dot" transform="translate(-121.743027,38.086305)" />   <use xlink:href="#dot" transform="translate(-121.760255,38.024165)" />   <use xlink:href="#dot" transform="translate(-121.760255,38.024165)" />   <use xlink:href="#dot" transform="translate(-121.760255,38.024165)" />   <use xlink:href="#dot" transform="translate(-121.743027,38.086305)" />   <use xlink:href="#dot" transform="translate(-121.743027,38.086305)" />   <use xlink:href="#dot" transform="translate(-121.760255,38.024165)" />   <use xlink:href="#dot" transform="translate(-121.760255,38.024165)" />   <use xlink:href="#dot" transform="translate(-121.760255,38.024165)" />   <use xlink:href="#dot" transform="translate(-121.760255,38.024165)" />   <use xlink:href="#dot" transform="translate(-121.748261,38.084194)" />   <use xlink:href="#dot" transform="translate(-121.760255,38.024165)" />   <use xlink:href="#dot" transform="translate(-121.760255,38.024165)" />   <use xlink:href="#dot" transform="translate(-121.743027,38.086305)" />   <use xlink:href="#dot" transform="translate(-121.743027,38.086305)" />   <use xlink:href="#dot" transform="translate(-121.760255,38.024165)" />   <use xlink:href="#dot" transform="translate(-121.748261,38.084194)" />   <use xlink:href="#dot" transform="translate(-121.760255,38.024165)" />   <use xlink:href="#dot" transform="translate(-121.743027,38.086305)" />   <use xlink:href="#dot" transform="translate(-121.760255,38.024165)" />   <use xlink:href="#dot" transform="translate(-121.743027,38.086305)" />   <use xlink:href="#dot" transform="translate(-121.760255,38.024165)" />   <use xlink:href="#dot" transform="translate(-121.96821,38.060443)" />   <use xlink:href="#dot" transform="translate(-122.108846,38.050761)" />   <use xlink:href="#dot" transform="translate(-122.08245,38.055374)" />   <use xlink:href="#dot" transform="translate(-122.178443,38.05004)" />   <use xlink:href="#dot" transform="translate(-122.346806,37.816029)" />   <use xlink:href="#dot" transform="translate(-121.75562,38.024715)" />   <use xlink:href="#dot" transform="translate(-121.74955,38.078603)" />   <use xlink:href="#dot" transform="translate(-121.75562,38.024715)" />   <use xlink:href="#dot" transform="translate(-121.74955,38.078603)" />   <use xlink:href="#dot" transform="translate(-121.75151,38.024458)" />   <use xlink:href="#dot" transform="translate(-121.75562,38.024715)" />   <use xlink:href="#dot" transform="translate(-121.75562,38.024715)" />   <use xlink:href="#dot" transform="translate(-121.74955,38.078603)" />   <use xlink:href="#dot" transform="translate(-121.75562,38.024715)" />   <use xlink:href="#dot" transform="translate(-121.728962,38.065086)" />   <use xlink:href="#dot" transform="translate(-121.75562,38.024715)" />   <use xlink:href="#dot" transform="translate(-121.74955,38.078603)" />   <use xlink:href="#dot" transform="translate(-121.74955,38.078603)" />   <use xlink:href="#dot" transform="translate(-121.75562,38.024715)" />   <use xlink:href="#dot" transform="translate(-121.746815,38.083464)" />   <use xlink:href="#dot" transform="translate(-121.75562,38.024715)" />   <use xlink:href="#dot" transform="translate(-121.74955,38.078603)" />   <use xlink:href="#dot" transform="translate(-121.748261,38.084194)" />   <use xlink:href="#dot" transform="translate(-121.74955,38.078603)" />   <use xlink:href="#dot" transform="translate(-121.75562,38.024715)" />   <use xlink:href="#dot" transform="translate(-121.75562,38.024715)" />   <use xlink:href="#dot" transform="translate(-121.748261,38.084194)" />   <use xlink:href="#dot" transform="translate(-121.75562,38.024715)" />   <use xlink:href="#dot" transform="translate(-121.75562,38.024715)" />   <use xlink:href="#dot" transform="translate(-121.748261,38.084194)" />   <use xlink:href="#dot" transform="translate(-121.74955,38.078603)" />   <use xlink:href="#dot" transform="translate(-121.75562,38.024715)" />   <use xlink:href="#dot" transform="translate(-121.74955,38.078603)" />   <use xlink:href="#dot" transform="translate(-121.75562,38.024715)" />   <use xlink:href="#dot" transform="translate(-121.748261,38.084194)" />   <use xlink:href="#dot" transform="translate(-121.74955,38.078603)" />   <use xlink:href="#dot" transform="translate(-121.728962,38.065086)" />   <use xlink:href="#dot" transform="translate(-121.75562,38.024715)" />   <use xlink:href="#dot" transform="translate(-121.75562,38.024715)" />   <use xlink:href="#dot" transform="translate(-121.75562,38.024715)" />   <use xlink:href="#dot" transform="translate(-121.75562,38.024715)" />   <use xlink:href="#dot" transform="translate(-121.75562,38.024715)" />   <use xlink:href="#dot" transform="translate(-121.75562,38.024715)" />   <use xlink:href="#dot" transform="translate(-121.75562,38.024715)" />   <use xlink:href="#dot" transform="translate(-121.74955,38.078603)" />   <use xlink:href="#dot" transform="translate(-121.74955,38.078603)" />   <use xlink:href="#dot" transform="translate(-121.74955,38.078603)" />   <use xlink:href="#dot" transform="translate(-121.75562,38.024715)" />   <use xlink:href="#dot" transform="translate(-121.531596,38.353079)" />   <use xlink:href="#dot" transform="translate(-121.748261,38.084194)" />   <use xlink:href="#dot" transform="translate(-121.75562,38.024715)" />   <use xlink:href="#dot" transform="translate(-121.728962,38.065086)" />   <use xlink:href="#dot" transform="translate(-121.75562,38.024715)" />   <use xlink:href="#dot" transform="translate(-121.748261,38.084194)" />   <use xlink:href="#dot" transform="translate(-121.75562,38.024715)" />   <use xlink:href="#dot" transform="translate(-121.75562,38.024715)" />   <use xlink:href="#dot" transform="translate(-121.728962,38.065086)" />   <use xlink:href="#dot" transform="translate(-121.75562,38.024715)" />   <use xlink:href="#dot" transform="translate(-121.75562,38.024715)" />   <use xlink:href="#dot" transform="translate(-121.75562,38.024715)" />   <use xlink:href="#dot" transform="translate(-121.728962,38.065086)" />   <use xlink:href="#dot" transform="translate(-121.728962,38.065086)" />   <use xlink:href="#dot" transform="translate(-121.75562,38.024715)" />   <use xlink:href="#dot" transform="translate(-121.75562,38.024715)" />   <use xlink:href="#dot" transform="translate(-121.75562,38.024715)" />   <use xlink:href="#dot" transform="translate(-121.75562,38.024715)" />   <use xlink:href="#dot" transform="translate(-122.036645,38.235284)" />   <use xlink:href="#dot" transform="translate(-121.760255,38.024165)" />   <use xlink:href="#dot" transform="translate(-121.760255,38.024165)" />   <use xlink:href="#dot" transform="translate(-121.760255,38.024165)" />   <use xlink:href="#dot" transform="translate(-121.760255,38.024165)" />   <use xlink:href="#dot" transform="translate(-121.760255,38.024165)" />   <use xlink:href="#dot" transform="translate(-121.760255,38.024165)" />   <use xlink:href="#dot" transform="translate(-121.795274,38.022151)" />   <use xlink:href="#dot" transform="translate(-121.743027,38.086305)" />   <use xlink:href="#dot" transform="translate(-122.432821,37.963627)" />   <use xlink:href="#dot" transform="translate(-121.782612,38.05216)" />   <use xlink:href="#dot" transform="translate(-121.743027,38.086305)" />   <use xlink:href="#dot" transform="translate(-121.760255,38.024165)" />   <use xlink:href="#dot" transform="translate(-121.760255,38.024165)" />   <use xlink:href="#dot" transform="translate(-121.760255,38.024165)" />   <use xlink:href="#dot" transform="translate(-121.760255,38.024165)" />   <use xlink:href="#dot" transform="translate(-121.760255,38.024165)" />   <use xlink:href="#dot" transform="translate(-121.760255,38.024165)" />   <use xlink:href="#dot" transform="translate(-121.743027,38.086305)" />   <use xlink:href="#dot" transform="translate(-121.760255,38.024165)" />   <use xlink:href="#dot" transform="translate(-121.743027,38.086305)" />   <use xlink:href="#dot" transform="translate(-121.743027,38.086305)" />   <use xlink:href="#dot" transform="translate(-121.760255,38.024165)" />   <use xlink:href="#dot" transform="translate(-121.760255,38.024165)" />   <use xlink:href="#dot" transform="translate(-121.760255,38.024165)" />   <use xlink:href="#dot" transform="translate(-121.760255,38.024165)" />   <use xlink:href="#dot" transform="translate(-121.760255,38.024165)" />   <use xlink:href="#dot" transform="translate(-121.760255,38.024165)" />   <use xlink:href="#dot" transform="translate(-121.760255,38.024165)" /><polygon class="region" points="-121.784648,36.807104 -154.3676,56.86617 -153.754167,59.513889 -152.2,59.986667 -146.342,61.102 -139.76706,59.84246 -133.179918,56.681232 -121.833333,49.5 -121.531596,38.353079 -121.784648,36.807104 " />
		  </g>
		</svg>