<?xml version="1.0" encoding="UTF-8"?>
	<svg xmlns:xlink="http://www.w3.org/1999/xlink" 
	xmlns="http://www.w3.org/2000/svg" 
	width="360px" height="180px">
	   <style type="text/css">
		  <![CDATA[     
		  .region 
		  { 
			fill:blue; 
			opacity:0.4; 
			stroke:blue;
		  }
		  ]]>
	   </style>

	<circle id="dot" x="-2" y="-2" r="2" style="stroke:none; stroke-width:0; fill:black; opacity:0.7;"/>


	 <image x="0" y="0" width="360" height="180" xlink:href="map.jpg"/>

 
	 <g transform="translate(180,90) scale(1,-1)"><polygon class="region" points="17.495833333,42.925 17.491418796,42.91332906 17.65,42.875 17.514456177,42.950567288 17.441666666,43.025 17.699032254,43.092062717 17.7375,43.2625 17.256377156,43.578599378 17.0125,43.520833333 17.104166667,43.345833334 16.933333333,43.4 16.915815904,43.715815735 16.320833333,44.104166667 16.146635946,44.515931533 16.979166666,44.179166667 16.967566257,44.374338786 17.256618246,44.382978991 17.636562771,44.028599378 18.212104119,43.974032253 18.166666667,43.691666667 18.608333334,43.654166667 18.745833333,43.491666666 18.521426222,43.34258372 19.004166667,42.5625 18.821186659,42.380908881 19.370833333,41.845833333 18.556017049,42.391049194 18.568877156,42.449432712 18.524419149,42.39116923 17.840861003,42.799284194 17.760302057,42.758913167 17.000782267,43.049317763 17.297993639,43.007715861 17.461753336,42.924432712 17.495833333,42.925 " /><polygon class="region" points="18.691200087,42.405807834 18.694444445,42.404166667 18.695478991,42.406247965 18.694336107,42.408588325 18.691200087,42.405807834 " /><polygon class="region" points="17.653700087,42.880807834 17.656944444,42.879166667 17.65797899,42.881247965 17.656835937,42.883588325 17.653700087,42.880807834 " /><polygon class="region" points="17.02453342,43.026641168 17.027777778,43.025 17.028812324,43.027081299 17.027669271,43.029421658 17.02453342,43.026641168 " /><polygon class="region" points="17.76203342,42.768307834 17.765277778,42.766666667 17.766312324,42.768747965 17.765169271,42.771088325 17.76203342,42.768307834 " /><polygon class="region" points="18.594982402,42.432482572 18.591666667,42.433333334 18.592517598,42.430017429 18.595833334,42.429166667 18.594982402,42.432482572 " /><polygon class="region" points="17.657482571,42.874149238 17.654166667,42.875 17.655017429,42.871684096 17.658333333,42.870833333 17.657482571,42.874149238 " /><polygon class="region" points="17.729166667,42.816666667 17.730017429,42.813350762 17.733333334,42.8125 17.732482571,42.815815905 17.729166667,42.816666667 " /><polygon class="region" points="18.682482401,42.469982571 18.679166667,42.470833334 18.679166667,42.466666667 18.683333334,42.466666667 18.682482401,42.469982571 " /><polygon class="region" points="18.699432712,42.401214939 18.705341593,42.395422024 18.708900621,42.398785062 18.70299174,42.404577975 18.699432712,42.401214939 " /><polygon class="region" points="17.570215861,42.934279039 17.577777777,42.933333334 17.57887675,42.936192831 17.574085151,42.938117472 17.570215861,42.934279039 " /><polygon class="region" points="17.557715861,42.934279039 17.565277777,42.933333334 17.56637675,42.936192831 17.561585151,42.938117472 17.557715861,42.934279039 " /><polygon class="region" points="17.87856174,42.777610949 17.883879937,42.779923163 17.880615234,42.783938259 17.87856174,42.777610949 " /><polygon class="region" points="17.744933743,42.811838786 17.7375,42.8125 17.745833334,42.808333333 17.744933743,42.811838786 " /><polygon class="region" points="17.593622844,42.929733955 17.583021037,42.932257419 17.606944444,42.920833334 17.608253988,42.923951212 17.593622844,42.929733955 " /><polygon class="region" points="18.452144369,42.836680094 18.391672092,42.854666341 18.419152018,42.808239339 18.497638889,42.734861111 18.452144369,42.836680094 " /><polygon class="region" points="18.61028951,42.425567288 18.668622843,42.408900621 18.712972514,42.409445191 18.679166667,42.458333334 18.61028951,42.425567288 " /><polygon class="region" points="18.76203342,42.430807834 18.774166108,42.424995422 18.771942139,42.490272522 18.653331757,42.498603821 18.76203342,42.430807834 " /><polygon class="region" points="17.037122125,43.632964817 17.123330621,43.684047716 16.970017226,43.707831217 16.972497287,43.656941732 17.037122125,43.632964817 " /><polygon class="region" points="18.339924452,42.516313341 18.429166667,42.4875 18.549291483,42.599112617 18.275721571,42.665918647 18.339924452,42.516313341 " /><polygon class="region" points="16.845833334,42.9 16.603511217,42.986011081 17.204104275,42.918066746 16.97963596,42.925617472 16.845833334,42.9 " /><polygon class="region" points="17.157728407,42.944277615 17.163046603,42.94658983 17.159781901,42.950604926 17.157728407,42.944277615 " /><polygon class="region" points="16.682690599,42.964870199 16.690277777,42.958333334 16.688344998,42.96730957 16.682690599,42.964870199 " /><polygon class="region" points="16.803456794,42.904847209 16.799319458,42.900788371 16.820582411,42.903324382 16.803456794,42.904847209 " /><polygon class="region" points="17.35417277,42.805451456 17.673939684,42.736767578 17.758369954,42.694503106 17.326052179,42.771592204 17.35417277,42.805451456 " /><polygon class="region" points="16.779166667,42.779166667 16.927160305,42.774382527 16.945173476,42.755169338 16.838474868,42.721590508 16.779166667,42.779166667 " /><polygon class="region" points="16.817410278,42.76167806 16.816086832,42.752406481 16.819444444,42.75 16.821396044,42.754749214 16.817410278,42.76167806 " /><polygon class="region" points="17.822877672,42.74934455 17.856288995,42.757677884 17.920774332,42.705435181 17.78684455,42.753585138 17.822877672,42.74934455 " /><polygon class="region" points="17.920533583,42.690762329 17.952160306,42.699382527 17.979622057,42.675923665 17.943673028,42.671450806 17.920533583,42.690762329 " /><polygon class="region" points="16.945833333,42.770833333 16.987254164,42.788155449 17.00065545,42.779412503 16.973924086,42.753511217 16.945833333,42.770833333 " /><polygon class="region" points="16.49504954,42.746617296 16.486894904,42.756015693 16.507428996,42.775604926 16.538105096,42.763316175 16.49504954,42.746617296 " /><polygon class="region" points="18.024382527,42.664506361 18.013477919,42.659079657 17.982990858,42.678207058 18.003429836,42.688117472 18.024382527,42.664506361 " /><polygon class="region" points="16.724879286,42.759527249 16.733938429,42.751328871 16.709566074,42.745228407 16.722036404,42.766820611 16.724879286,42.759527249 " /><polygon class="region" points="16.249716696,42.395004611 16.267094591,42.396400961 16.279211087,42.390398831 16.273611111,42.383333333 16.249716696,42.395004611 " /><polygon class="region" points="18.841666666,42.275 18.857425944,42.269925944 18.862805515,42.259278022 18.85231764,42.257728407 18.841666666,42.275 " /><polygon class="region" points="17.495833333,42.925 17.496708848,42.933583577 17.5125,42.916666667 17.500909084,42.917290242 17.495833333,42.925 " /><polygon class="region" points="17.104237874,42.765837944 17.118551636,42.767297024 17.121210055,42.763032362 17.104932318,42.75902303 17.104237874,42.765837944 " /><polygon class="region" points="17.187305366,42.961571587 17.196591525,42.962943861 17.208146837,42.957224867 17.188304308,42.954812961 17.187305366,42.961571587 " /><polygon class="region" points="18.187187873,42.582257419 18.193881226,42.583758206 18.202777778,42.570833333 18.192573717,42.571465725 18.187187873,42.582257419 " /><polygon class="region" points="17.924805365,42.711571588 17.935182359,42.713104926 17.936111112,42.704166666 17.925798543,42.704850939 17.924805365,42.711571588 " /><polygon class="region" points="17.945454577,42.649044461 17.956015693,42.650604927 17.956944445,42.641666666 17.950811429,42.642416043 17.945454577,42.649044461 " /><polygon class="region" points="18.170266046,42.590350341 18.176612176,42.592233954 18.181944444,42.583333333 18.171696811,42.583968438 18.170266046,42.590350341 " /><polygon class="region" points="17.45369873,42.957272 17.461438666,42.95880127 17.461111111,42.95 17.45499471,42.950712755 17.45369873,42.957272 " /><polygon class="region" points="16.987032064,42.819772 16.994772,42.821301269 16.994444445,42.8125 16.988328044,42.813212755 16.987032064,42.819772 " /><polygon class="region" points="17.199532064,42.940605333 17.207272,42.942134603 17.206944444,42.933333334 17.200828043,42.934046089 17.199532064,42.940605333 " /><polygon class="region" points="17.070365397,42.761438666 17.078105333,42.762967936 17.077777778,42.754166667 17.071661377,42.754879422 17.070365397,42.761438666 " /><polygon class="region" points="18.199382358,42.592612373 18.201220025,42.600617472 18.207757908,42.593782891 18.206944444,42.591666666 18.199382358,42.592612373 " /><polygon class="region" points="17.470215861,42.934279039 17.47822503,42.942263794 17.477777778,42.933333334 17.470215861,42.934279039 " /><polygon class="region" points="17.141049194,42.763445706 17.149058363,42.77143046 17.148611111,42.7625 17.141049194,42.763445706 " /><polygon class="region" points="17.1875,42.9375 17.188752238,42.942246501 17.196413167,42.940508694 17.193864611,42.938079834 17.1875,42.9375 " /><polygon class="region" points="16.777951898,42.783771091 16.779166667,42.779166667 16.771667141,42.779849922 16.771157667,42.782428656 16.777951898,42.783771091 " /><polygon class="region" points="18.045215691,42.650945706 18.049084981,42.654784139 18.053876919,42.652859497 18.052777777,42.65 18.045215691,42.650945706 " /><polygon class="region" points="16.741049025,42.755112373 16.744918315,42.758950806 16.749710253,42.757026164 16.748611111,42.754166667 16.741049025,42.755112373 " /><polygon class="region" points="16.811882358,43.030112373 16.815751648,43.033950805 16.820543586,43.032026163 16.819444444,43.029166667 16.811882358,43.030112373 " /><polygon class="region" points="16.991049195,42.763445706 16.994918485,42.767284139 16.999710083,42.765359497 16.998611111,42.7625 16.991049195,42.763445706 " /><polygon class="region" points="17.482866753,42.926641167 17.486002604,42.929421658 17.487145657,42.927081299 17.486111112,42.925 17.482866753,42.926641167 " /><polygon class="region" points="17.25,43.579166666 17.7375,43.2625 17.699032254,43.092062717 17.427031793,43.025642903 16.691666667,43.4375 17.071962483,43.336977471 17.0125,43.520833333 17.25,43.579166666 " /><polygon class="region" points="16.42555898,43.389586894 16.800469123,43.358950976 16.900617472,43.312030877 16.531173198,43.267284309 16.42555898,43.389586894 " /><polygon class="region" points="16.375,43.15 16.307677884,43.170543586 16.574133301,43.238155449 17.200579834,43.127914429 16.892345853,43.111920166 16.442822774,43.162715658 16.375,43.15 " /><polygon class="region" points="16.207081096,43.070253499 16.231965468,43.011882528 16.041399129,43.057384915 16.145364041,43.083950806 16.207081096,43.070253499 " /><polygon class="region" points="16.191049194,43.063445706 16.198611111,43.0625 16.199710083,43.065359497 16.194918484,43.067284139 16.191049194,43.063445706 " /><polygon class="region" points="16.191049024,43.402798801 16.32963579,43.400617641 16.403607687,43.33124644 16.212030877,43.378549025 16.191049024,43.402798801 " /><polygon class="region" points="16.73054674,43.082624647 16.681173197,43.079784139 16.658336385,43.090280829 16.740887451,43.095125665 16.73054674,43.082624647 " /><polygon class="region" points="16.005169,42.957611763 15.991023763,42.950992839 16.009185452,42.996100193 16.028560384,42.977083333 16.005169,42.957611763 " /><polygon class="region" points="15.743072849,43.015990533 15.72575175,43.028190104 15.770052761,43.03680386 15.764660306,43.021450805 15.743072849,43.015990533 " /><polygon class="region" points="16.186932712,43.389456177 16.171229214,43.39680108 16.16820204,43.408900621 16.182432895,43.407675171 16.186932712,43.389456177 " /><polygon class="region" points="16.375,43.15 16.383333334,43.15 16.382417806,43.141023763 16.375753275,43.142614746 16.375,43.15 " /><polygon class="region" points="16.570365227,43.090605333 16.578105333,43.092134603 16.577777778,43.083333333 16.571661377,43.084046088 16.570365227,43.090605333 " /><polygon class="region" points="16.262032064,43.053105333 16.269772,43.054634603 16.269444444,43.045833333 16.263328044,43.046546088 16.262032064,43.053105333 " /><polygon class="region" points="16.253549194,43.034279039 16.255386692,43.042284139 16.261924574,43.035449558 16.261111111,43.033333333 16.253549194,43.034279039 " /><polygon class="region" points="15.457728407,43.090110948 15.459781901,43.09643826 15.463046604,43.092423163 15.457728407,43.090110948 " /><polygon class="region" points="15.795215861,43.005112373 15.799085151,43.008950805 15.80387675,43.007026164 15.802777777,43.004166667 15.795215861,43.005112373 " />
		  </g>
		</svg>