<?xml version="1.0" encoding="UTF-8"?>
	<svg xmlns:xlink="http://www.w3.org/1999/xlink" 
	xmlns="http://www.w3.org/2000/svg" 
	width="360px" height="180px">
	   <style type="text/css">
		  <![CDATA[     
		  .region 
		  { 
			fill:blue; 
			opacity:0.4; 
			stroke:blue;
		  }
		  ]]>
	   </style>

	<circle id="dot" x="-2" y="-2" r="2" style="stroke:none; stroke-width:0; fill:black; opacity:0.7;"/>


	 <image x="0" y="0" width="360" height="180" xlink:href="map.jpg"/>

 
	 <g transform="translate(180,90) scale(1,-1)">   <use xlink:href="#dot" transform="translate(23.77714,35.573826)" />   <use xlink:href="#dot" transform="translate(-1.9525,36.9202)" />   <use xlink:href="#dot" transform="translate(-2.5184,36.8243)" />   <use xlink:href="#dot" transform="translate(-2.0695,36.7737)" />   <use xlink:href="#dot" transform="translate(-2.1141,36.7525)" />   <use xlink:href="#dot" transform="translate(-2.0789,36.7673)" />   <use xlink:href="#dot" transform="translate(-1.9097,36.9356)" />   <use xlink:href="#dot" transform="translate(-1.9097,36.9356)" />   <use xlink:href="#dot" transform="translate(-2.0695,36.7737)" />   <use xlink:href="#dot" transform="translate(-2.1013,36.7619)" />   <use xlink:href="#dot" transform="translate(0.16,38.71)" />   <use xlink:href="#dot" transform="translate(13.6268,43.5396)" />   <use xlink:href="#dot" transform="translate(0.16,38.71)" />   <use xlink:href="#dot" transform="translate(-0.32,38.46)" />   <use xlink:href="#dot" transform="translate(0.16,38.71)" />   <use xlink:href="#dot" transform="translate(0.16,38.71)" />   <use xlink:href="#dot" transform="translate(5.15502,43.28268)" />   <use xlink:href="#dot" transform="translate(2.82283,41.6868)" />   <use xlink:href="#dot" transform="translate(-0.32,37.96)" />   <use xlink:href="#dot" transform="translate(0.3,38.68)" />   <use xlink:href="#dot" transform="translate(0.29,38.86)" />   <use xlink:href="#dot" transform="translate(-0.44,37.96)" />   <use xlink:href="#dot" transform="translate(-0.32,38.05)" />   <use xlink:href="#dot" transform="translate(-0.06,38.86)" />   <use xlink:href="#dot" transform="translate(0.06,38.95)" />   <use xlink:href="#dot" transform="translate(-0.55,38.15)" />   <use xlink:href="#dot" transform="translate(0.18,38.86)" />   <use xlink:href="#dot" transform="translate(0.07,38.68)" />   <use xlink:href="#dot" transform="translate(-0.31,38.41)" />   <use xlink:href="#dot" transform="translate(0.18,38.68)" />   <use xlink:href="#dot" transform="translate(-0.33,37.87)" />   <use xlink:href="#dot" transform="translate(-0.55,38.06)" />   <use xlink:href="#dot" transform="translate(-0.32,38.14)" />   <use xlink:href="#dot" transform="translate(-0.44,37.87)" />   <use xlink:href="#dot" transform="translate(-0.32,38.23)" />   <use xlink:href="#dot" transform="translate(0.29,38.77)" />   <use xlink:href="#dot" transform="translate(-0.55,37.97)" />   <use xlink:href="#dot" transform="translate(-0.31,38.32)" />   <use xlink:href="#dot" transform="translate(0.06,38.86)" />   <use xlink:href="#dot" transform="translate(0.17,38.95)" />   <use xlink:href="#dot" transform="translate(0.07,38.59)" />   <use xlink:href="#dot" transform="translate(0.18,38.77)" />   <use xlink:href="#dot" transform="translate(-0.06,38.95)" />   <use xlink:href="#dot" transform="translate(-0.56,37.88)" />   <use xlink:href="#dot" transform="translate(-0.44,38.05)" />   <use xlink:href="#dot" transform="translate(-0.67,37.88)" />   <use xlink:href="#dot" transform="translate(-0.43,38.15)" />   <use xlink:href="#dot" transform="translate(-0.67,37.97)" />   <use xlink:href="#dot" transform="translate(0.18,38.77)" />   <use xlink:href="#dot" transform="translate(-0.08,38.5)" />   <use xlink:href="#dot" transform="translate(0.07,38.59)" />   <use xlink:href="#dot" transform="translate(1.643,39.038)" />   <use xlink:href="#dot" transform="translate(-0.44,38.05)" />   <use xlink:href="#dot" transform="translate(-0.43,38.15)" />   <use xlink:href="#dot" transform="translate(0.72,39.86)" />   <use xlink:href="#dot" transform="translate(-0.44,38.05)" />   <use xlink:href="#dot" transform="translate(-0.43,38.15)" />   <use xlink:href="#dot" transform="translate(2.74,39.39)" />   <use xlink:href="#dot" transform="translate(2.74,39.39)" />   <use xlink:href="#dot" transform="translate(2.74,39.39)" />   <use xlink:href="#dot" transform="translate(2.74,39.39)" />   <use xlink:href="#dot" transform="translate(0.07,38.68)" />   <use xlink:href="#dot" transform="translate(-0.43,38.15)" />   <use xlink:href="#dot" transform="translate(-0.07,38.59)" />   <use xlink:href="#dot" transform="translate(0.07,38.77)" />   <use xlink:href="#dot" transform="translate(-0.07,38.59)" />   <use xlink:href="#dot" transform="translate(0.07,38.68)" />   <use xlink:href="#dot" transform="translate(-0.43,38.15)" />   <use xlink:href="#dot" transform="translate(0.07,38.77)" />   <use xlink:href="#dot" transform="translate(0.07,38.77)" />   <use xlink:href="#dot" transform="translate(0.07,38.68)" />   <use xlink:href="#dot" transform="translate(-0.07,38.59)" />   <use xlink:href="#dot" transform="translate(-0.43,38.15)" />   <use xlink:href="#dot" transform="translate(-0.07,38.59)" />   <use xlink:href="#dot" transform="translate(-0.43,38.15)" />   <use xlink:href="#dot" transform="translate(0.72,39.86)" />   <use xlink:href="#dot" transform="translate(0.07,38.68)" />   <use xlink:href="#dot" transform="translate(-0.09,38.14)" />   <use xlink:href="#dot" transform="translate(-0.43,38.15)" />   <use xlink:href="#dot" transform="translate(-0.54,38.24)" />   <use xlink:href="#dot" transform="translate(-0.09,38.14)" />   <use xlink:href="#dot" transform="translate(13.6,45.083333)" />   <use xlink:href="#dot" transform="translate(13.593333,45.213889)" />   <use xlink:href="#dot" transform="translate(25.383333,37.1)" />   <use xlink:href="#dot" transform="translate(10.183333,36.8)" /><polygon class="region" points="-2.1141,36.7525 -2.5184,36.8243 0.72,39.86 2.82283,41.6868 5.15502,43.28268 13.593333,45.213889 25.383333,37.1 23.77714,35.573826 -2.1141,36.7525 " />
		  </g>
		</svg>