<?xml version="1.0" encoding="UTF-8"?>
	<svg xmlns:xlink="http://www.w3.org/1999/xlink" 
	xmlns="http://www.w3.org/2000/svg" 
	width="360px" height="180px">
	   <style type="text/css">
		  <![CDATA[     
		  .region 
		  { 
			fill:blue; 
			opacity:0.4; 
			stroke:blue;
		  }
		  ]]>
	   </style>

	<circle id="dot" x="-2" y="-2" r="2" style="stroke:none; stroke-width:0; fill:black; opacity:0.7;"/>


	 <image x="0" y="0" width="360" height="180" xlink:href="map.jpg"/>

 
	 <g transform="translate(180,90) scale(1,-1)">   <use xlink:href="#dot" transform="translate(136.9667,-35.6)" />   <use xlink:href="#dot" transform="translate(136.9667,-35.6)" />   <use xlink:href="#dot" transform="translate(136.9667,-35.6)" />   <use xlink:href="#dot" transform="translate(95.2539,5.89668)" />   <use xlink:href="#dot" transform="translate(34.4713,28.0058)" />   <use xlink:href="#dot" transform="translate(169.7,-42.383)" />   <use xlink:href="#dot" transform="translate(169.683,-42.317)" />   <use xlink:href="#dot" transform="translate(169.667,-42.367)" />   <use xlink:href="#dot" transform="translate(169.7,-42.383)" />   <use xlink:href="#dot" transform="translate(170.1,-41.917)" />   <use xlink:href="#dot" transform="translate(169.7,-42.383)" />   <use xlink:href="#dot" transform="translate(170.1,-41.917)" />   <use xlink:href="#dot" transform="translate(176.617,-34.883)" />   <use xlink:href="#dot" transform="translate(169.667,-42.067)" />   <use xlink:href="#dot" transform="translate(169.483,-42.083)" />   <use xlink:href="#dot" transform="translate(169.667,-42.067)" />   <use xlink:href="#dot" transform="translate(141.6952,-38.806300038061)" />   <use xlink:href="#dot" transform="translate(177.917,-40.9)" />   <use xlink:href="#dot" transform="translate(170,-42)" />   <use xlink:href="#dot" transform="translate(169.733,-42.317)" />   <use xlink:href="#dot" transform="translate(169.75,-42.283)" />   <use xlink:href="#dot" transform="translate(169.766667,-42.433333)" />   <use xlink:href="#dot" transform="translate(169.75,-42.383333)" />   <use xlink:href="#dot" transform="translate(169.5,-42.2)" />   <use xlink:href="#dot" transform="translate(169.983333,-41.95)" />   <use xlink:href="#dot" transform="translate(172.883,-33.533)" />   <use xlink:href="#dot" transform="translate(174.333,-33.517)" />   <use xlink:href="#dot" transform="translate(169.616667,-42.083333)" />   <use xlink:href="#dot" transform="translate(169.666667,-42.05)" />   <use xlink:href="#dot" transform="translate(130.916667,-33.166667)" />   <use xlink:href="#dot" transform="translate(177.9,-36.35)" />   <use xlink:href="#dot" transform="translate(173.133333,-33.466667)" />   <use xlink:href="#dot" transform="translate(142.2333,-38.900000038144)" />   <use xlink:href="#dot" transform="translate(178.256667,-36.325)" />   <use xlink:href="#dot" transform="translate(178.256667,-36.216667)" />   <use xlink:href="#dot" transform="translate(154.25,-26.25)" />   <use xlink:href="#dot" transform="translate(145.75,-43.75)" />   <use xlink:href="#dot" transform="translate(148.25,-43.75)" />   <use xlink:href="#dot" transform="translate(113.75,-33.75)" />   <use xlink:href="#dot" transform="translate(131.25,-33.25)" />   <use xlink:href="#dot" transform="translate(132.25,-33.75)" />   <use xlink:href="#dot" transform="translate(150.75,-35.75)" />   <use xlink:href="#dot" transform="translate(154.25,-29.75)" />   <use xlink:href="#dot" transform="translate(152.25,-33.75)" />   <use xlink:href="#dot" transform="translate(152.25,-34.75)" />   <use xlink:href="#dot" transform="translate(139.25,-37.25)" />   <use xlink:href="#dot" transform="translate(116.75,-35.75)" />   <use xlink:href="#dot" transform="translate(153.75,-25.25)" />   <use xlink:href="#dot" transform="translate(154.75,-28.25)" />   <use xlink:href="#dot" transform="translate(132.75,-34.75)" />   <use xlink:href="#dot" transform="translate(158.25,-28.25)" />   <use xlink:href="#dot" transform="translate(109.25,-29.75)" />   <use xlink:href="#dot" transform="translate(153.75,-32.25)" />   <use xlink:href="#dot" transform="translate(117.25,-35.75)" />   <use xlink:href="#dot" transform="translate(151.75,-34.25)" />   <use xlink:href="#dot" transform="translate(151.25,-33.75)" />   <use xlink:href="#dot" transform="translate(114.75,-35.25)" />   <use xlink:href="#dot" transform="translate(113.25,-21.75)" />   <use xlink:href="#dot" transform="translate(153.25,-29.75)" />   <use xlink:href="#dot" transform="translate(153.75,-29.75)" />   <use xlink:href="#dot" transform="translate(139.25,-37.75)" />   <use xlink:href="#dot" transform="translate(113.75,-35.25)" />   <use xlink:href="#dot" transform="translate(154.25,-29.25)" />   <use xlink:href="#dot" transform="translate(110.75,-24.75)" />   <use xlink:href="#dot" transform="translate(109.75,-27.25)" />   <use xlink:href="#dot" transform="translate(115.25,-35.25)" />   <use xlink:href="#dot" transform="translate(108.25,-27.25)" />   <use xlink:href="#dot" transform="translate(156.75,-25.25)" />   <use xlink:href="#dot" transform="translate(113.25,-35.25)" />   <use xlink:href="#dot" transform="translate(153.75,-29.25)" />   <use xlink:href="#dot" transform="translate(148.75,-43.25)" />   <use xlink:href="#dot" transform="translate(153.75,-30.25)" />   <use xlink:href="#dot" transform="translate(153.25,-30.75)" />   <use xlink:href="#dot" transform="translate(112.25,-31.75)" />   <use xlink:href="#dot" transform="translate(151.75,-35.25)" />   <use xlink:href="#dot" transform="translate(132.75,-34.25)" />   <use xlink:href="#dot" transform="translate(113.75,-34.75)" />   <use xlink:href="#dot" transform="translate(148.75,-42.25)" />   <use xlink:href="#dot" transform="translate(111.75,-32.25)" />   <use xlink:href="#dot" transform="translate(109.25,-29.25)" />   <use xlink:href="#dot" transform="translate(108.75,-29.25)" />   <use xlink:href="#dot" transform="translate(151.75,-34.75)" />   <use xlink:href="#dot" transform="translate(132.25,-34.25)" />   <use xlink:href="#dot" transform="translate(110.75,-25.75)" />   <use xlink:href="#dot" transform="translate(131.75,-33.25)" />   <use xlink:href="#dot" transform="translate(113.25,-34.25)" />   <use xlink:href="#dot" transform="translate(150.75,-36.25)" />   <use xlink:href="#dot" transform="translate(111.75,-33.25)" />   <use xlink:href="#dot" transform="translate(132.25,-33.25)" />   <use xlink:href="#dot" transform="translate(112.25,-32.75)" />   <use xlink:href="#dot" transform="translate(113.75,-34.25)" />   <use xlink:href="#dot" transform="translate(151.25,-35.25)" />   <use xlink:href="#dot" transform="translate(112.25,-27.75)" />   <use xlink:href="#dot" transform="translate(110.25,-27.25)" />   <use xlink:href="#dot" transform="translate(118.75,-35.25)" />   <use xlink:href="#dot" transform="translate(150.75,-36.75)" />   <use xlink:href="#dot" transform="translate(108.25,-24.75)" />   <use xlink:href="#dot" transform="translate(131.75,-33.75)" />   <use xlink:href="#dot" transform="translate(112.25,-33.25)" />   <use xlink:href="#dot" transform="translate(152.75,-33.25)" />   <use xlink:href="#dot" transform="translate(152.25,-34.25)" />   <use xlink:href="#dot" transform="translate(155.25,-24.25)" />   <use xlink:href="#dot" transform="translate(117.25,-36.25)" />   <use xlink:href="#dot" transform="translate(113.25,-33.75)" />   <use xlink:href="#dot" transform="translate(112.25,-33.75)" />   <use xlink:href="#dot" transform="translate(153.25,-32.75)" />   <use xlink:href="#dot" transform="translate(151.25,-34.75)" />   <use xlink:href="#dot" transform="translate(116.25,-35.75)" />   <use xlink:href="#dot" transform="translate(151.75,-35.75)" />   <use xlink:href="#dot" transform="translate(113.25,-34.75)" />   <use xlink:href="#dot" transform="translate(148.25,-43.25)" />   <use xlink:href="#dot" transform="translate(153.25,-30.25)" />   <use xlink:href="#dot" transform="translate(152.75,-30.75)" />   <use xlink:href="#dot" transform="translate(114.25,-35.25)" />   <use xlink:href="#dot" transform="translate(153.25,-32.25)" />   <use xlink:href="#dot" transform="translate(153.25,-29.25)" />   <use xlink:href="#dot" transform="translate(111.75,-31.25)" />   <use xlink:href="#dot" transform="translate(151.25,-35.75)" />   <use xlink:href="#dot" transform="translate(112.75,-33.75)" />   <use xlink:href="#dot" transform="translate(109.25,-33.25)" />   <use xlink:href="#dot" transform="translate(153.25,-33.75)" />   <use xlink:href="#dot" transform="translate(152.75,-34.75)" />   <use xlink:href="#dot" transform="translate(113.25,-34.75)" />   <use xlink:href="#dot" transform="translate(112.75,-32.25)" />   <use xlink:href="#dot" transform="translate(151.75,-36.25)" />   <use xlink:href="#dot" transform="translate(136.75,-36.75)" />   <use xlink:href="#dot" transform="translate(118.75,-35.75)" />   <use xlink:href="#dot" transform="translate(151.75,-35.75)" />   <use xlink:href="#dot" transform="translate(152.25,-35.75)" />   <use xlink:href="#dot" transform="translate(113.75,-20.75)" />   <use xlink:href="#dot" transform="translate(112.75,-33.75)" />   <use xlink:href="#dot" transform="translate(148.25,-43.25)" />   <use xlink:href="#dot" transform="translate(151.75,-36.75)" />   <use xlink:href="#dot" transform="translate(115.25,-35.75)" />   <use xlink:href="#dot" transform="translate(114.25,-20.25)" />   <use xlink:href="#dot" transform="translate(151.25,-37.25)" />   <use xlink:href="#dot" transform="translate(153.25,-31.25)" />   <use xlink:href="#dot" transform="translate(111.75,-33.25)" />   <use xlink:href="#dot" transform="translate(136.25,-36.75)" />   <use xlink:href="#dot" transform="translate(150.75,-37.25)" />   <use xlink:href="#dot" transform="translate(152.25,-34.75)" />   <use xlink:href="#dot" transform="translate(110.75,-31.75)" />   <use xlink:href="#dot" transform="translate(117.75,-35.75)" />   <use xlink:href="#dot" transform="translate(130.75,-33.25)" />   <use xlink:href="#dot" transform="translate(154.25,-28.25)" />   <use xlink:href="#dot" transform="translate(152.75,-34.25)" />   <use xlink:href="#dot" transform="translate(150.75,-37.75)" />   <use xlink:href="#dot" transform="translate(152.25,-34.25)" />   <use xlink:href="#dot" transform="translate(113.25,-22.25)" />   <use xlink:href="#dot" transform="translate(114.25,-35.25)" />   <use xlink:href="#dot" transform="translate(150.75,-36.75)" />   <use xlink:href="#dot" transform="translate(132.25,-33.75)" />   <use xlink:href="#dot" transform="translate(134.75,-35.75)" />   <use xlink:href="#dot" transform="translate(136.25,-36.25)" />   <use xlink:href="#dot" transform="translate(110.75,-26.75)" />   <use xlink:href="#dot" transform="translate(113.25,-33.75)" />   <use xlink:href="#dot" transform="translate(134.75,-35.25)" />   <use xlink:href="#dot" transform="translate(137.25,-36.75)" />   <use xlink:href="#dot" transform="translate(151.75,-34.25)" />   <use xlink:href="#dot" transform="translate(112.75,-32.75)" />   <use xlink:href="#dot" transform="translate(111.75,-32.75)" />   <use xlink:href="#dot" transform="translate(153.25,-28.75)" />   <use xlink:href="#dot" transform="translate(135.25,-35.75)" />   <use xlink:href="#dot" transform="translate(135.75,-36.25)" />   <use xlink:href="#dot" transform="translate(150.75,-35.75)" />   <use xlink:href="#dot" transform="translate(112.25,-34.25)" />   <use xlink:href="#dot" transform="translate(115.75,-35.25)" />   <use xlink:href="#dot" transform="translate(113.75,-34.75)" />   <use xlink:href="#dot" transform="translate(131.25,-33.25)" />   <use xlink:href="#dot" transform="translate(113.25,-34.25)" />   <use xlink:href="#dot" transform="translate(152.25,-35.25)" />   <use xlink:href="#dot" transform="translate(153.75,-28.25)" />   <use xlink:href="#dot" transform="translate(112.25,-33.75)" />   <use xlink:href="#dot" transform="translate(151.25,-34.75)" />   <use xlink:href="#dot" transform="translate(115.25,-35.25)" />   <use xlink:href="#dot" transform="translate(151.25,-35.75)" />   <use xlink:href="#dot" transform="translate(134.25,-35.25)" />   <use xlink:href="#dot" transform="translate(112.75,-34.25)" />   <use xlink:href="#dot" transform="translate(139.25,-37.75)" />   <use xlink:href="#dot" transform="translate(150.25,-36.25)" />   <use xlink:href="#dot" transform="translate(112.25,-33.25)" />   <use xlink:href="#dot" transform="translate(151.25,-36.75)" />   <use xlink:href="#dot" transform="translate(154.25,-28.75)" />   <use xlink:href="#dot" transform="translate(150.25,-36.75)" />   <use xlink:href="#dot" transform="translate(152.25,-33.75)" />   <use xlink:href="#dot" transform="translate(151.75,-34.75)" />   <use xlink:href="#dot" transform="translate(151.25,-35.25)" />   <use xlink:href="#dot" transform="translate(132.25,-33.25)" />   <use xlink:href="#dot" transform="translate(153.75,-28.75)" />   <use xlink:href="#dot" transform="translate(151.25,-37.75)" />   <use xlink:href="#dot" transform="translate(151.75,-35.25)" />   <use xlink:href="#dot" transform="translate(119.75,-34.75)" />   <use xlink:href="#dot" transform="translate(152.25,-36.25)" />   <use xlink:href="#dot" transform="translate(114.25,-20.75)" />   <use xlink:href="#dot" transform="translate(131.75,-33.25)" />   <use xlink:href="#dot" transform="translate(151.25,-36.25)" />   <use xlink:href="#dot" transform="translate(152.25,-33.25)" />   <use xlink:href="#dot" transform="translate(150.75,-36.25)" />   <use xlink:href="#dot" transform="translate(114.75,-35.25)" />   <use xlink:href="#dot" transform="translate(112.75,-34.75)" />   <use xlink:href="#dot" transform="translate(118.75,-35.75)" />   <use xlink:href="#dot" transform="translate(152.25,-34.25)" />   <use xlink:href="#dot" transform="translate(116.25,-35.75)" />   <use xlink:href="#dot" transform="translate(151.75,-35.25)" />   <use xlink:href="#dot" transform="translate(153.25,-29.75)" />   <use xlink:href="#dot" transform="translate(151.25,-36.75)" />   <use xlink:href="#dot" transform="translate(147.25,-44.25)" />   <use xlink:href="#dot" transform="translate(148.75,-15.25)" />   <use xlink:href="#dot" transform="translate(119.75,-35.25)" />   <use xlink:href="#dot" transform="translate(115.75,-35.25)" />   <use xlink:href="#dot" transform="translate(152.75,-33.25)" />   <use xlink:href="#dot" transform="translate(131.25,-33.25)" />   <use xlink:href="#dot" transform="translate(152.25,-35.25)" />   <use xlink:href="#dot" transform="translate(154.25,-28.25)" />   <use xlink:href="#dot" transform="translate(115.25,-35.25)" />   <use xlink:href="#dot" transform="translate(155.25,-23.25)" />   <use xlink:href="#dot" transform="translate(152.75,-33.75)" />   <use xlink:href="#dot" transform="translate(153.75,-26.25)" />   <use xlink:href="#dot" transform="translate(150.25,-36.25)" />   <use xlink:href="#dot" transform="translate(136.25,-36.25)" />   <use xlink:href="#dot" transform="translate(151.25,-35.75)" />   <use xlink:href="#dot" transform="translate(116.75,-35.25)" />   <use xlink:href="#dot" transform="translate(153.25,-29.25)" />   <use xlink:href="#dot" transform="translate(132.25,-33.25)" />   <use xlink:href="#dot" transform="translate(151.75,-34.75)" />   <use xlink:href="#dot" transform="translate(145.75,-43.75)" />   <use xlink:href="#dot" transform="translate(118.75,-35.25)" />   <use xlink:href="#dot" transform="translate(117.25,-36.25)" />   <use xlink:href="#dot" transform="translate(116.25,-35.25)" />   <use xlink:href="#dot" transform="translate(136.75,-36.75)" />   <use xlink:href="#dot" transform="translate(111.75,-32.75)" />   <use xlink:href="#dot" transform="translate(150.75,-36.25)" />   <use xlink:href="#dot" transform="translate(152.75,-34.25)" />   <use xlink:href="#dot" transform="translate(153.75,-31.25)" />   <use xlink:href="#dot" transform="translate(148.75,-40.25)" />   <use xlink:href="#dot" transform="translate(117.75,-35.75)" />   <use xlink:href="#dot" transform="translate(118.25,-35.75)" />   <use xlink:href="#dot" transform="translate(153.75,-29.25)" />   <use xlink:href="#dot" transform="translate(148.25,-43.25)" />   <use xlink:href="#dot" transform="translate(146.75,-44.25)" />   <use xlink:href="#dot" transform="translate(154.25,-29.25)" />   <use xlink:href="#dot" transform="translate(151.25,-34.75)" />   <use xlink:href="#dot" transform="translate(114.75,-35.25)" />   <use xlink:href="#dot" transform="translate(151.75,-36.25)" />   <use xlink:href="#dot" transform="translate(117.25,-35.25)" />   <use xlink:href="#dot" transform="translate(153.25,-28.75)" />   <use xlink:href="#dot" transform="translate(153.75,-24.75)" />   <use xlink:href="#dot" transform="translate(153.75,-30.25)" />   <use xlink:href="#dot" transform="translate(113.75,-35.25)" />   <use xlink:href="#dot" transform="translate(151.25,-35.25)" />   <use xlink:href="#dot" transform="translate(118.25,-35.25)" />   <use xlink:href="#dot" transform="translate(117.25,-35.75)" />   <use xlink:href="#dot" transform="translate(132.75,-34.25)" />   <use xlink:href="#dot" transform="translate(113.75,-33.75)" />   <use xlink:href="#dot" transform="translate(152.75,-32.75)" />   <use xlink:href="#dot" transform="translate(114.25,-35.25)" />   <use xlink:href="#dot" transform="translate(152.25,-33.75)" />   <use xlink:href="#dot" transform="translate(114.25,-34.25)" />   <use xlink:href="#dot" transform="translate(110.75,-24.75)" />   <use xlink:href="#dot" transform="translate(151.75,-35.75)" />   <use xlink:href="#dot" transform="translate(153.25,-30.75)" />   <use xlink:href="#dot" transform="translate(116.75,-35.75)" />   <use xlink:href="#dot" transform="translate(112.75,-33.25)" />   <use xlink:href="#dot" transform="translate(150.75,-36.75)" />   <use xlink:href="#dot" transform="translate(112.75,-31.75)" />   <use xlink:href="#dot" transform="translate(153.75,-28.75)" />   <use xlink:href="#dot" transform="translate(111.25,-30.25)" />   <use xlink:href="#dot" transform="translate(119.25,-35.25)" />   <use xlink:href="#dot" transform="translate(147.75,-17.25)" />   <use xlink:href="#dot" transform="translate(151.75,-33.75)" />   <use xlink:href="#dot" transform="translate(148.25,-42.75)" />   <use xlink:href="#dot" transform="translate(153.75,-28.25)" />   <use xlink:href="#dot" transform="translate(154.25,-28.75)" />   <use xlink:href="#dot" transform="translate(153.75,-29.75)" />   <use xlink:href="#dot" transform="translate(147.75,-43.75)" />   <use xlink:href="#dot" transform="translate(158.75,-30.25)" />   <use xlink:href="#dot" transform="translate(113.75,-34.75)" />   <use xlink:href="#dot" transform="translate(150.75,-35.75)" />   <use xlink:href="#dot" transform="translate(134.25,-34.75)" />   <use xlink:href="#dot" transform="translate(113.25,-28.25)" />   <use xlink:href="#dot" transform="translate(132.25,-33.75)" />   <use xlink:href="#dot" transform="translate(152.25,-34.75)" />   <use xlink:href="#dot" transform="translate(151.25,-34.25)" />   <use xlink:href="#dot" transform="translate(151.25,-36.25)" />   <use xlink:href="#dot" transform="translate(113.25,-34.75)" />   <use xlink:href="#dot" transform="translate(113.25,-34.25)" />   <use xlink:href="#dot" transform="translate(113.25,-33.25)" />   <use xlink:href="#dot" transform="translate(112.25,-33.25)" />   <use xlink:href="#dot" transform="translate(112.75,-33.75)" />   <use xlink:href="#dot" transform="translate(152.75,-30.75)" />   <use xlink:href="#dot" transform="translate(153.25,-30.25)" />   <use xlink:href="#dot" transform="translate(151.75,-34.25)" />   <use xlink:href="#dot" transform="translate(158.25,-27.25)" />   <use xlink:href="#dot" transform="translate(152.75,-34.75)" />   <use xlink:href="#dot" transform="translate(152.25,-35.75)" />   <use xlink:href="#dot" transform="translate(147.25,-43.75)" />   <use xlink:href="#dot" transform="translate(131.75,-33.75)" />   <use xlink:href="#dot" transform="translate(117.75,-35.25)" />   <use xlink:href="#dot" transform="translate(112.25,-32.75)" />   <use xlink:href="#dot" transform="translate(111.75,-24.75)" /><polygon class="region" points="109.25,-33.25 34.4713,28.0058 95.2539,5.89668 148.75,-15.25 176.617,-34.883 178.256667,-36.216667 178.256667,-36.325 177.917,-40.9 169.766667,-42.433333 147.25,-44.25 146.75,-44.25 113.25,-35.25 109.25,-33.25 " />
		  </g>
		</svg>