<?xml version="1.0" encoding="UTF-8"?>
	<svg xmlns:xlink="http://www.w3.org/1999/xlink" 
	xmlns="http://www.w3.org/2000/svg" 
	width="360px" height="180px">
	   <style type="text/css">
		  <![CDATA[     
		  .region 
		  { 
			fill:blue; 
			opacity:0.4; 
			stroke:blue;
		  }
		  ]]>
	   </style>

	<circle id="dot" x="-2" y="-2" r="2" style="stroke:none; stroke-width:0; fill:black; opacity:0.7;"/>


	 <image x="0" y="0" width="360" height="180" xlink:href="map.jpg"/>

 
	 <g transform="translate(180,90) scale(1,-1)">   <use xlink:href="#dot" transform="translate(11.172203,58.101397)" />   <use xlink:href="#dot" transform="translate(12.454297,56.301339)" />   <use xlink:href="#dot" transform="translate(3.064504,42.64231)" />   <use xlink:href="#dot" transform="translate(16.603615,68.72678)" />   <use xlink:href="#dot" transform="translate(11.885115,58.20158)" />   <use xlink:href="#dot" transform="translate(-59.98665,46.86333)" />   <use xlink:href="#dot" transform="translate(-59.84906,46.38464)" />   <use xlink:href="#dot" transform="translate(-59.95706,46.76245)" />   <use xlink:href="#dot" transform="translate(-59.81498,46.26001)" />   <use xlink:href="#dot" transform="translate(-59.90666,46.58339)" />   <use xlink:href="#dot" transform="translate(-59.97839,46.83088)" />   <use xlink:href="#dot" transform="translate(-61.285167,46.349)" />   <use xlink:href="#dot" transform="translate(-17.34827,28.06986)" />   <use xlink:href="#dot" transform="translate(-65.20689,42.836)" />   <use xlink:href="#dot" transform="translate(27.4345,36.9871)" />   <use xlink:href="#dot" transform="translate(-5.15541,58.26464)" />   <use xlink:href="#dot" transform="translate(27.4345,36.9871)" />   <use xlink:href="#dot" transform="translate(14.3274,35.9899)" />   <use xlink:href="#dot" transform="translate(-68.4493,18.7282)" />   <use xlink:href="#dot" transform="translate(4.82813,60.483909)" />   <use xlink:href="#dot" transform="translate(14.2797,36.0156)" />   <use xlink:href="#dot" transform="translate(-61.034833,46.7545)" />   <use xlink:href="#dot" transform="translate(14.2361,36.082)" />   <use xlink:href="#dot" transform="translate(-61.408666,46.223333)" />   <use xlink:href="#dot" transform="translate(-75.102597,34.955905)" />   <use xlink:href="#dot" transform="translate(3.19788,41.8795)" />   <use xlink:href="#dot" transform="translate(8.79663,41.6937)" />   <use xlink:href="#dot" transform="translate(14.1883,36.0527)" />   <use xlink:href="#dot" transform="translate(14.2477,36.0805)" />   <use xlink:href="#dot" transform="translate(14.4231,35.9655)" />   <use xlink:href="#dot" transform="translate(14.1883,36.0527)" />   <use xlink:href="#dot" transform="translate(14.2361,36.082)" />   <use xlink:href="#dot" transform="translate(-60.2095,46.898833)" />   <use xlink:href="#dot" transform="translate(-68.79465,43.76791)" />   <use xlink:href="#dot" transform="translate(-66.16246,43.1799)" />   <use xlink:href="#dot" transform="translate(-67.75078,42.3247)" />   <use xlink:href="#dot" transform="translate(-68.18117,42.44503)" />   <use xlink:href="#dot" transform="translate(-66.907,44.964)" />   <use xlink:href="#dot" transform="translate(-67.92468,42.07754)" />   <use xlink:href="#dot" transform="translate(-66.909,44.966)" />   <use xlink:href="#dot" transform="translate(-66.913333,44.965166)" />   <use xlink:href="#dot" transform="translate(-66.893833,44.961)" />   <use xlink:href="#dot" transform="translate(-67.94581,42.07558)" />   <use xlink:href="#dot" transform="translate(-68.53668,42.31592)" />   <use xlink:href="#dot" transform="translate(-66.910833,44.962166)" />   <use xlink:href="#dot" transform="translate(-66.906833,44.964)" />   <use xlink:href="#dot" transform="translate(-66.892333,44.984833)" />   <use xlink:href="#dot" transform="translate(-66.83272,42.13564)" />   <use xlink:href="#dot" transform="translate(-70.37781,42.68303)" />   <use xlink:href="#dot" transform="translate(-70.36459,42.68308)" />   <use xlink:href="#dot" transform="translate(-69.78905,42.78067)" />   <use xlink:href="#dot" transform="translate(-67.76651,42.03883)" />   <use xlink:href="#dot" transform="translate(-67.04923,42.1385)" />   <use xlink:href="#dot" transform="translate(-70.19076,42.81728)" />   <use xlink:href="#dot" transform="translate(-66.8825,44.968333)" />   <use xlink:href="#dot" transform="translate(-69.90739,42.169)" />   <use xlink:href="#dot" transform="translate(-70.35497,40.76906)" />   <use xlink:href="#dot" transform="translate(-69.30254,40.76341)" />   <use xlink:href="#dot" transform="translate(-67.87093,41.07607)" />   <use xlink:href="#dot" transform="translate(-0.44,38.05)" />   <use xlink:href="#dot" transform="translate(-0.09,38.14)" />   <use xlink:href="#dot" transform="translate(-0.21,37.87)" />   <use xlink:href="#dot" transform="translate(-0.44,37.96)" />   <use xlink:href="#dot" transform="translate(-0.32,38.05)" />   <use xlink:href="#dot" transform="translate(-0.08,38.32)" />   <use xlink:href="#dot" transform="translate(-0.32,37.96)" />   <use xlink:href="#dot" transform="translate(-0.32,37.96)" />   <use xlink:href="#dot" transform="translate(-0.32,38.05)" />   <use xlink:href="#dot" transform="translate(-0.67,37.97)" />   <use xlink:href="#dot" transform="translate(-0.21,37.96)" />   <use xlink:href="#dot" transform="translate(-0.55,38.06)" />   <use xlink:href="#dot" transform="translate(0.31,38.41)" />   <use xlink:href="#dot" transform="translate(-0.32,38.14)" />   <use xlink:href="#dot" transform="translate(-0.32,38.14)" />   <use xlink:href="#dot" transform="translate(0.09,38.05)" />   <use xlink:href="#dot" transform="translate(-0.43,38.15)" />   <use xlink:href="#dot" transform="translate(0.08,38.41)" />   <use xlink:href="#dot" transform="translate(-0.32,37.96)" />   <use xlink:href="#dot" transform="translate(0.2,38.32)" />   <use xlink:href="#dot" transform="translate(-0.67,37.88)" />   <use xlink:href="#dot" transform="translate(-0.21,38.05)" />   <use xlink:href="#dot" transform="translate(-0.43,38.15)" />   <use xlink:href="#dot" transform="translate(-0.32,38.05)" />   <use xlink:href="#dot" transform="translate(-0.09,38.23)" />   <use xlink:href="#dot" transform="translate(0.21,38.05)" />   <use xlink:href="#dot" transform="translate(-0.21,37.96)" />   <use xlink:href="#dot" transform="translate(-0.44,37.87)" />   <use xlink:href="#dot" transform="translate(-0.2,38.32)" />   <use xlink:href="#dot" transform="translate(-0.2,38.23)" />   <use xlink:href="#dot" transform="translate(-0.09,38.05)" />   <use xlink:href="#dot" transform="translate(-0.44,38.05)" />   <use xlink:href="#dot" transform="translate(-0.44,37.96)" />   <use xlink:href="#dot" transform="translate(-0.21,37.87)" />   <use xlink:href="#dot" transform="translate(-0.09,38.14)" />   <use xlink:href="#dot" transform="translate(0.19,38.41)" />   <use xlink:href="#dot" transform="translate(-0.19,38.41)" />   <use xlink:href="#dot" transform="translate(0.32,38.23)" />   <use xlink:href="#dot" transform="translate(0.31,38.32)" />   <use xlink:href="#dot" transform="translate(0.2,38.23)" />   <use xlink:href="#dot" transform="translate(-0.55,37.97)" />   <use xlink:href="#dot" transform="translate(-0.33,37.87)" />   <use xlink:href="#dot" transform="translate(-0.44,37.96)" />   <use xlink:href="#dot" transform="translate(-0.21,38.05)" />   <use xlink:href="#dot" transform="translate(-0.43,38.33)" />   <use xlink:href="#dot" transform="translate(-0.43,38.24)" />   <use xlink:href="#dot" transform="translate(-0.08,38.41)" />   <use xlink:href="#dot" transform="translate(0.08,38.32)" />   <use xlink:href="#dot" transform="translate(-0.32,38.14)" />   <use xlink:href="#dot" transform="translate(-0.43,38.15)" />   <use xlink:href="#dot" transform="translate(-0.55,38.15)" />   <use xlink:href="#dot" transform="translate(0.09,38.23)" />   <use xlink:href="#dot" transform="translate(-0.2,38.14)" />   <use xlink:href="#dot" transform="translate(-0.44,38.05)" />   <use xlink:href="#dot" transform="translate(-0.56,37.88)" />   <use xlink:href="#dot" transform="translate(-66.587833,44.597833)" />   <use xlink:href="#dot" transform="translate(-66.634333,44.607833)" />   <use xlink:href="#dot" transform="translate(-66.6343,44.6078)" />   <use xlink:href="#dot" transform="translate(-66.6517,44.6285)" />   <use xlink:href="#dot" transform="translate(-66.5878,44.5978)" />   <use xlink:href="#dot" transform="translate(-66.651666,44.6285)" />   <use xlink:href="#dot" transform="translate(-66.4715,44.706166)" />   <use xlink:href="#dot" transform="translate(-66.7128,44.5083)" />   <use xlink:href="#dot" transform="translate(-66.619666,44.636166)" />   <use xlink:href="#dot" transform="translate(-66.5937,44.5683)" />   <use xlink:href="#dot" transform="translate(-66.5817,44.6792)" />   <use xlink:href="#dot" transform="translate(-66.6197,44.6362)" />   <use xlink:href="#dot" transform="translate(-66.525,44.706)" />   <use xlink:href="#dot" transform="translate(-66.623166,44.640166)" />   <use xlink:href="#dot" transform="translate(-66.581666,44.679166)" />   <use xlink:href="#dot" transform="translate(-66.525,44.706)" />   <use xlink:href="#dot" transform="translate(-66.6232,44.6402)" />   <use xlink:href="#dot" transform="translate(-66.712833,44.508333)" />   <use xlink:href="#dot" transform="translate(-66.616,44.586666)" />   <use xlink:href="#dot" transform="translate(-66.593666,44.568333)" />   <use xlink:href="#dot" transform="translate(-66.4715,44.7062)" />   <use xlink:href="#dot" transform="translate(-66.616,44.5867)" />   <use xlink:href="#dot" transform="translate(-70.15488,43.05118)" />   <use xlink:href="#dot" transform="translate(-70.02084,43.19584)" />   <use xlink:href="#dot" transform="translate(-66.641333,44.612333)" />   <use xlink:href="#dot" transform="translate(-66.742333,44.867833)" />   <use xlink:href="#dot" transform="translate(-70.06651,43.2215)" />   <use xlink:href="#dot" transform="translate(-70.09434,43.236)" />   <use xlink:href="#dot" transform="translate(-70.04433,43.18833)" />   <use xlink:href="#dot" transform="translate(-70.043,43.18933)" />   <use xlink:href="#dot" transform="translate(-70.01383,43.1925)" />   <use xlink:href="#dot" transform="translate(-66.7423,44.8678)" />   <use xlink:href="#dot" transform="translate(-66.762,44.8097)" />   <use xlink:href="#dot" transform="translate(-66.6413,44.6123)" />   <use xlink:href="#dot" transform="translate(-66.762,44.809666)" />   <use xlink:href="#dot" transform="translate(-70.01116,43.20183)" />   <use xlink:href="#dot" transform="translate(-70.11034,43.2445)" />   <use xlink:href="#dot" transform="translate(-69.98827,41.58184)" />   <use xlink:href="#dot" transform="translate(-0.09,38.14)" />   <use xlink:href="#dot" transform="translate(3,39)" />   <use xlink:href="#dot" transform="translate(-66.4652,44.6072)" />   <use xlink:href="#dot" transform="translate(-66.465166,44.607166)" />   <use xlink:href="#dot" transform="translate(-66.621666,44.591333)" />   <use xlink:href="#dot" transform="translate(-66.6217,44.5913)" />   <use xlink:href="#dot" transform="translate(-66.4708,44.6417)" />   <use xlink:href="#dot" transform="translate(-66.456166,44.639333)" />   <use xlink:href="#dot" transform="translate(-66.6985,44.733833)" />   <use xlink:href="#dot" transform="translate(-66.5735,44.603)" />   <use xlink:href="#dot" transform="translate(-66.5867,44.6917)" />   <use xlink:href="#dot" transform="translate(-66.63,44.6398)" />   <use xlink:href="#dot" transform="translate(-66.586666,44.691666)" />   <use xlink:href="#dot" transform="translate(-66.4817,44.6597)" />   <use xlink:href="#dot" transform="translate(-66.481666,44.659666)" />   <use xlink:href="#dot" transform="translate(-66.470833,44.641666)" />   <use xlink:href="#dot" transform="translate(-66.5735,44.603)" />   <use xlink:href="#dot" transform="translate(-66.63,44.639833)" />   <use xlink:href="#dot" transform="translate(-66.6985,44.7338)" />   <use xlink:href="#dot" transform="translate(-66.4562,44.6393)" />   <use xlink:href="#dot" transform="translate(24.45,40.35)" />   <use xlink:href="#dot" transform="translate(-0.09,38.14)" />   <use xlink:href="#dot" transform="translate(18.4972,-34.3569)" />   <use xlink:href="#dot" transform="translate(-4.66537,49.91591)" />   <use xlink:href="#dot" transform="translate(-66.754166,44.821166)" />   <use xlink:href="#dot" transform="translate(-66.767833,44.803833)" />   <use xlink:href="#dot" transform="translate(-66.7678,44.8038)" />   <use xlink:href="#dot" transform="translate(-66.767833,44.803833)" />   <use xlink:href="#dot" transform="translate(-66.7542,44.8212)" />   <use xlink:href="#dot" transform="translate(-66.4597,44.678)" />   <use xlink:href="#dot" transform="translate(-66.477,44.7187)" />   <use xlink:href="#dot" transform="translate(-66.6625,44.736)" />   <use xlink:href="#dot" transform="translate(-66.6625,44.736)" />   <use xlink:href="#dot" transform="translate(-66.456166,44.682666)" />   <use xlink:href="#dot" transform="translate(-66.459666,44.678)" />   <use xlink:href="#dot" transform="translate(-66.719,44.8005)" />   <use xlink:href="#dot" transform="translate(-66.4515,44.682666)" />   <use xlink:href="#dot" transform="translate(-66.7015,44.7493)" />   <use xlink:href="#dot" transform="translate(-66.477,44.718666)" />   <use xlink:href="#dot" transform="translate(-66.74,44.756)" />   <use xlink:href="#dot" transform="translate(-66.58,44.5725)" />   <use xlink:href="#dot" transform="translate(-66.74,44.756)" />   <use xlink:href="#dot" transform="translate(-66.7015,44.749333)" />   <use xlink:href="#dot" transform="translate(-66.4515,44.6827)" />   <use xlink:href="#dot" transform="translate(-66.719,44.8005)" />   <use xlink:href="#dot" transform="translate(-66.58,44.5725)" />   <use xlink:href="#dot" transform="translate(-66.4562,44.6827)" />   <use xlink:href="#dot" transform="translate(-66.6933,44.6975)" />   <use xlink:href="#dot" transform="translate(-66.552,44.6045)" />   <use xlink:href="#dot" transform="translate(-66.748,44.82)" />   <use xlink:href="#dot" transform="translate(-66.4652,44.6762)" />   <use xlink:href="#dot" transform="translate(-66.693333,44.6975)" />   <use xlink:href="#dot" transform="translate(-66.618666,44.595666)" />   <use xlink:href="#dot" transform="translate(-66.481833,44.5725)" />   <use xlink:href="#dot" transform="translate(-66.6187,44.5957)" />   <use xlink:href="#dot" transform="translate(-66.748,44.82)" />   <use xlink:href="#dot" transform="translate(-66.6778,44.7008)" />   <use xlink:href="#dot" transform="translate(-66.677833,44.700833)" />   <use xlink:href="#dot" transform="translate(-66.7455,44.757166)" />   <use xlink:href="#dot" transform="translate(-66.465166,44.676166)" />   <use xlink:href="#dot" transform="translate(-66.6193,44.5872)" />   <use xlink:href="#dot" transform="translate(-66.7455,44.7572)" />   <use xlink:href="#dot" transform="translate(-66.619333,44.587166)" />   <use xlink:href="#dot" transform="translate(-66.552,44.6045)" />   <use xlink:href="#dot" transform="translate(-66.4818,44.5725)" />   <use xlink:href="#dot" transform="translate(18.4972,-34.3569)" />   <use xlink:href="#dot" transform="translate(18.4972,-34.3569)" />   <use xlink:href="#dot" transform="translate(18.4972,-34.3569)" />   <use xlink:href="#dot" transform="translate(18.4972,-34.3569)" />   <use xlink:href="#dot" transform="translate(-52.366666,43.716666)" />   <use xlink:href="#dot" transform="translate(-52.3667,43.7167)" />   <use xlink:href="#dot" transform="translate(135.167,34.5)" />   <use xlink:href="#dot" transform="translate(-62.303333,42.286666)" />   <use xlink:href="#dot" transform="translate(-79.1497,32.9172)" />   <use xlink:href="#dot" transform="translate(-62.3033,42.2867)" />   <use xlink:href="#dot" transform="translate(18.2313,-31.8155)" />   <use xlink:href="#dot" transform="translate(18.355,-34.0528)" />   <use xlink:href="#dot" transform="translate(17.9667,-32.7333)" />   <use xlink:href="#dot" transform="translate(18.4972,-34.3569)" />   <use xlink:href="#dot" transform="translate(18.4972,-34.3569)" />   <use xlink:href="#dot" transform="translate(18.4972,-34.3569)" />   <use xlink:href="#dot" transform="translate(-0.42,38.42)" />   <use xlink:href="#dot" transform="translate(-0.44,38.05)" />   <use xlink:href="#dot" transform="translate(-120.106667,33.899167)" />   <use xlink:href="#dot" transform="translate(-92.629722,19.559722)" />   <use xlink:href="#dot" transform="translate(-52.45,43.200001)" />   <use xlink:href="#dot" transform="translate(-52.45,43.2)" />   <use xlink:href="#dot" transform="translate(134.431,35.617)" />   <use xlink:href="#dot" transform="translate(-0.43,38.15)" />   <use xlink:href="#dot" transform="translate(16.8686,-29.2493)" />   <use xlink:href="#dot" transform="translate(16.8686,-29.2493)" />   <use xlink:href="#dot" transform="translate(16.8686,-29.2493)" />   <use xlink:href="#dot" transform="translate(16.8686,-29.2493)" />   <use xlink:href="#dot" transform="translate(16.8686,-29.2493)" />   <use xlink:href="#dot" transform="translate(16.8686,-29.2493)" />   <use xlink:href="#dot" transform="translate(-80.00916,28.48499)" />   <use xlink:href="#dot" transform="translate(-79.98583,27.18916)" />   <use xlink:href="#dot" transform="translate(-79.26,31.33499)" />   <use xlink:href="#dot" transform="translate(-79.00666,28.52249)" />   <use xlink:href="#dot" transform="translate(-76.64083,32.91832)" />   <use xlink:href="#dot" transform="translate(-77.983,28.483)" />   <use xlink:href="#dot" transform="translate(171.6667,-41.2167)" />   <use xlink:href="#dot" transform="translate(-6.944722,37.25042)" />   <use xlink:href="#dot" transform="translate(-10.616998,53.156993)" />   <use xlink:href="#dot" transform="translate(-9.986437,52.450201)" />   <use xlink:href="#dot" transform="translate(-9.950911,51.641852)" />   <use xlink:href="#dot" transform="translate(-81.933333,24.133333)" />   <use xlink:href="#dot" transform="translate(-59.967,45.917)" />   <use xlink:href="#dot" transform="translate(-59.967,45.917)" />   <use xlink:href="#dot" transform="translate(-96.4,26.17)" />   <use xlink:href="#dot" transform="translate(-96.65,26.17)" />   <use xlink:href="#dot" transform="translate(-96.4,26.17)" />   <use xlink:href="#dot" transform="translate(-96.301,27.25)" />   <use xlink:href="#dot" transform="translate(-96.48,27.4)" />   <use xlink:href="#dot" transform="translate(-66.541667,38.275)" />   <use xlink:href="#dot" transform="translate(-96.535,26.951)" />   <use xlink:href="#dot" transform="translate(-96.38,27.285)" />   <use xlink:href="#dot" transform="translate(-96.318,27.901)" />   <use xlink:href="#dot" transform="translate(-96.101,27.551)" />   <use xlink:href="#dot" transform="translate(141.05014,-15.718195)" />   <use xlink:href="#dot" transform="translate(138.675695,-16.150975)" />   <use xlink:href="#dot" transform="translate(141.342225,-12.75833)" />   <use xlink:href="#dot" transform="translate(141.18583,-14.81778)" />   <use xlink:href="#dot" transform="translate(-70.180756,42.04968)" />   <use xlink:href="#dot" transform="translate(-70.180756,42.04968)" />   <use xlink:href="#dot" transform="translate(136.64236,-7.527225)" />   <use xlink:href="#dot" transform="translate(-85.253888,29.654778)" />   <use xlink:href="#dot" transform="translate(-80.008081,26.010571)" />   <use xlink:href="#dot" transform="translate(-75.530142,35.777005)" />   <use xlink:href="#dot" transform="translate(-67.62,38.68)" />   <use xlink:href="#dot" transform="translate(-69.17,36.53)" />   <use xlink:href="#dot" transform="translate(-74.35,36.42)" />   <use xlink:href="#dot" transform="translate(-121.945796,36.6237)" />   <use xlink:href="#dot" transform="translate(-77.9593,33.8391)" />   <use xlink:href="#dot" transform="translate(-73.68,34.67)" />   <use xlink:href="#dot" transform="translate(-131.1,48)" />   <use xlink:href="#dot" transform="translate(-131.1,48)" />   <use xlink:href="#dot" transform="translate(-77.35,33.15)" />   <use xlink:href="#dot" transform="translate(-80.022606,25.724003)" />   <use xlink:href="#dot" transform="translate(-80.022606,25.724003)" />   <use xlink:href="#dot" transform="translate(-80.022606,25.724003)" />   <use xlink:href="#dot" transform="translate(-80.022606,25.724003)" />   <use xlink:href="#dot" transform="translate(-80.022606,25.724003)" />   <use xlink:href="#dot" transform="translate(-80.022606,25.724003)" />   <use xlink:href="#dot" transform="translate(-80.022606,25.724003)" />   <use xlink:href="#dot" transform="translate(-80.022606,25.724003)" />   <use xlink:href="#dot" transform="translate(-80.022606,25.724003)" />   <use xlink:href="#dot" transform="translate(-80.022606,25.724003)" /><polygon class="region" points="-120.106667,33.899167 -131.1,48 16.603615,68.72678 134.431,35.617 135.167,34.5 171.6667,-41.2167 18.4972,-34.3569 -92.629722,19.559722 -120.106667,33.899167 " />
		  </g>
		</svg>