<?xml version="1.0" encoding="UTF-8"?>
	<svg xmlns:xlink="http://www.w3.org/1999/xlink" 
	xmlns="http://www.w3.org/2000/svg" 
	width="360px" height="180px">
	   <style type="text/css">
		  <![CDATA[     
		  .region 
		  { 
			fill:blue; 
			opacity:0.4; 
			stroke:blue;
		  }
		  ]]>
	   </style>

	<circle id="dot" x="-2" y="-2" r="2" style="stroke:none; stroke-width:0; fill:black; opacity:0.7;"/>


	 <image x="0" y="0" width="360" height="180" xlink:href="map.jpg"/>

 
	 <g transform="translate(180,90) scale(1,-1)"><polygon class="region" points="-85.314633217,10.321630425 -84.741493224,9.9592609480001 -84.613113403,9.5740880970001 -84.251297059,9.4973964910001 -83.620826722,9.0364732740001 -83.545906067,8.895589828 -83.628860474,8.864778519 -83.486106872,8.8511905670001 -83.743919368,8.6080026560001 -83.567810058,8.438020706 -83.280418396,8.3865709310001 -83.481864929,8.715379715 -83.177825928,8.636666298 -82.875541687,8.0250406270001 -82.834129334,8.2939710690001 -82.209686279,8.3815126420001 -82.164962769,8.1629152300001 -82.144706726,8.259587288 -81.751754776,8.198595052 -81.610206604,7.986392021 -81.579429626,7.7613649370001 -81.233032227,7.6053161620001 -81.236259461,7.8902034760001 -81.053131103,7.9236855500001 -80.872253418,7.1989965440001 -79.998962402,7.4667921070001 -80.488822952,8.090570471 -80.412384033,8.2925052640001 -79.753562927,8.5931873320001 -79.719352722,8.9067869190001 -79.035041809,8.9996595380001 -78.621047973,8.770121574 -78.419769287,8.3484849930001 -78.413978577,8.560509681 -78.339294434,8.412121773 -78.231773376,8.546015739 -78.215744019,8.532139778 -78.210220337,8.428608895 -78.251480102,8.380497932 -78.161094656,8.4756307640001 -78.105476379,8.410625458 -78.087226867,8.4709453580001 -78.020637512,8.261569023 -77.869766236,8.221346855 -77.841720581,8.19536972 -77.83821106,8.1575136180001 -77.824478149,8.167020797 -77.786056518,8.137897492 -77.773635864,8.1074485770001 -77.748588562,8.14388752 -77.777717591,8.0989265440001 -78.018539429,8.229669571 -78.151359558,8.4155406950001 -78.28213501,8.0810680390001 -78.445175171,8.0720500940001 -77.891393454,7.224771699 -78.134211644,6.986118995 -78.578870872,6.886927869 -78.854559594,6.9680827290001 -79.116853255,7.295408004 -79.4541856,6.7399309460001 -80.263765539,6.3452446790001 -82.146909025,6.3610912570001 -84.494369554,8.0244161580001 -84.79897711,8.6419410770001 -85.407566543,8.665836977 -85.831493888,8.975229518 -85.845171948,9.696208868 -85.524162291,9.87448598 -85.111206055,9.551604271 -84.867805454,9.821921407 -84.928420966,9.83158123 -84.925132751,9.918886184 -85.288017252,10.127586356 -85.314633217,10.321630425 " />
		  </g>
		</svg>