<?xml version="1.0" encoding="UTF-8"?>
	<svg xmlns:xlink="http://www.w3.org/1999/xlink" 
	xmlns="http://www.w3.org/2000/svg" 
	width="360px" height="180px">
	   <style type="text/css">
		  <![CDATA[     
		  .region 
		  { 
			fill:blue; 
			opacity:0.4; 
			stroke:blue;
		  }
		  ]]>
	   </style>

	<circle id="dot" x="-2" y="-2" r="2" style="stroke:none; stroke-width:0; fill:black; opacity:0.7;"/>


	 <image x="0" y="0" width="360" height="180" xlink:href="map.jpg"/>

 
	 <g transform="translate(180,90) scale(1,-1)"><polygon class="region" points="76.804733954,10.53528951 77.1125,10.3 77.094117229,10.132980008 77.629166667,10.329166667 78.283333333,10.125 78.496494548,9.6133995910001 78.886573622,9.3259263780001 78.670833333,9.2208333340001 78.416666667,9.7291666670001 77.85758667,10.075567288 77.25,9.1875 76.629920282,9.2882999 76.5875,9.441666667 76.920833333,9.6666666670001 76.933938259,9.925881958 76.564710489,10.278599378 76.293673197,10.154784139 76.279166667,10.3125 76.804733954,10.53528951 " /><polygon class="region" points="73.891666667,18.395833333 74.663155449,18.061675347 74.479166667,17.825 74.237037998,17.819856431 74.261720445,17.334024217 73.983333334,17.125 73.691666666,17.308333334 73.75,17.558333333 73.55418023,17.902084351 73.683333333,18.141666667 73.534184096,18.299149238 73.891666667,18.395833333 " /><polygon class="region" points="79.517586263,11.408916219 79.83126831,11.359104156 79.734220717,11.324291483 79.330329726,10.957967462 79.845833334,10.858333333 78.899253337,10.821400621 78.741666667,10.591666667 78.634135946,11.157598199 79.188246663,11.195266045 79.517586263,11.408916219 " /><polygon class="region" points="75.320266046,16.843622843 75.782980008,16.581591119 75.7294056,16.395304984 75.610191973,16.464657726 75.550252058,16.431534047 75.639683011,16.438122554 75.726271549,16.357217795 75.770597734,16.353035923 75.776397197,16.349431632 75.781105435,16.339813919 74.8875,16.425 75.213208346,16.928279283 75.320266046,16.843622843 " /><polygon class="region" points="76.385757785,12.320480007 76.520833333,12.233333333 76.3875,11.845833334 76.21471049,11.550567288 75.975,11.541666666 75.795833334,11.8375 76.385757785,12.320480007 " /><polygon class="region" points="75.598043824,14.020266045 75.675567288,13.907396105 75.436803182,13.325890435 75.1625,13.25 75.133333333,13.783333333 75.598043824,14.020266045 " /><polygon class="region" points="73.673257785,20.182980008 74.129166666,20.020833334 73.660416667,19.583347914 73.478813341,19.98087972 73.673257785,20.182980008 " /><polygon class="region" points="73.914924452,16.837146674 74.272907851,16.816204834 74.625567288,16.738488091 73.854166667,16.320833333 73.742327881,16.832433743 73.914924452,16.837146674 " /><polygon class="region" points="78.358900621,11.32278951 78.341666667,11.125 78.562146674,10.893408881 78.166666666,10.6125 78.034184265,10.857482571 78.203813341,10.972575548 78.175,11.325 78.358900621,11.32278951 " /><polygon class="region" points="78.951209513,16.420878093 79.229166667,16.335107175 79.206413575,16.222786458 79.018388401,16.246266547 79.005900879,16.240123155 78.998918999,16.223614095 79.208102756,16.217787272 79.2625,16.3875 79.329166667,16.225 78.995833334,16.025 78.684127469,16.129960802 78.729969279,16.361764865 78.951209513,16.420878093 " /><polygon class="region" points="78.256122844,20.383900622 78.420833333,19.929166667 78.604166666,19.829166667 78.2875,19.683333333 78.179166666,19.7625 78.249225362,20.15759413 78.075,20.341666667 78.256122844,20.383900622 " /><polygon class="region" points="76.850014581,11.664583334 77.074337769,11.62791748 77.104166667,11.475 76.5625,11.3375 76.4125,11.529166667 76.55,11.695833333 76.850014581,11.664583334 " /><polygon class="region" points="76.86471049,9.1619327120001 77.258333333,8.8791666660001 77.191666667,8.725 76.829166666,8.9916666670001 76.538142734,8.9603651260001 76.86471049,9.1619327120001 " /><polygon class="region" points="77.031591119,10.937146674 77.154519992,10.797546387 77.018877156,10.629733954 76.554166667,10.795833333 76.629166667,10.941666667 77.031591119,10.937146674 " /><polygon class="region" points="75.376956177,13.183900622 75.584001329,13.02420756 75.424086507,12.788107639 75.208333333,12.929166666 75.376956177,13.183900622 " /><polygon class="region" points="78.368801711,16.403523763 78.641666666,16.208333333 78.320833333,16.033333333 78.329166667,16.404166667 78.368801711,16.403523763 " /><polygon class="region" points="74.749432712,17.048043824 74.618914964,16.854696316 74.408900622,16.931122843 74.497549269,16.920480008 74.749432712,17.048043824 " /><polygon class="region" points="77.958352864,18.216386176 77.973755158,18.122811314 78.030086685,18.086667965 77.901080458,18.098908963 77.958352864,18.216386176 " /><polygon class="region" points="74.436517927,14.273903627 74.462303161,14.285667419 74.511520386,14.242969513 74.447433471,14.246436119 74.425617642,14.268673028 74.419944763,14.302476883 74.436517927,14.273903627 " /><polygon class="region" points="78.407980007,16.044091119 78.398257786,16.025353326 78.324165472,16.029087781 78.408368984,16.073914554 78.407980007,16.044091119 " /><polygon class="region" points="74.669091119,14.299646675 75.307482571,14.065815735 75.149244181,13.721592373 74.720833333,13.908333333 74.703262499,14.145189752 74.51733178,14.134190199 74.441402011,14.253029378 74.669091119,14.299646675 " /><polygon class="region" points="77.936907072,16.172689026 78.183335125,15.958143534 78.651742215,16.212146674 78.95,16.020833333 78.407521701,16.07390842 78.476603693,15.857611308 78.279703295,15.986102201 78.249365168,15.899251874 78.142884287,15.8748624 78.128012656,15.823109122 78.067336401,15.817755336 78.170248089,15.924236215 77.966209308,16.072952528 77.866271946,16.244273721 77.936907072,16.172689026 " /><polygon class="region" points="75.517570326,11.950645786 75.833900621,11.77991333 75.5875,11.570833333 75.295833334,11.945833334 75.517570326,11.950645786 " /><polygon class="region" points="77.90333062,18.144169379 78.08971049,18.182766046 78.178697883,18.022916667 77.775,17.954166666 77.90333062,18.144169379 " /><polygon class="region" points="78.578355747,9.3906599260001 78.670833333,9.2208333340001 78.829166667,9.2416666670001 78.4875,9.125 78.578355747,9.3906599260001 " /><polygon class="region" points="79.8625,11.1375 79.854166667,10.904166667 79.529166666,10.995833334 79.853337945,11.091383192 79.8625,11.1375 " /><polygon class="region" points="79.281565213,16.637173665 79.222224935,16.227252062 79.156294217,16.206748318 78.998918999,16.223614095 79.22073622,16.235493978 79.084447157,16.427022027 79.207177192,16.360503201 79.217163629,16.531548936 79.084812825,16.587855089 79.281565213,16.637173665 " /><polygon class="region" points="75.610191973,16.464657726 75.837755229,16.36115592 75.922335035,16.371380266 75.728038679,16.214647231 75.781105435,16.339813919 75.610191973,16.464657726 " /><polygon class="region" points="78.482980008,9.1357577850001 78.379166667,9.1041666670001 78.302450731,9.4086866590001 78.391099379,9.3563771570001 78.482980008,9.1357577850001 " /><polygon class="region" points="78.19910753,19.990930006 78.245480008,19.964924452 78.204166666,19.9 78.133333333,19.966666667 78.19910753,19.990930006 " /><polygon class="region" points="76.595655896,8.9813390030001 76.669837951,8.9614877700001 76.585647583,8.8859786990001 76.533333333,8.9375 76.595655896,8.9813390030001 " /><polygon class="region" points="77.080967475,11.48478163 77.125002713,11.450962728 77.036779243,11.405418295 77.056947157,11.487871636 77.080967475,11.48478163 " /><polygon class="region" points="78.586882358,9.1061730280001 78.581944445,9.1 78.571613396,9.1007008870001 78.581913757,9.116706 78.586882358,9.1061730280001 " /><polygon class="region" points="78.832689243,9.168749661 78.819444444,9.154166667 78.812130737,9.1609430950001 78.826530626,9.175667995 78.832689243,9.168749661 " /><polygon class="region" points="78.496142578,9.087652927 78.488316515,9.088063219 78.487305366,9.094904921 78.494904921,9.096027968 78.496142578,9.087652927 " /><polygon class="region" points="78.700006782,9.1533962670001 78.69249471,9.150712755 78.691198561,9.157272 78.698938666,9.1588014390001 78.700006782,9.1533962670001 " /><polygon class="region" points="78.541673448,9.1033962670001 78.534161377,9.1007127550001 78.532865227,9.107272 78.540605333,9.1088012700001 78.541673448,9.1033962670001 " /><polygon class="region" points="78.733879768,9.154923164 78.731944444,9.15 78.728561571,9.1526109480001 78.730615235,9.158938429 78.733879768,9.154923164 " /><polygon class="region" points="72.866666666,18.6375 73.045480007,19.051742215 72.958333333,19.4 73.510786947,19.700353326 73.783333333,19.629166667 74.128251139,20.011857266 73.646684096,20.180017429 73.7375,20.45 74.714952257,20.074646674 74.853044977,20.283862982 75.467881606,20.500567287 76.175,20.541666666 76.568622843,20.258900621 77.121970622,20.133068678 77.116666667,20.283333333 77.903279283,20.950708347 77.750353326,21.544091119 78.253315735,21.617517598 78.270833333,21.804166667 78.045833334,21.895833333 78.503323703,22.113500638 78.392584737,22.261911011 80.019117737,22.679519992 80.237853325,22.62671441 80.238387383,22.19654168 80.592517598,21.905017599 80.728205023,22.011832852 80.871400621,21.682118395 80.442019992,20.777424452 80.583687507,20.476713393 80.856591119,20.670480008 81.2024509,20.170480008 81.916666667,20.079166667 82.1,19.941666667 82.05,19.741666666 82.461551412,19.671100701 82.74375,19.267135451 82.950771417,19.65339525 83.158862983,19.484350756 82.971476237,18.259781223 82.478315735,17.792517599 82.278916423,17.819957818 82.267460802,17.338294135 82.454166667,17.204166667 82.6125,17.291666667 82.333333333,17.083333333 82.1625,17.129166667 82.319918653,16.571763102 81.721832614,16.307851156 81.306160481,16.303561741 80.998043824,15.746400621 80.818660651,15.713105096 80.677044339,15.93684455 80.325645786,15.732429844 80.091666667,15.320833333 80.200567288,14.59241333 80.095833333,14.1125 80.249394904,13.814672682 80.238105096,13.639493985 80.328389655,13.445832825 80.349646674,13.289242215 80.157980007,12.464242215 79.746494548,11.719933743 79.829166667,11.3625 79.471996393,11.412865872 79.188246663,11.195266045 78.858333333,11.25 78.613056607,11.102076891 78.741666667,10.591666667 78.899253337,10.821400621 79.845833334,10.858333333 79.882975599,10.297545709 79.728697374,10.270215861 79.389242215,10.316313341 79.288350762,10.253315904 78.933686659,9.598257785 78.946186659,9.4017422150001 79.191340807,9.279929775 78.833333333,9.2416666670001 78.892019992,9.3517144090001 78.496494548,9.6133995910001 78.408333333,10.029166667 78,10.245833333 77.629166667,10.329166667 77.094117229,10.132980008 77.1125,10.3 76.769091118,10.553813341 76.279166667,10.3125 76.293673197,10.154784139 76.564710489,10.278599378 76.933938259,9.925881958 76.920833333,9.6666666670001 76.5875,9.441666667 76.684086778,9.2676171200001 77.25,9.1875 77.805381605,10.067233955 78.446400622,9.688437229 78.554166667,9.208333334 78.475,9.1791666670001 78.374149069,9.3783157350001 78.2920244,9.398288473 78.379166667,9.1041666670001 78.452453783,9.133686659 78.4875,9.125 78.2,8.9458333330001 78.071362813,8.373848131 77.557522583,8.075680542 76.975850762,8.3800174290001 76.542233955,8.906122844 76.829166666,8.9916666670001 77.1875,8.725 77.2625,8.85 76.8375,9.175 76.533333333,8.9375 75.588067288,11.56028951 75.799530707,11.746450975 75.975,11.541666666 76.21471049,11.550567288 76.520225864,12.249086507 76.284220717,12.282624986 75.928167386,11.824517992 75.200772434,12.005053033 74.428600315,14.264480909 74.703262499,14.145189752 74.720833333,13.908333333 75.178813341,13.685757785 75.05,13.570833333 75.1625,13.25 75.436803182,13.325890435 75.675,14.0125 75.256122843,13.804733954 75.299149238,14.074149069 74.439242215,14.275353326 74.2625,14.716666666 74.084684584,14.791023763 73.89519043,15.327135044 73.778523763,15.415218607 73.896914778,15.413846707 73.453599379,16.039035373 73.186857097,17.30737186 73.25629103,17.274357266 73.270833333,17.291666667 73.171601698,17.388471646 72.934079997,18.286762153 73.079152086,18.21875 72.866666666,18.6375 " /><polygon class="region" points="73.378835969,16.516684394 73.379154182,16.516613649 73.379166667,16.516666666 73.378835969,16.516684394 " /><polygon class="region" points="73.820496024,15.499913448 73.820833333,15.5 73.820833333,15.500100172 73.820496024,15.499913448 " /><polygon class="region" points="79.711004221,10.312882201 79.711342697,10.312720554 79.711285401,10.312937758 79.711004221,10.312882201 " /><polygon class="region" points="80.267013602,13.542506381 80.267228873,13.541643826 80.267284309,13.542135789 80.267013602,13.542506381 " /><polygon class="region" points="74.365106013,14.558465904 74.365277778,14.558333334 74.365768408,14.559581421 74.365106013,14.558465904 " /><polygon class="region" points="76.22979482,10.052083333 76.230432892,10.051169807 76.229949811,10.052305221 76.22979482,10.052083333 " /><polygon class="region" points="80.243856459,13.583528132 80.244110108,13.583035469 80.246149312,13.580885868 80.243856459,13.583528132 " /><polygon class="region" points="76.278022093,9.9700579140001 76.2787787,9.9681784910001 76.278315735,9.9699825710001 76.278022093,9.9700579140001 " /><polygon class="region" points="76.42810267,9.611184688 76.428298153,9.609900883 76.428697883,9.610416666 76.42810267,9.611184688 " /><polygon class="region" points="76.363067288,9.573043823 76.362958228,9.5722183460001 76.363979022,9.5740670390001 76.363067288,9.573043823 " /><polygon class="region" points="79.633333333,10.325 79.63248406,10.325082883 79.633520588,10.323164075 79.633333333,10.325 " /><polygon class="region" points="76.375850932,9.6199824010001 76.375200072,9.617446264 76.376469672,9.6201411910001 76.375850932,9.6199824010001 " /><polygon class="region" points="76.366681247,9.722916667 76.367312686,9.7222807840001 76.368488496,9.724736659 76.366681247,9.722916667 " /><polygon class="region" points="76.299914813,9.92783976 76.303617216,9.9222611120001 76.303586832,9.9230312770001 76.299914813,9.92783976 " /><polygon class="region" points="80.259482583,13.56312368 80.262018977,13.559094022 80.261882358,13.560493469 80.259482583,13.56312368 " /><polygon class="region" points="76.373043208,9.8665009710001 76.375450272,9.860793179 76.374420166,9.8646979440001 76.373043208,9.8665009710001 " /><polygon class="region" points="79.586740113,10.341927762 79.582326963,10.338890897 79.586778748,10.340952998 79.586740113,10.341927762 " /><polygon class="region" points="76.375753015,9.8600752940001 76.378020791,9.8546977930001 76.379148864,9.8556287980001 76.375753015,9.8600752940001 " /><polygon class="region" points="74.126742215,14.845480007 74.125112598,14.843861809 74.128915565,14.844110322 74.129166666,14.845833333 74.126742215,14.845480007 " /><polygon class="region" points="76.292543578,9.890332444 76.293693542,9.8890619270001 76.295478991,9.8895812980001 76.294336107,9.8919216580001 76.292543578,9.890332444 " /><polygon class="region" points="75.313799629,11.949666488 75.315200945,11.946209469 75.316666667,11.945833334 75.315815904,11.949149068 75.313799629,11.949666488 " /><polygon class="region" points="72.991666667,18.766666666 72.994982571,18.767517429 72.995833333,18.770833333 72.991698285,18.766789901 72.991666667,18.766666666 " /><polygon class="region" points="74.362356461,14.562366333 74.365628033,14.565205995 74.363948568,14.567271593 74.362356461,14.562366333 " /><polygon class="region" points="76.288070016,9.9456870770001 76.290547667,9.9419538400001 76.291666667,9.941666667 76.290815735,9.944982571 76.288070016,9.9456870770001 " /><polygon class="region" points="80.307692897,13.432906948 80.312019348,13.431081772 80.312798202,13.433661356 80.307692897,13.432906948 " /><polygon class="region" points="79.764765306,10.299352364 79.770289619,10.292620006 79.770799425,10.293027751 79.766552734,10.29884135 79.764765306,10.299352364 " /><polygon class="region" points="74.3,14.6 74.302764893,14.597833634 74.304166667,14.6 74.3,14.6 " /><polygon class="region" points="79.572943115,10.34099867 79.568688116,10.341451526 79.576828663,10.338324895 79.572943115,10.34099867 " /><polygon class="region" points="80.321719821,13.435099051 80.322494689,13.429834254 80.325233459,13.429915534 80.321719821,13.435099051 " /><polygon class="region" points="76.361932713,9.8009372290001 76.362318768,9.7984484850001 76.364899006,9.804266222 76.361932713,9.8009372290001 " /><polygon class="region" points="76.337937915,9.913835573 76.340873718,9.9129829410001 76.341662838,9.9125146380001 76.3406584,9.916321818 76.337937915,9.913835573 " /><polygon class="region" points="80.28339649,13.478945782 80.284993783,13.470254435 80.286938477,13.472916667 80.28339649,13.478945782 " /><polygon class="region" points="74.373502773,14.571088325 74.370426722,14.568361004 74.373611111,14.566666667 74.374645657,14.568747965 74.373502773,14.571088325 " /><polygon class="region" points="80.778700087,15.855808003 80.781944445,15.854166667 80.782978991,15.856247965 80.781836107,15.858588325 80.778700087,15.855808003 " /><polygon class="region" points="76.578700087,8.876641168 76.581944444,8.875 76.58297899,8.8770812990001 76.581836107,8.8794216580001 76.578700087,8.876641168 " /><polygon class="region" points="82.278700087,16.639141168 82.281944445,16.6375 82.28297899,16.639581298 82.281836107,16.641921658 82.278700087,16.639141168 " /><polygon class="region" points="82.291200087,16.614141168 82.294444445,16.6125 82.29547899,16.614581298 82.294336107,16.616921658 82.291200087,16.614141168 " /><polygon class="region" points="82.28703342,16.622474501 82.290277778,16.620833333 82.291312324,16.622914632 82.290169441,16.625254991 82.28703342,16.622474501 " /><polygon class="region" points="80.833333333,15.75 80.836649068,15.750850931 80.8375,15.754166667 80.834184265,15.753315735 80.833333333,15.75 " /><polygon class="region" points="73.294982571,17.290815734 73.291666666,17.291666667 73.292517429,17.288350932 73.295833333,17.2875 73.294982571,17.290815734 " /><polygon class="region" points="73.5,15.983333334 73.500850762,15.980017429 73.504166667,15.979166667 73.503315905,15.982482401 73.5,15.983333334 " /><polygon class="region" points="73.070833334,18.2 73.074149237,18.200850762 73.075,18.204166667 73.071684096,18.203315904 73.070833334,18.2 " /><polygon class="region" points="73.366666667,16.520833333 73.36725396,16.518339369 73.370507518,16.515196902 73.370016275,16.519561333 73.366666667,16.520833333 " /><polygon class="region" points="80.186203003,13.651972771 80.186775208,13.646525383 80.188037346,13.645036168 80.187334639,13.656975594 80.186203003,13.651972771 " /><polygon class="region" points="80.828599379,15.742881605 80.833333333,15.741666667 80.833333333,15.745833333 80.831122843,15.745266045 80.828599379,15.742881605 " /><polygon class="region" points="72.986932712,18.806377157 72.984548272,18.808900621 72.983333333,18.804166666 72.9875,18.804166666 72.986932712,18.806377157 " /><polygon class="region" points="79.70449117,10.311595324 79.707209496,10.308815332 79.710874408,10.312856552 79.70449117,10.311595324 " /><polygon class="region" points="76.383686659,9.6482577850001 76.390182495,9.6521415710001 76.391806501,9.6563944370001 76.383686659,9.6482577850001 " /><polygon class="region" points="73.078267077,18.178505453 73.072308585,18.179035447 73.079469093,18.173821588 73.078267077,18.178505453 " /><polygon class="region" points="76.406340791,9.695601993 76.406341553,9.6950483320001 76.412642674,9.691145771 76.413167996,9.6948754210001 76.406340791,9.695601993 " /><polygon class="region" points="76.377440047,9.762581185 76.378852844,9.758200646 76.388108545,9.7492009870001 76.388167996,9.750620355 76.377440047,9.762581185 " /><polygon class="region" points="79.533333333,10.320833333 79.535932619,10.317222214 79.541360309,10.32123506 79.533333333,10.320833333 " /><polygon class="region" points="80.296390966,13.441511333 80.300765991,13.435829162 80.307012972,13.433193784 80.298006016,13.441061571 80.296390966,13.441511333 " /><polygon class="region" points="79.622045898,10.329241265 79.619810291,10.321421591 79.626182961,10.326218995 79.622045898,10.329241265 " /><polygon class="region" points="80.986932712,15.772048272 80.992841594,15.766255358 80.996400621,15.769618395 80.99049174,15.775411309 80.986932712,15.772048272 " /><polygon class="region" points="79.774432712,10.288714938 79.780341593,10.282922024 79.783900622,10.286285061 79.77799174,10.292077976 79.774432712,10.288714938 " /><polygon class="region" points="74.371282194,14.535888205 74.368988037,14.533567428 74.375,14.529166667 74.374394905,14.531339518 74.371282194,14.535888205 " /><polygon class="region" points="73.278549194,17.025945706 73.286111112,17.025 73.287210083,17.027859497 73.282418484,17.029784139 73.278549194,17.025945706 " /><polygon class="region" points="74.807715691,12.925945706 74.815277778,12.925 74.81637692,12.927859497 74.811584981,12.929784139 74.807715691,12.925945706 " /><polygon class="region" points="81.958333333,16.433333334 81.957980007,16.430908881 81.954166667,16.425 81.9625,16.433333334 81.958333333,16.433333334 " /><polygon class="region" points="79.703511217,10.317517089 79.715277777,10.316666666 79.715570115,10.317481367 79.70734145,10.32129221 79.703511217,10.317517089 " /><polygon class="region" points="76.226068956,10.093224631 76.237585207,10.072369939 76.232677883,10.085455662 76.226068956,10.093224631 " /><polygon class="region" points="74.382410855,14.546277534 74.3783051,14.542754773 74.382571231,14.534964076 74.383513217,14.53741489 74.382410855,14.546277534 " /><polygon class="region" points="73.275,17.2875 73.275861952,17.284141032 73.282118395,17.282766046 73.283333333,17.2875 73.275,17.2875 " /><polygon class="region" points="80.833333333,15.725 80.833333333,15.716666666 80.838067288,15.723785061 80.833333333,15.725 " /><polygon class="region" points="76.207728237,10.128626167 76.213691711,10.129360199 76.220281904,10.118796896 76.221427748,10.121711561 76.210097419,10.13393826 76.207728237,10.128626167 " /><polygon class="region" points="80.966099378,15.788714939 80.976174927,15.778755358 80.979733955,15.782118395 80.969658407,15.792077976 80.966099378,15.788714939 " /><polygon class="region" points="79.9625,20.404166667 79.969982571,20.405017429 79.970833333,20.408333334 79.9625,20.408333334 79.9625,20.404166667 " /><polygon class="region" points="72.974392361,18.53241984 72.970833333,18.533333333 72.974885865,18.519625628 72.974392361,18.53241984 " /><polygon class="region" points="79.688873291,10.303735733 79.681198459,10.303523763 79.678523763,10.300915527 79.690030096,10.299741886 79.688873291,10.303735733 " /><polygon class="region" points="75.329166667,11.941666667 75.329538377,11.940217974 75.341633876,11.933558339 75.335786947,11.941311815 75.329166667,11.941666667 " /><polygon class="region" points="82.277951728,16.561932712 82.279166666,16.566666666 82.288079834,16.569675361 82.280418905,16.571413168 82.274588691,16.56549174 82.277951728,16.561932712 " /><polygon class="region" points="73.742782657,15.608151153 73.749184502,15.613326687 73.750567288,15.619618394 73.743987264,15.620359584 73.742782657,15.608151153 " /><polygon class="region" points="79.6875,10.313366555 79.692077976,10.32200826 79.688714939,10.325567288 79.67936789,10.318892656 79.6875,10.313366555 " /><polygon class="region" points="79.591011217,10.305017089 79.602777778,10.304166666 79.603918457,10.307345581 79.595040894,10.308988783 79.591011217,10.305017089 " /><polygon class="region" points="73.353543091,16.540757582 73.35,16.541666666 73.354166667,16.529166666 73.353543091,16.540757582 " /><polygon class="region" points="76.348942887,9.908194302 76.353538513,9.905467034 76.371067852,9.871185064 76.357753499,9.902197944 76.353290642,9.907605319 76.348942887,9.908194302 " /><polygon class="region" points="74.364493985,14.542271593 74.360416666,14.545294528 74.357147217,14.538697243 74.36748174,14.541439744 74.364493985,14.542271593 " /><polygon class="region" points="73.020215861,18.027719116 73.023611111,18.025 73.02933587,18.03215705 73.022349379,18.033950806 73.020215861,18.027719116 " /><polygon class="region" points="79.745364041,10.313117472 79.747619629,10.308124542 79.757701583,10.306346517 79.753886583,10.311568535 79.745364041,10.313117472 " /><polygon class="region" points="72.959114583,18.954856364 72.97200826,18.949588691 72.975567288,18.952951728 72.969492933,18.958854166 72.959114583,18.954856364 " /><polygon class="region" points="76.383963187,9.7003763390001 76.384216308,9.69690609 76.399768066,9.6963014830001 76.393776449,9.699332004 76.383963187,9.7003763390001 " /><polygon class="region" points="79.457665338,10.321638997 79.473611111,10.320833333 79.474761284,10.324115329 79.461741808,10.325667996 79.457665338,10.321638997 " /><polygon class="region" points="79.503498671,10.317472331 79.519444445,10.316666666 79.520594618,10.319948663 79.507575141,10.321501329 79.503498671,10.317472331 " /><polygon class="region" points="79.60799018,10.307099406 79.613566081,10.300619168 79.619444445,10.3 79.613651869,10.308862983 79.60799018,10.307099406 " /><polygon class="region" points="79.722436688,10.312740853 79.716469227,10.310272251 79.726539611,10.302827835 79.72694397,10.309278488 79.722436688,10.312740853 " /><polygon class="region" points="80.184184265,14.586649237 80.194952053,14.583973185 80.196413167,14.590414429 80.191666667,14.591666667 80.184184265,14.586649237 " /><polygon class="region" points="73.3875,16.395833334 73.397917006,16.391680908 73.404166667,16.4 73.388413493,16.399392361 73.3875,16.395833334 " /><polygon class="region" points="72.957426961,18.545198568 72.938714939,18.546400621 72.9375,18.541666667 72.958333333,18.541666667 72.957426961,18.545198568 " /><polygon class="region" points="80.204072394,13.629193622 80.22240448,13.607162476 80.235977172,13.59883213 80.242032312,13.587071186 80.241049025,13.593826802 80.215740289,13.624073622 80.204072394,13.629193622 " /><polygon class="region" points="81.716099379,16.334548272 81.724376424,16.334242418 81.725,16.345833334 81.717363485,16.344942898 81.716099379,16.334548272 " /><polygon class="region" points="73.170833333,17.583333333 73.175746663,17.578599379 73.195833333,17.5875 73.180908882,17.587146674 73.170833333,17.583333333 " /><polygon class="region" points="74.833333334,12.845833334 74.833994548,12.838399591 74.848785062,12.832766046 74.85,12.8375 74.833333334,12.845833334 " /><polygon class="region" points="78.9125,12.908333333 78.920833334,12.904166666 78.925264486,12.911362711 78.9125,12.916666666 78.9125,12.908333333 " /><polygon class="region" points="76.470228238,9.1380405 76.481944444,9.133333334 76.482149591,9.146438259 76.475254652,9.1448201490001 76.470228238,9.1380405 " /><polygon class="region" points="77.433333333,12.291666667 77.434184095,12.288350762 77.445833333,12.2875 77.441666667,12.3 77.433333333,12.291666667 " /><polygon class="region" points="80.584184265,19.405017598 80.580017598,19.407482402 80.570833333,19.383333333 80.5875,19.4 80.584184265,19.405017598 " /><polygon class="region" points="75.200529649,19.622751703 75.2,19.633333333 75.193336114,19.61165256 75.202225003,19.61139167 75.200529649,19.622751703 " /><polygon class="region" points="76.242807898,10.091590431 76.253257752,10.076694489 76.252777778,10.058333334 76.258862813,10.076178318 76.242807898,10.091590431 " /><polygon class="region" points="75.170833333,19.575 75.175314592,19.571305587 75.186774107,19.585736448 75.174747039,19.586331862 75.170833333,19.575 " /><polygon class="region" points="79.745223999,10.301243782 79.733657837,10.285881996 79.727102941,10.283651365 79.766954268,10.28995238 79.745223999,10.301243782 " /><polygon class="region" points="80.791036478,15.83710378 80.796658156,15.821546258 80.806944445,15.820833333 80.792603895,15.850630188 80.791036478,15.83710378 " /><polygon class="region" points="76.412320994,12.516452133 76.425,12.504166666 76.435716715,12.512042334 76.419474284,12.532219509 76.412320994,12.516452133 " /><polygon class="region" points="80.196400621,21.631122844 80.2125,21.629166667 80.216666667,21.666666667 80.204521519,21.656618754 80.196400621,21.631122844 " /><polygon class="region" points="79.188350762,21.271684265 79.170833333,21.266666667 79.167327881,21.25089959 79.198993259,21.259144253 79.188350762,21.271684265 " /><polygon class="region" points="76.925,15.733333333 76.95,15.741666667 76.9375,15.758333333 76.9125,15.745833333 76.925,15.733333333 " /><polygon class="region" points="79.614660306,10.317284139 79.607715861,10.315298801 79.610339695,10.313117472 79.632552083,10.311810303 79.627006362,10.300617472 79.661551581,10.29139913 79.66927325,10.308787396 79.614660306,10.317284139 " /><polygon class="region" points="73.158333334,19.266666666 73.185543823,19.267233954 73.195833333,19.275 73.166666667,19.2875 73.158333334,19.266666666 " /><polygon class="region" points="80.045847236,13.681250678 80.066513504,13.636190509 80.094856262,13.663965226 80.061600409,13.691005453 80.045847236,13.681250678 " /><polygon class="region" points="79.225567288,14.310543823 79.180017429,14.278315904 79.196684095,14.246684096 79.253315905,14.349149238 79.225567288,14.310543823 " /><polygon class="region" points="79.157766045,19.871579997 79.1875,19.779166667 79.3,19.879166667 79.170833333,19.945833334 79.157766045,19.871579997 " /><polygon class="region" points="74.408333334,16.941666666 74.561559211,16.83697035 74.77036455,16.95625 74.7375,17.0625 74.408333334,16.941666666 " /><polygon class="region" points="77.916666667,18.208333334 77.775,17.954166666 78.17409651,18.013145616 78.131617228,18.153812324 77.916666667,18.208333334 " /><polygon class="region" points="75.365920004,13.188067288 75.208333333,12.929166666 75.424086507,12.788107639 75.584001329,13.02420756 75.365920004,13.188067288 " /><polygon class="region" points="76.970124987,10.661612617 77.119916789,10.667262099 77.120833334,10.925 76.55,10.8375 76.970124987,10.661612617 " /><polygon class="region" points="76.850014581,11.664583334 76.55,11.695833333 76.4125,11.529166667 76.5625,11.3375 77.124718289,11.450565321 77.074337769,11.62791748 76.850014581,11.664583334 " /><polygon class="region" points="78.283333333,19.6875 78.641313341,19.810757786 78.420833333,19.929166667 78.370833333,20.35 78.1,20.3875 78.283333333,19.6875 " /><polygon class="region" points="78.228536479,11.345437113 78.203813341,10.972575548 78.033333334,10.854166667 78.236753336,10.603599379 78.5625,10.9 78.341666667,11.125 78.341099379,11.37721049 78.228536479,11.345437113 " /><polygon class="region" points="73.846302117,16.34375 74.2,16.616666666 74.625567288,16.738488091 73.758333333,16.9 73.846302117,16.34375 " /><polygon class="region" points="75.729917999,16.241870466 75.922335035,16.371380266 75.7294056,16.395304984 75.782980008,16.581591119 75.22410041,16.928505453 74.879519992,16.444091118 75.778262668,16.345188734 75.729917999,16.241870466 " /><polygon class="region" points="78.461732062,15.953979478 78.324165472,16.029087781 79.211285061,16.099432712 79.354733955,16.300746664 79.209724935,16.380596245 79.311996528,16.578783637 79.277224935,16.65666938 79.084812825,16.587855089 79.217775065,16.529762912 79.207177192,16.360503201 79.148393012,16.401433919 79.109898003,16.422007649 79.084447157,16.427022027 79.164634874,16.329809571 78.879166667,16.45 78.641666666,16.208333333 78.341344876,16.41730957 78.366313341,16.110075548 78.210104061,15.958143534 77.951932542,16.12411094 77.932896854,16.179433409 77.889471691,16.232971281 77.866271946,16.244273721 77.966209308,16.072952528 78.170248089,15.924236215 78.067336401,15.817755336 78.461732062,15.953979478 " /><polygon class="region" points="73.94375,17.137031386 74.261720445,17.334024217 74.271759711,17.865740288 74.479166667,17.825 74.663155449,18.061675347 73.891666667,18.4 73.528813341,18.268382433 73.682766046,18.15221049 73.55418023,17.902084351 73.75,17.558333333 73.691666666,17.308333334 73.94375,17.137031386 " /><polygon class="region" points="79.8625,9.645833334 79.865850491,9.7672717630001 80.252454461,9.828810967 80.803813341,9.3065911190001 81.229784139,8.6546359590001 81.205017429,8.471684096 81.357871501,8.493758816 81.471438259,8.0519938150001 81.75769043,7.6688017110001 81.866313341,7.339924452 81.694982571,6.484184096 80.594302708,5.9159986710001 80.100850931,6.1258507630001 79.836932712,6.9382466640001 79.691036309,8.1996036100001 79.751209513,8.29995524 79.771318224,8.3032463920001 79.72975057,8.1354166670001 79.742297024,8.010352579 79.828148397,7.9830495200001 79.958319431,8.7270826550001 79.687425401,9.088712565 80.036362881,9.016402181 80.183900621,9.4784200030001 80.049432712,9.5970482720001 80.06028951,9.6119327120001 80.400108337,9.4920997620001 80.19404602,9.648531914 80.206268311,9.580800057 80.081207276,9.654107094 80.133293152,9.607024192 79.8625,9.645833334 " /><polygon class="region" points="81.636260875,7.7463142120001 81.636512756,7.746138096 81.636998674,7.746248581 81.636260875,7.7463142120001 " /><polygon class="region" points="81.770602759,7.586489828 81.77099735,7.585903998 81.771400621,7.5862850610001 81.770602759,7.586489828 " /><polygon class="region" points="81.150574258,8.5355963120001 81.152800549,8.53832866 81.150704278,8.5365804040001 81.150574258,8.5355963120001 " /><polygon class="region" points="80.939841166,8.9996094850001 80.941070557,8.9978590010001 80.944189623,8.9950145830001 80.939841166,8.9996094850001 " /><polygon class="region" points="80.499759205,9.481583867 80.502777778,9.4791666670001 80.503176844,9.4796655640001 80.499759205,9.481583867 " /><polygon class="region" points="81.753700086,7.559974671 81.757271182,7.561863843 81.756835938,7.5627549910001 81.753700086,7.559974671 " /><polygon class="region" points="81.778523763,7.48130171 81.774511566,7.485987047 81.776473999,7.48278284 81.778523763,7.48130171 " /><polygon class="region" points="80.384428063,9.528025557 80.386965653,9.527449905 80.386002774,9.529421658 80.384428063,9.528025557 " /><polygon class="region" points="80.952488477,8.987446485 80.95413208,8.985947609 80.956695129,8.9868908290001 80.952488477,8.987446485 " /><polygon class="region" points="81.691255357,7.6321584070001 81.693557534,7.629722063 81.693302827,7.6326838850001 81.691255357,7.6321584070001 " /><polygon class="region" points="80.40613844,9.5210344130001 80.408470154,9.519394875 80.4095947,9.5213869520001 80.40613844,9.5210344130001 " /><polygon class="region" points="81.125,8.5083333330001 81.125617981,8.5067682270001 81.128676116,8.508660374 81.125,8.5083333330001 " /><polygon class="region" points="80.410780855,9.5121754900001 80.415446147,9.508018511 80.415084839,9.5101013180001 80.410780855,9.5121754900001 " /><polygon class="region" points="80.467860209,9.5049681400001 80.469444445,9.504166667 80.469782167,9.5076748980001 80.467860209,9.5049681400001 " /><polygon class="region" points="80.943077087,8.9359273910001 80.943434251,8.933571893 80.946476237,8.936584472 80.944001518,8.936836881 80.943077087,8.9359273910001 " /><polygon class="region" points="81.737600353,7.6375235790001 81.73815155,7.6369347570001 81.744517657,7.6369984720001 81.743551636,7.638130188 81.737600353,7.6375235790001 " /><polygon class="region" points="81.168324713,8.533735811 81.178535461,8.5230607980001 81.179768636,8.5248456090001 81.168324713,8.533735811 " /><polygon class="region" points="79.74014191,8.2468191 79.749328433,8.247806929 79.750513712,8.2491115990001 79.744218615,8.249753147 79.74014191,8.2468191 " /><polygon class="region" points="81.652423947,7.742113912 81.658416509,7.737176124 81.657482571,7.7408157350001 81.652423947,7.742113912 " /><polygon class="region" points="80.932651125,8.9683945570001 80.93229777,8.966870456 80.926352848,8.96252793 80.929603577,8.962062836 80.933273315,8.9682817460001 80.932651125,8.9683945570001 " /><polygon class="region" points="79.791200087,8.076641168 79.794444444,8.075 79.79547899,8.0770812980001 79.794335937,8.0794216580001 79.791200087,8.076641168 " /><polygon class="region" points="79.79953342,8.226641167 79.802777778,8.225 79.803812324,8.2270812990001 79.802669271,8.229421658 79.79953342,8.226641167 " /><polygon class="region" points="81.15748325,8.542233955 81.155415618,8.5405095840001 81.165159907,8.536730875 81.160543823,8.5410993790001 81.15748325,8.542233955 " /><polygon class="region" points="81.783801948,7.4604166670001 81.786932712,7.4563771570001 81.787173106,7.4545573980001 81.786079295,7.463355044 81.783801948,7.4604166670001 " /><polygon class="region" points="80.920758735,8.9970458980001 80.924438476,8.996020317 80.924934388,9.000823021 80.924007499,9.001493 80.920758735,8.9970458980001 " /><polygon class="region" points="80.673615605,9.4076441600001 80.685882568,9.3940181730001 80.68977733,9.391466194 80.673615605,9.4076441600001 " /><polygon class="region" points="80.908119032,8.965645345 80.910089398,8.9629481860001 80.923105812,8.962992495 80.91713596,8.9672841390001 80.908119032,8.965645345 " /><polygon class="region" points="80.478929002,9.50306957 80.479166666,9.4958333330001 80.485292987,9.496378308 80.478929002,9.50306957 " /><polygon class="region" points="79.9,9.7541666660001 79.903505453,9.7550662570001 79.904166667,9.7625 79.900661214,9.761600409 79.9,9.7541666660001 " /><polygon class="region" points="81.650015258,7.711250136 81.652976128,7.7070741000001 81.657272339,7.7090430260001 81.656431411,7.7131818770001 81.650015258,7.711250136 " /><polygon class="region" points="81.767578125,7.4973077770001 81.770536794,7.4924769460001 81.775250244,7.499124484 81.769173126,7.499744338 81.767578125,7.4973077770001 " /><polygon class="region" points="80.548339844,9.493229866 80.550819397,9.489848137 80.56640348,9.4814942680001 80.560543824,9.4869327120001 80.548339844,9.493229866 " /><polygon class="region" points="81.682753499,7.7149064810001 81.686111111,7.7125 81.686595323,7.7246756660001 81.684076945,7.72417806 81.682753499,7.7149064810001 " /><polygon class="region" points="81.762400649,7.5692615080001 81.769546509,7.5676088330001 81.769355774,7.5747323040001 81.768775451,7.5749476080001 81.762400649,7.5692615080001 " /><polygon class="region" points="81.669340414,7.7034048470001 81.671684265,7.6910481460001 81.674423218,7.6868977550001 81.682701111,7.6852464670001 81.669340414,7.7034048470001 " /><polygon class="region" points="81.705017429,7.715815735 81.703599379,7.7102895100001 81.7,7.704166667 81.707613458,7.7049433390001 81.705017429,7.715815735 " /><polygon class="region" points="81.758131918,7.4637186680001 81.759106402,7.4593720290001 81.769657209,7.4748953870001 81.76339959,7.474338786 81.758131918,7.4637186680001 " /><polygon class="region" points="81.601214939,7.7672339550001 81.600134724,7.7630248240001 81.632992123,7.7485997380001 81.61471049,7.766099379 81.601214939,7.7672339550001 " /><polygon class="region" points="79.765451728,8.261932712 79.775642904,8.267503526 79.767582194,8.2756429030001 79.76208869,8.2654917400001 79.765451728,8.261932712 " /><polygon class="region" points="79.870215861,9.6967792090001 79.877777778,9.695833334 79.88369717,9.7032333380001 79.872053358,9.7047843080001 79.870215861,9.6967792090001 " /><polygon class="region" points="81.800744968,7.490636529 81.79094785,7.47533445 81.800094604,7.468407631 81.804166666,7.4916666660001 81.800744968,7.490636529 " /><polygon class="region" points="81.582980007,7.7392155960001 81.584496617,7.7300748280001 81.597424032,7.758845437 81.591666667,7.7583333330001 81.582980007,7.7392155960001 " /><polygon class="region" points="80.879614597,9.027081977 80.901603698,9.0427932740001 80.928920829,9.013457929 80.903276231,9.045136515 80.879614597,9.027081977 " /><polygon class="region" points="81.179166667,6.1791666660001 81.179864502,6.163278876 81.20065545,6.174710422 81.191420831,6.1839887830001 81.179166667,6.1791666660001 " /><polygon class="region" points="79.902951728,9.6744327120001 79.972916667,9.6338021170001 80.0125,9.65 79.915663655,9.745229255 79.902951728,9.6744327120001 " /><polygon class="region" points="79.791666667,11.345833333 79.853337945,11.091383192 79.330329726,10.957967462 79.733333333,11.241666667 79.791666667,11.345833333 " /><polygon class="region" points="79.320215861,9.274116685 79.402160305,9.203549025 79.440277778,9.1583333340001 79.179929606,9.2384731710001 79.320215861,9.274116685 " /><polygon class="region" points="79.728345066,9.4758216010001 79.654875014,9.5008873840001 79.650596788,9.5531575520001 79.724002075,9.5327229820001 79.728345066,9.4758216010001 " /><polygon class="region" points="79.841666667,9.6208333340001 79.861584473,9.5660239320001 79.786857096,9.586866252 79.809781222,9.6298094000001 79.826050483,9.6160239330001 79.841666667,9.6208333340001 " /><polygon class="region" points="79.77839525,9.642437914 79.763117473,9.6688268020001 79.795059883,9.6909142390001 79.796354167,9.680506897 79.77839525,9.642437914 " /><polygon class="region" points="79.970947266,9.2988411800001 79.984694418,9.312466091 80.008950975,9.2785507200001 79.972201199,9.2785490250001 79.970947266,9.2988411800001 " /><polygon class="region" points="79.766049194,8.314506361 79.757715861,8.311052449 79.775999621,8.379784139 79.791115655,8.36875 79.766049194,8.314506361 " /><polygon class="region" points="79.778561741,9.5853273180001 79.757728408,9.6036259970001 79.770292833,9.6256050960001 79.779771593,9.623937819 79.778561741,9.5853273180001 " /><polygon class="region" points="79.791049194,8.4629692930001 79.794444444,8.4458333330001 79.774382528,8.491197374 79.780534532,8.513117472 79.791049194,8.4629692930001 " /><polygon class="region" points="79.058343845,9.202720642 79.068749322,9.211949836 79.095277235,9.197916666 79.081173028,9.1922843080001 79.058343845,9.202720642 " /><polygon class="region" points="78.895165337,9.1760403100001 78.90625,9.1868503150001 78.946501329,9.186674499 78.939609782,9.1798346620001 78.895165337,9.1760403100001 " /><polygon class="region" points="79.816023763,9.6853649560001 79.803523763,9.6913448760001 79.809248861,9.717309401 79.81730957,9.7153854370001 79.816023763,9.6853649560001 " /><polygon class="region" points="80.015895419,9.463271247 80.009131029,9.4632688740001 80.00526123,9.4881176420001 80.021450975,9.479635789 80.015895419,9.463271247 " /><polygon class="region" points="72.903549194,18.943673027 72.895215861,18.940219116 72.897683716,18.967284139 72.913117472,18.961132135 72.903549194,18.943673027 " /><polygon class="region" points="79.811882528,8.318673028 79.804964532,8.3174353700001 79.801094564,8.3422841390001 79.813117472,8.3407040060001 79.811882528,8.318673028 " /><polygon class="region" points="73.757865397,15.357272 73.786668904,15.357635837 73.78806254,15.350582547 73.759172228,15.350657484 73.757865397,15.357272 " /><polygon class="region" points="79.803549194,8.2936730280001 79.791049194,8.299530707 79.792761231,8.3089508050001 79.804784139,8.307370673 79.803549194,8.2936730280001 " /><polygon class="region" points="79.120904541,9.220004612 79.133914185,9.2213306 79.145578681,9.215518697 79.121601359,9.2131666390001 79.120904541,9.220004612 " /><polygon class="region" points="74.332715691,14.014506361 74.327777778,14.008333333 74.320215691,14.014389039 74.327805583,14.024966092 74.332715691,14.014506361 " /><polygon class="region" points="73.465882704,15.884117126 73.453561741,15.888828701 73.463828871,15.900605096 73.471438259,15.89876726 73.465882704,15.884117126 " /><polygon class="region" points="79.520262315,9.3948950880001 79.527780829,9.3958302820001 79.531944445,9.3833333330001 79.521613227,9.384034221 79.520262315,9.3948950880001 " /><polygon class="region" points="74.666074286,13.199265543 74.674714491,13.203148058 74.677777778,13.191666667 74.6716863,13.192393833 74.666074286,13.199265543 " /><polygon class="region" points="79.63684455,9.06751709 79.638806152,9.0756554500001 79.654485067,9.074111938 79.648611111,9.066666667 79.63684455,9.06751709 " /><polygon class="region" points="79.799395074,8.4076578780001 79.801053196,8.4172715930001 79.811111111,8.4 79.804978095,8.400749376 79.799395074,8.4076578780001 " /><polygon class="region" points="74.107728237,14.755495538 74.109566074,14.763104927 74.121344673,14.754833645 74.119444445,14.75 74.107728237,14.755495538 " /><polygon class="region" points="74.059244453,14.815831163 74.055178664,14.82047187 74.067233954,14.823464626 74.065842014,14.81752421 74.059244453,14.815831163 " /><polygon class="region" points="73.799228583,15.371604581 73.791049194,15.371779208 73.792623901,15.383950975 73.800538127,15.382130432 73.799228583,15.371604581 " /><polygon class="region" points="74.666660224,13.381881205 74.673547872,13.387506442 74.679751587,13.379910448 74.6716863,13.375727166 74.666660224,13.381881205 " /><polygon class="region" points="81.016200426,15.761033122 81.028998142,15.767334663 81.03302714,15.764972093 81.023611111,15.754166667 81.016200426,15.761033122 " /><polygon class="region" points="79.228787909,9.2448776250001 79.239349026,9.246438429 79.240277777,9.2375 79.234144762,9.2382495460001 79.228787909,9.2448776250001 " /><polygon class="region" points="78.203788079,8.8407111280001 78.214349195,8.842271593 78.215277778,8.833333333 78.209144931,8.8340827100001 78.203788079,8.8407111280001 " /><polygon class="region" points="79.682599895,9.071566772 79.681944444,9.0708333330001 79.670177884,9.071683756 79.678362359,9.0798221160001 79.682599895,9.071566772 " /><polygon class="region" points="74.474382358,14.010222372 74.478959147,14.013117473 74.487771776,14.011451551 74.481944445,14.004166667 74.474382358,14.010222372 " /><polygon class="region" points="79.882865227,9.444772 79.890605333,9.446301439 79.890277778,9.4375 79.884161377,9.4382127550001 79.882865227,9.444772 " /><polygon class="region" points="74.695365228,13.286438667 74.703105333,13.287968106 74.702777777,13.279166667 74.696661377,13.279879422 74.695365228,13.286438667 " /><polygon class="region" points="78.220365227,8.8739386660001 78.228105333,8.8754679360001 78.227777778,8.8666666660001 78.221661377,8.8673794210001 78.220365227,8.8739386660001 " /><polygon class="region" points="78.249531894,8.957272 78.257272,8.958801269 78.256944445,8.95 78.250828044,8.950712755 78.249531894,8.957272 " /><polygon class="region" points="79.778698731,8.219772 79.786438667,8.22130127 79.786111111,8.2125 79.77999471,8.213212755 79.778698731,8.219772 " /><polygon class="region" points="79.774532064,8.0739386660001 79.782272,8.0754679360001 79.781944444,8.0666666660001 79.775828043,8.0673794210001 79.774532064,8.0739386660001 " /><polygon class="region" points="79.774532064,8.2406053330001 79.782272,8.2421346030001 79.781944444,8.2333333340001 79.775828043,8.2340460890001 79.774532064,8.2406053330001 " /><polygon class="region" points="78.962156847,9.1904327390001 78.967818535,9.1921961470001 78.973611111,9.1833333340001 78.967732747,9.183952671 78.962156847,9.1904327390001 " /><polygon class="region" points="79.774382528,8.186052449 79.776034546,8.196450806 79.782783339,8.189591132 79.774382528,8.186052449 " /><polygon class="region" points="72.8076906,18.706536865 72.813344998,18.708976237 72.815277778,18.7 72.8076906,18.706536865 " /><polygon class="region" points="79.786857096,8.2857035320001 79.792511664,8.2881429030001 79.794444444,8.279166667 79.786857096,8.2857035320001 " /><polygon class="region" points="74.395177884,14.313350423 74.39920756,14.317322117 74.408085124,14.315678914 74.406944444,14.3125 74.395177884,14.313350423 " /><polygon class="region" points="74.095833333,14.841666667 74.09674886,14.850642904 74.104738532,14.842575073 74.095833333,14.841666667 " /><polygon class="region" points="79.84075826,9.629738532 79.841666667,9.6208333340001 79.83269043,9.6217488610001 79.84075826,9.629738532 " /><polygon class="region" points="72.862062243,18.636285401 72.866666666,18.6375 72.865983412,18.630000475 72.863404677,18.62949117 72.862062243,18.636285401 " /><polygon class="region" points="74.091228909,14.840452067 74.095833333,14.841666667 74.095150079,14.834167141 74.092571513,14.833657837 74.091228909,14.840452067 " /><polygon class="region" points="72.841061571,18.706777615 72.843115234,18.713104926 72.846379937,18.709089831 72.841061571,18.706777615 " /><polygon class="region" points="79.795228407,8.4276109480001 79.797281901,8.43393826 79.800546604,8.4299231640001 79.795228407,8.4276109480001 " /><polygon class="region" points="79.791061741,8.1651109490001 79.793115234,8.1714382590001 79.796379937,8.167423163 79.791061741,8.1651109490001 " /><polygon class="region" points="81.199382528,8.7217790390001 81.203251818,8.7256174720001 81.208043416,8.7236928310001 81.206944444,8.7208333340001 81.199382528,8.7217790390001 " /><polygon class="region" points="79.637055999,10.307471999 79.640028,10.310416999 79.642027999,10.309166999 79.639944,10.307028 79.637055999,10.307471999 " /><polygon class="region" points="76.661325073,20.267077976 76.6625,20.2625 76.657766046,20.263714938 76.661325073,20.267077976 " /><polygon class="region" points="79.73703342,8.1266411670001 79.74016927,8.1294216580001 79.741312324,8.1270812990001 79.740277778,8.125 79.73703342,8.1266411670001 " /><polygon class="region" points="73.441200087,16.101641168 73.444335937,16.104421658 73.44547899,16.102081299 73.444444444,16.1 73.441200087,16.101641168 " /><polygon class="region" points="81.224533421,8.514141168 81.227669271,8.5169216580001 81.228812324,8.5145812980001 81.227777778,8.5125 81.224533421,8.514141168 " /><polygon class="region" points="74.23703342,14.709974501 74.240169441,14.712754991 74.241312323,14.710414632 74.240277777,14.708333333 74.23703342,14.709974501 " />
		  </g>
		</svg>