<?xml version="1.0" encoding="UTF-8"?>
	<svg xmlns:xlink="http://www.w3.org/1999/xlink" 
	xmlns="http://www.w3.org/2000/svg" 
	width="360px" height="180px">
	   <style type="text/css">
		  <![CDATA[     
		  .region 
		  { 
			fill:blue; 
			opacity:0.4; 
			stroke:blue;
		  }
		  ]]>
	   </style>

	<circle id="dot" x="-2" y="-2" r="2" style="stroke:none; stroke-width:0; fill:black; opacity:0.7;"/>


	 <image x="0" y="0" width="360" height="180" xlink:href="map.jpg"/>

 
	 <g transform="translate(180,90) scale(1,-1)">   <use xlink:href="#dot" transform="translate(-109.825742,23.991767)" />   <use xlink:href="#dot" transform="translate(-96.551757,15.665581)" />   <use xlink:href="#dot" transform="translate(-105.563705,20.704733)" />   <use xlink:href="#dot" transform="translate(-110.023,24.477)" />   <use xlink:href="#dot" transform="translate(-109.699023,23.699556)" />   <use xlink:href="#dot" transform="translate(-109.899,22.8664)" />   <use xlink:href="#dot" transform="translate(-81.7117,7.6251)" />   <use xlink:href="#dot" transform="translate(-83.898,8.7035)" />   <use xlink:href="#dot" transform="translate(-81.7987,7.2032)" />   <use xlink:href="#dot" transform="translate(-109.806837,22.948771)" />   <use xlink:href="#dot" transform="translate(-109.888136,22.876444)" />   <use xlink:href="#dot" transform="translate(-102.326228,17.974875)" />   <use xlink:href="#dot" transform="translate(-96.083633,15.765417)" />   <use xlink:href="#dot" transform="translate(-102.606889,18.048333)" />   <use xlink:href="#dot" transform="translate(-103.605861,18.529694)" />   <use xlink:href="#dot" transform="translate(-101.65085,17.67535)" />   <use xlink:href="#dot" transform="translate(-102.376028,17.987306)" />   <use xlink:href="#dot" transform="translate(-101.65085,17.67535)" />   <use xlink:href="#dot" transform="translate(-102.326228,17.974875)" />   <use xlink:href="#dot" transform="translate(-101.5549,17.615467)" />   <use xlink:href="#dot" transform="translate(-88.0554,13.16811)" />   <use xlink:href="#dot" transform="translate(-88.0554,13.16811)" />   <use xlink:href="#dot" transform="translate(-88.06457,13.1727)" />   <use xlink:href="#dot" transform="translate(-88.06457,13.1727)" />   <use xlink:href="#dot" transform="translate(-88.0554,13.16811)" />   <use xlink:href="#dot" transform="translate(-92.639722,14.934444)" />   <use xlink:href="#dot" transform="translate(-81.7117,7.6236)" />   <use xlink:href="#dot" transform="translate(-81.8239,7.2576)" />   <use xlink:href="#dot" transform="translate(-92.639722,14.934444)" />   <use xlink:href="#dot" transform="translate(-105.8175,19.924444)" />   <use xlink:href="#dot" transform="translate(-105.88475,21.840917)" />   <use xlink:href="#dot" transform="translate(-105.879,21.851)" />   <use xlink:href="#dot" transform="translate(-105.885,21.841)" />   <use xlink:href="#dot" transform="translate(-105.87925,21.850611)" />   <use xlink:href="#dot" transform="translate(-77.233333,5.766667)" />   <use xlink:href="#dot" transform="translate(-105.890667,21.853083)" />   <use xlink:href="#dot" transform="translate(-105.892,21.854917)" />   <use xlink:href="#dot" transform="translate(-110.576389,24.884722)" />   <use xlink:href="#dot" transform="translate(-105.892,21.855)" />   <use xlink:href="#dot" transform="translate(-105.882,21.844)" />   <use xlink:href="#dot" transform="translate(-105.891,21.853)" />   <use xlink:href="#dot" transform="translate(-105.884,21.842)" />   <use xlink:href="#dot" transform="translate(-105.881806,21.843889)" />   <use xlink:href="#dot" transform="translate(-105.883722,21.841556)" />   <use xlink:href="#dot" transform="translate(-110.458333,24.208333)" />   <use xlink:href="#dot" transform="translate(-105.892,21.854917)" />   <use xlink:href="#dot" transform="translate(-105.884,21.842)" />   <use xlink:href="#dot" transform="translate(-105.892,21.855)" />   <use xlink:href="#dot" transform="translate(-105.879,21.851)" />   <use xlink:href="#dot" transform="translate(-105.883722,21.841556)" />   <use xlink:href="#dot" transform="translate(-105.87925,21.850611)" />   <use xlink:href="#dot" transform="translate(-110.325,24.175)" />   <use xlink:href="#dot" transform="translate(-110.688611,24.436667)" />   <use xlink:href="#dot" transform="translate(-110.225,24.341667)" />   <use xlink:href="#dot" transform="translate(-110.2333,23.4)" />   <use xlink:href="#dot" transform="translate(-110.321667,24.166667)" />   <use xlink:href="#dot" transform="translate(-109.918056,26.989444)" />   <use xlink:href="#dot" transform="translate(-105.29991980442,20.701009953748)" />   <use xlink:href="#dot" transform="translate(-105.29991980442,20.701009953748)" />   <use xlink:href="#dot" transform="translate(-105.29991980442,20.701009953748)" />   <use xlink:href="#dot" transform="translate(-105.29991980442,20.701009953748)" />   <use xlink:href="#dot" transform="translate(-105.29991980442,20.701009953748)" />   <use xlink:href="#dot" transform="translate(-105.31039214948,20.725342797702)" />   <use xlink:href="#dot" transform="translate(-105.29991980442,20.701009953748)" />   <use xlink:href="#dot" transform="translate(-105.30480897406,20.714398320859)" />   <use xlink:href="#dot" transform="translate(-105.32642057621,20.738536132437)" />   <use xlink:href="#dot" transform="translate(-105.29991980442,20.701009953748)" />   <use xlink:href="#dot" transform="translate(-105.29991980442,20.701009953748)" />   <use xlink:href="#dot" transform="translate(-105.29991980442,20.701009953748)" />   <use xlink:href="#dot" transform="translate(-105.29991980442,20.701009953748)" />   <use xlink:href="#dot" transform="translate(-105.29991980442,20.701009953748)" />   <use xlink:href="#dot" transform="translate(-92.513333,14.496667)" />   <use xlink:href="#dot" transform="translate(-111.07,27.93)" />   <use xlink:href="#dot" transform="translate(-110.508333,24.208333)" />   <use xlink:href="#dot" transform="translate(-110.303333,24.705)" />   <use xlink:href="#dot" transform="translate(-84.95,10.066667)" />   <use xlink:href="#dot" transform="translate(-110.508333,24.208333)" />   <use xlink:href="#dot" transform="translate(-110.5,24.2)" />   <use xlink:href="#dot" transform="translate(-111.825,26.708333)" />   <use xlink:href="#dot" transform="translate(-111.783333,26.716667)" />   <use xlink:href="#dot" transform="translate(-110.508333,24.208333)" />   <use xlink:href="#dot" transform="translate(-109.775,23.975)" />   <use xlink:href="#dot" transform="translate(-109.766667,23.966667)" />   <use xlink:href="#dot" transform="translate(-111.091667,25.808333)" />   <use xlink:href="#dot" transform="translate(-111.725,26.558333)" />   <use xlink:href="#dot" transform="translate(-111.716667,26.533333)" />   <use xlink:href="#dot" transform="translate(-99.891944,16.836944)" />   <use xlink:href="#dot" transform="translate(-97.538056,15.971667)" />   <use xlink:href="#dot" transform="translate(-105.104722,19.563056)" />   <use xlink:href="#dot" transform="translate(-110.958333,27.925)" />   <use xlink:href="#dot" transform="translate(-112.325,29.225)" />   <use xlink:href="#dot" transform="translate(-105.104722,19.563056)" />   <use xlink:href="#dot" transform="translate(-105.088333,19.554444)" />   <use xlink:href="#dot" transform="translate(-105.104722,19.563056)" />   <use xlink:href="#dot" transform="translate(-105.085556,19.521944)" />   <use xlink:href="#dot" transform="translate(-105.088333,19.554444)" />   <use xlink:href="#dot" transform="translate(-105.104722,19.563056)" />   <use xlink:href="#dot" transform="translate(-105.088333,19.554444)" />   <use xlink:href="#dot" transform="translate(-97.551667,15.981944)" />   <use xlink:href="#dot" transform="translate(-105.125278,19.580556)" />   <use xlink:href="#dot" transform="translate(-105.085556,19.521944)" />   <use xlink:href="#dot" transform="translate(-110.841667,27.825)" />   <use xlink:href="#dot" transform="translate(-110.841667,27.825)" />   <use xlink:href="#dot" transform="translate(-105.104722,19.563056)" />   <use xlink:href="#dot" transform="translate(-100.704722,17.642222)" />   <use xlink:href="#dot" transform="translate(-100.704722,17.642222)" />   <use xlink:href="#dot" transform="translate(-90.336389,-0.753889)" />   <use xlink:href="#dot" transform="translate(-92.431944,14.726667)" />   <use xlink:href="#dot" transform="translate(-105.125278,19.580556)" />   <use xlink:href="#dot" transform="translate(-105.104722,19.563056)" />   <use xlink:href="#dot" transform="translate(-110.658333,27.908333)" />   <use xlink:href="#dot" transform="translate(-109.391667,26.658333)" />   <use xlink:href="#dot" transform="translate(-105.104722,19.563056)" />   <use xlink:href="#dot" transform="translate(-105.125278,19.580556)" />   <use xlink:href="#dot" transform="translate(-112.091667,24.775)" />   <use xlink:href="#dot" transform="translate(-112.083333,24.766667)" />   <use xlink:href="#dot" transform="translate(-110.406944,24.560278)" />   <use xlink:href="#dot" transform="translate(-110.083333,24.55)" />   <use xlink:href="#dot" transform="translate(-110.091667,24.558333)" />   <use xlink:href="#dot" transform="translate(-109.683333,23.666667)" />   <use xlink:href="#dot" transform="translate(-110.333333,24.133333)" />   <use xlink:href="#dot" transform="translate(-110.358333,24.141667)" />   <use xlink:href="#dot" transform="translate(-109.691667,23.675)" />   <use xlink:href="#dot" transform="translate(-97.722222,16.038611)" />   <use xlink:href="#dot" transform="translate(-100.097222,17)" />   <use xlink:href="#dot" transform="translate(-110.7,25.2)" />   <use xlink:href="#dot" transform="translate(-109.416667,23.383333)" />   <use xlink:href="#dot" transform="translate(-113.466667,31.266667)" />   <use xlink:href="#dot" transform="translate(-87.927778,13.148611)" />   <use xlink:href="#dot" transform="translate(-109,23)" />   <use xlink:href="#dot" transform="translate(-77.3569,6.004)" />   <use xlink:href="#dot" transform="translate(-79.533333,8.916667)" />   <use xlink:href="#dot" transform="translate(-77.35,3.9444)" />   <use xlink:href="#dot" transform="translate(-77.35,3.9444)" />   <use xlink:href="#dot" transform="translate(-85.725,10.555556)" />   <use xlink:href="#dot" transform="translate(-106.465278,23.24)" />   <use xlink:href="#dot" transform="translate(-95,16)" />   <use xlink:href="#dot" transform="translate(-110.958333,27.925)" />   <use xlink:href="#dot" transform="translate(-79,8)" />   <use xlink:href="#dot" transform="translate(-80.922778,-2.219722)" />   <use xlink:href="#dot" transform="translate(-113.642222,31.345556)" />   <use xlink:href="#dot" transform="translate(-99.933333,16.85)" />   <use xlink:href="#dot" transform="translate(-111.461667,26.5125)" />   <use xlink:href="#dot" transform="translate(-110.955,25.31)" />   <use xlink:href="#dot" transform="translate(-110.954167,25.31)" />   <use xlink:href="#dot" transform="translate(-111.713333,24.311667)" />   <use xlink:href="#dot" transform="translate(-111.311667,25.808333)" />   <use xlink:href="#dot" transform="translate(-85.7,10.583333)" />   <use xlink:href="#dot" transform="translate(-111.061274,27.94336)" />   <use xlink:href="#dot" transform="translate(-109.916667,22.916667)" />   <use xlink:href="#dot" transform="translate(-109.916667,22.916667)" />   <use xlink:href="#dot" transform="translate(-112.108333,28.916667)" />   <use xlink:href="#dot" transform="translate(-112.025,28.858333)" />   <use xlink:href="#dot" transform="translate(-112.025,28.858333)" />   <use xlink:href="#dot" transform="translate(-84.816667,9.980556)" />   <use xlink:href="#dot" transform="translate(-105.416667,20.666667)" />   <use xlink:href="#dot" transform="translate(-110.851667,23.946667)" />   <use xlink:href="#dot" transform="translate(-112.081667,24.581667)" />   <use xlink:href="#dot" transform="translate(-111.875,24.523333)" />   <use xlink:href="#dot" transform="translate(-104.365505,19.077547)" />   <use xlink:href="#dot" transform="translate(-102,17.916667)" />   <use xlink:href="#dot" transform="translate(-109.85,24.15)" />   <use xlink:href="#dot" transform="translate(-109.75,23.916667)" />   <use xlink:href="#dot" transform="translate(-109.896667,22.875)" />   <use xlink:href="#dot" transform="translate(-105.266667,20.641667)" />   <use xlink:href="#dot" transform="translate(-105.196667,20.65)" />   <use xlink:href="#dot" transform="translate(-105.283333,20.6)" />   <use xlink:href="#dot" transform="translate(-105.196667,20.65)" />   <use xlink:href="#dot" transform="translate(-105.9,21.866667)" />   <use xlink:href="#dot" transform="translate(-105.196667,20.65)" />   <use xlink:href="#dot" transform="translate(-112.08,24.585)" />   <use xlink:href="#dot" transform="translate(-112,25.6667)" />   <use xlink:href="#dot" transform="translate(-112,25.6667)" />   <use xlink:href="#dot" transform="translate(-112,25.6667)" />   <use xlink:href="#dot" transform="translate(-112,25.6667)" />   <use xlink:href="#dot" transform="translate(-112,25.6667)" />   <use xlink:href="#dot" transform="translate(-112,25.666667)" />   <use xlink:href="#dot" transform="translate(-112,25.666667)" />   <use xlink:href="#dot" transform="translate(-112,25.666667)" />   <use xlink:href="#dot" transform="translate(-112,25.666667)" />   <use xlink:href="#dot" transform="translate(-112,25.666667)" />   <use xlink:href="#dot" transform="translate(-102,17.833333)" />   <use xlink:href="#dot" transform="translate(-80.733333,-0.95)" />   <use xlink:href="#dot" transform="translate(-93.916667,16)" />   <use xlink:href="#dot" transform="translate(-109.65,23.683333)" />   <use xlink:href="#dot" transform="translate(-105.233333,21.166667)" />   <use xlink:href="#dot" transform="translate(-103.921111,24.0175)" />   <use xlink:href="#dot" transform="translate(-105.283333,21.533333)" />   <use xlink:href="#dot" transform="translate(-102,17.916667)" />   <use xlink:href="#dot" transform="translate(-99.966667,16.916667)" />   <use xlink:href="#dot" transform="translate(-105.033333,19.516667)" />   <use xlink:href="#dot" transform="translate(-106.5,21.416667)" />   <use xlink:href="#dot" transform="translate(-106.5,21.416667)" />   <use xlink:href="#dot" transform="translate(-104.25,19)" />   <use xlink:href="#dot" transform="translate(-105.416667,21.583333)" />   <use xlink:href="#dot" transform="translate(-106.465367,23.22522)" />   <use xlink:href="#dot" transform="translate(-106.416667,21.416667)" />   <use xlink:href="#dot" transform="translate(-112.25,24.766667)" />   <use xlink:href="#dot" transform="translate(-96.183333,14)" />   <use xlink:href="#dot" transform="translate(-112.05,24.55)" />   <use xlink:href="#dot" transform="translate(-112.5,26.2)" />   <use xlink:href="#dot" transform="translate(-101.5,17.566667)" />   <use xlink:href="#dot" transform="translate(-106.416667,27.166667)" />   <use xlink:href="#dot" transform="translate(-81.230153,-4.25041)" />   <use xlink:href="#dot" transform="translate(-81.230153,-4.25041)" />   <use xlink:href="#dot" transform="translate(-109.888889,22.891667)" />   <use xlink:href="#dot" transform="translate(-84.876638,9.843108)" />   <use xlink:href="#dot" transform="translate(-106.430707,23.228327)" />   <use xlink:href="#dot" transform="translate(-109.567991,26.703212)" />   <use xlink:href="#dot" transform="translate(-109.567991,26.703212)" />   <use xlink:href="#dot" transform="translate(-106.496625,23.273778)" />   <use xlink:href="#dot" transform="translate(-84.876638,9.843108)" />   <use xlink:href="#dot" transform="translate(-84.892843,9.774733)" />   <use xlink:href="#dot" transform="translate(-112.416667,26.25)" />   <use xlink:href="#dot" transform="translate(-84.876638,9.843108)" />   <use xlink:href="#dot" transform="translate(-106.466884,23.27107)" />   <use xlink:href="#dot" transform="translate(-110.972778,27.918611)" />   <use xlink:href="#dot" transform="translate(-106.463904,23.235653)" />   <use xlink:href="#dot" transform="translate(-106.425,23.241667)" />   <use xlink:href="#dot" transform="translate(-106.463904,23.235653)" />   <use xlink:href="#dot" transform="translate(-106.479329,23.291096)" />   <use xlink:href="#dot" transform="translate(-106.466884,23.27107)" />   <use xlink:href="#dot" transform="translate(-113.5,26.75)" />   <use xlink:href="#dot" transform="translate(-110.173841,27.102432)" />   <use xlink:href="#dot" transform="translate(-111.512139,28.334424)" />   <use xlink:href="#dot" transform="translate(-112.183333,24.666667)" />   <use xlink:href="#dot" transform="translate(-110.173841,27.102432)" />   <use xlink:href="#dot" transform="translate(-111.079256,27.932744)" />   <use xlink:href="#dot" transform="translate(-111.11919,27.958743)" />   <use xlink:href="#dot" transform="translate(-111.007384,27.938757)" />   <use xlink:href="#dot" transform="translate(-101.45,17.633333)" />   <use xlink:href="#dot" transform="translate(-110.972778,27.918611)" />   <use xlink:href="#dot" transform="translate(-110.983333,27.933333)" />   <use xlink:href="#dot" transform="translate(-112.664779,29.890624)" />   <use xlink:href="#dot" transform="translate(-109.5,26)" />   <use xlink:href="#dot" transform="translate(-85.10069,9.197109)" />   <use xlink:href="#dot" transform="translate(-99.9,16.816667)" />   <use xlink:href="#dot" transform="translate(-99.926667,16.823333)" />   <use xlink:href="#dot" transform="translate(-99.928333,16.841667)" />   <use xlink:href="#dot" transform="translate(-99.908899,16.840307)" />   <use xlink:href="#dot" transform="translate(-106.428152,21.434884)" />   <use xlink:href="#dot" transform="translate(-101.466667,17.533333)" />   <use xlink:href="#dot" transform="translate(-87.180915,12.490288)" />   <use xlink:href="#dot" transform="translate(-87.180915,12.490288)" />   <use xlink:href="#dot" transform="translate(-87.180915,12.490288)" />   <use xlink:href="#dot" transform="translate(-87.55153,13.113662)" />   <use xlink:href="#dot" transform="translate(-105.497203,20.587856)" />   <use xlink:href="#dot" transform="translate(-85.808416,10.423167)" />   <use xlink:href="#dot" transform="translate(-85.808416,10.423167)" />   <use xlink:href="#dot" transform="translate(-105.497203,20.587856)" />   <use xlink:href="#dot" transform="translate(-81.521939,7.746393)" />   <use xlink:href="#dot" transform="translate(-81.521939,7.746393)" />   <use xlink:href="#dot" transform="translate(-81.521939,7.746393)" />   <use xlink:href="#dot" transform="translate(-81.521939,7.746393)" />   <use xlink:href="#dot" transform="translate(-96.088474,15.767462)" />   <use xlink:href="#dot" transform="translate(-81.521939,7.746393)" />   <use xlink:href="#dot" transform="translate(-81.521939,7.746393)" />   <use xlink:href="#dot" transform="translate(-81.521939,7.746393)" />   <use xlink:href="#dot" transform="translate(-96.088474,15.767462)" />   <use xlink:href="#dot" transform="translate(-81.521939,7.746393)" />   <use xlink:href="#dot" transform="translate(-96.088474,15.767462)" />   <use xlink:href="#dot" transform="translate(-78.976545,8.397439)" />   <use xlink:href="#dot" transform="translate(-100.45,16.8)" />   <use xlink:href="#dot" transform="translate(-106.430707,23.228327)" />   <use xlink:href="#dot" transform="translate(-80.075783,7.357215)" />   <use xlink:href="#dot" transform="translate(-85.033333,10.05)" />   <use xlink:href="#dot" transform="translate(-109.883333,22.866667)" />   <use xlink:href="#dot" transform="translate(-104.873713,19.282674)" />   <use xlink:href="#dot" transform="translate(-111.45,26.516667)" />   <use xlink:href="#dot" transform="translate(-80.075783,7.357215)" />   <use xlink:href="#dot" transform="translate(-109.883333,22.866667)" />   <use xlink:href="#dot" transform="translate(-113.583333,31.333333)" />   <use xlink:href="#dot" transform="translate(-77,12)" />   <use xlink:href="#dot" transform="translate(-109.9,22.883333)" />   <use xlink:href="#dot" transform="translate(-106.483333,23.25)" />   <use xlink:href="#dot" transform="translate(-104.873713,19.282674)" />   <use xlink:href="#dot" transform="translate(-112.03169,24.606137)" />   <use xlink:href="#dot" transform="translate(-99.941667,16.858333)" />   <use xlink:href="#dot" transform="translate(-110.892009,27.909534)" />   <use xlink:href="#dot" transform="translate(-106.7,21.716667)" /><polygon class="region" points="-113.5,26.75 -113.642222,31.345556 -113.583333,31.333333 -77,12 -77.233333,5.766667 -77.35,3.9444 -81.230153,-4.25041 -90.336389,-0.753889 -112.183333,24.666667 -112.25,24.766667 -113.5,26.75 " />
		  </g>
		</svg>