<?xml version="1.0" encoding="UTF-8"?>
	<svg xmlns:xlink="http://www.w3.org/1999/xlink" 
	xmlns="http://www.w3.org/2000/svg" 
	width="360px" height="180px">
	   <style type="text/css">
		  <![CDATA[     
		  .region 
		  { 
			fill:blue; 
			opacity:0.4; 
			stroke:blue;
		  }
		  ]]>
	   </style>

	<circle id="dot" x="-2" y="-2" r="2" style="stroke:none; stroke-width:0; fill:black; opacity:0.7;"/>


	 <image x="0" y="0" width="360" height="180" xlink:href="map.jpg"/>

 
	 <g transform="translate(180,90) scale(1,-1)"><polygon class="region" points="29.677951728,45.461932712 29.788029649,45.467749702 29.758862982,45.225940789 29.633692424,45.206624518 29.594618394,44.824432712 28.803665161,44.640346527 28.929062336,44.755235718 28.825,44.845833333 28.379905362,44.961620416 28.461649069,44.834184096 28.217233954,44.651956176 28.59509786,44.155066257 28.1,44.016666666 27.825704278,44.224080403 28.016099379,43.556122844 27.745833333,43.291666667 26.825,43.504166666 26.700746664,43.353599379 26.43005405,43.407624817 26.457672119,43.096732923 26.28971049,42.833900621 23.895833333,42.783333333 23.882624987,42.55505405 23.603523763,42.516344876 23.540920003,42.082766046 23.316666666,42.175 23.283333333,42.5625 22.808333333,42.825 22.2125,42.525 22.506591119,42.150353326 21.888238865,42.011786059 21.684089152,41.817425707 21.71994595,42.09095815 21.366666667,42.183333333 21.2125,42.391666667 20.959305149,42.359101698 20.728251309,42.88690016 20.145833333,42.754166667 20.02916531,42.79790073 20.115931532,42.970030721 19.767441474,43.015927463 19.575,42.579166667 19.362523397,42.882071601 18.788761563,43.008309937 18.290676202,43.695214166 17.874175347,43.895128886 17.458333333,43.870833334 17.131591119,44.112146674 16.962853326,44.052424452 16.976956177,43.879733954 16.319091119,44.332980008 16.106122844,44.275567288 15.870833333,44.683333334 15.466666667,44.879166666 15.120437283,45.299032253 14.595833334,45.416666666 14.0125,45.9125 14.075,46.166666667 13.679166667,46.4375 13.975567288,46.565451728 13.25,46.7125 13.453813341,46.769091119 13.054166667,47.425 12.266666667,47.3 12.3,47.475 11.997916667,47.491681247 11.8625,47.679166667 11.73971049,47.421400622 11.166197374,47.307715691 10.855381605,47.336932712 10.873290337,47.54547526 10.53008372,47.624407111 10.354166667,47.316666667 10.102450731,47.274646674 10.167296855,47.534018792 10.030017598,47.569982401 10.217284308,47.699000379 9.7031602650001,48.020186191 9.4,47.829166667 8.9,47.975 8.609079997,47.816099379 8.154166667,48.1 8.7590799970001,48.049432712 9.3,48.4875 9.829166666,48.533333333 9.917401802,48.757530721 10.282688903,48.863403998 10.1375,49.158333333 10.305381605,49.433900621 10.933333334,48.979166666 11.2625,49.129166667 11.3125,49.308333334 11.594932386,49.341010708 11.989571974,49.004626464 12.369091118,49.141313341 13.064953613,48.874646674 13.58125,48.979152086 14.372575548,48.483686659 14.844618395,48.586932712 15.16595425,48.800772434 15.421732924,49.453505452 15.779166667,49.4 16.020833333,49.7375 16.391931322,49.742803786 16.404166667,49.904166666 15.821816339,50.188483005 16.026214939,50.329733954 16.433333334,50.366666666 16.694120449,50.099646674 17.036917115,50.22824707 17.225,50.1 17.204166667,49.933333333 17.491934882,49.874199592 17.520833333,49.608333333 18.401742215,49.396186659 18.918758817,49.557871501 18.981245253,49.396298387 19.190676202,49.408952501 19.625,49.620833333 19.828549194,49.543826803 19.7625,49.204166667 20.049112617,49.195124817 20.1,48.995833333 21,49.233333334 21.05,49.425 21.329166667,49.466666666 22.904166666,49.004166666 22.546572537,49.482558696 23.661780125,49.717443339 23.564242215,50.062146674 24.307118395,49.670266046 25.053359307,49.729869079 25.158900621,49.82991333 25.029875014,49.94494595 25.343877156,49.941099379 25.55,49.783333333 26.319119433,49.72464447 26.475850932,49.488350931 27.329166666,49.054166667 28.11220737,49.036734687 29.503770616,47.857365587 29.958333334,47.258333333 30.474149068,46.071684096 29.827450901,46.541313002 29.234184095,46.546684096 28.754973687,46.750705634 28.473862881,47.033597819 28.395833333,47.0875 28.283333333,47.095833333 28.771627469,46.463294135 29.490779283,45.899291484 29.677951728,45.461932712 " /><polygon class="region" points="29.708333333,45.241666667 29.709184095,45.238350932 29.7125,45.2375 29.711649238,45.240815735 29.708333333,45.241666667 " /><polygon class="region" points="29.619618395,45.470266045 29.625411309,45.476174927 29.622048272,45.479733955 29.616255358,45.473825074 29.619618395,45.470266045 " /><polygon class="region" points="29.770111762,45.434081353 29.775411309,45.447008261 29.772048272,45.450567288 29.762371148,45.444970194 29.770111762,45.434081353 " /><polygon class="region" points="29.633027818,45.474055142 29.641850111,45.459442478 29.652777778,45.454166667 29.64909261,45.469925774 29.633027818,45.474055142 " /><polygon class="region" points="29.513509793,44.77430759 29.482766046,44.776214939 29.588067288,44.819370863 29.548043823,44.783900621 29.513509793,44.77430759 " /><polygon class="region" points="30.195454576,45.257377625 30.206015693,45.258938429 30.206944444,45.25 30.200811429,45.250749546 30.195454576,45.257377625 " />
		  </g>
		</svg>